<?xml version="1.0" encoding="UTF-8" standalone="no"?>
<!DOCTYPE svg PUBLIC "-//W3C//DTD SVG 1.1//EN" "http://www.w3.org/Graphics/SVG/1.1/DTD/svg11.dtd">
<svg width="100%" height="100%" viewBox="0 0 160 160" version="1.1" xmlns="http://www.w3.org/2000/svg" xmlns:xlink="http://www.w3.org/1999/xlink" xml:space="preserve" style="fill-rule:evenodd;clip-rule:evenodd;stroke-linecap:round;stroke-linejoin:round;">
    <path id="overlay0" d="M0,0L160,0L160,79.155C159.872,77.066 159.266,74.999 158.184,73.124L125.06,15.752C122.603,11.497 118.064,8.876 113.15,8.876L46.902,8.876C41.989,8.876 37.449,11.497 34.993,15.752L1.869,73.124C-0.588,77.379 -0.588,82.621 1.869,86.876L34.993,144.248C37.449,148.503 41.989,151.124 46.902,151.124L113.15,151.124C118.063,151.124 122.603,148.503 125.06,144.248L158.184,86.876C159.266,85.001 159.872,82.934 160,80.845L160,160L0,160L0,0Z" style="fill:#fff;"/>
    <g id="legs">
        <g id="l20">
            <path id="STROKE_A1319E40.-9B0C.-4EDF.-B862.-79A127EC6F63" d="M101.056,112.748C101.003,112.85 100.964,112.931 100.939,112.989C100.914,113.048 100.885,113.1 100.852,113.146C100.819,113.192 100.785,113.241 100.752,113.292C100.719,113.342 100.69,113.394 100.665,113.447C100.64,113.499 100.614,113.554 100.588,113.613C100.561,113.671 100.532,113.742 100.501,113.825C100.469,113.909 100.44,113.977 100.414,114.029C100.387,114.081 100.371,114.137 100.364,114.195C100.357,114.254 100.341,114.315 100.316,114.38C100.292,114.445 100.259,114.522 100.22,114.611C100.18,114.701 100.147,114.779 100.12,114.845C100.093,114.911 100.068,114.976 100.043,115.041C100.018,115.106 99.989,115.16 99.956,115.205C99.922,115.25 99.893,115.298 99.868,115.351C99.844,115.403 99.821,115.458 99.801,115.515C99.781,115.572 99.758,115.63 99.732,115.689C99.705,115.747 99.679,115.809 99.654,115.874C99.629,115.938 99.607,116 99.587,116.058C99.567,116.117 99.544,116.179 99.517,116.243C99.491,116.308 99.462,116.373 99.43,116.437C99.399,116.502 99.37,116.561 99.343,116.613C99.317,116.665 99.288,116.724 99.256,116.788C99.225,116.853 99.196,116.921 99.169,116.992C99.143,117.063 99.113,117.121 99.079,117.166C99.046,117.21 99.01,117.253 98.972,117.293C98.934,117.332 98.893,117.388 98.848,117.459C98.803,117.53 98.767,117.594 98.741,117.653C98.714,117.711 98.684,117.769 98.651,117.826C98.618,117.884 98.582,117.945 98.544,118.009C98.506,118.074 98.47,118.133 98.437,118.185C98.404,118.237 98.368,118.299 98.33,118.37C98.292,118.441 98.25,118.515 98.206,118.594C98.161,118.672 98.122,118.74 98.089,118.797C98.055,118.854 98.023,118.906 97.992,118.952L97.944,119.021" style="fill:none;stroke:#000;stroke-width:1.63px;"/>
            <path id="STROKE_4B86715C.-47CC.-45FB.-92E8.-38672F070523" d="M62.516,114.107C62.569,114.224 62.601,114.315 62.613,114.38C62.625,114.445 62.637,114.509 62.65,114.574C62.664,114.639 62.677,114.713 62.69,114.796C62.703,114.88 62.72,114.964 62.74,115.048C62.76,115.133 62.779,115.208 62.797,115.272C62.816,115.337 62.838,115.402 62.865,115.467C62.891,115.531 62.918,115.602 62.944,115.679C62.971,115.756 62.996,115.834 63.021,115.913C63.046,115.991 63.072,116.069 63.098,116.146C63.125,116.223 63.148,116.297 63.168,116.368C63.188,116.439 63.21,116.514 63.235,116.592C63.26,116.671 63.282,116.748 63.302,116.826C63.322,116.903 63.342,116.981 63.362,117.059C63.382,117.138 63.405,117.212 63.429,117.283C63.454,117.354 63.48,117.425 63.507,117.496C63.533,117.567 63.556,117.632 63.576,117.69C63.596,117.749 63.622,117.804 63.654,117.856C63.685,117.909 63.721,117.967 63.76,118.032C63.8,118.096 63.836,118.161 63.868,118.226C63.899,118.291 63.928,118.349 63.955,118.399C63.981,118.451 64.008,118.505 64.034,118.564C64.061,118.622 64.087,118.684 64.111,118.749C64.136,118.814 64.165,118.878 64.199,118.943C64.232,119.008 64.264,119.069 64.296,119.128C64.327,119.186 64.36,119.245 64.393,119.303C64.426,119.362 64.455,119.42 64.48,119.479C64.505,119.537 64.531,119.592 64.557,119.643C64.584,119.694 64.61,119.749 64.637,119.807C64.663,119.866 64.692,119.928 64.724,119.992C64.755,120.057 64.784,120.128 64.811,120.205C64.837,120.282 64.864,120.35 64.891,120.409C64.917,120.467 64.94,120.529 64.958,120.593C64.976,120.658 64.995,120.723 65.015,120.787C65.035,120.852 65.058,120.911 65.085,120.963C65.111,121.015 65.141,121.077 65.172,121.148C65.204,121.219 65.229,121.28 65.249,121.333C65.269,121.385 65.289,121.45 65.309,121.527C65.329,121.604 65.348,121.682 65.366,121.76C65.384,121.839 65.41,121.923 65.443,122.012L65.493,122.147" style="fill:none;stroke:#000;stroke-width:1.63px;"/>
            <path id="STROKE_908AE644.-D999.-49D8.-93F6.-11873F8FB18B" d="M98.233,118.592C98.17,118.696 98.119,118.771 98.079,118.816C98.039,118.861 97.993,118.903 97.942,118.943C97.89,118.983 97.829,119.025 97.757,119.07C97.686,119.115 97.625,119.153 97.573,119.186C97.522,119.218 97.464,119.25 97.399,119.283C97.334,119.315 97.27,119.354 97.205,119.4C97.14,119.446 97.072,119.492 97.001,119.537C96.929,119.581 96.861,119.62 96.797,119.652C96.732,119.685 96.67,119.723 96.61,119.768C96.55,119.813 96.494,119.852 96.443,119.884C96.392,119.916 96.337,119.949 96.279,119.981C96.221,120.013 96.163,120.046 96.105,120.078C96.046,120.11 95.985,120.147 95.92,120.186C95.856,120.226 95.784,120.265 95.706,120.304C95.628,120.343 95.55,120.384 95.472,120.429C95.394,120.474 95.32,120.516 95.248,120.554C95.177,120.593 95.109,120.632 95.044,120.672C94.979,120.711 94.915,120.751 94.85,120.789C94.785,120.828 94.72,120.863 94.656,120.896C94.591,120.928 94.53,120.957 94.472,120.983C94.413,121.01 94.354,121.032 94.295,121.051C94.235,121.069 94.176,121.089 94.118,121.108C94.06,121.129 93.999,121.152 93.934,121.178C93.869,121.204 93.801,121.23 93.73,121.256C93.658,121.282 93.587,121.308 93.516,121.333C93.444,121.357 93.366,121.383 93.282,121.409C93.197,121.435 93.116,121.465 93.038,121.497C92.96,121.529 92.879,121.562 92.796,121.594C92.713,121.626 92.629,121.656 92.545,121.682C92.46,121.708 92.376,121.74 92.291,121.779C92.206,121.818 92.125,121.856 92.047,121.895C91.969,121.933 91.891,121.969 91.813,122.001C91.735,122.033 91.654,122.069 91.569,122.109C91.484,122.149 91.404,122.185 91.327,122.218C91.251,122.25 91.171,122.282 91.086,122.315C91.001,122.347 90.917,122.376 90.832,122.4C90.747,122.425 90.663,122.451 90.578,122.477C90.494,122.503 90.419,122.526 90.354,122.546C90.289,122.566 90.225,122.582 90.16,122.595C90.095,122.607 90.027,122.62 89.956,122.634C89.885,122.648 89.81,122.661 89.732,122.673C89.654,122.686 89.576,122.698 89.498,122.711C89.42,122.723 89.336,122.739 89.247,122.759C89.157,122.779 89.07,122.799 88.985,122.819C88.901,122.839 88.813,122.861 88.721,122.886C88.63,122.911 88.545,122.933 88.467,122.953C88.389,122.973 88.315,122.993 88.243,123.013C88.172,123.033 88.1,123.052 88.029,123.071C87.958,123.09 87.886,123.106 87.815,123.119C87.744,123.133 87.669,123.146 87.591,123.159C87.513,123.171 87.435,123.187 87.357,123.207C87.279,123.227 87.202,123.243 87.125,123.256C87.049,123.268 86.972,123.284 86.894,123.304C86.816,123.324 86.738,123.337 86.66,123.343C86.582,123.35 86.507,123.353 86.436,123.353L85.814,123.353C85.742,123.353 85.668,123.356 85.59,123.362C85.512,123.368 85.437,123.378 85.366,123.392C85.294,123.406 85.223,123.419 85.151,123.431C85.08,123.444 85.002,123.456 84.918,123.469C84.833,123.481 84.752,123.494 84.673,123.508C84.595,123.521 84.514,123.538 84.43,123.556C84.345,123.575 84.267,123.594 84.195,123.614C84.124,123.634 84.053,123.65 83.982,123.663C83.91,123.675 83.842,123.688 83.777,123.702C83.713,123.716 83.651,123.723 83.593,123.723L82.622,123.723C82.551,123.723 82.483,123.726 82.418,123.732C82.353,123.738 82.289,123.744 82.224,123.75C82.159,123.757 82.095,123.763 82.03,123.769C81.965,123.775 81.904,123.782 81.846,123.79C81.788,123.797 81.729,123.804 81.669,123.81C81.609,123.816 81.55,123.823 81.492,123.829C81.434,123.835 81.373,123.844 81.308,123.857C81.243,123.869 81.182,123.882 81.124,123.896C81.066,123.91 80.998,123.92 80.92,123.926C80.842,123.932 80.774,123.938 80.716,123.945C80.657,123.951 80.586,123.957 80.501,123.963C80.417,123.97 80.339,123.973 80.267,123.973C80.196,123.973 80.131,123.976 80.073,123.984C80.015,123.991 79.95,123.995 79.879,123.995C79.808,123.995 79.733,123.998 79.655,124.004C79.577,124.011 79.509,124.017 79.451,124.023C79.393,124.029 79.335,124.039 79.277,124.051C79.219,124.063 79.147,124.073 79.062,124.081C78.978,124.088 78.9,124.092 78.829,124.092L78.256,124.092C78.191,124.092 78.12,124.095 78.042,124.101C77.964,124.108 77.896,124.117 77.838,124.13C77.78,124.142 77.721,124.148 77.661,124.148C77.601,124.148 77.542,124.155 77.484,124.169C77.426,124.182 77.365,124.192 77.3,124.199C77.235,124.205 77.164,124.214 77.086,124.226C77.008,124.239 76.933,124.248 76.862,124.255C76.791,124.261 76.719,124.264 76.648,124.264L75.597,124.264C75.539,124.264 75.481,124.261 75.423,124.255C75.365,124.248 75.307,124.245 75.249,124.245L74.88,124.245C74.822,124.245 74.763,124.242 74.704,124.236C74.644,124.23 74.576,124.223 74.5,124.217C74.423,124.211 74.346,124.201 74.268,124.187C74.19,124.174 74.115,124.167 74.044,124.167C73.973,124.167 73.908,124.164 73.85,124.157C73.792,124.151 73.721,124.148 73.636,124.148C73.551,124.148 73.48,124.145 73.422,124.139C73.364,124.133 73.305,124.126 73.245,124.12C73.185,124.114 73.117,124.104 73.041,124.09C72.964,124.076 72.9,124.063 72.847,124.051C72.794,124.039 72.741,124.022 72.69,124.003C72.638,123.983 72.574,123.963 72.496,123.945C72.418,123.926 72.343,123.91 72.272,123.896C72.2,123.882 72.129,123.872 72.058,123.866C71.986,123.86 71.911,123.854 71.833,123.848C71.756,123.841 71.681,123.835 71.609,123.829C71.538,123.823 71.46,123.816 71.376,123.81C71.291,123.804 71.21,123.794 71.134,123.78C71.058,123.767 70.986,123.75 70.92,123.732C70.854,123.713 70.788,123.691 70.723,123.665C70.659,123.638 70.597,123.612 70.539,123.586C70.481,123.56 70.426,123.534 70.375,123.508C70.323,123.482 70.272,123.452 70.22,123.42C70.169,123.388 70.117,123.355 70.063,123.323C70.01,123.291 69.958,123.261 69.907,123.235C69.855,123.209 69.8,123.18 69.742,123.147C69.684,123.115 69.626,123.08 69.568,123.041C69.51,123.002 69.455,122.961 69.404,122.916C69.352,122.871 69.303,122.832 69.257,122.8C69.211,122.768 69.158,122.735 69.1,122.703C69.042,122.671 68.987,122.635 68.936,122.595C68.884,122.555 68.833,122.519 68.782,122.486C68.73,122.454 68.675,122.435 68.615,122.429L68.525,122.419" style="fill:none;stroke:#000;stroke-width:1.63px;"/>
            <path id="STROKE_D4C85559.-AF0E.-4C73.-BB3A.-01DB3B082DB2" d="M68.137,122.285C68.021,122.257 67.94,122.228 67.895,122.195C67.851,122.163 67.802,122.124 67.748,122.079C67.695,122.035 67.643,121.996 67.592,121.964C67.54,121.931 67.482,121.902 67.417,121.876C67.353,121.85 67.295,121.824 67.243,121.797C67.192,121.771 67.14,121.742 67.089,121.71C67.037,121.678 66.988,121.642 66.942,121.603C66.895,121.565 66.85,121.526 66.805,121.488C66.76,121.449 66.705,121.407 66.641,121.363C66.576,121.318 66.515,121.282 66.456,121.256C66.398,121.23 66.337,121.207 66.272,121.187C66.208,121.167 66.143,121.148 66.078,121.129C66.013,121.11 65.948,121.088 65.881,121.062C65.815,121.036 65.75,121.016 65.685,121.002C65.62,120.989 65.559,120.972 65.501,120.954C65.443,120.935 65.388,120.91 65.336,120.877L65.259,120.829" style="fill:none;stroke:#000;stroke-width:1.63px;"/>
            <path id="STROKE_49474DB5.-77B8.-4BC6.-BCA7.-FA026CBD702B" d="M95.918,120.44C95.918,120.57 95.908,120.667 95.888,120.731C95.868,120.796 95.852,120.861 95.841,120.926C95.829,120.991 95.82,121.065 95.813,121.148C95.807,121.231 95.803,121.309 95.803,121.381C95.803,121.453 95.8,121.528 95.793,121.605C95.787,121.683 95.78,121.763 95.773,121.848C95.767,121.933 95.76,122.02 95.754,122.109C95.747,122.199 95.737,122.292 95.724,122.39C95.71,122.487 95.697,122.581 95.684,122.671C95.671,122.762 95.655,122.856 95.636,122.953C95.618,123.05 95.599,123.138 95.579,123.216C95.56,123.295 95.543,123.373 95.53,123.45C95.516,123.527 95.503,123.598 95.49,123.663C95.476,123.727 95.466,123.792 95.46,123.857C95.453,123.922 95.45,123.983 95.45,124.042C95.45,124.1 95.447,124.162 95.442,124.226C95.437,124.291 95.431,124.353 95.425,124.411C95.418,124.47 95.412,124.528 95.405,124.587C95.398,124.645 95.392,124.703 95.385,124.76C95.378,124.818 95.368,124.879 95.355,124.945C95.342,125.011 95.329,125.077 95.315,125.141C95.302,125.206 95.289,125.271 95.276,125.336C95.262,125.4 95.25,125.465 95.238,125.53C95.227,125.595 95.218,125.659 95.211,125.724C95.204,125.789 95.198,125.853 95.191,125.918C95.184,125.983 95.178,126.054 95.171,126.131C95.164,126.208 95.158,126.285 95.151,126.362C95.145,126.439 95.138,126.52 95.131,126.605C95.125,126.69 95.118,126.768 95.111,126.839C95.105,126.909 95.095,126.984 95.082,127.062C95.068,127.141 95.058,127.216 95.052,127.286C95.045,127.357 95.038,127.425 95.032,127.49C95.025,127.555 95.019,127.62 95.014,127.684C95.009,127.749 95,127.811 94.987,127.869C94.974,127.928 94.964,127.986 94.957,128.045C94.95,128.103 94.94,128.165 94.927,128.229C94.914,128.294 94.904,128.359 94.897,128.423C94.89,128.488 94.881,128.556 94.867,128.627C94.854,128.698 94.841,128.769 94.827,128.84C94.814,128.911 94.802,128.979 94.79,129.043C94.779,129.108 94.763,129.176 94.743,129.247C94.723,129.318 94.703,129.389 94.683,129.462C94.663,129.534 94.65,129.608 94.643,129.686C94.637,129.763 94.63,129.837 94.623,129.908C94.617,129.979 94.614,130.047 94.614,130.111C94.614,130.176 94.611,130.241 94.606,130.306C94.601,130.37 94.592,130.438 94.579,130.509C94.565,130.58 94.552,130.645 94.539,130.703C94.526,130.762 94.509,130.82 94.489,130.879C94.469,130.937 94.449,130.999 94.429,131.063C94.409,131.128 94.39,131.19 94.372,131.248C94.354,131.307 94.318,131.349 94.265,131.375L94.185,131.414" style="fill:none;stroke:#000;stroke-width:1.63px;"/>
            <path id="STROKE_A031CAC3.-F5B8.-4274.-8FD6.-28E904D398FA" d="M68.49,123.431C68.5,123.573 68.512,123.676 68.525,123.741C68.539,123.806 68.552,123.88 68.565,123.965C68.578,124.05 68.595,124.128 68.615,124.199C68.635,124.27 68.655,124.35 68.675,124.441C68.694,124.532 68.713,124.626 68.732,124.723C68.75,124.82 68.772,124.917 68.799,125.014C68.825,125.112 68.852,125.212 68.879,125.315C68.905,125.418 68.931,125.519 68.956,125.616C68.981,125.713 69.006,125.813 69.033,125.916C69.06,126.019 69.083,126.123 69.103,126.226C69.123,126.329 69.142,126.43 69.16,126.527C69.178,126.624 69.197,126.721 69.217,126.818C69.237,126.915 69.26,127.016 69.287,127.121C69.313,127.225 69.339,127.326 69.364,127.423C69.389,127.52 69.415,127.617 69.441,127.714C69.468,127.811 69.491,127.885 69.511,127.936C69.531,127.987 69.553,128.058 69.578,128.149C69.603,128.24 69.626,128.328 69.645,128.413C69.665,128.497 69.689,128.585 69.715,128.676C69.742,128.766 69.761,128.85 69.772,128.928C69.784,129.005 69.796,129.076 69.81,129.141C69.823,129.205 69.836,129.27 69.849,129.335C69.863,129.399 69.873,129.461 69.879,129.519C69.886,129.578 69.896,129.64 69.909,129.704C69.922,129.769 69.932,129.84 69.939,129.917C69.946,129.994 69.955,130.069 69.967,130.141C69.978,130.213 69.994,130.294 70.014,130.384C70.034,130.474 70.053,130.561 70.073,130.645C70.093,130.73 70.11,130.818 70.123,130.909C70.137,130.999 70.152,131.09 70.171,131.181C70.189,131.272 70.205,131.359 70.218,131.443C70.231,131.526 70.245,131.6 70.258,131.665C70.271,131.729 70.288,131.794 70.308,131.859C70.327,131.924 70.344,131.985 70.357,132.044C70.371,132.102 70.381,132.171 70.387,132.249C70.394,132.327 70.397,132.395 70.397,132.453L70.397,133.199" style="fill:none;stroke:#000;stroke-width:1.63px;"/>
            <path id="STROKE_CB8B4ED3.-8140.-482C.-B2AD.-A271A17D9440" d="M94.205,131.299C94.205,131.413 94.205,131.503 94.205,131.568C94.205,131.632 94.193,131.694 94.168,131.752C94.143,131.811 94.111,131.879 94.071,131.958C94.031,132.036 93.992,132.101 93.954,132.152C93.916,132.203 93.88,132.255 93.847,132.307C93.813,132.359 93.775,132.418 93.73,132.482C93.685,132.547 93.64,132.605 93.595,132.656C93.551,132.707 93.505,132.756 93.459,132.802C93.412,132.848 93.363,132.9 93.312,132.958C93.26,133.017 93.209,133.072 93.157,133.123C93.106,133.174 93.054,133.222 93,133.268C92.947,133.314 92.892,133.36 92.834,133.405C92.775,133.449 92.717,133.498 92.659,133.55C92.601,133.603 92.54,133.654 92.475,133.705C92.41,133.756 92.359,133.802 92.321,133.842C92.283,133.882 92.24,133.918 92.194,133.95C92.147,133.982 92.095,134.021 92.037,134.066C91.979,134.111 91.924,134.152 91.873,134.191C91.821,134.229 91.77,134.268 91.718,134.306C91.667,134.345 91.615,134.388 91.562,134.434C91.508,134.48 91.456,134.525 91.405,134.57C91.353,134.615 91.302,134.653 91.25,134.686C91.199,134.718 91.15,134.75 91.103,134.782C91.057,134.815 91.011,134.847 90.966,134.88C90.922,134.912 90.874,134.944 90.822,134.977C90.771,135.009 90.719,135.041 90.668,135.074C90.616,135.106 90.561,135.145 90.501,135.191C90.441,135.237 90.379,135.28 90.314,135.319C90.25,135.357 90.192,135.392 90.14,135.425C90.089,135.457 90.037,135.49 89.986,135.522C89.934,135.554 89.883,135.584 89.831,135.61C89.78,135.636 89.721,135.665 89.655,135.697C89.588,135.73 89.523,135.759 89.458,135.785C89.393,135.811 89.329,135.834 89.264,135.853C89.199,135.871 89.131,135.89 89.06,135.91C88.988,135.93 88.92,135.95 88.856,135.968C88.791,135.987 88.733,136.006 88.681,136.026C88.63,136.046 88.572,136.072 88.507,136.104C88.442,136.137 88.384,136.166 88.333,136.192C88.281,136.218 88.229,136.241 88.176,136.26C88.123,136.278 88.071,136.3 88.019,136.327C87.968,136.353 87.913,136.379 87.855,136.405C87.797,136.431 87.742,136.457 87.691,136.483C87.639,136.51 87.584,136.532 87.526,136.551C87.468,136.569 87.413,136.589 87.36,136.608C87.307,136.628 87.241,136.648 87.163,136.668C87.085,136.688 87.007,136.704 86.929,136.717C86.851,136.729 86.774,136.745 86.697,136.765C86.621,136.785 86.556,136.801 86.503,136.814C86.45,136.826 86.391,136.846 86.326,136.872C86.262,136.898 86.204,136.92 86.152,136.939C86.101,136.958 86.046,136.98 85.988,137.006C85.93,137.032 85.872,137.052 85.814,137.066C85.756,137.08 85.697,137.096 85.637,137.114C85.577,137.133 85.518,137.149 85.46,137.163C85.402,137.177 85.344,137.19 85.286,137.202C85.228,137.215 85.16,137.224 85.082,137.23C85.004,137.237 84.929,137.243 84.858,137.251C84.786,137.258 84.718,137.265 84.654,137.271C84.589,137.277 84.521,137.284 84.45,137.29C84.378,137.296 84.307,137.299 84.235,137.299L83.556,137.299C83.496,137.299 83.437,137.303 83.379,137.309C83.321,137.315 83.263,137.321 83.205,137.327C83.147,137.333 83.085,137.34 83.021,137.348C82.956,137.355 82.894,137.362 82.837,137.368C82.778,137.375 82.71,137.378 82.632,137.378C82.554,137.378 82.483,137.378 82.418,137.378C82.353,137.378 82.285,137.375 82.214,137.368C82.143,137.362 82.078,137.359 82.02,137.359L81.408,137.359C81.329,137.359 81.251,137.355 81.173,137.348C81.096,137.34 81.014,137.333 80.93,137.327C80.845,137.321 80.763,137.315 80.685,137.309C80.608,137.303 80.53,137.299 80.452,137.299L79.994,137.299C79.922,137.299 79.851,137.289 79.78,137.27C79.708,137.25 79.64,137.233 79.575,137.221C79.511,137.208 79.443,137.196 79.371,137.184C79.3,137.171 79.228,137.161 79.157,137.154C79.086,137.146 79.014,137.143 78.943,137.143C78.872,137.143 78.798,137.139 78.721,137.133C78.645,137.127 78.568,137.118 78.49,137.105C78.412,137.093 78.346,137.077 78.293,137.057C78.24,137.037 78.175,137.014 78.097,136.988C78.019,136.961 77.951,136.942 77.893,136.93C77.834,136.917 77.766,136.904 77.689,136.89C77.61,136.877 77.542,136.864 77.484,136.851C77.426,136.839 77.368,136.83 77.31,136.823C77.252,136.817 77.184,136.807 77.106,136.793C77.028,136.78 76.957,136.766 76.892,136.754C76.827,136.742 76.766,136.722 76.708,136.696C76.65,136.67 76.591,136.644 76.533,136.618C76.475,136.592 76.414,136.566 76.349,136.541C76.284,136.516 76.22,136.494 76.155,136.474C76.09,136.454 76.028,136.438 75.968,136.426C75.909,136.413 75.853,136.397 75.801,136.377C75.75,136.357 75.699,136.331 75.647,136.299C75.596,136.266 75.538,136.234 75.473,136.202C75.408,136.169 75.347,136.143 75.289,136.123C75.231,136.103 75.172,136.087 75.115,136.074C75.056,136.062 74.997,136.043 74.938,136.017C74.878,135.991 74.826,135.961 74.781,135.929C74.736,135.897 74.691,135.861 74.647,135.822C74.602,135.784 74.553,135.752 74.5,135.726C74.446,135.699 74.384,135.677 74.313,135.658C74.241,135.64 74.177,135.617 74.119,135.591C74.061,135.565 74.002,135.539 73.944,135.513C73.886,135.486 73.835,135.457 73.79,135.425C73.745,135.392 73.699,135.36 73.653,135.328C73.607,135.296 73.561,135.26 73.516,135.221C73.472,135.183 73.427,135.147 73.382,135.115C73.337,135.083 73.285,135.05 73.225,135.018C73.165,134.985 73.106,134.959 73.048,134.939C72.99,134.919 72.935,134.9 72.884,134.88C72.833,134.86 72.781,134.837 72.73,134.812C72.678,134.788 72.632,134.755 72.593,134.715C72.553,134.676 72.511,134.636 72.466,134.598C72.421,134.559 72.379,134.518 72.341,134.473C72.303,134.428 72.258,134.392 72.205,134.366C72.151,134.34 72.099,134.314 72.048,134.288C71.996,134.262 71.948,134.233 71.903,134.2C71.858,134.168 71.819,134.129 71.786,134.084C71.753,134.04 71.714,133.994 71.669,133.948C71.624,133.902 71.579,133.86 71.532,133.821C71.486,133.783 71.44,133.747 71.396,133.715C71.351,133.682 71.312,133.641 71.281,133.59C71.249,133.539 71.214,133.49 71.174,133.444C71.134,133.398 71.095,133.352 71.057,133.308C71.019,133.263 70.973,133.227 70.92,133.201C70.867,133.175 70.814,133.146 70.763,133.113C70.712,133.081 70.66,133.042 70.609,132.996C70.557,132.95 70.515,132.904 70.482,132.86C70.449,132.815 70.42,132.766 70.395,132.714C70.37,132.662 70.344,132.603 70.317,132.539L70.278,132.441" style="fill:none;stroke:#000;stroke-width:1.63px;"/>
            <path id="STROKE_EF3E0E6D.-D53B.-43D0.-A1D0.-F30ED7C82E01" d="M94.439,133.065C94.283,133.142 94.176,133.197 94.118,133.229C94.06,133.262 94.009,133.297 93.964,133.336C93.919,133.374 93.876,133.414 93.837,133.453C93.797,133.493 93.755,133.532 93.71,133.571C93.665,133.609 93.614,133.658 93.555,133.716C93.497,133.775 93.446,133.827 93.401,133.872C93.356,133.916 93.311,133.961 93.264,134.006C93.218,134.051 93.165,134.099 93.107,134.152C93.049,134.204 92.991,134.262 92.933,134.327C92.875,134.392 92.823,134.45 92.776,134.503C92.73,134.555 92.681,134.606 92.63,134.657C92.578,134.709 92.527,134.763 92.475,134.822C92.424,134.88 92.366,134.939 92.301,134.997C92.236,135.056 92.171,135.12 92.107,135.191C92.042,135.262 91.974,135.333 91.903,135.404C91.831,135.475 91.76,135.547 91.689,135.619C91.617,135.691 91.549,135.763 91.484,135.834C91.42,135.905 91.355,135.973 91.29,136.037C91.225,136.102 91.161,136.167 91.096,136.231C91.031,136.296 90.972,136.358 90.919,136.416C90.866,136.475 90.811,136.536 90.753,136.601C90.694,136.666 90.643,136.727 90.598,136.784C90.553,136.841 90.514,136.896 90.481,136.948C90.448,137.001 90.412,137.053 90.374,137.105C90.336,137.157 90.3,137.209 90.267,137.26C90.234,137.311 90.198,137.363 90.16,137.415C90.122,137.467 90.08,137.52 90.035,137.572C89.991,137.624 89.945,137.676 89.899,137.727C89.852,137.778 89.807,137.829 89.762,137.882C89.717,137.934 89.669,137.989 89.617,138.048C89.566,138.106 89.52,138.161 89.48,138.212C89.441,138.263 89.402,138.315 89.363,138.367C89.325,138.42 89.28,138.468 89.226,138.513C89.173,138.558 89.124,138.603 89.08,138.649C89.035,138.695 88.993,138.747 88.955,138.804C88.917,138.861 88.878,138.916 88.838,138.969C88.798,139.021 88.763,139.073 88.731,139.125C88.7,139.178 88.664,139.226 88.624,139.271C88.584,139.316 88.542,139.364 88.497,139.417C88.452,139.469 88.41,139.517 88.37,139.562C88.33,139.607 88.291,139.652 88.253,139.698C88.215,139.745 88.167,139.784 88.109,139.816C88.051,139.848 87.993,139.874 87.934,139.893C87.876,139.911 87.818,139.93 87.758,139.95C87.698,139.97 87.639,139.993 87.581,140.02C87.523,140.046 87.468,140.075 87.417,140.107C87.365,140.14 87.314,140.178 87.262,140.223C87.211,140.268 87.156,140.313 87.098,140.357C87.04,140.402 86.978,140.448 86.911,140.494C86.845,140.54 86.789,140.579 86.745,140.611C86.7,140.644 86.652,140.673 86.6,140.699C86.549,140.725 86.491,140.755 86.426,140.787C86.361,140.819 86.303,140.845 86.252,140.864C86.2,140.882 86.139,140.901 86.068,140.921C85.996,140.941 85.921,140.954 85.843,140.96C85.766,140.967 85.691,140.98 85.619,141C85.548,141.02 85.477,141.039 85.406,141.058C85.334,141.076 85.272,141.095 85.219,141.115C85.166,141.135 85.11,141.159 85.052,141.185C84.994,141.211 84.939,141.237 84.888,141.263C84.836,141.289 84.775,141.318 84.703,141.351C84.632,141.383 84.571,141.409 84.519,141.427C84.468,141.446 84.41,141.465 84.345,141.485C84.28,141.505 84.215,141.518 84.151,141.524C84.086,141.53 84.021,141.537 83.957,141.543C83.892,141.549 83.824,141.552 83.752,141.552L79.615,141.552C79.537,141.552 79.466,141.546 79.401,141.534C79.336,141.521 79.275,141.505 79.217,141.485C79.159,141.465 79.097,141.439 79.033,141.407C78.968,141.374 78.903,141.345 78.839,141.319C78.774,141.293 78.706,141.274 78.634,141.261C78.563,141.249 78.492,141.232 78.42,141.212C78.349,141.193 78.284,141.173 78.226,141.155C78.168,141.136 78.107,141.117 78.042,141.097C77.977,141.077 77.913,141.054 77.848,141.028C77.783,141.002 77.721,140.972 77.661,140.94C77.601,140.908 77.542,140.872 77.484,140.834C77.426,140.795 77.372,140.756 77.32,140.718C77.268,140.679 77.214,140.647 77.156,140.621C77.098,140.595 77.039,140.572 76.981,140.552C76.923,140.532 76.864,140.516 76.805,140.503C76.745,140.491 76.686,140.474 76.628,140.455C76.57,140.435 76.515,140.415 76.464,140.397C76.412,140.378 76.361,140.346 76.309,140.3C76.258,140.254 76.209,140.205 76.162,140.154C76.116,140.103 76.07,140.054 76.025,140.008C75.981,139.962 75.936,139.923 75.891,139.891C75.846,139.858 75.795,139.83 75.737,139.805C75.679,139.78 75.62,139.758 75.56,139.738C75.5,139.718 75.445,139.695 75.393,139.668C75.342,139.642 75.294,139.613 75.249,139.581C75.204,139.548 75.156,139.51 75.105,139.465C75.053,139.42 75.004,139.379 74.958,139.34C74.911,139.301 74.862,139.262 74.811,139.222C74.759,139.182 74.708,139.143 74.656,139.105C74.605,139.066 74.556,139.021 74.51,138.969C74.463,138.916 74.414,138.868 74.363,138.823C74.311,138.778 74.26,138.726 74.208,138.668C74.157,138.609 74.114,138.555 74.081,138.503C74.048,138.452 74.013,138.407 73.974,138.367C73.936,138.327 73.897,138.288 73.857,138.25C73.818,138.211 73.775,138.172 73.73,138.134C73.685,138.095 73.637,138.05 73.586,137.998C73.535,137.945 73.486,137.894 73.439,137.843C73.393,137.792 73.344,137.74 73.292,137.688C73.241,137.635 73.193,137.59 73.148,137.552C73.103,137.513 73.055,137.471 73.004,137.426C72.952,137.381 72.903,137.343 72.857,137.31C72.81,137.278 72.765,137.246 72.72,137.214C72.675,137.181 72.62,137.145 72.555,137.105C72.491,137.065 72.435,137.029 72.389,136.997C72.342,136.964 72.297,136.929 72.252,136.89C72.207,136.852 72.162,136.81 72.117,136.765C72.072,136.721 72.03,136.672 71.99,136.62C71.95,136.568 71.918,136.512 71.893,136.454C71.868,136.395 71.849,136.327 71.836,136.25C71.823,136.173 71.813,136.092 71.806,136.007C71.8,135.923 71.796,135.839 71.796,135.755L71.796,135.339L71.796,135.242" style="fill:none;stroke:#000;stroke-width:1.63px;"/>
            <path id="STROKE_88991074.-6146.-40B4.-B0B7.-7F6A66F29EF8" d="M87.125,140.641C87.099,140.771 87.073,140.864 87.048,140.921C87.023,140.979 86.988,141.033 86.941,141.086C86.895,141.138 86.849,141.19 86.804,141.242C86.76,141.295 86.715,141.346 86.67,141.397C86.625,141.448 86.579,141.494 86.533,141.534C86.487,141.573 86.441,141.613 86.396,141.651C86.351,141.69 86.297,141.722 86.232,141.749C86.167,141.775 86.108,141.794 86.055,141.806C86.002,141.819 85.946,141.831 85.888,141.844C85.83,141.856 85.775,141.872 85.724,141.892C85.672,141.912 85.608,141.935 85.53,141.961C85.452,141.987 85.38,142.017 85.316,142.049C85.251,142.081 85.186,142.114 85.122,142.146C85.057,142.179 84.992,142.214 84.928,142.252C84.863,142.291 84.798,142.33 84.733,142.368C84.669,142.407 84.604,142.439 84.539,142.465C84.474,142.491 84.413,142.514 84.355,142.534C84.297,142.554 84.235,142.574 84.171,142.592C84.106,142.611 84.04,142.627 83.974,142.641C83.908,142.655 83.842,142.668 83.777,142.68C83.713,142.693 83.651,142.709 83.593,142.729C83.535,142.749 83.47,142.778 83.399,142.816C83.328,142.855 83.256,142.89 83.185,142.923C83.114,142.955 83.033,142.981 82.943,142.999C82.854,143.018 82.782,143.034 82.729,143.048C82.676,143.062 82.614,143.075 82.543,143.087C82.471,143.1 82.4,143.109 82.329,143.115C82.257,143.121 82.186,143.124 82.114,143.124C82.043,143.124 81.975,143.124 81.91,143.124C81.846,143.124 81.781,143.115 81.716,143.097C81.651,143.078 81.583,143.065 81.512,143.059C81.441,143.053 81.373,143.046 81.308,143.039C81.243,143.031 81.182,143.024 81.124,143.018C81.066,143.012 81.008,142.999 80.949,142.981C80.891,142.962 80.833,142.943 80.775,142.923C80.717,142.903 80.658,142.887 80.599,142.874C80.539,142.862 80.483,142.842 80.432,142.816C80.38,142.79 80.325,142.767 80.267,142.747C80.209,142.727 80.154,142.708 80.103,142.689C80.052,142.671 79.997,142.651 79.939,142.632C79.881,142.612 79.822,142.592 79.762,142.572C79.702,142.552 79.64,142.533 79.575,142.514C79.511,142.495 79.449,142.483 79.391,142.477C79.333,142.47 79.275,142.464 79.217,142.456C79.159,142.449 79.094,142.435 79.023,142.417C78.951,142.398 78.89,142.376 78.839,142.35C78.787,142.323 78.736,142.288 78.684,142.243C78.633,142.198 78.584,142.15 78.537,142.097C78.491,142.045 78.449,141.984 78.41,141.913C78.372,141.842 78.346,141.777 78.333,141.719C78.32,141.66 78.306,141.598 78.293,141.534L78.273,141.437" style="fill:none;stroke:#000;stroke-width:1.63px;"/>
            <path id="STROKE_7F30BAB6.-B4B3.-488F.-8B65.-620E9C84B583" d="M94.967,128.207C94.887,128.299 94.825,128.371 94.78,128.422C94.735,128.473 94.694,128.518 94.656,128.558C94.618,128.598 94.575,128.64 94.529,128.685C94.482,128.73 94.43,128.775 94.372,128.82C94.314,128.864 94.249,128.91 94.178,128.956C94.106,129.002 94.035,129.051 93.964,129.103C93.892,129.156 93.824,129.198 93.76,129.23C93.695,129.262 93.63,129.298 93.565,129.337C93.501,129.375 93.443,129.414 93.391,129.452C93.34,129.491 93.287,129.529 93.234,129.568C93.181,129.607 93.126,129.652 93.067,129.704C93.01,129.757 92.948,129.808 92.883,129.859C92.819,129.91 92.751,129.965 92.679,130.024C92.608,130.082 92.533,130.141 92.455,130.199C92.377,130.258 92.302,130.313 92.231,130.365C92.16,130.418 92.092,130.46 92.027,130.492C91.962,130.525 91.901,130.553 91.843,130.578C91.785,130.603 91.73,130.625 91.679,130.645C91.627,130.665 91.575,130.685 91.522,130.705C91.469,130.725 91.407,130.754 91.337,130.793C91.268,130.831 91.206,130.867 91.153,130.899C91.1,130.932 91.045,130.97 90.986,131.015C90.928,131.06 90.867,131.108 90.802,131.161C90.737,131.213 90.663,131.268 90.578,131.327C90.494,131.385 90.412,131.44 90.334,131.491C90.256,131.542 90.182,131.591 90.11,131.637C90.039,131.683 89.977,131.725 89.926,131.764C89.875,131.802 89.817,131.841 89.752,131.879C89.687,131.918 89.629,131.957 89.578,131.995C89.526,132.034 89.474,132.066 89.421,132.092C89.368,132.118 89.315,132.145 89.264,132.171C89.212,132.197 89.158,132.22 89.1,132.24C89.042,132.26 88.98,132.286 88.915,132.318C88.851,132.351 88.789,132.383 88.731,132.415C88.673,132.448 88.618,132.48 88.567,132.512C88.515,132.545 88.46,132.577 88.4,132.61C88.34,132.642 88.288,132.674 88.243,132.706C88.198,132.739 88.15,132.774 88.099,132.813C88.047,132.852 87.993,132.89 87.934,132.929C87.876,132.967 87.818,133.003 87.758,133.035C87.698,133.067 87.632,133.103 87.561,133.142C87.49,133.18 87.422,133.212 87.357,133.238C87.292,133.265 87.231,133.291 87.173,133.317C87.115,133.343 87.06,133.366 87.009,133.386C86.957,133.406 86.896,133.428 86.824,133.453C86.753,133.478 86.688,133.504 86.63,133.53C86.572,133.556 86.514,133.579 86.456,133.599C86.398,133.619 86.342,133.638 86.289,133.657C86.236,133.675 86.184,133.695 86.132,133.715C86.081,133.735 86.023,133.755 85.958,133.774C85.893,133.794 85.835,133.814 85.784,133.832C85.732,133.851 85.661,133.877 85.57,133.909C85.478,133.941 85.41,133.974 85.365,134.006C85.321,134.038 85.275,134.074 85.229,134.112C85.182,134.151 85.137,134.186 85.092,134.219C85.047,134.251 84.995,134.277 84.937,134.297C84.879,134.317 84.818,134.337 84.753,134.357C84.689,134.377 84.624,134.39 84.559,134.396C84.494,134.402 84.426,134.415 84.355,134.434C84.284,134.452 84.212,134.474 84.141,134.501C84.069,134.527 84.005,134.559 83.947,134.598C83.889,134.636 83.83,134.669 83.77,134.695C83.71,134.721 83.651,134.747 83.593,134.773L83.506,134.812" style="fill:none;stroke:#000;stroke-width:1.63px;"/>
            <path id="STROKE_8475C8A9.-92D0.-4C06.-B897.-DBB4008DCFFE" d="M82.67,135.122C82.54,135.162 82.446,135.195 82.388,135.221C82.33,135.247 82.275,135.27 82.224,135.289C82.173,135.307 82.115,135.326 82.05,135.346L81.953,135.376" style="fill:none;stroke:#000;stroke-width:1.63px;"/>
            <path id="STROKE_CF68322F.-2B0E.-41A5.-94E0.-134BD69CD752" d="M80.374,135.824C80.232,135.824 80.128,135.827 80.063,135.834C79.999,135.84 79.931,135.852 79.859,135.871C79.788,135.89 79.723,135.912 79.665,135.938C79.607,135.964 79.549,135.988 79.491,136.007L79.403,136.037" style="fill:none;stroke:#000;stroke-width:1.63px;"/>
            <path id="STROKE_ED08B8B8.-E390.-40EA.-AF61.-2781AF0FA16D" d="M95.121,122.964C95.032,123.042 94.955,123.106 94.89,123.159C94.825,123.211 94.76,123.263 94.696,123.314C94.631,123.365 94.563,123.419 94.491,123.478C94.42,123.536 94.345,123.595 94.268,123.653C94.189,123.712 94.115,123.767 94.043,123.819C93.972,123.872 93.897,123.92 93.819,123.965C93.741,124.01 93.66,124.062 93.575,124.12C93.491,124.179 93.403,124.233 93.312,124.285C93.22,124.335 93.152,124.377 93.107,124.41C93.063,124.442 93.018,124.474 92.973,124.507C92.928,124.539 92.883,124.571 92.836,124.604C92.79,124.636 92.741,124.669 92.689,124.701C92.638,124.733 92.59,124.769 92.545,124.809L92.478,124.869" style="fill:none;stroke:#000;stroke-width:1.63px;"/>
            <path id="STROKE_8145EFDC.-4000.-4D28.-86F3.-9BA08CEC0EAA" d="M91.407,125.743C91.314,125.82 91.226,125.888 91.143,125.946C91.06,126.005 90.977,126.063 90.892,126.121C90.807,126.18 90.726,126.235 90.648,126.286C90.57,126.337 90.489,126.388 90.404,126.441C90.319,126.493 90.235,126.542 90.15,126.587C90.065,126.631 89.981,126.683 89.896,126.741C89.811,126.8 89.724,126.855 89.635,126.908C89.545,126.96 89.451,127.015 89.353,127.074C89.255,127.132 89.181,127.181 89.13,127.219C89.078,127.258 89.026,127.296 88.975,127.335C88.924,127.374 88.871,127.412 88.818,127.451C88.765,127.489 88.713,127.525 88.661,127.557C88.61,127.59 88.559,127.629 88.507,127.675C88.456,127.721 88.407,127.763 88.36,127.802C88.314,127.84 88.265,127.876 88.213,127.908C88.162,127.941 88.094,127.986 88.009,128.045C87.925,128.103 87.85,128.158 87.785,128.209C87.72,128.26 87.652,128.305 87.581,128.343C87.51,128.382 87.442,128.417 87.377,128.45C87.312,128.482 87.258,128.514 87.213,128.547C87.168,128.579 87.11,128.605 87.038,128.625C86.967,128.645 86.892,128.674 86.814,128.713C86.736,128.752 86.652,128.79 86.561,128.829C86.469,128.867 86.384,128.91 86.306,128.956C86.229,129.002 86.161,129.035 86.102,129.055C86.044,129.075 85.973,129.11 85.888,129.161C85.804,129.212 85.726,129.257 85.654,129.296C85.583,129.334 85.512,129.369 85.443,129.402C85.373,129.434 85.308,129.467 85.249,129.499C85.189,129.531 85.13,129.558 85.072,129.577C85.014,129.597 84.956,129.62 84.898,129.646C84.84,129.673 84.775,129.702 84.703,129.734C84.632,129.767 84.561,129.799 84.489,129.831C84.418,129.864 84.34,129.896 84.255,129.928C84.171,129.961 84.089,129.993 84.011,130.026C83.933,130.058 83.869,130.083 83.817,130.102C83.766,130.121 83.704,130.15 83.633,130.19C83.561,130.23 83.484,130.269 83.399,130.308C83.314,130.346 83.233,130.388 83.155,130.433C83.077,130.477 82.996,130.523 82.913,130.569C82.831,130.615 82.759,130.654 82.7,130.686C82.64,130.719 82.578,130.747 82.513,130.772C82.448,130.797 82.387,130.82 82.329,130.84C82.271,130.859 82.202,130.879 82.124,130.899C82.046,130.919 81.975,130.938 81.91,130.957C81.846,130.976 81.784,130.992 81.726,131.006C81.668,131.019 81.607,131.039 81.542,131.065C81.477,131.092 81.409,131.121 81.338,131.153C81.266,131.186 81.195,131.218 81.124,131.25C81.052,131.282 80.981,131.308 80.91,131.327C80.838,131.345 80.767,131.368 80.695,131.394C80.624,131.42 80.559,131.44 80.501,131.452C80.443,131.464 80.385,131.477 80.327,131.491C80.269,131.505 80.211,131.521 80.153,131.539C80.095,131.558 80.03,131.571 79.959,131.579C79.887,131.586 79.813,131.596 79.735,131.609C79.657,131.621 79.591,131.634 79.538,131.646C79.485,131.659 79.429,131.672 79.371,131.685C79.313,131.699 79.258,131.715 79.207,131.734C79.156,131.752 79.094,131.775 79.023,131.801C78.951,131.827 78.877,131.856 78.799,131.889C78.721,131.921 78.646,131.953 78.574,131.986C78.503,132.018 78.432,132.044 78.361,132.064C78.289,132.084 78.211,132.103 78.126,132.122C78.042,132.141 77.967,132.16 77.902,132.18C77.838,132.2 77.78,132.22 77.728,132.24C77.677,132.26 77.605,132.279 77.514,132.298C77.423,132.316 77.348,132.339 77.29,132.365C77.232,132.391 77.171,132.414 77.106,132.434C77.041,132.454 76.976,132.473 76.912,132.492C76.847,132.511 76.776,132.53 76.698,132.55C76.62,132.57 76.545,132.589 76.474,132.608C76.402,132.626 76.334,132.645 76.27,132.666C76.205,132.685 76.147,132.705 76.095,132.725C76.044,132.745 75.986,132.761 75.921,132.774C75.856,132.786 75.795,132.799 75.737,132.811C75.679,132.824 75.623,132.837 75.57,132.85C75.517,132.864 75.451,132.877 75.373,132.889C75.295,132.902 75.221,132.915 75.149,132.929C75.078,132.942 75.013,132.955 74.955,132.968C74.897,132.98 74.839,132.987 74.781,132.987L72.456,132.987C72.391,132.987 72.326,132.99 72.262,132.996C72.197,133.002 72.132,133.008 72.068,133.015C72.003,133.021 71.941,133.024 71.883,133.024L71.505,133.024C71.427,133.024 71.355,133.021 71.291,133.015C71.226,133.008 71.161,132.992 71.097,132.966C71.032,132.94 70.973,132.92 70.92,132.908C70.867,132.896 70.802,132.889 70.726,132.889C70.65,132.889 70.578,132.889 70.512,132.889L70.412,132.889" style="fill:none;stroke:#000;stroke-width:1.63px;"/>
            <path id="STROKE_CA5C8539.-FA45.-48A6.-A852.-243D35F353BD" d="M86.135,123.353C86.005,123.405 85.911,123.45 85.851,123.489C85.791,123.528 85.732,123.569 85.674,123.614C85.616,123.659 85.555,123.704 85.49,123.75C85.425,123.796 85.357,123.839 85.286,123.878C85.215,123.916 85.143,123.958 85.072,124.003C85,124.047 84.926,124.093 84.848,124.139C84.77,124.185 84.689,124.23 84.606,124.275C84.523,124.32 84.433,124.368 84.335,124.421C84.237,124.473 84.139,124.518 84.041,124.557C83.943,124.596 83.85,124.634 83.76,124.673C83.67,124.711 83.58,124.754 83.489,124.8C83.397,124.846 83.306,124.891 83.215,124.936C83.124,124.981 83.052,125.013 83.001,125.033C82.949,125.053 82.898,125.076 82.846,125.102C82.795,125.128 82.72,125.167 82.622,125.218C82.524,125.269 82.45,125.308 82.398,125.334C82.347,125.36 82.272,125.402 82.174,125.461C82.076,125.519 82.002,125.561 81.95,125.587C81.899,125.614 81.827,125.649 81.736,125.694C81.645,125.739 81.564,125.78 81.492,125.819C81.421,125.858 81.356,125.89 81.298,125.916C81.24,125.942 81.172,125.975 81.094,126.013C81.016,126.052 80.938,126.09 80.86,126.129C80.782,126.168 80.707,126.207 80.636,126.247C80.564,126.287 80.49,126.323 80.412,126.355C80.334,126.387 80.259,126.416 80.188,126.441C80.116,126.466 80.045,126.491 79.974,126.517C79.902,126.543 79.832,126.573 79.762,126.605C79.692,126.637 79.622,126.667 79.55,126.693C79.479,126.719 79.405,126.748 79.326,126.781C79.248,126.813 79.174,126.845 79.102,126.878C79.031,126.91 78.956,126.939 78.878,126.965C78.8,126.992 78.726,127.021 78.654,127.053C78.583,127.085 78.512,127.115 78.44,127.141C78.369,127.167 78.291,127.193 78.206,127.219C78.122,127.245 78.037,127.271 77.952,127.296C77.868,127.321 77.777,127.349 77.681,127.382C77.585,127.414 77.491,127.446 77.4,127.479C77.308,127.511 77.22,127.544 77.136,127.576C77.051,127.608 76.97,127.637 76.892,127.664C76.814,127.69 76.739,127.713 76.668,127.733C76.596,127.753 76.528,127.776 76.464,127.802C76.399,127.828 76.334,127.847 76.27,127.86C76.205,127.872 76.137,127.888 76.066,127.908C75.994,127.928 75.929,127.947 75.871,127.966C75.813,127.985 75.752,128.004 75.687,128.024L75.59,128.054" style="fill:none;stroke:#000;stroke-width:1.63px;"/>
            <path id="STROKE_60FA4CCB.-FCE7.-4860.-9D2E.-607872F17CF3" d="M75.396,128.132C75.279,128.132 75.176,128.142 75.085,128.16C74.993,128.179 74.912,128.188 74.841,128.188C74.769,128.188 74.704,128.188 74.647,128.188C74.588,128.188 74.52,128.191 74.442,128.198C74.364,128.204 74.296,128.211 74.238,128.218C74.18,128.226 74.122,128.236 74.064,128.248C74.006,128.261 73.947,128.27 73.887,128.276C73.828,128.282 73.769,128.289 73.71,128.295C73.652,128.301 73.594,128.308 73.536,128.315C73.478,128.323 73.413,128.333 73.342,128.345C73.271,128.358 73.196,128.364 73.118,128.364L70.967,128.364C70.909,128.364 70.844,128.361 70.773,128.354C70.702,128.348 70.634,128.338 70.569,128.325C70.504,128.311 70.439,128.301 70.375,128.295L70.278,128.285" style="fill:none;stroke:#000;stroke-width:1.63px;"/>
        </g>
    </g>
</svg>
