<?xml version="1.0" encoding="utf-8"?>
<!-- Generator: Adobe Illustrator 16.0.0, SVG Export Plug-In . SVG Version: 6.00 Build 0)  -->
<!DOCTYPE svg PUBLIC "-//W3C//DTD SVG 1.1//EN" "http://www.w3.org/Graphics/SVG/1.1/DTD/svg11.dtd">
<svg version="1.1" id="Layer_1" xmlns="http://www.w3.org/2000/svg" xmlns:xlink="http://www.w3.org/1999/xlink" x="0px" y="0px"
	 width="160px" height="160px" viewBox="0 0 160 160" enable-background="new 0 0 160 160" xml:space="preserve">
<g id="l14">
	
		<path fill="#11AA11" stroke="#000000" stroke-width="1.7" stroke-linecap="round" stroke-linejoin="round" stroke-miterlimit="1.5" d="
		M115.497,135.078c-0.097-0.171,1.449-7.953,1.35-8.11c-2.713-4.282-6.423-3.731-10.727-0.288"/>
	
		<path fill="#11AA11" stroke="#000000" stroke-width="1.7" stroke-linecap="round" stroke-linejoin="round" stroke-miterlimit="1.5" d="
		M98.743,116.459c2.919,4.479,7.262,10.786,9.57,12.423c2.625,1.862,7.203-1.338,9.549-1.442c4.766-0.215,6.188,6.482,2.196,9.223
		c-1.843,1.268-6.29,1.518-12.204-0.281c-9.383-2.854-15.068,0.574-15.068,0.574c-6.887,2.635-10.157-3.63-3.471-7.378l-2.805-9.328
		C90.853,119.652,94.97,118.35,98.743,116.459z M60.523,114.839c4.471,2.735,9.528,4.606,14.936,5.38
		c0.394,4.17,0.832,8.264,1.306,12.299l-24.557-2.332C56.42,126.041,59.056,120.834,60.523,114.839z"/>
	
		<circle fill="#11AA11" stroke="#000000" stroke-width="1.7" stroke-linecap="round" stroke-linejoin="round" stroke-miterlimit="1.5" cx="51.954" cy="132.114" r="3.433"/>
	
		<circle fill="#11AA11" stroke="#000000" stroke-width="1.7" stroke-linecap="round" stroke-linejoin="round" stroke-miterlimit="1.5" cx="57.884" cy="132.559" r="4.498"/>
	
		<circle fill="#11AA11" stroke="#000000" stroke-width="1.7" stroke-linecap="round" stroke-linejoin="round" stroke-miterlimit="1.5" cx="66.509" cy="133.135" r="4.498"/>
	
		<circle fill="#11AA11" stroke="#000000" stroke-width="1.7" stroke-linecap="round" stroke-linejoin="round" stroke-miterlimit="1.5" cx="75.398" cy="132.668" r="5.686"/>
</g>
</svg>
