<?xml version="1.0" encoding="utf-8"?>
<!-- Generator: Adobe Illustrator 16.0.0, SVG Export Plug-In . SVG Version: 6.00 Build 0)  -->
<!DOCTYPE svg PUBLIC "-//W3C//DTD SVG 1.1//EN" "http://www.w3.org/Graphics/SVG/1.1/DTD/svg11.dtd">
<svg version="1.1" id="Layer_1" xmlns="http://www.w3.org/2000/svg" xmlns:xlink="http://www.w3.org/1999/xlink" x="0px" y="0px"
	 width="160px" height="160px" viewBox="0 0 160 160" enable-background="new 0 0 160 160" xml:space="preserve">
<g id="l15">
	
		<path fill="#11AA11" stroke="#000000" stroke-width="1.7" stroke-linecap="round" stroke-linejoin="round" stroke-miterlimit="1.5" d="
		M103.157,113.878l-1.918,2.914l5.342,6.708c0,0,7.697-10.167,10.412-12.49c1.63-1.395,6.417-0.486,6.417-0.486
		c1.062,1.375,1.094,2.746-0.62,4.104c0,0-2.143-0.803-3.682,0.564c-1.609,1.432-4.488,6.246-4.488,6.246l13.1-3.809
		c1.942,1.498,2.18,3.014-2.331,4.581l-10.317,3.441l7.421,3.958c0.202,1.303-0.187,2.039-1.062,2.306l-14.078-1.731l-2.636,9.295
		l-5.05,2.395c0,0,3.552-9.564,3.059-13.13c-0.469-3.369-4.232-6.515-6.024-8.257c-1.798-1.746-5.507-1.16-5.507-1.16l0.07-0.033
		C95.56,118.15,99.568,116.301,103.157,113.878z"/>
	
		<path fill="#11AA11" stroke="#000000" stroke-width="1.7" stroke-linecap="round" stroke-linejoin="round" stroke-miterlimit="1.5" d="
		M107.347,130.216l0.809-2.551c2.755-1.698,3.773-3.397,6.4-6.11"/>
	
		<path fill="#11AA11" stroke="#000000" stroke-width="1.7" stroke-linecap="round" stroke-linejoin="round" stroke-miterlimit="1.5" d="
		M70.329,130.734l1.433,12.649c1.861,1.511,3.292,1.418,4.483,0.433l-0.45-13.263l9.779-16.099
		c-0.858-3.534-2.767-4.846-6.025-3.301l-4.322,13.634l-3.809-15.421c-2.142-1.777-3.587-1.375-4.765-0.137l3.519,16.336
		l-10.087-13.777c-3.539,0.127-4.442,1.793-4.089,4.192L70.329,130.734z"/>
</g>
</svg>
