<?xml version="1.0" encoding="UTF-8" standalone="no"?>
<!-- Generator: Adobe Illustrator 22.0.1, SVG Export Plug-In . SVG Version: 6.00 Build 0)  -->

<svg
   xmlns:dc="http://purl.org/dc/elements/1.1/"
   xmlns:cc="http://creativecommons.org/ns#"
   xmlns:rdf="http://www.w3.org/1999/02/22-rdf-syntax-ns#"
   xmlns:svg="http://www.w3.org/2000/svg"
   xmlns="http://www.w3.org/2000/svg"
   xmlns:sodipodi="http://sodipodi.sourceforge.net/DTD/sodipodi-0.dtd"
   xmlns:inkscape="http://www.inkscape.org/namespaces/inkscape"
   version="1.1"
   id="Layer_1"
   x="0px"
   y="0px"
   viewBox="0 0 160 160"
   style="enable-background:new 0 0 160 160;"
   xml:space="preserve"
   sodipodi:docname="bottom_07.svg"
   inkscape:version="0.92.2 (5c3e80d, 2017-08-06)"><metadata
     id="metadata25"><rdf:RDF><cc:Work
         rdf:about=""><dc:format>image/svg+xml</dc:format><dc:type
           rdf:resource="http://purl.org/dc/dcmitype/StillImage" /></cc:Work></rdf:RDF></metadata><defs
     id="defs23" /><sodipodi:namedview
     pagecolor="#ffffff"
     bordercolor="#666666"
     borderopacity="1"
     objecttolerance="10"
     gridtolerance="10"
     guidetolerance="10"
     inkscape:pageopacity="0"
     inkscape:pageshadow="2"
     inkscape:window-width="1920"
     inkscape:window-height="976"
     id="namedview21"
     showgrid="false"
     inkscape:zoom="5.9"
     inkscape:cx="54.42519"
     inkscape:cy="29.924658"
     inkscape:window-x="0"
     inkscape:window-y="27"
     inkscape:window-maximized="1"
     inkscape:current-layer="Layer_1" /><style
     type="text/css"
     id="style2">
	.st0{fill:none;stroke:#3F2904;stroke-width:2;stroke-linecap:round;stroke-linejoin:round;}
	.st1{fill:#00A013;}
	.st2{opacity:0.15;}
</style><title
     id="title4">Artboard 42 copy 223</title><path
     class="st0"
     d="M85.2,120.5c-0.6,5.3,0,10.6,1.8,15.5c3,8,2,6,2,6"
     id="path6" /><path
     class="st1"
     d="M88,138c0,0-6.4-19.1,12.8-19.6S129,99,129,99c1.4,10.7-2.3,21.4-10,29C112,136,96,124,88,138z"
     id="path8"
     style="fill:#000000;fill-opacity:1" /><g
     class="st2"
     id="g12"
     style="opacity:0.25;fill:#010101;fill-opacity:1"><path
       d="M88,138c-1-17,36-8,41-39c1.4,10.7-2.3,21.4-10,29C112,136,96,124,88,138z"
       id="path10"
       style="fill:#010101;fill-opacity:1" /></g><path
     class="st1"
     d="M84.7,130.4c0,0-3.3-8.8-17.9-10s-29.2,1.2-32.5-14.4c-1,8.2,1.4,16.5,6.8,22.8c9,10.8,31.4,3.6,31.4,3.6  s9-3.6,14.6,3.6L84.7,130.4z"
     id="path14"
     style="fill:#000000;fill-opacity:1" /><g
     class="st2"
     id="g18"
     style="opacity:0.25;fill:#010101;fill-opacity:1"><path
       d="M34.2,106c0,0-1.2,14,6.8,22.8c9,10.2,31.4,3.6,31.4,3.6C73.8,130,88,132.1,87,136C87,122.3,39,132.1,34.2,106z"
       id="path16"
       style="fill:#010101;fill-opacity:1" /></g></svg>