<?xml version="1.0" encoding="UTF-8" standalone="no"?>
<!-- Generator: Adobe Illustrator 22.0.1, SVG Export Plug-In . SVG Version: 6.00 Build 0)  -->

<svg
   xmlns:dc="http://purl.org/dc/elements/1.1/"
   xmlns:cc="http://creativecommons.org/ns#"
   xmlns:rdf="http://www.w3.org/1999/02/22-rdf-syntax-ns#"
   xmlns:svg="http://www.w3.org/2000/svg"
   xmlns="http://www.w3.org/2000/svg"
   xmlns:sodipodi="http://sodipodi.sourceforge.net/DTD/sodipodi-0.dtd"
   xmlns:inkscape="http://www.inkscape.org/namespaces/inkscape"
   version="1.1"
   id="Layer_1"
   x="0px"
   y="0px"
   viewBox="0 0 160 160"
   style="enable-background:new 0 0 160 160;"
   xml:space="preserve"
   sodipodi:docname="bottom_02.svg"
   inkscape:version="0.92.2 (5c3e80d, 2017-08-06)"><metadata
     id="metadata71"><rdf:RDF><cc:Work
         rdf:about=""><dc:format>image/svg+xml</dc:format><dc:type
           rdf:resource="http://purl.org/dc/dcmitype/StillImage" /></cc:Work></rdf:RDF></metadata><defs
     id="defs69" /><sodipodi:namedview
     pagecolor="#ffffff"
     bordercolor="#666666"
     borderopacity="1"
     objecttolerance="10"
     gridtolerance="10"
     guidetolerance="10"
     inkscape:pageopacity="0"
     inkscape:pageshadow="2"
     inkscape:window-width="1920"
     inkscape:window-height="976"
     id="namedview67"
     showgrid="false"
     inkscape:zoom="8"
     inkscape:cx="79.213389"
     inkscape:cy="20.869307"
     inkscape:window-x="0"
     inkscape:window-y="27"
     inkscape:window-maximized="1"
     inkscape:current-layer="Layer_1" /><style
     type="text/css"
     id="style2">
	.st0{fill:#FFFFFF;}
	.st1{opacity:0.1;}
	.st2{opacity:0.2;}
</style><title
     id="title4">Artboard 42 copy 236</title><path
     class="st0"
     d="M117.8,127.3c-5-5.9-9.9-2.5-11.9-0.7c-1.2-1-2.3-2.1-3.2-3.4L97,115c-3.8,2.1-7.9,3.5-12.2,4.1l3.6,11  c0,0-5,0.7-5,3.4s2.2,6.2,8.6,3.4s12.9-0.7,18.6,0.7s12.2-0.7,12.2-4.8C122.8,129.6,121.5,127.2,117.8,127.3z"
     id="path6"
     style="fill:#000000;fill-opacity:1" /><g
     class="st1"
     id="g10"
     style="fill:#010101;fill-opacity:1"><path
       d="M83.4,133.5c0,2.7,2.2,6.2,8.6,3.4s12.9-0.7,18.6,0.7s12.2-0.7,12.2-4.8C114,138,113,134,98,134.6   C90,134.6,86,139,83.4,133.5z"
       id="path8"
       style="fill:#010101;fill-opacity:1" /></g><path
     class="st0"
     d="M75.5,125.9l-0.8-7.2c0,0-10-1.4-16.4-5.7c0,0-3.4,12.9-6.9,14.9c-1.8-1.1-4.3-0.6-5.4,1.3  c-0.4,0.6-0.6,1.3-0.6,2.1c0,2.2,1.8,3.9,3.9,3.9c0.6,0,1.3-0.2,1.8-0.5c1.5,2.5,4.8,3.3,7.3,1.8c0.7-0.4,1.2-0.9,1.7-1.6  c1.3,2.7,4.4,3.8,7.1,2.6c1.1-0.5,2-1.4,2.5-2.5c1.7,2.9,5.4,3.8,8.3,2.1c2.9-1.7,3.8-5.4,2.1-8.3C79.2,127.1,77.4,126,75.5,125.9  L75.5,125.9z"
     id="path12"
     style="fill:#000000;fill-opacity:1" /><g
     class="st2"
     id="g20"
     style="fill:#ffffff;fill-opacity:1;opacity:0.2"><path
       class="st0"
       d="M122,131.9c-2.6-2.6-7.9-3-7.9-3c1.2-0.6,2.6-0.9,3.9-0.9C120.2,127.9,122,129.7,122,131.9L122,131.9z"
       id="path18"
       style="fill:#ffffff;fill-opacity:1" /></g><g
     class="st1"
     id="g24"
     style="fill:#010101;fill-opacity:1"><path
       d="M71.5,136.1c5.2-0.4,7.8-1.8,7.3-8.4c2.4,1.9,2.7,5.5,0.8,7.8c-1.9,2.4-5.5,2.7-7.8,0.8C71.6,136.3,71.6,136.2,71.5,136.1z   "
       id="path22"
       style="fill:#010101;fill-opacity:1" /></g><g
     class="st1"
     id="g28"
     style="fill:#010101;fill-opacity:1"><path
       d="M62.6,136.5c4.2-0.3,6.2-1.5,5.8-6.7c1.9,1.6,2.1,4.4,0.5,6.2s-4.4,2.1-6.2,0.5C62.7,136.6,62.6,136.5,62.6,136.5z"
       id="path26"
       style="fill:#010101;fill-opacity:1" /></g><g
     class="st1"
     id="g32"
     style="fill:#010101;fill-opacity:1"><path
       d="M53.5,135.9c3.7-0.2,5.5-1.3,5.2-5.9c1.7,1.4,2,3.8,0.6,5.5c-1.4,1.7-3.8,2-5.5,0.6C53.7,136.1,53.6,136,53.5,135.9z"
       id="path30"
       style="fill:#010101;fill-opacity:1" /></g><g
     class="st1"
     id="g36"
     style="fill:#010101;fill-opacity:1"><path
       d="M47.3,134c3-0.2,4.5-1,4.2-4.8c1.4,1.1,1.6,3.1,0.5,4.5s-3.1,1.6-4.5,0.5C47.5,134.2,47.4,134.1,47.3,134z"
       id="path34"
       style="fill:#010101;fill-opacity:1" /></g><g
     class="st1"
     id="g52"
     style="fill:#010101;fill-opacity:1"><path
       d="M69,117.5l0.8,7.3c-5.1-0.4-10.2,0.6-14.7,2.8c5.2-1.1,10.2-1.6,14.9-0.8c0,0,2.8-1.8,5.6-0.9l-0.9-7.4   C72.8,118.4,70.8,118.1,69,117.5z"
       id="path50"
       style="fill:#010101;fill-opacity:1" /></g><g
     class="st2"
     id="g60"
     style="fill:#ffffff;fill-opacity:1;opacity:0.2"><path
       class="st0"
       d="M86.1,119.1c0,0,3.9,8.9,2.9,11.9c0,0,1.9-8,1-10.2S86.1,119.1,86.1,119.1z"
       id="path58"
       style="fill:#ffffff;fill-opacity:1" /></g><g
     class="st1"
     id="g64"
     style="fill:#010101;fill-opacity:1"><path
       d="M105.9,126.6c2-1.8,6.9-5.2,11.9,0.7C117.8,127.4,109,130,105.9,126.6z"
       id="path62"
       style="fill:#010101;fill-opacity:1" /></g><g
     class="st2"
     id="g56"
     style="fill:#ffffff;fill-opacity:1;opacity:0.2"><path
       class="st0"
       d="M58.9,113.9c0,0-3.3,11.2-6.3,13c0,0,7.2-5.6,8.1-8.4S58.9,113.9,58.9,113.9z"
       id="path54"
       style="fill:#ffffff;fill-opacity:1" /></g><g
     class="st2"
     id="g16"
     style="fill:#ffffff;fill-opacity:1;opacity:0.2"><path
       class="st0"
       d="M79,130.9c-2.6-2.6-4.6-3.3-7.9,0c0-2.2,1.8-3.9,3.9-3.9S79,128.7,79,130.9z"
       id="path14"
       style="fill:#ffffff;fill-opacity:1" /></g><g
     class="st2"
     id="g40"
     style="fill:#ffffff;fill-opacity:1;opacity:0.2"><path
       class="st0"
       d="M67.6,133c-1.9-1.9-3.3-2.4-5.7,0c-0.1-1.6,1.1-2.9,2.7-3s2.9,1.1,3,2.7C67.6,132.8,67.6,132.9,67.6,133z"
       id="path38"
       style="fill:#ffffff;fill-opacity:1" /></g><g
     class="st2"
     id="g44"
     style="fill:#ffffff;fill-opacity:1;opacity:0.2"><path
       class="st0"
       d="M58.3,131.6c-1.4-1.4-2.5-1.8-4.3,0c0.1-1.2,1.1-2.1,2.3-2C57.4,129.6,58.2,130.5,58.3,131.6z"
       id="path42"
       style="fill:#ffffff;fill-opacity:1" /></g><g
     class="st2"
     id="g48"
     style="fill:#ffffff;fill-opacity:1;opacity:0.2"><path
       class="st0"
       d="M52.1,131.6c-1.3-2.4-2.6-3.2-5.5-1.6c0.4-1.5,1.9-2.5,3.4-2.1c1.5,0.4,2.5,1.9,2.1,3.4   C52.1,131.4,52.1,131.5,52.1,131.6z"
       id="path46"
       style="fill:#ffffff;fill-opacity:1" /></g></svg>