<?xml version="1.0" encoding="utf-8"?>
<!-- Generator: Adobe Illustrator 22.0.1, SVG Export Plug-In . SVG Version: 6.00 Build 0)  -->
<svg version="1.1" id="Layer_1" xmlns="http://www.w3.org/2000/svg" xmlns:xlink="http://www.w3.org/1999/xlink" x="0px" y="0px"
	 viewBox="0 0 160 160" style="enable-background:new 0 0 160 160;" xml:space="preserve">
<style type="text/css">
	.st0{fill:#6D4716;}
	.st1{fill:#FFFFFF;}
	.st2{fill:#99671D;}
	.st3{fill:#444444;}
	.st4{fill:#FFC866;}
	.st5{fill:url(#SVGID_1_);}
	.st6{opacity:0.15;}
	.st7{fill:none;stroke:#000000;stroke-width:0.5;stroke-linecap:round;stroke-linejoin:round;}
</style>
<title>Artboard 42 copy 216</title>
<path class="st0" d="M64.5,122.5c0,0,2.7,5.5,5.5,7.5c1.2,0.8,2.3,1.8,3.4,2.7v4.4C73.4,137.5,63.2,134.1,64.5,122.5z"/>
<path class="st1" d="M63.8,122.5c0,0,5.5-1.4,8.9,2s3.4,8.2,1.4,8.2S72,133.4,63.8,122.5z"/>
<path class="st2" d="M37.9,106.8c0,0,4.8-8.2,19.1-0.7s2.7,23.2,15.7,30.7c0,0-3.1,3.1-8.3-6S59.8,106.2,37.9,106.8z"/>
<path class="st3" d="M72.7,136.8c0,0-6.1,2.7-10.2-10.9s-8.9-21.8-20.5-21.1c-1.6,0-3.2,0.6-4.4,1.7c-5.5,5-1.3,19.6,4.4,24.2
	c6.8,5.4,21.8,10.9,28,8.9S72.7,136.8,72.7,136.8z"/>
<path class="st4" d="M73.7,117.2l-1,7.4c-1.9-1.4-3.6-2.3-5-2.3l0.7-6.2C70.1,116.6,71.8,116.9,73.7,117.2z"/>
<path d="M39.3,109.6h11.6c0.3,0,0.5,0.2,0.5,0.5v0.1c0,0.3-0.2,0.5-0.5,0.5H39.3c-0.3,0-0.5-0.2-0.5-0.5v-0.1
	C38.8,109.8,39,109.6,39.3,109.6z"/>
<path d="M38.2,112.7H53c0.3,0,0.5,0.2,0.5,0.5v0.1c0,0.3-0.2,0.5-0.5,0.5H38.2c-0.3,0-0.5-0.2-0.5-0.5v-0.1
	C37.7,113,38,112.7,38.2,112.7z"/>
<path d="M38.2,115.9h17.9c0.3,0,0.5,0.2,0.5,0.5v0.1c0,0.3-0.2,0.5-0.5,0.5H38.2c-0.3,0-0.5-0.2-0.5-0.5v-0.1
	C37.7,116.1,38,115.9,38.2,115.9z"/>
<path d="M39.3,119h17.9c0.3,0,0.5,0.2,0.5,0.5v0.1c0,0.3-0.2,0.5-0.5,0.5H39.3c-0.3,0-0.5-0.2-0.5-0.5v-0.1
	C38.8,119.3,39,119,39.3,119z"/>
<path d="M40.3,122.2h17.9c0.3,0,0.5,0.2,0.5,0.5v0.1c0,0.3-0.2,0.5-0.5,0.5H40.3c-0.3,0-0.5-0.2-0.5-0.5v-0.1
	C39.8,122.4,40.1,122.2,40.3,122.2z"/>
<path d="M42.4,125.3h17.9c0.3,0,0.5,0.2,0.5,0.5v0.1c0,0.3-0.2,0.5-0.5,0.5H42.4c-0.3,0-0.5-0.2-0.5-0.5v-0.1
	C41.9,125.5,42.1,125.3,42.4,125.3z"/>
<path d="M44.5,128.5h15.8c0.3,0,0.5,0.2,0.5,0.5v0.1c0,0.3-0.2,0.5-0.5,0.5H44.5c-0.3,0-0.5-0.2-0.5-0.5V129
	C44,128.7,44.2,128.5,44.5,128.5z"/>
<path d="M48.7,131.6h13.7c0.3,0,0.5,0.2,0.5,0.5v0.1c0,0.3-0.2,0.5-0.5,0.5H48.7c-0.3,0-0.5-0.2-0.5-0.5v-0.1
	C48.2,131.8,48.4,131.6,48.7,131.6z"/>
<path d="M54,134.8h9.5c0.3,0,0.5,0.2,0.5,0.5v0.1c0,0.3-0.2,0.5-0.5,0.5H54c-0.3,0-0.5-0.2-0.5-0.5v-0.1
	C53.5,135,53.7,134.8,54,134.8z"/>
<circle class="st1" cx="102.8" cy="123.9" r="15.5"/>
<radialGradient id="SVGID_1_" cx="102.78" cy="38.13" r="15.5" gradientTransform="matrix(1 0 0 -1 0 162)" gradientUnits="userSpaceOnUse">
	<stop  offset="0" style="stop-color:#FFFFFF"/>
	<stop  offset="0.73" style="stop-color:#FDFDFD"/>
	<stop  offset="1" style="stop-color:#EBEBEC"/>
</radialGradient>
<path class="st5" d="M102.8,109.4c8,0,14.5,6.5,14.5,14.5s-6.5,14.5-14.5,14.5s-14.5-6.5-14.5-14.5l0,0
	C88.3,115.9,94.8,109.4,102.8,109.4 M102.8,108.4c-8.6,0-15.5,6.9-15.5,15.5s6.9,15.5,15.5,15.5s15.5-6.9,15.5-15.5c0,0,0,0,0,0
	C118.3,115.3,111.3,108.4,102.8,108.4z"/>
<g class="st6">
	<path d="M118.3,123.9c0,8.5-6.9,15.5-15.5,15.5c0,0,0,0,0,0c-5,0.1-9.8-2.4-12.6-6.5c23.3,5.6,23.3-18.7,19.1-23
		C114.8,112.2,118.4,117.8,118.3,123.9z"/>
</g>
<path d="M111.2,122l-1.9,6.6c-0.1,0.4-0.4,0.6-0.8,0.6l-6.8,0.2c-0.4,0-0.7-0.2-0.8-0.6l-2.3-6.4c-0.1-0.4,0-0.8,0.3-1l5.4-4.2
	c0.3-0.2,0.7-0.2,1,0l5.6,3.9C111.1,121.3,111.3,121.6,111.2,122z"/>
<path d="M108.8,109.6l-4.2,3.2c-0.3,0.2-0.7,0.2-1,0l-5.5-3.8C101.6,107.9,105.4,108.1,108.8,109.6z"/>
<path d="M99.2,134.1l1.8,5.1c-2.2,0.1-9-2.8-10-5.2c0-0.2,0.3-0.2,0.6-0.2l6.9-0.2C98.8,133.6,99.1,133.8,99.2,134.1z"/>
<path d="M90.9,113.9l1.9,5.4c0.1,0.3,0,0.7-0.3,0.9l-5.3,4.1C87.1,120.5,88.4,116.8,90.9,113.9z"/>
<path d="M110.8,137.2l1.4-4.7c0.1-0.3,0.4-0.6,0.8-0.6l3.2-0.1C114.8,134,113,135.8,110.8,137.2z"/>
<path d="M118,120.7l-1.7-1.1c-0.3-0.2-0.4-0.6-0.3-0.9l0.6-1.9C117.3,118,117.8,119.3,118,120.7z"/>
<line class="st7" x1="100.8" y1="129.7" x2="99.4" y2="133.1"/>
<line class="st7" x1="97" y1="121.4" x2="93.6" y2="120.1"/>
<line class="st7" x1="115.3" y1="118.9" x2="112" y2="120.6"/>
<line class="st7" x1="103.9" y1="113.1" x2="104.1" y2="116.8"/>
<line class="st7" x1="112.1" y1="131.7" x2="109.5" y2="129.1"/>
</svg>
