<?xml version="1.0" encoding="utf-8"?>
<!-- Generator: Adobe Illustrator 22.0.1, SVG Export Plug-In . SVG Version: 6.00 Build 0)  -->
<svg version="1.1" id="Layer_1" xmlns="http://www.w3.org/2000/svg" xmlns:xlink="http://www.w3.org/1999/xlink" x="0px" y="0px"
	 viewBox="0 0 160 160" style="enable-background:new 0 0 160 160;" xml:space="preserve">
<style type="text/css">
	.st0{fill:#EDEDED;}
	.st1{opacity:5.000000e-02;}
	.st2{opacity:0.15;}
	.st3{opacity:0.3;}
</style>
<title>Artboard 42 copy 255</title>
<path class="st0" d="M61,115.2l3.6,5.1c0,0,6.2,4,16.8,3.6c13.1-0.7,17.5-3.6,17.5-3.6l2.9-7.3C101.8,113,85.8,123.9,61,115.2z"/>
<g class="st1">
	<path d="M81.4,123.9l1.6-0.1c11.9-0.9,15.9-3.5,15.9-3.5l2.9-7.3c0,0-7.1,4.9-19.2,5.5C85,119.6,81.4,123.9,81.4,123.9z"/>
</g>
<path class="st0" d="M67.9,131c0.6,0.5,1.3,1,2,1.2c6.1,2.6,21,2.5,24.2-1.2l2.2-9.6c-11.9,2.4-21.5,2.6-29.9,0L67.9,131z"/>
<g class="st2">
	<path d="M81,134c5.6,0.1,11.3-0.9,13.1-3l2.2-9.6c-4.7,1-9.5,1.6-14.3,1.8C82.9,124.7,82.1,129,81,134z"/>
</g>
<path class="st0" d="M70.3,133.7c3.1,3.1,7.3,4.8,11.7,4.8c7.3,0,10.2-4.8,10.2-4.8v-1.1c0,0-10.9,3.8-21.9-0.5L70.3,133.7z"/>
<g class="st3">
	<path d="M70.3,133.7c3.1,3.1,7.3,4.8,11.7,4.8c7.3,0,10.2-4.8,10.2-4.8v-1.1c0,0-10.9,3.8-21.9-0.5L70.3,133.7z"/>
</g>
<path d="M78.1,123.5c0.3,0.3-6.4,3.9-10.9,3.7l0.3,1c0,0,9.7-1,12.7-5L78.1,123.5z"/>
<path d="M94.9,128.3c1.2,0.7-10.3,6.7-16,5.9l4-0.1c0,0,9-0.4,12-4.5V128.3z"/>
<path d="M94.5,121.9c0,0-13.4,10.3-25.6,9.8l1.6,0.6c0,0,10.9,1.6,25.8-10.4H94.5z"/>
<g class="st2">
	<path d="M82.1,123.2c10.2,0,13.7-1.5,13.7-1.5l-0.6,1.5c0,0-16.8,3.6-28.4-0.7v-1.1C66.8,121.4,71.9,123.2,82.1,123.2z"/>
</g>
</svg>
