<?xml version="1.0" encoding="UTF-8" standalone="no"?>
<!-- Generator: Adobe Illustrator 22.0.1, SVG Export Plug-In . SVG Version: 6.00 Build 0)  -->

<svg
   xmlns:dc="http://purl.org/dc/elements/1.1/"
   xmlns:cc="http://creativecommons.org/ns#"
   xmlns:rdf="http://www.w3.org/1999/02/22-rdf-syntax-ns#"
   xmlns:svg="http://www.w3.org/2000/svg"
   xmlns="http://www.w3.org/2000/svg"
   xmlns:sodipodi="http://sodipodi.sourceforge.net/DTD/sodipodi-0.dtd"
   xmlns:inkscape="http://www.inkscape.org/namespaces/inkscape"
   version="1.1"
   id="Layer_1"
   x="0px"
   y="0px"
   viewBox="0 0 160 160"
   style="enable-background:new 0 0 160 160;"
   xml:space="preserve"
   sodipodi:docname="bottom_09.svg"
   inkscape:version="0.92.2 (5c3e80d, 2017-08-06)"><metadata
     id="metadata19"><rdf:RDF><cc:Work
         rdf:about=""><dc:format>image/svg+xml</dc:format><dc:type
           rdf:resource="http://purl.org/dc/dcmitype/StillImage" /></cc:Work></rdf:RDF></metadata><defs
     id="defs17" /><sodipodi:namedview
     pagecolor="#ffffff"
     bordercolor="#666666"
     borderopacity="1"
     objecttolerance="10"
     gridtolerance="10"
     guidetolerance="10"
     inkscape:pageopacity="0"
     inkscape:pageshadow="2"
     inkscape:window-width="1920"
     inkscape:window-height="976"
     id="namedview15"
     showgrid="false"
     inkscape:zoom="4.17193"
     inkscape:cx="63.155771"
     inkscape:cy="26.695698"
     inkscape:window-x="0"
     inkscape:window-y="27"
     inkscape:window-maximized="1"
     inkscape:current-layer="Layer_1" /><style
     type="text/css"
     id="style2">
	.st0{fill:#FFFFFF;}
	.st1{fill:#FF460D;}
</style><title
     id="title4">Artboard 42 copy 222</title><path
     class="st0"
     d="M73.7,124.8c0-0.3,0-0.7-0.1-1c0-2,0.1-6.3,0.1-6.3l-3.8-0.5l0.5,4c-3-0.2-5.9,0.5-8.5,2c-3,2-5,5-3,8s6,3,11,0  C72.2,129.8,73.6,127.4,73.7,124.8L73.7,124.8z"
     id="path6" /><path
     class="st1"
     d="M76.8,122c0,0,0-2.1-3.2-2.5c0,1.4-0.1,3.2,0,4.3c0.1,0.3,0.1,0.7,0.1,1l0,0c-0.1,2.6-1.5,5-3.8,6.2  c-5,3-9,3-11,0s0-6,3-8c2.6-1.5,5.5-2.2,8.5-2l-0.2-1.3c-1.8,0.3-3.6,0.8-5.3,1.3c-12,4-13,16-12,17s3,2,10,2c4.2-0.1,8-2.3,10-6  l1,5c0,0,2,2,3,0S76.8,122,76.8,122z"
     id="path8"
     style="fill:#000000;fill-opacity:1" /><path
     class="st0"
     d="M87.2,124.8c0-0.3,0-0.7,0.1-1c0-2-0.1-6.3-0.1-6.3L91,117l-0.5,4c3-0.2,5.9,0.5,8.5,2c3,2,5,5,3,8s-6,3-11,0  C88.7,129.8,87.2,127.4,87.2,124.8L87.2,124.8z"
     id="path10" /><path
     class="st1"
     d="M84,122c0,0,0-2.1,3.2-2.5c0,1.4,0,3.2,0,4.3c-0.1,0.3-0.1,0.7-0.1,1l0,0c0.1,2.6,1.5,5,3.8,6.2c5,3,9,3,11,0  s0-6-3-8c-2.6-1.5-5.5-2.2-8.5-2l0.2-1.3c1.8,0.3,3.6,0.8,5.3,1.3c12,4,13,16,12,17s-3,2-10,2c-4.2-0.1-8-2.3-10-6l-1,5c0,0-2,2-3,0  S84,122,84,122z"
     id="path12"
     style="fill:#000000;fill-opacity:1" /></svg>