<?xml version="1.0" encoding="utf-8"?>
<!-- Generator: Adobe Illustrator 22.0.1, SVG Export Plug-In . SVG Version: 6.00 Build 0)  -->
<svg version="1.1" id="Layer_1" xmlns="http://www.w3.org/2000/svg" xmlns:xlink="http://www.w3.org/1999/xlink" x="0px" y="0px"
	 viewBox="0 0 160 160" style="enable-background:new 0 0 160 160;" xml:space="preserve">
<style type="text/css">
	.st0{fill:#A34B1A;}
	.st1{fill:#E5652C;}
	.st2{fill:#490B37;}
	.st3{fill:#02AABC;}
	.st4{fill:#FFFFFF;}
	.st5{fill:#FC039D;}
</style>
<title>Artboard 42 copy 257</title>
<path class="st0" d="M79,119.2l-0.4,11.2c0,0,1.1,2.6-9.7,2.6H46.2c0,0-5.4-5.2-2.2-7.8s11.9-3.4,11.9-3.4l-2.6-6.6L79,119.2z"/>
<path class="st1" d="M59.8,118.4l-8.3-0.9c-0.3,0-0.5-0.3-0.4-0.6l0.1-0.5c0-0.3,0.3-0.5,0.6-0.4l8.3,0.9c0.3,0,0.5,0.3,0.4,0.6
	l-0.1,0.5C60.3,118.2,60.1,118.4,59.8,118.4z"/>
<path class="st1" d="M60.6,120.9l-8.3-0.9c-0.3,0-0.5-0.3-0.4-0.6l0.1-0.5c0-0.3,0.3-0.5,0.6-0.4l8.3,0.9c0.3,0,0.5,0.3,0.4,0.6
	l-0.1,0.5C61.1,120.8,60.8,121,60.6,120.9z"/>
<circle class="st2" cx="64.8" cy="136.5" r="2.9"/>
<circle class="st3" cx="66.1" cy="136.4" r="2.9"/>
<path d="M69.1,137.4l-1.8,0.1c-0.7,0.1-1.3-0.5-1.4-1.2l0,0c-0.1-0.7,0.5-1.3,1.2-1.4l1.8-0.1c0.7-0.1,1.3,0.5,1.4,1.2l0,0
	C70.3,136.7,69.8,137.4,69.1,137.4z"/>
<circle class="st2" cx="72.5" cy="135.9" r="3.9"/>
<circle class="st4" cx="74.2" cy="135.7" r="3.9"/>
<circle class="st5" cx="74.2" cy="135.7" r="2.2"/>
<circle class="st2" cx="48.7" cy="136.5" r="3.7"/>
<circle class="st3" cx="50.3" cy="136.4" r="3.7"/>
<path d="M53.1,137.4l-1.8,0.1c-0.7,0.1-1.3-0.5-1.4-1.2l0,0c-0.1-0.7,0.5-1.3,1.2-1.4l1.8-0.1c0.7-0.1,1.3,0.5,1.4,1.2l0,0
	C54.3,136.7,53.8,137.4,53.1,137.4z"/>
<circle class="st2" cx="56.5" cy="135.9" r="3.9"/>
<circle class="st4" cx="58.2" cy="135.7" r="3.9"/>
<circle class="st5" cx="58.2" cy="135.7" r="2.2"/>
<path class="st0" d="M81.6,119.2L80,130.4c0,0-1,2.6,9.8,2.6h22.7c0,0,5.4-5.2,2.2-7.8s-14.9-3.4-14.9-3.4l0.6-5.6L81.6,119.2z"/>
<path class="st1" d="M94.9,117.3l8.3,0.5c0.3,0,0.5,0.3,0.5,0.5l0,0.5c0,0.3-0.3,0.5-0.5,0.5l-8.3-0.5c-0.3,0-0.5-0.3-0.5-0.5l0-0.5
	C94.4,117.5,94.7,117.2,94.9,117.3z"/>
<path class="st1" d="M93.9,119.6l8.3,0.5c0.3,0,0.5,0.3,0.5,0.5l0,0.5c0,0.3-0.3,0.5-0.5,0.5l-8.3-0.5c-0.3,0-0.5-0.3-0.5-0.5l0-0.5
	C93.4,119.8,93.6,119.6,93.9,119.6z"/>
<circle class="st2" cx="93.8" cy="136.5" r="2.9"/>
<circle class="st3" cx="92.5" cy="136.4" r="2.9"/>
<path d="M89.8,134.8l1.8,0.1c0.7,0.1,1.2,0.7,1.2,1.4l0,0c-0.1,0.7-0.7,1.2-1.4,1.2l-1.8-0.1c-0.7-0.1-1.2-0.7-1.2-1.4l0,0
	C88.5,135.3,89.1,134.8,89.8,134.8z"/>
<circle class="st2" cx="86.2" cy="135.9" r="3.9"/>
<circle class="st4" cx="84.5" cy="135.7" r="3.9"/>
<circle class="st5" cx="84.5" cy="135.7" r="2.2"/>
<circle class="st2" cx="110" cy="136.5" r="3.7"/>
<circle class="st3" cx="108.4" cy="136.4" r="3.7"/>
<path d="M105.8,134.8l1.8,0.1c0.7,0.1,1.2,0.7,1.2,1.4l0,0c-0.1,0.7-0.7,1.2-1.4,1.2l-1.8-0.1c-0.7-0.1-1.2-0.7-1.2-1.4l0,0
	C104.5,135.3,105.1,134.8,105.8,134.8z"/>
<circle class="st2" cx="102.2" cy="135.9" r="3.9"/>
<circle class="st4" cx="100.5" cy="135.7" r="3.9"/>
<circle class="st5" cx="100.5" cy="135.7" r="2.2"/>
</svg>
