<?xml version="1.0" encoding="UTF-8" standalone="no"?>
<!-- Generator: Adobe Illustrator 22.0.1, SVG Export Plug-In . SVG Version: 6.00 Build 0)  -->

<svg
   xmlns:dc="http://purl.org/dc/elements/1.1/"
   xmlns:cc="http://creativecommons.org/ns#"
   xmlns:rdf="http://www.w3.org/1999/02/22-rdf-syntax-ns#"
   xmlns:svg="http://www.w3.org/2000/svg"
   xmlns="http://www.w3.org/2000/svg"
   xmlns:sodipodi="http://sodipodi.sourceforge.net/DTD/sodipodi-0.dtd"
   xmlns:inkscape="http://www.inkscape.org/namespaces/inkscape"
   version="1.1"
   id="Layer_1"
   x="0px"
   y="0px"
   viewBox="0 0 160 160"
   style="enable-background:new 0 0 160 160;"
   xml:space="preserve"
   sodipodi:docname="bottom_01.svg"
   inkscape:version="0.92.2 (5c3e80d, 2017-08-06)"><metadata
     id="metadata32"><rdf:RDF><cc:Work
         rdf:about=""><dc:format>image/svg+xml</dc:format><dc:type
           rdf:resource="http://purl.org/dc/dcmitype/StillImage" /></cc:Work></rdf:RDF></metadata><defs
     id="defs30" /><sodipodi:namedview
     pagecolor="#ffffff"
     bordercolor="#666666"
     borderopacity="1"
     objecttolerance="10"
     gridtolerance="10"
     guidetolerance="10"
     inkscape:pageopacity="0"
     inkscape:pageshadow="2"
     inkscape:window-width="1920"
     inkscape:window-height="976"
     id="namedview28"
     showgrid="false"
     inkscape:zoom="23.6"
     inkscape:cx="78.702341"
     inkscape:cy="32.959416"
     inkscape:window-x="0"
     inkscape:window-y="27"
     inkscape:window-maximized="1"
     inkscape:current-layer="Layer_1" /><style
     type="text/css"
     id="style2">
	.st0{opacity:0.15;}
	.st1{opacity:0.3;}
	.st2{fill:url(#SVGID_1_);}
	.st3{fill:#FFFFFF;}
	.st4{opacity:0.14;enable-background:new    ;}
</style><title
     id="title4">Artboard 42 copy 211</title><g
     class="st0"
     id="g8"><path
       d="M90.5,122.5c0,0,5,0,4-2c-0.4-0.9-3.9-2.6-3.9-2.6l-2.4,0.3C90.6,120.2,91.2,121.6,90.5,122.5z"
       id="path6" /></g><g
     class="st1"
     id="g12"><path
       d="M89,122.8c0,0-1.1,3.6,2,4.2c6,1,7,6,6,8c-2,5-16,8-22-2s-6-11-16-12s-12,5-12,5c0,2,1,1,1,1c2-3.6,5.9-5.6,10-5   c9,1,11,3,12,5s5,11,12,13s14,0,16-5s-3.3-8.5-6-9c-0.8-0.2-1.8,0-2-2.8V123C90,121,89,122.8,89,122.8z"
       id="path10" /></g><path
     class="st2"
     d="M84.5,123.5c1,2,6-1,6-1s5,0,4-2c-0.4-0.9-3.9-2.6-3.9-2.6l-4.8,0.6C85.8,118.5,84,122.4,84.5,123.5z"
     id="path21"
     style="fill-opacity:1" /><path
     class="st3"
     d="M90,122.8c0,0-1.1,3.6,2,4.2c6,1,7,6,6,8c-2,5-16,8-22-2s-6-11-16-12s-12,5-12,5c0,2,1,1,1,1  c2-3.6,5.9-5.6,10-5c9,1,11,3,12,5s5,11,12,13s14,0,16-5s-3.3-8.5-6-9c-0.8-0.2-1.8,0-2-2.8V123C91,121,90,122.8,90,122.8z"
     id="path23" /><path
     class="st4"
     d="M84.5,123.5c1,2,4-1,6-1s5,0,4-2C93,121,87,123,84.5,123.5z"
     id="path25" /></svg>