<?xml version="1.0" encoding="utf-8"?>
<!-- Generator: Adobe Illustrator 22.0.1, SVG Export Plug-In . SVG Version: 6.00 Build 0)  -->
<svg version="1.1" id="Layer_1" xmlns="http://www.w3.org/2000/svg" xmlns:xlink="http://www.w3.org/1999/xlink" x="0px" y="0px"
	 viewBox="0 0 160 160" style="enable-background:new 0 0 160 160;" xml:space="preserve">
<style type="text/css">
	.st0{fill:#FFFFFF;}
	.st1{fill:#490B37;}
	.st2{fill:#02AABC;}
	.st3{fill:#FC039D;}
	.st4{opacity:0.1;enable-background:new    ;}
	.st5{fill:#FF4545;}
	.st6{opacity:0.15;}
	.st7{fill:url(#SVGID_1_);}
	.st8{clip-path:url(#SVGID_3_);}
	.st9{fill:url(#SVGID_4_);}
</style>
<title>Artboard 42 copy 218</title>
<path class="st0" d="M129.1,114.1c1.2-1.8-0.9-2.8-3.2-2.3c0,0-32.6,5.8-51.6,4.6s-35.3-10.3-39.8-8c0,0-6.6,0.9-5.3,5.3l0,0
	c-0.1,1.3,0.2,2.5,0.8,3.7c3.6,5.7,39.8,13.8,72.4,8c18.3-3.2,25.2-6.8,26.7-9.2C129.4,115.6,129.4,114.8,129.1,114.1z M54,123.4
	c-8.4-1.2-15.6-3-20.1-5.3C38.2,120.1,45.3,122,54,123.4z M99.8,123.7c0.8-0.1,1.7-0.3,2.5-0.4c2.3-0.4,4.5-0.8,6.5-1.2
	C106,122.7,103,123.3,99.8,123.7L99.8,123.7z"/>
<circle class="st1" cx="63.8" cy="134.7" r="6.1"/>
<circle class="st2" cx="61.1" cy="134.5" r="6.1"/>
<path d="M56.5,132l4.2,0.4c0.7,0.1,1.2,0.7,1.2,1.4l-0.1,1.5c-0.1,0.7-0.7,1.2-1.4,1.2l-4.2-0.4c-0.7-0.1-1.2-0.7-1.2-1.4l0.1-1.5
	C55.2,132.5,55.8,132,56.5,132z"/>
<circle class="st1" cx="111.3" cy="133.1" r="6.1"/>
<circle class="st2" cx="108.7" cy="133.7" r="6.1"/>
<path d="M103.5,132.7l4.1-0.9c0.7-0.2,1.4,0.3,1.5,1l0.3,1.5c0.2,0.7-0.3,1.4-1,1.5l-4.1,0.9c-0.7,0.2-1.4-0.3-1.5-1l-0.3-1.5
	C102.3,133.6,102.8,132.9,103.5,132.7z"/>
<circle class="st1" cx="99.3" cy="135.7" r="6.1"/>
<circle class="st0" cx="96.6" cy="136.3" r="6.1"/>
<circle class="st3" cx="96.6" cy="136.3" r="3.4"/>
<path class="st1" d="M120.3,125.5c-14.3,4.5-59.6,9.8-77.8-0.9c-1.8-1-4.4-2.9-4.4-2.9s32.9,10.8,72.9,1.8c11.3-2.9,18-5.5,18.4-9.2
	C132.5,116.3,126.9,123.4,120.3,125.5z"/>
<path class="st4" d="M29.2,113.6c-0.1,1.3,0.2,2.5,0.8,3.7c3.6,5.7,39.8,13.8,72.4,8c18.3-3.2,25.2-6.8,26.7-9.2
	c0.5-0.8,0-2.6-0.1-1.9c-6,4.7-23.4,10-43.3,10.7C59.6,125.9,31.3,121.2,29.2,113.6z"/>
<circle class="st1" cx="51.7" cy="133.7" r="6.1"/>
<circle class="st0" cx="49" cy="133.4" r="6.1"/>
<circle class="st3" cx="49" cy="133.4" r="3.4"/>
<path class="st5" d="M34.5,108.4c0,0-8.1,1.2-4.5,6.9s39.8,13.8,72.4,8c18.3-3.2,25.2-6.8,26.7-9.2c1.2-1.8-0.8-2.8-3.2-2.3
	c0,0-32.6,5.8-51.6,4.6S39,106.1,34.5,108.4z"/>
<g class="st6">
	<ellipse cx="79" cy="121" rx="18" ry="2"/>
</g>
<linearGradient id="SVGID_1_" gradientUnits="userSpaceOnUse" x1="277.85" y1="425.4971" x2="277.85" y2="440.1759" gradientTransform="matrix(1 0 0 -1 0 162)">
	<stop  offset="0" style="stop-color:#A66707"/>
	<stop  offset="1" style="stop-color:#000000"/>
</linearGradient>
<path class="st7" d="M291-267.6c-3.7,2.7-8.3,4.2-12.9,4.1l0,0h-0.2h-0.2l0,0c-4.6,0.1-9.2-1.4-12.9-4.1c-3.5-2.7-5.7-7-5.7-9
	s7.2,1.2,20.6,1.2h-1.5c9.1,0,14.8-2.1,15.8-2.5s2.8-0.5,2.8,1.3S294.5-270.4,291-267.6z"/>
<g>
	<defs>
		<path id="SVGID_2_" d="M291-267.6c-3.7,2.7-8.3,4.2-12.9,4.1l0,0h-0.2h-0.2l0,0c-4.6,0.1-9.2-1.4-12.9-4.1c-3.5-2.7-5.7-7-5.7-9
			s7.2,1.2,20.6,1.2h-1.5c9.1,0,14.8-2.1,15.8-2.5s2.8-0.5,2.8,1.3S294.5-270.4,291-267.6z"/>
	</defs>
	<clipPath id="SVGID_3_">
		<use xlink:href="#SVGID_2_"  style="overflow:visible;"/>
	</clipPath>
	<g class="st8">
		
			<linearGradient id="SVGID_4_" gradientUnits="userSpaceOnUse" x1="203.985" y1="21.85" x2="203.985" y2="1853.0699" gradientTransform="matrix(1 0 0 -1 0 162)">
			<stop  offset="0" style="stop-color:#A66707"/>
			<stop  offset="1" style="stop-color:#000000"/>
		</linearGradient>
		<rect x="-299.1" y="-1691.1" class="st9" width="1006.2" height="1831.2"/>
	</g>
</g>
</svg>
