<?xml version="1.0" encoding="UTF-8" standalone="no"?>
<!-- Generator: Adobe Illustrator 22.0.1, SVG Export Plug-In . SVG Version: 6.00 Build 0)  -->

<svg
   xmlns:dc="http://purl.org/dc/elements/1.1/"
   xmlns:cc="http://creativecommons.org/ns#"
   xmlns:rdf="http://www.w3.org/1999/02/22-rdf-syntax-ns#"
   xmlns:svg="http://www.w3.org/2000/svg"
   xmlns="http://www.w3.org/2000/svg"
   xmlns:sodipodi="http://sodipodi.sourceforge.net/DTD/sodipodi-0.dtd"
   xmlns:inkscape="http://www.inkscape.org/namespaces/inkscape"
   version="1.1"
   id="Layer_1"
   x="0px"
   y="0px"
   viewBox="0 0 160 160"
   style="enable-background:new 0 0 160 160;"
   xml:space="preserve"
   sodipodi:docname="bottom_05.svg"
   inkscape:version="0.92.2 (5c3e80d, 2017-08-06)"><metadata
     id="metadata79"><rdf:RDF><cc:Work
         rdf:about=""><dc:format>image/svg+xml</dc:format><dc:type
           rdf:resource="http://purl.org/dc/dcmitype/StillImage" /></cc:Work></rdf:RDF></metadata><defs
     id="defs77" /><sodipodi:namedview
     pagecolor="#ffffff"
     bordercolor="#666666"
     borderopacity="1"
     objecttolerance="10"
     gridtolerance="10"
     guidetolerance="10"
     inkscape:pageopacity="0"
     inkscape:pageshadow="2"
     inkscape:window-width="1920"
     inkscape:window-height="976"
     id="namedview75"
     showgrid="false"
     inkscape:zoom="8"
     inkscape:cx="81.91112"
     inkscape:cy="38.525686"
     inkscape:window-x="0"
     inkscape:window-y="27"
     inkscape:window-maximized="1"
     inkscape:current-layer="Layer_1" /><style
     type="text/css"
     id="style2">
	.st0{opacity:0.16;fill:#FFFFFF;enable-background:new    ;}
	.st1{fill:#FFFFFF;}
	.st2{opacity:0.2;}
	.st3{opacity:0.1;enable-background:new    ;}
	.st4{fill:url(#SVGID_1_);}
	.st5{clip-path:url(#SVGID_3_);}
	.st6{fill:url(#SVGID_4_);}
	.st7{fill:url(#SVGID_5_);}
	.st8{clip-path:url(#SVGID_7_);}
	.st9{fill:url(#SVGID_8_);}
</style><title
     id="title4">Artboard 42 copy 238</title><path
     class="st1"
     d="m 95.8,115.5 c 0.8,0.9 1.7,1.8 2.7,2.5 0.44269,0 1.257731,-2.35169 2.10678,-4.97293 2.65195,-1.79072 2.23251,-1.44245 4.6974,-3.49937 C 108.40642,115.97398 113.9,129 113.9,129 l -1.9,10 v -9 c 0,0 -7.7,-17 -8.7,-17 -1,0 -2.9,11 -3.9,11 -0.5,0 -7.3,-7.2 -7.3,-7.2 z"
     id="path8"
     inkscape:connector-curvature="0"
     style="fill:#ffffff"
     sodipodi:nodetypes="cccccccsscc" /><path
     class="st1"
     d="M55.9,110.6c0,0-3.6,3.4-4,3.4c-1.1,0-4.4-12-5.5-12s-12.1,23-12.1,23l2.2,10v-9c0,0,8.8-17,9.9-17  s3.3,11,4.4,11c0.5,0,8.3-7.1,8.3-7.1L55.9,110.6z"
     id="path10" /><g
     class="st2"
     id="g14"><path
       d="M55.9,110.6c0,0-3.6,3.4-4,3.4c-1.1,0-4.4-12-5.5-12s-12.1,23-12.1,23l2.2,10v-9c0,0,8.8-17,9.9-17s3.3,11,4.4,11   c0.5,0,8.3-7.1,8.3-7.1L55.9,110.6z"
       id="path12" /></g><path
     class="st1"
     d="M70,107.1c0,0-9,12.3-10,12.3S56,106,55,106s-11,25.8-11,25.8l2,11.2v-10.1c0,0,8-19.1,9-19.1s3,12.3,4,12.3  s15-16.8,15-16.8S74,106,70,107.1z"
     id="path16" /><path
     class="st3"
     d="M60,122.4c-1,0-4-12.4-5-12.4s-10,21.8-10,21.8l1,11.2v-10.1c0,0,8-19.1,9-19.1s3,12.3,4,12.3s15-16.8,15-16.8  c0-0.9-0.5-1.8-1.3-2.2C72.1,106.8,61,122.4,60,122.4z"
     id="path18" /><g
     class="st2"
     id="g22"><path
       d="m 95.8,115.5 c 0.8,0.9 1.7,1.8 2.7,2.5 0.442152,0 1.255752,-2.34598 2.10368,-4.96339 2.60951,-1.74656 2.29426,-1.51119 4.70331,-3.50306 C 108.40974,115.98186 113.9,129 113.9,129 l -1.9,10 v -9 c 0,0 -7.7,-17 -8.7,-17 -1,0 -2.9,11 -3.9,11 -0.5,0 -7.3,-7.2 -7.3,-7.2 z"
       id="path20"
       inkscape:connector-curvature="0"
       sodipodi:nodetypes="cccccccsscc" /></g><path
     class="st1"
     d="m 96,107.17865 c 0,0 9,12.3 10,12.3 1,0 4,-13.5 5,-13.5 1,0 11,25.8 11,25.8 l -2,11.2 v -10.1 c 0,0 -8,-19.1 -9,-19.1 -1,0 -3,12.3 -4,12.3 -1,0 -15,-16.8 -15,-16.8 0,0 0,-3.2 4,-2.1 z"
     id="path24"
     inkscape:connector-curvature="0"
     style="fill:#ffffff" /><linearGradient
     id="SVGID_1_"
     gradientUnits="userSpaceOnUse"
     x1="283.36"
     y1="-1238.12"
     x2="283.36"
     y2="-1220.21"
     gradientTransform="matrix(1 0 0 -1 0 162)"><stop
       offset="0"
       style="stop-color:#A66707"
       id="stop26" /><stop
       offset="1"
       style="stop-color:#000000"
       id="stop28" /></linearGradient><linearGradient
     id="SVGID_5_"
     gradientUnits="userSpaceOnUse"
     x1="295.85"
     y1="-1424.5028"
     x2="295.85"
     y2="-1409.8242"
     gradientTransform="matrix(1 0 0 -1 0 162)"><stop
       offset="0"
       style="stop-color:#A66707"
       id="stop50" /><stop
       offset="1"
       style="stop-color:#000000"
       id="stop52" /></linearGradient></svg>