<?xml version="1.0" encoding="UTF-8" standalone="no"?>
<!-- Generator: Adobe Illustrator 22.0.1, SVG Export Plug-In . SVG Version: 6.00 Build 0)  -->

<svg
   xmlns:dc="http://purl.org/dc/elements/1.1/"
   xmlns:cc="http://creativecommons.org/ns#"
   xmlns:rdf="http://www.w3.org/1999/02/22-rdf-syntax-ns#"
   xmlns:svg="http://www.w3.org/2000/svg"
   xmlns="http://www.w3.org/2000/svg"
   xmlns:sodipodi="http://sodipodi.sourceforge.net/DTD/sodipodi-0.dtd"
   xmlns:inkscape="http://www.inkscape.org/namespaces/inkscape"
   version="1.1"
   id="Layer_1"
   x="0px"
   y="0px"
   viewBox="0 0 160 160"
   style="enable-background:new 0 0 160 160;"
   xml:space="preserve"
   sodipodi:docname="bottom_14.svg"
   inkscape:version="0.92.2 (5c3e80d, 2017-08-06)"><metadata
     id="metadata67"><rdf:RDF><cc:Work
         rdf:about=""><dc:format>image/svg+xml</dc:format><dc:type
           rdf:resource="http://purl.org/dc/dcmitype/StillImage" /></cc:Work></rdf:RDF></metadata><defs
     id="defs65" /><sodipodi:namedview
     pagecolor="#ffffff"
     bordercolor="#666666"
     borderopacity="1"
     objecttolerance="10"
     gridtolerance="10"
     guidetolerance="10"
     inkscape:pageopacity="0"
     inkscape:pageshadow="2"
     inkscape:window-width="1920"
     inkscape:window-height="976"
     id="namedview63"
     showgrid="false"
     inkscape:zoom="8.34386"
     inkscape:cx="67.62143"
     inkscape:cy="44.830882"
     inkscape:window-x="0"
     inkscape:window-y="27"
     inkscape:window-maximized="1"
     inkscape:current-layer="Layer_1" /><style
     type="text/css"
     id="style2">
	.st0{fill:#6D4716;}
	.st1{fill:#FFFFFF;}
	.st2{fill:#99671D;}
	.st3{fill:#444444;}
	.st4{fill:#FFC866;}
</style><title
     id="title4">Artboard 42 copy 219</title><path
     class="st0"
     d="M97,122.5c0,0-2.8,5.5-5.5,7.5c-1.2,0.8-2.3,1.8-3.4,2.7v4.4C88.1,137.5,98.3,134.1,97,122.5z"
     id="path6" /><path
     class="st1"
     d="M97.6,122.5c0,0-5.4-1.4-8.9,2s-3.4,8.2-1.4,8.2S89.5,133.4,97.6,122.5z"
     id="path8" /><path
     class="st2"
     d="m 123.5,106.8 c 0,0 -4.8,-8.2 -19.1,-0.7 -14.3,7.5 -2.7,23.2 -15.7,30.7 0,0 3.354237,4.28644 8.427119,-5.87288 C 101.80933,121.55018 101.7,106.2 123.5,106.8 Z"
     id="path10"
     inkscape:connector-curvature="0"
     style="fill:#99671d"
     sodipodi:nodetypes="cscsc" /><path
     class="st3"
     d="M88.8,136.8c0,0,6.1,2.7,10.2-10.9s8.9-21.8,20.4-21.1c1.6,0,3.2,0.6,4.4,1.7c5.6,5,1.3,19.6-4.4,24.2  c-6.8,5.4-21.8,10.9-27.9,8.9S88.8,136.8,88.8,136.8z"
     id="path12" /><path
     class="st4"
     d="M87.8,117.2l1,7.4c1.9-1.4,3.6-2.3,5-2.3l-0.6-6.2C91.4,116.6,89.6,116.9,87.8,117.2z"
     id="path14" /><path
     d="M122.2,110.6h-11.6c-0.3,0-0.5-0.2-0.5-0.5v-0.1c0-0.3,0.2-0.5,0.5-0.5h11.6c0.3,0,0.5,0.2,0.5,0.5v0.1  C122.7,110.4,122.5,110.6,122.2,110.6z"
     id="path16" /><path
     d="M123.3,113.8h-14.7c-0.3,0-0.5-0.2-0.5-0.5v-0.1c0-0.3,0.2-0.5,0.5-0.5h14.7c0.3,0,0.5,0.2,0.5,0.5v0.1  C123.8,113.6,123.5,113.8,123.3,113.8z"
     id="path18" /><path
     d="M123.3,116.9h-17.9c-0.3,0-0.5-0.2-0.5-0.5v-0.1c0-0.3,0.2-0.5,0.5-0.5h17.9c0.3,0,0.5,0.2,0.5,0.5v0.1  C123.8,116.7,123.5,116.9,123.3,116.9z"
     id="path20" /><path
     d="M122.2,120.1h-17.9c-0.3,0-0.5-0.2-0.5-0.5v-0.1c0-0.3,0.2-0.5,0.5-0.5h17.9c0.3,0,0.5,0.2,0.5,0.5v0.1  C122.7,119.8,122.5,120.1,122.2,120.1z"
     id="path22" /><path
     d="M121.1,123.2h-17.9c-0.3,0-0.5-0.2-0.5-0.5v-0.1c0-0.3,0.2-0.5,0.5-0.5h17.9c0.3,0,0.5,0.2,0.5,0.5v0.1  C121.6,123,121.4,123.2,121.1,123.2z"
     id="path24" /><path
     d="M119.1,126.4h-17.9c-0.3,0-0.5-0.2-0.5-0.5v-0.1c0-0.3,0.2-0.5,0.5-0.5h17.9c0.3,0,0.5,0.2,0.5,0.5v0.1  C119.6,126.1,119.3,126.4,119.1,126.4z"
     id="path26" /><path
     d="M117,129.5h-15.8c-0.3,0-0.5-0.2-0.5-0.5V129c0-0.3,0.2-0.5,0.5-0.5H117c0.3,0,0.5,0.2,0.5,0.5v0.1  C117.5,129.3,117.2,129.5,117,129.5z"
     id="path28" /><path
     d="M112.8,132.7H99.1c-0.3,0-0.5-0.2-0.5-0.5v-0.1c0-0.3,0.2-0.5,0.5-0.5h13.7c0.3,0,0.5,0.2,0.5,0.5v0.1  C113.3,132.4,113,132.7,112.8,132.7z"
     id="path30" /><path
     d="M107.5,135.8H98c-0.3,0-0.5-0.2-0.5-0.5v-0.1c0-0.3,0.2-0.5,0.5-0.5h9.5c0.3,0,0.5,0.2,0.5,0.5v0.1  C108,135.6,107.8,135.8,107.5,135.8z"
     id="path32" /><path
     class="st0"
     d="M63,123.5c0,0-2.8,5.5-5.5,7.5c-1.2,0.8-2.3,1.8-3.4,2.7v4.4C54.1,138.5,64.3,135.1,63,123.5z"
     id="path34" /><path
     class="st4"
     d="m 60.303248,113.01332 -2.117525,11.26835 c 1.9,-1.4 2.731098,-0.23262 4.131098,-0.23262 l 2.229949,-9.23293 c -2.06966,-0.45879 -2.922916,-1.44364 -4.243522,-1.8028 z"
     id="path42"
     inkscape:connector-curvature="0"
     style="fill:#ffc866"
     sodipodi:nodetypes="ccccc" /><path
     class="st1"
     d="M63.6,123.5c0,0-5.5-1.4-8.9,2c-3.4,3.4-3.4,8.2-1.4,8.2S55.5,134.4,63.6,123.5z"
     id="path36" /><path
     class="st2"
     d="m 89.5,107.8 c 0,0 -4.8,-8.2 -19.1,-0.7 -14.3,7.5 -2.7,23.2 -15.7,30.7 0,0 3.608475,4.0322 8.427119,-5.91525 C 67.696321,122.45223 67.7,107.2 89.5,107.8 Z"
     id="path38"
     inkscape:connector-curvature="0"
     style="fill:#99671d"
     sodipodi:nodetypes="cscsc" /><path
     class="st3"
     d="M54.8,137.8c0,0,6.1,2.7,10.2-10.9s8.9-21.8,20.4-21.1c1.6,0,3.2,0.6,4.4,1.7c5.6,5,1.3,19.6-4.4,24.2  c-6.8,5.4-21.8,10.9-28,8.9S54.8,137.8,54.8,137.8z"
     id="path40" /><path
     d="M88.2,111.6H76.6c-0.3,0-0.5-0.2-0.5-0.5v-0.1c0-0.3,0.2-0.5,0.5-0.5h11.6c0.3,0,0.5,0.2,0.5,0.5v0.1  C88.7,111.4,88.5,111.6,88.2,111.6z"
     id="path44" /><path
     d="M89.3,114.8H74.5c-0.3,0-0.5-0.2-0.5-0.5v-0.1c0-0.3,0.2-0.5,0.5-0.5h14.7c0.3,0,0.5,0.2,0.5,0.5v0.1  C89.8,114.6,89.5,114.8,89.3,114.8z"
     id="path46" /><path
     d="M89.3,117.9H71.4c-0.3,0-0.5-0.2-0.5-0.5v-0.1c0-0.3,0.2-0.5,0.5-0.5h17.9c0.3,0,0.5,0.2,0.5,0.5v0.1  C89.8,117.7,89.5,117.9,89.3,117.9z"
     id="path48" /><path
     d="M88.2,121.1H70.3c-0.3,0-0.5-0.2-0.5-0.5v-0.1c0-0.3,0.2-0.5,0.5-0.5h17.9c0.3,0,0.5,0.2,0.5,0.5v0.1  C88.7,120.8,88.5,121.1,88.2,121.1z"
     id="path50" /><path
     d="M87.1,124.2H69.3c-0.3,0-0.5-0.2-0.5-0.5v-0.1c0-0.3,0.2-0.5,0.5-0.5h17.9c0.3,0,0.5,0.2,0.5,0.5v0.1  C87.6,124,87.4,124.2,87.1,124.2z"
     id="path52" /><path
     d="M85.1,127.4H67.2c-0.3,0-0.5-0.2-0.5-0.5v-0.1c0-0.3,0.2-0.5,0.5-0.5h17.9c0.3,0,0.5,0.2,0.5,0.5v0.1  C85.6,127.1,85.3,127.4,85.1,127.4z"
     id="path54" /><path
     d="M83,130.5H67.2c-0.3,0-0.5-0.2-0.5-0.5V130c0-0.3,0.2-0.5,0.5-0.5H83c0.3,0,0.5,0.2,0.5,0.5v0.1  C83.5,130.3,83.2,130.5,83,130.5z"
     id="path56" /><path
     d="M78.8,133.7H65.1c-0.3,0-0.5-0.2-0.5-0.5v-0.1c0-0.3,0.2-0.5,0.5-0.5h13.7c0.3,0,0.5,0.2,0.5,0.5v0.1  C79.3,133.4,79,133.7,78.8,133.7z"
     id="path58" /><path
     d="M73.5,136.8H64c-0.3,0-0.5-0.2-0.5-0.5v-0.1c0-0.3,0.2-0.5,0.5-0.5h9.5c0.3,0,0.5,0.2,0.5,0.5v0.1  C74,136.6,73.8,136.8,73.5,136.8z"
     id="path60" /></svg>