<?xml version="1.0" encoding="utf-8"?>
<!-- Generator: Adobe Illustrator 22.0.1, SVG Export Plug-In . SVG Version: 6.00 Build 0)  -->
<svg version="1.1" id="Layer_1" xmlns="http://www.w3.org/2000/svg" xmlns:xlink="http://www.w3.org/1999/xlink" x="0px" y="0px"
	 viewBox="0 0 160 160" style="enable-background:new 0 0 160 160;" xml:space="preserve">
<style type="text/css">
	.st0{fill:#930378;}
	.st1{fill:#48006A;}
	.st2{fill:#AC0082;}
</style>
<title>Artboard 42 copy 212</title>
<path class="st0" d="M86.8,118.7l21.2-9.7c5.8,10.7,5,19.9,0,28.1l-21.2-10.8C87.7,125.2,88.7,121.1,86.8,118.7z"/>
<path class="st1" d="M97.9,125.9l-7.1-1.6c0,0-1.2-0.1-1.1-0.8l0,0c0.1-0.7,1.3-0.5,1.3-0.5l7.2,0.2c0.7,0.1,1.2,0.8,1.1,1.5l0,0
	C99.2,125.4,98.6,125.9,97.9,125.9C97.9,125.9,97.9,125.9,97.9,125.9z"/>
<path class="st1" d="M98.2,120l-7.1,1.4c0,0-1.1,0.4-1.3-0.3l0,0c-0.2-0.7,1-1,1-1l6.8-2.7c0.6-0.2,1.3,0.2,1.4,0.9c0,0,0,0.1,0,0.1
	l0,0C99.3,119.1,98.9,119.7,98.2,120z"/>
<path class="st2" d="M79.1,117.7l-26-12c-5.5,9.6-5.5,21.2,0,34.6l26-13.3C77.9,125.7,76.6,120.7,79.1,117.7z"/>
<ellipse class="st2" cx="83.9" cy="122.1" rx="6.7" ry="6.7"/>
<path class="st1" d="M69.2,125.9l9.3-1.6c0,0,1.6-0.1,1.5-0.8l0,0c-0.1-0.7-1.7-0.5-1.7-0.5l-9.4,0.2c-0.8,0-1.4,0.7-1.4,1.5
	c0,0,0,0,0,0l0,0C67.7,125.5,68.4,126,69.2,125.9z"/>
<path class="st1" d="M68.8,120l9.3,1.4c0,0,1.5,0.4,1.7-0.3l0,0c0.2-0.7-1.3-1-1.3-1l-8.9-2.7c-0.8-0.2-1.6,0.2-1.9,1l0,0
	C67.5,119.1,68,119.8,68.8,120C68.8,120,68.8,120,68.8,120z"/>
</svg>
