<?xml version="1.0" encoding="utf-8"?>
<!-- Generator: Adobe Illustrator 22.0.1, SVG Export Plug-In . SVG Version: 6.00 Build 0)  -->
<svg version="1.1" id="Layer_1" xmlns="http://www.w3.org/2000/svg" xmlns:xlink="http://www.w3.org/1999/xlink" x="0px" y="0px"
	 viewBox="0 0 160 160" style="enable-background:new 0 0 160 160;" xml:space="preserve">
<style type="text/css">
	.st0{fill:#6D4716;}
	.st1{fill:#FFFFFF;}
	.st2{fill:#99671D;}
	.st3{fill:#444444;}
	.st4{fill:#FFC866;}
</style>
<title>Artboard 42 copy 219</title>
<path class="st0" d="M97,122.5c0,0-2.8,5.5-5.5,7.5c-1.2,0.8-2.3,1.8-3.4,2.7v4.4C88.1,137.5,98.3,134.1,97,122.5z"/>
<path class="st1" d="M97.6,122.5c0,0-5.4-1.4-8.9,2s-3.4,8.2-1.4,8.2S89.5,133.4,97.6,122.5z"/>
<path class="st2" d="M123.5,106.8c0,0-4.8-8.2-19.1-0.7s-2.7,23.2-15.7,30.7c0,0,3.1,3.1,8.3-6S101.7,106.2,123.5,106.8z"/>
<path class="st3" d="M88.8,136.8c0,0,6.1,2.7,10.2-10.9s8.9-21.8,20.4-21.1c1.6,0,3.2,0.6,4.4,1.7c5.6,5,1.3,19.6-4.4,24.2
	c-6.8,5.4-21.8,10.9-27.9,8.9S88.8,136.8,88.8,136.8z"/>
<path class="st4" d="M87.8,117.2l1,7.4c1.9-1.4,3.6-2.3,5-2.3l-0.6-6.2C91.4,116.6,89.6,116.9,87.8,117.2z"/>
<path d="M122.2,110.6h-11.6c-0.3,0-0.5-0.2-0.5-0.5v-0.1c0-0.3,0.2-0.5,0.5-0.5h11.6c0.3,0,0.5,0.2,0.5,0.5v0.1
	C122.7,110.4,122.5,110.6,122.2,110.6z"/>
<path d="M123.3,113.8h-14.7c-0.3,0-0.5-0.2-0.5-0.5v-0.1c0-0.3,0.2-0.5,0.5-0.5h14.7c0.3,0,0.5,0.2,0.5,0.5v0.1
	C123.8,113.6,123.5,113.8,123.3,113.8z"/>
<path d="M123.3,116.9h-17.9c-0.3,0-0.5-0.2-0.5-0.5v-0.1c0-0.3,0.2-0.5,0.5-0.5h17.9c0.3,0,0.5,0.2,0.5,0.5v0.1
	C123.8,116.7,123.5,116.9,123.3,116.9z"/>
<path d="M122.2,120.1h-17.9c-0.3,0-0.5-0.2-0.5-0.5v-0.1c0-0.3,0.2-0.5,0.5-0.5h17.9c0.3,0,0.5,0.2,0.5,0.5v0.1
	C122.7,119.8,122.5,120.1,122.2,120.1z"/>
<path d="M121.1,123.2h-17.9c-0.3,0-0.5-0.2-0.5-0.5v-0.1c0-0.3,0.2-0.5,0.5-0.5h17.9c0.3,0,0.5,0.2,0.5,0.5v0.1
	C121.6,123,121.4,123.2,121.1,123.2z"/>
<path d="M119.1,126.4h-17.9c-0.3,0-0.5-0.2-0.5-0.5v-0.1c0-0.3,0.2-0.5,0.5-0.5h17.9c0.3,0,0.5,0.2,0.5,0.5v0.1
	C119.6,126.1,119.3,126.4,119.1,126.4z"/>
<path d="M117,129.5h-15.8c-0.3,0-0.5-0.2-0.5-0.5V129c0-0.3,0.2-0.5,0.5-0.5H117c0.3,0,0.5,0.2,0.5,0.5v0.1
	C117.5,129.3,117.2,129.5,117,129.5z"/>
<path d="M112.8,132.7H99.1c-0.3,0-0.5-0.2-0.5-0.5v-0.1c0-0.3,0.2-0.5,0.5-0.5h13.7c0.3,0,0.5,0.2,0.5,0.5v0.1
	C113.3,132.4,113,132.7,112.8,132.7z"/>
<path d="M107.5,135.8H98c-0.3,0-0.5-0.2-0.5-0.5v-0.1c0-0.3,0.2-0.5,0.5-0.5h9.5c0.3,0,0.5,0.2,0.5,0.5v0.1
	C108,135.6,107.8,135.8,107.5,135.8z"/>
<path class="st0" d="M63,123.5c0,0-2.8,5.5-5.5,7.5c-1.2,0.8-2.3,1.8-3.4,2.7v4.4C54.1,138.5,64.3,135.1,63,123.5z"/>
<path class="st1" d="M63.6,123.5c0,0-5.5-1.4-8.9,2c-3.4,3.4-3.4,8.2-1.4,8.2S55.5,134.4,63.6,123.5z"/>
<path class="st2" d="M89.5,107.8c0,0-4.8-8.2-19.1-0.7s-2.7,23.2-15.7,30.7c0,0,3.1,3.1,8.3-6S67.7,107.2,89.5,107.8z"/>
<path class="st3" d="M54.8,137.8c0,0,6.1,2.7,10.2-10.9s8.9-21.8,20.4-21.1c1.6,0,3.2,0.6,4.4,1.7c5.6,5,1.3,19.6-4.4,24.2
	c-6.8,5.4-21.8,10.9-28,8.9S54.8,137.8,54.8,137.8z"/>
<path class="st4" d="M53.8,118.2l1,7.4c1.9-1.4,3.6-2.3,5-2.3l-0.6-6.2C57.4,117.6,55.6,117.9,53.8,118.2z"/>
<path d="M88.2,111.6H76.6c-0.3,0-0.5-0.2-0.5-0.5v-0.1c0-0.3,0.2-0.5,0.5-0.5h11.6c0.3,0,0.5,0.2,0.5,0.5v0.1
	C88.7,111.4,88.5,111.6,88.2,111.6z"/>
<path d="M89.3,114.8H74.5c-0.3,0-0.5-0.2-0.5-0.5v-0.1c0-0.3,0.2-0.5,0.5-0.5h14.7c0.3,0,0.5,0.2,0.5,0.5v0.1
	C89.8,114.6,89.5,114.8,89.3,114.8z"/>
<path d="M89.3,117.9H71.4c-0.3,0-0.5-0.2-0.5-0.5v-0.1c0-0.3,0.2-0.5,0.5-0.5h17.9c0.3,0,0.5,0.2,0.5,0.5v0.1
	C89.8,117.7,89.5,117.9,89.3,117.9z"/>
<path d="M88.2,121.1H70.3c-0.3,0-0.5-0.2-0.5-0.5v-0.1c0-0.3,0.2-0.5,0.5-0.5h17.9c0.3,0,0.5,0.2,0.5,0.5v0.1
	C88.7,120.8,88.5,121.1,88.2,121.1z"/>
<path d="M87.1,124.2H69.3c-0.3,0-0.5-0.2-0.5-0.5v-0.1c0-0.3,0.2-0.5,0.5-0.5h17.9c0.3,0,0.5,0.2,0.5,0.5v0.1
	C87.6,124,87.4,124.2,87.1,124.2z"/>
<path d="M85.1,127.4H67.2c-0.3,0-0.5-0.2-0.5-0.5v-0.1c0-0.3,0.2-0.5,0.5-0.5h17.9c0.3,0,0.5,0.2,0.5,0.5v0.1
	C85.6,127.1,85.3,127.4,85.1,127.4z"/>
<path d="M83,130.5H67.2c-0.3,0-0.5-0.2-0.5-0.5V130c0-0.3,0.2-0.5,0.5-0.5H83c0.3,0,0.5,0.2,0.5,0.5v0.1
	C83.5,130.3,83.2,130.5,83,130.5z"/>
<path d="M78.8,133.7H65.1c-0.3,0-0.5-0.2-0.5-0.5v-0.1c0-0.3,0.2-0.5,0.5-0.5h13.7c0.3,0,0.5,0.2,0.5,0.5v0.1
	C79.3,133.4,79,133.7,78.8,133.7z"/>
<path d="M73.5,136.8H64c-0.3,0-0.5-0.2-0.5-0.5v-0.1c0-0.3,0.2-0.5,0.5-0.5h9.5c0.3,0,0.5,0.2,0.5,0.5v0.1
	C74,136.6,73.8,136.8,73.5,136.8z"/>
</svg>
