<?xml version="1.0" encoding="UTF-8" standalone="no"?>
<!-- Generator: Adobe Illustrator 22.0.1, SVG Export Plug-In . SVG Version: 6.00 Build 0)  -->

<svg
   xmlns:dc="http://purl.org/dc/elements/1.1/"
   xmlns:cc="http://creativecommons.org/ns#"
   xmlns:rdf="http://www.w3.org/1999/02/22-rdf-syntax-ns#"
   xmlns:svg="http://www.w3.org/2000/svg"
   xmlns="http://www.w3.org/2000/svg"
   xmlns:sodipodi="http://sodipodi.sourceforge.net/DTD/sodipodi-0.dtd"
   xmlns:inkscape="http://www.inkscape.org/namespaces/inkscape"
   version="1.1"
   id="Layer_1"
   x="0px"
   y="0px"
   viewBox="0 0 160 160"
   style="enable-background:new 0 0 160 160;"
   xml:space="preserve"
   sodipodi:docname="bottom_08.svg"
   inkscape:version="0.92.2 (5c3e80d, 2017-08-06)"><metadata
     id="metadata187"><rdf:RDF><cc:Work
         rdf:about=""><dc:format>image/svg+xml</dc:format><dc:type
           rdf:resource="http://purl.org/dc/dcmitype/StillImage" /></cc:Work></rdf:RDF></metadata><defs
     id="defs185" /><sodipodi:namedview
     pagecolor="#ffffff"
     bordercolor="#666666"
     borderopacity="1"
     objecttolerance="10"
     gridtolerance="10"
     guidetolerance="10"
     inkscape:pageopacity="0"
     inkscape:pageshadow="2"
     inkscape:window-width="1920"
     inkscape:window-height="976"
     id="namedview183"
     showgrid="false"
     inkscape:zoom="8.34386"
     inkscape:cx="65.086855"
     inkscape:cy="61.997909"
     inkscape:window-x="0"
     inkscape:window-y="27"
     inkscape:window-maximized="1"
     inkscape:current-layer="Layer_1" /><style
     type="text/css"
     id="style2">
	.st0{fill:#FD9727;}
	.st1{opacity:0.2;}
	.st2{fill:#543933;}
	.st3{opacity:0.5;enable-background:new    ;}
	.st4{opacity:0.2;enable-background:new    ;}
</style><title
     id="title4">Artboard 42 copy 254</title><path
     class="st0"
     d="M102.2,118.7c-0.6-6.9-2.3-8.6-2.3-8.6s-3.4-9.8-8.6-11.5c-3.4-1.2-5.9-0.8-8,0.3c-2.1,0.4-4,1.4-5.6,2.9  c-0.1,0.1-0.3,0.2-0.4,0.3c-4.5,0.7-9.1,0.5-13.5-0.6c-3.3-0.9-6.8-0.7-10,0.6c-4.6,1-9.4,4.5-8.7,14.6  c1.1,16.6,10.7,22.6,10.7,22.6c4.4,3.3,11.7,4.9,16.9,2.4c2.4-0.4,4.5-1.7,6.1-3.5c0,0,3-6.7,8.5-9.4l0.3-0.1  c2.7-0.3,5.4-0.9,7.9-1.9C99.9,125.8,102.6,123.8,102.2,118.7z"
     id="path6" /><g
     class="st1"
     id="g152"
     style="opacity:0.6"><path
       d="M79.1,100.8c-0.2,0.1-0.3,0.2-0.5,0.4C78.7,101,78.9,100.9,79.1,100.8z"
       id="path8"
       style="" /><path
       d="M79.8,100.3l-0.5,0.3L79.8,100.3z"
       id="path10"
       style="" /><path
       d="M66.8,143c-0.4,0-0.8,0-1.3,0C66,143,66.4,143,66.8,143z"
       id="path12"
       style="" /><path
       d="M78.4,101.3l-0.7,0.5L78.4,101.3z"
       id="path14"
       style="" /><path
       d="M48.9,104.4l-0.3,0.3L48.9,104.4z"
       id="path16"
       style="" /><path
       d="M80.5,99.9l-0.4,0.2L80.5,99.9z"
       id="path18"
       style="" /><path
       d="M68.7,142.9l-0.6,0.1L68.7,142.9z"
       id="path20"
       style="" /><path
       d="M50.3,103.4l-0.3,0.2L50.3,103.4z"
       id="path22"
       style="" /><path
       d="M49.6,103.8l-0.3,0.2L49.6,103.8z"
       id="path24"
       style="" /><path
       d="M67.7,143h-0.6H67.7z"
       id="path26"
       style="" /><path
       d="M64.1,142.8l-0.6-0.1L64.1,142.8z"
       id="path28"
       style="" /><path
       d="M59.5,141.5l-0.4-0.2L59.5,141.5z"
       id="path30"
       style="" /><path
       d="M58.6,141.1l-0.4-0.2L58.6,141.1z"
       id="path32"
       style="" /><path
       d="M65.1,142.9l-0.6-0.1L65.1,142.9z"
       id="path34"
       style="" /><path
       d="M60.8,142l-0.5-0.2L60.8,142z"
       id="path36"
       style="" /><path
       d="M63,142.6l-0.6-0.1L63,142.6z"
       id="path38"
       style="" /><path
       d="M73.3,140c-0.9,1.1-2.1,2-3.4,2.6c0.9-0.2,1.8-0.5,2.6-0.9c2.4-0.4,4.5-1.7,6.1-3.5c0,0,2.9-6.7,8.5-9.4   c-0.9,0.2-1.8,0.5-2.7,0.9C77.2,131.1,73.3,140,73.3,140z"
       id="path40"
       style="" /><path
       d="M57.7,140.6l-0.3-0.2L57.7,140.6z"
       id="path42"
       style="" /><path
       d="M56.7,140.1l-0.3-0.2L56.7,140.1z"
       id="path44"
       style="" /><path
       d="M47.3,106l-0.2,0.3L47.3,106z"
       id="path46"
       style="" /><path
       d="M102.2,118.7c-0.6-6.9-2.3-8.6-2.3-8.6s-3.4-9.8-8.6-11.5c-3.4-1.2-5.9-0.8-8,0.3c-0.9,0.2-1.8,0.5-2.6,0.9   c1.8-0.2,3.6,0,5.3,0.6c5.2,1.7,8.6,11.5,8.6,11.5s1.7,1.7,2.3,8.6c0.3,4-1.3,6-4.1,7.3c0.9-0.2,1.8-0.5,2.7-0.9   C99.9,125.8,102.6,123.8,102.2,118.7z"
       id="path48"
       style="" /><path
       d="M90,128.4l-0.8,0.1L90,128.4z"
       id="path50"
       style="" /><path
       d="M45.4,110.3c0,0.1,0,0.1,0,0.2C45.4,110.5,45.4,110.4,45.4,110.3z"
       id="path52"
       style="" /><path
       d="M91.2,128.2l-0.7,0.1L91.2,128.2z"
       id="path54"
       style="" /><path
       d="M45.1,111.6c0,0.1,0,0.3-0.1,0.4C45.1,111.9,45.1,111.8,45.1,111.6z"
       id="path56"
       style="" /><path
       d="M45,113c0,0.2,0,0.3,0,0.5C44.9,113.4,45,113.2,45,113z"
       id="path58"
       style="" /><path
       d="M62,142.3l-0.5-0.1L62,142.3z"
       id="path60"
       style="" /><path
       d="M92.3,127.9l-0.7,0.2L92.3,127.9z"
       id="path62"
       style="" /><path
       d="M44.9,115.1c0-0.2,0-0.3,0-0.5C44.9,114.8,44.9,114.9,44.9,115.1z"
       id="path64"
       style="" /><path
       d="M47.9,105.3c0.1-0.1,0.2-0.2,0.3-0.3C48.1,105.1,48,105.2,47.9,105.3z"
       id="path66"
       style="" /><path
       d="M63.7,101.5c-3.3-0.9-6.8-0.7-10,0.6c-0.9,0.2-1.8,0.5-2.7,0.9c2.4-0.5,5-0.4,7.3,0.3c3.3,1.1,12.8,1.7,16.2-0.3   c1.1-0.1,2.2-0.5,3.1-1.2c-0.1,0.1-0.3,0.2-0.4,0.3C72.7,102.8,68.1,102.6,63.7,101.5z"
       id="path68"
       style="" /><path
       d="M46.3,107.8c-0.1,0.1-0.1,0.3-0.2,0.4C46.2,108,46.2,107.9,46.3,107.8z"
       id="path70"
       style="" /><path
       d="M45.8,108.8c0,0.1-0.1,0.2-0.1,0.4C45.8,109.1,45.8,109,45.8,108.8z"
       id="path72"
       style="" /><path
       d="M69.7,142.7l-0.5,0.1L69.7,142.7z"
       id="path74"
       style="" /><path
       d="M46.8,106.8l-0.2,0.4L46.8,106.8z"
       id="path76"
       style="" /><path
       d="M88.7,128.6l-1.3,0.2L88.7,128.6z"
       id="path78"
       style="" /><path
       d="M69.2,142.8l-0.5,0.1L69.2,142.8z"
       id="path80"
       style="" /><path
       d="M92.7,127.8L92.7,127.8l-0.4,0.1L92.7,127.8z"
       id="path82"
       style="" /><path
       d="M62.5,142.5l-0.5-0.1L62.5,142.5z"
       id="path84"
       style="" /><path
       d="M89.1,128.6l-0.4,0.1L89.1,128.6z"
       id="path86"
       style="" /><path
       d="M67.1,143L67.1,143z"
       id="path88"
       style="" /><path
       d="M69.9,142.7L69.9,142.7l-0.2,0.1L69.9,142.7z"
       id="path90"
       style="" /><path
       d="M90.4,128.3l-0.5,0.1L90.4,128.3z"
       id="path92"
       style="" /><path
       d="M65.6,143h-0.4H65.6z"
       id="path94"
       style="" /><path
       d="M91.7,128.1l-0.5,0.1L91.7,128.1z"
       id="path96"
       style="" /><path
       d="M68.2,142.9h-0.4H68.2z"
       id="path98"
       style="" /><path
       d="M63.5,142.7l-0.5-0.1L63.5,142.7z"
       id="path100"
       style="" /><path
       d="M64.5,142.9l-0.4-0.1L64.5,142.9z"
       id="path102"
       style="" /><path
       d="M47.9,105.3c-0.2,0.2-0.4,0.4-0.6,0.7C47.5,105.8,47.7,105.5,47.9,105.3z"
       id="path104"
       style="" /><path
       d="M46.1,108.1c-0.1,0.2-0.2,0.5-0.3,0.7C45.9,108.6,46,108.4,46.1,108.1z"
       id="path106"
       style="" /><path
       d="M45.3,110.5c-0.1,0.3-0.2,0.7-0.2,1.1C45.2,111.2,45.3,110.9,45.3,110.5z"
       id="path108"
       style="" /><path
       d="M45.7,109.2c-0.1,0.4-0.2,0.7-0.3,1.1C45.5,109.9,45.6,109.6,45.7,109.2z"
       id="path110"
       style="" /><path
       d="M46.6,107.2c-0.1,0.2-0.2,0.4-0.3,0.6C46.4,107.6,46.5,107.4,46.6,107.2z"
       id="path112"
       style="" /><path
       d="M47.2,106.3c-0.1,0.2-0.2,0.4-0.4,0.6C46.9,106.6,47,106.4,47.2,106.3z"
       id="path114"
       style="" /><path
       d="M45.1,112.1c0,0.3-0.1,0.6-0.1,1C45,112.7,45,112.4,45.1,112.1z"
       id="path116"
       style="" /><path
       d="M80.5,99.9l0.2-0.1l0,0L80.5,99.9z"
       id="path118"
       style="" /><path
       d="M50.3,103.4L51,103l0,0L50.3,103.4z"
       id="path120"
       style="" /><path
       d="M44.9,113.5c0,0.3,0,0.7,0,1C44.9,114.2,44.9,113.9,44.9,113.5z"
       id="path122"
       style="" /><path
       d="M48.2,105l0.4-0.4L48.2,105z"
       id="path124"
       style="" /><path
       d="M45,116.8c0-0.6-0.1-1.1-0.1-1.7C44.9,115.6,44.9,116.2,45,116.8z"
       id="path126"
       style="" /><path
       d="M80,100.2l-0.3,0.2L80,100.2z"
       id="path128"
       style="" /><path
       d="M49.3,104.1l-0.4,0.3L49.3,104.1z"
       id="path130"
       style="" /><path
       d="M58.2,140.9l-0.5-0.3L58.2,140.9z"
       id="path132"
       style="" /><path
       d="M60.2,141.8l-0.7-0.2L60.2,141.8z"
       id="path134"
       style="" /><path
       d="M56.5,139.9c-0.3-0.2-0.5-0.4-0.8-0.6C55.9,139.6,56.2,139.7,56.5,139.9z"
       id="path136"
       style="" /><path
       d="M59.2,141.4l-0.6-0.3L59.2,141.4z"
       id="path138"
       style="" /><path
       d="M57.3,140.4l-0.6-0.3L57.3,140.4z"
       id="path140"
       style="" /><path
       d="M78.6,101.2l-0.2,0.1L78.6,101.2z"
       id="path142"
       style="" /><path
       d="M87.1,128.9l0.4-0.1L87.1,128.9L87.1,128.9z"
       id="path144"
       style="" /><path
       d="M50,103.6l-0.4,0.2L50,103.6z"
       id="path146"
       style="" /><path
       d="M61.5,142.2l-0.7-0.2L61.5,142.2z"
       id="path148"
       style="" /><path
       d="M79.3,100.6l-0.2,0.2L79.3,100.6z"
       id="path150"
       style="" /></g><circle
     class="st2"
     cx="80.3"
     cy="115.9"
     r="5.7"
     id="circle154" /><path
     class="st2"
     d="M82.2,112.3l28.8-9.1c0.4-0.1,0.9,0.1,1,0.5l1.3,4.1c0.1,0.4-0.1,0.9-0.5,1l-28.8,9.1c-0.4,0.1-0.9-0.1-1-0.5  l-1.3-4.1C81.5,112.8,81.7,112.4,82.2,112.3z"
     id="path156" /><path
     class="st3"
     d="M67.3,112.2l5.2,14.4l-3.4,1.2l-0.6-1.7c-0.9,0.3-2-0.2-2.3-1.1c0,0,0,0,0-0.1c-0.6-1.7-2.9-7.5-2.9-7.5  c0-0.7,0.5-1.4,1.1-1.7l-0.6-2.3L67.3,112.2z"
     id="path158"
     style="opacity:0.8" /><path
     class="st0"
     d="M116.3,99l6.6-2.1c2.6-0.8,5.3,0.6,6.2,3.2l0.3,1c0.8,2.6-0.6,5.3-3.2,6.2l-6.6,2.1c-2.6,0.8-5.3-0.6-6.2-3.2  l-0.3-1C112.3,102.6,113.7,99.9,116.3,99z"
     id="path160" /><path
     class="st4"
     d="M116.3,99l6.6-2.1c2.6-0.8,5.3,0.6,6.2,3.2l0.3,1c0.8,2.6-0.6,5.3-3.2,6.2l-6.6,2.1c-2.6,0.8-5.3-0.6-6.2-3.2  l-0.3-1C112.3,102.6,113.7,99.9,116.3,99z"
     id="path162" /><path
     class="st2"
     d="M114,99.5c0,0-0.9-1.7,0.6-2.1s1.6,1.4,1.6,1.4L114,99.5z"
     id="path164" /><path
     class="st2"
     d="M119.4,109.3c0,0,0.8,1.7-0.6,2.1s-1.6-1.4-1.6-1.4L119.4,109.3z"
     id="path166" /><path
     class="st2"
     d="M123.4,108.2c0,0,0.8,1.7-0.6,2.1s-1.6-1.4-1.6-1.4L123.4,108.2z"
     id="path168" /><path
     class="st2"
     d="M126.8,107.1c0,0,0.8,1.7-0.6,2.1s-1.6-1.4-1.6-1.4L126.8,107.1z"
     id="path170" /><path
     class="st2"
     d="M118,98.3c0,0-0.9-1.7,0.6-2.1s1.6,1.4,1.6,1.4L118,98.3z"
     id="path172" /><path
     class="st2"
     d="M122,97.2c0,0-0.9-1.7,0.6-2.1s1.6,1.4,1.6,1.4L122,97.2z"
     id="path174" /><path
     class="st0"
     d="M115.4,99l6.6-2.1c2.6-0.8,5.3,0.6,6.2,3.2l0.3,1c0.8,2.6-0.6,5.3-3.2,6.2l-6.6,2.1c-2.6,0.8-5.3-0.6-6.2-3.2  l-0.3-1C111.4,102.6,112.9,99.9,115.4,99z"
     id="path176" /><path
     d="M115.3,101.7l8.2-2.6c0.3-0.1,0.6,0.1,0.7,0.4l0,0c0.1,0.3-0.1,0.6-0.4,0.7l-8.2,2.6c-0.3,0.1-0.6-0.1-0.7-0.4l0,0  C114.8,102.1,115,101.8,115.3,101.7z"
     id="path178" /><path
     d="M117.1,105.7l8.2-2.6c0.3-0.1,0.6,0.1,0.7,0.4l0,0c0.1,0.3-0.1,0.6-0.4,0.7l-8.2,2.6c-0.3,0.1-0.6-0.1-0.7-0.4l0,0  C116.6,106.2,116.8,105.8,117.1,105.7z"
     id="path180" /></svg>