<?xml version="1.0" encoding="UTF-8" standalone="no"?>
<!-- Generator: Adobe Illustrator 22.0.1, SVG Export Plug-In . SVG Version: 6.00 Build 0)  -->

<svg
   xmlns:dc="http://purl.org/dc/elements/1.1/"
   xmlns:cc="http://creativecommons.org/ns#"
   xmlns:rdf="http://www.w3.org/1999/02/22-rdf-syntax-ns#"
   xmlns:svg="http://www.w3.org/2000/svg"
   xmlns="http://www.w3.org/2000/svg"
   xmlns:sodipodi="http://sodipodi.sourceforge.net/DTD/sodipodi-0.dtd"
   xmlns:inkscape="http://www.inkscape.org/namespaces/inkscape"
   version="1.1"
   id="Layer_1"
   x="0px"
   y="0px"
   viewBox="0 0 160 160"
   style="enable-background:new 0 0 160 160;"
   xml:space="preserve"
   sodipodi:docname="bottom_16.svg"
   inkscape:version="0.92.2 (5c3e80d, 2017-08-06)"><metadata
     id="metadata71"><rdf:RDF><cc:Work
         rdf:about=""><dc:format>image/svg+xml</dc:format><dc:type
           rdf:resource="http://purl.org/dc/dcmitype/StillImage" /></cc:Work></rdf:RDF></metadata><defs
     id="defs69" /><sodipodi:namedview
     pagecolor="#ffffff"
     bordercolor="#666666"
     borderopacity="1"
     objecttolerance="10"
     gridtolerance="10"
     guidetolerance="10"
     inkscape:pageopacity="0"
     inkscape:pageshadow="2"
     inkscape:window-width="1920"
     inkscape:window-height="976"
     id="namedview67"
     showgrid="false"
     inkscape:zoom="11.8"
     inkscape:cx="55.957462"
     inkscape:cy="25.410149"
     inkscape:window-x="0"
     inkscape:window-y="27"
     inkscape:window-maximized="1"
     inkscape:current-layer="Layer_1" /><style
     type="text/css"
     id="style2">
	.st0{fill:#A34B1A;}
	.st1{fill:#E5652C;}
	.st2{fill:#490B37;}
	.st3{fill:#02AABC;}
	.st4{fill:#FFFFFF;}
</style><title
     id="title4">Artboard 42 copy 257</title><path
     class="st0"
     d="M79,119.2l-0.4,11.2c0,0,1.1,2.6-9.7,2.6H46.2c0,0-5.4-5.2-2.2-7.8s11.9-3.4,11.9-3.4l-2.6-6.6L79,119.2z"
     id="path6" /><path
     class="st1"
     d="M59.8,118.4l-8.3-0.9c-0.3,0-0.5-0.3-0.4-0.6l0.1-0.5c0-0.3,0.3-0.5,0.6-0.4l8.3,0.9c0.3,0,0.5,0.3,0.4,0.6  l-0.1,0.5C60.3,118.2,60.1,118.4,59.8,118.4z"
     id="path8"
     style="fill:#000000;fill-opacity:1" /><path
     class="st1"
     d="M60.6,120.9l-8.3-0.9c-0.3,0-0.5-0.3-0.4-0.6l0.1-0.5c0-0.3,0.3-0.5,0.6-0.4l8.3,0.9c0.3,0,0.5,0.3,0.4,0.6  l-0.1,0.5C61.1,120.8,60.8,121,60.6,120.9z"
     id="path10"
     style="fill:#000000;fill-opacity:1" /><circle
     class="st2"
     cx="64.8"
     cy="136.5"
     r="2.9"
     id="circle12" /><circle
     class="st3"
     cx="66.1"
     cy="136.4"
     r="2.9"
     id="circle14"
     style="fill:#000000;fill-opacity:1" /><circle
     class="st3"
     cx="66.099998"
     cy="136.39999"
     r="2.9000001"
     id="circle14-3"
     style="fill:#ffffff;fill-opacity:1;opacity:0.3" /><path
     d="M69.1,137.4l-1.8,0.1c-0.7,0.1-1.3-0.5-1.4-1.2l0,0c-0.1-0.7,0.5-1.3,1.2-1.4l1.8-0.1c0.7-0.1,1.3,0.5,1.4,1.2l0,0  C70.3,136.7,69.8,137.4,69.1,137.4z"
     id="path16"
     style="fill:#000000;fill-opacity:1" /><circle
     class="st2"
     cx="72.5"
     cy="135.9"
     r="3.9"
     id="circle18" /><circle
     class="st4"
     cx="74.2"
     cy="135.7"
     r="3.9"
     id="circle20" /><circle
     cx="74.2"
     cy="135.7"
     r="2.2"
     id="circle22" /><circle
     class="st2"
     cx="48.7"
     cy="136.5"
     r="3.7"
     id="circle24" /><circle
     class="st3"
     cx="50.3"
     cy="136.4"
     r="3.7"
     id="circle26"
     style="fill:#000000;fill-opacity:1" /><circle
     class="st3"
     cx="50.299999"
     cy="136.39999"
     r="3.7"
     id="circle26-6"
     style="fill:#ffffff;fill-opacity:1;opacity:0.3" /><path
     d="M53.1,137.4l-1.8,0.1c-0.7,0.1-1.3-0.5-1.4-1.2l0,0c-0.1-0.7,0.5-1.3,1.2-1.4l1.8-0.1c0.7-0.1,1.3,0.5,1.4,1.2l0,0  C54.3,136.7,53.8,137.4,53.1,137.4z"
     id="path28"
     style="fill:#000000;fill-opacity:1" /><circle
     class="st2"
     cx="56.5"
     cy="135.9"
     r="3.9"
     id="circle30" /><circle
     class="st4"
     cx="58.2"
     cy="135.7"
     r="3.9"
     id="circle32" /><circle
     cx="58.2"
     cy="135.7"
     r="2.2"
     id="circle34" /><path
     class="st0"
     d="M81.6,119.2L80,130.4c0,0-1,2.6,9.8,2.6h22.7c0,0,5.4-5.2,2.2-7.8s-14.9-3.4-14.9-3.4l0.6-5.6L81.6,119.2z"
     id="path36" /><path
     class="st1"
     d="M94.9,117.3l8.3,0.5c0.3,0,0.5,0.3,0.5,0.5l0,0.5c0,0.3-0.3,0.5-0.5,0.5l-8.3-0.5c-0.3,0-0.5-0.3-0.5-0.5l0-0.5  C94.4,117.5,94.7,117.2,94.9,117.3z"
     id="path38"
     style="fill:#000000;fill-opacity:1" /><path
     class="st1"
     d="M93.9,119.6l8.3,0.5c0.3,0,0.5,0.3,0.5,0.5l0,0.5c0,0.3-0.3,0.5-0.5,0.5l-8.3-0.5c-0.3,0-0.5-0.3-0.5-0.5l0-0.5  C93.4,119.8,93.6,119.6,93.9,119.6z"
     id="path40"
     style="fill:#000000;fill-opacity:1" /><circle
     class="st2"
     cx="93.8"
     cy="136.5"
     r="2.9"
     id="circle42" /><circle
     class="st3"
     cx="92.5"
     cy="136.4"
     r="2.9"
     id="circle44"
     style="fill:#000000;fill-opacity:1" /><circle
     class="st3"
     cx="92.5"
     cy="136.39999"
     r="2.9000001"
     id="circle44-7"
     style="fill:#ffffff;fill-opacity:1;opacity:0.3" /><path
     d="M89.8,134.8l1.8,0.1c0.7,0.1,1.2,0.7,1.2,1.4l0,0c-0.1,0.7-0.7,1.2-1.4,1.2l-1.8-0.1c-0.7-0.1-1.2-0.7-1.2-1.4l0,0  C88.5,135.3,89.1,134.8,89.8,134.8z"
     id="path46"
     style="fill:#000000;fill-opacity:1" /><circle
     class="st2"
     cx="86.2"
     cy="135.9"
     r="3.9"
     id="circle48" /><circle
     class="st4"
     cx="84.5"
     cy="135.7"
     r="3.9"
     id="circle50" /><circle
     cx="84.5"
     cy="135.7"
     r="2.2"
     id="circle52" /><circle
     class="st2"
     cx="110"
     cy="136.5"
     r="3.7"
     id="circle54" /><circle
     class="st3"
     cx="108.4"
     cy="136.4"
     r="3.7"
     id="circle56"
     style="fill:#000000;fill-opacity:1" /><circle
     class="st3"
     cx="108.4"
     cy="136.39999"
     r="3.7"
     id="circle56-5"
     style="fill:#ffffff;fill-opacity:1;opacity:0.3" /><path
     d="M105.8,134.8l1.8,0.1c0.7,0.1,1.2,0.7,1.2,1.4l0,0c-0.1,0.7-0.7,1.2-1.4,1.2l-1.8-0.1c-0.7-0.1-1.2-0.7-1.2-1.4l0,0  C104.5,135.3,105.1,134.8,105.8,134.8z"
     id="path58"
     style="fill:#000000;fill-opacity:1" /><circle
     class="st2"
     cx="102.2"
     cy="135.9"
     r="3.9"
     id="circle60" /><circle
     class="st4"
     cx="100.5"
     cy="135.7"
     r="3.9"
     id="circle62" /><circle
     cx="100.5"
     cy="135.7"
     r="2.2"
     id="circle64" /></svg>