<?xml version="1.0" encoding="utf-8"?>
<!-- Generator: Adobe Illustrator 22.0.1, SVG Export Plug-In . SVG Version: 6.00 Build 0)  -->
<svg version="1.1" id="Layer_1" xmlns="http://www.w3.org/2000/svg" xmlns:xlink="http://www.w3.org/1999/xlink" x="0px" y="0px"
	 viewBox="0 0 160 160" style="enable-background:new 0 0 160 160;" xml:space="preserve">
<style type="text/css">
	.st0{opacity:0.16;fill:#FFFFFF;enable-background:new    ;}
	.st1{fill:#FFFFFF;}
	.st2{opacity:0.2;}
	.st3{opacity:0.1;enable-background:new    ;}
	.st4{fill:url(#SVGID_1_);}
	.st5{clip-path:url(#SVGID_3_);}
	.st6{fill:url(#SVGID_4_);}
	.st7{fill:url(#SVGID_5_);}
	.st8{clip-path:url(#SVGID_7_);}
	.st9{fill:url(#SVGID_8_);}
</style>
<title>Artboard 42 copy 238</title>
<ellipse transform="matrix(0.9968 -7.974522e-02 7.974522e-02 0.9968 -6.8972 3.6279)" class="st0" cx="42" cy="88.2" rx="4.9" ry="9.1"/>
<path class="st1" d="M95.8,115.5c0.8,0.9,1.7,1.8,2.7,2.5c1,0,3.9-12,4.8-12s10.6,23,10.6,23l-1.9,10v-9c0,0-7.7-17-8.7-17
	s-2.9,11-3.9,11c-0.5,0-7.3-7.2-7.3-7.2L95.8,115.5z"/>
<path class="st1" d="M55.9,110.6c0,0-3.6,3.4-4,3.4c-1.1,0-4.4-12-5.5-12s-12.1,23-12.1,23l2.2,10v-9c0,0,8.8-17,9.9-17
	s3.3,11,4.4,11c0.5,0,8.3-7.1,8.3-7.1L55.9,110.6z"/>
<g class="st2">
	<path d="M55.9,110.6c0,0-3.6,3.4-4,3.4c-1.1,0-4.4-12-5.5-12s-12.1,23-12.1,23l2.2,10v-9c0,0,8.8-17,9.9-17s3.3,11,4.4,11
		c0.5,0,8.3-7.1,8.3-7.1L55.9,110.6z"/>
</g>
<path class="st1" d="M70,107.1c0,0-9,12.3-10,12.3S56,106,55,106s-11,25.8-11,25.8l2,11.2v-10.1c0,0,8-19.1,9-19.1s3,12.3,4,12.3
	s15-16.8,15-16.8S74,106,70,107.1z"/>
<path class="st3" d="M60,122.4c-1,0-4-12.4-5-12.4s-10,21.8-10,21.8l1,11.2v-10.1c0,0,8-19.1,9-19.1s3,12.3,4,12.3s15-16.8,15-16.8
	c0-0.9-0.5-1.8-1.3-2.2C72.1,106.8,61,122.4,60,122.4z"/>
<g class="st2">
	<path d="M95.8,115.5c0.8,0.9,1.7,1.8,2.7,2.5c1,0,3.9-12,4.8-12s10.6,23,10.6,23l-1.9,10v-9c0,0-7.7-17-8.7-17s-2.9,11-3.9,11
		c-0.5,0-7.3-7.2-7.3-7.2L95.8,115.5z"/>
</g>
<path class="st1" d="M100,104.1c0,0,9,12.3,10,12.3s4-13.5,5-13.5s11,25.8,11,25.8l-2,11.2v-10.1c0,0-8-19.1-9-19.1s-3,12.3-4,12.3
	s-15-16.8-15-16.8S96,103,100,104.1z"/>
<linearGradient id="SVGID_1_" gradientUnits="userSpaceOnUse" x1="283.36" y1="-1238.12" x2="283.36" y2="-1220.21" gradientTransform="matrix(1 0 0 -1 0 162)">
	<stop  offset="0" style="stop-color:#A66707"/>
	<stop  offset="1" style="stop-color:#000000"/>
</linearGradient>
<path class="st4" d="M294.7,1395.1c-2.8,3.2-6.9,5-11.1,5l0,0h-0.2h-0.2l0,0c-4.3,0-8.3-1.8-11.1-5c-3-3.3-4.9-8.6-4.9-11
	c0-2.1,3.5,0.6,12.3,1.3c1.1,0.1,2.4,0.1,3.7,0.1h0.5c7.9,0,12.8-2.5,13.6-3s2.4-0.7,2.4,1.6S297.7,1391.8,294.7,1395.1z"/>
<g>
	<defs>
		<path id="SVGID_2_" d="M294.7,1395.1c-2.8,3.2-6.9,5-11.1,5l0,0h-0.2h-0.2l0,0c-4.3,0-8.3-1.8-11.1-5c-3-3.3-4.9-8.6-4.9-11
			c0-2.1,3.5,0.6,12.3,1.3c1.1,0.1,2.4,0.1,3.7,0.1h0.5c7.9,0,12.8-2.5,13.6-3s2.4-0.7,2.4,1.6S297.7,1391.8,294.7,1395.1z"/>
	</defs>
	<clipPath id="SVGID_3_">
		<use xlink:href="#SVGID_2_"  style="overflow:visible;"/>
	</clipPath>
	<g class="st5">
		
			<linearGradient id="SVGID_4_" gradientUnits="userSpaceOnUse" x1="203.985" y1="-1640.15" x2="203.985" y2="191.07" gradientTransform="matrix(1 0 0 -1 0 162)">
			<stop  offset="0" style="stop-color:#A66707"/>
			<stop  offset="1" style="stop-color:#000000"/>
		</linearGradient>
		<rect x="-299.1" y="-29.1" class="st6" width="1006.2" height="1831.2"/>
	</g>
</g>
<linearGradient id="SVGID_5_" gradientUnits="userSpaceOnUse" x1="295.85" y1="-1424.5028" x2="295.85" y2="-1409.8242" gradientTransform="matrix(1 0 0 -1 0 162)">
	<stop  offset="0" style="stop-color:#A66707"/>
	<stop  offset="1" style="stop-color:#000000"/>
</linearGradient>
<path class="st7" d="M309,1582.4c-3.7,2.7-8.3,4.2-12.9,4.1l0,0h-0.2h-0.2l0,0c-4.6,0.1-9.2-1.4-12.9-4.1c-3.5-2.7-5.7-7-5.7-9
	s7.2,1.2,20.6,1.2h-1.5c9.1,0,14.8-2.1,15.8-2.5s2.8-0.5,2.8,1.3S312.5,1579.7,309,1582.4z"/>
<g>
	<defs>
		<path id="SVGID_6_" d="M309,1582.4c-3.7,2.7-8.3,4.2-12.9,4.1l0,0h-0.2h-0.2l0,0c-4.6,0.1-9.2-1.4-12.9-4.1c-3.5-2.7-5.7-7-5.7-9
			s7.2,1.2,20.6,1.2h-1.5c9.1,0,14.8-2.1,15.8-2.5s2.8-0.5,2.8,1.3S312.5,1579.7,309,1582.4z"/>
	</defs>
	<clipPath id="SVGID_7_">
		<use xlink:href="#SVGID_6_"  style="overflow:visible;"/>
	</clipPath>
	<g class="st8">
		
			<linearGradient id="SVGID_8_" gradientUnits="userSpaceOnUse" x1="221.985" y1="-1828.1499" x2="221.985" y2="3.07" gradientTransform="matrix(1 0 0 -1 0 162)">
			<stop  offset="0" style="stop-color:#A66707"/>
			<stop  offset="1" style="stop-color:#000000"/>
		</linearGradient>
		<rect x="-281.1" y="158.9" class="st9" width="1006.2" height="1831.2"/>
	</g>
</g>
</svg>
