<?xml version="1.0" encoding="UTF-8" standalone="no"?>
<svg
   xmlns:dc="http://purl.org/dc/elements/1.1/"
   xmlns:cc="http://creativecommons.org/ns#"
   xmlns:rdf="http://www.w3.org/1999/02/22-rdf-syntax-ns#"
   xmlns:svg="http://www.w3.org/2000/svg"
   xmlns="http://www.w3.org/2000/svg"
   xmlns:xlink="http://www.w3.org/1999/xlink"
   xmlns:sodipodi="http://sodipodi.sourceforge.net/DTD/sodipodi-0.dtd"
   xmlns:inkscape="http://www.inkscape.org/namespaces/inkscape"
   id="Layer_1"
   data-name="Layer 1"
   viewBox="0 0 160 160"
   version="1.1"
   sodipodi:docname="bottom_21.svg"
   inkscape:version="0.92.2 (5c3e80d, 2017-08-06)">
  <metadata
     id="metadata54">
    <rdf:RDF>
      <cc:Work
         rdf:about="">
        <dc:format>image/svg+xml</dc:format>
        <dc:type
           rdf:resource="http://purl.org/dc/dcmitype/StillImage" />
      </cc:Work>
    </rdf:RDF>
  </metadata>
  <sodipodi:namedview
     pagecolor="#ffffff"
     bordercolor="#666666"
     borderopacity="1"
     objecttolerance="10"
     gridtolerance="10"
     guidetolerance="10"
     inkscape:pageopacity="0"
     inkscape:pageshadow="2"
     inkscape:window-width="1920"
     inkscape:window-height="976"
     id="namedview52"
     showgrid="false"
     inkscape:zoom="1.475"
     inkscape:cx="163.79244"
     inkscape:cy="57.300605"
     inkscape:window-x="0"
     inkscape:window-y="27"
     inkscape:window-maximized="1"
     inkscape:current-layer="Layer_1" />
  <defs
     id="defs19">
    <style
       id="style2">.cls-1,.cls-2{fill:url(#linear-gradient);}.cls-1{clip-rule:evenodd;}.cls-2{fill-rule:evenodd;}.cls-3{clip-path:url(#clip-path);}.cls-4{fill:url(#linear-gradient-3);}.cls-5{fill:#f4772b;}.cls-6{opacity:0.12;}.cls-7{fill:url(#White_Black);}.cls-8{opacity:0.5;}.cls-9{opacity:0.4;}.cls-10{opacity:0.25;}.cls-11{fill:url(#White_Black-2);}</style>
    <linearGradient
       id="linear-gradient"
       x1="712.33"
       y1="-197.88"
       x2="712.33"
       y2="-215.79"
       gradientUnits="userSpaceOnUse">
      <stop
         offset="0"
         stop-color="#a66707"
         id="stop4" />
      <stop
         offset="1"
         id="stop6" />
    </linearGradient>
    <clipPath
       id="clip-path">
      <path
         class="cls-1"
         d="M723.7-202.91a15.08,15.08,0,0,1-11.14,5h0l-.22,0-.21,0h0a15.08,15.08,0,0,1-11.14-5c-3.05-3.33-4.9-8.6-4.9-11s4.46,1.42,16,1.42h.46c7.89,0,12.78-2.53,13.65-3s2.39-.65,2.39,1.6S726.74-206.24,723.7-202.91Z"
         id="path9" />
    </clipPath>
    <linearGradient
       id="linear-gradient-3"
       x1="632.98"
       y1="204.14"
       x2="632.98"
       y2="-1627.07"
       xlink:href="#linear-gradient" />
    <linearGradient
       id="White_Black"
       x1="-903.02"
       y1="-306.3"
       x2="-885.5"
       y2="-306.3"
       gradientTransform="translate(983.22 301.46) rotate(-7.78)"
       gradientUnits="userSpaceOnUse">
      <stop
         offset="0"
         stop-color="#fff"
         id="stop13" />
      <stop
         offset="1"
         id="stop15" />
    </linearGradient>
    <linearGradient
       id="White_Black-2"
       x1="1797.17"
       y1="547.19"
       x2="1813.91"
       y2="547.19"
       gradientTransform="translate(-1532.63 -820.61) rotate(13.05)"
       xlink:href="#White_Black" />
  </defs>
  <title
     id="title21">Artboard 42 copy 213</title>
  <ellipse
     class="cls-5"
     cx="58.57"
     cy="118.27"
     rx="15.4"
     ry="25.64"
     transform="translate(-19.88 12.14) rotate(-10.13)"
     id="ellipse29" />
  <g
     class="cls-6"
     id="g35"
     style="fill:#000000;fill-opacity:1">
    <path
       class="cls-7"
       d="M58.42,137.88c-4.59,0-9.55-7.61-11.28-17.33a32.47,32.47,0,0,1,.28-14c1-3.61,2.83-5.91,5-6.29a3.71,3.71,0,0,1,.67-.06c4.59,0,9.55,7.61,11.28,17.33,1.82,10.2-.58,19.51-5.24,20.35A5,5,0,0,1,58.42,137.88Z"
       id="path31"
       style="fill:#000000;fill-opacity:1" />
    <path
       d="M53.05,101.15h0c4.39,0,8.87,8.54,10.3,16.51a31.49,31.49,0,0,1-.27,13.6c-.91,3.24-2.43,5.27-4.16,5.58a2.81,2.81,0,0,1-.5,0c-4.4,0-8.88-8.53-10.3-16.5a31.55,31.55,0,0,1,.26-13.61c.91-3.23,2.43-5.26,4.17-5.57a2.73,2.73,0,0,1,.5,0m0-2a4.8,4.8,0,0,0-.85.08c-5.29.94-8,10.57-6.05,21.5,1.85,10.35,7.21,18.15,12.27,18.15a4.88,4.88,0,0,0,.85-.07c5.29-.95,8-10.57,6-21.5C63.47,107,58.1,99.15,53.05,99.15Z"
       id="path33"
       style="fill:#000000;fill-opacity:1" />
  </g>
  <path
     class="cls-8"
     d="M59,117.91c.33,1.84-1.54,3.72-1.54,3.72s-2.41-1.11-2.74-3S56.29,115,56.29,115,58.69,116.06,59,117.91Z"
     id="path37" />
  <path
     class="cls-9"
     d="M49.22,120.26c.78,4.19,4.69,16.41,10.05,18.55-5.29.94-11.17-7.15-13.12-18.08s.76-20.56,6.05-21.5C47.61,101.53,48.44,116.06,49.22,120.26Z"
     id="path39" />
  <path
     class="cls-5"
     d="M120.69,120.83c-2.54,13.44-11.15,23.1-19.22,21.58-7.56-1.43-12-12.18-10.41-24.59C94,116,107,113,115.56,96.29,120.41,100.82,122.65,110.43,120.69,120.83Z"
     id="path41" />
  <g
     class="cls-10"
     id="g47"
     style="fill:#000000;fill-opacity:1">
    <path
       class="cls-11"
       d="M100.52,135.93a3.82,3.82,0,0,1-.68-.06c-4.25-.8-6.49-8.93-5.08-18.24l.47-.21c2.68-1.23,10.48-4.81,16.06-12a31.26,31.26,0,0,1,.22,13.88C109.75,128.64,104.92,135.93,100.52,135.93Z"
       id="path43"
       style="fill:#000000;fill-opacity:1" />
    <path
       d="M110.77,107.63a32.34,32.34,0,0,1-.24,11.51c-1.44,7.63-5.81,15.79-10,15.79a2.74,2.74,0,0,1-.5,0c-3.87-.74-5.34-9.11-4.35-16.57a45,45,0,0,0,15.1-10.69m.83-4.3C105,113,93.9,116.68,93.84,117c-1.65,10.13.87,18.91,5.81,19.84a4.27,4.27,0,0,0,.87.08c4.87,0,10.1-7.47,12-17.42,1.2-6.36.76-12.28-.9-16.18Z"
       id="path45"
       style="fill:#000000;fill-opacity:1" />
  </g>
  <path
     class="cls-9"
     d="M97,116.65c-.74,4-1.4,16.43,2.7,20.2-4.94-.93-7.46-9.71-5.81-19.84,0-.13,3.38-1.62,3.38-1.62S97,116.29,97,116.65Z"
     id="path49" />
</svg>
