<?xml version="1.0" encoding="utf-8"?>
<!-- Generator: Adobe Illustrator 22.0.1, SVG Export Plug-In . SVG Version: 6.00 Build 0)  -->
<svg version="1.1" id="Layer_1" xmlns="http://www.w3.org/2000/svg" xmlns:xlink="http://www.w3.org/1999/xlink" x="0px" y="0px"
	 viewBox="0 0 160 160" style="enable-background:new 0 0 160 160;" xml:space="preserve">
<style type="text/css">
	.st0{fill:url(#SVGID_1_);}
	.st1{fill:url(#SVGID_2_);}
	.st2{opacity:0.1;}
	.st3{fill:#6D4716;}
	.st4{fill:#FFFFFF;}
	.st5{fill:#99671D;}
	.st6{fill:#444444;}
	.st7{fill:#FFC866;}
</style>
<title>Artboard 42 copy 220</title>
<linearGradient id="SVGID_1_" gradientUnits="userSpaceOnUse" x1="88.75" y1="43.4855" x2="102.15" y2="43.4855" gradientTransform="matrix(1 0 0 -1 0 162)">
	<stop  offset="0" style="stop-color:#A66707"/>
	<stop  offset="0.5" style="stop-color:#9D6209"/>
	<stop  offset="1" style="stop-color:#000000"/>
</linearGradient>
<path class="st0" d="M88.8,117.9L89,124c3.2,1.2,6.8,1.2,10,0l3.2-11.8C102.2,112.2,94.5,116.8,88.8,117.9z"/>
<linearGradient id="SVGID_2_" gradientUnits="userSpaceOnUse" x1="90.55" y1="29.2733" x2="97" y2="29.2733" gradientTransform="matrix(1 0 0 -1 0 162)">
	<stop  offset="0" style="stop-color:#FFFFFF"/>
	<stop  offset="0.48" style="stop-color:#F6F6F6"/>
	<stop  offset="0.81" style="stop-color:#CCCCCC"/>
	<stop  offset="1" style="stop-color:#999999"/>
</linearGradient>
<path class="st1" d="M91,124.6c0,0-1.1,12.4,0,14.4s4.4,3,4.4,0s1.6-14.4,1.6-14.4c-1,0.1-2,0.2-3,0.2C93,124.8,92,124.8,91,124.6z"
	/>
<g class="st2">
	<path d="M91,139c1.1,2,4.4,3,4.4,0s1.6-14.4,1.6-14.4l-3,0.2C94,124.8,94,140,91,139z"/>
</g>
<path class="st3" d="M69.6,123.3c0,0,2.6,5.2,5.2,7.1c1.1,0.8,2.2,1.7,3.2,2.6v4.2C78,137.6,68.2,134.4,69.6,123.3z"/>
<path class="st4" d="M68.9,123.3c0,0,5.2-1.3,8.4,2s3.2,7.8,1.3,7.8S76.7,133.7,68.9,123.3z"/>
<path class="st5" d="M44.2,108.4c0,0,4.5-7.8,18.2-0.7S65,129.8,77.3,137c0,0-2.9,2.9-8-5.7S65,107.7,44.2,108.4z"/>
<path class="st6" d="M77.3,137c0,0-5.8,2.6-9.8-10.4s-8.5-20.8-19.5-20.2c-1.6,0-3,0.6-4.2,1.6c-5.3,4.8-1.2,18.7,4.2,23.1
	c6.5,5.2,20.8,10.4,26.7,8.4S77.3,137,77.3,137z"/>
<path class="st7" d="M78.2,118.2l-0.9,7.1c-1.8-1.3-3.4-2.2-4.8-2.2l0.6-5.9C74.8,117.7,76.5,118,78.2,118.2z"/>
<path d="M45.5,111h11c0.3,0,0.5,0.2,0.5,0.5l0,0c0,0.3-0.2,0.5-0.5,0.5h-11c-0.3,0-0.5-0.2-0.5-0.5l0,0C45,111.2,45.2,111,45.5,111z
	"/>
<path d="M44.5,114h14c0.3,0,0.5,0.2,0.5,0.5l0,0c0,0.3-0.2,0.5-0.5,0.5h-14c-0.3,0-0.5-0.2-0.5-0.5l0,0C44,114.2,44.2,114,44.5,114z
	"/>
<path d="M44.5,117h17c0.3,0,0.5,0.2,0.5,0.5l0,0c0,0.3-0.2,0.5-0.5,0.5h-17c-0.3,0-0.5-0.2-0.5-0.5l0,0C44,117.2,44.2,117,44.5,117z
	"/>
<path d="M45.5,120h17c0.3,0,0.5,0.2,0.5,0.5l0,0c0,0.3-0.2,0.5-0.5,0.5h-17c-0.3,0-0.5-0.2-0.5-0.5l0,0C45,120.2,45.2,120,45.5,120z
	"/>
<path d="M46.5,123h17c0.3,0,0.5,0.2,0.5,0.5l0,0c0,0.3-0.2,0.5-0.5,0.5h-17c-0.3,0-0.5-0.2-0.5-0.5l0,0C46,123.2,46.2,123,46.5,123z
	"/>
<path d="M48.5,126h17c0.3,0,0.5,0.2,0.5,0.5l0,0c0,0.3-0.2,0.5-0.5,0.5h-17c-0.3,0-0.5-0.2-0.5-0.5l0,0C48,126.2,48.2,126,48.5,126z
	"/>
<path d="M50.5,129h15c0.3,0,0.5,0.2,0.5,0.5l0,0c0,0.3-0.2,0.5-0.5,0.5h-15c-0.3,0-0.5-0.2-0.5-0.5l0,0C50,129.2,50.2,129,50.5,129z
	"/>
<path d="M54.5,132h13c0.3,0,0.5,0.2,0.5,0.5l0,0c0,0.3-0.2,0.5-0.5,0.5h-13c-0.3,0-0.5-0.2-0.5-0.5l0,0C54,132.2,54.2,132,54.5,132z
	"/>
<path d="M59.5,135h9c0.3,0,0.5,0.2,0.5,0.5l0,0c0,0.3-0.2,0.5-0.5,0.5h-9c-0.3,0-0.5-0.2-0.5-0.5l0,0C59,135.2,59.2,135,59.5,135z"
	/>
</svg>
