<?xml version="1.0" encoding="utf-8"?>
<!-- Generator: Adobe Illustrator 22.0.1, SVG Export Plug-In . SVG Version: 6.00 Build 0)  -->
<svg version="1.1" id="Layer_1" xmlns="http://www.w3.org/2000/svg" xmlns:xlink="http://www.w3.org/1999/xlink" x="0px" y="0px"
	 viewBox="0 0 160 160" style="enable-background:new 0 0 160 160;" xml:space="preserve">
<style type="text/css">
	.st0{opacity:0.15;}
	.st1{opacity:0.3;}
	.st2{fill:url(#SVGID_1_);}
	.st3{fill:#FFFFFF;}
	.st4{opacity:0.14;enable-background:new    ;}
</style>
<title>Artboard 42 copy 211</title>
<g class="st0">
	<path d="M90.5,122.5c0,0,5,0,4-2c-0.4-0.9-3.9-2.6-3.9-2.6l-2.4,0.3C90.6,120.2,91.2,121.6,90.5,122.5z"/>
</g>
<g class="st1">
	<path d="M89,122.8c0,0-1.1,3.6,2,4.2c6,1,7,6,6,8c-2,5-16,8-22-2s-6-11-16-12s-12,5-12,5c0,2,1,1,1,1c2-3.6,5.9-5.6,10-5
		c9,1,11,3,12,5s5,11,12,13s14,0,16-5s-3.3-8.5-6-9c-0.8-0.2-1.8,0-2-2.8V123C90,121,89,122.8,89,122.8z"/>
</g>
<radialGradient id="SVGID_1_" cx="89.28" cy="41.53" r="3.9" gradientTransform="matrix(1 0 0 -1 0 162)" gradientUnits="userSpaceOnUse">
	<stop  offset="0" style="stop-color:#FFD22D"/>
	<stop  offset="0.87" style="stop-color:#FCB22B"/>
	<stop  offset="1" style="stop-color:#F28312"/>
</radialGradient>
<path class="st2" d="M84.5,123.5c1,2,6-1,6-1s5,0,4-2c-0.4-0.9-3.9-2.6-3.9-2.6l-4.8,0.6C85.8,118.5,84,122.4,84.5,123.5z"/>
<path class="st3" d="M90,122.8c0,0-1.1,3.6,2,4.2c6,1,7,6,6,8c-2,5-16,8-22-2s-6-11-16-12s-12,5-12,5c0,2,1,1,1,1
	c2-3.6,5.9-5.6,10-5c9,1,11,3,12,5s5,11,12,13s14,0,16-5s-3.3-8.5-6-9c-0.8-0.2-1.8,0-2-2.8V123C91,121,90,122.8,90,122.8z"/>
<path class="st4" d="M84.5,123.5c1,2,4-1,6-1s5,0,4-2C93,121,87,123,84.5,123.5z"/>
</svg>
