<?xml version="1.0" encoding="UTF-8" standalone="no"?>
<!-- Generator: Adobe Illustrator 22.0.1, SVG Export Plug-In . SVG Version: 6.00 Build 0)  -->

<svg
   xmlns:dc="http://purl.org/dc/elements/1.1/"
   xmlns:cc="http://creativecommons.org/ns#"
   xmlns:rdf="http://www.w3.org/1999/02/22-rdf-syntax-ns#"
   xmlns:svg="http://www.w3.org/2000/svg"
   xmlns="http://www.w3.org/2000/svg"
   xmlns:sodipodi="http://sodipodi.sourceforge.net/DTD/sodipodi-0.dtd"
   xmlns:inkscape="http://www.inkscape.org/namespaces/inkscape"
   version="1.1"
   id="Layer_1"
   x="0px"
   y="0px"
   viewBox="0 0 160 160"
   style="enable-background:new 0 0 160 160;"
   xml:space="preserve"
   sodipodi:docname="bottom_08.svg"
   inkscape:version="0.92.2 (5c3e80d, 2017-08-06)"><metadata
     id="metadata187"><rdf:RDF><cc:Work
         rdf:about=""><dc:format>image/svg+xml</dc:format><dc:type
           rdf:resource="http://purl.org/dc/dcmitype/StillImage" /></cc:Work></rdf:RDF></metadata><defs
     id="defs185" /><sodipodi:namedview
     pagecolor="#ffffff"
     bordercolor="#666666"
     borderopacity="1"
     objecttolerance="10"
     gridtolerance="10"
     guidetolerance="10"
     inkscape:pageopacity="0"
     inkscape:pageshadow="2"
     inkscape:window-width="1920"
     inkscape:window-height="976"
     id="namedview183"
     showgrid="false"
     inkscape:zoom="4.17193"
     inkscape:cx="2.8115078"
     inkscape:cy="86.260045"
     inkscape:window-x="0"
     inkscape:window-y="27"
     inkscape:window-maximized="1"
     inkscape:current-layer="Layer_1" /><style
     type="text/css"
     id="style2">
	.st0{fill:#FD9727;}
	.st1{opacity:0.2;}
	.st2{fill:#543933;}
	.st3{opacity:0.5;enable-background:new    ;}
	.st4{opacity:0.2;enable-background:new    ;}
</style><title
     id="title4">Artboard 42 copy 254</title><path
     class="st0"
     d="m 101.62494,127.79313 c 0.62353,-6.89791 -0.7508,-8.87053 -0.7508,-8.87053 0,0 -1.62248,-10.24537 -6.442197,-12.83387 -3.135789,-1.77956 -5.667165,-1.82572 -7.92796,-1.11241 -2.137619,0.0242 -4.183938,0.67429 -6.022921,1.86934 -0.116035,0.0808 -0.330512,0.14409 -0.446549,0.22493 -4.552958,-0.10278 -9.045989,-1.10909 -13.183769,-2.96618 -3.090138,-1.46665 -6.570718,-1.88565 -9.949541,-1.16903 -4.704189,0.17496 -10.045173,2.7757 -11.133353,12.84128 -1.838203,16.53455 6.556203,24.1302 6.556203,24.1302 3.750656,4.02276 10.655202,6.88235 16.213978,5.33638 2.432936,0.0286 4.728924,-0.88162 6.620698,-2.372 0,0 4.132162,-6.06755 10.02145,-7.75761 l 0.312916,-0.0457 c 2.710662,0.17974 5.474109,0.0643 8.111066,-0.48022 4.507309,-0.21014 7.517109,-1.70383 8.020779,-6.79463 z"
     id="path6"
     inkscape:connector-curvature="0"
     inkscape:transform-center-x="-0.4514559"
     inkscape:transform-center-y="2.1274445"
     style="fill:#fd9727" /><g
     class="st1"
     id="g152"
     style="opacity:0.8"
     inkscape:transform-center-x="-0.52501412"
     inkscape:transform-center-y="2.1829432"
     transform="rotate(10.134889,50.640212,120.00405)"><path
       d="m 79.1,100.8 c -0.2,0.1 -0.3,0.2 -0.5,0.4 0.1,-0.2 0.3,-0.3 0.5,-0.4 z"
       id="path8"
       inkscape:connector-curvature="0"
       style="" /><path
       d="m 79.8,100.3 -0.5,0.3 z"
       id="path10"
       inkscape:connector-curvature="0"
       style="" /><path
       d="m 66.8,143 c -0.4,0 -0.8,0 -1.3,0 0.5,0 0.9,0 1.3,0 z"
       id="path12"
       inkscape:connector-curvature="0"
       style="" /><path
       d="m 78.4,101.3 -0.7,0.5 z"
       id="path14"
       inkscape:connector-curvature="0"
       style="" /><path
       d="m 48.9,104.4 -0.3,0.3 z"
       id="path16"
       inkscape:connector-curvature="0"
       style="" /><path
       d="m 80.5,99.9 -0.4,0.2 z"
       id="path18"
       inkscape:connector-curvature="0"
       style="" /><path
       d="M 68.7,142.9 68.1,143 Z"
       id="path20"
       inkscape:connector-curvature="0"
       style="" /><path
       d="M 50.3,103.4 50,103.6 Z"
       id="path22"
       inkscape:connector-curvature="0"
       style="" /><path
       d="M 49.6,103.8 49.3,104 Z"
       id="path24"
       inkscape:connector-curvature="0"
       style="" /><path
       d="M 67.7,143 H 67.1 Z"
       id="path26"
       inkscape:connector-curvature="0"
       style="" /><path
       d="m 64.1,142.8 -0.6,-0.1 z"
       id="path28"
       inkscape:connector-curvature="0"
       style="" /><path
       d="m 59.5,141.5 -0.4,-0.2 z"
       id="path30"
       inkscape:connector-curvature="0"
       style="" /><path
       d="m 58.6,141.1 -0.4,-0.2 z"
       id="path32"
       inkscape:connector-curvature="0"
       style="" /><path
       d="m 65.1,142.9 -0.6,-0.1 z"
       id="path34"
       inkscape:connector-curvature="0"
       style="" /><path
       d="m 60.8,142 -0.5,-0.2 z"
       id="path36"
       inkscape:connector-curvature="0"
       style="" /><path
       d="m 63,142.6 -0.6,-0.1 z"
       id="path38"
       inkscape:connector-curvature="0"
       style="" /><path
       d="m 73.3,140 c -0.9,1.1 -2.1,2 -3.4,2.6 0.9,-0.2 1.8,-0.5 2.6,-0.9 2.4,-0.4 4.5,-1.7 6.1,-3.5 0,0 2.9,-6.7 8.5,-9.4 -0.9,0.2 -1.8,0.5 -2.7,0.9 -7.2,1.4 -11.1,10.3 -11.1,10.3 z"
       id="path40"
       inkscape:connector-curvature="0"
       style="" /><path
       d="m 57.7,140.6 -0.3,-0.2 z"
       id="path42"
       inkscape:connector-curvature="0"
       style="" /><path
       d="m 56.7,140.1 -0.3,-0.2 z"
       id="path44"
       inkscape:connector-curvature="0"
       style="" /><path
       d="m 47.3,106 -0.2,0.3 z"
       id="path46"
       inkscape:connector-curvature="0"
       style="" /><path
       d="m 102.2,118.7 c -0.6,-6.9 -2.3,-8.6 -2.3,-8.6 0,0 -3.4,-9.8 -8.6,-11.5 -3.4,-1.2 -5.9,-0.8 -8,0.3 -0.9,0.2 -1.8,0.5 -2.6,0.9 1.8,-0.2 3.6,0 5.3,0.6 5.2,1.7 8.6,11.5 8.6,11.5 0,0 1.7,1.7 2.3,8.6 0.3,4 -1.3,6 -4.1,7.3 0.9,-0.2 1.8,-0.5 2.7,-0.9 4.4,-1.1 7.1,-3.1 6.7,-8.2 z"
       id="path48"
       inkscape:connector-curvature="0"
       style="" /><path
       d="m 90,128.4 -0.8,0.1 z"
       id="path50"
       inkscape:connector-curvature="0"
       style="" /><path
       d="m 45.4,110.3 c 0,0.1 0,0.1 0,0.2 0,0 0,-0.1 0,-0.2 z"
       id="path52"
       inkscape:connector-curvature="0"
       style="" /><path
       d="m 91.2,128.2 -0.7,0.1 z"
       id="path54"
       inkscape:connector-curvature="0"
       style="" /><path
       d="m 45.1,111.6 c 0,0.1 0,0.3 -0.1,0.4 0.1,-0.1 0.1,-0.2 0.1,-0.4 z"
       id="path56"
       inkscape:connector-curvature="0"
       style="" /><path
       d="m 45,113 c 0,0.2 0,0.3 0,0.5 -0.1,-0.1 0,-0.3 0,-0.5 z"
       id="path58"
       inkscape:connector-curvature="0"
       style="" /><path
       d="m 62,142.3 -0.5,-0.1 z"
       id="path60"
       inkscape:connector-curvature="0"
       style="" /><path
       d="m 92.3,127.9 -0.7,0.2 z"
       id="path62"
       inkscape:connector-curvature="0"
       style="" /><path
       d="m 44.9,115.1 c 0,-0.2 0,-0.3 0,-0.5 0,0.2 0,0.3 0,0.5 z"
       id="path64"
       inkscape:connector-curvature="0"
       style="" /><path
       d="m 47.9,105.3 c 0.1,-0.1 0.2,-0.2 0.3,-0.3 -0.1,0.1 -0.2,0.2 -0.3,0.3 z"
       id="path66"
       inkscape:connector-curvature="0"
       style="" /><path
       d="m 63.7,101.5 c -3.3,-0.9 -6.8,-0.7 -10,0.6 -0.9,0.2 -1.8,0.5 -2.7,0.9 2.4,-0.5 5,-0.4 7.3,0.3 3.3,1.1 12.8,1.7 16.2,-0.3 1.1,-0.1 2.2,-0.5 3.1,-1.2 -0.1,0.1 -0.3,0.2 -0.4,0.3 -4.5,0.7 -9.1,0.5 -13.5,-0.6 z"
       id="path68"
       inkscape:connector-curvature="0"
       style="" /><path
       d="m 46.3,107.8 c -0.1,0.1 -0.1,0.3 -0.2,0.4 0.1,-0.2 0.1,-0.3 0.2,-0.4 z"
       id="path70"
       inkscape:connector-curvature="0"
       style="" /><path
       d="m 45.8,108.8 c 0,0.1 -0.1,0.2 -0.1,0.4 0.1,-0.1 0.1,-0.2 0.1,-0.4 z"
       id="path72"
       inkscape:connector-curvature="0"
       style="" /><path
       d="m 69.7,142.7 -0.5,0.1 z"
       id="path74"
       inkscape:connector-curvature="0"
       style="" /><path
       d="m 46.8,106.8 -0.2,0.4 z"
       id="path76"
       inkscape:connector-curvature="0"
       style="" /><path
       d="m 88.7,128.6 -1.3,0.2 z"
       id="path78"
       inkscape:connector-curvature="0"
       style="" /><path
       d="m 69.2,142.8 -0.5,0.1 z"
       id="path80"
       inkscape:connector-curvature="0"
       style="" /><path
       d="m 92.7,127.8 v 0 l -0.4,0.1 z"
       id="path82"
       inkscape:connector-curvature="0"
       style="" /><path
       d="M 62.5,142.5 62,142.4 Z"
       id="path84"
       inkscape:connector-curvature="0"
       style="" /><path
       d="m 89.1,128.6 -0.4,0.1 z"
       id="path86"
       inkscape:connector-curvature="0"
       style="" /><path
       d="M 67.1,143 Z"
       id="path88"
       inkscape:connector-curvature="0"
       style="" /><path
       d="m 69.9,142.7 v 0 l -0.2,0.1 z"
       id="path90"
       inkscape:connector-curvature="0"
       style="" /><path
       d="m 90.4,128.3 -0.5,0.1 z"
       id="path92"
       inkscape:connector-curvature="0"
       style="" /><path
       d="M 65.6,143 H 65.2 Z"
       id="path94"
       inkscape:connector-curvature="0"
       style="" /><path
       d="m 91.7,128.1 -0.5,0.1 z"
       id="path96"
       inkscape:connector-curvature="0"
       style="" /><path
       d="M 68.2,142.9 H 67.8 Z"
       id="path98"
       inkscape:connector-curvature="0"
       style="" /><path
       d="M 63.5,142.7 63,142.6 Z"
       id="path100"
       inkscape:connector-curvature="0"
       style="" /><path
       d="m 64.5,142.9 -0.4,-0.1 z"
       id="path102"
       inkscape:connector-curvature="0"
       style="" /><path
       d="m 47.9,105.3 c -0.2,0.2 -0.4,0.4 -0.6,0.7 0.2,-0.2 0.4,-0.5 0.6,-0.7 z"
       id="path104"
       inkscape:connector-curvature="0"
       style="" /><path
       d="m 46.1,108.1 c -0.1,0.2 -0.2,0.5 -0.3,0.7 0.1,-0.2 0.2,-0.4 0.3,-0.7 z"
       id="path106"
       inkscape:connector-curvature="0"
       style="" /><path
       d="m 45.3,110.5 c -0.1,0.3 -0.2,0.7 -0.2,1.1 0.1,-0.4 0.2,-0.7 0.2,-1.1 z"
       id="path108"
       inkscape:connector-curvature="0"
       style="" /><path
       d="m 45.7,109.2 c -0.1,0.4 -0.2,0.7 -0.3,1.1 0.1,-0.4 0.2,-0.7 0.3,-1.1 z"
       id="path110"
       inkscape:connector-curvature="0"
       style="" /><path
       d="m 46.6,107.2 c -0.1,0.2 -0.2,0.4 -0.3,0.6 0.1,-0.2 0.2,-0.4 0.3,-0.6 z"
       id="path112"
       inkscape:connector-curvature="0"
       style="" /><path
       d="m 47.2,106.3 c -0.1,0.2 -0.2,0.4 -0.4,0.6 0.1,-0.3 0.2,-0.5 0.4,-0.6 z"
       id="path114"
       inkscape:connector-curvature="0"
       style="" /><path
       d="m 45.1,112.1 c 0,0.3 -0.1,0.6 -0.1,1 0,-0.4 0,-0.7 0.1,-1 z"
       id="path116"
       inkscape:connector-curvature="0"
       style="" /><path
       d="m 80.5,99.9 0.2,-0.1 v 0 z"
       id="path118"
       inkscape:connector-curvature="0"
       style="" /><path
       d="M 50.3,103.4 51,103 v 0 z"
       id="path120"
       inkscape:connector-curvature="0"
       style="" /><path
       d="m 44.9,113.5 c 0,0.3 0,0.7 0,1 0,-0.3 0,-0.6 0,-1 z"
       id="path122"
       inkscape:connector-curvature="0"
       style="" /><path
       d="m 48.2,105 0.4,-0.4 z"
       id="path124"
       inkscape:connector-curvature="0"
       style="" /><path
       d="m 45,116.8 c 0,-0.6 -0.1,-1.1 -0.1,-1.7 0,0.5 0,1.1 0.1,1.7 z"
       id="path126"
       inkscape:connector-curvature="0"
       style="" /><path
       d="m 80,100.2 -0.3,0.2 z"
       id="path128"
       inkscape:connector-curvature="0"
       style="" /><path
       d="m 49.3,104.1 -0.4,0.3 z"
       id="path130"
       inkscape:connector-curvature="0"
       style="" /><path
       d="m 58.2,140.9 -0.5,-0.3 z"
       id="path132"
       inkscape:connector-curvature="0"
       style="" /><path
       d="m 60.2,141.8 -0.7,-0.2 z"
       id="path134"
       inkscape:connector-curvature="0"
       style="" /><path
       d="m 56.5,139.9 c -0.3,-0.2 -0.5,-0.4 -0.8,-0.6 0.2,0.3 0.5,0.4 0.8,0.6 z"
       id="path136"
       inkscape:connector-curvature="0"
       style="" /><path
       d="m 59.2,141.4 -0.6,-0.3 z"
       id="path138"
       inkscape:connector-curvature="0"
       style="" /><path
       d="m 57.3,140.4 -0.6,-0.3 z"
       id="path140"
       inkscape:connector-curvature="0"
       style="" /><path
       d="m 78.6,101.2 -0.2,0.1 z"
       id="path142"
       inkscape:connector-curvature="0"
       style="" /><path
       d="m 87.1,128.9 0.4,-0.1 z"
       id="path144"
       inkscape:connector-curvature="0"
       style="" /><path
       d="m 50,103.6 -0.4,0.2 z"
       id="path146"
       inkscape:connector-curvature="0"
       style="" /><path
       d="M 61.5,142.2 60.8,142 Z"
       id="path148"
       inkscape:connector-curvature="0"
       style="" /><path
       d="m 79.3,100.6 -0.2,0.2 z"
       id="path150"
       inkscape:connector-curvature="0"
       style="" /></g><circle
     class="st2"
     cx="100.62647"
     cy="105.11652"
     r="5.6999998"
     id="circle154"
     inkscape:transform-center-x="-7.3648631"
     inkscape:transform-center-y="-0.82088321"
     style="fill:#33221f;fill-opacity:1"
     transform="rotate(10.134889)" /><path
     style="fill:#543933"
     d="M 113.01562 114.08398 L 84.841797 117.74414 A 5.6999998 5.6999998 0 0 1 85.916016 122.18555 A 5.6999998 5.6999998 0 0 1 85.462891 123.59375 L 113.80078 119.91211 C 114.21214 119.88407 114.4988 119.42699 114.4707 119.01562 L 113.91211 114.75195 C 113.88407 114.34059 113.42699 114.05588 113.01562 114.08398 z "
     id="path156" /><path
     class="st3"
     d="m 68.413293,115.25334 2.584948,15.09032 -3.558107,0.58299 -0.291495,-1.77905 c -0.938747,0.13695 -1.933599,-0.54881 -2.070549,-1.48756 0,0 0,0 0.0176,-0.0984 -0.291495,-1.77905 -1.535002,-7.89327 -1.535002,-7.89327 0.123177,-0.68908 0.738551,-1.29017 1.381978,-1.47991 l -0.185915,-2.36969 z"
     id="path158"
     style="opacity:1;enable-background:new"
     inkscape:connector-curvature="0"
     inkscape:transform-center-x="5.9150381"
     inkscape:transform-center-y="1.0859446" /><path
     class="st0"
     d="m 118.97146,110.88164 6.86654,-0.90585 c 2.70021,-0.33 5.11172,1.52326 5.54017,4.24105 l 0.11935,1.0372 c 0.33001,2.70019 -1.52326,5.11171 -4.24106,5.54016 l -6.86654,0.90586 c -2.7002,0.33 -5.11172,-1.52327 -5.54017,-4.24106 l -0.11934,-1.03719 c -0.33001,-2.70021 1.52325,-5.11172 4.24105,-5.54017 z"
     id="path160"
     inkscape:connector-curvature="0"
     inkscape:transform-center-x="-49.919462"
     inkscape:transform-center-y="-6.1661251"
     style="fill:#fd9727" /><path
     class="st4"
     d="m 118.97146,110.88164 6.86654,-0.90585 c 2.70021,-0.33 5.11172,1.52326 5.54017,4.24105 l 0.11935,1.0372 c 0.33001,2.70019 -1.52326,5.11171 -4.24106,5.54016 l -6.86654,0.90586 c -2.7002,0.33 -5.11172,-1.52327 -5.54017,-4.24106 l -0.11934,-1.03719 c -0.33001,-2.70021 1.52325,-5.11172 4.24105,-5.54017 z"
     id="path162"
     inkscape:connector-curvature="0"
     inkscape:transform-center-x="-49.919462"
     inkscape:transform-center-y="-6.1661251"
     style="opacity:0.2;enable-background:new" /><path
     class="st2"
     d="m 116.61937,110.96912 c 0,0 -0.58682,-1.83185 0.96016,-1.96166 1.54699,-0.1298 1.32869,1.65971 1.32869,1.65971 z"
     id="path164"
     inkscape:connector-curvature="0"
     inkscape:transform-center-x="-44.519978"
     inkscape:transform-center-y="-12.019127"
     style="fill:#543933" /><path
     class="st2"
     d="m 120.21064,121.56642 c 0,0 0.48837,1.81424 -0.96017,1.96165 -1.44854,0.14741 -1.32868,-1.6597 -1.32868,-1.6597 z"
     id="path166"
     inkscape:connector-curvature="0"
     inkscape:transform-center-x="-45.910109"
     inkscape:transform-center-y="0.54747055"
     style="fill:#543933" /><path
     class="st2"
     d="m 124.34179,121.18745 c 0,0 0.48837,1.81425 -0.96017,1.96166 -1.44855,0.14739 -1.32869,-1.65971 -1.32869,-1.65971 z"
     id="path168"
     inkscape:connector-curvature="0"
     inkscape:transform-center-x="-50.041254"
     inkscape:transform-center-y="0.16850446"
     style="fill:#543933" /><path
     class="st2"
     d="m 127.8823,120.7029 c 0,0 0.48837,1.81425 -0.96018,1.96165 -1.44853,0.14741 -1.32867,-1.65969 -1.32867,-1.65969 z"
     id="path170"
     inkscape:connector-curvature="0"
     inkscape:transform-center-x="-53.581769"
     inkscape:transform-center-y="-0.31604942"
     style="fill:#543933" /><path
     class="st2"
     d="m 120.76811,110.49171 c 0,0 -0.58681,-1.83184 0.96017,-1.96165 1.54697,-0.12982 1.32868,1.6597 1.32868,1.6597 z"
     id="path172"
     inkscape:connector-curvature="0"
     inkscape:transform-center-x="-48.66872"
     inkscape:transform-center-y="-12.496533"
     style="fill:#543933" /><path
     class="st2"
     d="m 124.89926,110.11274 c 0,0 -0.58681,-1.83184 0.96016,-1.96165 1.54698,-0.12981 1.32868,1.6597 1.32868,1.6597 z"
     id="path174"
     inkscape:connector-curvature="0"
     inkscape:transform-center-x="-52.799865"
     inkscape:transform-center-y="-12.875502"
     style="fill:#543933" /><path
     class="st0"
     d="m 118.0855,110.72327 6.86655,-0.90585 c 2.7002,-0.33 5.11172,1.52326 5.54016,4.24105 l 0.11936,1.0372 c 0.33,2.7002 -1.52326,5.11171 -4.24106,5.54016 l -6.86655,0.90586 c -2.7002,0.33 -5.11171,-1.52327 -5.54016,-4.24106 l -0.11936,-1.03719 c -0.33,-2.7002 1.62171,-5.09412 4.24106,-5.54017 z"
     id="path176"
     inkscape:connector-curvature="0"
     inkscape:transform-center-x="-49.034287"
     inkscape:transform-center-y="-6.324495"
     style="fill:#fd9727" /><path
     d="m 117.51196,113.36355 8.52956,-1.11651 c 0.31292,-0.0457 0.57303,0.20402 0.61868,0.51693 v 0 c 0.0457,0.31292 -0.20401,0.57305 -0.51692,0.6187 l -8.52956,1.1165 c -0.31292,0.0457 -0.57305,-0.20402 -0.6187,-0.51694 v 0 c -0.0457,-0.3129 0.20402,-0.57303 0.51694,-0.61868 z"
     id="path178"
     inkscape:connector-curvature="0"
     inkscape:transform-center-x="-48.633107"
     inkscape:transform-center-y="-8.6309451" /><path
     d="m 118.58,117.61788 8.52957,-1.11652 c 0.31292,-0.0457 0.57303,0.20402 0.61868,0.51694 v 0 c 0.0457,0.31292 -0.20402,0.57304 -0.51692,0.61869 l -8.52957,1.11651 c -0.31292,0.0457 -0.57304,-0.20402 -0.61869,-0.51694 v 0 c -0.0633,-0.21448 0.20402,-0.57303 0.51693,-0.61868 z"
     id="path180"
     inkscape:connector-curvature="0"
     inkscape:transform-center-x="-49.699186"
     inkscape:transform-center-y="-4.37662" /></svg>