<?xml version="1.0" encoding="utf-8"?>
<!-- Generator: Adobe Illustrator 22.0.1, SVG Export Plug-In . SVG Version: 6.00 Build 0)  -->
<svg version="1.1" id="Layer_1" xmlns="http://www.w3.org/2000/svg" xmlns:xlink="http://www.w3.org/1999/xlink" x="0px" y="0px"
	 viewBox="0 0 160 160" style="enable-background:new 0 0 160 160;" xml:space="preserve">
<style type="text/css">
	.st0{fill:none;stroke:#3F2904;stroke-width:2;stroke-linecap:round;stroke-linejoin:round;}
	.st1{fill:#00A013;}
	.st2{opacity:0.15;}
</style>
<title>Artboard 42 copy 223</title>
<path class="st0" d="M85.2,120.5c-0.6,5.3,0,10.6,1.8,15.5c3,8,2,6,2,6"/>
<path class="st1" d="M88,138c0,0-6.4-19.1,12.8-19.6S129,99,129,99c1.4,10.7-2.3,21.4-10,29C112,136,96,124,88,138z"/>
<g class="st2">
	<path d="M88,138c-1-17,36-8,41-39c1.4,10.7-2.3,21.4-10,29C112,136,96,124,88,138z"/>
</g>
<path class="st1" d="M84.7,130.4c0,0-3.3-8.8-17.9-10s-29.2,1.2-32.5-14.4c-1,8.2,1.4,16.5,6.8,22.8c9,10.8,31.4,3.6,31.4,3.6
	s9-3.6,14.6,3.6L84.7,130.4z"/>
<g class="st2">
	<path d="M34.2,106c0,0-1.2,14,6.8,22.8c9,10.2,31.4,3.6,31.4,3.6C73.8,130,88,132.1,87,136C87,122.3,39,132.1,34.2,106z"/>
</g>
</svg>
