<svg xmlns="http://www.w3.org/2000/svg" viewBox="0 0 160 160">
  <ellipse cx="36.9" cy="126.7" rx="15.4" ry="25.6" transform="rotate(-10.1)"/>
  <path d="M59 118c.3 1.7-1.5 3.6-1.5 3.6s-2.4-1-2.8-3 1.6-3.6 1.6-3.6 2.4 1 2.7 3z" fill="#010101" opacity=".5"/>
  <path d="M120.7 120.8c-2.6 13.5-11.2 23.1-19.2 21.6-7.6-1.4-12-12.2-10.4-24.6C94 116 107 113 115.6 96.3c4.8 4.5 7 14.1 5 24.5z"/>
  <g fill="#010101" opacity=".4">
    <path d="M49.2 120.3c.8 4.2 4.7 16.4 10 18.5-5.2 1-11.1-7.1-13-18s.7-20.6 6-21.6c-4.6 2.3-3.8 16.9-3 21z"/>
    <path d="M97 116.7c-.7 4-1.4 16.4 2.7 20.2-5-1-7.5-9.8-5.8-19.9l3.4-1.6-.3 1.3z"/>
  </g>
  <g fill="#fff" opacity=".2">
    <path d="M55.6 92.9a25.6 15.4 79.9 00-1.5.1 25.6 15.4 79.9 00-10.7 28 25.6 15.4 79.9 0019.7 22.5 25.6 15.4 79.9 0010.6-28 25.6 15.4 79.9 00-18-22.6zm-2.5 6.3c5 0 10.4 7.8 12.2 18.1 2 11-.7 20.6-6 21.5a4.9 4.9 0 01-.9 0c-5 0-10.4-7.7-12.2-18-2-11 .7-20.6 6-21.6a4.8 4.8 0 01.9 0z"/>
    <path d="M115.6 96.3C107 113 94 116 91 117.8c-1.6 12.4 2.8 23.2 10.4 24.6 8 1.5 16.6-8.1 19.2-21.6 2-10.4-.3-20-5.1-24.5zm-4 7c1.7 4 2.1 9.8 1 16.2-2 10-7.2 17.4-12 17.4a4.3 4.3 0 01-1 0c-4.9-1-7.4-9.8-5.8-19.9.1-.3 11.2-4 17.8-13.6z"/>
  </g>
</svg>
