<svg xmlns="http://www.w3.org/2000/svg" viewBox="0 0 160 160">
  <g fill="#ededed">
	<path d="M61 115.2l3.6 5.1s6.2 4 16.8 3.6c13.1-.7 17.5-3.6 17.5-3.6l2.9-7.3s-16 10.9-40.8 2.2z"/>
	<path d="M67.9 131a6 6 0 002 1.2c6.1 2.6 21 2.5 24.2-1.2l2.2-9.6a60 60 0 01-29.9 0l1.5 9.6z"/>
	<path d="M70.3 133.7c3.1 3.1 7.3 4.8 11.7 4.8 7.3 0 10.2-4.8 10.2-4.8v-1.1s-10.9 3.8-21.9-.5v1.6z"/>
  </g>
  <path d="M81.4 123.9l1.6-.1a37.6 37.6 0 0015.9-3.5l2.9-7.3s-7.1 4.9-19.2 5.5c2.4 1.1-1.2 5.4-1.2 5.4z" opacity=".05"/>
  <path d="M70.3 133.7c3.1 3.1 7.3 4.8 11.7 4.8 7.3 0 10.2-4.8 10.2-4.8v-1.1s-10.9 3.8-21.9-.5v1.6z" opacity=".3"/>
  <path d="M78.1 123.5c.3.3-6.4 3.9-10.9 3.7l.3 1s9.7-1 12.7-5l-2.1.3zM94.9 128.3c1.2.7-10.3 6.7-16 5.9l4-.1s9-.4 12-4.5v-1.3zM94.5 121.9s-13.4 10.3-25.6 9.8l1.6.6s10.9 1.6 25.8-10.4h-1.8z"/>
  <g opacity=".15">
	<path d="M81 134c5.6.1 11.3-.9 13.1-3l2.2-9.6a86 86 0 01-14.3 1.8c.9 1.5.1 5.8-1 10.8z"/>
	<path d="M82.1 123.2c10.2 0 13.7-1.5 13.7-1.5l-.6 1.5s-16.8 3.6-28.4-.7v-1.1s5.1 1.8 15.3 1.8z"/>
</g>
</svg>
