<?xml version="1.0" encoding="UTF-8" standalone="no"?>
<!-- Generator: Adobe Illustrator 22.0.1, SVG Export Plug-In . SVG Version: 6.00 Build 0)  -->

<svg
   xmlns:dc="http://purl.org/dc/elements/1.1/"
   xmlns:cc="http://creativecommons.org/ns#"
   xmlns:rdf="http://www.w3.org/1999/02/22-rdf-syntax-ns#"
   xmlns:svg="http://www.w3.org/2000/svg"
   xmlns="http://www.w3.org/2000/svg"
   xmlns:sodipodi="http://sodipodi.sourceforge.net/DTD/sodipodi-0.dtd"
   xmlns:inkscape="http://www.inkscape.org/namespaces/inkscape"
   version="1.1"
   id="Layer_1"
   x="0px"
   y="0px"
   viewBox="0 0 160 160"
   style="enable-background:new 0 0 160 160;"
   xml:space="preserve"
   sodipodi:docname="bottom_13.svg"
   inkscape:version="0.92.2 (5c3e80d, 2017-08-06)"><metadata
     id="metadata63"><rdf:RDF><cc:Work
         rdf:about=""><dc:format>image/svg+xml</dc:format><dc:type
           rdf:resource="http://purl.org/dc/dcmitype/StillImage" /></cc:Work></rdf:RDF></metadata><defs
     id="defs61" /><sodipodi:namedview
     pagecolor="#ffffff"
     bordercolor="#666666"
     borderopacity="1"
     objecttolerance="10"
     gridtolerance="10"
     guidetolerance="10"
     inkscape:pageopacity="0"
     inkscape:pageshadow="2"
     inkscape:window-width="1920"
     inkscape:window-height="976"
     id="namedview59"
     showgrid="false"
     inkscape:zoom="2.95"
     inkscape:cx="171.46941"
     inkscape:cy="31.532222"
     inkscape:window-x="0"
     inkscape:window-y="27"
     inkscape:window-maximized="1"
     inkscape:current-layer="Layer_1" /><style
     type="text/css"
     id="style2">
	.st0{fill:url(#SVGID_1_);}
	.st1{fill:url(#SVGID_2_);}
	.st2{opacity:0.1;}
	.st3{fill:#6D4716;}
	.st4{fill:#FFFFFF;}
	.st5{fill:#99671D;}
	.st6{fill:#444444;}
	.st7{fill:#FFC866;}
</style><title
     id="title4">Artboard 42 copy 220</title><linearGradient
     id="SVGID_1_"
     gradientUnits="userSpaceOnUse"
     x1="88.75"
     y1="43.4855"
     x2="102.15"
     y2="43.4855"
     gradientTransform="matrix(1 0 0 -1 0 162)"><stop
       offset="0"
       style="stop-color:#A66707"
       id="stop6" /><stop
       offset="0.5"
       style="stop-color:#9D6209"
       id="stop8" /><stop
       offset="1"
       style="stop-color:#000000"
       id="stop10" /></linearGradient><path
     class="st0"
     d="M88.8,117.9L89,124c3.2,1.2,6.8,1.2,10,0l3.2-11.8C102.2,112.2,94.5,116.8,88.8,117.9z"
     id="path13" /><linearGradient
     id="SVGID_2_"
     gradientUnits="userSpaceOnUse"
     x1="90.55"
     y1="29.2733"
     x2="97"
     y2="29.2733"
     gradientTransform="matrix(1 0 0 -1 0 162)"><stop
       offset="0"
       style="stop-color:#FFFFFF"
       id="stop15" /><stop
       offset="0.48"
       style="stop-color:#F6F6F6"
       id="stop17" /><stop
       offset="0.81"
       style="stop-color:#CCCCCC"
       id="stop19" /><stop
       offset="1"
       style="stop-color:#999999"
       id="stop21" /></linearGradient><path
     class="st1"
     d="M91,124.6c0,0-1.1,12.4,0,14.4s4.4,3,4.4,0s1.6-14.4,1.6-14.4c-1,0.1-2,0.2-3,0.2C93,124.8,92,124.8,91,124.6z"
     id="path24" /><g
     class="st2"
     id="g28"><path
       d="M91,139c1.1,2,4.4,3,4.4,0s1.6-14.4,1.6-14.4l-3,0.2C94,124.8,94,140,91,139z"
       id="path26" /></g><path
     class="st3"
     d="M69.6,123.3c0,0,2.6,5.2,5.2,7.1c1.1,0.8,2.2,1.7,3.2,2.6v4.2C78,137.6,68.2,134.4,69.6,123.3z"
     id="path30" /><path
     class="st4"
     d="M68.9,123.3c0,0,5.2-1.3,8.4,2s3.2,7.8,1.3,7.8S76.7,133.7,68.9,123.3z"
     id="path32" /><path
     class="st5"
     d="m 44.2,108.4 c 0,0 4.5,-7.8 18.2,-0.7 13.7,7.1 2.6,22.1 14.9,29.3 0,0 -3.450847,3.53559 -8,-5.7 -4.418053,-8.96944 -4.3,-23.6 -25.1,-22.9 z"
     id="path34"
     inkscape:connector-curvature="0"
     style="fill:#99671d"
     sodipodi:nodetypes="cscsc" /><path
     class="st6"
     d="M77.3,137c0,0-5.8,2.6-9.8-10.4s-8.5-20.8-19.5-20.2c-1.6,0-3,0.6-4.2,1.6c-5.3,4.8-1.2,18.7,4.2,23.1  c6.5,5.2,20.8,10.4,26.7,8.4S77.3,137,77.3,137z"
     id="path36" /><path
     class="st7"
     d="M78.2,118.2l-0.9,7.1c-1.8-1.3-3.4-2.2-4.8-2.2l0.6-5.9C74.8,117.7,76.5,118,78.2,118.2z"
     id="path38" /><path
     d="M45.5,111h11c0.3,0,0.5,0.2,0.5,0.5l0,0c0,0.3-0.2,0.5-0.5,0.5h-11c-0.3,0-0.5-0.2-0.5-0.5l0,0C45,111.2,45.2,111,45.5,111z  "
     id="path40" /><path
     d="M44.5,114h14c0.3,0,0.5,0.2,0.5,0.5l0,0c0,0.3-0.2,0.5-0.5,0.5h-14c-0.3,0-0.5-0.2-0.5-0.5l0,0C44,114.2,44.2,114,44.5,114z  "
     id="path42" /><path
     d="M44.5,117h17c0.3,0,0.5,0.2,0.5,0.5l0,0c0,0.3-0.2,0.5-0.5,0.5h-17c-0.3,0-0.5-0.2-0.5-0.5l0,0C44,117.2,44.2,117,44.5,117z  "
     id="path44" /><path
     d="M45.5,120h17c0.3,0,0.5,0.2,0.5,0.5l0,0c0,0.3-0.2,0.5-0.5,0.5h-17c-0.3,0-0.5-0.2-0.5-0.5l0,0C45,120.2,45.2,120,45.5,120z  "
     id="path46" /><path
     d="M46.5,123h17c0.3,0,0.5,0.2,0.5,0.5l0,0c0,0.3-0.2,0.5-0.5,0.5h-17c-0.3,0-0.5-0.2-0.5-0.5l0,0C46,123.2,46.2,123,46.5,123z  "
     id="path48" /><path
     d="M48.5,126h17c0.3,0,0.5,0.2,0.5,0.5l0,0c0,0.3-0.2,0.5-0.5,0.5h-17c-0.3,0-0.5-0.2-0.5-0.5l0,0C48,126.2,48.2,126,48.5,126z  "
     id="path50" /><path
     d="M50.5,129h15c0.3,0,0.5,0.2,0.5,0.5l0,0c0,0.3-0.2,0.5-0.5,0.5h-15c-0.3,0-0.5-0.2-0.5-0.5l0,0C50,129.2,50.2,129,50.5,129z  "
     id="path52" /><path
     d="M54.5,132h13c0.3,0,0.5,0.2,0.5,0.5l0,0c0,0.3-0.2,0.5-0.5,0.5h-13c-0.3,0-0.5-0.2-0.5-0.5l0,0C54,132.2,54.2,132,54.5,132z  "
     id="path54" /><path
     d="M59.5,135h9c0.3,0,0.5,0.2,0.5,0.5l0,0c0,0.3-0.2,0.5-0.5,0.5h-9c-0.3,0-0.5-0.2-0.5-0.5l0,0C59,135.2,59.2,135,59.5,135z"
     id="path56" /></svg>