<?xml version="1.0" encoding="UTF-8" standalone="no"?>
<!-- Generator: Adobe Illustrator 22.0.1, SVG Export Plug-In . SVG Version: 6.00 Build 0)  -->

<svg
   xmlns:dc="http://purl.org/dc/elements/1.1/"
   xmlns:cc="http://creativecommons.org/ns#"
   xmlns:rdf="http://www.w3.org/1999/02/22-rdf-syntax-ns#"
   xmlns:svg="http://www.w3.org/2000/svg"
   xmlns="http://www.w3.org/2000/svg"
   xmlns:sodipodi="http://sodipodi.sourceforge.net/DTD/sodipodi-0.dtd"
   xmlns:inkscape="http://www.inkscape.org/namespaces/inkscape"
   version="1.1"
   id="Layer_1"
   x="0px"
   y="0px"
   viewBox="0 0 160 160"
   style="enable-background:new 0 0 160 160;"
   xml:space="preserve"
   sodipodi:docname="bottom_06.svg"
   inkscape:version="0.92.2 (5c3e80d, 2017-08-06)"><metadata
     id="metadata17"><rdf:RDF><cc:Work
         rdf:about=""><dc:format>image/svg+xml</dc:format><dc:type
           rdf:resource="http://purl.org/dc/dcmitype/StillImage" /></cc:Work></rdf:RDF></metadata><defs
     id="defs15" /><sodipodi:namedview
     pagecolor="#ffffff"
     bordercolor="#666666"
     borderopacity="1"
     objecttolerance="10"
     gridtolerance="10"
     guidetolerance="10"
     inkscape:pageopacity="0"
     inkscape:pageshadow="2"
     inkscape:window-width="1920"
     inkscape:window-height="976"
     id="namedview13"
     showgrid="false"
     inkscape:zoom="11.8"
     inkscape:cx="59.951729"
     inkscape:cy="41.371097"
     inkscape:window-x="0"
     inkscape:window-y="27"
     inkscape:window-maximized="1"
     inkscape:current-layer="Layer_1" /><style
     type="text/css"
     id="style2">
	.st0{fill:#FFFFFF;}
	.st1{opacity:0.1;}
</style><title
     id="title4">Artboard 42 copy 224</title><path
     class="st0"
     d="m 61,114.7 c 6.6,6.9 16.636291,13.13034 26.561817,16.02845 C 80.561817,133.22845 79.6,137.2 78,143 c 0,0 15.4,-3.3 17,-7.7 0,0 6,6.8 18,5.8 -2.2,-5.8 -9,-12.2 -18,-13.5 -2.7,0 -4.2,-6.8 3,-12.6 -22,8.7 -37,-0.3 -37,-0.3 z"
     id="path6"
     style="fill:#00ff00;fill-opacity:1"
     inkscape:connector-curvature="0"
     sodipodi:nodetypes="cccccccc" /><path
     style="fill:#000000;fill-opacity:1"
     d="M 87.561817,130.72845 C 80.999917,132.8497 79.330341,137.37977 78,143 c 0,0 15.4,-3.29922 17,-7.69922 0,0 6,6.79883 18,5.79883 -2.2,-5.8 -9,-12.2 -18,-13.5 -0.06763,0.43737 -0.630106,0.92793 -0.552457,2.24453 -1.647634,-0.34631 -4.326956,0.0571 -6.885726,0.88431 z"
     id="path6-3"
     inkscape:connector-curvature="0"
     sodipodi:nodetypes="scccccs" /><g
     class="st1"
     id="g10"
     style="fill:#010101;fill-opacity:1"><path
       d="M91,128.5c0,0,14,4.8,22,12.6c-2.2-5.8-9-12.2-18-13.5c-2.7,0-4.2-6.8,3-12.6c-2.8,1.1-5.6,2-8.5,2.6   C87,125.6,91,128.5,91,128.5z"
       id="path8"
       style="fill:#010101;fill-opacity:1" /></g></svg>