<?xml version="1.0" encoding="UTF-8" standalone="no"?>
<!-- Generator: Adobe Illustrator 22.0.1, SVG Export Plug-In . SVG Version: 6.00 Build 0)  -->

<svg
   xmlns:dc="http://purl.org/dc/elements/1.1/"
   xmlns:cc="http://creativecommons.org/ns#"
   xmlns:rdf="http://www.w3.org/1999/02/22-rdf-syntax-ns#"
   xmlns:svg="http://www.w3.org/2000/svg"
   xmlns="http://www.w3.org/2000/svg"
   xmlns:sodipodi="http://sodipodi.sourceforge.net/DTD/sodipodi-0.dtd"
   xmlns:inkscape="http://www.inkscape.org/namespaces/inkscape"
   version="1.1"
   id="Layer_1"
   x="0px"
   y="0px"
   viewBox="0 0 160 160"
   style="enable-background:new 0 0 160 160;"
   xml:space="preserve"
   sodipodi:docname="bottom_16.svg"
   inkscape:version="0.92.2 (5c3e80d, 2017-08-06)"><metadata
     id="metadata71"><rdf:RDF><cc:Work
         rdf:about=""><dc:format>image/svg+xml</dc:format><dc:type
           rdf:resource="http://purl.org/dc/dcmitype/StillImage" /></cc:Work></rdf:RDF></metadata><defs
     id="defs69" /><sodipodi:namedview
     pagecolor="#ffffff"
     bordercolor="#666666"
     borderopacity="1"
     objecttolerance="10"
     gridtolerance="10"
     guidetolerance="10"
     inkscape:pageopacity="0"
     inkscape:pageshadow="2"
     inkscape:window-width="1920"
     inkscape:window-height="976"
     id="namedview67"
     showgrid="false"
     inkscape:zoom="11.8"
     inkscape:cx="77.482886"
     inkscape:cy="25.410149"
     inkscape:window-x="0"
     inkscape:window-y="27"
     inkscape:window-maximized="1"
     inkscape:current-layer="Layer_1" /><style
     type="text/css"
     id="style2">
	.st0{fill:#A34B1A;}
	.st1{fill:#E5652C;}
	.st2{fill:#490B37;}
	.st3{fill:#02AABC;}
	.st4{fill:#FFFFFF;}
</style><title
     id="title4">Artboard 42 copy 257</title><path
     class="st0"
     d="M79,119.2l-0.4,11.2c0,0,1.1,2.6-9.7,2.6H46.2c0,0-5.4-5.2-2.2-7.8s11.9-3.4,11.9-3.4l-2.6-6.6L79,119.2z"
     id="path6" /><path
     class="st1"
     d="M59.8,118.4l-8.3-0.9c-0.3,0-0.5-0.3-0.4-0.6l0.1-0.5c0-0.3,0.3-0.5,0.6-0.4l8.3,0.9c0.3,0,0.5,0.3,0.4,0.6  l-0.1,0.5C60.3,118.2,60.1,118.4,59.8,118.4z"
     id="path8"
     style="fill:#000000;fill-opacity:1" /><path
     class="st1"
     d="M60.6,120.9l-8.3-0.9c-0.3,0-0.5-0.3-0.4-0.6l0.1-0.5c0-0.3,0.3-0.5,0.6-0.4l8.3,0.9c0.3,0,0.5,0.3,0.4,0.6  l-0.1,0.5C61.1,120.8,60.8,121,60.6,120.9z"
     id="path10"
     style="fill:#000000;fill-opacity:1" /><circle
     class="st2"
     cx="68.5"
     cy="135.89999"
     r="3.9000001"
     id="circle18"
     style="fill:#490b37" /><circle
     class="st4"
     cx="70.199997"
     cy="135.7"
     r="3.9000001"
     id="circle20"
     style="fill:#ffffff" /><circle
     cx="70.199997"
     cy="135.7"
     r="2.2"
     id="circle22" /><circle
     class="st2"
     cx="52.5"
     cy="135.89999"
     r="3.9000001"
     id="circle30"
     style="fill:#490b37" /><circle
     class="st4"
     cx="54.200001"
     cy="135.7"
     r="3.9000001"
     id="circle32"
     style="fill:#ffffff" /><circle
     cx="54.200001"
     cy="135.7"
     r="2.2"
     id="circle34" /><path
     class="st0"
     d="M81.6,119.2L80,130.4c0,0-1,2.6,9.8,2.6h22.7c0,0,5.4-5.2,2.2-7.8s-14.9-3.4-14.9-3.4l0.6-5.6L81.6,119.2z"
     id="path36" /><path
     class="st1"
     d="M94.9,117.3l8.3,0.5c0.3,0,0.5,0.3,0.5,0.5l0,0.5c0,0.3-0.3,0.5-0.5,0.5l-8.3-0.5c-0.3,0-0.5-0.3-0.5-0.5l0-0.5  C94.4,117.5,94.7,117.2,94.9,117.3z"
     id="path38"
     style="fill:#000000;fill-opacity:1" /><path
     class="st1"
     d="M93.9,119.6l8.3,0.5c0.3,0,0.5,0.3,0.5,0.5l0,0.5c0,0.3-0.3,0.5-0.5,0.5l-8.3-0.5c-0.3,0-0.5-0.3-0.5-0.5l0-0.5  C93.4,119.8,93.6,119.6,93.9,119.6z"
     id="path40"
     style="fill:#000000;fill-opacity:1" /><circle
     class="st2"
     cx="90.199997"
     cy="135.89999"
     r="3.9000001"
     id="circle48"
     style="fill:#490b37" /><circle
     class="st4"
     cx="88.5"
     cy="135.7"
     r="3.9000001"
     id="circle50"
     style="fill:#ffffff" /><circle
     cx="88.5"
     cy="135.7"
     r="2.2"
     id="circle52" /><circle
     class="st2"
     cx="106.2"
     cy="135.89999"
     r="3.9000001"
     id="circle60"
     style="fill:#490b37" /><circle
     class="st4"
     cx="104.5"
     cy="135.7"
     r="3.9000001"
     id="circle62"
     style="fill:#ffffff" /><circle
     cx="104.5"
     cy="135.7"
     r="2.2"
     id="circle64" /></svg>