<?xml version="1.0" encoding="UTF-8" standalone="no"?>
<!-- Generator: Adobe Illustrator 22.0.1, SVG Export Plug-In . SVG Version: 6.00 Build 0)  -->

<svg
   xmlns:dc="http://purl.org/dc/elements/1.1/"
   xmlns:cc="http://creativecommons.org/ns#"
   xmlns:rdf="http://www.w3.org/1999/02/22-rdf-syntax-ns#"
   xmlns:svg="http://www.w3.org/2000/svg"
   xmlns="http://www.w3.org/2000/svg"
   xmlns:sodipodi="http://sodipodi.sourceforge.net/DTD/sodipodi-0.dtd"
   xmlns:inkscape="http://www.inkscape.org/namespaces/inkscape"
   version="1.1"
   id="Layer_1"
   x="0px"
   y="0px"
   viewBox="0 0 160 160"
   style="enable-background:new 0 0 160 160;"
   xml:space="preserve"
   sodipodi:docname="bottom_15.svg"
   inkscape:version="0.92.2 (5c3e80d, 2017-08-06)"><metadata
     id="metadata71"><rdf:RDF><cc:Work
         rdf:about=""><dc:format>image/svg+xml</dc:format><dc:type
           rdf:resource="http://purl.org/dc/dcmitype/StillImage" /></cc:Work></rdf:RDF></metadata><defs
     id="defs69" /><sodipodi:namedview
     pagecolor="#ffffff"
     bordercolor="#666666"
     borderopacity="1"
     objecttolerance="10"
     gridtolerance="10"
     guidetolerance="10"
     inkscape:pageopacity="0"
     inkscape:pageshadow="2"
     inkscape:window-width="1920"
     inkscape:window-height="976"
     id="namedview67"
     showgrid="false"
     inkscape:zoom="5.6568543"
     inkscape:cx="39.014739"
     inkscape:cy="9.223221"
     inkscape:window-x="0"
     inkscape:window-y="27"
     inkscape:window-maximized="1"
     inkscape:current-layer="Layer_1" /><style
     type="text/css"
     id="style2">
	.st0{fill:#FFFFFF;}
	.st1{fill:#490B37;}
	.st2{fill:#02AABC;}
	.st3{fill:#FC039D;}
	.st4{opacity:0.1;enable-background:new    ;}
	.st5{fill:#FF4545;}
	.st6{opacity:0.15;}
	.st7{fill:url(#SVGID_1_);}
	.st8{clip-path:url(#SVGID_3_);}
	.st9{fill:url(#SVGID_4_);}
</style><title
     id="title4">Artboard 42 copy 218</title><path
     class="st0"
     d="m 129.1,114.1 c 1.2,-1.8 -0.9,-2.8 -3.2,-2.3 0,0 -14.60823,2.59901 -29.966331,3.95748 -13.258061,5.78776 -27.075603,6.02225 -35.693312,-1.54394 C 47.649142,111.25138 37.834667,106.69561 34.5,108.4 c 0,0 -6.6,0.9 -5.3,5.3 v 0 c -0.1,1.3 0.2,2.5 0.8,3.7 3.6,5.7 39.8,13.8 72.4,8 18.3,-3.2 25.2,-6.8 26.7,-9.2 0.3,-0.6 0.3,-1.4 0,-2.1 z M 54,123.4 c -8.4,-1.2 -15.6,-3 -20.1,-5.3 4.3,2 11.4,3.9 20.1,5.3 z m 45.8,0.3 c 0.8,-0.1 1.7,-0.3 2.5,-0.4 2.3,-0.4 4.5,-0.8 6.5,-1.2 -2.8,0.6 -5.8,1.2 -9,1.6 z"
     id="path6"
     style="fill:#ffffff;stroke:none;stroke-width:0.1;stroke-miterlimit:4;stroke-dasharray:none;stroke-opacity:1"
     inkscape:connector-curvature="0"
     sodipodi:nodetypes="cccccccccccccccccc" /><circle
     class="st1"
     cx="63.8"
     cy="134.7"
     r="6.1"
     id="circle8" /><circle
     class="st2"
     cx="61.1"
     cy="134.5"
     r="6.1"
     id="circle10" /><path
     d="M56.5,132l4.2,0.4c0.7,0.1,1.2,0.7,1.2,1.4l-0.1,1.5c-0.1,0.7-0.7,1.2-1.4,1.2l-4.2-0.4c-0.7-0.1-1.2-0.7-1.2-1.4l0.1-1.5  C55.2,132.5,55.8,132,56.5,132z"
     id="path12" /><circle
     class="st1"
     cx="111.3"
     cy="133.1"
     r="6.1"
     id="circle14" /><circle
     class="st2"
     cx="108.7"
     cy="133.7"
     r="6.1"
     id="circle16" /><path
     d="M103.5,132.7l4.1-0.9c0.7-0.2,1.4,0.3,1.5,1l0.3,1.5c0.2,0.7-0.3,1.4-1,1.5l-4.1,0.9c-0.7,0.2-1.4-0.3-1.5-1l-0.3-1.5  C102.3,133.6,102.8,132.9,103.5,132.7z"
     id="path18" /><circle
     class="st1"
     cx="99.3"
     cy="135.7"
     r="6.1"
     id="circle20" /><circle
     class="st0"
     cx="96.6"
     cy="136.3"
     r="6.1"
     id="circle22" /><circle
     class="st3"
     cx="96.6"
     cy="136.3"
     r="3.4"
     id="circle24" /><path
     class="st1"
     d="M120.3,125.5c-14.3,4.5-59.6,9.8-77.8-0.9c-1.8-1-4.4-2.9-4.4-2.9s32.9,10.8,72.9,1.8c11.3-2.9,18-5.5,18.4-9.2  C132.5,116.3,126.9,123.4,120.3,125.5z"
     id="path26" /><path
     class="st4"
     d="M29.2,113.6c-0.1,1.3,0.2,2.5,0.8,3.7c3.6,5.7,39.8,13.8,72.4,8c18.3-3.2,25.2-6.8,26.7-9.2  c0.5-0.8,0-2.6-0.1-1.9c-6,4.7-23.4,10-43.3,10.7C59.6,125.9,31.3,121.2,29.2,113.6z"
     id="path28" /><circle
     class="st1"
     cx="51.7"
     cy="133.7"
     r="6.1"
     id="circle30" /><circle
     class="st0"
     cx="49"
     cy="133.4"
     r="6.1"
     id="circle32" /><circle
     class="st3"
     cx="49"
     cy="133.4"
     r="3.4"
     id="circle34" /><path
     class="st5"
     d="m 34.5,108.4 c 0,0 -8.1,1.2 -4.5,6.9 3.6,5.7 39.8,13.8 72.4,8 18.3,-3.2 25.2,-6.8 26.7,-9.2 1.2,-1.8 -0.8,-2.8 -3.2,-2.3 0,0 -14.63348,2.6035 -30.006123,3.961 -16.302791,5.85541 -30.279337,2.01105 -35.632718,-1.54256 C 47.659952,111.2564 37.836504,106.69468 34.5,108.4 Z"
     id="path36"
     inkscape:connector-curvature="0"
     style="fill:#ff4545"
     sodipodi:nodetypes="cscccccc" /><g
     class="st6"
     id="g40"
     style="fill:#010101;fill-opacity:1"><ellipse
       cx="79"
       cy="121"
       rx="18"
       ry="2"
       id="ellipse38"
       style="fill:#010101;fill-opacity:1" /></g><linearGradient
     id="SVGID_1_"
     gradientUnits="userSpaceOnUse"
     x1="277.85"
     y1="425.4971"
     x2="277.85"
     y2="440.1759"
     gradientTransform="matrix(1 0 0 -1 0 162)"><stop
       offset="0"
       style="stop-color:#A66707"
       id="stop42" /><stop
       offset="1"
       style="stop-color:#000000"
       id="stop44" /></linearGradient></svg>