<svg xmlns="http://www.w3.org/2000/svg" viewBox="0 0 160 160">
  <g fill="#0f0">
    <path d="M117.8 127.3c-5-5.9-9.9-2.5-11.9-.7-1.2-1-2.3-2.1-3.2-3.4L97 115a35.2 35.2 0 01-12.2 4.1l3.6 11s-5 .7-5 3.4 2.2 6.2 8.6 3.4 12.9-.7 18.6.7 12.2-.7 12.2-4.8c0-3.2-1.3-5.6-5-5.5z"/>
    <path d="M75.5 125.9l-.8-7.2s-10-1.4-16.4-5.7c0 0-3.4 12.9-6.9 14.9a4 4 0 00-5.4 1.3 3.9 3.9 0 003.3 6c.6 0 1.3-.2 1.8-.5a5.3 5.3 0 009 .2 5.4 5.4 0 007.1 2.6 5 5 0 002.5-2.5 6 6 0 008.3 2.1 6 6 0 002.1-8.3 5.6 5.6 0 00-4.6-2.9z"/>
  </g>
  <g fill="#fff" opacity=".2">
    <path d="M122 131.9c-2.6-2.6-7.9-3-7.9-3a9 9 0 013.9-.9c2.2-.1 4 1.7 4 3.9z"/>
    <path d="M86.1 119.1S90 128 89 131c0 0 1.9-8 1-10.2s-3.9-1.7-3.9-1.7z"/>
    <path d="M58.9 113.9s-3.3 11.2-6.3 13c0 0 7.2-5.6 8.1-8.4s-1.8-4.6-1.8-4.6z"/>
    <path d="M79 130.9c-2.6-2.6-4.6-3.3-7.9 0 0-2.2 1.8-3.9 3.9-3.9s4 1.7 4 3.9z"/>
    <path d="M67.6 133c-1.9-1.9-3.3-2.4-5.7 0-.1-1.6 1.1-2.9 2.7-3s2.9 1.1 3 2.7v.3z"/>
    <path d="M58.3 131.6c-1.4-1.4-2.5-1.8-4.3 0a2.1 2.1 0 012.3-2c1.1 0 1.9.9 2 2z"/>
    <path d="M52.1 131.6c-1.3-2.4-2.6-3.2-5.5-1.6.4-1.5 1.9-2.5 3.4-2.1 1.5.4 2.5 1.9 2.1 3.4v.3z"/>
  </g>
  <g fill="#010101" opacity=".1">
    <path d="M83.4 133.5c0 2.7 2.2 6.2 8.6 3.4s12.9-.7 18.6.7 12.2-.7 12.2-4.8C114 138 113 134 98 134.6c-8 0-12 4.4-14.6-1.1z"/>
    <path d="M71.5 136.1c5.2-.4 7.8-1.8 7.3-8.4a5.6 5.6 0 01-7 8.6c-.2 0-.2-.1-.3-.2z"/>
    <path d="M62.6 136.5c4.2-.3 6.2-1.5 5.8-6.7 1.9 1.6 2.1 4.4.5 6.2s-4.4 2.1-6.2.5c0 .1-.1 0-.1 0z"/>
    <path d="M53.5 135.9c3.7-.2 5.5-1.3 5.2-5.9 1.7 1.4 2 3.8.6 5.5a3.9 3.9 0 01-5.5.6l-.3-.2z"/>
    <path d="M47.3 134c3-.2 4.5-1 4.2-4.8 1.4 1.1 1.6 3.1.5 4.5s-3.1 1.6-4.5.5l-.2-.2z"/>
    <path d="M69 117.5l.8 7.3c-5.1-.4-10.2.6-14.7 2.8a40 40 0 0114.9-.8s2.8-1.8 5.6-.9l-.9-7.4a22 22 0 01-5.7-1z"/>
    <path d="M105.9 126.6c2-1.8 6.9-5.2 11.9.7 0 .1-8.8 2.7-11.9-.7z"/>
  </g>
</svg>
