<svg xmlns="http://www.w3.org/2000/svg" viewBox="0 0 160 160">
  <path d="M61 114.7a63.3 63.3 0 0026.6 16c-7 2.5-8 6.5-9.6 12.3 0 0 15.4-3.3 17-7.7 0 0 6 6.8 18 5.8-2.2-5.8-9-12.2-18-13.5-2.7 0-4.2-6.8 3-12.6-22 8.7-37-.3-37-.3z" fill="#0f0"/>
  <path d="M87.6 130.7c-6.6 2.1-8.3 6.7-9.6 12.3 0 0 15.4-3.3 17-7.7 0 0 6 6.8 18 5.8-2.2-5.8-9-12.2-18-13.5 0 .4-.6 1-.6 2.2-1.6-.3-4.3.1-6.8 1z"/>
  <path d="M91 128.5s14 4.8 22 12.6c-2.2-5.8-9-12.2-18-13.5-2.7 0-4.2-6.8 3-12.6a52 52 0 01-8.5 2.6c-2.5 8 1.5 10.9 1.5 10.9z" fill="#010101" opacity=".1"/>
</svg>
