<?xml version="1.0" encoding="UTF-8" standalone="no"?>
<!-- Generator: Adobe Illustrator 22.0.1, SVG Export Plug-In . SVG Version: 6.00 Build 0)  -->

<svg
   xmlns:dc="http://purl.org/dc/elements/1.1/"
   xmlns:cc="http://creativecommons.org/ns#"
   xmlns:rdf="http://www.w3.org/1999/02/22-rdf-syntax-ns#"
   xmlns:svg="http://www.w3.org/2000/svg"
   xmlns="http://www.w3.org/2000/svg"
   xmlns:sodipodi="http://sodipodi.sourceforge.net/DTD/sodipodi-0.dtd"
   xmlns:inkscape="http://www.inkscape.org/namespaces/inkscape"
   version="1.1"
   id="Layer_1"
   x="0px"
   y="0px"
   viewBox="0 0 160 160"
   style="enable-background:new 0 0 160 160;"
   xml:space="preserve"
   sodipodi:docname="bottom_11.svg"
   inkscape:version="0.92.2 (5c3e80d, 2017-08-06)"><metadata
     id="metadata107"><rdf:RDF><cc:Work
         rdf:about=""><dc:format>image/svg+xml</dc:format><dc:type
           rdf:resource="http://purl.org/dc/dcmitype/StillImage" /></cc:Work></rdf:RDF></metadata><defs
     id="defs105" /><sodipodi:namedview
     pagecolor="#ffffff"
     bordercolor="#666666"
     borderopacity="1"
     objecttolerance="10"
     gridtolerance="10"
     guidetolerance="10"
     inkscape:pageopacity="0"
     inkscape:pageshadow="2"
     inkscape:window-width="1920"
     inkscape:window-height="976"
     id="namedview103"
     showgrid="false"
     inkscape:zoom="8.34386"
     inkscape:cx="58.44598"
     inkscape:cy="53.350888"
     inkscape:window-x="0"
     inkscape:window-y="27"
     inkscape:window-maximized="1"
     inkscape:current-layer="Layer_1" /><style
     type="text/css"
     id="style2">
	.st0{fill:#FFFFFF;}
	.st1{opacity:0.2;}
	.st2{opacity:0.3;enable-background:new    ;}
	.st3{opacity:5.000000e-02;}
	.st4{opacity:0.1;}
	.st5{opacity:0.2;enable-background:new    ;}
</style><title
     id="title4">Artboard 42 copy 256</title><path
     class="st0"
     d="M64.7,115.9c0,0-2.8,10.7-11.2,12.9c-5,1.3-10.3,0.5-14.6-2.2c0,0-3.9-1.1-1.7,2.8c2.2,3.9,8.4,11.8,25.8,5.6  s18-16.9,18-16.9S69.8,119.3,64.7,115.9z"
     id="path6"
     style="fill:#00ff00;fill-opacity:1" /><g
     class="st1"
     id="g10"
     style="fill:#010101;fill-opacity:1"><path
       d="M64.7,115.9c0,0-2.8,10.7-11.2,12.9c-5,1.3-10.3,0.5-14.6-2.2c0,0-3.9-1.1-1.7,2.8c2.2,3.9,8.4,11.8,25.8,5.6   s18-16.9,18-16.9S69.8,119.3,64.7,115.9z"
       id="path8"
       style="fill:#010101;fill-opacity:1" /></g><path
     class="st0"
     d="M58,112c0,0-6.2,13.5-15.2,3.9c0,0-5.6-5.6-3.4,1.1s11.1,18.7,30.3,0.9C69.7,118,61.9,115.9,58,112z"
     id="path12"
     style="fill:#00ff00;fill-opacity:1" /><path
     class="st2"
     d="M58,112c0,0-6.2,13.5-15.2,3.9c0,0-5.6-5.6-3.4,1.1s11.1,18.7,30.3,0.9C69.7,118,61.9,115.9,58,112z"
     id="path14"
     style="fill:#010101;fill-opacity:1" /><path
     class="st0"
     d="M62.5,114.8c0,0-1.7,14.6-7.3,14.6c0,0-2.2,0-3.9-2.8s-3.4-2.2-2.8,0.6s2.2,12.4,13.5,11.8s15.7-11.2,15.7-17.4  v-3.2C77.6,118.4,68.1,118.7,62.5,114.8z"
     id="path16"
     style="fill:#00ff00;fill-opacity:1" /><g
     class="st4"
     id="g24"
     style="fill:#010101;fill-opacity:1"><ellipse
       transform="matrix(0.7973 -0.6036 0.6036 0.7973 -64.4433 64.7288)"
       cx="64.1"
       cy="128.3"
       rx="2.2"
       ry="1.7"
       id="ellipse22"
       style="fill:#010101;fill-opacity:1" /></g><g
     class="st4"
     id="g28"
     style="fill:#010101;fill-opacity:1"><ellipse
       transform="matrix(0.9861 -0.1659 0.1659 0.9861 -20.942 11.5246)"
       cx="58.5"
       cy="131.1"
       rx="2.2"
       ry="1.7"
       id="ellipse26"
       style="fill:#010101;fill-opacity:1" /></g><g
     class="st4"
     id="g32"
     style="fill:#010101;fill-opacity:1"><ellipse
       transform="matrix(0.4681 -0.8837 0.8837 0.4681 -73.2585 125.9107)"
       cx="68"
       cy="123.8"
       rx="1.8"
       ry="1.3"
       id="ellipse30"
       style="fill:#010101;fill-opacity:1" /></g><g
     class="st4"
     id="g36"
     style="fill:#010101;fill-opacity:1"><ellipse
       transform="matrix(0.1321 -0.9912 0.9912 0.1321 -58.3152 172.047)"
       cx="69.1"
       cy="119.3"
       rx="1.8"
       ry="1.3"
       id="ellipse34"
       style="fill:#010101;fill-opacity:1" /></g><g
     class="st4"
     id="g40"
     style="fill:#010101;fill-opacity:1"><ellipse
       transform="matrix(0.999 -4.431684e-02 4.431684e-02 0.999 -5.3708 2.3795)"
       cx="51"
       cy="122.3"
       rx="1.8"
       ry="1.4"
       id="ellipse38"
       style="fill:#010101;fill-opacity:1" /></g><g
     class="st4"
     id="g44"
     style="fill:#010101;fill-opacity:1"><ellipse
       transform="matrix(0.4231 -0.9061 0.9061 0.4231 -83.6944 111.7836)"
       cx="45.9"
       cy="121.6"
       rx="1.4"
       ry="1.8"
       id="ellipse42"
       style="fill:#010101;fill-opacity:1" /></g><g
     class="st4"
     id="g48"
     style="fill:#010101;fill-opacity:1"><ellipse
       transform="matrix(0.8869 -0.4619 0.4619 0.8869 -49.6395 39.3723)"
       cx="55.6"
       cy="121.1"
       rx="1.4"
       ry="1.1"
       id="ellipse46"
       style="fill:#010101;fill-opacity:1" /></g><g
     class="st4"
     id="g52"
     style="fill:#010101;fill-opacity:1"><ellipse
       transform="matrix(0.6713 -0.7412 0.7412 0.6713 -68.7015 82.2791)"
       cx="58.4"
       cy="118.6"
       rx="1.4"
       ry="1.1"
       id="ellipse50"
       style="fill:#010101;fill-opacity:1" /></g><path
     class="st0"
     d="M94.8,115.9c0,0,2.8,10.7,11.2,12.9c5,1.3,10.3,0.5,14.6-2.2c0,0,3.9-1.1,1.7,2.8c-2.2,3.9-8.4,11.8-25.9,5.6  s-18-16.9-18-16.9S89.7,119.3,94.8,115.9z"
     id="path54"
     style="fill:#00ff00;fill-opacity:1" /><g
     class="st1"
     id="g58"
     style="fill:#010101;fill-opacity:1"><path
       d="M94.8,115.9c0,0,2.8,10.7,11.2,12.9c5,1.3,10.3,0.5,14.6-2.2c0,0,3.9-1.1,1.7,2.8c-2.2,3.9-8.4,11.8-25.9,5.6   s-18-16.9-18-16.9S89.7,119.3,94.8,115.9z"
       id="path56"
       style="fill:#010101;fill-opacity:1" /></g><path
     class="st0"
     d="M101.5,112c0,0,6.2,13.5,15.2,3.9c0,0,5.6-5.6,3.4,1.1s-11.2,18.7-30.3,0.9C89.7,118,97.6,115.9,101.5,112z"
     id="path60"
     style="fill:#00ff00;fill-opacity:1" /><path
     class="st5"
     d="M101.5,112c0,0,6.2,13.5,15.2,3.9c0,0,5.6-5.6,3.4,1.1s-11.2,18.7-30.3,0.9C89.7,118,97.6,115.9,101.5,112z"
     id="path62"
     style="fill:#010101;fill-opacity:1" /><path
     class="st0"
     d="M97,114.8c0,0,1.7,14.6,7.3,14.6c0,0,2.2,0,3.9-2.8s3.4-2.2,2.8,0.6s-2.2,12.4-13.5,11.8s-15.7-11.2-15.7-17.4  v-3.2C81.8,118.4,91.4,118.7,97,114.8z"
     id="path64"
     style="fill:#00ff00;fill-opacity:1" /><g
     class="st4"
     id="g72"
     style="fill:#010101;fill-opacity:1"><ellipse
       transform="matrix(0.6036 -0.7973 0.7973 0.6036 -64.5032 126.8615)"
       cx="95.3"
       cy="128.3"
       rx="1.7"
       ry="2.2"
       id="ellipse70"
       style="fill:#010101;fill-opacity:1" /></g><g
     class="st4"
     id="g76"
     style="fill:#010101;fill-opacity:1"><ellipse
       transform="matrix(0.1659 -0.9861 0.9861 0.1659 -45.09 208.893)"
       cx="100.9"
       cy="131.1"
       rx="1.7"
       ry="2.2"
       id="ellipse74"
       style="fill:#010101;fill-opacity:1" /></g><g
     class="st4"
     id="g80"
     style="fill:#010101;fill-opacity:1"><ellipse
       transform="matrix(0.8837 -0.4681 0.4681 0.8837 -47.3069 57.2345)"
       cx="91.5"
       cy="123.8"
       rx="1.3"
       ry="1.8"
       id="ellipse78"
       style="fill:#010101;fill-opacity:1" /></g><g
     class="st4"
     id="g84"
     style="fill:#010101;fill-opacity:1"><ellipse
       transform="matrix(0.9912 -0.1321 0.1321 0.9912 -14.9663 12.9852)"
       cx="90.4"
       cy="119.3"
       rx="1.3"
       ry="1.8"
       id="ellipse82"
       style="fill:#010101;fill-opacity:1" /></g><g
     class="st4"
     id="g88"
     style="fill:#010101;fill-opacity:1"><ellipse
       transform="matrix(4.431686e-02 -0.999 0.999 4.431686e-02 -18.5273 225.2674)"
       cx="108.5"
       cy="122.3"
       rx="1.4"
       ry="1.8"
       id="ellipse86"
       style="fill:#010101;fill-opacity:1" /></g><g
     class="st4"
     id="g92"
     style="fill:#010101;fill-opacity:1"><ellipse
       transform="matrix(0.9061 -0.4231 0.4231 0.9061 -40.7926 59.4552)"
       cx="113.5"
       cy="121.6"
       rx="1.8"
       ry="1.4"
       id="ellipse90"
       style="fill:#010101;fill-opacity:1" /></g><g
     class="st4"
     id="g96"
     style="fill:#010101;fill-opacity:1"><ellipse
       transform="matrix(0.4619 -0.8869 0.8869 0.4619 -51.5093 157.2822)"
       cx="103.9"
       cy="121.1"
       rx="1.1"
       ry="1.4"
       id="ellipse94"
       style="fill:#010101;fill-opacity:1" /></g><g
     class="st4"
     id="g100"
     style="fill:#010101;fill-opacity:1"><ellipse
       transform="matrix(0.7412 -0.6713 0.6713 0.7412 -53.4649 98.5404)"
       cx="101.1"
       cy="118.6"
       rx="1.1"
       ry="1.4"
       id="ellipse98"
       style="fill:#010101;fill-opacity:1" /></g></svg>