<svg xmlns="http://www.w3.org/2000/svg" viewBox="0 0 160 160">
  <path d="M59.5 114.4c-.6-1-1.9-1.2-2.9-.6h-.1c-1.8 1.2-1.8 2.9-1.2 3.5l12.2 13.4 1.2 11.1s0 1.2 2.3 1.2 1.8-1.8 1.8-1.8l-.6-11.1 8.8-14c1.2-1.8-1.2-5.8-4.7-2.9L71.6 126 70 109.8a3 3 0 00-2.9-1.8c-2.3 0-2.3 2.3-2.3 3.5s2.9 15.2 2.9 15.2l-8.2-12.3z"/>
  <path d="M119 120.2c0-.6-.5-1.2-1.1-1.2l-11.1 2.9-2.1 2c1.7-1.9 3.1-3.9 4.4-6.1 1.2-2.3 2.3-1.8 2.3-1.8s2.9 0 3.5-1.8-.6-1.8-2.9-2.3c-1.5-.3-3 .1-4.1 1.2l-8.8 9.9-3.5-5.2 1.8-3.5c-1.8 2.3-12.2 5.2-12.2 5.2l5.2 1.2c2 1.7 3.8 3.7 5.2 5.8 1.8 2.9-2.3 14-2.3 14-.3 2.5 3.7 1.5 4.7-2.2.5-2.8 1.2-5.5 2-8.1 1.4.2 9.3 1.1 10.9 1.1.9 0 1.7-.7 1.8-1.7v-.1l-5.8-3.5c-.1.1 12.1-4.6 12.1-5.8z"/>
  <g fill="#010101" opacity=".1">
    <path d="M59.5 114.4c-.6-.2-1.2-.2-1.8 0-1.8 1.2 1.8 5.2 1.8 5.2l9.3 11.1 1.2 11.1s-.3 1.2 1.2 1.2c2-.3 1.8-1.8 1.8-1.8l-.6-11.1 8.8-14c1.2-1.8-.9-3.8-3.5-1.2l-5.8 12.8-1.9-17.9s0-1.2-2.3-1.2-1.8 2.9-1.8 2.9l2.9 16.9-9.3-14z"/>
    <path d="M92.4 118.2l5.3 7 1.5-2.1-3.6-5.1 1.4-2.9-4.6 2.5z"/>
  </g>
  <g opacity=".1">
    <path d="M99.8 126.7c2.3-1.8 6.6-8.3 9.2-12.1 2.2-1.6 4.9-2.2 6-.2-.5 1.8-3.5 1.8-3.5 1.8s-1.2-.6-2.3 1.8-5.8 8.2-7.6 9.3-3.6 11-3.6 11c-1 1.9-2 3-3.1 3l4.9-14.6z"/>
  </g>
  <g fill="#010101" opacity=".2">
    <path d="M106.8 122l11.1-2.9c.6 0 1.2.5 1.2 1.1 0 1.2-12.2 5.8-12.2 5.8l5.8 3.5c0 .9-.7 1.7-1.7 1.8h-.1c-1.8 0-11.1-1.2-11.1-1.2l1.2-2.5 5.8-5.6z"/>
  </g>
</svg>
