<?xml version="1.0" encoding="utf-8"?>
<!-- Generator: Adobe Illustrator 22.0.1, SVG Export Plug-In . SVG Version: 6.00 Build 0)  -->
<svg version="1.1" id="Layer_1" xmlns="http://www.w3.org/2000/svg" xmlns:xlink="http://www.w3.org/1999/xlink" x="0px" y="0px"
	 viewBox="0 0 160 160" style="enable-background:new 0 0 160 160;" xml:space="preserve">
<style type="text/css">
	.st0{fill:#FFFFFF;}
	.st1{opacity:0.1;}
	.st2{opacity:0.2;}
</style>
<title>Artboard 42 copy 237</title>
<path class="st0" d="M59.5,114.4c-0.6-1-1.9-1.2-2.9-0.6c0,0,0,0-0.1,0c-1.8,1.2-1.8,2.9-1.2,3.5s12.2,13.4,12.2,13.4l1.2,11.1
	c0,0,0,1.2,2.3,1.2s1.8-1.8,1.8-1.8l-0.6-11.1c0,0,7.6-12.2,8.8-14s-1.2-5.8-4.7-2.9l-4.7,12.8L70,109.8c-0.5-1.1-1.7-1.9-2.9-1.8
	c-2.3,0-2.3,2.3-2.3,3.5s2.9,15.2,2.9,15.2L59.5,114.4z"/>
<g class="st1">
	<path d="M59.5,114.4c-0.6-0.2-1.2-0.2-1.8,0c-1.8,1.2,1.8,5.2,1.8,5.2l9.3,11.1l1.2,11.1c0,0-0.3,1.2,1.2,1.2
		c2-0.3,1.8-1.8,1.8-1.8l-0.6-11.1c0,0,7.6-12.2,8.8-14s-0.9-3.8-3.5-1.2l-5.8,12.8L70,109.8c0,0,0-1.2-2.3-1.2s-1.8,2.9-1.8,2.9
		l2.9,16.9L59.5,114.4z"/>
</g>
<path class="st0" d="M119,120.2c0-0.6-0.5-1.2-1.1-1.2c0,0,0,0,0,0l-11.1,2.9l-2.1,2c1.7-1.9,3.1-3.9,4.4-6.1
	c1.2-2.3,2.3-1.8,2.3-1.8s2.9,0,3.5-1.8s-0.6-1.8-2.9-2.3c-1.5-0.3-3,0.1-4.1,1.2l-8.8,9.9l-3.5-5.2l1.8-3.5
	c-1.8,2.3-12.2,5.2-12.2,5.2l5.2,1.2c2,1.7,3.8,3.7,5.2,5.8c1.8,2.9-2.3,14-2.3,14C93,143,97,142,98,138.3c0.5-2.8,1.2-5.5,2-8.1
	c1.4,0.2,9.3,1.1,10.9,1.1c0.9,0,1.7-0.7,1.8-1.7c0,0,0-0.1,0-0.1l-5.8-3.5C106.8,126.1,119,121.4,119,120.2z"/>
<g class="st1">
	<path d="M99.8,126.7c2.3-1.8,6.6-8.3,9.2-12.1c2.2-1.6,4.9-2.2,6-0.2c-0.5,1.8-3.5,1.8-3.5,1.8s-1.2-0.6-2.3,1.8s-5.8,8.2-7.6,9.3
		S98,138.3,98,138.3c-1,1.9-2,3-3.1,3L99.8,126.7z"/>
</g>
<g class="st2">
	<path d="M106.8,122l11.1-2.9c0.6,0,1.2,0.5,1.2,1.1c0,0,0,0,0,0c0,1.2-12.2,5.8-12.2,5.8l5.8,3.5c0,0.9-0.7,1.7-1.7,1.8
		c0,0-0.1,0-0.1,0c-1.8,0-11.1-1.2-11.1-1.2l1.2-2.5L106.8,122z"/>
</g>
<g class="st1">
	<polygon points="92.4,118.2 97.7,125.2 99.2,123.1 95.6,118 97,115.1 92.4,117.6 	"/>
</g>
</svg>
