<svg xmlns="http://www.w3.org/2000/svg" viewBox="0 0 160 160">
  <g fill="#0f0">
    <path d="M64.7 115.9s-2.8 10.7-11.2 12.9c-5 1.3-10.3.5-14.6-2.2 0 0-3.9-1.1-1.7 2.8s8.4 11.8 25.8 5.6 18-16.9 18-16.9-11.2 1.2-16.3-2.2z"/>
    <path d="M58 112s-6.2 13.5-15.2 3.9c0 0-5.6-5.6-3.4 1.1s11.1 18.7 30.3.9c0 .1-7.8-2-11.7-5.9z"/>
    <path d="M94.8 115.9s2.8 10.7 11.2 12.9c5 1.3 10.3.5 14.6-2.2 0 0 3.9-1.1 1.7 2.8s-8.4 11.8-25.9 5.6-18-16.9-18-16.9 11.3 1.2 16.4-2.2z"/>
    <path d="M101.5 112s6.2 13.5 15.2 3.9c0 0 5.6-5.6 3.4 1.1s-11.2 18.7-30.3.9c-.1.1 7.8-2 11.7-5.9z"/>
  </g>
  <ellipse transform="rotate(-65 46 121.6)" cx="45.9" cy="121.6" rx="1.4" ry="1.8"/>
  <ellipse transform="rotate(-2.5 51 122.3)" cx="51" cy="122.3" rx="1.8" ry="1.4"/>
  <ellipse transform="rotate(-27.5 55.6 121)" cx="55.6" cy="121.1" rx="1.4" ry="1.1"/>
  <ellipse transform="rotate(-47.8 58.4 118.6)" cx="58.4" cy="118.6" rx="1.4" ry="1.1"/>
  <ellipse transform="rotate(-25 113.5 121.6)" cx="113.5" cy="121.6" rx="1.8" ry="1.4"/>
  <ellipse transform="rotate(-87.5 108.5 122.3)" cx="108.5" cy="122.3" rx="1.4" ry="1.8"/>
  <ellipse transform="rotate(-62.5 103.9 121.1)" cx="103.9" cy="121.1" rx="1.1" ry="1.4"/>
  <ellipse transform="rotate(-42.2 101 118.6)" cx="101.1" cy="118.6" rx="1.1" ry="1.4"/>
  <path d="M58 112s-6.2 13.5-15.2 3.9c0 0-5.6-5.6-3.4 1.1s11.1 18.7 30.3.9c0 .1-7.8-2-11.7-5.9z" fill="#010101" opacity=".3"/>
  <g fill="#010101" opacity=".2">
    <path d="M101.5 112s6.2 13.5 15.2 3.9c0 0 5.6-5.6 3.4 1.1s-11.2 18.7-30.3.9c-.1.1 7.8-2 11.7-5.9z"/>
    <path d="M64.7 115.9s-2.8 10.7-11.2 12.9c-5 1.3-10.3.5-14.6-2.2 0 0-3.9-1.1-1.7 2.8s8.4 11.8 25.8 5.6 18-16.9 18-16.9-11.2 1.2-16.3-2.2z"/>
    <path d="M94.8 115.9s2.8 10.7 11.2 12.9c5 1.3 10.3.5 14.6-2.2 0 0 3.9-1.1 1.7 2.8s-8.4 11.8-25.9 5.6-18-16.9-18-16.9 11.3 1.2 16.4-2.2z"/>
  </g>
  <g fill="#0f0">
    <path d="M62.5 114.8s-1.7 14.6-7.3 14.6c0 0-2.2 0-3.9-2.8s-3.4-2.2-2.8.6S50.7 139.6 62 139s15.7-11.2 15.7-17.4v-3.2c-.1 0-9.6.3-15.2-3.6z"/>
    <path d="M97 114.8s1.7 14.6 7.3 14.6c0 0 2.2 0 3.9-2.8s3.4-2.2 2.8.6-2.2 12.4-13.5 11.8-15.7-11.2-15.7-17.4v-3.2s9.6.3 15.2-3.6z"/>
  </g>
  <ellipse transform="rotate(-37.1 64.1 128.3)" cx="64.1" cy="128.3" rx="2.2" ry="1.7"/>
  <ellipse transform="rotate(-9.5 58.5 131.1)" cx="58.5" cy="131.1" rx="2.2" ry="1.7"/>
  <ellipse transform="rotate(-62.1 68 123.8)" cx="68" cy="123.8" rx="1.8" ry="1.3"/>
  <ellipse transform="rotate(-82.4 69 119.3)" cx="69.1" cy="119.3" rx="1.8" ry="1.3"/>
  <ellipse transform="rotate(-52.9 95.3 128.3)" cx="95.3" cy="128.3" rx="1.7" ry="2.2"/>
  <ellipse transform="rotate(-80.5 101 131.1)" cx="100.9" cy="131.1" rx="1.7" ry="2.2"/>
  <ellipse transform="rotate(-27.9 91.5 123.8)" cx="91.5" cy="123.8" rx="1.3" ry="1.8"/>
  <ellipse transform="rotate(-7.6 90.4 119.3)" cx="90.4" cy="119.3" rx="1.3" ry="1.8"/>
</svg>
