<?xml version="1.0" encoding="utf-8"?>
<!-- Generator: Adobe Illustrator 22.0.1, SVG Export Plug-In . SVG Version: 6.00 Build 0)  -->
<svg version="1.1" id="Layer_1" xmlns="http://www.w3.org/2000/svg" xmlns:xlink="http://www.w3.org/1999/xlink" x="0px" y="0px"
	 viewBox="0 0 160 160" style="enable-background:new 0 0 160 160;" xml:space="preserve">
<style type="text/css">
	.st0{fill:#FFFFFF;}
	.st1{fill:#FF460D;}
</style>
<title>Artboard 42 copy 222</title>
<path class="st0" d="M73.7,124.8c0-0.3,0-0.7-0.1-1c0-2,0.1-6.3,0.1-6.3l-3.8-0.5l0.5,4c-3-0.2-5.9,0.5-8.5,2c-3,2-5,5-3,8s6,3,11,0
	C72.2,129.8,73.6,127.4,73.7,124.8L73.7,124.8z"/>
<path class="st1" d="M76.8,122c0,0,0-2.1-3.2-2.5c0,1.4-0.1,3.2,0,4.3c0.1,0.3,0.1,0.7,0.1,1l0,0c-0.1,2.6-1.5,5-3.8,6.2
	c-5,3-9,3-11,0s0-6,3-8c2.6-1.5,5.5-2.2,8.5-2l-0.2-1.3c-1.8,0.3-3.6,0.8-5.3,1.3c-12,4-13,16-12,17s3,2,10,2c4.2-0.1,8-2.3,10-6
	l1,5c0,0,2,2,3,0S76.8,122,76.8,122z"/>
<path class="st0" d="M87.2,124.8c0-0.3,0-0.7,0.1-1c0-2-0.1-6.3-0.1-6.3L91,117l-0.5,4c3-0.2,5.9,0.5,8.5,2c3,2,5,5,3,8s-6,3-11,0
	C88.7,129.8,87.2,127.4,87.2,124.8L87.2,124.8z"/>
<path class="st1" d="M84,122c0,0,0-2.1,3.2-2.5c0,1.4,0,3.2,0,4.3c-0.1,0.3-0.1,0.7-0.1,1l0,0c0.1,2.6,1.5,5,3.8,6.2c5,3,9,3,11,0
	s0-6-3-8c-2.6-1.5-5.5-2.2-8.5-2l0.2-1.3c1.8,0.3,3.6,0.8,5.3,1.3c12,4,13,16,12,17s-3,2-10,2c-4.2-0.1-8-2.3-10-6l-1,5c0,0-2,2-3,0
	S84,122,84,122z"/>
</svg>
