<svg xmlns="http://www.w3.org/2000/svg" viewBox="0 0 160 160">
  <path d="M45 137h75s6 0 7-2.2 1 3.3-7 4.5-67 0-75 0-9-2.3 0-2.3z" fill="#444"/>
  <path d="M34 138.3h75s6 0 7-2.2 1 3.3-7 4.5-67 0-75 0l-2.2-.1-1.5-2 3.7-.2z" fill="#919191"/>
  <path d="M79.9 117.8l-10.6 17.6S68.2 138 79 138h22.7s5.4-5.2 2.2-7.8-11.9-3.4-11.9-3.4l8.6-13.8s-7.6 5.2-20.7 4.8z" fill="#49230f"/>
  <path d="M63.6 115.2L52 135.4s-1 2.6 9.8 2.6h22.7s5.4-5.2 2.2-7.8-11.9-3.4-11.9-3.4l7.6-8.6c-.1 0-7.7.8-18.8-3z" fill="#a34b1a"/>
  <path d="M74.4 119.7l8.1 1.9c.3.1.4.3.4.6l-.1.5c-.1.3-.3.4-.6.4l-8.1-1.9c-.3-.1-.4-.3-.4-.6l.1-.5c.1-.3.4-.4.6-.4z"/>
  <path d="M72.9 122.8l8.1 1.9c.3.1.4.3.4.6l-.1.5c-.1.3-.3.4-.6.4l-8.1-1.9c-.3-.1-.4-.3-.4-.6l.1-.5c0-.3.3-.4.6-.4z"/>
  <path d="M91.4 118.7l8.1 1.9c.3.1.4.3.4.6l-.1.5c-.1.3-.3.4-.6.4l-8.1-1.9c-.3-.1-.4-.3-.4-.6l.1-.5c.1-.3.3-.4.6-.4z"/>
  <path d="M89.9 121.8l8.1 1.9c.3.1.4.3.4.6l-.1.5c-.1.3-.3.4-.6.4l-8.1-1.9c-.3-.1-.4-.3-.4-.6l.1-.5c0-.3.3-.4.6-.4z"/>
</svg>
