<?xml version="1.0" encoding="UTF-8" standalone="no"?>
<!-- Generator: Adobe Illustrator 22.0.1, SVG Export Plug-In . SVG Version: 6.00 Build 0)  -->

<svg
   xmlns:dc="http://purl.org/dc/elements/1.1/"
   xmlns:cc="http://creativecommons.org/ns#"
   xmlns:rdf="http://www.w3.org/1999/02/22-rdf-syntax-ns#"
   xmlns:svg="http://www.w3.org/2000/svg"
   xmlns="http://www.w3.org/2000/svg"
   xmlns:sodipodi="http://sodipodi.sourceforge.net/DTD/sodipodi-0.dtd"
   xmlns:inkscape="http://www.inkscape.org/namespaces/inkscape"
   version="1.1"
   id="Layer_1"
   x="0px"
   y="0px"
   viewBox="0 0 160 160"
   style="enable-background:new 0 0 160 160;"
   xml:space="preserve"
   sodipodi:docname="bottom_17.svg"
   inkscape:version="0.92.2 (5c3e80d, 2017-08-06)"><metadata
     id="metadata27"><rdf:RDF><cc:Work
         rdf:about=""><dc:format>image/svg+xml</dc:format><dc:type
           rdf:resource="http://purl.org/dc/dcmitype/StillImage" /></cc:Work></rdf:RDF></metadata><defs
     id="defs25" /><sodipodi:namedview
     pagecolor="#ffffff"
     bordercolor="#666666"
     borderopacity="1"
     objecttolerance="10"
     gridtolerance="10"
     guidetolerance="10"
     inkscape:pageopacity="0"
     inkscape:pageshadow="2"
     inkscape:window-width="1920"
     inkscape:window-height="976"
     id="namedview23"
     showgrid="false"
     inkscape:zoom="5.9"
     inkscape:cx="48.711057"
     inkscape:cy="36.357925"
     inkscape:window-x="0"
     inkscape:window-y="27"
     inkscape:window-maximized="1"
     inkscape:current-layer="Layer_1" /><style
     type="text/css"
     id="style2">
	.st0{fill:#444444;}
	.st1{fill:#919191;}
	.st2{fill:#49230F;}
	.st3{fill:#A34B1A;}
	.st4{fill:#E5652C;}
</style><title
     id="title4">Artboard 42 copy 217</title><path
     class="st0"
     d="M45,137h75c0,0,6,0,7-2.2s1,3.3-7,4.5s-67,0-75,0S36,137,45,137z"
     id="path6" /><path
     class="st1"
     d="M34,138.3h75c0,0,6,0,7-2.2s1,3.3-7,4.5s-67,0-75,0c-0.8,0-2.2-0.1-2.2-0.1l-1.5-2  C30.3,138.4,32.5,138.3,34,138.3z"
     id="path8" /><path
     class="st2"
     d="M79.9,117.8l-10.6,17.6c0,0-1.1,2.6,9.7,2.6h22.7c0,0,5.4-5.2,2.2-7.8S92,126.8,92,126.8l8.6-13.8  C100.6,113,93,118.2,79.9,117.8z"
     id="path10" /><path
     class="st3"
     d="M63.6,115.2L52,135.4c0,0-1,2.6,9.8,2.6h22.7c0,0,5.4-5.2,2.2-7.8s-11.9-3.4-11.9-3.4l7.6-8.6  C82.3,118.2,74.7,119,63.6,115.2z"
     id="path12" /><path
     class="st4"
     d="M74.4,119.7l8.1,1.9c0.3,0.1,0.4,0.3,0.4,0.6l-0.1,0.5c-0.1,0.3-0.3,0.4-0.6,0.4l-8.1-1.9  c-0.3-0.1-0.4-0.3-0.4-0.6l0.1-0.5C73.9,119.8,74.2,119.7,74.4,119.7z"
     id="path14"
     style="fill:#000000;fill-opacity:1" /><path
     class="st4"
     d="M72.9,122.8l8.1,1.9c0.3,0.1,0.4,0.3,0.4,0.6l-0.1,0.5c-0.1,0.3-0.3,0.4-0.6,0.4l-8.1-1.9  c-0.3-0.1-0.4-0.3-0.4-0.6l0.1-0.5C72.3,122.9,72.6,122.8,72.9,122.8z"
     id="path16"
     style="fill:#000000;fill-opacity:1" /><path
     class="st4"
     d="M91.4,118.7l8.1,1.9c0.3,0.1,0.4,0.3,0.4,0.6l-0.1,0.5c-0.1,0.3-0.3,0.4-0.6,0.4l-8.1-1.9  c-0.3-0.1-0.4-0.3-0.4-0.6l0.1-0.5C90.9,118.8,91.1,118.7,91.4,118.7z"
     id="path18"
     style="fill:#000000;fill-opacity:1" /><path
     class="st4"
     d="M89.9,121.8l8.1,1.9c0.3,0.1,0.4,0.3,0.4,0.6l-0.1,0.5c-0.1,0.3-0.3,0.4-0.6,0.4l-8.1-1.9  c-0.3-0.1-0.4-0.3-0.4-0.6l0.1-0.5C89.3,121.9,89.6,121.8,89.9,121.8z"
     id="path20"
     style="fill:#000000;fill-opacity:1" /></svg>