<svg xmlns="http://www.w3.org/2000/svg" viewBox="0 0 160 160">
  <path fill="#fd9727" d="M101.62 127.8c.63-6.9-.75-8.88-.75-8.88s-1.62-10.24-6.44-12.83c-3.13-1.78-5.67-1.83-7.93-1.11-2.13.02-4.18.67-6.02 1.87-.11.08-.33.14-.45.22a34.1 34.1 0 01-13.18-2.97 15.6 15.6 0 00-9.95-1.16c-4.7.17-10.04 2.77-11.13 12.84-1.84 16.53 6.55 24.13 6.55 24.13 3.75 4.02 10.66 6.88 16.22 5.33 2.43.03 4.73-.88 6.62-2.37 0 0 4.13-6.07 10.02-7.76l.31-.04c2.71.18 5.48.06 8.11-.48 4.51-.21 7.52-1.7 8.02-6.8z"/>
  <path d="M69.43 143.67a9.66 9.66 0 01-3.8 1.97c.92-.04 1.85-.18 2.71-.43 2.44.02 4.73-.89 6.62-2.38 0 0 4.04-6.08 10.02-7.75-.92.03-1.86.17-2.81.4-7.34.12-12.74 8.2-12.74 8.2zM101.62 127.79c.63-6.9-.75-8.87-.75-8.87s-1.62-10.25-6.44-12.84c-3.14-1.77-5.67-1.82-7.93-1.1-.92.03-1.86.17-2.72.42 1.81.12 3.55.64 5.12 1.52 4.82 2.6 6.44 12.84 6.44 12.84s1.37 1.97.75 8.87c-.4 3.99-2.33 5.68-5.32 6.46.92-.03 1.86-.17 2.82-.4 4.52-.32 7.53-1.81 8.03-6.9zM66.75 104.09a15.6 15.6 0 00-9.95-1.17c-.92.04-1.86.17-2.82.4 2.45-.06 5 .5 7.14 1.59 3.05 1.66 12.3 3.92 16 2.55 1.1.1 2.25-.1 3.26-.63-.12.08-.33.14-.45.22a34.1 34.1 0 01-13.18-2.96z" opacity=".8"/>
  <circle fill="#33221f" transform="rotate(10.13)" r="5.7" cy="105.12" cx="100.63"/>
  <path fill="#543933" d="M113.02 114.08l-28.18 3.66a5.7 5.7 0 011.08 4.45 5.7 5.7 0 01-.46 1.4l28.34-3.68c.41-.03.7-.48.67-.9l-.56-4.26c-.03-.4-.48-.7-.9-.67z"/>
  <path d="M68.41 115.25l2.59 15.1-3.56.58-.3-1.78c-.93.13-1.92-.55-2.06-1.49l.02-.1c-.3-1.78-1.54-7.9-1.54-7.9.12-.68.74-1.28 1.38-1.47l-.18-2.37z"/>
  <path fill="#fd9727" d="M118.97 110.88l6.87-.9a4.98 4.98 0 015.54 4.24l.12 1.03a4.98 4.98 0 01-4.24 5.54l-6.87.91a4.98 4.98 0 01-5.54-4.24l-.12-1.04a4.98 4.98 0 014.24-5.54z"/>
  <path opacity=".2" d="M118.97 110.88l6.87-.9a4.98 4.98 0 015.54 4.24l.12 1.03a4.98 4.98 0 01-4.24 5.54l-6.87.91a4.98 4.98 0 01-5.54-4.24l-.12-1.04a4.98 4.98 0 014.24-5.54z"/>
  <path fill="#543933" d="M116.62 110.97s-.59-1.83.96-1.96c1.55-.13 1.33 1.66 1.33 1.66zM120.21 121.57s.49 1.81-.96 1.96c-1.45.15-1.33-1.66-1.33-1.66zM124.34 121.19s.49 1.81-.96 1.96c-1.45.15-1.33-1.66-1.33-1.66zM127.88 120.7s.5 1.82-.96 1.96c-1.45.15-1.33-1.66-1.33-1.66zM120.77 110.5s-.59-1.84.96-1.97c1.55-.13 1.33 1.66 1.33 1.66zM124.9 110.11s-.59-1.83.96-1.96c1.55-.13 1.33 1.66 1.33 1.66z"/>
  <path fill="#fd9727" d="M118.09 110.72l6.86-.9a4.98 4.98 0 015.54 4.24l.12 1.04a4.98 4.98 0 01-4.24 5.54l-6.87.9a4.98 4.98 0 01-5.54-4.24l-.12-1.04a5.07 5.07 0 014.25-5.54z"/>
  <path d="M117.51 113.36l8.53-1.11c.31-.05.57.2.62.51.05.32-.2.58-.52.62l-8.53 1.12c-.3.04-.57-.2-.61-.52-.05-.31.2-.57.51-.62zM118.58 117.62l8.53-1.12c.31-.04.57.2.62.52.04.31-.2.57-.52.62l-8.53 1.11c-.31.05-.57-.2-.62-.51-.06-.22.2-.58.52-.62z"/>
</svg>
