<?xml version="1.0" encoding="UTF-8" standalone="no"?>
<!-- Generator: Adobe Illustrator 22.0.1, SVG Export Plug-In . SVG Version: 6.00 Build 0)  -->

<svg
   xmlns:dc="http://purl.org/dc/elements/1.1/"
   xmlns:cc="http://creativecommons.org/ns#"
   xmlns:rdf="http://www.w3.org/1999/02/22-rdf-syntax-ns#"
   xmlns:svg="http://www.w3.org/2000/svg"
   xmlns="http://www.w3.org/2000/svg"
   xmlns:sodipodi="http://sodipodi.sourceforge.net/DTD/sodipodi-0.dtd"
   xmlns:inkscape="http://www.inkscape.org/namespaces/inkscape"
   version="1.1"
   id="Layer_1"
   x="0px"
   y="0px"
   viewBox="0 0 160 160"
   style="enable-background:new 0 0 160 160;"
   xml:space="preserve"
   sodipodi:docname="bottom_20.svg"
   inkscape:version="0.92.2 (5c3e80d, 2017-08-06)"><metadata
     id="metadata49"><rdf:RDF><cc:Work
         rdf:about=""><dc:format>image/svg+xml</dc:format><dc:type
           rdf:resource="http://purl.org/dc/dcmitype/StillImage" /></cc:Work></rdf:RDF></metadata><defs
     id="defs47" /><sodipodi:namedview
     pagecolor="#ffffff"
     bordercolor="#666666"
     borderopacity="1"
     objecttolerance="10"
     gridtolerance="10"
     guidetolerance="10"
     inkscape:pageopacity="0"
     inkscape:pageshadow="2"
     inkscape:window-width="1920"
     inkscape:window-height="976"
     id="namedview45"
     showgrid="false"
     inkscape:zoom="11.8"
     inkscape:cx="70.953253"
     inkscape:cy="30.314335"
     inkscape:window-x="0"
     inkscape:window-y="27"
     inkscape:window-maximized="1"
     inkscape:current-layer="Layer_1" /><style
     type="text/css"
     id="style2">
	.st0{fill:#99671D;}
	.st1{fill:#6D4716;}
	.st2{fill:#FFFFFF;}
	.st3{opacity:0.2;}
	.st4{fill:#444444;}
	.st5{fill:#FFC866;}
</style><title
     id="title4">Artboard 42 copy 214</title><path
     class="st0"
     d="M46.4,101.1c0,0-1.3,1.9-1.1,5.9c0.7,9.7-2.1,19.5,3.5,26.4c5.6,7,16.7,11.8,22.9,8.4s5.6-15.3-1.4-20.2  c-1.7-1.4-3.2-2.9-4.4-4.7C58,113.7,51.3,108.8,46.4,101.1z"
     id="path6" /><path
     class="st1"
     d="M46.4,101.1c0,0-1.3,1.9-1.1,5.9c0.7,9.7-2.1,19.5,3.5,26.4c12.2,12.9,22.9,8.4,22.9,8.4  C61.6,142.9,50.1,106,50.1,106C48.7,104.5,47.5,102.9,46.4,101.1z"
     id="path8" /><path
     class="st2"
     d="M54.8,115.4L54.8,115.4c-4,0-7.3-3.3-7.3-7.3l0,0c0.1-1.3,0.5-2.7,1.1-3.8c0.1-0.2,7.1,8.1,10.8,9.5  C59.4,113.7,58.1,115,54.8,115.4z"
     id="path10" /><g
     class="st3"
     id="g14"><path
       d="M58.8,113.3c-0.8,0.3-1.7,0.5-2.6,0.6c-3.4-0.1-6-2.9-5.9-6.3c0-0.6,0.1-1.2,0.2-1.8C50.5,106,55.1,112,58.8,113.3z"
       id="path12" /></g><path
     class="st1"
     d="M94,124.5c0,0-2.8,5.5-5.5,7.5c-1.2,0.8-2.3,1.8-3.4,2.7v4.4C85.1,139.5,95.3,136.1,94,124.5z"
     id="path16" /><path
     class="st2"
     d="M94.6,124.5c0,0-5.4-1.4-8.9,2c-3.4,3.4-3.4,8.2-1.4,8.2S86.5,135.4,94.6,124.5z"
     id="path18" /><path
     class="st0"
     d="m 120.5,108.8 c 0,0 -4.8,-8.2 -19.1,-0.7 -14.3,7.5 -2.7,23.2 -15.7,30.7 0,0 3.699243,3.63932 8.389886,-5.85019 C 98.734193,123.55405 98.7,108.2 120.5,108.8 Z"
     id="path20"
     inkscape:connector-curvature="0"
     style="fill:#99671d"
     sodipodi:nodetypes="cscsc" /><path
     class="st4"
     d="M85.8,138.8c0,0,6.1,2.7,10.2-10.9s8.9-21.8,20.4-21.1c1.6,0,3.2,0.6,4.4,1.7c5.6,5,1.3,19.6-4.4,24.2  c-6.8,5.4-21.8,10.9-27.9,8.9S85.8,138.8,85.8,138.8z"
     id="path22" /><path
     class="st5"
     d="M84.8,119.2l1,7.4c1.9-1.4,3.6-2.3,5-2.3l-0.6-6.2C88.4,118.6,86.6,118.9,84.8,119.2z"
     id="path24" /><path
     d="M119.2,112.6h-11.6c-0.3,0-0.5-0.2-0.5-0.5v-0.1c0-0.3,0.2-0.5,0.5-0.5h11.6c0.3,0,0.5,0.2,0.5,0.5v0.1  C119.7,112.4,119.5,112.6,119.2,112.6z"
     id="path26" /><path
     d="M120.3,115.8h-14.7c-0.3,0-0.5-0.2-0.5-0.5v-0.1c0-0.3,0.2-0.5,0.5-0.5h14.7c0.3,0,0.5,0.2,0.5,0.5v0.1  C120.8,115.6,120.5,115.8,120.3,115.8z"
     id="path28" /><path
     d="M120.3,118.9h-17.9c-0.3,0-0.5-0.2-0.5-0.5v-0.1c0-0.3,0.2-0.5,0.5-0.5h17.9c0.3,0,0.5,0.2,0.5,0.5v0.1  C120.8,118.7,120.5,118.9,120.3,118.9z"
     id="path30" /><path
     d="M119.2,122.1h-17.9c-0.3,0-0.5-0.2-0.5-0.5v-0.1c0-0.3,0.2-0.5,0.5-0.5h17.9c0.3,0,0.5,0.2,0.5,0.5v0.1  C119.7,121.8,119.5,122.1,119.2,122.1z"
     id="path32" /><path
     d="M118.1,125.2h-17.9c-0.3,0-0.5-0.2-0.5-0.5v-0.1c0-0.3,0.2-0.5,0.5-0.5h17.9c0.3,0,0.5,0.2,0.5,0.5v0.1  C118.6,125,118.4,125.2,118.1,125.2z"
     id="path34" /><path
     d="M116.1,128.4H98.2c-0.3,0-0.5-0.2-0.5-0.5v0c0-0.3,0.2-0.5,0.5-0.5h17.9c0.3,0,0.5,0.2,0.5,0.5v0  C116.6,128.1,116.3,128.4,116.1,128.4z"
     id="path36" /><path
     d="M114,131.5H98.2c-0.3,0-0.5-0.2-0.5-0.5V131c0-0.3,0.2-0.5,0.5-0.5H114c0.3,0,0.5,0.2,0.5,0.5v0.1  C114.5,131.3,114.2,131.5,114,131.5z"
     id="path38" /><path
     d="M109.8,134.7H96.1c-0.3,0-0.5-0.2-0.5-0.5v-0.1c0-0.3,0.2-0.5,0.5-0.5h13.7c0.3,0,0.5,0.2,0.5,0.5v0.1  C110.3,134.4,110,134.7,109.8,134.7z"
     id="path40" /><path
     d="M104.5,137.8H95c-0.3,0-0.5-0.2-0.5-0.5v-0.1c0-0.3,0.2-0.5,0.5-0.5h9.5c0.3,0,0.5,0.2,0.5,0.5v0.1  C105,137.6,104.8,137.8,104.5,137.8z"
     id="path42" /></svg>