<?xml version="1.0" encoding="utf-8"?>
<!-- Generator: Adobe Illustrator 22.0.1, SVG Export Plug-In . SVG Version: 6.00 Build 0)  -->
<svg version="1.1" id="Layer_1" xmlns="http://www.w3.org/2000/svg" xmlns:xlink="http://www.w3.org/1999/xlink" x="0px" y="0px"
	 viewBox="0 0 160 160" style="enable-background:new 0 0 160 160;" xml:space="preserve">
<style type="text/css">
	.st0{fill:#FFFFFF;}
	.st1{opacity:0.2;}
	.st2{opacity:0.3;enable-background:new    ;}
	.st3{opacity:5.000000e-02;}
	.st4{opacity:0.1;}
	.st5{opacity:0.2;enable-background:new    ;}
</style>
<title>Artboard 42 copy 256</title>
<path class="st0" d="M64.7,115.9c0,0-2.8,10.7-11.2,12.9c-5,1.3-10.3,0.5-14.6-2.2c0,0-3.9-1.1-1.7,2.8c2.2,3.9,8.4,11.8,25.8,5.6
	s18-16.9,18-16.9S69.8,119.3,64.7,115.9z"/>
<g class="st1">
	<path d="M64.7,115.9c0,0-2.8,10.7-11.2,12.9c-5,1.3-10.3,0.5-14.6-2.2c0,0-3.9-1.1-1.7,2.8c2.2,3.9,8.4,11.8,25.8,5.6
		s18-16.9,18-16.9S69.8,119.3,64.7,115.9z"/>
</g>
<path class="st0" d="M58,112c0,0-6.2,13.5-15.2,3.9c0,0-5.6-5.6-3.4,1.1s11.1,18.7,30.3,0.9C69.7,118,61.9,115.9,58,112z"/>
<path class="st2" d="M58,112c0,0-6.2,13.5-15.2,3.9c0,0-5.6-5.6-3.4,1.1s11.1,18.7,30.3,0.9C69.7,118,61.9,115.9,58,112z"/>
<path class="st0" d="M62.5,114.8c0,0-1.7,14.6-7.3,14.6c0,0-2.2,0-3.9-2.8s-3.4-2.2-2.8,0.6s2.2,12.4,13.5,11.8s15.7-11.2,15.7-17.4
	v-3.2C77.6,118.4,68.1,118.7,62.5,114.8z"/>
<g class="st3">
	<path d="M51.2,126.6c-1.7-2.8-3.4-2.2-2.8,0.6s2.3,11.8,13.5,11.2s15-20,13.8-20.1c-2-0.1-4-0.3-5.9-0.7c1.7,0.5,1.5,1.6,1.5,1.6
		c0.2,1.1-1.1,2.2-2.2,2.4c0.7,0.6,1,1.5,0.8,2.4c0,0-0.2,2-2.7,1.8c0,0-0.5,0.7-0.7,1c1.1,2-1.1,3.3-1.1,3.3s-2.2,0.9-3.2,0.1
		c-0.2,0.1-0.5,0.2-0.8,0.3c0,2.7-3,2.8-3,2.8s-2.7,0.5-2.8-2.7C55.7,131.1,52.2,128.7,51.2,126.6z"/>
</g>
<g class="st4">
	<ellipse transform="matrix(0.7973 -0.6036 0.6036 0.7973 -64.4433 64.7288)" cx="64.1" cy="128.3" rx="2.2" ry="1.7"/>
</g>
<g class="st4">
	<ellipse transform="matrix(0.9861 -0.1659 0.1659 0.9861 -20.942 11.5246)" cx="58.5" cy="131.1" rx="2.2" ry="1.7"/>
</g>
<g class="st4">
	<ellipse transform="matrix(0.4681 -0.8837 0.8837 0.4681 -73.2585 125.9107)" cx="68" cy="123.8" rx="1.8" ry="1.3"/>
</g>
<g class="st4">
	<ellipse transform="matrix(0.1321 -0.9912 0.9912 0.1321 -58.3152 172.047)" cx="69.1" cy="119.3" rx="1.8" ry="1.3"/>
</g>
<g class="st4">
	<ellipse transform="matrix(0.999 -4.431684e-02 4.431684e-02 0.999 -5.3708 2.3795)" cx="51" cy="122.3" rx="1.8" ry="1.4"/>
</g>
<g class="st4">
	<ellipse transform="matrix(0.4231 -0.9061 0.9061 0.4231 -83.6944 111.7836)" cx="45.9" cy="121.6" rx="1.4" ry="1.8"/>
</g>
<g class="st4">
	<ellipse transform="matrix(0.8869 -0.4619 0.4619 0.8869 -49.6395 39.3723)" cx="55.6" cy="121.1" rx="1.4" ry="1.1"/>
</g>
<g class="st4">
	<ellipse transform="matrix(0.6713 -0.7412 0.7412 0.6713 -68.7015 82.2791)" cx="58.4" cy="118.6" rx="1.4" ry="1.1"/>
</g>
<path class="st0" d="M94.8,115.9c0,0,2.8,10.7,11.2,12.9c5,1.3,10.3,0.5,14.6-2.2c0,0,3.9-1.1,1.7,2.8c-2.2,3.9-8.4,11.8-25.9,5.6
	s-18-16.9-18-16.9S89.7,119.3,94.8,115.9z"/>
<g class="st1">
	<path d="M94.8,115.9c0,0,2.8,10.7,11.2,12.9c5,1.3,10.3,0.5,14.6-2.2c0,0,3.9-1.1,1.7,2.8c-2.2,3.9-8.4,11.8-25.9,5.6
		s-18-16.9-18-16.9S89.7,119.3,94.8,115.9z"/>
</g>
<path class="st0" d="M101.5,112c0,0,6.2,13.5,15.2,3.9c0,0,5.6-5.6,3.4,1.1s-11.2,18.7-30.3,0.9C89.7,118,97.6,115.9,101.5,112z"/>
<path class="st5" d="M101.5,112c0,0,6.2,13.5,15.2,3.9c0,0,5.6-5.6,3.4,1.1s-11.2,18.7-30.3,0.9C89.7,118,97.6,115.9,101.5,112z"/>
<path class="st0" d="M97,114.8c0,0,1.7,14.6,7.3,14.6c0,0,2.2,0,3.9-2.8s3.4-2.2,2.8,0.6s-2.2,12.4-13.5,11.8s-15.7-11.2-15.7-17.4
	v-3.2C81.8,118.4,91.4,118.7,97,114.8z"/>
<g class="st3">
	<path d="M108.3,126.6c1.7-2.8,3.4-2.2,2.8,0.6s-2.2,11.8-13.5,11.2s-15-20-13.8-20.1c2-0.1,4-0.3,5.9-0.7c-1.7,0.5-1.5,1.6-1.5,1.6
		c-0.2,1.1,1.1,2.2,2.2,2.4c-0.7,0.6-1,1.5-0.8,2.4c0,0,0.2,2,2.7,1.8c0,0,0.5,0.7,0.7,1c-1.1,2,1.1,3.3,1.1,3.3s2.2,0.9,3.2,0.1
		c0.2,0.1,0.5,0.2,0.8,0.3c0,2.7,3,2.8,3,2.8s2.7,0.5,2.8-2.7C103.8,131.1,107.3,128.7,108.3,126.6z"/>
</g>
<g class="st4">
	<ellipse transform="matrix(0.6036 -0.7973 0.7973 0.6036 -64.5032 126.8615)" cx="95.3" cy="128.3" rx="1.7" ry="2.2"/>
</g>
<g class="st4">
	<ellipse transform="matrix(0.1659 -0.9861 0.9861 0.1659 -45.09 208.893)" cx="100.9" cy="131.1" rx="1.7" ry="2.2"/>
</g>
<g class="st4">
	<ellipse transform="matrix(0.8837 -0.4681 0.4681 0.8837 -47.3069 57.2345)" cx="91.5" cy="123.8" rx="1.3" ry="1.8"/>
</g>
<g class="st4">
	<ellipse transform="matrix(0.9912 -0.1321 0.1321 0.9912 -14.9663 12.9852)" cx="90.4" cy="119.3" rx="1.3" ry="1.8"/>
</g>
<g class="st4">
	<ellipse transform="matrix(4.431686e-02 -0.999 0.999 4.431686e-02 -18.5273 225.2674)" cx="108.5" cy="122.3" rx="1.4" ry="1.8"/>
</g>
<g class="st4">
	<ellipse transform="matrix(0.9061 -0.4231 0.4231 0.9061 -40.7926 59.4552)" cx="113.5" cy="121.6" rx="1.8" ry="1.4"/>
</g>
<g class="st4">
	<ellipse transform="matrix(0.4619 -0.8869 0.8869 0.4619 -51.5093 157.2822)" cx="103.9" cy="121.1" rx="1.1" ry="1.4"/>
</g>
<g class="st4">
	<ellipse transform="matrix(0.7412 -0.6713 0.6713 0.7412 -53.4649 98.5404)" cx="101.1" cy="118.6" rx="1.1" ry="1.4"/>
</g>
</svg>
