<svg xmlns="http://www.w3.org/2000/svg" viewBox="0 0 160 160">
  <path d="M46.4 101.1s-1.3 1.9-1.1 5.9c.7 9.7-2.1 19.5 3.5 26.4 5.6 7 16.7 11.8 22.9 8.4s5.6-15.3-1.4-20.2a21.8 21.8 0 01-4.4-4.7 40 40 0 01-19.5-15.8z" fill="#99671d"/>
  <path d="M46.4 101.1s-1.3 1.9-1.1 5.9c.7 9.7-2.1 19.5 3.5 26.4 12.2 12.9 22.9 8.4 22.9 8.4-10.1 1.1-21.6-35.8-21.6-35.8a30 30 0 01-3.7-4.9z" fill="#6d4716"/>
  <path d="M54.8 115.4c-4 0-7.3-3.3-7.3-7.3.1-1.3.5-2.7 1.1-3.8.1-.2 7.1 8.1 10.8 9.5 0-.1-1.3 1.2-4.6 1.6z" fill="#fff"/>
  <path d="M58.8 113.3c-.8.3-1.7.5-2.6.6a6 6 0 01-5.9-6.3l.2-1.8a24 24 0 008.3 7.5z" opacity=".2"/>
  <path d="M94 124.5s-2.8 5.5-5.5 7.5c-1.2.8-2.3 1.8-3.4 2.7v4.4c0 .4 10.2-3 8.9-14.6z" fill="#6d4716"/>
  <path d="M94.6 124.5s-5.4-1.4-8.9 2c-3.4 3.4-3.4 8.2-1.4 8.2s2.2.7 10.3-10.2z" fill="#fff"/>
  <path d="M120.5 108.8s-4.8-8.2-19.1-.7c-14.3 7.5-2.7 23.2-15.7 30.7 0 0 3.7 3.6 8.4-5.9 4.6-9.3 4.6-24.7 26.4-24.1z" fill="#99671d"/>
  <path d="M85.8 138.8s6.1 2.7 10.2-10.9 8.9-21.8 20.4-21.1c1.6 0 3.2.6 4.4 1.7 5.6 5 1.3 19.6-4.4 24.2-6.8 5.4-21.8 10.9-27.9 8.9s-2.7-2.8-2.7-2.8z" fill="#444"/>
  <path d="M84.8 119.2l1 7.4c1.9-1.4 3.6-2.3 5-2.3l-.6-6.2c-1.8.5-3.6.8-5.4 1.1z" fill="#0f0"/>
  <path d="M119.2 112.6h-11.6c-.3 0-.5-.2-.5-.5v-.1c0-.3.2-.5.5-.5h11.6c.3 0 .5.2.5.5v.1c0 .3-.2.5-.5.5z"/>
  <path d="M120.3 115.8h-14.7c-.3 0-.5-.2-.5-.5v-.1c0-.3.2-.5.5-.5h14.7c.3 0 .5.2.5.5v.1c0 .3-.3.5-.5.5z"/>
  <path d="M120.3 118.9h-17.9c-.3 0-.5-.2-.5-.5v-.1c0-.3.2-.5.5-.5h17.9c.3 0 .5.2.5.5v.1c0 .3-.3.5-.5.5z"/>
  <path d="M119.2 122.1h-17.9c-.3 0-.5-.2-.5-.5v-.1c0-.3.2-.5.5-.5h17.9c.3 0 .5.2.5.5v.1c0 .2-.2.5-.5.5z"/>
  <path d="M118.1 125.2h-17.9c-.3 0-.5-.2-.5-.5v-.1c0-.3.2-.5.5-.5h17.9c.3 0 .5.2.5.5v.1c0 .3-.2.5-.5.5z"/>
  <path d="M116.1 128.4H98.2c-.3 0-.5-.2-.5-.5s.2-.5.5-.5h17.9c.3 0 .5.2.5.5 0 .2-.3.5-.5.5z"/>
  <path d="M114 131.5H98.2c-.3 0-.5-.2-.5-.5s.2-.5.5-.5H114c.3 0 .5.2.5.5v.1c0 .2-.3.4-.5.4z"/>
  <path d="M109.8 134.7H96.1c-.3 0-.5-.2-.5-.5v-.1c0-.3.2-.5.5-.5h13.7c.3 0 .5.2.5.5v.1c0 .2-.3.5-.5.5z"/>
  <path d="M104.5 137.8H95c-.3 0-.5-.2-.5-.5v-.1c0-.3.2-.5.5-.5h9.5c.3 0 .5.2.5.5v.1c0 .3-.2.5-.5.5z"/>
</svg>
