<?xml version="1.0" encoding="UTF-8" standalone="no"?>
<!-- Generator: Adobe Illustrator 22.0.1, SVG Export Plug-In . SVG Version: 6.00 Build 0)  -->

<svg
   xmlns:dc="http://purl.org/dc/elements/1.1/"
   xmlns:cc="http://creativecommons.org/ns#"
   xmlns:rdf="http://www.w3.org/1999/02/22-rdf-syntax-ns#"
   xmlns:svg="http://www.w3.org/2000/svg"
   xmlns="http://www.w3.org/2000/svg"
   xmlns:sodipodi="http://sodipodi.sourceforge.net/DTD/sodipodi-0.dtd"
   xmlns:inkscape="http://www.inkscape.org/namespaces/inkscape"
   version="1.1"
   id="Layer_1"
   x="0px"
   y="0px"
   viewBox="0 0 160 160"
   style="enable-background:new 0 0 160 160;"
   xml:space="preserve"
   sodipodi:docname="bottom_03.svg"
   inkscape:version="0.92.2 (5c3e80d, 2017-08-06)"><metadata
     id="metadata31"><rdf:RDF><cc:Work
         rdf:about=""><dc:format>image/svg+xml</dc:format><dc:type
           rdf:resource="http://purl.org/dc/dcmitype/StillImage" /></cc:Work></rdf:RDF></metadata><defs
     id="defs29" /><sodipodi:namedview
     pagecolor="#ffffff"
     bordercolor="#666666"
     borderopacity="1"
     objecttolerance="10"
     gridtolerance="10"
     guidetolerance="10"
     inkscape:pageopacity="0"
     inkscape:pageshadow="2"
     inkscape:window-width="1920"
     inkscape:window-height="976"
     id="namedview27"
     showgrid="false"
     inkscape:zoom="2.95"
     inkscape:cx="58.977656"
     inkscape:cy="71.578656"
     inkscape:window-x="0"
     inkscape:window-y="27"
     inkscape:window-maximized="1"
     inkscape:current-layer="Layer_1" /><style
     type="text/css"
     id="style2">
	.st0{fill:#FFFFFF;}
	.st1{opacity:0.1;}
	.st2{opacity:0.2;}
</style><title
     id="title4">Artboard 42 copy 237</title><path
     class="st0"
     d="M59.5,114.4c-0.6-1-1.9-1.2-2.9-0.6c0,0,0,0-0.1,0c-1.8,1.2-1.8,2.9-1.2,3.5s12.2,13.4,12.2,13.4l1.2,11.1  c0,0,0,1.2,2.3,1.2s1.8-1.8,1.8-1.8l-0.6-11.1c0,0,7.6-12.2,8.8-14s-1.2-5.8-4.7-2.9l-4.7,12.8L70,109.8c-0.5-1.1-1.7-1.9-2.9-1.8  c-2.3,0-2.3,2.3-2.3,3.5s2.9,15.2,2.9,15.2L59.5,114.4z"
     id="path6"
     style="fill:#000000;fill-opacity:1" /><g
     class="st1"
     id="g10"
     style="fill:#010101;fill-opacity:1"><path
       d="M59.5,114.4c-0.6-0.2-1.2-0.2-1.8,0c-1.8,1.2,1.8,5.2,1.8,5.2l9.3,11.1l1.2,11.1c0,0-0.3,1.2,1.2,1.2   c2-0.3,1.8-1.8,1.8-1.8l-0.6-11.1c0,0,7.6-12.2,8.8-14s-0.9-3.8-3.5-1.2l-5.8,12.8L70,109.8c0,0,0-1.2-2.3-1.2s-1.8,2.9-1.8,2.9   l2.9,16.9L59.5,114.4z"
       id="path8"
       style="fill:#010101;fill-opacity:1" /></g><path
     class="st0"
     d="M119,120.2c0-0.6-0.5-1.2-1.1-1.2c0,0,0,0,0,0l-11.1,2.9l-2.1,2c1.7-1.9,3.1-3.9,4.4-6.1  c1.2-2.3,2.3-1.8,2.3-1.8s2.9,0,3.5-1.8s-0.6-1.8-2.9-2.3c-1.5-0.3-3,0.1-4.1,1.2l-8.8,9.9l-3.5-5.2l1.8-3.5  c-1.8,2.3-12.2,5.2-12.2,5.2l5.2,1.2c2,1.7,3.8,3.7,5.2,5.8c1.8,2.9-2.3,14-2.3,14C93,143,97,142,98,138.3c0.5-2.8,1.2-5.5,2-8.1  c1.4,0.2,9.3,1.1,10.9,1.1c0.9,0,1.7-0.7,1.8-1.7c0,0,0-0.1,0-0.1l-5.8-3.5C106.8,126.1,119,121.4,119,120.2z"
     id="path12"
     style="fill:#000000;fill-opacity:1" /><g
     class="st1"
     id="g16"><path
       d="M99.8,126.7c2.3-1.8,6.6-8.3,9.2-12.1c2.2-1.6,4.9-2.2,6-0.2c-0.5,1.8-3.5,1.8-3.5,1.8s-1.2-0.6-2.3,1.8s-5.8,8.2-7.6,9.3   S98,138.3,98,138.3c-1,1.9-2,3-3.1,3L99.8,126.7z"
       id="path14" /></g><g
     class="st2"
     id="g20"
     style="fill:#010101;fill-opacity:1"><path
       d="M106.8,122l11.1-2.9c0.6,0,1.2,0.5,1.2,1.1c0,0,0,0,0,0c0,1.2-12.2,5.8-12.2,5.8l5.8,3.5c0,0.9-0.7,1.7-1.7,1.8   c0,0-0.1,0-0.1,0c-1.8,0-11.1-1.2-11.1-1.2l1.2-2.5L106.8,122z"
       id="path18"
       style="fill:#010101;fill-opacity:1" /></g><g
     class="st1"
     id="g24"
     style="fill:#010101;fill-opacity:1"><polygon
       points="92.4,118.2 97.7,125.2 99.2,123.1 95.6,118 97,115.1 92.4,117.6  "
       id="polygon22"
       style="fill:#010101;fill-opacity:1" /></g></svg>