<svg xmlns="http://www.w3.org/2000/svg" viewBox="0 0 160 160">
  <path d="M86.8 118.7L108 109c5.8 10.7 5 19.9 0 28.1l-21.2-10.8c.9-1.1 1.9-5.2 0-7.6z"/>
  <path d="M79.1 117.7l-26-12c-5.5 9.6-5.5 21.2 0 34.6l26.1-13.4c-1.2-1.3-3.8-5.4-.1-9.2z"/>
  <path d="M79.1 117.7l-26-12c-5.5 9.6-5.5 21.2 0 34.6l26.1-13.4c-1.2-1.3-3.8-5.4-.1-9.2z" fill="#fff" opacity=".15"/>
  <g fill="#010101" opacity=".5">
    <path d="M97.9 125.9l-7.1-1.6s-1.2-.1-1.1-.8c.1-.7 1.3-.5 1.3-.5l7.2.2c.7.1 1.2.8 1.1 1.5-.1.7-.7 1.2-1.4 1.2z"/>
    <path d="M98.2 120l-7.1 1.4s-1.1.4-1.3-.3c-.2-.7 1-1 1-1l6.8-2.7a1 1 0 011.4.9v.1c.3.7-.1 1.3-.8 1.6z"/>
    <path d="M66.8 127l9.1-2.2s1.6-.2 1.5-1c-.2-.6-1.8-.3-1.8-.3l-9.3.9c-.8 0-1.4.8-1.3 1.6.2.8 1 1.2 1.8 1z"/>
    <path d="M66.3 120l9.3 1.5s1.5.4 1.7-.3c.2-.7-1.3-1-1.3-1l-8.9-2.7c-.8-.2-1.6.2-1.9 1-.2.7.3 1.4 1.1 1.6z"/>
  </g>
  <circle cx="83.9" cy="122.1" r="6.7"/>
</svg>
