<?xml version="1.0" encoding="utf-8"?>
<!-- Generator: Adobe Illustrator 16.0.0, SVG Export Plug-In . SVG Version: 6.00 Build 0)  -->
<!DOCTYPE svg PUBLIC "-//W3C//DTD SVG 1.1//EN" "http://www.w3.org/Graphics/SVG/1.1/DTD/svg11.dtd">
<svg version="1.1" id="Layer_1" xmlns="http://www.w3.org/2000/svg" xmlns:xlink="http://www.w3.org/1999/xlink" x="0px" y="0px"
	 width="160px" height="160px" viewBox="0 0 160 160" enable-background="new 0 0 160 160" xml:space="preserve">
<g id="l16">
	
		<path fill="#42E742" stroke="#000000" stroke-width="1.7" stroke-linecap="round" stroke-linejoin="round" stroke-miterlimit="1.5" d="
		M85.011,154.268c0,0,3.126-19.641-16.245-24.734c-13.704-3.604-31.543,7.662-31.543,7.662s9.543-0.089,18.375,10.086
		C68.524,162.172,85.011,154.268,85.011,154.268z"/>
	
		<path fill="none" stroke="#000000" stroke-width="1.7" stroke-linecap="round" stroke-linejoin="round" stroke-miterlimit="1.5" d="
		M82.145,148.871c0,0,1.62-10.621-3.251-19.061c-3.317-5.742-1.649-10.381-1.649-10.381"/>
	
		<path fill="#42E742" stroke="#000000" stroke-width="1.7" stroke-linecap="round" stroke-linejoin="round" stroke-miterlimit="1.5" d="
		M81.847,154.74c0,0-4.23-17.414,19.412-24.105c16.729-4.736,30.614-28.232,30.614-28.232s-3.78,31.277-14.079,43.002
		C102.724,162.564,81.847,154.74,81.847,154.74z"/>
	
		<path fill="none" stroke="#000000" stroke-width="1.7" stroke-linecap="round" stroke-linejoin="round" stroke-miterlimit="1.5" d="
		M89.243,148.711c13.16-16.543,22.221-9.963,33.427-25.548"/>
	
		<path fill="none" stroke="#000000" stroke-width="1.7" stroke-linecap="round" stroke-linejoin="round" stroke-miterlimit="1.5" d="
		M76.325,148.389c-4.474-12.791-13.536-14.461-26.023-13.051"/>
</g>
</svg>
