<?xml version="1.0" encoding="UTF-8" standalone="no"?>
<!DOCTYPE svg PUBLIC "-//W3C//DTD SVG 1.1//EN" "http://www.w3.org/Graphics/SVG/1.1/DTD/svg11.dtd">
<svg width="100%" height="100%" viewBox="0 0 160 160" version="1.1" xmlns="http://www.w3.org/2000/svg" xmlns:xlink="http://www.w3.org/1999/xlink" xml:space="preserve" style="fill-rule:evenodd;clip-rule:evenodd;stroke-linecap:round;stroke-linejoin:round;">
    <g id="legs">
        <g id="football">
            <path id="STROKE_05F42428.-AA8C.-4206.-B6D2.-18DAA760A2C5" d="M118.332,137.769c0.108,-0.094 0.185,-0.158 0.232,-0.192c0.047,-0.034 0.101,-0.071 0.162,-0.112c0.061,-0.04 0.116,-0.077 0.165,-0.111c0.049,-0.034 0.1,-0.082 0.154,-0.143c0.054,-0.061 0.098,-0.12 0.133,-0.174c0.035,-0.055 0.069,-0.109 0.102,-0.163c0.033,-0.054 0.07,-0.108 0.112,-0.163c0.042,-0.054 0.083,-0.109 0.123,-0.164c0.04,-0.055 0.08,-0.112 0.12,-0.173c0.04,-0.059 0.088,-0.12 0.144,-0.182c0.055,-0.061 0.107,-0.126 0.154,-0.194c0.047,-0.067 0.094,-0.139 0.141,-0.215c0.047,-0.076 0.098,-0.154 0.154,-0.235c0.056,-0.081 0.11,-0.169 0.164,-0.264c0.054,-0.096 0.095,-0.17 0.123,-0.224c0.028,-0.053 0.055,-0.107 0.081,-0.162c0.026,-0.055 0.053,-0.113 0.081,-0.174c0.028,-0.062 0.055,-0.119 0.081,-0.173c0.026,-0.053 0.053,-0.111 0.081,-0.172c0.028,-0.062 0.056,-0.12 0.083,-0.175c0.028,-0.054 0.052,-0.109 0.071,-0.162c0.019,-0.054 0.053,-0.128 0.102,-0.224c0.049,-0.095 0.09,-0.183 0.123,-0.266c0.033,-0.082 0.067,-0.157 0.102,-0.225c0.034,-0.068 0.068,-0.142 0.102,-0.223c0.032,-0.081 0.066,-0.166 0.101,-0.255c0.035,-0.089 0.072,-0.177 0.112,-0.264c0.041,-0.088 0.081,-0.183 0.123,-0.284c0.042,-0.102 0.076,-0.181 0.102,-0.235c0.026,-0.055 0.06,-0.134 0.102,-0.235c0.042,-0.102 0.079,-0.204 0.112,-0.306c0.033,-0.102 0.067,-0.197 0.102,-0.286c0.035,-0.089 0.063,-0.181 0.084,-0.276c0.021,-0.096 0.044,-0.19 0.07,-0.284c0.026,-0.094 0.053,-0.192 0.081,-0.294c0.028,-0.102 0.056,-0.211 0.084,-0.327c0.027,-0.116 0.048,-0.205 0.06,-0.266c0.012,-0.062 0.025,-0.127 0.039,-0.194c0.014,-0.068 0.031,-0.136 0.052,-0.204c0.021,-0.068 0.038,-0.133 0.052,-0.194c0.014,-0.061 0.028,-0.126 0.042,-0.194c0.014,-0.068 0.027,-0.136 0.039,-0.204c0.013,-0.068 0.026,-0.132 0.039,-0.192c0.014,-0.06 0.025,-0.124 0.032,-0.192c0.007,-0.067 0.017,-0.132 0.031,-0.193c0.014,-0.062 0.025,-0.123 0.032,-0.185c0.007,-0.061 0.02,-0.149 0.041,-0.264c0.021,-0.115 0.038,-0.23 0.05,-0.347c0.012,-0.116 0.025,-0.228 0.039,-0.337c0.014,-0.108 0.028,-0.216 0.042,-0.325c0.014,-0.108 0.024,-0.21 0.031,-0.305c0.007,-0.096 0.014,-0.194 0.021,-0.296c0.007,-0.102 0.011,-0.204 0.011,-0.306c0,-0.101 0.003,-0.183 0.01,-0.244c0.007,-0.062 0.01,-0.147 0.01,-0.255l0,-1.622c0,-0.061 -0.006,-0.149 -0.02,-0.264c-0.014,-0.115 -0.028,-0.231 -0.042,-0.347c-0.014,-0.116 -0.032,-0.232 -0.052,-0.347c-0.021,-0.114 -0.035,-0.203 -0.042,-0.264c-0.007,-0.061 -0.017,-0.123 -0.029,-0.184c-0.012,-0.062 -0.022,-0.122 -0.029,-0.182c-0.007,-0.06 -0.024,-0.138 -0.052,-0.234c-0.028,-0.095 -0.052,-0.176 -0.073,-0.244c-0.021,-0.068 -0.037,-0.133 -0.05,-0.194c-0.012,-0.062 -0.035,-0.14 -0.07,-0.235c-0.035,-0.095 -0.072,-0.191 -0.112,-0.286c-0.041,-0.096 -0.078,-0.184 -0.113,-0.265c-0.035,-0.08 -0.062,-0.152 -0.083,-0.213c-0.021,-0.061 -0.041,-0.12 -0.06,-0.174c-0.019,-0.055 -0.039,-0.109 -0.06,-0.163c-0.021,-0.053 -0.046,-0.108 -0.074,-0.163c-0.027,-0.054 -0.051,-0.109 -0.07,-0.162c-0.019,-0.054 -0.039,-0.108 -0.06,-0.163c-0.021,-0.055 -0.042,-0.109 -0.063,-0.164c-0.021,-0.055 -0.042,-0.113 -0.062,-0.173c-0.021,-0.06 -0.041,-0.117 -0.06,-0.172c-0.02,-0.055 -0.043,-0.113 -0.071,-0.174c-0.028,-0.062 -0.052,-0.12 -0.073,-0.175c-0.021,-0.054 -0.041,-0.112 -0.06,-0.172c-0.02,-0.06 -0.05,-0.138 -0.092,-0.233c-0.041,-0.095 -0.086,-0.187 -0.133,-0.276c-0.047,-0.089 -0.098,-0.174 -0.154,-0.255c-0.056,-0.081 -0.11,-0.166 -0.164,-0.254c-0.054,-0.089 -0.112,-0.177 -0.173,-0.265c-0.061,-0.087 -0.125,-0.165 -0.193,-0.233c-0.068,-0.068 -0.139,-0.143 -0.214,-0.225c-0.075,-0.082 -0.133,-0.144 -0.173,-0.184c-0.04,-0.041 -0.097,-0.112 -0.172,-0.214c-0.075,-0.102 -0.153,-0.19 -0.235,-0.264c-0.082,-0.075 -0.144,-0.136 -0.185,-0.184c-0.042,-0.049 -0.08,-0.096 -0.113,-0.143c-0.033,-0.047 -0.07,-0.095 -0.112,-0.143c-0.042,-0.049 -0.083,-0.093 -0.123,-0.134c-0.04,-0.04 -0.077,-0.084 -0.112,-0.131c-0.035,-0.047 -0.069,-0.094 -0.102,-0.143c-0.033,-0.048 -0.067,-0.102 -0.102,-0.162c-0.035,-0.06 -0.086,-0.135 -0.154,-0.224c-0.068,-0.088 -0.132,-0.18 -0.193,-0.276c-0.061,-0.095 -0.122,-0.187 -0.183,-0.276c-0.061,-0.089 -0.109,-0.157 -0.143,-0.204c-0.035,-0.047 -0.083,-0.118 -0.144,-0.213c-0.061,-0.096 -0.108,-0.167 -0.141,-0.214c-0.033,-0.047 -0.071,-0.094 -0.113,-0.142c-0.041,-0.049 -0.079,-0.097 -0.112,-0.144c-0.033,-0.047 -0.067,-0.094 -0.101,-0.141c-0.036,-0.047 -0.073,-0.091 -0.113,-0.133c-0.04,-0.042 -0.081,-0.083 -0.123,-0.123c-0.042,-0.041 -0.1,-0.098 -0.175,-0.172c-0.075,-0.075 -0.136,-0.132 -0.183,-0.173c-0.047,-0.04 -0.111,-0.098 -0.193,-0.172c-0.082,-0.075 -0.163,-0.15 -0.245,-0.226c-0.082,-0.075 -0.164,-0.15 -0.246,-0.225c-0.082,-0.074 -0.163,-0.145 -0.245,-0.213c-0.082,-0.068 -0.146,-0.122 -0.193,-0.163c-0.047,-0.04 -0.112,-0.098 -0.194,-0.172c-0.082,-0.074 -0.16,-0.146 -0.235,-0.214c-0.074,-0.068 -0.149,-0.136 -0.224,-0.204c-0.075,-0.067 -0.153,-0.132 -0.235,-0.193c-0.082,-0.062 -0.161,-0.123 -0.236,-0.184c-0.074,-0.062 -0.149,-0.126 -0.224,-0.194c-0.075,-0.068 -0.153,-0.133 -0.235,-0.194c-0.082,-0.062 -0.164,-0.12 -0.246,-0.175c-0.081,-0.054 -0.163,-0.109 -0.245,-0.162c-0.082,-0.054 -0.17,-0.101 -0.264,-0.141c-0.094,-0.041 -0.189,-0.082 -0.284,-0.124c-0.096,-0.041 -0.192,-0.079 -0.288,-0.113c-0.095,-0.034 -0.197,-0.064 -0.305,-0.09c-0.108,-0.026 -0.21,-0.06 -0.306,-0.102c-0.096,-0.042 -0.188,-0.08 -0.277,-0.114c-0.088,-0.034 -0.18,-0.071 -0.274,-0.111c-0.094,-0.041 -0.185,-0.081 -0.274,-0.122c-0.089,-0.04 -0.178,-0.077 -0.266,-0.111c-0.089,-0.034 -0.178,-0.072 -0.267,-0.112c-0.089,-0.041 -0.178,-0.081 -0.266,-0.121c-0.089,-0.041 -0.18,-0.085 -0.274,-0.134c-0.094,-0.048 -0.189,-0.089 -0.285,-0.123c-0.096,-0.034 -0.192,-0.068 -0.287,-0.102c-0.096,-0.034 -0.194,-0.065 -0.295,-0.092c-0.101,-0.027 -0.18,-0.048 -0.235,-0.061c-0.056,-0.013 -0.131,-0.036 -0.225,-0.07c-0.094,-0.034 -0.192,-0.065 -0.295,-0.092c-0.103,-0.028 -0.202,-0.052 -0.298,-0.073c-0.096,-0.021 -0.19,-0.041 -0.284,-0.06c-0.094,-0.02 -0.169,-0.037 -0.225,-0.052c-0.056,-0.014 -0.131,-0.028 -0.225,-0.041c-0.094,-0.013 -0.189,-0.03 -0.285,-0.05c-0.095,-0.021 -0.187,-0.042 -0.276,-0.061c-0.089,-0.02 -0.18,-0.04 -0.274,-0.061c-0.094,-0.021 -0.193,-0.041 -0.296,-0.061c-0.102,-0.019 -0.202,-0.039 -0.297,-0.06c-0.096,-0.021 -0.201,-0.038 -0.316,-0.051c-0.115,-0.013 -0.228,-0.024 -0.337,-0.032c-0.11,-0.008 -0.219,-0.011 -0.327,-0.011l-0.989,0c-0.061,0 -0.122,0.003 -0.183,0.011c-0.061,0.008 -0.122,0.015 -0.183,0.022c-0.061,0.006 -0.123,0.013 -0.186,0.019c-0.062,0.007 -0.151,0.021 -0.266,0.042c-0.115,0.021 -0.227,0.041 -0.337,0.06c-0.109,0.02 -0.218,0.037 -0.326,0.051c-0.108,0.015 -0.217,0.032 -0.327,0.051c-0.109,0.02 -0.218,0.04 -0.326,0.061c-0.108,0.021 -0.21,0.038 -0.306,0.051c-0.095,0.013 -0.194,0.03 -0.295,0.051c-0.101,0.021 -0.203,0.041 -0.305,0.061c-0.103,0.019 -0.206,0.043 -0.308,0.07c-0.103,0.028 -0.202,0.055 -0.296,0.082c-0.094,0.028 -0.192,0.055 -0.295,0.083c-0.102,0.027 -0.202,0.051 -0.297,0.072c-0.096,0.021 -0.191,0.041 -0.285,0.061c-0.094,0.019 -0.185,0.04 -0.274,0.06c-0.089,0.021 -0.178,0.042 -0.267,0.061c-0.088,0.02 -0.174,0.04 -0.256,0.061c-0.081,0.021 -0.167,0.048 -0.255,0.082c-0.089,0.034 -0.181,0.075 -0.275,0.122c-0.094,0.047 -0.189,0.101 -0.285,0.162c-0.095,0.061 -0.166,0.109 -0.213,0.143c-0.047,0.034 -0.099,0.068 -0.155,0.102c-0.055,0.034 -0.11,0.068 -0.164,0.102c-0.054,0.034 -0.108,0.068 -0.162,0.102c-0.054,0.034 -0.108,0.071 -0.162,0.111c-0.054,0.041 -0.105,0.078 -0.154,0.112c-0.049,0.034 -0.124,0.082 -0.225,0.143c-0.101,0.061 -0.199,0.119 -0.295,0.174c-0.095,0.055 -0.184,0.106 -0.266,0.153c-0.082,0.047 -0.164,0.095 -0.246,0.143c-0.081,0.048 -0.156,0.09 -0.224,0.123c-0.068,0.034 -0.14,0.072 -0.215,0.112c-0.074,0.041 -0.146,0.081 -0.213,0.122c-0.068,0.04 -0.143,0.088 -0.225,0.142c-0.082,0.055 -0.164,0.113 -0.245,0.175c-0.082,0.061 -0.143,0.112 -0.183,0.153c-0.04,0.04 -0.105,0.101 -0.194,0.182c-0.089,0.081 -0.154,0.141 -0.195,0.182c-0.042,0.041 -0.087,0.082 -0.134,0.123c-0.047,0.042 -0.087,0.086 -0.12,0.133c-0.033,0.047 -0.07,0.091 -0.112,0.132c-0.042,0.04 -0.097,0.094 -0.165,0.162c-0.068,0.068 -0.136,0.133 -0.203,0.194c-0.068,0.062 -0.133,0.12 -0.194,0.175c-0.061,0.054 -0.118,0.105 -0.172,0.152c-0.054,0.047 -0.109,0.091 -0.165,0.132c-0.055,0.04 -0.114,0.081 -0.175,0.123c-0.06,0.042 -0.121,0.089 -0.182,0.143c-0.061,0.054 -0.126,0.114 -0.194,0.182c-0.067,0.068 -0.135,0.136 -0.203,0.204c-0.068,0.068 -0.133,0.139 -0.194,0.213c-0.06,0.075 -0.122,0.153 -0.185,0.235c-0.063,0.083 -0.121,0.164 -0.175,0.245c-0.054,0.081 -0.108,0.156 -0.162,0.223c-0.054,0.068 -0.108,0.133 -0.162,0.195c-0.054,0.061 -0.109,0.129 -0.164,0.203c-0.056,0.074 -0.114,0.15 -0.175,0.225c-0.061,0.076 -0.122,0.154 -0.183,0.235c-0.061,0.081 -0.122,0.162 -0.183,0.243c-0.061,0.081 -0.122,0.166 -0.183,0.255c-0.061,0.089 -0.108,0.157 -0.143,0.204c-0.035,0.047 -0.069,0.094 -0.102,0.143c-0.033,0.048 -0.067,0.095 -0.102,0.142c-0.035,0.047 -0.083,0.119 -0.144,0.214c-0.061,0.095 -0.122,0.187 -0.183,0.276c-0.06,0.089 -0.118,0.174 -0.172,0.255c-0.054,0.081 -0.109,0.162 -0.164,0.245c-0.056,0.082 -0.107,0.163 -0.154,0.245c-0.047,0.08 -0.094,0.165 -0.141,0.254c-0.047,0.089 -0.095,0.177 -0.144,0.265c-0.049,0.087 -0.093,0.175 -0.133,0.264c-0.04,0.089 -0.078,0.174 -0.113,0.255c-0.034,0.081 -0.068,0.162 -0.101,0.244c-0.034,0.083 -0.071,0.161 -0.113,0.235c-0.041,0.075 -0.079,0.156 -0.112,0.245c-0.033,0.089 -0.06,0.16 -0.081,0.214c-0.021,0.053 -0.042,0.108 -0.063,0.162c-0.021,0.055 -0.048,0.137 -0.081,0.245c-0.033,0.109 -0.056,0.194 -0.07,0.255c-0.014,0.061 -0.031,0.119 -0.052,0.172c-0.021,0.054 -0.039,0.111 -0.053,0.173c-0.014,0.061 -0.034,0.146 -0.06,0.254c-0.026,0.109 -0.053,0.218 -0.081,0.327c-0.027,0.11 -0.052,0.216 -0.073,0.318c-0.021,0.101 -0.037,0.193 -0.049,0.274c-0.013,0.081 -0.029,0.162 -0.05,0.245c-0.021,0.082 -0.038,0.167 -0.052,0.254c-0.014,0.088 -0.031,0.172 -0.052,0.255c-0.021,0.082 -0.041,0.17 -0.061,0.264c-0.019,0.094 -0.039,0.192 -0.06,0.294c-0.02,0.102 -0.041,0.208 -0.062,0.317c-0.021,0.11 -0.039,0.222 -0.052,0.337c-0.014,0.115 -0.028,0.223 -0.04,0.325c-0.012,0.102 -0.021,0.198 -0.029,0.286c-0.006,0.089 -0.01,0.174 -0.01,0.255l0,0.601c0,0.062 -0.003,0.123 -0.01,0.184c-0.007,0.062 -0.018,0.13 -0.032,0.204c-0.014,0.075 -0.024,0.149 -0.031,0.224c-0.007,0.074 -0.017,0.152 -0.031,0.235c-0.014,0.082 -0.025,0.167 -0.032,0.254c-0.007,0.088 -0.01,0.168 -0.01,0.243l0,0.917c0,0.074 0.007,0.149 0.021,0.225c0.014,0.076 0.028,0.144 0.041,0.206c0.015,0.061 0.025,0.129 0.032,0.203c0.007,0.075 0.01,0.146 0.01,0.214c0,0.068 0.004,0.136 0.011,0.203c0.007,0.068 0.017,0.136 0.031,0.204c0.014,0.068 0.027,0.136 0.039,0.204c0.012,0.068 0.026,0.132 0.04,0.194c0.013,0.061 0.031,0.122 0.052,0.182c0.021,0.06 0.042,0.121 0.062,0.182c0.021,0.062 0.038,0.126 0.05,0.194c0.012,0.068 0.025,0.14 0.039,0.215c0.014,0.076 0.025,0.155 0.032,0.235c0.006,0.082 0.013,0.166 0.02,0.255c0.007,0.089 0.014,0.174 0.021,0.255c0.007,0.081 0.018,0.152 0.031,0.213c0.015,0.062 0.032,0.126 0.053,0.194c0.021,0.068 0.041,0.133 0.06,0.194c0.019,0.061 0.043,0.119 0.07,0.172c0.028,0.054 0.056,0.108 0.084,0.163c0.028,0.055 0.051,0.113 0.07,0.174c0.02,0.062 0.04,0.13 0.061,0.204c0.021,0.075 0.045,0.149 0.073,0.223c0.028,0.075 0.048,0.153 0.06,0.235c0.012,0.083 0.032,0.161 0.06,0.235c0.028,0.075 0.052,0.146 0.073,0.214c0.021,0.068 0.045,0.132 0.071,0.194c0.026,0.061 0.053,0.119 0.08,0.172c0.028,0.054 0.056,0.108 0.084,0.163c0.028,0.055 0.058,0.116 0.091,0.184c0.033,0.068 0.064,0.128 0.092,0.182c0.028,0.054 0.055,0.108 0.081,0.163c0.026,0.054 0.057,0.116 0.091,0.184c0.035,0.068 0.066,0.132 0.094,0.194c0.028,0.061 0.059,0.129 0.092,0.203c0.033,0.075 0.07,0.146 0.112,0.214c0.042,0.068 0.082,0.136 0.123,0.204c0.04,0.067 0.083,0.129 0.13,0.183c0.047,0.055 0.095,0.11 0.144,0.163c0.049,0.054 0.096,0.105 0.143,0.153c0.047,0.048 0.092,0.096 0.134,0.143c0.041,0.047 0.086,0.098 0.133,0.153c0.047,0.055 0.09,0.109 0.13,0.162c0.041,0.054 0.081,0.108 0.123,0.163c0.042,0.055 0.083,0.109 0.123,0.165c0.04,0.054 0.084,0.109 0.133,0.162c0.049,0.053 0.1,0.111 0.154,0.172c0.054,0.062 0.112,0.12 0.172,0.175c0.062,0.054 0.119,0.105 0.173,0.152c0.054,0.047 0.111,0.102 0.172,0.163c0.061,0.061 0.123,0.123 0.186,0.184c0.062,0.062 0.121,0.119 0.175,0.172c0.054,0.054 0.115,0.111 0.183,0.173c0.067,0.061 0.128,0.126 0.182,0.194c0.054,0.068 0.112,0.132 0.173,0.194c0.061,0.061 0.122,0.122 0.185,0.184c0.063,0.061 0.125,0.123 0.185,0.184c0.061,0.061 0.122,0.119 0.183,0.172c0.061,0.054 0.129,0.108 0.204,0.163c0.075,0.055 0.146,0.11 0.214,0.164c0.068,0.055 0.133,0.106 0.194,0.153c0.06,0.047 0.132,0.101 0.214,0.163c0.081,0.061 0.156,0.119 0.224,0.172c0.068,0.054 0.136,0.108 0.204,0.163c0.068,0.054 0.139,0.113 0.214,0.174c0.075,0.061 0.146,0.123 0.214,0.184c0.068,0.062 0.136,0.122 0.204,0.182c0.068,0.06 0.136,0.118 0.204,0.172c0.067,0.055 0.135,0.11 0.203,0.165c0.068,0.055 0.14,0.102 0.215,0.143c0.074,0.041 0.153,0.078 0.235,0.112c0.081,0.034 0.167,0.065 0.256,0.092c0.088,0.027 0.177,0.051 0.266,0.07c0.089,0.02 0.184,0.044 0.287,0.071c0.103,0.027 0.201,0.055 0.295,0.082c0.094,0.028 0.189,0.058 0.285,0.092c0.096,0.034 0.188,0.071 0.277,0.112c0.089,0.04 0.177,0.081 0.266,0.121c0.089,0.041 0.177,0.082 0.264,0.124c0.087,0.041 0.178,0.079 0.274,0.113c0.096,0.034 0.188,0.064 0.277,0.09c0.089,0.026 0.174,0.053 0.256,0.081c0.082,0.027 0.169,0.051 0.263,0.072c0.095,0.021 0.186,0.041 0.275,0.061c0.089,0.019 0.177,0.04 0.266,0.06c0.089,0.021 0.181,0.046 0.277,0.073c0.096,0.027 0.188,0.055 0.277,0.082c0.089,0.028 0.173,0.054 0.253,0.08c0.08,0.027 0.165,0.054 0.254,0.081c0.088,0.027 0.181,0.055 0.276,0.082c0.096,0.028 0.192,0.052 0.288,0.073c0.095,0.02 0.197,0.041 0.305,0.06c0.108,0.02 0.217,0.04 0.327,0.061c0.109,0.021 0.215,0.042 0.316,0.063c0.1,0.021 0.202,0.041 0.305,0.06c0.103,0.02 0.202,0.037 0.298,0.051c0.096,0.015 0.183,0.028 0.264,0.041c0.08,0.013 0.161,0.027 0.243,0.04c0.081,0.013 0.16,0.027 0.235,0.041c0.074,0.014 0.149,0.028 0.224,0.041c0.075,0.013 0.153,0.027 0.235,0.041c0.082,0.014 0.167,0.028 0.256,0.041c0.089,0.013 0.174,0.023 0.256,0.03c0.082,0.006 0.174,0.013 0.277,0.019c0.103,0.007 0.204,0.014 0.305,0.022c0.101,0.008 0.196,0.015 0.285,0.021c0.089,0.007 0.164,0.013 0.225,0.02c0.061,0.006 0.132,0.013 0.214,0.02c0.082,0.006 0.16,0.012 0.235,0.019c0.075,0.007 0.149,0.017 0.224,0.031c0.075,0.015 0.143,0.025 0.204,0.032c0.061,0.006 0.122,0.013 0.183,0.019c0.061,0.007 0.125,0.01 0.193,0.01l2.706,0c0.061,0 0.125,-0.003 0.193,-0.01c0.068,-0.006 0.136,-0.023 0.204,-0.051c0.068,-0.027 0.139,-0.058 0.214,-0.092c0.075,-0.034 0.153,-0.068 0.235,-0.101c0.082,-0.035 0.157,-0.069 0.225,-0.102c0.068,-0.034 0.139,-0.065 0.214,-0.092c0.074,-0.028 0.146,-0.048 0.214,-0.061c0.068,-0.013 0.136,-0.023 0.204,-0.03c0.067,-0.006 0.133,-0.013 0.195,-0.019c0.063,-0.007 0.125,-0.014 0.186,-0.022c0.061,-0.008 0.122,-0.015 0.183,-0.021c0.061,-0.007 0.135,-0.021 0.224,-0.041c0.089,-0.021 0.164,-0.041 0.225,-0.061c0.061,-0.02 0.125,-0.043 0.193,-0.071c0.068,-0.027 0.136,-0.058 0.204,-0.092c0.068,-0.034 0.132,-0.071 0.193,-0.111c0.061,-0.041 0.122,-0.075 0.183,-0.102c0.061,-0.027 0.129,-0.058 0.204,-0.092c0.074,-0.034 0.146,-0.068 0.214,-0.102c0.067,-0.034 0.133,-0.068 0.195,-0.102c0.063,-0.034 0.122,-0.064 0.176,-0.092c0.054,-0.027 0.111,-0.055 0.172,-0.082c0.061,-0.028 0.118,-0.054 0.172,-0.081c0.054,-0.026 0.115,-0.052 0.183,-0.08c0.068,-0.027 0.133,-0.058 0.196,-0.092c0.063,-0.034 0.131,-0.068 0.204,-0.102c0.073,-0.034 0.147,-0.071 0.222,-0.111c0.074,-0.041 0.147,-0.085 0.216,-0.134c0.07,-0.048 0.132,-0.095 0.186,-0.142c0.054,-0.047 0.108,-0.091 0.162,-0.132c0.054,-0.04 0.111,-0.078 0.172,-0.111c0.061,-0.034 0.122,-0.075 0.183,-0.124c0.061,-0.048 0.125,-0.096 0.193,-0.143c0.068,-0.047 0.126,-0.091 0.175,-0.133c0.049,-0.042 0.097,-0.083 0.144,-0.123c0.047,-0.041 0.095,-0.085 0.143,-0.132c0.049,-0.047 0.097,-0.094 0.144,-0.143c0.047,-0.048 0.091,-0.092 0.131,-0.133c0.04,-0.04 0.08,-0.081 0.122,-0.121c0.042,-0.041 0.083,-0.081 0.123,-0.122c0.04,-0.04 0.078,-0.085 0.112,-0.133c0.035,-0.048 0.069,-0.102 0.102,-0.163c0.033,-0.06 0.074,-0.12 0.123,-0.182c0.049,-0.061 0.1,-0.133 0.154,-0.215c0.054,-0.082 0.108,-0.167 0.162,-0.255c0.054,-0.087 0.108,-0.172 0.162,-0.254c0.054,-0.083 0.109,-0.167 0.165,-0.255c0.055,-0.087 0.11,-0.175 0.164,-0.264c0.054,-0.089 0.104,-0.181 0.151,-0.277c0.047,-0.095 0.095,-0.194 0.144,-0.295c0.049,-0.102 0.083,-0.184 0.102,-0.245c0.019,-0.062 0.043,-0.126 0.07,-0.194c0.028,-0.068 0.053,-0.142 0.074,-0.223l0.031,-0.122" style="fill:none;stroke:#000;stroke-width:1.7px;" />
            <path id="STROKE_A181C176.-A335.-48ED.-870F.-38094CF89F16" d="M81.991,136.284c-0.041,0.11 -0.066,0.194 -0.073,0.254c-0.007,0.06 -0.01,0.121 -0.01,0.182c0,0.062 -0.007,0.055 -0.021,-0.019c-0.014,-0.074 -0.024,-0.142 -0.029,-0.204c-0.005,-0.061 -0.015,-0.126 -0.029,-0.194c-0.014,-0.068 -0.028,-0.132 -0.041,-0.194c-0.014,-0.061 -0.028,-0.122 -0.042,-0.182c-0.014,-0.06 -0.031,-0.134 -0.052,-0.223c-0.021,-0.089 -0.038,-0.164 -0.05,-0.225c-0.012,-0.062 -0.029,-0.13 -0.05,-0.204c-0.02,-0.074 -0.041,-0.152 -0.062,-0.233c-0.021,-0.081 -0.039,-0.169 -0.053,-0.265c-0.013,-0.095 -0.027,-0.19 -0.041,-0.285c-0.014,-0.096 -0.027,-0.191 -0.039,-0.287c-0.013,-0.095 -0.026,-0.19 -0.04,-0.285c-0.014,-0.096 -0.028,-0.181 -0.041,-0.255c-0.014,-0.074 -0.028,-0.142 -0.042,-0.204c-0.014,-0.061 -0.032,-0.126 -0.052,-0.193c-0.021,-0.068 -0.041,-0.129 -0.06,-0.183c-0.02,-0.053 -0.04,-0.108 -0.061,-0.162c-0.021,-0.055 -0.045,-0.11 -0.073,-0.165c-0.027,-0.055 -0.058,-0.109 -0.091,-0.162c-0.033,-0.054 -0.067,-0.108 -0.102,-0.163c-0.035,-0.055 -0.065,-0.113 -0.091,-0.174c-0.026,-0.062 -0.05,-0.119 -0.071,-0.173c-0.021,-0.053 -0.051,-0.101 -0.091,-0.143c-0.04,-0.042 -0.081,-0.083 -0.123,-0.123c-0.042,-0.041 -0.086,-0.078 -0.133,-0.112c-0.047,-0.034 -0.095,-0.068 -0.144,-0.102c-0.048,-0.034 -0.1,-0.067 -0.154,-0.101c-0.054,-0.034 -0.104,-0.068 -0.151,-0.102c-0.047,-0.034 -0.099,-0.068 -0.155,-0.102c-0.055,-0.034 -0.117,-0.054 -0.185,-0.061c-0.068,-0.006 -0.136,-0.013 -0.204,-0.019c-0.068,-0.007 -0.135,-0.01 -0.203,-0.01c-0.068,0 -0.14,-0.014 -0.214,-0.041c-0.075,-0.028 -0.147,-0.055 -0.214,-0.082c-0.068,-0.028 -0.136,-0.048 -0.204,-0.061c-0.068,-0.013 -0.136,-0.023 -0.204,-0.03c-0.068,-0.006 -0.139,-0.009 -0.214,-0.009l-0.428,0c-0.061,0 -0.129,-0.004 -0.204,-0.012c-0.075,-0.008 -0.143,-0.015 -0.204,-0.022c-0.061,-0.006 -0.122,-0.013 -0.183,-0.02c-0.061,-0.006 -0.119,-0.02 -0.174,-0.041c-0.056,-0.02 -0.115,-0.037 -0.176,-0.051c-0.061,-0.013 -0.121,-0.022 -0.183,-0.029c-0.06,-0.006 -0.125,-0.01 -0.193,-0.01l-1.572,0c-0.082,0 -0.156,-0.003 -0.224,-0.01c-0.068,-0.006 -0.14,-0.02 -0.215,-0.041c-0.075,-0.02 -0.149,-0.041 -0.224,-0.062c-0.075,-0.021 -0.15,-0.035 -0.225,-0.041c-0.075,-0.007 -0.146,-0.01 -0.214,-0.01c-0.068,0 -0.136,-0.003 -0.203,-0.01c-0.068,-0.007 -0.14,-0.013 -0.215,-0.019c-0.075,-0.007 -0.142,-0.018 -0.203,-0.032c-0.061,-0.014 -0.119,-0.031 -0.173,-0.051c-0.054,-0.019 -0.109,-0.046 -0.164,-0.08c-0.056,-0.034 -0.107,-0.068 -0.154,-0.102c-0.047,-0.034 -0.098,-0.068 -0.152,-0.102c-0.054,-0.034 -0.098,-0.075 -0.133,-0.123c-0.035,-0.049 -0.065,-0.099 -0.091,-0.153c-0.027,-0.054 -0.057,-0.108 -0.092,-0.163c-0.035,-0.055 -0.079,-0.099 -0.133,-0.133c-0.054,-0.034 -0.109,-0.068 -0.165,-0.102c-0.055,-0.034 -0.096,-0.081 -0.122,-0.143c-0.026,-0.061 -0.054,-0.122 -0.081,-0.184c-0.028,-0.061 -0.053,-0.119 -0.073,-0.172c-0.021,-0.054 -0.052,-0.101 -0.092,-0.141c-0.04,-0.041 -0.08,-0.085 -0.12,-0.133c-0.04,-0.049 -0.081,-0.093 -0.123,-0.134c-0.042,-0.04 -0.093,-0.064 -0.154,-0.07c-0.061,-0.006 -0.122,-0.01 -0.182,-0.01c-0.062,0 -0.119,0.014 -0.173,0.041c-0.054,0.028 -0.105,0.065 -0.154,0.112c-0.049,0.047 -0.097,0.098 -0.144,0.153c-0.047,0.055 -0.095,0.112 -0.143,0.172c-0.049,0.06 -0.09,0.114 -0.123,0.163c-0.033,0.048 -0.071,0.099 -0.112,0.152c-0.042,0.054 -0.09,0.115 -0.144,0.183c-0.054,0.068 -0.108,0.132 -0.162,0.193c-0.054,0.062 -0.108,0.12 -0.162,0.175c-0.054,0.055 -0.102,0.106 -0.144,0.153c-0.041,0.047 -0.086,0.094 -0.133,0.142c-0.047,0.049 -0.097,0.093 -0.151,0.134c-0.054,0.04 -0.109,0.081 -0.165,0.121c-0.055,0.041 -0.107,0.085 -0.154,0.134c-0.047,0.048 -0.097,0.102 -0.151,0.162c-0.054,0.06 -0.106,0.118 -0.154,0.172c-0.049,0.055 -0.097,0.106 -0.144,0.153c-0.047,0.047 -0.091,0.092 -0.131,0.133c-0.04,0.042 -0.084,0.08 -0.133,0.114c-0.048,0.034 -0.096,0.078 -0.143,0.131c-0.047,0.054 -0.092,0.105 -0.133,0.153c-0.042,0.048 -0.087,0.099 -0.134,0.153c-0.047,0.053 -0.09,0.104 -0.13,0.153c-0.04,0.048 -0.081,0.092 -0.123,0.133c-0.042,0.04 -0.086,0.084 -0.133,0.131c-0.047,0.047 -0.094,0.091 -0.141,0.131c-0.047,0.041 -0.092,0.085 -0.133,0.133c-0.042,0.049 -0.087,0.096 -0.134,0.143c-0.047,0.047 -0.098,0.095 -0.154,0.143c-0.056,0.049 -0.103,0.093 -0.143,0.133c-0.04,0.041 -0.087,0.081 -0.141,0.122c-0.054,0.04 -0.112,0.081 -0.173,0.121c-0.061,0.041 -0.119,0.085 -0.175,0.133c-0.055,0.049 -0.114,0.093 -0.175,0.134c-0.061,0.04 -0.118,0.088 -0.172,0.143c-0.054,0.054 -0.105,0.105 -0.152,0.152c-0.047,0.047 -0.094,0.094 -0.143,0.141c-0.049,0.047 -0.1,0.095 -0.154,0.143c-0.054,0.049 -0.112,0.1 -0.173,0.153c-0.06,0.054 -0.112,0.102 -0.154,0.143c-0.041,0.042 -0.093,0.09 -0.154,0.143c-0.061,0.054 -0.115,0.097 -0.162,0.131c-0.047,0.034 -0.101,0.079 -0.162,0.134c-0.061,0.055 -0.122,0.102 -0.185,0.143c-0.063,0.04 -0.117,0.081 -0.164,0.121c-0.047,0.041 -0.094,0.082 -0.141,0.123c-0.047,0.042 -0.095,0.08 -0.144,0.114c-0.049,0.034 -0.1,0.068 -0.154,0.102c-0.054,0.034 -0.112,0.064 -0.173,0.09c-0.061,0.026 -0.122,0.06 -0.183,0.102c-0.06,0.042 -0.128,0.083 -0.203,0.123c-0.075,0.041 -0.147,0.081 -0.214,0.122c-0.068,0.04 -0.133,0.081 -0.194,0.121c-0.06,0.041 -0.115,0.078 -0.164,0.112c-0.049,0.034 -0.104,0.068 -0.165,0.102c-0.06,0.034 -0.125,0.064 -0.193,0.092c-0.068,0.027 -0.132,0.051 -0.193,0.072c-0.061,0.021 -0.126,0.035 -0.194,0.041c-0.067,0.007 -0.135,0.013 -0.203,0.02c-0.068,0.007 -0.132,0.01 -0.193,0.01c-0.061,0 -0.127,0.006 -0.196,0.019c-0.07,0.013 -0.135,0.024 -0.196,0.032c-0.061,0.008 -0.125,0.018 -0.193,0.031c-0.068,0.013 -0.136,0.023 -0.204,0.029c-0.068,0.007 -0.132,0.013 -0.193,0.02c-0.061,0.007 -0.129,0.01 -0.204,0.01c-0.075,0 -0.146,0.004 -0.214,0.012c-0.068,0.007 -0.139,0.018 -0.214,0.031c-0.075,0.013 -0.147,0.03 -0.215,0.051c-0.067,0.021 -0.132,0.041 -0.193,0.06c-0.061,0.02 -0.119,0.04 -0.175,0.061c-0.055,0.021 -0.11,0.045 -0.164,0.073c-0.054,0.027 -0.112,0.047 -0.173,0.06c-0.061,0.013 -0.122,0.02 -0.182,0.02c-0.061,0 -0.122,0.003 -0.183,0.01c-0.061,0.006 -0.12,0.017 -0.175,0.031c-0.056,0.014 -0.118,0.028 -0.186,0.041c-0.068,0.013 -0.132,0.037 -0.193,0.071c-0.061,0.034 -0.111,0.075 -0.151,0.123c-0.04,0.048 -0.081,0.096 -0.123,0.143c-0.042,0.047 -0.079,0.094 -0.113,0.141c-0.032,0.047 -0.066,0.105 -0.101,0.173c-0.035,0.067 -0.065,0.132 -0.092,0.193c-0.026,0.062 -0.049,0.123 -0.07,0.185c-0.021,0.061 -0.042,0.129 -0.063,0.203c-0.021,0.075 -0.042,0.142 -0.063,0.204c-0.02,0.061 -0.037,0.129 -0.049,0.204c-0.012,0.074 -0.025,0.149 -0.039,0.225c-0.014,0.076 -0.028,0.151 -0.042,0.225c-0.014,0.074 -0.028,0.146 -0.042,0.214c-0.014,0.068 -0.028,0.139 -0.042,0.213c-0.014,0.075 -0.024,0.142 -0.031,0.204c-0.007,0.061 -0.02,0.129 -0.039,0.204c-0.019,0.074 -0.039,0.139 -0.06,0.193c-0.021,0.055 -0.032,0.113 -0.032,0.173l0,0.642c0,0.068 0.027,0.119 0.082,0.153c0.053,0.034 0.107,0.061 0.161,0.082c0.054,0.021 0.109,0.041 0.165,0.061c0.056,0.019 0.114,0.043 0.175,0.07c0.061,0.028 0.115,0.072 0.162,0.134c0.047,0.061 0.088,0.115 0.122,0.162c0.035,0.047 0.08,0.091 0.134,0.132c0.054,0.04 0.108,0.077 0.162,0.111c0.053,0.034 0.105,0.075 0.154,0.124c0.048,0.048 0.096,0.092 0.143,0.133c0.047,0.04 0.094,0.077 0.141,0.111c0.047,0.034 0.102,0.058 0.165,0.071c0.063,0.013 0.128,0.019 0.196,0.019c0.068,0 0.136,0.004 0.203,0.012c0.068,0.008 0.14,0.018 0.214,0.032c0.075,0.013 0.143,0.03 0.204,0.05c0.061,0.021 0.126,0.042 0.193,0.061c0.068,0.02 0.136,0.03 0.204,0.03l2.531,0c0.08,0 0.164,-0.004 0.253,-0.01c0.089,-0.007 0.178,-0.01 0.267,-0.01l1.039,0c0.075,0 0.15,-0.003 0.224,-0.01c0.075,-0.006 0.154,-0.017 0.235,-0.031c0.082,-0.014 0.154,-0.031 0.215,-0.051c0.061,-0.02 0.129,-0.043 0.203,-0.071c0.075,-0.027 0.154,-0.058 0.236,-0.092c0.081,-0.034 0.16,-0.064 0.235,-0.092c0.075,-0.027 0.149,-0.055 0.224,-0.082c0.075,-0.027 0.143,-0.051 0.204,-0.07c0.061,-0.02 0.119,-0.037 0.175,-0.051c0.055,-0.015 0.121,-0.022 0.196,-0.022c0.075,0 0.149,-0.003 0.224,-0.01c0.075,-0.006 0.153,-0.016 0.235,-0.029c0.082,-0.013 0.163,-0.03 0.243,-0.051c0.08,-0.021 0.155,-0.041 0.225,-0.061c0.069,-0.019 0.135,-0.036 0.195,-0.051c0.062,-0.014 0.126,-0.028 0.194,-0.041c0.068,-0.013 0.136,-0.026 0.204,-0.041c0.068,-0.014 0.139,-0.028 0.214,-0.041c0.075,-0.013 0.146,-0.023 0.214,-0.029c0.068,-0.007 0.136,-0.017 0.204,-0.032c0.067,-0.014 0.132,-0.025 0.193,-0.031c0.061,-0.007 0.132,-0.01 0.214,-0.01l0.919,0c0.068,0 0.143,-0.01 0.225,-0.029c0.082,-0.02 0.16,-0.043 0.235,-0.071c0.075,-0.027 0.16,-0.058 0.256,-0.092c0.096,-0.034 0.187,-0.065 0.274,-0.092c0.087,-0.027 0.171,-0.055 0.254,-0.082c0.081,-0.028 0.15,-0.048 0.206,-0.061c0.055,-0.013 0.127,-0.03 0.214,-0.051c0.087,-0.021 0.175,-0.038 0.263,-0.051c0.089,-0.013 0.175,-0.026 0.257,-0.041c0.081,-0.014 0.163,-0.028 0.245,-0.041c0.082,-0.013 0.164,-0.027 0.246,-0.041c0.081,-0.015 0.163,-0.028 0.245,-0.041c0.082,-0.013 0.164,-0.034 0.245,-0.061c0.082,-0.027 0.167,-0.051 0.254,-0.07c0.087,-0.02 0.175,-0.04 0.264,-0.061c0.088,-0.021 0.174,-0.045 0.255,-0.073c0.082,-0.027 0.164,-0.051 0.246,-0.07c0.082,-0.02 0.16,-0.037 0.235,-0.051c0.075,-0.014 0.15,-0.028 0.224,-0.041c0.075,-0.013 0.154,-0.027 0.236,-0.041c0.082,-0.015 0.16,-0.028 0.235,-0.042c0.075,-0.013 0.15,-0.026 0.224,-0.039c0.075,-0.013 0.146,-0.023 0.214,-0.031c0.068,-0.008 0.14,-0.018 0.215,-0.031c0.075,-0.013 0.153,-0.026 0.235,-0.04c0.081,-0.013 0.163,-0.03 0.245,-0.05c0.082,-0.021 0.166,-0.045 0.253,-0.073c0.087,-0.027 0.172,-0.055 0.254,-0.082c0.081,-0.028 0.167,-0.054 0.256,-0.081c0.088,-0.026 0.167,-0.046 0.235,-0.06c0.068,-0.015 0.139,-0.032 0.214,-0.051c0.075,-0.02 0.143,-0.037 0.204,-0.051c0.061,-0.014 0.119,-0.031 0.174,-0.051c0.056,-0.019 0.115,-0.043 0.176,-0.07c0.06,-0.028 0.118,-0.055 0.172,-0.083c0.054,-0.027 0.108,-0.054 0.162,-0.082c0.054,-0.027 0.109,-0.058 0.164,-0.092c0.056,-0.034 0.114,-0.065 0.175,-0.092c0.061,-0.028 0.122,-0.054 0.183,-0.081c0.061,-0.026 0.119,-0.052 0.173,-0.08c0.053,-0.027 0.114,-0.058 0.182,-0.092c0.068,-0.034 0.133,-0.068 0.194,-0.102c0.061,-0.034 0.119,-0.068 0.174,-0.102c0.056,-0.034 0.115,-0.075 0.176,-0.123c0.06,-0.048 0.114,-0.093 0.161,-0.133c0.047,-0.041 0.092,-0.084 0.134,-0.131c0.041,-0.047 0.086,-0.098 0.133,-0.153c0.047,-0.055 0.097,-0.116 0.151,-0.184c0.054,-0.068 0.108,-0.139 0.162,-0.214c0.054,-0.074 0.109,-0.153 0.165,-0.235c0.056,-0.082 0.107,-0.17 0.154,-0.264c0.047,-0.094 0.101,-0.196 0.162,-0.306c0.061,-0.109 0.105,-0.195 0.133,-0.256c0.028,-0.062 0.055,-0.122 0.081,-0.182c0.026,-0.061 0.049,-0.128 0.07,-0.204c0.021,-0.076 0.046,-0.151 0.074,-0.226c0.027,-0.074 0.048,-0.155 0.062,-0.242c0.014,-0.088 0.021,-0.176 0.021,-0.265l0,-0.489c0,-0.089 -0.021,-0.174 -0.063,-0.255c-0.041,-0.081 -0.096,-0.156 -0.164,-0.223l-0.102,-0.102" style="fill:none;stroke:#000;stroke-width:1.7px;" />
            <path id="STROKE_B6412161.-3844.-412E.-8A74.-466D557B6776" d="M72.992,139.261c0.108,0.052 0.169,0.038 0.183,-0.043c0.014,-0.081 0.02,-0.162 0.02,-0.243l0,-0.531c0,-0.095 -0.013,-0.191 -0.041,-0.286c-0.028,-0.095 -0.062,-0.19 -0.102,-0.286c-0.04,-0.095 -0.084,-0.194 -0.133,-0.296c-0.049,-0.101 -0.086,-0.179 -0.113,-0.233c-0.026,-0.053 -0.053,-0.111 -0.081,-0.172c-0.027,-0.061 -0.059,-0.119 -0.094,-0.174c-0.034,-0.055 -0.065,-0.109 -0.091,-0.163c-0.026,-0.053 -0.057,-0.104 -0.091,-0.153c-0.035,-0.048 -0.069,-0.099 -0.102,-0.152c-0.033,-0.054 -0.08,-0.125 -0.141,-0.214c-0.061,-0.089 -0.109,-0.157 -0.144,-0.204c-0.034,-0.047 -0.082,-0.118 -0.143,-0.213c-0.061,-0.096 -0.122,-0.191 -0.183,-0.286c-0.061,-0.095 -0.122,-0.191 -0.183,-0.286c-0.061,-0.096 -0.126,-0.187 -0.196,-0.274c-0.07,-0.088 -0.135,-0.169 -0.196,-0.245c-0.061,-0.076 -0.122,-0.145 -0.182,-0.206c-0.062,-0.061 -0.126,-0.122 -0.194,-0.182c-0.068,-0.06 -0.132,-0.121 -0.193,-0.182c-0.061,-0.061 -0.125,-0.123 -0.193,-0.184c-0.068,-0.062 -0.133,-0.123 -0.194,-0.184c-0.061,-0.062 -0.119,-0.116 -0.174,-0.163c-0.056,-0.047 -0.111,-0.098 -0.165,-0.153c-0.054,-0.055 -0.108,-0.102 -0.162,-0.143c-0.054,-0.04 -0.111,-0.081 -0.172,-0.121c-0.061,-0.041 -0.12,-0.081 -0.175,-0.122c-0.056,-0.04 -0.114,-0.074 -0.175,-0.101c-0.061,-0.028 -0.122,-0.055 -0.183,-0.083c-0.061,-0.027 -0.126,-0.054 -0.194,-0.082c-0.067,-0.027 -0.139,-0.055 -0.214,-0.082c-0.074,-0.027 -0.149,-0.051 -0.224,-0.071c-0.075,-0.019 -0.146,-0.036 -0.214,-0.051c-0.068,-0.014 -0.136,-0.028 -0.204,-0.041c-0.068,-0.013 -0.143,-0.026 -0.225,-0.039c-0.081,-0.013 -0.163,-0.027 -0.245,-0.041c-0.082,-0.014 -0.153,-0.025 -0.214,-0.031c-0.061,-0.007 -0.122,-0.013 -0.183,-0.02c-0.061,-0.007 -0.071,0.021 -0.032,0.082c0.041,0.062 0.088,0.116 0.144,0.163c0.056,0.047 0.118,0.098 0.186,0.153c0.068,0.054 0.148,0.112 0.242,0.172c0.094,0.06 0.166,0.107 0.215,0.141c0.049,0.034 0.103,0.068 0.164,0.102c0.061,0.034 0.119,0.068 0.173,0.102c0.054,0.034 0.111,0.072 0.172,0.113c0.061,0.042 0.122,0.083 0.183,0.124c0.061,0.04 0.119,0.084 0.175,0.131c0.056,0.047 0.114,0.095 0.175,0.143c0.061,0.048 0.122,0.102 0.182,0.163c0.061,0.06 0.119,0.12 0.173,0.182c0.054,0.061 0.109,0.129 0.164,0.205c0.056,0.076 0.108,0.151 0.155,0.226c0.047,0.074 0.09,0.148 0.13,0.223c0.04,0.074 0.074,0.149 0.102,0.223c0.028,0.075 0.058,0.149 0.091,0.223c0.033,0.075 0.067,0.153 0.102,0.235c0.035,0.083 0.063,0.161 0.084,0.235c0.021,0.075 0.041,0.146 0.06,0.214c0.019,0.068 0.039,0.136 0.06,0.204c0.021,0.068 0.038,0.132 0.052,0.194c0.014,0.061 0.028,0.126 0.042,0.194c0.014,0.067 0.031,0.159 0.052,0.274c0.021,0.115 0.038,0.227 0.05,0.337c0.012,0.109 0.029,0.218 0.049,0.327c0.021,0.108 0.039,0.216 0.052,0.325c0.015,0.108 0.032,0.217 0.053,0.325c0.021,0.108 0.044,0.214 0.071,0.316c0.026,0.101 0.052,0.2 0.08,0.295c0.028,0.095 0.053,0.187 0.073,0.276c0.021,0.089 0.038,0.174 0.05,0.255c0.012,0.081 0.022,0.159 0.029,0.233c0.007,0.075 0.014,0.142 0.02,0.204c0.008,0.061 0.011,0.123 0.011,0.184c0,0.061 0.007,0.123 0.021,0.184c0.014,0.061 0.035,0.119 0.063,0.172c0.027,0.054 0.045,0.034 0.052,-0.06l0.01,-0.141" style="fill:none;stroke:#000;stroke-width:1.7px;" />
            <path id="STROKE_84C5B485.-A887.-4EC3.-9035.-C6A88B1F0114" d="M65.518,140.561c0.125,0 0.208,-0.03 0.248,-0.09c0.04,-0.06 0.06,-0.128 0.06,-0.203l0,-1.04c0,-0.062 -0.004,-0.123 -0.011,-0.182c-0.007,-0.061 -0.017,-0.121 -0.031,-0.183c-0.014,-0.061 -0.037,-0.147 -0.071,-0.256c-0.033,-0.11 -0.07,-0.209 -0.112,-0.296c-0.042,-0.088 -0.086,-0.176 -0.133,-0.265c-0.047,-0.088 -0.101,-0.173 -0.162,-0.254c-0.061,-0.081 -0.125,-0.169 -0.193,-0.265c-0.068,-0.095 -0.119,-0.166 -0.154,-0.213c-0.035,-0.047 -0.073,-0.098 -0.113,-0.153c-0.04,-0.055 -0.08,-0.105 -0.122,-0.152c-0.042,-0.048 -0.083,-0.099 -0.123,-0.154c-0.04,-0.054 -0.078,-0.106 -0.112,-0.154c-0.035,-0.048 -0.073,-0.096 -0.113,-0.143c-0.04,-0.047 -0.094,-0.108 -0.161,-0.182c-0.068,-0.075 -0.127,-0.136 -0.176,-0.184c-0.048,-0.049 -0.107,-0.093 -0.175,-0.133c-0.068,-0.041 -0.135,-0.068 -0.203,-0.081c-0.068,-0.013 -0.132,-0.023 -0.193,-0.029c-0.061,-0.007 -0.085,0.02 -0.071,0.08c0.014,0.06 0.031,0.118 0.052,0.173c0.021,0.054 0.039,0.116 0.053,0.183c0.013,0.068 0.03,0.144 0.049,0.226c0.019,0.082 0.043,0.157 0.07,0.225c0.028,0.068 0.056,0.132 0.084,0.192c0.028,0.06 0.062,0.128 0.102,0.204c0.04,0.075 0.08,0.15 0.12,0.225c0.04,0.074 0.085,0.155 0.133,0.243c0.049,0.087 0.097,0.175 0.144,0.264c0.047,0.089 0.098,0.184 0.152,0.286c0.053,0.102 0.105,0.204 0.154,0.306c0.048,0.102 0.093,0.2 0.133,0.296c0.04,0.095 0.077,0.187 0.112,0.276c0.035,0.088 0.062,0.16 0.081,0.213c0.019,0.054 0.039,0.125 0.06,0.214c0.021,0.089 0.038,0.173 0.052,0.254c0.014,0.081 0.028,0.156 0.042,0.224c0.014,0.067 0.021,0.135 0.021,0.203l0,0.776" style="fill:none;stroke:#000;stroke-width:1.7px;" />
            <path id="STROKE_138D2CBB.-66CD.-4765.-8B67.-77E37B012234" d="M81.192,121.265c0.042,-0.107 0.05,-0.104 0.024,0.011c-0.026,0.115 -0.05,0.217 -0.071,0.306c-0.021,0.089 -0.042,0.174 -0.062,0.255c-0.021,0.08 -0.046,0.179 -0.074,0.295c-0.027,0.116 -0.051,0.232 -0.07,0.347c-0.019,0.115 -0.039,0.237 -0.06,0.366c-0.021,0.13 -0.045,0.272 -0.073,0.427c-0.028,0.156 -0.052,0.312 -0.071,0.469c-0.019,0.156 -0.035,0.306 -0.049,0.448c-0.014,0.142 -0.032,0.305 -0.053,0.489c-0.021,0.185 -0.035,0.365 -0.041,0.541c-0.007,0.177 -0.018,0.353 -0.032,0.529c-0.014,0.176 -0.027,0.356 -0.039,0.541c-0.012,0.184 -0.025,0.367 -0.039,0.55c-0.014,0.183 -0.028,0.366 -0.042,0.55c-0.014,0.184 -0.028,0.371 -0.042,0.561c-0.014,0.189 -0.024,0.372 -0.031,0.55c-0.007,0.177 -0.017,0.351 -0.032,0.521c-0.013,0.17 -0.023,0.332 -0.028,0.487c-0.005,0.156 -0.011,0.298 -0.019,0.428c-0.006,0.129 -0.013,0.258 -0.02,0.387c-0.007,0.13 -0.014,0.249 -0.021,0.357c-0.007,0.108 -0.014,0.204 -0.021,0.286c-0.007,0.082 -0.01,0.164 -0.01,0.245c0,0.081 0,0.152 0,0.213c0,0.062 -0.004,0.13 -0.011,0.204c-0.007,0.074 -0.024,0.139 -0.052,0.194c-0.028,0.055 -0.083,0.085 -0.165,0.092l-0.123,0.01" style="fill:none;stroke:#000;stroke-width:1.7px;" />
            <path id="STROKE_4CE9B5C6.-8B56.-48FA.-B9A0.-4220E47EC1F2" d="M72.114,120.798c0.039,0.175 0.061,0.314 0.068,0.416c0.007,0.101 0.011,0.186 0.011,0.254c0,0.068 0.003,0.143 0.01,0.226c0.007,0.082 0.011,0.18 0.011,0.295l0,1.232c0,0.164 0.003,0.337 0.01,0.521c0.007,0.184 0.01,0.374 0.01,0.57c0,0.196 0.004,0.396 0.011,0.6c0.007,0.203 0.014,0.411 0.021,0.622c0.007,0.212 0.014,0.42 0.021,0.623c0.007,0.204 0.017,0.404 0.031,0.602c0.014,0.197 0.027,0.387 0.039,0.57c0.013,0.183 0.022,0.348 0.029,0.497c0.007,0.149 0.017,0.305 0.031,0.468c0.014,0.164 0.025,0.317 0.032,0.46c0.007,0.144 0.01,0.28 0.01,0.408l0,0.192" style="fill:none;stroke:#000;stroke-width:1.7px;" />
            <path id="STROKE_E044CAF3.-E4E3.-44F1.-BDA1.-4F9B0688AC7D" d="M110.718,127.476l0,-5.063c0,-0.061 -0.003,-0.122 -0.01,-0.182c-0.007,-0.06 -0.014,-0.121 -0.021,-0.182c-0.007,-0.062 -0.01,-0.126 -0.01,-0.194c0,-0.068 -0.014,-0.129 -0.042,-0.184c-0.028,-0.055 -0.069,-0.093 -0.123,-0.114c-0.054,-0.021 -0.105,-0.048 -0.152,-0.082c-0.047,-0.034 -0.101,-0.068 -0.161,-0.102c-0.061,-0.034 -0.12,-0.068 -0.175,-0.102c-0.056,-0.034 -0.114,-0.068 -0.175,-0.102c-0.061,-0.034 -0.126,-0.054 -0.194,-0.061c-0.068,-0.006 -0.135,-0.016 -0.203,-0.029c-0.068,-0.013 -0.136,-0.03 -0.204,-0.051c-0.068,-0.021 -0.129,-0.041 -0.183,-0.061c-0.054,-0.019 -0.111,-0.039 -0.172,-0.06c-0.061,-0.021 -0.123,-0.035 -0.186,-0.041c-0.062,-0.007 -0.124,-0.021 -0.185,-0.042c-0.061,-0.02 -0.118,-0.044 -0.172,-0.072c-0.054,-0.027 -0.112,-0.058 -0.173,-0.092c-0.061,-0.034 -0.118,-0.071 -0.172,-0.112c-0.054,-0.04 -0.112,-0.074 -0.175,-0.101c-0.063,-0.028 -0.118,-0.059 -0.165,-0.093c-0.047,-0.033 -0.097,-0.063 -0.151,-0.089c-0.054,-0.027 -0.112,-0.054 -0.172,-0.081c-0.061,-0.027 -0.12,-0.058 -0.176,-0.092c-0.055,-0.034 -0.117,-0.061 -0.185,-0.082c-0.068,-0.021 -0.129,-0.041 -0.183,-0.061c-0.054,-0.02 -0.111,-0.043 -0.172,-0.071c-0.061,-0.027 -0.116,-0.058 -0.165,-0.091c-0.048,-0.035 -0.103,-0.062 -0.164,-0.083c-0.061,-0.021 -0.115,-0.051 -0.162,-0.092c-0.047,-0.04 -0.104,-0.068 -0.172,-0.082c-0.068,-0.015 -0.126,-0.039 -0.173,-0.072c-0.047,-0.035 -0.105,-0.058 -0.175,-0.071c-0.069,-0.013 -0.131,-0.033 -0.185,-0.061c-0.054,-0.027 -0.108,-0.058 -0.162,-0.092c-0.054,-0.034 -0.112,-0.065 -0.172,-0.092c-0.061,-0.027 -0.119,-0.054 -0.173,-0.08c-0.054,-0.026 -0.118,-0.04 -0.193,-0.04c-0.075,0 -0.144,-0.01 -0.206,-0.031c-0.063,-0.021 -0.128,-0.031 -0.196,-0.031c-0.068,0 -0.132,0 -0.193,0c-0.061,0 -0.119,-0.014 -0.173,-0.041c-0.054,-0.028 -0.098,-0.065 -0.133,-0.112c-0.035,-0.047 -0.083,-0.067 -0.144,-0.061c-0.061,0.007 -0.111,0.03 -0.151,0.071c-0.04,0.04 -0.078,0.088 -0.112,0.143c-0.035,0.055 -0.069,0.106 -0.102,0.153c-0.033,0.047 -0.06,0.101 -0.081,0.162c-0.021,0.062 -0.053,0.12 -0.094,0.175c-0.042,0.054 -0.079,0.109 -0.113,0.162c-0.033,0.054 -0.067,0.111 -0.102,0.172c-0.034,0.062 -0.065,0.12 -0.091,0.175c-0.026,0.054 -0.053,0.109 -0.081,0.162c-0.028,0.054 -0.058,0.111 -0.091,0.173c-0.033,0.061 -0.064,0.119 -0.091,0.174c-0.028,0.055 -0.06,0.116 -0.094,0.184c-0.035,0.068 -0.066,0.129 -0.092,0.182c-0.026,0.054 -0.056,0.108 -0.091,0.163c-0.035,0.055 -0.076,0.109 -0.123,0.164c-0.047,0.055 -0.094,0.113 -0.141,0.173c-0.047,0.06 -0.088,0.114 -0.123,0.162c-0.035,0.049 -0.07,0.096 -0.104,0.143c-0.035,0.047 -0.073,0.098 -0.113,0.153c-0.04,0.055 -0.08,0.106 -0.12,0.153c-0.04,0.047 -0.081,0.091 -0.123,0.133c-0.041,0.042 -0.079,0.1 -0.112,0.174c-0.033,0.075 -0.07,0.146 -0.112,0.214c-0.042,0.068 -0.079,0.133 -0.112,0.194c-0.033,0.061 -0.074,0.119 -0.123,0.172c-0.049,0.054 -0.097,0.111 -0.144,0.172c-0.047,0.062 -0.088,0.116 -0.122,0.163c-0.035,0.047 -0.076,0.101 -0.123,0.163c-0.047,0.061 -0.088,0.119 -0.123,0.174c-0.035,0.055 -0.072,0.113 -0.112,0.174c-0.041,0.062 -0.077,0.119 -0.11,0.173c-0.033,0.053 -0.071,0.104 -0.112,0.153c-0.042,0.048 -0.083,0.096 -0.123,0.143c-0.04,0.047 -0.081,0.09 -0.123,0.131c-0.042,0.04 -0.079,0.085 -0.112,0.133c-0.033,0.048 -0.06,0.099 -0.081,0.153c-0.021,0.053 -0.031,0.111 -0.031,0.172c0,0.061 0.003,0.123 0.01,0.184c0.007,0.062 0.024,0.123 0.05,0.184c0.026,0.062 0.049,0.126 0.07,0.194c0.021,0.068 0.045,0.133 0.073,0.194c0.028,0.061 0.059,0.122 0.092,0.182c0.033,0.06 0.063,0.121 0.091,0.182c0.028,0.062 0.052,0.13 0.073,0.206c0.021,0.076 0.041,0.151 0.06,0.225c0.02,0.075 0.036,0.152 0.05,0.233c0.014,0.081 0.031,0.156 0.052,0.224c0.021,0.068 0.048,0.129 0.081,0.184c0.033,0.055 0.071,0.102 0.112,0.143c0.042,0.04 0.087,0.084 0.134,0.131c0.047,0.047 0.088,0.098 0.122,0.153c0.035,0.055 0.066,0.113 0.092,0.174c0.026,0.062 0.053,0.123 0.081,0.184c0.028,0.062 0.059,0.119 0.094,0.173c0.035,0.053 0.079,0.104 0.133,0.152c0.054,0.049 0.101,0.1 0.141,0.153c0.04,0.054 0.077,0.104 0.112,0.153c0.035,0.048 0.072,0.103 0.112,0.164c0.041,0.062 0.081,0.119 0.123,0.173c0.042,0.053 0.083,0.104 0.123,0.153c0.04,0.048 0.084,0.096 0.133,0.143c0.049,0.047 0.097,0.09 0.144,0.131c0.047,0.04 0.09,0.091 0.13,0.153c0.04,0.061 0.078,0.115 0.113,0.162c0.034,0.047 0.068,0.098 0.102,0.153c0.033,0.055 0.067,0.116 0.102,0.184c0.034,0.068 0.072,0.126 0.112,0.173c0.04,0.047 0.07,0.097 0.091,0.152c0.021,0.055 0.042,0.11 0.063,0.165c0.021,0.055 0.042,0.109 0.063,0.162c0.021,0.054 0.041,0.108 0.06,0.163c0.019,0.055 0.053,0.099 0.101,0.133c0.049,0.034 0.104,0.051 0.165,0.051l0.548,0c0.061,0 0.129,-0.007 0.204,-0.02c0.075,-0.013 0.146,-0.026 0.214,-0.041c0.068,-0.014 0.133,-0.035 0.196,-0.063c0.063,-0.027 0.125,-0.061 0.186,-0.101c0.06,-0.041 0.118,-0.081 0.172,-0.122c0.054,-0.04 0.111,-0.078 0.172,-0.111c0.061,-0.034 0.119,-0.065 0.173,-0.092c0.054,-0.028 0.112,-0.052 0.174,-0.073c0.063,-0.021 0.128,-0.038 0.196,-0.051c0.068,-0.013 0.14,-0.023 0.215,-0.029c0.075,-0.007 0.149,-0.013 0.224,-0.02c0.075,-0.006 0.147,-0.013 0.214,-0.021c0.068,-0.008 0.14,-0.022 0.215,-0.041c0.074,-0.02 0.146,-0.04 0.213,-0.061c0.068,-0.021 0.133,-0.038 0.194,-0.051c0.061,-0.013 0.125,-0.03 0.193,-0.051c0.068,-0.021 0.136,-0.041 0.204,-0.061c0.068,-0.019 0.136,-0.033 0.204,-0.041c0.067,-0.008 0.139,-0.015 0.214,-0.022c0.074,-0.006 0.146,-0.013 0.214,-0.019c0.068,-0.007 0.136,-0.013 0.203,-0.02c0.068,-0.006 0.133,-0.01 0.194,-0.01c0.061,0 0.126,0 0.196,0c0.069,0 0.138,-0.003 0.206,-0.009c0.068,-0.007 0.136,-0.024 0.204,-0.051c0.068,-0.027 0.136,-0.048 0.203,-0.063c0.068,-0.014 0.133,-0.031 0.193,-0.051c0.062,-0.019 0.122,-0.029 0.183,-0.029c0.061,0 0.126,-0.007 0.194,-0.022c0.068,-0.014 0.135,-0.025 0.203,-0.031c0.068,-0.006 0.133,-0.016 0.194,-0.029c0.061,-0.014 0.119,-0.03 0.175,-0.051c0.055,-0.021 0.114,-0.035 0.175,-0.041l0.091,-0.01" style="fill:none;stroke:#000;stroke-width:1.7px;" />
            <path id="STROKE_88026AD8.-6F89.-45CF.-8710.-08BCF46C0599" d="M109.287,124.848c-0.024,0.122 -0.057,0.235 -0.099,0.336c-0.042,0.102 -0.077,0.184 -0.105,0.245c-0.027,0.062 -0.051,0.123 -0.07,0.185c-0.019,0.061 -0.043,0.126 -0.071,0.194c-0.027,0.067 -0.058,0.138 -0.091,0.213c-0.033,0.074 -0.064,0.149 -0.091,0.223c-0.028,0.075 -0.06,0.15 -0.094,0.225c-0.035,0.076 -0.069,0.151 -0.102,0.226c-0.033,0.074 -0.067,0.148 -0.102,0.223c-0.035,0.074 -0.069,0.156 -0.102,0.245c-0.033,0.089 -0.071,0.17 -0.112,0.245c-0.042,0.074 -0.079,0.152 -0.113,0.233c-0.033,0.081 -0.067,0.166 -0.101,0.254c-0.035,0.089 -0.066,0.168 -0.092,0.235c-0.026,0.068 -0.057,0.136 -0.091,0.204c-0.035,0.068 -0.066,0.13 -0.094,0.184c-0.028,0.055 -0.066,0.134 -0.113,0.235c-0.047,0.102 -0.087,0.177 -0.12,0.224c-0.033,0.047 -0.077,0.084 -0.133,0.111c-0.055,0.028 -0.087,0.004 -0.094,-0.07c-0.007,-0.075 -0.01,-0.143 -0.01,-0.204c0,-0.061 0,-0.129 0,-0.204c0,-0.074 0.017,-0.162 0.052,-0.264c0.035,-0.102 0.066,-0.194 0.094,-0.276c0.028,-0.082 0.055,-0.164 0.081,-0.245c0.026,-0.081 0.053,-0.163 0.081,-0.245c0.028,-0.082 0.062,-0.178 0.102,-0.286c0.04,-0.108 0.074,-0.213 0.102,-0.315c0.027,-0.102 0.061,-0.204 0.101,-0.306c0.041,-0.102 0.078,-0.207 0.113,-0.315c0.035,-0.109 0.069,-0.221 0.102,-0.337c0.033,-0.116 0.063,-0.229 0.091,-0.337c0.028,-0.108 0.056,-0.217 0.084,-0.325c0.027,-0.109 0.054,-0.21 0.08,-0.306c0.027,-0.095 0.05,-0.194 0.071,-0.295c0.021,-0.102 0.042,-0.187 0.063,-0.255c0.021,-0.068 0.041,-0.142 0.062,-0.223c0.021,-0.081 0.038,-0.16 0.05,-0.235c0.012,-0.076 0.029,-0.145 0.05,-0.206c0.021,-0.062 0.045,-0.143 0.073,-0.245c0.028,-0.102 0.051,-0.19 0.07,-0.264c0.019,-0.075 0.036,-0.146 0.05,-0.214c0.014,-0.068 0.021,-0.132 0.021,-0.194c0,-0.061 -0.027,-0.081 -0.081,-0.06c-0.054,0.02 -0.101,0.054 -0.141,0.101c-0.04,0.047 -0.085,0.102 -0.133,0.163c-0.049,0.061 -0.101,0.136 -0.155,0.225c-0.053,0.089 -0.098,0.16 -0.133,0.214c-0.034,0.053 -0.068,0.108 -0.102,0.162c-0.033,0.055 -0.07,0.12 -0.112,0.194c-0.042,0.075 -0.082,0.156 -0.123,0.245c-0.04,0.089 -0.083,0.181 -0.13,0.276c-0.047,0.095 -0.092,0.187 -0.133,0.274c-0.042,0.088 -0.087,0.2 -0.134,0.335c-0.047,0.136 -0.094,0.255 -0.143,0.357c-0.049,0.102 -0.097,0.217 -0.144,0.347c-0.047,0.129 -0.094,0.258 -0.141,0.387c-0.047,0.13 -0.098,0.259 -0.154,0.388c-0.056,0.129 -0.111,0.259 -0.164,0.388c-0.054,0.129 -0.108,0.254 -0.162,0.376c-0.054,0.121 -0.108,0.24 -0.162,0.357c-0.054,0.116 -0.106,0.231 -0.154,0.346c-0.049,0.115 -0.097,0.224 -0.144,0.325c-0.047,0.102 -0.088,0.187 -0.123,0.255c-0.035,0.068 -0.069,0.132 -0.101,0.194c-0.034,0.061 -0.068,0.119 -0.102,0.174c-0.035,0.055 -0.08,0.109 -0.133,0.163c-0.055,0.053 -0.112,0.084 -0.173,0.092c-0.061,0.008 -0.098,-0.019 -0.112,-0.08c-0.014,-0.062 -0.021,-0.154 -0.021,-0.277c0,-0.122 0.01,-0.258 0.031,-0.407c0.021,-0.149 0.045,-0.254 0.071,-0.315c0.026,-0.062 0.053,-0.147 0.08,-0.255c0.028,-0.108 0.06,-0.21 0.094,-0.306c0.036,-0.095 0.069,-0.187 0.102,-0.276c0.034,-0.088 0.068,-0.19 0.102,-0.305c0.035,-0.115 0.073,-0.224 0.113,-0.325c0.04,-0.102 0.081,-0.215 0.122,-0.337c0.042,-0.123 0.083,-0.229 0.123,-0.318c0.04,-0.088 0.084,-0.193 0.131,-0.315c0.047,-0.121 0.095,-0.24 0.143,-0.357c0.049,-0.116 0.097,-0.228 0.144,-0.336c0.047,-0.109 0.097,-0.234 0.152,-0.376c0.054,-0.143 0.098,-0.268 0.133,-0.376c0.034,-0.109 0.072,-0.221 0.112,-0.337c0.04,-0.117 0.074,-0.229 0.102,-0.337c0.028,-0.109 0.055,-0.214 0.083,-0.316c0.028,-0.101 0.052,-0.19 0.071,-0.264c0.019,-0.074 0.036,-0.149 0.05,-0.223c0.013,-0.075 0.027,-0.143 0.041,-0.204c0.014,-0.061 0.028,-0.129 0.042,-0.204c0.014,-0.074 -0.003,-0.091 -0.052,-0.051c-0.049,0.041 -0.09,0.098 -0.123,0.173c-0.033,0.074 -0.07,0.139 -0.112,0.194c-0.042,0.054 -0.09,0.126 -0.144,0.213c-0.054,0.088 -0.104,0.173 -0.151,0.255c-0.047,0.082 -0.101,0.17 -0.162,0.264c-0.061,0.094 -0.125,0.193 -0.193,0.296c-0.068,0.103 -0.134,0.212 -0.196,0.327c-0.063,0.115 -0.132,0.223 -0.207,0.325c-0.075,0.102 -0.152,0.224 -0.232,0.366c-0.08,0.143 -0.161,0.282 -0.243,0.418c-0.082,0.136 -0.164,0.271 -0.245,0.407c-0.082,0.136 -0.161,0.272 -0.236,0.408c-0.074,0.135 -0.142,0.261 -0.203,0.378c-0.061,0.116 -0.125,0.234 -0.193,0.356c-0.068,0.121 -0.134,0.247 -0.196,0.376c-0.063,0.129 -0.121,0.248 -0.175,0.357c-0.054,0.108 -0.105,0.213 -0.152,0.315c-0.047,0.102 -0.095,0.197 -0.143,0.286c-0.049,0.089 -0.09,0.16 -0.123,0.215c-0.033,0.055 -0.067,0.109 -0.102,0.163c-0.035,0.053 -0.065,0.108 -0.092,0.162c-0.026,0.055 -0.063,0.106 -0.112,0.153c-0.048,0.047 -0.093,0.037 -0.133,-0.031c-0.04,-0.068 -0.06,-0.153 -0.06,-0.255c0,-0.102 0.01,-0.21 0.031,-0.325c0.021,-0.115 0.041,-0.203 0.061,-0.264c0.019,-0.062 0.039,-0.123 0.06,-0.184c0.02,-0.062 0.045,-0.126 0.073,-0.194c0.027,-0.068 0.051,-0.136 0.07,-0.204c0.019,-0.068 0.043,-0.146 0.071,-0.233c0.027,-0.088 0.055,-0.176 0.083,-0.265c0.028,-0.088 0.055,-0.16 0.081,-0.215c0.026,-0.055 0.053,-0.129 0.081,-0.223c0.028,-0.094 0.056,-0.183 0.084,-0.265c0.027,-0.082 0.061,-0.171 0.102,-0.266c0.04,-0.095 0.077,-0.2 0.112,-0.315c0.035,-0.115 0.072,-0.231 0.112,-0.347c0.04,-0.116 0.08,-0.229 0.12,-0.337c0.04,-0.108 0.085,-0.22 0.133,-0.335c0.049,-0.115 0.097,-0.237 0.144,-0.366c0.047,-0.129 0.092,-0.259 0.133,-0.388c0.042,-0.129 0.083,-0.251 0.123,-0.366c0.04,-0.115 0.078,-0.228 0.112,-0.337c0.035,-0.11 0.062,-0.202 0.081,-0.276c0.02,-0.075 0.043,-0.156 0.071,-0.243c0.028,-0.088 0.052,-0.183 0.073,-0.284c0.021,-0.102 0.037,-0.191 0.05,-0.267c0.012,-0.075 -0.009,-0.126 -0.063,-0.152c-0.054,-0.027 -0.115,0.001 -0.183,0.082c-0.068,0.081 -0.136,0.169 -0.204,0.264c-0.068,0.095 -0.118,0.17 -0.151,0.224c-0.033,0.053 -0.071,0.107 -0.112,0.162c-0.042,0.055 -0.083,0.11 -0.123,0.165c-0.04,0.054 -0.081,0.116 -0.123,0.184c-0.042,0.068 -0.086,0.132 -0.133,0.192c-0.047,0.06 -0.095,0.124 -0.144,0.192c-0.048,0.068 -0.1,0.139 -0.154,0.215c-0.054,0.076 -0.104,0.148 -0.151,0.216c-0.047,0.067 -0.098,0.145 -0.152,0.233c-0.054,0.087 -0.108,0.175 -0.164,0.264c-0.056,0.089 -0.111,0.174 -0.165,0.255c-0.054,0.081 -0.108,0.165 -0.162,0.254c-0.054,0.089 -0.105,0.178 -0.154,0.267c-0.049,0.088 -0.096,0.173 -0.143,0.254c-0.047,0.081 -0.098,0.169 -0.152,0.265c-0.054,0.095 -0.104,0.19 -0.151,0.286c-0.047,0.095 -0.092,0.183 -0.133,0.264c-0.042,0.081 -0.083,0.156 -0.123,0.223c-0.04,0.068 -0.078,0.136 -0.112,0.204c-0.035,0.068 -0.067,0.136 -0.094,0.204c-0.028,0.068 -0.066,0.139 -0.113,0.213c-0.047,0.075 -0.09,0.133 -0.13,0.175c-0.041,0.041 -0.061,0.018 -0.061,-0.071c0,-0.089 0.007,-0.184 0.019,-0.286c0.012,-0.102 0.046,-0.22 0.102,-0.356c0.055,-0.136 0.093,-0.235 0.112,-0.296c0.019,-0.062 0.046,-0.129 0.081,-0.204c0.035,-0.074 0.072,-0.156 0.112,-0.244c0.04,-0.089 0.078,-0.174 0.113,-0.255c0.034,-0.081 0.072,-0.169 0.112,-0.265c0.04,-0.095 0.081,-0.19 0.123,-0.286c0.041,-0.095 0.082,-0.19 0.122,-0.286c0.04,-0.095 0.085,-0.19 0.133,-0.284c0.049,-0.094 0.094,-0.188 0.134,-0.284c0.04,-0.095 0.077,-0.187 0.112,-0.276c0.035,-0.089 0.072,-0.184 0.112,-0.286c0.04,-0.101 0.078,-0.193 0.113,-0.274c0.034,-0.081 0.061,-0.159 0.081,-0.235c0.019,-0.076 0.042,-0.154 0.07,-0.235c0.028,-0.081 0.049,-0.159 0.063,-0.233c0.014,-0.075 0.028,-0.143 0.041,-0.204c0.014,-0.061 0.031,-0.143 0.05,-0.245c0.019,-0.101 0.032,-0.186 0.039,-0.254c0.007,-0.068 0.011,-0.139 0.011,-0.214c0,-0.074 0,-0.142 0,-0.203c0,-0.062 -0.024,-0.113 -0.071,-0.153c-0.047,-0.041 -0.104,-0.068 -0.172,-0.082c-0.068,-0.015 -0.133,-0.025 -0.194,-0.032c-0.06,-0.006 -0.125,-0.006 -0.193,0c-0.068,0.007 -0.119,0.041 -0.154,0.102l-0.052,0.092" style="fill:none;stroke:#000;stroke-width:1.7px;" />
            <path id="STROKE_28C3797F.-652D.-4EC2.-BE81.-69C0DBE77877" d="M121.044,120.507c-0.066,-0.12 -0.123,-0.204 -0.172,-0.253c-0.049,-0.048 -0.103,-0.086 -0.164,-0.113c-0.061,-0.028 -0.122,-0.048 -0.183,-0.061c-0.061,-0.013 -0.129,-0.026 -0.204,-0.039c-0.075,-0.013 -0.143,-0.027 -0.204,-0.041c-0.061,-0.014 -0.122,-0.042 -0.183,-0.082c-0.06,-0.041 -0.119,-0.088 -0.174,-0.143c-0.056,-0.055 -0.111,-0.099 -0.165,-0.134c-0.054,-0.033 -0.118,-0.06 -0.193,-0.08c-0.075,-0.019 -0.15,-0.043 -0.225,-0.07c-0.075,-0.028 -0.139,-0.052 -0.193,-0.073c-0.054,-0.021 -0.108,-0.041 -0.162,-0.061c-0.054,-0.019 -0.118,-0.05 -0.193,-0.092c-0.075,-0.041 -0.144,-0.089 -0.207,-0.143c-0.062,-0.053 -0.121,-0.1 -0.174,-0.141c-0.055,-0.04 -0.112,-0.077 -0.173,-0.111c-0.061,-0.034 -0.125,-0.072 -0.193,-0.114c-0.068,-0.042 -0.129,-0.076 -0.183,-0.102c-0.054,-0.026 -0.109,-0.053 -0.164,-0.08c-0.056,-0.028 -0.108,-0.061 -0.155,-0.102c-0.047,-0.04 -0.097,-0.077 -0.151,-0.111c-0.054,-0.034 -0.112,-0.052 -0.172,-0.052c-0.061,0 -0.129,0 -0.204,0c-0.075,0 -0.144,-0.007 -0.207,-0.021c-0.062,-0.014 -0.117,-0.038 -0.164,-0.073c-0.047,-0.033 -0.071,-0.081 -0.071,-0.142l0,-1.264c0,-0.088 -0.003,-0.17 -0.01,-0.244c-0.007,-0.075 -0.017,-0.15 -0.031,-0.224c-0.014,-0.074 -0.027,-0.146 -0.039,-0.213c-0.013,-0.068 -0.022,-0.139 -0.029,-0.214c-0.007,-0.074 -0.018,-0.149 -0.032,-0.223c-0.013,-0.075 -0.024,-0.15 -0.031,-0.225c-0.007,-0.076 -0.017,-0.145 -0.031,-0.206c-0.014,-0.061 -0.028,-0.122 -0.042,-0.182c-0.014,-0.06 -0.024,-0.121 -0.031,-0.182c-0.007,-0.062 -0.017,-0.13 -0.029,-0.204c-0.012,-0.075 -0.025,-0.146 -0.039,-0.213c-0.014,-0.068 -0.032,-0.136 -0.052,-0.204c-0.021,-0.068 -0.035,-0.143 -0.042,-0.226c-0.007,-0.082 -0.014,-0.157 -0.021,-0.225c-0.007,-0.068 -0.017,-0.136 -0.031,-0.204c-0.014,-0.067 -0.028,-0.132 -0.04,-0.193c-0.012,-0.062 0.012,-0.096 0.074,-0.102c0.06,-0.007 0.114,0.021 0.161,0.082c0.047,0.061 0.088,0.116 0.123,0.163c0.035,0.047 0.079,0.104 0.133,0.172c0.054,0.068 0.108,0.136 0.162,0.204c0.054,0.068 0.112,0.149 0.173,0.244c0.061,0.096 0.112,0.168 0.154,0.216c0.041,0.048 0.079,0.099 0.112,0.153c0.033,0.053 0.071,0.107 0.112,0.162c0.042,0.055 0.083,0.113 0.123,0.175c0.04,0.061 0.081,0.118 0.123,0.172c0.042,0.054 0.086,0.111 0.133,0.172c0.047,0.062 0.098,0.126 0.151,0.194c0.054,0.068 0.106,0.13 0.155,0.184c0.048,0.055 0.1,0.113 0.154,0.175c0.054,0.061 0.108,0.122 0.161,0.182c0.054,0.06 0.112,0.128 0.173,0.204c0.061,0.075 0.119,0.147 0.175,0.215c0.056,0.068 0.11,0.132 0.164,0.192c0.054,0.06 0.105,0.118 0.152,0.172c0.047,0.055 0.101,0.117 0.162,0.184c0.061,0.068 0.119,0.133 0.175,0.194c0.055,0.062 0.107,0.126 0.154,0.194c0.047,0.068 0.094,0.133 0.141,0.194c0.047,0.062 0.095,0.123 0.144,0.184c0.048,0.062 0.093,0.119 0.133,0.173c0.04,0.053 0.09,0.121 0.151,0.204c0.061,0.082 0.116,0.16 0.165,0.235c0.048,0.074 0.089,0.135 0.122,0.182c0.033,0.047 0.02,0.047 -0.041,0c-0.061,-0.047 -0.126,-0.085 -0.194,-0.112c-0.067,-0.027 -0.132,-0.055 -0.193,-0.082c-0.061,-0.028 -0.125,-0.062 -0.193,-0.102c-0.068,-0.041 -0.139,-0.088 -0.214,-0.143c-0.075,-0.055 -0.153,-0.106 -0.235,-0.153c-0.082,-0.047 -0.161,-0.098 -0.236,-0.153c-0.074,-0.055 -0.149,-0.106 -0.224,-0.153c-0.075,-0.047 -0.136,-0.087 -0.183,-0.121c-0.047,-0.034 -0.108,-0.078 -0.182,-0.133c-0.075,-0.055 -0.148,-0.116 -0.217,-0.184c-0.07,-0.068 -0.139,-0.129 -0.207,-0.183c-0.068,-0.053 -0.135,-0.114 -0.203,-0.182c-0.068,-0.067 -0.126,-0.129 -0.173,-0.184c-0.047,-0.054 -0.094,-0.109 -0.141,-0.164c-0.047,-0.055 -0.095,-0.113 -0.143,-0.173c-0.049,-0.06 -0.09,-0.117 -0.123,-0.172l-0.05,-0.082" style="fill:none;stroke:#000;stroke-width:1.7px;" />
            <path id="STROKE_21AB1EBD.-45A6.-4877.-A772.-0BD7F41F554A" d="M119.19,133.998c0.039,0.123 0.088,0.185 0.149,0.185c0.061,0 0.079,0.026 0.052,0.08c-0.026,0.054 -0.066,0.091 -0.12,0.112c-0.054,0.021 -0.116,0.041 -0.185,0.062c-0.07,0.021 -0.142,0.042 -0.217,0.061c-0.075,0.02 -0.156,0.037 -0.243,0.051c-0.087,0.014 -0.175,0.031 -0.264,0.051c-0.088,0.019 -0.167,0.033 -0.235,0.041c-0.068,0.008 -0.139,0.015 -0.214,0.022c-0.075,0.006 -0.153,0.013 -0.235,0.019c-0.082,0.007 -0.153,0.01 -0.214,0.01c-0.061,0 -0.129,0.003 -0.204,0.01c-0.075,0.006 -0.15,0.02 -0.224,0.041c-0.075,0.021 -0.143,0.051 -0.204,0.092c-0.061,0.04 -0.119,0.074 -0.175,0.102c-0.056,0.027 -0.066,0.068 -0.031,0.121c0.034,0.054 0.034,0.115 0,0.183c-0.035,0.067 -0.079,0.129 -0.133,0.183c-0.055,0.055 -0.105,0.103 -0.152,0.143c-0.047,0.041 -0.101,0.085 -0.162,0.134c-0.061,0.048 -0.119,0.092 -0.175,0.133c-0.056,0.04 -0.114,0.087 -0.175,0.141c-0.061,0.053 -0.129,0.111 -0.203,0.172c-0.075,0.062 -0.147,0.133 -0.215,0.216c-0.068,0.082 -0.132,0.15 -0.193,0.204c-0.061,0.053 -0.125,0.114 -0.193,0.182c-0.068,0.067 -0.126,0.129 -0.175,0.184c-0.049,0.054 -0.097,0.109 -0.144,0.164c-0.047,0.055 -0.094,0.1 -0.141,0.133c-0.047,0.034 -0.095,0.068 -0.144,0.102c-0.048,0.034 -0.1,0.075 -0.154,0.122c-0.054,0.047 -0.104,0.094 -0.151,0.141c-0.047,0.047 -0.095,0.091 -0.144,0.133c-0.048,0.042 -0.093,0.083 -0.133,0.123c-0.04,0.041 -0.08,0.081 -0.12,0.122c-0.04,0.04 -0.078,0.084 -0.112,0.131c-0.035,0.047 -0.076,0.088 -0.123,0.121c-0.047,0.034 -0.091,0.072 -0.133,0.114c-0.042,0.042 -0.09,0.083 -0.144,0.123c-0.054,0.041 -0.101,0.088 -0.141,0.143c-0.04,0.055 -0.07,0.11 -0.091,0.163c-0.021,0.053 -0.049,0.104 -0.084,0.153c-0.035,0.048 -0.072,0.096 -0.112,0.143c-0.04,0.047 -0.078,0.104 -0.112,0.172c-0.035,0.068 -0.066,0.133 -0.092,0.194c-0.026,0.061 -0.056,0.119 -0.091,0.172c-0.035,0.054 -0.059,0.111 -0.074,0.173c-0.013,0.061 -0.02,0.126 -0.02,0.194c0,0.068 0,0.132 0,0.193c0,0.062 0.037,0.093 0.112,0.093c0.075,0 0.153,-0.021 0.235,-0.061c0.082,-0.041 0.153,-0.088 0.214,-0.143c0.061,-0.055 0.123,-0.099 0.186,-0.133c0.062,-0.034 0.131,-0.075 0.206,-0.122c0.075,-0.047 0.146,-0.087 0.214,-0.121c0.068,-0.034 0.139,-0.071 0.214,-0.112c0.075,-0.04 0.146,-0.088 0.214,-0.143c0.068,-0.055 0.143,-0.113 0.225,-0.174c0.082,-0.062 0.166,-0.126 0.253,-0.194c0.087,-0.068 0.159,-0.119 0.215,-0.153c0.055,-0.034 0.106,-0.074 0.154,-0.121c0.047,-0.047 0.097,-0.095 0.151,-0.143c0.054,-0.048 0.111,-0.096 0.173,-0.143c0.06,-0.047 0.122,-0.101 0.185,-0.163c0.062,-0.061 0.117,-0.115 0.164,-0.162c0.047,-0.047 0.098,-0.098 0.152,-0.153c0.054,-0.055 0.108,-0.116 0.162,-0.184c0.054,-0.068 0.102,-0.122 0.143,-0.163c0.042,-0.04 0.087,-0.088 0.134,-0.143c0.047,-0.055 0.107,-0.126 0.182,-0.213c0.075,-0.088 0.143,-0.173 0.204,-0.255c0.061,-0.082 0.125,-0.154 0.193,-0.215c0.068,-0.062 0.133,-0.126 0.196,-0.194c0.063,-0.068 0.128,-0.129 0.196,-0.182c0.068,-0.054 0.136,-0.111 0.204,-0.173c0.068,-0.061 0.136,-0.112 0.203,-0.153c0.068,-0.04 0.129,-0.077 0.183,-0.111c0.054,-0.034 0.112,-0.068 0.173,-0.102c0.061,-0.034 0.119,-0.061 0.175,-0.082c0.055,-0.021 0.11,-0.049 0.164,-0.083c0.054,-0.034 0.108,-0.071 0.162,-0.111c0.054,-0.041 0.111,-0.081 0.172,-0.122c0.061,-0.04 0.113,-0.081 0.154,-0.123c0.042,-0.042 0.083,-0.09 0.123,-0.143l0.06,-0.08" style="fill:none;stroke:#000;stroke-width:1.7px;" />
            <path id="STROKE_D4833649.-6488.-41C3.-8439.-01F734A7E533" d="M105.861,108.935c0.108,0.068 0.183,0.122 0.224,0.163c0.042,0.041 0.086,0.078 0.133,0.112c0.047,0.034 0.098,0.061 0.152,0.082c0.054,0.021 0.111,0.038 0.172,0.051c0.061,0.013 0.123,0.019 0.186,0.019c0.063,0 0.128,0 0.196,0c0.068,0 0.139,0.007 0.214,0.02c0.075,0.013 0.136,0.036 0.183,0.071c0.047,0.033 0.088,0.075 0.123,0.123c0.034,0.048 0.054,0.106 0.059,0.174c0.006,0.068 -0.005,0.139 -0.031,0.214c-0.026,0.074 -0.057,0.139 -0.091,0.194c-0.035,0.054 -0.069,0.109 -0.102,0.162c-0.033,0.054 -0.071,0.105 -0.113,0.153c-0.041,0.048 -0.079,0.096 -0.112,0.143c-0.033,0.047 -0.067,0.094 -0.102,0.141c-0.034,0.047 -0.079,0.104 -0.133,0.172c-0.054,0.068 -0.098,0.126 -0.133,0.174c-0.035,0.049 -0.072,0.107 -0.112,0.175c-0.04,0.068 -0.084,0.129 -0.131,0.184c-0.047,0.055 -0.091,0.109 -0.133,0.163c-0.042,0.053 -0.086,0.104 -0.133,0.152c-0.047,0.049 -0.095,0.093 -0.144,0.133c-0.049,0.041 -0.097,0.078 -0.144,0.112c-0.047,0.034 -0.09,0.072 -0.13,0.112c-0.04,0.04 -0.084,0.078 -0.133,0.112c-0.049,0.034 -0.097,0.067 -0.144,0.101c-0.047,0.034 -0.097,0.068 -0.151,0.102c-0.054,0.034 -0.106,0.068 -0.155,0.102c-0.048,0.034 -0.1,0.065 -0.154,0.092c-0.054,0.028 -0.111,0.055 -0.172,0.082c-0.061,0.028 -0.125,0.059 -0.193,0.093c-0.068,0.034 -0.132,0.067 -0.193,0.101c-0.061,0.034 -0.123,0.068 -0.186,0.102c-0.062,0.034 -0.117,0.071 -0.164,0.112c-0.047,0.04 -0.091,0.081 -0.131,0.121c-0.04,0.041 -0.084,0.078 -0.133,0.112c-0.049,0.034 -0.097,0.068 -0.144,0.102c-0.047,0.034 -0.104,0.071 -0.172,0.111c-0.068,0.041 -0.136,0.068 -0.204,0.083c-0.068,0.014 -0.132,0.021 -0.193,0.021c-0.061,0 -0.123,0 -0.185,0c-0.063,0 -0.125,0.004 -0.186,0.01c-0.061,0.006 -0.122,0.01 -0.183,0.01c-0.061,0 -0.122,0.01 -0.183,0.031c-0.061,0.021 -0.121,0.038 -0.182,0.051c-0.061,0.013 -0.122,0.02 -0.183,0.02c-0.061,0 -0.123,-0.017 -0.186,-0.051c-0.062,-0.034 -0.128,-0.058 -0.196,-0.071c-0.067,-0.013 -0.135,-0.03 -0.203,-0.051c-0.068,-0.021 -0.136,-0.031 -0.204,-0.031l-0.621,0c-0.061,0 -0.119,-0.014 -0.173,-0.041c-0.054,-0.027 -0.108,-0.058 -0.162,-0.092c-0.054,-0.034 -0.109,-0.071 -0.164,-0.112c-0.056,-0.04 -0.111,-0.071 -0.165,-0.092c-0.054,-0.021 -0.122,-0.038 -0.203,-0.051c-0.082,-0.013 -0.164,-0.023 -0.246,-0.029c-0.082,-0.007 -0.153,-0.014 -0.214,-0.022c-0.061,-0.008 -0.125,-0.025 -0.193,-0.051c-0.068,-0.026 -0.129,-0.063 -0.183,-0.111c-0.054,-0.049 -0.109,-0.087 -0.165,-0.114c-0.055,-0.027 -0.114,-0.051 -0.175,-0.07c-0.061,-0.02 -0.125,-0.033 -0.193,-0.039c-0.068,-0.007 -0.136,-0.011 -0.204,-0.011c-0.068,0 -0.135,0 -0.203,0c-0.068,0 -0.133,-0.01 -0.194,-0.031c-0.06,-0.021 -0.114,-0.051 -0.161,-0.092c-0.047,-0.04 -0.095,-0.081 -0.144,-0.121c-0.049,-0.041 -0.084,-0.095 -0.105,-0.163c-0.02,-0.068 -0.037,-0.132 -0.049,-0.194c-0.012,-0.061 -0.019,-0.123 -0.019,-0.184l0,-0.397c0,-0.068 0.01,-0.136 0.029,-0.204c0.019,-0.068 0.047,-0.136 0.081,-0.204c0.035,-0.068 0.066,-0.136 0.094,-0.203c0.028,-0.068 0.052,-0.136 0.071,-0.204c0.019,-0.068 0.046,-0.133 0.081,-0.194c0.034,-0.062 0.079,-0.112 0.133,-0.153c0.054,-0.041 0.108,-0.071 0.162,-0.092c0.054,-0.021 0.109,-0.038 0.164,-0.051c0.056,-0.013 0.118,-0.03 0.186,-0.051c0.068,-0.021 0.142,-0.041 0.224,-0.061c0.082,-0.019 0.17,-0.039 0.264,-0.06c0.094,-0.021 0.193,-0.042 0.295,-0.063c0.103,-0.021 0.212,-0.041 0.327,-0.061c0.115,-0.019 0.202,-0.032 0.263,-0.039c0.061,-0.006 0.123,-0.014 0.186,-0.021c0.063,-0.008 0.124,-0.015 0.185,-0.022c0.061,-0.007 0.126,-0.01 0.194,-0.01l2.528,0c0.081,0 0.153,0.014 0.214,0.041c0.061,0.028 0.112,0.062 0.154,0.102c0.041,0.041 0.073,0.098 0.094,0.173c0.021,0.074 0.031,0.145 0.031,0.213c0,0.068 -0.003,0.14 -0.01,0.216c-0.007,0.075 -0.035,0.154 -0.084,0.235c-0.049,0.08 -0.111,0.162 -0.185,0.244c-0.075,0.082 -0.133,0.144 -0.173,0.184c-0.04,0.041 -0.083,0.078 -0.13,0.112c-0.047,0.034 -0.099,0.071 -0.154,0.112c-0.056,0.04 -0.111,0.081 -0.165,0.121c-0.054,0.041 -0.115,0.081 -0.183,0.122c-0.068,0.04 -0.136,0.077 -0.204,0.111c-0.067,0.034 -0.146,0.072 -0.235,0.114c-0.088,0.042 -0.173,0.08 -0.255,0.114c-0.082,0.034 -0.16,0.067 -0.235,0.101c-0.075,0.034 -0.15,0.064 -0.225,0.09c-0.075,0.027 -0.153,0.057 -0.235,0.091c-0.082,0.034 -0.16,0.061 -0.235,0.082c-0.075,0.021 -0.146,0.045 -0.214,0.072c-0.068,0.028 -0.133,0.055 -0.193,0.082c-0.061,0.028 -0.119,0.051 -0.173,0.071c-0.054,0.02 -0.108,0.04 -0.162,0.061c-0.054,0.021 -0.115,0.041 -0.183,0.061c-0.067,0.019 -0.129,0.039 -0.185,0.06c-0.056,0.021 -0.066,0.001 -0.031,-0.06c0.034,-0.062 0.089,-0.127 0.164,-0.194c0.075,-0.068 0.157,-0.139 0.246,-0.214c0.089,-0.074 0.16,-0.128 0.214,-0.162c0.054,-0.034 0.111,-0.072 0.172,-0.112c0.061,-0.04 0.125,-0.085 0.193,-0.133c0.068,-0.049 0.14,-0.096 0.215,-0.143c0.075,-0.047 0.149,-0.091 0.224,-0.131c0.075,-0.041 0.164,-0.089 0.267,-0.143c0.102,-0.055 0.204,-0.106 0.305,-0.153c0.101,-0.047 0.203,-0.091 0.306,-0.132c0.103,-0.04 0.208,-0.081 0.316,-0.123c0.108,-0.042 0.217,-0.086 0.326,-0.133c0.11,-0.047 0.222,-0.091 0.337,-0.131c0.115,-0.041 0.231,-0.078 0.347,-0.112c0.117,-0.034 0.229,-0.068 0.337,-0.102c0.108,-0.034 0.22,-0.068 0.337,-0.101c0.117,-0.035 0.229,-0.065 0.337,-0.093c0.108,-0.027 0.213,-0.058 0.316,-0.092c0.103,-0.034 0.202,-0.061 0.298,-0.082c0.096,-0.021 0.197,-0.045 0.305,-0.073c0.108,-0.027 0.207,-0.054 0.295,-0.08c0.089,-0.026 0.171,-0.046 0.246,-0.061c0.075,-0.014 0.153,-0.028 0.235,-0.041c0.082,-0.013 0.153,-0.03 0.214,-0.05c0.061,-0.021 0.143,-0.032 0.245,-0.032c0.103,0 0.189,0 0.257,0c0.068,0 0.128,0.011 0.182,0.032c0.054,0.02 0.081,0.061 0.081,0.123c0,0.061 -0.03,0.119 -0.091,0.172c-0.061,0.054 -0.139,0.097 -0.235,0.131c-0.096,0.034 -0.171,0.062 -0.225,0.083c-0.054,0.021 -0.115,0.038 -0.182,0.051c-0.068,0.013 -0.136,0.026 -0.204,0.041c-0.068,0.014 -0.139,0.031 -0.214,0.051c-0.075,0.019 -0.147,0.032 -0.215,0.039c-0.068,0.006 -0.142,0.014 -0.224,0.022c-0.082,0.007 -0.164,0.018 -0.246,0.031c-0.081,0.013 -0.16,0.023 -0.235,0.029c-0.074,0.007 -0.149,0.013 -0.224,0.02c-0.075,0.006 -0.15,0.009 -0.225,0.009l-1.021,0c-0.063,0 -0.145,-0.013 -0.245,-0.039c-0.101,-0.026 -0.2,-0.049 -0.296,-0.07c-0.095,-0.021 -0.177,-0.049 -0.245,-0.082c-0.068,-0.034 -0.129,-0.068 -0.183,-0.102c-0.054,-0.034 -0.105,-0.075 -0.154,-0.122c-0.049,-0.047 -0.086,-0.098 -0.112,-0.152c-0.026,-0.055 -0.05,-0.113 -0.071,-0.175c-0.021,-0.061 -0.038,-0.123 -0.052,-0.184c-0.014,-0.061 -0.024,-0.122 -0.031,-0.182c-0.007,-0.06 -0.011,-0.131 -0.011,-0.214c0,-0.082 0,-0.154 0,-0.215c0,-0.061 -0.013,-0.119 -0.039,-0.172c-0.026,-0.054 -0.08,-0.081 -0.162,-0.081c-0.082,0 -0.16,0 -0.235,0c-0.075,0 -0.153,0.024 -0.235,0.071c-0.082,0.047 -0.16,0.104 -0.235,0.172c-0.075,0.068 -0.133,0.122 -0.175,0.163c-0.042,0.04 -0.083,0.081 -0.123,0.123c-0.04,0.042 -0.08,0.086 -0.12,0.133c-0.04,0.047 -0.097,0.115 -0.172,0.204c-0.075,0.089 -0.13,0.157 -0.165,0.204c-0.034,0.047 -0.072,0.09 -0.112,0.131c-0.04,0.04 -0.094,0.105 -0.162,0.194c-0.068,0.089 -0.133,0.173 -0.196,0.254c-0.062,0.081 -0.117,0.153 -0.165,0.214c-0.047,0.061 -0.09,0.116 -0.13,0.164c-0.04,0.049 -0.084,0.097 -0.133,0.144l-0.073,0.07" style="fill:none;stroke:#000;stroke-width:1.7px;" />
            <path id="STROKE_DC2F5B8A.-D013.-430C.-A95C.-3F0B7FA7405F" d="M90.144,119.163c0.108,0.055 0.176,0.113 0.204,0.175c0.028,0.061 0.059,0.119 0.094,0.172c0.035,0.054 0.072,0.108 0.112,0.163c0.04,0.055 0.087,0.106 0.141,0.153c0.054,0.047 0.115,0.094 0.183,0.143c0.068,0.048 0.136,0.099 0.204,0.152c0.068,0.054 0.126,0.102 0.175,0.144c0.049,0.041 0.103,0.092 0.164,0.152c0.061,0.06 0.112,0.121 0.152,0.182c0.04,0.062 0.067,0.123 0.081,0.184c0.014,0.062 0.021,0.123 0.021,0.184c0,0.062 0,0.13 0,0.204c0,0.075 -0.007,0.146 -0.021,0.214c-0.014,0.068 -0.024,0.139 -0.031,0.213c-0.007,0.075 -0.011,0.156 -0.011,0.245c0,0.089 -0.002,0.164 -0.008,0.225c-0.005,0.062 -0.011,0.126 -0.018,0.194c-0.007,0.068 -0.017,0.136 -0.031,0.204c-0.014,0.068 -0.028,0.146 -0.042,0.233c-0.014,0.087 -0.035,0.179 -0.063,0.274c-0.028,0.095 -0.051,0.187 -0.07,0.276c-0.019,0.089 -0.04,0.171 -0.06,0.245c-0.021,0.075 -0.042,0.149 -0.063,0.223c-0.021,0.075 -0.042,0.143 -0.063,0.204c-0.021,0.062 -0.037,0.123 -0.049,0.184c-0.013,0.062 -0.026,0.123 -0.039,0.184c-0.014,0.062 -0.028,0.133 -0.042,0.214c-0.014,0.081 -0.025,0.159 -0.032,0.233c-0.007,0.075 -0.013,0.142 -0.02,0.204c-0.008,0.061 -0.028,0.129 -0.061,0.203c-0.033,0.075 -0.067,0.139 -0.101,0.194c-0.035,0.055 -0.063,0.117 -0.084,0.184c-0.021,0.068 -0.045,0.13 -0.071,0.185c-0.026,0.054 -0.049,0.112 -0.07,0.174c-0.021,0.061 -0.042,0.119 -0.063,0.172c-0.021,0.054 -0.048,0.108 -0.081,0.163c-0.033,0.055 -0.074,0.109 -0.123,0.162c-0.048,0.054 -0.096,0.105 -0.143,0.153c-0.047,0.049 -0.091,0.096 -0.131,0.143c-0.04,0.047 -0.077,0.095 -0.112,0.143c-0.035,0.048 -0.076,0.09 -0.123,0.124c-0.047,0.034 -0.104,0.054 -0.172,0.06c-0.068,0.007 -0.139,0.013 -0.214,0.02c-0.075,0.006 -0.143,0.013 -0.204,0.02c-0.061,0.006 -0.109,-0.014 -0.144,-0.061c-0.034,-0.047 -0.069,-0.098 -0.104,-0.153c-0.035,-0.055 -0.062,-0.116 -0.081,-0.184c-0.019,-0.068 -0.029,-0.133 -0.029,-0.194l0,-0.927c0,-0.094 0.004,-0.171 0.011,-0.233c0.007,-0.061 0.014,-0.122 0.02,-0.184c0.008,-0.061 0.017,-0.122 0.03,-0.184c0.012,-0.061 0.021,-0.123 0.028,-0.184c0.007,-0.061 0.017,-0.129 0.031,-0.204c0.014,-0.074 0.025,-0.145 0.032,-0.213c0.007,-0.068 0.017,-0.136 0.031,-0.204c0.014,-0.068 0.028,-0.139 0.042,-0.213c0.014,-0.075 0.024,-0.143 0.031,-0.204c0.007,-0.062 0.017,-0.123 0.029,-0.184c0.012,-0.061 0.025,-0.123 0.039,-0.184c0.014,-0.062 0.031,-0.143 0.052,-0.245c0.021,-0.102 0.042,-0.197 0.063,-0.284c0.021,-0.088 0.041,-0.165 0.06,-0.233c0.019,-0.068 0.046,-0.129 0.081,-0.184c0.035,-0.055 0.079,-0.113 0.133,-0.175l0.081,-0.092" style="fill:none;stroke:#000;stroke-width:1.7px;" />
            <path id="STROKE_EFDF4EAA.-43FC.-46E7.-AA02.-01EAAC9A3B59" d="M103.411,114.62c0.07,0.094 0.114,0.185 0.133,0.274c0.019,0.089 0.039,0.194 0.06,0.317c0.021,0.123 0.039,0.218 0.053,0.286c0.014,0.068 0.028,0.142 0.041,0.223c0.014,0.081 0.027,0.166 0.039,0.255c0.013,0.089 0.029,0.17 0.05,0.245c0.021,0.074 0.042,0.166 0.063,0.274c0.021,0.108 0.042,0.196 0.063,0.264c0.02,0.068 0.04,0.139 0.06,0.214l0.028,0.111" style="fill:none;stroke:#000;stroke-width:1.7px;" />
            <path id="STROKE_EE8C6437.-EC4B.-4D0F.-ACD8.-22BBEB7134A3" d="M115.884,118.717c-0.178,0.052 -0.307,0.103 -0.389,0.151c-0.082,0.048 -0.167,0.096 -0.256,0.143c-0.089,0.047 -0.185,0.098 -0.287,0.152c-0.103,0.055 -0.208,0.113 -0.316,0.175c-0.108,0.061 -0.217,0.126 -0.327,0.194c-0.109,0.068 -0.218,0.136 -0.326,0.203c-0.108,0.068 -0.214,0.14 -0.316,0.214c-0.103,0.074 -0.201,0.156 -0.295,0.245c-0.094,0.089 -0.186,0.174 -0.274,0.254l-0.134,0.122" style="fill:none;stroke:#000;stroke-width:1.7px;" />
            <path id="STROKE_3F9CAA24.-291D.-4131.-A82F.-E4A1EA9F7AA0" d="M115.717,132.287c-0.15,-0.042 -0.262,-0.08 -0.337,-0.114c-0.075,-0.034 -0.157,-0.071 -0.246,-0.112c-0.088,-0.04 -0.17,-0.08 -0.245,-0.121c-0.075,-0.04 -0.166,-0.095 -0.274,-0.163c-0.108,-0.067 -0.213,-0.132 -0.316,-0.194c-0.103,-0.061 -0.208,-0.125 -0.316,-0.193c-0.108,-0.068 -0.22,-0.139 -0.337,-0.214c-0.117,-0.074 -0.24,-0.156 -0.368,-0.245c-0.129,-0.088 -0.244,-0.17 -0.345,-0.244c-0.101,-0.075 -0.21,-0.153 -0.327,-0.234l-0.174,-0.121" style="fill:none;stroke:#000;stroke-width:1.7px;" />
            <path id="STROKE_A8DF2661.-A7FF.-4706.-A98C.-05B40ECBF880" d="M102.225,132.349c0.084,0.081 0.126,0.091 0.126,0.03c0,-0.062 0,-0.058 0,0.01c0,0.067 0,0.146 0,0.235c0,0.088 -0.007,0.184 -0.021,0.285c-0.014,0.102 -0.031,0.18 -0.052,0.234c-0.021,0.053 -0.038,0.111 -0.053,0.172c-0.013,0.061 -0.03,0.123 -0.049,0.184c-0.019,0.062 -0.039,0.123 -0.06,0.184c-0.021,0.062 -0.042,0.126 -0.063,0.194c-0.021,0.068 -0.041,0.133 -0.06,0.194c-0.019,0.061 -0.036,0.122 -0.05,0.182l-0.02,0.09" style="fill:none;stroke:#000;stroke-width:1.7px;" />
            <path id="STROKE_11CF8665.-1726.-4B47.-8102.-5504C133A932" d="M111.042,140.294c-0.16,-0.013 -0.295,-0.02 -0.405,-0.02l-0.673,0c-0.068,0 -0.14,0.007 -0.215,0.022c-0.074,0.014 -0.149,0.028 -0.224,0.041c-0.075,0.013 -0.15,0.03 -0.225,0.051c-0.075,0.021 -0.15,0.041 -0.225,0.061c-0.074,0.019 -0.145,0.036 -0.213,0.05c-0.068,0.015 -0.136,0.032 -0.204,0.051c-0.068,0.02 -0.139,0.037 -0.214,0.051c-0.075,0.015 -0.167,0.035 -0.277,0.061c-0.11,0.026 -0.206,0.05 -0.288,0.07l-0.122,0.032" style="fill:none;stroke:#000;stroke-width:1.7px;" />
            <path id="STROKE_D1140DD9.-0970.-4E5A.-863A.-50AA2AD30AD5" d="M96.005,114.048c-0.126,0.135 -0.208,0.231 -0.248,0.285c-0.04,0.055 -0.084,0.12 -0.131,0.194c-0.047,0.075 -0.098,0.149 -0.154,0.224c-0.056,0.074 -0.111,0.145 -0.165,0.213c-0.054,0.068 -0.115,0.154 -0.182,0.257c-0.068,0.103 -0.133,0.209 -0.194,0.317c-0.06,0.108 -0.121,0.217 -0.182,0.325c-0.061,0.109 -0.126,0.22 -0.194,0.335c-0.068,0.115 -0.133,0.231 -0.196,0.347c-0.062,0.116 -0.121,0.235 -0.174,0.356c-0.054,0.122 -0.108,0.24 -0.163,0.357c-0.053,0.116 -0.104,0.235 -0.151,0.358c-0.047,0.123 -0.091,0.239 -0.133,0.347l-0.063,0.163" style="fill:none;stroke:#000;stroke-width:1.7px;" />
            <path id="STROKE_48FF78C9.-5551.-4E8F.-96E2.-12DCC5F5F6D5" d="M97.269,122.587c0.121,0.027 0.138,0.044 0.049,0.051c-0.088,0.008 -0.167,0.015 -0.235,0.022c-0.068,0.006 -0.146,0.01 -0.235,0.01l-2.243,0c-0.115,0 -0.224,0.003 -0.326,0.01c-0.103,0.006 -0.206,0.009 -0.309,0.009l-0.559,0l-0.143,0" style="fill:none;stroke:#000;stroke-width:1.7px;" />
            <path id="STROKE_A4D39B44.-8A84.-48B4.-A21C.-06CD877BF34F" d="M91.126,124.707c0.066,-0.123 0.117,-0.215 0.152,-0.277c0.034,-0.061 0.062,-0.118 0.081,-0.172c0.019,-0.053 0.022,-0.043 0.01,0.031c-0.012,0.075 -0.039,0.156 -0.081,0.245c-0.042,0.089 -0.086,0.184 -0.133,0.286c-0.047,0.102 -0.084,0.18 -0.112,0.233c-0.028,0.054 -0.055,0.111 -0.081,0.173c-0.026,0.061 -0.053,0.122 -0.081,0.184c-0.028,0.061 -0.056,0.123 -0.084,0.184c-0.028,0.061 -0.058,0.126 -0.091,0.194c-0.033,0.068 -0.067,0.136 -0.102,0.203c-0.035,0.068 -0.065,0.136 -0.091,0.204c-0.026,0.068 -0.057,0.136 -0.092,0.204c-0.034,0.068 -0.068,0.132 -0.102,0.194c-0.033,0.061 -0.063,0.126 -0.091,0.194c-0.028,0.068 -0.056,0.128 -0.084,0.182c-0.027,0.054 -0.051,0.108 -0.07,0.162c-0.019,0.055 -0.046,0.123 -0.081,0.204c-0.035,0.081 -0.063,0.149 -0.084,0.204c-0.02,0.055 -0.02,0.045 0,-0.029c0.021,-0.075 0.055,-0.16 0.102,-0.255c0.047,-0.096 0.085,-0.174 0.112,-0.235c0.028,-0.061 0.06,-0.119 0.094,-0.174c0.035,-0.055 0.066,-0.113 0.092,-0.173c0.026,-0.06 0.053,-0.121 0.081,-0.182c0.028,-0.061 0.069,-0.143 0.123,-0.245c0.053,-0.102 0.094,-0.18 0.122,-0.235c0.028,-0.055 0.059,-0.113 0.092,-0.174c0.033,-0.062 0.063,-0.119 0.091,-0.173c0.028,-0.053 0.065,-0.127 0.112,-0.223c0.047,-0.095 0.092,-0.177 0.134,-0.245c0.041,-0.068 0.079,-0.135 0.112,-0.203c0.033,-0.068 0.063,-0.13 0.091,-0.185c0.028,-0.054 0.035,-0.051 0.021,0.01c-0.014,0.062 -0.038,0.126 -0.073,0.194c-0.035,0.068 -0.072,0.139 -0.112,0.214c-0.04,0.074 -0.087,0.162 -0.141,0.264c-0.054,0.102 -0.095,0.18 -0.123,0.235c-0.028,0.055 -0.058,0.11 -0.091,0.165c-0.033,0.055 -0.064,0.112 -0.092,0.172c-0.028,0.06 -0.059,0.121 -0.094,0.182c-0.034,0.062 -0.065,0.12 -0.091,0.175c-0.026,0.054 -0.053,0.108 -0.081,0.162c-0.028,0.054 -0.065,0.125 -0.112,0.214c-0.047,0.088 -0.088,0.164 -0.123,0.225c-0.035,0.061 -0.065,0.119 -0.092,0.172l-0.039,0.08" style="fill:none;stroke:#000;stroke-width:1.7px;" />
            <path id="STROKE_36CA93B9.-927C.-494C.-B1FA.-3364CD78D896" d="M100.084,136.098c0.108,-0.041 0.118,-0.076 0.031,-0.103c-0.087,-0.028 -0.178,-0.042 -0.274,-0.042c-0.096,0 -0.174,0 -0.235,0c-0.061,0 -0.125,0.004 -0.193,0.012c-0.068,0.008 -0.143,0.025 -0.225,0.051c-0.081,0.026 -0.163,0.05 -0.245,0.071c-0.082,0.02 -0.167,0.045 -0.256,0.072c-0.089,0.028 -0.178,0.055 -0.267,0.082c-0.088,0.028 -0.177,0.058 -0.266,0.092c-0.089,0.034 -0.17,0.064 -0.245,0.09c-0.075,0.027 -0.153,0.057 -0.233,0.092c-0.08,0.036 -0.161,0.066 -0.243,0.093c-0.082,0.026 -0.16,0.052 -0.235,0.08c-0.075,0.027 -0.146,0.055 -0.214,0.082c-0.068,0.028 -0.133,0.055 -0.196,0.082c-0.062,0.028 -0.121,0.051 -0.175,0.071c-0.054,0.019 -0.129,0.05 -0.224,0.092c-0.096,0.042 -0.178,0.072 -0.246,0.092c-0.068,0.02 -0.129,0.043 -0.182,0.071c-0.055,0.027 -0.061,0.013 -0.019,-0.042c0.042,-0.054 0.097,-0.099 0.165,-0.133c0.067,-0.034 0.132,-0.061 0.193,-0.08c0.061,-0.02 0.125,-0.037 0.193,-0.051c0.068,-0.014 0.136,-0.028 0.204,-0.041c0.068,-0.013 0.139,-0.026 0.214,-0.039c0.075,-0.013 0.157,-0.03 0.246,-0.051c0.088,-0.021 0.174,-0.042 0.255,-0.063c0.082,-0.021 0.164,-0.044 0.246,-0.07c0.082,-0.027 0.166,-0.057 0.253,-0.093c0.087,-0.035 0.179,-0.065 0.274,-0.092c0.096,-0.026 0.192,-0.049 0.288,-0.07l0.143,-0.031" style="fill:none;stroke:#000;stroke-width:1.7px;" />
            <path id="STROKE_39007799.-D5D4.-4C25.-B6F6.-3050A977547A" d="M101.473,136.506c0.108,0.094 0.189,0.154 0.243,0.182c0.054,0.027 0.106,0.061 0.154,0.102c0.049,0.04 0.097,0.077 0.144,0.111c0.047,0.034 0.101,0.079 0.162,0.133c0.061,0.055 0.118,0.11 0.172,0.165c0.054,0.055 0.113,0.109 0.175,0.163c0.063,0.053 0.134,0.114 0.214,0.182c0.08,0.068 0.141,0.122 0.183,0.162c0.042,0.041 0.086,0.078 0.133,0.112c0.047,0.034 0.099,0.072 0.154,0.114c0.056,0.041 0.111,0.082 0.165,0.123c0.054,0.041 0.111,0.081 0.172,0.121c0.061,0.041 0.122,0.081 0.183,0.122c0.061,0.04 0.122,0.085 0.183,0.133c0.061,0.048 0.125,0.093 0.193,0.133c0.068,0.041 0.133,0.084 0.196,0.131c0.063,0.047 0.125,0.095 0.186,0.144c0.06,0.048 0.121,0.092 0.182,0.133c0.061,0.04 0.119,0.084 0.173,0.131c0.054,0.047 0.105,0.091 0.154,0.133c0.049,0.042 0.096,0.08 0.143,0.114c0.047,0.034 0.108,0.084 0.183,0.152c0.075,0.068 0.143,0.129 0.204,0.183c0.061,0.053 0.115,0.111 0.162,0.172c0.047,0.061 0.088,0.119 0.123,0.174c0.034,0.055 0.068,0.117 0.102,0.184c0.032,0.068 0.059,0.129 0.08,0.182c0.021,0.054 -0.009,0.074 -0.091,0.061c-0.082,-0.013 -0.167,-0.04 -0.256,-0.08c-0.089,-0.04 -0.187,-0.082 -0.295,-0.123c-0.108,-0.042 -0.196,-0.076 -0.264,-0.102c-0.068,-0.026 -0.136,-0.05 -0.204,-0.071c-0.067,-0.021 -0.149,-0.048 -0.245,-0.082c-0.096,-0.034 -0.192,-0.065 -0.287,-0.092c-0.096,-0.028 -0.191,-0.058 -0.285,-0.092c-0.094,-0.034 -0.196,-0.065 -0.305,-0.092c-0.11,-0.028 -0.219,-0.054 -0.327,-0.081c-0.108,-0.026 -0.217,-0.052 -0.326,-0.08c-0.11,-0.027 -0.222,-0.051 -0.337,-0.072c-0.115,-0.021 -0.228,-0.041 -0.337,-0.061c-0.11,-0.02 -0.215,-0.033 -0.316,-0.041c-0.101,-0.008 -0.203,-0.022 -0.306,-0.041c-0.102,-0.02 -0.195,-0.033 -0.276,-0.039c-0.082,-0.007 -0.168,-0.021 -0.257,-0.042c-0.088,-0.02 -0.174,-0.037 -0.256,-0.05c-0.081,-0.014 -0.16,-0.027 -0.235,-0.042c-0.074,-0.014 -0.149,-0.031 -0.224,-0.051c-0.075,-0.019 -0.143,-0.039 -0.204,-0.06c-0.061,-0.021 -0.122,-0.042 -0.183,-0.063c-0.06,-0.021 -0.118,-0.044 -0.172,-0.071c-0.054,-0.026 -0.129,-0.066 -0.225,-0.121c-0.095,-0.055 -0.177,-0.11 -0.245,-0.164c-0.068,-0.055 -0.129,-0.106 -0.183,-0.153c-0.054,-0.047 -0.098,-0.098 -0.133,-0.153c-0.035,-0.055 -0.035,-0.106 0,-0.153c0.035,-0.047 0.09,-0.07 0.165,-0.07c0.074,0 0.166,0 0.274,0c0.108,0 0.196,0.006 0.264,0.019c0.067,0.013 0.133,0.034 0.195,0.061c0.063,0.027 0.131,0.058 0.204,0.092c0.073,0.034 0.147,0.068 0.222,0.102c0.075,0.034 0.16,0.071 0.256,0.112c0.096,0.04 0.188,0.081 0.277,0.123c0.089,0.042 0.181,0.086 0.277,0.133c0.095,0.047 0.194,0.094 0.295,0.141c0.101,0.047 0.199,0.092 0.295,0.133c0.096,0.042 0.195,0.083 0.298,0.124c0.102,0.04 0.204,0.081 0.305,0.121c0.101,0.041 0.196,0.081 0.285,0.122c0.089,0.04 0.17,0.074 0.245,0.102c0.075,0.027 0.153,0.054 0.235,0.082c0.082,0.027 0.157,0.055 0.225,0.082c0.068,0.028 0.132,0.054 0.193,0.08c0.061,0.026 0.119,0.05 0.173,0.071c0.053,0.021 0.118,0.048 0.193,0.082c0.075,0.034 0.136,0.068 0.185,0.102c0.049,0.034 0.015,0.054 -0.102,0.061c-0.116,0.006 -0.222,0.01 -0.316,0.01c-0.094,0 -0.192,-0.004 -0.295,-0.01c-0.102,-0.007 -0.211,-0.017 -0.326,-0.03c-0.115,-0.013 -0.234,-0.033 -0.358,-0.06c-0.124,-0.028 -0.25,-0.052 -0.379,-0.073c-0.129,-0.021 -0.261,-0.041 -0.396,-0.061c-0.136,-0.019 -0.266,-0.043 -0.39,-0.07c-0.123,-0.028 -0.246,-0.055 -0.368,-0.082c-0.122,-0.028 -0.24,-0.055 -0.355,-0.083c-0.115,-0.027 -0.227,-0.055 -0.337,-0.082c-0.11,-0.027 -0.215,-0.058 -0.316,-0.092c-0.101,-0.034 -0.196,-0.064 -0.285,-0.09c-0.089,-0.026 -0.184,-0.06 -0.287,-0.102c-0.103,-0.042 -0.188,-0.083 -0.256,-0.123c-0.068,-0.041 -0.139,-0.081 -0.214,-0.122c-0.075,-0.04 -0.146,-0.078 -0.214,-0.111c-0.068,-0.034 -0.129,-0.071 -0.183,-0.112c-0.054,-0.041 -0.108,-0.078 -0.162,-0.112c-0.054,-0.034 -0.112,-0.078 -0.175,-0.133c-0.062,-0.055 -0.114,-0.113 -0.154,-0.174c-0.04,-0.061 -0.033,-0.126 0.021,-0.194c0.054,-0.068 0.125,-0.102 0.214,-0.102l0.554,0c0.061,0 0.121,0.007 0.183,0.022c0.06,0.014 0.125,0.034 0.193,0.06c0.068,0.026 0.132,0.06 0.193,0.102c0.061,0.042 0.125,0.08 0.193,0.114c0.068,0.034 0.133,0.074 0.194,0.121c0.06,0.047 0.119,0.091 0.175,0.131c0.055,0.041 0.11,0.085 0.164,0.134c0.054,0.048 0.108,0.092 0.162,0.133c0.054,0.04 0.102,0.081 0.144,0.121c0.041,0.041 0.089,0.092 0.143,0.153c0.054,0.062 0.098,0.12 0.131,0.174c0.033,0.055 0.015,0.099 -0.053,0.134c-0.067,0.033 -0.152,0.05 -0.253,0.05l-0.613,0c-0.061,0 -0.122,-0.01 -0.183,-0.031c-0.061,-0.021 -0.119,-0.042 -0.173,-0.063c-0.054,-0.02 -0.111,-0.044 -0.172,-0.07c-0.061,-0.026 -0.143,-0.067 -0.245,-0.121c-0.103,-0.055 -0.195,-0.117 -0.277,-0.185c-0.082,-0.068 -0.16,-0.132 -0.235,-0.193l-0.113,-0.092" style="fill:none;stroke:#000;stroke-width:1.7px;" />
            <path id="STROKE_AD640432.-6A32.-4685.-BC88.-F465A6177BD8" d="M89.408,129.799l0,-0.723c0,-0.061 0.003,-0.061 0.01,0c0.007,0.062 0.014,0.134 0.021,0.216c0.007,0.082 0.018,0.177 0.032,0.286c0.014,0.108 0.028,0.196 0.041,0.264c0.014,0.068 0.028,0.133 0.042,0.194c0.014,0.061 0.027,0.133 0.039,0.214c0.012,0.081 0.026,0.158 0.04,0.233c0.013,0.074 0.027,0.152 0.041,0.235c0.014,0.082 0.025,0.16 0.032,0.235c0.007,0.074 0.017,0.145 0.031,0.213c0.014,0.068 0.028,0.136 0.042,0.204c0.014,0.068 0.024,0.133 0.031,0.194c0.007,0.061 0.017,0.14 0.029,0.235l0.018,0.143" style="fill:none;stroke:#000;stroke-width:1.7px;" />
        </g>
    </g>
</svg>