<?xml version="1.0" encoding="UTF-8" standalone="no"?><!DOCTYPE svg PUBLIC "-//W3C//DTD SVG 1.1//EN" "http://www.w3.org/Graphics/SVG/1.1/DTD/svg11.dtd"><svg width="100%" height="100%" viewBox="0 0 160 160" version="1.1" xmlns="http://www.w3.org/2000/svg" xmlns:xlink="http://www.w3.org/1999/xlink" xml:space="preserve" style="fill-rule:evenodd;clip-rule:evenodd;stroke-linecap:round;stroke-linejoin:round;"><g id="legs"><g id="jack.-in.-the.-box"><path id="STROKE_35856BF7.-50A8.-4E4C.-B913.-9D67E78CFCCF" d="M67.346,119.362c-0.033,-0.114 -0.054,-0.204 -0.063,-0.27c-0.008,-0.067 -0.02,-0.129 -0.035,-0.186c-0.015,-0.057 -0.039,-0.11 -0.073,-0.161c-0.033,-0.05 -0.075,-0.092 -0.123,-0.123c-0.049,-0.032 -0.098,-0.064 -0.149,-0.098c-0.051,-0.033 -0.104,-0.062 -0.161,-0.088c-0.057,-0.025 -0.118,-0.041 -0.184,-0.049c-0.065,-0.008 -0.132,-0.012 -0.199,-0.012c-0.068,0 -0.134,0 -0.2,0c-0.065,0 -0.126,0.004 -0.183,0.012c-0.057,0.008 -0.115,0.028 -0.174,0.061c-0.059,0.034 -0.113,0.075 -0.162,0.124c-0.048,0.049 -0.098,0.094 -0.148,0.135c-0.051,0.041 -0.097,0.083 -0.137,0.124c-0.04,0.041 -0.085,0.082 -0.136,0.123c-0.05,0.041 -0.096,0.086 -0.136,0.135c-0.04,0.049 -0.072,0.103 -0.098,0.162c-0.025,0.058 -0.042,0.116 -0.05,0.173c-0.009,0.057 -0.013,0.115 -0.013,0.173l0,0.447c0,0.074 0.008,0.144 0.025,0.209c0.017,0.064 0.042,0.13 0.076,0.197c0.034,0.066 0.067,0.132 0.098,0.197c0.032,0.065 0.069,0.134 0.111,0.209c0.042,0.074 0.083,0.145 0.123,0.211c0.04,0.066 0.073,0.128 0.098,0.185c0.026,0.057 0.051,0.115 0.077,0.173c0.025,0.059 0.058,0.121 0.098,0.185c0.04,0.065 0.081,0.131 0.123,0.198c0.042,0.066 0.08,0.124 0.114,0.173c0.034,0.049 0.066,0.103 0.098,0.161c0.032,0.059 0.069,0.113 0.111,0.162c0.042,0.049 0.079,0.098 0.111,0.147c0.031,0.049 0.064,0.098 0.098,0.147c0.034,0.049 0.072,0.098 0.114,0.147c0.042,0.049 0.083,0.099 0.123,0.15c0.04,0.051 0.081,0.096 0.124,0.138c0.042,0.041 0.083,0.082 0.123,0.123c0.04,0.041 0.081,0.082 0.124,0.124c0.042,0.041 0.083,0.082 0.123,0.123c0.04,0.041 0.086,0.077 0.136,0.109c0.051,0.032 0.1,0.068 0.149,0.109c0.049,0.041 0.101,0.083 0.158,0.124c0.057,0.041 0.115,0.082 0.174,0.123c0.059,0.042 0.117,0.083 0.174,0.124c0.057,0.041 0.115,0.082 0.174,0.123c0.06,0.041 0.122,0.082 0.187,0.124c0.066,0.041 0.131,0.082 0.196,0.123c0.066,0.041 0.14,0.078 0.222,0.112c0.082,0.033 0.169,0.07 0.26,0.111c0.09,0.041 0.185,0.083 0.284,0.124c0.1,0.041 0.199,0.082 0.298,0.123c0.099,0.041 0.203,0.079 0.31,0.112c0.108,0.033 0.215,0.07 0.32,0.111c0.106,0.041 0.208,0.083 0.307,0.124c0.099,0.041 0.203,0.082 0.31,0.123c0.108,0.041 0.215,0.078 0.323,0.112c0.108,0.033 0.215,0.07 0.323,0.111c0.108,0.042 0.19,0.075 0.247,0.1c0.057,0.026 0.118,0.046 0.184,0.062c0.065,0.016 0.127,0.032 0.186,0.047c0.059,0.016 0.122,0.037 0.187,0.062c0.065,0.025 0.131,0.046 0.196,0.062c0.065,0.015 0.135,0.036 0.209,0.061c0.074,0.026 0.152,0.046 0.234,0.062c0.083,0.016 0.162,0.037 0.238,0.062c0.076,0.025 0.159,0.051 0.25,0.076c0.091,0.025 0.181,0.05 0.272,0.074c0.091,0.023 0.177,0.048 0.26,0.073c0.082,0.025 0.168,0.05 0.259,0.074c0.091,0.023 0.186,0.048 0.285,0.073c0.099,0.026 0.194,0.046 0.285,0.062c0.091,0.016 0.181,0.036 0.272,0.062c0.091,0.025 0.193,0.05 0.307,0.076c0.114,0.025 0.217,0.049 0.307,0.073c0.091,0.024 0.194,0.049 0.31,0.074c0.116,0.025 0.228,0.046 0.336,0.062c0.108,0.015 0.218,0.036 0.332,0.061c0.114,0.026 0.229,0.05 0.345,0.074c0.116,0.024 0.228,0.048 0.336,0.074c0.107,0.025 0.215,0.046 0.323,0.061c0.107,0.016 0.226,0.037 0.357,0.062c0.131,0.025 0.25,0.05 0.358,0.076c0.108,0.025 0.22,0.05 0.336,0.073c0.116,0.024 0.231,0.045 0.344,0.062c0.114,0.018 0.23,0.034 0.346,0.05c0.116,0.016 0.228,0.033 0.335,0.05c0.108,0.017 0.227,0.03 0.358,0.038c0.131,0.008 0.254,0.02 0.37,0.036c0.116,0.016 0.237,0.027 0.361,0.035c0.125,0.008 0.245,0.017 0.361,0.026c0.116,0.01 0.235,0.018 0.358,0.026c0.122,0.008 0.237,0.012 0.345,0.012c0.107,0 0.223,0.004 0.348,0.012c0.124,0.008 0.244,0.012 0.358,0.012l1.357,0c0.1,0 0.211,0.004 0.336,0.012c0.125,0.008 0.245,0.012 0.361,0.012l4.007,0c0.116,0 0.227,-0.004 0.333,-0.012c0.105,-0.008 0.212,-0.016 0.319,-0.024c0.108,-0.008 0.211,-0.016 0.311,-0.024c0.099,-0.008 0.198,-0.016 0.297,-0.026c0.099,-0.009 0.198,-0.022 0.298,-0.038c0.099,-0.015 0.198,-0.027 0.297,-0.035c0.099,-0.008 0.199,-0.021 0.298,-0.038c0.099,-0.018 0.198,-0.03 0.297,-0.038c0.099,-0.008 0.194,-0.02 0.285,-0.036c0.091,-0.016 0.185,-0.032 0.282,-0.05c0.097,-0.017 0.186,-0.03 0.269,-0.038c0.082,-0.008 0.166,-0.024 0.25,-0.047c0.084,-0.024 0.168,-0.041 0.25,-0.05c0.082,-0.01 0.156,-0.022 0.222,-0.038c0.065,-0.016 0.135,-0.033 0.209,-0.05c0.073,-0.017 0.143,-0.03 0.208,-0.038c0.066,-0.008 0.128,-0.02 0.187,-0.035c0.059,-0.016 0.117,-0.028 0.174,-0.036c0.057,-0.008 0.114,-0.017 0.171,-0.026c0.057,-0.01 0.115,-0.022 0.174,-0.038c0.059,-0.016 0.134,-0.032 0.225,-0.048c0.091,-0.015 0.177,-0.036 0.26,-0.061c0.082,-0.026 0.16,-0.051 0.234,-0.077c0.074,-0.025 0.139,-0.049 0.196,-0.073c0.057,-0.024 0.119,-0.052 0.187,-0.085c0.067,-0.034 0.125,-0.067 0.174,-0.1c0.048,-0.033 0.097,-0.075 0.145,-0.124c0.049,-0.049 0.086,-0.102 0.111,-0.159c0.026,-0.057 0.038,-0.115 0.038,-0.173c0,-0.059 -0.004,-0.116 -0.013,-0.173c-0.008,-0.057 -0.045,-0.106 -0.11,-0.148c-0.066,-0.041 -0.127,-0.078 -0.184,-0.111c-0.057,-0.033 -0.119,-0.066 -0.186,-0.1c-0.068,-0.033 -0.13,-0.066 -0.187,-0.1c-0.057,-0.033 -0.118,-0.065 -0.184,-0.097c-0.065,-0.032 -0.135,-0.064 -0.209,-0.097c-0.074,-0.033 -0.152,-0.063 -0.234,-0.088c-0.082,-0.025 -0.173,-0.055 -0.272,-0.088c-0.099,-0.033 -0.203,-0.07 -0.31,-0.112c-0.108,-0.04 -0.195,-0.069 -0.26,-0.085c-0.065,-0.016 -0.128,-0.032 -0.187,-0.047c-0.059,-0.016 -0.121,-0.033 -0.186,-0.05c-0.066,-0.017 -0.127,-0.034 -0.184,-0.05c-0.057,-0.016 -0.119,-0.036 -0.187,-0.062c-0.067,-0.025 -0.13,-0.042 -0.187,-0.05c-0.057,-0.008 -0.113,-0.02 -0.17,-0.038c-0.057,-0.017 -0.12,-0.034 -0.187,-0.05c-0.068,-0.015 -0.13,-0.031 -0.187,-0.047c-0.057,-0.016 -0.118,-0.032 -0.184,-0.05c-0.065,-0.017 -0.127,-0.03 -0.186,-0.038c-0.06,-0.008 -0.122,-0.019 -0.187,-0.035c-0.066,-0.016 -0.127,-0.033 -0.184,-0.05c-0.057,-0.018 -0.122,-0.03 -0.196,-0.038c-0.074,-0.008 -0.145,-0.02 -0.212,-0.036c-0.068,-0.016 -0.138,-0.028 -0.212,-0.038c-0.074,-0.009 -0.152,-0.022 -0.234,-0.038c-0.083,-0.016 -0.165,-0.028 -0.247,-0.035c-0.083,-0.008 -0.169,-0.021 -0.26,-0.038c-0.091,-0.018 -0.181,-0.031 -0.272,-0.039c-0.091,-0.007 -0.181,-0.019 -0.272,-0.035c-0.091,-0.016 -0.186,-0.028 -0.285,-0.036c-0.099,-0.008 -0.194,-0.016 -0.285,-0.026c-0.091,-0.009 -0.182,-0.018 -0.272,-0.026c-0.091,-0.008 -0.186,-0.016 -0.285,-0.023c-0.099,-0.008 -0.194,-0.016 -0.285,-0.024c-0.091,-0.008 -0.186,-0.016 -0.285,-0.024c-0.099,-0.008 -0.193,-0.012 -0.282,-0.012c-0.088,0 -0.182,-0.005 -0.281,-0.014c-0.1,-0.01 -0.195,-0.014 -0.285,-0.014l-1.846,0c-0.114,0 -0.224,-0.004 -0.332,-0.012c-0.108,-0.008 -0.219,-0.012 -0.335,-0.012c-0.117,0 -0.228,-0.004 -0.336,-0.012c-0.108,-0.008 -0.218,-0.016 -0.332,-0.024c-0.114,-0.008 -0.221,-0.012 -0.32,-0.012c-0.099,0 -0.207,-0.004 -0.323,-0.011c-0.116,-0.008 -0.224,-0.012 -0.323,-0.012c-0.099,0 -0.198,-0.005 -0.297,-0.015c-0.1,-0.009 -0.206,-0.014 -0.32,-0.014l-2.46,0c-0.09,0 -0.185,0.005 -0.285,0.014c-0.099,0.01 -0.194,0.023 -0.284,0.038c-0.091,0.016 -0.194,0.032 -0.311,0.048c-0.116,0.016 -0.223,0.032 -0.322,0.05c-0.1,0.017 -0.203,0.03 -0.311,0.038c-0.107,0.008 -0.218,0.02 -0.332,0.035c-0.114,0.016 -0.225,0.033 -0.332,0.05c-0.108,0.017 -0.207,0.034 -0.298,0.05c-0.091,0.016 -0.19,0.032 -0.297,0.05c-0.108,0.017 -0.212,0.034 -0.311,0.05c-0.099,0.016 -0.194,0.036 -0.284,0.061c-0.091,0.026 -0.186,0.046 -0.286,0.062c-0.099,0.016 -0.194,0.032 -0.284,0.048c-0.091,0.016 -0.178,0.032 -0.26,0.05c-0.082,0.017 -0.164,0.034 -0.247,0.05c-0.082,0.015 -0.164,0.032 -0.247,0.049c-0.082,0.018 -0.16,0.038 -0.234,0.062c-0.074,0.024 -0.148,0.044 -0.222,0.062c-0.073,0.017 -0.151,0.034 -0.234,0.05c-0.082,0.015 -0.16,0.032 -0.234,0.049c-0.074,0.018 -0.149,0.038 -0.225,0.062c-0.076,0.024 -0.155,0.048 -0.237,0.074c-0.082,0.025 -0.161,0.045 -0.235,0.061c-0.073,0.016 -0.151,0.037 -0.234,0.062c-0.082,0.025 -0.156,0.05 -0.221,0.074c-0.066,0.023 -0.131,0.048 -0.196,0.073c-0.066,0.026 -0.132,0.055 -0.2,0.088c-0.067,0.034 -0.134,0.058 -0.199,0.074c-0.066,0.016 -0.123,0.04 -0.171,0.074c-0.049,0.033 -0.102,0.062 -0.162,0.087c-0.059,0.025 -0.142,0.067 -0.25,0.124c-0.107,0.057 -0.21,0.11 -0.307,0.159c-0.097,0.049 -0.175,0.086 -0.234,0.111c-0.059,0.025 -0.142,0.059 -0.25,0.1c-0.108,0.041 -0.211,0.086 -0.31,0.135c-0.1,0.049 -0.178,0.087 -0.234,0.112c-0.057,0.025 -0.136,0.058 -0.235,0.099c-0.099,0.042 -0.194,0.083 -0.285,0.124c-0.09,0.041 -0.177,0.086 -0.259,0.135c-0.082,0.05 -0.165,0.095 -0.247,0.136c-0.082,0.041 -0.16,0.086 -0.234,0.135c-0.074,0.049 -0.148,0.098 -0.222,0.147c-0.074,0.049 -0.143,0.098 -0.209,0.147c-0.065,0.05 -0.127,0.099 -0.187,0.15c-0.059,0.051 -0.112,0.096 -0.161,0.138c-0.049,0.041 -0.094,0.082 -0.136,0.123c-0.042,0.041 -0.083,0.082 -0.123,0.123c-0.041,0.042 -0.082,0.083 -0.124,0.124c-0.042,0.041 -0.083,0.082 -0.124,0.123c-0.04,0.042 -0.081,0.083 -0.123,0.124c-0.042,0.041 -0.092,0.09 -0.149,0.147c-0.057,0.057 -0.106,0.119 -0.148,0.185c-0.043,0.067 -0.076,0.133 -0.102,0.197c-0.025,0.065 -0.049,0.127 -0.073,0.185c-0.023,0.059 -0.039,0.121 -0.047,0.186c-0.008,0.065 -0.013,0.126 -0.013,0.185c0,0.058 0,0.12 0,0.185c0,0.065 0.005,0.131 0.013,0.197c0.008,0.066 0.037,0.137 0.086,0.211c0.048,0.075 0.093,0.137 0.136,0.186c0.042,0.049 0.091,0.102 0.148,0.161c0.057,0.058 0.114,0.112 0.171,0.161c0.057,0.049 0.12,0.103 0.187,0.16c0.067,0.057 0.138,0.109 0.212,0.158c0.074,0.049 0.143,0.099 0.209,0.15c0.065,0.051 0.135,0.101 0.209,0.15c0.074,0.049 0.152,0.094 0.234,0.135c0.082,0.041 0.165,0.086 0.247,0.135c0.082,0.049 0.153,0.087 0.212,0.112c0.059,0.025 0.134,0.058 0.225,0.099c0.09,0.042 0.164,0.074 0.221,0.098c0.057,0.023 0.136,0.056 0.235,0.097c0.099,0.041 0.202,0.082 0.31,0.124c0.108,0.041 0.215,0.086 0.323,0.135c0.107,0.049 0.19,0.082 0.247,0.1c0.057,0.017 0.114,0.038 0.171,0.061c0.057,0.024 0.119,0.053 0.186,0.086c0.068,0.033 0.134,0.062 0.2,0.088c0.065,0.025 0.135,0.05 0.209,0.073c0.073,0.024 0.143,0.053 0.209,0.086c0.065,0.033 0.139,0.062 0.221,0.087c0.082,0.026 0.161,0.05 0.235,0.074c0.073,0.024 0.152,0.048 0.237,0.074c0.084,0.025 0.168,0.054 0.25,0.088c0.082,0.033 0.169,0.062 0.259,0.088c0.091,0.025 0.178,0.049 0.26,0.073c0.082,0.024 0.16,0.048 0.234,0.074c0.074,0.025 0.152,0.054 0.234,0.087c0.083,0.034 0.161,0.062 0.235,0.086c0.074,0.024 0.147,0.048 0.221,0.074c0.074,0.025 0.144,0.054 0.209,0.087c0.066,0.033 0.136,0.062 0.212,0.086c0.076,0.023 0.151,0.048 0.225,0.073c0.074,0.026 0.143,0.05 0.209,0.074c0.065,0.024 0.135,0.048 0.209,0.074c0.074,0.025 0.148,0.05 0.221,0.076c0.074,0.025 0.153,0.05 0.238,0.073c0.084,0.024 0.168,0.052 0.25,0.086c0.082,0.033 0.165,0.062 0.247,0.087c0.082,0.026 0.169,0.05 0.259,0.074c0.091,0.024 0.182,0.048 0.273,0.074c0.09,0.025 0.185,0.054 0.284,0.088c0.1,0.033 0.202,0.057 0.307,0.073c0.106,0.016 0.217,0.041 0.333,0.074c0.116,0.033 0.232,0.061 0.348,0.085c0.116,0.024 0.231,0.048 0.345,0.074c0.114,0.025 0.229,0.054 0.345,0.088c0.116,0.033 0.232,0.061 0.348,0.085c0.116,0.024 0.224,0.044 0.323,0.062c0.099,0.017 0.214,0.042 0.345,0.076c0.131,0.033 0.25,0.057 0.358,0.073c0.108,0.016 0.219,0.037 0.335,0.062c0.116,0.025 0.228,0.046 0.336,0.062c0.107,0.016 0.214,0.031 0.32,0.047c0.105,0.016 0.207,0.033 0.307,0.05c0.099,0.018 0.198,0.034 0.297,0.05c0.099,0.016 0.203,0.033 0.31,0.05c0.108,0.017 0.207,0.034 0.298,0.05c0.091,0.015 0.186,0.032 0.285,0.049c0.099,0.018 0.194,0.031 0.285,0.039c0.09,0.007 0.185,0.023 0.285,0.047c0.099,0.024 0.198,0.04 0.297,0.05c0.099,0.009 0.202,0.026 0.307,0.05c0.106,0.024 0.204,0.039 0.295,0.047c0.09,0.008 0.185,0.021 0.284,0.038c0.1,0.018 0.199,0.034 0.298,0.05c0.099,0.016 0.203,0.037 0.31,0.062c0.108,0.025 0.22,0.046 0.336,0.061c0.116,0.016 0.223,0.028 0.323,0.036c0.099,0.008 0.194,0.021 0.284,0.038c0.091,0.017 0.193,0.034 0.307,0.05c0.114,0.016 0.225,0.032 0.333,0.05c0.108,0.017 0.207,0.03 0.297,0.038c0.091,0.008 0.195,0.016 0.311,0.024c0.116,0.008 0.226,0.015 0.332,0.023c0.106,0.008 0.204,0.016 0.294,0.024c0.091,0.008 0.19,0.012 0.298,0.012c0.107,0 0.211,0.005 0.31,0.014c0.099,0.01 0.199,0.014 0.298,0.014l2.228,0c0.116,0 0.227,-0.008 0.333,-0.026c0.105,-0.017 0.187,-0.026 0.246,-0.026c0.059,0 0.122,-0.004 0.187,-0.012c0.065,-0.008 0.135,-0.012 0.209,-0.012c0.074,0 0.143,-0.003 0.209,-0.011c0.065,-0.008 0.136,-0.012 0.212,-0.012c0.076,0 0.151,0 0.225,0c0.074,0 0.148,-0.004 0.221,-0.012c0.074,-0.008 0.148,-0.017 0.222,-0.026c0.074,-0.01 0.148,-0.015 0.222,-0.015c0.073,0 0.144,-0.004 0.212,-0.011c0.067,-0.008 0.149,-0.02 0.246,-0.036c0.097,-0.016 0.191,-0.033 0.282,-0.05c0.091,-0.017 0.17,-0.038 0.238,-0.062c0.067,-0.023 0.129,-0.048 0.186,-0.073c0.057,-0.025 0.107,-0.063 0.149,-0.112c0.042,-0.049 0.079,-0.098 0.111,-0.147c0.032,-0.049 0.056,-0.107 0.073,-0.173c0.017,-0.067 0.034,-0.133 0.05,-0.2c0.017,-0.066 0.026,-0.136 0.026,-0.209c0,-0.073 0,-0.138 0,-0.197c0,-0.058 -0.021,-0.108 -0.064,-0.149c-0.042,-0.041 -0.091,-0.079 -0.148,-0.112c-0.057,-0.033 -0.114,-0.061 -0.171,-0.085c-0.057,-0.024 -0.12,-0.053 -0.187,-0.086c-0.068,-0.033 -0.138,-0.066 -0.212,-0.099c-0.074,-0.034 -0.148,-0.062 -0.222,-0.086c-0.074,-0.024 -0.143,-0.052 -0.209,-0.085c-0.065,-0.034 -0.135,-0.063 -0.209,-0.088c-0.073,-0.025 -0.156,-0.05 -0.246,-0.074c-0.091,-0.023 -0.182,-0.044 -0.273,-0.061c-0.09,-0.018 -0.19,-0.035 -0.297,-0.05c-0.108,-0.016 -0.191,-0.028 -0.25,-0.036c-0.059,-0.008 -0.117,-0.017 -0.174,-0.026c-0.057,-0.01 -0.114,-0.018 -0.171,-0.026c-0.057,-0.008 -0.119,-0.016 -0.184,-0.024c-0.065,-0.008 -0.136,-0.02 -0.212,-0.036c-0.076,-0.015 -0.151,-0.028 -0.225,-0.038c-0.074,-0.009 -0.147,-0.018 -0.221,-0.026c-0.074,-0.008 -0.152,-0.02 -0.235,-0.035c-0.082,-0.016 -0.169,-0.028 -0.259,-0.036c-0.091,-0.008 -0.177,-0.017 -0.26,-0.026c-0.082,-0.009 -0.173,-0.018 -0.272,-0.026c-0.099,-0.008 -0.194,-0.02 -0.285,-0.036c-0.091,-0.015 -0.186,-0.027 -0.285,-0.035c-0.099,-0.008 -0.206,-0.017 -0.322,-0.026c-0.117,-0.01 -0.22,-0.019 -0.311,-0.027c-0.09,-0.007 -0.193,-0.019 -0.307,-0.035c-0.114,-0.016 -0.22,-0.028 -0.32,-0.036c-0.099,-0.008 -0.202,-0.02 -0.31,-0.038c-0.107,-0.017 -0.206,-0.03 -0.297,-0.038c-0.091,-0.008 -0.186,-0.02 -0.285,-0.035c-0.099,-0.016 -0.198,-0.029 -0.298,-0.038c-0.099,-0.01 -0.198,-0.023 -0.297,-0.038c-0.099,-0.016 -0.194,-0.028 -0.285,-0.036c-0.091,-0.008 -0.181,-0.016 -0.272,-0.024c-0.091,-0.008 -0.178,-0.016 -0.26,-0.026c-0.082,-0.009 -0.164,-0.018 -0.247,-0.026c-0.082,-0.008 -0.164,-0.012 -0.247,-0.012l-3.957,0c-0.099,0 -0.194,0.004 -0.284,0.012c-0.091,0.008 -0.182,0.012 -0.272,0.012c-0.091,0 -0.182,0.009 -0.273,0.026c-0.09,0.017 -0.181,0.03 -0.272,0.038c-0.091,0.008 -0.177,0.02 -0.26,0.036c-0.082,0.015 -0.164,0.028 -0.246,0.038c-0.083,0.009 -0.169,0.022 -0.26,0.038c-0.091,0.015 -0.177,0.027 -0.26,0.035c-0.082,0.008 -0.164,0.021 -0.246,0.038c-0.083,0.018 -0.165,0.03 -0.247,0.038c-0.083,0.008 -0.169,0.02 -0.26,0.036c-0.09,0.016 -0.177,0.032 -0.259,0.05c-0.083,0.017 -0.165,0.034 -0.247,0.05c-0.083,0.015 -0.173,0.027 -0.273,0.035c-0.099,0.008 -0.189,0.016 -0.272,0.024c-0.082,0.008 -0.164,0.017 -0.247,0.026c-0.082,0.009 -0.164,0.022 -0.247,0.038c-0.082,0.016 -0.165,0.024 -0.25,0.024c-0.084,0 -0.167,0.004 -0.25,0.011c-0.082,0.008 -0.16,0.016 -0.234,0.024c-0.074,0.008 -0.148,0.017 -0.222,0.026c-0.073,0.01 -0.147,0.019 -0.221,0.027c-0.074,0.007 -0.148,0.015 -0.222,0.023c-0.074,0.008 -0.147,0.016 -0.221,0.024c-0.074,0.008 -0.145,0.016 -0.212,0.024c-0.068,0.008 -0.134,0.016 -0.2,0.026c-0.065,0.009 -0.131,0.022 -0.196,0.038c-0.065,0.016 -0.128,0.028 -0.187,0.036c-0.059,0.007 -0.141,0.028 -0.247,0.061c-0.105,0.034 -0.203,0.063 -0.294,0.088c-0.091,0.025 -0.186,0.059 -0.285,0.1c-0.099,0.041 -0.186,0.073 -0.259,0.097c-0.074,0.024 -0.157,0.056 -0.247,0.097c-0.091,0.042 -0.174,0.083 -0.25,0.124c-0.076,0.041 -0.156,0.082 -0.238,0.123c-0.082,0.041 -0.16,0.083 -0.234,0.124c-0.074,0.041 -0.148,0.082 -0.222,0.123c-0.073,0.041 -0.147,0.083 -0.221,0.124c-0.074,0.041 -0.152,0.082 -0.235,0.123c-0.082,0.041 -0.164,0.078 -0.246,0.112c-0.083,0.033 -0.158,0.074 -0.225,0.123c-0.067,0.049 -0.138,0.094 -0.212,0.136c-0.074,0.041 -0.139,0.086 -0.196,0.137c-0.057,0.051 -0.111,0.097 -0.162,0.138c-0.05,0.041 -0.104,0.082 -0.161,0.123c-0.057,0.041 -0.11,0.078 -0.159,0.109c-0.048,0.032 -0.102,0.065 -0.161,0.098c-0.059,0.033 -0.109,0.07 -0.149,0.111c-0.04,0.042 -0.085,0.079 -0.136,0.112c-0.05,0.033 -0.108,0.074 -0.174,0.123c-0.065,0.049 -0.131,0.098 -0.196,0.148c-0.066,0.049 -0.119,0.103 -0.162,0.161c-0.042,0.059 -0.075,0.125 -0.098,0.199c-0.023,0.075 -0.047,0.145 -0.072,0.209c-0.026,0.065 -0.043,0.135 -0.051,0.209c-0.009,0.075 -0.017,0.145 -0.026,0.212c-0.008,0.066 -0.012,0.136 -0.012,0.208l0,0.608c0,0.083 0.017,0.152 0.051,0.209c0.033,0.057 0.074,0.119 0.123,0.185c0.048,0.067 0.094,0.121 0.136,0.162c0.042,0.041 0.088,0.082 0.136,0.123c0.049,0.041 0.098,0.082 0.149,0.124c0.051,0.041 0.1,0.086 0.149,0.135c0.048,0.049 0.097,0.094 0.145,0.135c0.049,0.042 0.098,0.083 0.149,0.124c0.051,0.041 0.1,0.082 0.149,0.123c0.048,0.041 0.102,0.086 0.161,0.136c0.06,0.049 0.122,0.098 0.187,0.147c0.065,0.049 0.131,0.094 0.196,0.135c0.066,0.041 0.131,0.086 0.196,0.135c0.066,0.049 0.133,0.091 0.2,0.124c0.067,0.033 0.138,0.07 0.212,0.112c0.074,0.041 0.152,0.082 0.234,0.123c0.082,0.041 0.173,0.082 0.273,0.123c0.099,0.041 0.177,0.071 0.234,0.088c0.057,0.018 0.115,0.038 0.174,0.062c0.059,0.024 0.121,0.048 0.187,0.074c0.065,0.025 0.13,0.05 0.196,0.075c0.065,0.026 0.131,0.05 0.196,0.074c0.066,0.024 0.132,0.052 0.199,0.085c0.068,0.034 0.139,0.063 0.213,0.088c0.073,0.026 0.143,0.054 0.208,0.086c0.066,0.032 0.136,0.064 0.209,0.097c0.074,0.033 0.144,0.066 0.209,0.1c0.066,0.033 0.14,0.062 0.222,0.088c0.082,0.025 0.161,0.054 0.237,0.085c0.076,0.032 0.155,0.06 0.238,0.086c0.082,0.025 0.164,0.054 0.247,0.087c0.082,0.034 0.168,0.062 0.259,0.086c0.091,0.024 0.182,0.048 0.272,0.073c0.091,0.026 0.19,0.055 0.298,0.088c0.108,0.034 0.214,0.067 0.32,0.1c0.105,0.033 0.212,0.062 0.319,0.086c0.108,0.023 0.22,0.052 0.336,0.085c0.116,0.033 0.228,0.062 0.335,0.088c0.108,0.025 0.232,0.058 0.371,0.1c0.139,0.041 0.271,0.073 0.395,0.097c0.125,0.024 0.248,0.052 0.371,0.085c0.122,0.034 0.241,0.063 0.357,0.088c0.116,0.025 0.228,0.054 0.336,0.086c0.108,0.031 0.211,0.056 0.31,0.073c0.099,0.018 0.194,0.038 0.285,0.062c0.091,0.024 0.186,0.048 0.285,0.074c0.099,0.025 0.19,0.046 0.272,0.063c0.082,0.018 0.169,0.039 0.26,0.062c0.091,0.024 0.177,0.045 0.259,0.062c0.083,0.017 0.169,0.034 0.26,0.05c0.09,0.016 0.177,0.032 0.259,0.047c0.083,0.016 0.169,0.033 0.26,0.05c0.091,0.018 0.181,0.034 0.272,0.05c0.091,0.016 0.186,0.033 0.285,0.05c0.099,0.018 0.201,0.034 0.307,0.05c0.105,0.016 0.208,0.028 0.307,0.036c0.099,0.008 0.207,0.02 0.323,0.037c0.116,0.018 0.232,0.03 0.348,0.038c0.116,0.008 0.231,0.02 0.345,0.036c0.114,0.016 0.233,0.028 0.358,0.036c0.124,0.007 0.245,0.016 0.361,0.026c0.116,0.009 0.228,0.018 0.335,0.026c0.108,0.008 0.231,0.02 0.371,0.035c0.139,0.016 0.271,0.028 0.395,0.036c0.125,0.008 0.244,0.017 0.358,0.026c0.114,0.01 0.229,0.022 0.345,0.038c0.116,0.016 0.232,0.032 0.348,0.048c0.116,0.016 0.224,0.028 0.323,0.038c0.099,0.009 0.21,0.018 0.332,0.026c0.123,0.008 0.229,0.019 0.32,0.035c0.091,0.016 0.19,0.028 0.298,0.036c0.107,0.008 0.219,0.017 0.335,0.026c0.116,0.01 0.215,0.018 0.298,0.026c0.082,0.008 0.173,0.016 0.272,0.024c0.099,0.008 0.194,0.016 0.285,0.024c0.09,0.008 0.181,0.011 0.272,0.011c0.091,0 0.177,0.004 0.26,0.012c0.082,0.008 0.164,0.017 0.247,0.027c0.082,0.009 0.16,0.018 0.234,0.026c0.074,0.008 0.147,0.016 0.221,0.023c0.074,0.008 0.148,0.016 0.222,0.024c0.074,0.008 0.148,0.016 0.222,0.024c0.073,0.008 0.144,0.012 0.211,0.012c0.068,0 0.135,0.005 0.2,0.014c0.065,0.01 0.131,0.018 0.196,0.026c0.066,0.008 0.128,0.012 0.187,0.012l1.77,0c0.082,0 0.164,-0.004 0.246,-0.012c0.083,-0.008 0.173,-0.012 0.273,-0.012c0.099,0 0.194,-0.004 0.284,-0.014c0.091,-0.009 0.194,-0.014 0.311,-0.014c0.116,0 0.218,-0.004 0.307,-0.012c0.088,-0.008 0.178,-0.012 0.269,-0.012c0.091,0 0.181,-0.004 0.272,-0.012c0.091,-0.008 0.181,-0.016 0.272,-0.024c0.091,-0.007 0.174,-0.015 0.25,-0.023c0.076,-0.008 0.147,-0.012 0.212,-0.012c0.066,0 0.131,-0.005 0.197,-0.014c0.065,-0.01 0.126,-0.019 0.183,-0.027c0.057,-0.008 0.128,-0.015 0.212,-0.023c0.085,-0.008 0.164,-0.025 0.238,-0.05c0.074,-0.025 0.135,-0.054 0.183,-0.086c0.049,-0.031 0.09,-0.08 0.124,-0.147c0.034,-0.066 0.066,-0.128 0.098,-0.185c0.032,-0.057 0.052,-0.119 0.06,-0.185c0.008,-0.067 0.013,-0.133 0.013,-0.2c0,-0.066 -0.025,-0.115 -0.073,-0.147c-0.049,-0.032 -0.11,-0.064 -0.184,-0.097c-0.074,-0.033 -0.144,-0.062 -0.212,-0.088c-0.067,-0.025 -0.138,-0.051 -0.212,-0.076c-0.074,-0.025 -0.148,-0.05 -0.222,-0.074c-0.073,-0.023 -0.147,-0.044 -0.221,-0.061c-0.074,-0.018 -0.16,-0.038 -0.259,-0.062c-0.1,-0.024 -0.199,-0.044 -0.298,-0.062c-0.099,-0.017 -0.177,-0.034 -0.234,-0.049c-0.057,-0.016 -0.119,-0.028 -0.184,-0.036c-0.065,-0.008 -0.132,-0.016 -0.2,-0.024c-0.067,-0.008 -0.133,-0.02 -0.199,-0.038c-0.065,-0.017 -0.135,-0.03 -0.209,-0.038c-0.074,-0.008 -0.147,-0.02 -0.221,-0.035c-0.074,-0.016 -0.152,-0.033 -0.235,-0.05c-0.082,-0.018 -0.164,-0.03 -0.246,-0.038c-0.083,-0.008 -0.162,-0.02 -0.238,-0.036c-0.076,-0.016 -0.159,-0.032 -0.25,-0.05c-0.091,-0.017 -0.177,-0.034 -0.26,-0.049c-0.082,-0.016 -0.168,-0.033 -0.259,-0.05c-0.091,-0.018 -0.182,-0.038 -0.272,-0.062c-0.091,-0.024 -0.182,-0.044 -0.273,-0.062c-0.09,-0.017 -0.181,-0.038 -0.272,-0.062c-0.091,-0.023 -0.181,-0.044 -0.272,-0.061c-0.091,-0.018 -0.185,-0.038 -0.282,-0.062c-0.097,-0.024 -0.195,-0.045 -0.294,-0.062c-0.099,-0.017 -0.198,-0.034 -0.298,-0.05c-0.099,-0.015 -0.206,-0.031 -0.322,-0.047c-0.116,-0.016 -0.228,-0.032 -0.336,-0.05c-0.108,-0.017 -0.215,-0.034 -0.323,-0.05c-0.107,-0.016 -0.21,-0.027 -0.307,-0.035c-0.097,-0.008 -0.208,-0.021 -0.332,-0.038c-0.125,-0.018 -0.241,-0.031 -0.349,-0.038c-0.107,-0.008 -0.219,-0.016 -0.335,-0.024c-0.116,-0.008 -0.227,-0.016 -0.332,-0.024c-0.106,-0.008 -0.212,-0.021 -0.32,-0.038c-0.108,-0.017 -0.207,-0.03 -0.297,-0.038c-0.091,-0.008 -0.195,-0.016 -0.311,-0.024c-0.116,-0.008 -0.215,-0.016 -0.297,-0.023c-0.083,-0.008 -0.173,-0.012 -0.273,-0.012l-5.121,0c-0.099,0 -0.194,0.004 -0.285,0.012c-0.091,0.007 -0.182,0.019 -0.272,0.035c-0.091,0.016 -0.173,0.028 -0.247,0.036c-0.074,0.008 -0.152,0.02 -0.234,0.038c-0.083,0.017 -0.161,0.03 -0.234,0.038c-0.074,0.008 -0.144,0.024 -0.209,0.05c-0.066,0.025 -0.132,0.046 -0.2,0.061c-0.068,0.016 -0.134,0.032 -0.199,0.048c-0.066,0.016 -0.131,0.032 -0.196,0.05c-0.066,0.017 -0.136,0.034 -0.21,0.05c-0.073,0.016 -0.144,0.027 -0.212,0.035c-0.067,0.008 -0.142,0.021 -0.224,0.038c-0.083,0.017 -0.161,0.03 -0.235,0.038c-0.073,0.008 -0.151,0.016 -0.234,0.024c-0.082,0.008 -0.164,0.016 -0.247,0.024c-0.082,0.007 -0.173,0.016 -0.272,0.026c-0.099,0.009 -0.194,0.018 -0.285,0.026c-0.091,0.008 -0.181,0.012 -0.272,0.012c-0.091,0 -0.186,0.004 -0.285,0.012c-0.099,0.008 -0.194,0.011 -0.285,0.011c-0.09,0 -0.181,0 -0.272,0c-0.091,0 -0.181,0.004 -0.272,0.012c-0.091,0.008 -0.182,0.012 -0.273,0.012c-0.09,0 -0.173,0.004 -0.246,0.012c-0.074,0.008 -0.148,0.017 -0.222,0.026c-0.074,0.01 -0.143,0.022 -0.209,0.038c-0.065,0.016 -0.128,0.028 -0.187,0.036c-0.059,0.008 -0.121,0.02 -0.186,0.038c-0.066,0.017 -0.152,0.042 -0.26,0.074c-0.108,0.031 -0.21,0.067 -0.307,0.108c-0.097,0.042 -0.191,0.083 -0.282,0.124c-0.091,0.041 -0.178,0.078 -0.262,0.112c-0.085,0.033 -0.172,0.07 -0.263,0.111c-0.091,0.041 -0.177,0.074 -0.26,0.1c-0.082,0.025 -0.176,0.054 -0.281,0.088c-0.106,0.033 -0.2,0.065 -0.282,0.097c-0.082,0.032 -0.166,0.064 -0.25,0.097c-0.085,0.034 -0.164,0.071 -0.237,0.112c-0.074,0.041 -0.14,0.078 -0.197,0.111c-0.057,0.034 -0.114,0.071 -0.171,0.112c-0.057,0.041 -0.102,0.086 -0.136,0.136c-0.034,0.049 -0.068,0.098 -0.101,0.149c-0.034,0.051 -0.071,0.112 -0.111,0.185c-0.04,0.073 -0.077,0.147 -0.111,0.221c-0.034,0.074 -0.066,0.145 -0.098,0.211c-0.032,0.067 -0.064,0.129 -0.098,0.186c-0.034,0.057 -0.067,0.114 -0.101,0.173c-0.034,0.058 -0.067,0.12 -0.098,0.185c-0.032,0.065 -0.065,0.131 -0.099,0.197c-0.033,0.066 -0.063,0.137 -0.088,0.211c-0.025,0.075 -0.038,0.144 -0.038,0.209l0,0.815c0,0.066 0.004,0.136 0.013,0.211c0.008,0.074 0.037,0.149 0.088,0.223c0.051,0.074 0.105,0.144 0.161,0.209c0.057,0.065 0.119,0.122 0.184,0.171c0.066,0.049 0.128,0.103 0.187,0.161c0.059,0.059 0.117,0.112 0.174,0.162c0.057,0.049 0.114,0.098 0.171,0.147c0.057,0.049 0.115,0.094 0.174,0.135c0.059,0.041 0.121,0.086 0.187,0.135c0.065,0.049 0.139,0.103 0.221,0.162c0.083,0.059 0.169,0.112 0.26,0.161c0.091,0.049 0.181,0.098 0.272,0.147c0.091,0.049 0.186,0.099 0.285,0.15c0.099,0.051 0.177,0.088 0.234,0.112c0.057,0.023 0.115,0.052 0.174,0.085c0.059,0.033 0.117,0.063 0.174,0.088c0.057,0.025 0.119,0.054 0.184,0.085c0.065,0.032 0.131,0.061 0.196,0.086c0.066,0.025 0.132,0.055 0.2,0.088c0.067,0.033 0.138,0.066 0.212,0.099c0.074,0.034 0.148,0.071 0.221,0.112c0.074,0.041 0.148,0.078 0.222,0.109c0.074,0.032 0.152,0.068 0.234,0.109c0.083,0.042 0.161,0.083 0.234,0.124c0.074,0.041 0.153,0.082 0.238,0.123c0.084,0.041 0.168,0.083 0.25,0.124c0.082,0.041 0.16,0.082 0.234,0.123c0.074,0.041 0.152,0.083 0.234,0.124c0.083,0.041 0.165,0.078 0.247,0.111c0.083,0.033 0.165,0.071 0.247,0.112c0.082,0.041 0.165,0.078 0.247,0.111c0.082,0.034 0.173,0.071 0.272,0.112c0.1,0.041 0.199,0.082 0.298,0.123c0.099,0.042 0.198,0.079 0.297,0.112c0.1,0.033 0.199,0.067 0.298,0.1c0.099,0.033 0.194,0.066 0.285,0.099c0.091,0.034 0.185,0.066 0.282,0.098c0.097,0.031 0.19,0.064 0.281,0.097c0.091,0.033 0.186,0.067 0.285,0.1c0.099,0.033 0.199,0.066 0.298,0.1c0.099,0.033 0.202,0.066 0.31,0.099c0.108,0.033 0.207,0.062 0.298,0.086c0.09,0.023 0.189,0.052 0.297,0.085c0.108,0.033 0.215,0.067 0.323,0.1c0.107,0.033 0.207,0.062 0.297,0.085c0.091,0.024 0.194,0.053 0.308,0.086c0.114,0.033 0.212,0.058 0.294,0.076c0.082,0.017 0.177,0.038 0.285,0.061c0.107,0.024 0.215,0.049 0.323,0.074c0.107,0.025 0.215,0.05 0.322,0.074c0.108,0.023 0.216,0.048 0.323,0.073c0.108,0.026 0.215,0.051 0.32,0.076c0.106,0.026 0.221,0.05 0.345,0.074c0.125,0.023 0.241,0.044 0.348,0.061c0.108,0.018 0.223,0.038 0.345,0.062c0.123,0.024 0.242,0.048 0.358,0.074c0.116,0.025 0.236,0.046 0.361,0.062c0.124,0.015 0.24,0.032 0.348,0.05c0.108,0.017 0.214,0.038 0.32,0.061c0.105,0.024 0.207,0.045 0.307,0.062c0.099,0.017 0.207,0.038 0.323,0.061c0.116,0.024 0.228,0.045 0.335,0.062c0.108,0.018 0.211,0.034 0.31,0.05c0.099,0.016 0.202,0.028 0.307,0.036c0.106,0.008 0.212,0.02 0.32,0.038c0.108,0.017 0.215,0.034 0.323,0.05c0.108,0.016 0.224,0.031 0.348,0.047c0.125,0.016 0.244,0.033 0.358,0.05c0.114,0.018 0.225,0.034 0.332,0.05c0.108,0.016 0.215,0.032 0.323,0.05c0.108,0.017 0.22,0.034 0.336,0.049c0.116,0.016 0.219,0.028 0.31,0.036c0.091,0.008 0.184,0.021 0.282,0.038c0.097,0.018 0.195,0.034 0.294,0.05c0.099,0.016 0.194,0.028 0.285,0.036c0.091,0.007 0.185,0.016 0.285,0.026c0.099,0.009 0.198,0.018 0.297,0.026c0.099,0.008 0.194,0.02 0.285,0.036c0.091,0.015 0.186,0.023 0.285,0.023c0.099,0 0.198,0.004 0.298,0.012c0.099,0.008 0.194,0.017 0.284,0.026c0.091,0.01 0.182,0.014 0.272,0.014l1.843,0c0.116,0 0.224,-0.008 0.323,-0.026c0.099,-0.017 0.198,-0.034 0.297,-0.049c0.099,-0.016 0.194,-0.028 0.285,-0.036c0.091,-0.008 0.177,-0.021 0.26,-0.038c0.082,-0.018 0.164,-0.034 0.246,-0.05c0.083,-0.016 0.161,-0.036 0.235,-0.062c0.074,-0.025 0.147,-0.054 0.221,-0.088c0.074,-0.033 0.14,-0.066 0.197,-0.099c0.057,-0.033 0.106,-0.071 0.148,-0.112c0.042,-0.041 0.085,-0.086 0.127,-0.135c0.042,-0.049 0.075,-0.106 0.098,-0.171c0.023,-0.065 0.035,-0.127 0.035,-0.185c0,-0.059 0,-0.121 0,-0.186c0,-0.064 -0.02,-0.122 -0.06,-0.173c-0.04,-0.05 -0.081,-0.1 -0.124,-0.149c-0.042,-0.049 -0.087,-0.099 -0.136,-0.148c-0.048,-0.049 -0.102,-0.098 -0.161,-0.147c-0.059,-0.049 -0.117,-0.098 -0.174,-0.147c-0.057,-0.049 -0.119,-0.099 -0.184,-0.15c-0.065,-0.05 -0.135,-0.1 -0.209,-0.149c-0.074,-0.049 -0.144,-0.09 -0.212,-0.123c-0.067,-0.034 -0.138,-0.066 -0.212,-0.098c-0.074,-0.031 -0.148,-0.06 -0.222,-0.085c-0.073,-0.026 -0.16,-0.055 -0.259,-0.088c-0.099,-0.033 -0.203,-0.066 -0.31,-0.1c-0.108,-0.033 -0.19,-0.062 -0.247,-0.085c-0.057,-0.024 -0.114,-0.045 -0.171,-0.062c-0.057,-0.017 -0.119,-0.038 -0.187,-0.062c-0.067,-0.024 -0.134,-0.044 -0.199,-0.062c-0.066,-0.017 -0.131,-0.038 -0.197,-0.061c-0.065,-0.024 -0.135,-0.048 -0.208,-0.074c-0.074,-0.025 -0.149,-0.05 -0.225,-0.076c-0.076,-0.025 -0.151,-0.046 -0.225,-0.061c-0.074,-0.016 -0.152,-0.037 -0.234,-0.062c-0.082,-0.026 -0.161,-0.046 -0.235,-0.062c-0.073,-0.016 -0.147,-0.032 -0.221,-0.047c-0.074,-0.016 -0.152,-0.029 -0.234,-0.038c-0.082,-0.01 -0.161,-0.022 -0.235,-0.038c-0.073,-0.016 -0.151,-0.028 -0.234,-0.036c-0.082,-0.008 -0.161,-0.016 -0.237,-0.024c-0.076,-0.008 -0.155,-0.016 -0.238,-0.026c-0.082,-0.009 -0.164,-0.018 -0.246,-0.026c-0.083,-0.008 -0.165,-0.02 -0.247,-0.035c-0.083,-0.016 -0.165,-0.028 -0.247,-0.036c-0.083,-0.008 -0.169,-0.021 -0.26,-0.038c-0.091,-0.018 -0.181,-0.034 -0.272,-0.05c-0.091,-0.016 -0.182,-0.032 -0.272,-0.05c-0.091,-0.017 -0.186,-0.034 -0.285,-0.05c-0.099,-0.016 -0.194,-0.036 -0.285,-0.062c-0.091,-0.025 -0.193,-0.049 -0.307,-0.073c-0.114,-0.024 -0.216,-0.039 -0.307,-0.047c-0.091,-0.008 -0.194,-0.025 -0.31,-0.05c-0.116,-0.026 -0.232,-0.046 -0.349,-0.062c-0.115,-0.016 -0.227,-0.032 -0.335,-0.05c-0.108,-0.017 -0.218,-0.034 -0.332,-0.05c-0.114,-0.016 -0.229,-0.028 -0.345,-0.035c-0.116,-0.008 -0.224,-0.017 -0.323,-0.027c-0.1,-0.009 -0.215,-0.022 -0.345,-0.038c-0.131,-0.015 -0.254,-0.027 -0.371,-0.035c-0.116,-0.008 -0.232,-0.016 -0.348,-0.024c-0.116,-0.008 -0.235,-0.017 -0.358,-0.026c-0.122,-0.009 -0.241,-0.014 -0.357,-0.014l-3.773,0c-0.108,0 -0.216,0.005 -0.323,0.014c-0.108,0.009 -0.207,0.018 -0.298,0.026c-0.09,0.008 -0.185,0.016 -0.284,0.024c-0.1,0.008 -0.199,0.02 -0.298,0.035c-0.099,0.016 -0.194,0.029 -0.285,0.038c-0.091,0.01 -0.181,0.019 -0.272,0.027c-0.091,0.007 -0.177,0.019 -0.26,0.035c-0.082,0.016 -0.164,0.028 -0.247,0.036c-0.082,0.008 -0.164,0.02 -0.247,0.038c-0.082,0.017 -0.16,0.03 -0.234,0.038c-0.074,0.008 -0.152,0.02 -0.234,0.035c-0.082,0.016 -0.156,0.033 -0.222,0.05c-0.065,0.018 -0.131,0.034 -0.199,0.05c-0.068,0.016 -0.134,0.028 -0.199,0.036c-0.066,0.008 -0.131,0.02 -0.197,0.038c-0.065,0.017 -0.126,0.034 -0.183,0.049c-0.057,0.016 -0.119,0.033 -0.187,0.05c-0.068,0.018 -0.134,0.034 -0.199,0.05c-0.066,0.016 -0.127,0.032 -0.184,0.048c-0.057,0.016 -0.115,0.032 -0.174,0.05c-0.059,0.017 -0.122,0.034 -0.187,0.05c-0.065,0.015 -0.126,0.032 -0.183,0.049c-0.057,0.018 -0.14,0.047 -0.248,0.088c-0.107,0.041 -0.206,0.078 -0.297,0.109c-0.091,0.032 -0.186,0.068 -0.285,0.11c-0.099,0.041 -0.19,0.082 -0.272,0.123c-0.082,0.041 -0.16,0.082 -0.234,0.124c-0.074,0.041 -0.148,0.082 -0.222,0.123c-0.074,0.041 -0.149,0.078 -0.225,0.111c-0.076,0.034 -0.15,0.067 -0.224,0.1c-0.074,0.034 -0.148,0.067 -0.222,0.1c-0.074,0.033 -0.143,0.066 -0.209,0.1c-0.065,0.033 -0.131,0.066 -0.196,0.099c-0.066,0.034 -0.128,0.066 -0.187,0.098c-0.059,0.031 -0.113,0.064 -0.161,0.097c-0.049,0.033 -0.106,0.074 -0.171,0.123c-0.066,0.049 -0.132,0.099 -0.199,0.15c-0.068,0.051 -0.126,0.101 -0.175,0.15c-0.048,0.049 -0.098,0.098 -0.149,0.147c-0.05,0.049 -0.095,0.094 -0.136,0.135c-0.04,0.041 -0.077,0.086 -0.11,0.135c-0.034,0.05 -0.071,0.099 -0.111,0.148c-0.04,0.049 -0.086,0.098 -0.136,0.149c-0.051,0.051 -0.096,0.105 -0.136,0.162c-0.04,0.057 -0.086,0.114 -0.136,0.17c-0.051,0.057 -0.101,0.123 -0.149,0.198c-0.049,0.074 -0.09,0.148 -0.124,0.223c-0.034,0.074 -0.059,0.152 -0.076,0.235c-0.017,0.082 -0.025,0.152 -0.025,0.211c0,0.058 0,0.124 0,0.197c0,0.073 0.017,0.155 0.051,0.247c0.033,0.092 0.07,0.162 0.11,0.211c0.041,0.049 0.086,0.102 0.137,0.159c0.05,0.057 0.1,0.119 0.148,0.185c0.049,0.067 0.107,0.129 0.174,0.186c0.068,0.057 0.134,0.122 0.2,0.197c0.065,0.074 0.139,0.148 0.221,0.223c0.083,0.074 0.169,0.149 0.26,0.223c0.091,0.074 0.181,0.153 0.272,0.235c0.091,0.082 0.19,0.161 0.298,0.235c0.107,0.074 0.222,0.153 0.345,0.235c0.122,0.083 0.25,0.165 0.383,0.247c0.133,0.082 0.269,0.169 0.408,0.259c0.139,0.09 0.291,0.18 0.456,0.27c0.164,0.091 0.326,0.173 0.484,0.247c0.159,0.075 0.328,0.153 0.51,0.235l0.272,0.124" style="fill:none;stroke:#000;stroke-width:1.72px;"/><path id="STROKE_0098F260.-B0F0.-40DF.-A74E.-AB695C15EAFE" d="M86.319,131.465c-0.113,-0.016 -0.203,-0.032 -0.269,-0.05c-0.065,-0.017 -0.131,-0.038 -0.199,-0.062c-0.067,-0.023 -0.13,-0.044 -0.187,-0.061c-0.057,-0.017 -0.052,-0.001 0.013,0.05c0.065,0.05 0.139,0.091 0.222,0.123c0.082,0.032 0.164,0.068 0.247,0.109c0.082,0.042 0.172,0.088 0.272,0.138c0.099,0.051 0.178,0.088 0.237,0.112c0.059,0.023 0.146,0.06 0.26,0.109c0.114,0.049 0.204,0.086 0.272,0.111c0.067,0.026 0.134,0.055 0.199,0.088c0.066,0.033 0.14,0.062 0.222,0.086c0.082,0.024 0.164,0.056 0.247,0.097c0.082,0.041 0.164,0.074 0.247,0.1c0.082,0.025 0.177,0.062 0.284,0.111c0.108,0.05 0.199,0.091 0.273,0.124c0.074,0.033 0.16,0.066 0.259,0.099c0.099,0.034 0.199,0.075 0.298,0.124c0.099,0.049 0.19,0.094 0.272,0.135c0.082,0.042 0.169,0.087 0.26,0.136c0.09,0.049 0.181,0.094 0.272,0.135c0.09,0.041 0.181,0.087 0.272,0.138c0.091,0.05 0.181,0.104 0.272,0.161c0.091,0.057 0.186,0.114 0.285,0.171c0.099,0.057 0.203,0.111 0.311,0.161c0.107,0.051 0.209,0.105 0.306,0.162c0.098,0.057 0.196,0.114 0.295,0.171c0.099,0.057 0.198,0.119 0.298,0.185c0.099,0.066 0.198,0.124 0.297,0.173c0.099,0.049 0.202,0.107 0.31,0.174c0.108,0.066 0.211,0.124 0.31,0.173c0.099,0.049 0.199,0.103 0.298,0.161c0.099,0.059 0.194,0.113 0.285,0.162c0.091,0.049 0.181,0.098 0.272,0.147c0.091,0.049 0.177,0.098 0.26,0.147c0.082,0.049 0.173,0.098 0.272,0.147c0.099,0.049 0.198,0.103 0.297,0.162c0.1,0.058 0.195,0.112 0.285,0.161c0.091,0.049 0.185,0.098 0.282,0.147c0.097,0.049 0.195,0.099 0.294,0.148c0.1,0.049 0.19,0.094 0.272,0.135c0.083,0.041 0.178,0.091 0.285,0.149c0.108,0.059 0.211,0.113 0.31,0.162c0.1,0.049 0.191,0.094 0.273,0.135c0.082,0.041 0.169,0.082 0.259,0.124c0.091,0.041 0.186,0.082 0.285,0.123c0.099,0.041 0.194,0.086 0.285,0.135c0.091,0.049 0.182,0.094 0.272,0.136c0.091,0.041 0.186,0.082 0.285,0.123c0.099,0.041 0.195,0.079 0.285,0.112c0.091,0.033 0.186,0.074 0.285,0.123c0.099,0.049 0.19,0.094 0.272,0.135c0.083,0.042 0.173,0.083 0.272,0.124c0.1,0.041 0.203,0.082 0.311,0.124c0.107,0.04 0.21,0.082 0.307,0.123c0.097,0.041 0.195,0.082 0.294,0.123c0.099,0.041 0.203,0.083 0.31,0.124c0.108,0.041 0.211,0.087 0.311,0.137c0.099,0.051 0.194,0.092 0.284,0.124c0.091,0.031 0.194,0.073 0.311,0.123c0.116,0.051 0.226,0.101 0.332,0.15c0.105,0.049 0.212,0.094 0.32,0.135c0.107,0.041 0.215,0.086 0.323,0.136c0.107,0.049 0.219,0.098 0.335,0.147c0.116,0.049 0.224,0.098 0.323,0.147c0.099,0.049 0.214,0.103 0.345,0.161c0.131,0.059 0.258,0.113 0.383,0.162c0.124,0.049 0.248,0.103 0.37,0.161c0.123,0.059 0.242,0.113 0.358,0.162c0.116,0.049 0.236,0.098 0.361,0.147c0.124,0.049 0.236,0.098 0.335,0.147c0.099,0.049 0.21,0.103 0.333,0.162c0.122,0.058 0.237,0.116 0.345,0.173c0.107,0.057 0.215,0.11 0.323,0.159c0.107,0.049 0.211,0.098 0.31,0.147c0.099,0.049 0.198,0.099 0.297,0.15c0.1,0.05 0.195,0.1 0.285,0.149c0.091,0.049 0.189,0.102 0.294,0.159c0.106,0.057 0.208,0.11 0.308,0.159c0.099,0.049 0.198,0.103 0.297,0.162c0.099,0.058 0.198,0.116 0.298,0.173c0.099,0.057 0.198,0.115 0.297,0.173c0.099,0.059 0.194,0.113 0.285,0.162c0.091,0.049 0.194,0.107 0.31,0.173c0.116,0.066 0.224,0.132 0.323,0.197c0.099,0.065 0.198,0.122 0.295,0.171c0.097,0.049 0.195,0.107 0.294,0.173c0.099,0.067 0.194,0.124 0.285,0.174c0.091,0.049 0.177,0.098 0.26,0.147c0.082,0.049 0.164,0.099 0.246,0.149c0.083,0.051 0.169,0.101 0.26,0.15c0.091,0.049 0.178,0.098 0.263,0.147c0.084,0.049 0.163,0.094 0.237,0.136c0.074,0.041 0.152,0.082 0.234,0.123c0.083,0.041 0.165,0.082 0.247,0.123c0.082,0.042 0.161,0.083 0.235,0.124c0.073,0.041 0.147,0.082 0.221,0.123c0.074,0.041 0.148,0.078 0.221,0.112c0.074,0.033 0.149,0.07 0.225,0.111c0.076,0.042 0.151,0.079 0.225,0.112c0.074,0.033 0.152,0.07 0.234,0.111c0.083,0.042 0.161,0.083 0.235,0.124c0.073,0.041 0.147,0.078 0.221,0.112c0.074,0.033 0.152,0.07 0.234,0.111c0.083,0.041 0.161,0.082 0.235,0.124c0.073,0.041 0.144,0.082 0.212,0.123c0.067,0.041 0.138,0.082 0.212,0.124c0.074,0.041 0.139,0.082 0.196,0.123c0.057,0.041 0.122,0.077 0.196,0.109c0.074,0.032 0.141,0.068 0.2,0.109c0.059,0.041 0.117,0.083 0.174,0.124c0.057,0.041 0.114,0.078 0.171,0.111c0.057,0.034 0.115,0.067 0.174,0.1c0.059,0.033 0.113,0.066 0.161,0.1c0.049,0.033 0.098,0.066 0.149,0.1c0.051,0.033 0.121,0.074 0.212,0.123c0.091,0.049 0.16,0.09 0.209,0.123c0.048,0.034 0.114,0.071 0.196,0.112c0.082,0.041 0.16,0.082 0.234,0.123c0.074,0.042 0.145,0.078 0.213,0.11c0.067,0.031 0.129,0.06 0.186,0.085l0.086,0.038" style="fill:none;stroke:#000;stroke-width:1.72px;"/><path id="STROKE_1ED3A554.-1B5E.-466F.-B62B.-E9B2AA36AB92" d="M84.914,130.677c-0.152,0 -0.261,0.012 -0.326,0.036c-0.065,0.023 -0.139,0.056 -0.222,0.097c-0.082,0.041 -0.168,0.082 -0.259,0.123c-0.091,0.041 -0.165,0.075 -0.222,0.1c-0.057,0.025 -0.114,0.05 -0.174,0.074c-0.059,0.023 -0.141,0.056 -0.247,0.097c-0.105,0.041 -0.187,0.071 -0.246,0.088c-0.059,0.017 -0.118,0.034 -0.175,0.05c-0.057,0.015 -0.118,0.032 -0.183,0.05c-0.065,0.017 -0.132,0.038 -0.2,0.061c-0.067,0.024 -0.134,0.045 -0.199,0.062c-0.065,0.017 -0.135,0.038 -0.209,0.062c-0.074,0.024 -0.148,0.044 -0.222,0.062c-0.073,0.017 -0.147,0.038 -0.221,0.061c-0.074,0.024 -0.153,0.049 -0.238,0.074c-0.084,0.025 -0.167,0.05 -0.249,0.073c-0.083,0.024 -0.165,0.053 -0.248,0.086c-0.082,0.033 -0.164,0.066 -0.246,0.1c-0.083,0.033 -0.169,0.062 -0.26,0.088c-0.091,0.025 -0.181,0.053 -0.272,0.085c-0.091,0.032 -0.182,0.064 -0.272,0.097c-0.091,0.033 -0.186,0.071 -0.285,0.112c-0.099,0.041 -0.198,0.082 -0.295,0.123c-0.097,0.041 -0.195,0.075 -0.294,0.1c-0.099,0.025 -0.203,0.054 -0.31,0.088c-0.108,0.033 -0.207,0.066 -0.298,0.099c-0.09,0.034 -0.194,0.066 -0.31,0.098c-0.116,0.032 -0.228,0.064 -0.335,0.097c-0.108,0.033 -0.219,0.067 -0.333,0.1c-0.114,0.033 -0.224,0.066 -0.332,0.099c-0.108,0.034 -0.219,0.071 -0.336,0.112c-0.116,0.041 -0.223,0.079 -0.323,0.112c-0.099,0.033 -0.21,0.07 -0.332,0.111c-0.122,0.041 -0.237,0.083 -0.345,0.124c-0.108,0.041 -0.215,0.077 -0.323,0.109c-0.107,0.032 -0.211,0.068 -0.31,0.109c-0.099,0.041 -0.203,0.079 -0.31,0.112c-0.108,0.033 -0.207,0.066 -0.298,0.099c-0.091,0.034 -0.193,0.071 -0.307,0.112c-0.114,0.041 -0.225,0.082 -0.332,0.124c-0.108,0.041 -0.215,0.078 -0.323,0.111c-0.108,0.033 -0.211,0.066 -0.31,0.1c-0.1,0.033 -0.203,0.065 -0.31,0.097c-0.108,0.032 -0.212,0.06 -0.311,0.086c-0.099,0.025 -0.21,0.054 -0.332,0.087c-0.122,0.034 -0.237,0.067 -0.345,0.1c-0.108,0.033 -0.215,0.062 -0.323,0.085c-0.108,0.024 -0.207,0.049 -0.298,0.074c-0.09,0.025 -0.189,0.051 -0.297,0.076c-0.108,0.026 -0.21,0.046 -0.307,0.062c-0.097,0.016 -0.195,0.036 -0.295,0.062c-0.099,0.025 -0.198,0.05 -0.297,0.073c-0.099,0.024 -0.194,0.049 -0.285,0.074c-0.091,0.025 -0.177,0.05 -0.259,0.073c-0.083,0.024 -0.173,0.049 -0.273,0.074c-0.099,0.025 -0.19,0.051 -0.272,0.076c-0.082,0.025 -0.169,0.05 -0.259,0.074c-0.091,0.023 -0.178,0.044 -0.26,0.061c-0.082,0.018 -0.16,0.038 -0.234,0.062c-0.074,0.024 -0.149,0.048 -0.225,0.073c-0.076,0.026 -0.155,0.046 -0.237,0.062c-0.083,0.016 -0.161,0.033 -0.234,0.05c-0.074,0.018 -0.144,0.034 -0.209,0.05c-0.066,0.016 -0.136,0.036 -0.21,0.062c-0.073,0.025 -0.144,0.042 -0.211,0.05c-0.068,0.008 -0.139,0.019 -0.213,0.035c-0.074,0.016 -0.143,0.033 -0.209,0.05c-0.065,0.017 -0.13,0.03 -0.196,0.038c-0.065,0.008 -0.135,0.02 -0.209,0.035c-0.073,0.016 -0.14,0.033 -0.199,0.05c-0.059,0.018 -0.121,0.031 -0.187,0.038c-0.065,0.008 -0.131,0.02 -0.196,0.036c-0.066,0.016 -0.128,0.032 -0.187,0.05c-0.059,0.017 -0.117,0.038 -0.174,0.062c-0.057,0.023 -0.135,0.056 -0.234,0.097c-0.099,0.041 -0.177,0.071 -0.234,0.088c-0.057,0.017 -0.14,0.05 -0.247,0.099c-0.108,0.05 -0.216,0.095 -0.323,0.136c-0.108,0.041 -0.19,0.074 -0.247,0.097c-0.057,0.024 -0.118,0.045 -0.184,0.062c-0.065,0.017 -0.127,0.038 -0.186,0.062c-0.059,0.024 -0.122,0.044 -0.187,0.061c-0.066,0.018 -0.131,0.038 -0.196,0.062c-0.066,0.024 -0.135,0.044 -0.209,0.062c-0.074,0.017 -0.149,0.034 -0.225,0.05c-0.076,0.015 -0.151,0.036 -0.225,0.061c-0.074,0.026 -0.148,0.046 -0.221,0.062c-0.074,0.016 -0.148,0.033 -0.222,0.05c-0.074,0.017 -0.148,0.038 -0.221,0.062c-0.074,0.024 -0.148,0.044 -0.222,0.061c-0.074,0.018 -0.145,0.034 -0.212,0.05c-0.068,0.016 -0.134,0.033 -0.2,0.05c-0.065,0.018 -0.13,0.038 -0.196,0.062c-0.065,0.024 -0.132,0.044 -0.199,0.062c-0.068,0.017 -0.159,0.046 -0.273,0.088c-0.114,0.041 -0.224,0.086 -0.332,0.135c-0.107,0.049 -0.19,0.085 -0.247,0.109c-0.057,0.024 -0.143,0.056 -0.259,0.097c-0.116,0.041 -0.228,0.087 -0.336,0.138c-0.108,0.051 -0.19,0.084 -0.247,0.1c-0.057,0.015 -0.115,0.036 -0.174,0.061c-0.059,0.026 -0.117,0.046 -0.174,0.062c-0.057,0.016 -0.114,0.032 -0.171,0.048c-0.057,0.015 -0.115,0.036 -0.174,0.061c-0.059,0.026 -0.117,0.042 -0.174,0.05c-0.057,0.008 -0.139,0.029 -0.247,0.062c-0.108,0.033 -0.19,0.058 -0.247,0.074c-0.057,0.015 -0.139,0.036 -0.247,0.061c-0.107,0.026 -0.215,0.051 -0.323,0.076c-0.107,0.026 -0.206,0.046 -0.297,0.062c-0.091,0.016 -0.178,0.032 -0.26,0.047c-0.082,0.016 -0.164,0.037 -0.247,0.062c-0.082,0.026 -0.16,0.051 -0.234,0.076c-0.074,0.026 -0.148,0.05 -0.221,0.074c-0.074,0.024 -0.144,0.052 -0.209,0.085c-0.066,0.033 -0.132,0.067 -0.2,0.1c-0.067,0.033 -0.134,0.066 -0.199,0.1c-0.066,0.033 -0.131,0.065 -0.196,0.097c-0.066,0.032 -0.131,0.06 -0.197,0.086c-0.065,0.025 -0.136,0.054 -0.212,0.087c-0.076,0.033 -0.147,0.058 -0.212,0.074c-0.065,0.016 -0.139,0.04 -0.222,0.073c-0.082,0.034 -0.164,0.059 -0.246,0.076c-0.083,0.018 -0.169,0.039 -0.26,0.062c-0.091,0.024 -0.177,0.045 -0.26,0.062c-0.082,0.017 -0.164,0.038 -0.246,0.061c-0.083,0.024 -0.161,0.049 -0.234,0.074c-0.074,0.025 -0.141,0.05 -0.2,0.074c-0.059,0.023 -0.113,0.052 -0.161,0.085c-0.049,0.033 -0.11,0.071 -0.184,0.112c-0.074,0.041 -0.14,0.074 -0.2,0.1c-0.059,0.025 -0.117,0.045 -0.174,0.061c-0.057,0.016 -0.126,0.024 -0.208,0.024l-1.311,0c-0.065,0 -0.127,0.009 -0.187,0.026c-0.059,0.017 -0.121,0.03 -0.187,0.038c-0.065,0.008 -0.126,0.016 -0.183,0.024c-0.057,0.008 -0.119,0.012 -0.187,0.012c-0.067,0 -0.13,0.004 -0.187,0.012c-0.057,0.007 -0.114,0.015 -0.171,0.023c-0.057,0.008 -0.106,0.037 -0.148,0.088c-0.042,0.051 -0.076,0.109 -0.101,0.173c-0.026,0.065 -0.038,0.131 -0.038,0.197c0,0.067 0.008,0.133 0.025,0.198c0.017,0.065 0.055,0.134 0.114,0.208c0.059,0.075 0.108,0.133 0.148,0.174c0.041,0.041 0.082,0.082 0.124,0.123c0.042,0.041 0.083,0.082 0.124,0.124c0.04,0.041 0.081,0.086 0.123,0.135c0.042,0.049 0.088,0.103 0.136,0.162c0.049,0.058 0.098,0.112 0.149,0.161c0.051,0.049 0.104,0.103 0.161,0.161c0.057,0.059 0.114,0.117 0.171,0.173c0.057,0.057 0.115,0.114 0.174,0.171c0.059,0.057 0.117,0.115 0.174,0.174c0.057,0.058 0.119,0.116 0.184,0.173c0.065,0.057 0.132,0.119 0.199,0.185c0.068,0.067 0.139,0.129 0.212,0.186c0.074,0.057 0.144,0.118 0.209,0.185c0.066,0.066 0.135,0.132 0.209,0.197c0.074,0.065 0.148,0.13 0.222,0.197c0.074,0.066 0.149,0.133 0.224,0.199c0.077,0.067 0.151,0.132 0.225,0.197c0.074,0.065 0.148,0.131 0.222,0.197c0.074,0.067 0.148,0.133 0.221,0.2c0.074,0.066 0.157,0.136 0.248,0.209c0.09,0.072 0.172,0.138 0.246,0.197c0.074,0.058 0.152,0.12 0.234,0.185c0.083,0.065 0.169,0.134 0.26,0.209c0.091,0.074 0.17,0.141 0.237,0.199c0.068,0.059 0.143,0.116 0.225,0.173c0.082,0.057 0.161,0.119 0.234,0.186c0.074,0.066 0.148,0.128 0.222,0.185c0.074,0.057 0.148,0.114 0.222,0.171c0.073,0.057 0.147,0.115 0.221,0.173c0.074,0.059 0.148,0.116 0.222,0.173c0.073,0.057 0.148,0.115 0.224,0.174c0.077,0.058 0.147,0.116 0.213,0.173c0.065,0.057 0.135,0.115 0.208,0.173c0.074,0.059 0.144,0.117 0.209,0.174c0.066,0.056 0.132,0.113 0.2,0.17c0.067,0.057 0.138,0.115 0.212,0.174c0.074,0.058 0.144,0.112 0.209,0.161c0.065,0.049 0.126,0.102 0.183,0.159c0.057,0.057 0.12,0.115 0.187,0.174c0.068,0.058 0.13,0.116 0.187,0.173c0.057,0.057 0.114,0.11 0.171,0.159c0.057,0.049 0.115,0.103 0.174,0.161c0.059,0.059 0.117,0.113 0.174,0.162c0.057,0.049 0.11,0.102 0.158,0.159c0.049,0.057 0.098,0.111 0.149,0.161c0.051,0.051 0.105,0.097 0.162,0.138c0.057,0.041 0.11,0.086 0.161,0.135c0.05,0.049 0.1,0.098 0.149,0.148c0.048,0.049 0.098,0.098 0.148,0.147c0.051,0.049 0.105,0.098 0.162,0.149c0.057,0.051 0.11,0.101 0.158,0.15c0.049,0.049 0.103,0.098 0.162,0.147c0.059,0.049 0.113,0.098 0.161,0.147c0.049,0.049 0.102,0.098 0.161,0.147c0.06,0.049 0.118,0.099 0.175,0.15c0.057,0.05 0.114,0.1 0.171,0.149c0.056,0.05 0.119,0.103 0.186,0.16c0.068,0.057 0.13,0.11 0.187,0.159c0.057,0.049 0.118,0.102 0.184,0.161c0.065,0.059 0.13,0.112 0.196,0.162c0.065,0.049 0.132,0.102 0.199,0.158c0.068,0.057 0.13,0.111 0.187,0.162c0.057,0.051 0.118,0.101 0.184,0.15c0.065,0.049 0.131,0.098 0.199,0.147c0.068,0.049 0.134,0.102 0.2,0.161c0.065,0.059 0.13,0.113 0.196,0.162c0.065,0.049 0.13,0.098 0.196,0.147c0.065,0.049 0.128,0.098 0.187,0.147c0.059,0.049 0.121,0.098 0.187,0.147c0.065,0.049 0.126,0.099 0.183,0.15c0.057,0.05 0.115,0.1 0.174,0.149c0.059,0.049 0.117,0.098 0.174,0.148c0.057,0.049 0.11,0.098 0.159,0.147c0.048,0.049 0.098,0.094 0.148,0.135c0.051,0.041 0.101,0.086 0.149,0.135c0.049,0.049 0.098,0.094 0.149,0.136c0.051,0.041 0.1,0.082 0.149,0.123c0.048,0.041 0.098,0.082 0.148,0.123c0.051,0.042 0.096,0.083 0.136,0.124c0.041,0.041 0.086,0.082 0.136,0.123c0.051,0.042 0.122,0.099 0.213,0.174c0.09,0.074 0.16,0.132 0.209,0.173c0.048,0.041 0.118,0.099 0.208,0.173c0.091,0.075 0.165,0.132 0.222,0.174c0.057,0.041 0.111,0.086 0.162,0.135c0.05,0.049 0.104,0.094 0.161,0.135c0.057,0.041 0.111,0.082 0.161,0.124c0.051,0.041 0.101,0.082 0.149,0.123c0.049,0.041 0.114,0.099 0.196,0.174c0.083,0.074 0.161,0.144 0.235,0.211c0.073,0.066 0.147,0.132 0.221,0.197c0.074,0.065 0.149,0.134 0.225,0.209c0.076,0.074 0.146,0.145 0.212,0.211c0.065,0.066 0.144,0.128 0.234,0.185c0.091,0.057 0.156,0.106 0.196,0.147c0.041,0.041 0.086,0.079 0.137,0.112c0.05,0.033 0.1,0.07 0.148,0.112c0.049,0.041 0.099,0.078 0.149,0.111c0.051,0.033 0.1,0.07 0.149,0.112c0.049,0.041 0.098,0.082 0.149,0.123c0.05,0.041 0.1,0.082 0.148,0.123c0.049,0.042 0.102,0.087 0.159,0.136c0.057,0.049 0.111,0.094 0.161,0.135c0.051,0.041 0.105,0.083 0.162,0.124c0.057,0.041 0.11,0.082 0.161,0.123c0.051,0.041 0.104,0.086 0.161,0.135c0.057,0.049 0.114,0.099 0.171,0.15c0.057,0.051 0.111,0.096 0.162,0.138c0.05,0.041 0.1,0.082 0.149,0.123c0.048,0.041 0.102,0.086 0.161,0.136c0.059,0.049 0.113,0.094 0.161,0.135c0.049,0.041 0.099,0.086 0.149,0.135c0.051,0.049 0.1,0.094 0.149,0.135c0.049,0.042 0.094,0.083 0.136,0.124c0.042,0.041 0.109,0.099 0.199,0.173c0.091,0.074 0.157,0.132 0.197,0.173c0.04,0.042 0.081,0.083 0.123,0.124c0.043,0.041 0.088,0.082 0.136,0.123c0.049,0.041 0.094,0.083 0.136,0.124c0.043,0.041 0.088,0.082 0.136,0.123c0.049,0.041 0.098,0.083 0.146,0.124c0.049,0.041 0.098,0.082 0.149,0.123c0.051,0.041 0.1,0.086 0.149,0.135c0.048,0.05 0.102,0.095 0.161,0.136c0.059,0.041 0.113,0.086 0.162,0.135c0.048,0.049 0.098,0.099 0.149,0.15c0.05,0.05 0.1,0.1 0.148,0.149c0.049,0.049 0.097,0.094 0.146,0.135c0.048,0.042 0.102,0.087 0.161,0.136c0.059,0.049 0.113,0.098 0.162,0.147c0.048,0.049 0.102,0.098 0.161,0.147l0.089,0.074" style="fill:none;stroke:#000;stroke-width:1.72px;"/><path id="STROKE_D52BF8E7.-3D25.-4E40.-80FF.-B011E7B71A3E" d="M117.441,149.176l-1.066,0c-0.083,0 -0.169,0.003 -0.26,0.011c-0.09,0.008 -0.181,0.033 -0.272,0.074c-0.091,0.041 -0.181,0.086 -0.272,0.135c-0.091,0.049 -0.161,0.09 -0.209,0.124c-0.049,0.033 -0.119,0.078 -0.209,0.135c-0.091,0.057 -0.165,0.102 -0.222,0.135c-0.057,0.033 -0.115,0.067 -0.174,0.1c-0.059,0.033 -0.121,0.066 -0.187,0.1c-0.065,0.033 -0.135,0.066 -0.208,0.1c-0.074,0.033 -0.152,0.065 -0.235,0.097c-0.082,0.031 -0.164,0.064 -0.247,0.097c-0.082,0.033 -0.169,0.066 -0.259,0.1c-0.091,0.033 -0.186,0.066 -0.285,0.1c-0.099,0.033 -0.194,0.066 -0.285,0.099c-0.091,0.033 -0.194,0.07 -0.31,0.112c-0.116,0.041 -0.224,0.082 -0.323,0.123c-0.099,0.041 -0.198,0.079 -0.298,0.112c-0.099,0.033 -0.201,0.074 -0.307,0.123c-0.105,0.049 -0.199,0.094 -0.281,0.135c-0.083,0.042 -0.169,0.083 -0.26,0.124c-0.091,0.041 -0.181,0.082 -0.272,0.124c-0.091,0.041 -0.19,0.089 -0.298,0.146c-0.107,0.058 -0.202,0.103 -0.285,0.136c-0.082,0.033 -0.168,0.07 -0.259,0.112c-0.091,0.041 -0.19,0.086 -0.298,0.135c-0.107,0.049 -0.202,0.09 -0.284,0.123c-0.083,0.033 -0.169,0.071 -0.26,0.112c-0.091,0.041 -0.19,0.078 -0.298,0.112c-0.107,0.033 -0.206,0.066 -0.297,0.099c-0.091,0.033 -0.186,0.062 -0.285,0.085c-0.099,0.024 -0.194,0.049 -0.285,0.074c-0.091,0.025 -0.19,0.055 -0.297,0.088c-0.108,0.033 -0.203,0.062 -0.285,0.086c-0.083,0.023 -0.165,0.044 -0.247,0.061c-0.083,0.018 -0.165,0.038 -0.247,0.062c-0.082,0.024 -0.165,0.048 -0.247,0.074c-0.082,0.025 -0.16,0.05 -0.234,0.075c-0.074,0.026 -0.152,0.05 -0.234,0.074c-0.083,0.024 -0.157,0.052 -0.222,0.086c-0.066,0.033 -0.136,0.066 -0.212,0.099c-0.076,0.033 -0.151,0.067 -0.225,0.1c-0.074,0.033 -0.144,0.066 -0.209,0.097c-0.065,0.032 -0.131,0.064 -0.196,0.098c-0.065,0.033 -0.132,0.07 -0.199,0.111c-0.068,0.041 -0.139,0.079 -0.213,0.112c-0.073,0.033 -0.143,0.07 -0.209,0.111c-0.065,0.041 -0.134,0.079 -0.208,0.112c-0.074,0.033 -0.144,0.07 -0.209,0.112c-0.066,0.041 -0.136,0.078 -0.212,0.111c-0.076,0.033 -0.151,0.066 -0.225,0.097c-0.074,0.032 -0.148,0.064 -0.222,0.098c-0.074,0.033 -0.147,0.062 -0.221,0.088c-0.074,0.025 -0.152,0.054 -0.235,0.088c-0.082,0.033 -0.156,0.061 -0.221,0.085c-0.066,0.024 -0.136,0.048 -0.212,0.073c-0.076,0.026 -0.151,0.05 -0.225,0.074c-0.074,0.024 -0.143,0.052 -0.209,0.086c-0.065,0.033 -0.135,0.062 -0.209,0.087c-0.074,0.026 -0.143,0.055 -0.209,0.088c-0.065,0.033 -0.131,0.066 -0.199,0.097c-0.068,0.032 -0.138,0.061 -0.212,0.086c-0.074,0.025 -0.144,0.055 -0.209,0.088c-0.065,0.033 -0.131,0.066 -0.196,0.1c-0.066,0.033 -0.132,0.061 -0.2,0.085c-0.067,0.024 -0.138,0.052 -0.212,0.086c-0.074,0.033 -0.143,0.062 -0.209,0.087c-0.065,0.026 -0.135,0.05 -0.209,0.074c-0.074,0.024 -0.147,0.048 -0.221,0.074c-0.074,0.025 -0.149,0.046 -0.225,0.061c-0.076,0.016 -0.151,0.033 -0.225,0.05c-0.074,0.018 -0.152,0.038 -0.234,0.062c-0.082,0.024 -0.16,0.044 -0.234,0.062c-0.074,0.017 -0.148,0.03 -0.222,0.037c-0.074,0.008 -0.147,0.02 -0.221,0.036c-0.074,0.016 -0.148,0.033 -0.222,0.05c-0.074,0.017 -0.144,0.034 -0.212,0.05c-0.068,0.016 -0.138,0.032 -0.212,0.05c-0.074,0.017 -0.144,0.038 -0.209,0.062c-0.065,0.023 -0.131,0.044 -0.196,0.061c-0.066,0.018 -0.132,0.038 -0.2,0.062c-0.067,0.024 -0.134,0.052 -0.199,0.085c-0.065,0.034 -0.127,0.063 -0.184,0.088c-0.057,0.026 -0.119,0.05 -0.186,0.074c-0.068,0.024 -0.134,0.052 -0.2,0.085c-0.065,0.034 -0.131,0.063 -0.196,0.088c-0.066,0.025 -0.131,0.054 -0.196,0.086c-0.066,0.031 -0.132,0.06 -0.2,0.085c-0.067,0.025 -0.134,0.051 -0.199,0.076c-0.066,0.025 -0.135,0.046 -0.209,0.062c-0.074,0.016 -0.144,0.036 -0.209,0.062c-0.065,0.025 -0.135,0.049 -0.209,0.073c-0.074,0.024 -0.144,0.045 -0.212,0.062c-0.068,0.017 -0.138,0.034 -0.212,0.05c-0.074,0.015 -0.148,0.036 -0.222,0.061c-0.074,0.026 -0.147,0.046 -0.221,0.062c-0.074,0.016 -0.148,0.036 -0.222,0.062c-0.074,0.025 -0.149,0.05 -0.225,0.073c-0.076,0.024 -0.155,0.045 -0.237,0.062c-0.082,0.018 -0.16,0.038 -0.234,0.062c-0.074,0.024 -0.148,0.048 -0.222,0.074c-0.074,0.025 -0.147,0.054 -0.221,0.087c-0.074,0.034 -0.152,0.062 -0.234,0.086c-0.083,0.023 -0.161,0.052 -0.235,0.085c-0.074,0.034 -0.152,0.067 -0.234,0.1c-0.082,0.033 -0.162,0.066 -0.237,0.1c-0.076,0.033 -0.156,0.066 -0.238,0.099c-0.082,0.034 -0.16,0.066 -0.234,0.098c-0.074,0.031 -0.144,0.064 -0.209,0.097c-0.065,0.033 -0.135,0.063 -0.209,0.088c-0.074,0.025 -0.144,0.055 -0.212,0.088c-0.068,0.033 -0.134,0.065 -0.199,0.097c-0.066,0.032 -0.131,0.064 -0.197,0.097c-0.065,0.034 -0.126,0.063 -0.183,0.088c-0.057,0.026 -0.119,0.05 -0.187,0.074c-0.068,0.024 -0.134,0.052 -0.199,0.085c-0.066,0.033 -0.127,0.063 -0.184,0.088c-0.057,0.025 -0.115,0.055 -0.174,0.088c-0.059,0.033 -0.121,0.062 -0.187,0.085c-0.065,0.024 -0.131,0.053 -0.196,0.086c-0.066,0.033 -0.128,0.067 -0.187,0.1c-0.059,0.033 -0.117,0.061 -0.174,0.085c-0.057,0.024 -0.118,0.052 -0.183,0.085c-0.066,0.034 -0.132,0.067 -0.197,0.1c-0.065,0.034 -0.127,0.067 -0.187,0.1c-0.059,0.033 -0.121,0.062 -0.186,0.086c-0.066,0.023 -0.131,0.052 -0.196,0.085c-0.066,0.033 -0.128,0.066 -0.187,0.1c-0.06,0.033 -0.122,0.062 -0.187,0.087c-0.066,0.026 -0.127,0.054 -0.184,0.086c-0.057,0.032 -0.119,0.06 -0.186,0.085c-0.068,0.026 -0.13,0.051 -0.187,0.076c-0.057,0.026 -0.114,0.055 -0.171,0.088c-0.057,0.033 -0.139,0.075 -0.247,0.124c-0.108,0.049 -0.211,0.098 -0.31,0.147c-0.1,0.049 -0.203,0.098 -0.31,0.147c-0.108,0.049 -0.212,0.098 -0.311,0.147c-0.099,0.049 -0.177,0.086 -0.234,0.112c-0.057,0.025 -0.139,0.062 -0.247,0.112c-0.107,0.048 -0.215,0.097 -0.323,0.146c-0.107,0.05 -0.194,0.083 -0.259,0.1c-0.066,0.018 -0.127,0.038 -0.184,0.062c-0.057,0.024 -0.115,0.044 -0.174,0.062c-0.059,0.017 -0.117,0.034 -0.174,0.05c-0.057,0.016 -0.118,0.032 -0.183,0.05c-0.066,0.017 -0.127,0.033 -0.184,0.049c-0.057,0.016 -0.115,0.032 -0.174,0.048c-0.059,0.015 -0.138,0.04 -0.238,0.073c-0.099,0.034 -0.198,0.067 -0.297,0.1c-0.099,0.033 -0.197,0.063 -0.295,0.088c-0.097,0.025 -0.187,0.054 -0.272,0.086c-0.084,0.031 -0.172,0.068 -0.263,0.109c-0.09,0.041 -0.177,0.082 -0.259,0.123c-0.082,0.041 -0.173,0.078 -0.272,0.112c-0.1,0.033 -0.198,0.07 -0.295,0.111c-0.097,0.041 -0.199,0.079 -0.307,0.112c-0.107,0.033 -0.215,0.062 -0.323,0.088c-0.107,0.025 -0.215,0.054 -0.322,0.087c-0.108,0.034 -0.212,0.062 -0.311,0.086c-0.099,0.024 -0.194,0.052 -0.285,0.086c-0.09,0.033 -0.181,0.07 -0.272,0.111c-0.09,0.041 -0.177,0.082 -0.259,0.123c-0.083,0.042 -0.152,0.075 -0.209,0.1c-0.057,0.026 -0.131,0.059 -0.222,0.1c-0.09,0.041 -0.185,0.082 -0.285,0.123c-0.099,0.041 -0.202,0.083 -0.31,0.124c-0.108,0.041 -0.211,0.082 -0.31,0.123c-0.099,0.041 -0.177,0.07 -0.234,0.086c-0.057,0.016 -0.14,0.04 -0.247,0.073c-0.108,0.033 -0.216,0.062 -0.323,0.086c-0.108,0.023 -0.19,0.04 -0.247,0.049c-0.057,0.01 -0.135,0.027 -0.234,0.05c-0.099,0.024 -0.177,0.04 -0.234,0.048c-0.057,0.008 -0.14,0.02 -0.248,0.038c-0.107,0.017 -0.202,0.034 -0.284,0.05c-0.083,0.016 -0.161,0.032 -0.234,0.05c-0.074,0.017 -0.144,0.03 -0.21,0.038l-0.098,0.012" style="fill:none;stroke:#000;stroke-width:1.72px;"/><path id="STROKE_0B162A8A.-F5A8.-4F9A.-A8AD.-665B4BCA4AB1" d="M48.797,139.318c-0.017,-0.148 -0.042,-0.247 -0.076,-0.296c-0.033,-0.049 -0.074,-0.102 -0.123,-0.159c-0.049,-0.057 -0.094,-0.106 -0.136,-0.148c-0.042,-0.041 -0.088,-0.086 -0.136,-0.135c-0.049,-0.049 -0.098,-0.099 -0.149,-0.149c-0.051,-0.051 -0.104,-0.109 -0.161,-0.174c-0.057,-0.065 -0.115,-0.138 -0.174,-0.22c-0.06,-0.083 -0.113,-0.165 -0.162,-0.248c-0.048,-0.082 -0.097,-0.169 -0.146,-0.261c-0.048,-0.091 -0.089,-0.166 -0.123,-0.223c-0.034,-0.057 -0.063,-0.114 -0.089,-0.171c-0.025,-0.057 -0.054,-0.11 -0.085,-0.161c-0.032,-0.051 -0.065,-0.109 -0.098,-0.173c-0.034,-0.065 -0.064,-0.127 -0.089,-0.186c-0.025,-0.058 -0.054,-0.12 -0.085,-0.185c-0.032,-0.065 -0.069,-0.126 -0.111,-0.185c-0.042,-0.058 -0.08,-0.12 -0.114,-0.185c-0.034,-0.065 -0.071,-0.131 -0.111,-0.197c-0.04,-0.067 -0.077,-0.132 -0.111,-0.197c-0.034,-0.065 -0.07,-0.135 -0.11,-0.209c-0.04,-0.074 -0.082,-0.145 -0.124,-0.211c-0.042,-0.067 -0.088,-0.137 -0.136,-0.212c-0.049,-0.074 -0.094,-0.144 -0.136,-0.209c-0.042,-0.064 -0.088,-0.138 -0.136,-0.22c-0.049,-0.083 -0.098,-0.157 -0.149,-0.223c-0.051,-0.067 -0.1,-0.137 -0.149,-0.212c-0.048,-0.074 -0.098,-0.152 -0.149,-0.235c-0.05,-0.082 -0.1,-0.161 -0.148,-0.235c-0.049,-0.074 -0.099,-0.148 -0.149,-0.221c-0.051,-0.072 -0.1,-0.15 -0.149,-0.232c-0.048,-0.083 -0.097,-0.165 -0.146,-0.247c-0.048,-0.082 -0.102,-0.165 -0.161,-0.247c-0.059,-0.083 -0.113,-0.17 -0.161,-0.261c-0.049,-0.092 -0.099,-0.179 -0.149,-0.261c-0.051,-0.083 -0.105,-0.169 -0.162,-0.259c-0.057,-0.09 -0.109,-0.177 -0.158,-0.259c-0.048,-0.082 -0.098,-0.168 -0.149,-0.259c-0.05,-0.09 -0.108,-0.185 -0.174,-0.284c-0.065,-0.1 -0.119,-0.191 -0.161,-0.274c-0.042,-0.082 -0.083,-0.168 -0.124,-0.258c-0.04,-0.091 -0.085,-0.181 -0.136,-0.271c-0.05,-0.09 -0.1,-0.18 -0.148,-0.271c-0.049,-0.09 -0.094,-0.181 -0.137,-0.273c-0.042,-0.091 -0.087,-0.183 -0.136,-0.273c-0.048,-0.09 -0.094,-0.18 -0.136,-0.27c-0.042,-0.091 -0.083,-0.177 -0.123,-0.259c-0.04,-0.082 -0.081,-0.165 -0.124,-0.247c-0.042,-0.082 -0.083,-0.165 -0.123,-0.247c-0.04,-0.082 -0.081,-0.16 -0.124,-0.235c-0.042,-0.074 -0.083,-0.149 -0.123,-0.223c-0.04,-0.074 -0.081,-0.144 -0.124,-0.209c-0.042,-0.065 -0.083,-0.138 -0.123,-0.221c-0.04,-0.082 -0.077,-0.152 -0.111,-0.211c-0.034,-0.059 -0.071,-0.125 -0.114,-0.2c-0.042,-0.074 -0.083,-0.147 -0.123,-0.22c-0.04,-0.073 -0.081,-0.147 -0.124,-0.221c-0.042,-0.075 -0.083,-0.153 -0.123,-0.235c-0.04,-0.082 -0.085,-0.157 -0.136,-0.223c-0.051,-0.067 -0.1,-0.141 -0.149,-0.223c-0.048,-0.083 -0.105,-0.169 -0.171,-0.259c-0.065,-0.09 -0.128,-0.176 -0.187,-0.259c-0.059,-0.082 -0.117,-0.169 -0.174,-0.259c-0.057,-0.09 -0.113,-0.172 -0.17,-0.247c-0.058,-0.074 -0.116,-0.152 -0.175,-0.235c-0.059,-0.082 -0.117,-0.168 -0.174,-0.258c-0.057,-0.091 -0.114,-0.173 -0.171,-0.247c-0.057,-0.075 -0.115,-0.153 -0.174,-0.235c-0.059,-0.083 -0.113,-0.161 -0.161,-0.235c-0.049,-0.075 -0.094,-0.145 -0.136,-0.212c-0.043,-0.066 -0.084,-0.132 -0.124,-0.196c-0.04,-0.065 -0.077,-0.131 -0.11,-0.198c-0.034,-0.066 -0.071,-0.128 -0.111,-0.185c-0.04,-0.057 -0.073,-0.115 -0.098,-0.173c-0.026,-0.059 -0.055,-0.113 -0.089,-0.162c-0.034,-0.049 -0.075,-0.126 -0.124,-0.232c-0.048,-0.106 -0.089,-0.185 -0.123,-0.235c-0.034,-0.051 -0.079,-0.129 -0.136,-0.235c-0.057,-0.106 -0.102,-0.185 -0.136,-0.235c-0.034,-0.051 -0.068,-0.109 -0.102,-0.173c-0.033,-0.065 -0.07,-0.131 -0.11,-0.198c-0.041,-0.066 -0.082,-0.137 -0.124,-0.211c-0.042,-0.074 -0.083,-0.144 -0.123,-0.209c-0.04,-0.065 -0.081,-0.134 -0.124,-0.209c-0.042,-0.074 -0.083,-0.144 -0.123,-0.211c-0.04,-0.067 -0.082,-0.132 -0.124,-0.197c-0.042,-0.065 -0.083,-0.127 -0.123,-0.185c-0.04,-0.059 -0.077,-0.117 -0.111,-0.174c-0.034,-0.057 -0.067,-0.11 -0.101,-0.159c-0.034,-0.049 -0.067,-0.098 -0.098,-0.147c-0.032,-0.049 -0.065,-0.099 -0.098,-0.149c-0.034,-0.051 -0.08,-0.126 -0.137,-0.224c-0.057,-0.098 -0.102,-0.171 -0.136,-0.22c-0.033,-0.049 -0.079,-0.12 -0.136,-0.212c-0.057,-0.091 -0.111,-0.182 -0.161,-0.273c-0.051,-0.09 -0.1,-0.18 -0.149,-0.27c-0.048,-0.09 -0.097,-0.181 -0.146,-0.271c-0.048,-0.09 -0.098,-0.176 -0.148,-0.259c-0.051,-0.082 -0.101,-0.164 -0.149,-0.247c-0.049,-0.082 -0.09,-0.148 -0.123,-0.197c-0.034,-0.049 -0.075,-0.114 -0.124,-0.197c-0.049,-0.082 -0.102,-0.169 -0.162,-0.261c-0.058,-0.092 -0.104,-0.162 -0.136,-0.211c-0.031,-0.049 -0.077,-0.119 -0.136,-0.209c-0.059,-0.09 -0.117,-0.176 -0.174,-0.259c-0.057,-0.082 -0.11,-0.164 -0.161,-0.247c-0.051,-0.082 -0.1,-0.16 -0.149,-0.235c-0.048,-0.074 -0.094,-0.149 -0.136,-0.223c-0.042,-0.074 -0.088,-0.144 -0.136,-0.209c-0.049,-0.065 -0.094,-0.13 -0.136,-0.197c-0.042,-0.066 -0.084,-0.133 -0.124,-0.199c-0.04,-0.067 -0.081,-0.133 -0.123,-0.197c-0.042,-0.065 -0.092,-0.131 -0.149,-0.197c-0.057,-0.067 -0.11,-0.137 -0.158,-0.212c-0.049,-0.074 -0.098,-0.144 -0.149,-0.208c-0.051,-0.065 -0.096,-0.131 -0.136,-0.198c-0.04,-0.066 -0.081,-0.128 -0.124,-0.185c-0.042,-0.057 -0.083,-0.114 -0.123,-0.173c-0.04,-0.059 -0.077,-0.116 -0.111,-0.173c-0.034,-0.057 -0.071,-0.11 -0.114,-0.159c-0.042,-0.049 -0.083,-0.111 -0.123,-0.186c-0.04,-0.074 -0.081,-0.136 -0.124,-0.185c-0.042,-0.049 -0.079,-0.099 -0.11,-0.149c-0.032,-0.051 -0.065,-0.101 -0.098,-0.15c-0.034,-0.049 -0.072,-0.098 -0.114,-0.147c-0.043,-0.049 -0.079,-0.098 -0.111,-0.147c-0.032,-0.049 -0.065,-0.098 -0.099,-0.147c-0.033,-0.05 -0.07,-0.095 -0.11,-0.136c-0.04,-0.041 -0.081,-0.087 -0.124,-0.137c-0.042,-0.051 -0.083,-0.101 -0.123,-0.15c-0.04,-0.049 -0.081,-0.098 -0.123,-0.147c-0.043,-0.049 -0.092,-0.107 -0.149,-0.173c-0.057,-0.067 -0.111,-0.133 -0.162,-0.198c-0.05,-0.065 -0.096,-0.122 -0.136,-0.173c-0.04,-0.05 -0.081,-0.1 -0.123,-0.149c-0.042,-0.05 -0.084,-0.095 -0.124,-0.136c-0.04,-0.041 -0.085,-0.082 -0.136,-0.123c-0.05,-0.041 -0.1,-0.082 -0.149,-0.124c-0.048,-0.041 -0.094,-0.082 -0.136,-0.123c-0.042,-0.041 -0.083,-0.082 -0.123,-0.124c-0.04,-0.041 -0.086,-0.086 -0.136,-0.135c-0.051,-0.049 -0.096,-0.094 -0.136,-0.135c-0.041,-0.041 -0.09,-0.09 -0.149,-0.147c-0.059,-0.057 -0.113,-0.115 -0.162,-0.174c-0.048,-0.058 -0.098,-0.112 -0.148,-0.161c-0.051,-0.049 -0.101,-0.094 -0.149,-0.135c-0.049,-0.042 -0.102,-0.087 -0.159,-0.136c-0.057,-0.049 -0.115,-0.103 -0.174,-0.161c-0.059,-0.059 -0.108,-0.113 -0.148,-0.162c-0.04,-0.049 -0.09,-0.098 -0.149,-0.147c-0.059,-0.049 -0.113,-0.103 -0.162,-0.161c-0.048,-0.059 -0.093,-0.109 -0.136,-0.15c-0.042,-0.041 -0.087,-0.082 -0.136,-0.123c-0.048,-0.041 -0.094,-0.082 -0.136,-0.124c-0.042,-0.041 -0.087,-0.082 -0.136,-0.123c-0.048,-0.041 -0.097,-0.087 -0.146,-0.136c-0.048,-0.049 -0.094,-0.094 -0.136,-0.135c-0.042,-0.041 -0.091,-0.069 -0.148,-0.085c-0.057,-0.016 -0.115,-0.033 -0.174,-0.05c-0.06,-0.018 -0.118,-0.034 -0.175,-0.05c-0.057,-0.016 -0.118,-0.024 -0.183,-0.024c-0.066,0 -0.128,0 -0.187,0c-0.059,0 -0.121,0.004 -0.187,0.012c-0.065,0.008 -0.111,0.045 -0.136,0.112c-0.025,0.066 -0.049,0.132 -0.073,0.197c-0.023,0.065 -0.039,0.126 -0.047,0.185c-0.008,0.059 -0.013,0.129 -0.013,0.211l0,0.729c0,0.09 0.005,0.164 0.013,0.221c0.008,0.057 0.024,0.122 0.047,0.197c0.024,0.074 0.056,0.149 0.098,0.223c0.043,0.074 0.081,0.145 0.115,0.211c0.033,0.067 0.07,0.133 0.11,0.197c0.04,0.065 0.077,0.135 0.111,0.209c0.034,0.075 0.071,0.153 0.111,0.235c0.04,0.083 0.085,0.173 0.136,0.271c0.051,0.098 0.104,0.197 0.161,0.297c0.057,0.099 0.103,0.174 0.137,0.223c0.033,0.049 0.079,0.123 0.136,0.22c0.057,0.099 0.109,0.198 0.158,0.297c0.048,0.1 0.09,0.178 0.123,0.235c0.034,0.057 0.079,0.136 0.136,0.236c0.057,0.099 0.111,0.194 0.162,0.284c0.05,0.091 0.104,0.181 0.161,0.271c0.057,0.09 0.115,0.18 0.174,0.271c0.059,0.09 0.113,0.176 0.162,0.259c0.048,0.082 0.097,0.164 0.146,0.246c0.048,0.083 0.089,0.149 0.123,0.2c0.034,0.05 0.068,0.1 0.101,0.149c0.034,0.049 0.079,0.119 0.136,0.209c0.057,0.09 0.103,0.16 0.136,0.209c0.034,0.049 0.067,0.099 0.099,0.15c0.031,0.05 0.064,0.1 0.098,0.149c0.033,0.049 0.079,0.123 0.136,0.221c0.057,0.098 0.102,0.176 0.136,0.235c0.034,0.058 0.067,0.112 0.101,0.161c0.034,0.05 0.067,0.099 0.098,0.148c0.032,0.049 0.065,0.098 0.098,0.147c0.034,0.049 0.067,0.103 0.099,0.161c0.031,0.059 0.064,0.113 0.098,0.162c0.033,0.049 0.067,0.098 0.101,0.147c0.034,0.049 0.071,0.102 0.111,0.159c0.04,0.057 0.077,0.111 0.11,0.161c0.034,0.051 0.068,0.105 0.102,0.162c0.034,0.057 0.071,0.114 0.111,0.171c0.04,0.057 0.081,0.115 0.123,0.173c0.042,0.059 0.079,0.116 0.111,0.173c0.031,0.057 0.068,0.115 0.111,0.174c0.042,0.058 0.079,0.112 0.11,0.161c0.032,0.049 0.069,0.102 0.111,0.159c0.042,0.057 0.08,0.115 0.114,0.173c0.034,0.059 0.071,0.113 0.111,0.162c0.04,0.049 0.077,0.102 0.111,0.159c0.033,0.057 0.066,0.111 0.098,0.161c0.031,0.051 0.064,0.105 0.098,0.162c0.034,0.057 0.067,0.114 0.101,0.171c0.034,0.057 0.071,0.111 0.111,0.161c0.04,0.051 0.077,0.104 0.111,0.161c0.034,0.057 0.071,0.114 0.111,0.171c0.04,0.057 0.077,0.115 0.11,0.174c0.034,0.058 0.072,0.121 0.114,0.187c0.043,0.067 0.079,0.129 0.111,0.186c0.032,0.057 0.069,0.118 0.111,0.185c0.042,0.066 0.083,0.128 0.123,0.185c0.04,0.057 0.077,0.114 0.111,0.171c0.034,0.057 0.067,0.119 0.098,0.185c0.032,0.066 0.069,0.128 0.111,0.185c0.042,0.057 0.076,0.115 0.101,0.174c0.026,0.058 0.054,0.116 0.086,0.173c0.032,0.057 0.064,0.115 0.098,0.173c0.034,0.059 0.063,0.116 0.089,0.173c0.025,0.057 0.054,0.11 0.085,0.159c0.032,0.05 0.06,0.103 0.086,0.162c0.025,0.058 0.054,0.116 0.088,0.173c0.034,0.057 0.067,0.11 0.098,0.159c0.032,0.049 0.061,0.103 0.086,0.162c0.025,0.058 0.055,0.112 0.089,0.161c0.033,0.049 0.079,0.123 0.136,0.221c0.057,0.098 0.102,0.172 0.136,0.223c0.033,0.051 0.079,0.121 0.136,0.211c0.057,0.091 0.11,0.181 0.158,0.271c0.049,0.09 0.09,0.16 0.123,0.209c0.034,0.049 0.076,0.123 0.127,0.223c0.051,0.1 0.109,0.199 0.174,0.297c0.066,0.098 0.131,0.192 0.196,0.282c0.066,0.091 0.115,0.16 0.149,0.209c0.034,0.049 0.067,0.099 0.098,0.15c0.032,0.05 0.065,0.1 0.099,0.149c0.033,0.05 0.063,0.103 0.088,0.16c0.025,0.057 0.066,0.131 0.123,0.223c0.057,0.091 0.114,0.186 0.171,0.284c0.057,0.099 0.111,0.193 0.162,0.283c0.05,0.09 0.104,0.18 0.161,0.27c0.057,0.091 0.115,0.182 0.174,0.274c0.059,0.091 0.118,0.186 0.175,0.285c0.057,0.098 0.114,0.188 0.171,0.27c0.057,0.082 0.11,0.161 0.161,0.235c0.05,0.075 0.092,0.136 0.123,0.186c0.032,0.048 0.073,0.114 0.124,0.196c0.05,0.083 0.1,0.165 0.148,0.247c0.049,0.083 0.103,0.165 0.162,0.247c0.059,0.083 0.113,0.165 0.161,0.247c0.049,0.082 0.097,0.169 0.146,0.259c0.048,0.09 0.102,0.176 0.161,0.259c0.06,0.082 0.113,0.16 0.162,0.235c0.048,0.074 0.098,0.152 0.149,0.235c0.05,0.082 0.096,0.16 0.136,0.235c0.04,0.074 0.081,0.14 0.123,0.197c0.042,0.057 0.083,0.118 0.123,0.185c0.041,0.066 0.082,0.129 0.124,0.188c0.042,0.058 0.084,0.116 0.124,0.173c0.04,0.057 0.089,0.122 0.148,0.197c0.059,0.074 0.117,0.148 0.174,0.223c0.057,0.074 0.114,0.148 0.171,0.221c0.057,0.073 0.111,0.15 0.162,0.232c0.05,0.083 0.108,0.165 0.174,0.247c0.065,0.083 0.123,0.165 0.174,0.247c0.051,0.082 0.1,0.161 0.149,0.235c0.048,0.075 0.097,0.149 0.145,0.223c0.049,0.075 0.098,0.149 0.149,0.224c0.051,0.074 0.096,0.148 0.136,0.223c0.04,0.074 0.09,0.144 0.149,0.209c0.059,0.065 0.113,0.134 0.161,0.208c0.049,0.075 0.103,0.153 0.162,0.236c0.059,0.082 0.113,0.156 0.161,0.223c0.049,0.066 0.102,0.132 0.158,0.197c0.057,0.065 0.111,0.126 0.162,0.185c0.051,0.058 0.1,0.12 0.149,0.185c0.048,0.065 0.094,0.127 0.136,0.185c0.042,0.059 0.083,0.116 0.123,0.173c0.04,0.057 0.081,0.119 0.124,0.186c0.042,0.066 0.083,0.128 0.123,0.185c0.04,0.057 0.077,0.115 0.111,0.173c0.034,0.059 0.072,0.117 0.114,0.174c0.042,0.057 0.079,0.114 0.111,0.173c0.031,0.058 0.064,0.112 0.098,0.161c0.034,0.049 0.067,0.102 0.101,0.159c0.034,0.057 0.067,0.11 0.098,0.16c0.032,0.048 0.065,0.102 0.098,0.161c0.034,0.058 0.067,0.116 0.099,0.173c0.031,0.057 0.064,0.11 0.098,0.159c0.033,0.049 0.067,0.103 0.101,0.162c0.034,0.058 0.071,0.12 0.111,0.185c0.04,0.065 0.077,0.127 0.11,0.185c0.034,0.059 0.075,0.112 0.124,0.161c0.049,0.05 0.094,0.107 0.136,0.174c0.042,0.066 0.083,0.124 0.124,0.173c0.04,0.049 0.077,0.106 0.11,0.171c0.034,0.065 0.072,0.127 0.114,0.185c0.042,0.059 0.084,0.125 0.124,0.2c0.04,0.074 0.085,0.143 0.136,0.208c0.05,0.065 0.096,0.131 0.136,0.197c0.04,0.067 0.081,0.129 0.123,0.186c0.043,0.057 0.084,0.114 0.124,0.173c0.04,0.059 0.081,0.116 0.123,0.173c0.043,0.057 0.084,0.119 0.124,0.185c0.04,0.067 0.081,0.133 0.123,0.197c0.042,0.065 0.088,0.135 0.136,0.21c0.049,0.074 0.098,0.148 0.149,0.223c0.051,0.074 0.1,0.148 0.149,0.223c0.048,0.074 0.101,0.144 0.158,0.209c0.057,0.064 0.111,0.126 0.162,0.185c0.05,0.058 0.1,0.116 0.148,0.173c0.049,0.057 0.098,0.115 0.149,0.173l0.076,0.088" style="fill:none;stroke:#000;stroke-width:1.72px;"/><path id="STROKE_86BC0660.-B327.-4B7F.-AE32.-72A88DE3F493" d="M27.127,108.076c-0.135,-0.05 -0.227,-0.1 -0.275,-0.149c-0.049,-0.049 -0.081,-0.102 -0.098,-0.159c-0.017,-0.057 0.003,-0.102 0.06,-0.136c0.057,-0.033 0.119,-0.049 0.187,-0.049l1.174,0c0.074,0 0.152,-0.004 0.234,-0.012c0.083,-0.008 0.165,-0.017 0.247,-0.026c0.082,-0.01 0.16,-0.019 0.234,-0.027c0.074,-0.008 0.149,-0.019 0.225,-0.035c0.076,-0.016 0.142,-0.033 0.199,-0.05c0.057,-0.017 0.119,-0.034 0.184,-0.05c0.066,-0.016 0.128,-0.032 0.187,-0.048c0.059,-0.015 0.125,-0.032 0.199,-0.049c0.074,-0.018 0.148,-0.034 0.222,-0.05c0.074,-0.016 0.148,-0.028 0.222,-0.036c0.073,-0.007 0.147,-0.016 0.221,-0.026c0.074,-0.009 0.152,-0.018 0.234,-0.026c0.083,-0.008 0.165,-0.012 0.247,-0.012c0.082,0 0.162,0 0.238,0c0.076,0 0.151,-0.004 0.225,-0.012c0.073,-0.008 0.143,-0.012 0.208,-0.012c0.066,0 0.135,-0.003 0.209,-0.011c0.074,-0.008 0.148,-0.021 0.222,-0.038c0.074,-0.018 0.149,-0.035 0.225,-0.05c0.075,-0.016 0.15,-0.032 0.224,-0.048c0.074,-0.016 0.148,-0.032 0.222,-0.05c0.074,-0.017 0.148,-0.033 0.222,-0.049c0.073,-0.016 0.143,-0.033 0.208,-0.05c0.066,-0.018 0.135,-0.034 0.209,-0.05c0.074,-0.016 0.149,-0.028 0.225,-0.036c0.076,-0.008 0.151,-0.015 0.225,-0.023c0.074,-0.008 0.147,-0.012 0.221,-0.012l0.443,0c0.074,0 0.148,-0.005 0.222,-0.015c0.074,-0.009 0.149,-0.014 0.225,-0.014l0.484,0c0.082,0 0.165,-0.004 0.247,-0.012c0.082,-0.008 0.164,-0.016 0.247,-0.023c0.082,-0.008 0.16,-0.016 0.234,-0.024c0.074,-0.008 0.152,-0.021 0.234,-0.038c0.083,-0.018 0.161,-0.034 0.235,-0.05c0.073,-0.016 0.148,-0.033 0.224,-0.05c0.076,-0.017 0.155,-0.034 0.238,-0.05c0.082,-0.015 0.16,-0.031 0.234,-0.047c0.074,-0.016 0.152,-0.033 0.234,-0.05c0.082,-0.017 0.165,-0.034 0.247,-0.05c0.082,-0.016 0.165,-0.032 0.247,-0.05c0.082,-0.017 0.165,-0.034 0.247,-0.05c0.082,-0.016 0.164,-0.036 0.247,-0.061c0.082,-0.026 0.164,-0.05 0.247,-0.074c0.082,-0.024 0.164,-0.052 0.247,-0.085c0.082,-0.034 0.164,-0.063 0.246,-0.088c0.083,-0.026 0.165,-0.05 0.247,-0.074c0.083,-0.024 0.166,-0.044 0.251,-0.062c0.084,-0.017 0.167,-0.038 0.249,-0.061c0.083,-0.024 0.161,-0.045 0.235,-0.062c0.074,-0.017 0.147,-0.034 0.221,-0.05c0.074,-0.016 0.148,-0.032 0.222,-0.048c0.074,-0.015 0.144,-0.032 0.209,-0.049c0.065,-0.018 0.132,-0.03 0.199,-0.038c0.068,-0.008 0.147,-0.012 0.237,-0.012c0.091,0 0.174,-0.004 0.248,-0.012c0.073,-0.008 0.147,-0.012 0.221,-0.012c0.074,0 0.152,0 0.234,0c0.083,0 0.152,-0.004 0.209,-0.012c0.057,-0.007 0.119,-0.02 0.187,-0.038c0.068,-0.017 0.134,-0.034 0.199,-0.05c0.066,-0.015 0.135,-0.027 0.209,-0.035c0.074,-0.008 0.144,-0.017 0.209,-0.026c0.066,-0.01 0.135,-0.015 0.209,-0.015c0.074,0 0.145,-0.004 0.212,-0.011c0.068,-0.008 0.138,-0.016 0.212,-0.024c0.074,-0.008 0.144,-0.016 0.209,-0.024c0.066,-0.008 0.135,-0.021 0.209,-0.038c0.074,-0.017 0.149,-0.034 0.225,-0.05c0.076,-0.015 0.146,-0.027 0.212,-0.035c0.065,-0.008 0.127,-0.016 0.183,-0.024c0.057,-0.008 0.123,-0.017 0.197,-0.026c0.074,-0.01 0.144,-0.014 0.212,-0.014l1.029,0c0.074,0 0.143,-0.004 0.209,-0.012c0.065,-0.008 0.126,-0.024 0.183,-0.048l0.086,-0.035" style="fill:none;stroke:#000;stroke-width:1.72px;"/><path id="STROKE_2EB4A017.-B953.-406E.-9486.-EDD6BFBB9FFA" d="M78.678,120.056c-0.016,-0.118 -0.046,-0.197 -0.088,-0.238c-0.042,-0.041 -0.068,-0.024 -0.076,0.05c-0.009,0.074 0.004,0.145 0.038,0.211c0.033,0.067 0.071,0.129 0.114,0.185c0.042,0.057 0.083,0.11 0.123,0.16c0.04,0.049 0.081,0.099 0.124,0.149c0.042,0.051 0.079,0.108 0.111,0.173c0.031,0.065 0.064,0.131 0.098,0.198c0.033,0.066 0.067,0.132 0.101,0.197c0.034,0.065 0.066,0.13 0.098,0.197c0.031,0.066 0.064,0.133 0.098,0.199c0.034,0.066 0.068,0.136 0.101,0.209c0.034,0.073 0.071,0.142 0.111,0.209c0.04,0.066 0.082,0.129 0.124,0.187c0.042,0.059 0.074,0.117 0.098,0.174c0.023,0.057 0.051,0.11 0.085,0.159c0.034,0.049 0.068,0.098 0.101,0.147c0.034,0.049 0.063,0.103 0.086,0.161c0.023,0.059 0.052,0.117 0.085,0.174c0.034,0.057 0.068,0.118 0.102,0.185c0.033,0.066 0.066,0.132 0.098,0.197c0.032,0.065 0.064,0.13 0.098,0.197c0.034,0.066 0.071,0.133 0.111,0.199c0.04,0.067 0.077,0.125 0.111,0.174c0.033,0.049 0.071,0.102 0.113,0.159c0.043,0.057 0.08,0.114 0.111,0.173c0.032,0.059 0.069,0.112 0.111,0.161c0.042,0.049 0.083,0.102 0.124,0.159c0.04,0.057 0.081,0.115 0.123,0.174c0.042,0.058 0.079,0.12 0.111,0.185c0.031,0.065 0.068,0.127 0.11,0.185c0.043,0.059 0.081,0.117 0.115,0.174c0.033,0.056 0.066,0.118 0.098,0.185c0.031,0.066 0.068,0.132 0.11,0.197c0.043,0.065 0.084,0.126 0.124,0.185c0.04,0.058 0.081,0.125 0.123,0.199c0.042,0.075 0.079,0.136 0.111,0.185c0.032,0.049 0.06,0.102 0.085,0.159c0.026,0.057 0.06,0.123 0.102,0.198c0.042,0.074 0.075,0.144 0.098,0.211c0.023,0.066 0.052,0.128 0.086,0.185c0.033,0.057 0.071,0.123 0.113,0.197c0.043,0.074 0.08,0.145 0.111,0.211c0.032,0.067 0.073,0.141 0.124,0.223c0.05,0.083 0.1,0.169 0.149,0.259c0.048,0.091 0.101,0.177 0.158,0.259c0.057,0.082 0.11,0.161 0.161,0.235c0.051,0.074 0.1,0.148 0.149,0.221c0.048,0.073 0.094,0.146 0.136,0.221c0.042,0.074 0.08,0.144 0.114,0.211c0.034,0.066 0.062,0.128 0.085,0.185c0.024,0.057 0.048,0.119 0.073,0.185l0.038,0.1" style="fill:none;stroke:#000;stroke-width:1.72px;"/></g></g></svg>