<?xml version="1.0" encoding="utf-8"?>
<!-- Generator: Adobe Illustrator 16.0.0, SVG Export Plug-In . SVG Version: 6.00 Build 0)  -->
<!DOCTYPE svg PUBLIC "-//W3C//DTD SVG 1.1//EN" "http://www.w3.org/Graphics/SVG/1.1/DTD/svg11.dtd">
<svg version="1.1" id="Layer_1" xmlns="http://www.w3.org/2000/svg" xmlns:xlink="http://www.w3.org/1999/xlink" x="0px" y="0px"
	 width="160px" height="160px" viewBox="0 0 160 160" enable-background="new 0 0 160 160" xml:space="preserve">
<g id="l10">
	
		<path fill="#FFEE11" stroke="#000000" stroke-width="1.7" stroke-linecap="round" stroke-linejoin="round" stroke-miterlimit="1.5" d="
		M53.374,85.932c7.006-1.878,15.479,6.99,18.909,19.791c3.429,12.801,0.525,24.717-6.48,26.594s-15.479-6.99-18.908-19.791
		C43.465,99.725,46.368,87.809,53.374,85.932z M56.808,93.688c-1.369,0.277-2.869-0.326-4.107,2.524
		c-2.252,5.188-1.057,15.16-0.614,19.266c2.721,8.433,6.569,12.54,10.038,11.61c3.766-1.009,4.735-9.623,2.163-19.223
		C62.558,101.408,59.663,96.139,56.808,93.688z"/>
	
		<path fill="#FFEE11" stroke="#000000" stroke-width="1.7" stroke-linecap="round" stroke-linejoin="round" stroke-miterlimit="1.5" d="
		M112.948,101.78c0.115,2.646-0.041,5.463-0.5,8.354c-2.074,13.09-9.574,22.793-16.737,21.658
		c-4.624-0.732-7.984-5.802-9.228-12.822c1.232-0.205,2.445-0.466,3.637-0.781c0.654,4.158,2.191,6.988,4.357,7.331
		c3.488,0.552,7.418-5.527,9.285-13.974C107.349,108.84,110.462,105.535,112.948,101.78z"/>
	
		<path fill="none" stroke="#000000" stroke-width="1.7" stroke-linecap="round" stroke-linejoin="round" stroke-miterlimit="1.5" d="
		M53.066,92.264c3.766-0.936,8.763,6.118,11.151,15.742c2.388,9.622,1.269,18.193-2.497,19.128
		c-3.766,0.935-8.762-6.118-11.151-15.742C48.182,101.77,49.3,93.198,53.066,92.264z"/>
	
		<path fill="none" stroke="#000000" stroke-width="1.7" stroke-linecap="round" stroke-linejoin="round" stroke-miterlimit="1.5" d="
		M57.868,107.287c0.405-0.077,0.881,0.633,1.064,1.582c0.182,0.949,0.002,1.785-0.403,1.861c-0.404,0.078-0.881-0.629-1.063-1.58
		C57.283,108.199,57.464,107.365,57.868,107.287z"/>
</g>
</svg>
