<?xml version="1.0" encoding="utf-8"?>
<!-- Generator: Adobe Illustrator 16.0.0, SVG Export Plug-In . SVG Version: 6.00 Build 0)  -->
<!DOCTYPE svg PUBLIC "-//W3C//DTD SVG 1.1//EN" "http://www.w3.org/Graphics/SVG/1.1/DTD/svg11.dtd">
<svg version="1.1" id="Layer_1" xmlns="http://www.w3.org/2000/svg" xmlns:xlink="http://www.w3.org/1999/xlink" x="0px" y="0px"
     width="160px" height="160px" viewBox="0 0 160 160" enable-background="new 0 0 160 160" xml:space="preserve">
    <g id="Page-1" stroke="none" stroke-width="1" fill="none" fill-rule="evenodd">
        <g id="101965-200" transform="translate(23.000000, 68.000000)" fill="#001" fill-rule="nonzero">
            <path d="M75.7776435,47.3275318 C81.5761167,44.2390417 86.5244453,39.7647298 90.1806501,34.3465753 C91.0975184,35.3304253 91.4963565,36.0959874 91.4963565,36.7434473 C91.4963565,37.7452111 90.7445757,45.5825399 89.9301464,53.1841596 L89.6169044,56.2483784 L91.8095985,56.2483784 C94.6914251,56.2483784 98.1997357,59.0768881 98.7635713,61.9053977 C99.2647585,64.3803437 98.1370873,67.0909988 96.06969,68.6231082 L94.5661283,69.7427266 L95.8817447,71.4516178 C99.2021101,75.6943823 93.2505118,80.3496378 89.3036624,76.5782916 C87.3615619,74.810473 87.2989135,72.9247999 89.1157172,71.1569814 L90.4313337,69.8016539 L86.1712423,69.8016539 C81.9737992,69.8016539 81.9111508,69.8016539 83.0388221,70.9801995 C84.5423838,72.5712362 84.417087,74.8694003 82.7255801,76.6372189 C80.846128,78.4639647 78.7160823,78.4639647 76.7739818,76.5782916 C74.7692329,74.7515458 74.7692329,72.4533817 76.7113334,70.8034177 L78.214895,69.5659447 L76.3980914,67.8570535 C74.2053972,65.8535258 74.1427488,64.2035618 75.5210137,50.35565 C75.6132685,49.3019521 75.6999782,48.2821559 75.7776435,47.3275318 Z M37.8856601,47.1461175 C34.7922756,47.0276292 30.6605689,46.8381215 25.0890492,46.5843038 C23.7734327,46.5253765 23.5228391,46.8789402 23.2095971,48.705686 C22.3951678,53.0073778 19.8265833,55.2466146 15.6291403,55.1876873 C12.7473137,55.12876 10.4919712,53.8323598 9.30165155,51.4752684 C8.48722231,49.943159 8.2366287,49.8253044 7.54749626,50.6502864 C6.41982501,51.9466867 2.78621762,51.7699048 1.28265595,50.35565 C-2.53889665,46.7610856 2.97416283,41.2808482 7.42219946,44.2272124 C8.98840954,45.2289762 9.11370634,45.1111217 9.67754197,41.1040663 L10.0534324,38.6291204 L8.2366287,39.6308842 C6.41982501,40.5737208 6.2945282,40.5737208 4.66566972,39.3951751 C2.09708519,37.6273565 1.53324956,36.5077381 2.2850304,34.622065 C3.53799846,31.2042825 8.54987072,30.5560824 10.304026,33.5613739 C10.6799164,34.209574 11.0558068,34.8577742 11.1811036,34.9756287 C11.2437521,35.1524106 11.9955329,34.622065 12.8099621,33.9149376 C14.2206711,32.6354102 14.9425728,32.3848914 22.7309058,32.6423381 C26.3992352,38.7192057 31.6382798,43.7412586 37.8856601,47.1461175 Z" id="Combined-Shape"></path>
        </g>
    </g>
</svg>