<?xml version="1.0" encoding="utf-8"?>
<!-- Generator: Adobe Illustrator 16.0.0, SVG Export Plug-In . SVG Version: 6.00 Build 0)  -->
<!DOCTYPE svg PUBLIC "-//W3C//DTD SVG 1.1//EN" "http://www.w3.org/Graphics/SVG/1.1/DTD/svg11.dtd">
<svg version="1.1" id="Layer_1" xmlns="http://www.w3.org/2000/svg" xmlns:xlink="http://www.w3.org/1999/xlink" x="0px" y="0px"
     width="160px" height="160px" viewBox="0 0 160 160" enable-background="new 0 0 160 160" xml:space="preserve">
    <g id="Page-1" stroke="none" stroke-width="1" fill="none" fill-rule="evenodd">
        <g id="101965-200" transform="translate(32.000000, 104.000000)" fill="#11AA11" fill-rule="nonzero">
            <path d="M24.6409798,8.47452373 C31.2131076,13.2101983 39.2807573,16 48,16 C56.725794,16 64.7990154,13.2060045 71.3738317,8.46384592 C71.8417462,9.40441275 72.380616,9.72950065 73.6260643,10.3036981 C76.8648681,11.6762426 79.0731435,11.8233009 80.8397638,10.7938925 C82.5082385,9.81350364 84.2257861,6.82331749 84.6674411,4.02920912 C84.9618778,2.06843132 86.3849886,0.548828523 87.5136627,0.990003528 C88.593264,1.38215909 89.2312102,3.39195634 89.2312102,6.62723971 C89.2312102,9.96056198 88.593264,12.166437 86.9247893,14.372312 C86.1886975,15.3527009 86.0414791,15.8919148 86.4831342,15.6958371 C87.1210804,15.4507398 88.2988273,13.8821176 90.4089571,10.4507564 C91.0959761,9.32330919 91.5376312,9.07821197 92.8135236,9.2252703 C94.1875616,9.37232864 94.3838528,9.56840642 94.5310711,10.9899703 C94.7764351,13.2938842 92.2246502,18.440926 89.4765742,21.1369955 C87.3173716,23.293851 84.1767133,25.1075705 83.4406215,24.6173761 C83.2443303,24.4703177 82.7045297,25.6958038 82.3119474,27.3134455 L81.5267828,30.2055928 L83.5387671,30.2055928 C86.0905519,30.1565734 89.3293558,28.7350094 92.3227958,26.1859983 C94.2366344,24.6173761 94.7764351,24.3232594 95.3653085,24.8134538 C97.8680206,26.92129 92.5681597,34.1271484 86.4831342,36.9212568 C83.5878398,38.2447818 78.3370517,39.2251707 76.5704314,38.7839957 C75.8343396,38.5879179 75.0491751,38.7839957 74.5584472,39.1761512 C72.2029535,41.2349679 65.0383267,41.6271235 60.5727031,39.9604624 C56.7940986,38.5879179 52.6719846,34.3722456 49.9729813,29.1761844 L47.8628515,25.15659 L46.0962312,28.7840289 C44.8694116,31.2840206 43.2500096,33.4898956 40.8945159,35.8918484 C37.9992215,38.8330151 37.0177658,39.5192874 34.6622721,40.2055596 C31.3253226,41.1859485 25.8782433,41.1859485 23.2773857,40.2055596 C22.1977844,39.813404 20.9709647,39.1761512 20.5293097,38.7839957 C19.9404362,38.2447818 19.5969267,38.1957623 19.2043444,38.5879179 C18.4191799,39.372229 12.7267367,38.3918401 9.53700556,36.9212568 C4.62972695,34.6663623 -0.326624453,28.8820678 0.0168850503,25.8918816 C0.262248981,23.8330649 1.63628699,23.9801233 4.33529023,26.4310955 C6.83800232,28.68599 10.2730974,30.2055928 12.8248822,30.2055928 C14.1007747,30.2055928 14.247993,30.0585345 13.9535563,29.127165 C13.7572652,28.4899122 13.5119012,27.362465 13.3156101,26.6271733 C13.1193189,25.597765 12.4322999,25.0095316 10.4203157,24.0291427 C6.54356561,22.2154232 3.10847058,17.8036732 1.83257814,12.9507481 C1.34185028,11.0880092 1.34185028,10.5487953 1.83257814,9.91154253 C2.86310665,8.68605641 4.67879973,8.93115363 5.61118267,10.4997759 C7.77038526,13.9801565 8.89905934,15.4507398 9.63515113,15.7448565 C10.2240246,15.9409343 10.125879,15.7448565 9.3897872,14.9115259 C6.39634725,11.725262 5.80747381,2.01941187 8.50647705,0.990003528 C9.63515113,0.548828523 11.0582619,2.06843132 11.3526986,4.02920912 C11.7943537,6.82331749 13.5119012,9.81350364 15.180376,10.7938925 C16.9469963,11.8233009 19.1552716,11.6762426 22.3940755,10.3036981 C23.6347991,9.73167892 24.1742949,9.40688283 24.6409798,8.47452373 Z M21.8052021,27.362465 C23.8171863,25.8918816 25.9273161,23.6860066 24.4551325,24.5683566 C24.0625503,24.8134538 22.3450027,25.3526677 20.6274552,25.7938427 C17.5849425,26.5291344 17.5849425,26.5291344 18.3210343,27.6565817 C19.30249,29.0291261 19.4987811,29.0291261 21.8052021,27.362465 Z M77.4046688,27.7056011 C78.1407606,26.480115 77.5028144,25.7938427 75.6380485,25.7938427 C75.0491751,25.7938427 73.9695738,25.5487455 73.233482,25.3036483 C72.4973902,25.0095316 71.859444,24.8624733 71.7122256,24.9605122 C71.5159344,25.15659 75.981558,28.7350094 76.4232131,28.7350094 C76.6195042,28.7350094 77.0120865,28.244815 77.4046688,27.7056011 Z" id="Combined-Shape"></path>
        </g>
    </g>
</svg>