<?xml version="1.0" encoding="utf-8"?>
<!-- Generator: Adobe Illustrator 16.0.0, SVG Export Plug-In . SVG Version: 6.00 Build 0)  -->
<!DOCTYPE svg PUBLIC "-//W3C//DTD SVG 1.1//EN" "http://www.w3.org/Graphics/SVG/1.1/DTD/svg11.dtd">
<svg version="1.1" id="Layer_1" xmlns="http://www.w3.org/2000/svg" xmlns:xlink="http://www.w3.org/1999/xlink" x="0px" y="0px"
	 width="160px" height="160px" viewBox="0 0 160 160" enable-background="new 0 0 160 160" xml:space="preserve">
<g id="l2">
	
		<path fill="#B24C00" stroke="#000000" stroke-width="1.7" stroke-linecap="round" stroke-linejoin="round" stroke-miterlimit="1.5" d="
		M64.248,116.59c3.581,1.48,7.426,2.447,11.445,2.813l-1.319,3.406l4.694,8.936l-3.149,0.917l2.565,10.009l-5.188-0.096
		l-1.403-4.123l-0.97,4.332c-10.107,0.764-11.687,0.714-16.162-2.127l1.358-4.432c4.913,3.148,7.95,0.906,9.528-5.531l-1.893-1.215
		l3.869-6.244L64.248,116.59z"/>
	
		<path fill="#11AA11" stroke="#000000" stroke-width="1.7" stroke-linecap="round" stroke-linejoin="round" stroke-miterlimit="1.5" d="
		M92.429,123.085l-3.275,16.919c-0.545,3.594-5.939,4.15-5.632,0.178l2.2-17.006"/>
	
		<path fill="#11AA11" stroke="#000000" stroke-width="1.7" stroke-linecap="round" stroke-linejoin="round" stroke-miterlimit="1.5" d="
		M99.147,114.221c-0.966,1.842-4.492,8.537-5.938,10.782c-1.848,2.869-7.918,1.959-9.063-0.513c-0.625-1.348-0.69-4.055-0.69-5.141
		C89.13,118.756,94.446,116.959,99.147,114.221z"/>
	
		<path fill="#11AA11" stroke="#000000" stroke-width="1.7" stroke-linecap="round" stroke-linejoin="round" stroke-miterlimit="1.5" d="
		M67.486,123.018l6.521-0.01"/>
	
		<path fill="none" stroke="#000000" stroke-width="1.7" stroke-linecap="round" stroke-linejoin="round" stroke-miterlimit="1.5" d="
		M65.586,130.692c3.341,2.081,6.932,2.624,10.66,1.893"/>
</g>
</svg>
