<?xml version="1.0" encoding="utf-8"?>
<!-- Generator: Adobe Illustrator 16.0.0, SVG Export Plug-In . SVG Version: 6.00 Build 0)  -->
<!DOCTYPE svg PUBLIC "-//W3C//DTD SVG 1.1//EN" "http://www.w3.org/Graphics/SVG/1.1/DTD/svg11.dtd">
<svg version="1.1" id="Layer_1" xmlns="http://www.w3.org/2000/svg" xmlns:xlink="http://www.w3.org/1999/xlink" x="0px" y="0px"
	 width="160px" height="160px" viewBox="0 0 160 160" enable-background="new 0 0 160 160" xml:space="preserve">
<g id="l3">
	
		<path id="STROKE_0BF93246.-F254.-452C.-A22B.-D9AC54154A18" fill="#11AA11" stroke="#000000" stroke-width="1.7" stroke-linecap="round" stroke-linejoin="round" d="
		M23.306,141.396c0.118,0.01,0.207,0.017,0.266,0.017h0.745c0.07,0,0.137-0.003,0.202-0.009c0.065-0.006,0.13-0.014,0.195-0.025
		c0.065-0.011,0.13-0.018,0.195-0.018h1.428c0.059,0,0.121-0.002,0.186-0.01c0.065-0.006,0.13-0.011,0.195-0.011h2.983
		c0.071,0,0.142,0.005,0.213,0.011c0.071,0.008,0.143,0.014,0.214,0.02c0.07,0.005,0.141,0.014,0.212,0.025
		c0.072,0.01,0.146,0.022,0.223,0.035c0.077,0.012,0.156,0.021,0.238,0.027c0.081,0.005,0.158,0.014,0.229,0.025
		c0.071,0.011,0.145,0.02,0.222,0.025s0.154,0.008,0.231,0.008h0.469c0.083,0,0.167,0.004,0.256,0.01
		c0.09,0.008,0.176,0.015,0.259,0.02c0.083,0.006,0.168,0.012,0.256,0.018c0.088,0.006,0.179,0.012,0.274,0.017
		c0.095,0.006,0.188,0.009,0.277,0.009c0.089,0,0.171,0.002,0.247,0.008c0.075,0.006,0.155,0.01,0.238,0.01s0.169,0.002,0.259,0.01
		c0.089,0.007,0.171,0.014,0.248,0.02c0.075,0.004,0.155,0.01,0.238,0.017c0.083,0.005,0.163,0.014,0.24,0.024
		c0.078,0.012,0.157,0.018,0.24,0.018s0.166,0.003,0.247,0.01c0.082,0.007,0.161,0.01,0.238,0.01h0.975
		c0.089,0,0.175,0.004,0.258,0.01c0.084,0.006,0.169,0.01,0.257,0.016c0.087,0.007,0.176,0.01,0.265,0.01s0.178,0,0.267,0
		c0.09,0,0.175,0.002,0.256,0.008c0.082,0.006,0.161,0.012,0.239,0.018c0.077,0.006,0.154,0.012,0.231,0.02
		c0.077,0.006,0.154,0.012,0.231,0.019c0.077,0.005,0.154,0.007,0.229,0.007h0.851c0.064,0,0.145,0.004,0.24,0.009
		c0.096,0.006,0.19,0.009,0.284,0.009h1.611c0.072,0,0.14,0.003,0.206,0.008c0.064,0.006,0.136,0.01,0.212,0.01
		c0.078,0,0.156,0.002,0.238,0.008s0.165,0.009,0.248,0.009h1.437c0.059,0,0.124,0.003,0.195,0.01
		c0.071,0.007,0.139,0.013,0.204,0.019s0.133,0.012,0.204,0.018s0.141,0.012,0.211,0.018c0.069,0.005,0.14,0.011,0.211,0.016
		c0.07,0.007,0.138,0.014,0.204,0.02c0.065,0.006,0.13,0.014,0.195,0.018c0.065,0.007,0.137,0.013,0.213,0.018
		c0.077,0.006,0.148,0.012,0.213,0.018s0.127,0.012,0.186,0.017c0.059,0.006,0.118,0.015,0.177,0.028
		c0.059,0.012,0.127,0.021,0.203,0.027c0.078,0.004,0.152,0.014,0.223,0.024c0.072,0.011,0.14,0.022,0.204,0.036
		c0.065,0.012,0.127,0.021,0.186,0.027c0.058,0.006,0.123,0.01,0.194,0.016c0.072,0.007,0.143,0.013,0.214,0.02
		c0.071,0.008,0.142,0.014,0.213,0.02c0.071,0.005,0.144,0.011,0.22,0.017c0.075,0.005,0.152,0.009,0.228,0.009h1.27
		c0.071,0,0.136,0.008,0.195,0.026s0.127,0.03,0.204,0.036c0.077,0.005,0.145,0.008,0.204,0.008c0.06,0,0.129,0.006,0.211,0.018
		c0.082,0.012,0.152,0.017,0.211,0.017s0.117,0,0.176,0c0.06,0,0.127,0.003,0.204,0.009c0.078,0.006,0.152,0.012,0.223,0.02
		c0.072,0.006,0.145,0.013,0.223,0.018c0.077,0.006,0.148,0.014,0.213,0.025c0.064,0.012,0.136,0.018,0.212,0.018
		c0.077,0,0.155,0.003,0.232,0.008c0.076,0.006,0.145,0.01,0.204,0.01h0.617c0.071,0,0.145,0.002,0.222,0.01
		c0.077,0.007,0.145,0.016,0.204,0.026c0.059,0.013,0.121,0.023,0.186,0.034c0.065,0.012,0.133,0.021,0.204,0.027
		c0.071,0.006,0.146,0.011,0.222,0.011c0.077,0,0.151,0.005,0.222,0.017s0.145,0.027,0.223,0.045
		c0.076,0.018,0.145,0.032,0.204,0.043c0.059,0.012,0.118,0.021,0.177,0.025c0.059,0.006,0.127,0.018,0.202,0.036
		c0.077,0.019,0.152,0.033,0.229,0.044c0.077,0.012,0.148,0.023,0.213,0.036s0.136,0.019,0.213,0.019s0.157,0.006,0.24,0.018
		c0.083,0.011,0.155,0.018,0.214,0.018c0.058,0,0.117,0.002,0.176,0.008s0.118,0.015,0.177,0.026
		c0.059,0.013,0.133,0.028,0.223,0.045c0.089,0.017,0.164,0.028,0.222,0.034c0.059,0.005,0.127,0.012,0.202,0.018
		c0.076,0.008,0.144,0.014,0.204,0.02c0.061,0.006,0.12,0.012,0.179,0.018s0.121,0.014,0.186,0.025
		c0.065,0.011,0.127,0.023,0.186,0.035c0.059,0.014,0.126,0.024,0.202,0.035c0.075,0.012,0.149,0.023,0.22,0.037
		c0.071,0.012,0.142,0.023,0.213,0.035c0.071,0.012,0.145,0.022,0.222,0.034c0.077,0.011,0.154,0.022,0.231,0.035
		s0.157,0.022,0.241,0.028c0.083,0.005,0.165,0.011,0.247,0.016c0.081,0.006,0.164,0.012,0.247,0.018s0.169,0.014,0.258,0.027
		c0.089,0.012,0.178,0.021,0.265,0.027c0.088,0.005,0.177,0.014,0.266,0.024c0.089,0.013,0.177,0.021,0.265,0.028
		c0.088,0.006,0.176,0.016,0.265,0.027c0.089,0.011,0.179,0.021,0.268,0.033c0.089,0.012,0.177,0.023,0.266,0.035
		c0.087,0.014,0.179,0.025,0.274,0.037c0.095,0.012,0.187,0.021,0.274,0.035c0.088,0.012,0.183,0.018,0.284,0.018h1.861
		c0.112,0,0.221,0.007,0.326,0.018c0.106,0.012,0.188,0.018,0.248,0.018c0.059,0,0.119,0,0.179,0c0.061,0,0.144,0.002,0.25,0.008
		c0.106,0.006,0.188,0.01,0.247,0.01c0.06,0,0.145,0,0.256,0s0.197,0.002,0.256,0.008c0.06,0.006,0.118,0.009,0.177,0.009h5.264
		c0.059,0,0.121-0.003,0.186-0.009c0.065-0.006,0.133-0.008,0.204-0.008s0.139-0.004,0.204-0.01s0.13-0.011,0.195-0.017
		s0.136-0.009,0.213-0.009c0.077,0,0.178-0.002,0.301-0.008c0.124-0.006,0.227-0.012,0.309-0.02
		c0.081-0.006,0.152-0.013,0.211-0.019c0.059-0.005,0.123-0.013,0.194-0.024s0.148-0.018,0.232-0.018
		c0.083,0,0.163-0.003,0.24-0.008c0.077-0.006,0.145-0.013,0.204-0.02s0.121-0.013,0.186-0.02c0.064-0.004,0.132-0.01,0.204-0.017
		c0.07-0.005,0.139-0.011,0.204-0.017c0.064-0.006,0.129-0.014,0.194-0.027s0.13-0.021,0.195-0.026
		c0.065-0.007,0.13-0.01,0.195-0.01c0.065,0,0.13-0.003,0.195-0.008c0.065-0.006,0.129-0.012,0.194-0.017
		c0.065-0.006,0.13-0.01,0.195-0.01h0.389c0.064,0,0.133-0.002,0.202-0.008c0.07-0.006,0.137-0.009,0.202-0.009h0.399
		c0.071,0,0.139-0.003,0.204-0.01s0.13-0.011,0.195-0.011h0.408c0.065,0,0.133-0.002,0.204-0.008s0.139-0.008,0.204-0.008
		s0.133-0.004,0.204-0.01c0.071-0.005,0.148-0.011,0.232-0.016c0.082-0.006,0.153-0.012,0.212-0.019
		c0.059-0.005,0.121-0.012,0.186-0.018c0.065-0.007,0.142-0.014,0.229-0.019c0.088-0.006,0.164-0.012,0.229-0.018
		c0.065-0.006,0.134-0.012,0.204-0.018c0.071-0.006,0.142-0.01,0.214-0.016c0.07-0.007,0.142-0.016,0.213-0.027
		c0.07-0.014,0.143-0.022,0.214-0.027c0.069-0.006,0.145-0.016,0.222-0.025c0.076-0.012,0.156-0.021,0.238-0.027
		c0.08-0.008,0.154-0.014,0.22-0.02c0.064-0.005,0.14-0.011,0.222-0.018c0.083-0.004,0.163-0.01,0.24-0.016s0.157-0.016,0.24-0.027
		c0.083-0.014,0.169-0.02,0.257-0.02h0.53c0.088,0,0.215-0.003,0.381-0.008c0.166-0.006,0.296-0.01,0.39-0.01
		c0.093,0,0.188-0.002,0.283-0.008s0.187-0.008,0.274-0.008s0.18-0.004,0.275-0.009c0.094-0.006,0.191-0.012,0.291-0.017
		c0.1-0.006,0.191-0.01,0.273-0.01c0.084,0,0.182-0.002,0.294-0.01c0.112-0.007,0.214-0.013,0.311-0.019
		c0.095-0.005,0.189-0.011,0.283-0.017c0.093-0.006,0.19-0.012,0.292-0.018c0.102-0.005,0.199-0.012,0.293-0.018
		c0.093-0.004,0.191-0.012,0.292-0.018c0.102-0.007,0.205-0.014,0.312-0.02c0.104-0.005,0.209-0.01,0.31-0.017
		c0.101-0.006,0.205-0.014,0.312-0.026c0.104-0.01,0.207-0.02,0.308-0.026s0.202-0.013,0.311-0.019
		c0.106-0.006,0.211-0.012,0.31-0.018c0.101-0.005,0.204-0.011,0.31-0.016c0.105-0.006,0.206-0.012,0.302-0.018
		c0.095-0.006,0.192-0.008,0.291-0.008c0.1,0,0.199-0.004,0.293-0.011c0.096-0.007,0.191-0.011,0.283-0.011h2.137
		c0.087,0,0.172,0.004,0.256,0.011c0.083,0.007,0.166,0.013,0.248,0.019c0.084,0.006,0.163,0.012,0.238,0.018
		c0.076,0.005,0.155,0.011,0.238,0.016c0.083,0.006,0.163,0.01,0.241,0.01c0.077,0,0.153,0.002,0.231,0.008
		c0.076,0.006,0.162,0.008,0.256,0.008h1.789c0.082,0,0.168-0.006,0.258-0.016c0.089-0.012,0.174-0.023,0.256-0.035
		c0.082-0.011,0.16-0.02,0.238-0.026c0.076-0.007,0.159-0.013,0.25-0.019c0.089-0.006,0.172-0.012,0.248-0.018
		c0.078-0.006,0.154-0.011,0.229-0.018c0.075-0.004,0.149-0.01,0.22-0.016c0.071-0.007,0.143-0.009,0.213-0.009
		c0.072,0,0.146-0.005,0.223-0.011c0.076-0.006,0.15-0.01,0.222-0.01h2.179c0.069,0,0.139-0.004,0.211-0.008
		c0.07-0.006,0.142-0.013,0.213-0.018c0.072-0.006,0.143-0.012,0.213-0.018c0.072-0.006,0.143-0.012,0.213-0.016
		c0.072-0.007,0.14-0.013,0.205-0.02c0.064-0.008,0.129-0.01,0.195-0.01c0.064,0,0.133,0,0.203,0s0.139-0.004,0.205-0.01
		c0.064-0.005,0.129-0.011,0.194-0.017c0.065-0.005,0.136-0.011,0.213-0.017s0.168-0.012,0.274-0.018
		c0.105-0.005,0.188-0.012,0.246-0.018c0.06-0.008,0.142-0.014,0.247-0.02c0.106-0.006,0.206-0.014,0.302-0.025
		s0.189-0.021,0.283-0.025c0.095-0.006,0.188-0.012,0.284-0.02c0.095-0.007,0.187-0.013,0.276-0.019
		c0.089-0.005,0.175-0.011,0.256-0.017c0.082-0.006,0.167-0.008,0.256-0.008h0.947c0.072,0,0.143-0.006,0.214-0.018
		s0.142-0.018,0.213-0.018s0.14-0.002,0.204-0.01c0.064-0.007,0.13-0.016,0.195-0.027c0.064-0.012,0.13-0.02,0.194-0.025
		c0.065-0.006,0.127-0.009,0.187-0.009c0.059,0,0.117-0.003,0.177-0.011c0.06-0.006,0.13-0.013,0.213-0.018
		c0.083-0.006,0.157-0.012,0.222-0.018c0.065-0.006,0.139-0.014,0.221-0.025c0.081-0.012,0.16-0.023,0.237-0.035
		c0.077-0.013,0.148-0.025,0.214-0.035c0.064-0.013,0.13-0.021,0.194-0.027c0.065-0.004,0.134-0.014,0.204-0.026
		c0.071-0.012,0.145-0.024,0.223-0.036c0.076-0.01,0.15-0.025,0.221-0.044c0.072-0.018,0.14-0.034,0.205-0.053
		c0.064-0.017,0.133-0.046,0.203-0.089c0.072-0.041,0.134-0.074,0.187-0.098c0.054-0.023,0.106-0.047,0.159-0.069
		s0.105-0.046,0.158-0.07s0.105-0.048,0.158-0.071s0.115-0.051,0.187-0.08s0.14-0.056,0.204-0.08
		c0.064-0.023,0.127-0.047,0.186-0.071c0.06-0.023,0.118-0.047,0.178-0.069c0.059-0.023,0.124-0.052,0.195-0.089
		c0.07-0.036,0.142-0.071,0.212-0.106c0.071-0.035,0.14-0.068,0.204-0.098s0.131-0.062,0.195-0.097
		c0.065-0.035,0.124-0.067,0.177-0.097c0.054-0.029,0.109-0.062,0.169-0.096c0.058-0.037,0.113-0.072,0.166-0.107
		s0.104-0.067,0.152-0.099c0.048-0.03,0.102-0.065,0.161-0.106c0.059-0.041,0.12-0.085,0.187-0.133
		c0.064-0.048,0.123-0.092,0.176-0.133s0.104-0.08,0.15-0.121c0.046-0.041,0.091-0.082,0.133-0.125
		c0.042-0.041,0.084-0.084,0.125-0.125c0.041-0.039,0.085-0.084,0.131-0.131c0.047-0.049,0.092-0.092,0.135-0.134
		c0.041-0.04,0.084-0.085,0.125-0.132c0.041-0.048,0.084-0.098,0.131-0.152c0.047-0.053,0.088-0.104,0.125-0.148
		c0.035-0.047,0.071-0.094,0.105-0.141c0.035-0.049,0.073-0.096,0.115-0.142c0.04-0.047,0.081-0.097,0.124-0.149
		c0.042-0.054,0.08-0.104,0.115-0.152c0.034-0.047,0.069-0.096,0.106-0.143c0.036-0.047,0.068-0.101,0.098-0.16
		c0.029-0.059,0.058-0.117,0.088-0.177c0.031-0.059,0.06-0.113,0.088-0.166c0.029-0.053,0.059-0.104,0.089-0.159
		c0.03-0.053,0.06-0.109,0.089-0.168s0.061-0.115,0.097-0.168s0.072-0.109,0.106-0.168c0.035-0.06,0.068-0.119,0.098-0.177
		c0.031-0.06,0.063-0.121,0.098-0.187c0.035-0.063,0.064-0.123,0.089-0.176c0.024-0.054,0.048-0.107,0.071-0.16
		c0.021-0.053,0.055-0.109,0.097-0.168c0.042-0.06,0.083-0.121,0.124-0.186s0.076-0.129,0.107-0.193
		c0.029-0.065,0.063-0.121,0.098-0.168c0.033-0.049,0.064-0.102,0.088-0.16c0.023-0.06,0.054-0.119,0.088-0.178
		c0.035-0.059,0.068-0.115,0.098-0.168c0.03-0.053,0.057-0.109,0.08-0.168c0.022-0.059,0.046-0.115,0.07-0.169
		c0.023-0.053,0.051-0.106,0.081-0.159c0.03-0.054,0.058-0.105,0.079-0.158c0.023-0.053,0.053-0.107,0.088-0.166
		c0.037-0.06,0.066-0.115,0.089-0.17c0.022-0.053,0.043-0.111,0.062-0.176s0.039-0.123,0.063-0.177s0.047-0.112,0.069-0.177
		c0.023-0.064,0.047-0.124,0.07-0.178c0.025-0.053,0.051-0.108,0.08-0.168c0.029-0.059,0.059-0.114,0.088-0.168
		c0.031-0.054,0.063-0.104,0.098-0.151s0.074-0.099,0.115-0.151c0.043-0.053,0.088-0.098,0.135-0.133s0.105-0.07,0.177-0.105
		s0.136-0.064,0.195-0.088c0.059-0.023,0.12-0.041,0.186-0.053s0.127-0.025,0.187-0.045c0.059-0.019,0.117-0.035,0.176-0.053
		c0.059-0.017,0.117-0.034,0.177-0.053c0.06-0.018,0.118-0.026,0.177-0.026h0.922c0.059,0,0.119,0.003,0.185,0.008
		c0.065,0.006,0.127,0.015,0.187,0.028c0.059,0.012,0.115,0.039,0.169,0.08c0.056,0.039,0.1,0.084,0.135,0.132
		s0.061,0.101,0.079,0.159c0.018,0.06,0.031,0.119,0.036,0.178c0.007,0.059,0.01,0.121,0.01,0.185v0.813
		c0,0.063-0.01,0.132-0.028,0.204c-0.018,0.07-0.042,0.151-0.072,0.239s-0.063,0.174-0.097,0.256
		c-0.034,0.08-0.068,0.151-0.099,0.211c-0.029,0.058-0.057,0.113-0.078,0.168c-0.023,0.053-0.055,0.109-0.098,0.168
		s-0.084,0.121-0.126,0.187c-0.04,0.066-0.083,0.134-0.13,0.204c-0.048,0.07-0.092,0.135-0.133,0.193
		c-0.04,0.06-0.076,0.115-0.105,0.169c-0.03,0.053-0.063,0.103-0.098,0.149c-0.035,0.047-0.076,0.102-0.125,0.168
		s-0.093,0.135-0.135,0.204c-0.04,0.069-0.078,0.139-0.113,0.204c-0.038,0.063-0.07,0.125-0.099,0.184
		c-0.029,0.06-0.06,0.119-0.095,0.178c-0.035,0.058-0.068,0.117-0.099,0.176c-0.029,0.059-0.057,0.115-0.081,0.169
		c-0.023,0.054-0.057,0.112-0.098,0.177c-0.04,0.064-0.078,0.123-0.113,0.178c-0.035,0.053-0.072,0.104-0.116,0.15
		c-0.042,0.047-0.079,0.102-0.114,0.16s-0.071,0.118-0.107,0.176c-0.036,0.059-0.075,0.121-0.115,0.187
		c-0.041,0.063-0.082,0.132-0.123,0.204c-0.041,0.07-0.082,0.13-0.125,0.177c-0.041,0.046-0.09,0.09-0.142,0.132
		c-0.054,0.043-0.103,0.089-0.15,0.141c-0.046,0.053-0.094,0.105-0.141,0.158c-0.046,0.055-0.091,0.102-0.134,0.143
		c-0.043,0.043-0.086,0.096-0.133,0.16s-0.092,0.121-0.131,0.167c-0.041,0.046-0.084,0.103-0.125,0.169
		c-0.043,0.066-0.082,0.121-0.117,0.168s-0.072,0.097-0.114,0.15c-0.043,0.053-0.078,0.111-0.106,0.176
		c-0.029,0.064-0.053,0.127-0.07,0.186c-0.02,0.059-0.045,0.111-0.08,0.16c-0.035,0.047-0.076,0.098-0.124,0.15
		c-0.05,0.053-0.097,0.101-0.144,0.141c-0.047,0.041-0.09,0.089-0.132,0.142c-0.04,0.054-0.082,0.101-0.124,0.142
		c-0.043,0.041-0.084,0.085-0.125,0.133s-0.088,0.095-0.141,0.143c-0.053,0.047-0.105,0.092-0.158,0.133
		c-0.053,0.04-0.104,0.081-0.15,0.122s-0.097,0.079-0.152,0.116c-0.053,0.035-0.11,0.069-0.169,0.098
		c-0.06,0.031-0.111,0.063-0.158,0.098c-0.048,0.035-0.103,0.064-0.168,0.088s-0.124,0.048-0.177,0.07s-0.109,0.049-0.168,0.08
		c-0.06,0.03-0.118,0.061-0.178,0.09c-0.059,0.029-0.123,0.056-0.195,0.078c-0.07,0.023-0.138,0.043-0.202,0.061
		c-0.065,0.02-0.13,0.037-0.195,0.055s-0.127,0.037-0.187,0.053c-0.059,0.018-0.121,0.037-0.186,0.062s-0.137,0.046-0.213,0.063
		c-0.077,0.018-0.15,0.035-0.223,0.053c-0.071,0.017-0.14,0.039-0.204,0.068c-0.065,0.03-0.13,0.055-0.194,0.072
		s-0.127,0.035-0.186,0.053c-0.06,0.017-0.125,0.034-0.195,0.053c-0.07,0.018-0.143,0.035-0.214,0.055
		c-0.07,0.018-0.138,0.035-0.203,0.053c-0.065,0.016-0.13,0.039-0.195,0.069c-0.065,0.028-0.127,0.053-0.187,0.071
		c-0.059,0.018-0.121,0.039-0.186,0.063s-0.133,0.043-0.203,0.053c-0.072,0.012-0.137,0.026-0.195,0.045
		c-0.059,0.018-0.121,0.032-0.186,0.043c-0.066,0.013-0.131,0.023-0.195,0.034c-0.065,0.013-0.134,0.022-0.204,0.036
		c-0.071,0.014-0.136,0.027-0.195,0.044s-0.118,0.035-0.177,0.054c-0.059,0.018-0.118,0.033-0.178,0.043
		c-0.059,0.012-0.123,0.026-0.193,0.045s-0.137,0.033-0.195,0.045c-0.059,0.011-0.124,0.023-0.195,0.035
		c-0.071,0.013-0.143,0.027-0.214,0.043c-0.07,0.018-0.135,0.029-0.194,0.037c-0.059,0.006-0.127,0.016-0.201,0.026
		c-0.076,0.013-0.146,0.022-0.211,0.034s-0.127,0.023-0.186,0.036c-0.06,0.013-0.121,0.022-0.188,0.026
		c-0.064,0.006-0.139,0.01-0.221,0.01c-0.084,0-0.157,0.003-0.223,0.008c-0.064,0.006-0.133,0.012-0.204,0.017
		c-0.071,0.007-0.147,0.013-0.231,0.02s-0.16,0.013-0.23,0.019c-0.072,0.005-0.15,0.014-0.238,0.025s-0.174,0.025-0.256,0.043
		c-0.084,0.02-0.166,0.034-0.25,0.046c-0.082,0.011-0.169,0.022-0.256,0.034c-0.088,0.014-0.179,0.025-0.274,0.037
		c-0.096,0.01-0.189,0.023-0.283,0.035c-0.094,0.013-0.19,0.021-0.292,0.027s-0.202,0.014-0.303,0.025
		c-0.1,0.012-0.203,0.02-0.308,0.025c-0.106,0.006-0.209,0.018-0.311,0.036c-0.101,0.019-0.202,0.036-0.302,0.055
		c-0.1,0.018-0.191,0.036-0.273,0.053c-0.084,0.017-0.155,0.028-0.215,0.034c-0.059,0.004-0.139,0.023-0.239,0.052
		c-0.101,0.03-0.202,0.051-0.302,0.063c-0.1,0.012-0.196,0.027-0.29,0.045c-0.094,0.016-0.191,0.033-0.292,0.051
		c-0.102,0.019-0.196,0.037-0.286,0.056c-0.089,0.018-0.183,0.032-0.282,0.044c-0.101,0.012-0.197,0.023-0.291,0.033
		c-0.094,0.012-0.186,0.023-0.273,0.035c-0.09,0.014-0.18,0.025-0.269,0.037s-0.178,0.022-0.265,0.035
		c-0.088,0.013-0.176,0.024-0.266,0.037c-0.09,0.011-0.179,0.021-0.268,0.033s-0.182,0.026-0.273,0.044
		c-0.095,0.019-0.187,0.034-0.275,0.044c-0.089,0.012-0.178,0.023-0.266,0.037c-0.088,0.012-0.172,0.026-0.256,0.043
		c-0.082,0.018-0.166,0.029-0.248,0.036c-0.085,0.007-0.164,0.016-0.238,0.026c-0.076,0.012-0.149,0.018-0.221,0.018
		c-0.07,0-0.147,0.004-0.23,0.01c-0.084,0.004-0.167,0.01-0.25,0.016s-0.163,0.012-0.24,0.019c-0.076,0.007-0.159,0.013-0.247,0.019
		s-0.176,0.015-0.265,0.025c-0.09,0.012-0.176,0.024-0.26,0.036c-0.082,0.013-0.164,0.021-0.246,0.027
		c-0.082,0.006-0.161,0.012-0.238,0.017c-0.076,0.006-0.15,0.01-0.222,0.01s-0.142,0-0.214,0c-0.07,0-0.145,0.002-0.221,0.008
		c-0.079,0.006-0.152,0.012-0.221,0.017c-0.07,0.006-0.143,0.012-0.221,0.019c-0.076,0.008-0.15,0.014-0.222,0.02
		c-0.07,0.005-0.147,0.008-0.231,0.008c-0.083,0-0.163,0-0.24,0s-0.156,0.003-0.238,0.009c-0.082,0.005-0.164,0.012-0.246,0.017
		c-0.084,0.006-0.166,0.012-0.25,0.018c-0.083,0.006-0.166,0.012-0.25,0.018c-0.083,0.008-0.162,0.016-0.237,0.027
		s-0.152,0.02-0.229,0.026c-0.076,0.007-0.157,0.009-0.24,0.009h-5.172c-0.096,0-0.193-0.002-0.294-0.009
		c-0.099-0.007-0.2-0.015-0.301-0.026s-0.199-0.016-0.293-0.016c-0.093,0-0.192-0.004-0.299-0.012
		c-0.106-0.006-0.21-0.012-0.31-0.018c-0.103-0.006-0.205-0.009-0.312-0.009h-0.63c-0.1,0-0.199-0.007-0.299-0.017
		c-0.1-0.012-0.197-0.018-0.293-0.018s-0.189-0.003-0.283-0.008c-0.094-0.006-0.191-0.012-0.293-0.02
		c-0.102-0.007-0.198-0.01-0.292-0.01c-0.095,0-0.188-0.006-0.283-0.018c-0.095-0.011-0.19-0.02-0.283-0.025
		c-0.094-0.006-0.188-0.011-0.284-0.017c-0.094-0.007-0.193-0.013-0.293-0.019c-0.099-0.006-0.197-0.011-0.292-0.011
		s-0.192-0.003-0.292-0.008c-0.1-0.007-0.201-0.013-0.302-0.018s-0.198-0.009-0.292-0.009s-0.188-0.009-0.283-0.026
		c-0.096-0.019-0.189-0.033-0.283-0.044c-0.095-0.012-0.191-0.023-0.293-0.035c-0.102-0.011-0.201-0.022-0.302-0.035
		c-0.1-0.012-0.2-0.02-0.301-0.02c-0.103,0-0.202-0.002-0.302-0.008c-0.1-0.006-0.2-0.009-0.299-0.009c-0.1,0-0.2-0.005-0.302-0.017
		c-0.101-0.012-0.201-0.017-0.301-0.017s-0.2-0.003-0.302-0.011c-0.101-0.008-0.201-0.01-0.301-0.01h-3.833
		c-0.059,0-0.146,0.002-0.259,0.01c-0.113,0.008-0.199,0.011-0.258,0.011s-0.145,0.002-0.256,0.009
		c-0.112,0.006-0.224,0.008-0.336,0.008h-2.242c-0.059,0-0.118-0.002-0.177-0.008c-0.059-0.007-0.118-0.009-0.176-0.009h-5.67
		c-0.106,0-0.212,0.002-0.32,0.009c-0.107,0.006-0.21,0.01-0.31,0.017c-0.1,0.006-0.203,0.011-0.309,0.017
		c-0.104,0.006-0.209,0.012-0.31,0.018c-0.101,0.006-0.202,0.009-0.302,0.009c-0.099,0-0.203,0.003-0.308,0.01
		c-0.106,0.007-0.216,0.01-0.329,0.01h-2.294c-0.059,0-0.118,0.003-0.177,0.009c-0.06,0.006-0.118,0.012-0.177,0.017
		c-0.059,0.006-0.117,0.009-0.176,0.009c-0.059,0-0.118,0.004-0.177,0.01c-0.059,0.004-0.119,0.008-0.178,0.008h-0.374
		c-0.059,0-0.118,0.002-0.177,0.008s-0.118,0.009-0.177,0.009h-0.529c-0.06,0-0.148,0.003-0.266,0.01
		c-0.118,0.007-0.207,0.011-0.266,0.011s-0.118,0.002-0.176,0.008c-0.059,0.006-0.118,0.009-0.177,0.009s-0.118,0.003-0.177,0.009
		c-0.059,0.005-0.124,0.008-0.195,0.008c-0.071,0-0.139,0-0.204,0c-0.065,0-0.127,0.004-0.187,0.009
		c-0.059,0.005-0.121,0.011-0.186,0.018c-0.065,0.005-0.13,0.013-0.195,0.019s-0.127,0.01-0.186,0.01s-0.121,0.002-0.186,0.009
		c-0.065,0.006-0.13,0.011-0.195,0.017c-0.064,0.006-0.129,0.012-0.195,0.018c-0.065,0.006-0.13,0.012-0.195,0.017
		c-0.065,0.006-0.13,0.012-0.194,0.019c-0.064,0.008-0.127,0.014-0.186,0.02c-0.06,0.005-0.121,0.011-0.186,0.017
		c-0.065,0.005-0.133,0.012-0.204,0.017c-0.071,0.006-0.136,0.009-0.195,0.009c-0.059,0-0.121,0.003-0.186,0.009
		c-0.065,0.006-0.13,0.008-0.195,0.008c-0.065,0-0.127,0.004-0.187,0.01c-0.059,0.008-0.121,0.014-0.186,0.02
		c-0.065,0.006-0.13,0.008-0.195,0.008s-0.127,0.003-0.186,0.01c-0.059,0.006-0.121,0.01-0.186,0.017s-0.127,0.011-0.188,0.017
		c-0.06,0.006-0.12,0.01-0.179,0.01c-0.059,0-0.118,0.002-0.177,0.01c-0.059,0.007-0.118,0.01-0.177,0.01s-0.121,0-0.185,0
		c-0.065,0-0.127,0.003-0.187,0.008c-0.059,0.006-0.121,0.009-0.186,0.009s-0.13,0.003-0.195,0.01
		c-0.065,0.005-0.13,0.011-0.195,0.017c-0.065,0.005-0.13,0.008-0.195,0.008h-0.753c-0.059,0-0.121,0.004-0.187,0.008
		c-0.064,0.006-0.13,0.01-0.195,0.01c-0.064,0-0.13,0.002-0.195,0.01c-0.065,0.007-0.129,0.013-0.194,0.02
		c-0.065,0.006-0.13,0.01-0.195,0.016c-0.065,0.006-0.13,0.012-0.195,0.018c-0.065,0.006-0.13,0.012-0.195,0.018
		c-0.065,0.005-0.13,0.012-0.195,0.019c-0.065,0.006-0.13,0.013-0.195,0.019s-0.133,0.012-0.204,0.016
		c-0.071,0.007-0.139,0.012-0.204,0.018s-0.13,0.012-0.195,0.02c-0.065,0.007-0.132,0.013-0.202,0.019
		c-0.07,0.005-0.14,0.008-0.211,0.008h-0.39c-0.059,0-0.121,0.003-0.186,0.009c-0.064,0.006-0.129,0.008-0.194,0.008h-0.789
		c-0.072,0-0.14,0.004-0.204,0.01c-0.065,0.005-0.133,0.008-0.206,0.008h-4.472c-0.112,0-0.222-0.005-0.329-0.018
		c-0.107-0.01-0.217-0.017-0.329-0.017c-0.111,0-0.223-0.003-0.335-0.008c-0.112-0.006-0.197-0.009-0.256-0.009
		s-0.118-0.003-0.177-0.01c-0.059-0.008-0.118-0.01-0.177-0.01s-0.142-0.004-0.249-0.01s-0.19-0.008-0.249-0.008
		s-0.139-0.003-0.239-0.01c-0.099-0.004-0.2-0.01-0.301-0.016c-0.102-0.006-0.202-0.013-0.302-0.019
		c-0.099-0.007-0.2-0.011-0.301-0.011s-0.202,0-0.301,0s-0.2-0.003-0.3-0.008c-0.099-0.006-0.203-0.012-0.31-0.018
		c-0.108-0.006-0.21-0.009-0.311-0.009s-0.206-0.003-0.317-0.009c-0.112-0.006-0.222-0.008-0.329-0.008s-0.214,0-0.32,0
		c-0.105,0-0.214-0.002-0.326-0.008c-0.112-0.007-0.221-0.01-0.329-0.01c-0.107,0-0.214-0.003-0.32-0.01
		c-0.104-0.008-0.21-0.014-0.317-0.02c-0.106-0.004-0.188-0.008-0.247-0.008c-0.059,0-0.145-0.003-0.258-0.008
		c-0.114-0.006-0.223-0.01-0.329-0.01c-0.106,0-0.209-0.002-0.309-0.007c-0.1-0.007-0.204-0.013-0.311-0.019
		c-0.107-0.005-0.214-0.014-0.319-0.027c-0.106-0.012-0.21-0.023-0.311-0.035c-0.101-0.012-0.206-0.023-0.311-0.035
		c-0.105-0.014-0.211-0.024-0.317-0.036c-0.106-0.011-0.212-0.026-0.32-0.044c-0.107-0.018-0.19-0.027-0.25-0.027
		c-0.059,0-0.141-0.006-0.247-0.018c-0.106-0.011-0.215-0.021-0.327-0.033c-0.111-0.012-0.221-0.021-0.328-0.027
		c-0.108-0.006-0.211-0.016-0.311-0.027s-0.196-0.026-0.29-0.044c-0.094-0.019-0.191-0.033-0.293-0.044
		c-0.101-0.012-0.197-0.026-0.292-0.045c-0.093-0.018-0.188-0.033-0.283-0.045s-0.19-0.019-0.284-0.024
		c-0.093-0.007-0.188-0.015-0.283-0.026c-0.095-0.014-0.187-0.027-0.277-0.045c-0.089-0.018-0.177-0.035-0.265-0.053
		c-0.087-0.018-0.173-0.03-0.256-0.036c-0.083-0.005-0.166-0.014-0.249-0.024c-0.083-0.013-0.163-0.024-0.238-0.037
		c-0.076-0.013-0.155-0.023-0.238-0.035c-0.083-0.012-0.166-0.023-0.25-0.037c-0.083-0.012-0.168-0.026-0.256-0.042
		c-0.087-0.019-0.179-0.041-0.274-0.07c-0.095-0.03-0.193-0.062-0.292-0.097c-0.1-0.035-0.177-0.063-0.232-0.08
		c-0.054-0.018-0.108-0.039-0.161-0.063c-0.053-0.025-0.129-0.063-0.229-0.117c-0.099-0.053-0.176-0.097-0.229-0.131
		c-0.052-0.037-0.106-0.068-0.161-0.098c-0.054-0.03-0.125-0.074-0.212-0.133s-0.173-0.121-0.256-0.186s-0.154-0.129-0.213-0.193
		c-0.059-0.065-0.103-0.133-0.131-0.204c-0.029-0.071-0.046-0.154-0.052-0.248c-0.006-0.095-0.01-0.171-0.01-0.229
		c0-0.06,0.006-0.123,0.017-0.195l0.016-0.104"/>
	
		<path id="STROKE_4681C40A.-B529.-4E54.-9D01.-12F8B9E97B82" fill="none" stroke="#000000" stroke-width="1.7" stroke-linecap="round" stroke-linejoin="round" d="
		M85.261,141.678c0.118-0.011,0.197-0.041,0.238-0.088c0.041-0.048,0.079-0.104,0.115-0.169c0.037-0.063,0.078-0.123,0.125-0.176
		c0.047-0.054,0.089-0.104,0.125-0.15c0.035-0.046,0.074-0.099,0.115-0.157c0.041-0.06,0.079-0.119,0.113-0.178
		c0.035-0.059,0.064-0.117,0.09-0.177c0.023-0.06,0.047-0.121,0.071-0.187c0.024-0.066,0.045-0.135,0.062-0.205
		s0.033-0.135,0.053-0.193c0.017-0.059,0.033-0.119,0.045-0.185s0.035-0.138,0.07-0.222c0.035-0.082,0.063-0.164,0.088-0.248
		c0.025-0.082,0.046-0.162,0.063-0.238c0.019-0.075,0.032-0.144,0.044-0.203c0.01-0.059,0.018-0.123,0.024-0.194
		c0.006-0.071,0.012-0.142,0.019-0.212c0.006-0.07,0.012-0.139,0.018-0.205c0.006-0.064,0.012-0.128,0.018-0.188
		c0.006-0.059,0.01-0.123,0.01-0.193s-0.013-0.134-0.037-0.193c-0.023-0.059-0.045-0.117-0.061-0.177
		c-0.017-0.06-0.037-0.114-0.061-0.168c-0.024-0.054-0.051-0.112-0.08-0.177c-0.028-0.064-0.059-0.124-0.088-0.178
		c-0.03-0.053-0.061-0.111-0.092-0.176c-0.029-0.066-0.059-0.13-0.088-0.195c-0.029-0.063-0.058-0.125-0.089-0.185
		c-0.03-0.059-0.065-0.112-0.106-0.16c-0.041-0.047-0.082-0.098-0.123-0.151c-0.039-0.053-0.078-0.105-0.114-0.159
		s-0.072-0.103-0.107-0.15c-0.034-0.046-0.072-0.093-0.114-0.141c-0.043-0.047-0.09-0.083-0.144-0.106
		c-0.053-0.025-0.106-0.051-0.159-0.08s-0.103-0.062-0.15-0.098c-0.045-0.035-0.09-0.076-0.13-0.121
		c-0.042-0.049-0.083-0.1-0.125-0.158c-0.042-0.06-0.091-0.101-0.143-0.125c-0.054-0.023-0.097-0.06-0.132-0.107
		c-0.035-0.047-0.076-0.092-0.125-0.133c-0.049-0.04-0.094-0.091-0.135-0.15c-0.039-0.059-0.09-0.094-0.148-0.106
		c-0.059-0.011-0.121-0.026-0.186-0.044c-0.065-0.017-0.125-0.037-0.178-0.061s-0.1-0.063-0.142-0.116
		c-0.043-0.054-0.093-0.089-0.151-0.106c-0.06-0.019-0.119-0.043-0.178-0.071c-0.059-0.03-0.118-0.056-0.177-0.079
		c-0.06-0.021-0.114-0.048-0.168-0.078c-0.054-0.029-0.106-0.064-0.159-0.107c-0.052-0.041-0.1-0.083-0.142-0.123
		c-0.042-0.041-0.093-0.073-0.152-0.098c-0.06-0.023-0.118-0.05-0.177-0.08c-0.059-0.029-0.121-0.053-0.187-0.07
		c-0.064-0.019-0.132-0.037-0.204-0.054c-0.07-0.017-0.139-0.034-0.203-0.053c-0.065-0.019-0.125-0.042-0.178-0.071
		s-0.109-0.059-0.167-0.089c-0.059-0.028-0.124-0.049-0.195-0.062c-0.071-0.01-0.142-0.02-0.213-0.024
		c-0.071-0.006-0.136-0.021-0.194-0.045c-0.059-0.022-0.115-0.05-0.168-0.079c-0.054-0.029-0.106-0.059-0.16-0.089
		c-0.053-0.028-0.111-0.054-0.176-0.071c-0.065-0.018-0.128-0.033-0.186-0.043c-0.059-0.013-0.117-0.023-0.177-0.037
		c-0.059-0.012-0.118-0.027-0.177-0.043c-0.059-0.018-0.115-0.047-0.168-0.09c-0.053-0.041-0.107-0.07-0.161-0.088
		s-0.111-0.037-0.171-0.061c-0.059-0.024-0.114-0.049-0.167-0.072c-0.053-0.023-0.112-0.041-0.178-0.053
		c-0.064-0.012-0.129-0.023-0.194-0.035c-0.064-0.014-0.129-0.027-0.194-0.045c-0.065-0.017-0.13-0.031-0.195-0.043
		c-0.065-0.014-0.126-0.025-0.186-0.036c-0.06-0.013-0.121-0.017-0.186-0.017s-0.127,0-0.186,0s-0.118-0.006-0.177-0.02
		c-0.059-0.012-0.118-0.021-0.177-0.027s-0.121-0.01-0.186-0.018c-0.065-0.006-0.127-0.007-0.187-0.007
		c-0.059,0-0.114-0.016-0.167-0.046c-0.053-0.028-0.106-0.059-0.159-0.088c-0.053-0.029-0.106-0.059-0.161-0.089
		c-0.054-0.028-0.102-0.063-0.143-0.104c-0.04-0.041-0.067-0.098-0.079-0.168c-0.012-0.072-0.018-0.137-0.018-0.196v-1
		c0-0.077,0.008-0.153,0.027-0.229c0.018-0.075,0.039-0.151,0.064-0.229c0.024-0.077,0.041-0.147,0.052-0.212
		c0.01-0.064,0.019-0.126,0.025-0.186c0.006-0.059,0.015-0.125,0.027-0.195s0.027-0.143,0.045-0.213
		c0.018-0.07,0.039-0.135,0.061-0.193c0.023-0.059,0.049-0.121,0.08-0.186c0.03-0.064,0.055-0.129,0.072-0.194
		c0.018-0.063,0.039-0.132,0.062-0.203c0.022-0.071,0.04-0.137,0.052-0.196c0.012-0.059,0.03-0.117,0.054-0.176
		c0.024-0.061,0.045-0.119,0.064-0.178c0.018-0.059,0.038-0.115,0.062-0.168c0.021-0.053,0.045-0.112,0.069-0.178
		c0.024-0.063,0.048-0.125,0.07-0.184c0.023-0.06,0.047-0.115,0.071-0.168c0.024-0.055,0.051-0.111,0.081-0.17
		s0.061-0.115,0.089-0.168s0.059-0.105,0.088-0.158c0.03-0.052,0.063-0.111,0.098-0.177c0.034-0.065,0.066-0.131,0.097-0.196
		c0.03-0.063,0.054-0.125,0.07-0.185c0.017-0.06,0.038-0.115,0.061-0.168c0.025-0.054,0.052-0.108,0.083-0.167
		c0.03-0.061,0.063-0.122,0.097-0.188c0.035-0.064,0.068-0.125,0.098-0.186c0.03-0.059,0.061-0.117,0.088-0.176
		c0.029-0.06,0.056-0.118,0.08-0.178c0.024-0.059,0.044-0.119,0.061-0.185s0.037-0.124,0.061-0.177
		c0.024-0.053,0.048-0.106,0.073-0.16c0.024-0.053,0.053-0.109,0.088-0.168c0.035-0.059,0.066-0.121,0.098-0.186
		c0.03-0.064,0.056-0.132,0.079-0.203c0.023-0.069,0.046-0.137,0.07-0.203c0.024-0.064,0.049-0.137,0.073-0.213
		c0.024-0.075,0.046-0.152,0.07-0.229c0.023-0.077,0.046-0.157,0.07-0.239c0.024-0.082,0.046-0.156,0.064-0.222
		c0.019-0.063,0.036-0.126,0.052-0.185c0.017-0.06,0.037-0.121,0.061-0.186c0.023-0.064,0.054-0.133,0.089-0.204
		c0.034-0.071,0.067-0.133,0.097-0.186c0.03-0.052,0.066-0.113,0.106-0.186c0.041-0.071,0.08-0.139,0.116-0.204l0.833-1.557"/>
	
		<path id="STROKE_76B00478.-4DAF.-48AB.-BCEE.-F77379FEE099" fill="#11AA11" stroke="#000000" stroke-width="1.7" stroke-linecap="round" stroke-linejoin="round" d="
		M65.507,118.243c-0.081,0.093-0.131,0.172-0.15,0.237c-0.018,0.065-0.036,0.137-0.054,0.213c-0.019,0.076-0.036,0.143-0.054,0.201
		s-0.036,0.121-0.052,0.187c-0.017,0.065-0.037,0.13-0.061,0.194c-0.025,0.066-0.048,0.13-0.071,0.188
		c-0.023,0.058-0.046,0.117-0.07,0.177c-0.024,0.059-0.051,0.117-0.082,0.176c-0.03,0.06-0.059,0.115-0.088,0.168
		c-0.029,0.051-0.058,0.104-0.089,0.158c-0.03,0.053-0.056,0.108-0.079,0.168c-0.023,0.059-0.046,0.114-0.07,0.168
		c-0.024,0.054-0.049,0.106-0.073,0.16c-0.024,0.053-0.044,0.109-0.061,0.168c-0.017,0.06-0.037,0.119-0.062,0.178
		c-0.023,0.059-0.049,0.114-0.073,0.168c-0.024,0.053-0.047,0.105-0.07,0.158c-0.023,0.055-0.052,0.115-0.088,0.187
		c-0.037,0.069-0.072,0.14-0.107,0.211c-0.035,0.07-0.07,0.138-0.107,0.204c-0.036,0.064-0.068,0.133-0.097,0.204
		c-0.028,0.069-0.061,0.144-0.098,0.222c-0.036,0.076-0.065,0.141-0.088,0.193c-0.021,0.055-0.045,0.114-0.07,0.178
		c-0.024,0.064-0.048,0.126-0.069,0.186c-0.023,0.059-0.046,0.117-0.07,0.176c-0.025,0.06-0.049,0.119-0.073,0.178
		s-0.048,0.115-0.071,0.169c-0.022,0.053-0.048,0.108-0.079,0.168s-0.058,0.115-0.082,0.168c-0.024,0.054-0.048,0.109-0.071,0.169
		c-0.022,0.059-0.046,0.117-0.07,0.176c-0.024,0.059-0.051,0.121-0.079,0.186c-0.029,0.064-0.055,0.13-0.08,0.193
		c-0.024,0.065-0.045,0.127-0.063,0.187c-0.018,0.06-0.039,0.12-0.061,0.185c-0.023,0.064-0.046,0.129-0.07,0.194
		c-0.025,0.063-0.049,0.123-0.073,0.176c-0.024,0.054-0.048,0.106-0.071,0.16s-0.045,0.11-0.07,0.169
		c-0.024,0.059-0.05,0.118-0.079,0.178c-0.029,0.057-0.058,0.119-0.088,0.185c-0.031,0.063-0.06,0.13-0.089,0.196
		c-0.029,0.064-0.058,0.13-0.088,0.195c-0.03,0.064-0.059,0.129-0.082,0.193c-0.024,0.064-0.047,0.126-0.07,0.186
		c-0.023,0.059-0.049,0.126-0.079,0.203c-0.031,0.078-0.061,0.148-0.089,0.213c-0.029,0.064-0.059,0.129-0.088,0.194
		c-0.031,0.063-0.066,0.132-0.107,0.203s-0.082,0.146-0.125,0.221c-0.042,0.076-0.077,0.15-0.106,0.222s-0.058,0.14-0.088,0.203
		c-0.031,0.064-0.057,0.127-0.08,0.186c-0.023,0.06-0.046,0.119-0.07,0.178c-0.024,0.059-0.055,0.12-0.089,0.186
		c-0.034,0.064-0.064,0.123-0.088,0.177c-0.024,0.053-0.057,0.115-0.098,0.185c-0.04,0.07-0.082,0.145-0.124,0.222
		c-0.042,0.077-0.078,0.147-0.107,0.213c-0.028,0.063-0.061,0.132-0.097,0.203c-0.036,0.071-0.069,0.143-0.098,0.212
		c-0.028,0.07-0.058,0.141-0.088,0.211c-0.03,0.07-0.06,0.142-0.087,0.214c-0.03,0.071-0.062,0.139-0.098,0.203
		c-0.036,0.065-0.069,0.127-0.098,0.186c-0.028,0.06-0.064,0.121-0.106,0.185c-0.042,0.065-0.081,0.131-0.115,0.197
		c-0.035,0.065-0.065,0.123-0.089,0.176c-0.024,0.053-0.051,0.107-0.079,0.166c-0.029,0.06-0.058,0.119-0.089,0.178
		c-0.03,0.059-0.059,0.115-0.088,0.168c-0.028,0.054-0.058,0.111-0.088,0.178c-0.031,0.064-0.06,0.123-0.088,0.176
		c-0.03,0.053-0.062,0.112-0.097,0.177c-0.037,0.064-0.069,0.124-0.099,0.177c-0.028,0.054-0.063,0.116-0.105,0.188
		c-0.043,0.07-0.078,0.137-0.107,0.195c-0.029,0.059-0.058,0.118-0.088,0.178c-0.031,0.059-0.063,0.114-0.098,0.168
		c-0.035,0.053-0.067,0.109-0.097,0.168c-0.031,0.059-0.063,0.114-0.098,0.166c-0.035,0.053-0.07,0.111-0.106,0.178
		c-0.036,0.065-0.072,0.127-0.107,0.187c-0.035,0.06-0.07,0.114-0.107,0.167c-0.036,0.053-0.071,0.107-0.105,0.166
		c-0.035,0.059-0.07,0.115-0.104,0.168c-0.035,0.054-0.067,0.107-0.098,0.16c-0.03,0.055-0.059,0.107-0.088,0.16
		c-0.029,0.054-0.061,0.107-0.098,0.16c-0.036,0.053-0.07,0.103-0.105,0.149c-0.035,0.046-0.073,0.097-0.116,0.149
		c-0.042,0.054-0.081,0.109-0.115,0.169c-0.035,0.058-0.072,0.114-0.107,0.168c-0.036,0.053-0.072,0.104-0.106,0.151
		c-0.035,0.047-0.068,0.098-0.098,0.149s-0.054,0.108-0.07,0.167c-0.017,0.059-0.037,0.121-0.061,0.188
		c-0.025,0.064-0.038,0.127-0.038,0.187s0,0.118,0,0.177s0.012,0.121,0.038,0.186c0.023,0.063,0.053,0.126,0.087,0.185
		c0.035,0.06,0.073,0.115,0.113,0.168c0.042,0.054,0.086,0.101,0.134,0.142c0.049,0.041,0.09,0.088,0.125,0.142
		c0.034,0.054,0.052,0.108,0.052,0.168s0,0.118,0,0.177c0,0.06-0.006,0.117-0.018,0.176c-0.012,0.06-0.042,0.117-0.089,0.17
		c-0.046,0.053-0.096,0.105-0.149,0.16c-0.053,0.053-0.103,0.1-0.15,0.141s-0.094,0.084-0.143,0.133
		c-0.048,0.047-0.102,0.098-0.161,0.15c-0.058,0.054-0.108,0.101-0.149,0.142s-0.091,0.093-0.149,0.158
		c-0.06,0.065-0.106,0.126-0.144,0.185c-0.036,0.059-0.074,0.121-0.115,0.186c-0.041,0.064-0.079,0.129-0.114,0.195
		c-0.034,0.066-0.067,0.135-0.097,0.204c-0.03,0.07-0.055,0.136-0.072,0.194c-0.019,0.059-0.032,0.121-0.043,0.186
		c-0.01,0.064-0.016,0.137-0.016,0.221c0,0.082,0.018,0.163,0.053,0.24c0.034,0.076,0.081,0.135,0.14,0.176
		c0.059,0.041,0.126,0.074,0.204,0.098l0.116,0.035"/>
	
		<path id="STROKE_91DBC920.-636B.-49AF.-813A.-AAD1AD86BDF5" fill="none" stroke="#000000" stroke-width="1.7" stroke-linecap="round" stroke-linejoin="round" d="
		M91.726,118.967c-0.045,0.119-0.086,0.209-0.121,0.273c-0.036,0.064-0.07,0.13-0.098,0.195c-0.029,0.063-0.059,0.125-0.089,0.185
		s-0.06,0.114-0.091,0.168c-0.03,0.054-0.059,0.11-0.088,0.168c-0.029,0.059-0.061,0.125-0.096,0.196
		c-0.034,0.07-0.064,0.137-0.088,0.195c-0.025,0.06-0.049,0.117-0.072,0.177c-0.024,0.059-0.055,0.114-0.09,0.169
		c-0.033,0.053-0.069,0.108-0.105,0.168c-0.036,0.059-0.075,0.121-0.116,0.185c-0.041,0.065-0.076,0.124-0.106,0.177
		s-0.063,0.113-0.098,0.178c-0.034,0.064-0.068,0.125-0.104,0.185s-0.064,0.114-0.088,0.169c-0.025,0.053-0.049,0.106-0.073,0.16
		c-0.024,0.053-0.048,0.105-0.069,0.157c-0.023,0.053-0.054,0.106-0.09,0.159c-0.035,0.053-0.068,0.105-0.098,0.158
		c-0.028,0.055-0.057,0.11-0.088,0.17c-0.03,0.059-0.06,0.117-0.088,0.176c-0.029,0.06-0.059,0.121-0.09,0.186
		c-0.029,0.065-0.057,0.126-0.08,0.186c-0.024,0.059-0.045,0.117-0.062,0.177s-0.037,0.118-0.062,0.177
		c-0.024,0.06-0.051,0.115-0.08,0.168c-0.027,0.055-0.058,0.107-0.088,0.16c-0.029,0.053-0.061,0.111-0.091,0.178
		c-0.03,0.063-0.06,0.125-0.088,0.185s-0.058,0.124-0.089,0.196c-0.03,0.07-0.056,0.139-0.079,0.203
		c-0.022,0.064-0.049,0.129-0.079,0.194c-0.031,0.063-0.057,0.126-0.08,0.185c-0.021,0.059-0.052,0.121-0.088,0.186
		c-0.035,0.064-0.068,0.129-0.098,0.193c-0.028,0.065-0.059,0.127-0.088,0.187c-0.03,0.058-0.058,0.118-0.082,0.179
		c-0.024,0.059-0.047,0.121-0.07,0.187s-0.049,0.129-0.079,0.193c-0.03,0.063-0.06,0.132-0.089,0.202
		c-0.027,0.07-0.053,0.139-0.07,0.204s-0.039,0.128-0.063,0.187c-0.024,0.06-0.044,0.119-0.062,0.178
		c-0.016,0.059-0.039,0.117-0.07,0.176c-0.029,0.061-0.06,0.119-0.088,0.178s-0.058,0.119-0.088,0.176
		c-0.031,0.06-0.058,0.115-0.082,0.17c-0.025,0.053-0.051,0.115-0.078,0.186c-0.029,0.068-0.054,0.137-0.071,0.201
		c-0.019,0.064-0.039,0.127-0.062,0.186s-0.046,0.117-0.07,0.176c-0.024,0.06-0.051,0.115-0.082,0.17
		c-0.029,0.053-0.06,0.111-0.088,0.177c-0.028,0.063-0.055,0.126-0.079,0.185s-0.044,0.118-0.062,0.178
		c-0.017,0.059-0.039,0.115-0.069,0.168s-0.062,0.106-0.091,0.16c-0.03,0.053-0.061,0.107-0.088,0.168
		c-0.029,0.059-0.056,0.114-0.08,0.168c-0.024,0.053-0.047,0.106-0.07,0.159c-0.023,0.055-0.053,0.104-0.088,0.15
		c-0.037,0.046-0.07,0.099-0.099,0.157c-0.028,0.06-0.055,0.121-0.079,0.186c-0.023,0.065-0.049,0.124-0.072,0.177
		c-0.024,0.054-0.045,0.11-0.062,0.169s-0.028,0.117-0.034,0.176c-0.006,0.06,0.008,0.113,0.043,0.16
		c0.035,0.049,0.088,0.08,0.16,0.098c0.07,0.018,0.135,0.025,0.193,0.025h0.531c0.059,0,0.121,0.004,0.186,0.011
		c0.064,0.006,0.13,0.01,0.195,0.01h0.566c0.065,0,0.133,0.003,0.204,0.008c0.071,0.006,0.14,0.026,0.204,0.062
		s0.131,0.07,0.195,0.105s0.127,0.063,0.186,0.08c0.06,0.019,0.121,0.033,0.187,0.044c0.064,0.011,0.126,0.022,0.186,0.036
		c0.058,0.012,0.117,0.023,0.177,0.036c0.059,0.011,0.126,0.026,0.203,0.044s0.148,0.035,0.213,0.052
		c0.065,0.017,0.135,0.038,0.204,0.062c0.071,0.025,0.142,0.045,0.214,0.063c0.071,0.02,0.143,0.04,0.213,0.063
		c0.072,0.024,0.139,0.045,0.204,0.063c0.064,0.018,0.134,0.034,0.204,0.052c0.071,0.02,0.139,0.036,0.204,0.054
		s0.136,0.037,0.214,0.061c0.076,0.023,0.141,0.048,0.194,0.072c0.053,0.023,0.108,0.051,0.167,0.08s0.118,0.058,0.177,0.088
		c0.06,0.029,0.121,0.057,0.187,0.08c0.064,0.023,0.13,0.05,0.195,0.08c0.064,0.029,0.126,0.053,0.186,0.07
		c0.059,0.016,0.13,0.036,0.213,0.061c0.082,0.023,0.16,0.053,0.231,0.088c0.07,0.035,0.133,0.07,0.186,0.107
		s0.103,0.074,0.149,0.115s0.094,0.086,0.141,0.133s0.094,0.095,0.141,0.142c0.047,0.046,0.098,0.096,0.152,0.149
		c0.054,0.053,0.102,0.104,0.143,0.152c0.041,0.046,0.09,0.098,0.149,0.15c0.059,0.053,0.118,0.103,0.177,0.148
		c0.059,0.047,0.11,0.092,0.152,0.133c0.042,0.043,0.08,0.09,0.115,0.142c0.035,0.053,0.066,0.11,0.096,0.177
		c0.027,0.066,0.055,0.128,0.079,0.188c0.024,0.059,0.052,0.121,0.081,0.186c0.03,0.064,0.063,0.131,0.098,0.202
		c0.035,0.069,0.073,0.142,0.114,0.212c0.04,0.072,0.079,0.137,0.115,0.195c0.036,0.06,0.069,0.121,0.098,0.186
		s0.056,0.129,0.079,0.194s0.045,0.132,0.063,0.204c0.02,0.07,0.034,0.15,0.047,0.24c0.012,0.088,0.018,0.166,0.018,0.237
		c0,0.07,0.003,0.144,0.009,0.222c0.007,0.076,0.009,0.152,0.009,0.229s0.002,0.145,0.007,0.203
		c0.005,0.058,0.007,0.121,0.007,0.188v1.032c0,0.06-0.006,0.121-0.016,0.187c-0.011,0.063-0.021,0.129-0.033,0.195
		c-0.013,0.065-0.021,0.137-0.028,0.213c-0.006,0.076-0.013,0.146-0.019,0.211c-0.005,0.066-0.012,0.135-0.018,0.205
		s-0.012,0.143-0.018,0.221c-0.006,0.077-0.013,0.145-0.019,0.203c-0.006,0.06-0.013,0.125-0.019,0.194
		c-0.005,0.07-0.02,0.138-0.042,0.202c-0.023,0.064-0.044,0.127-0.062,0.186c-0.018,0.06-0.039,0.127-0.063,0.205
		c-0.024,0.076-0.042,0.145-0.053,0.203c-0.009,0.059-0.022,0.123-0.034,0.194c-0.012,0.07-0.023,0.141-0.035,0.212
		c-0.012,0.072-0.024,0.137-0.037,0.196s-0.021,0.12-0.027,0.185s-0.02,0.127-0.043,0.186c-0.021,0.059-0.061,0.105-0.115,0.143
		c-0.055,0.034-0.115,0.075-0.18,0.123c-0.064,0.047-0.13,0.088-0.195,0.124l-0.097,0.052"/>
	
		<path id="STROKE_0ACC7629.-EB86.-45AE.-A3EC.-F0688BD09C65" fill="#11AA11" stroke="#000000" stroke-width="1.7" stroke-linecap="round" stroke-linejoin="round" d="
		M80.265,136.071c-0.037,0.143-0.066,0.239-0.088,0.292c-0.022,0.052-0.056,0.102-0.098,0.15c-0.042,0.047-0.1,0.092-0.17,0.133
		c-0.071,0.043-0.145,0.084-0.221,0.125c-0.075,0.041-0.141,0.07-0.194,0.088c-0.054,0.02-0.116,0.039-0.187,0.062
		c-0.068,0.023-0.133,0.05-0.195,0.078c-0.06,0.03-0.123,0.056-0.188,0.08s-0.129,0.038-0.193,0.044
		c-0.063,0.006-0.13,0.009-0.202,0.009c-0.07,0-0.13-0.022-0.179-0.069c-0.048-0.047-0.089-0.094-0.124-0.142
		s-0.067-0.104-0.098-0.168c-0.03-0.065-0.053-0.129-0.07-0.194c-0.017-0.064-0.025-0.125-0.025-0.185v-0.399
		c0-0.066-0.003-0.133-0.01-0.203c-0.006-0.07-0.023-0.135-0.053-0.193c-0.031-0.059-0.072-0.107-0.125-0.143
		c-0.053-0.037-0.108-0.058-0.167-0.063c-0.06-0.006-0.122-0.008-0.186-0.008c-0.065,0-0.13,0-0.195,0
		c-0.065,0-0.133,0.009-0.204,0.026c-0.07,0.018-0.148,0.033-0.231,0.045c-0.083,0.011-0.159,0.022-0.229,0.035
		c-0.069,0.012-0.143,0.02-0.22,0.02h-0.417c-0.07,0-0.124-0.027-0.161-0.08l-0.054-0.08"/>
	
		<path id="STROKE_BB11AB95.-B043.-4449.-B383.-4496C3E66FDB" fill="#11AA11" stroke="#000000" stroke-width="1.7" stroke-linecap="round" stroke-linejoin="round" d="
		M73.074,127.954c-0.012-0.118-0.044-0.198-0.1-0.24c-0.054-0.042-0.111-0.067-0.17-0.079c-0.059-0.012-0.124-0.017-0.195-0.017
		c-0.071,0-0.141,0-0.21,0c-0.07,0-0.132,0.026-0.186,0.079c-0.055,0.054-0.102,0.104-0.143,0.15
		c-0.041,0.047-0.073,0.098-0.098,0.158c-0.024,0.059-0.042,0.129-0.052,0.212c-0.01,0.083-0.004,0.156,0.019,0.222
		c0.022,0.064,0.075,0.105,0.158,0.123c0.083,0.019,0.16,0.027,0.231,0.027h0.107"/>
	
		<path id="STROKE_DFB64025.-A03F.-404C.-BD0F.-F7F6AC4C9234" fill="#11AA11" stroke="#000000" stroke-width="1.7" stroke-linecap="round" stroke-linejoin="round" d="
		M64.41,127.458c0.118,0,0.186,0.029,0.204,0.089c0.018,0.059,0.027,0.126,0.027,0.203v0.918c0,0.089-0.006,0.174-0.018,0.258
		c-0.012,0.082-0.024,0.162-0.036,0.239c-0.013,0.077-0.028,0.157-0.046,0.239c-0.018,0.083-0.041,0.16-0.07,0.23
		c-0.028,0.069-0.075,0.129-0.14,0.176s-0.124,0.086-0.177,0.115c-0.053,0.031-0.11,0.063-0.17,0.098
		c-0.061,0.035-0.126,0.07-0.195,0.105c-0.07,0.035-0.14,0.066-0.211,0.098c-0.071,0.028-0.139,0.059-0.204,0.088
		s-0.13,0.059-0.195,0.088s-0.124,0.059-0.177,0.089c-0.053,0.028-0.106,0.062-0.161,0.097l-0.081,0.053"/>
	
		<path id="STROKE_ED65964C.-1F08.-48F5.-8959.-D450ED4E7DE1" fill="#11AA11" stroke="#000000" stroke-width="1.7" stroke-linecap="round" stroke-linejoin="round" d="
		M61.626,134.357c0.13,0.033,0.216,0.074,0.259,0.121c0.042,0.049,0.074,0.104,0.097,0.17c0.023,0.064,0.043,0.132,0.062,0.203
		c0.018,0.071,0.03,0.148,0.036,0.229c0.007,0.082,0.01,0.161,0.01,0.237c0,0.078,0,0.152,0,0.222c0,0.071-0.003,0.141-0.01,0.214
		c-0.006,0.07-0.032,0.141-0.079,0.211c-0.046,0.071-0.102,0.139-0.168,0.203c-0.065,0.064-0.142,0.131-0.231,0.195
		c-0.089,0.066-0.186,0.129-0.292,0.188c-0.105,0.059-0.185,0.102-0.238,0.133c-0.053,0.028-0.127,0.066-0.222,0.113
		c-0.096,0.047-0.185,0.084-0.268,0.114c-0.083,0.028-0.157,0.048-0.222,0.054l-0.097,0.01"/>
</g>
</svg>
