<?xml version="1.0" encoding="utf-8"?>
<!-- Generator: Adobe Illustrator 16.0.0, SVG Export Plug-In . SVG Version: 6.00 Build 0)  -->
<!DOCTYPE svg PUBLIC "-//W3C//DTD SVG 1.1//EN" "http://www.w3.org/Graphics/SVG/1.1/DTD/svg11.dtd">
<svg version="1.1" id="Layer_1" xmlns="http://www.w3.org/2000/svg" xmlns:xlink="http://www.w3.org/1999/xlink" x="0px" y="0px"
	 width="160px" height="160px" viewBox="0 0 160 160" enable-background="new 0 0 160 160" xml:space="preserve">
<g id="l7">
	
		<path fill="#FFEE11" stroke="#000000" stroke-width="1.7" stroke-linecap="round" stroke-linejoin="round" stroke-miterlimit="1.5" d="
		M87.92,118.686c0,0-20.574-9.604-22.234-6.82c-3.083,5.17,0.619,8.709,0.619,8.709l-3.163-0.616
		c-3.056,18.19,10.635,13.19,24.815,3.349L87.92,118.686z M93.813,117.641c0,0,16.58-9.232,19.965-9.373
		c2.703-0.11,1.152,8.032,1.152,8.032l1.783-0.106c2.232,16.405-7.492,14.278-22.516,8.23L93.813,117.641z"/>
	
		<ellipse fill="#FFEE11" stroke="#000000" stroke-width="1.7" stroke-linecap="round" stroke-linejoin="round" stroke-miterlimit="1.5" cx="90.898" cy="121.227" rx="5.366" ry="5.574"/>
	
		<path fill="#11AA11" stroke="#000000" stroke-width="1.7" stroke-linecap="round" stroke-linejoin="round" stroke-miterlimit="1.5" d="
		M80.022,122.053c-4.403-0.61-8.85,1.325-8.85,1.325"/>
	
		<path fill="#11AA11" stroke="#000000" stroke-width="1.7" stroke-linecap="round" stroke-linejoin="round" stroke-miterlimit="1.5" d="
		M101.806,121.594c4.235,0.543,7.131-1.71,7.131-1.71"/>
</g>
</svg>
