<?xml version="1.0" encoding="utf-8"?>
<!-- Generator: Adobe Illustrator 16.0.0, SVG Export Plug-In . SVG Version: 6.00 Build 0)  -->
<!DOCTYPE svg PUBLIC "-//W3C//DTD SVG 1.1//EN" "http://www.w3.org/Graphics/SVG/1.1/DTD/svg11.dtd">
<svg version="1.1" id="Layer_1" xmlns="http://www.w3.org/2000/svg" xmlns:xlink="http://www.w3.org/1999/xlink" x="0px" y="0px"
	 width="160px" height="160px" viewBox="0 0 160 160" enable-background="new 0 0 160 160" xml:space="preserve">
<g id="l8">
	
		<path fill="#FFEE11" stroke="#000000" stroke-width="1.7" stroke-linecap="round" stroke-linejoin="round" stroke-miterlimit="1.5" d="
		M80.569,123.381c0,0-0.469,6.709,1.326,7.422c1.793,0.713,8.715-1.505,9.436-3.143c0.721-1.639-5.115-6.689-5.115-6.689"/>
	
		<path fill="#FFEE11" stroke="#000000" stroke-width="1.7" stroke-linecap="round" stroke-linejoin="round" stroke-miterlimit="1.5" d="
		M89.116,118.335c0.029,0.241,0.046,0.487,0.046,0.735c0,3.244-2.634,5.879-5.878,5.879c-3.092,0-5.63-2.395-5.86-5.428
		c0.623,0.029,1.25,0.043,1.88,0.043C82.69,119.564,85.978,119.138,89.116,118.335z"/>
	
		<path fill="none" stroke="#000000" stroke-width="1.7" stroke-linecap="round" stroke-linejoin="round" stroke-miterlimit="1.5" d="
		M86.481,130.453c-0.412,1.762,3.643,3.634,4.666,4.324c11.217,7.576-4.373,26.888-22.581,2.811
		c-17.41-23.021-27.922-7.96-27.922-7.96"/>
</g>
</svg>
