<?xml version="1.0" encoding="UTF-8" standalone="no"?><!DOCTYPE svg PUBLIC "-//W3C//DTD SVG 1.1//EN" "http://www.w3.org/Graphics/SVG/1.1/DTD/svg11.dtd"><svg width="100%" height="100%" viewBox="0 0 160 160" version="1.1" xmlns="http://www.w3.org/2000/svg" xmlns:xlink="http://www.w3.org/1999/xlink" xml:space="preserve" style="fill-rule:evenodd;clip-rule:evenodd;stroke-linecap:round;stroke-linejoin:round;"><g id="legs"><g id="mermaid"><path id="STROKE_FC058C5E.-2C18.-4F89.-9690.-A869D672ED2C" d="M98.012,107.862c-0.093,0.108 -0.177,0.173 -0.251,0.192c-0.074,0.02 -0.139,0.036 -0.194,0.051c-0.056,0.014 -0.113,0.024 -0.174,0.031c-0.06,0.006 -0.124,0.016 -0.191,0.029c-0.068,0.013 -0.139,0.026 -0.213,0.041c-0.074,0.014 -0.145,0.038 -0.212,0.071c-0.068,0.034 -0.145,0.071 -0.234,0.111c-0.087,0.04 -0.175,0.08 -0.263,0.121c-0.089,0.04 -0.172,0.087 -0.252,0.141c-0.079,0.055 -0.163,0.108 -0.251,0.162c-0.088,0.053 -0.173,0.113 -0.254,0.18c-0.081,0.067 -0.162,0.132 -0.243,0.193c-0.081,0.06 -0.166,0.121 -0.254,0.182c-0.088,0.061 -0.173,0.128 -0.254,0.202c-0.081,0.074 -0.162,0.141 -0.243,0.202c-0.081,0.061 -0.162,0.128 -0.244,0.202c-0.081,0.074 -0.158,0.144 -0.233,0.212c-0.074,0.067 -0.148,0.138 -0.222,0.213c-0.075,0.075 -0.148,0.143 -0.221,0.202c-0.072,0.06 -0.143,0.12 -0.212,0.181c-0.069,0.061 -0.134,0.115 -0.194,0.163c-0.06,0.048 -0.124,0.098 -0.192,0.152c-0.067,0.053 -0.134,0.103 -0.202,0.151c-0.067,0.048 -0.131,0.098 -0.191,0.152c-0.061,0.053 -0.124,0.113 -0.192,0.18c-0.067,0.068 -0.131,0.135 -0.192,0.202c-0.06,0.068 -0.118,0.135 -0.173,0.202c-0.055,0.068 -0.113,0.135 -0.173,0.202c-0.061,0.067 -0.118,0.138 -0.171,0.212c-0.054,0.074 -0.104,0.141 -0.151,0.202c-0.046,0.061 -0.097,0.125 -0.153,0.192c-0.055,0.067 -0.109,0.131 -0.162,0.192c-0.054,0.061 -0.108,0.125 -0.161,0.193c-0.054,0.067 -0.107,0.134 -0.161,0.202c-0.053,0.067 -0.108,0.128 -0.163,0.182c-0.055,0.055 -0.11,0.112 -0.163,0.173c-0.054,0.061 -0.107,0.121 -0.161,0.181c-0.053,0.059 -0.107,0.12 -0.16,0.181c-0.054,0.06 -0.105,0.118 -0.153,0.172c-0.048,0.055 -0.099,0.108 -0.153,0.162c-0.053,0.052 -0.103,0.103 -0.15,0.151c-0.047,0.048 -0.094,0.099 -0.142,0.153c-0.049,0.055 -0.096,0.112 -0.143,0.171c-0.046,0.06 -0.09,0.123 -0.132,0.191c-0.041,0.067 -0.078,0.138 -0.111,0.213c-0.033,0.075 -0.073,0.156 -0.119,0.243c-0.047,0.087 -0.094,0.174 -0.143,0.262c-0.048,0.088 -0.099,0.18 -0.153,0.274c-0.053,0.095 -0.106,0.188 -0.16,0.282c-0.054,0.093 -0.098,0.167 -0.132,0.221c-0.035,0.055 -0.065,0.109 -0.091,0.163c-0.026,0.055 -0.066,0.133 -0.121,0.234c-0.056,0.101 -0.11,0.194 -0.164,0.281c-0.053,0.087 -0.1,0.164 -0.139,0.231c-0.04,0.068 -0.084,0.139 -0.133,0.214c-0.048,0.075 -0.092,0.146 -0.132,0.214c-0.039,0.067 -0.08,0.134 -0.121,0.201c-0.042,0.068 -0.079,0.131 -0.112,0.191c-0.033,0.059 -0.066,0.123 -0.101,0.19c-0.034,0.067 -0.068,0.139 -0.101,0.214c-0.033,0.075 -0.059,0.146 -0.08,0.214c-0.021,0.067 -0.045,0.134 -0.072,0.201c-0.028,0.068 -0.048,0.142 -0.06,0.222c-0.012,0.08 -0.025,0.157 -0.039,0.231c-0.014,0.074 -0.028,0.148 -0.041,0.223c-0.014,0.075 -0.028,0.153 -0.042,0.233c-0.014,0.081 -0.028,0.154 -0.041,0.222c-0.014,0.067 -0.028,0.141 -0.042,0.221c-0.014,0.081 -0.026,0.158 -0.038,0.233c-0.013,0.075 -0.026,0.146 -0.039,0.214c-0.014,0.067 -0.028,0.131 -0.042,0.192c-0.014,0.061 -0.027,0.125 -0.041,0.193c-0.014,0.067 -0.028,0.134 -0.042,0.201c-0.013,0.068 -0.024,0.135 -0.031,0.202c-0.007,0.068 -0.013,0.131 -0.018,0.191c-0.005,0.059 -0.008,0.12 -0.008,0.18l0,1.072c0,0.061 0.017,0.115 0.049,0.162c0.033,0.046 0.071,0.094 0.112,0.141c0.041,0.048 0.085,0.096 0.132,0.142c0.047,0.047 0.097,0.087 0.15,0.121c0.054,0.033 0.107,0.064 0.161,0.091l0.08,0.041" style="fill:none;stroke:#000;stroke-width:1.7px;"/><path id="STROKE_4B0E3616.-96C3.-4D7B.-ABC8.-4D971DC4D43D" d="M87.607,123.765c0.124,-0.013 0.216,-0.03 0.277,-0.051c0.06,-0.02 0.121,-0.037 0.181,-0.05c0.06,-0.013 0.117,-0.033 0.171,-0.06c0.054,-0.028 0.105,-0.058 0.153,-0.092c0.048,-0.033 0.106,-0.081 0.173,-0.141c0.068,-0.061 0.128,-0.112 0.182,-0.152c0.053,-0.04 0.107,-0.08 0.16,-0.12c0.054,-0.041 0.107,-0.081 0.161,-0.123c0.053,-0.041 0.111,-0.082 0.173,-0.122c0.062,-0.04 0.12,-0.08 0.174,-0.12c0.053,-0.041 0.107,-0.081 0.16,-0.121c0.054,-0.04 0.107,-0.08 0.161,-0.12c0.053,-0.04 0.108,-0.081 0.163,-0.123c0.055,-0.041 0.113,-0.085 0.173,-0.132c0.061,-0.046 0.121,-0.09 0.182,-0.13c0.06,-0.04 0.124,-0.084 0.191,-0.132c0.068,-0.048 0.132,-0.095 0.192,-0.142c0.06,-0.046 0.121,-0.09 0.181,-0.13c0.061,-0.04 0.122,-0.077 0.184,-0.11c0.062,-0.034 0.127,-0.071 0.195,-0.111c0.067,-0.04 0.134,-0.081 0.201,-0.123c0.068,-0.041 0.139,-0.082 0.213,-0.122c0.074,-0.04 0.152,-0.08 0.233,-0.12c0.081,-0.041 0.161,-0.085 0.241,-0.132c0.079,-0.048 0.163,-0.096 0.251,-0.142c0.088,-0.047 0.176,-0.097 0.264,-0.152c0.088,-0.054 0.176,-0.105 0.264,-0.151c0.088,-0.047 0.176,-0.09 0.264,-0.13c0.088,-0.041 0.179,-0.081 0.272,-0.121c0.093,-0.04 0.184,-0.077 0.272,-0.111c0.088,-0.033 0.173,-0.064 0.254,-0.091c0.081,-0.027 0.169,-0.054 0.264,-0.081c0.095,-0.028 0.189,-0.058 0.282,-0.092c0.093,-0.033 0.188,-0.067 0.283,-0.101c0.095,-0.033 0.196,-0.067 0.305,-0.101c0.109,-0.033 0.19,-0.06 0.244,-0.081c0.053,-0.021 0.107,-0.041 0.16,-0.061c0.054,-0.019 0.107,-0.039 0.161,-0.06c0.053,-0.02 0.111,-0.04 0.173,-0.06c0.063,-0.019 0.124,-0.043 0.184,-0.07c0.06,-0.027 0.121,-0.048 0.181,-0.062c0.061,-0.014 0.118,-0.034 0.171,-0.06c0.054,-0.026 0.111,-0.046 0.171,-0.06c0.061,-0.014 0.122,-0.031 0.184,-0.051c0.062,-0.019 0.15,-0.042 0.264,-0.07c0.114,-0.027 0.225,-0.051 0.332,-0.072c0.107,-0.02 0.215,-0.037 0.323,-0.05c0.109,-0.013 0.214,-0.023 0.316,-0.029c0.102,-0.007 0.183,-0.01 0.244,-0.01c0.06,0 0.14,-0.004 0.24,-0.012c0.101,-0.007 0.198,-0.011 0.293,-0.011l0.629,0c0.107,0 0.215,-0.003 0.324,-0.01c0.109,-0.006 0.194,-0.01 0.254,-0.01c0.06,0 0.121,-0.003 0.181,-0.01c0.061,-0.006 0.121,-0.009 0.181,-0.009c0.061,0 0.121,0 0.182,0c0.06,0 0.121,-0.003 0.181,-0.01c0.061,-0.006 0.122,-0.01 0.184,-0.01l1.618,0c0.061,0 0.121,0.004 0.182,0.01c0.06,0.007 0.121,0.01 0.184,0.01c0.062,0 0.123,0.003 0.183,0.009c0.061,0.007 0.121,0.01 0.182,0.01c0.06,0 0.121,0.004 0.181,0.01c0.061,0.007 0.145,0.014 0.254,0.021c0.109,0.008 0.206,0.015 0.293,0.022c0.086,0.006 0.177,0.013 0.272,0.019c0.094,0.007 0.182,0.016 0.264,0.029c0.081,0.013 0.158,0.027 0.232,0.041c0.075,0.014 0.153,0.025 0.234,0.031c0.081,0.007 0.159,0.02 0.233,0.041c0.074,0.021 0.148,0.041 0.223,0.06c0.074,0.02 0.148,0.04 0.222,0.06c0.074,0.021 0.149,0.045 0.223,0.072c0.074,0.027 0.145,0.051 0.212,0.07c0.068,0.02 0.128,0.043 0.181,0.07c0.054,0.027 0.108,0.051 0.161,0.072c0.054,0.021 0.115,0.048 0.184,0.082c0.069,0.033 0.137,0.07 0.204,0.11c0.068,0.04 0.128,0.08 0.182,0.121c0.053,0.04 0.11,0.077 0.171,0.11c0.06,0.034 0.114,0.071 0.16,0.111c0.047,0.04 0.094,0.077 0.143,0.111c0.048,0.033 0.099,0.07 0.153,0.11c0.053,0.041 0.11,0.088 0.17,0.142c0.061,0.055 0.118,0.109 0.171,0.163c0.054,0.055 0.105,0.108 0.153,0.162c0.048,0.053 0.096,0.11 0.143,0.17c0.046,0.061 0.087,0.119 0.121,0.173c0.035,0.055 0.072,0.105 0.111,0.152c0.04,0.046 0.081,0.094 0.122,0.142c0.042,0.047 0.079,0.101 0.112,0.161c0.032,0.059 0.066,0.116 0.101,0.171c0.034,0.054 0.068,0.105 0.101,0.151c0.032,0.047 0.07,0.097 0.111,0.152c0.041,0.054 0.079,0.115 0.112,0.182c0.032,0.068 0.059,0.135 0.08,0.202c0.02,0.068 0.041,0.135 0.062,0.202c0.02,0.068 0.04,0.129 0.059,0.183c0.019,0.054 0.053,0.098 0.101,0.132c0.049,0.034 0.086,0.077 0.112,0.13c0.026,0.053 0.049,0.12 0.07,0.202c0.02,0.082 0.031,0.153 0.031,0.214c0,0.06 0,0.121 0,0.18c0,0.06 -0.004,0.123 -0.011,0.191c-0.007,0.067 -0.024,0.128 -0.051,0.182c-0.028,0.055 -0.065,0.109 -0.112,0.163c-0.046,0.055 -0.086,0.105 -0.119,0.152c-0.033,0.047 -0.07,0.097 -0.111,0.151c-0.042,0.055 -0.086,0.105 -0.132,0.152c-0.047,0.047 -0.097,0.097 -0.151,0.151c-0.053,0.055 -0.097,0.105 -0.131,0.152c-0.035,0.047 -0.076,0.09 -0.122,0.13c-0.047,0.04 -0.094,0.084 -0.143,0.132c-0.048,0.048 -0.096,0.095 -0.142,0.142c-0.047,0.046 -0.093,0.09 -0.14,0.13c-0.047,0.04 -0.114,0.101 -0.202,0.183c-0.088,0.081 -0.159,0.152 -0.212,0.213c-0.054,0.061 -0.108,0.118 -0.164,0.171c-0.055,0.053 -0.102,0.104 -0.142,0.151c-0.04,0.049 -0.08,0.096 -0.122,0.142c-0.041,0.047 -0.082,0.101 -0.121,0.162c-0.04,0.061 -0.083,0.117 -0.13,0.171c-0.047,0.053 -0.094,0.106 -0.142,0.161c-0.049,0.054 -0.096,0.108 -0.143,0.163c-0.046,0.054 -0.09,0.102 -0.132,0.142c-0.041,0.04 -0.085,0.08 -0.132,0.12c-0.047,0.04 -0.104,0.091 -0.171,0.152c-0.067,0.06 -0.124,0.118 -0.171,0.173c-0.046,0.054 -0.094,0.108 -0.142,0.161c-0.049,0.053 -0.099,0.11 -0.153,0.171c-0.053,0.06 -0.107,0.121 -0.161,0.182c-0.053,0.061 -0.104,0.118 -0.152,0.171c-0.048,0.053 -0.099,0.104 -0.153,0.152c-0.054,0.048 -0.107,0.102 -0.161,0.163c-0.053,0.061 -0.107,0.118 -0.16,0.171c-0.054,0.053 -0.105,0.107 -0.153,0.161c-0.048,0.054 -0.099,0.112 -0.153,0.173c-0.053,0.06 -0.1,0.121 -0.139,0.18c-0.04,0.06 -0.084,0.12 -0.133,0.181c-0.048,0.061 -0.092,0.115 -0.132,0.163c-0.04,0.048 -0.08,0.095 -0.122,0.142c-0.041,0.046 -0.088,0.1 -0.142,0.161c-0.053,0.061 -0.107,0.119 -0.161,0.173c-0.053,0.054 -0.106,0.108 -0.16,0.161c-0.054,0.053 -0.105,0.104 -0.153,0.152c-0.048,0.048 -0.096,0.095 -0.142,0.142c-0.047,0.046 -0.097,0.093 -0.15,0.139c-0.054,0.047 -0.105,0.097 -0.153,0.152c-0.049,0.054 -0.096,0.105 -0.143,0.151c-0.046,0.047 -0.09,0.091 -0.132,0.132c-0.041,0.042 -0.092,0.083 -0.153,0.123c-0.06,0.04 -0.114,0.08 -0.16,0.12c-0.047,0.04 -0.093,0.084 -0.14,0.132c-0.047,0.048 -0.087,0.095 -0.122,0.142c-0.034,0.047 -0.078,0.097 -0.132,0.151c-0.053,0.055 -0.108,0.095 -0.163,0.121c-0.055,0.026 -0.113,0.049 -0.173,0.07c-0.061,0.021 -0.125,0.034 -0.192,0.041c-0.067,0.006 -0.135,0.013 -0.202,0.019c-0.067,0.006 -0.135,0.01 -0.202,0.01c-0.067,0 -0.135,-0.007 -0.202,-0.02c-0.067,-0.013 -0.131,-0.036 -0.191,-0.07c-0.061,-0.033 -0.121,-0.067 -0.182,-0.1c-0.06,-0.034 -0.121,-0.068 -0.181,-0.102c-0.061,-0.033 -0.118,-0.07 -0.174,-0.11c-0.055,-0.04 -0.109,-0.077 -0.163,-0.111c-0.053,-0.034 -0.107,-0.061 -0.16,-0.082c-0.054,-0.02 -0.108,-0.041 -0.164,-0.062c-0.055,-0.02 -0.116,-0.031 -0.183,-0.031c-0.068,0 -0.132,-0.003 -0.192,-0.01c-0.061,-0.006 -0.121,-0.009 -0.181,-0.009l-0.363,0c-0.06,0 -0.124,0.003 -0.191,0.009l-0.101,0.01" style="fill:none;stroke:#000;stroke-width:1.7px;"/><path id="STROKE_14E5026F.-BB24.-455D.-9AE7.-3C190F23D20A" d="M97.851,131.786c0.094,0.068 0.158,0.128 0.192,0.183c0.035,0.054 0.061,0.125 0.08,0.212c0.019,0.086 0.043,0.174 0.07,0.262c0.028,0.088 0.055,0.182 0.083,0.283c0.028,0.101 0.051,0.179 0.07,0.233c0.019,0.055 0.049,0.133 0.091,0.234c0.041,0.101 0.085,0.202 0.132,0.303c0.046,0.101 0.093,0.198 0.139,0.293c0.047,0.094 0.098,0.175 0.153,0.242c0.056,0.068 0.106,0.128 0.153,0.181c0.047,0.053 0.1,0.104 0.161,0.152c0.06,0.048 0.117,0.081 0.171,0.101c0.053,0.019 0.111,0.032 0.173,0.039l0.094,0.009" style="fill:none;stroke:#000;stroke-width:1.7px;"/><path id="STROKE_A647DCE7.-80FA.-476B.-BE04.-AEE077C6809E" d="M99.426,134.777c0.041,0.135 0.046,0.239 0.013,0.313c-0.033,0.074 -0.067,0.144 -0.101,0.212c-0.035,0.067 -0.068,0.138 -0.101,0.212c-0.033,0.073 -0.07,0.151 -0.111,0.232c-0.042,0.082 -0.082,0.163 -0.122,0.243c-0.04,0.081 -0.087,0.168 -0.143,0.263c-0.055,0.094 -0.099,0.169 -0.132,0.223c-0.033,0.054 -0.063,0.108 -0.09,0.161c-0.028,0.053 -0.062,0.107 -0.101,0.161c-0.04,0.055 -0.074,0.109 -0.101,0.163c-0.028,0.055 -0.055,0.109 -0.081,0.162c-0.026,0.053 -0.052,0.106 -0.08,0.161c-0.028,0.054 -0.055,0.108 -0.083,0.161c-0.027,0.053 -0.065,0.131 -0.111,0.233c-0.047,0.102 -0.093,0.194 -0.14,0.274c-0.047,0.08 -0.091,0.154 -0.132,0.221c-0.042,0.068 -0.085,0.135 -0.132,0.202c-0.047,0.068 -0.094,0.132 -0.142,0.193c-0.049,0.061 -0.1,0.125 -0.153,0.192c-0.054,0.067 -0.111,0.138 -0.171,0.212c-0.061,0.074 -0.121,0.144 -0.182,0.211c-0.06,0.068 -0.12,0.138 -0.181,0.212c-0.06,0.074 -0.122,0.148 -0.184,0.221c-0.062,0.074 -0.123,0.145 -0.184,0.214c-0.06,0.069 -0.117,0.137 -0.17,0.204c-0.054,0.067 -0.104,0.135 -0.151,0.202c-0.046,0.067 -0.094,0.138 -0.142,0.212c-0.048,0.073 -0.092,0.141 -0.132,0.202c-0.04,0.061 -0.083,0.128 -0.13,0.202c-0.046,0.073 -0.094,0.141 -0.142,0.202c-0.048,0.061 -0.099,0.121 -0.153,0.18c-0.053,0.06 -0.107,0.123 -0.16,0.191c-0.054,0.067 -0.108,0.131 -0.164,0.192c-0.055,0.061 -0.106,0.125 -0.153,0.192c-0.046,0.068 -0.089,0.132 -0.129,0.192c-0.039,0.061 -0.08,0.122 -0.122,0.183c-0.041,0.061 -0.078,0.119 -0.111,0.173c-0.033,0.054 -0.073,0.115 -0.122,0.182c-0.048,0.068 -0.095,0.131 -0.142,0.191c-0.047,0.059 -0.087,0.116 -0.122,0.171c-0.034,0.054 -0.072,0.109 -0.111,0.163c-0.04,0.054 -0.077,0.111 -0.112,0.171c-0.034,0.059 -0.068,0.12 -0.1,0.18c-0.033,0.061 -0.067,0.119 -0.101,0.173c-0.035,0.055 -0.069,0.112 -0.102,0.173c-0.032,0.061 -0.066,0.115 -0.101,0.161c-0.034,0.047 -0.068,0.094 -0.1,0.14c-0.033,0.047 -0.077,0.094 -0.133,0.142c-0.055,0.048 -0.106,0.095 -0.152,0.142c-0.047,0.046 -0.097,0.097 -0.15,0.151c-0.054,0.055 -0.105,0.105 -0.153,0.152c-0.049,0.046 -0.096,0.1 -0.143,0.161c-0.046,0.061 -0.093,0.128 -0.14,0.202c-0.046,0.074 -0.09,0.138 -0.132,0.192c-0.041,0.055 -0.078,0.105 -0.111,0.152c-0.033,0.047 -0.07,0.097 -0.111,0.151c-0.042,0.055 -0.082,0.109 -0.122,0.164c-0.04,0.054 -0.083,0.104 -0.13,0.151c-0.046,0.046 -0.094,0.097 -0.142,0.151c-0.048,0.055 -0.092,0.105 -0.132,0.152c-0.04,0.046 -0.08,0.09 -0.122,0.13c-0.041,0.04 -0.082,0.084 -0.122,0.132c-0.039,0.048 -0.08,0.092 -0.121,0.132c-0.042,0.04 -0.082,0.084 -0.122,0.13c-0.04,0.047 -0.073,0.097 -0.101,0.152c-0.027,0.054 -0.054,0.109 -0.08,0.163c-0.026,0.054 -0.053,0.111 -0.08,0.171c-0.028,0.06 -0.062,0.116 -0.101,0.171c-0.04,0.054 -0.081,0.101 -0.122,0.142c-0.042,0.04 -0.082,0.084 -0.122,0.132c-0.04,0.048 -0.077,0.095 -0.111,0.142c-0.035,0.046 -0.068,0.097 -0.101,0.151c-0.033,0.054 -0.067,0.111 -0.101,0.171c-0.035,0.059 -0.066,0.12 -0.094,0.18c-0.027,0.061 -0.057,0.119 -0.09,0.173c-0.033,0.055 -0.067,0.109 -0.101,0.163c-0.035,0.055 -0.075,0.105 -0.122,0.152c-0.046,0.047 -0.086,0.093 -0.119,0.14c-0.033,0.046 -0.063,0.097 -0.091,0.151c-0.027,0.055 -0.055,0.112 -0.082,0.173c-0.028,0.061 -0.055,0.125 -0.081,0.193c-0.026,0.067 -0.059,0.127 -0.101,0.18c-0.041,0.053 -0.082,0.104 -0.121,0.152c-0.04,0.047 -0.09,0.091 -0.151,0.132c-0.06,0.04 -0.111,0.08 -0.152,0.12c-0.042,0.04 -0.079,0.087 -0.112,0.142c-0.033,0.054 -0.07,0.102 -0.111,0.142c-0.042,0.04 -0.089,0.07 -0.142,0.091c-0.054,0.021 -0.104,0.048 -0.151,0.082c-0.046,0.033 -0.094,0.067 -0.142,0.1c-0.048,0.034 -0.096,0.068 -0.143,0.102c-0.046,0.033 -0.096,0.06 -0.15,0.079c-0.053,0.02 -0.111,0.036 -0.173,0.051c-0.062,0.014 -0.12,0.031 -0.174,0.05c-0.053,0.02 -0.11,0.036 -0.171,0.051c-0.06,0.014 -0.121,0.021 -0.181,0.021l-0.365,0c-0.062,0 -0.12,0.01 -0.174,0.029c-0.053,0.02 -0.114,0.033 -0.181,0.041c-0.067,0.008 -0.131,0.012 -0.191,0.012c-0.061,0 -0.121,0 -0.182,0c-0.06,0 -0.121,-0.004 -0.181,-0.012c-0.061,-0.008 -0.122,-0.021 -0.184,-0.041c-0.062,-0.019 -0.124,-0.039 -0.184,-0.06c-0.06,-0.021 -0.121,-0.038 -0.181,-0.051c-0.061,-0.013 -0.125,-0.029 -0.192,-0.05c-0.067,-0.021 -0.131,-0.045 -0.192,-0.072c-0.06,-0.027 -0.117,-0.051 -0.17,-0.07c-0.054,-0.019 -0.108,-0.039 -0.164,-0.06c-0.055,-0.021 -0.116,-0.042 -0.183,-0.062c-0.068,-0.021 -0.131,-0.044 -0.192,-0.07c-0.06,-0.026 -0.117,-0.049 -0.171,-0.07c-0.053,-0.021 -0.11,-0.045 -0.171,-0.072c-0.06,-0.027 -0.124,-0.058 -0.191,-0.091c-0.068,-0.034 -0.135,-0.06 -0.202,-0.08c-0.068,-0.019 -0.132,-0.039 -0.195,-0.06c-0.062,-0.021 -0.13,-0.038 -0.204,-0.05c-0.075,-0.014 -0.142,-0.031 -0.202,-0.051c-0.061,-0.021 -0.121,-0.051 -0.182,-0.091c-0.06,-0.041 -0.117,-0.077 -0.17,-0.111c-0.054,-0.034 -0.111,-0.071 -0.171,-0.111c-0.061,-0.04 -0.115,-0.081 -0.163,-0.122c-0.049,-0.042 -0.096,-0.079 -0.143,-0.113c-0.047,-0.033 -0.093,-0.067 -0.14,-0.101c-0.046,-0.034 -0.097,-0.07 -0.153,-0.11c-0.055,-0.041 -0.106,-0.081 -0.152,-0.121c-0.047,-0.04 -0.093,-0.077 -0.14,-0.111c-0.047,-0.033 -0.098,-0.074 -0.153,-0.12c-0.055,-0.047 -0.117,-0.091 -0.184,-0.132c-0.067,-0.042 -0.124,-0.079 -0.171,-0.113c-0.046,-0.033 -0.093,-0.067 -0.14,-0.101c-0.046,-0.033 -0.094,-0.073 -0.142,-0.12c-0.048,-0.047 -0.099,-0.097 -0.153,-0.152c-0.053,-0.054 -0.107,-0.115 -0.16,-0.182c-0.054,-0.068 -0.098,-0.125 -0.133,-0.171c-0.034,-0.047 -0.071,-0.097 -0.111,-0.152c-0.04,-0.054 -0.08,-0.108 -0.121,-0.161c-0.042,-0.053 -0.082,-0.107 -0.122,-0.161c-0.04,-0.054 -0.077,-0.109 -0.112,-0.163c-0.034,-0.055 -0.078,-0.112 -0.132,-0.171c-0.053,-0.06 -0.1,-0.117 -0.14,-0.171c-0.039,-0.054 -0.083,-0.102 -0.131,-0.142c-0.049,-0.04 -0.103,-0.091 -0.164,-0.151c-0.06,-0.061 -0.117,-0.119 -0.171,-0.173c-0.053,-0.055 -0.107,-0.112 -0.16,-0.173c-0.054,-0.061 -0.098,-0.115 -0.132,-0.161c-0.035,-0.047 -0.079,-0.097 -0.132,-0.152c-0.054,-0.054 -0.105,-0.108 -0.153,-0.161c-0.048,-0.053 -0.092,-0.103 -0.132,-0.151c-0.04,-0.048 -0.081,-0.096 -0.122,-0.142c-0.041,-0.047 -0.082,-0.101 -0.122,-0.162c-0.039,-0.06 -0.073,-0.128 -0.101,-0.201c-0.027,-0.074 -0.051,-0.138 -0.07,-0.193c-0.019,-0.054 -0.038,-0.108 -0.059,-0.161c-0.021,-0.053 -0.048,-0.116 -0.083,-0.19c-0.035,-0.074 -0.061,-0.138 -0.08,-0.192c-0.019,-0.055 -0.05,-0.119 -0.091,-0.193c-0.041,-0.074 -0.078,-0.148 -0.111,-0.223c-0.033,-0.075 -0.067,-0.143 -0.101,-0.202c-0.035,-0.06 -0.065,-0.117 -0.091,-0.171c-0.026,-0.054 -0.049,-0.109 -0.07,-0.163c-0.02,-0.055 -0.041,-0.112 -0.062,-0.171c-0.021,-0.06 -0.045,-0.127 -0.073,-0.202c-0.027,-0.075 -0.054,-0.156 -0.08,-0.243c-0.026,-0.087 -0.049,-0.161 -0.07,-0.221c-0.02,-0.061 -0.041,-0.125 -0.062,-0.192c-0.02,-0.068 -0.04,-0.135 -0.059,-0.203c-0.019,-0.067 -0.039,-0.134 -0.06,-0.202c-0.021,-0.067 -0.041,-0.134 -0.062,-0.201c-0.021,-0.068 -0.041,-0.135 -0.06,-0.203c-0.019,-0.067 -0.039,-0.141 -0.059,-0.223c-0.021,-0.082 -0.042,-0.159 -0.062,-0.233c-0.021,-0.074 -0.042,-0.151 -0.063,-0.231c-0.02,-0.08 -0.044,-0.164 -0.069,-0.253c-0.026,-0.088 -0.05,-0.172 -0.07,-0.252c-0.021,-0.08 -0.045,-0.158 -0.073,-0.231c-0.027,-0.074 -0.051,-0.148 -0.07,-0.224c-0.019,-0.075 -0.039,-0.149 -0.06,-0.223c-0.02,-0.074 -0.041,-0.151 -0.062,-0.231c-0.02,-0.08 -0.038,-0.151 -0.051,-0.212c-0.014,-0.061 -0.025,-0.122 -0.031,-0.183c-0.007,-0.06 -0.013,-0.135 -0.018,-0.223c-0.006,-0.088 -0.012,-0.172 -0.019,-0.252c-0.007,-0.081 -0.017,-0.161 -0.031,-0.241c-0.014,-0.08 -0.027,-0.161 -0.041,-0.243c-0.014,-0.081 -0.028,-0.159 -0.042,-0.233c-0.013,-0.074 -0.024,-0.141 -0.031,-0.202c-0.007,-0.061 -0.013,-0.135 -0.02,-0.223c-0.007,-0.088 -0.011,-0.176 -0.011,-0.262l0,-2.04c0,-0.074 0.011,-0.151 0.031,-0.233c0.021,-0.081 0.038,-0.156 0.052,-0.223c0.014,-0.068 0.031,-0.135 0.052,-0.202c0.021,-0.068 0.037,-0.132 0.049,-0.192c0.012,-0.061 0.025,-0.129 0.039,-0.203c0.014,-0.073 0.028,-0.15 0.041,-0.231c0.014,-0.08 0.031,-0.164 0.052,-0.252c0.021,-0.088 0.038,-0.163 0.052,-0.224c0.014,-0.06 0.03,-0.121 0.049,-0.182c0.019,-0.061 0.039,-0.131 0.06,-0.212c0.021,-0.08 0.048,-0.157 0.083,-0.231c0.034,-0.074 0.068,-0.144 0.1,-0.212c0.033,-0.067 0.06,-0.128 0.081,-0.182c0.021,-0.055 0.051,-0.119 0.091,-0.192c0.039,-0.074 0.073,-0.138 0.101,-0.193c0.027,-0.054 0.057,-0.108 0.09,-0.161c0.033,-0.053 0.063,-0.107 0.091,-0.161c0.027,-0.054 0.055,-0.112 0.083,-0.173c0.027,-0.061 0.054,-0.122 0.08,-0.182c0.026,-0.061 0.059,-0.129 0.101,-0.203c0.041,-0.073 0.086,-0.144 0.132,-0.211c0.047,-0.068 0.091,-0.132 0.132,-0.193c0.042,-0.06 0.086,-0.121 0.132,-0.18c0.047,-0.06 0.097,-0.117 0.15,-0.171c0.054,-0.054 0.105,-0.105 0.153,-0.151c0.049,-0.047 0.099,-0.091 0.153,-0.133c0.053,-0.041 0.1,-0.088 0.14,-0.141l0.059,-0.08" style="fill:none;stroke:#000;stroke-width:1.7px;"/><path id="STROKE_68D46061.-B118.-43A4.-90EF.-81E50BA93EFB" d="M76.477,130.776c-0.121,0 -0.212,0 -0.272,0c-0.061,0 -0.121,-0.003 -0.182,-0.01c-0.06,-0.006 -0.121,-0.012 -0.181,-0.019c-0.061,-0.006 -0.124,-0.02 -0.192,-0.041c-0.067,-0.02 -0.132,-0.041 -0.194,-0.062c-0.062,-0.02 -0.12,-0.044 -0.173,-0.07c-0.054,-0.026 -0.108,-0.059 -0.161,-0.101c-0.053,-0.041 -0.111,-0.071 -0.171,-0.091c-0.06,-0.019 -0.115,-0.046 -0.163,-0.08c-0.048,-0.033 -0.11,-0.067 -0.184,-0.1c-0.074,-0.034 -0.142,-0.065 -0.202,-0.092c-0.06,-0.027 -0.124,-0.058 -0.192,-0.091c-0.067,-0.034 -0.134,-0.074 -0.201,-0.121c-0.068,-0.046 -0.139,-0.1 -0.213,-0.161c-0.074,-0.061 -0.145,-0.111 -0.212,-0.151c-0.068,-0.04 -0.125,-0.077 -0.171,-0.111c-0.047,-0.034 -0.094,-0.068 -0.142,-0.103c-0.049,-0.035 -0.107,-0.069 -0.174,-0.103c-0.067,-0.034 -0.138,-0.067 -0.213,-0.101c-0.074,-0.033 -0.138,-0.06 -0.191,-0.08c-0.054,-0.019 -0.118,-0.049 -0.192,-0.089c-0.074,-0.04 -0.138,-0.074 -0.192,-0.101c-0.053,-0.027 -0.113,-0.065 -0.181,-0.113c-0.067,-0.047 -0.132,-0.098 -0.194,-0.151c-0.062,-0.053 -0.116,-0.096 -0.163,-0.13c-0.047,-0.034 -0.1,-0.078 -0.161,-0.132c-0.06,-0.055 -0.114,-0.099 -0.16,-0.132c-0.047,-0.034 -0.101,-0.077 -0.163,-0.13c-0.062,-0.053 -0.124,-0.104 -0.184,-0.152c-0.06,-0.048 -0.121,-0.095 -0.181,-0.142c-0.061,-0.046 -0.121,-0.094 -0.182,-0.141c-0.06,-0.048 -0.114,-0.089 -0.16,-0.123c-0.047,-0.033 -0.094,-0.067 -0.143,-0.101c-0.048,-0.034 -0.099,-0.07 -0.152,-0.11c-0.054,-0.041 -0.108,-0.081 -0.161,-0.121c-0.054,-0.04 -0.111,-0.08 -0.173,-0.12c-0.063,-0.04 -0.127,-0.081 -0.195,-0.123c-0.067,-0.041 -0.138,-0.088 -0.212,-0.142c-0.074,-0.053 -0.142,-0.106 -0.202,-0.161c-0.061,-0.054 -0.121,-0.104 -0.181,-0.151c-0.061,-0.047 -0.125,-0.097 -0.192,-0.152c-0.067,-0.054 -0.128,-0.104 -0.181,-0.151c-0.054,-0.047 -0.105,-0.087 -0.153,-0.121c-0.048,-0.033 -0.099,-0.07 -0.153,-0.11c-0.053,-0.04 -0.114,-0.084 -0.181,-0.133c-0.068,-0.047 -0.135,-0.098 -0.202,-0.151c-0.067,-0.053 -0.128,-0.103 -0.182,-0.151c-0.053,-0.048 -0.107,-0.096 -0.162,-0.142c-0.056,-0.047 -0.114,-0.1 -0.174,-0.161c-0.06,-0.061 -0.121,-0.119 -0.181,-0.173c-0.061,-0.055 -0.121,-0.108 -0.182,-0.161c-0.06,-0.054 -0.124,-0.114 -0.191,-0.181c-0.068,-0.067 -0.128,-0.125 -0.182,-0.173c-0.053,-0.048 -0.111,-0.095 -0.173,-0.142c-0.062,-0.046 -0.12,-0.094 -0.173,-0.141c-0.054,-0.048 -0.108,-0.096 -0.161,-0.142c-0.054,-0.047 -0.111,-0.09 -0.171,-0.13c-0.061,-0.041 -0.117,-0.085 -0.171,-0.133c-0.053,-0.047 -0.111,-0.098 -0.173,-0.151c-0.063,-0.053 -0.117,-0.1 -0.164,-0.14c-0.046,-0.04 -0.096,-0.081 -0.15,-0.122c-0.053,-0.042 -0.104,-0.082 -0.153,-0.122c-0.048,-0.041 -0.106,-0.091 -0.173,-0.152c-0.067,-0.061 -0.124,-0.115 -0.171,-0.161c-0.047,-0.047 -0.093,-0.09 -0.14,-0.13c-0.046,-0.041 -0.094,-0.081 -0.142,-0.123c-0.049,-0.041 -0.099,-0.088 -0.153,-0.141c-0.053,-0.054 -0.11,-0.107 -0.171,-0.162c-0.06,-0.054 -0.124,-0.112 -0.192,-0.172c-0.067,-0.061 -0.131,-0.118 -0.191,-0.172c-0.061,-0.053 -0.125,-0.106 -0.192,-0.161c-0.067,-0.054 -0.125,-0.105 -0.173,-0.151c-0.049,-0.047 -0.096,-0.09 -0.143,-0.13c-0.046,-0.04 -0.1,-0.084 -0.16,-0.133c-0.061,-0.047 -0.122,-0.091 -0.184,-0.131c-0.062,-0.041 -0.127,-0.088 -0.195,-0.142c-0.067,-0.055 -0.124,-0.099 -0.17,-0.132c-0.047,-0.034 -0.094,-0.074 -0.14,-0.121c-0.047,-0.046 -0.1,-0.094 -0.161,-0.142c-0.06,-0.047 -0.118,-0.095 -0.173,-0.141c-0.056,-0.047 -0.11,-0.097 -0.163,-0.152c-0.054,-0.054 -0.104,-0.105 -0.151,-0.151c-0.046,-0.047 -0.09,-0.09 -0.132,-0.13c-0.041,-0.04 -0.088,-0.085 -0.142,-0.133c-0.054,-0.047 -0.107,-0.095 -0.161,-0.141c-0.053,-0.047 -0.108,-0.09 -0.163,-0.131c-0.055,-0.04 -0.113,-0.083 -0.173,-0.131c-0.061,-0.048 -0.121,-0.096 -0.181,-0.142c-0.061,-0.047 -0.121,-0.101 -0.182,-0.161c-0.06,-0.061 -0.111,-0.112 -0.153,-0.152c-0.041,-0.04 -0.085,-0.08 -0.132,-0.12c-0.046,-0.04 -0.09,-0.085 -0.129,-0.132c-0.04,-0.048 -0.084,-0.092 -0.132,-0.133c-0.049,-0.04 -0.096,-0.083 -0.143,-0.13c-0.046,-0.046 -0.093,-0.094 -0.139,-0.141c-0.047,-0.048 -0.095,-0.096 -0.143,-0.142c-0.048,-0.047 -0.096,-0.097 -0.143,-0.152c-0.046,-0.054 -0.09,-0.105 -0.132,-0.151c-0.041,-0.047 -0.085,-0.094 -0.131,-0.142c-0.047,-0.048 -0.09,-0.098 -0.13,-0.152c-0.04,-0.053 -0.087,-0.106 -0.142,-0.161c-0.056,-0.054 -0.103,-0.104 -0.143,-0.151c-0.04,-0.047 -0.083,-0.097 -0.129,-0.152c-0.047,-0.054 -0.091,-0.112 -0.132,-0.173c-0.042,-0.06 -0.082,-0.117 -0.122,-0.17c-0.04,-0.053 -0.08,-0.107 -0.122,-0.161c-0.041,-0.055 -0.082,-0.113 -0.122,-0.173c-0.039,-0.061 -0.077,-0.115 -0.111,-0.162c-0.035,-0.046 -0.079,-0.103 -0.132,-0.171c-0.054,-0.067 -0.11,-0.128 -0.171,-0.182c-0.06,-0.054 -0.117,-0.105 -0.171,-0.152c-0.053,-0.046 -0.108,-0.094 -0.163,-0.142c-0.055,-0.047 -0.11,-0.098 -0.163,-0.151c-0.054,-0.053 -0.107,-0.104 -0.161,-0.151c-0.053,-0.048 -0.104,-0.099 -0.153,-0.152c-0.048,-0.053 -0.095,-0.107 -0.142,-0.161c-0.047,-0.055 -0.093,-0.108 -0.14,-0.161c-0.047,-0.053 -0.091,-0.101 -0.132,-0.142c-0.041,-0.041 -0.078,-0.086 -0.111,-0.132c-0.033,-0.047 -0.07,-0.09 -0.112,-0.13c-0.041,-0.041 -0.078,-0.085 -0.111,-0.132c-0.033,-0.048 -0.07,-0.099 -0.111,-0.152c-0.042,-0.053 -0.082,-0.107 -0.122,-0.161c-0.04,-0.054 -0.08,-0.115 -0.122,-0.183c-0.041,-0.067 -0.085,-0.131 -0.132,-0.192c-0.046,-0.061 -0.086,-0.115 -0.119,-0.161c-0.033,-0.047 -0.077,-0.097 -0.132,-0.152c-0.055,-0.054 -0.11,-0.112 -0.163,-0.173c-0.054,-0.06 -0.1,-0.121 -0.14,-0.18c-0.04,-0.06 -0.084,-0.12 -0.132,-0.181c-0.049,-0.061 -0.092,-0.128 -0.132,-0.202c-0.04,-0.074 -0.077,-0.135 -0.111,-0.182c-0.035,-0.048 -0.069,-0.099 -0.102,-0.154c-0.032,-0.054 -0.066,-0.108 -0.1,-0.161c-0.035,-0.053 -0.072,-0.107 -0.112,-0.161c-0.04,-0.055 -0.077,-0.105 -0.111,-0.152c-0.035,-0.046 -0.072,-0.097 -0.111,-0.151c-0.04,-0.055 -0.077,-0.105 -0.112,-0.152c-0.034,-0.046 -0.078,-0.103 -0.132,-0.171c-0.054,-0.067 -0.1,-0.134 -0.14,-0.202c-0.04,-0.067 -0.077,-0.128 -0.111,-0.182c-0.035,-0.055 -0.069,-0.108 -0.104,-0.161c-0.034,-0.054 -0.071,-0.11 -0.111,-0.171c-0.04,-0.061 -0.073,-0.122 -0.101,-0.183c-0.028,-0.061 -0.058,-0.118 -0.091,-0.173c-0.033,-0.054 -0.066,-0.105 -0.101,-0.151c-0.034,-0.047 -0.071,-0.101 -0.111,-0.162c-0.04,-0.06 -0.077,-0.114 -0.111,-0.161c-0.035,-0.046 -0.069,-0.097 -0.101,-0.151c-0.033,-0.055 -0.067,-0.105 -0.102,-0.152c-0.034,-0.046 -0.068,-0.093 -0.1,-0.142c-0.033,-0.047 -0.067,-0.098 -0.101,-0.151c-0.035,-0.053 -0.072,-0.113 -0.112,-0.18c-0.039,-0.068 -0.083,-0.129 -0.132,-0.183c-0.048,-0.055 -0.092,-0.109 -0.132,-0.163c-0.04,-0.055 -0.077,-0.108 -0.111,-0.161c-0.035,-0.054 -0.072,-0.107 -0.112,-0.162c-0.039,-0.054 -0.082,-0.108 -0.129,-0.161c-0.047,-0.053 -0.087,-0.103 -0.122,-0.152c-0.034,-0.047 -0.069,-0.098 -0.104,-0.153c-0.034,-0.054 -0.068,-0.108 -0.1,-0.161c-0.033,-0.053 -0.063,-0.113 -0.091,-0.181c-0.028,-0.067 -0.058,-0.131 -0.091,-0.192c-0.032,-0.061 -0.066,-0.118 -0.101,-0.173c-0.034,-0.054 -0.068,-0.111 -0.101,-0.171c-0.033,-0.059 -0.063,-0.119 -0.09,-0.18c-0.028,-0.061 -0.056,-0.122 -0.083,-0.183c-0.028,-0.061 -0.058,-0.118 -0.091,-0.173c-0.033,-0.054 -0.07,-0.111 -0.111,-0.171c-0.041,-0.059 -0.082,-0.113 -0.122,-0.161c-0.04,-0.048 -0.079,-0.095 -0.119,-0.142c-0.04,-0.046 -0.077,-0.097 -0.111,-0.151c-0.035,-0.055 -0.069,-0.105 -0.101,-0.152c-0.033,-0.046 -0.07,-0.097 -0.112,-0.151c-0.041,-0.055 -0.078,-0.112 -0.111,-0.173c-0.033,-0.061 -0.07,-0.122 -0.112,-0.182c-0.041,-0.061 -0.075,-0.122 -0.103,-0.181c-0.028,-0.06 -0.058,-0.117 -0.091,-0.171c-0.032,-0.055 -0.063,-0.109 -0.09,-0.163c-0.028,-0.055 -0.061,-0.112 -0.101,-0.171c-0.04,-0.06 -0.081,-0.12 -0.122,-0.181c-0.042,-0.061 -0.082,-0.121 -0.122,-0.182c-0.039,-0.061 -0.077,-0.122 -0.111,-0.183c-0.035,-0.061 -0.075,-0.122 -0.122,-0.183c-0.047,-0.061 -0.086,-0.114 -0.119,-0.161c-0.033,-0.046 -0.07,-0.097 -0.111,-0.151c-0.042,-0.055 -0.086,-0.116 -0.132,-0.183c-0.047,-0.067 -0.094,-0.138 -0.143,-0.212c-0.048,-0.073 -0.099,-0.158 -0.153,-0.252c-0.053,-0.094 -0.096,-0.168 -0.129,-0.221c-0.033,-0.053 -0.067,-0.11 -0.101,-0.171c-0.035,-0.061 -0.072,-0.125 -0.111,-0.193c-0.04,-0.067 -0.077,-0.134 -0.112,-0.202c-0.034,-0.067 -0.071,-0.134 -0.111,-0.201c-0.04,-0.068 -0.077,-0.135 -0.112,-0.203c-0.034,-0.067 -0.071,-0.138 -0.111,-0.213c-0.04,-0.075 -0.077,-0.146 -0.111,-0.214c-0.035,-0.067 -0.068,-0.138 -0.101,-0.212l-0.05,-0.11" style="fill:none;stroke:#000;stroke-width:1.7px;"/></g></g></svg>