<?xml version="1.0" encoding="UTF-8" standalone="no"?><!DOCTYPE svg PUBLIC "-//W3C//DTD SVG 1.1//EN" "http://www.w3.org/Graphics/SVG/1.1/DTD/svg11.dtd"><svg width="100%" height="100%" viewBox="0 0 160 160" version="1.1" xmlns="http://www.w3.org/2000/svg" xmlns:xlink="http://www.w3.org/1999/xlink" xml:space="preserve" style="fill-rule:evenodd;clip-rule:evenodd;stroke-linecap:round;stroke-linejoin:round;"><g id="legs"><g id="pirate_2"><path id="STROKE_9D1AF808.-19BF.-4BD1.-9D23.-635A1CDB4205" d="M96.364,115.522c-0.093,0.105 -0.159,0.178 -0.199,0.218c-0.04,0.04 -0.078,0.09 -0.114,0.148c-0.036,0.058 -0.068,0.119 -0.096,0.182c-0.028,0.064 -0.06,0.134 -0.096,0.21c-0.036,0.076 -0.068,0.14 -0.096,0.192c-0.029,0.053 -0.061,0.108 -0.096,0.166c-0.036,0.059 -0.068,0.119 -0.097,0.183c-0.028,0.064 -0.06,0.125 -0.096,0.183c-0.035,0.058 -0.07,0.122 -0.105,0.191c-0.034,0.069 -0.069,0.136 -0.105,0.201c-0.035,0.065 -0.064,0.126 -0.087,0.185c-0.022,0.058 -0.048,0.116 -0.078,0.174c-0.03,0.058 -0.059,0.119 -0.087,0.183c-0.028,0.063 -0.058,0.121 -0.087,0.174c-0.03,0.052 -0.06,0.105 -0.09,0.157c-0.029,0.053 -0.065,0.111 -0.105,0.175c-0.04,0.064 -0.077,0.127 -0.112,0.191c-0.034,0.063 -0.072,0.124 -0.114,0.182c-0.041,0.059 -0.082,0.114 -0.122,0.167c-0.041,0.052 -0.084,0.105 -0.13,0.157c-0.046,0.053 -0.084,0.105 -0.114,0.156c-0.03,0.051 -0.059,0.106 -0.087,0.164c-0.029,0.058 -0.061,0.116 -0.096,0.175c-0.036,0.058 -0.074,0.113 -0.114,0.165c-0.04,0.053 -0.076,0.108 -0.105,0.167c-0.03,0.058 -0.062,0.116 -0.096,0.174c-0.035,0.058 -0.073,0.11 -0.114,0.157c-0.042,0.047 -0.092,0.091 -0.15,0.131c-0.058,0.04 -0.107,0.089 -0.148,0.147c-0.04,0.059 -0.077,0.114 -0.112,0.167c-0.034,0.052 -0.072,0.102 -0.113,0.149c-0.042,0.047 -0.086,0.087 -0.132,0.122c-0.046,0.035 -0.096,0.066 -0.148,0.096c-0.052,0.029 -0.107,0.058 -0.165,0.087c-0.058,0.029 -0.113,0.061 -0.166,0.095c-0.052,0.035 -0.105,0.067 -0.158,0.096c-0.054,0.029 -0.11,0.052 -0.168,0.07c-0.058,0.018 -0.116,0.03 -0.174,0.035c-0.058,0.006 -0.119,0.021 -0.183,0.044c-0.065,0.024 -0.123,0.05 -0.175,0.079c-0.052,0.029 -0.107,0.055 -0.165,0.079c-0.058,0.023 -0.117,0.043 -0.175,0.06c-0.058,0.017 -0.119,0.025 -0.183,0.025c-0.064,0 -0.125,0.009 -0.183,0.027c-0.058,0.018 -0.113,0.038 -0.165,0.062c-0.053,0.023 -0.111,0.053 -0.175,0.087c-0.064,0.035 -0.122,0.064 -0.174,0.087c-0.052,0.024 -0.105,0.044 -0.159,0.061c-0.053,0.017 -0.12,0.034 -0.201,0.051c-0.081,0.018 -0.156,0.03 -0.226,0.036c-0.07,0.005 -0.134,0.011 -0.192,0.017c-0.058,0.005 -0.122,0.008 -0.192,0.008c-0.07,0 -0.143,0.003 -0.219,0.01c-0.076,0.007 -0.143,0.013 -0.201,0.018c-0.058,0.006 -0.116,0.014 -0.175,0.025c-0.058,0.012 -0.116,0.026 -0.174,0.044c-0.058,0.018 -0.116,0.035 -0.174,0.052c-0.058,0.017 -0.117,0.034 -0.175,0.052c-0.058,0.018 -0.119,0.027 -0.183,0.027l-0.384,0c-0.064,0 -0.128,0.006 -0.192,0.017c-0.065,0.011 -0.126,0.016 -0.184,0.016l-1.108,0c-0.064,0 -0.131,0.004 -0.202,0.011c-0.069,0.006 -0.136,0.012 -0.201,0.018c-0.064,0.005 -0.128,0.011 -0.192,0.017c-0.064,0.005 -0.125,0.014 -0.183,0.025c-0.058,0.011 -0.119,0.023 -0.183,0.035c-0.064,0.012 -0.126,0.024 -0.184,0.035c-0.058,0.011 -0.116,0.02 -0.174,0.026c-0.058,0.005 -0.119,0.008 -0.183,0.008c-0.064,0 -0.126,-0.003 -0.186,-0.008c-0.059,-0.006 -0.115,-0.023 -0.167,-0.053c-0.053,-0.029 -0.102,-0.066 -0.148,-0.112c-0.046,-0.046 -0.098,-0.089 -0.156,-0.131c-0.058,-0.041 -0.114,-0.073 -0.166,-0.097c-0.052,-0.023 -0.107,-0.043 -0.165,-0.06c-0.058,-0.017 -0.113,-0.04 -0.166,-0.069c-0.052,-0.029 -0.102,-0.064 -0.149,-0.105c-0.048,-0.042 -0.089,-0.086 -0.123,-0.131c-0.034,-0.046 -0.064,-0.098 -0.087,-0.156c-0.024,-0.058 -0.044,-0.123 -0.061,-0.193c-0.016,-0.07 -0.033,-0.146 -0.051,-0.228c-0.018,-0.081 -0.033,-0.157 -0.045,-0.226c-0.012,-0.069 -0.024,-0.142 -0.036,-0.218c-0.011,-0.076 -0.017,-0.158 -0.017,-0.245l0,-0.913l0,-0.139" style="fill:none;stroke:#000;stroke-width:1.67px;"/><path id="STROKE_8DD99BD4.-F73A.-44DB.-B2CF.-D8F3216C7F49" d="M91.125,122.445c-0.024,0.116 -0.044,0.203 -0.062,0.261c-0.018,0.059 -0.035,0.12 -0.052,0.183c-0.016,0.064 -0.033,0.134 -0.051,0.21c-0.018,0.076 -0.033,0.143 -0.045,0.201c-0.012,0.058 -0.024,0.119 -0.036,0.183c-0.012,0.063 -0.024,0.13 -0.036,0.201c-0.011,0.07 -0.022,0.143 -0.033,0.218c-0.01,0.074 -0.022,0.153 -0.034,0.234c-0.011,0.082 -0.023,0.161 -0.035,0.237c-0.012,0.076 -0.027,0.145 -0.045,0.209c-0.018,0.064 -0.033,0.127 -0.045,0.191c-0.012,0.064 -0.023,0.128 -0.033,0.191c-0.011,0.064 -0.025,0.137 -0.043,0.218c-0.017,0.082 -0.029,0.152 -0.036,0.21c-0.005,0.058 -0.014,0.128 -0.026,0.209c-0.012,0.082 -0.027,0.16 -0.045,0.237c-0.018,0.076 -0.032,0.143 -0.042,0.201c-0.011,0.058 -0.022,0.119 -0.034,0.182c-0.012,0.064 -0.024,0.131 -0.036,0.2c-0.012,0.069 -0.024,0.136 -0.035,0.199c-0.012,0.064 -0.024,0.128 -0.036,0.193c-0.012,0.065 -0.023,0.129 -0.034,0.193c-0.01,0.064 -0.024,0.133 -0.042,0.208c-0.018,0.075 -0.036,0.145 -0.054,0.209c-0.018,0.065 -0.036,0.13 -0.054,0.193c-0.017,0.064 -0.031,0.13 -0.042,0.2c-0.01,0.069 -0.021,0.139 -0.033,0.209c-0.012,0.07 -0.027,0.146 -0.045,0.228c-0.018,0.082 -0.033,0.154 -0.045,0.218c-0.012,0.064 -0.024,0.125 -0.036,0.183c-0.012,0.058 -0.026,0.124 -0.042,0.199c-0.017,0.075 -0.034,0.145 -0.051,0.21c-0.018,0.064 -0.036,0.126 -0.054,0.184c-0.018,0.058 -0.033,0.119 -0.045,0.183c-0.012,0.063 -0.02,0.124 -0.025,0.183c-0.004,0.058 -0.012,0.121 -0.024,0.19c-0.012,0.07 -0.024,0.134 -0.036,0.192c-0.012,0.058 -0.026,0.119 -0.044,0.184c-0.018,0.065 -0.033,0.126 -0.045,0.184c-0.012,0.058 -0.029,0.125 -0.052,0.2c-0.022,0.075 -0.042,0.153 -0.06,0.235c-0.018,0.081 -0.036,0.151 -0.053,0.209c-0.018,0.058 -0.033,0.117 -0.045,0.175c-0.012,0.058 -0.023,0.116 -0.034,0.174c-0.01,0.058 -0.024,0.128 -0.042,0.209c-0.018,0.082 -0.036,0.157 -0.054,0.227c-0.018,0.069 -0.035,0.142 -0.051,0.217c-0.017,0.076 -0.034,0.149 -0.052,0.219c-0.017,0.069 -0.035,0.141 -0.053,0.217c-0.018,0.076 -0.033,0.152 -0.045,0.228c-0.012,0.076 -0.024,0.152 -0.036,0.227c-0.012,0.074 -0.026,0.15 -0.042,0.226c-0.017,0.076 -0.034,0.149 -0.051,0.218c-0.018,0.069 -0.033,0.133 -0.045,0.191c-0.012,0.058 -0.024,0.119 -0.036,0.184c-0.012,0.065 -0.021,0.126 -0.027,0.185c-0.006,0.058 -0.014,0.119 -0.025,0.182c-0.01,0.064 -0.024,0.125 -0.042,0.183c-0.018,0.058 -0.036,0.119 -0.054,0.183c-0.017,0.064 -0.038,0.131 -0.06,0.201c-0.022,0.07 -0.042,0.137 -0.06,0.201c-0.018,0.064 -0.036,0.13 -0.054,0.2c-0.018,0.069 -0.036,0.135 -0.054,0.199c-0.018,0.064 -0.032,0.125 -0.042,0.183c-0.011,0.058 -0.022,0.116 -0.033,0.174c-0.013,0.058 -0.027,0.122 -0.045,0.193c-0.018,0.07 -0.036,0.143 -0.054,0.218c-0.018,0.075 -0.035,0.147 -0.051,0.218c-0.017,0.07 -0.031,0.134 -0.043,0.192c-0.012,0.058 -0.021,0.119 -0.027,0.183c-0.006,0.064 -0.017,0.131 -0.035,0.201c-0.018,0.071 -0.036,0.14 -0.054,0.21c-0.018,0.069 -0.035,0.138 -0.051,0.208c-0.017,0.069 -0.031,0.133 -0.043,0.191c-0.012,0.058 -0.024,0.119 -0.036,0.184c-0.012,0.065 -0.029,0.126 -0.053,0.185c-0.024,0.058 -0.044,0.121 -0.061,0.19c-0.016,0.07 -0.03,0.134 -0.042,0.192c-0.012,0.058 -0.027,0.119 -0.045,0.183c-0.018,0.063 -0.036,0.127 -0.053,0.192c-0.018,0.065 -0.036,0.135 -0.052,0.21c-0.016,0.075 -0.033,0.147 -0.051,0.218c-0.018,0.07 -0.039,0.137 -0.063,0.201c-0.024,0.064 -0.053,0.122 -0.087,0.174c-0.034,0.053 -0.071,0.102 -0.112,0.147c-0.04,0.046 -0.078,0.096 -0.114,0.148c-0.036,0.053 -0.068,0.105 -0.096,0.158c-0.028,0.052 -0.06,0.105 -0.096,0.157c-0.036,0.053 -0.08,0.096 -0.132,0.131c-0.052,0.035 -0.104,0.069 -0.156,0.104c-0.052,0.035 -0.105,0.069 -0.157,0.104c-0.052,0.035 -0.107,0.07 -0.165,0.106c-0.058,0.035 -0.114,0.073 -0.168,0.114c-0.053,0.04 -0.106,0.077 -0.158,0.112c-0.053,0.034 -0.105,0.066 -0.157,0.095c-0.052,0.029 -0.107,0.061 -0.165,0.096c-0.058,0.035 -0.116,0.07 -0.175,0.105c-0.058,0.036 -0.116,0.063 -0.174,0.079c-0.058,0.017 -0.113,0.04 -0.165,0.069c-0.052,0.029 -0.105,0.058 -0.156,0.087c-0.053,0.029 -0.109,0.055 -0.168,0.079c-0.06,0.023 -0.119,0.038 -0.177,0.043c-0.058,0.006 -0.116,0.015 -0.174,0.027c-0.058,0.013 -0.113,0.036 -0.166,0.071c-0.052,0.034 -0.104,0.072 -0.156,0.112c-0.052,0.04 -0.107,0.066 -0.165,0.079c-0.059,0.012 -0.117,0.018 -0.175,0.018c-0.058,0 -0.113,-0.018 -0.165,-0.053c-0.052,-0.036 -0.107,-0.06 -0.165,-0.071c-0.059,-0.011 -0.115,-0.028 -0.168,-0.052c-0.054,-0.023 -0.101,-0.058 -0.141,-0.104c-0.04,-0.046 -0.077,-0.092 -0.112,-0.139c-0.034,-0.047 -0.069,-0.097 -0.105,-0.149c-0.036,-0.052 -0.065,-0.108 -0.087,-0.166c-0.022,-0.058 -0.042,-0.119 -0.06,-0.183c-0.018,-0.063 -0.03,-0.127 -0.036,-0.191c-0.006,-0.063 -0.015,-0.133 -0.027,-0.209c-0.012,-0.076 -0.021,-0.143 -0.027,-0.201c-0.006,-0.058 -0.012,-0.125 -0.018,-0.201c-0.005,-0.076 -0.008,-0.149 -0.008,-0.219c0,-0.069 -0.003,-0.138 -0.01,-0.207c-0.005,-0.07 -0.014,-0.14 -0.024,-0.21c-0.01,-0.07 -0.019,-0.14 -0.025,-0.209c-0.005,-0.07 -0.011,-0.142 -0.018,-0.218c-0.005,-0.076 -0.008,-0.149 -0.008,-0.218c0,-0.069 -0.003,-0.136 -0.009,-0.2c-0.006,-0.063 -0.009,-0.131 -0.009,-0.201l0,-1.822c0,-0.076 0.006,-0.152 0.018,-0.228c0.012,-0.076 0.023,-0.151 0.033,-0.226c0.011,-0.075 0.019,-0.145 0.025,-0.21c0.006,-0.064 0.012,-0.126 0.017,-0.184c0.007,-0.058 0.013,-0.122 0.018,-0.191c0.006,-0.07 0.015,-0.136 0.027,-0.2c0.012,-0.063 0.021,-0.124 0.027,-0.182c0.006,-0.059 0.009,-0.117 0.009,-0.175c0,-0.058 0.006,-0.128 0.018,-0.209c0.012,-0.082 0.021,-0.158 0.027,-0.228c0.006,-0.071 0.012,-0.14 0.018,-0.21c0.006,-0.069 0.011,-0.138 0.015,-0.207c0.005,-0.07 0.016,-0.145 0.034,-0.227c0.018,-0.082 0.033,-0.154 0.044,-0.218c0.012,-0.063 0.021,-0.13 0.027,-0.201c0.006,-0.07 0.015,-0.137 0.027,-0.201c0.012,-0.064 0.018,-0.125 0.018,-0.183c0,-0.058 0.003,-0.122 0.009,-0.192c0.006,-0.071 0.012,-0.138 0.018,-0.202c0.006,-0.063 0.011,-0.133 0.015,-0.208c0.005,-0.074 0.016,-0.153 0.034,-0.234c0.018,-0.082 0.033,-0.158 0.045,-0.228c0.012,-0.071 0.021,-0.141 0.027,-0.21c0.005,-0.069 0.014,-0.135 0.026,-0.199c0.012,-0.064 0.021,-0.128 0.027,-0.191c0.006,-0.064 0.011,-0.137 0.016,-0.218c0.004,-0.082 0.009,-0.161 0.015,-0.237c0.006,-0.076 0.012,-0.152 0.018,-0.228c0.006,-0.076 0.015,-0.143 0.027,-0.201c0.012,-0.058 0.021,-0.124 0.027,-0.199c0.006,-0.075 0.015,-0.151 0.027,-0.227c0.012,-0.076 0.024,-0.157 0.035,-0.244c0.012,-0.087 0.027,-0.168 0.043,-0.243c0.016,-0.075 0.03,-0.142 0.042,-0.201c0.012,-0.06 0.024,-0.118 0.036,-0.176c0.012,-0.058 0.024,-0.122 0.036,-0.191c0.012,-0.07 0.018,-0.139 0.018,-0.208c0,-0.07 0.003,-0.137 0.009,-0.201c0.006,-0.065 0.009,-0.13 0.009,-0.193c0,-0.064 0.006,-0.13 0.018,-0.2c0.012,-0.069 0.026,-0.144 0.042,-0.226c0.017,-0.082 0.034,-0.16 0.051,-0.236c0.018,-0.076 0.03,-0.146 0.036,-0.21c0.006,-0.064 0.012,-0.127 0.018,-0.191c0.006,-0.064 0.012,-0.124 0.018,-0.183c0.006,-0.058 0.017,-0.119 0.034,-0.182c0.016,-0.064 0.033,-0.131 0.051,-0.201c0.018,-0.071 0.042,-0.147 0.071,-0.228c0.03,-0.082 0.053,-0.163 0.07,-0.244c0.016,-0.08 0.03,-0.153 0.042,-0.217c0.012,-0.065 0.021,-0.127 0.027,-0.185c0.006,-0.058 0.015,-0.128 0.027,-0.209c0.012,-0.082 0.024,-0.16 0.036,-0.235c0.012,-0.075 0.026,-0.153 0.042,-0.235c0.016,-0.081 0.034,-0.16 0.051,-0.236c0.018,-0.076 0.03,-0.143 0.036,-0.201c0.006,-0.058 0.012,-0.116 0.018,-0.174c0.006,-0.059 0.012,-0.122 0.018,-0.192c0.006,-0.069 0.012,-0.135 0.018,-0.199c0.006,-0.064 0.015,-0.131 0.027,-0.201c0.012,-0.071 0.023,-0.138 0.033,-0.202c0.011,-0.063 0.022,-0.127 0.034,-0.19c0.012,-0.064 0.021,-0.125 0.027,-0.183c0.005,-0.058 0.011,-0.123 0.018,-0.193c0.005,-0.07 0.008,-0.137 0.008,-0.201l0,-0.096" style="fill:none;stroke:#000;stroke-width:1.67px;"/><path id="STROKE_CE6AFFA3.-5372.-4236.-9BA2.-023E5C4CD154" d="M73.379,122.478c0.057,0.106 0.1,0.19 0.13,0.254c0.03,0.063 0.062,0.13 0.096,0.201c0.035,0.07 0.064,0.134 0.087,0.192c0.024,0.059 0.051,0.119 0.081,0.183c0.03,0.064 0.059,0.125 0.087,0.183c0.028,0.058 0.057,0.122 0.087,0.193c0.03,0.07 0.056,0.14 0.078,0.209c0.023,0.07 0.052,0.139 0.087,0.208c0.036,0.069 0.068,0.139 0.097,0.21c0.028,0.07 0.063,0.14 0.105,0.209c0.041,0.069 0.082,0.142 0.122,0.218c0.041,0.076 0.081,0.155 0.121,0.236c0.04,0.082 0.081,0.163 0.123,0.243c0.042,0.081 0.08,0.156 0.114,0.227c0.034,0.07 0.066,0.134 0.096,0.192c0.03,0.058 0.056,0.114 0.078,0.166c0.023,0.053 0.052,0.108 0.088,0.166c0.035,0.059 0.07,0.114 0.105,0.166c0.034,0.053 0.066,0.105 0.096,0.156c0.03,0.052 0.068,0.115 0.114,0.191c0.046,0.076 0.086,0.146 0.121,0.21c0.034,0.064 0.069,0.133 0.104,0.209c0.036,0.076 0.074,0.155 0.114,0.237c0.041,0.081 0.082,0.163 0.123,0.244c0.042,0.082 0.077,0.155 0.105,0.218c0.029,0.064 0.058,0.125 0.088,0.183c0.029,0.058 0.058,0.113 0.087,0.166c0.028,0.053 0.054,0.105 0.078,0.156c0.024,0.051 0.047,0.109 0.069,0.174c0.023,0.065 0.049,0.132 0.078,0.201c0.03,0.07 0.06,0.133 0.088,0.191c0.028,0.058 0.057,0.117 0.087,0.175c0.03,0.058 0.062,0.119 0.096,0.182c0.034,0.064 0.069,0.12 0.105,0.167c0.036,0.046 0.071,0.096 0.105,0.149c0.034,0.052 0.069,0.108 0.105,0.166c0.036,0.058 0.065,0.113 0.087,0.165c0.023,0.053 0.049,0.108 0.079,0.167c0.029,0.058 0.05,0.116 0.062,0.174c0.012,0.058 0.018,0.119 0.018,0.183c0,0.063 -0.009,0.127 -0.027,0.191c-0.018,0.063 -0.044,0.121 -0.078,0.174c-0.034,0.052 -0.072,0.105 -0.114,0.157c-0.042,0.053 -0.086,0.099 -0.132,0.14c-0.046,0.04 -0.092,0.077 -0.139,0.112c-0.046,0.035 -0.095,0.07 -0.147,0.105c-0.052,0.036 -0.105,0.072 -0.159,0.106c-0.053,0.035 -0.109,0.067 -0.167,0.096c-0.058,0.029 -0.119,0.055 -0.183,0.079c-0.065,0.023 -0.129,0.04 -0.193,0.051c-0.064,0.012 -0.131,0.017 -0.201,0.017c-0.07,0 -0.134,0 -0.192,0c-0.058,0 -0.122,0.003 -0.193,0.008c-0.069,0.006 -0.133,0.009 -0.191,0.009l-0.376,0c-0.064,0 -0.131,0.009 -0.199,0.027c-0.069,0.018 -0.138,0.029 -0.208,0.035c-0.07,0.006 -0.14,0.008 -0.21,0.008l-0.585,0c-0.076,0 -0.146,0.006 -0.21,0.017c-0.065,0.011 -0.126,0.023 -0.184,0.035c-0.058,0.013 -0.128,0.024 -0.21,0.036c-0.082,0.011 -0.152,0.019 -0.21,0.025c-0.058,0.005 -0.119,0.008 -0.183,0.008l-1.39,0c-0.059,0 -0.125,-0.003 -0.199,-0.008c-0.075,-0.006 -0.141,-0.02 -0.199,-0.044c-0.058,-0.023 -0.117,-0.041 -0.177,-0.052c-0.059,-0.011 -0.121,-0.017 -0.185,-0.017c-0.064,0 -0.131,0 -0.199,0c-0.069,0 -0.138,-0.005 -0.208,-0.017c-0.07,-0.011 -0.134,-0.022 -0.192,-0.035c-0.058,-0.012 -0.117,-0.03 -0.175,-0.053c-0.058,-0.024 -0.122,-0.044 -0.192,-0.061c-0.07,-0.016 -0.137,-0.031 -0.201,-0.043c-0.064,-0.012 -0.131,-0.024 -0.201,-0.035c-0.07,-0.012 -0.131,-0.029 -0.183,-0.052c-0.053,-0.024 -0.106,-0.044 -0.159,-0.061c-0.054,-0.016 -0.113,-0.037 -0.177,-0.06c-0.064,-0.024 -0.128,-0.041 -0.192,-0.054c-0.064,-0.012 -0.128,-0.021 -0.192,-0.027c-0.064,-0.005 -0.13,-0.014 -0.199,-0.025c-0.069,-0.011 -0.135,-0.022 -0.199,-0.035c-0.064,-0.012 -0.128,-0.024 -0.192,-0.035c-0.064,-0.011 -0.123,-0.026 -0.177,-0.044c-0.053,-0.018 -0.109,-0.032 -0.167,-0.043c-0.058,-0.011 -0.117,-0.02 -0.175,-0.025c-0.058,-0.006 -0.116,-0.015 -0.174,-0.027c-0.058,-0.012 -0.119,-0.024 -0.183,-0.035c-0.064,-0.012 -0.131,-0.023 -0.201,-0.035c-0.07,-0.013 -0.14,-0.025 -0.21,-0.036c-0.071,-0.011 -0.14,-0.022 -0.208,-0.033c-0.069,-0.011 -0.133,-0.02 -0.192,-0.027c-0.06,-0.007 -0.124,-0.021 -0.193,-0.044c-0.068,-0.022 -0.135,-0.045 -0.198,-0.068c-0.065,-0.024 -0.124,-0.047 -0.177,-0.071c-0.054,-0.023 -0.107,-0.047 -0.159,-0.07c-0.052,-0.024 -0.11,-0.053 -0.174,-0.087c-0.064,-0.035 -0.122,-0.067 -0.175,-0.096c-0.052,-0.029 -0.107,-0.061 -0.165,-0.095c-0.058,-0.035 -0.113,-0.064 -0.165,-0.088c-0.052,-0.023 -0.107,-0.049 -0.166,-0.079c-0.058,-0.029 -0.116,-0.06 -0.174,-0.095c-0.058,-0.035 -0.116,-0.069 -0.174,-0.104c-0.059,-0.034 -0.114,-0.066 -0.168,-0.095c-0.054,-0.03 -0.107,-0.065 -0.159,-0.106c-0.052,-0.041 -0.101,-0.082 -0.147,-0.122c-0.046,-0.041 -0.098,-0.078 -0.157,-0.113c-0.058,-0.034 -0.113,-0.07 -0.165,-0.105c-0.052,-0.036 -0.101,-0.074 -0.148,-0.114c-0.046,-0.041 -0.09,-0.084 -0.131,-0.131c-0.042,-0.047 -0.072,-0.099 -0.09,-0.157c-0.018,-0.059 -0.027,-0.119 -0.027,-0.183l0,-0.401c0,-0.076 0.006,-0.146 0.018,-0.21c0.012,-0.063 0.03,-0.121 0.054,-0.174c0.024,-0.052 0.053,-0.108 0.087,-0.166c0.034,-0.058 0.072,-0.116 0.114,-0.174c0.042,-0.058 0.08,-0.113 0.114,-0.166c0.034,-0.053 0.069,-0.108 0.105,-0.166c0.036,-0.058 0.071,-0.11 0.105,-0.156c0.034,-0.046 0.07,-0.095 0.105,-0.147c0.036,-0.053 0.071,-0.105 0.105,-0.158c0.035,-0.053 0.072,-0.105 0.112,-0.157c0.04,-0.053 0.084,-0.106 0.132,-0.158c0.048,-0.053 0.092,-0.102 0.132,-0.147c0.04,-0.046 0.077,-0.093 0.111,-0.14c0.035,-0.047 0.076,-0.096 0.123,-0.149c0.048,-0.052 0.095,-0.108 0.141,-0.166c0.046,-0.058 0.09,-0.113 0.13,-0.166c0.04,-0.052 0.078,-0.104 0.114,-0.156c0.035,-0.051 0.073,-0.103 0.114,-0.156c0.04,-0.052 0.083,-0.102 0.13,-0.149c0.046,-0.047 0.092,-0.102 0.14,-0.166c0.048,-0.063 0.095,-0.13 0.141,-0.199c0.046,-0.07 0.089,-0.139 0.13,-0.21c0.04,-0.07 0.086,-0.146 0.138,-0.228c0.052,-0.081 0.108,-0.168 0.166,-0.261c0.058,-0.093 0.102,-0.166 0.131,-0.218c0.03,-0.053 0.059,-0.105 0.088,-0.158c0.028,-0.052 0.069,-0.128 0.122,-0.226c0.054,-0.098 0.104,-0.191 0.15,-0.278c0.046,-0.087 0.093,-0.16 0.139,-0.218c0.046,-0.058 0.092,-0.107 0.139,-0.147c0.046,-0.041 0.107,-0.07 0.183,-0.088c0.076,-0.018 0.143,-0.027 0.201,-0.027c0.058,0 0.122,0 0.192,0c0.07,0 0.152,0.015 0.246,0.044l0.141,0.044" style="fill:none;stroke:#000;stroke-width:1.67px;"/><path id="STROKE_E4856969.-C51A.-4558.-AB6E.-F3E5C2DAA7AB" d="M74.828,132.439l0,1.656c0,0.069 0.003,0.142 0.009,0.218c0.006,0.076 0.011,0.154 0.017,0.236c0.007,0.082 0.013,0.163 0.018,0.243c0.006,0.081 0.015,0.162 0.027,0.243c0.012,0.082 0.023,0.158 0.034,0.228c0.01,0.071 0.021,0.138 0.033,0.201c0.012,0.064 0.027,0.137 0.045,0.218c0.018,0.082 0.036,0.16 0.054,0.235c0.017,0.075 0.038,0.147 0.06,0.218c0.022,0.07 0.045,0.143 0.069,0.218c0.024,0.075 0.048,0.141 0.072,0.199c0.024,0.058 0.047,0.116 0.069,0.174c0.022,0.059 0.049,0.128 0.078,0.21c0.03,0.082 0.054,0.16 0.072,0.236c0.018,0.076 0.032,0.155 0.042,0.237c0.011,0.081 0.022,0.154 0.034,0.217c0.012,0.064 0.024,0.128 0.035,0.192c0.012,0.063 0.027,0.124 0.045,0.182c0.018,0.059 0.033,0.117 0.045,0.175c0.012,0.058 0.029,0.125 0.051,0.201c0.023,0.076 0.046,0.146 0.07,0.209c0.024,0.064 0.047,0.128 0.069,0.192c0.022,0.063 0.045,0.127 0.069,0.19c0.024,0.064 0.045,0.131 0.063,0.202c0.018,0.07 0.032,0.135 0.044,0.193c0.012,0.058 0.023,0.121 0.034,0.191c0.01,0.069 0.022,0.135 0.034,0.199c0.011,0.064 0.017,0.125 0.017,0.183l0,0.543c0,0.058 -0.017,0.11 -0.051,0.156c-0.034,0.046 -0.075,0.095 -0.121,0.147c-0.046,0.053 -0.099,0.096 -0.158,0.131c-0.06,0.035 -0.116,0.067 -0.168,0.096c-0.052,0.029 -0.107,0.058 -0.165,0.087c-0.059,0.029 -0.117,0.058 -0.175,0.087c-0.058,0.029 -0.116,0.055 -0.174,0.079c-0.058,0.023 -0.116,0.047 -0.174,0.07c-0.058,0.024 -0.116,0.047 -0.175,0.07c-0.058,0.024 -0.119,0.053 -0.183,0.088c-0.064,0.034 -0.125,0.066 -0.183,0.095c-0.058,0.029 -0.122,0.053 -0.192,0.071c-0.071,0.018 -0.135,0.032 -0.193,0.043c-0.058,0.011 -0.119,0.02 -0.183,0.025c-0.064,0.006 -0.125,0.018 -0.183,0.035c-0.058,0.018 -0.116,0.039 -0.175,0.062c-0.058,0.024 -0.119,0.047 -0.183,0.071c-0.064,0.023 -0.131,0.038 -0.201,0.043c-0.07,0.006 -0.137,0.009 -0.201,0.009c-0.064,0 -0.122,-0.012 -0.174,-0.035c-0.052,-0.024 -0.111,-0.042 -0.175,-0.054c-0.064,-0.012 -0.128,-0.027 -0.192,-0.043c-0.064,-0.017 -0.12,-0.046 -0.168,-0.088c-0.047,-0.041 -0.091,-0.087 -0.131,-0.139c-0.041,-0.051 -0.078,-0.1 -0.112,-0.147c-0.035,-0.047 -0.073,-0.1 -0.114,-0.158c-0.042,-0.058 -0.08,-0.116 -0.114,-0.174c-0.034,-0.058 -0.069,-0.111 -0.105,-0.158c-0.036,-0.047 -0.071,-0.099 -0.105,-0.157c-0.035,-0.058 -0.064,-0.117 -0.088,-0.175c-0.023,-0.058 -0.046,-0.122 -0.069,-0.191c-0.022,-0.069 -0.036,-0.135 -0.042,-0.199c-0.006,-0.064 -0.015,-0.128 -0.027,-0.193c-0.012,-0.065 -0.027,-0.132 -0.045,-0.201c-0.018,-0.069 -0.038,-0.133 -0.06,-0.191c-0.022,-0.058 -0.046,-0.114 -0.069,-0.166c-0.024,-0.053 -0.051,-0.105 -0.081,-0.158c-0.03,-0.052 -0.059,-0.104 -0.087,-0.156c-0.028,-0.051 -0.051,-0.106 -0.069,-0.164c-0.018,-0.058 -0.035,-0.116 -0.052,-0.174c-0.016,-0.058 -0.03,-0.12 -0.042,-0.185c-0.012,-0.065 -0.027,-0.126 -0.045,-0.184c-0.018,-0.058 -0.039,-0.114 -0.062,-0.166c-0.024,-0.053 -0.059,-0.096 -0.106,-0.131c-0.046,-0.034 -0.083,-0.025 -0.111,0.027c-0.029,0.053 -0.046,0.114 -0.052,0.184c-0.005,0.071 -0.008,0.135 -0.008,0.193c0,0.058 -0.004,0.119 -0.01,0.183c-0.006,0.064 -0.011,0.13 -0.017,0.2c-0.006,0.069 -0.009,0.139 -0.009,0.209c0,0.07 -0.003,0.135 -0.009,0.193c-0.006,0.058 -0.009,0.116 -0.009,0.174l0,1.001c0,0.063 -0.003,0.13 -0.009,0.201c-0.006,0.07 -0.012,0.14 -0.018,0.209c-0.006,0.07 -0.012,0.145 -0.018,0.227c-0.006,0.081 -0.012,0.151 -0.018,0.209c-0.006,0.058 -0.032,0.105 -0.078,0.14c-0.046,0.034 -0.098,0.057 -0.156,0.07c-0.058,0.012 -0.12,0.024 -0.184,0.035c-0.064,0.011 -0.125,0.022 -0.183,0.033c-0.058,0.012 -0.116,0.024 -0.174,0.036c-0.058,0.012 -0.116,0.027 -0.174,0.043c-0.059,0.017 -0.12,0.037 -0.184,0.061c-0.064,0.023 -0.134,0.041 -0.21,0.053c-0.076,0.013 -0.146,0.024 -0.21,0.035c-0.064,0.012 -0.134,0.02 -0.21,0.026c-0.076,0.005 -0.143,0.011 -0.201,0.018c-0.059,0.007 -0.129,0.013 -0.21,0.018c-0.082,0.006 -0.164,0.015 -0.244,0.026c-0.08,0.011 -0.159,0.025 -0.235,0.043c-0.076,0.018 -0.149,0.033 -0.219,0.044c-0.07,0.011 -0.137,0.019 -0.201,0.025c-0.064,0.006 -0.128,0.012 -0.192,0.018c-0.064,0.007 -0.131,0.011 -0.201,0.011c-0.07,0 -0.14,0 -0.21,0c-0.07,0 -0.137,0.005 -0.201,0.016c-0.065,0.011 -0.129,0.026 -0.193,0.044c-0.064,0.018 -0.128,0.038 -0.192,0.06c-0.064,0.022 -0.125,0.043 -0.183,0.061c-0.058,0.017 -0.119,0.035 -0.183,0.053c-0.064,0.018 -0.126,0.027 -0.184,0.027c-0.058,0 -0.122,0 -0.192,0c-0.07,0 -0.143,0.003 -0.219,0.008c-0.076,0.006 -0.148,0.011 -0.217,0.017c-0.068,0.006 -0.131,0.014 -0.189,0.025c-0.059,0.011 -0.12,0.023 -0.184,0.035c-0.064,0.013 -0.128,0.024 -0.192,0.036c-0.064,0.011 -0.126,0.023 -0.186,0.035c-0.059,0.012 -0.123,0.021 -0.192,0.027c-0.068,0.005 -0.135,0.008 -0.199,0.008c-0.064,0 -0.131,0 -0.201,0c-0.07,0 -0.137,-0.003 -0.201,-0.008c-0.064,-0.006 -0.128,-0.018 -0.192,-0.036c-0.064,-0.017 -0.128,-0.032 -0.192,-0.043c-0.064,-0.011 -0.131,-0.02 -0.202,-0.027c-0.07,-0.007 -0.143,-0.013 -0.219,-0.019c-0.076,-0.005 -0.149,-0.008 -0.219,-0.008c-0.07,0 -0.14,0 -0.21,0c-0.07,0 -0.14,-0.003 -0.21,-0.008c-0.07,-0.006 -0.142,-0.011 -0.217,-0.017c-0.074,-0.006 -0.149,-0.011 -0.225,-0.017c-0.076,-0.005 -0.149,-0.008 -0.219,-0.008l-0.751,0c-0.059,0 -0.117,-0.003 -0.175,-0.01c-0.058,-0.007 -0.119,-0.01 -0.183,-0.01l-0.831,0c-0.058,0 -0.117,-0.006 -0.175,-0.017c-0.058,-0.011 -0.116,-0.031 -0.174,-0.06c-0.058,-0.029 -0.116,-0.056 -0.174,-0.079c-0.059,-0.023 -0.12,-0.047 -0.184,-0.07c-0.064,-0.024 -0.125,-0.044 -0.183,-0.061c-0.058,-0.017 -0.119,-0.034 -0.183,-0.052c-0.064,-0.018 -0.125,-0.041 -0.183,-0.07c-0.058,-0.029 -0.117,-0.058 -0.175,-0.087c-0.058,-0.029 -0.111,-0.058 -0.159,-0.088c-0.047,-0.029 -0.103,-0.052 -0.167,-0.07c-0.064,-0.018 -0.128,-0.032 -0.192,-0.044c-0.064,-0.011 -0.128,-0.019 -0.193,-0.025c-0.064,-0.005 -0.125,-0.014 -0.183,-0.026c-0.058,-0.013 -0.122,-0.03 -0.192,-0.052c-0.07,-0.023 -0.134,-0.043 -0.192,-0.061c-0.058,-0.018 -0.116,-0.044 -0.175,-0.079c-0.058,-0.034 -0.113,-0.066 -0.165,-0.095c-0.052,-0.029 -0.107,-0.064 -0.165,-0.106c-0.058,-0.041 -0.119,-0.076 -0.184,-0.105c-0.064,-0.029 -0.122,-0.055 -0.174,-0.078c-0.052,-0.022 -0.11,-0.054 -0.174,-0.095c-0.064,-0.041 -0.122,-0.077 -0.174,-0.106c-0.053,-0.029 -0.105,-0.055 -0.157,-0.078c-0.052,-0.024 -0.113,-0.044 -0.183,-0.061c-0.07,-0.016 -0.134,-0.034 -0.192,-0.052c-0.058,-0.018 -0.117,-0.035 -0.175,-0.052c-0.058,-0.016 -0.117,-0.028 -0.176,-0.035l-0.09,-0.01" style="fill:none;stroke:#000;stroke-width:1.67px;"/><path id="STROKE_30172B63.-AB3F.-4E25.-B4A6.-D3A0EC0DA278" d="M64.207,130.43c0.048,0.117 0.069,0.213 0.063,0.289c-0.006,0.076 -0.021,0.146 -0.045,0.209c-0.024,0.064 -0.047,0.131 -0.069,0.202c-0.023,0.07 -0.049,0.146 -0.079,0.228c-0.029,0.081 -0.055,0.162 -0.078,0.243c-0.022,0.08 -0.045,0.161 -0.069,0.243c-0.024,0.081 -0.051,0.163 -0.081,0.244c-0.029,0.082 -0.058,0.163 -0.087,0.245c-0.028,0.082 -0.054,0.157 -0.078,0.226c-0.024,0.07 -0.047,0.137 -0.069,0.202c-0.023,0.064 -0.043,0.134 -0.06,0.209c-0.018,0.075 -0.036,0.141 -0.054,0.199c-0.018,0.059 -0.033,0.12 -0.045,0.183c-0.012,0.064 -0.029,0.122 -0.051,0.174c-0.023,0.053 -0.049,0.117 -0.078,0.193c-0.03,0.076 -0.065,0.149 -0.106,0.218c-0.04,0.069 -0.08,0.142 -0.12,0.218c-0.041,0.076 -0.076,0.149 -0.105,0.218c-0.03,0.069 -0.057,0.13 -0.081,0.183c-0.024,0.052 -0.05,0.11 -0.078,0.174c-0.028,0.064 -0.054,0.122 -0.078,0.175c-0.024,0.052 -0.053,0.102 -0.087,0.149c-0.035,0.047 -0.075,0.093 -0.121,0.139c-0.046,0.046 -0.093,0.083 -0.141,0.112c-0.048,0.029 -0.095,0.062 -0.141,0.097c-0.046,0.036 -0.086,0.077 -0.12,0.123c-0.035,0.046 -0.073,0.095 -0.114,0.147c-0.042,0.053 -0.08,0.102 -0.114,0.149c-0.035,0.047 -0.076,0.091 -0.123,0.131c-0.048,0.04 -0.098,0.08 -0.15,0.121c-0.052,0.04 -0.104,0.072 -0.156,0.095c-0.053,0.024 -0.114,0.047 -0.184,0.071c-0.07,0.023 -0.134,0.047 -0.192,0.07c-0.058,0.024 -0.113,0.047 -0.165,0.07c-0.052,0.024 -0.105,0.047 -0.157,0.071c-0.052,0.023 -0.11,0.044 -0.174,0.06c-0.064,0.017 -0.128,0.031 -0.192,0.044c-0.064,0.012 -0.125,0.021 -0.183,0.026c-0.059,0.006 -0.126,0.015 -0.202,0.026c-0.076,0.011 -0.143,0.023 -0.201,0.035c-0.058,0.012 -0.119,0.024 -0.183,0.035c-0.064,0.011 -0.128,0.02 -0.192,0.025c-0.064,0.006 -0.129,0.012 -0.193,0.017c-0.063,0.006 -0.125,0.012 -0.183,0.018c-0.058,0.007 -0.122,0.011 -0.192,0.011l-1.216,0c-0.064,0 -0.125,-0.018 -0.183,-0.054c-0.058,-0.036 -0.119,-0.068 -0.183,-0.097c-0.065,-0.029 -0.132,-0.055 -0.201,-0.077c-0.071,-0.023 -0.132,-0.046 -0.184,-0.069c-0.052,-0.024 -0.104,-0.05 -0.156,-0.079c-0.052,-0.029 -0.105,-0.055 -0.157,-0.079c-0.052,-0.023 -0.104,-0.056 -0.156,-0.097c-0.052,-0.041 -0.099,-0.082 -0.141,-0.122c-0.042,-0.041 -0.08,-0.084 -0.114,-0.131c-0.034,-0.047 -0.074,-0.091 -0.121,-0.131c-0.046,-0.04 -0.095,-0.08 -0.147,-0.121c-0.052,-0.04 -0.105,-0.078 -0.159,-0.114c-0.053,-0.035 -0.103,-0.076 -0.149,-0.122c-0.047,-0.046 -0.09,-0.089 -0.13,-0.13c-0.04,-0.042 -0.086,-0.074 -0.139,-0.096c-0.052,-0.022 -0.107,-0.033 -0.165,-0.033c-0.058,0 -0.111,0.017 -0.159,0.051c-0.048,0.035 -0.083,0.079 -0.105,0.131c-0.022,0.053 -0.045,0.111 -0.069,0.175c-0.024,0.063 -0.048,0.124 -0.072,0.182c-0.024,0.058 -0.05,0.116 -0.078,0.175c-0.028,0.058 -0.051,0.116 -0.069,0.174c-0.018,0.058 -0.036,0.116 -0.054,0.174c-0.018,0.058 -0.035,0.116 -0.051,0.174c-0.017,0.058 -0.034,0.117 -0.052,0.175c-0.018,0.058 -0.039,0.122 -0.062,0.191c-0.024,0.069 -0.047,0.133 -0.069,0.191c-0.023,0.058 -0.049,0.113 -0.079,0.166c-0.029,0.052 -0.056,0.105 -0.078,0.158c-0.022,0.052 -0.045,0.105 -0.069,0.157c-0.024,0.053 -0.045,0.113 -0.063,0.183c-0.018,0.069 -0.038,0.139 -0.06,0.209c-0.023,0.071 -0.043,0.141 -0.061,0.21c-0.017,0.069 -0.035,0.142 -0.053,0.218c-0.018,0.076 -0.03,0.143 -0.036,0.201c-0.006,0.058 -0.012,0.125 -0.018,0.199c-0.006,0.075 -0.012,0.156 -0.018,0.243c-0.006,0.088 -0.009,0.172 -0.009,0.254l0,0.663c0,0.071 0.015,0.14 0.045,0.21c0.03,0.069 0.071,0.136 0.123,0.199c0.052,0.064 0.113,0.122 0.183,0.175l0.105,0.078" style="fill:none;stroke:#000;stroke-width:1.67px;"/><path id="STROKE_DCCEAD59.-33C6.-4C3A.-8D55.-D47E9E8FE6FB" d="M72.959,122.935c-0.164,0 -0.278,0 -0.342,0c-0.064,0 -0.131,0.005 -0.201,0.016c-0.07,0.011 -0.142,0.022 -0.217,0.034c-0.074,0.011 -0.149,0.017 -0.225,0.017c-0.076,0 -0.146,0.003 -0.21,0.009c-0.064,0.007 -0.129,0.011 -0.193,0.011l-0.393,0c-0.07,0 -0.137,-0.012 -0.201,-0.036c-0.064,-0.023 -0.128,-0.047 -0.192,-0.07c-0.064,-0.024 -0.125,-0.044 -0.184,-0.062c-0.058,-0.018 -0.116,-0.033 -0.174,-0.044c-0.058,-0.011 -0.128,-0.022 -0.21,-0.033c-0.082,-0.011 -0.161,-0.017 -0.237,-0.017l-1.404,0c-0.07,0 -0.146,0.003 -0.228,0.008c-0.082,0.006 -0.152,0.017 -0.21,0.034c-0.058,0.017 -0.116,0.043 -0.174,0.079c-0.058,0.036 -0.113,0.065 -0.165,0.087c-0.053,0.022 -0.117,0.045 -0.193,0.069c-0.075,0.023 -0.139,0.023 -0.192,0c-0.052,-0.024 -0.061,-0.061 -0.027,-0.113c0.035,-0.051 0.078,-0.098 0.13,-0.139c0.052,-0.041 0.113,-0.065 0.183,-0.07l0.105,-0.009" style="fill:none;stroke:#000;stroke-width:1.67px;"/><path id="STROKE_0948A72F.-C489.-4E33.-AD36.-1492DCC582AD" d="M72.995,119.656c0.036,-0.117 0.065,-0.146 0.087,-0.087c0.023,0.058 0.034,0.133 0.034,0.226l0,1.114c0,0.105 -0.006,0.204 -0.018,0.297c-0.012,0.093 -0.032,0.18 -0.06,0.262c-0.029,0.081 -0.064,0.154 -0.106,0.218c-0.041,0.063 -0.079,0.121 -0.114,0.174l-0.051,0.079" style="fill:none;stroke:#000;stroke-width:1.67px;"/><path id="STROKE_38B0B2D4.-DDF0.-4053.-88F1.-E5D635CC68F9" d="M63.072,117.456c-0.021,-0.127 -0.006,-0.214 0.047,-0.261c0.052,-0.047 0.11,-0.067 0.174,-0.06c0.064,0.006 0.136,0.044 0.217,0.114c0.08,0.069 0.15,0.13 0.208,0.182c0.058,0.053 0.122,0.111 0.192,0.175c0.07,0.063 0.14,0.133 0.21,0.209c0.07,0.076 0.152,0.163 0.246,0.261c0.094,0.099 0.184,0.198 0.27,0.297c0.087,0.1 0.18,0.204 0.279,0.314c0.1,0.109 0.199,0.219 0.298,0.33c0.098,0.111 0.194,0.227 0.288,0.349c0.094,0.121 0.19,0.247 0.288,0.375c0.099,0.129 0.192,0.254 0.28,0.376c0.088,0.121 0.173,0.243 0.254,0.365c0.083,0.122 0.164,0.244 0.244,0.367c0.081,0.123 0.153,0.243 0.217,0.359c0.064,0.116 0.122,0.226 0.174,0.33c0.052,0.104 0.099,0.208 0.141,0.313c0.042,0.106 0.083,0.211 0.123,0.316c0.04,0.105 0.075,0.201 0.105,0.288l0.045,0.131" style="fill:none;stroke:#000;stroke-width:1.67px;"/></g></g></svg>