<?xml version="1.0" encoding="utf-8"?>
<!-- Generator: Adobe Illustrator 16.0.0, SVG Export Plug-In . SVG Version: 6.00 Build 0)  -->
<!DOCTYPE svg PUBLIC "-//W3C//DTD SVG 1.1//EN" "http://www.w3.org/Graphics/SVG/1.1/DTD/svg11.dtd">
<svg version="1.1" id="Layer_1" xmlns="http://www.w3.org/2000/svg" xmlns:xlink="http://www.w3.org/1999/xlink" x="0px" y="0px"
	 width="160px" height="160px" viewBox="0 0 160 160" enable-background="new 0 0 160 160" xml:space="preserve">
<g id="l17">
	
		<path fill="#FFEE11" stroke="#000000" stroke-width="1.7" stroke-linecap="round" stroke-linejoin="round" stroke-miterlimit="1.5" d="
		M73.693,139.797c0,0-14.109-0.121-20.396,0.092c-9.423,0.319-9.906-17.933-9.266-23.425c1.758-15.082,18.604-20.328,24.307-6.146
		C70.684,116.153,73.693,139.797,73.693,139.797z"/>
	
		<path fill="#FFEE11" stroke="#000000" stroke-width="1.7" stroke-linecap="round" stroke-linejoin="round" stroke-miterlimit="1.5" d="
		M100.327,120.268c-10.308-0.31-19.77,9.638-14.379,19.666c0,0,16.66,0.808,27.756,0.72c9.091-0.073,18.317-22.497,19.762-27.503
		c3.44-11.926-13.494-14.26-21.609-3.707c-2.033,2.643-5.438,11.558-5.438,11.558L100.327,120.268z"/>
	
		<path fill="none" stroke="#000000" stroke-width="1.7" stroke-linecap="round" stroke-linejoin="round" stroke-miterlimit="1.5" d="
		M65.313,114.748c-5.005-1.18-10.176-0.928-15.658,2"/>
	
		<path fill="none" stroke="#000000" stroke-width="1.7" stroke-linecap="round" stroke-linejoin="round" stroke-miterlimit="1.5" d="
		M68.287,122.857c-6.239-1.469-12.686-1.158-19.518,2.492"/>
	
		<path fill="none" stroke="#000000" stroke-width="1.7" stroke-linecap="round" stroke-linejoin="round" stroke-miterlimit="1.5" d="
		M67.812,129.667c-5.222-1.229-10.617-0.969-16.335,2.086"/>
	
		<path fill="none" stroke="#000000" stroke-width="1.7" stroke-linecap="round" stroke-linejoin="round" stroke-miterlimit="1.5" d="
		M123.275,115.96c2.116-1.112,4.976-0.776,6.494,0.763"/>
	
		<path fill="none" stroke="#000000" stroke-width="1.7" stroke-linecap="round" stroke-linejoin="round" stroke-miterlimit="1.5" d="
		M119.729,122.616c2.115-1.114,4.976-0.776,6.494,0.763"/>
	
		<path fill="none" stroke="#000000" stroke-width="1.7" stroke-linecap="round" stroke-linejoin="round" stroke-miterlimit="1.5" d="
		M116.336,129.215c2.117-1.113,4.978-0.777,6.496,0.762"/>
	
		<path fill="none" stroke="#000000" stroke-width="1.7" stroke-linecap="round" stroke-linejoin="round" stroke-miterlimit="1.5" d="
		M108.065,118.014c-1.922,4.867-4.502,6.788-7.785,5.566"/>
	
		<path fill="none" stroke="#000000" stroke-width="1.7" stroke-linecap="round" stroke-linejoin="round" stroke-miterlimit="1.5" d="
		M100.032,140.237c15.386-1.876,21.658-40.652,29.895-36.249"/>
</g>
</svg>
