<?xml version="1.0" encoding="utf-8"?>
<!-- Generator: Adobe Illustrator 16.0.0, SVG Export Plug-In . SVG Version: 6.00 Build 0)  -->
<!DOCTYPE svg PUBLIC "-//W3C//DTD SVG 1.1//EN" "http://www.w3.org/Graphics/SVG/1.1/DTD/svg11.dtd">
<svg version="1.1" id="Layer_1" xmlns="http://www.w3.org/2000/svg" xmlns:xlink="http://www.w3.org/1999/xlink" x="0px" y="0px"
	 width="160px" height="160px" viewBox="0 0 160 160" enable-background="new 0 0 160 160" xml:space="preserve">
<g id="l5">
	
		<path fill="#4F4F4F" stroke="#000000" stroke-width="1.7" stroke-linecap="round" stroke-linejoin="round" stroke-miterlimit="1.5" d="
		M110.052,132.264c1.881,1.098,2.396,3.723,1.151,5.857c-1.247,2.135-3.784,2.977-5.665,1.88c-1.881-1.099-2.396-3.722-1.15-5.856
		C105.633,132.009,108.171,131.167,110.052,132.264z"/>
	
		<path fill="#4F4F4F" stroke="#000000" stroke-width="1.7" stroke-linecap="round" stroke-linejoin="round" stroke-miterlimit="1.5" d="
		M112.474,133.829c1.881,1.097,2.396,3.721,1.151,5.856c-1.246,2.135-3.784,2.978-5.665,1.879c-1.881-1.096-2.396-3.721-1.15-5.855
		C108.055,133.574,110.593,132.73,112.474,133.829z"/>
	
		<path fill="#4F4F4F" stroke="#000000" stroke-width="1.7" stroke-linecap="round" stroke-linejoin="round" stroke-miterlimit="1.5" d="
		M67.665,135.641c1.732,1.319,1.922,3.987,0.425,5.953c-1.498,1.967-4.121,2.491-5.853,1.172c-1.732-1.32-1.922-3.987-0.425-5.953
		C63.31,134.846,65.933,134.321,67.665,135.641z"/>
	
		<path fill="#4F4F4F" stroke="#000000" stroke-width="1.7" stroke-linecap="round" stroke-linejoin="round" stroke-miterlimit="1.5" d="
		M69.877,137.49c1.732,1.318,1.922,3.987,0.425,5.953c-1.499,1.966-4.122,2.49-5.853,1.172c-1.732-1.32-1.922-3.987-0.425-5.954
		C65.522,136.695,68.145,136.17,69.877,137.49z"/>
	
		<path fill="#4F4F4F" stroke="#000000" stroke-width="1.7" stroke-linecap="round" stroke-linejoin="round" stroke-miterlimit="1.5" d="
		M101.743,126.002c1.881,1.097,2.396,3.721,1.152,5.855c-1.246,2.136-3.784,2.979-5.666,1.881c-1.881-1.098-2.396-3.721-1.15-5.856
		C97.325,125.747,99.862,124.904,101.743,126.002z"/>
	
		<path fill="#4F4F4F" stroke="#000000" stroke-width="1.7" stroke-linecap="round" stroke-linejoin="round" stroke-miterlimit="1.5" d="
		M104.166,127.566c1.881,1.096,2.396,3.722,1.151,5.856c-1.246,2.136-3.784,2.978-5.666,1.88c-1.881-1.098-2.396-3.722-1.15-5.856
		C99.747,127.311,102.285,126.469,104.166,127.566z"/>
	
		<path fill="#4F4F4F" stroke="#000000" stroke-width="1.7" stroke-linecap="round" stroke-linejoin="round" stroke-miterlimit="1.5" d="
		M59.357,129.378c1.732,1.319,1.922,3.987,0.424,5.953c-1.497,1.967-4.121,2.491-5.852,1.173c-1.732-1.32-1.923-3.988-0.425-5.955
		C55.002,128.583,57.625,128.059,59.357,129.378z"/>
	
		<path fill="#4F4F4F" stroke="#000000" stroke-width="1.7" stroke-linecap="round" stroke-linejoin="round" stroke-miterlimit="1.5" d="
		M61.569,131.227c1.732,1.32,1.922,3.987,0.424,5.955c-1.497,1.965-4.12,2.49-5.852,1.17c-1.731-1.318-1.923-3.986-0.425-5.953
		C57.214,130.433,59.837,129.908,61.569,131.227z"/>
	
		<path fill="#FFEE11" stroke="#000000" stroke-width="1.7" stroke-linecap="round" stroke-linejoin="round" stroke-miterlimit="1.5" d="
		M60.909,127.383c9.757-0.156,36.784-1.574,47.198-7.142c4.219-2.257,7.459-9.347,13.189-5.665
		c9.436,6.063,0.438,14.986-4.68,17.016c-9.865,3.911-43.042,6.805-54.508,6.451c-5.552-0.171-11.208-3.396-13.688-12.521
		C46.818,119.627,55.923,127.465,60.909,127.383z"/>
</g>
</svg>
