<?xml version="1.0" encoding="utf-8"?>
<!-- Generator: Adobe Illustrator 16.0.0, SVG Export Plug-In . SVG Version: 6.00 Build 0)  -->
<!DOCTYPE svg PUBLIC "-//W3C//DTD SVG 1.1//EN" "http://www.w3.org/Graphics/SVG/1.1/DTD/svg11.dtd">
<svg version="1.1" id="Layer_1" xmlns="http://www.w3.org/2000/svg" xmlns:xlink="http://www.w3.org/1999/xlink" x="0px" y="0px"
	 width="160px" height="160px" viewBox="0 0 160 160" enable-background="new 0 0 160 160" xml:space="preserve">
<g id="l6">
	
		<path fill="#2A2A2A" stroke="#000000" stroke-width="1.7" stroke-linecap="round" stroke-linejoin="round" stroke-miterlimit="1.5" d="
		M87.38,132.191l-36.601,11.022L70.144,160h24.59l25.56-10.896L87.38,132.191z"/>
	
		<path fill="#FFEE11" stroke="#000000" stroke-width="1.7" stroke-linecap="round" stroke-linejoin="round" stroke-miterlimit="1.5" d="
		M57.684,113.121c6.213,4.074,13.643,6.443,21.62,6.443c0.194,0,0.389,0,0.582-0.004l6.152,12.353l-34.946,9.639l-1.75,1.786
		l-13.746-24.766l1.371-2.115L57.684,113.121z"/>
	
		<path fill="#11AA11" stroke="#000000" stroke-width="1.7" stroke-linecap="round" stroke-linejoin="round" stroke-miterlimit="1.5" d="
		M39.401,118.391l10.431,18.76"/>
	
		<path fill="none" stroke="#000000" stroke-width="1.7" stroke-linecap="round" stroke-linejoin="round" stroke-miterlimit="1.5" d="
		M64.57,116.656c3.929,9.671,31.153,10.839,31.763,6.814c0.861-5.688-26.865-2.475-28.869,2.705
		c-2.059,5.322,25.959,11.309,28.502,6.752c3.161-5.664-27.058-2.201-26.287,1.9c0.878,4.676,21.948,10.428,25.5,6.811
		c5.273-5.371-23.169-4.139-24.288,1.205c-1.041,4.969,20.561,10.803,24.064,7.408c6.09-5.902-19.897-5.201-22.713-0.133
		c-2.287,4.113,9.358,8.357,13.264,7.333"/>
</g>
</svg>
