<?xml version="1.0" encoding="UTF-8" standalone="no"?>
<!DOCTYPE svg PUBLIC "-//W3C//DTD SVG 1.1//EN" "http://www.w3.org/Graphics/SVG/1.1/DTD/svg11.dtd">
<svg width="100%" height="100%" viewBox="0 0 160 160" version="1.1" xmlns="http://www.w3.org/2000/svg" xmlns:xlink="http://www.w3.org/1999/xlink" xml:space="preserve" style="fill-rule:evenodd;clip-rule:evenodd;stroke-linecap:round;stroke-linejoin:round;">
    <path id="overlay0" d="M0,0L160,0L160,79.155C159.872,77.066 159.266,74.999 158.184,73.124L125.06,15.752C122.603,11.497 118.064,8.876 113.15,8.876L46.902,8.876C41.989,8.876 37.449,11.497 34.993,15.752L1.869,73.124C-0.588,77.379 -0.588,82.621 1.869,86.876L34.993,144.248C37.449,148.503 41.989,151.124 46.902,151.124L113.15,151.124C118.063,151.124 122.603,148.503 125.06,144.248L158.184,86.876C159.266,85.001 159.872,82.934 160,80.845L160,160L0,160L0,0Z" style="fill:#fff;"/>
    <g id="hatsf">
        <path id="h16" d="M82.768,40.464C82.643,40.453 82.55,40.438 82.487,40.421C82.424,40.403 82.365,40.389 82.308,40.378C82.252,40.367 82.186,40.351 82.112,40.328C82.038,40.305 81.961,40.282 81.881,40.259C81.801,40.236 81.73,40.219 81.668,40.208C81.605,40.197 81.543,40.189 81.48,40.182C81.418,40.176 81.355,40.172 81.293,40.172C81.23,40.172 81.168,40.167 81.105,40.156C81.043,40.145 80.983,40.134 80.926,40.123C80.87,40.113 80.81,40.096 80.748,40.073C80.685,40.05 80.623,40.027 80.56,40.004C80.498,39.981 80.438,39.964 80.382,39.953C80.325,39.942 80.271,39.92 80.22,39.885C80.169,39.85 80.116,39.824 80.059,39.808C80.002,39.791 79.943,39.783 79.88,39.783C79.818,39.783 79.761,39.769 79.71,39.741C79.659,39.713 79.617,39.67 79.584,39.613C79.55,39.557 79.519,39.497 79.49,39.435C79.461,39.373 79.438,39.308 79.42,39.239C79.403,39.17 79.375,39.102 79.335,39.035C79.296,38.967 79.262,38.894 79.233,38.814C79.204,38.735 79.181,38.666 79.165,38.61C79.149,38.553 79.133,38.485 79.115,38.406C79.098,38.326 79.081,38.249 79.063,38.175C79.046,38.101 79.031,38.035 79.019,37.979C79.008,37.922 78.997,37.863 78.987,37.801C78.976,37.739 78.96,37.674 78.936,37.606C78.913,37.539 78.893,37.47 78.876,37.402C78.858,37.333 78.836,37.268 78.808,37.206C78.78,37.144 78.755,37.079 78.732,37.011C78.708,36.944 78.683,36.878 78.655,36.815C78.628,36.752 78.599,36.686 78.57,36.619C78.541,36.551 78.51,36.48 78.477,36.406C78.443,36.332 78.412,36.259 78.383,36.186C78.354,36.113 78.323,36.039 78.289,35.965C78.256,35.891 78.225,35.82 78.195,35.753C78.166,35.685 78.135,35.617 78.102,35.548C78.068,35.479 78.037,35.411 78.008,35.344C77.979,35.276 77.95,35.214 77.921,35.158C77.892,35.101 77.863,35.044 77.836,34.987C77.808,34.931 77.78,34.871 77.751,34.809C77.722,34.747 77.688,34.676 77.648,34.597C77.609,34.517 77.576,34.452 77.548,34.401C77.521,34.349 77.495,34.295 77.472,34.239C77.449,34.182 77.423,34.123 77.394,34.061C77.364,33.999 77.336,33.933 77.308,33.865C77.281,33.796 77.256,33.725 77.232,33.652C77.209,33.579 77.186,33.505 77.165,33.431C77.143,33.357 77.117,33.28 77.088,33.201C77.059,33.121 77.03,33.045 77.001,32.972C76.972,32.899 76.944,32.828 76.916,32.759C76.888,32.691 76.86,32.623 76.831,32.555C76.802,32.487 76.774,32.423 76.746,32.36C76.718,32.298 76.69,32.239 76.661,32.182C76.632,32.126 76.607,32.066 76.585,32.002C76.563,31.939 76.538,31.879 76.508,31.823C76.479,31.766 76.451,31.698 76.424,31.618C76.396,31.539 76.371,31.471 76.347,31.414C76.324,31.357 76.301,31.301 76.277,31.244C76.254,31.187 76.232,31.12 76.21,31.041C76.188,30.963 76.163,30.887 76.134,30.813C76.105,30.738 76.076,30.664 76.049,30.59C76.021,30.516 75.993,30.445 75.964,30.378C75.935,30.31 75.906,30.242 75.879,30.175C75.851,30.107 75.826,30.045 75.802,29.987C75.779,29.929 75.753,29.861 75.724,29.783C75.695,29.704 75.664,29.628 75.63,29.554C75.597,29.48 75.566,29.409 75.537,29.341C75.507,29.274 75.479,29.212 75.451,29.155C75.424,29.098 75.399,29.038 75.375,28.975C75.352,28.912 75.327,28.849 75.299,28.787C75.271,28.725 75.243,28.66 75.214,28.593C75.185,28.525 75.162,28.463 75.144,28.406C75.127,28.35 75.107,28.29 75.085,28.227C75.063,28.163 75.035,28.089 75,28.004C74.966,27.919 74.934,27.837 74.907,27.759C74.879,27.681 74.851,27.607 74.821,27.538C74.792,27.47 74.764,27.404 74.737,27.342C74.709,27.28 74.678,27.215 74.643,27.148C74.608,27.08 74.577,27.012 74.549,26.943C74.522,26.875 74.493,26.807 74.464,26.739C74.435,26.671 74.41,26.606 74.388,26.543C74.366,26.479 74.344,26.417 74.32,26.355C74.297,26.293 74.271,26.231 74.242,26.169C74.213,26.106 74.182,26.044 74.148,25.982C74.115,25.92 74.081,25.855 74.048,25.786C74.015,25.717 73.98,25.649 73.946,25.582C73.911,25.514 73.876,25.449 73.843,25.387C73.81,25.325 73.778,25.263 73.749,25.201C73.72,25.139 73.692,25.071 73.664,24.996C73.637,24.922 73.608,24.848 73.579,24.774C73.55,24.7 73.522,24.637 73.494,24.586C73.467,24.535 73.438,24.481 73.409,24.424C73.38,24.368 73.351,24.311 73.322,24.254C73.293,24.198 73.259,24.144 73.22,24.094C73.18,24.044 73.149,23.991 73.126,23.934C73.103,23.877 73.091,23.817 73.091,23.754L73.091,23.355C73.091,23.288 73.106,23.226 73.134,23.169C73.164,23.112 73.193,23.055 73.222,22.997C73.251,22.939 73.279,22.879 73.307,22.817C73.335,22.755 73.36,22.693 73.383,22.631C73.406,22.569 73.432,22.51 73.459,22.453C73.487,22.396 73.521,22.34 73.562,22.283C73.602,22.226 73.642,22.175 73.682,22.129C73.721,22.084 73.757,22.032 73.791,21.976C73.824,21.919 73.855,21.862 73.884,21.806C73.914,21.749 73.94,21.687 73.963,21.619C73.986,21.552 74.003,21.49 74.013,21.433C74.023,21.376 74.028,21.314 74.028,21.245L74.028,20.387C74.028,20.324 74.025,20.253 74.02,20.174C74.014,20.096 74.006,20.022 73.995,19.954C73.985,19.885 73.975,19.822 73.963,19.765C73.951,19.709 73.931,19.65 73.902,19.587C73.873,19.525 73.842,19.46 73.808,19.391C73.775,19.323 73.746,19.26 73.723,19.203C73.7,19.147 73.677,19.082 73.656,19.009C73.634,18.936 73.611,18.871 73.588,18.814C73.565,18.758 73.537,18.698 73.503,18.636C73.47,18.574 73.435,18.515 73.4,18.458C73.366,18.401 73.329,18.345 73.289,18.288C73.25,18.231 73.216,18.177 73.187,18.126C73.158,18.075 73.127,18.024 73.093,17.972C73.06,17.921 73.02,17.879 72.973,17.845C72.927,17.811 72.884,17.771 72.845,17.726C72.806,17.68 72.766,17.629 72.727,17.572C72.688,17.515 72.651,17.459 72.616,17.402C72.581,17.345 72.538,17.3 72.487,17.266C72.437,17.232 72.38,17.201 72.318,17.173C72.255,17.145 72.195,17.116 72.138,17.088C72.082,17.06 72.025,17.031 71.969,17.003C71.912,16.975 71.858,16.946 71.807,16.918C71.757,16.89 71.7,16.859 71.637,16.825C71.575,16.791 71.512,16.757 71.45,16.722C71.387,16.687 71.328,16.655 71.271,16.627C71.214,16.599 71.161,16.57 71.11,16.542C71.059,16.514 70.999,16.485 70.931,16.457C70.863,16.429 70.8,16.404 70.744,16.382C70.687,16.36 70.63,16.338 70.574,16.315C70.517,16.292 70.46,16.269 70.404,16.246C70.347,16.223 70.288,16.2 70.225,16.178C70.163,16.155 70.1,16.143 70.038,16.143L68.673,16.143C68.611,16.143 68.548,16.141 68.486,16.135C68.423,16.13 68.358,16.124 68.289,16.119C68.221,16.113 68.153,16.108 68.085,16.102C68.016,16.097 67.954,16.088 67.897,16.076C67.841,16.064 67.781,16.055 67.719,16.05C67.656,16.045 67.591,16.042 67.522,16.042L67.121,16.042C67.059,16.042 66.999,16.05 66.943,16.068C66.886,16.085 66.829,16.105 66.773,16.127C66.716,16.149 66.662,16.174 66.611,16.202C66.56,16.23 66.507,16.265 66.45,16.305C66.393,16.345 66.34,16.38 66.289,16.408C66.238,16.436 66.184,16.462 66.128,16.485C66.071,16.508 66.014,16.536 65.958,16.57C65.901,16.604 65.849,16.643 65.803,16.688C65.756,16.732 65.711,16.78 65.665,16.832C65.62,16.883 65.569,16.928 65.513,16.969C65.456,17.009 65.402,17.052 65.352,17.096C65.301,17.141 65.253,17.184 65.208,17.224C65.163,17.264 65.12,17.315 65.079,17.377C65.038,17.439 64.998,17.496 64.959,17.547C64.92,17.598 64.881,17.65 64.842,17.701C64.802,17.752 64.76,17.803 64.713,17.853C64.667,17.903 64.627,17.954 64.593,18.005C64.56,18.056 64.529,18.108 64.499,18.159C64.47,18.21 64.445,18.264 64.423,18.321C64.401,18.377 64.373,18.434 64.338,18.491C64.303,18.547 64.269,18.604 64.236,18.661C64.202,18.717 64.165,18.771 64.125,18.822C64.084,18.874 64.053,18.93 64.031,18.992C64.009,19.055 63.989,19.114 63.972,19.171C63.954,19.227 63.937,19.287 63.919,19.349C63.902,19.411 63.883,19.476 63.861,19.545C63.839,19.614 63.814,19.679 63.784,19.741C63.755,19.803 63.73,19.865 63.708,19.927C63.686,19.989 63.67,20.055 63.658,20.123C63.646,20.192 63.638,20.258 63.632,20.32C63.626,20.382 63.617,20.444 63.606,20.506C63.594,20.568 63.582,20.628 63.571,20.684C63.559,20.741 63.55,20.803 63.545,20.871C63.539,20.938 63.533,21.009 63.527,21.083C63.521,21.157 63.518,21.229 63.518,21.297L63.518,21.696C63.518,21.758 63.516,21.82 63.512,21.882C63.508,21.945 63.506,22.015 63.506,22.095C63.506,22.174 63.506,22.249 63.506,22.317C63.506,22.386 63.508,22.454 63.512,22.522C63.516,22.589 63.533,22.649 63.562,22.7C63.591,22.751 63.617,22.808 63.641,22.87C63.664,22.932 63.686,22.994 63.708,23.056C63.73,23.118 63.75,23.178 63.767,23.234C63.784,23.291 63.805,23.351 63.828,23.414C63.851,23.477 63.874,23.537 63.896,23.594C63.917,23.651 63.946,23.704 63.981,23.754C64.015,23.804 64.05,23.855 64.083,23.906C64.116,23.957 64.151,24.006 64.185,24.052C64.22,24.097 64.263,24.146 64.314,24.197C64.365,24.248 64.407,24.299 64.441,24.349C64.474,24.399 64.508,24.447 64.543,24.493C64.578,24.539 64.615,24.584 64.654,24.63C64.693,24.676 64.738,24.713 64.789,24.741C64.84,24.77 64.891,24.804 64.942,24.843C64.993,24.882 65.041,24.918 65.088,24.952C65.134,24.986 65.186,25.014 65.242,25.037C65.299,25.06 65.356,25.083 65.412,25.106C65.469,25.129 65.529,25.154 65.591,25.183C65.654,25.211 65.713,25.234 65.77,25.252C65.827,25.269 65.886,25.283 65.949,25.294C66.011,25.305 66.074,25.322 66.136,25.345C66.199,25.367 66.258,25.396 66.315,25.429C66.372,25.463 66.428,25.489 66.485,25.506C66.542,25.524 66.607,25.532 66.681,25.532L67.278,25.532C67.341,25.532 67.403,25.521 67.466,25.498C67.528,25.475 67.588,25.453 67.645,25.429C67.701,25.407 67.763,25.395 67.83,25.395C67.897,25.395 67.961,25.393 68.024,25.387C68.086,25.382 68.147,25.367 68.205,25.345C68.263,25.322 68.317,25.293 68.368,25.26C68.419,25.226 68.473,25.203 68.529,25.191C68.586,25.179 68.643,25.165 68.699,25.149C68.756,25.132 68.804,25.149 68.843,25.201C68.882,25.252 68.914,25.311 68.937,25.379C68.96,25.447 68.98,25.517 68.998,25.591C69.015,25.666 69.032,25.731 69.048,25.788C69.064,25.844 69.078,25.901 69.089,25.958C69.101,26.014 69.113,26.071 69.124,26.127C69.136,26.184 69.148,26.244 69.159,26.306C69.171,26.368 69.182,26.43 69.194,26.492C69.206,26.554 69.22,26.622 69.236,26.696C69.251,26.771 69.271,26.839 69.294,26.901C69.317,26.963 69.338,27.025 69.355,27.087C69.373,27.149 69.392,27.209 69.414,27.265C69.436,27.322 69.459,27.381 69.482,27.444C69.505,27.506 69.525,27.568 69.543,27.632C69.56,27.695 69.572,27.76 69.578,27.828C69.583,27.895 69.591,27.96 69.602,28.022C69.612,28.084 69.632,28.147 69.661,28.21C69.69,28.273 69.715,28.336 69.737,28.398C69.759,28.46 69.781,28.522 69.804,28.584C69.828,28.646 69.851,28.711 69.874,28.779C69.897,28.847 69.917,28.912 69.933,28.975C69.949,29.038 69.969,29.104 69.992,29.171C70.015,29.239 70.044,29.306 70.079,29.374C70.114,29.442 70.142,29.507 70.164,29.57C70.186,29.633 70.214,29.701 70.249,29.774C70.284,29.847 70.312,29.924 70.334,30.003C70.356,30.083 70.378,30.151 70.402,30.208C70.425,30.264 70.448,30.327 70.471,30.396C70.495,30.464 70.52,30.527 70.547,30.584C70.575,30.64 70.604,30.702 70.633,30.77C70.662,30.838 70.69,30.902 70.717,30.964C70.745,31.027 70.773,31.092 70.803,31.161C70.832,31.229 70.86,31.295 70.888,31.357C70.915,31.419 70.941,31.478 70.964,31.535C70.987,31.592 71.01,31.648 71.031,31.705C71.053,31.762 71.076,31.818 71.099,31.875C71.122,31.932 71.148,31.994 71.177,32.061C71.206,32.129 71.238,32.197 71.271,32.266C71.305,32.334 71.336,32.4 71.365,32.462C71.394,32.524 71.422,32.592 71.45,32.666C71.478,32.74 71.506,32.811 71.535,32.879C71.564,32.946 71.586,33.014 71.602,33.081C71.618,33.149 71.638,33.214 71.661,33.278C71.685,33.341 71.708,33.406 71.731,33.474C71.754,33.541 71.777,33.603 71.799,33.66C71.82,33.717 71.846,33.776 71.875,33.838C71.904,33.9 71.932,33.969 71.96,34.043C71.987,34.117 72.013,34.185 72.036,34.247C72.059,34.309 72.083,34.368 72.106,34.425C72.129,34.482 72.155,34.544 72.182,34.613C72.21,34.682 72.235,34.75 72.259,34.817C72.282,34.885 72.304,34.947 72.326,35.004C72.348,35.06 72.367,35.12 72.385,35.182C72.402,35.244 72.42,35.303 72.437,35.36C72.455,35.417 72.475,35.477 72.498,35.54C72.522,35.603 72.547,35.66 72.574,35.71C72.602,35.76 72.628,35.813 72.651,35.87C72.674,35.927 72.694,35.983 72.71,36.04C72.726,36.097 72.745,36.159 72.768,36.228C72.792,36.297 72.812,36.362 72.829,36.424C72.847,36.486 72.867,36.549 72.888,36.611C72.91,36.673 72.933,36.732 72.956,36.789C72.979,36.845 72.999,36.908 73.017,36.977C73.034,37.045 73.051,37.113 73.067,37.181C73.083,37.249 73.1,37.311 73.117,37.367C73.135,37.424 73.155,37.481 73.178,37.537C73.201,37.594 73.224,37.657 73.246,37.725C73.268,37.794 73.287,37.857 73.305,37.913C73.322,37.97 73.34,38.027 73.357,38.083C73.374,38.14 73.395,38.197 73.418,38.253C73.441,38.31 73.453,38.375 73.453,38.448C73.453,38.521 73.461,38.586 73.477,38.642C73.493,38.699 73.513,38.756 73.536,38.812C73.559,38.869 73.577,38.926 73.588,38.982C73.6,39.039 73.619,39.096 73.647,39.152C73.674,39.209 73.697,39.266 73.715,39.322C73.732,39.379 73.754,39.439 73.782,39.502C73.81,39.565 73.835,39.625 73.858,39.682C73.882,39.739 73.902,39.795 73.919,39.852C73.937,39.909 73.954,39.965 73.972,40.022C73.989,40.079 74.003,40.135 74.013,40.192C74.023,40.249 74.037,40.305 74.054,40.362C74.072,40.419 74.086,40.478 74.098,40.54L74.115,40.633" style="fill:none;stroke:#000;stroke-width:1.72px;"/>
    </g>
</svg>
