<?xml version="1.0" encoding="utf-8"?>
<!-- Generator: Adobe Illustrator 16.0.0, SVG Export Plug-In . SVG Version: 6.00 Build 0)  -->
<!DOCTYPE svg PUBLIC "-//W3C//DTD SVG 1.1//EN" "http://www.w3.org/Graphics/SVG/1.1/DTD/svg11.dtd">
<svg version="1.1" id="Layer_1" xmlns="http://www.w3.org/2000/svg" xmlns:xlink="http://www.w3.org/1999/xlink" x="0px" y="0px"
	 width="160px" height="160px" viewBox="0 0 160 160" enable-background="new 0 0 160 160" xml:space="preserve">
<g id="h10">
	<path fill="#424242" stroke="#000000" stroke-width="1.6" stroke-linecap="round" stroke-linejoin="round" d="M111.722,56.832
		c-0.401-0.529-0.791-1.066-1.213-1.579c-0.16-0.195-0.321-0.39-0.48-0.585c-0.056-0.067-0.197-0.316-0.292-0.308
		c-0.597,0.051-1.194,0.089-1.793,0.116c-2.663,0.125-5.332,0.06-7.993-0.059c-2.994-0.134-5.986-0.345-8.976-0.549
		c-3.168-0.217-6.337-0.43-9.511-0.569c-3.197-0.14-6.399-0.207-9.599-0.119c-3.093,0.086-6.188,0.316-9.246,0.802
		c-2.875,0.458-5.725,1.145-8.445,2.193c-3.014,1.162-5.859,2.786-8.263,4.957c-0.339,0.306-0.67,0.622-0.99,0.949
		c-0.155,0.157-0.307,0.316-0.457,0.479c-0.076,0.082-0.15,0.164-0.224,0.246c-0.055,0.062-0.153,0.137-0.187,0.211
		c-0.169,0.373-0.339,0.746-0.508,1.118c-0.282,0.62-0.526,1.255-0.77,1.89c-0.125,0.326-0.243,0.652-0.359,0.981
		c-0.03,0.084-0.06,0.17-0.09,0.254c-0.019,0.053-0.299,0.001-0.36-0.004c-0.309-0.024-0.615-0.053-0.922-0.086
		c-0.967-0.104-1.938-0.25-2.873-0.523c-0.863-0.254-2.159-0.721-2.291-1.772c-0.121-0.958,0.733-1.843,1.368-2.44
		c1.156-1.088,2.527-1.952,3.894-2.749c1.711-0.996,3.488-1.879,5.289-2.7c1.822-0.831,3.674-1.598,5.55-2.294
		c1.537-0.572,3.093-1.108,4.679-1.53c0.75-0.2,1.51-0.344,2.269-0.505c2.028-0.431,4.057-0.853,6.091-1.258
		c4.043-0.805,8.1-1.543,12.178-2.148c4.061-0.603,8.142-1.073,12.239-1.347c4.119-0.275,8.253-0.35,12.378-0.17
		c1.479,0.064,2.955,0.165,4.431,0.3c1.643,0.151,3.283,0.327,4.92,0.533c2.002,0.252,4.002,0.544,5.982,0.927
		c1.689,0.327,3.408,0.693,5.01,1.336c0.527,0.211,1.068,0.457,1.508,0.825c0.274,0.231,0.535,0.551,0.502,0.934
		c-0.045,0.52-0.546,0.907-0.94,1.175c-0.894,0.609-1.933,1.015-2.948,1.375c-1.248,0.442-2.531,0.795-3.824,1.079
		c-1.149,0.252-2.32,0.461-3.496,0.526c-0.441,0.024-0.891,0.034-1.327-0.037"/>
	<g>
		<path fill="#FFEE00" stroke="#000000" stroke-width="1.6" stroke-miterlimit="10" d="M36.033,65.342
			c-0.005-0.011-0.012-0.023-0.018-0.035C36.021,65.319,36.028,65.331,36.033,65.342z"/>
		<path fill="#FFEE00" stroke="#000000" stroke-width="1.6" stroke-miterlimit="10" d="M35.926,65.089
			c-0.005-0.016-0.01-0.033-0.015-0.049C35.917,65.056,35.921,65.073,35.926,65.089z"/>
		<path fill="#FFEE00" stroke="#000000" stroke-width="1.6" stroke-miterlimit="10" d="M36.578,65.929
			c0.016,0.011,0.031,0.023,0.048,0.035C36.608,65.952,36.594,65.94,36.578,65.929z"/>
		<path fill="#FFEE00" stroke="#000000" stroke-width="1.6" stroke-miterlimit="10" d="M35.894,64.956
			c-0.003-0.016-0.007-0.032-0.009-0.048C35.886,64.924,35.891,64.94,35.894,64.956z"/>
		<path fill="#FFEE00" stroke="#000000" stroke-width="1.6" stroke-miterlimit="10" d="M35.973,65.218
			c-0.006-0.016-0.012-0.031-0.018-0.047C35.96,65.187,35.966,65.202,35.973,65.218z"/>
		<path fill="#FFEE00" stroke="#000000" stroke-width="1.6" stroke-miterlimit="10" d="M36.961,66.17
			c0.02,0.011,0.041,0.021,0.061,0.032C37.001,66.191,36.98,66.181,36.961,66.17z"/>
		<path fill="#FFEE00" stroke="#000000" stroke-width="1.6" stroke-miterlimit="10" d="M36.308,65.699
			c0.015,0.014,0.03,0.029,0.045,0.042C36.337,65.728,36.323,65.713,36.308,65.699z"/>
		<path fill="#FFEE00" stroke="#000000" stroke-width="1.6" stroke-miterlimit="10" d="M36.128,65.488
			c-0.006-0.008-0.013-0.017-0.019-0.024C36.115,65.472,36.122,65.48,36.128,65.488z"/>
		<path fill="#FFEE00" stroke="#000000" stroke-width="1.6" stroke-miterlimit="10" d="M36.236,65.623
			c-0.012-0.014-0.025-0.027-0.036-0.041C36.211,65.596,36.225,65.609,36.236,65.623z"/>
		<path fill="#FFEE00" stroke="#000000" stroke-width="1.6" stroke-miterlimit="10" d="M35.871,64.774
			c0.001,0.013,0.003,0.025,0.004,0.038C35.874,64.799,35.872,64.787,35.871,64.774z"/>
		<path fill="#FFEE00" stroke="#000000" stroke-width="1.6" stroke-miterlimit="10" d="M58.135,52.827
			c4.049-0.865,8.105-1.698,12.179-2.435c4.046-0.731,8.11-1.37,12.194-1.846c4.082-0.475,8.183-0.79,12.291-0.88
			c3.318-0.074,6.65-0.018,9.962,0.243c1.46,0.115,2.919,0.259,4.374,0.42c2.277,0.253,4.553,0.552,6.809,0.947
			c2.037,0.355,4.118,0.749,6.053,1.494c0.627,0.241,1.303,0.526,1.791,1.002c-0.061-0.03-0.127-0.169-0.168-0.222
			c-0.068-0.087-0.137-0.177-0.205-0.265c-0.147-0.19-0.297-0.379-0.449-0.567c-0.289-0.361-0.586-0.718-0.887-1.07
			c-0.604-0.704-1.229-1.391-1.873-2.06c-1.289-1.342-2.649-2.614-4.06-3.828c-2.819-2.427-5.831-4.62-8.916-6.695
			c-3.28-2.207-6.603-4.362-10.021-6.351c-3.425-1.991-6.954-3.807-10.624-5.304c-3.675-1.498-7.409-2.959-11.332-3.656
			c-1.926-0.342-3.912-0.51-5.866-0.35c-1.415,0.116-2.772,0.606-4.006,1.294c-2.674,1.49-4.831,3.795-6.79,6.106
			c-0.934,1.101-1.829,2.234-2.739,3.355c-1.222,1.505-2.437,3.014-3.613,4.555c-1.242,1.627-2.455,3.277-3.651,4.938
			c-1.164,1.616-2.339,3.226-3.403,4.909c-2.062,3.261-3.783,6.721-5.482,10.179c-0.589,1.196-1.175,2.394-1.772,3.586
			c-0.303,0.604-0.608,1.205-0.919,1.805c-0.299,0.579-0.646,1.147-0.919,1.739c0.328-0.651,0.87-1.189,1.41-1.666
			c0.755-0.667,1.586-1.244,2.436-1.783c2.128-1.356,4.402-2.488,6.7-3.527c2.312-1.046,4.671-1.997,7.071-2.818
			C55.155,53.581,56.63,53.092,58.135,52.827C73.482,49.548,53.329,53.671,58.135,52.827z"/>
		<path fill="#FFEE00" stroke="#000000" stroke-width="1.6" stroke-miterlimit="10" d="M124.166,52.525
			c0-0.017-0.001-0.033-0.001-0.05C124.165,52.492,124.166,52.508,124.166,52.525z"/>
		<path fill="#FFEE00" stroke="#000000" stroke-width="1.6" stroke-miterlimit="10" d="M124.156,52.395
			c0-0.003,0.077-0.01,0.085-0.012c-0.05-0.067-0.097-0.15-0.155-0.209C124.118,52.244,124.144,52.318,124.156,52.395
			C124.156,52.395,124.144,52.32,124.156,52.395z"/>
		<path fill="#FFEE00" stroke="#000000" stroke-width="1.6" stroke-miterlimit="10" d="M35.886,64.501
			c0.002-0.017,0.005-0.033,0.008-0.05C35.891,64.468,35.888,64.484,35.886,64.501z"/>
		<path fill="#FFEE00" stroke="#000000" stroke-width="1.6" stroke-miterlimit="10" d="M35.913,64.359
			c0.004-0.018,0.009-0.036,0.014-0.054C35.922,64.323,35.917,64.341,35.913,64.359z"/>
		<path fill="#FFEE00" stroke="#000000" stroke-width="1.6" stroke-miterlimit="10" d="M36.009,64.061
			c0.006-0.015,0.012-0.032,0.019-0.048C36.021,64.029,36.015,64.045,36.009,64.061z"/>
		<path fill="#FFEE00" stroke="#000000" stroke-width="1.6" stroke-miterlimit="10" d="M35.871,64.639
			c0.001-0.01,0.002-0.019,0.003-0.029C35.873,64.62,35.872,64.629,35.871,64.639z"/>
		<path fill="#FFEE00" stroke="#000000" stroke-width="1.6" stroke-miterlimit="10" d="M35.954,64.214
			c0.005-0.018,0.011-0.036,0.018-0.055C35.964,64.178,35.958,64.196,35.954,64.214z"/>
		<path fill="#FFEE00" stroke="#000000" stroke-width="1.6" stroke-miterlimit="10" d="M36.784,66.068
			C36.784,66.068,36.784,66.068,36.784,66.068C36.784,66.068,36.784,66.068,36.784,66.068z"/>
		<path fill="#FFEE00" stroke="#000000" stroke-width="1.6" stroke-miterlimit="10" d="M41.383,67.207
			c-0.056-0.006-0.111-0.011-0.166-0.017C41.271,67.196,41.327,67.201,41.383,67.207z"/>
		<path fill="#FFEE00" stroke="#000000" stroke-width="1.6" stroke-miterlimit="10" d="M40.941,67.16
			c-0.054-0.006-0.108-0.012-0.162-0.018C40.833,67.148,40.887,67.154,40.941,67.16z"/>
		<path fill="#FFEE00" stroke="#000000" stroke-width="1.6" stroke-miterlimit="10" d="M41.842,67.248
			c-0.051-0.004-0.099-0.009-0.149-0.013C41.743,67.239,41.791,67.244,41.842,67.248z"/>
		<path fill="#FFEE00" stroke="#000000" stroke-width="1.6" stroke-miterlimit="10" d="M40.509,67.108
			c-0.047-0.006-0.095-0.012-0.14-0.018C40.414,67.096,40.461,67.102,40.509,67.108z"/>
		<path fill="#FFEE00" stroke="#000000" stroke-width="1.6" stroke-miterlimit="10" d="M123.995,53.047
			c0.03-0.046,0.057-0.091,0.08-0.136C124.052,52.956,124.025,53.001,123.995,53.047z"/>
		<path fill="#FFEE00" stroke="#000000" stroke-width="1.6" stroke-miterlimit="10" d="M124.09,52.871
			c0.015-0.032,0.026-0.064,0.036-0.096C124.116,52.807,124.104,52.839,124.09,52.871z"/>
		<path fill="#FFEE00" stroke="#000000" stroke-width="1.6" stroke-miterlimit="10" d="M36.432,65.813
			c0.017,0.014,0.033,0.028,0.05,0.042C36.464,65.841,36.449,65.827,36.432,65.813z"/>
		<path fill="#FFEE00" stroke="#000000" stroke-width="1.6" stroke-miterlimit="10" d="M124.145,52.713
			c0.007-0.028,0.011-0.055,0.015-0.083C124.155,52.658,124.151,52.685,124.145,52.713z"/>
		<path fill="#FFEE00" stroke="#000000" stroke-width="1.6" stroke-miterlimit="10" d="M123.854,53.234
			c0.043-0.05,0.08-0.099,0.113-0.146C123.935,53.135,123.897,53.184,123.854,53.234z"/>
		<path fill="#FFEE00" stroke="#000000" stroke-width="1.6" stroke-miterlimit="10" d="M40.053,67.045
			c-0.025-0.004-0.05-0.007-0.074-0.011C40.002,67.038,40.027,67.041,40.053,67.045z"/>
		<path fill="#FFEE00" stroke="#000000" stroke-width="1.6" stroke-miterlimit="10" d="M37.452,66.4
			c-0.028-0.013-0.056-0.024-0.084-0.035C37.396,66.376,37.424,66.388,37.452,66.4z"/>
		<path fill="#FFEE00" stroke="#000000" stroke-width="1.6" stroke-miterlimit="10" d="M37.938,66.577
			c-0.017-0.006-0.033-0.012-0.05-0.018C37.904,66.565,37.921,66.571,37.938,66.577z"/>
		<path fill="#FFEE00" stroke="#000000" stroke-width="1.6" stroke-miterlimit="10" d="M37.687,66.49
			c-0.028-0.01-0.055-0.021-0.082-0.031C37.631,66.47,37.659,66.48,37.687,66.49z"/>
		<path fill="#FFEE00" stroke="#000000" stroke-width="1.6" stroke-miterlimit="10" d="M37.231,66.305
			c-0.026-0.012-0.052-0.024-0.077-0.036C37.179,66.281,37.206,66.293,37.231,66.305z"/>
		<path fill="#FFEE00" stroke="#000000" stroke-width="1.6" stroke-miterlimit="10" d="M39.259,66.909
			c-0.041-0.007-0.082-0.017-0.122-0.025C39.177,66.892,39.218,66.901,39.259,66.909z"/>
		<path fill="#FFEE00" stroke="#000000" stroke-width="1.6" stroke-miterlimit="10" d="M38.924,66.839
			c-0.041-0.009-0.081-0.018-0.121-0.027C38.843,66.821,38.884,66.83,38.924,66.839z"/>
		<path fill="#FFEE00" stroke="#000000" stroke-width="1.6" stroke-miterlimit="10" d="M39.609,66.974
			c-0.033-0.006-0.065-0.012-0.098-0.018C39.544,66.962,39.577,66.968,39.609,66.974z"/>
		<path fill="#FFEE00" stroke="#000000" stroke-width="1.6" stroke-miterlimit="10" d="M38.286,66.68
			c-0.026-0.007-0.054-0.015-0.079-0.021C38.231,66.666,38.259,66.673,38.286,66.68z"/>
		<path fill="#FFEE00" stroke="#000000" stroke-width="1.6" stroke-miterlimit="10" d="M38.604,66.764
			c-0.036-0.009-0.073-0.018-0.109-0.027C38.531,66.746,38.567,66.755,38.604,66.764z"/>
	</g>
	
		<path id="STROKE_60414004.2e..-31F4.2e..-4E49.2e..-9A50.2e..-81E65F76227C" fill="none" stroke="#000000" stroke-width="1.6" stroke-linecap="round" stroke-linejoin="round" d="
		M68.646,29.884c-2.177,0.419-4.397,13.811-4.856,15.986"/>
	
		<path id="STROKE_09324381.2e..-35B2.2e..-4E8A.2e..-8876.2e..-BEB70BC92DD4" fill="none" stroke="#000000" stroke-width="1.6" stroke-linecap="round" stroke-linejoin="round" d="
		M72.395,35.768c-0.835,1.356-9.163,1.707-10.972,2.279"/>
	
		<path id="STROKE_31AFAC26.2e..-2B52.2e..-441E.2e..-8550.2e..-6838DABD0599" fill="none" stroke="#000000" stroke-width="1.6" stroke-linecap="round" stroke-linejoin="round" d="
		M62.822,32.878c0.856,0.862,1.07,2.656,1.974,3.691"/>
	
		<path id="STROKE_85CBA992.2e..-831A.2e..-4AD4.2e..-8444.2e..-390B5CF9CEEF" fill="none" stroke="#000000" stroke-width="1.6" stroke-linecap="round" stroke-linejoin="round" d="
		M70.554,31.806c-1.215,0.999-2.249,2.463-3.219,3.691"/>
	
		<path id="STROKE_509CCC1A.2e..-B351.2e..-4ECA.2e..-9C41.2e..-6757E359CCBE" fill="none" stroke="#000000" stroke-width="1.6" stroke-linecap="round" stroke-linejoin="round" d="
		M63.333,39.682c0.34,1.424-3.987,4.64-4.991,5.561"/>
	
		<path id="STROKE_3293CEF2.2e..-54FC.2e..-45B4.2e..-85A7.2e..-68D0C0E638E6" fill="none" stroke="#000000" stroke-width="1.6" stroke-linecap="round" stroke-linejoin="round" d="
		M67.045,40.735c0.079,1.615,1.126,2.837,2.607,3.334"/>
</g>
</svg>
