<?xml version="1.0" encoding="utf-8"?>
<!-- Generator: Adobe Illustrator 16.0.0, SVG Export Plug-In . SVG Version: 6.00 Build 0)  -->
<!DOCTYPE svg PUBLIC "-//W3C//DTD SVG 1.1//EN" "http://www.w3.org/Graphics/SVG/1.1/DTD/svg11.dtd">
<svg version="1.1" id="Layer_1" xmlns="http://www.w3.org/2000/svg" xmlns:xlink="http://www.w3.org/1999/xlink" x="0px" y="0px"
	 width="160px" height="160px" viewBox="0 0 160 160" enable-background="new 0 0 160 160" xml:space="preserve">
<g id="h8">
	
		<path id="STROKE_7B49F11C.2e..-2B4A.2e..-4586.2e..-80BB.2e..-B3BF2BC56B07" fill="#FFEE00" stroke="#000000" stroke-width="1.6" stroke-miterlimit="10" d="
		M113.513,46.019c0.166,0.552,0.476,1.073,0.744,1.579c0.444,0.833,0.903,1.655,1.35,2.485c1.037,1.929,2.067,3.899,2.754,5.985
		c0.28,0.85,0.519,1.745,0.529,2.645c0.006,0.663-0.133,1.369-0.625,1.846c-0.543,0.524-1.287,0.616-1.998,0.46
		c-1.002-0.221-1.931-0.772-2.775-1.337c-1.968-1.316-3.752-2.971-5.326-4.733c-0.395-0.44-0.791-0.892-1.111-1.388"/>
	
		<path id="STROKE_43E0EAD4.2e..-800D.2e..-4745.2e..-AFF3.2e..-33F6AAE9826C" fill="#FFEE00" stroke="#000000" stroke-width="1.6" stroke-miterlimit="10" d="
		M83.071,35.17c0.73,0.081,1.461,0.211,2.154,0.455c0.467,0.165,0.932,0.385,1.305,0.717c0.525,0.467,0.736,1.139,0.457,1.801
		c-0.313,0.741-1.035,1.263-1.74,1.597c-0.97,0.46-2.068,0.632-3.137,0.562c-0.81-0.053-1.605-0.26-2.396-0.422
		c-1.005-0.206-2.009-0.41-3.016-0.595c-1.989-0.365-3.999-0.652-6.023-0.7c-2.042-0.048-4.091,0.163-6.058,0.729
		c-1.466,0.422-2.898,0.976-4.288,1.606c-2.885,1.31-5.609,2.992-8.065,4.994c-2.455,1.999-4.662,4.336-6.37,7.009
		c-0.825,1.292-1.529,2.664-2.068,4.1c-0.267,0.709-0.492,1.434-0.671,2.17c-0.082,0.333-0.127,0.661-0.123,1.004
		c0.011,0.766,0.2,1.524,0.438,2.246c0.307,0.927,0.714,1.819,1.168,2.682c1.094,2.08,2.467,4.019,3.985,5.809
		c1.567,1.845,3.318,3.565,5.293,4.971c1.628,1.159,3.508,2.199,5.528,2.414c0.639,0.067,1.289,0.043,1.915-0.106
		c-0.211-0.465-0.295-0.998-0.373-1.5c-0.123-0.791-0.187-1.593-0.216-2.393c-0.069-1.925,0.049-3.891,0.517-5.764
		c0.395-1.583,1.101-3.351,2.577-4.217c0.891-0.523,1.941-0.583,2.935-0.367c-0.614-1.4-1.616-2.615-2.534-3.823
		c-0.946-1.245-1.944-2.519-2.535-3.98c-0.129-0.32-0.236-0.65-0.307-0.988c-0.016-0.078-0.03-0.157-0.043-0.236
		c-0.015-0.096-0.013-0.124,0.046-0.201c0.093-0.121,0.194-0.237,0.301-0.347c0.451-0.467,0.997-0.837,1.565-1.146
		c1.284-0.698,2.719-1.125,4.149-1.401c3.295-0.636,6.665-0.166,9.889,0.64c3.686,0.922,7.24,2.287,10.885,3.354
		c3.204,0.939,6.545,1.711,9.902,1.365c2.77-0.287,5.42-1.285,7.744-2.806c2.347-1.536,4.348-3.565,5.994-5.828
		c1.69-2.326,3.022-4.91,3.998-7.614c0.892-2.473,1.491-5.061,1.722-7.681c0.161-1.834,0.135-3.695-0.205-5.508
		c-0.279-1.491-0.776-2.946-1.536-4.261c-0.684-1.183-1.575-2.239-2.625-3.113c-1.038-0.864-2.221-1.547-3.469-2.06
		c-1.303-0.536-2.678-0.891-4.069-1.106c-1.464-0.226-2.948-0.297-4.427-0.249c-1.523,0.05-3.042,0.227-4.54,0.511
		c-1.495,0.285-2.97,0.677-4.409,1.174c-1.387,0.478-2.738,1.054-4.036,1.739c-1.2,0.633-2.354,1.361-3.418,2.207
		c-0.948,0.754-1.829,1.606-2.556,2.577c-0.643,0.857-1.165,1.815-1.452,2.851c-0.272,0.986-0.315,2.025-0.103,3.027
		c0.24,1.137,0.788,2.185,1.488,3.106C82.483,34.523,82.77,34.855,83.071,35.17L83.071,35.17z"/>
	<path fill="#FFEE00" stroke="#000000" stroke-width="1.6" stroke-miterlimit="10" d="M94.711,29.504
		c1.921-0.918,4.733-1.821,6.493-0.093c0.705,0.691,1.072,1.653,1.254,2.607c0.238,1.26,0.189,2.568,0.023,3.834
		c-0.348,2.658-1.611,5.094-3.576,6.919c-0.83,0.771-1.779,1.433-2.82,1.886c-0.836,0.364-1.77,0.612-2.688,0.517
		c-0.916-0.094-1.708-0.584-2.129-1.413"/>
</g>
</svg>
