<?xml version="1.0" encoding="utf-8"?>
<!-- Generator: Adobe Illustrator 16.0.0, SVG Export Plug-In . SVG Version: 6.00 Build 0)  -->
<!DOCTYPE svg PUBLIC "-//W3C//DTD SVG 1.1//EN" "http://www.w3.org/Graphics/SVG/1.1/DTD/svg11.dtd">
<svg version="1.1" id="Layer_1" xmlns="http://www.w3.org/2000/svg" xmlns:xlink="http://www.w3.org/1999/xlink" x="0px" y="0px"
	 width="160px" height="160px" viewBox="0 0 160 160" enable-background="new 0 0 160 160" xml:space="preserve">
<g id="h18">
	<path fill="#131BA8" stroke="#000000" stroke-width="1.7" stroke-linecap="round" stroke-linejoin="round" d="M48.195,51.579
		c-1.07-0.718-3.467-0.551-4.615-0.633c2.394-1.295,4.688-2.838,6.114-5.226c1.06-1.776,1.031-3.75,0.75-5.747
		c-0.112-0.8-0.561-0.958,0.519-1.073c7.878-0.811,14.65-8.453,14.65-16.344c4.295,2.463,8.96,2.656,13.661,1.838
		c3.384-0.589,7.325-1.615,10.645-2.504c2.016-0.541,5.539-1.474,5.539-4.138c1.479,2.284,1.941,6.722,7.256,10.541
		c2.373,1.704,8.02,3.463,11.232,2.572c-1.271,1.941-2.781,3.711-4.088,5.627c-0.645,0.948-1.287,1.913-1.865,2.904
		c-0.461,0.79-0.725,1.76-1.501,2.318"/>
	<path fill="#383838" stroke="#000000" stroke-width="1.7" d="M117.274,54.4c-1.773-0.635-3.77-0.942-5.125-1.088l0,0
		c-0.965-0.104-1.605-0.126-1.605-0.126l-0.505,0.022c-10.569-0.476-23.974-0.458-34.812-0.022
		c-4.648,0.187-9.988,1.072-14.598,2.213l-0.046,0.002c-0.339,0.052-0.599,0.124-0.791,0.21l0,0
		c-1.571,0.705,1.363,2.417,2.631,2.823c1.716,0.543,3.463,0.779,5.207,1.192c3.385,0.801,7.413,1.016,10.892,1.117
		c3.962,0.115,7.931,0.231,11.89,0.036c5.373-0.265,10.77-0.221,16.126-0.791c1.626-0.173,12.955-1.209,12.832-3.716
		C119.319,55.279,118.134,54.708,117.274,54.4z"/>
	<path fill="#131BA8" stroke="#000000" stroke-width="1.7" d="M44.269,63.139c0.643-3.84,1.993-9.456,4.626-12.455
		c4.64-5.285,11.112-9.511,17.724-11.788c2.811-0.968,5.655-1.876,8.549-2.561c9.642-2.284,20.181-1.978,28.761,3.527
		c4.467,2.865,6.615,8.084,6.615,13.324c-10.85-0.581-23.744-0.466-35.317,0c-6.829,0.275-13.635,1.654-20.107,3.849
		C50.009,58.768,47.007,60.252,44.269,63.139z"/>
	<path fill="#C9C9C9" stroke="#000000" stroke-width="1.7" d="M99.669,48.38c0.238-0.628,0.393-1.331,0.436-2.076
		c0.152-2.634-0.741-6.177-2.936-6.871c-0.549-0.173-1.115-0.113-1.658,0.063c-1.033,0.335-1.915,0.691-2.441,2.017
		c-0.484,1.216-0.562,2.781-0.474,4.13c0.12,1.835,0.673,3.675,1.88,4.73C96.507,52.148,98.738,50.835,99.669,48.38z"/>
</g>
</svg>
