<svg xmlns="http://www.w3.org/2000/svg" viewBox="0 0 160 160"><defs><style>.cls-1{fill:#636363;}.cls-2{fill:#a8a8a8;}.cls-3{fill:#fff;}.cls-4{opacity:0.2;}</style></defs><title>Artboard 42 copy 107</title><path class="cls-1" d="M126.58,70.37s19.2,1.45,19.56,2.78c.12.45-18.24,9.65-17,9.08,0,0,2.45-5.79,2.09-7.12S126.58,70.37,126.58,70.37Z"/><path class="cls-2" d="M126,70.26s19.2,1.44,19.55,2.77c-5,1-14.6,2.38-14.6,2.38Z"/><path class="cls-3" d="M130.41,78.18l-11.63,1V74.47l10.85-.77s5,.45,5.23,1.21S132.1,77.89,130.41,78.18Z"/><path class="cls-3" d="M54.37,82.74l-36.48,2s-2.84.13-3-1.58h0c-.14-1.48.77-2.44,2.64-2.93l36.31-3.73a3.11,3.11,0,0,1,3.36,2.85h0A3.13,3.13,0,0,1,54.37,82.74Z"/><path class="cls-4" d="M54.37,82.74l-36.48,2c-1.82,0-2.78-.53-3-1.58,17-1.24,44.17-2.38,42.31-3.81C57.22,79.37,57.7,82,54.37,82.74Z"/></svg>