<svg xmlns="http://www.w3.org/2000/svg" xmlns:xlink="http://www.w3.org/1999/xlink" viewBox="0 0 160 160"><defs><style>.cls-1{fill:url(#radial-gradient);}.cls-2{opacity:0.05;}.cls-3{opacity:0.1;}.cls-4{fill:#dd8313;}.cls-5{fill:#754c24;opacity:0.5;}.cls-6{fill:#fff;}</style><radialGradient id="radial-gradient" cx="7495.91" cy="76.61" r="36.07" gradientTransform="matrix(-1, 0, 0, 1, 7617.47, 0)" gradientUnits="userSpaceOnUse"><stop offset="0" stop-color="#ffd22d"/><stop offset="0.87" stop-color="#fcb22b"/></radialGradient></defs><title>Artboard 42 copy 149</title><path class="cls-1" d="M139.51,67.76s-2.43,2.07,0,8.29,4.66,17.81-3.29,20.93c0,0-2.42,1.73-9.34.69l-7.6-.35s-2.43-.69-2.08-3.8,2.42-3.11,2.42-3.11-4.15-.35-4.15-3.46,2.42-3.46,2.42-3.46A4.08,4.08,0,0,1,115.47,80c0-2.42,3.11-3.46,3.11-3.46s9.69-.69,11.42.35c0,0-2.43-9,1-13.49a5.33,5.33,0,0,1,7.61-1.38A4.37,4.37,0,0,1,139.51,67.76Z"/><g class="cls-2"><path d="M139.51,67.76s-2.43,2.07,0,8.29,4.66,17.81-3.29,20.93c0,0-2.42,1.73-9.34.69,11.67-2.73,6.64-28.91,11.76-35.62A4.37,4.37,0,0,1,139.51,67.76Z"/></g><g class="cls-3"><rect x="118.23" y="82.86" width="5.47" height="0.78" rx="0.39" ry="0.39"/></g><g class="cls-3"><rect x="119.79" y="89.89" width="3.9" height="0.78" rx="0.39" ry="0.39"/></g><path class="cls-4" d="M54.85,66.22s7.46,12-5.43,27-27.06,8.39-27.06,8.39-7.53-12.93,6.2-27.21S54.85,66.22,54.85,66.22Z"/><path class="cls-5" d="M54.85,66.22s7.46,12-5.43,27-27.06,8.39-27.06,8.39C41.73,93.44,50.8,81.89,54.85,66.22Z"/><rect class="cls-6" x="39.2" y="70.75" width="1.41" height="26.75" rx="0.49" ry="0.49" transform="translate(14.59 173.73) rotate(-138.85)"/><rect class="cls-6" x="43.68" y="73.96" width="1.41" height="9.72" rx="0.49" ry="0.49" transform="matrix(0.66, -0.75, 0.75, 0.66, -44.17, 60.37)"/><rect class="cls-6" x="34.68" y="85.02" width="1.41" height="9.72" rx="0.49" ry="0.49" transform="translate(-55.57 57.38) rotate(-48.85)"/><rect class="cls-6" x="39.36" y="77.37" width="1.41" height="13.36" rx="0.49" ry="0.49" transform="translate(-49.59 58.91) rotate(-48.85)"/></svg>