<?xml version="1.0" encoding="utf-8"?>
<!-- Generator: Adobe Illustrator 22.0.1, SVG Export Plug-In . SVG Version: 6.00 Build 0)  -->
<svg version="1.1" id="Layer_1" xmlns="http://www.w3.org/2000/svg" xmlns:xlink="http://www.w3.org/1999/xlink" x="0px" y="0px"
	 viewBox="0 0 160 160" style="enable-background:new 0 0 160 160;" xml:space="preserve">
<style type="text/css">
	.st0{fill:url(#SVGID_1_);}
	.st1{fill:#FFFFFF;}
	.st2{opacity:5.000000e-02;}
	.st3{opacity:0.16;}
	.st4{fill:#515151;}
	.st5{fill:#303030;}
	.st6{opacity:0.5;fill:#FFFFFF;enable-background:new    ;}
</style>
<title>Artboard 42 copy 125</title>
<radialGradient id="SVGID_1_" cx="76.3082" cy="550" r="6.1459" gradientTransform="matrix(0.9899 -0.1418 -0.1418 -0.9899 19.7508 642.0073)" gradientUnits="userSpaceOnUse">
	<stop  offset="0" style="stop-color:#FFD22D"/>
	<stop  offset="0.87" style="stop-color:#FCB22B"/>
	<stop  offset="1" style="stop-color:#F28312"/>
</radialGradient>
<path class="st0" d="M12.5,83.5l8.5-1.2c1.9-0.3,3.7,1.1,4,3l0.1,0.8c0.3,1.9-1.1,3.7-3,4l-8.5,1.2c-1.9,0.3-3.7-1.1-4-3l-0.1-0.8
	C9.3,85.6,10.6,83.8,12.5,83.5z"/>
<path class="st1" d="M29,68.2c-1.8,2-2.6,4.7-2.2,7.4l0.1,2c0,0-9.9-2.9-9.6,5.2c0,0.7,0,1.4,0.1,2.1c0.3,6.7,1,9.7,5.1,12.2
	c4.6,2.7,5.2-1.8,8.1-0.3s18.4,12.8,22.8-2.1l0.6-6.5c0.3-3.3,2.2-5.4,0.8-11.8s-7.7-8.3-12.5-7.7c0,0-0.8,0.4-2.1-2
	S32.7,62.6,29,68.2z"/>
<g class="st2">
	<path d="M30.7,96.9c-3.1-1.1,18.4,12.8,22.8-2.1l0.5-6.6c0.3-3.3,2.2-5.4,0.8-11.8s-7.7-8.3-12.5-7.7
		C56.7,71.6,46.3,101.1,30.7,96.9z"/>
</g>
<g class="st3">
	<path d="M19,93.7c1,1.4,2.2,2.6,3.6,3.6c4.6,2.7,5.2-1.8,8.1-0.3c2.5,1.3,14.7,10.1,20.6,2.3c0.8-1.4,1.5-2.9,2.1-4.4
		c-1.2,2.1-6.1,3.4-10.9,2.8C36,97.1,32.2,92,28.1,92.1C21.3,94.8,19,93.7,19,93.7z"/>
</g>
<path class="st4" d="M26.4,83.6l5.6-0.5c0.3,0,0.5,0.2,0.5,0.5l0,0.1c0,0.3-0.2,0.5-0.5,0.5l-5.6,0.5c-0.3,0-0.5-0.2-0.5-0.5l0-0.1
	C25.9,83.9,26.1,83.6,26.4,83.6z"/>
<path class="st4" d="M26.7,85.8l5.6-0.5c0.3,0,0.5,0.2,0.5,0.5l0,0.1c0,0.3-0.2,0.5-0.5,0.5l-5.6,0.5c-0.3,0-0.5-0.2-0.5-0.5l0-0.1
	C26.2,86.1,26.4,85.8,26.7,85.8z"/>
<path class="st4" d="M26.9,88.4l5.7-0.5c0.3,0,0.5,0.2,0.5,0.5l0,0.1c0,0.3-0.2,0.5-0.5,0.5l-5.7,0.5c-0.3,0-0.5-0.2-0.5-0.5l0-0.1
	C26.4,88.6,26.6,88.4,26.9,88.4z"/>
<path class="st5" d="M44,115.1l-1-12.9l2-0.3l0.8,13C45.8,114.9,45.5,116.8,44,115.1z"/>
<path class="st5" d="M41.2,62.1l0.4,6.5c0.3,0.3,1.2,0.2,1.9,0.1L43,62C43,62,42.3,60.1,41.2,62.1z"/>
<polygon class="st1" points="41.5,49.2 44.4,54.3 50.2,54.8 46.3,59.1 47.6,64.8 42.3,62.4 37.3,65.4 38,59.6 33.5,55.8 39.3,54.6 
	"/>
<path class="st6" d="M42.5,54l0.8,1.4c0.1,0.2,0.3,0.4,0.6,0.4l1.6,0.1c0.4,0.1,0.7,0.5,0.6,0.9c0,0.1-0.1,0.2-0.2,0.4l-1.1,1.2
	c-0.2,0.2-0.2,0.4-0.2,0.7l0.4,1.6c0.1,0.4-0.2,0.8-0.6,0.9c-0.2,0-0.3,0-0.5,0l-1.5-0.7c-0.2-0.1-0.5-0.1-0.7,0l-1.4,0.8
	c-0.4,0.2-0.8,0.1-1-0.3c-0.1-0.1-0.1-0.3-0.1-0.4l0.2-1.6c0-0.2-0.1-0.5-0.2-0.7L38,57.6c-0.3-0.3-0.4-0.8-0.1-1.1
	c0.1-0.1,0.3-0.2,0.4-0.2l1.6-0.3c0.2-0.1,0.4-0.2,0.5-0.5l0.6-1.5c0.2-0.4,0.6-0.5,1-0.3C42.3,53.7,42.4,53.9,42.5,54z"/>
</svg>
