<?xml version="1.0" encoding="utf-8"?>
<!-- Generator: Adobe Illustrator 22.0.1, SVG Export Plug-In . SVG Version: 6.00 Build 0)  -->
<svg version="1.1" id="Layer_1" xmlns="http://www.w3.org/2000/svg" xmlns:xlink="http://www.w3.org/1999/xlink" x="0px" y="0px"
	 viewBox="0 0 160 160" style="enable-background:new 0 0 160 160;" xml:space="preserve">
<style type="text/css">
	.st0{fill:#E0E0E0;}
	.st1{opacity:0.1;fill:#FFFFFF;enable-background:new    ;}
	.st2{opacity:0.3;fill:#FFFFFF;enable-background:new    ;}
	.st3{fill:url(#SVGID_1_);}
	.st4{fill:#FFFFFF;}
	.st5{opacity:5.000000e-02;}
	.st6{opacity:0.16;}
	.st7{fill:#515151;}
	.st8{fill:#D8D8D8;}
</style>
<title>Artboard 42 copy 81</title>
<path class="st0" d="M35.3,98.3L35,105c-0.3-0.3,2.7,2.3,5,0l-0.4-7.8L35.3,98.3z"/>
<path class="st0" d="M126.4,99.8l-2,6.4c-0.2-0.4,2,2.9,4.8,1.3l1.2-6C129,101.5,127.5,100.9,126.4,99.8z"/>
<path class="st0" d="M33,48.2c0,0,0.9-4.3,3.5-1.7s5.8,16.1,2.4,23.9c-0.8,4.7-0.6,5.7-0.6,5.7c-1.1,0.5-2.4,0.5-3.5,0L33,48.2z"/>
<path class="st1" d="M36.5,46.4c0,0,6.5,9.6,2.4,23.9C39.4,76,38.6,48.1,36.5,46.4z"/>
<path class="st2" d="M33.6,48L33.6,48c0.3,0,0.5,0.2,0.5,0.5l1.7,26.9c0,0.3-0.2,0.5-0.5,0.5l0,0c-0.3,0-0.5-0.2-0.5-0.5l-1.7-26.9
	C33.1,48.3,33.3,48.1,33.6,48z"/>
<path class="st0" d="M134.2,54.2L131,69.2c0,0-1,4.5,3.6,5.5s5.9-1.9,6.2-3.4l3.2-15.1c0,0-1.2,0.1-2,3.9s-2.4,7.4-3.1,7.2
	c-0.2,0-0.4,0-0.6,0c-0.5-0.1-0.8-0.4-0.4-2.5c0.6-3,1.9-9,1.2-9.2s-2.7,8.9-2.7,8.9s-0.5,2.3-2,1.9s0.3-8.6,0.3-8.6
	S135.4,54,134.2,54.2z"/>
<path class="st2" d="M144,56.3c0,0-1.4,2.8-3,10.4c0,0-1.3,8.3-3.9,8.2c0,0,2.8,0.8,4.6-8.1L144,56.3z"/>
<path class="st2" d="M137.5,64.3l1.8-8.3c0,0-1.7,8.4-1.7,9.9s-0.8,1.4-0.8,1.4L137.5,64.3z"/>
<polygon class="st0" points="130.9,76 128.5,83.8 130.5,84 132.7,76.7 "/>
<radialGradient id="SVGID_1_" cx="-17.0718" cy="379.42" r="4.8905" gradientTransform="matrix(0.9899 -0.1418 -0.1418 -0.9899 87.4147 462.1234)" gradientUnits="userSpaceOnUse">
	<stop  offset="0" style="stop-color:#FFD22D"/>
	<stop  offset="0.87" style="stop-color:#FCB22B"/>
	<stop  offset="1" style="stop-color:#F28312"/>
</radialGradient>
<path class="st3" d="M13.2,86.3l6.1-0.9c1.7-0.2,3.3,0.9,3.5,2.6l0,0c0.2,1.7-0.9,3.3-2.6,3.5l-6.1,0.9c-1.7,0.2-3.3-0.9-3.5-2.6
	l0,0C10.4,88.1,11.5,86.6,13.2,86.3z"/>
<path class="st4" d="M26,74.2c-1.4,1.6-2.1,3.8-1.7,5.9l0.1,1.6c0,0-7.9-2.3-7.6,4.2c0,0.6,0,1.1,0.1,1.7c0.2,5.3,0.8,7.8,4.1,9.7
	c3.6,2.1,4.2-1.4,6.5-0.2s14.6,10.2,18.1-1.6l0.5-5.2c0.2-2.6,1.8-4.3,0.6-9.4s-6.1-6.6-10-6.1c0,0-0.6,0.3-1.7-1.6S29,69.7,26,74.2
	z"/>
<g class="st5">
	<path d="M27.4,97c-2.5-0.9,14.7,10.2,18.1-1.6l0.5-5.2c0.2-2.6,1.8-4.3,0.6-9.4s-6.1-6.6-10-6.1C48,76.9,39.8,100.4,27.4,97z"/>
</g>
<g class="st6">
	<path d="M18,94.4c0.8,1.1,1.8,2,2.9,2.8c3.6,2.1,4.2-1.4,6.5-0.2c2,1.1,11.7,8,16.4,1.9c0.7-1.1,1.2-2.3,1.7-3.5
		c-1,1.6-4.9,2.7-8.7,2.3c-5.2-0.5-8.3-4.6-11.5-4.4C19.9,95.4,18,94.4,18,94.4z"/>
</g>
<path class="st7" d="M24,86.4l4.4-0.4c0.2,0,0.5,0.2,0.5,0.4v0c0,0.2-0.2,0.5-0.4,0.5l-4.4,0.4c-0.2,0-0.5-0.2-0.5-0.4v0
	C23.6,86.7,23.7,86.5,24,86.4z"/>
<path class="st7" d="M24.2,88.2l4.4-0.4c0.2,0,0.5,0.2,0.5,0.4l0,0c0,0.2-0.2,0.5-0.4,0.5l-4.4,0.4c-0.2,0-0.5-0.2-0.5-0.4v0
	C23.8,88.4,24,88.2,24.2,88.2z"/>
<path class="st7" d="M24.5,89.9l4.4-0.4c0.2,0,0.5,0.2,0.5,0.4l0,0c0,0.2-0.2,0.5-0.4,0.5l-4.4,0.4c-0.2,0-0.5-0.2-0.5-0.4v0
	C24.1,90.2,24.2,90,24.5,89.9z"/>
<path class="st8" d="M124,77.5c-1.4,1.6-2,3.7-1.6,5.8l0.1,1.6l-3.3-0.3l-1.4,7.7c0.8,0.6,1.5,1.2,2.1,1.9c0.6,1,3.5,4.4,5.8,5.5
	c0.4,0.2,1.3,0.7,2.4,1.3c4.4,2.4,12.7,6,15.2-3.3l0.4-5.1c0.2-2.5,1.7-4.2,0.4-9.2s-6-6.3-9.8-5.8c0,0-0.6,0.3-1.7-1.5
	S126.8,73.1,124,77.5z"/>
<path class="st4" d="M127.2,100.5c4,2.3,13.4,7.1,16.1-2.8l0.4-5.1c0.2-2.5,1.7-4.2,0.4-9.2s-1.3-5-9.8-5.8
	c-7.8-0.7-5.5,11.9-7.8,20C126.2,98.4,126.6,100.1,127.2,100.5z"/>
<g class="st5">
	<path d="M125.7,99.7c-2.4-0.8,14.4,9.6,17.6-1.9l0.4-5.1c0.2-2.5,1.7-4.2,0.4-9.2s-6-6.3-9.8-5.8
		C145.4,79.7,137.8,102.7,125.7,99.7z"/>
</g>
<g class="st6">
	<path d="M117.8,92.3c0,0,5.7,6.2,7.9,7.4c2,1,11.6,7.6,16,1.5c0.6-1.1,1.2-2.3,1.6-3.4c-0.9,1.6-4.7,2.7-8.4,2.4
		c-5.1-0.3-8.1-4.3-11.3-4.1C121.8,94.5,119.8,93.3,117.8,92.3z"/>
</g>
</svg>
