<?xml version="1.0" encoding="utf-8"?>
<!-- Generator: Adobe Illustrator 22.0.1, SVG Export Plug-In . SVG Version: 6.00 Build 0)  -->
<svg version="1.1" id="Layer_1" xmlns="http://www.w3.org/2000/svg" xmlns:xlink="http://www.w3.org/1999/xlink" x="0px" y="0px"
	 viewBox="0 0 160 160" style="enable-background:new 0 0 160 160;" xml:space="preserve">
<style type="text/css">
	.st0{fill:#FFFFFF;}
	.st1{opacity:0.3;enable-background:new    ;}
	.st2{fill:#603813;}
	.st3{opacity:0.1;fill:#FFFFFF;enable-background:new    ;}
	.st4{opacity:0.16;fill:#FFFFFF;enable-background:new    ;}
</style>
<title>Artboard 42 copy 66</title>
<path class="st0" d="M124.6,80.7c0,0,20,0.3,18.6-12.5c0,0,9.6,11.1,1,20.9s-27.3,6.1-27.3,6.1L124.6,80.7z"/>
<path class="st1" d="M124.6,80.7c0,0,20,0.3,18.6-12.5c0,0,9.6,11.1,1,20.9s-27.3,6.1-27.3,6.1L124.6,80.7z"/>
<path class="st0" d="M123,80.3c0,0,20.5,1.6,20.2-12.1c8.4,22.4-21.7,19.4-21.7,19.4L123,80.3z"/>
<path class="st2" d="M118.5,75c0,0,7.1,1,7.3,11.2S114.8,98,114.8,98C118.3,90.9,119.6,82.9,118.5,75z"/>
<path class="st2" d="M38.2,78.1l9.6-4c0,0,8.6,0.9,9.5,11.4s-5.5,12.9-5.5,12.9l-10.3,0.2c0,0-4.5-3.1-5.2-11.3S38.2,78.1,38.2,78.1
	z"/>
<path class="st3" d="M38.2,78.1l9.6-4c5,1.5,9,4.3,9.5,11.4c-0.8-1.6-2.3-2.3-4.5-2.2L48,84.4l-5.7,1.4l-5.9,1.4
	C36.8,82.2,36.3,79.9,38.2,78.1z"/>
<ellipse transform="matrix(0.9968 -7.974522e-02 7.974522e-02 0.9968 -6.8972 3.6279)" class="st4" cx="42" cy="88.2" rx="4.9" ry="9.1"/>
<path class="st0" d="M41.7,80.6c0,0-15.6,2.1-20-2.9s-0.2-13.9-0.2-13.9s-11.1,6.4-10,19s25,13.8,30.3,12.4c0,0,3.6-1.8,3.3-7.5
	C45.1,81.9,41.7,80.6,41.7,80.6z"/>
<path class="st1" d="M41.7,80.6c0,0-15.6,2.1-20-2.9s-0.2-13.9-0.2-13.9s-11.1,6.4-10,19s25,13.8,30.3,12.4c0,0,3.6-1.8,3.3-7.5
	C45.1,81.9,41.7,80.6,41.7,80.6z"/>
<path class="st0" d="M41.7,80.6c0,0-15.6,2.1-20-2.9s-0.2-13.9-0.2-13.9C5.2,85.2,29.1,91.5,45,87.7C45.3,84.9,44,82.2,41.7,80.6z"
	/>
</svg>
