<?xml version="1.0" encoding="utf-8"?>
<!-- Generator: Adobe Illustrator 22.0.1, SVG Export Plug-In . SVG Version: 6.00 Build 0)  -->
<svg version="1.1" id="Layer_1" xmlns="http://www.w3.org/2000/svg" xmlns:xlink="http://www.w3.org/1999/xlink" x="0px" y="0px"
	 viewBox="0 0 160 160" style="enable-background:new 0 0 160 160;" xml:space="preserve">
<style type="text/css">
	.st0{opacity:0.12;}
	.st1{fill:url(#SVGID_1_);}
	.st2{opacity:0.5;}
	.st3{opacity:0.43;fill:#603813;enable-background:new    ;}
	.st4{fill:none;stroke:#00B1FE;stroke-width:2;stroke-linecap:round;stroke-linejoin:round;}
	.st5{opacity:0.42;}
</style>
<title>Artboard 42 copy 157</title>
<g class="st0">
	
		<linearGradient id="SVGID_1_" gradientUnits="userSpaceOnUse" x1="46.19" y1="80.055" x2="62.694" y2="80.055" gradientTransform="matrix(1 0 0 -1 0 162)">
		<stop  offset="0" style="stop-color:#FFFFFF"/>
		<stop  offset="1" style="stop-color:#000000"/>
	</linearGradient>
	<path class="st1" d="M55,100c-4.4,0-8.4-8.1-8.8-17.7c-0.4-9.8,3-18.2,7.5-18.4h0.2c4.4,0,8.4,8.1,8.8,17.7
		c0.4,9.8-3,18.2-7.5,18.4H55z"/>
	<path d="M53.9,62.9v2c3.4,0,7.4,6.9,7.8,16.8c0.3,4.3-0.4,8.7-2,12.7c-1.2,2.9-2.9,4.6-4.5,4.6H55c-3.4,0-7.4-6.9-7.8-16.8
		c-0.3-4.3,0.4-8.7,2-12.7c1.2-2.9,2.9-4.6,4.5-4.7h0.1L53.9,62.9 M53.8,62.9h-0.2c-5.1,0.2-8.9,8.9-8.4,19.4S50,101,55,101h0.2
		c5.1-0.2,8.9-8.9,8.4-19.4S58.8,62.9,53.8,62.9L53.8,62.9z"/>
</g>
<g class="st2">
	<ellipse transform="matrix(0.9992 -4.100374e-02 4.100374e-02 0.9992 -3.3141 2.3325)" cx="55.2" cy="82" rx="4" ry="9.7"/>
</g>
<path class="st3" d="M48.2,82.3c0.2,4,2.3,16,7.1,18.7c-5.1,0.2-9.6-8.2-10-18.7s3.3-19.2,8.4-19.4C49.1,64.5,48,78.3,48.2,82.3z"/>
<path class="st4" d="M37.4,100.8c-0.3-1-0.9-2.8-3.7-2.1c-3.5,1-2.7,5.7,1,5.7C38.5,103.7,37.4,100.8,37.4,100.8l-3.5-12.2l-1.3-4.7
	l-10,4.8l1.4,3.4l3.5,8.9l0.6,1.6c0,0,0.7,3.1-2.1,4.1c-1.7,0.7-3.7,0-4.5-1.7c-0.3-0.7-1-3.8,1.7-4.8c1.4-0.7,3.2-0.3,4.1,1"/>
<line class="st4" x1="23.9" y1="92.2" x2="34" y2="88.1"/>
<path class="st4" d="M55.9,32.1c-4.9,1.2-11.4,6.4-13.6,11.1"/>
<path class="st4" d="M58.4,36.8c-4,1-9.3,5.2-11.1,9.1"/>
<g class="st5">
	<path class="st4" d="M130.6,104.2c3.2-4,5.2-12,4.1-17.1"/>
	<path class="st4" d="M125.8,101.9c2.6-3.3,4.3-9.8,3.3-14"/>
</g>
</svg>
