<?xml version="1.0" encoding="utf-8"?>
<!-- Generator: Adobe Illustrator 22.0.1, SVG Export Plug-In . SVG Version: 6.00 Build 0)  -->
<svg version="1.1" id="Layer_1" xmlns="http://www.w3.org/2000/svg" xmlns:xlink="http://www.w3.org/1999/xlink" x="0px" y="0px"
	 viewBox="0 0 160 160" style="enable-background:new 0 0 160 160;" xml:space="preserve">
<style type="text/css">
	.st0{fill:#FFFFFF;}
	.st1{opacity:0.2;enable-background:new    ;}
	.st2{fill:url(#SVGID_1_);}
	.st3{opacity:5.000000e-02;}
	.st4{fill:url(#SVGID_2_);}
	.st5{fill:url(#SVGID_3_);}
	.st6{fill:url(#SVGID_4_);}
	.st7{fill:url(#SVGID_5_);}
	.st8{clip-path:url(#SVGID_7_);}
	.st9{fill:url(#SVGID_8_);}
	.st10{clip-path:url(#SVGID_10_);}
	.st11{clip-path:url(#SVGID_12_);}
	.st12{clip-path:url(#SVGID_14_);}
	.st13{fill:url(#SVGID_15_);}
	.st14{clip-path:url(#SVGID_17_);}
	.st15{fill:url(#SVGID_18_);}
	.st16{clip-path:url(#SVGID_20_);}
	.st17{clip-path:url(#SVGID_22_);}
	.st18{clip-path:url(#SVGID_24_);}
</style>
<title>Artboard 42 copy 15</title>
<path class="st0" d="M57.5,80.2c-0.2-1.4-1.4-2.4-2.9-2.2c0,0,0,0,0,0l-16,2.4l-2.3-8c0,0,0-2-1.7-0.7l2.6,8.9l-3.8,0.6l-2.3-7.9
	c0,0,0-2-1.7-0.7l2.6,8.9l-2.2,0.3c0.4,1.3,0.5,2.6,0.2,3.9l3.4-0.3l2.4,8.4h0.1c-0.2,0.5,0.1,1,0.5,1.1c0.4,0.2,0.8,0,1.1-0.4h0.1
	l0-0.2c0.1-0.3,0-0.7-0.2-0.9l-2.4-8.4l3.6-0.4l2.6,8.9h0.1c-0.2,0.4,0,1,0.4,1.2l0,0c0.1,0.1,0.3,0.2,0.5,0.2c0.6,0,1-0.5,1-1
	c0-0.4-0.3-0.8-0.7-0.9l-2.4-8.4l15.4-1.6C56.7,82.9,57.7,81.6,57.5,80.2z"/>
<path class="st1" d="M55.3,83.1l-15.4,1.6l-0.5-1.6c0,0,18.8-2.3,18-2.9C57.5,80.2,58,82.3,55.3,83.1z"/>
<radialGradient id="SVGID_1_" cx="163.1689" cy="-128.7891" r="8.3908" gradientTransform="matrix(0.9931 0.1172 0.1172 -0.9931 -125.2816 -62.7836)" gradientUnits="userSpaceOnUse">
	<stop  offset="0" style="stop-color:#FFD22D"/>
	<stop  offset="0.87" style="stop-color:#FCB22B"/>
	<stop  offset="1" style="stop-color:#F28312"/>
</radialGradient>
<circle class="st2" cx="21.7" cy="84.2" r="8.4"/>
<g class="st3">
	<path d="M30,85.2c-0.5,4.6-4.7,7.9-9.3,7.4c-2.2-0.3-4.2-1.4-5.6-3.1c2.1,0.8,7.5,1.5,10.9-1.8c2.5-2.4,2.6-6.8,2-9
		C29.6,80.5,30.3,82.9,30,85.2z"/>
</g>
<linearGradient id="SVGID_2_" gradientUnits="userSpaceOnUse" x1="123.4049" y1="-129.5333" x2="123.4049" y2="-121.2633" gradientTransform="matrix(0.9 0.11 0.12 -0.99 -73.61 -57.13)">
	<stop  offset="0" style="stop-color:#FFD22D;stop-opacity:0"/>
	<stop  offset="0.81" style="stop-color:#FFFCEF;stop-opacity:0.7"/>
	<stop  offset="1" style="stop-color:#FFFFFF;stop-opacity:0.8"/>
</linearGradient>
<path class="st4" d="M29.1,85.5c-0.6,1.5-3.9-2.5-7-2.7s-7,2.4-7.4,1c0.5-4.3,4.1-7.4,8.1-7S29.6,81.2,29.1,85.5z"/>
<radialGradient id="SVGID_3_" cx="304.5887" cy="-148.249" r="7.3907" gradientTransform="matrix(0.9909 0.1345 0.1345 -0.9909 -142.5222 -111.3834)" gradientUnits="userSpaceOnUse">
	<stop  offset="0" style="stop-color:#FFD22D"/>
	<stop  offset="0.87" style="stop-color:#FCB22B"/>
	<stop  offset="1" style="stop-color:#F28312"/>
</radialGradient>
<path class="st5" d="M146.7,77.5c-0.5,4-4.3,6.9-8.3,6.3c-2.8-0.4-5.1-2.3-6-4.9c-0.1-0.4,4.6,0.1,4.6-1.9c0-1-1.7-1-3-0.9l-2,0.2
	c0,0,0-0.5,0.1-0.8c0.6-4,4.3-6.9,8.3-6.3S147.3,73.4,146.7,77.5L146.7,77.5z"/>
<g class="st3">
	<path d="M146.7,77.5c-0.6,4-4.3,6.9-8.3,6.3c-1.9-0.3-3.7-1.3-4.8-2.8c1.9,0.7,6.6,1.5,9.6-1.4c2.2-2.1,2.4-6,1.9-7.9
		C146.3,73.3,147,75.4,146.7,77.5z"/>
</g>
<path class="st0" d="M137.1,76.5c-0.2-0.8-2.3-0.5-2.3-0.5l-6.4,0.5l-1.5-5.7c0,0,0-1.4-1.2-0.5l1.7,6.3l-3.3,0.3l-1.6-5.8
	c0,0,0-1.4-1.2-0.5l1.7,6.4l-3.7,0.3l0.1,3.2l4.6-0.6l2.1,8h0.1l0,0c-0.2,0.4,0,0.9,0.3,1.1c0.4,0.2,0.8,0,1-0.3h0.1v-0.2
	c0.1-0.3,0-0.6-0.2-0.8l-2.1-8l3.1-0.4l2.3,8.5h0.1l0,0c-0.2,0.4,0,0.8,0.4,1c0.4,0.2,0.8,0,1-0.3l0,0h0.1v-0.2
	c0.1-0.3,0-0.6-0.2-0.8l-2.3-8.5l5.5-0.7C136.9,78.3,137.3,77.5,137.1,76.5z"/>
<linearGradient id="SVGID_4_" gradientUnits="userSpaceOnUse" x1="276.3559" y1="-148.9532" x2="276.3559" y2="-141.6732" gradientTransform="matrix(0.9 0.12 0.13 -0.99 -89.69 -104.49)">
	<stop  offset="0" style="stop-color:#FFD22D;stop-opacity:0"/>
	<stop  offset="0.81" style="stop-color:#FFFCEF;stop-opacity:0.7"/>
	<stop  offset="1" style="stop-color:#FFFFFF;stop-opacity:0.8"/>
</linearGradient>
<path class="st6" d="M145.9,77.7c-0.6,1.3-3.4-2.2-6.1-2.5s-6.2,2-6.5,0.8c0.5-3.8,3.8-6.5,7.2-6C144.1,70.6,146.5,74.1,145.9,77.7z
	"/>
<polygon class="st1" points="123.9,80 119.3,80.5 119.3,79.1 123.3,78.7 123.5,78.6 "/>
<polygon class="st1" points="128.3,79.4 125.2,79.8 124.9,78.4 128,78.1 "/>
<path class="st1" d="M134.4,78.7l-4.7,0.6l-0.4-1.4l7.5-0.9C136.8,77.1,137.6,77.9,134.4,78.7z"/>
<circle class="st1" cx="131.4" cy="88.3" r="0.8"/>
<circle class="st1" cx="126.8" cy="88.3" r="0.8"/>
<linearGradient id="SVGID_5_" gradientUnits="userSpaceOnUse" x1="-266.1452" y1="-2066.3301" x2="-266.1452" y2="-2049.7139" gradientTransform="matrix(1 0 0 1 0 3082.3301)">
	<stop  offset="0" style="stop-color:#A66707"/>
	<stop  offset="1" style="stop-color:#000000"/>
</linearGradient>
<path class="st7" d="M-255.1,1020.8c-2.7-3-6.6-4.8-10.6-4.8l0,0h-0.2h-0.2l0,0c-10.6,1.1-18.1,10.4-15.3,15.3
	c2.5,5.5,19.9-8.3,27.8,0.6c2.4,1.3,3.7-1,3.2-3.4C-250.8,1026.3-252.2,1024-255.1,1020.8z"/>
<g>
	<defs>
		<path id="SVGID_6_" d="M-255.1,1020.8c-2.7-3-6.6-4.8-10.6-4.8l0,0h-0.2h-0.2l0,0c-10.6,1.1-18.1,10.4-15.3,15.3
			c2.5,5.5,19.9-8.3,27.8,0.6c2.4,1.3,3.7-1,3.2-3.4C-250.8,1026.3-252.2,1024-255.1,1020.8z"/>
	</defs>
	<clipPath id="SVGID_7_">
		<use xlink:href="#SVGID_6_"  style="overflow:visible;"/>
	</clipPath>
	<g class="st8">
		
			<linearGradient id="SVGID_8_" gradientUnits="userSpaceOnUse" x1="-346.015" y1="-1273.1499" x2="-346.015" y2="558.07" gradientTransform="matrix(1 0 0 -1 0 162)">
			<stop  offset="0" style="stop-color:#A66707"/>
			<stop  offset="1" style="stop-color:#000000"/>
		</linearGradient>
		<rect x="-849.1" y="-396.1" class="st9" width="1006.2" height="1831.2"/>
	</g>
</g>
<path class="st0" d="M-281.2,1025.6c0,0-1.8,3.4-0.3,5.7c2.5,5.5,19.9-8.3,27.8,0.6c0.4-2.9,0.5-5.9,0.4-8.8
	C-253.2,1023-281.2,1026.4-281.2,1025.6z"/>
<g>
	<defs>
		<path id="SVGID_9_" d="M-281.2,1025.6c0,0-1.8,3.4-0.3,5.7c2.5,5.5,19.9-8.3,27.8,0.6c0.4-2.9,0.5-5.9,0.4-8.8
			C-253.2,1023-281.2,1026.4-281.2,1025.6z"/>
	</defs>
	<clipPath id="SVGID_10_">
		<use xlink:href="#SVGID_9_"  style="overflow:visible;"/>
	</clipPath>
	<g class="st10">
		<rect x="-849.1" y="-396.1" class="st0" width="1006.2" height="1831.2"/>
	</g>
</g>
<path class="st0" d="M-255.1,1020.8c-2.7-3-6.6-4.8-10.6-4.8l0,0h-0.2h-0.2l0,0c-5.4,0.7-10.3,3.4-13.8,7.6c0,0,27.1-0.2,26.6-0.8
	S-254.4,1021.5-255.1,1020.8z"/>
<g>
	<defs>
		<path id="SVGID_11_" d="M-255.1,1020.8c-2.7-3-6.6-4.8-10.6-4.8l0,0h-0.2h-0.2l0,0c-5.4,0.7-10.3,3.4-13.8,7.6
			c0,0,27.1-0.2,26.6-0.8S-254.4,1021.5-255.1,1020.8z"/>
	</defs>
	<clipPath id="SVGID_12_">
		<use xlink:href="#SVGID_11_"  style="overflow:visible;"/>
	</clipPath>
	<g class="st11">
		<rect x="-849.1" y="-396.1" class="st0" width="1006.2" height="1831.2"/>
	</g>
</g>
<g class="st3">
	<path d="M-255.1,1020.8c-1.9-2.8-7.4-4.4-7.4-4.4c0.5,1.6,0.5,5.6-0.1,6.9c0,0,9.4-0.3,9.3-0.5
		C-253.8,1022.2-254.4,1021.5-255.1,1020.8z"/>
	<g>
		<defs>
			<path id="SVGID_13_" d="M-255.1,1020.8c-1.9-2.8-7.4-4.4-7.4-4.4c0.5,1.6,0.5,5.6-0.1,6.9c0,0,9.4-0.3,9.3-0.5
				C-253.8,1022.2-254.4,1021.5-255.1,1020.8z"/>
		</defs>
		<clipPath id="SVGID_14_">
			<use xlink:href="#SVGID_13_"  style="overflow:visible;"/>
		</clipPath>
		<g class="st12">
			<rect x="-849.1" y="-396.1" width="1006.2" height="1831.2"/>
		</g>
	</g>
</g>
<path class="st1" d="M33.4,85.3l-3.4,0.3c0.1-0.5,0.1-1,0.1-1.5l2.6-0.3L33,84L33.4,85.3z"/>
<polygon class="st1" points="37.8,83.3 38.3,84.7 34.8,85.1 34.8,85.1 34.3,83.9 "/>
<circle class="st1" cx="42" cy="94" r="1"/>
<circle class="st1" cx="36.7" cy="94.2" r="0.9"/>
<linearGradient id="SVGID_15_" gradientUnits="userSpaceOnUse" x1="453.8548" y1="-2060.3301" x2="453.8548" y2="-2043.7139" gradientTransform="matrix(1 0 0 1 0 3082.3301)">
	<stop  offset="0" style="stop-color:#A66707"/>
	<stop  offset="1" style="stop-color:#000000"/>
</linearGradient>
<path class="st13" d="M464.9,1026.8c-2.7-3-6.6-4.8-10.6-4.8l0,0h-0.2h-0.2l0,0c-10.6,1.1-18.1,10.4-15.3,15.3
	c2.5,5.5,19.9-8.3,27.8,0.6c2.4,1.3,3.7-1,3.2-3.4C469.2,1032.3,467.8,1030,464.9,1026.8z"/>
<g>
	<defs>
		<path id="SVGID_16_" d="M464.9,1026.8c-2.7-3-6.6-4.8-10.6-4.8l0,0h-0.2h-0.2l0,0c-10.6,1.1-18.1,10.4-15.3,15.3
			c2.5,5.5,19.9-8.3,27.8,0.6c2.4,1.3,3.7-1,3.2-3.4C469.2,1032.3,467.8,1030,464.9,1026.8z"/>
	</defs>
	<clipPath id="SVGID_17_">
		<use xlink:href="#SVGID_16_"  style="overflow:visible;"/>
	</clipPath>
	<g class="st14">
		
			<linearGradient id="SVGID_18_" gradientUnits="userSpaceOnUse" x1="373.985" y1="-1279.1499" x2="373.985" y2="552.07" gradientTransform="matrix(1 0 0 -1 0 162)">
			<stop  offset="0" style="stop-color:#A66707"/>
			<stop  offset="1" style="stop-color:#000000"/>
		</linearGradient>
		<rect x="-129.1" y="-390.1" class="st15" width="1006.2" height="1831.2"/>
	</g>
</g>
<path class="st0" d="M438.8,1031.6c0,0-1.8,3.4-0.3,5.7c2.5,5.5,19.9-8.3,27.8,0.6c0.4-2.9,0.5-5.9,0.5-8.8
	C466.8,1029,438.8,1032.4,438.8,1031.6z"/>
<g>
	<defs>
		<path id="SVGID_19_" d="M438.8,1031.6c0,0-1.8,3.4-0.3,5.7c2.5,5.5,19.9-8.3,27.8,0.6c0.4-2.9,0.5-5.9,0.5-8.8
			C466.8,1029,438.8,1032.4,438.8,1031.6z"/>
	</defs>
	<clipPath id="SVGID_20_">
		<use xlink:href="#SVGID_19_"  style="overflow:visible;"/>
	</clipPath>
	<g class="st16">
		<rect x="-129.1" y="-390.1" class="st0" width="1006.2" height="1831.2"/>
	</g>
</g>
<path class="st0" d="M464.9,1026.8c-2.7-3-6.6-4.8-10.6-4.8l0,0h-0.2h-0.2l0,0c-5.4,0.7-10.3,3.4-13.8,7.6c0,0,27.1-0.2,26.6-0.8
	S465.6,1027.5,464.9,1026.8z"/>
<g>
	<defs>
		<path id="SVGID_21_" d="M464.9,1026.8c-2.7-3-6.6-4.8-10.6-4.8l0,0h-0.2h-0.2l0,0c-5.4,0.7-10.3,3.4-13.8,7.6
			c0,0,27.1-0.2,26.6-0.8S465.6,1027.5,464.9,1026.8z"/>
	</defs>
	<clipPath id="SVGID_22_">
		<use xlink:href="#SVGID_21_"  style="overflow:visible;"/>
	</clipPath>
	<g class="st17">
		<rect x="-129.1" y="-390.1" class="st0" width="1006.2" height="1831.2"/>
	</g>
</g>
<g class="st3">
	<path d="M464.9,1026.8c-1.9-2.8-7.4-4.4-7.4-4.4c0.5,1.6,0.5,5.6-0.1,6.9c0,0,9.4-0.3,9.3-0.5
		C466.2,1028.2,465.6,1027.5,464.9,1026.8z"/>
	<g>
		<defs>
			<path id="SVGID_23_" d="M464.9,1026.8c-1.9-2.8-7.4-4.4-7.4-4.4c0.5,1.6,0.5,5.6-0.1,6.9c0,0,9.4-0.3,9.3-0.5
				C466.2,1028.2,465.6,1027.5,464.9,1026.8z"/>
		</defs>
		<clipPath id="SVGID_24_">
			<use xlink:href="#SVGID_23_"  style="overflow:visible;"/>
		</clipPath>
		<g class="st18">
			<rect x="-129.1" y="-390.1" width="1006.2" height="1831.2"/>
		</g>
	</g>
</g>
</svg>
