<?xml version="1.0" encoding="utf-8"?>
<!-- Generator: Adobe Illustrator 22.0.1, SVG Export Plug-In . SVG Version: 6.00 Build 0)  -->
<svg version="1.1" id="Layer_1" xmlns="http://www.w3.org/2000/svg" xmlns:xlink="http://www.w3.org/1999/xlink" x="0px" y="0px"
	 viewBox="0 0 160 160" style="enable-background:new 0 0 160 160;" xml:space="preserve">
<style type="text/css">
	.st0{fill:#FCB22B;}
	.st1{opacity:0.1;enable-background:new    ;}
	.st2{fill:#FFFFFF;}
	.st3{fill:url(#SVGID_1_);}
	.st4{opacity:0.5;fill:url(#SVGID_2_);enable-background:new    ;}
	.st5{fill:url(#SVGID_3_);}
	.st6{fill:url(#SVGID_4_);}
	.st7{fill:url(#SVGID_5_);}
	.st8{fill:url(#SVGID_6_);}
	.st9{fill:url(#SVGID_7_);}
	.st10{opacity:0.1;}
</style>
<title>Artboard 42 copy 129</title>
<path class="st0" d="M116.1,68l0.5,0.2c3.3,0.9,5.8,3.5,6.7,6.8c0,0,8.5-0.1,12.2,6l8.9,3.4l-0.1,3l-16.9,19.3l-1.2,5
	c0,0-1.1,3-6.2,3.7l-9.8-4.4c0,0,0.2-5,2.3-5.9s7.2-3.7,8.2-3.6s5.6-12.8,5.6-12.8s-4.4,2.6-9,1.7C119,79,117,75,116.1,68z"/>
<path class="st1" d="M116.4,70.3c0,0,4.6,2.7,5.6,6.7c0,0,7,1,9,6l3,1l-11,19l-8,5c-1.2,1-2.2,2.3-2.9,3.8L110,111
	c0,0,0.3-4.8,3.2-6.4c2.6-1.3,5.2-2.6,7.8-3.6l5-12c-3.3,1.3-6.4,1.8-9,1C118.4,84.1,118.1,77.5,116.4,70.3z"/>
<path class="st2" d="M26,75l2,24l-2,2v3.3c0.1,1.1,0.9,2.1,2,2.3c3.9,0.8,8,0.9,12,0.4c3.2-0.2,6.3-0.8,9.2-1.9
	c0.9-0.5,1.5-1.4,1.5-2.5L50,99l-2-2l-2-23"/>
<linearGradient id="SVGID_1_" gradientUnits="userSpaceOnUse" x1="28.1335" y1="71.6258" x2="46.3735" y2="73.0558" gradientTransform="matrix(1 0 0 -1 0 162)">
	<stop  offset="0" style="stop-color:#FFD22D"/>
	<stop  offset="0.87" style="stop-color:#FCB22B"/>
	<stop  offset="1" style="stop-color:#F28312"/>
</linearGradient>
<path class="st3" d="M28.2,75.2l2.1,23.7l-3.1,3c0,0,0,1.3,4.2,2c5.7,2.2,14.9-0.1,17.6-1.9c2.1-0.9,0.4-2,0.4-2l-2.1-3l-2.1-22.7
	L28.2,75.2z"/>
<ellipse transform="matrix(0.9977 -6.836356e-02 6.836356e-02 0.9977 -5.0105 2.6362)" class="st2" cx="36" cy="74.5" rx="10" ry="2.5"/>
<linearGradient id="SVGID_2_" gradientUnits="userSpaceOnUse" x1="28.3385" y1="59.6008" x2="51.3421" y2="59.6008" gradientTransform="matrix(1 0 0 -1 -1.34 162.06)">
	<stop  offset="0" style="stop-color:#FFD22D"/>
	<stop  offset="0.87" style="stop-color:#FCB22B"/>
	<stop  offset="1" style="stop-color:#F28312"/>
</linearGradient>
<path class="st4" d="M50,101.2c0.1,1.7-5,4.4-11.3,4.8s-11.6-1.6-11.7-3.3s5-3.4,11.3-3.8S49.9,99.5,50,101.2z"/>
<linearGradient id="SVGID_3_" gradientUnits="userSpaceOnUse" x1="74.7034" y1="464.0522" x2="78.1334" y2="464.3222" gradientTransform="matrix(0.9977 -6.836355e-02 -5.469084e-02 -0.7981 -18.5881 464.7272)">
	<stop  offset="0" style="stop-color:#FFD22D;stop-opacity:0"/>
	<stop  offset="0.81" style="stop-color:#FFFCEF;stop-opacity:0.7"/>
	<stop  offset="1" style="stop-color:#FFFFFF;stop-opacity:0.8"/>
</linearGradient>
<path class="st5" d="M31.8,81L31.8,81c0.8-0.1,1.5,0.6,1.6,1.4l0.9,13c0.1,0.8-0.6,1.5-1.4,1.6l0,0c-0.8,0.1-1.5-0.6-1.6-1.4
	l-0.9-13C30.4,81.8,31,81.1,31.8,81z"/>
<linearGradient id="SVGID_4_" gradientUnits="userSpaceOnUse" x1="79.6932" y1="463.7147" x2="83.1232" y2="463.9847" gradientTransform="matrix(0.9977 -6.836355e-02 -5.469084e-02 -0.7981 -18.5766 464.7972)">
	<stop  offset="0" style="stop-color:#FFD22D;stop-opacity:0"/>
	<stop  offset="0.81" style="stop-color:#FFFCEF;stop-opacity:0.7"/>
	<stop  offset="1" style="stop-color:#FFFFFF;stop-opacity:0.8"/>
</linearGradient>
<path class="st6" d="M36.8,81L36.8,81c0.8-0.1,1.5,0.6,1.6,1.4l0.9,13c0.1,0.8-0.6,1.5-1.4,1.6l0,0c-0.8,0.1-1.5-0.6-1.6-1.4
	l-0.9-13C35.4,81.8,36,81.1,36.8,81z"/>
<linearGradient id="SVGID_5_" gradientUnits="userSpaceOnUse" x1="84.7532" y1="464.6147" x2="88.1832" y2="464.8847" gradientTransform="matrix(0.9977 -6.836355e-02 -5.469084e-02 -0.7981 -18.5756 464.8619)">
	<stop  offset="0" style="stop-color:#FFD22D;stop-opacity:0"/>
	<stop  offset="0.81" style="stop-color:#FFFCEF;stop-opacity:0.7"/>
	<stop  offset="1" style="stop-color:#FFFFFF;stop-opacity:0.8"/>
</linearGradient>
<path class="st7" d="M41.8,80L41.8,80c0.8-0.1,1.5,0.6,1.6,1.4l0.9,13c0.1,0.8-0.6,1.5-1.4,1.6l0,0c-0.8,0.1-1.5-0.6-1.6-1.4
	l-0.9-13C40.4,80.8,41,80.1,41.8,80z"/>
<linearGradient id="SVGID_6_" gradientUnits="userSpaceOnUse" x1="17.9891" y1="218.6872" x2="18.1691" y2="202.6572" gradientTransform="matrix(1 0 0 -0.8 0 -1033.72)">
	<stop  offset="0" style="stop-color:#FFD22D;stop-opacity:0"/>
	<stop  offset="0.81" style="stop-color:#FFFCEF;stop-opacity:0.7"/>
	<stop  offset="1" style="stop-color:#FFFFFF;stop-opacity:0.8"/>
</linearGradient>
<path class="st8" d="M46,74c0,2-2,4-11,5s-9-4-9-4"/>
<path class="st2" d="M28.8,76.9c0,0-6.8,2.2-5.8-4.4c0,0-4.1-5.5,1-5.5c0,0,1-4.4,5.1,0c0,0,4.1-7.7,8.2,1.1c0,0,3.1-4.4,5.2,2.2
	c0,0,6.4,2.4,1.6,5.1S30.5,78,28.8,76.9z"/>
<linearGradient id="SVGID_7_" gradientUnits="userSpaceOnUse" x1="25.4296" y1="89.7351" x2="41.7296" y2="91.0251" gradientTransform="matrix(1 0 0 -1 0 162)">
	<stop  offset="0" style="stop-color:#FFD22D;stop-opacity:0.5"/>
	<stop  offset="0.81" style="stop-color:#FFFCEF;stop-opacity:0.7"/>
	<stop  offset="1" style="stop-color:#FFFFFF;stop-opacity:0.8"/>
</linearGradient>
<path class="st9" d="M29.8,76.4c0,0-5.8,1.8-4.9-3.4c0,0-3.5-4.3,0.9-4.3c0,0,0.9-3.5,4.4,0c0,0,3.5-6.1,7,0.9c0,0,2.6-3.5,4.3,1.7
	c0,0,5.4,2,1.4,4S31.2,77.3,29.8,76.4z"/>
<g class="st10">
	<path d="M38.5,68.4c0,0,1.5-0.4,1.5,2.6c0,1.7-1,3.3-2.6,3.9c0,0,0.6-0.9,1.6,0.1s-1.3,1.7-1.3,1.7s5.4-0.3,7.3-2.5S42,71,42,71
		S42,67.9,38.5,68.4z"/>
</g>
<g class="st10">
	<path d="M30,70c0,0,0.9,3.1,3.9,2.6C33.9,72.6,31,75,30,70z"/>
</g>
<g class="st10">
	<path d="M26.9,71.1c1,0.7,2.4,0.5,3.2-0.4C30.1,70.7,29.6,73.3,26.9,71.1z"/>
</g>
<g class="st10">
	<path d="M35.7,72.5c1.1-0.5,1.8-1.7,1.4-2.9C37.1,69.7,39,71.5,35.7,72.5z"/>
</g>
</svg>
