<?xml version="1.0" encoding="utf-8"?>
<!-- Generator: Adobe Illustrator 22.0.1, SVG Export Plug-In . SVG Version: 6.00 Build 0)  -->
<svg version="1.1" id="Layer_1" xmlns="http://www.w3.org/2000/svg" xmlns:xlink="http://www.w3.org/1999/xlink" x="0px" y="0px"
	 viewBox="0 0 160 160" style="enable-background:new 0 0 160 160;" xml:space="preserve">
<style type="text/css">
	.st0{fill:url(#SVGID_1_);}
	.st1{opacity:5.000000e-02;}
	.st2{opacity:0.1;}
	.st3{fill:#DD8313;}
	.st4{opacity:0.5;fill:#754C24;enable-background:new    ;}
	.st5{fill:#FFFFFF;}
</style>
<title>Artboard 42 copy 9</title>
<radialGradient id="SVGID_1_" cx="2425.9099" cy="85.39" r="36.07" gradientTransform="matrix(-1 0 0 -1 2547.47 162)" gradientUnits="userSpaceOnUse">
	<stop  offset="0" style="stop-color:#FFD22D"/>
	<stop  offset="0.87" style="stop-color:#FCB22B"/>
</radialGradient>
<path class="st0" d="M139.5,67.8c0,0-2.4,2.1,0,8.3s4.7,17.8-3.3,20.9c0,0-2.4,1.7-9.3,0.7l-7.6-0.3c0,0-2.4-0.7-2.1-3.8
	s2.4-3.1,2.4-3.1s-4.2-0.3-4.2-3.5s2.4-3.5,2.4-3.5c-1.4-0.6-2.3-2-2.4-3.5c0-2.4,3.1-3.5,3.1-3.5s9.7-0.7,11.4,0.3
	c0,0-2.4-9,1-13.5c1.6-2.5,4.9-3.2,7.4-1.5c0.1,0.1,0.2,0.1,0.2,0.2C140.3,63.4,140.7,65.9,139.5,67.8z"/>
<g class="st1">
	<path d="M139.5,67.8c0,0-2.4,2.1,0,8.3s4.7,17.8-3.3,20.9c0,0-2.4,1.7-9.3,0.7c11.7-2.7,6.6-28.9,11.8-35.6
		C140.3,63.5,140.7,65.9,139.5,67.8z"/>
</g>
<g class="st2">
	<path d="M118.6,82.9h4.7c0.2,0,0.4,0.2,0.4,0.4l0,0c0,0.2-0.2,0.4-0.4,0.4h-4.7c-0.2,0-0.4-0.2-0.4-0.4l0,0
		C118.2,83,118.4,82.9,118.6,82.9z"/>
</g>
<g class="st2">
	<path d="M120.2,89.9h3.1c0.2,0,0.4,0.2,0.4,0.4l0,0c0,0.2-0.2,0.4-0.4,0.4h-3.1c-0.2,0-0.4-0.2-0.4-0.4l0,0
		C119.8,90.1,120,89.9,120.2,89.9z"/>
</g>
<path class="st3" d="M54.8,66.2c0,0,7.5,12-5.4,27s-27.1,8.4-27.1,8.4s-7.5-12.9,6.2-27.2S54.8,66.2,54.8,66.2z"/>
<path class="st4" d="M54.8,66.2c0,0,7.5,12-5.4,27s-27.1,8.4-27.1,8.4C41.7,93.4,50.8,81.9,54.8,66.2z"/>
<path class="st5" d="M31.3,94.3l-0.3-0.3c-0.2-0.2-0.2-0.5,0-0.7l17-19.4c0.2-0.2,0.5-0.2,0.7,0l0.3,0.3c0.2,0.2,0.2,0.5,0,0.7
	L32,94.3C31.8,94.5,31.5,94.5,31.3,94.3z"/>
<path class="st5" d="M40.6,75.8l0.3-0.3c0.2-0.2,0.5-0.2,0.7,0l6.6,5.8c0.2,0.2,0.2,0.5,0,0.7l-0.3,0.3c-0.2,0.2-0.5,0.2-0.7,0
	l-6.6-5.8C40.4,76.3,40.4,76,40.6,75.8z"/>
<path class="st5" d="M31.6,86.8l0.3-0.3c0.2-0.2,0.5-0.2,0.7,0l6.6,5.8c0.2,0.2,0.2,0.5,0,0.7l-0.3,0.3c-0.2,0.2-0.5,0.2-0.7,0
	l-6.6-5.8C31.4,87.4,31.4,87,31.6,86.8z"/>
<path class="st5" d="M34.9,79.8l0.3-0.3c0.2-0.2,0.5-0.2,0.7,0l9.3,8.1c0.2,0.2,0.2,0.5,0,0.7L45,88.6c-0.2,0.2-0.5,0.2-0.7,0
	l-9.3-8.1C34.7,80.3,34.7,80,34.9,79.8z"/>
</svg>
