<?xml version="1.0" encoding="utf-8"?>
<!-- Generator: Adobe Illustrator 22.0.1, SVG Export Plug-In . SVG Version: 6.00 Build 0)  -->
<svg version="1.1" id="Layer_1" xmlns="http://www.w3.org/2000/svg" xmlns:xlink="http://www.w3.org/1999/xlink" x="0px" y="0px"
	 viewBox="0 0 160 160" style="enable-background:new 0 0 160 160;" xml:space="preserve">
<style type="text/css">
	.st0{fill:url(#SVGID_1_);}
	.st1{opacity:0.35;fill:#FFFFFF;enable-background:new    ;}
	.st2{opacity:0.35;enable-background:new    ;}
	.st3{fill:#FFD22D;}
	.st4{fill:#603813;}
	.st5{fill:#DD8313;}
</style>
<title>Artboard 42 copy 121</title>
<linearGradient id="SVGID_1_" gradientUnits="userSpaceOnUse" x1="37.2195" y1="255.7525" x2="53.9395" y2="268.5225" gradientTransform="matrix(0.9981 -6.139695e-02 -6.139695e-02 -0.9981 5.0919 351.7948)">
	<stop  offset="0.1" style="stop-color:#F6993C"/>
	<stop  offset="0.28" style="stop-color:#FFD22D"/>
	<stop  offset="0.47" style="stop-color:#FFD22D"/>
	<stop  offset="0.64" style="stop-color:#FFD22D"/>
	<stop  offset="0.87" style="stop-color:#FCB22B"/>
	<stop  offset="0.99" style="stop-color:#F89938"/>
</linearGradient>
<path class="st0" d="M24.6,67.9c0,0-4.6,0.3-6.5,1.3c-0.5,0.2-0.4,1.1,0.2,1.5c3.7,2.8,6.5,6.6,8.1,11c3.3,8.5,3.3,16.7,13.7,20.4
	s14.8,0,14.8,0S62,93,54,84.2c0,0-1-1.7-4.7-0.6s-7.5,1.9-11.7-5.7S31.5,67,24.6,67.9z"/>
<ellipse transform="matrix(0.9981 -6.139695e-02 6.139695e-02 0.9981 -4.2279 1.6483)" class="st1" cx="24.7" cy="69.6" rx="6.5" ry="1.7"/>
<ellipse transform="matrix(0.9981 -6.139695e-02 6.139695e-02 0.9981 -4.2266 1.6624)" class="st2" cx="24.9" cy="69.6" rx="4.8" ry="0.9"/>
<path class="st2" d="M29.8,69.3c0.5,0.8-4.8,1.2-4.8,1.2c0.4-1.1,0.3-1.7-0.1-1.7C24.9,68.8,29.2,68.5,29.8,69.3z"/>
<path class="st3" d="M116,95.6c0,0,17,1.4,17-10.6s2-22-4-22c-4.4,0.1-8.7,0.6-13,1.4l2.3,4.9c0,0,7.7-3.3,9.7-2.3s1,20,1,20
	c-0.7,1.8-2.2,3.3-4,4c-2.5,0.7-5.1,1.3-7.7,1.8L116,95.6z"/>
<path class="st4" d="M126.1,66.9c0,0,1.9,19.1-0.1,21.1s-8.4,3.2-8.4,3.2L117,93c0,0,8.8-1.2,10.9-4.1S129,71,129,71
	S129.2,65.7,126.1,66.9z"/>
<path class="st5" d="M115.1,62.5c0,0,13.4-1.5,15.6,0.5c-2.8,0-5.6,0.1-8.3,0.4L116,64L115.1,62.5z"/>
</svg>
