<?xml version="1.0" encoding="utf-8"?>
<!-- Generator: Adobe Illustrator 22.0.1, SVG Export Plug-In . SVG Version: 6.00 Build 0)  -->
<svg version="1.1" id="Layer_1" xmlns="http://www.w3.org/2000/svg" xmlns:xlink="http://www.w3.org/1999/xlink" x="0px" y="0px"
	 viewBox="0 0 160 160" style="enable-background:new 0 0 160 160;" xml:space="preserve">
<style type="text/css">
	.st0{fill:#FDBC2C;stroke:#543D0F;stroke-miterlimit:10;}
	.st1{fill:url(#SVGID_1_);stroke:#1E1505;stroke-miterlimit:10;}
</style>
<title>Artboard 42 copy 97</title>
<path class="st0" d="M119.7,73.7l0.5-0.4c0.6-0.5,1.2-1,1.6-1.7c1.8-3,2.4-3,4.2-2.4s2.4,3.6,2.4,3.6s9.8,5,16.9,3.9
	c0,0,3-1.2,2.4,0.6s-4.4,4.4-7.7,4.8c1,0,2,0.2,3,0.6c1.2,0.6-0.6,3-3.6,4.2c-2.3,0.8-4.7,1.2-7.1,1.2c0,0,5,0.3,5.3,1.2
	s-1.8,3.6-5.3,4.2c-2.2,0.4-4.3,0.6-6.5,0.6c0,0,3.3,0.3,4.2,1.2c0.3,0.9-5.3,5.3-12.5,1.2"/>
<linearGradient id="SVGID_1_" gradientUnits="userSpaceOnUse" x1="59.4991" y1="59.9076" x2="28.6491" y2="87.0676" gradientTransform="matrix(1 0 0 -1 0 162)">
	<stop  offset="0" style="stop-color:#FFD22D"/>
	<stop  offset="0.87" style="stop-color:#FCB22B"/>
	<stop  offset="1" style="stop-color:#F28312"/>
</linearGradient>
<path class="st1" d="M53,77.1c0,0-10.9-5.7-12.7-9.2s-2.4-3.6-4.2-2.8s-2.4,4.3-2.4,4.3s-10,6-17.2,4.6c0,0-3-1.4-2.4,0.7
	s4.5,5.3,7.8,5.7c-1,0-2.1,0.3-3,0.7c-1.2,0.7,0.6,3.6,3.6,5c2.3,0.9,4.8,1.4,7.2,1.4c0,0-5.1,0.4-5.4,1.4s1.8,4.3,5.4,5
	c2.2,0.4,4.4,0.7,6.6,0.7c0,0-3.3,0.4-4.2,1.4c-0.3,1.1,5.4,6.4,12.7,1.4"/>
</svg>
