<?xml version="1.0" encoding="utf-8"?>
<!-- Generator: Adobe Illustrator 22.0.1, SVG Export Plug-In . SVG Version: 6.00 Build 0)  -->
<svg version="1.1" id="Layer_1" xmlns="http://www.w3.org/2000/svg" xmlns:xlink="http://www.w3.org/1999/xlink" x="0px" y="0px"
	 viewBox="0 0 160 160" style="enable-background:new 0 0 160 160;" xml:space="preserve">
<style type="text/css">
	.st0{fill:url(#SVGID_1_);}
	.st1{fill:#FFFFFF;}
	.st2{opacity:5.000000e-02;}
	.st3{opacity:0.16;}
	.st4{fill:#515151;}
</style>
<title>Artboard 42 copy 92</title>
<radialGradient id="SVGID_1_" cx="24.155" cy="75.445" r="6.1459" gradientTransform="matrix(1 0 0 -1 0 162)" gradientUnits="userSpaceOnUse">
	<stop  offset="0" style="stop-color:#FFD22D"/>
	<stop  offset="0.87" style="stop-color:#FCB22B"/>
	<stop  offset="1" style="stop-color:#F28312"/>
</radialGradient>
<path class="st0" d="M19.9,82.7h8.6c1.9,0,3.5,1.6,3.5,3.5v0.8c0,1.9-1.6,3.5-3.5,3.5h-8.6c-1.9,0-3.5-1.6-3.5-3.5v-0.8
	C16.4,84.2,17.9,82.7,19.9,82.7z"/>
<path class="st1" d="M38.4,69.9c-2.1,1.7-3.3,4.3-3.2,7l-0.2,2c0,0-9.4-4.3-10.2,3.8c-0.1,0.7-0.1,1.4-0.2,2.1
	c-0.6,6.6-0.4,9.8,3.4,12.8c4.1,3.4,5.4-1,8.1,0.9s16.4,15.3,22.8,1.2l1.5-6.4c0.8-3.2,3-5,2.5-11.6s-6.4-9.3-11.3-9.4
	c0,0-0.8,0.3-1.8-2.2S42.8,64.8,38.4,69.9z"/>
<g class="st2">
	<path d="M36,98.5c-2.9-1.5,16.4,15.3,22.8,1.2l1.5-6.4c0.8-3.2,3-5,2.5-11.6s-6.4-9.3-11.3-9.4C65.2,77.1,50.8,104.9,36,98.5z"/>
</g>
<g class="st3">
	<path d="M24.8,93.6c0.8,1.5,1.8,2.8,3,4c4.2,3.4,5.5-1,8.2,0.9c2.3,1.7,13.2,12.1,20.1,5.2c1-1.3,1.9-2.6,2.7-4.1
		c-1.5,1.9-6.6,2.5-11.2,1.3c-6.4-1.5-9.5-7.2-13.5-7.6C26.9,95.1,24.8,93.6,24.8,93.6z"/>
</g>
<path class="st4" d="M33.6,84.7l5.7,0.3c0.3,0,0.5,0.3,0.5,0.5l0,0.1c0,0.3-0.3,0.5-0.5,0.5l-5.7-0.3c-0.3,0-0.5-0.3-0.5-0.5l0-0.1
	C33.1,84.9,33.3,84.7,33.6,84.7z"/>
<path class="st4" d="M33.6,87l5.7,0.3c0.3,0,0.5,0.3,0.5,0.5l0,0.1c0,0.3-0.3,0.5-0.5,0.5l-5.7-0.3c-0.3,0-0.5-0.3-0.5-0.5l0-0.1
	C33.1,87.1,33.3,86.9,33.6,87z"/>
<path class="st4" d="M33.6,89.2l5.7,0.3c0.3,0,0.5,0.3,0.5,0.5l0,0.1c0,0.3-0.3,0.5-0.5,0.5l-5.7-0.3c-0.3,0-0.5-0.3-0.5-0.5l0-0.1
	C33.1,89.4,33.3,89.2,33.6,89.2z"/>
<path class="st1" d="M118.7,73.8c0,0,7.5-13.1,12.1-10.8c4.5,2.3-4.5,17.5-4.5,17.5s15.5-11.7,18.5-6.4S124,90.7,124,90.7
	s2.3,1.5,1.1,5s-4.5,4.7-6.8,5.8c-1.9,0.8-4,1.3-6.1,1.5C117.8,94.3,120.1,84,118.7,73.8z"/>
<g class="st2">
	<path d="M129.4,62.8c0,0,2.6,1.2-0.4,6.2s-6,11-6,11s1,3,3,1c0,0,4.1-7.2,5.1-10.6S133.8,62.5,129.4,62.8z"/>
</g>
<g class="st3">
	<path d="M141.2,72.8c0,0,3.8,0.2,0.8,3.2s-22,13-22,13s4,3,2,5s-8.3,6.2-8.3,6.2L112,103c0,0,12.9-0.8,13.4-9.4
		c0,0-0.9-3.1-1.9-3.1s9.9-3.6,16-8.8S147.9,73.1,141.2,72.8z"/>
</g>
</svg>
