<?xml version="1.0" encoding="utf-8"?>
<!-- Generator: Adobe Illustrator 22.0.1, SVG Export Plug-In . SVG Version: 6.00 Build 0)  -->
<svg version="1.1" id="Layer_1" xmlns="http://www.w3.org/2000/svg" xmlns:xlink="http://www.w3.org/1999/xlink" x="0px" y="0px"
	 viewBox="0 0 160 160" style="enable-background:new 0 0 160 160;" xml:space="preserve">
<style type="text/css">
	.st0{fill:url(#SVGID_1_);}
	.st1{fill:#D8D8D8;}
	.st2{fill:#FFFFFF;}
	.st3{opacity:5.000000e-02;}
	.st4{opacity:0.16;}
	.st5{fill:url(#SVGID_2_);}
	.st6{fill:#515151;}
</style>
<title>Artboard 42 copy 76</title>
<radialGradient id="SVGID_1_" cx="551.4861" cy="716.8408" r="5.534" gradientTransform="matrix(0.9231 -0.3846 -0.3846 -0.9231 -122.2717 965.661)" gradientUnits="userSpaceOnUse">
	<stop  offset="0" style="stop-color:#FFD22D"/>
	<stop  offset="0.87" style="stop-color:#FCB22B"/>
	<stop  offset="1" style="stop-color:#F28312"/>
</radialGradient>
<path class="st0" d="M106.5,90l6.5-2.7c1.8-0.7,3.8,0.1,4.6,1.9l0,0c0.7,1.8-0.1,3.8-1.9,4.6l-6.5,2.7c-1.8,0.7-3.8-0.1-4.6-1.9l0,0
	C103.9,92.8,104.7,90.7,106.5,90z"/>
<path class="st1" d="M117.1,73.1c-1.1,2.2-1.2,4.8-0.2,7l0.5,1.8c0,0-9.3-0.3-7.2,6.7c0.2,0.6,0.4,1.2,0.6,1.8
	c1.1,3.6,4.7,1.2,6.2,2.7c0.9,0.9,5.2,4,8,4.7c0.6,0.1,1.7,0.5,3,0.9c5.6,1.5,16,3.4,16.3-7.8l-1-5.8c-0.5-2.9,0.8-5.2-2-10.5
	s-8.5-5.5-12.6-3.9c0,0-0.6,0.6-2.3-1.2S119.1,67.3,117.1,73.1z"/>
<path class="st2" d="M127,98.2c5.2,1.5,17,4.4,17.4-7.5l-1-5.8c-0.5-2.9,0.8-5.2-2-10.5s-2.8-5.4-12.6-3.9c-9,1.4-3,15-3.5,24.7
	C125.3,96.1,126.1,98,127,98.2z"/>
<g class="st3">
	<path d="M125.1,97.7c-3-0.3,18.9,7,19.4-6.9l-1-5.8c-0.5-2.9,0.8-5.2-2-10.5s-8.5-5.5-12.6-3.9C142,69.8,139.6,97.8,125.1,97.7z"/>
</g>
<g class="st4">
	<path d="M114.1,91.5c0,0,8.1,5.5,11,6.2c2.5,0.6,15.1,5.5,18.5-2.6c0.4-1.4,0.7-2.9,0.9-4.3c-0.6,2.1-4.6,4.3-8.9,4.9
		c-5.8,1-10.4-2.7-13.9-1.6C119.3,92.9,116.7,92.1,114.1,91.5z"/>
</g>
<radialGradient id="SVGID_2_" cx="24.155" cy="74.445" r="6.1459" gradientTransform="matrix(1 0 0 -1 0 162)" gradientUnits="userSpaceOnUse">
	<stop  offset="0" style="stop-color:#FFD22D"/>
	<stop  offset="0.87" style="stop-color:#FCB22B"/>
	<stop  offset="1" style="stop-color:#F28312"/>
</radialGradient>
<path class="st5" d="M19.9,83.7h8.6c1.9,0,3.5,1.6,3.5,3.5v0.8c0,1.9-1.6,3.5-3.5,3.5h-8.6c-1.9,0-3.5-1.6-3.5-3.5v-0.8
	C16.4,85.2,17.9,83.7,19.9,83.7z"/>
<path class="st2" d="M38.4,70.9c-2.1,1.7-3.3,4.3-3.2,7l-0.2,2c0,0-9.4-4.3-10.2,3.8c-0.1,0.7-0.1,1.4-0.2,2.1
	c-0.6,6.6-0.4,9.8,3.4,12.8c4.1,3.4,5.4-1,8.1,0.9s16.4,15.3,22.8,1.2l1.5-6.4c0.8-3.2,3-5,2.5-11.6s-6.4-9.3-11.3-9.4
	c0,0-0.8,0.3-1.8-2.2S42.8,65.8,38.4,70.9z"/>
<g class="st3">
	<path d="M36,99.5c-2.9-1.5,16.4,15.3,22.8,1.2l1.5-6.4c0.8-3.2,3-5,2.5-11.6s-6.4-9.3-11.3-9.4C65.2,78.1,50.8,105.9,36,99.5z"/>
</g>
<g class="st4">
	<path d="M24.8,94.6c0.8,1.5,1.8,2.8,3,4c4.2,3.4,5.5-1,8.2,0.9c2.3,1.7,13.2,12.1,20.1,5.2c1-1.3,1.9-2.6,2.7-4.1
		c-1.5,1.9-6.6,2.5-11.2,1.3c-6.4-1.5-9.5-7.2-13.5-7.6C26.9,96.1,24.8,94.6,24.8,94.6z"/>
</g>
<path class="st6" d="M33.6,85.7l5.7,0.3c0.3,0,0.5,0.3,0.5,0.5l0,0.1c0,0.3-0.3,0.5-0.5,0.5l-5.7-0.3c-0.3,0-0.5-0.3-0.5-0.5l0-0.1
	C33.1,85.9,33.3,85.7,33.6,85.7z"/>
<path class="st6" d="M33.6,88l5.7,0.3c0.3,0,0.5,0.3,0.5,0.5l0,0.1c0,0.3-0.3,0.5-0.5,0.5l-5.7-0.3c-0.3,0-0.5-0.3-0.5-0.5l0-0.1
	C33.1,88.1,33.3,87.9,33.6,88z"/>
<path class="st6" d="M33.6,90.2l5.7,0.3c0.3,0,0.5,0.3,0.5,0.5l0,0.1c0,0.3-0.3,0.5-0.5,0.5l-5.7-0.3c-0.3,0-0.5-0.3-0.5-0.5l0-0.1
	C33.1,90.4,33.3,90.2,33.6,90.2z"/>
</svg>
