<?xml version="1.0" encoding="utf-8"?>
<!-- Generator: Adobe Illustrator 22.0.1, SVG Export Plug-In . SVG Version: 6.00 Build 0)  -->
<svg version="1.1" id="Layer_1" xmlns="http://www.w3.org/2000/svg" xmlns:xlink="http://www.w3.org/1999/xlink" x="0px" y="0px"
	 viewBox="0 0 160 160" style="enable-background:new 0 0 160 160;" xml:space="preserve">
<style type="text/css">
	.st0{fill:#FFFFFF;}
	.st1{opacity:0.16;}
	.st2{fill:url(#SVGID_1_);}
</style>
<title>Artboard 42 copy 87</title>
<path class="st0" d="M136.1,90c-0.5-2.1-1.9-3.9-3.8-4.8l-1.4-0.9c0,0,6.4-5.1,1-8.7l-1.4-0.9c-4.5-2.9-6.8-3.9-10.3-2.3
	c-0.7,0.3-1.9,0.7-1.6,1C120,76,117,97,114,99.7c-1.4-0.2,2.3,2.2,4.9,3.2c4.9,2,8.9-1.2,10.8-4.6c0,0,0.1-0.7,2.2-0.5
	S138.1,94.9,136.1,90z"/>
<g class="st1">
	<path d="M124.2,71.7c-1.4,0-2.7,0.3-4,0.7c-0.6,0.3-1.1,0.6-1.6,1c0.4,2.2,0.6,4.4,0.4,6.6c0.7-0.4,1.4-1,1.9-1.6
		C122.4,72.6,124.2,71.7,124.2,71.7z"/>
</g>
<radialGradient id="SVGID_1_" cx="23" cy="75.5" r="5.534" gradientTransform="matrix(1 0 0 -1 0 162)" gradientUnits="userSpaceOnUse">
	<stop  offset="0" style="stop-color:#FFD22D"/>
	<stop  offset="0.87" style="stop-color:#FCB22B"/>
	<stop  offset="1" style="stop-color:#F28312"/>
</radialGradient>
<path class="st2" d="M19.5,83h7c1.9,0,3.5,1.6,3.5,3.5l0,0c0,1.9-1.6,3.5-3.5,3.5h-7c-1.9,0-3.5-1.6-3.5-3.5l0,0
	C16,84.6,17.6,83,19.5,83z"/>
<path class="st0" d="M35.8,71.5c-1.9,1.6-2.9,3.9-2.9,6.3l-0.2,1.8c0,0-8.5-3.8-9.2,3.5c-0.1,0.7-0.1,1.3-0.2,1.9
	c-0.6,6-0.4,8.8,3,11.5c3.8,3,4.9-1,7.3,0.8s14.8,13.8,20.6,1.1l1.3-5.8c0.7-2.9,2.7-4.5,2.2-10.5s-5.8-8.4-10.2-8.5
	c0,0-0.8,0.3-1.6-2S39.8,66.9,35.8,71.5z"/>
<g class="st1">
	<path d="M23.6,92.9c0.7,1.3,1.6,2.6,2.7,3.6c3.8,3,4.9-1,7.3,0.8c2.1,1.5,11.8,10.9,18.1,4.7c0.9-1.1,1.7-2.4,2.4-3.7
		c-1.3,1.7-5.9,2.2-10.1,1.2c-5.8-1.3-8.5-6.4-12.2-6.8C25.5,94.2,23.6,92.9,23.6,92.9z"/>
</g>
</svg>
