<?xml version="1.0" encoding="utf-8"?>
<!-- Generator: Adobe Illustrator 22.0.1, SVG Export Plug-In . SVG Version: 6.00 Build 0)  -->
<svg version="1.1" id="Layer_1" xmlns="http://www.w3.org/2000/svg" xmlns:xlink="http://www.w3.org/1999/xlink" x="0px" y="0px"
	 viewBox="0 0 160 160" style="enable-background:new 0 0 160 160;" xml:space="preserve">
<style type="text/css">
	.st0{fill:url(#SVGID_1_);}
	.st1{opacity:0.1;}
	.st2{fill:url(#SVGID_2_);}
	.st3{fill:url(#SVGID_3_);}
	.st4{opacity:0.4;fill:url(#SVGID_4_);enable-background:new    ;}
	.st5{fill:url(#SVGID_5_);}
	.st6{opacity:0.4;fill:url(#SVGID_6_);enable-background:new    ;}
</style>
<title>Artboard 42 copy 71</title>
<radialGradient id="SVGID_1_" cx="33.772" cy="81.0027" r="17.2996" gradientTransform="matrix(1 0 0 -1 0 162)" gradientUnits="userSpaceOnUse">
	<stop  offset="0" style="stop-color:#FFD22D"/>
	<stop  offset="0.87" style="stop-color:#FCB22B"/>
	<stop  offset="1" style="stop-color:#F28312"/>
</radialGradient>
<path class="st0" d="M46.5,75.9c-2.2-0.1-4.2-1.2-5.5-3C38,68.1,25,62,20,62s3,8.5,3,8.5s0,1.2,2,2.4s4,1.2,2,1.2s-3,0-2,2.4
	s4,2.4,4,8.5s-10,13.4-8,14.6s7-1.2,11-4.9s8-13.4,14-12.2C51,82,49.3,76.2,46.5,75.9z"/>
<g class="st1">
	<path d="M34,86.1C31,93,19,98.5,21,99.7s7-1.2,11-4.9s8-13.4,14-12.2c3.3-0.4,3.7-3.2,2.7-5c-0.4-0.7-1.1-1.1-1.9-1.1
		C49,81,36,80,34,86.1z"/>
</g>
<linearGradient id="SVGID_2_" gradientUnits="userSpaceOnUse" x1="29.3408" y1="84.0591" x2="41.0708" y2="94.7891" gradientTransform="matrix(1 0 0 -1 0 162)">
	<stop  offset="0" style="stop-color:#FFD22D;stop-opacity:0"/>
	<stop  offset="0.81" style="stop-color:#FFFCEF;stop-opacity:0.7"/>
	<stop  offset="1" style="stop-color:#FFFFFF;stop-opacity:0.8"/>
</linearGradient>
<path class="st2" d="M28,68c0,0,5,0,10,5s2,6,2,6s-7,2-8,7S35,72,28,68z"/>
<linearGradient id="SVGID_3_" gradientUnits="userSpaceOnUse" x1="-126.3769" y1="-681.1918" x2="-94.4835" y2="-673.9633" gradientTransform="matrix(0.9255 0.3788 0.3788 -0.9255 411.7527 -496.2946)">
	<stop  offset="0" style="stop-color:#FFD22D"/>
	<stop  offset="0.87" style="stop-color:#FCB22B"/>
	<stop  offset="1" style="stop-color:#F28312"/>
</linearGradient>
<path class="st3" d="M53.4,83.6c0,0,19.2,4.7,15.6,6.2s-20.7,6.5-29.1,1.6S38.6,94,53.4,83.6z"/>
<linearGradient id="SVGID_4_" gradientUnits="userSpaceOnUse" x1="-122.8142" y1="-679.0453" x2="-98.9056" y2="-673.6279" gradientTransform="matrix(0.9255 0.3788 0.3788 -0.9255 411.7527 -496.2946)">
	<stop  offset="0" style="stop-color:#FFD22D;stop-opacity:0"/>
	<stop  offset="0.81" style="stop-color:#FFFCEF;stop-opacity:0.7"/>
	<stop  offset="1" style="stop-color:#FFFFFF;stop-opacity:0.8"/>
</linearGradient>
<path class="st4" d="M53.6,83.5l11.9,3.4c-7.4,2.2-16,3-25.3,2.9C40.2,89.8,48.1,87.4,53.6,83.5z"/>
<linearGradient id="SVGID_5_" gradientUnits="userSpaceOnUse" x1="2464.4966" y1="939.8943" x2="2487.0266" y2="945.0043" gradientTransform="matrix(-0.85 0.7 -0.84 -0.71 3028.24 -982.0099)">
	<stop  offset="0" style="stop-color:#FFD22D"/>
	<stop  offset="0.87" style="stop-color:#FCB22B"/>
	<stop  offset="1" style="stop-color:#F28312"/>
</linearGradient>
<path class="st5" d="M119.4,82.4c-0.5,4.2-1.1,8-2.3,10.4c0,0,16.7-3.9,20.8-8.5C145,76.5,140.5,86.4,119.4,82.4z"/>
<linearGradient id="SVGID_6_" gradientUnits="userSpaceOnUse" x1="2468.0742" y1="941.9129" x2="2483.6743" y2="945.4429" gradientTransform="matrix(-0.85 0.7 -0.84 -0.71 3028.24 -982.0099)">
	<stop  offset="0" style="stop-color:#FFD22D;stop-opacity:0"/>
	<stop  offset="0.81" style="stop-color:#FFFCEF;stop-opacity:0.7"/>
	<stop  offset="1" style="stop-color:#FFFFFF;stop-opacity:0.8"/>
</linearGradient>
<path class="st6" d="M119.1,82.4l-0.8,6c0,0,12.2-3.1,18.5-5.4C136.8,83,127,83.9,119.1,82.4z"/>
<g class="st1">
	<path d="M65.6,87.1c0,0,4.7,2.1,3.3,2.6c-3.6,1.5-20.7,6.5-29.1,1.6c-1.5-0.9-3.1-1.6-3.1-1.6C44.1,93.8,69.8,88.2,65.6,87.1z"/>
</g>
</svg>
