<svg xmlns="http://www.w3.org/2000/svg" xmlns:xlink="http://www.w3.org/1999/xlink" viewBox="0 0 160 160"><defs><style>.cls-1{fill:#fff;}.cls-2{fill:url(#linear-gradient);}.cls-3{fill:url(#linear-gradient-2);}.cls-4{fill:url(#linear-gradient-3);}.cls-5{fill:url(#linear-gradient-4);}</style><linearGradient id="linear-gradient" x1="25.92" y1="84.21" x2="51.29" y2="84.21" gradientUnits="userSpaceOnUse"><stop offset="0" stop-opacity="0"/><stop offset="1"/></linearGradient><linearGradient id="linear-gradient-2" x1="41.14" y1="86.22" x2="57.53" y2="86.22" xlink:href="#linear-gradient"/><linearGradient id="linear-gradient-3" x1="46.84" y1="85.14" x2="70.92" y2="85.14" xlink:href="#linear-gradient"/><linearGradient id="linear-gradient-4" x1="130.98" y1="82.86" x2="117.04" y2="84.09" xlink:href="#linear-gradient"/></defs><title>Artboard 42 copy 161</title><path class="cls-1" d="M60,82.6c-1-9-5-12-5-12s-9-8-16,0c0,0-1.62,1.63-2.67,7.06a23.59,23.59,0,0,0-.89,2.94C28.57,81,20,74.6,20,74.6s-.84,16.29,16,18.22a8.78,8.78,0,0,0,3.65,4.69A15.28,15.28,0,0,0,45,101.6C53,105.6,61,94.6,60,82.6ZM41.71,92.52a2.41,2.41,0,0,1-1.35.48A4,4,0,0,0,41.71,92.52ZM40.24,93h0Zm-.78-13.79a.52.52,0,0,0,.13-.06,2.88,2.88,0,0,0-.59.45l-.39.19A8.55,8.55,0,0,1,39.46,79.21Z"/><path class="cls-2" d="M20,75S19,94,40.36,93.4c0,0,4.22-.4,4.93-7.4S41,78,39,80C32,84,20,75,20,75Z"/><path class="cls-3" d="M47.72,76s-5.5-5.77-10.55,0A22.2,22.2,0,0,0,35,84.51s2.15-3.6,4.46-4.89c1.39-.78,2.84-.72,3.93,1.45,2.89,5.77-1.45,19.38-8,7.83,0,0-.72,6.61,5.06,9.5s11.55-5.06,10.83-13.72C50.61,78.18,47.72,76,47.72,76Z"/><path class="cls-4" d="M55,71s-9-8-16,0c0,0-2,2-3,9,0,0,4-13,13-2,4,8-2,31-11,15,0,0-1,5,7,9s16-7,15-19C59,74,55,71,55,71Z"/><path class="cls-1" d="M117.09,68.1c-1.66-1.74,5.09.32,7.59,3,0,0,1.54,1.46,2.67,6.42a23.37,23.37,0,0,1,.9,2.68c6.34.19,14-6,14-6s1.25,15-14.2,17.24a8.11,8.11,0,0,1-3.22,4.43,14.15,14.15,0,0,1-4.8,3.92c-1.81,1-6.3.55-6.3.55S124.11,83.47,117.09,68.1Zm5.75,23.26a2.19,2.19,0,0,0,1.25.4A3.66,3.66,0,0,1,122.84,91.36Zm1.36.4h0Zm.31-12.71-.12-.06a3.12,3.12,0,0,1,.56.39,2.92,2.92,0,0,0,.36.17A6.23,6.23,0,0,0,124.51,79.05Z"/><path class="cls-5" d="M128,80a17.31,17.31,0,0,1,0,11s12-1,14-17A19.11,19.11,0,0,1,128,80Z"/></svg>