<svg xmlns="http://www.w3.org/2000/svg" viewBox="0 0 160 160"><defs><style>.cls-1{fill:#fff;}.cls-2{opacity:0.18;}</style></defs><title>Artboard 42 copy 145</title><path class="cls-1" d="M27.15,77.24S34,71.55,38.52,79.51s-1.14,13.65-1.14,13.65S49.9,110.49,59,111.49c0,0,3.8-5.53,11.57-1.7s4.35,10.66,4.35,10.66S72.64,125,64.68,125s-27.3-14.78-34.12-28.43S26,79.51,27.15,77.24Z"/><path class="cls-2" d="M27.15,77.24S34,71.55,38.52,79.51s-1.14,13.65-1.14,13.65S49.9,110.49,59,111.49c0,0,3.8-5.53,11.57-1.7s4.35,10.66,4.35,10.66C70,112,66,113,57.71,113.53c-13.66-3.61-24.37-16.36-22.69-19C35,94.58,41,78,27.15,77.24Z"/></svg>