<svg xmlns="http://www.w3.org/2000/svg" viewBox="0 0 160 160"><defs><style>.cls-1{fill:none;stroke:#3f2904;stroke-linecap:round;stroke-linejoin:round;stroke-width:2px;}.cls-2{fill:#fff;}.cls-3{opacity:0.15;}</style></defs><title>Artboard 42 copy 152</title><path class="cls-1" d="M85.18,119.46A34.05,34.05,0,0,0,87,135c3,8,2,6,2,6"/><path class="cls-2" d="M88,137s-6.37-19.13,12.82-19.57S129,98,129,98a34.66,34.66,0,0,1-10,29C112,135,96,123,88,137Z"/><g class="cls-3"><path d="M88,137c-1-17,36-8,41-39a34.66,34.66,0,0,1-10,29C112,135,96,123,88,137Z"/></g><path class="cls-2" d="M84.7,129.41s-3.31-8.81-17.9-10S37.62,120.6,34.25,105A29.73,29.73,0,0,0,41,127.8c9,10.8,31.43,3.6,31.43,3.6s9-3.6,14.59,3.6Z"/><g class="cls-3"><path d="M34.25,105S33,119,41,127.8c9,10.2,31.43,3.6,31.43,3.6C73.78,129,88,131.12,87,135,87,121.33,39,131.11,34.25,105Z"/></g></svg>