<?xml version="1.0" encoding="utf-8"?>
<!-- Generator: Adobe Illustrator 22.0.1, SVG Export Plug-In . SVG Version: 6.00 Build 0)  -->
<svg version="1.1" id="Layer_1" xmlns="http://www.w3.org/2000/svg" xmlns:xlink="http://www.w3.org/1999/xlink" x="0px" y="0px"
	 viewBox="0 0 160 160" style="enable-background:new 0 0 160 160;" xml:space="preserve">
<style type="text/css">
	.st0{fill:#FFFFFF;}
	.st1{opacity:0.2;enable-background:new    ;}
	.st2{fill:#FFC866;}
	.st3{opacity:0.28;enable-background:new    ;}
	.st4{fill:#444444;}
	.st5{fill:url(#SVGID_1_);}
	.st6{fill:url(#SVGID_2_);}
	.st7{opacity:0.1;}
</style>
<title>Artboard 42 copy 136</title>
<path class="st0" d="M68,124.3c0,0,5.2-1.3,8.4,2s3.2,7.8,1.3,7.8S75.8,134.7,68,124.3z"/>
<path class="st1" d="M76.5,126.3c3.2,3.2,3.2,7.8,1.3,7.8s-1.9,0.6-8.2-7.7C69.1,125.7,79,138,76.5,126.3z"/>
<path class="st2" d="M77.4,119.2l-0.9,7.1c-1.8-1.3-3.5-2.2-4.8-2.2l0.6-5.9C74,118.7,75.7,119,77.4,119.2z"/>
<path class="st0" d="M77,138.2v-4.2c-1-0.9-2.1-1.8-3.2-2.6c-1.5-1.1-4.1-5.1-4.1-5.2c-0.7-6.4-0.2-13.4-8.2-17.6
	c-13.7-7.2-18.2,0.7-18.2,0.7c20.8-0.7,20.1,14.3,25.2,22.9s8,5.7,8,5.7C72.6,135.8,72.8,136.3,77,138.2z"/>
<path class="st3" d="M69.8,126.3c0,0,2.6,4,4.1,5.2c1.1,0.8,2.2,1.7,3.2,2.6v4.2C70,135,69.8,126.3,69.8,126.3z"/>
<path class="st4" d="M76.5,138c0,0-5.8,2.6-9.8-10.4s-8.5-20.8-19.5-20.2c-1.6,0-3.1,0.6-4.2,1.6c-5.3,4.8-1.2,18.7,4.2,23.1
	c6.5,5.2,20.8,10.4,26.7,8.4S76.5,138,76.5,138z"/>
<linearGradient id="SVGID_1_" gradientUnits="userSpaceOnUse" x1="87.75" y1="42.4855" x2="101.15" y2="42.4855" gradientTransform="matrix(1 0 0 -1 0 162)">
	<stop  offset="0" style="stop-color:#A66707"/>
	<stop  offset="0.5" style="stop-color:#9D6209"/>
	<stop  offset="1" style="stop-color:#000000"/>
</linearGradient>
<path class="st5" d="M87.8,118.9L88,125c3.2,1.2,6.8,1.2,10,0l3.2-11.8C101.2,113.2,93.5,117.8,87.8,118.9z"/>
<linearGradient id="SVGID_2_" gradientUnits="userSpaceOnUse" x1="89.55" y1="28.2733" x2="96" y2="28.2733" gradientTransform="matrix(1 0 0 -1 0 162)">
	<stop  offset="0" style="stop-color:#FFFFFF"/>
	<stop  offset="0.48" style="stop-color:#F6F6F6"/>
	<stop  offset="0.81" style="stop-color:#CCCCCC"/>
	<stop  offset="1" style="stop-color:#999999"/>
</linearGradient>
<path class="st6" d="M90,125.6c0,0-1.1,12.4,0,14.4s4.4,3,4.4,0s1.6-14.4,1.6-14.4c-1,0.1-2,0.2-3,0.2C92,125.8,91,125.8,90,125.6z"
	/>
<g class="st7">
	<path d="M90,140c1.1,2,4.4,3,4.4,0s1.6-14.4,1.6-14.4l-3,0.2C93,125.8,93,141,90,140z"/>
</g>
</svg>
