<?xml version="1.0" encoding="utf-8"?>
<!-- Generator: Adobe Illustrator 22.0.1, SVG Export Plug-In . SVG Version: 6.00 Build 0)  -->
<svg version="1.1" id="Layer_1" xmlns="http://www.w3.org/2000/svg" xmlns:xlink="http://www.w3.org/1999/xlink" x="0px" y="0px"
	 viewBox="0 0 160 160" style="enable-background:new 0 0 160 160;" xml:space="preserve">
<style type="text/css">
	.st0{fill:url(#SVGID_1_);}
	.st1{opacity:0.1;}
</style>
<title>Artboard 42 copy 132</title>
<radialGradient id="SVGID_1_" cx="87" cy="67.1416" r="21.1039" gradientTransform="matrix(1 0 0 -0.97 0 194.37)" gradientUnits="userSpaceOnUse">
	<stop  offset="0" style="stop-color:#FFD22D"/>
	<stop  offset="0.87" style="stop-color:#FCB22B"/>
	<stop  offset="1" style="stop-color:#F28312"/>
</radialGradient>
<path class="st0" d="M61,114.7c6.6,6.9,13.7,13.4,28,14.8c-7,2.5-9.4,7.7-11,13.5c0,0,15.4-3.3,17-7.7c0,0,6,6.8,18,5.8
	c-2.2-5.8-9-12.2-18-13.5c-2.7,0-4.2-6.8,3-12.6C76,123.7,61,114.7,61,114.7z"/>
<g class="st1">
	<path d="M91,128.5c0,0,14,4.8,22,12.6c-2.2-5.8-9-12.2-18-13.5c-2.7,0-4.2-6.8,3-12.6c-2.8,1.1-5.6,2-8.5,2.6
		C87,125.6,91,128.5,91,128.5z"/>
</g>
</svg>
