<?xml version="1.0" encoding="utf-8"?>
<!-- Generator: Adobe Illustrator 22.0.1, SVG Export Plug-In . SVG Version: 6.00 Build 0)  -->
<svg version="1.1" id="Layer_1" xmlns="http://www.w3.org/2000/svg" xmlns:xlink="http://www.w3.org/1999/xlink" x="0px" y="0px"
	 viewBox="0 0 160 160" style="enable-background:new 0 0 160 160;" xml:space="preserve">
<style type="text/css">
	.st0{fill:#FFFFFF;}
	.st1{opacity:0.2;}
	.st2{fill:url(#SVGID_1_);}
	.st3{fill:url(#SVGID_2_);}
</style>
<title>Artboard 42 copy 156</title>
<path class="st0" d="M93.9,116.5c0.8,0.9,1.7,1.8,2.7,2.5c1,0,3.9-12,4.8-12s10.6,23,10.6,23l-1.9,10v-9c0,0-7.7-17-8.7-17
	s-2.9,11-3.9,11c-0.5,0-7.3-7.2-7.3-7.2L93.9,116.5z"/>
<g class="st1">
	<path d="M93.8,116.5c0.8,0.9,1.7,1.8,2.7,2.5c1,0,3.9-12,4.8-12s10.6,23,10.6,23l-1.9,10v-9c0,0-7.7-17-8.7-17s-2.9,11-3.9,11
		c-0.5,0-7.3-7.2-7.3-7.2L93.8,116.5z"/>
</g>
<path class="st0" d="M54.9,111.6c0,0-3.5,3.4-3.9,3.4c-1.1,0-4.4-12-5.5-12s-12.1,23-12.1,23l2.2,10v-9c0,0,8.8-17,9.9-17
	s3.3,11,4.4,11c0.5,0,8.2-7.1,8.2-7.1L54.9,111.6z"/>
<g class="st1">
	<path d="M55,111.6c0,0-3.6,3.4-4,3.4c-1.1,0-4.4-12-5.5-12s-12.1,23-12.1,23l2.2,10v-9c0,0,8.8-17,9.9-17s3.3,11,4.4,11
		c0.5,0,8.3-7.1,8.3-7.1L55,111.6z"/>
</g>
<radialGradient id="SVGID_1_" cx="58" cy="39.4643" r="15.77" gradientTransform="matrix(1 0 0 -1.12 0 169.55)" gradientUnits="userSpaceOnUse">
	<stop  offset="0" style="stop-color:#FFD22D"/>
	<stop  offset="0.87" style="stop-color:#FCB22B"/>
	<stop  offset="1" style="stop-color:#F28312"/>
</radialGradient>
<path class="st2" d="M69,108.1c0,0-9,12.3-10,12.3S55,107,54,107s-11,25.8-11,25.8l2,11.2v-10.1c0,0,8-19.1,9-19.1s3,12.3,4,12.3
	s15-16.8,15-16.8S73,107,69,108.1z"/>
<radialGradient id="SVGID_2_" cx="400" cy="42.4643" r="15.77" gradientTransform="matrix(-1 0 0 -1.12 510 169.91)" gradientUnits="userSpaceOnUse">
	<stop  offset="0" style="stop-color:#FFD22D"/>
	<stop  offset="0.87" style="stop-color:#FCB22B"/>
	<stop  offset="1" style="stop-color:#F28312"/>
</radialGradient>
<path class="st3" d="M99,105.1c0,0,9,12.3,10,12.3s4-13.5,5-13.5s11,25.8,11,25.8l-2,11.2v-10.1c0,0-8-19.1-9-19.1s-3,12.3-4,12.3
	s-15-16.8-15-16.8S95,104,99,105.1z"/>
</svg>
