<?xml version="1.0" encoding="utf-8"?>
<!-- Generator: Adobe Illustrator 22.0.1, SVG Export Plug-In . SVG Version: 6.00 Build 0)  -->
<svg version="1.1" id="Layer_1" xmlns="http://www.w3.org/2000/svg" xmlns:xlink="http://www.w3.org/1999/xlink" x="0px" y="0px"
	 viewBox="0 0 160 160" style="enable-background:new 0 0 160 160;" xml:space="preserve">
<style type="text/css">
	.st0{fill:#49230F;}
	.st1{fill:#A34B1A;}
	.st2{fill:#E5652C;}
	.st3{fill:#919191;}
	.st4{fill:#D3D3D3;}
</style>
<title>Artboard 42 copy 140</title>
<path class="st0" d="M79.9,117.8l-10.6,17.6c0,0-1.1,2.6,9.7,2.6h22.7c0,0,5.4-5.2,2.2-7.8S92,126.8,92,126.8l8.6-13.8
	C100.6,113,93,118.2,79.9,117.8z"/>
<path class="st1" d="M63.6,115.2L52,135.4c0,0-1,2.6,9.8,2.6h22.7c0,0,5.4-5.2,2.2-7.8s-11.9-3.4-11.9-3.4l7.6-8.6
	C82.3,118.2,74.7,119,63.6,115.2z"/>
<path class="st2" d="M74.4,119.7l8.1,1.9c0.3,0.1,0.4,0.3,0.4,0.6l-0.1,0.5c-0.1,0.3-0.3,0.4-0.6,0.4l-8.1-1.9
	c-0.3-0.1-0.4-0.3-0.4-0.6l0.1-0.5C73.9,119.8,74.2,119.7,74.4,119.7z"/>
<path class="st2" d="M72.9,122.8l8.1,1.9c0.3,0.1,0.4,0.3,0.4,0.6l-0.1,0.5c-0.1,0.3-0.3,0.4-0.6,0.4l-8.1-1.9
	c-0.3-0.1-0.4-0.3-0.4-0.6l0.1-0.5C72.3,122.9,72.6,122.8,72.9,122.8z"/>
<path class="st2" d="M91.4,118.7l8.1,1.9c0.3,0.1,0.4,0.3,0.4,0.6l-0.1,0.5c-0.1,0.3-0.3,0.4-0.6,0.4l-8.1-1.9
	c-0.3-0.1-0.4-0.3-0.4-0.6l0.1-0.5C90.9,118.8,91.1,118.7,91.4,118.7z"/>
<path class="st2" d="M89.9,121.8l8.1,1.9c0.3,0.1,0.4,0.3,0.4,0.6l-0.1,0.5c-0.1,0.3-0.3,0.4-0.6,0.4l-8.1-1.9
	c-0.3-0.1-0.4-0.3-0.4-0.6l0.1-0.5C89.3,121.9,89.6,121.8,89.9,121.8z"/>
<path class="st3" d="M75,138v2H64c0,0,0,3,6,3h26c5.3-0.4,6.9-1.5,7-3H91l0.3-2H75z"/>
<path class="st4" d="M60,138v2H49c0,0,0,3,6,3h26c5.3-0.4,6.9-1.5,7-3H76l0.3-2H60z"/>
</svg>
