<svg xmlns="http://www.w3.org/2000/svg" viewBox="0 0 160 160"><defs><style>.cls-1{fill:#490b37;}.cls-2{fill:#fcfcfc;}.cls-3,.cls-4{fill:#fff;}.cls-3{opacity:0.4;}.cls-5{fill:#fc039d;}.cls-6{opacity:0.3;}</style></defs><title>Artboard 42 copy 144</title><path class="cls-1" d="M134.17,87.05a20.19,20.19,0,0,1,1,3.45c1.24,8.2-1.56,16.71-19.36,30s-35,26.75-46.91,21.79c-6-2.48-11.49-10-9.84-8,8.85,11,33,1,51.68-12.85C126.07,110.09,137.7,96.49,134.17,87.05Z"/><path class="cls-2" d="M134.42,88.33A8.69,8.69,0,0,0,132,82.94a4.25,4.25,0,0,0-.43-.31c-2.42-4-7.17-3-10.26,3.06C117.4,93.27,81,115.06,81,115.06s-10.53,7.88-18.89,9.73c-6.06,1.35-7.23,5.31-2.86,9.27l0,.06c1.47,2,4.39,4.14,8.86,6,11.91,5,29.1-8.49,46.9-21.78S135.65,96.53,134.42,88.33Z"/><path class="cls-3" d="M81,115.06s36.39-21.79,40.26-29.37,10.37-7.27,11.61.94-1.56,16.71-19.37,30-35,26.75-46.91,21.79-12.83-11.77-4.48-13.63S81,115.06,81,115.06Z"/><circle class="cls-1" cx="124.26" cy="119.66" r="5.42"/><circle class="cls-4" cx="123.8" cy="121.52" r="5.42"/><circle class="cls-5" cx="123.8" cy="121.52" r="2.87"/><circle class="cls-1" cx="97.16" cy="138.52" r="5.42"/><circle class="cls-4" cx="96.7" cy="140.37" r="5.42"/><circle class="cls-5" cx="96.7" cy="140.37" r="2.87"/><ellipse class="cls-6" cx="99.5" cy="116" rx="14.5" ry="4" transform="translate(-44.67 65.29) rotate(-30)"/></svg>