<svg xmlns="http://www.w3.org/2000/svg" viewBox="0 0 160 160"><defs><style>.cls-1{fill:#fff;}.cls-2{fill:#dd8313;}.cls-3{fill:#ed1c24;}.cls-4{opacity:0.4;}.cls-5{fill:#fbc23b;}.cls-6{fill:#cc1b28;}</style></defs><title>Artboard 42 copy 148</title><path class="cls-1" d="M25,122.35l79.1,25.3a9.57,9.57,0,0,0,8.89,0c4.66-2.5,2.39-5.21,2.39-5.21s-.44,5-8.67,1.95c-5.34-2-71.79-23.92-71.79-23.92Z"/><path class="cls-2" d="M87.77,122.8s4.83-3.34,3.47-4c-.26-.13-1-.42-1-.42A37.34,37.34,0,0,1,95,116.87c.94.45,1.53,1,1.34,1.57-.68,2-4.44,5.33-4.44,5.33Z"/><polygon class="cls-3" points="84.34 121.97 74.31 132.26 91.52 137.63 87.22 130.59 94.06 124.44 84.34 121.97"/><rect class="cls-4" x="87.16" y="126.26" width="4.76" height="1.36" rx="0.59" ry="0.59" transform="translate(75.47 -27.76) rotate(30)"/><rect class="cls-4" x="85.8" y="128.3" width="4.76" height="1.36" rx="0.59" ry="0.59" transform="translate(76.3 -26.81) rotate(30)"/><path class="cls-3" d="M71.48,120.12S61,131.43,59.71,132.25l19.23,6.08-4.81-8.71,7.13-7.19Z"/><path class="cls-5" d="M74.17,120.76s4.83-3.34,3.47-4a42.87,42.87,0,0,0-5.1-1.7c0-1.05.71-1.72,2-2,0,0,8.84,1.36,8.16,3.4s-4.44,5.33-4.44,5.33Z"/><rect class="cls-4" x="73.56" y="124.9" width="4.76" height="1.36" rx="0.59" ry="0.59" transform="translate(72.96 -21.14) rotate(30)"/><rect class="cls-4" x="72.2" y="126.94" width="4.76" height="1.36" rx="0.59" ry="0.59" transform="translate(73.8 -20.19) rotate(30)"/><polygon class="cls-6" points="63.1 128.98 56.55 131.02 59.95 132.38 63.1 128.98"/></svg>