<?xml version="1.0" encoding="utf-8"?>
<!-- Generator: Adobe Illustrator 22.0.1, SVG Export Plug-In . SVG Version: 6.00 Build 0)  -->
<svg version="1.1" id="Layer_1" xmlns="http://www.w3.org/2000/svg" xmlns:xlink="http://www.w3.org/1999/xlink" x="0px" y="0px"
	 viewBox="0 0 160 160" style="enable-background:new 0 0 160 160;" xml:space="preserve">
<style type="text/css">
	.st0{fill:#FFFFFF;}
	.st1{fill:#490B37;}
	.st2{fill:#02AABC;}
	.st3{fill:#FC039D;}
	.st4{opacity:0.1;enable-background:new    ;}
	.st5{opacity:0.6;fill:#FFFFFF;enable-background:new    ;}
	.st6{opacity:0.15;}
</style>
<title>Artboard 42 copy 120</title>
<path class="st0" d="M128.1,116.1c1.2-1.8-0.8-2.8-3.2-2.3c0,0-32.6,5.8-51.6,4.6s-35.3-10.3-39.8-8c0,0-6.6,0.9-5.3,5.3l0,0
	c-0.1,1.3,0.2,2.5,0.8,3.7c3.6,5.7,39.8,13.8,72.4,8c18.3-3.2,25.2-6.8,26.7-9.2C128.4,117.6,128.4,116.8,128.1,116.1z M53,125.4
	c-8.4-1.2-15.6-3-20.1-5.3C37.2,122.1,44.3,124,53,125.4z M98.8,125.7c0.8-0.1,1.7-0.3,2.5-0.4c2.3-0.4,4.5-0.8,6.5-1.2
	C105,124.7,102,125.3,98.8,125.7L98.8,125.7z"/>
<circle class="st1" cx="62.8" cy="136.7" r="6.1"/>
<circle class="st2" cx="60.1" cy="136.5" r="6.1"/>
<circle class="st1" cx="110.3" cy="135.1" r="6.1"/>
<circle class="st2" cx="107.7" cy="135.7" r="6.1"/>
<path d="M55.5,134l4.2,0.4c0.7,0.1,1.2,0.7,1.2,1.4l-0.1,1.5c-0.1,0.7-0.7,1.2-1.4,1.2l-4.2-0.4c-0.7-0.1-1.2-0.7-1.2-1.4l0.1-1.5
	C54.2,134.5,54.8,134,55.5,134z"/>
<path d="M102.5,134.7l4.1-0.9c0.7-0.2,1.4,0.3,1.5,1l0.3,1.5c0.2,0.7-0.3,1.4-1,1.5l-4.1,0.9c-0.7,0.2-1.4-0.3-1.5-1l-0.3-1.5
	C101.3,135.6,101.8,134.9,102.5,134.7z"/>
<circle class="st1" cx="98.3" cy="137.7" r="6.1"/>
<circle class="st0" cx="95.6" cy="138.3" r="6.1"/>
<circle class="st3" cx="95.6" cy="138.3" r="3.4"/>
<path class="st1" d="M119.3,127.5c-14.3,4.5-59.6,9.8-77.8-0.9c-1.8-1-4.4-2.9-4.4-2.9s32.9,10.8,72.9,1.8c11.3-2.9,18-5.5,18.4-9.2
	C131.5,118.3,125.9,125.4,119.3,127.5z"/>
<path class="st4" d="M28.2,115.6c-0.1,1.3,0.2,2.5,0.8,3.7c3.6,5.7,39.8,13.8,72.4,8c18.3-3.2,25.2-6.8,26.7-9.2
	c0.5-0.8,0-2.6-0.1-1.9c-6,4.7-23.4,10-43.3,10.7C58.6,127.9,30.3,123.2,28.2,115.6z"/>
<circle class="st1" cx="50.7" cy="135.7" r="6.1"/>
<circle class="st0" cx="48" cy="135.4" r="6.1"/>
<circle class="st3" cx="48" cy="135.4" r="3.4"/>
<path class="st5" d="M33.5,110.4c0,0-8.1,1.2-4.5,6.9s39.8,13.8,72.4,8c18.3-3.2,25.2-6.8,26.7-9.2c1.2-1.8-0.8-2.8-3.2-2.3
	c0,0-32.6,5.8-51.6,4.6S38,108.1,33.5,110.4z"/>
<g class="st6">
	<ellipse cx="78" cy="123" rx="18" ry="2"/>
</g>
</svg>
