<?xml version="1.0" encoding="utf-8"?>
<!-- Generator: Adobe Illustrator 22.0.1, SVG Export Plug-In . SVG Version: 6.00 Build 0)  -->
<svg version="1.1" id="Layer_1" xmlns="http://www.w3.org/2000/svg" xmlns:xlink="http://www.w3.org/1999/xlink" x="0px" y="0px" viewBox="0 0 160 160" style="enable-background:new 0 0 160 160;" xml:space="preserve">
    <style type="text/css">
    .st0 {
        fill: #FFFFFF;
    }

    .st1 {
        opacity: 0.12;
    }

    .st2 {
        fill: url(#SVGID_1_);
    }

    .st3 {
        opacity: 0.5;
        enable-background: new;
    }

    .st4 {
        opacity: 0.4;
        enable-background: new;
    }

    .st5 {
        opacity: 0.25;
    }

    .st6 {
        fill: url(#SVGID_2_);
    }
    </style>
    <title>Artboard 42 copy 65</title>
    <ellipse transform="matrix(0.9844 -0.1759 0.1759 0.9844 -19.8875 12.1465)" class="st0" cx="58.6" cy="118.3" rx="15.4" ry="25.6" />
    <g class="st1">
        <linearGradient id="SVGID_1_" gradientUnits="userSpaceOnUse" x1="-572.2111" y1="178.0278" x2="-554.6912" y2="178.0278" gradientTransform="matrix(0.9908 -0.1354 -0.1354 -0.9908 638.1053 219.1876)">
            <stop offset="0" style="stop-color:#FFFFFF" />
            <stop offset="1" style="stop-color:#000000" />
        </linearGradient>
        <path class="st2" d="M58.4,137.9c-4.6,0-9.5-7.6-11.3-17.3c-0.9-4.6-0.8-9.4,0.3-14c1-3.6,2.8-5.9,5-6.3c0.2,0,0.4-0.1,0.7-0.1
		c4.6,0,9.5,7.6,11.3,17.3c1.8,10.2-0.6,19.5-5.2,20.3C58.9,137.9,58.7,137.9,58.4,137.9z" />
        <path d="M53,101.2L53,101.2c4.4,0,8.9,8.5,10.3,16.5c0.9,4.5,0.8,9.1-0.3,13.6c-0.9,3.2-2.4,5.3-4.2,5.6c-0.2,0-0.3,0-0.5,0
		c-4.4,0-8.9-8.5-10.3-16.5c-0.9-4.5-0.8-9.1,0.3-13.6c0.9-3.2,2.4-5.3,4.2-5.6C52.7,101.1,52.9,101.1,53,101.2 M53,99.2
		c-0.3,0-0.6,0-0.8,0.1c-5.3,0.9-8,10.6-6,21.5c1.8,10.3,7.2,18.2,12.3,18.2c0.3,0,0.6,0,0.8-0.1c5.3-0.9,8-10.6,6-21.5
		C63.5,107,58.1,99.2,53,99.2L53,99.2z" />
    </g>
    <path class="st3" d="M59,117.9c0.3,1.8-1.5,3.7-1.5,3.7s-2.4-1.1-2.7-3s1.6-3.6,1.6-3.6S58.7,116.1,59,117.9z" />
    <path class="st4" d="M49.2,120.3c0.8,4.2,4.7,16.4,10,18.5c-5.3,0.9-11.2-7.1-13.1-18.1s0.8-20.6,6-21.5
	C47.6,101.5,48.4,116.1,49.2,120.3z" />
    <path class="st0" d="M120.7,120.8c-2.5,13.4-11.2,23.1-19.2,21.6c-7.6-1.4-12-12.2-10.4-24.6C94,116,107,113,115.6,96.3
	C120.4,100.8,122.7,110.4,120.7,120.8z" />
    <g class="st5">
        <linearGradient id="SVGID_2_" gradientUnits="userSpaceOnUse" x1="1164.433" y1="-7.1648" x2="1181.1617" y2="-7.1648" gradientTransform="matrix(0.9742 0.2258 0.2258 -0.9742 -1038.0945 -151.7941)">
            <stop offset="0" style="stop-color:#FFFFFF" />
            <stop offset="1" style="stop-color:#000000" />
        </linearGradient>
        <path class="st6" d="M100.5,135.9c-0.2,0-0.5,0-0.7-0.1c-4.2-0.8-6.5-8.9-5.1-18.2l0.5-0.2c2.7-1.2,10.5-4.8,16.1-12
		c1.1,4.6,1.2,9.3,0.2,13.9C109.8,128.6,104.9,135.9,100.5,135.9z" />
        <path d="M110.8,107.6c0.6,3.8,0.5,7.7-0.2,11.5c-1.4,7.6-5.8,15.8-10,15.8c-0.2,0-0.3,0-0.5,0c-3.9-0.7-5.3-9.1-4.3-16.6
		C101.4,115.9,106.5,112.2,110.8,107.6 M111.6,103.4C105,113,93.9,116.7,93.8,117c-1.7,10.1,0.9,18.9,5.8,19.8
		c0.3,0.1,0.6,0.1,0.9,0.1c4.9,0,10.1-7.5,12-17.4C113.7,113.1,113.3,107.2,111.6,103.4L111.6,103.4z" />
    </g>
    <path class="st4" d="M97,116.7c-0.7,4-1.4,16.4,2.7,20.2c-4.9-0.9-7.5-9.7-5.8-19.8c0-0.1,3.4-1.6,3.4-1.6S97,116.3,97,116.7z" />
</svg>