<?xml version="1.0" encoding="utf-8"?>
<!-- Generator: Adobe Illustrator 22.0.1, SVG Export Plug-In . SVG Version: 6.00 Build 0)  -->
<svg version="1.1" id="Layer_1" xmlns="http://www.w3.org/2000/svg" xmlns:xlink="http://www.w3.org/1999/xlink" x="0px" y="0px"
	 viewBox="0 0 160 160" style="enable-background:new 0 0 160 160;" xml:space="preserve">
<style type="text/css">
	.st0{fill:#FFFFFF;}
	.st1{fill:#FFC866;}
	.st2{opacity:0.28;enable-background:new    ;}
	.st3{fill:#444444;}
	.st4{opacity:0.2;enable-background:new    ;}
</style>
<title>Artboard 42 copy 96</title>
<path class="st0" d="M98.5,124.1c0,0-5.6-1.4-9.1,2.1c-3.5,3.5-3.5,8.4-1.4,8.4S90.1,135.3,98.5,124.1z"/>
<path class="st1" d="M88.4,118.6l1,7.6c1.9-1.4,3.7-2.4,5.2-2.4l-0.7-6.3C92.1,118,90.3,118.4,88.4,118.6z"/>
<path class="st0" d="M88.8,139v-4.5c1.1-1,2.3-1.9,3.5-2.8c1.7-1.2,4.4-5.5,4.4-5.6c0.8-6.9,0.2-14.4,8.9-18.9
	c14.7-7.7,19.6,0.7,19.6,0.7c-22.3-0.7-21.7,15.4-27.1,24.6s-8.6,6.1-8.6,6.1C93.6,136.4,93.4,137,88.8,139z"/>
<path class="st2" d="M96.6,126.2c0,0-2.8,4.3-4.4,5.6c-1.2,0.9-2.4,1.8-3.5,2.8v4.4C96.3,135.6,96.6,126.2,96.6,126.2z"/>
<path class="st3" d="M89.4,138.8c0,0,6.3,2.8,10.5-11.2s9.1-22.3,21-21.7c1.7,0,3.3,0.7,4.5,1.8c5.7,5.2,1.3,20.1-4.5,24.8
	c-7,5.6-22.3,11.2-28.6,9.1S89.4,138.8,89.4,138.8z"/>
<path class="st4" d="M88.4,127.3c0,0,4-0.3,4,1.8c0,1.3-0.5,2.6-1.4,3.5c0,0,4.6-3.5,5.7-6.7l0.2-1.2c0,0-0.5-0.8-3-0.9
	C93.9,123.8,89.8,124.4,88.4,127.3z"/>
<path class="st0" d="M63.5,124.1c0,0-5.6-1.4-9.1,2.1c-3.5,3.5-3.5,8.4-1.4,8.4S55.1,135.3,63.5,124.1z"/>
<path class="st1" d="M53.4,118.6l1,7.6c1.9-1.4,3.7-2.4,5.2-2.4l-0.7-6.3C57.1,118,55.3,118.4,53.4,118.6z"/>
<path class="st0" d="M53.8,139v-4.5c1.1-1,2.3-1.9,3.5-2.8c1.7-1.2,4.4-5.5,4.4-5.6c0.8-6.9,0.2-14.4,8.9-18.9
	c14.7-7.7,19.6,0.7,19.6,0.7c-22.3-0.7-21.7,15.4-27.1,24.6s-8.5,6.1-8.5,6.1C58.6,136.4,58.4,137,53.8,139z"/>
<path class="st2" d="M61.6,126.2c0,0-2.8,4.3-4.4,5.6c-1.2,0.9-2.4,1.8-3.5,2.8v4.4C61.3,135.6,61.6,126.2,61.6,126.2z"/>
<path class="st3" d="M54.4,138.8c0,0,6.3,2.8,10.5-11.2s9.1-22.3,21-21.7c1.7,0,3.3,0.7,4.5,1.8c5.7,5.2,1.3,20.1-4.5,24.8
	c-7,5.6-22.3,11.2-28.6,9.1S54.4,138.8,54.4,138.8z"/>
<path class="st4" d="M53.4,127.3c0,0,4-0.3,4,1.8c0,1.3-0.5,2.6-1.4,3.5c0,0,4.6-3.5,5.7-6.7l0.2-1.2c0,0-0.5-0.8-3-0.9
	C58.9,123.8,54.8,124.4,53.4,127.3z"/>
</svg>
