<svg xmlns="http://www.w3.org/2000/svg" xmlns:xlink="http://www.w3.org/1999/xlink" viewBox="0 0 160 160"><defs><style>.cls-1,.cls-5{fill:url(#linear-gradient);}.cls-1,.cls-2,.cls-3{clip-rule:evenodd;}.cls-2,.cls-4,.cls-8{fill:#fff;}.cls-12,.cls-5,.cls-8{fill-rule:evenodd;}.cls-6{clip-path:url(#clip-path);}.cls-7{fill:url(#linear-gradient-3);}.cls-9{clip-path:url(#clip-path-2);}.cls-10{clip-path:url(#clip-path-3);}.cls-11{opacity:0.05;}.cls-13{clip-path:url(#clip-path-4);}.cls-14{fill:#ffa58d;}</style><linearGradient id="linear-gradient" x1="271.83" y1="2629.33" x2="271.83" y2="2612.71" gradientTransform="matrix(1, 0, 0, -1, 0, 3270.33)" gradientUnits="userSpaceOnUse"><stop offset="0" stop-color="#a66707"/><stop offset="1"/></linearGradient><clipPath id="clip-path"><path class="cls-1" d="M282.92,645.8A14.37,14.37,0,0,0,272.3,641h0l-.2,0-.21,0h0c-10.6,1.07-18.13,10.4-15.32,15.28,2.46,5.5,19.9-8.34,27.83.57,2.35,1.31,3.73-1,3.23-3.43C287.17,651.31,285.83,649,282.92,645.8Z"/></clipPath><linearGradient id="linear-gradient-3" x1="191.98" y1="1060.14" x2="191.98" y2="-771.07" gradientTransform="matrix(1, 0, 0, 1, 0, 0)" xlink:href="#linear-gradient"/><clipPath id="clip-path-2"><path class="cls-2" d="M256.83,650.55s-1.83,3.45-.29,5.73c2.46,5.5,19.9-8.34,27.83.57a53.52,53.52,0,0,0,.45-8.81S256.83,651.39,256.83,650.55Z"/></clipPath><clipPath id="clip-path-3"><path class="cls-2" d="M282.92,645.8A14.37,14.37,0,0,0,272.3,641h0l-.2,0-.21,0h0A21.62,21.62,0,0,0,258,648.6s27.06-.24,26.65-.75S283.59,646.53,282.92,645.8Z"/></clipPath><clipPath id="clip-path-4"><path class="cls-3" d="M282.92,645.8c-1.92-2.8-7.37-4.41-7.37-4.41.45,1.61.45,5.61-.15,6.94,0,0,9.44-.28,9.27-.48C284.17,647.21,283.59,646.53,282.92,645.8Z"/></clipPath></defs><title>Artboard 42 copy 124</title><path class="cls-4" d="M85,123s-1,15,0,17,3,0,3,0l1-5a11.61,11.61,0,0,0,10,6c7,0,9-1,10-2s0-13-12-17S85,123,85,123Z"/><path class="cls-4" d="M77.85,123s1,15,0,17-3,0-3,0l-1-5a11.61,11.61,0,0,1-10,6c-7,0-9-1-10-2s0-13,12-17S77.85,123,77.85,123Z"/><path class="cls-5" d="M282.92,645.8A14.37,14.37,0,0,0,272.3,641h0l-.2,0-.21,0h0c-10.6,1.07-18.13,10.4-15.32,15.28,2.46,5.5,19.9-8.34,27.83.57,2.35,1.31,3.73-1,3.23-3.43C287.17,651.31,285.83,649,282.92,645.8Z"/><g class="cls-6"><rect class="cls-7" x="-311.11" y="-771.07" width="1006.19" height="1831.22"/></g><path class="cls-8" d="M256.83,650.55s-1.83,3.45-.29,5.73c2.46,5.5,19.9-8.34,27.83.57a53.52,53.52,0,0,0,.45-8.81S256.83,651.39,256.83,650.55Z"/><g class="cls-9"><rect class="cls-4" x="-311.11" y="-771.07" width="1006.19" height="1831.22"/></g><path class="cls-8" d="M282.92,645.8A14.37,14.37,0,0,0,272.3,641h0l-.2,0-.21,0h0A21.62,21.62,0,0,0,258,648.6s27.06-.24,26.65-.75S283.59,646.53,282.92,645.8Z"/><g class="cls-10"><rect class="cls-4" x="-311.11" y="-771.07" width="1006.19" height="1831.22"/></g><g class="cls-11"><path class="cls-12" d="M282.92,645.8c-1.92-2.8-7.37-4.41-7.37-4.41.45,1.61.45,5.61-.15,6.94,0,0,9.44-.28,9.27-.48C284.17,647.21,283.59,646.53,282.92,645.8Z"/><g class="cls-13"><rect x="-311.11" y="-771.07" width="1006.19" height="1831.22"/></g></g><path class="cls-14" d="M89,123c-1,1-2,6,3,9s9,3,11,0,0-6-3-8S91,121,89,123Z"/><path class="cls-14" d="M88.18,118.55s.2,7.1,0,7.27S90,127,91,126l1-9"/><path class="cls-14" d="M73.85,123c1,1,2,6-3,9s-9,3-11,0,0-6,3-8S71.85,121,73.85,123Z"/><path class="cls-14" d="M74.67,118.55s-.2,7.1,0,7.27-1.81,1.18-2.81.18l-1-8"/></svg>