<?xml version="1.0" encoding="utf-8"?>
<!-- Generator: Adobe Illustrator 22.0.1, SVG Export Plug-In . SVG Version: 6.00 Build 0)  -->
<svg version="1.1" id="Layer_1" xmlns="http://www.w3.org/2000/svg" xmlns:xlink="http://www.w3.org/1999/xlink" x="0px" y="0px"
	 viewBox="0 0 160 160" style="enable-background:new 0 0 160 160;" xml:space="preserve">
<style type="text/css">
	.st0{fill:none;stroke:#000000;stroke-miterlimit:10;}
	.st1{opacity:0.2;enable-background:new    ;}
	.st2{opacity:0.4;enable-background:new    ;}
	.st3{opacity:0.6;enable-background:new    ;}
	.st4{opacity:0.3;fill:#FFFFFF;enable-background:new    ;}
</style>
<title>Artboard 42 copy 91</title>
<path class="st0" d="M86.9,119c-1.9,1.5-5.4,3.2-11.9,3.6"/>
<path class="st1" d="M39,110l9,23c0,0,48-1,47-2c-0.6-0.6-2.8-7.3-4.6-13c-22.4,5-36.3-8-36.3-8H39z"/>
<path class="st0" d="M63.5,131.9c-0.8-2.1,32.1-10.7,32.8-7.4c0.3,1.9-34.4,4.9-34.7,3.1s7.2-4.3,16.8-5.3l2.1-0.2"/>
<path class="st0" d="M63.5,137.9c-0.8-2.1,32.1-10.7,32.8-7.4c0.3,1.9-7.2,3.4-16.8,4.5s-17.6,0.4-17.9-1.4
	c-0.1-0.6,0.5-1.2,1.7-1.8"/>
<polyline class="st2" points="95,131 121,140 95,142.4 78,144 48,133 "/>
<polygon class="st2" points="95,130.9 95,142 121,140 "/>
<path class="st3" d="M48,133v18.2c0.8,0.5,3.1,0.6,5.2,0.8H78v-8L48,133z"/>
<path class="st4" d="M121,140v7.2c-4.4,3.1-9.6,4.8-15,4.8H78v-8L121,140z"/>
</svg>
