<?xml version="1.0" encoding="utf-8"?>
<!-- Generator: Adobe Illustrator 22.0.1, SVG Export Plug-In . SVG Version: 6.00 Build 0)  -->
<svg version="1.1" id="Layer_1" xmlns="http://www.w3.org/2000/svg" xmlns:xlink="http://www.w3.org/1999/xlink" x="0px" y="0px"
	 viewBox="0 0 160 160" style="enable-background:new 0 0 160 160;" xml:space="preserve">
<style type="text/css">
	.st0{fill:#FFFFFF;}
	.st1{fill:#2868A3;}
	.st2{opacity:0.2;}
	.st3{fill:url(#SVGID_1_);}
	.st4{fill:url(#SVGID_2_);}
	.st5{opacity:0.1;}
</style>
<title>Artboard 42 copy 86</title>
<path class="st0" d="M51.2,97.7c0,0-7.7-1.4-7,8.3s-2.1,19.5,3.5,26.4c5.6,7,16.7,11.8,22.9,8.4s5.6-15.3-1.4-20.2s-6.2-11.1-7-15.3
	S57.5,99.1,51.2,97.7z"/>
<path class="st1" d="M51.2,97.7c0,0-7.7-1.4-7,8.3s-2.1,19.5,3.5,26.4c12.2,12.9,22.9,8.4,22.9,8.4C57.5,142.2,43.8,100.5,51.2,97.7
	z"/>
<path class="st0" d="M53.6,99.8L53.6,99.8c4,0,7.3,3.3,7.3,7.3v0c0,4-3.3,7.3-7.3,7.3l0,0c-4,0-7.3-3.3-7.3-7.3v0
	C46.3,103,49.6,99.8,53.6,99.8z"/>
<g class="st2">
	<ellipse cx="55" cy="106.7" rx="5.9" ry="6.3"/>
</g>
<linearGradient id="SVGID_1_" gradientUnits="userSpaceOnUse" x1="89.75" y1="43.4855" x2="103.15" y2="43.4855" gradientTransform="matrix(1 0 0 -1 0 162)">
	<stop  offset="0" style="stop-color:#A66707"/>
	<stop  offset="0.5" style="stop-color:#9D6209"/>
	<stop  offset="1" style="stop-color:#000000"/>
</linearGradient>
<path class="st3" d="M89.8,117.9L90,124c3.2,1.2,6.8,1.2,10,0l3.2-11.8C103.2,112.2,95.5,116.8,89.8,117.9z"/>
<linearGradient id="SVGID_2_" gradientUnits="userSpaceOnUse" x1="91.55" y1="29.2733" x2="98" y2="29.2733" gradientTransform="matrix(1 0 0 -1 0 162)">
	<stop  offset="0" style="stop-color:#FFFFFF"/>
	<stop  offset="0.48" style="stop-color:#F6F6F6"/>
	<stop  offset="0.81" style="stop-color:#CCCCCC"/>
	<stop  offset="1" style="stop-color:#999999"/>
</linearGradient>
<path class="st4" d="M92,124.6c0,0-1.1,12.4,0,14.4s4.4,3,4.4,0s1.6-14.4,1.6-14.4c-1,0.1-2,0.2-3,0.2C94,124.8,93,124.8,92,124.6z"
	/>
<g class="st5">
	<path d="M92,139c1.1,2,4.4,3,4.4,0s1.6-14.4,1.6-14.4l-3,0.2C95,124.8,95,140,92,139z"/>
</g>
</svg>
