<?xml version="1.0" encoding="utf-8"?>
<!-- Generator: Adobe Illustrator 22.0.1, SVG Export Plug-In . SVG Version: 6.00 Build 0)  -->
<svg version="1.1" id="Layer_1" xmlns="http://www.w3.org/2000/svg" xmlns:xlink="http://www.w3.org/1999/xlink" x="0px" y="0px"
	 viewBox="0 0 160 160" style="enable-background:new 0 0 160 160;" xml:space="preserve">
<style type="text/css">
	.st0{fill:#FFFFFF;}
	.st1{fill:#FFC866;}
	.st2{opacity:0.28;enable-background:new    ;}
	.st3{fill:#444444;}
	.st4{opacity:0.2;enable-background:new    ;}
	.st5{opacity:0.3;enable-background:new    ;}
	.st6{opacity:0.2;}
</style>
<title>Artboard 42 copy 80</title>
<path class="st0" d="M94.6,124.3c0,0-5.2-1.3-8.4,2s-3.2,7.8-1.3,7.8S86.8,134.7,94.6,124.3z"/>
<path class="st1" d="M85.3,119.2l0.9,7.1c1.8-1.3,3.5-2.2,4.8-2.2l-0.6-5.9C88.7,118.7,87,119,85.3,119.2z"/>
<path class="st0" d="M85.7,138.2v-4.2c1-0.9,2.1-1.8,3.2-2.6c1.5-1.1,4.1-5.1,4.1-5.2c0.7-6.4,0.2-13.4,8.2-17.6
	c13.7-7.2,18.2,0.7,18.2,0.7c-20.8-0.7-20.2,14.3-25.2,22.9s-8,5.7-8,5.7C90.1,135.8,89.9,136.3,85.7,138.2z"/>
<path class="st2" d="M92.9,126.3c0,0-2.6,4-4.1,5.2c-1.1,0.8-2.2,1.7-3.2,2.6v4.2C92.7,135,92.9,126.3,92.9,126.3z"/>
<path class="st3" d="M86.2,138c0,0,5.8,2.6,9.8-10.4s8.4-20.8,19.5-20.2c1.6,0,3,0.6,4.2,1.6c5.3,4.8,1.2,18.7-4.2,23.1
	c-6.5,5.2-20.8,10.4-26.7,8.4S86.2,138,86.2,138z"/>
<path class="st4" d="M85.3,127.3c0,0,3.7-0.3,3.7,1.7c0,1.2-0.5,2.4-1.3,3.3c0,0,4.3-3.3,5.3-6.3l0.2-1.1c0,0-0.4-0.7-2.8-0.8
	C90.4,124.1,86.6,124.7,85.3,127.3z"/>
<path class="st0" d="M52.2,98.7c0,0-7.7-1.4-7,8.3s-2.1,19.5,3.5,26.4c5.6,7,16.7,11.8,22.9,8.4s5.6-15.3-1.4-20.2s-6.2-11.1-7-15.3
	S58.5,100.1,52.2,98.7z"/>
<path class="st5" d="M52.2,98.7c0,0-7.7-1.4-7,8.3s-2.1,19.5,3.5,26.4c12.2,12.9,22.9,8.4,22.9,8.4C58.5,143.2,44.8,101.5,52.2,98.7
	z"/>
<path class="st0" d="M54.6,100.8L54.6,100.8c4,0,7.3,3.3,7.3,7.3v0c0,4-3.3,7.3-7.3,7.3l0,0c-4,0-7.3-3.3-7.3-7.3v0
	C47.3,104,50.6,100.8,54.6,100.8z"/>
<g class="st6">
	<ellipse cx="56" cy="107.7" rx="5.9" ry="6.3"/>
</g>
</svg>
