<?xml version="1.0" encoding="utf-8"?>
<!-- Generator: Adobe Illustrator 22.0.1, SVG Export Plug-In . SVG Version: 6.00 Build 0)  -->
<svg version="1.1" id="Layer_1" xmlns="http://www.w3.org/2000/svg" xmlns:xlink="http://www.w3.org/1999/xlink" x="0px" y="0px"
	 viewBox="0 0 160 160" style="enable-background:new 0 0 160 160;" xml:space="preserve">
<style type="text/css">
	.st0{fill:#FFFFFF;}
	.st1{opacity:0.2;enable-background:new    ;}
	.st2{fill:#FFC866;}
	.st3{opacity:0.28;enable-background:new    ;}
	.st4{fill:url(#SVGID_1_);}
	.st5{opacity:0.15;}
	.st6{fill:none;stroke:#000000;stroke-width:0.5;stroke-linecap:round;stroke-linejoin:round;}
	.st7{fill:#444444;}
</style>
<title>Artboard 42 copy 75</title>
<path class="st0" d="M64,124.3c0,0,5.2-1.3,8.4,2s3.2,7.8,1.3,7.8S71.8,134.7,64,124.3z"/>
<path class="st1" d="M72.5,126.3c3.2,3.2,3.2,7.8,1.3,7.8s-1.9,0.6-8.2-7.7C65.1,125.7,75,138,72.5,126.3z"/>
<path class="st2" d="M73.4,119.2l-0.9,7.1c-1.8-1.3-3.5-2.2-4.8-2.2l0.6-5.9C70,118.7,71.7,119,73.4,119.2z"/>
<path class="st0" d="M73,138.2v-4.2c-1-0.9-2.1-1.8-3.2-2.6c-1.5-1.1-4.1-5.1-4.1-5.2c-0.7-6.4-0.2-13.4-8.2-17.6
	c-13.7-7.2-18.2,0.7-18.2,0.7c20.8-0.7,20.1,14.3,25.2,22.9s8,5.7,8,5.7C68.6,135.8,68.8,136.3,73,138.2z"/>
<path class="st3" d="M65.8,126.3c0,0,2.6,4,4.1,5.2c1.1,0.8,2.2,1.7,3.2,2.6v4.2C66,135,65.8,126.3,65.8,126.3z"/>
<circle class="st0" cx="103.5" cy="124.5" r="15.5"/>
<radialGradient id="SVGID_1_" cx="103.5" cy="37.5" r="15.5" gradientTransform="matrix(1 0 0 -1 0 162)" gradientUnits="userSpaceOnUse">
	<stop  offset="0" style="stop-color:#FFFFFF"/>
	<stop  offset="0.73" style="stop-color:#FDFDFD"/>
	<stop  offset="1" style="stop-color:#EBEBEC"/>
</radialGradient>
<path class="st4" d="M103.5,110c8,0,14.5,6.5,14.5,14.5s-6.5,14.5-14.5,14.5S89,132.5,89,124.5C89,116.5,95.5,110,103.5,110
	 M103.5,109c-8.6,0-15.5,6.9-15.5,15.5s6.9,15.5,15.5,15.5s15.5-6.9,15.5-15.5l0,0C119,116,112.1,109,103.5,109
	C103.5,109,103.5,109,103.5,109z"/>
<g class="st5">
	<path d="M119,124.5c0,8.6-6.9,15.5-15.5,15.5c-5,0.1-9.8-2.4-12.6-6.5c23.3,5.5,23.3-18.7,19.1-23
		C115.6,112.9,119.1,118.4,119,124.5z"/>
</g>
<path d="M111.9,122.7l-1.9,6.6c-0.1,0.3-0.4,0.6-0.8,0.6l-6.8,0.2c-0.4,0-0.7-0.2-0.8-0.6l-2.3-6.5c-0.1-0.4,0-0.8,0.3-1l5.4-4.2
	c0.3-0.2,0.7-0.2,1,0l5.7,3.9C111.9,121.9,112,122.3,111.9,122.7z"/>
<path d="M109.5,110.2l-4.2,3.2c-0.3,0.2-0.7,0.2-1,0l-5.5-3.8C102.3,108.6,106.1,108.8,109.5,110.2z"/>
<path d="M100,134.8l1.8,5.1c-2.2,0.1-8.9-2.8-10-5.2c0-0.2,0.3-0.2,0.5-0.2l6.9-0.2C99.6,134.2,99.9,134.5,100,134.8z"/>
<path d="M91.6,114.5l1.9,5.5c0.1,0.3,0,0.7-0.3,0.9l-5.3,4C87.8,121.1,89.1,117.4,91.6,114.5z"/>
<path d="M111.5,137.8l1.4-4.7c0.1-0.3,0.4-0.6,0.8-0.6l3.2-0.1C115.5,134.6,113.7,136.5,111.5,137.8z"/>
<path d="M118.7,121.4l-1.7-1.1c-0.3-0.2-0.4-0.6-0.3-0.9l0.6-1.9C118,118.6,118.5,120,118.7,121.4z"/>
<line class="st6" x1="101.6" y1="130.3" x2="100.1" y2="133.7"/>
<line class="st6" x1="97.7" y1="122" x2="94.3" y2="120.7"/>
<line class="st6" x1="116.1" y1="119.6" x2="112.7" y2="121.2"/>
<line class="st6" x1="104.6" y1="113.7" x2="104.8" y2="117.4"/>
<line class="st6" x1="112.8" y1="132.4" x2="110.2" y2="129.7"/>
<path class="st7" d="M72.5,138c0,0-5.8,2.6-9.8-10.4s-8.5-20.8-19.5-20.2c-1.6,0-3.1,0.6-4.2,1.6c-5.3,4.8-1.2,18.7,4.2,23.1
	c6.5,5.2,20.8,10.4,26.7,8.4S72.5,138,72.5,138z"/>
</svg>
