<?xml version="1.0" encoding="utf-8"?>
<!-- Generator: Adobe Illustrator 22.0.1, SVG Export Plug-In . SVG Version: 6.00 Build 0)  -->
<svg version="1.1" id="Layer_1" xmlns="http://www.w3.org/2000/svg" xmlns:xlink="http://www.w3.org/1999/xlink" x="0px" y="0px"
	 viewBox="0 0 160 160" style="enable-background:new 0 0 160 160;" xml:space="preserve">
<style type="text/css">
	.st0{fill:url(#SVGID_1_);}
	.st1{fill:url(#SVGID_2_);}
	.st2{fill:url(#SVGID_3_);}
	.st3{opacity:0.1;}
	.st4{fill:#050505;}
	.st5{fill:#FFFFFF;}
	.st6{opacity:5.000000e-02;}
	.st7{fill:#0F0F0F;}
	.st8{fill:#3E9AFF;}
	.st9{opacity:0.5;enable-background:new    ;}
</style>
<title>Artboard 42 copy 128</title>
<radialGradient id="SVGID_1_" cx="69.5" cy="43.5" r="2.0616" gradientTransform="matrix(1 0 0 -1 0 162)" gradientUnits="userSpaceOnUse">
	<stop  offset="0" style="stop-color:#FFD22D"/>
	<stop  offset="0.87" style="stop-color:#FCB22B"/>
	<stop  offset="1" style="stop-color:#F28312"/>
</radialGradient>
<rect x="67" y="117" class="st0" width="5" height="3"/>
<linearGradient id="SVGID_2_" gradientUnits="userSpaceOnUse" x1="86.75" y1="42.4855" x2="100.15" y2="42.4855" gradientTransform="matrix(1 0 0 -1 0 162)">
	<stop  offset="0" style="stop-color:#A66707"/>
	<stop  offset="0.5" style="stop-color:#9D6209"/>
	<stop  offset="1" style="stop-color:#000000"/>
</linearGradient>
<path class="st1" d="M86.8,118.9L87,125c3.2,1.2,6.8,1.2,10,0l3.2-11.8C100.2,113.2,92.5,117.8,86.8,118.9z"/>
<linearGradient id="SVGID_3_" gradientUnits="userSpaceOnUse" x1="88.55" y1="28.2733" x2="95" y2="28.2733" gradientTransform="matrix(1 0 0 -1 0 162)">
	<stop  offset="0" style="stop-color:#FFFFFF"/>
	<stop  offset="0.48" style="stop-color:#F6F6F6"/>
	<stop  offset="0.81" style="stop-color:#CCCCCC"/>
	<stop  offset="1" style="stop-color:#999999"/>
</linearGradient>
<path class="st2" d="M89,125.6c0,0-1.1,12.4,0,14.4s4.4,3,4.4,0s1.6-14.4,1.6-14.4c-1,0.1-2,0.2-3,0.2C91,125.8,90,125.8,89,125.6z"
	/>
<g class="st3">
	<path d="M89,140c1.1,2,4.4,3,4.4,0s1.6-14.4,1.6-14.4l-3,0.2C92,125.8,92,141,89,140z"/>
</g>
<path class="st4" d="M52,108c-0.1,2.8,42.6,12.2,54.3,1.2c0,0-9.3,9.8-26.3,9.8S61,114,52,108z"/>
<path class="st4" d="M80.5,109.9l7.7,0c2.6,0,4.8,2.2,4.8,4.8l0,1.7c0,2.6-2.2,4.8-4.8,4.8l-7.7,0c-2.6,0-4.8-2.2-4.8-4.8l0-1.7
	C75.7,112.1,77.8,109.9,80.5,109.9z"/>
<path class="st5" d="M81,111.3l6.6,0c1.8,0,3.2,1.5,3.2,3.2l0,2.1c0,1.8-1.5,3.2-3.2,3.2l-6.6,0c-1.8,0-3.2-1.5-3.2-3.2l0-2.1
	C77.8,112.8,79.2,111.3,81,111.3z"/>
<g class="st6">
	<path d="M84.3,111.3c1.6,0.5,2.8,2,2.7,3.7c0,3,0,4-1,5s4,1,5-3s0-6-1-6S84.3,111.3,84.3,111.3z"/>
</g>
<path class="st7" d="M57.1,138H81c1.1,0,2,0.9,2,2l0,0c0,1.1-0.9,2-2,2H57.1c-1.1,0-2-0.9-2-2l0,0C55.1,138.9,56,138,57.1,138z"/>
<path class="st8" d="M75.7,126.8c-1.5-2-1.7-5.8-1.7-5.8h-7c0.8,0.9-1.1,3.7-2,4.9c-10,1.2-9.9,10.1-9.9,10.1s3.1,3,10.1,3h13.2
	c0,0,4.7-1,4.7-3C83,134.3,83.6,129,75.7,126.8z"/>
<path class="st9" d="M64.6,126.5c0,0,3.4-4.4,2.4-5.5h7c0,0,0.4,6.3,3.2,7C77.2,128,72.2,125.3,64.6,126.5z"/>
<path class="st5" d="M63.5,120h13c1.4,0,2.5,1.1,2.5,2.5l0,0c0,1.4-1.1,2.5-2.5,2.5h-13c-1.4,0-2.5-1.1-2.5-2.5l0,0
	C61,121.1,62.1,120,63.5,120z"/>
</svg>
