<svg xmlns="http://www.w3.org/2000/svg" viewBox="0 0 160 160"><defs><style>.cls-1,.cls-4{fill:#fff;}.cls-2{fill:#020202;opacity:0.2;}.cls-3{opacity:0.8;}.cls-4{opacity:0.1;}</style></defs><title>Artboard 42 copy 106</title><path class="cls-1" d="M107.93,109.93l-19,8.75a6.75,6.75,0,0,0-10-.08L53.07,106.68q-8.22,14.41,0,34.64l26-13.32a3.5,3.5,0,0,1-.52-.83,6.77,6.77,0,0,0,9.82.9l19.57,10C113,129.8,113.73,120.58,107.93,109.93Z"/><path class="cls-2" d="M88.91,118.68l19-8.75c5.79,10.65,5,19.87,0,28.14l-19.57-10C90.33,125.08,91,122,88.91,118.68Z"/><path class="cls-3" d="M97.9,126.88l-7.1-1.58s-1.2-.09-1.13-.83h0c.08-.74,1.27-.52,1.27-.52l7.24.24a1.35,1.35,0,0,1,1.06,1.5h0A1.25,1.25,0,0,1,97.9,126.88Z"/><path class="cls-3" d="M98.25,121l-7.14,1.39s-1.14.41-1.31-.31h0c-.17-.72,1-1,1-1l6.83-2.7a1.2,1.2,0,0,1,1.47,1h0A1.39,1.39,0,0,1,98.25,121Z"/><path class="cls-3" d="M69.25,126.88l9.27-1.58s1.57-.09,1.47-.83h0c-.1-.74-1.65-.52-1.65-.52l-9.44.24a1.42,1.42,0,0,0-1.38,1.5h0A1.52,1.52,0,0,0,69.25,126.88Z"/><path class="cls-3" d="M68.8,121l9.31,1.39s1.5.41,1.72-.31h0c.22-.72-1.32-1-1.32-1l-8.91-2.7a1.61,1.61,0,0,0-1.92,1h0A1.36,1.36,0,0,0,68.8,121Z"/><path class="cls-4" d="M79,119s-3,1,0,7c0,0,1-6,3-7C84,116,79,119,79,119Z"/></svg>