<?xml version="1.0" encoding="utf-8"?>
<!-- Generator: Adobe Illustrator 22.0.1, SVG Export Plug-In . SVG Version: 6.00 Build 0)  -->
<svg version="1.1" id="Layer_1" xmlns="http://www.w3.org/2000/svg" xmlns:xlink="http://www.w3.org/1999/xlink" x="0px" y="0px"
	 viewBox="0 0 160 160" style="enable-background:new 0 0 160 160;" xml:space="preserve">
<style type="text/css">
	.st0{fill:url(#SVGID_1_);}
	.st1{opacity:0.14;enable-background:new    ;}
	.st2{fill:none;stroke:#C9C9C9;stroke-linecap:round;stroke-linejoin:round;}
</style>
<title>Artboard 42 copy 101</title>
<radialGradient id="SVGID_1_" cx="85.28" cy="40.53" r="3.9" gradientTransform="matrix(1 0 0 -1 0 162)" gradientUnits="userSpaceOnUse">
	<stop  offset="0" style="stop-color:#FFD22D"/>
	<stop  offset="0.87" style="stop-color:#FCB22B"/>
	<stop  offset="1" style="stop-color:#F28312"/>
</radialGradient>
<path class="st0" d="M80.5,124.5c1,2,6-1,6-1s5,0,4-2c-0.4-0.9-3.9-2.6-3.9-2.6l-4.8,0.6C81.8,119.5,80,123.4,80.5,124.5z"/>
<path class="st1" d="M80.5,124.5c1,2,4-1,6-1s5,0,4-2C89,122,83,124,80.5,124.5z"/>
<path class="st2" d="M86.5,123.5c-0.6,1.6,0.3,3.4,1.9,4c0,0,0.1,0,0.1,0c3,1,13,11-3,14s-12-14-24-18s-17,2-17,2"/>
</svg>
