<?xml version="1.0" encoding="utf-8"?>
<!-- Generator: Adobe Illustrator 16.0.0, SVG Export Plug-In . SVG Version: 6.00 Build 0)  -->
<!DOCTYPE svg PUBLIC "-//W3C//DTD SVG 1.1//EN" "http://www.w3.org/Graphics/SVG/1.1/DTD/svg11.dtd">
<svg version="1.1" id="Layer_1" xmlns="http://www.w3.org/2000/svg" xmlns:xlink="http://www.w3.org/1999/xlink" x="0px" y="0px"
	 width="160px" height="160px" viewBox="0 0 160 160" enable-background="new 0 0 160 160" xml:space="preserve">
<g id="a1">
	
		<path id="STROKE_44FBE77C.-FFBF.-4A15.-88AD.-79BB1047AC05" fill="none" stroke="#000000" stroke-width="1.51" stroke-linecap="round" stroke-linejoin="round" d="
		M56.683,105.097c0.128,0.007,0.218,0.016,0.271,0.03c0.052,0.016,0.105,0.021,0.163,0.023c0.057,0,0.112-0.004,0.165-0.017
		c0.053-0.011,0.105-0.021,0.156-0.032c0.05-0.014,0.102-0.029,0.153-0.05c0.051-0.021,0.104-0.042,0.158-0.063
		c0.055-0.021,0.114-0.04,0.18-0.059c0.065-0.018,0.13-0.033,0.193-0.045l0.393-0.087c0.067-0.015,0.133-0.036,0.198-0.067
		c0.066-0.031,0.124-0.062,0.173-0.092c0.049-0.031,0.098-0.068,0.149-0.107c0.05-0.041,0.104-0.084,0.161-0.129
		s0.112-0.092,0.164-0.136c0.053-0.044,0.107-0.086,0.161-0.123c0.054-0.038,0.106-0.073,0.155-0.108
		c0.049-0.033,0.098-0.065,0.148-0.096c0.049-0.031,0.098-0.06,0.147-0.086c0.05-0.027,0.098-0.055,0.146-0.082
		c0.047-0.026,0.095-0.053,0.145-0.081c0.05-0.026,0.099-0.059,0.148-0.096c0.048-0.036,0.096-0.076,0.142-0.118
		c0.047-0.044,0.092-0.092,0.137-0.145s0.09-0.107,0.133-0.163s0.085-0.114,0.125-0.175s0.079-0.123,0.118-0.184
		s0.079-0.121,0.119-0.179c0.041-0.058,0.077-0.118,0.11-0.178c0.032-0.06,0.064-0.117,0.096-0.169
		c0.032-0.052,0.06-0.104,0.086-0.152c0.026-0.048,0.054-0.102,0.085-0.157c0.031-0.056,0.062-0.112,0.092-0.167
		c0.031-0.057,0.061-0.115,0.091-0.179c0.029-0.063,0.06-0.124,0.093-0.185c0.032-0.059,0.063-0.121,0.092-0.187
		c0.029-0.065,0.059-0.132,0.09-0.202c0.032-0.068,0.061-0.141,0.088-0.215c0.026-0.076,0.053-0.156,0.08-0.24
		c0.027-0.086,0.051-0.172,0.072-0.259s0.04-0.173,0.058-0.259c0.017-0.086,0.031-0.155,0.04-0.206
		c0.009-0.052,0.02-0.123,0.033-0.216c0.012-0.092,0.027-0.182,0.044-0.271c0.017-0.089,0.035-0.175,0.053-0.259
		c0.018-0.083,0.037-0.161,0.053-0.233c0.017-0.072,0.034-0.146,0.051-0.218c0.017-0.073,0.036-0.145,0.057-0.216
		c0.021-0.07,0.039-0.143,0.053-0.215c0.013-0.071,0.028-0.146,0.044-0.227c0.017-0.078,0.029-0.158,0.041-0.24
		c0.012-0.082,0.022-0.172,0.031-0.268c0.008-0.098,0.015-0.172,0.021-0.223c0.006-0.051,0.009-0.104,0.009-0.161
		c0.001-0.056,0.003-0.112,0.008-0.169c0.004-0.057,0.007-0.115,0.007-0.175c0.001-0.06,0.003-0.118,0.007-0.175
		s0.006-0.112,0.007-0.17c0.001-0.056,0.002-0.113,0.002-0.172c0-0.06,0.002-0.117,0.006-0.175c0.005-0.057,0.008-0.112,0.01-0.165
		c0.002-0.053,0.003-0.105,0.006-0.158c0-0.054,0.003-0.127,0.009-0.221c0.006-0.094,0.013-0.182,0.017-0.266
		c0.005-0.083,0.008-0.168,0.009-0.253c0.001-0.087,0.003-0.169,0.006-0.249c0.003-0.079,0.002-0.164,0-0.256
		c-0.004-0.09-0.01-0.186-0.019-0.282c-0.007-0.099-0.013-0.173-0.018-0.224c-0.004-0.053-0.009-0.105-0.015-0.16
		c-0.004-0.055-0.011-0.111-0.018-0.168c-0.007-0.059-0.013-0.117-0.019-0.174c-0.005-0.059-0.011-0.117-0.017-0.175
		s-0.012-0.116-0.018-0.174c-0.006-0.06-0.012-0.116-0.018-0.175c-0.005-0.057-0.01-0.115-0.013-0.174
		c-0.003-0.059-0.007-0.115-0.008-0.172c-0.002-0.055-0.006-0.108-0.01-0.16c-0.005-0.053-0.01-0.131-0.018-0.234
		c-0.005-0.104-0.011-0.203-0.015-0.297c-0.003-0.095-0.01-0.186-0.019-0.273c-0.009-0.086-0.018-0.172-0.027-0.26
		c-0.01-0.088-0.022-0.176-0.039-0.266c-0.016-0.088-0.033-0.18-0.05-0.275s-0.031-0.167-0.042-0.217
		c-0.011-0.05-0.02-0.102-0.028-0.152c-0.007-0.051-0.018-0.105-0.03-0.16c-0.012-0.058-0.023-0.115-0.032-0.172
		c-0.009-0.057-0.02-0.113-0.032-0.17s-0.023-0.115-0.033-0.177c-0.01-0.06-0.02-0.121-0.03-0.181
		c-0.009-0.062-0.017-0.12-0.023-0.178c-0.005-0.058-0.013-0.115-0.021-0.173c-0.01-0.058-0.019-0.112-0.028-0.167
		c-0.009-0.054-0.018-0.105-0.025-0.158c-0.008-0.051-0.019-0.119-0.03-0.205c-0.012-0.086-0.024-0.175-0.038-0.265
		c-0.013-0.089-0.023-0.174-0.035-0.254c-0.011-0.08-0.024-0.157-0.041-0.232c-0.016-0.076-0.032-0.159-0.049-0.251
		c-0.016-0.092-0.034-0.182-0.053-0.27l-0.319-1.467c-0.012-0.053-0.025-0.105-0.04-0.16c-0.016-0.053-0.028-0.105-0.04-0.158
		c-0.012-0.054-0.024-0.105-0.039-0.154c-0.014-0.05-0.032-0.119-0.055-0.211c-0.023-0.091-0.042-0.16-0.056-0.211
		c-0.014-0.049-0.032-0.117-0.054-0.201c-0.022-0.083-0.045-0.168-0.071-0.256c-0.026-0.086-0.051-0.176-0.077-0.27
		c-0.027-0.094-0.047-0.164-0.061-0.215c-0.014-0.049-0.028-0.098-0.042-0.147c-0.014-0.05-0.029-0.101-0.044-0.153
		c-0.015-0.053-0.03-0.106-0.045-0.158c-0.014-0.053-0.03-0.107-0.045-0.164c-0.016-0.055-0.031-0.111-0.047-0.167
		c-0.015-0.056-0.033-0.112-0.052-0.171c-0.021-0.059-0.037-0.115-0.053-0.172c-0.015-0.057-0.03-0.11-0.045-0.164
		c-0.015-0.051-0.031-0.104-0.048-0.156c-0.018-0.053-0.035-0.105-0.053-0.156c-0.018-0.052-0.034-0.103-0.048-0.152
		c-0.015-0.05-0.04-0.121-0.078-0.215c-0.037-0.096-0.07-0.186-0.098-0.271c-0.028-0.085-0.058-0.172-0.091-0.261
		c-0.033-0.089-0.066-0.179-0.1-0.271c-0.032-0.091-0.065-0.184-0.094-0.275c-0.03-0.093-0.055-0.162-0.075-0.211
		c-0.021-0.047-0.04-0.098-0.058-0.15s-0.036-0.104-0.054-0.156c-0.018-0.052-0.038-0.107-0.06-0.164
		c-0.022-0.059-0.044-0.116-0.067-0.174c-0.023-0.059-0.044-0.117-0.064-0.179c-0.02-0.061-0.042-0.122-0.064-0.183
		c-0.024-0.061-0.048-0.12-0.073-0.177c-0.025-0.057-0.049-0.116-0.073-0.177c-0.023-0.061-0.046-0.12-0.068-0.173
		c-0.022-0.055-0.043-0.109-0.064-0.164c-0.022-0.055-0.041-0.106-0.058-0.155c-0.018-0.049-0.043-0.121-0.078-0.215
		c-0.034-0.095-0.067-0.18-0.1-0.256c-0.033-0.075-0.064-0.151-0.094-0.226c-0.03-0.076-0.062-0.151-0.095-0.226
		c-0.033-0.076-0.069-0.152-0.109-0.229c-0.039-0.077-0.08-0.159-0.122-0.245c-0.041-0.087-0.085-0.176-0.132-0.268
		s-0.082-0.161-0.105-0.209c-0.023-0.047-0.047-0.096-0.071-0.147c-0.024-0.052-0.049-0.102-0.073-0.153
		c-0.024-0.05-0.047-0.1-0.071-0.147c-0.024-0.048-0.048-0.095-0.072-0.144c-0.024-0.047-0.057-0.117-0.1-0.209
		c-0.043-0.092-0.086-0.183-0.128-0.273c-0.042-0.089-0.083-0.171-0.124-0.249c-0.041-0.077-0.073-0.137-0.099-0.181
		s-0.058-0.101-0.097-0.172c-0.039-0.07-0.08-0.142-0.122-0.215c-0.042-0.073-0.086-0.147-0.132-0.223
		c-0.046-0.076-0.092-0.152-0.139-0.232c-0.047-0.079-0.096-0.161-0.147-0.245c-0.051-0.085-0.09-0.149-0.116-0.192
		c-0.027-0.044-0.053-0.089-0.079-0.136c-0.027-0.047-0.054-0.095-0.081-0.145c-0.028-0.05-0.055-0.098-0.082-0.146
		c-0.026-0.047-0.054-0.096-0.081-0.145c-0.028-0.05-0.057-0.098-0.086-0.144s-0.069-0.113-0.118-0.201
		c-0.05-0.088-0.094-0.166-0.131-0.234s-0.074-0.131-0.109-0.189c-0.036-0.058-0.07-0.113-0.105-0.165s-0.068-0.104-0.099-0.156
		c-0.03-0.052-0.065-0.105-0.103-0.16c-0.038-0.054-0.08-0.115-0.124-0.181c-0.045-0.066-0.09-0.135-0.135-0.208
		c-0.045-0.072-0.095-0.149-0.149-0.229c-0.053-0.081-0.095-0.143-0.123-0.186s-0.059-0.086-0.088-0.128
		c-0.03-0.044-0.073-0.106-0.13-0.189c-0.057-0.082-0.11-0.156-0.16-0.221c-0.051-0.065-0.1-0.125-0.149-0.181
		c-0.048-0.055-0.09-0.105-0.126-0.15c-0.038-0.044-0.073-0.087-0.108-0.129c-0.035-0.042-0.07-0.083-0.105-0.121
		c-0.034-0.038-0.071-0.08-0.11-0.124c-0.039-0.044-0.081-0.089-0.124-0.136c-0.042-0.047-0.087-0.097-0.136-0.149
		c-0.047-0.052-0.097-0.104-0.148-0.156c-0.051-0.051-0.1-0.102-0.146-0.149c-0.047-0.049-0.096-0.099-0.146-0.146
		c-0.05-0.049-0.098-0.094-0.144-0.137c-0.045-0.043-0.09-0.084-0.135-0.123c-0.045-0.04-0.089-0.075-0.132-0.106
		c-0.043-0.029-0.094-0.064-0.152-0.105c-0.059-0.04-0.117-0.08-0.174-0.12c-0.058-0.04-0.107-0.075-0.151-0.105
		c-0.043-0.03-0.087-0.06-0.134-0.09c-0.046-0.029-0.091-0.063-0.135-0.099c-0.044-0.037-0.088-0.072-0.132-0.105
		c-0.043-0.033-0.087-0.067-0.131-0.104c-0.044-0.036-0.086-0.07-0.126-0.102c-0.04-0.031-0.089-0.066-0.147-0.106
		s-0.117-0.078-0.175-0.115c-0.058-0.037-0.115-0.076-0.173-0.116c-0.058-0.04-0.115-0.078-0.173-0.115
		c-0.058-0.037-0.113-0.069-0.164-0.097c-0.052-0.028-0.105-0.053-0.16-0.074c-0.054-0.022-0.109-0.045-0.164-0.069
		c-0.055-0.024-0.108-0.047-0.158-0.069c-0.049-0.022-0.098-0.045-0.143-0.068c-0.044-0.023-0.094-0.047-0.149-0.072
		c-0.055-0.024-0.111-0.042-0.166-0.058c-0.056-0.014-0.113-0.028-0.172-0.041c-0.06-0.013-0.123-0.026-0.188-0.039
		c-0.065-0.012-0.124-0.025-0.177-0.04c-0.053-0.014-0.113-0.03-0.177-0.045c-0.066-0.015-0.13-0.029-0.192-0.042
		s-0.124-0.023-0.185-0.03c-0.061-0.006-0.124-0.013-0.188-0.019c-0.063-0.005-0.123-0.008-0.18-0.009
		c-0.056-0.001-0.111,0.003-0.165,0.015l-0.317,0.069c-0.057,0.012-0.116,0.02-0.178,0.023c-0.062,0.004-0.123,0.009-0.184,0.016
		c-0.061,0.007-0.121,0.017-0.181,0.03l-0.36,0.078c-0.06,0.013-0.114,0.028-0.162,0.049c-0.048,0.02-0.098,0.038-0.151,0.053
		c-0.054,0.016-0.106,0.034-0.157,0.054c-0.051,0.021-0.102,0.043-0.154,0.068c-0.051,0.024-0.101,0.052-0.15,0.082
		s-0.099,0.066-0.149,0.106c-0.051,0.041-0.093,0.08-0.128,0.117c-0.035,0.038-0.076,0.079-0.122,0.126
		c-0.047,0.046-0.091,0.093-0.133,0.142c-0.041,0.049-0.085,0.098-0.131,0.148c-0.046,0.049-0.087,0.101-0.124,0.155
		c-0.038,0.054-0.072,0.102-0.104,0.141c-0.031,0.04-0.062,0.079-0.093,0.119c-0.031,0.04-0.067,0.084-0.109,0.132
		c-0.042,0.048-0.08,0.091-0.115,0.127c-0.035,0.039-0.074,0.082-0.116,0.13c-0.043,0.049-0.083,0.098-0.123,0.145
		c-0.038,0.048-0.077,0.099-0.115,0.153c-0.038,0.055-0.074,0.11-0.108,0.167c-0.034,0.058-0.068,0.114-0.101,0.17
		c-0.033,0.057-0.065,0.112-0.097,0.165c-0.031,0.053-0.06,0.103-0.086,0.151c-0.026,0.049-0.054,0.096-0.083,0.142
		c-0.03,0.046-0.057,0.094-0.083,0.142c-0.026,0.048-0.052,0.095-0.079,0.14c-0.026,0.046-0.052,0.093-0.078,0.14
		c-0.026,0.049-0.051,0.102-0.074,0.16c-0.024,0.058-0.046,0.114-0.067,0.168c-0.021,0.054-0.043,0.113-0.066,0.177
		c-0.022,0.063-0.044,0.125-0.064,0.182c-0.02,0.058-0.044,0.119-0.069,0.183c-0.026,0.065-0.052,0.125-0.08,0.18
		c-0.028,0.055-0.055,0.111-0.082,0.17c-0.027,0.058-0.052,0.118-0.075,0.179c-0.023,0.061-0.044,0.124-0.068,0.188
		c-0.021,0.064-0.041,0.128-0.055,0.194c-0.017,0.066-0.032,0.134-0.051,0.204c-0.018,0.069-0.036,0.136-0.055,0.2
		c-0.019,0.063-0.04,0.128-0.062,0.192c-0.022,0.064-0.043,0.13-0.066,0.197c-0.022,0.066-0.042,0.133-0.06,0.2
		c-0.02,0.066-0.034,0.132-0.046,0.198c-0.012,0.065-0.026,0.132-0.041,0.201c-0.016,0.069-0.03,0.14-0.045,0.211
		c-0.014,0.072-0.027,0.141-0.039,0.207c-0.012,0.064-0.024,0.128-0.037,0.19c-0.012,0.063-0.021,0.12-0.027,0.17
		c-0.006,0.05-0.013,0.101-0.022,0.152c-0.008,0.052-0.017,0.115-0.028,0.189c-0.011,0.074-0.021,0.137-0.029,0.188
		c-0.008,0.051-0.014,0.104-0.019,0.158c-0.004,0.055-0.01,0.109-0.015,0.162c-0.005,0.054-0.01,0.107-0.016,0.161
		c-0.004,0.054-0.011,0.111-0.021,0.173c-0.01,0.061-0.016,0.122-0.019,0.183c-0.003,0.059-0.007,0.119-0.01,0.179
		c-0.004,0.061-0.006,0.121-0.007,0.18c-0.001,0.06-0.003,0.118-0.006,0.174c-0.004,0.057-0.007,0.113-0.008,0.17
		c-0.001,0.057-0.002,0.112-0.003,0.164c-0.002,0.053-0.001,0.107,0.001,0.162c0.002,0.056,0.002,0.11,0,0.164
		c-0.002,0.053-0.004,0.106-0.005,0.159c-0.001,0.054-0.001,0.108,0.001,0.163c0.002,0.056,0.004,0.113,0.007,0.172
		c0.003,0.059,0.004,0.116,0.003,0.172c0,0.056,0.001,0.114,0.004,0.172c0.002,0.059,0.003,0.115,0,0.168
		c-0.001,0.053-0.001,0.107,0,0.162c0.002,0.055,0.004,0.113,0.004,0.172c0,0.06,0,0.117,0.003,0.172
		c0.002,0.056,0.004,0.113,0.007,0.172c0.002,0.059,0.006,0.117,0.009,0.176c0.004,0.059,0.009,0.119,0.015,0.18
		c0.006,0.062,0.013,0.122,0.02,0.183c0.006,0.062,0.013,0.122,0.019,0.183c0.007,0.061,0.013,0.122,0.021,0.184
		c0.006,0.061,0.013,0.122,0.021,0.183c0.007,0.062,0.014,0.121,0.021,0.179c0.006,0.058,0.011,0.116,0.017,0.174
		c0.005,0.057,0.01,0.117,0.014,0.179s0.009,0.125,0.016,0.188c0.007,0.065,0.013,0.129,0.018,0.194
		c0.005,0.065,0.011,0.132,0.019,0.198c0.008,0.066,0.014,0.137,0.021,0.208c0.004,0.072,0.012,0.141,0.02,0.209
		c0.008,0.067,0.016,0.136,0.025,0.206c0.01,0.07,0.021,0.143,0.03,0.221c0.01,0.076,0.018,0.146,0.024,0.207
		c0.007,0.061,0.015,0.122,0.025,0.182c0.01,0.062,0.018,0.123,0.026,0.188c0.007,0.063,0.014,0.128,0.021,0.192
		c0.007,0.064,0.015,0.13,0.024,0.197c0.009,0.068,0.018,0.138,0.026,0.211c0.009,0.074,0.02,0.148,0.028,0.223
		c0.009,0.074,0.019,0.145,0.026,0.212s0.016,0.134,0.023,0.202c0.008,0.066,0.018,0.134,0.029,0.199
		c0.011,0.067,0.021,0.135,0.03,0.202c0.009,0.068,0.016,0.134,0.024,0.198c0.007,0.064,0.015,0.123,0.023,0.178
		c0.009,0.053,0.017,0.109,0.027,0.166c0.008,0.059,0.017,0.123,0.026,0.192c0.007,0.07,0.017,0.131,0.024,0.183
		c0.008,0.051,0.015,0.105,0.02,0.162c0.006,0.06,0.014,0.118,0.024,0.178c0.01,0.062,0.021,0.127,0.034,0.195
		c0.012,0.07,0.026,0.139,0.04,0.204l0.319,1.468c0.014,0.063,0.026,0.125,0.036,0.189c0.011,0.063,0.022,0.125,0.035,0.185
		l0.171,0.782c0.014,0.066,0.032,0.135,0.052,0.201c0.021,0.068,0.042,0.133,0.061,0.193c0.021,0.063,0.042,0.123,0.061,0.186
		c0.02,0.061,0.041,0.125,0.061,0.188c0.021,0.064,0.042,0.13,0.064,0.198c0.021,0.069,0.042,0.139,0.065,0.208
		c0.022,0.071,0.044,0.142,0.065,0.214c0.022,0.072,0.043,0.144,0.067,0.217c0.022,0.074,0.045,0.149,0.068,0.224
		c0.022,0.074,0.045,0.146,0.067,0.217c0.022,0.071,0.044,0.14,0.065,0.208c0.022,0.068,0.041,0.136,0.059,0.2
		c0.017,0.065,0.036,0.128,0.055,0.19c0.02,0.063,0.04,0.125,0.06,0.188c0.021,0.065,0.041,0.126,0.061,0.186
		c0.019,0.058,0.039,0.118,0.059,0.179c0.021,0.063,0.04,0.121,0.059,0.18c0.02,0.059,0.04,0.117,0.057,0.176
		c0.019,0.059,0.038,0.117,0.058,0.176c0.019,0.059,0.04,0.117,0.063,0.174c0.023,0.059,0.043,0.115,0.062,0.169
		c0.019,0.055,0.037,0.108,0.055,0.161c0.018,0.053,0.036,0.105,0.054,0.16c0.018,0.056,0.037,0.107,0.058,0.156
		s0.04,0.1,0.058,0.15c0.018,0.052,0.04,0.104,0.064,0.154c0.024,0.05,0.047,0.102,0.067,0.152c0.021,0.053,0.043,0.104,0.068,0.153
		c0.023,0.051,0.049,0.103,0.074,0.157c0.026,0.054,0.049,0.107,0.069,0.158s0.041,0.101,0.062,0.149
		c0.021,0.049,0.041,0.104,0.062,0.17c0.021,0.064,0.042,0.128,0.061,0.189c0.02,0.062,0.041,0.128,0.063,0.198
		c0.021,0.071,0.04,0.136,0.056,0.19c0.015,0.056,0.033,0.112,0.052,0.171c0.02,0.059,0.041,0.116,0.063,0.174
		c0.023,0.059,0.047,0.115,0.073,0.172c0.026,0.058,0.051,0.113,0.076,0.166c0.024,0.055,0.049,0.109,0.075,0.166
		c0.026,0.058,0.051,0.114,0.076,0.172c0.025,0.058,0.053,0.117,0.084,0.18c0.03,0.063,0.058,0.12,0.083,0.175
		c0.026,0.054,0.05,0.107,0.075,0.161c0.023,0.054,0.047,0.105,0.072,0.157c0.025,0.051,0.047,0.102,0.069,0.153
		c0.021,0.051,0.046,0.111,0.073,0.182c0.028,0.068,0.06,0.139,0.095,0.207c0.035,0.068,0.065,0.125,0.092,0.172
		c0.026,0.047,0.051,0.094,0.075,0.143c0.024,0.047,0.047,0.094,0.07,0.142c0.022,0.048,0.047,0.095,0.07,0.143
		c0.024,0.048,0.047,0.099,0.068,0.149c0.022,0.051,0.044,0.1,0.067,0.148c0.023,0.047,0.053,0.102,0.09,0.162
		c0.036,0.061,0.073,0.115,0.11,0.164s0.076,0.094,0.118,0.137c0.043,0.045,0.086,0.084,0.13,0.121
		c0.044,0.036,0.084,0.076,0.12,0.121c0.036,0.045,0.069,0.098,0.1,0.161c0.03,0.062,0.055,0.12,0.073,0.172
		c0.018,0.052,0.036,0.104,0.054,0.156c0.018,0.052,0.035,0.103,0.052,0.151c0.017,0.051,0.041,0.107,0.072,0.172
		c0.031,0.066,0.063,0.125,0.097,0.178c0.035,0.053,0.069,0.098,0.103,0.135c0.035,0.038,0.075,0.08,0.122,0.127
		c0.046,0.047,0.085,0.09,0.117,0.129c0.033,0.039,0.063,0.082,0.093,0.127c0.029,0.047,0.059,0.101,0.09,0.164
		c0.03,0.062,0.059,0.127,0.087,0.197c0.028,0.07,0.058,0.134,0.091,0.193c0.033,0.059,0.067,0.113,0.101,0.165
		c0.034,0.052,0.072,0.101,0.116,0.147c0.042,0.047,0.087,0.09,0.131,0.131c0.045,0.039,0.083,0.078,0.116,0.117
		s0.064,0.085,0.094,0.137c0.031,0.053,0.061,0.106,0.09,0.164c0.03,0.056,0.059,0.108,0.089,0.158
		c0.031,0.051,0.069,0.099,0.116,0.148c0.047,0.047,0.094,0.09,0.142,0.125c0.047,0.037,0.093,0.074,0.137,0.109
		c0.044,0.037,0.089,0.076,0.134,0.115s0.089,0.082,0.132,0.129c0.042,0.047,0.082,0.092,0.118,0.137
		c0.036,0.045,0.072,0.09,0.107,0.131c0.036,0.042,0.072,0.082,0.107,0.125c0.036,0.042,0.075,0.08,0.119,0.117
		c0.045,0.036,0.091,0.072,0.138,0.108c0.046,0.035,0.089,0.069,0.126,0.104c0.037,0.035,0.073,0.074,0.108,0.115
		c0.035,0.043,0.068,0.084,0.097,0.127c0.03,0.043,0.068,0.082,0.114,0.114c0.046,0.033,0.092,0.06,0.14,0.077
		c0.047,0.02,0.098,0.041,0.153,0.066c0.055,0.024,0.106,0.052,0.152,0.08c0.046,0.029,0.091,0.062,0.134,0.095
		c0.043,0.034,0.09,0.065,0.138,0.093c0.049,0.029,0.096,0.057,0.141,0.084c0.045,0.025,0.095,0.047,0.149,0.064
		c0.053,0.018,0.107,0.033,0.159,0.047c0.053,0.012,0.106,0.029,0.16,0.054c0.055,0.024,0.105,0.054,0.152,0.09
		c0.048,0.036,0.096,0.065,0.144,0.088c0.047,0.022,0.097,0.044,0.146,0.062c0.051,0.02,0.105,0.035,0.164,0.049
		c0.058,0.014,0.115,0.023,0.17,0.031c0.056,0.008,0.111,0.014,0.167,0.018c0.057,0.004,0.117,0.01,0.181,0.016
		c0.063,0.007,0.134,0.012,0.21,0.014c0.076,0.004,0.141,0.006,0.195,0.008c0.053,0.001,0.11,0.002,0.169,0.002
		s0.119-0.004,0.18-0.01c0.061-0.006,0.126-0.014,0.197-0.023c0.071-0.009,0.143-0.02,0.216-0.033
		c0.073-0.012,0.147-0.025,0.22-0.037l0.11-0.018"/>
	
		<path id="STROKE_02D85382.-AEE1.-468C.-A938.-21C8D204893F" fill="none" stroke="#000000" stroke-width="1.51" stroke-linecap="round" stroke-linejoin="round" d="
		M56.736,94.594c0.08-0.083,0.135-0.148,0.169-0.195c0.033-0.045,0.059-0.096,0.077-0.148s0.031-0.108,0.039-0.163
		c0.008-0.056,0.017-0.108,0.024-0.163s0.017-0.105,0.03-0.155c0.012-0.049,0.024-0.103,0.039-0.161s0.028-0.119,0.041-0.182
		c0.013-0.062,0.025-0.129,0.036-0.2c0.01-0.071,0.018-0.133,0.024-0.183c0.006-0.051,0.014-0.111,0.025-0.183
		c0.011-0.072,0.02-0.142,0.028-0.21c0.008-0.066,0.018-0.135,0.026-0.202c0.009-0.067,0.016-0.134,0.021-0.197
		c0.006-0.064,0.013-0.13,0.022-0.198c0.009-0.066,0.017-0.137,0.024-0.207c0.008-0.07,0.015-0.143,0.023-0.213
		c0.007-0.07,0.013-0.133,0.019-0.183c0.005-0.05,0.009-0.104,0.01-0.159c0-0.057,0.001-0.113,0.002-0.169
		c0.001-0.058-0.001-0.111-0.005-0.162c-0.004-0.052-0.008-0.103-0.013-0.155c-0.004-0.051-0.009-0.104-0.015-0.154
		c-0.005-0.051-0.011-0.103-0.019-0.153c-0.008-0.052-0.014-0.104-0.019-0.159s-0.012-0.108-0.02-0.159
		c-0.007-0.051-0.014-0.112-0.02-0.184c-0.006-0.071-0.01-0.14-0.015-0.205c-0.004-0.065-0.006-0.126-0.006-0.185
		c0-0.06-0.004-0.121-0.011-0.186c-0.007-0.064-0.015-0.13-0.023-0.198c-0.008-0.067-0.018-0.129-0.029-0.182l-0.424-1.946
		c-0.012-0.058-0.026-0.113-0.041-0.17c-0.016-0.055-0.031-0.111-0.047-0.167c-0.015-0.056-0.032-0.108-0.049-0.157
		c-0.017-0.049-0.035-0.098-0.052-0.147c-0.018-0.05-0.037-0.108-0.057-0.175c-0.021-0.068-0.042-0.133-0.062-0.194
		c-0.02-0.063-0.04-0.123-0.061-0.185c-0.02-0.062-0.042-0.125-0.067-0.192c-0.024-0.067-0.045-0.126-0.063-0.175
		c-0.018-0.049-0.035-0.1-0.052-0.151c-0.018-0.052-0.037-0.104-0.058-0.156c-0.022-0.051-0.043-0.104-0.065-0.157
		c-0.022-0.055-0.044-0.109-0.066-0.163c-0.022-0.056-0.044-0.11-0.065-0.165c-0.021-0.053-0.042-0.105-0.063-0.153
		c-0.021-0.049-0.042-0.099-0.062-0.146c-0.021-0.049-0.043-0.104-0.067-0.169c-0.024-0.063-0.047-0.122-0.068-0.177
		c-0.021-0.055-0.044-0.105-0.067-0.154c-0.024-0.047-0.049-0.101-0.075-0.16c-0.026-0.061-0.054-0.123-0.085-0.189
		c-0.032-0.066-0.058-0.128-0.081-0.185c-0.023-0.058-0.044-0.11-0.064-0.159c-0.021-0.049-0.041-0.098-0.06-0.146
		c-0.021-0.048-0.043-0.096-0.067-0.144c-0.024-0.047-0.046-0.096-0.067-0.143c-0.02-0.049-0.047-0.104-0.08-0.166
		s-0.063-0.117-0.09-0.163c-0.027-0.048-0.056-0.098-0.087-0.149c-0.03-0.052-0.059-0.102-0.087-0.148
		c-0.027-0.047-0.053-0.1-0.078-0.156c-0.025-0.057-0.055-0.119-0.09-0.188s-0.068-0.135-0.098-0.201
		c-0.03-0.066-0.062-0.125-0.093-0.178c-0.032-0.052-0.062-0.102-0.091-0.146c-0.03-0.047-0.059-0.092-0.088-0.135
		c-0.029-0.043-0.058-0.086-0.088-0.129c-0.029-0.043-0.061-0.089-0.094-0.138c-0.033-0.05-0.063-0.096-0.09-0.14
		c-0.026-0.043-0.055-0.09-0.084-0.139c-0.031-0.05-0.064-0.097-0.101-0.142c-0.037-0.045-0.072-0.095-0.107-0.148
		c-0.035-0.055-0.072-0.105-0.111-0.149c-0.039-0.044-0.078-0.088-0.117-0.129c-0.038-0.041-0.079-0.076-0.121-0.106
		c-0.043-0.03-0.089-0.06-0.139-0.089c-0.049-0.029-0.097-0.061-0.145-0.096c-0.047-0.036-0.089-0.076-0.125-0.121
		c-0.036-0.046-0.07-0.091-0.103-0.136l-0.048-0.069"/>
	
		<path id="STROKE_665F881E.-1089.-490D.-9F8D.-A450D1C2F236" fill="none" stroke="#000000" stroke-width="1.51" stroke-linecap="round" stroke-linejoin="round" d="
		M52.153,77.523c-0.083,0.07-0.149,0.124-0.198,0.161c-0.047,0.037-0.093,0.076-0.137,0.12c-0.044,0.042-0.085,0.09-0.122,0.145
		c-0.037,0.053-0.071,0.101-0.103,0.141c-0.031,0.039-0.067,0.085-0.108,0.138c-0.042,0.051-0.083,0.101-0.121,0.149
		c-0.04,0.048-0.073,0.094-0.103,0.14c-0.029,0.046-0.06,0.096-0.091,0.148c-0.032,0.053-0.064,0.111-0.097,0.175
		c-0.032,0.063-0.064,0.128-0.098,0.194c-0.032,0.066-0.06,0.131-0.084,0.196c-0.025,0.065-0.052,0.128-0.082,0.19
		c-0.03,0.063-0.058,0.125-0.083,0.187c-0.026,0.062-0.052,0.123-0.078,0.185c-0.027,0.061-0.056,0.124-0.089,0.187
		c-0.033,0.063-0.059,0.127-0.078,0.19s-0.04,0.127-0.062,0.191s-0.043,0.13-0.061,0.197c-0.019,0.065-0.034,0.13-0.047,0.192
		c-0.013,0.063-0.027,0.124-0.043,0.188c-0.016,0.063-0.032,0.123-0.048,0.183c-0.017,0.06-0.034,0.12-0.051,0.184
		c-0.016,0.063-0.034,0.128-0.052,0.195c-0.019,0.065-0.036,0.129-0.048,0.188c-0.013,0.058-0.027,0.115-0.042,0.172
		c-0.014,0.056-0.026,0.113-0.037,0.172c-0.011,0.058-0.022,0.115-0.032,0.173c-0.01,0.058-0.02,0.118-0.029,0.18
		c-0.01,0.062-0.021,0.125-0.034,0.19c-0.012,0.064-0.023,0.131-0.031,0.199c-0.008,0.067-0.014,0.137-0.019,0.207
		c-0.004,0.069-0.007,0.14-0.008,0.208c-0.001,0.069-0.005,0.134-0.008,0.194s-0.006,0.119-0.011,0.176
		c-0.005,0.057-0.011,0.117-0.02,0.182c-0.009,0.064-0.014,0.132-0.015,0.201c-0.002,0.07-0.002,0.141,0,0.209
		c0.003,0.067,0.005,0.138,0.007,0.209c0.002,0.072,0.005,0.143,0.01,0.211c0.005,0.067,0.012,0.139,0.021,0.213
		c0.009,0.073,0.017,0.136,0.022,0.188c0.005,0.051,0.01,0.104,0.016,0.16c0.005,0.055,0.009,0.12,0.011,0.194
		c0.003,0.075,0.006,0.144,0.011,0.206c0.002,0.061,0.006,0.119,0.009,0.176s0.007,0.111,0.013,0.17s0.014,0.117,0.023,0.177
		c0.01,0.062,0.02,0.121,0.03,0.183c0.009,0.06,0.018,0.123,0.025,0.187s0.013,0.127,0.016,0.188
		c0.003,0.063,0.009,0.125,0.016,0.186c0.006,0.061,0.014,0.119,0.019,0.174c0.004,0.055,0.01,0.109,0.015,0.164
		c0.005,0.055,0.012,0.107,0.02,0.158c0.007,0.052,0.015,0.103,0.023,0.154c0.008,0.051,0.017,0.107,0.027,0.171
		c0.01,0.063,0.018,0.128,0.023,0.192c0.005,0.065,0.011,0.123,0.019,0.174c0.007,0.051,0.017,0.104,0.029,0.158l0.068,0.314
		c0.011,0.05,0.021,0.102,0.029,0.156c0.009,0.055,0.017,0.109,0.026,0.162c0.008,0.055,0.018,0.107,0.029,0.158l0.1,0.461
		c0.011,0.051,0.024,0.102,0.039,0.156c0.015,0.053,0.028,0.107,0.04,0.162c0.013,0.057,0.028,0.113,0.048,0.173
		c0.019,0.058,0.04,0.114,0.061,0.17c0.021,0.055,0.042,0.108,0.064,0.159c0.021,0.051,0.042,0.102,0.063,0.148
		c0.02,0.05,0.041,0.103,0.063,0.16c0.022,0.057,0.042,0.113,0.061,0.168c0.019,0.057,0.038,0.114,0.059,0.176
		c0.02,0.061,0.04,0.125,0.061,0.189s0.043,0.122,0.068,0.173c0.024,0.052,0.048,0.103,0.072,0.151
		c0.024,0.052,0.053,0.105,0.089,0.16c0.035,0.054,0.069,0.107,0.1,0.161c0.031,0.053,0.059,0.108,0.085,0.165
		c0.025,0.057,0.047,0.113,0.064,0.168c0.018,0.055,0.038,0.107,0.059,0.16c0.022,0.052,0.046,0.106,0.072,0.168
		c0.027,0.06,0.054,0.11,0.083,0.154c0.029,0.043,0.064,0.083,0.105,0.12c0.042,0.038,0.08,0.075,0.115,0.113
		c0.035,0.037,0.067,0.085,0.095,0.142c0.028,0.057,0.058,0.11,0.09,0.163c0.031,0.054,0.061,0.104,0.088,0.154
		s0.055,0.097,0.084,0.139c0.029,0.044,0.065,0.087,0.108,0.13c0.042,0.045,0.081,0.09,0.117,0.133
		c0.037,0.045,0.073,0.094,0.111,0.149c0.038,0.054,0.072,0.104,0.102,0.149c0.031,0.047,0.059,0.094,0.085,0.141
		c0.026,0.047,0.057,0.092,0.093,0.137s0.078,0.077,0.125,0.097c0.046,0.02,0.091,0.052,0.129,0.096
		c0.04,0.044,0.073,0.089,0.104,0.136c0.03,0.047,0.067,0.084,0.11,0.114c0.042,0.03,0.086,0.058,0.132,0.085
		c0.044,0.025,0.087,0.057,0.129,0.096c0.041,0.036,0.078,0.074,0.109,0.114c0.031,0.04,0.063,0.078,0.099,0.117
		c0.034,0.039,0.075,0.073,0.121,0.103c0.046,0.028,0.092,0.059,0.138,0.088s0.091,0.061,0.134,0.095
		c0.044,0.032,0.087,0.071,0.129,0.114c0.043,0.043,0.092,0.07,0.147,0.082c0.056,0.01,0.107,0.024,0.157,0.039
		c0.049,0.016,0.094,0.041,0.134,0.075c0.04,0.034,0.086,0.056,0.139,0.067c0.052,0.012,0.104,0.013,0.154,0.002l0.455-0.1
		c0.05-0.011,0.099-0.025,0.148-0.042c0.049-0.017,0.095-0.042,0.136-0.079c0.041-0.035,0.083-0.067,0.127-0.097
		c0.042-0.028,0.089-0.062,0.137-0.098s0.093-0.071,0.135-0.104c0.042-0.031,0.089-0.074,0.142-0.123
		c0.051-0.052,0.097-0.098,0.138-0.139c0.041-0.042,0.083-0.093,0.126-0.15c0.043-0.06,0.08-0.113,0.113-0.16
		c0.033-0.047,0.063-0.1,0.09-0.157c0.027-0.058,0.05-0.124,0.071-0.198c0.02-0.072,0.035-0.156,0.044-0.251
		s0.014-0.172,0.014-0.231l0.001-0.088"/>
	
		<path id="STROKE_3AF085E5.-D8C6.-4E6D.-BD49.-B69E1E6B3B90" fill="none" stroke="#000000" stroke-width="1.51" stroke-linecap="round" stroke-linejoin="round" d="
		M48.85,70.575c-0.051-0.088-0.103-0.129-0.155-0.124c-0.052,0.005-0.105,0.013-0.158,0.024c-0.053,0.012-0.105,0.024-0.155,0.039
		s-0.1,0.036-0.149,0.066c-0.049,0.031-0.096,0.061-0.142,0.09c-0.046,0.03-0.092,0.061-0.138,0.095
		c-0.046,0.033-0.093,0.065-0.144,0.095c-0.049,0.031-0.096,0.061-0.143,0.089c-0.047,0.03-0.091,0.065-0.132,0.104
		c-0.042,0.039-0.081,0.079-0.117,0.12c-0.037,0.041-0.071,0.082-0.101,0.125s-0.063,0.084-0.097,0.125
		c-0.034,0.04-0.071,0.079-0.109,0.117s-0.073,0.078-0.106,0.118c-0.034,0.04-0.07,0.082-0.11,0.127
		c-0.04,0.045-0.079,0.088-0.117,0.128c-0.037,0.042-0.076,0.081-0.117,0.119c-0.04,0.039-0.077,0.082-0.11,0.129
		c-0.033,0.047-0.063,0.099-0.09,0.153c-0.028,0.056-0.056,0.109-0.084,0.161c-0.029,0.052-0.056,0.101-0.083,0.146
		c-0.026,0.046-0.055,0.095-0.086,0.148c-0.032,0.053-0.058,0.106-0.08,0.161c-0.021,0.054-0.042,0.108-0.062,0.166
		c-0.021,0.057-0.042,0.116-0.062,0.176s-0.04,0.119-0.06,0.176c-0.021,0.058-0.041,0.111-0.06,0.161
		c-0.019,0.05-0.038,0.105-0.057,0.165c-0.02,0.061-0.038,0.118-0.054,0.17c-0.015,0.053-0.033,0.106-0.054,0.161
		c-0.022,0.054-0.042,0.111-0.063,0.171c-0.02,0.06-0.038,0.115-0.053,0.164c-0.015,0.05-0.033,0.106-0.052,0.17
		c-0.019,0.064-0.034,0.121-0.046,0.173c-0.011,0.052-0.024,0.106-0.039,0.162c-0.015,0.055-0.029,0.113-0.043,0.171
		c-0.013,0.059-0.026,0.119-0.04,0.177c-0.013,0.059-0.026,0.12-0.039,0.182c-0.012,0.062-0.024,0.123-0.036,0.181
		c-0.011,0.058-0.021,0.121-0.029,0.188c-0.007,0.068-0.015,0.137-0.023,0.207c-0.007,0.071-0.013,0.144-0.017,0.217
		c-0.005,0.074-0.009,0.145-0.014,0.211c-0.004,0.067-0.013,0.131-0.022,0.192c-0.01,0.062-0.018,0.122-0.025,0.183
		c-0.005,0.061-0.012,0.122-0.019,0.183c-0.007,0.061-0.015,0.125-0.023,0.193c-0.008,0.067-0.014,0.134-0.019,0.201
		c-0.005,0.067-0.013,0.136-0.02,0.207c-0.008,0.071-0.015,0.14-0.02,0.207c-0.005,0.066-0.008,0.133-0.011,0.199
		c-0.002,0.066-0.005,0.131-0.007,0.195s-0.005,0.124-0.009,0.184c-0.004,0.06-0.008,0.118-0.011,0.175
		c-0.004,0.058-0.006,0.123-0.007,0.194c-0.002,0.073-0.002,0.14-0.002,0.203c0,0.063,0,0.12,0.003,0.172
		c0.001,0.052,0.004,0.105,0.005,0.158c0.002,0.052,0.003,0.104,0.004,0.157c0.002,0.053,0.004,0.108,0.007,0.167
		c0.003,0.059,0.008,0.117,0.014,0.174c0.006,0.058,0.01,0.115,0.012,0.171c0.002,0.056,0.004,0.11,0.004,0.162
		c0.001,0.052,0.003,0.113,0.005,0.181c0.002,0.069,0.003,0.131,0.001,0.188c-0.001,0.056-0.002,0.111-0.003,0.168
		c-0.002,0.057,0,0.11,0.006,0.162c0.005,0.051,0.01,0.109,0.014,0.174c0.004,0.066,0.008,0.125,0.012,0.176
		c0.005,0.052,0.008,0.105,0.01,0.16c0.002,0.057,0.006,0.119,0.012,0.191c0.006,0.07,0.012,0.141,0.017,0.209
		c0.003,0.068,0.008,0.133,0.012,0.195c0.003,0.061,0.008,0.122,0.014,0.183c0.007,0.063,0.011,0.12,0.014,0.177
		c0.003,0.056,0.006,0.111,0.008,0.171c0.002,0.058,0.006,0.116,0.008,0.176c0.003,0.06,0.007,0.114,0.012,0.17
		c0.005,0.056,0.011,0.108,0.017,0.16c0.005,0.052,0.012,0.11,0.02,0.179c0.008,0.066,0.015,0.131,0.02,0.188
		c0.006,0.058,0.014,0.117,0.024,0.176c0.009,0.063,0.019,0.127,0.027,0.199c0.009,0.07,0.019,0.142,0.032,0.215
		c0.012,0.072,0.022,0.143,0.03,0.211c0.008,0.066,0.017,0.127,0.026,0.182s0.017,0.111,0.024,0.172
		c0.006,0.063,0.016,0.124,0.03,0.188c0.014,0.063,0.026,0.127,0.037,0.193c0.011,0.066,0.021,0.125,0.028,0.177
		c0.008,0.051,0.017,0.104,0.026,0.161c0.009,0.059,0.017,0.115,0.026,0.169c0.008,0.054,0.017,0.105,0.024,0.157
		c0.008,0.051,0.018,0.11,0.028,0.178c0.012,0.066,0.023,0.125,0.035,0.179c0.011,0.054,0.021,0.106,0.029,0.157
		c0.007,0.052,0.014,0.105,0.021,0.164c0.007,0.057,0.013,0.117,0.02,0.178c0.006,0.061,0.015,0.124,0.024,0.188
		c0.011,0.063,0.023,0.127,0.036,0.189l0.421,1.933c0.014,0.064,0.031,0.128,0.052,0.193c0.021,0.063,0.041,0.134,0.061,0.209
		c0.019,0.073,0.036,0.138,0.05,0.19s0.029,0.108,0.045,0.168c0.016,0.061,0.033,0.119,0.049,0.178s0.031,0.119,0.044,0.178
		c0.013,0.061,0.025,0.117,0.037,0.17c0.011,0.053,0.024,0.105,0.038,0.154c0.015,0.049,0.032,0.105,0.053,0.171
		c0.02,0.063,0.042,0.125,0.065,0.183c0.022,0.059,0.046,0.121,0.07,0.188c0.024,0.067,0.044,0.126,0.062,0.175
		c0.017,0.049,0.035,0.098,0.052,0.146c0.017,0.049,0.033,0.098,0.046,0.146c0.014,0.05,0.03,0.102,0.044,0.154
		c0.015,0.053,0.034,0.113,0.055,0.182c0.022,0.067,0.042,0.133,0.064,0.198c0.021,0.065,0.042,0.125,0.063,0.179
		c0.021,0.055,0.042,0.109,0.064,0.164c0.022,0.055,0.043,0.109,0.062,0.164s0.039,0.114,0.063,0.18
		c0.025,0.063,0.049,0.13,0.073,0.196c0.023,0.067,0.046,0.132,0.067,0.196c0.02,0.064,0.042,0.125,0.064,0.18
		c0.022,0.055,0.042,0.107,0.061,0.159c0.018,0.052,0.038,0.11,0.062,0.175c0.022,0.064,0.048,0.127,0.075,0.188
		c0.026,0.06,0.048,0.113,0.065,0.162c0.018,0.049,0.036,0.1,0.053,0.151c0.019,0.052,0.036,0.104,0.053,0.156
		c0.019,0.054,0.036,0.104,0.054,0.157c0.018,0.052,0.037,0.104,0.059,0.154c0.021,0.053,0.046,0.111,0.077,0.176
		c0.03,0.066,0.059,0.131,0.086,0.193c0.028,0.063,0.054,0.125,0.081,0.186c0.027,0.06,0.056,0.119,0.088,0.178
		c0.032,0.059,0.061,0.115,0.086,0.169c0.026,0.054,0.051,0.108,0.075,0.163c0.024,0.054,0.049,0.113,0.072,0.178
		c0.025,0.063,0.051,0.123,0.08,0.18c0.029,0.055,0.058,0.113,0.087,0.168c0.028,0.058,0.06,0.113,0.095,0.166
		c0.035,0.056,0.068,0.113,0.098,0.177s0.057,0.119,0.08,0.166c0.024,0.048,0.046,0.095,0.066,0.144
		c0.019,0.049,0.043,0.105,0.071,0.172c0.028,0.067,0.056,0.133,0.083,0.195s0.052,0.122,0.073,0.176
		c0.021,0.055,0.042,0.107,0.063,0.159c0.022,0.052,0.042,0.103,0.063,0.15c0.021,0.048,0.045,0.097,0.072,0.147
		c0.027,0.051,0.056,0.103,0.088,0.158c0.033,0.055,0.066,0.115,0.099,0.18c0.034,0.066,0.063,0.123,0.086,0.17
		c0.024,0.047,0.05,0.098,0.079,0.151c0.028,0.054,0.055,0.108,0.08,0.166s0.05,0.11,0.074,0.161
		c0.025,0.051,0.051,0.107,0.078,0.175c0.027,0.065,0.054,0.123,0.081,0.17c0.027,0.048,0.056,0.095,0.085,0.14
		c0.03,0.047,0.059,0.092,0.09,0.139c0.03,0.047,0.06,0.096,0.091,0.148s0.064,0.104,0.099,0.156
		c0.035,0.051,0.07,0.104,0.104,0.159c0.035,0.056,0.07,0.11,0.104,0.166c0.035,0.056,0.072,0.108,0.11,0.159
		s0.074,0.101,0.107,0.15c0.033,0.047,0.066,0.092,0.098,0.135c0.032,0.043,0.07,0.089,0.114,0.14
		c0.044,0.049,0.086,0.099,0.127,0.149c0.042,0.05,0.083,0.104,0.125,0.16c0.042,0.057,0.078,0.111,0.108,0.163
		c0.031,0.054,0.062,0.106,0.094,0.159s0.062,0.102,0.092,0.148c0.029,0.046,0.06,0.089,0.091,0.128s0.068,0.082,0.111,0.129
		c0.043,0.046,0.083,0.091,0.119,0.131c0.036,0.042,0.071,0.087,0.104,0.136c0.034,0.049,0.069,0.1,0.106,0.15
		c0.038,0.051,0.076,0.099,0.116,0.143c0.041,0.045,0.083,0.088,0.128,0.131c0.046,0.043,0.09,0.08,0.133,0.113
		c0.042,0.033,0.085,0.068,0.129,0.105c0.045,0.035,0.087,0.072,0.128,0.105c0.042,0.034,0.083,0.075,0.122,0.123
		c0.041,0.047,0.078,0.096,0.116,0.146c0.037,0.052,0.074,0.102,0.11,0.148c0.037,0.049,0.074,0.092,0.113,0.133
		c0.038,0.041,0.079,0.076,0.121,0.104c0.042,0.027,0.088,0.057,0.138,0.089c0.05,0.031,0.099,0.065,0.147,0.104
		s0.097,0.078,0.145,0.117s0.095,0.076,0.142,0.108c0.047,0.033,0.099,0.061,0.156,0.085c0.058,0.023,0.112,0.036,0.162,0.038
		c0.05,0.003,0.105,0.003,0.164,0.005c0.059,0,0.119,0,0.179,0c0.06,0.001,0.115,0.01,0.164,0.028
		c0.05,0.019,0.098,0.044,0.145,0.077c0.046,0.033,0.097,0.066,0.151,0.101c0.054,0.034,0.11,0.059,0.169,0.071
		c0.058,0.014,0.115,0.018,0.17,0.008c0.055-0.008,0.112-0.018,0.171-0.031c0.06-0.014,0.12-0.025,0.179-0.039
		c0.06-0.013,0.119-0.023,0.178-0.029c0.058-0.006,0.121-0.01,0.186-0.01c0.066-0.002,0.128-0.004,0.186-0.008
		c0.058-0.004,0.115-0.005,0.172-0.007c0.056-0.003,0.116-0.009,0.179-0.019c0.064-0.012,0.124-0.021,0.181-0.03
		c0.057-0.011,0.112-0.017,0.164-0.021c0.052-0.003,0.104-0.005,0.157-0.003c0.052,0.001,0.108,0.004,0.168,0.007
		c0.06,0.004,0.121,0.003,0.182-0.005c0.062-0.007,0.126-0.018,0.192-0.031c0.066-0.016,0.125-0.033,0.176-0.055
		c0.051-0.021,0.099-0.045,0.143-0.071c0.044-0.025,0.091-0.051,0.142-0.073c0.049-0.023,0.102-0.047,0.153-0.068
		c0.052-0.021,0.103-0.047,0.151-0.076c0.049-0.031,0.095-0.061,0.139-0.091c0.043-0.028,0.092-0.064,0.145-0.11
		c0.052-0.043,0.099-0.084,0.138-0.119c0.038-0.035,0.081-0.073,0.128-0.117c0.045-0.043,0.092-0.086,0.139-0.129
		c0.046-0.043,0.089-0.086,0.129-0.131s0.08-0.092,0.119-0.14c0.04-0.049,0.079-0.103,0.119-0.16
		c0.041-0.058,0.079-0.122,0.117-0.192c0.038-0.07,0.068-0.131,0.089-0.178c0.023-0.048,0.047-0.098,0.072-0.148
		c0.025-0.052,0.054-0.107,0.088-0.167c0.033-0.06,0.067-0.117,0.101-0.171c0.034-0.053,0.066-0.106,0.098-0.16
		c0.031-0.053,0.062-0.111,0.09-0.178c0.029-0.065,0.058-0.132,0.086-0.2c0.027-0.069,0.057-0.138,0.088-0.207
		c0.029-0.069,0.057-0.126,0.08-0.171s0.045-0.092,0.065-0.139c0.021-0.046,0.042-0.095,0.063-0.146
		c0.022-0.052,0.042-0.103,0.062-0.152s0.035-0.103,0.049-0.159c0.014-0.056,0.028-0.112,0.041-0.172
		c0.014-0.059,0.026-0.115,0.038-0.171c0.011-0.056,0.021-0.11,0.028-0.165c0.008-0.054,0.014-0.108,0.019-0.166
		c0.004-0.057,0.01-0.111,0.019-0.166c0.007-0.056,0.016-0.111,0.026-0.17c0.011-0.058,0.021-0.115,0.032-0.176
		c0.011-0.059,0.02-0.113,0.028-0.168c0.007-0.055,0.018-0.105,0.031-0.155c0.013-0.049,0.028-0.108,0.046-0.178
		c0.018-0.069,0.031-0.13,0.039-0.183c0.008-0.051,0.016-0.104,0.025-0.157c0.008-0.054,0.014-0.113,0.016-0.176
		c0.002-0.063,0.005-0.128,0.008-0.19c0.002-0.063,0.004-0.126,0.004-0.188c-0.001-0.063,0-0.126,0.002-0.192
		c0.002-0.067,0.003-0.136,0.004-0.204c0.001-0.07,0.002-0.14,0.004-0.209c0.002-0.07,0.005-0.139,0.01-0.205
		s0.01-0.135,0.016-0.201c0.006-0.066,0.011-0.131,0.017-0.191c0.007-0.061,0.012-0.119,0.017-0.177
		c0.004-0.056,0.01-0.112,0.017-0.171c0.007-0.057,0.014-0.115,0.022-0.172c0.008-0.059,0.014-0.113,0.018-0.168
		c0.004-0.053,0.009-0.109,0.013-0.166c0.005-0.057,0.009-0.113,0.013-0.17c0.004-0.057,0.005-0.115,0.007-0.175
		c0.001-0.06,0.001-0.118,0.001-0.179c0-0.059-0.001-0.121-0.006-0.186c-0.005-0.064-0.01-0.129-0.014-0.193
		c-0.004-0.065-0.008-0.131-0.012-0.195c-0.004-0.065-0.008-0.129-0.012-0.19c-0.004-0.062-0.005-0.12-0.004-0.178
		c0.001-0.056,0.001-0.112,0-0.168c-0.002-0.055-0.002-0.113,0-0.173c0.003-0.061,0.005-0.118,0.007-0.174
		c0.001-0.057,0.002-0.114,0.006-0.174c0.003-0.061,0.005-0.121,0.006-0.18c0-0.059,0-0.12,0-0.182c0-0.063-0.002-0.124-0.005-0.184
		c-0.004-0.058-0.005-0.119-0.005-0.182c-0.001-0.063-0.003-0.126-0.007-0.191c-0.003-0.064-0.008-0.129-0.011-0.194
		c-0.005-0.065-0.009-0.13-0.014-0.194c-0.005-0.064-0.011-0.131-0.019-0.199c-0.008-0.066-0.014-0.136-0.02-0.207
		c-0.004-0.072-0.011-0.144-0.016-0.215c-0.005-0.07-0.012-0.139-0.021-0.203c-0.007-0.063-0.015-0.125-0.021-0.188
		c-0.006-0.061-0.013-0.121-0.02-0.18c-0.006-0.057-0.011-0.112-0.014-0.164c-0.004-0.051-0.011-0.104-0.02-0.158
		c-0.009-0.055-0.017-0.111-0.024-0.172c-0.007-0.061-0.016-0.125-0.027-0.191c-0.012-0.066-0.022-0.136-0.035-0.206
		c-0.011-0.069-0.026-0.146-0.045-0.227l-0.104-0.481c-0.016-0.076-0.032-0.152-0.045-0.232c-0.014-0.078-0.027-0.152-0.038-0.219
		c-0.011-0.066-0.021-0.129-0.031-0.19c-0.01-0.06-0.018-0.121-0.024-0.183c-0.007-0.062-0.015-0.123-0.024-0.183
		c-0.01-0.062-0.02-0.124-0.032-0.191c-0.011-0.065-0.024-0.136-0.041-0.208c-0.016-0.072-0.032-0.146-0.048-0.223
		c-0.017-0.074-0.032-0.152-0.046-0.232c-0.014-0.078-0.027-0.155-0.041-0.231c-0.014-0.075-0.027-0.149-0.04-0.224
		c-0.012-0.072-0.026-0.143-0.04-0.208l-0.488-2.245c-0.012-0.055-0.028-0.114-0.049-0.182c-0.02-0.068-0.042-0.136-0.063-0.204
		c-0.021-0.069-0.04-0.129-0.054-0.181c-0.015-0.053-0.033-0.107-0.052-0.167c-0.019-0.058-0.039-0.118-0.059-0.18
		s-0.039-0.123-0.056-0.185c-0.017-0.063-0.034-0.125-0.05-0.187c-0.017-0.063-0.035-0.123-0.054-0.183
		c-0.019-0.057-0.036-0.119-0.053-0.18c-0.017-0.063-0.036-0.125-0.056-0.186c-0.02-0.063-0.041-0.125-0.062-0.189
		c-0.021-0.064-0.045-0.129-0.073-0.197c-0.028-0.066-0.056-0.133-0.083-0.199s-0.052-0.131-0.076-0.195
		c-0.025-0.064-0.051-0.13-0.078-0.196c-0.028-0.065-0.054-0.131-0.077-0.194c-0.023-0.064-0.047-0.131-0.072-0.197
		c-0.025-0.068-0.05-0.136-0.075-0.206c-0.026-0.069-0.051-0.14-0.075-0.211c-0.024-0.07-0.052-0.146-0.083-0.224
		c-0.031-0.079-0.059-0.156-0.086-0.233c-0.027-0.076-0.056-0.156-0.086-0.238c-0.031-0.083-0.062-0.167-0.094-0.252
		c-0.032-0.084-0.064-0.17-0.096-0.255c-0.032-0.085-0.066-0.172-0.101-0.26c-0.035-0.087-0.071-0.179-0.109-0.272
		c-0.037-0.094-0.075-0.187-0.114-0.276c-0.04-0.09-0.069-0.159-0.09-0.207c-0.02-0.048-0.049-0.114-0.087-0.199
		c-0.038-0.084-0.074-0.168-0.11-0.253c-0.035-0.084-0.07-0.164-0.106-0.239c-0.036-0.075-0.071-0.152-0.105-0.233
		c-0.035-0.082-0.071-0.164-0.107-0.249c-0.038-0.084-0.076-0.168-0.115-0.252c-0.038-0.084-0.077-0.168-0.114-0.251
		c-0.038-0.084-0.077-0.168-0.12-0.251c-0.042-0.083-0.082-0.163-0.122-0.24c-0.039-0.077-0.082-0.16-0.127-0.249
		c-0.046-0.089-0.088-0.167-0.127-0.239c-0.039-0.07-0.079-0.139-0.12-0.207c-0.041-0.067-0.079-0.132-0.116-0.197
		c-0.038-0.064-0.073-0.125-0.11-0.183c-0.036-0.058-0.073-0.115-0.112-0.173c-0.039-0.057-0.078-0.118-0.118-0.182
		s-0.082-0.129-0.126-0.195s-0.086-0.131-0.126-0.195s-0.082-0.129-0.127-0.194c-0.045-0.066-0.085-0.129-0.121-0.19
		c-0.037-0.062-0.072-0.122-0.108-0.18c-0.035-0.059-0.069-0.117-0.102-0.175c-0.033-0.059-0.066-0.116-0.097-0.171
		c-0.032-0.055-0.065-0.109-0.1-0.161c-0.034-0.052-0.069-0.105-0.104-0.16c-0.035-0.056-0.072-0.113-0.111-0.174
		c-0.039-0.06-0.076-0.115-0.11-0.164c-0.035-0.049-0.071-0.1-0.109-0.154c-0.038-0.054-0.075-0.106-0.112-0.158
		c-0.038-0.051-0.074-0.104-0.109-0.159c-0.034-0.055-0.069-0.107-0.103-0.155c-0.034-0.049-0.068-0.097-0.101-0.146
		c-0.034-0.049-0.072-0.104-0.114-0.164c-0.043-0.059-0.083-0.113-0.12-0.161c-0.038-0.047-0.078-0.096-0.122-0.146
		c-0.044-0.05-0.091-0.099-0.141-0.148c-0.05-0.048-0.093-0.092-0.127-0.131c-0.035-0.038-0.079-0.085-0.134-0.139
		c-0.055-0.053-0.101-0.098-0.138-0.132c-0.037-0.034-0.074-0.069-0.111-0.104c-0.037-0.035-0.081-0.075-0.129-0.12
		c-0.049-0.044-0.094-0.085-0.135-0.119c-0.04-0.034-0.084-0.071-0.133-0.11c-0.048-0.038-0.097-0.077-0.149-0.115
		c-0.051-0.038-0.097-0.075-0.137-0.109c-0.041-0.034-0.086-0.072-0.138-0.113c-0.051-0.042-0.104-0.085-0.155-0.129
		c-0.053-0.044-0.105-0.091-0.155-0.139c-0.05-0.049-0.098-0.09-0.141-0.123c-0.043-0.034-0.087-0.071-0.132-0.11
		c-0.045-0.04-0.089-0.075-0.132-0.105c-0.043-0.029-0.093-0.061-0.15-0.095s-0.111-0.065-0.163-0.093
		c-0.052-0.028-0.103-0.06-0.154-0.095c-0.05-0.035-0.097-0.067-0.14-0.097c-0.043-0.03-0.091-0.062-0.145-0.097
		c-0.054-0.034-0.108-0.064-0.163-0.089c-0.056-0.023-0.109-0.036-0.161-0.034c-0.052,0.002-0.105,0.001-0.163-0.004
		c-0.057-0.004-0.108-0.012-0.159-0.025c-0.049-0.013-0.099-0.022-0.15-0.026c-0.051-0.005-0.107-0.005-0.168,0.001
		c-0.061,0.007-0.121,0.017-0.176,0.029l-0.505,0.11c-0.053,0.011-0.11,0.025-0.17,0.041c-0.059,0.018-0.113,0.033-0.162,0.051
		c-0.048,0.019-0.099,0.038-0.15,0.062c-0.051,0.024-0.108,0.054-0.169,0.091c-0.061,0.037-0.126,0.079-0.194,0.127
		c-0.068,0.047-0.139,0.099-0.213,0.154c-0.074,0.055-0.147,0.114-0.22,0.176c-0.073,0.062-0.128,0.111-0.166,0.145
		c-0.038,0.035-0.076,0.073-0.113,0.114c-0.038,0.042-0.075,0.084-0.112,0.128c-0.036,0.044-0.073,0.092-0.108,0.142
		c-0.035,0.051-0.071,0.107-0.107,0.167c-0.036,0.06-0.075,0.129-0.117,0.208c-0.042,0.078-0.083,0.164-0.127,0.259
		c-0.043,0.095-0.086,0.198-0.131,0.311c-0.045,0.112-0.088,0.238-0.13,0.379c-0.042,0.141-0.083,0.286-0.123,0.436
		c-0.04,0.15-0.074,0.297-0.102,0.442l-0.041,0.217"/>
	
		<path id="STROKE_6C71922C.-1A82.-48D3.-9B90.-E9621DB463AF" fill="none" stroke="#000000" stroke-width="1.51" stroke-linecap="round" stroke-linejoin="round" d="
		M54.824,85.892c-0.023-0.106-0.035-0.188-0.033-0.239c0.001-0.053,0.026-0.078,0.077-0.076c0.05,0.002,0.088,0.031,0.114,0.089
		c0.026,0.057,0.052,0.122,0.077,0.196s0.048,0.139,0.067,0.197c0.019,0.058,0.039,0.125,0.059,0.203
		c0.021,0.078,0.041,0.159,0.06,0.244c0.018,0.086,0.034,0.153,0.049,0.202c0.014,0.05,0.026,0.101,0.037,0.149
		c0.011,0.051,0.024,0.103,0.039,0.155c0.015,0.054,0.028,0.108,0.04,0.164c0.013,0.056,0.027,0.112,0.042,0.169
		c0.016,0.055,0.03,0.113,0.043,0.173l0.325,1.495c0.014,0.063,0.027,0.133,0.04,0.209c0.014,0.076,0.024,0.148,0.032,0.215
		c0.007,0.068,0.015,0.133,0.022,0.193c0.006,0.061,0.014,0.126,0.022,0.193c0.007,0.066,0.016,0.138,0.026,0.211
		c0.011,0.073,0.02,0.145,0.028,0.212c0.008,0.067,0.014,0.136,0.02,0.206c0.006,0.072,0.011,0.145,0.016,0.215
		c0.006,0.072,0.014,0.141,0.024,0.203c0.011,0.064,0.022,0.135,0.033,0.215c0.012,0.08,0.021,0.154,0.029,0.221
		c0.008,0.067,0.015,0.131,0.022,0.193c0.005,0.061,0.013,0.124,0.02,0.188c0.008,0.064,0.015,0.129,0.022,0.193
		c0.007,0.064,0.013,0.125,0.016,0.184c0.004,0.06,0.007,0.117,0.009,0.177c0.003,0.058,0.007,0.114,0.012,0.169
		c0.005,0.056,0.008,0.109,0.01,0.162s0.001,0.104,0,0.158c-0.001,0.053-0.002,0.123-0.002,0.213
		c-0.001,0.09-0.003,0.176-0.007,0.264c-0.004,0.086-0.008,0.168-0.011,0.244c-0.001,0.076-0.008,0.146-0.018,0.212
		c-0.01,0.064-0.016,0.126-0.02,0.182s-0.013,0.114-0.027,0.173c-0.014,0.059-0.042,0.07-0.083,0.033
		c-0.041-0.037-0.067-0.08-0.078-0.131l-0.192-0.882c-0.011-0.055-0.021-0.109-0.031-0.167c-0.008-0.057-0.019-0.121-0.032-0.194
		c-0.012-0.073-0.024-0.146-0.036-0.215c-0.012-0.069-0.023-0.142-0.032-0.216c-0.009-0.073-0.019-0.15-0.03-0.23
		c-0.011-0.08-0.022-0.164-0.035-0.254c-0.013-0.09-0.024-0.181-0.036-0.275c-0.011-0.093-0.023-0.193-0.036-0.301
		c-0.014-0.109-0.027-0.217-0.041-0.322c-0.013-0.106-0.027-0.217-0.042-0.332c-0.015-0.115-0.03-0.236-0.044-0.361
		c-0.014-0.125-0.027-0.254-0.043-0.387c-0.015-0.131-0.033-0.27-0.055-0.412c-0.022-0.144-0.043-0.299-0.063-0.465
		c-0.019-0.168-0.04-0.325-0.063-0.476c-0.022-0.151-0.043-0.289-0.062-0.417s-0.038-0.262-0.059-0.402
		c-0.02-0.141-0.038-0.277-0.054-0.412c-0.016-0.135-0.033-0.268-0.052-0.398s-0.036-0.257-0.049-0.38
		c-0.013-0.122-0.024-0.241-0.037-0.356c-0.012-0.116-0.023-0.229-0.034-0.338c-0.011-0.111-0.019-0.21-0.021-0.299
		c-0.002-0.089-0.005-0.177-0.008-0.265s-0.007-0.167-0.013-0.238c-0.005-0.071-0.008-0.14-0.009-0.206
		c-0.001-0.066-0.001-0.126,0-0.18c0.001-0.053,0.001-0.112,0-0.182c-0.001-0.068,0-0.073,0.007-0.016
		c0.006,0.059,0.006,0.141,0,0.246c-0.006,0.107-0.009,0.197-0.006,0.27c0.002,0.072,0.005,0.147,0.01,0.225
		c0.003,0.078,0.007,0.16,0.009,0.25c0.003,0.088,0.007,0.188,0.011,0.299c0.005,0.111,0.01,0.221,0.018,0.327
		c0.005,0.106,0.012,0.221,0.02,0.342c0.006,0.12,0.013,0.244,0.021,0.371c0.007,0.127,0.014,0.257,0.02,0.39
		c0.007,0.135,0.014,0.272,0.022,0.416s0.017,0.297,0.026,0.463c0.009,0.166,0.018,0.33,0.028,0.492
		c0.009,0.164,0.017,0.331,0.026,0.504c0.007,0.174,0.016,0.35,0.025,0.528c0.01,0.179,0.021,0.356,0.034,0.536
		c0.012,0.178,0.024,0.347,0.035,0.505c0.011,0.16,0.022,0.334,0.034,0.522c0.011,0.188,0.024,0.361,0.039,0.52
		c0.015,0.159,0.025,0.302,0.029,0.43c0.004,0.127,0.01,0.255,0.019,0.385c0.009,0.131,0.016,0.246,0.021,0.347
		s0.007,0.194,0.006,0.28c0,0.084-0.001,0.174-0.001,0.267c0,0.092-0.002,0.172-0.007,0.239c-0.005,0.066-0.011,0.129-0.019,0.19
		c-0.007,0.06-0.014,0.118-0.022,0.173c-0.007,0.055-0.019,0.125-0.037,0.211c-0.018,0.086-0.036,0.162-0.055,0.225
		s-0.039,0.117-0.058,0.166c-0.019,0.046-0.044,0.037-0.076-0.028c-0.031-0.065-0.051-0.145-0.061-0.237
		c-0.011-0.094-0.015-0.17-0.014-0.226c0.001-0.058,0.001-0.116,0.001-0.179c-0.001-0.063-0.003-0.128-0.004-0.197
		c-0.002-0.068-0.001-0.142,0.001-0.222c0.002-0.08,0.005-0.157,0.009-0.234c0.004-0.075,0.004-0.157,0.001-0.241
		c-0.002-0.086-0.003-0.174-0.002-0.263c0.001-0.088,0.001-0.187,0-0.296s-0.001-0.215,0-0.316c0-0.102-0.002-0.218-0.006-0.349
		c-0.005-0.131-0.01-0.261-0.016-0.392s-0.012-0.264-0.019-0.401c-0.007-0.138-0.014-0.287-0.023-0.45
		c-0.008-0.163-0.019-0.32-0.033-0.471c-0.013-0.152-0.026-0.299-0.036-0.441c-0.011-0.143-0.025-0.305-0.041-0.484
		c-0.017-0.182-0.033-0.355-0.051-0.523c-0.017-0.168-0.035-0.335-0.054-0.502c-0.019-0.166-0.039-0.335-0.06-0.504
		c-0.02-0.172-0.04-0.342-0.061-0.512c-0.021-0.17-0.041-0.33-0.059-0.477c-0.019-0.146-0.04-0.313-0.064-0.494
		c-0.023-0.184-0.045-0.354-0.066-0.51c-0.021-0.156-0.04-0.302-0.059-0.436c-0.02-0.135-0.038-0.271-0.055-0.41
		c-0.019-0.137-0.035-0.268-0.051-0.393c-0.017-0.123-0.031-0.234-0.042-0.332c-0.011-0.097-0.022-0.191-0.033-0.284
		c-0.011-0.093-0.019-0.175-0.024-0.247c-0.005-0.07-0.011-0.139-0.019-0.203c-0.008-0.064-0.014-0.139-0.018-0.223
		c-0.005-0.084-0.007-0.153-0.006-0.207c0.001-0.051,0.006-0.053,0.013-0.002c0.008,0.051,0.005,0.123-0.006,0.219
		c-0.013,0.096-0.021,0.177-0.026,0.242c-0.004,0.067-0.011,0.141-0.022,0.217c-0.01,0.078-0.016,0.162-0.02,0.252
		s-0.007,0.191-0.013,0.305c-0.005,0.113-0.008,0.227-0.008,0.343c-0.001,0.115-0.001,0.237-0.001,0.364
		c0.001,0.129,0,0.27-0.002,0.426c-0.003,0.155-0.003,0.305-0.002,0.445c0.001,0.142,0.004,0.306,0.008,0.492
		c0.005,0.188,0.01,0.369,0.016,0.549s0.014,0.361,0.024,0.543c0.011,0.184,0.021,0.369,0.033,0.557
		c0.011,0.188,0.023,0.377,0.039,0.564s0.029,0.377,0.044,0.568c0.014,0.191,0.029,0.379,0.042,0.563
		c0.014,0.185,0.027,0.366,0.04,0.545c0.013,0.179,0.025,0.354,0.036,0.526c0.011,0.172,0.021,0.339,0.029,0.501
		c0.009,0.163,0.016,0.312,0.023,0.446c0.006,0.133,0.013,0.269,0.019,0.405c0.008,0.136,0.012,0.264,0.014,0.381
		c0.002,0.118,0.005,0.222,0.008,0.31c0.003,0.09,0.004,0.177,0.002,0.262c-0.001,0.086-0.003,0.156-0.004,0.208
		c-0.001,0.054-0.004,0.116-0.008,0.19s-0.031,0.102-0.081,0.082c-0.05-0.02-0.085-0.078-0.106-0.174L53.915,92.4
		c-0.018-0.08-0.034-0.168-0.048-0.26c-0.014-0.092-0.03-0.193-0.047-0.302c-0.016-0.108-0.032-0.218-0.045-0.325
		c-0.014-0.109-0.028-0.221-0.043-0.337c-0.015-0.114-0.029-0.233-0.043-0.356c-0.014-0.121-0.028-0.248-0.044-0.381
		c-0.015-0.131-0.03-0.276-0.045-0.435c-0.015-0.157-0.03-0.313-0.046-0.464c-0.016-0.15-0.03-0.307-0.042-0.469
		c-0.012-0.162-0.025-0.326-0.037-0.491c-0.012-0.165-0.025-0.333-0.04-0.505c-0.014-0.171-0.028-0.336-0.039-0.496
		c-0.012-0.158-0.025-0.335-0.037-0.53c-0.013-0.194-0.025-0.381-0.037-0.56s-0.022-0.354-0.03-0.527
		c-0.008-0.172-0.016-0.342-0.022-0.51c-0.007-0.165-0.011-0.327-0.012-0.484c-0.002-0.159-0.004-0.305-0.007-0.439
		c-0.003-0.133-0.003-0.271,0-0.41c0.002-0.139,0.005-0.271,0.008-0.396c0.003-0.125,0.005-0.246,0.007-0.361s0.001-0.22,0-0.312
		c0-0.092,0-0.181,0.002-0.267c0.001-0.086,0.003-0.164,0.003-0.232c0.001-0.07,0.002-0.137,0.002-0.199s-0.002-0.134-0.007-0.215
		c-0.003-0.082-0.01-0.148-0.019-0.199c-0.008-0.052-0.023-0.041-0.044,0.028c-0.021,0.071-0.038,0.132-0.049,0.185
		c-0.011,0.052-0.023,0.109-0.035,0.176c-0.012,0.064-0.023,0.135-0.032,0.215c-0.009,0.076-0.021,0.166-0.036,0.265
		c-0.015,0.098-0.029,0.2-0.042,0.306c-0.014,0.104-0.027,0.209-0.042,0.314c-0.013,0.104-0.029,0.229-0.048,0.371
		s-0.035,0.293-0.047,0.449c-0.012,0.158-0.022,0.314-0.031,0.472c-0.007,0.156-0.014,0.315-0.018,0.479s-0.009,0.331-0.014,0.507
		c-0.005,0.175-0.007,0.355-0.007,0.539c0.001,0.185,0.001,0.371,0.002,0.559s0.005,0.377,0.01,0.57
		c0.006,0.193,0.012,0.387,0.019,0.584c0.006,0.195,0.012,0.404,0.017,0.628c0.007,0.224,0.015,0.437,0.026,0.642
		c0.012,0.205,0.02,0.396,0.026,0.572c0.005,0.176,0.013,0.355,0.023,0.538c0.01,0.182,0.017,0.358,0.021,0.528
		s0.01,0.32,0.018,0.45s0.015,0.259,0.02,0.387c0.005,0.126,0.01,0.239,0.015,0.337c0.005,0.098,0.007,0.185,0.007,0.261
		c0,0.075,0,0.147,0.002,0.218c0.001,0.068-0.002,0.137-0.01,0.203c-0.009,0.068-0.036,0.074-0.081,0.018
		c-0.045-0.055-0.074-0.11-0.085-0.163l-0.144-0.661c-0.018-0.084-0.033-0.174-0.044-0.271c-0.01-0.096-0.024-0.201-0.039-0.316
		c-0.016-0.116-0.03-0.229-0.04-0.338c-0.01-0.111-0.021-0.223-0.033-0.34c-0.011-0.115-0.024-0.234-0.038-0.356
		c-0.014-0.124-0.027-0.248-0.038-0.378c-0.011-0.129-0.024-0.262-0.042-0.398c-0.017-0.139-0.03-0.289-0.038-0.451
		c-0.008-0.164-0.018-0.32-0.028-0.474c-0.011-0.153-0.021-0.308-0.033-0.462c-0.011-0.156-0.02-0.314-0.028-0.475
		c-0.007-0.158-0.014-0.31-0.019-0.453c-0.005-0.145-0.01-0.305-0.016-0.481c-0.005-0.176-0.01-0.345-0.016-0.505
		c-0.004-0.161-0.01-0.319-0.015-0.477c-0.004-0.158-0.007-0.312-0.007-0.463c0-0.152,0-0.292,0.004-0.42
		c0.002-0.129,0.006-0.266,0.011-0.408c0.005-0.145,0.01-0.28,0.014-0.414c0.004-0.133,0.011-0.262,0.019-0.389
		c0.009-0.125,0.021-0.252,0.032-0.377c0.013-0.125,0.024-0.24,0.033-0.348c0.01-0.107,0.019-0.208,0.029-0.303
		c0.009-0.095,0.017-0.182,0.026-0.262c0.008-0.082,0.016-0.168,0.023-0.258c0.006-0.09,0.011-0.167,0.014-0.23
		c0.003-0.063,0.006-0.125,0.009-0.185c0.003-0.061,0.003-0.131-0.002-0.213c-0.004-0.081-0.007-0.147-0.013-0.198
		c-0.004-0.053-0.023-0.057-0.057-0.013c-0.033,0.043-0.061,0.114-0.082,0.215s-0.039,0.188-0.052,0.263
		c-0.013,0.075-0.026,0.15-0.039,0.227c-0.013,0.075-0.028,0.158-0.045,0.247c-0.017,0.089-0.033,0.19-0.048,0.308
		c-0.014,0.114-0.028,0.232-0.041,0.354c-0.014,0.121-0.026,0.248-0.037,0.379c-0.011,0.131-0.022,0.277-0.032,0.441
		s-0.017,0.324-0.023,0.484c-0.004,0.159-0.01,0.325-0.015,0.497c-0.006,0.173-0.009,0.349-0.009,0.53
		c-0.001,0.181,0,0.365,0.001,0.553s0.003,0.379,0.005,0.572c0.003,0.193,0.006,0.384,0.01,0.57
		c0.005,0.187,0.012,0.371,0.022,0.555c0.01,0.182,0.019,0.359,0.027,0.531c0.008,0.174,0.015,0.34,0.021,0.504
		c0.006,0.164,0.013,0.313,0.017,0.447c0.006,0.133,0.011,0.27,0.014,0.406c0.004,0.137,0.007,0.266,0.01,0.383
		c0.003,0.117,0.003,0.219,0.002,0.307c-0.002,0.086-0.001,0.164,0.001,0.231c0.002,0.069,0.002,0.13,0.001,0.183
		c-0.003,0.053-0.008,0.11-0.018,0.172c-0.009,0.062-0.034,0.07-0.074,0.027c-0.041-0.045-0.07-0.117-0.092-0.217l-0.099-0.455
		c-0.015-0.068-0.027-0.143-0.038-0.219c-0.009-0.076-0.018-0.156-0.026-0.241c-0.009-0.083-0.02-0.168-0.03-0.251
		s-0.023-0.168-0.036-0.259c-0.013-0.089-0.026-0.178-0.04-0.267c-0.013-0.09-0.027-0.179-0.039-0.269
		c-0.013-0.09-0.025-0.181-0.039-0.273c-0.014-0.093-0.027-0.186-0.041-0.278c-0.013-0.092-0.025-0.188-0.036-0.283
		c-0.011-0.098-0.024-0.191-0.038-0.288c-0.015-0.097-0.028-0.198-0.039-0.308c-0.01-0.109-0.021-0.217-0.033-0.318
		c-0.013-0.104-0.024-0.207-0.034-0.314c-0.011-0.106-0.02-0.215-0.027-0.326c-0.007-0.109-0.013-0.215-0.018-0.316
		c-0.006-0.1-0.01-0.214-0.016-0.342c-0.005-0.127-0.009-0.25-0.011-0.368c-0.003-0.116-0.004-0.233-0.003-0.349
		c0.001-0.116,0.002-0.233,0.003-0.352c0.001-0.119,0.005-0.234,0.009-0.348c0.006-0.113,0.01-0.221,0.014-0.324
		c0.004-0.103,0.01-0.216,0.02-0.34c0.01-0.125,0.02-0.239,0.03-0.343c0.01-0.104,0.018-0.202,0.025-0.292
		c0.006-0.091,0.016-0.186,0.028-0.283c0.013-0.1,0.023-0.193,0.033-0.283c0.01-0.092,0.018-0.176,0.024-0.253
		c0.006-0.077,0.013-0.16,0.021-0.247c0.007-0.087,0.011-0.16,0.011-0.22c0-0.06,0.002-0.12,0.005-0.183
		c0.004-0.063,0.005-0.137,0.006-0.225c0.001-0.086,0-0.163,0-0.232c-0.002-0.068-0.024-0.066-0.068,0.006
		c-0.045,0.072-0.076,0.134-0.095,0.184c-0.018,0.051-0.039,0.107-0.061,0.172c-0.022,0.063-0.045,0.129-0.07,0.197
		c-0.025,0.068-0.051,0.143-0.077,0.225c-0.025,0.082-0.054,0.174-0.088,0.276c-0.033,0.103-0.061,0.199-0.085,0.29
		c-0.022,0.09-0.048,0.196-0.074,0.316c-0.025,0.121-0.051,0.24-0.075,0.357c-0.024,0.118-0.046,0.239-0.065,0.365
		c-0.019,0.125-0.038,0.253-0.055,0.382c-0.019,0.128-0.034,0.259-0.049,0.388c-0.015,0.127-0.031,0.258-0.049,0.391
		c-0.018,0.131-0.033,0.259-0.046,0.381c-0.014,0.121-0.027,0.24-0.041,0.359c-0.014,0.117-0.025,0.23-0.036,0.338
		c-0.009,0.106-0.02,0.205-0.03,0.293c-0.01,0.088-0.019,0.178-0.025,0.268c-0.007,0.09-0.012,0.172-0.016,0.245
		c-0.005,0.073-0.008,0.147-0.012,0.22c-0.003,0.073-0.008,0.139-0.012,0.195c-0.005,0.057-0.009,0.119-0.014,0.186
		c-0.005,0.068-0.006,0.068-0.004,0.001c0.002-0.066,0.015-0.151,0.038-0.256c0.023-0.104,0.045-0.184,0.066-0.241l0.03-0.086"/>
	
		<path id="STROKE_00482E24.-0AF8.-4E2E.-994D.-22640F0A7E2E" fill="none" stroke="#000000" stroke-width="1.51" stroke-linecap="round" stroke-linejoin="round" d="
		M38.125,70.022c-0.108-0.016-0.183,0.009-0.221,0.073c-0.038,0.064-0.071,0.123-0.1,0.179c-0.027,0.055-0.056,0.122-0.085,0.202
		c-0.029,0.079-0.061,0.163-0.094,0.253c-0.034,0.089-0.062,0.161-0.083,0.215s-0.042,0.11-0.062,0.167
		c-0.021,0.058-0.042,0.12-0.063,0.191c-0.021,0.07-0.042,0.141-0.063,0.211c-0.021,0.07-0.041,0.144-0.06,0.221
		c-0.02,0.077-0.039,0.157-0.057,0.239c-0.018,0.083-0.036,0.168-0.053,0.259c-0.017,0.09-0.032,0.18-0.045,0.271
		c-0.013,0.092-0.025,0.187-0.037,0.285c-0.011,0.098-0.021,0.196-0.029,0.293c-0.008,0.098-0.015,0.195-0.021,0.291
		c-0.004,0.097-0.009,0.195-0.014,0.295c-0.003,0.1-0.007,0.196-0.007,0.287c0,0.092-0.002,0.183-0.006,0.272
		c-0.003,0.09-0.004,0.178-0.002,0.263s0.003,0.166,0.003,0.241c0,0.076,0,0.147,0.001,0.212c0.001,0.066,0,0.131-0.003,0.194
		c-0.004,0.063-0.004,0.122-0.001,0.178c0.003,0.055,0.001,0.124-0.004,0.208c-0.006,0.083-0.012,0.152-0.02,0.206l-0.011,0.081"/>
	
		<path id="STROKE_1511BB74.-8F84.-4167.-A6B4.-D42014EC73E5" fill="none" stroke="#000000" stroke-width="1.51" stroke-linecap="round" stroke-linejoin="round" d="
		M35.681,68.153c-0.029-0.132-0.056-0.225-0.081-0.279c-0.025-0.054-0.066-0.06-0.123-0.018c-0.057,0.042-0.1,0.108-0.131,0.197
		c-0.03,0.088-0.056,0.162-0.076,0.218c-0.021,0.058-0.04,0.12-0.058,0.19c-0.017,0.069-0.037,0.14-0.058,0.21
		c-0.021,0.07-0.041,0.145-0.059,0.226c-0.019,0.08-0.041,0.165-0.063,0.256c-0.023,0.09-0.05,0.188-0.079,0.293
		c-0.03,0.105-0.058,0.205-0.083,0.3c-0.026,0.096-0.055,0.206-0.087,0.33c-0.031,0.126-0.064,0.25-0.097,0.373
		c-0.034,0.122-0.067,0.248-0.103,0.377c-0.034,0.13-0.071,0.271-0.11,0.424s-0.076,0.301-0.111,0.444
		c-0.035,0.143-0.065,0.276-0.09,0.4c-0.026,0.124-0.052,0.255-0.078,0.392c-0.027,0.137-0.052,0.274-0.074,0.411
		c-0.023,0.137-0.045,0.272-0.065,0.405c-0.021,0.133-0.04,0.262-0.055,0.388c-0.016,0.125-0.029,0.248-0.039,0.369
		c-0.01,0.12-0.018,0.235-0.02,0.344c-0.003,0.109-0.006,0.223-0.009,0.343c-0.004,0.119-0.004,0.223-0.002,0.312l0.004,0.132"/>
	
		<path id="STROKE_26E7C9AA.-F4F6.-4FC2.-A297.-9340C72F2912" fill="none" stroke="#000000" stroke-width="1.51" stroke-linecap="round" stroke-linejoin="round" d="
		M23.174,96.408c-0.066-0.09-0.122-0.15-0.167-0.18c-0.046-0.03-0.096-0.053-0.148-0.068c-0.053-0.014-0.106-0.023-0.16-0.028
		c-0.053-0.004-0.106-0.005-0.158,0c-0.053,0.004-0.109,0.013-0.168,0.026c-0.06,0.013-0.119,0.025-0.179,0.039
		c-0.06,0.013-0.117,0.031-0.171,0.057c-0.055,0.025-0.11,0.051-0.167,0.076s-0.11,0.051-0.16,0.08
		c-0.05,0.026-0.098,0.057-0.144,0.09c-0.046,0.031-0.088,0.066-0.127,0.102c-0.039,0.035-0.082,0.07-0.13,0.107
		c-0.048,0.037-0.091,0.072-0.13,0.107s-0.08,0.072-0.123,0.115s-0.082,0.083-0.116,0.123c-0.034,0.041-0.07,0.083-0.107,0.127
		c-0.036,0.045-0.072,0.088-0.105,0.133c-0.034,0.043-0.069,0.092-0.107,0.142c-0.038,0.051-0.077,0.101-0.116,0.149
		c-0.039,0.047-0.075,0.096-0.107,0.142c-0.034,0.046-0.064,0.096-0.092,0.147c-0.028,0.053-0.055,0.105-0.08,0.156
		c-0.025,0.053-0.051,0.107-0.076,0.169c-0.026,0.062-0.046,0.119-0.062,0.172c-0.015,0.052-0.031,0.104-0.046,0.153
		c-0.016,0.051-0.029,0.1-0.041,0.152c-0.012,0.052-0.024,0.105-0.035,0.16c-0.012,0.055-0.022,0.116-0.03,0.185
		c-0.008,0.067-0.015,0.134-0.02,0.197c-0.006,0.063-0.01,0.126-0.014,0.186c-0.004,0.061-0.009,0.117-0.015,0.171
		c-0.004,0.055-0.008,0.109-0.013,0.166c-0.002,0.057-0.006,0.115-0.006,0.174c-0.001,0.061,0.001,0.12,0.005,0.182
		c0.004,0.063,0.011,0.121,0.02,0.18c0.009,0.057,0.02,0.115,0.033,0.175c0.013,0.06,0.023,0.114,0.031,0.167
		c0.008,0.051,0.014,0.105,0.02,0.163s0.013,0.112,0.021,0.163c0.008,0.051,0.017,0.102,0.028,0.152
		c0.011,0.051,0.021,0.104,0.035,0.16c0.012,0.056,0.027,0.108,0.044,0.158c0.017,0.049,0.039,0.096,0.065,0.139
		c0.025,0.045,0.046,0.098,0.063,0.16c0.017,0.062,0.035,0.119,0.053,0.17c0.018,0.053,0.037,0.103,0.058,0.15
		c0.02,0.049,0.044,0.098,0.071,0.148c0.027,0.05,0.062,0.097,0.104,0.141c0.042,0.043,0.077,0.088,0.104,0.135
		s0.052,0.094,0.076,0.141c0.024,0.049,0.052,0.094,0.084,0.137c0.032,0.042,0.072,0.083,0.121,0.122
		c0.048,0.039,0.098,0.071,0.149,0.101c0.054,0.027,0.104,0.055,0.151,0.079c0.048,0.026,0.097,0.058,0.148,0.093
		c0.05,0.035,0.098,0.063,0.143,0.086c0.044,0.023,0.094,0.045,0.147,0.063c0.054,0.018,0.113,0.03,0.176,0.036
		c0.064,0.006,0.122,0.009,0.175,0.011s0.108,0.006,0.165,0.01c0.059,0.004,0.12,0.01,0.183,0.018
		c0.064,0.01,0.128,0.018,0.192,0.023s0.122,0.008,0.175,0.006c0.053,0,0.105-0.002,0.158-0.004c0.052-0.001,0.105-0.008,0.159-0.02
		l0.35-0.074c0.053-0.013,0.105-0.033,0.159-0.066c0.054-0.03,0.102-0.064,0.147-0.1c0.044-0.037,0.09-0.076,0.137-0.119
		c0.047-0.043,0.096-0.088,0.145-0.131c0.05-0.043,0.094-0.082,0.134-0.113c0.039-0.032,0.083-0.073,0.131-0.124
		c0.049-0.048,0.091-0.098,0.127-0.145s0.068-0.092,0.095-0.134c0.027-0.043,0.057-0.089,0.089-0.139
		c0.032-0.049,0.059-0.103,0.079-0.159c0.021-0.058,0.045-0.112,0.072-0.164c0.028-0.052,0.058-0.101,0.092-0.144
		c0.034-0.043,0.065-0.09,0.094-0.139c0.029-0.051,0.052-0.1,0.071-0.15c0.019-0.05,0.035-0.104,0.049-0.163
		c0.014-0.059,0.028-0.116,0.042-0.173c0.014-0.056,0.028-0.113,0.041-0.172c0.014-0.059,0.019-0.117,0.017-0.176
		c-0.003-0.059-0.01-0.114-0.021-0.164c-0.011-0.05-0.022-0.1-0.034-0.15c-0.01-0.051-0.02-0.101-0.027-0.151
		c-0.008-0.052-0.018-0.103-0.03-0.157l-0.104-0.48c-0.012-0.055-0.021-0.109-0.026-0.168c-0.006-0.059-0.013-0.117-0.02-0.179
		c-0.008-0.062-0.017-0.116-0.028-0.167l-0.102-0.473c-0.011-0.049-0.025-0.098-0.042-0.148c-0.017-0.048-0.037-0.097-0.061-0.145
		c-0.024-0.047-0.046-0.097-0.067-0.146c-0.022-0.053-0.04-0.105-0.055-0.158c-0.015-0.052-0.031-0.104-0.049-0.156
		c-0.018-0.053-0.041-0.104-0.068-0.153c-0.027-0.05-0.053-0.097-0.08-0.142c-0.026-0.043-0.052-0.088-0.079-0.135
		c-0.026-0.047-0.052-0.093-0.078-0.135c-0.027-0.045-0.053-0.089-0.079-0.132c-0.025-0.044-0.051-0.09-0.078-0.137
		c-0.028-0.048-0.055-0.098-0.083-0.15c-0.028-0.053-0.054-0.103-0.077-0.151c-0.024-0.047-0.05-0.099-0.079-0.154
		c-0.028-0.057-0.061-0.116-0.098-0.177c-0.037-0.063-0.068-0.115-0.094-0.159c-0.025-0.043-0.053-0.088-0.083-0.135
		c-0.031-0.045-0.062-0.093-0.096-0.142c-0.033-0.048-0.067-0.099-0.101-0.151c-0.034-0.052-0.071-0.104-0.109-0.158
		c-0.04-0.055-0.08-0.113-0.123-0.177c-0.043-0.062-0.087-0.126-0.131-0.192c-0.044-0.067-0.09-0.137-0.139-0.207
		c-0.048-0.072-0.098-0.145-0.15-0.215c-0.052-0.071-0.101-0.139-0.147-0.205c-0.048-0.066-0.093-0.133-0.138-0.203
		c-0.045-0.066-0.09-0.135-0.138-0.201c-0.047-0.064-0.091-0.13-0.132-0.193c-0.04-0.063-0.082-0.127-0.121-0.191
		c-0.04-0.063-0.082-0.129-0.125-0.195c-0.045-0.066-0.089-0.132-0.132-0.198c-0.043-0.065-0.089-0.132-0.136-0.196
		c-0.048-0.066-0.093-0.131-0.137-0.193c-0.043-0.063-0.087-0.129-0.128-0.199s-0.085-0.141-0.129-0.214
		c-0.046-0.071-0.089-0.144-0.13-0.214c-0.042-0.07-0.082-0.139-0.12-0.206s-0.078-0.135-0.118-0.2
		c-0.041-0.068-0.08-0.133-0.117-0.197c-0.037-0.065-0.074-0.127-0.113-0.184c-0.04-0.058-0.076-0.116-0.112-0.174
		c-0.037-0.059-0.074-0.115-0.113-0.174c-0.038-0.057-0.076-0.117-0.113-0.182c-0.037-0.063-0.078-0.132-0.124-0.205
		c-0.046-0.072-0.091-0.146-0.133-0.223c-0.043-0.077-0.085-0.15-0.127-0.221c-0.041-0.068-0.084-0.141-0.13-0.213
		c-0.045-0.074-0.088-0.143-0.13-0.209c-0.041-0.066-0.082-0.131-0.122-0.195c-0.041-0.064-0.08-0.125-0.118-0.184
		c-0.04-0.057-0.075-0.11-0.109-0.162c-0.034-0.051-0.069-0.104-0.103-0.155c-0.035-0.052-0.069-0.101-0.102-0.146
		c-0.033-0.045-0.064-0.094-0.096-0.143c-0.031-0.05-0.062-0.102-0.092-0.152c-0.031-0.053-0.062-0.108-0.094-0.168
		c-0.033-0.059-0.066-0.117-0.103-0.179c-0.037-0.062-0.074-0.124-0.111-0.188c-0.037-0.065-0.074-0.127-0.11-0.185
		c-0.037-0.058-0.071-0.114-0.106-0.17c-0.035-0.055-0.066-0.104-0.095-0.147c-0.029-0.043-0.064-0.09-0.104-0.14
		c-0.041-0.05-0.081-0.099-0.122-0.146c-0.041-0.049-0.076-0.094-0.104-0.137c-0.029-0.043-0.049-0.09-0.06-0.14
		c-0.011-0.05-0.022-0.103-0.034-0.156c-0.011-0.054,0.008-0.083,0.059-0.091c0.051-0.008,0.101-0.017,0.152-0.027
		c0.051-0.012,0.102-0.027,0.154-0.045c0.052-0.018,0.104-0.035,0.157-0.054c0.053-0.018,0.109-0.038,0.17-0.062
		c0.06-0.023,0.116-0.047,0.167-0.071c0.05-0.024,0.102-0.05,0.157-0.073c0.055-0.025,0.111-0.053,0.17-0.086
		s0.118-0.063,0.178-0.088s0.122-0.055,0.185-0.084c0.062-0.03,0.126-0.064,0.19-0.102c0.065-0.037,0.13-0.078,0.196-0.123
		c0.067-0.043,0.126-0.082,0.178-0.116c0.051-0.034,0.102-0.073,0.153-0.117c0.05-0.044,0.1-0.089,0.149-0.136
		c0.048-0.047,0.097-0.096,0.145-0.146c0.048-0.05,0.099-0.1,0.15-0.15s0.105-0.1,0.161-0.148c0.056-0.048,0.113-0.094,0.169-0.137
		c0.057-0.041,0.117-0.082,0.181-0.122c0.064-0.041,0.128-0.079,0.193-0.116c0.063-0.037,0.128-0.074,0.193-0.111
		c0.065-0.037,0.13-0.072,0.196-0.103c0.066-0.032,0.129-0.063,0.19-0.101c0.062-0.035,0.123-0.072,0.185-0.108
		c0.061-0.036,0.121-0.072,0.179-0.108c0.058-0.035,0.114-0.072,0.168-0.111s0.109-0.078,0.166-0.119
		c0.057-0.043,0.113-0.082,0.168-0.12c0.055-0.04,0.11-0.075,0.165-0.11c0.055-0.035,0.106-0.068,0.154-0.104
		c0.049-0.033,0.096-0.065,0.143-0.096c0.047-0.029,0.094-0.056,0.141-0.08c0.047-0.022,0.1-0.053,0.158-0.088
		c0.058-0.036,0.113-0.071,0.165-0.109c0.051-0.038,0.097-0.078,0.137-0.119c0.04-0.042,0.079-0.09,0.117-0.145
		c0.038-0.055,0.072-0.113,0.101-0.175c0.03-0.062,0.057-0.126,0.083-0.19c0.025-0.064,0.048-0.121,0.067-0.168
		c0.02-0.047,0.039-0.096,0.057-0.146c0.019-0.05,0.038-0.099,0.057-0.146c0.019-0.047,0.038-0.097,0.057-0.146
		c0.019-0.051,0.04-0.099,0.062-0.146c0.022-0.047,0.045-0.096,0.069-0.144s0.054-0.104,0.093-0.167
		c0.038-0.064,0.076-0.126,0.113-0.184c0.038-0.057,0.073-0.107,0.105-0.151c0.032-0.044,0.068-0.09,0.107-0.138
		c0.04-0.049,0.077-0.092,0.111-0.132s0.068-0.082,0.102-0.126c0.034-0.043,0.069-0.082,0.107-0.117
		c0.038-0.035,0.073-0.028,0.104,0.021c0.031,0.051,0.052,0.1,0.063,0.15c0.011,0.05,0.022,0.1,0.033,0.15
		c0.011,0.05,0.026,0.113,0.046,0.188c0.019,0.074,0.037,0.142,0.053,0.201c0.016,0.059,0.036,0.12,0.059,0.184
		c0.024,0.064,0.046,0.129,0.071,0.192c0.024,0.063,0.049,0.131,0.074,0.2c0.026,0.072,0.054,0.141,0.085,0.21
		c0.031,0.067,0.065,0.14,0.102,0.215s0.073,0.151,0.109,0.229c0.037,0.078,0.074,0.156,0.112,0.236
		c0.037,0.08,0.078,0.164,0.123,0.249c0.045,0.085,0.088,0.171,0.129,0.255c0.041,0.083,0.075,0.147,0.101,0.19
		c0.026,0.044,0.062,0.106,0.106,0.188s0.09,0.167,0.139,0.256c0.048,0.088,0.084,0.156,0.109,0.205
		c0.024,0.047,0.049,0.096,0.076,0.145c0.027,0.051,0.055,0.099,0.086,0.145c0.03,0.047,0.059,0.096,0.087,0.148
		c0.027,0.055,0.055,0.107,0.084,0.162c0.028,0.053,0.058,0.104,0.088,0.158c0.031,0.052,0.061,0.105,0.09,0.162
		c0.03,0.057,0.058,0.111,0.085,0.164c0.028,0.055,0.056,0.107,0.084,0.16c0.029,0.053,0.059,0.107,0.087,0.164
		c0.029,0.055,0.056,0.111,0.08,0.165s0.051,0.108,0.079,0.159c0.029,0.055,0.055,0.107,0.079,0.162
		c0.025,0.055,0.053,0.107,0.085,0.16c0.031,0.052,0.061,0.105,0.088,0.158c0.028,0.053,0.056,0.105,0.084,0.158
		c0.029,0.055,0.057,0.107,0.084,0.162c0.027,0.052,0.055,0.104,0.083,0.152c0.028,0.051,0.055,0.103,0.083,0.156
		c0.027,0.053,0.055,0.104,0.083,0.154c0.027,0.049,0.055,0.1,0.083,0.15c0.028,0.05,0.055,0.1,0.082,0.15
		c0.027,0.049,0.054,0.1,0.083,0.148c0.028,0.051,0.053,0.1,0.077,0.15c0.024,0.053,0.049,0.102,0.076,0.148
		c0.028,0.046,0.053,0.096,0.077,0.146c0.023,0.051,0.048,0.102,0.072,0.151c0.024,0.052,0.049,0.101,0.072,0.147
		c0.024,0.047,0.048,0.095,0.07,0.142c0.024,0.049,0.057,0.117,0.1,0.208c0.042,0.09,0.083,0.18,0.123,0.27
		c0.039,0.09,0.078,0.177,0.116,0.26c0.039,0.084,0.076,0.17,0.111,0.258c0.035,0.088,0.072,0.178,0.112,0.268
		c0.04,0.09,0.082,0.181,0.124,0.273c0.043,0.092,0.078,0.164,0.101,0.211c0.024,0.049,0.047,0.096,0.07,0.143
		c0.023,0.048,0.045,0.096,0.065,0.144c0.021,0.048,0.044,0.097,0.071,0.144c0.026,0.045,0.062,0.113,0.107,0.197
		c0.046,0.086,0.091,0.17,0.134,0.248c0.044,0.08,0.086,0.152,0.126,0.221c0.041,0.066,0.081,0.131,0.121,0.195
		s0.079,0.129,0.117,0.191c0.037,0.064,0.078,0.127,0.121,0.191c0.042,0.063,0.087,0.127,0.13,0.189
		c0.042,0.063,0.085,0.128,0.126,0.195c0.041,0.066,0.08,0.134,0.118,0.201c0.039,0.066,0.076,0.135,0.113,0.201
		c0.038,0.068,0.076,0.137,0.112,0.205c0.038,0.067,0.078,0.135,0.12,0.205c0.042,0.068,0.082,0.137,0.119,0.205
		c0.038,0.068,0.075,0.135,0.112,0.199s0.075,0.126,0.114,0.183c0.041,0.058,0.078,0.111,0.115,0.162
		c0.038,0.052,0.073,0.099,0.105,0.146c0.033,0.045,0.068,0.09,0.104,0.135c0.037,0.046,0.072,0.089,0.104,0.133
		c0.032,0.041,0.064,0.084,0.097,0.126c0.032,0.042,0.068,0.093,0.106,0.149c0.039,0.058,0.074,0.107,0.102,0.15
		c0.029,0.043,0.058,0.09,0.089,0.139c0.03,0.049,0.057,0.101,0.083,0.154c0.025,0.055,0.048,0.106,0.068,0.154
		c0.021,0.049,0.04,0.096,0.057,0.145c0.018,0.049,0.008,0.053-0.028,0.012c-0.036-0.042-0.074-0.08-0.114-0.113
		c-0.04-0.034-0.082-0.069-0.127-0.105c-0.044-0.037-0.088-0.074-0.133-0.109c-0.043-0.037-0.088-0.074-0.131-0.11
		c-0.045-0.036-0.087-0.071-0.127-0.106c-0.04-0.033-0.081-0.068-0.122-0.105s-0.083-0.07-0.126-0.102
		c-0.043-0.03-0.09-0.059-0.142-0.084c-0.052-0.024-0.11-0.047-0.174-0.069s-0.123-0.039-0.178-0.051
		c-0.055-0.011-0.113-0.022-0.176-0.036c-0.062-0.012-0.121-0.022-0.175-0.029c-0.053-0.008-0.105-0.016-0.157-0.021
		c-0.051-0.004-0.11-0.008-0.176-0.01s-0.126-0.002-0.179-0.002c-0.053,0.002-0.104,0.004-0.157,0.004
		c-0.052,0.002-0.107,0.002-0.164,0.002c-0.057,0-0.112,0-0.167,0.002c-0.056,0.002-0.112,0.006-0.17,0.013
		c-0.057,0.006-0.115,0.015-0.171,0.028l-0.479,0.104c-0.053,0.012-0.105,0.027-0.156,0.049c-0.052,0.02-0.099,0.043-0.143,0.068
		c-0.044,0.027-0.092,0.059-0.143,0.096c-0.051,0.038-0.104,0.074-0.16,0.109c-0.056,0.035-0.105,0.066-0.147,0.096
		s-0.086,0.063-0.13,0.102c-0.045,0.041-0.085,0.084-0.12,0.131c-0.035,0.049-0.07,0.1-0.105,0.152
		c-0.035,0.055-0.068,0.107-0.1,0.159c-0.031,0.054-0.06,0.105-0.085,0.156c-0.025,0.052-0.048,0.104-0.069,0.159
		c-0.021,0.054-0.041,0.107-0.059,0.16c-0.018,0.054-0.036,0.104-0.056,0.15c-0.019,0.049-0.036,0.102-0.05,0.16
		c-0.014,0.059-0.026,0.117-0.036,0.176c-0.01,0.059-0.018,0.113-0.023,0.163c-0.005,0.051-0.008,0.104-0.01,0.161
		c0,0.055,0,0.114,0.004,0.176c0.003,0.063,0.005,0.119,0.007,0.172c0.001,0.051,0.004,0.104,0.009,0.154
		c0.005,0.052,0.012,0.109,0.019,0.175c0.007,0.065,0.016,0.123,0.023,0.175c0.007,0.049,0.017,0.101,0.028,0.15l0.12,0.557
		c0.015,0.068,0.035,0.137,0.06,0.203c0.025,0.068,0.05,0.125,0.077,0.172c0.026,0.047,0.054,0.096,0.085,0.145
		c0.032,0.05,0.067,0.098,0.107,0.145c0.039,0.047,0.082,0.094,0.129,0.139c0.046,0.047,0.089,0.086,0.128,0.117
		c0.04,0.031,0.086,0.066,0.138,0.107c0.052,0.042,0.101,0.077,0.148,0.107c0.046,0.029,0.097,0.057,0.155,0.08
		c0.057,0.023,0.11,0.041,0.16,0.054c0.049,0.012,0.101,0.024,0.156,0.04c0.056,0.014,0.11,0.025,0.166,0.033
		s0.111,0.015,0.168,0.021c0.058,0.007,0.117,0.012,0.18,0.012c0.062-0.002,0.125-0.006,0.19-0.018
		c0.064-0.012,0.124-0.021,0.181-0.035l0.495-0.107c0.053-0.012,0.105-0.024,0.155-0.039c0.051-0.014,0.102-0.027,0.154-0.043
		c0.053-0.014,0.106-0.033,0.159-0.059c0.054-0.025,0.11-0.052,0.167-0.081c0.057-0.028,0.116-0.062,0.177-0.097
		c0.061-0.036,0.121-0.074,0.178-0.113c0.058-0.039,0.115-0.078,0.172-0.117c0.058-0.038,0.111-0.076,0.159-0.108
		c0.048-0.033,0.093-0.065,0.132-0.097c0.04-0.031,0.083-0.068,0.126-0.106c0.045-0.04,0.086-0.084,0.125-0.132
		c0.038-0.049,0.078-0.102,0.118-0.159c0.041-0.059,0.081-0.117,0.121-0.175c0.039-0.059,0.075-0.111,0.108-0.161
		c0.032-0.05,0.06-0.097,0.083-0.142s0.047-0.097,0.07-0.153c0.024-0.058,0.042-0.111,0.055-0.16
		c0.013-0.05,0.027-0.099,0.043-0.147c0.015-0.051,0.029-0.102,0.04-0.154c0.012-0.051,0.025-0.102,0.041-0.15
		c0.015-0.051,0.029-0.102,0.04-0.156c0.012-0.056,0.023-0.116,0.036-0.182c0.012-0.064,0.021-0.127,0.028-0.184
		s0.015-0.111,0.024-0.164c0.009-0.051,0.015-0.107,0.017-0.17c0.002-0.064,0.005-0.127,0.008-0.19
		c0.002-0.064,0.004-0.124,0.002-0.179s-0.007-0.119-0.017-0.193c-0.009-0.074-0.021-0.145-0.036-0.214
		c-0.015-0.069-0.032-0.146-0.049-0.228c-0.018-0.082-0.034-0.147-0.048-0.196c-0.015-0.05-0.034-0.101-0.058-0.15
		c-0.025-0.05-0.051-0.103-0.08-0.155c-0.028-0.054-0.061-0.113-0.097-0.176c-0.038-0.064-0.072-0.129-0.105-0.191l-0.05-0.092"/>
	
		<path id="STROKE_1CA57F93.-C428.-4E2A.-9EE6.-B278E23D53DF" fill="none" stroke="#000000" stroke-width="1.51" stroke-linecap="round" stroke-linejoin="round" d="
		M26.228,86.342c-0.1,0.027-0.171,0.057-0.213,0.09c-0.042,0.031-0.091,0.064-0.145,0.1c-0.055,0.035-0.118,0.074-0.193,0.117
		c-0.074,0.041-0.149,0.08-0.227,0.117c-0.079,0.038-0.143,0.068-0.193,0.092c-0.051,0.023-0.1,0.047-0.148,0.071
		c-0.047,0.022-0.097,0.048-0.148,0.072c-0.05,0.024-0.101,0.048-0.152,0.073c-0.051,0.023-0.1,0.05-0.147,0.076
		c-0.047,0.026-0.095,0.054-0.146,0.08c-0.05,0.029-0.1,0.055-0.15,0.082c-0.05,0.028-0.1,0.057-0.149,0.088
		c-0.049,0.029-0.098,0.062-0.147,0.096c-0.049,0.033-0.097,0.066-0.142,0.096c-0.046,0.03-0.094,0.061-0.144,0.096
		c-0.049,0.033-0.098,0.064-0.148,0.094c-0.049,0.031-0.098,0.063-0.147,0.098c-0.048,0.034-0.097,0.066-0.142,0.096
		c-0.046,0.029-0.093,0.059-0.14,0.088c-0.046,0.03-0.094,0.061-0.143,0.092c-0.049,0.029-0.099,0.059-0.148,0.086
		c-0.05,0.026-0.1,0.055-0.151,0.082c-0.051,0.027-0.103,0.054-0.156,0.078c-0.054,0.025-0.108,0.051-0.162,0.079
		c-0.053,0.03-0.106,0.058-0.16,0.085c-0.053,0.029-0.107,0.057-0.164,0.086c-0.056,0.027-0.111,0.057-0.165,0.084
		c-0.053,0.028-0.107,0.059-0.159,0.09c-0.052,0.031-0.103,0.062-0.153,0.089c-0.049,0.026-0.099,0.056-0.149,0.086
		c-0.049,0.031-0.1,0.062-0.148,0.093c-0.049,0.029-0.097,0.059-0.145,0.089c-0.045,0.03-0.093,0.058-0.138,0.085
		c-0.047,0.026-0.092,0.053-0.137,0.078c-0.044,0.026-0.09,0.053-0.136,0.079c-0.047,0.027-0.093,0.052-0.137,0.075
		c-0.045,0.023-0.105,0.056-0.183,0.099c-0.076,0.043-0.147,0.085-0.214,0.121c-0.067,0.037-0.132,0.073-0.194,0.106
		c-0.062,0.032-0.119,0.064-0.172,0.096s-0.104,0.064-0.152,0.102c-0.047,0.037-0.081,0.079-0.1,0.127l-0.029,0.071"/>
	
		<path id="STROKE_3819E904.-A0B5.-40F3.-ADEF.-BCA933C38EBD" fill="none" stroke="#000000" stroke-width="1.51" stroke-linecap="round" stroke-linejoin="round" d="
		M14.695,75.306c-0.105-0.104-0.181-0.184-0.229-0.238c-0.048-0.053-0.106-0.115-0.174-0.186c-0.068-0.071-0.125-0.13-0.172-0.178
		c-0.046-0.048-0.094-0.097-0.145-0.146c-0.049-0.051-0.102-0.102-0.155-0.154c-0.053-0.051-0.113-0.11-0.18-0.176
		c-0.066-0.065-0.132-0.133-0.197-0.202c-0.064-0.069-0.132-0.14-0.203-0.213c-0.072-0.074-0.144-0.151-0.218-0.236
		c-0.073-0.083-0.148-0.164-0.224-0.242c-0.075-0.077-0.154-0.158-0.235-0.243c-0.082-0.084-0.165-0.166-0.248-0.244
		c-0.084-0.079-0.169-0.158-0.256-0.239c-0.087-0.081-0.175-0.158-0.263-0.233s-0.178-0.151-0.27-0.228s-0.182-0.153-0.27-0.228
		c-0.089-0.075-0.176-0.149-0.261-0.222c-0.084-0.073-0.17-0.15-0.257-0.23c-0.087-0.081-0.172-0.159-0.256-0.235
		c-0.083-0.076-0.164-0.153-0.245-0.229c-0.08-0.077-0.159-0.151-0.236-0.223c-0.076-0.071-0.153-0.143-0.23-0.215
		c-0.076-0.072-0.151-0.142-0.224-0.208c-0.072-0.068-0.144-0.135-0.214-0.203c-0.07-0.067-0.141-0.135-0.214-0.202
		c-0.073-0.067-0.142-0.129-0.208-0.187c-0.064-0.058-0.136-0.123-0.217-0.193c-0.079-0.073-0.155-0.136-0.228-0.191
		c-0.073-0.056-0.146-0.112-0.216-0.169c-0.07-0.057-0.134-0.109-0.192-0.158c-0.057-0.049-0.116-0.095-0.176-0.14
		c-0.06-0.045-0.115-0.086-0.164-0.122c-0.05-0.036-0.098-0.073-0.145-0.11c-0.047-0.037-0.092-0.072-0.135-0.104
		c-0.043-0.032-0.096-0.07-0.158-0.114c-0.062-0.045-0.116-0.084-0.163-0.118c-0.045-0.034-0.091-0.067-0.133-0.1l-0.065-0.048"/>
	
		<path id="STROKE_DC2C07AA.-71EA.-464F.-BA19.-F7D86B7E5FC4" fill="none" stroke="#000000" stroke-width="1.51" stroke-linecap="round" stroke-linejoin="round" d="
		M14.577,76.327c-0.104-0.022-0.187-0.031-0.247-0.029c-0.061,0.003-0.116,0.008-0.168,0.016c-0.051,0.008-0.103,0.017-0.156,0.029
		c-0.053,0.011-0.108,0.028-0.164,0.048c-0.057,0.021-0.112,0.056-0.165,0.103c-0.053,0.048-0.104,0.102-0.152,0.162
		s-0.09,0.116-0.125,0.168c-0.036,0.051-0.071,0.106-0.104,0.167c-0.035,0.06-0.067,0.126-0.099,0.197
		c-0.033,0.071-0.063,0.145-0.093,0.223c-0.03,0.079-0.057,0.158-0.081,0.238c-0.025,0.081-0.045,0.167-0.061,0.258
		c-0.016,0.092-0.029,0.182-0.038,0.27c-0.008,0.087-0.013,0.17-0.016,0.249c-0.002,0.078,0,0.151,0.002,0.22
		c0.004,0.068,0.011,0.137,0.02,0.207c0.009,0.07,0.022,0.139,0.037,0.208c0.015,0.069,0.029,0.135,0.043,0.198
		c0.013,0.063,0.032,0.124,0.057,0.183c0.024,0.058,0.05,0.113,0.078,0.165c0.028,0.052,0.056,0.103,0.083,0.152
		c0.027,0.05,0.06,0.104,0.098,0.166c0.038,0.061,0.077,0.119,0.116,0.174c0.04,0.055,0.08,0.107,0.122,0.156
		c0.041,0.049,0.084,0.096,0.13,0.142c0.046,0.045,0.094,0.087,0.145,0.125c0.05,0.04,0.1,0.073,0.151,0.102
		c0.05,0.027,0.1,0.054,0.15,0.078c0.05,0.025,0.104,0.049,0.162,0.07c0.057,0.021,0.114,0.037,0.172,0.05
		c0.058,0.011,0.112,0.02,0.163,0.022c0.05,0.003,0.1,0.004,0.151,0.004c0.05,0,0.102-0.002,0.157-0.006
		c0.054-0.004,0.107-0.005,0.16-0.005c0.053,0,0.109-0.003,0.169-0.009c0.06-0.004,0.121-0.014,0.185-0.027l1.068-0.232
		c0.06-0.014,0.111-0.037,0.151-0.069c0.041-0.033,0.081-0.072,0.12-0.117c0.04-0.045,0.081-0.096,0.125-0.152
		c0.043-0.056,0.087-0.113,0.133-0.17c0.044-0.057,0.093-0.109,0.141-0.156c0.048-0.047,0.093-0.085,0.133-0.116
		c0.041-0.031,0.085-0.063,0.133-0.1c0.047-0.035,0.091-0.071,0.13-0.106c0.04-0.037,0.077-0.081,0.113-0.132
		c0.037-0.052,0.065-0.104,0.087-0.152c0.023-0.049,0.044-0.101,0.062-0.155c0.019-0.054,0.04-0.104,0.063-0.154
		c0.022-0.049,0.046-0.099,0.071-0.149c0.026-0.05,0.038-0.106,0.04-0.167c0-0.06-0.003-0.118-0.009-0.172
		c-0.006-0.054-0.013-0.11-0.02-0.169c-0.007-0.059-0.017-0.119-0.031-0.18c-0.013-0.062-0.025-0.121-0.039-0.179
		c-0.012-0.059-0.026-0.117-0.041-0.174c-0.016-0.057-0.045-0.115-0.088-0.172c-0.042-0.057-0.082-0.106-0.119-0.148
		c-0.037-0.041-0.079-0.089-0.127-0.142c-0.048-0.054-0.1-0.114-0.156-0.182c-0.057-0.068-0.117-0.141-0.181-0.219
		c-0.064-0.078-0.113-0.137-0.146-0.179c-0.034-0.043-0.07-0.085-0.107-0.13c-0.038-0.044-0.078-0.091-0.122-0.14
		c-0.044-0.048-0.088-0.097-0.132-0.146c-0.044-0.049-0.089-0.097-0.136-0.145s-0.096-0.095-0.148-0.142
		c-0.052-0.047-0.102-0.095-0.151-0.145c-0.05-0.05-0.101-0.1-0.153-0.149c-0.053-0.049-0.108-0.097-0.164-0.143
		c-0.057-0.046-0.115-0.09-0.175-0.133c-0.059-0.042-0.118-0.082-0.176-0.119c-0.058-0.038-0.117-0.077-0.179-0.119
		c-0.062-0.042-0.122-0.078-0.18-0.106c-0.06-0.029-0.114-0.053-0.167-0.072c-0.052-0.019-0.104-0.033-0.159-0.04
		c-0.054-0.008-0.106-0.018-0.156-0.029l-0.075-0.016"/>
	
		<path id="STROKE_C4A9EB6D.-D2EB.-4AF8.-8D1A.-8C16A4D58F76" fill="none" stroke="#000000" stroke-width="1.51" stroke-linecap="round" stroke-linejoin="round" d="
		M32.751,112.605c-0.005-0.121-0.012-0.205-0.023-0.256c-0.011-0.051-0.022-0.104-0.036-0.162c-0.011-0.059-0.032-0.117-0.058-0.179
		c-0.027-0.06-0.06-0.115-0.098-0.165c-0.039-0.05-0.079-0.096-0.121-0.137c-0.043-0.04-0.086-0.074-0.131-0.104
		c-0.045-0.028-0.089-0.06-0.132-0.092c-0.043-0.031-0.087-0.064-0.13-0.1c-0.044-0.035-0.088-0.072-0.133-0.113
		c-0.043-0.04-0.091-0.078-0.14-0.113c-0.05-0.037-0.099-0.068-0.146-0.094c-0.048-0.025-0.096-0.045-0.145-0.056
		c-0.049-0.011-0.101-0.02-0.154-0.024c-0.054-0.006-0.107-0.011-0.158-0.016c-0.052-0.005-0.104-0.014-0.159-0.023
		c-0.055-0.01-0.113-0.021-0.173-0.032c-0.061-0.012-0.119-0.021-0.173-0.03c-0.054-0.008-0.108-0.01-0.163-0.005
		c-0.054,0.003-0.107,0.01-0.159,0.018c-0.051,0.009-0.105,0.015-0.164,0.019c-0.057,0.004-0.116,0.008-0.176,0.014
		c-0.06,0.004-0.121,0.014-0.184,0.027s-0.122,0.026-0.178,0.039c-0.055,0.012-0.108,0.029-0.159,0.055
		c-0.051,0.025-0.097,0.053-0.14,0.085c-0.043,0.03-0.083,0.065-0.123,0.102c-0.039,0.036-0.084,0.07-0.135,0.104
		c-0.051,0.033-0.103,0.066-0.156,0.1c-0.054,0.034-0.106,0.074-0.157,0.121c-0.051,0.048-0.096,0.091-0.135,0.129
		c-0.04,0.039-0.075,0.078-0.107,0.119c-0.033,0.04-0.067,0.08-0.102,0.122c-0.036,0.041-0.071,0.089-0.106,0.143
		c-0.036,0.055-0.069,0.104-0.101,0.15s-0.064,0.089-0.097,0.13c-0.033,0.041-0.066,0.086-0.1,0.134
		c-0.033,0.05-0.063,0.095-0.09,0.14c-0.026,0.045-0.052,0.092-0.078,0.142c-0.025,0.05-0.048,0.104-0.069,0.16
		c-0.021,0.057-0.038,0.112-0.051,0.167c-0.012,0.057-0.027,0.113-0.042,0.169s-0.03,0.11-0.043,0.163s-0.027,0.104-0.041,0.154
		c-0.014,0.049-0.026,0.102-0.036,0.156c-0.01,0.055-0.017,0.108-0.02,0.158c-0.003,0.051-0.001,0.107,0.007,0.17
		c0.007,0.062,0.018,0.121,0.03,0.18l0.073,0.332c0.011,0.053,0.027,0.108,0.048,0.164c0.021,0.058,0.049,0.109,0.084,0.158
		c0.036,0.046,0.072,0.096,0.111,0.145c0.038,0.05,0.077,0.094,0.116,0.133c0.039,0.038,0.08,0.076,0.125,0.113
		c0.044,0.037,0.09,0.076,0.137,0.111c0.047,0.037,0.092,0.078,0.134,0.12c0.043,0.044,0.083,0.087,0.12,0.132
		c0.038,0.045,0.078,0.085,0.122,0.123c0.043,0.037,0.094,0.071,0.15,0.1c0.057,0.029,0.111,0.053,0.161,0.068
		c0.05,0.018,0.103,0.033,0.159,0.049s0.115,0.029,0.176,0.041c0.062,0.012,0.12,0.029,0.174,0.049
		c0.054,0.021,0.103,0.05,0.147,0.084c0.043,0.035,0.092,0.068,0.146,0.099c0.053,0.03,0.107,0.048,0.161,0.056
		c0.054,0.008,0.112,0.014,0.174,0.021c0.063,0.005,0.121,0.013,0.176,0.021c0.055,0.006,0.106,0.02,0.155,0.04
		c0.048,0.021,0.099,0.043,0.152,0.07c0.054,0.026,0.107,0.041,0.159,0.041c0.052-0.001,0.108-0.007,0.166-0.021l0.313-0.068
		c0.05-0.01,0.098-0.027,0.143-0.051c0.045-0.023,0.083-0.059,0.114-0.107c0.03-0.049,0.06-0.098,0.088-0.148
		c0.028-0.049,0.057-0.103,0.085-0.16c0.029-0.055,0.057-0.106,0.083-0.15c0.027-0.045,0.054-0.092,0.082-0.142
		c0.028-0.052,0.058-0.104,0.091-0.157c0.032-0.055,0.062-0.108,0.089-0.161c0.028-0.054,0.055-0.107,0.079-0.162
		c0.024-0.056,0.046-0.108,0.069-0.16c0.022-0.052,0.042-0.106,0.06-0.167c0.018-0.059,0.035-0.119,0.052-0.181
		s0.035-0.126,0.054-0.19c0.019-0.066,0.04-0.13,0.063-0.192c0.022-0.062,0.043-0.122,0.064-0.181
		c0.02-0.057,0.039-0.108,0.057-0.157c0.018-0.048,0.035-0.095,0.053-0.144c0.017-0.048,0.037-0.102,0.059-0.162
		s0.045-0.123,0.067-0.189c0.021-0.065,0.042-0.131,0.061-0.196c0.02-0.064,0.037-0.122,0.054-0.173
		c0.016-0.051,0.04-0.105,0.069-0.161c0.03-0.056,0.055-0.108,0.074-0.157c0.02-0.049,0.04-0.104,0.061-0.163
		s0.04-0.125,0.062-0.194c0.02-0.071,0.037-0.131,0.052-0.183c0.014-0.05,0.031-0.107,0.049-0.172
		c0.019-0.065,0.039-0.125,0.06-0.179c0.021-0.055,0.042-0.109,0.061-0.164c0.018-0.055,0.04-0.112,0.065-0.176
		c0.026-0.063,0.051-0.128,0.075-0.193c0.025-0.066,0.046-0.123,0.063-0.172c0.017-0.049,0.038-0.107,0.062-0.18
		s0.047-0.139,0.072-0.203c0.024-0.063,0.05-0.128,0.078-0.195c0.027-0.066,0.049-0.124,0.067-0.172
		c0.017-0.048,0.034-0.096,0.051-0.143c0.018-0.049,0.035-0.099,0.051-0.15c0.017-0.051,0.032-0.1,0.045-0.15
		c0.014-0.051,0.033-0.109,0.056-0.182c0.024-0.072,0.046-0.143,0.067-0.211c0.022-0.068,0.044-0.135,0.068-0.201
		c0.024-0.064,0.047-0.131,0.069-0.197c0.021-0.066,0.045-0.132,0.074-0.199c0.027-0.066,0.051-0.123,0.071-0.168
		c0.021-0.047,0.046-0.104,0.074-0.174c0.029-0.07,0.056-0.131,0.077-0.18c0.023-0.049,0.044-0.1,0.064-0.15
		c0.019-0.051,0.04-0.101,0.063-0.15c0.023-0.049,0.043-0.1,0.063-0.151c0.02-0.051,0.041-0.112,0.065-0.185
		c0.023-0.07,0.044-0.137,0.065-0.199c0.019-0.063,0.039-0.125,0.059-0.188c0.021-0.063,0.039-0.125,0.059-0.188
		s0.042-0.127,0.066-0.193s0.045-0.125,0.064-0.176c0.021-0.053,0.039-0.102,0.06-0.15c0.02-0.049,0.041-0.1,0.063-0.154
		c0.021-0.053,0.041-0.107,0.06-0.162c0.02-0.055,0.038-0.108,0.056-0.162c0.019-0.055,0.038-0.106,0.058-0.157
		s0.041-0.11,0.065-0.177c0.025-0.066,0.049-0.131,0.072-0.19c0.023-0.06,0.045-0.118,0.066-0.171
		c0.021-0.055,0.044-0.111,0.07-0.173c0.026-0.062,0.048-0.116,0.068-0.165s0.043-0.102,0.07-0.16
		c0.026-0.058,0.05-0.117,0.07-0.176c0.02-0.061,0.042-0.123,0.066-0.189s0.046-0.129,0.067-0.189
		c0.02-0.061,0.039-0.117,0.058-0.172c0.019-0.053,0.041-0.111,0.066-0.175s0.049-0.121,0.071-0.173
		c0.022-0.052,0.046-0.103,0.071-0.152c0.026-0.049,0.051-0.1,0.075-0.148c0.025-0.051,0.051-0.101,0.079-0.151
		c0.028-0.05,0.058-0.103,0.088-0.155c0.03-0.053,0.062-0.111,0.095-0.174c0.033-0.063,0.065-0.125,0.096-0.188
		c0.032-0.062,0.062-0.121,0.091-0.178c0.028-0.056,0.057-0.11,0.084-0.163c0.028-0.054,0.056-0.103,0.085-0.151
		c0.028-0.047,0.057-0.094,0.085-0.139s0.06-0.087,0.093-0.125c0.034-0.037,0.057-0.031,0.071,0.018
		c0.014,0.049,0.023,0.102,0.03,0.155s0.01,0.108,0.014,0.163c0.003,0.055,0.007,0.115,0.01,0.18
		c0.004,0.066,0.007,0.127,0.011,0.182c0.003,0.054,0.008,0.109,0.014,0.163c0.006,0.054,0.013,0.105,0.021,0.157
		c0.009,0.051,0.018,0.107,0.029,0.172s0.022,0.121,0.033,0.172l0.072,0.328c0.013,0.06,0.029,0.113,0.049,0.164
		c0.019,0.051,0.047,0.105,0.084,0.16c0.037,0.056,0.071,0.104,0.103,0.145c0.031,0.039,0.065,0.084,0.1,0.132
		c0.035,0.048,0.071,0.095,0.108,0.138c0.037,0.045,0.084,0.086,0.139,0.123c0.055,0.038,0.113,0.059,0.175,0.061
		c0.062,0.004,0.122-0.001,0.18-0.014c0.058-0.013,0.121-0.035,0.19-0.065c0.067-0.03,0.125-0.065,0.174-0.101
		c0.047-0.035,0.1-0.072,0.158-0.113c0.058-0.041,0.117-0.082,0.176-0.125s0.126-0.092,0.2-0.147
		c0.074-0.056,0.151-0.112,0.233-0.171c0.081-0.059,0.145-0.105,0.191-0.137c0.046-0.032,0.092-0.063,0.138-0.092
		c0.046-0.03,0.092-0.061,0.137-0.092c0.046-0.033,0.092-0.062,0.139-0.09c0.046-0.027,0.094-0.055,0.144-0.08
		c0.05-0.027,0.099-0.053,0.147-0.074c0.048-0.021,0.097-0.041,0.145-0.061c0.048-0.02,0.118-0.042,0.209-0.07
		c0.091-0.028,0.182-0.053,0.272-0.072c0.09-0.02,0.18-0.033,0.269-0.041c0.09-0.008,0.18-0.004,0.271,0.016
		c0.09,0.02,0.177,0.046,0.262,0.081c0.085,0.034,0.165,0.075,0.239,0.122c0.074,0.047,0.139,0.102,0.197,0.164
		c0.056,0.063,0.108,0.134,0.155,0.215c0.046,0.082,0.081,0.171,0.104,0.268c0.024,0.099,0.041,0.172,0.052,0.223
		s0.023,0.125,0.037,0.225c0.013,0.1,0.016,0.174,0.007,0.227c-0.008,0.051-0.021,0.125-0.039,0.22
		c-0.018,0.095-0.034,0.166-0.049,0.214c-0.015,0.049-0.037,0.117-0.064,0.206c-0.027,0.088-0.06,0.175-0.097,0.257l-0.056,0.124"/>
	
		<path id="STROKE_170453CF.-CF1C.-4377.-B407.-81476401F1AD" fill="none" stroke="#000000" stroke-width="1.51" stroke-linecap="round" stroke-linejoin="round" d="
		M6.901,68.209c0.041-0.115,0.063-0.197,0.066-0.248c0.002-0.05,0.023-0.094,0.063-0.13c0.041-0.036,0.083-0.066,0.13-0.09
		c0.048-0.024,0.09-0.057,0.128-0.098c0.038-0.042,0.076-0.086,0.114-0.133c0.037-0.047,0.079-0.092,0.125-0.134
		c0.046-0.043,0.093-0.08,0.142-0.11c0.048-0.031,0.102-0.061,0.159-0.089c0.058-0.029,0.116-0.063,0.174-0.1
		c0.059-0.039,0.108-0.074,0.146-0.107c0.041-0.034,0.089-0.073,0.149-0.116c0.061-0.042,0.119-0.081,0.176-0.112
		c0.058-0.032,0.113-0.055,0.168-0.069c0.055-0.015,0.115-0.03,0.181-0.044c0.066-0.014,0.13-0.025,0.192-0.034
		c0.062-0.007,0.125-0.011,0.193-0.009c0.068,0.002,0.135,0.005,0.203,0.01c0.067,0.005,0.134,0.006,0.2,0.002
		c0.066-0.004,0.134-0.01,0.203-0.019c0.07-0.01,0.13-0.02,0.18-0.03l1.314-0.286c0.063-0.014,0.127-0.035,0.19-0.063
		c0.064-0.027,0.121-0.06,0.171-0.095c0.05-0.037,0.099-0.079,0.147-0.128c0.047-0.048,0.092-0.103,0.135-0.162
		c0.042-0.058,0.076-0.122,0.1-0.191c0.024-0.069,0.044-0.134,0.061-0.196c0.017-0.062,0.032-0.122,0.044-0.18
		c0.012-0.058,0.021-0.115,0.024-0.171c0.004-0.056,0.009-0.11,0.016-0.161c0.005-0.052,0.01-0.112,0.014-0.182
		c0.004-0.07,0.008-0.139,0.013-0.207c0.004-0.067,0.011-0.132,0.02-0.194c0.009-0.063,0.02-0.123,0.028-0.18
		c0.01-0.058,0.016-0.118,0.019-0.179c0.003-0.062,0.005-0.128,0.006-0.201c0.002-0.072,0-0.145-0.006-0.219
		c-0.005-0.074-0.014-0.146-0.026-0.215s-0.024-0.13-0.036-0.183l-0.017-0.079"/>
</g>
</svg>
