<?xml version="1.0" encoding="utf-8"?>
<!-- Generator: Adobe Illustrator 16.0.0, SVG Export Plug-In . SVG Version: 6.00 Build 0)  -->
<!DOCTYPE svg PUBLIC "-//W3C//DTD SVG 1.1//EN" "http://www.w3.org/Graphics/SVG/1.1/DTD/svg11.dtd">
<svg version="1.1" id="Layer_1" xmlns="http://www.w3.org/2000/svg" xmlns:xlink="http://www.w3.org/1999/xlink" x="0px" y="0px"
	 width="160px" height="160px" viewBox="0 0 160 160" enable-background="new 0 0 160 160" xml:space="preserve">
<g id="a10">
	
		<path id="STROKE_C1C15DA6.-67AD.-4860.-9C96.-AB87B44F3690" fill="none" stroke="#000000" stroke-width="1.54" stroke-linecap="round" stroke-linejoin="round" d="
		M41.004,75.327c-0.017-0.116-0.033-0.196-0.048-0.241c-0.015-0.044-0.019-0.04-0.011,0.011c0.007,0.052,0.015,0.107,0.024,0.166
		c0.009,0.058,0.009,0.11,0,0.156c-0.008,0.047-0.017,0.094-0.027,0.142c-0.01,0.048-0.019,0.105-0.026,0.172
		c-0.007,0.066-0.017,0.143-0.03,0.229c-0.013,0.086-0.02,0.153-0.021,0.199s-0.006,0.097-0.013,0.149
		c-0.007,0.052-0.011,0.108-0.01,0.167c0,0.059,0,0.115-0.001,0.167c-0.001,0.054-0.005,0.11-0.014,0.169
		c-0.008,0.06-0.016,0.123-0.023,0.188c-0.007,0.066-0.015,0.13-0.023,0.19c-0.008,0.061-0.016,0.124-0.023,0.191
		c-0.007,0.066-0.014,0.129-0.02,0.19c-0.006,0.059-0.013,0.123-0.021,0.189c-0.007,0.067-0.015,0.13-0.023,0.191
		c-0.008,0.061-0.016,0.121-0.024,0.181c-0.008,0.06-0.013,0.116-0.013,0.168c-0.001,0.052-0.006,0.107-0.014,0.168
		c-0.008,0.06-0.012,0.117-0.01,0.168c0,0.053,0.001,0.105,0,0.157c0,0.052-0.002,0.107,0,0.166c0,0.059-0.004,0.119-0.013,0.18
		c-0.007,0.06-0.011,0.119-0.011,0.179c0,0.059,0.004,0.117,0.013,0.175c0.009,0.058,0.009,0.117,0.001,0.177
		c-0.008,0.061-0.012,0.124-0.011,0.189c0.002,0.065,0.006,0.126,0.015,0.183c0.008,0.056,0.013,0.117,0.014,0.183
		c0,0.065,0.002,0.13,0.003,0.195c0.001,0.066-0.001,0.131-0.006,0.198c-0.004,0.066-0.007,0.131-0.006,0.197
		c0.001,0.064,0.003,0.13,0.004,0.194c0.001,0.066-0.002,0.132-0.009,0.198c-0.008,0.066-0.015,0.13-0.023,0.189
		c-0.008,0.062-0.013,0.121-0.012,0.18c0,0.06-0.003,0.123-0.011,0.189c-0.007,0.066-0.009,0.131-0.006,0.196
		c0.003,0.065,0,0.131-0.006,0.198c-0.007,0.066-0.015,0.136-0.021,0.207c-0.006,0.074-0.016,0.15-0.03,0.232
		c-0.013,0.082-0.023,0.158-0.03,0.23c-0.006,0.072-0.011,0.145-0.016,0.218c-0.004,0.072-0.011,0.161-0.021,0.267
		c-0.01,0.106-0.017,0.199-0.021,0.279c-0.006,0.08-0.011,0.16-0.016,0.239c-0.006,0.078-0.011,0.158-0.016,0.237
		c-0.005,0.08-0.01,0.16-0.013,0.238s-0.008,0.154-0.014,0.227c-0.007,0.072-0.009,0.142-0.008,0.207
		c0.001,0.066,0.002,0.135,0.004,0.207c0.002,0.072,0,0.143-0.007,0.209s-0.01,0.132-0.009,0.197s-0.002,0.131-0.009,0.197
		s-0.008,0.133-0.006,0.197c0.003,0.064,0.001,0.131-0.006,0.197c-0.007,0.066-0.01,0.133-0.009,0.197
		c0.001,0.066-0.006,0.133-0.021,0.201c-0.016,0.067-0.023,0.133-0.021,0.198c0,0.065-0.002,0.132-0.009,0.198
		c-0.008,0.066-0.017,0.137-0.03,0.209c-0.012,0.074-0.022,0.148-0.028,0.221c-0.007,0.072-0.012,0.149-0.018,0.229
		c-0.005,0.079-0.015,0.163-0.027,0.249c-0.012,0.086-0.025,0.17-0.036,0.251c-0.012,0.081-0.02,0.163-0.024,0.249
		c-0.005,0.084-0.009,0.166-0.014,0.246c-0.006,0.08-0.01,0.168-0.013,0.26s-0.008,0.181-0.012,0.266
		c-0.005,0.085-0.008,0.174-0.009,0.266c0,0.093,0,0.174,0.001,0.246c0.002,0.07,0.002,0.159,0.001,0.266
		c-0.001,0.105-0.001,0.191,0,0.257s0,0.147-0.002,0.245c-0.003,0.1,0.001,0.18,0.01,0.244c0.01,0.063,0.012,0.136,0.006,0.214
		c-0.005,0.079-0.007,0.155-0.005,0.226c0.002,0.071,0.001,0.141-0.004,0.206c-0.005,0.067-0.008,0.13-0.007,0.188
		c0,0.059,0,0.121,0.001,0.187c0.002,0.065-0.002,0.128-0.01,0.188s-0.016,0.121-0.023,0.181c-0.009,0.062-0.017,0.121-0.025,0.181
		c-0.008,0.061-0.012,0.125-0.01,0.189c0.001,0.064,0.001,0.13,0.003,0.195c0.001,0.065-0.001,0.131-0.006,0.197
		c-0.005,0.066-0.007,0.135-0.005,0.207c0.003,0.071,0.004,0.139,0.005,0.204c0.001,0.065,0.003,0.134,0.004,0.205
		c0.002,0.072,0.004,0.14,0.005,0.206C39.999,93.488,40,93.551,40,93.609s0.004,0.118,0.013,0.176
		c0.008,0.058,0.013,0.117,0.013,0.176s0,0.115-0.001,0.166c-0.001,0.052,0.003,0.104,0.01,0.155
		c0.008,0.052,0.011,0.104,0.011,0.155c-0.001,0.051,0.004,0.117,0.016,0.193c0.011,0.078,0.018,0.152,0.02,0.225
		c0.002,0.07,0.007,0.135,0.016,0.193c0.008,0.058,0.016,0.111,0.024,0.163c0.007,0.05,0.039,0.091,0.095,0.123
		c0.055,0.032,0.113,0.047,0.169,0.045c0.058-0.002,0.115-0.008,0.173-0.017c0.06-0.008,0.113-0.039,0.162-0.094
		c0.051-0.054,0.088-0.109,0.114-0.164c0.026-0.056,0.055-0.111,0.087-0.17c0.032-0.057,0.065-0.113,0.099-0.17
		c0.034-0.058,0.072-0.114,0.112-0.174c0.04-0.059,0.081-0.121,0.123-0.186c0.041-0.066,0.083-0.131,0.121-0.196
		c0.041-0.065,0.083-0.134,0.13-0.206s0.091-0.137,0.134-0.195c0.043-0.059,0.081-0.109,0.115-0.152
		c0.034-0.045,0.073-0.09,0.117-0.137c0.045-0.047,0.083-0.09,0.119-0.128s0.072-0.075,0.108-0.114
		c0.037-0.037,0.072-0.078,0.107-0.123c0.034-0.043,0.058-0.045,0.073-0.001c0.015,0.042,0.018,0.092,0.009,0.146
		c-0.009,0.055-0.021,0.111-0.035,0.174c-0.015,0.061-0.021,0.124-0.02,0.189c0.001,0.065,0.006,0.127,0.014,0.185
		c0.009,0.059,0.014,0.122,0.016,0.194c0.002,0.07,0.001,0.146-0.005,0.225c-0.005,0.079-0.009,0.143-0.01,0.189
		c-0.002,0.047-0.004,0.093-0.005,0.138c-0.002,0.046-0.004,0.093-0.005,0.14s-0.007,0.112-0.018,0.199
		c-0.011,0.086-0.023,0.168-0.036,0.25c-0.014,0.082-0.027,0.165-0.041,0.252c-0.013,0.085-0.021,0.172-0.025,0.258
		s-0.008,0.165-0.013,0.238c-0.004,0.072-0.004,0.151,0,0.234c0.004,0.086,0.008,0.168,0.011,0.244
		c0.003,0.078,0.003,0.141,0.002,0.188c-0.002,0.047,0.004,0.115,0.017,0.203c0.013,0.09,0.019,0.16,0.019,0.213
		c-0.001,0.053,0.006,0.127,0.02,0.224c0.014,0.096,0.021,0.171,0.02,0.224c0,0.052,0.002,0.128,0.008,0.225
		c0.006,0.098,0.014,0.172,0.021,0.223c0.008,0.05,0.015,0.101,0.023,0.152c0.008,0.053,0.01,0.1,0.009,0.146
		c-0.002,0.046,0.001,0.094,0.008,0.146l0.19,1.279c0.009,0.059,0.012,0.111,0.012,0.164c-0.001,0.053,0.002,0.107,0.011,0.165
		l0.051,0.347c0.009,0.059,0.013,0.113,0.012,0.164c-0.001,0.053,0.003,0.107,0.012,0.165l0.048,0.327
		c0.008,0.057,0.014,0.114,0.016,0.173c0.001,0.06,0.007,0.117,0.016,0.175l0.125,0.846c0.008,0.059,0.013,0.117,0.013,0.176
		c0,0.061,0.008,0.143,0.024,0.252l0.059,0.393c0.007,0.051,0.01,0.102,0.01,0.154c-0.001,0.055,0.005,0.126,0.02,0.215
		c0.013,0.09,0.019,0.158,0.017,0.204c-0.002,0.045,0.001,0.091,0.007,0.136c0.007,0.047,0.017,0.11,0.029,0.193
		c0.012,0.082,0.021,0.169,0.025,0.26c0.005,0.092,0.011,0.16,0.018,0.205l0.65,4.391c0.01,0.064,0.024,0.131,0.043,0.199
		c0.019,0.069,0.037,0.139,0.056,0.207c0.019,0.069,0.034,0.143,0.045,0.221c0.012,0.076,0.027,0.154,0.047,0.229
		c0.02,0.075,0.033,0.139,0.041,0.19c0.008,0.052,0.019,0.099,0.034,0.142c0.015,0.044,0.025,0.088,0.032,0.135
		c0.007,0.045,0.021,0.111,0.04,0.2c0.021,0.089,0.04,0.174,0.06,0.255c0.021,0.082,0.034,0.145,0.041,0.191
		c0.007,0.045,0.021,0.115,0.044,0.21s0.044,0.183,0.065,0.264c0.02,0.082,0.034,0.146,0.041,0.19
		c0.007,0.046,0.017,0.091,0.032,0.134s0.026,0.087,0.033,0.133c0.006,0.045,0.017,0.091,0.032,0.133
		c0.015,0.044,0.032,0.099,0.051,0.168c0.018,0.069,0.031,0.126,0.038,0.173c0.007,0.044,0.024,0.102,0.051,0.168
		c0.027,0.068,0.049,0.135,0.067,0.197s0.039,0.125,0.063,0.187s0.049,0.124,0.075,0.187c0.027,0.061,0.053,0.121,0.079,0.184
		c0.026,0.063,0.052,0.119,0.077,0.176c0.025,0.055,0.051,0.113,0.077,0.175s0.052,0.12,0.077,0.175
		c0.026,0.057,0.05,0.111,0.073,0.165c0.023,0.056,0.047,0.113,0.074,0.175c0.025,0.061,0.052,0.123,0.078,0.184
		c0.026,0.063,0.053,0.124,0.079,0.186c0.026,0.061,0.049,0.13,0.069,0.207c0.02,0.076,0.042,0.145,0.066,0.207
		c0.023,0.063,0.049,0.127,0.077,0.193c0.027,0.068,0.054,0.137,0.081,0.203c0.027,0.068,0.058,0.136,0.093,0.203
		c0.036,0.066,0.075,0.133,0.116,0.199c0.042,0.066,0.081,0.133,0.116,0.199c0.036,0.066,0.075,0.13,0.118,0.189
		c0.043,0.059,0.089,0.121,0.14,0.185c0.05,0.063,0.096,0.126,0.139,0.185c0.043,0.06,0.085,0.121,0.129,0.188
		c0.045,0.064,0.087,0.131,0.129,0.198c0.041,0.065,0.08,0.133,0.115,0.2c0.036,0.065,0.075,0.129,0.118,0.188
		s0.08,0.116,0.111,0.17c0.032,0.055,0.065,0.111,0.1,0.172c0.034,0.061,0.072,0.117,0.114,0.17s0.088,0.109,0.137,0.167
		c0.049,0.059,0.099,0.116,0.151,0.175c0.051,0.057,0.105,0.115,0.163,0.172c0.057,0.057,0.112,0.115,0.163,0.172
		c0.051,0.059,0.095,0.104,0.132,0.137c0.037,0.034,0.085,0.079,0.145,0.136c0.06,0.056,0.11,0.114,0.15,0.175
		c0.041,0.059,0.092,0.119,0.153,0.183c0.06,0.063,0.112,0.127,0.156,0.192c0.044,0.064,0.091,0.131,0.141,0.195
		c0.05,0.066,0.106,0.133,0.167,0.202c0.062,0.069,0.118,0.136,0.168,0.2c0.05,0.064,0.101,0.128,0.153,0.191
		c0.052,0.064,0.093,0.117,0.123,0.16c0.029,0.043,0.075,0.1,0.138,0.176c0.062,0.076,0.104,0.135,0.128,0.178
		s0.066,0.102,0.125,0.178c0.061,0.075,0.12,0.148,0.179,0.219c0.06,0.07,0.106,0.125,0.137,0.166
		c0.032,0.041,0.082,0.093,0.151,0.156c0.069,0.063,0.136,0.117,0.201,0.166c0.064,0.049,0.124,0.092,0.179,0.131
		c0.055,0.037,0.115,0.074,0.18,0.11s0.128,0.065,0.189,0.089c0.061,0.023,0.118,0.051,0.172,0.082
		c0.054,0.031,0.104,0.063,0.152,0.096c0.047,0.035,0.102,0.065,0.164,0.096c0.062,0.029,0.122,0.063,0.178,0.1
		c0.057,0.037,0.117,0.074,0.18,0.111c0.063,0.038,0.127,0.07,0.191,0.1s0.127,0.061,0.189,0.09s0.132,0.055,0.21,0.076
		c0.078,0.021,0.155,0.039,0.232,0.055c0.077,0.015,0.152,0.023,0.227,0.024c0.075,0.002,0.151,0.004,0.228,0.006
		c0.078,0.002,0.159,0.011,0.244,0.022c0.085,0.013,0.167,0.027,0.244,0.041c0.077,0.016,0.149,0.031,0.218,0.047
		c0.068,0.017,0.137,0.037,0.207,0.059c0.069,0.021,0.132,0.047,0.186,0.07c0.055,0.025,0.112,0.043,0.172,0.054
		c0.059,0.013,0.126,0.025,0.204,0.04c0.077,0.016,0.149,0.018,0.215,0.008l0.993-0.146c0.073-0.012,0.151-0.02,0.233-0.025
		s0.161-0.008,0.236-0.008c0.075,0.003,0.149,0,0.223-0.004c0.074-0.004,0.148-0.008,0.222-0.012
		c0.074-0.004,0.145-0.01,0.212-0.021l0.429-0.063c0.073-0.01,0.148-0.031,0.227-0.063c0.079-0.032,0.161-0.067,0.247-0.106
		s0.164-0.073,0.234-0.103c0.07-0.028,0.141-0.06,0.21-0.09s0.133-0.056,0.19-0.077c0.056-0.021,0.111-0.046,0.165-0.074
		c0.053-0.027,0.105-0.059,0.159-0.093s0.102-0.067,0.148-0.101c0.045-0.035,0.092-0.067,0.136-0.101
		c0.044-0.032,0.093-0.069,0.146-0.11c0.054-0.041,0.102-0.084,0.145-0.128c0.042-0.046,0.092-0.095,0.151-0.149
		c0.058-0.055,0.109-0.104,0.154-0.148c0.044-0.047,0.091-0.093,0.142-0.141c0.05-0.049,0.097-0.098,0.141-0.148
		c0.044-0.053,0.09-0.104,0.14-0.158c0.051-0.053,0.104-0.109,0.161-0.17c0.057-0.062,0.112-0.119,0.164-0.172
		s0.099-0.102,0.141-0.149c0.042-0.046,0.085-0.089,0.128-0.128s0.088-0.075,0.135-0.107c0.046-0.031,0.09-0.07,0.132-0.117
		c0.043-0.047,0.091-0.09,0.144-0.131c0.054-0.041,0.106-0.088,0.155-0.141c0.05-0.053,0.097-0.105,0.137-0.158
		c0.041-0.053,0.091-0.111,0.15-0.178c0.058-0.067,0.111-0.137,0.158-0.209c0.046-0.072,0.084-0.131,0.111-0.176
		c0.028-0.044,0.054-0.088,0.08-0.131c0.026-0.043,0.058-0.082,0.094-0.121c0.037-0.039,0.069-0.079,0.097-0.121
		c0.028-0.043,0.059-0.088,0.093-0.131c0.034-0.045,0.069-0.088,0.105-0.134c0.036-0.044,0.071-0.089,0.105-0.134
		c0.034-0.045,0.069-0.09,0.105-0.135c0.036-0.045,0.081-0.104,0.137-0.177c0.055-0.073,0.107-0.14,0.156-0.198
		c0.049-0.06,0.087-0.109,0.114-0.155c0.028-0.044,0.062-0.099,0.101-0.162c0.04-0.064,0.074-0.118,0.101-0.162
		c0.028-0.044,0.06-0.104,0.098-0.183c0.037-0.077,0.066-0.141,0.084-0.188c0.019-0.049,0.042-0.098,0.068-0.148
		c0.026-0.051,0.058-0.12,0.094-0.21c0.035-0.089,0.062-0.159,0.08-0.208c0.019-0.05,0.042-0.115,0.07-0.197
		c0.029-0.084,0.059-0.162,0.09-0.238c0.032-0.076,0.059-0.152,0.081-0.229c0.022-0.077,0.048-0.159,0.076-0.248
		c0.027-0.088,0.05-0.156,0.068-0.206c0.02-0.05,0.037-0.099,0.057-0.146c0.018-0.048,0.031-0.096,0.039-0.144
		c0.008-0.047,0.017-0.096,0.027-0.141c0.01-0.047,0.024-0.098,0.041-0.154c0.018-0.055,0.031-0.109,0.04-0.162
		c0.01-0.053,0.022-0.111,0.039-0.172c0.016-0.063,0.028-0.123,0.034-0.184s0.017-0.119,0.033-0.182
		c0.017-0.063,0.033-0.123,0.05-0.184c0.017-0.06,0.029-0.12,0.037-0.181c0.008-0.06,0.02-0.118,0.036-0.173
		c0.015-0.055,0.023-0.105,0.025-0.15c0.001-0.047,0.008-0.094,0.018-0.141c0.01-0.049,0.02-0.096,0.03-0.143
		c0.01-0.047,0.02-0.094,0.029-0.143c0.01-0.048,0.021-0.111,0.032-0.191c0.012-0.08,0.019-0.143,0.02-0.188
		c0.002-0.045,0.004-0.091,0.006-0.138c0.001-0.047,0.007-0.094,0.017-0.141s0.016-0.094,0.018-0.141
		c0.001-0.047,0.003-0.096,0.004-0.148c0-0.051,0.005-0.107,0.013-0.168c0.008-0.06,0.013-0.117,0.013-0.17
		c0-0.053,0.003-0.108,0.01-0.168c0.007-0.059,0.01-0.117,0.01-0.177c0-0.059,0.003-0.118,0.011-0.179
		c0.009-0.061,0.013-0.12,0.012-0.18c0-0.059,0.004-0.118,0.012-0.178c0.008-0.063,0.017-0.117,0.026-0.171
		c0.009-0.053,0.014-0.108,0.014-0.167c0-0.06-0.001-0.115-0.003-0.169c-0.001-0.053,0.003-0.103,0.013-0.148
		c0.011-0.048,0.02-0.099,0.029-0.152c0.009-0.054,0.015-0.104,0.016-0.149c0.002-0.046,0.008-0.092,0.018-0.141
		c0.01-0.048,0.018-0.114,0.022-0.199c0.004-0.084,0.007-0.15,0.009-0.197c0.001-0.047,0.004-0.109,0.007-0.188
		c0.004-0.077,0.005-0.142,0.006-0.188c0.002-0.048,0.004-0.094,0.006-0.139c0.001-0.046,0.003-0.091,0.005-0.137
		s-0.001-0.091-0.007-0.138c-0.007-0.045-0.013-0.113-0.018-0.205c-0.005-0.09-0.007-0.162-0.006-0.213
		c0-0.053-0.002-0.101-0.01-0.146c-0.007-0.046-0.009-0.094-0.008-0.146c0.001-0.051-0.002-0.103-0.01-0.154
		c-0.008-0.053-0.011-0.102-0.01-0.146c0.002-0.046,0.003-0.098,0.002-0.156c0-0.06-0.003-0.115-0.011-0.166
		c-0.008-0.053-0.012-0.107-0.012-0.166c0-0.057-0.001-0.112-0.002-0.165c-0.002-0.052-0.002-0.108-0.002-0.167
		c-0.001-0.059-0.001-0.119-0.001-0.178c0-0.06,0-0.119-0.001-0.178c0-0.059,0-0.117,0-0.176c0-0.057-0.004-0.115-0.013-0.174
		c-0.009-0.057-0.013-0.115-0.013-0.174c-0.001-0.061,0-0.117,0-0.17c0-0.053,0.001-0.107,0-0.166c0-0.058,0-0.115,0-0.175
		s-0.004-0.114-0.012-0.167c-0.007-0.051-0.011-0.107-0.012-0.166c0-0.059,0.001-0.113,0.001-0.166
		c0.001-0.052,0.001-0.106-0.002-0.166c-0.002-0.059-0.003-0.115-0.002-0.167c0.001-0.053,0.001-0.106,0.002-0.157
		s0.001-0.107,0.001-0.166c0-0.06,0-0.115,0.001-0.168c0.001-0.054,0.001-0.105,0.002-0.157c0.001-0.053-0.002-0.101-0.009-0.146
		c-0.006-0.046-0.009-0.095-0.008-0.146c0.001-0.053,0.001-0.104,0.002-0.158c0-0.052-0.003-0.104-0.011-0.156
		c-0.007-0.053-0.011-0.104-0.01-0.154c0.001-0.053,0.001-0.107,0.001-0.166c0-0.06-0.001-0.115-0.002-0.168
		c-0.001-0.054-0.006-0.105-0.013-0.156c-0.008-0.049-0.011-0.102-0.011-0.154c0.001-0.053,0.002-0.105,0.002-0.159
		c0.001-0.053-0.003-0.108-0.011-0.164c-0.009-0.057-0.012-0.112-0.012-0.164c0.001-0.053,0.001-0.11,0.001-0.169
		s-0.005-0.117-0.013-0.175c-0.009-0.058-0.013-0.116-0.013-0.174s-0.003-0.116-0.013-0.174l-0.083-0.558
		c-0.007-0.058-0.013-0.119-0.014-0.186c-0.001-0.064-0.006-0.127-0.015-0.184l-0.124-0.838c-0.007-0.051-0.013-0.113-0.014-0.184
		c-0.002-0.072-0.008-0.139-0.017-0.204l-0.439-2.958c-0.01-0.064-0.022-0.125-0.039-0.182s-0.03-0.11-0.037-0.16
		c-0.008-0.051-0.015-0.102-0.023-0.154c-0.007-0.051-0.019-0.102-0.035-0.153c-0.016-0.05-0.03-0.116-0.042-0.198l-0.055-0.367
		c-0.01-0.069-0.026-0.152-0.049-0.248c-0.023-0.094-0.045-0.186-0.066-0.273c-0.022-0.09-0.037-0.162-0.046-0.221
		c-0.008-0.059-0.021-0.114-0.038-0.169c-0.017-0.056-0.034-0.114-0.052-0.179c-0.017-0.063-0.038-0.125-0.063-0.187
		c-0.023-0.062-0.045-0.128-0.064-0.198c-0.019-0.069-0.038-0.14-0.056-0.209c-0.019-0.068-0.038-0.138-0.057-0.205
		c-0.019-0.069-0.037-0.139-0.056-0.207c-0.019-0.069-0.038-0.139-0.057-0.209c-0.018-0.07-0.041-0.137-0.067-0.198
		c-0.026-0.062-0.044-0.12-0.052-0.177c-0.008-0.058-0.025-0.113-0.051-0.168c-0.025-0.057-0.045-0.112-0.061-0.17
		c-0.015-0.057-0.029-0.106-0.044-0.149c-0.015-0.044-0.026-0.091-0.034-0.142c-0.008-0.053-0.019-0.1-0.034-0.143
		c-0.015-0.043-0.032-0.104-0.052-0.18c-0.021-0.076-0.041-0.151-0.06-0.228c-0.02-0.075-0.033-0.135-0.04-0.18
		c-0.006-0.046-0.018-0.091-0.032-0.134c-0.015-0.043-0.026-0.088-0.033-0.133c-0.007-0.045-0.015-0.094-0.021-0.145
		c-0.008-0.05-0.02-0.104-0.037-0.16s-0.034-0.113-0.051-0.17s-0.029-0.109-0.037-0.16s-0.02-0.107-0.038-0.171
		c-0.018-0.063-0.035-0.122-0.052-0.179c-0.017-0.057-0.034-0.116-0.051-0.18c-0.019-0.063-0.035-0.125-0.051-0.188
		c-0.016-0.063-0.028-0.127-0.038-0.19c-0.009-0.064-0.022-0.125-0.04-0.182c-0.017-0.057-0.035-0.115-0.053-0.179
		c-0.017-0.063-0.035-0.123-0.052-0.179c-0.017-0.058-0.034-0.113-0.05-0.17c-0.017-0.058-0.034-0.11-0.049-0.16
		c-0.016-0.049-0.028-0.1-0.036-0.15c-0.007-0.052-0.019-0.1-0.034-0.143c-0.014-0.043-0.029-0.086-0.045-0.131
		c-0.015-0.045-0.03-0.088-0.045-0.131c-0.014-0.044-0.035-0.096-0.061-0.158c-0.027-0.061-0.048-0.127-0.065-0.195
		c-0.016-0.069-0.039-0.143-0.067-0.217c-0.028-0.075-0.056-0.149-0.084-0.223c-0.028-0.074-0.05-0.134-0.065-0.178
		c-0.015-0.045-0.037-0.107-0.066-0.188c-0.029-0.08-0.057-0.157-0.085-0.232c-0.029-0.075-0.05-0.134-0.065-0.178
		c-0.015-0.042-0.029-0.086-0.042-0.131c-0.013-0.045-0.03-0.11-0.052-0.199c-0.021-0.086-0.04-0.152-0.055-0.195
		c-0.015-0.045-0.034-0.092-0.059-0.14s-0.044-0.097-0.061-0.147c-0.015-0.051-0.032-0.101-0.048-0.152
		c-0.016-0.051-0.027-0.101-0.035-0.15c-0.007-0.051-0.022-0.102-0.048-0.15c-0.024-0.049-0.043-0.096-0.059-0.139
		c-0.015-0.043-0.036-0.107-0.063-0.195c-0.028-0.089-0.049-0.154-0.064-0.199c-0.016-0.043-0.038-0.105-0.066-0.186
		c-0.029-0.081-0.052-0.143-0.067-0.188c-0.015-0.043-0.037-0.109-0.067-0.195s-0.056-0.15-0.08-0.193
		c-0.023-0.043-0.043-0.086-0.057-0.13c-0.015-0.042-0.03-0.087-0.044-0.13c-0.017-0.045-0.03-0.089-0.042-0.133
		c-0.013-0.043-0.029-0.104-0.049-0.18c-0.02-0.076-0.042-0.135-0.064-0.178c-0.023-0.041-0.049-0.099-0.078-0.173
		c-0.028-0.074-0.055-0.146-0.083-0.214c-0.027-0.07-0.055-0.144-0.083-0.224c-0.029-0.081-0.061-0.16-0.097-0.241
		c-0.035-0.08-0.06-0.141-0.075-0.186c-0.015-0.043-0.034-0.088-0.059-0.138c-0.024-0.05-0.048-0.095-0.071-0.137
		c-0.022-0.042-0.043-0.085-0.058-0.13c-0.016-0.043-0.035-0.09-0.059-0.139c-0.024-0.047-0.047-0.096-0.07-0.146
		c-0.022-0.05-0.045-0.103-0.071-0.158c-0.025-0.055-0.05-0.106-0.074-0.154c-0.024-0.049-0.053-0.1-0.086-0.154
		c-0.034-0.054-0.063-0.109-0.089-0.164c-0.025-0.056-0.054-0.111-0.085-0.166c-0.032-0.055-0.06-0.109-0.085-0.165
		c-0.026-0.055-0.055-0.109-0.088-0.162c-0.034-0.053-0.063-0.108-0.088-0.163c-0.025-0.055-0.05-0.108-0.072-0.157
		c-0.022-0.05-0.045-0.1-0.069-0.147c-0.025-0.048-0.049-0.096-0.073-0.146c-0.025-0.049-0.048-0.095-0.072-0.139
		c-0.022-0.042-0.042-0.086-0.057-0.128c-0.015-0.043-0.04-0.095-0.075-0.156c-0.034-0.061-0.063-0.121-0.088-0.183
		c-0.024-0.062-0.048-0.121-0.074-0.176c-0.025-0.055-0.054-0.106-0.086-0.153c-0.033-0.046-0.061-0.095-0.086-0.144
		c-0.024-0.049-0.052-0.101-0.084-0.155c-0.031-0.055-0.063-0.112-0.099-0.173c-0.034-0.06-0.069-0.127-0.106-0.199
		c-0.036-0.073-0.065-0.131-0.089-0.174c-0.023-0.043-0.046-0.089-0.068-0.137c-0.022-0.049-0.05-0.1-0.084-0.154
		c-0.033-0.054-0.071-0.111-0.114-0.17c-0.043-0.059-0.086-0.128-0.13-0.207c-0.044-0.079-0.089-0.161-0.136-0.246
		c-0.046-0.085-0.097-0.169-0.152-0.251c-0.055-0.083-0.109-0.169-0.164-0.259c-0.053-0.09-0.109-0.184-0.166-0.281l-0.085-0.146"/>
	
		<path id="STROKE_9F187D64.-18C1.-4280.-8445.-19EC93C4C14A" fill="none" stroke="#000000" stroke-width="1.54" stroke-linecap="round" stroke-linejoin="round" d="
		M114.346,60.404c0.131-0.011,0.22-0.004,0.265,0.02c0.046,0.024,0.086,0.056,0.119,0.095s0.068,0.084,0.104,0.137
		c0.036,0.053,0.067,0.099,0.093,0.14c0.024,0.041,0.055,0.088,0.088,0.141c0.035,0.053,0.069,0.108,0.107,0.167
		c0.037,0.059,0.068,0.112,0.096,0.16c0.026,0.048,0.055,0.105,0.086,0.172c0.029,0.066,0.055,0.124,0.072,0.174
		c0.018,0.049,0.039,0.095,0.063,0.136c0.022,0.041,0.043,0.083,0.06,0.125c0.017,0.043,0.046,0.1,0.086,0.172
		c0.039,0.072,0.069,0.136,0.089,0.192c0.019,0.055,0.049,0.113,0.085,0.171c0.037,0.059,0.071,0.119,0.101,0.179
		c0.028,0.06,0.061,0.123,0.098,0.188c0.036,0.065,0.074,0.137,0.115,0.215c0.042,0.078,0.078,0.147,0.106,0.208
		c0.029,0.06,0.062,0.122,0.101,0.187c0.038,0.065,0.076,0.13,0.113,0.195s0.075,0.141,0.117,0.224
		c0.043,0.084,0.082,0.153,0.118,0.206c0.036,0.053,0.073,0.111,0.109,0.176c0.036,0.065,0.079,0.139,0.131,0.222
		c0.051,0.082,0.096,0.162,0.137,0.239c0.04,0.077,0.079,0.145,0.114,0.204c0.036,0.06,0.078,0.13,0.129,0.213
		c0.051,0.083,0.098,0.164,0.138,0.242c0.041,0.078,0.083,0.159,0.126,0.244c0.042,0.083,0.082,0.165,0.121,0.241
		c0.039,0.078,0.08,0.159,0.122,0.243s0.079,0.162,0.11,0.235c0.031,0.072,0.07,0.154,0.113,0.246
		c0.043,0.092,0.079,0.171,0.107,0.238c0.027,0.066,0.059,0.136,0.09,0.209c0.031,0.072,0.059,0.146,0.082,0.221
		c0.023,0.075,0.051,0.146,0.081,0.213c0.03,0.066,0.062,0.136,0.093,0.208c0.03,0.072,0.061,0.143,0.092,0.208
		c0.031,0.067,0.06,0.134,0.088,0.202c0.029,0.068,0.058,0.135,0.088,0.202c0.031,0.066,0.061,0.132,0.091,0.199
		c0.03,0.066,0.061,0.132,0.091,0.199c0.029,0.066,0.061,0.133,0.091,0.201c0.03,0.067,0.06,0.134,0.089,0.201
		c0.027,0.067,0.053,0.134,0.074,0.202c0.022,0.069,0.049,0.142,0.082,0.222s0.07,0.155,0.109,0.226
		c0.039,0.072,0.07,0.138,0.091,0.2c0.021,0.062,0.047,0.132,0.08,0.212c0.032,0.081,0.069,0.162,0.11,0.247
		c0.039,0.084,0.072,0.17,0.099,0.256c0.024,0.087,0.055,0.17,0.089,0.25c0.031,0.08,0.068,0.159,0.109,0.237
		s0.08,0.164,0.115,0.256c0.034,0.092,0.068,0.177,0.098,0.256c0.031,0.079,0.064,0.168,0.101,0.266
		c0.037,0.098,0.076,0.189,0.119,0.274c0.042,0.083,0.081,0.172,0.116,0.264s0.072,0.18,0.114,0.265
		c0.04,0.085,0.075,0.167,0.108,0.247c0.033,0.08,0.066,0.159,0.099,0.236c0.032,0.08,0.066,0.165,0.101,0.256
		c0.037,0.092,0.07,0.178,0.104,0.258c0.033,0.08,0.064,0.16,0.099,0.24c0.032,0.079,0.063,0.153,0.092,0.22
		c0.028,0.066,0.056,0.143,0.081,0.231c0.025,0.087,0.051,0.165,0.072,0.233c0.021,0.067,0.048,0.139,0.08,0.21
		c0.031,0.072,0.059,0.149,0.084,0.231c0.023,0.08,0.052,0.155,0.082,0.222c0.029,0.066,0.057,0.137,0.079,0.212
		c0.024,0.076,0.052,0.153,0.081,0.232c0.031,0.079,0.059,0.156,0.082,0.23c0.023,0.075,0.047,0.157,0.073,0.245
		c0.026,0.087,0.052,0.174,0.077,0.26c0.025,0.087,0.055,0.173,0.09,0.259c0.033,0.085,0.064,0.174,0.092,0.269
		c0.026,0.094,0.059,0.19,0.095,0.288c0.036,0.099,0.073,0.197,0.109,0.296c0.038,0.1,0.067,0.197,0.093,0.291
		c0.024,0.094,0.055,0.19,0.093,0.288c0.036,0.1,0.073,0.2,0.11,0.304c0.038,0.104,0.074,0.202,0.109,0.294s0.07,0.184,0.105,0.277
		c0.036,0.091,0.066,0.181,0.092,0.27c0.027,0.087,0.057,0.18,0.09,0.279c0.035,0.099,0.065,0.188,0.09,0.271
		c0.023,0.08,0.053,0.165,0.088,0.25c0.034,0.086,0.063,0.17,0.088,0.251c0.024,0.081,0.049,0.162,0.072,0.242
		c0.025,0.081,0.053,0.154,0.082,0.221c0.031,0.066,0.058,0.141,0.083,0.221c0.024,0.082,0.05,0.166,0.075,0.254
		s0.055,0.174,0.087,0.26c0.032,0.088,0.061,0.175,0.087,0.262c0.025,0.088,0.055,0.171,0.088,0.249
		c0.031,0.079,0.064,0.158,0.098,0.238s0.067,0.169,0.104,0.267s0.067,0.191,0.093,0.278c0.025,0.088,0.055,0.175,0.087,0.261
		c0.032,0.087,0.062,0.173,0.087,0.259c0.025,0.087,0.055,0.171,0.087,0.249c0.034,0.08,0.061,0.154,0.083,0.223
		c0.021,0.067,0.045,0.143,0.069,0.224s0.05,0.166,0.076,0.254c0.024,0.087,0.049,0.165,0.071,0.233
		c0.021,0.067,0.043,0.136,0.066,0.204c0.021,0.067,0.043,0.136,0.065,0.204c0.022,0.067,0.04,0.141,0.056,0.217
		c0.015,0.076,0.033,0.149,0.055,0.218c0.022,0.067,0.041,0.14,0.057,0.218c0.016,0.076,0.032,0.148,0.052,0.218
		c0.021,0.068,0.037,0.138,0.051,0.206c0.013,0.07,0.034,0.149,0.06,0.236c0.025,0.088,0.049,0.162,0.07,0.225
		c0.02,0.061,0.041,0.129,0.064,0.203s0.053,0.155,0.086,0.241c0.033,0.085,0.068,0.171,0.102,0.257
		c0.035,0.086,0.064,0.17,0.088,0.249c0.025,0.081,0.055,0.165,0.089,0.25c0.034,0.087,0.062,0.166,0.083,0.242
		c0.021,0.076,0.05,0.159,0.084,0.252c0.035,0.093,0.072,0.17,0.111,0.235c0.039,0.064,0.073,0.133,0.104,0.205
		c0.032,0.072,0.06,0.15,0.083,0.232c0.025,0.08,0.053,0.157,0.082,0.23c0.029,0.072,0.057,0.144,0.078,0.213
		c0.021,0.07,0.047,0.131,0.074,0.185c0.028,0.056,0.053,0.113,0.073,0.175s0.042,0.123,0.063,0.186s0.04,0.12,0.06,0.176
		c0.02,0.055,0.034,0.105,0.044,0.158c0.011,0.051,0.021,0.104,0.032,0.162s0.027,0.115,0.047,0.17
		c0.02,0.056,0.034,0.109,0.045,0.159c0.009,0.05,0.02,0.104,0.029,0.161c0.013,0.058,0.027,0.114,0.048,0.17
		c0.02,0.056,0.034,0.113,0.046,0.17c0.012,0.059,0.026,0.113,0.046,0.168c0.019,0.055,0.034,0.107,0.044,0.158
		c0.01,0.052,0.025,0.105,0.044,0.162c0.021,0.055,0.039,0.113,0.058,0.177c0.019,0.062,0.033,0.122,0.046,0.179
		c0.011,0.059,0.022,0.111,0.03,0.162c0.01,0.05,0.025,0.105,0.047,0.167s0.037,0.122,0.048,0.18s0.026,0.113,0.046,0.169
		c0.02,0.057,0.035,0.113,0.047,0.17l0.134,0.686c0.012,0.058,0.026,0.113,0.046,0.17c0.021,0.056,0.035,0.113,0.047,0.17
		s0.023,0.115,0.033,0.172c0.012,0.059,0.026,0.111,0.045,0.159c0.019,0.049,0.032,0.101,0.045,0.159l0.405,2.068
		c0.015,0.075,0.026,0.152,0.033,0.23c0.006,0.08,0.013,0.154,0.019,0.226c0.004,0.071,0.015,0.146,0.029,0.22l0.12,0.612
		c0.013,0.064,0.02,0.121,0.021,0.173c0.002,0.053,0.009,0.104,0.018,0.155c0.011,0.051,0.01,0.108-0.001,0.169
		c-0.013,0.063-0.018,0.119-0.015,0.172c0,0.051-0.002,0.104-0.008,0.158c-0.008,0.055-0.017,0.116-0.029,0.186
		c-0.012,0.067-0.018,0.125-0.018,0.17s0.004,0.104,0.008,0.176c0.006,0.07,0.014,0.129,0.022,0.175
		c0.009,0.045,0.013,0.09,0.014,0.136c0,0.045,0.009,0.11,0.025,0.193s0.028,0.16,0.034,0.23c0.009,0.071,0.02,0.142,0.033,0.211
		c0.014,0.07,0.021,0.133,0.025,0.192c0.002,0.06,0.004,0.112,0.006,0.159c0,0.047,0.002,0.103,0.006,0.168
		c0.004,0.064,0.004,0.125-0.004,0.178c-0.007,0.054-0.018,0.108-0.032,0.164c-0.015,0.057-0.022,0.118-0.025,0.184
		c-0.001,0.066-0.006,0.127-0.013,0.18c-0.006,0.055-0.013,0.111-0.019,0.172c-0.005,0.061-0.011,0.121-0.015,0.182
		c-0.006,0.061-0.012,0.121-0.016,0.183c-0.007,0.06-0.013,0.118-0.019,0.171c-0.007,0.056-0.013,0.113-0.015,0.172
		c-0.004,0.059-0.01,0.113-0.018,0.161c-0.007,0.048-0.02,0.101-0.033,0.155c-0.016,0.055-0.026,0.109-0.032,0.164
		c-0.007,0.055-0.015,0.118-0.024,0.193c-0.009,0.072-0.018,0.151-0.027,0.233c-0.01,0.081-0.016,0.166-0.016,0.251
		c-0.002,0.085,0,0.174,0,0.266c0.002,0.092,0,0.175-0.002,0.248c-0.004,0.072-0.009,0.146-0.018,0.223
		c-0.01,0.074-0.021,0.144-0.034,0.204c-0.015,0.062-0.032,0.124-0.054,0.187c-0.021,0.064-0.043,0.132-0.061,0.201
		c-0.02,0.07-0.043,0.138-0.072,0.203c-0.031,0.065-0.056,0.129-0.076,0.193c-0.02,0.063-0.041,0.123-0.064,0.18
		c-0.023,0.058-0.055,0.117-0.094,0.178c-0.04,0.061-0.071,0.113-0.096,0.156c-0.023,0.045-0.052,0.09-0.086,0.136
		c-0.033,0.046-0.066,0.096-0.097,0.148c-0.03,0.052-0.062,0.105-0.095,0.157c-0.033,0.053-0.068,0.109-0.105,0.17
		c-0.038,0.061-0.076,0.121-0.115,0.182c-0.041,0.061-0.08,0.119-0.119,0.172c-0.039,0.054-0.079,0.104-0.121,0.152
		c-0.043,0.047-0.084,0.098-0.123,0.152c-0.037,0.055-0.076,0.109-0.115,0.162s-0.083,0.111-0.131,0.174
		c-0.047,0.063-0.096,0.121-0.143,0.176s-0.095,0.115-0.143,0.178c-0.049,0.062-0.107,0.127-0.178,0.193
		c-0.07,0.065-0.139,0.125-0.204,0.176c-0.065,0.053-0.13,0.108-0.193,0.168c-0.064,0.059-0.128,0.115-0.192,0.166
		c-0.065,0.053-0.121,0.097-0.166,0.133c-0.044,0.035-0.094,0.08-0.149,0.138c-0.056,0.056-0.111,0.11-0.169,0.162
		c-0.055,0.052-0.111,0.103-0.169,0.153s-0.111,0.098-0.163,0.141c-0.053,0.043-0.11,0.087-0.178,0.133
		c-0.065,0.046-0.125,0.084-0.178,0.113c-0.052,0.029-0.104,0.063-0.156,0.1s-0.117,0.079-0.192,0.127
		c-0.074,0.049-0.144,0.102-0.207,0.16c-0.063,0.061-0.116,0.109-0.157,0.15c-0.042,0.041-0.098,0.096-0.169,0.162
		s-0.141,0.132-0.212,0.199c-0.07,0.067-0.139,0.131-0.205,0.188c-0.066,0.06-0.131,0.119-0.193,0.178
		c-0.064,0.061-0.133,0.113-0.208,0.161c-0.074,0.047-0.145,0.094-0.212,0.14c-0.066,0.047-0.133,0.09-0.2,0.127
		c-0.067,0.039-0.136,0.078-0.202,0.118c-0.068,0.04-0.137,0.077-0.203,0.11c-0.07,0.033-0.135,0.07-0.195,0.109
		c-0.063,0.039-0.127,0.074-0.196,0.107c-0.069,0.032-0.138,0.065-0.206,0.099c-0.068,0.034-0.145,0.072-0.229,0.115
		s-0.165,0.082-0.242,0.116c-0.076,0.034-0.154,0.066-0.232,0.096c-0.078,0.028-0.16,0.059-0.247,0.088s-0.17,0.055-0.249,0.078
		c-0.08,0.021-0.154,0.043-0.227,0.064c-0.07,0.021-0.135,0.041-0.191,0.059s-0.117,0.033-0.182,0.045l-0.668,0.131
		c-0.058,0.012-0.117,0.014-0.177,0.004c-0.06-0.008-0.125-0.021-0.194-0.041c-0.072-0.019-0.146-0.041-0.227-0.064
		s-0.157-0.051-0.232-0.081c-0.074-0.03-0.152-0.062-0.233-0.093c-0.082-0.031-0.163-0.063-0.244-0.091
		c-0.081-0.03-0.153-0.06-0.217-0.087c-0.063-0.028-0.132-0.056-0.206-0.08s-0.146-0.047-0.217-0.065
		c-0.07-0.021-0.145-0.038-0.223-0.055c-0.08-0.019-0.153-0.036-0.225-0.056c-0.07-0.02-0.145-0.035-0.221-0.047
		c-0.078-0.011-0.158-0.027-0.24-0.051s-0.158-0.048-0.23-0.072c-0.072-0.025-0.139-0.049-0.201-0.07
		c-0.062-0.021-0.12-0.041-0.176-0.063c-0.057-0.023-0.112-0.049-0.167-0.077s-0.106-0.058-0.155-0.087s-0.098-0.064-0.146-0.101
		c-0.049-0.038-0.097-0.074-0.147-0.11c-0.05-0.036-0.104-0.072-0.159-0.107c-0.058-0.037-0.11-0.075-0.162-0.117
		c-0.051-0.041-0.102-0.084-0.151-0.129c-0.049-0.043-0.103-0.082-0.161-0.116s-0.117-0.071-0.174-0.114
		c-0.059-0.042-0.115-0.076-0.173-0.105c-0.058-0.027-0.114-0.059-0.171-0.096c-0.057-0.035-0.109-0.07-0.159-0.107
		c-0.05-0.035-0.101-0.078-0.151-0.129c-0.05-0.049-0.101-0.094-0.152-0.137c-0.051-0.041-0.1-0.098-0.146-0.169
		c-0.046-0.07-0.084-0.136-0.113-0.196s-0.067-0.129-0.116-0.203c-0.05-0.076-0.093-0.15-0.132-0.223
		c-0.036-0.072-0.074-0.138-0.111-0.197c-0.038-0.058-0.079-0.115-0.125-0.172c-0.045-0.058-0.09-0.115-0.135-0.173
		c-0.042-0.057-0.086-0.111-0.131-0.162c-0.045-0.05-0.086-0.105-0.123-0.165c-0.036-0.057-0.074-0.122-0.112-0.195
		c-0.037-0.07-0.072-0.143-0.103-0.216c-0.033-0.074-0.058-0.132-0.074-0.175c-0.017-0.041-0.033-0.084-0.051-0.127
		c-0.017-0.043-0.033-0.086-0.051-0.129s-0.031-0.091-0.041-0.143c-0.01-0.051-0.023-0.098-0.041-0.141
		c-0.017-0.041-0.037-0.1-0.061-0.174"/>
	
		<path id="STROKE_78D54124.-E15B.-48B5.-AA56.-91B6A709DD80" fill="none" stroke="#000000" stroke-width="1.54" stroke-linecap="round" stroke-linejoin="round" d="
		M119.878,77.112c0.074,0.088,0.117,0.153,0.128,0.197s0.022,0.089,0.034,0.135c0.012,0.045,0.023,0.097,0.036,0.154
		c0.013,0.058,0.027,0.109,0.046,0.153c0.018,0.043,0.037,0.091,0.057,0.142c0.021,0.051,0.037,0.101,0.05,0.152
		c0.011,0.05,0.027,0.104,0.047,0.161c0.021,0.058,0.043,0.115,0.063,0.172c0.021,0.058,0.042,0.114,0.063,0.171
		c0.021,0.058,0.04,0.114,0.06,0.17c0.019,0.057,0.038,0.116,0.061,0.18c0.021,0.063,0.046,0.133,0.077,0.21
		c0.03,0.076,0.058,0.156,0.079,0.24c0.023,0.083,0.048,0.162,0.077,0.238c0.028,0.075,0.048,0.139,0.061,0.19
		c0.012,0.052,0.023,0.1,0.035,0.144s0.028,0.108,0.05,0.191c0.023,0.083,0.041,0.15,0.054,0.2c0.011,0.051,0.022,0.099,0.034,0.144
		c0.012,0.044,0.022,0.09,0.034,0.134c0.012,0.045,0.023,0.092,0.035,0.145c0.013,0.051,0.024,0.104,0.035,0.162
		c0.015,0.057,0.025,0.11,0.035,0.162c0.01,0.051,0.021,0.104,0.031,0.154c0.014,0.053,0.025,0.107,0.038,0.165
		s0.024,0.114,0.036,0.171c0.014,0.057,0.025,0.117,0.039,0.182c0.012,0.064,0.025,0.125,0.037,0.183s0.025,0.12,0.039,0.192
		c0.014,0.069,0.03,0.137,0.051,0.199c0.021,0.063,0.043,0.131,0.064,0.202c0.022,0.069,0.043,0.138,0.062,0.201
		c0.02,0.063,0.04,0.127,0.061,0.19c0.022,0.063,0.044,0.133,0.065,0.209c0.023,0.076,0.043,0.146,0.065,0.209
		c0.021,0.063,0.042,0.123,0.063,0.182c0.02,0.057,0.039,0.117,0.059,0.181s0.04,0.128,0.061,0.19
		c0.021,0.063,0.039,0.125,0.052,0.182c0.012,0.058,0.024,0.109,0.034,0.152c0.014,0.045,0.029,0.096,0.05,0.152
		s0.042,0.119,0.063,0.182c0.02,0.064,0.037,0.121,0.049,0.172c0.013,0.052,0.027,0.104,0.046,0.152
		c0.018,0.051,0.038,0.1,0.058,0.151s0.037,0.106,0.049,0.164c0.014,0.058,0.025,0.112,0.037,0.162
		c0.011,0.05,0.031,0.104,0.061,0.16c0.029,0.057,0.051,0.114,0.063,0.172s0.028,0.115,0.05,0.172
		c0.021,0.058,0.04,0.115,0.059,0.173c0.02,0.057,0.039,0.11,0.059,0.16c0.021,0.051,0.037,0.107,0.05,0.171
		c0.013,0.064,0.026,0.126,0.038,0.183c0.012,0.058,0.029,0.115,0.051,0.172c0.021,0.058,0.037,0.111,0.049,0.162
		s0.023,0.099,0.034,0.144c0.013,0.045,0.022,0.097,0.033,0.155c0.011,0.058,0.021,0.108,0.033,0.152
		c0.011,0.045,0.022,0.092,0.035,0.145c0.013,0.051,0.024,0.102,0.034,0.152c0.013,0.051,0.024,0.102,0.037,0.154
		c0.012,0.051,0.023,0.105,0.037,0.162c0.012,0.059,0.024,0.112,0.035,0.164c0.012,0.049,0.029,0.104,0.05,0.16
		s0.038,0.115,0.05,0.173c0.013,0.058,0.027,0.115,0.047,0.173c0.019,0.058,0.034,0.111,0.045,0.161
		c0.013,0.05,0.029,0.104,0.05,0.161c0.021,0.059,0.04,0.115,0.062,0.172s0.039,0.111,0.051,0.163s0.027,0.099,0.048,0.144
		c0.019,0.043,0.035,0.09,0.048,0.143c0.012,0.051,0.022,0.102,0.035,0.152c0.012,0.051,0.023,0.102,0.033,0.154
		c0.01,0.051,0.02,0.098,0.031,0.143s0.023,0.093,0.035,0.144c0.012,0.052,0.024,0.106,0.035,0.164
		c0.015,0.058,0.025,0.112,0.037,0.162c0.013,0.051,0.021,0.102,0.023,0.153c0.005,0.053,0.013,0.107,0.024,0.166
		c0.013,0.058,0.025,0.111,0.036,0.162c0.012,0.051,0.021,0.102,0.023,0.153c0.004,0.052,0.012,0.104,0.023,0.156
		c0.013,0.051,0.02,0.103,0.022,0.153c0.005,0.051,0.007,0.1,0.011,0.146s0.012,0.091,0.021,0.136
		c0.012,0.043,0.02,0.107,0.027,0.192l0.079,1.183c0.003,0.047,0.012,0.102,0.025,0.165c0.012,0.064,0.021,0.132,0.025,0.202
		l0.295,4.331c0.006,0.078,0.006,0.146,0.003,0.205c-0.006,0.058-0.014,0.127-0.024,0.205c-0.013,0.077-0.021,0.146-0.025,0.206
		c-0.004,0.059-0.008,0.127-0.011,0.205c-0.003,0.076-0.008,0.148-0.012,0.214c-0.003,0.065-0.003,0.12,0,0.166s0.003,0.112,0,0.196
		c-0.002,0.086,0,0.173,0.006,0.263c0.006,0.089,0.006,0.157,0,0.203c-0.004,0.046-0.004,0.116,0.002,0.206l0.025,0.357
		c0.002,0.046,0.002,0.092-0.004,0.137c-0.006,0.046-0.006,0.101-0.002,0.166c0.004,0.064,0.006,0.129,0.004,0.193
		s-0.01,0.12-0.023,0.166c-0.015,0.047-0.027,0.096-0.04,0.148c-0.015,0.054-0.035,0.113-0.063,0.181
		c-0.031,0.067-0.055,0.124-0.074,0.173c-0.021,0.047-0.045,0.104-0.074,0.172c-0.029,0.066-0.055,0.129-0.076,0.188
		s-0.054,0.129-0.098,0.211c-0.043,0.081-0.082,0.162-0.119,0.242s-0.065,0.144-0.085,0.191c-0.021,0.047-0.037,0.094-0.052,0.139
		c-0.014,0.047-0.031,0.093-0.054,0.14c-0.022,0.046-0.044,0.093-0.067,0.141c-0.021,0.048-0.039,0.095-0.053,0.141
		s-0.03,0.093-0.051,0.14c-0.02,0.048-0.037,0.094-0.051,0.141c-0.014,0.045-0.035,0.108-0.063,0.189
		c-0.029,0.08-0.051,0.143-0.063,0.189c-0.015,0.046-0.031,0.099-0.05,0.159c-0.02,0.06-0.035,0.115-0.05,0.167
		c-0.013,0.053-0.034,0.105-0.064,0.16s-0.06,0.102-0.089,0.143c-0.027,0.041-0.066,0.078-0.116,0.114
		c-0.048,0.036-0.103,0.075-0.166,0.118c-0.063,0.043-0.118,0.082-0.163,0.118c-0.046,0.036-0.097,0.078-0.153,0.13
		c-0.056,0.049-0.11,0.098-0.165,0.146c-0.053,0.049-0.107,0.102-0.162,0.156c-0.057,0.058-0.103,0.111-0.139,0.166
		c-0.037,0.053-0.073,0.104-0.113,0.153c-0.039,0.05-0.08,0.101-0.125,0.156s-0.092,0.111-0.139,0.165s-0.097,0.109-0.151,0.166
		c-0.053,0.057-0.095,0.104-0.125,0.145c-0.031,0.041-0.066,0.08-0.104,0.114c-0.037,0.035-0.079,0.07-0.127,0.106
		c-0.045,0.035-0.105,0.072-0.178,0.109c-0.074,0.037-0.139,0.066-0.194,0.092c-0.056,0.023-0.11,0.049-0.166,0.078
		c-0.056,0.028-0.11,0.055-0.169,0.079s-0.113,0.05-0.169,0.081c-0.056,0.029-0.107,0.059-0.155,0.088
		c-0.049,0.03-0.108,0.067-0.182,0.11c-0.069,0.044-0.145,0.081-0.226,0.112c-0.081,0.033-0.157,0.06-0.229,0.084
		c-0.072,0.023-0.137,0.041-0.193,0.051c-0.056,0.01-0.125,0.023-0.206,0.044c-0.081,0.019-0.163,0.034-0.243,0.046
		c-0.082,0.012-0.165,0.021-0.25,0.025l-0.48,0.033c-0.059,0.004-0.121,0.006-0.186,0.004c-0.066-0.002-0.142-0.01-0.225-0.023
		c-0.083-0.016-0.163-0.031-0.238-0.053c-0.076-0.021-0.152-0.049-0.23-0.082c-0.079-0.033-0.144-0.065-0.194-0.094
		c-0.051-0.029-0.104-0.057-0.163-0.086c-0.061-0.028-0.124-0.054-0.193-0.074c-0.069-0.021-0.133-0.043-0.191-0.064
		s-0.117-0.043-0.176-0.064c-0.059-0.022-0.114-0.045-0.166-0.068c-0.053-0.022-0.108-0.047-0.167-0.076
		c-0.06-0.027-0.116-0.066-0.17-0.115s-0.104-0.098-0.146-0.146c-0.045-0.047-0.086-0.1-0.123-0.155s-0.073-0.106-0.109-0.149
		c-0.033-0.045-0.069-0.09-0.105-0.139c-0.039-0.049-0.07-0.096-0.1-0.141c-0.028-0.043-0.057-0.09-0.082-0.139
		c-0.027-0.051-0.059-0.097-0.095-0.141c-0.038-0.043-0.079-0.096-0.126-0.158c-0.047-0.061-0.092-0.123-0.137-0.185
		c-0.044-0.062-0.076-0.114-0.096-0.158c-0.021-0.044-0.049-0.101-0.088-0.168c-0.038-0.069-0.066-0.129-0.086-0.181
		c-0.018-0.051-0.036-0.098-0.057-0.142c-0.02-0.042-0.035-0.087-0.048-0.133c-0.011-0.046-0.028-0.113-0.051-0.2
		c-0.022-0.089-0.046-0.172-0.067-0.248"/>
</g>
</svg>
