<?xml version="1.0" encoding="utf-8"?>
<!-- Generator: Adobe Illustrator 16.0.0, SVG Export Plug-In . SVG Version: 6.00 Build 0)  -->
<!DOCTYPE svg PUBLIC "-//W3C//DTD SVG 1.1//EN" "http://www.w3.org/Graphics/SVG/1.1/DTD/svg11.dtd">
<svg version="1.1" id="Layer_1" xmlns="http://www.w3.org/2000/svg" xmlns:xlink="http://www.w3.org/1999/xlink" x="0px" y="0px"
	 width="160px" height="160px" viewBox="0 0 160 160" enable-background="new 0 0 160 160" xml:space="preserve">
<g id="a14">
	
		<path fill="#FFEE11" stroke="#000000" stroke-width="1.7" stroke-linecap="round" stroke-linejoin="round" stroke-miterlimit="1.5" d="
		M49.442,73.979c-4.235-1.217-6.705-0.287-7.813,2.299c-0.86,3.777-0.854,7.474,0.513,11.048c1.911,2.668,4.053,4.588,6.447,5.695
		c1.697,4.027,6.65,5.867,12.132,7.354l0.731-1.77L70,100.824c4.619-2.637,5.736-8.612,6.552-11.141
		c0.96-2.974-1.637-3.679-3.316-4.465C67.233,82.408,49.442,73.979,49.442,73.979z"/>
	
		<path fill="none" stroke="#000000" stroke-width="1.7" stroke-linecap="round" stroke-linejoin="round" stroke-miterlimit="1.5" d="
		M63.058,94.301l-1.816,4.449"/>
	
		<circle fill="#FFFFFF" stroke="#000000" stroke-width="1.7" stroke-linecap="round" stroke-linejoin="round" stroke-miterlimit="1.5" cx="29.791" cy="70.763" r="2.455"/>
	
		<path fill="none" stroke="#000000" stroke-width="1.7" stroke-linecap="round" stroke-linejoin="round" stroke-miterlimit="1.5" d="
		M28.052,77.068c-0.875-0.179-1.726-0.546-2.491-1.112c-2.799-2.075-3.388-6.031-1.314-8.83c1.08-1.459,2.672-2.317,4.345-2.512"/>
	
		<path fill="none" stroke="#000000" stroke-width="1.7" stroke-linecap="round" stroke-linejoin="round" stroke-miterlimit="1.5" d="
		M25.229,81.652c-0.965-0.367-1.896-0.871-2.765-1.516c-5.108-3.783-6.183-11.001-2.399-16.108c1.578-2.13,3.754-3.56,6.125-4.226"
		/>
	
		<path fill="none" stroke="#000000" stroke-width="1.7" stroke-linecap="round" stroke-linejoin="round" stroke-miterlimit="1.5" d="
		M20.111,85.813c-0.419-0.259-0.83-0.537-1.233-0.834c-7.779-5.764-9.416-16.756-3.653-24.536c1.693-2.286,3.838-4.042,6.221-5.235"
		/>
	
		<path fill="none" stroke="#000000" stroke-width="1.7" stroke-linecap="round" stroke-linejoin="round" stroke-miterlimit="1.5" d="
		M32.203,71.936l9.365,5.353"/>
	
		<path fill="none" stroke="#000000" stroke-width="1.7" stroke-linecap="round" stroke-linejoin="round" stroke-miterlimit="1.5" d="
		M76.658,89.291c-0.773,1.217-1.81,2.088-4.185,1.219l-4.95-1.802l-2.538,1.487L58.1,86.41l-2.537-3.469
		c0,0-8.816-3.998-10.892-5.121c-2.842-1.541-0.775-3.698-0.775-3.698"/>
</g>
</svg>
