<?xml version="1.0" encoding="utf-8"?>
<!-- Generator: Adobe Illustrator 16.0.0, SVG Export Plug-In . SVG Version: 6.00 Build 0)  -->
<!DOCTYPE svg PUBLIC "-//W3C//DTD SVG 1.1//EN" "http://www.w3.org/Graphics/SVG/1.1/DTD/svg11.dtd">
<svg version="1.1" id="Layer_1" xmlns="http://www.w3.org/2000/svg" xmlns:xlink="http://www.w3.org/1999/xlink" x="0px" y="0px"
	 width="160px" height="160px" viewBox="0 0 160 160" enable-background="new 0 0 160 160" xml:space="preserve">
<g id="a19">
	
		<path fill="#11AA11" stroke="#000000" stroke-width="1.7" stroke-linecap="round" stroke-linejoin="round" stroke-miterlimit="1.5" d="
		M62.694,83.98l-14.045-7.246c-3.394-6.982-10.794-8.972-10.271-2.506c-6.556,3.816-15.063,6.416-19.822,7.704
		c-2.812,0.763-8.651-1.224-8.736,0.033c-0.35,5.168,8.541,7.606,8.541,7.606l-2.376,1.037c3.695,5.332,9.046,6.532,13.798,7.47
		l-5.551,0.843c4.652,6.105,10.324,5.762,16.918,6.193c0,0-3.399,1.322-2.792,2.316c2.133,3.504,9.372,2.766,15.29,0.188"/>
	
		<path fill="none" stroke="#000000" stroke-width="1.7" stroke-linecap="round" stroke-linejoin="round" stroke-miterlimit="1.5" d="
		M64.969,95.314C50.871,90.804,44.74,82.016,41.02,81.62c-5.789-0.616-10.629,6.202-21.018,5.007"/>
	
		<path fill="#11AA11" stroke="#000000" stroke-width="1.7" stroke-linecap="round" stroke-linejoin="round" stroke-miterlimit="1.5" d="
		M116.63,65.201l-0.01-2.024c2.224-1.429,3.757-0.876,4.281,2.57c10.789,5.241,21.17,1.315,21.92,3.492
		c0.904,2.633-4.583,6.983-4.583,6.983s1.649,0.589,1.544,1.241c-0.438,2.71-5.482,4.735-9.525,6.738c0,0,3.557-0.823,3.691,0.408
		c0.264,2.393-6.711,6.067-11.039,5.379c0,0,2.212,1.459,1.885,2.43c-0.847,2.518-8.023,2.737-8.023,2.737l-0.004-0.7
		c1.765-4.478,2.732-9.354,2.732-14.455C119.499,74.768,118.481,69.772,116.63,65.201z"/>
	
		<path fill="none" stroke="#000000" stroke-width="1.7" stroke-linecap="round" stroke-linejoin="round" stroke-miterlimit="1.5" d="
		M136.392,73.797c-5.396,0.766-10.453,0.053-14.981-2.965l-2.31,2.639"/>
</g>
</svg>
