<?xml version="1.0" encoding="utf-8"?>
<!-- Generator: Adobe Illustrator 16.0.0, SVG Export Plug-In . SVG Version: 6.00 Build 0)  -->
<!DOCTYPE svg PUBLIC "-//W3C//DTD SVG 1.1//EN" "http://www.w3.org/Graphics/SVG/1.1/DTD/svg11.dtd">
<svg version="1.1" id="Layer_1" xmlns="http://www.w3.org/2000/svg" xmlns:xlink="http://www.w3.org/1999/xlink" x="0px" y="0px"
	 width="160px" height="160px" viewBox="0 0 160 160" enable-background="new 0 0 160 160" xml:space="preserve">
<g id="a2">
	
		<path id="STROKE_C1A0D3B8.-1B5E.-468D.-A381.-8B5FA52BDBA4" fill="none" stroke="#000000" stroke-width="1.67" stroke-linecap="round" stroke-linejoin="round" d="
		M29.08,80.438c0.05-0.12,0.079-0.208,0.083-0.264c0.006-0.056-0.021-0.074-0.083-0.054c-0.061,0.02-0.113,0.058-0.16,0.114
		c-0.045,0.056-0.093,0.113-0.144,0.173c-0.051,0.06-0.104,0.122-0.16,0.188c-0.056,0.065-0.115,0.136-0.176,0.212
		c-0.061,0.074-0.123,0.152-0.184,0.232c-0.061,0.08-0.124,0.164-0.19,0.254c-0.065,0.09-0.116,0.162-0.152,0.219
		c-0.037,0.055-0.073,0.111-0.108,0.166c-0.035,0.055-0.068,0.112-0.1,0.172c-0.031,0.061-0.065,0.118-0.1,0.174
		c-0.035,0.057-0.07,0.117-0.106,0.182c-0.035,0.063-0.068,0.127-0.1,0.188c-0.031,0.061-0.062,0.129-0.092,0.204
		c-0.03,0.076-0.061,0.146-0.093,0.21c-0.031,0.064-0.062,0.133-0.092,0.203c-0.031,0.071-0.061,0.139-0.09,0.204
		c-0.03,0.065-0.059,0.132-0.084,0.196c-0.027,0.064-0.053,0.125-0.079,0.181c-0.026,0.056-0.055,0.119-0.085,0.188
		c-0.03,0.07-0.058,0.129-0.084,0.18c-0.026,0.05-0.057,0.111-0.093,0.181c-0.035,0.071-0.065,0.134-0.09,0.188
		c-0.025,0.057-0.053,0.114-0.085,0.174c-0.031,0.061-0.059,0.119-0.083,0.174c-0.025,0.055-0.051,0.109-0.077,0.165
		c-0.026,0.056-0.054,0.11-0.084,0.167s-0.058,0.109-0.085,0.159c-0.026,0.05-0.062,0.122-0.108,0.217
		c-0.044,0.095-0.086,0.185-0.122,0.271c-0.035,0.085-0.069,0.161-0.1,0.226c-0.032,0.064-0.058,0.125-0.079,0.182
		c-0.021,0.056-0.044,0.116-0.069,0.182c-0.025,0.063-0.05,0.124-0.076,0.179c-0.027,0.056-0.052,0.112-0.077,0.174
		c-0.025,0.062-0.051,0.116-0.077,0.167c-0.026,0.051-0.052,0.1-0.077,0.15c-0.025,0.05-0.053,0.105-0.084,0.164
		c-0.032,0.061-0.06,0.121-0.085,0.183c-0.025,0.06-0.042,0.118-0.053,0.173c-0.011,0.057-0.02,0.113-0.025,0.174
		c-0.005,0.06-0.008,0.123-0.008,0.188s-0.001,0.129-0.001,0.188c0,0.061,0.017,0.123,0.051,0.189
		c0.035,0.066,0.07,0.13,0.105,0.191c0.036,0.062,0.071,0.121,0.106,0.183c0.034,0.06,0.069,0.12,0.104,0.181
		c0.036,0.061,0.074,0.119,0.113,0.176c0.04,0.056,0.077,0.106,0.111,0.151c0.035,0.044,0.072,0.091,0.111,0.136
		c0.04,0.045,0.083,0.095,0.129,0.145c0.046,0.051,0.094,0.097,0.144,0.138c0.05,0.042,0.1,0.079,0.151,0.114
		c0.05,0.036,0.107,0.076,0.171,0.122s0.129,0.087,0.195,0.122c0.066,0.038,0.134,0.068,0.205,0.094
		c0.071,0.025,0.136,0.049,0.197,0.069c0.06,0.019,0.126,0.042,0.197,0.067c0.071,0.026,0.136,0.049,0.195,0.069
		c0.06,0.021,0.119,0.042,0.18,0.063c0.061,0.02,0.125,0.035,0.19,0.045c0.065,0.011,0.131,0.021,0.197,0.033
		c0.066,0.011,0.137,0.021,0.213,0.031c0.076,0.011,0.149,0.023,0.219,0.039s0.134,0.037,0.195,0.063
		c0.06,0.025,0.124,0.049,0.189,0.07c0.066,0.021,0.129,0.033,0.19,0.039s0.129,0.008,0.203,0.008c0.075,0,0.148-0.017,0.22-0.052
		c0.071-0.035,0.134-0.067,0.19-0.098s0.125-0.059,0.206-0.089c0.082-0.029,0.163-0.06,0.243-0.088
		c0.08-0.029,0.151-0.055,0.212-0.074c0.061-0.02,0.122-0.051,0.183-0.09c0.06-0.041,0.114-0.08,0.159-0.121
		c0.045-0.038,0.091-0.081,0.137-0.126c0.045-0.046,0.096-0.091,0.152-0.136c0.056-0.045,0.112-0.096,0.167-0.149
		c0.055-0.056,0.109-0.108,0.159-0.158c0.051-0.05,0.097-0.101,0.139-0.149c0.042-0.051,0.083-0.108,0.123-0.174
		c0.041-0.065,0.079-0.136,0.114-0.211c0.035-0.076,0.066-0.141,0.093-0.197c0.026-0.053,0.051-0.106,0.076-0.156
		c0.025-0.051,0.051-0.104,0.077-0.158s0.054-0.111,0.084-0.167s0.059-0.114,0.085-0.174c0.026-0.06,0.051-0.119,0.076-0.179
		c0.025-0.061,0.051-0.125,0.078-0.197c0.026-0.069,0.049-0.139,0.07-0.203c0.022-0.066,0.045-0.135,0.07-0.205
		c0.025-0.07,0.048-0.14,0.069-0.21c0.021-0.07,0.037-0.132,0.048-0.188c0.011-0.057,0.018-0.117,0.022-0.182l0.007-0.098"/>
	
		<path id="STROKE_23ABA56C.-B94D.-452B.-9DAE.-979BD4DC5B9D" fill="none" stroke="#000000" stroke-width="1.67" stroke-linecap="round" stroke-linejoin="round" d="
		M36.842,79.343c-0.122,0.029-0.226,0.042-0.313,0.042l-2.772-0.019c-0.106-0.001-0.209-0.004-0.31-0.01
		c-0.101-0.005-0.202-0.011-0.302-0.016c-0.101-0.006-0.202-0.009-0.302-0.01c-0.101,0-0.207,0-0.318-0.002
		c-0.111,0-0.215-0.006-0.31-0.016c-0.096-0.011-0.194-0.024-0.294-0.04c-0.101-0.016-0.2-0.033-0.297-0.049
		c-0.096-0.017-0.19-0.029-0.28-0.039c-0.091-0.011-0.179-0.019-0.266-0.024c-0.087-0.005-0.17-0.008-0.25-0.01
		c-0.08,0-0.156,0-0.227,0c-0.071-0.001-0.139,0-0.206,0.005c-0.065,0.005-0.128,0.011-0.188,0.021
		c-0.059,0.009-0.119,0.024-0.18,0.044c-0.061,0.021-0.119,0.035-0.175,0.045c-0.055,0.01-0.119,0.022-0.189,0.036
		c-0.071,0.014-0.14,0.024-0.205,0.028c-0.066,0.005-0.117,0.04-0.152,0.104l-0.053,0.098"/>
	
		<path id="STROKE_61CC324C.-8237.-4605.-B0C4.-B7C90F5C1AE1" fill="none" stroke="#000000" stroke-width="1.67" stroke-linecap="round" stroke-linejoin="round" d="
		M37.187,79.284c0.1,0.051,0.181,0.092,0.242,0.123c0.06,0.03,0.115,0.058,0.165,0.084c0.051,0.025,0.104,0.06,0.159,0.1
		c0.055,0.041,0.115,0.084,0.181,0.13c0.065,0.046,0.121,0.089,0.166,0.129c0.045,0.04,0.095,0.083,0.149,0.129
		c0.056,0.046,0.11,0.094,0.166,0.145c0.055,0.051,0.116,0.107,0.181,0.168c0.066,0.062,0.132,0.123,0.197,0.183
		c0.064,0.061,0.136,0.125,0.212,0.191c0.076,0.066,0.148,0.132,0.217,0.197c0.07,0.065,0.142,0.132,0.218,0.197
		c0.076,0.067,0.149,0.133,0.22,0.199c0.07,0.064,0.137,0.133,0.201,0.204c0.065,0.071,0.129,0.14,0.195,0.206
		s0.128,0.127,0.188,0.184c0.061,0.055,0.119,0.11,0.173,0.166c0.055,0.055,0.107,0.106,0.157,0.152
		c0.051,0.046,0.103,0.09,0.159,0.13c0.055,0.041,0.113,0.08,0.173,0.115c0.061,0.034,0.119,0.071,0.174,0.106
		c0.055,0.037,0.113,0.067,0.174,0.093c0.06,0.026,0.121,0.052,0.181,0.077c0.061,0.025,0.119,0.049,0.174,0.068
		c0.056,0.02,0.121,0.051,0.195,0.092c0.075,0.041,0.145,0.084,0.211,0.131c0.065,0.046,0.125,0.094,0.181,0.145
		c0.055,0.051,0.11,0.104,0.165,0.16c0.056,0.055,0.108,0.109,0.158,0.158c0.05,0.052,0.095,0.098,0.135,0.139
		c0.041,0.041,0.083,0.08,0.129,0.121c0.046,0.039,0.088,0.08,0.129,0.121c0.039,0.042,0.077,0.087,0.111,0.138
		c0.035,0.051,0.067,0.101,0.098,0.152c0.031,0.05,0.053,0.103,0.067,0.159c0.013,0.055,0.023,0.113,0.028,0.174
		c0.004,0.061,0.009,0.122,0.014,0.182c0.005,0.061,0.009,0.133,0.014,0.219c0.004,0.084,0.012,0.158,0.021,0.219
		c0.01,0.062,0.02,0.135,0.03,0.219c0.01,0.087,0.02,0.164,0.03,0.236c0.009,0.07,0.016,0.139,0.019,0.205
		c0.004,0.064,0.004,0.133,0.004,0.205l-0.008,1.154c0,0.066-0.006,0.126-0.015,0.181c-0.009,0.056-0.022,0.116-0.038,0.183
		c-0.016,0.064-0.037,0.131-0.063,0.195c-0.027,0.064-0.045,0.127-0.054,0.188s-0.019,0.124-0.03,0.189
		c-0.011,0.065-0.027,0.132-0.047,0.202c-0.021,0.07-0.047,0.139-0.077,0.205c-0.03,0.065-0.056,0.125-0.077,0.18
		s-0.047,0.108-0.077,0.158c-0.03,0.052-0.063,0.102-0.099,0.152c-0.037,0.049-0.075,0.098-0.116,0.143
		c-0.04,0.045-0.078,0.09-0.113,0.135c-0.035,0.046-0.073,0.092-0.115,0.145c-0.042,0.049-0.086,0.092-0.131,0.127
		c-0.045,0.033-0.093,0.065-0.145,0.096c-0.05,0.029-0.098,0.062-0.144,0.098c-0.046,0.035-0.091,0.072-0.136,0.113
		c-0.046,0.041-0.089,0.08-0.128,0.119c-0.041,0.041-0.082,0.08-0.124,0.121c-0.042,0.041-0.083,0.08-0.123,0.119
		c-0.04,0.04-0.086,0.072-0.136,0.098c-0.051,0.023-0.101,0.055-0.152,0.09c-0.051,0.035-0.104,0.065-0.16,0.09
		c-0.055,0.025-0.116,0.05-0.182,0.075c-0.066,0.024-0.132,0.054-0.198,0.089c-0.067,0.033-0.127,0.061-0.183,0.081
		c-0.056,0.021-0.111,0.038-0.167,0.053s-0.119,0.032-0.188,0.052c-0.07,0.019-0.133,0.03-0.188,0.035
		c-0.056,0.006-0.117,0.008-0.183,0.008l-1.007-0.007c-0.082-0.001-0.155,0.001-0.221,0.007c-0.066,0.004-0.129,0.008-0.189,0.012
		c-0.062,0.004-0.117,0.02-0.167,0.045c-0.051,0.024-0.106,0.039-0.165,0.044l-0.089,0.006"/>
	
		<path id="STROKE_1AECC960.-8BE9.-4C63.-A090.-84FA90433351" fill="none" stroke="#000000" stroke-width="1.67" stroke-linecap="round" stroke-linejoin="round" d="
		M26.477,80.208c0.111-0.017,0.195-0.032,0.25-0.042c0.056-0.01,0.056-0.01,0,0c-0.055,0.01-0.124,0.02-0.205,0.029
		c-0.081,0.009-0.155,0.019-0.221,0.029c-0.066,0.01-0.134,0.02-0.204,0.029c-0.07,0.01-0.143,0.019-0.219,0.029
		c-0.076,0.01-0.157,0.017-0.242,0.022c-0.085,0.004-0.171,0.006-0.258,0.005c-0.087,0-0.175,0.001-0.266,0.006
		c-0.09,0.004-0.179,0.006-0.266,0.005c-0.087,0-0.172-0.001-0.258-0.001c-0.085-0.001-0.168,0.003-0.248,0.012
		c-0.08,0.009-0.158,0.017-0.233,0.021c-0.078,0.005-0.153,0.012-0.229,0.022c-0.077,0.01-0.15,0.016-0.219,0.021
		c-0.07,0.004-0.138,0.009-0.205,0.013c-0.065,0.003-0.139,0.006-0.221,0.006l-0.651-0.005c-0.06,0-0.119,0.002-0.174,0.008
		c-0.056,0.005-0.109,0.02-0.159,0.045c-0.051,0.025-0.096,0.057-0.137,0.098c-0.04,0.038-0.073,0.084-0.1,0.133
		c-0.026,0.051-0.045,0.104-0.061,0.158c-0.014,0.055-0.035,0.111-0.061,0.168c-0.026,0.056-0.052,0.108-0.079,0.158
		c-0.025,0.051-0.051,0.104-0.077,0.158c-0.025,0.055-0.055,0.109-0.089,0.165c-0.037,0.055-0.074,0.11-0.117,0.165
		c-0.041,0.055-0.08,0.113-0.115,0.174c-0.036,0.061-0.066,0.115-0.093,0.166c-0.026,0.05-0.054,0.102-0.083,0.15
		c-0.03,0.051-0.059,0.101-0.084,0.15c-0.025,0.051-0.052,0.102-0.077,0.151c-0.025,0.05-0.048,0.103-0.069,0.157
		c-0.021,0.056-0.038,0.113-0.053,0.173c-0.016,0.06-0.03,0.12-0.046,0.183c-0.016,0.061-0.029,0.117-0.04,0.173
		c-0.011,0.056-0.021,0.11-0.032,0.165c-0.011,0.055-0.022,0.116-0.032,0.182c-0.011,0.066-0.019,0.137-0.025,0.213
		c-0.006,0.074-0.009,0.146-0.009,0.211l-0.006,0.785c0,0.065,0.001,0.131,0.007,0.197c0.005,0.066,0.012,0.127,0.022,0.183
		c0.01,0.055,0.02,0.116,0.03,0.182c0.01,0.065,0.019,0.137,0.029,0.212c0.01,0.076,0.023,0.146,0.037,0.211
		c0.015,0.064,0.03,0.133,0.044,0.204c0.014,0.071,0.025,0.14,0.035,0.205c0.01,0.065,0.02,0.127,0.03,0.183
		c0.01,0.055,0.02,0.12,0.029,0.195c0.01,0.076,0.02,0.141,0.028,0.197c0.009,0.055,0.023,0.113,0.044,0.174
		c0.02,0.063,0.05,0.122,0.089,0.184c0.04,0.06,0.075,0.119,0.106,0.181c0.03,0.06,0.055,0.121,0.074,0.182
		c0.019,0.062,0.034,0.119,0.043,0.175c0.01,0.056,0.015,0.112,0.015,0.172c-0.001,0.062-0.006,0.119-0.017,0.176
		c-0.011,0.056-0.031,0.111-0.061,0.166s-0.058,0.113-0.085,0.173c-0.026,0.06-0.051,0.122-0.077,0.188
		c-0.025,0.065-0.051,0.123-0.076,0.174c-0.026,0.05-0.052,0.104-0.077,0.164c-0.025,0.061-0.05,0.123-0.078,0.189
		c-0.025,0.064-0.049,0.133-0.069,0.203c-0.02,0.072-0.038,0.148-0.054,0.234c-0.016,0.086-0.029,0.172-0.04,0.258
		c-0.011,0.086-0.022,0.164-0.033,0.234c-0.011,0.07-0.019,0.137-0.025,0.196c-0.005,0.06-0.008,0.12-0.009,0.181l-0.003,0.574
		c-0.001,0.062-0.003,0.123-0.008,0.189c-0.004,0.066-0.011,0.131-0.022,0.195c-0.011,0.065-0.019,0.13-0.024,0.196
		c-0.006,0.065-0.01,0.129-0.01,0.188l-0.01,1.506c-0.001,0.076,0.006,0.148,0.021,0.22c0.016,0.071,0.027,0.136,0.036,0.197
		c0.009,0.06,0.02,0.12,0.036,0.18s0.027,0.118,0.037,0.175c0.01,0.057,0.025,0.122,0.045,0.198
		c0.021,0.075,0.045,0.144,0.074,0.204c0.03,0.061,0.059,0.115,0.088,0.166c0.03,0.051,0.057,0.104,0.083,0.158
		c0.025,0.056,0.053,0.115,0.082,0.176c0.029,0.061,0.054,0.124,0.074,0.189c0.021,0.064,0.045,0.136,0.075,0.211
		c0.03,0.076,0.059,0.146,0.09,0.213c0.03,0.066,0.063,0.129,0.098,0.189c0.034,0.061,0.066,0.121,0.097,0.182
		c0.031,0.063,0.055,0.123,0.074,0.183c0.019,0.06,0.039,0.121,0.059,0.183c0.02,0.061,0.043,0.124,0.068,0.189
		c0.026,0.064,0.051,0.126,0.075,0.182c0.023,0.057,0.053,0.115,0.088,0.176c0.034,0.059,0.069,0.121,0.105,0.18
		c0.036,0.061,0.066,0.127,0.089,0.197c0.024,0.071,0.055,0.135,0.09,0.189c0.035,0.057,0.071,0.113,0.105,0.176
		c0.034,0.061,0.069,0.119,0.103,0.174c0.035,0.057,0.073,0.111,0.114,0.168c0.041,0.055,0.081,0.105,0.121,0.152
		c0.039,0.044,0.084,0.09,0.134,0.137c0.051,0.045,0.096,0.088,0.135,0.131c0.04,0.039,0.08,0.08,0.119,0.121
		c0.04,0.039,0.086,0.084,0.137,0.136c0.051,0.051,0.099,0.097,0.144,0.138s0.093,0.079,0.143,0.113
		c0.05,0.035,0.106,0.068,0.166,0.1c0.061,0.03,0.121,0.063,0.181,0.101c0.061,0.036,0.123,0.073,0.188,0.114
		c0.063,0.039,0.119,0.075,0.165,0.106c0.047,0.032,0.098,0.069,0.153,0.116c0.055,0.045,0.107,0.092,0.158,0.136
		c0.05,0.045,0.097,0.088,0.142,0.128c0.045,0.042,0.095,0.078,0.151,0.107c0.055,0.031,0.113,0.064,0.173,0.102
		c0.061,0.036,0.116,0.068,0.166,0.1c0.051,0.03,0.103,0.061,0.159,0.092c0.055,0.029,0.11,0.063,0.165,0.098
		c0.056,0.035,0.109,0.068,0.159,0.1c0.05,0.031,0.103,0.065,0.158,0.1c0.055,0.035,0.116,0.066,0.182,0.092
		c0.065,0.025,0.126,0.049,0.181,0.07c0.056,0.021,0.118,0.035,0.188,0.045c0.07,0.01,0.136,0.021,0.195,0.032
		c0.062,0.012,0.119,0.022,0.175,0.032c0.055,0.01,0.113,0.023,0.174,0.039s0.119,0.031,0.174,0.046
		c0.055,0.015,0.113,0.022,0.174,0.023l0.364,0.002c0.061,0.001,0.121,0.004,0.182,0.009c0.062,0.005,0.121,0.008,0.18,0.008
		l0.758,0.006c0.062,0,0.121-0.007,0.182-0.021c0.061-0.015,0.122-0.028,0.183-0.044c0.06-0.016,0.119-0.027,0.174-0.037
		c0.056-0.009,0.118-0.014,0.188-0.014c0.07,0.002,0.138-0.006,0.204-0.021l0.098-0.021"/>
	
		<path id="STROKE_76E2E787.-208D.-452A.-B9D3.-3D924F0AFD29" fill="none" stroke="#000000" stroke-width="1.67" stroke-linecap="round" stroke-linejoin="round" d="
		M29.729,100.596c0.132-0.009,0.223-0.025,0.274-0.051c0.05-0.023,0.103-0.047,0.159-0.066c0.055-0.021,0.111-0.043,0.167-0.068
		c0.056-0.023,0.111-0.049,0.167-0.073c0.056-0.024,0.114-0.052,0.175-0.082c0.061-0.028,0.122-0.06,0.183-0.089
		c0.061-0.029,0.119-0.063,0.175-0.098c0.055-0.035,0.108-0.07,0.159-0.104c0.051-0.035,0.104-0.069,0.16-0.104
		c0.056-0.033,0.111-0.066,0.167-0.098c0.057-0.029,0.107-0.063,0.152-0.097c0.046-0.034,0.091-0.072,0.136-0.113
		c0.046-0.04,0.089-0.086,0.129-0.136c0.041-0.051,0.082-0.098,0.123-0.141c0.042-0.045,0.088-0.08,0.139-0.105
		c0.05-0.026,0.101-0.061,0.151-0.105c0.05-0.043,0.098-0.084,0.144-0.119c0.045-0.037,0.093-0.07,0.144-0.105
		c0.05-0.034,0.101-0.064,0.151-0.09c0.051-0.024,0.104-0.045,0.16-0.059c0.055-0.016,0.114-0.031,0.174-0.045
		c0.061-0.014,0.122-0.025,0.183-0.035c0.061-0.012,0.126-0.016,0.196-0.016l0.424,0.003c0.071,0,0.139,0.003,0.205,0.009
		s0.129,0.016,0.19,0.031s0.121,0.032,0.18,0.049c0.059,0.016,0.119,0.03,0.18,0.045c0.061,0.016,0.118,0.031,0.174,0.048
		c0.055,0.016,0.113,0.03,0.174,0.046c0.06,0.015,0.118,0.027,0.174,0.039c0.055,0.011,0.114,0.021,0.174,0.031
		c0.061,0.01,0.119,0.023,0.174,0.039c0.056,0.016,0.111,0.034,0.166,0.055c0.056,0.021,0.111,0.041,0.167,0.061
		c0.055,0.02,0.113,0.04,0.174,0.061c0.06,0.021,0.121,0.045,0.181,0.07c0.061,0.025,0.119,0.051,0.174,0.076
		c0.056,0.025,0.111,0.051,0.166,0.077c0.056,0.025,0.107,0.051,0.159,0.075c0.05,0.026,0.108,0.053,0.173,0.078
		c0.066,0.025,0.134,0.049,0.203,0.069c0.07,0.021,0.142,0.039,0.211,0.056c0.071,0.016,0.135,0.031,0.189,0.045
		c0.055,0.016,0.113,0.031,0.174,0.048c0.061,0.016,0.124,0.032,0.19,0.047c0.065,0.017,0.129,0.03,0.189,0.04
		c0.061,0.01,0.119,0.02,0.174,0.03c0.056,0.01,0.116,0.024,0.18,0.046c0.065,0.021,0.125,0.039,0.18,0.055
		c0.056,0.016,0.114,0.034,0.174,0.055c0.061,0.021,0.126,0.041,0.197,0.062c0.071,0.021,0.145,0.04,0.221,0.061
		c0.076,0.021,0.149,0.042,0.218,0.063c0.07,0.021,0.135,0.041,0.195,0.063c0.061,0.021,0.119,0.039,0.173,0.053
		c0.056,0.016,0.114,0.031,0.175,0.047c0.06,0.016,0.123,0.033,0.189,0.055c0.065,0.021,0.134,0.042,0.205,0.063
		c0.071,0.021,0.144,0.043,0.219,0.07c0.074,0.025,0.14,0.045,0.195,0.061c0.055,0.015,0.124,0.033,0.205,0.054
		c0.082,0.021,0.159,0.044,0.234,0.069c0.075,0.025,0.147,0.051,0.218,0.078c0.071,0.025,0.14,0.053,0.205,0.084
		c0.066,0.029,0.134,0.061,0.205,0.093c0.072,0.031,0.141,0.065,0.21,0.1c0.07,0.036,0.143,0.065,0.219,0.093
		c0.076,0.025,0.141,0.051,0.197,0.076c0.055,0.025,0.111,0.049,0.166,0.069c0.055,0.021,0.108,0.044,0.158,0.069l0.302,0.153
		c0.05,0.025,0.113,0.056,0.189,0.091c0.076,0.035,0.151,0.066,0.226,0.092c0.075,0.025,0.148,0.051,0.219,0.078
		c0.07,0.024,0.141,0.049,0.212,0.068c0.071,0.021,0.141,0.045,0.21,0.07c0.069,0.025,0.14,0.052,0.211,0.076
		c0.07,0.027,0.141,0.047,0.212,0.063c0.071,0.017,0.147,0.034,0.227,0.054s0.146,0.035,0.203,0.047
		c0.055,0.011,0.113,0.021,0.174,0.031c0.061,0.01,0.124,0.023,0.188,0.039c0.066,0.017,0.132,0.029,0.199,0.039
		c0.066,0.01,0.128,0.021,0.189,0.032c0.06,0.011,0.122,0.024,0.182,0.038c0.061,0.016,0.128,0.033,0.202,0.055
		c0.075,0.02,0.146,0.041,0.211,0.063c0.066,0.021,0.127,0.039,0.182,0.055c0.056,0.016,0.116,0.029,0.182,0.039
		c0.066,0.01,0.139,0.016,0.219,0.016l2.106,0.015c0.061,0.001,0.123-0.005,0.188-0.013c0.065-0.01,0.127-0.02,0.188-0.029
		s0.125-0.021,0.19-0.029c0.065-0.01,0.128-0.014,0.189-0.014s0.129-0.002,0.206-0.006c0.076-0.004,0.151-0.007,0.226-0.006
		c0.075,0,0.143,0.002,0.204,0.002c0.06,0,0.121-0.003,0.182-0.008s0.128-0.013,0.205-0.021c0.077-0.01,0.143-0.02,0.198-0.029
		c0.056-0.011,0.114-0.018,0.173-0.021c0.059-0.006,0.123-0.01,0.188-0.014c0.065-0.005,0.131-0.012,0.197-0.021
		c0.066-0.009,0.132-0.018,0.197-0.022c0.066-0.005,0.139-0.012,0.22-0.021s0.155-0.017,0.227-0.021
		c0.071-0.004,0.14-0.014,0.206-0.028c0.065-0.016,0.129-0.035,0.189-0.061c0.062-0.023,0.125-0.053,0.191-0.081
		c0.066-0.03,0.131-0.052,0.196-0.067c0.065-0.015,0.132-0.027,0.204-0.037c0.071-0.009,0.144-0.012,0.221-0.012
		c0.076,0,0.144-0.004,0.205-0.014l0.091-0.014"/>
	
		<path id="STROKE_E24B4BEC.-1F90.-47E8.-90B0.-AA4C03F5A4B1" fill="none" stroke="#000000" stroke-width="1.67" stroke-linecap="round" stroke-linejoin="round" d="
		M43.348,86.131c0.122,0.01,0.204,0.036,0.244,0.076c0.041,0.042,0.084,0.085,0.129,0.13c0.045,0.044,0.087,0.09,0.127,0.136
		c0.04,0.046,0.084,0.092,0.135,0.137c0.05,0.047,0.105,0.094,0.165,0.146c0.061,0.05,0.126,0.104,0.197,0.159
		c0.071,0.056,0.146,0.108,0.225,0.159c0.08,0.052,0.145,0.09,0.195,0.115c0.05,0.025,0.102,0.055,0.151,0.086
		s0.106,0.064,0.166,0.1c0.06,0.035,0.119,0.065,0.174,0.091c0.055,0.026,0.113,0.056,0.174,0.091c0.06,0.037,0.121,0.069,0.181,0.1
		c0.061,0.032,0.121,0.066,0.181,0.102c0.061,0.035,0.121,0.068,0.182,0.098c0.061,0.031,0.126,0.066,0.197,0.107
		c0.071,0.043,0.136,0.08,0.195,0.115c0.059,0.035,0.121,0.07,0.187,0.107c0.065,0.037,0.134,0.069,0.204,0.1
		c0.071,0.031,0.142,0.063,0.213,0.1c0.071,0.035,0.137,0.065,0.197,0.091c0.061,0.026,0.131,0.055,0.211,0.087
		c0.08,0.031,0.158,0.059,0.233,0.086c0.076,0.024,0.149,0.047,0.219,0.068c0.07,0.02,0.142,0.039,0.219,0.061
		c0.076,0.021,0.149,0.043,0.22,0.07c0.072,0.025,0.14,0.045,0.206,0.062s0.139,0.035,0.219,0.056
		c0.08,0.021,0.155,0.041,0.226,0.061c0.071,0.021,0.145,0.039,0.218,0.055c0.075,0.016,0.148,0.033,0.219,0.055
		s0.142,0.038,0.213,0.053c0.071,0.016,0.137,0.031,0.197,0.047c0.061,0.017,0.128,0.032,0.203,0.049
		c0.075,0.016,0.14,0.031,0.196,0.045c0.055,0.016,0.113,0.031,0.174,0.047c0.06,0.016,0.118,0.035,0.173,0.055
		c0.056,0.021,0.111,0.039,0.167,0.055c0.055,0.015,0.126,0.037,0.212,0.067c0.087,0.031,0.167,0.067,0.242,0.108
		c0.075,0.041,0.142,0.078,0.203,0.115c0.06,0.035,0.118,0.072,0.173,0.113c0.056,0.041,0.108,0.082,0.158,0.123
		c0.051,0.041,0.103,0.086,0.158,0.131c0.055,0.047,0.106,0.09,0.15,0.129c0.046,0.041,0.086,0.084,0.122,0.129l0.054,0.068"/>
	
		<path id="STROKE_1D53760D.-2F27.-465A.-BEA1.-61CD6E8C67F4" fill="none" stroke="#000000" stroke-width="1.67" stroke-linecap="round" stroke-linejoin="round" d="
		M118.437,76.036c0.123-0.041,0.213-0.096,0.267-0.164c0.055-0.067,0.109-0.135,0.164-0.203c0.055-0.068,0.11-0.139,0.167-0.214
		c0.057-0.074,0.112-0.152,0.167-0.233c0.055-0.08,0.112-0.165,0.175-0.254c0.061-0.089,0.123-0.181,0.186-0.276
		c0.062-0.095,0.123-0.187,0.186-0.275c0.062-0.086,0.107-0.154,0.135-0.203c0.028-0.049,0.066-0.113,0.113-0.194
		c0.049-0.081,0.09-0.155,0.126-0.224c0.034-0.068,0.069-0.136,0.104-0.203c0.034-0.068,0.063-0.13,0.094-0.185
		c0.027-0.055,0.056-0.109,0.085-0.164c0.027-0.055,0.063-0.12,0.104-0.194c0.041-0.076,0.075-0.144,0.104-0.205
		c0.028-0.062,0.06-0.127,0.093-0.195c0.034-0.068,0.067-0.131,0.104-0.192c0.034-0.06,0.066-0.117,0.094-0.172
		c0.029-0.055,0.061-0.106,0.094-0.153s0.078-0.087,0.132-0.121c0.055-0.034,0.106-0.064,0.155-0.092
		c0.05-0.027,0.105-0.057,0.166-0.091c0.063-0.034,0.123-0.064,0.185-0.091s0.119-0.054,0.174-0.082
		c0.054-0.027,0.112-0.054,0.173-0.081c0.063-0.027,0.125-0.054,0.188-0.081c0.063-0.027,0.127-0.051,0.187-0.07
		c0.062-0.019,0.12-0.039,0.173-0.06c0.056-0.021,0.113-0.038,0.174-0.05c0.062-0.012,0.123-0.026,0.186-0.04
		c0.061-0.014,0.119-0.027,0.176-0.04c0.056-0.013,0.113-0.019,0.176-0.018c0.061,0,0.129-0.006,0.204-0.018
		c0.076-0.013,0.144-0.023,0.204-0.03c0.063-0.007,0.119-0.021,0.174-0.041c0.055-0.019,0.113-0.036,0.174-0.049
		c0.062-0.014,0.12-0.027,0.176-0.04c0.057-0.013,0.111-0.029,0.166-0.05c0.054-0.021,0.111-0.034,0.173-0.04
		s0.126-0.012,0.194-0.018c0.068-0.006,0.133-0.012,0.195-0.019c0.061-0.006,0.119-0.009,0.176-0.008
		c0.055,0,0.11-0.007,0.164-0.021c0.055-0.013,0.117-0.023,0.185-0.03c0.067-0.006,0.133-0.019,0.194-0.038
		c0.063-0.019,0.118-0.036,0.174-0.05c0.055-0.014,0.109-0.031,0.165-0.05s0.112-0.039,0.166-0.06
		c0.054-0.021,0.108-0.041,0.163-0.063c0.054-0.02,0.115-0.037,0.184-0.05c0.068-0.012,0.138-0.022,0.205-0.028
		c0.068-0.006,0.131-0.009,0.187-0.008c0.056,0,0.114-0.003,0.175-0.009c0.063-0.006,0.127-0.013,0.195-0.02
		c0.067-0.008,0.137-0.011,0.205-0.011c0.068,0.001,0.133,0.001,0.193,0.001c0.062,0,0.126-0.005,0.194-0.018
		c0.067-0.013,0.137-0.025,0.205-0.038c0.067-0.012,0.133-0.026,0.193-0.04c0.063-0.015,0.124-0.024,0.185-0.03
		c0.062-0.006,0.123-0.012,0.188-0.018c0.063-0.007,0.124-0.013,0.186-0.019c0.061-0.006,0.123-0.009,0.184-0.008
		c0.061,0,0.126,0.001,0.194,0.001c0.068,0.001,0.133-0.003,0.193-0.01c0.062-0.008,0.124-0.011,0.185-0.011
		s0.123,0.001,0.186,0.001c0.063,0.001,0.121,0.018,0.176,0.053c0.053,0.034,0.104,0.076,0.15,0.125
		c0.048,0.049,0.102,0.1,0.162,0.154c0.061,0.055,0.125,0.109,0.193,0.165c0.067,0.055,0.125,0.107,0.174,0.154
		c0.05,0.047,0.101,0.099,0.154,0.154c0.055,0.056,0.111,0.114,0.172,0.176s0.118,0.128,0.172,0.196
		c0.054,0.069,0.111,0.145,0.175,0.226c0.062,0.081,0.124,0.167,0.185,0.257c0.061,0.089,0.117,0.182,0.171,0.278
		c0.054,0.096,0.098,0.171,0.132,0.225c0.035,0.054,0.075,0.13,0.123,0.226c0.046,0.097,0.083,0.168,0.11,0.217
		s0.064,0.117,0.11,0.205c0.048,0.088,0.088,0.167,0.12,0.235c0.032,0.069,0.069,0.134,0.112,0.196
		c0.041,0.062,0.082,0.124,0.121,0.186c0.04,0.061,0.077,0.116,0.111,0.163c0.035,0.048,0.072,0.096,0.112,0.145
		c0.04,0.049,0.077,0.1,0.111,0.154c0.036,0.054,0.066,0.109,0.093,0.164c0.028,0.055,0.052,0.114,0.07,0.176
		c0.02,0.061,0.039,0.123,0.059,0.185c0.021,0.062,0.039,0.127,0.052,0.195c0.014,0.068,0.024,0.133,0.03,0.192
		c0.007,0.061,0.013,0.121,0.02,0.183c0.007,0.063,0.012,0.127,0.018,0.195c0.004,0.068,0.007,0.133,0.007,0.195l-0.005,0.657
		c0,0.075-0.005,0.156-0.009,0.244c-0.007,0.088-0.017,0.162-0.031,0.224c-0.015,0.062-0.032,0.123-0.055,0.185
		c-0.021,0.061-0.038,0.123-0.053,0.184c-0.015,0.063-0.032,0.13-0.052,0.206c-0.02,0.074-0.039,0.142-0.061,0.204
		c-0.022,0.061-0.043,0.123-0.065,0.184c-0.021,0.063-0.046,0.133-0.075,0.214c-0.027,0.081-0.052,0.149-0.072,0.204
		c-0.019,0.055-0.05,0.113-0.092,0.175c-0.043,0.061-0.088,0.122-0.136,0.182c-0.047,0.061-0.092,0.111-0.136,0.152
		c-0.041,0.042-0.087,0.086-0.134,0.133c-0.048,0.047-0.095,0.098-0.144,0.153c-0.047,0.055-0.096,0.102-0.145,0.142
		c-0.05,0.041-0.104,0.079-0.166,0.111c-0.062,0.034-0.119,0.062-0.174,0.081c-0.054,0.019-0.111,0.036-0.174,0.049
		c-0.061,0.014-0.122,0.021-0.184,0.021l-1.201-0.008c-0.068,0-0.129-0.012-0.184-0.033c-0.054-0.021-0.111-0.035-0.173-0.042
		c-0.061-0.007-0.12-0.014-0.177-0.021c-0.054-0.007-0.109-0.018-0.162-0.033c-0.056-0.015-0.117-0.032-0.185-0.052
		c-0.067-0.021-0.124-0.048-0.173-0.083c-0.046-0.034-0.09-0.079-0.133-0.134c-0.041-0.055-0.082-0.11-0.123-0.164
		c-0.038-0.054-0.08-0.102-0.121-0.144c-0.042-0.043-0.086-0.081-0.133-0.115c-0.047-0.036-0.098-0.069-0.152-0.104
		c-0.053-0.034-0.107-0.075-0.161-0.123c-0.055-0.047-0.108-0.096-0.164-0.145c-0.057-0.049-0.107-0.1-0.154-0.154
		c-0.048-0.053-0.087-0.108-0.122-0.164c-0.035-0.055-0.068-0.109-0.101-0.164c-0.033-0.054-0.067-0.105-0.101-0.154
		c-0.035-0.049-0.073-0.097-0.113-0.145c-0.039-0.047-0.08-0.091-0.123-0.132c-0.04-0.041-0.088-0.076-0.143-0.104
		c-0.053-0.027-0.107-0.052-0.163-0.074c-0.054-0.021-0.11-0.032-0.172-0.032c-0.061-0.001-0.116,0.013-0.166,0.041
		c-0.048,0.027-0.095,0.061-0.134,0.101c-0.041,0.041-0.082,0.085-0.125,0.133c-0.042,0.049-0.08,0.104-0.113,0.163
		c-0.033,0.061-0.064,0.121-0.092,0.182c-0.029,0.062-0.048,0.126-0.056,0.194c-0.007,0.069-0.021,0.135-0.04,0.195
		c-0.021,0.062-0.037,0.12-0.051,0.175c-0.015,0.055-0.031,0.109-0.055,0.163c-0.021,0.053-0.041,0.108-0.063,0.163
		c-0.021,0.055-0.042,0.109-0.062,0.164c-0.02,0.055-0.043,0.113-0.072,0.173c-0.027,0.06-0.05,0.121-0.063,0.183
		c-0.015,0.061-0.034,0.119-0.063,0.174c-0.026,0.055-0.064,0.103-0.114,0.142c-0.048,0.042-0.09,0.088-0.123,0.144
		c-0.034,0.055-0.068,0.109-0.104,0.162c-0.035,0.054-0.063,0.108-0.084,0.163c-0.022,0.055-0.054,0.103-0.094,0.143
		c-0.041,0.041-0.081,0.081-0.121,0.122c-0.04,0.04-0.09,0.07-0.146,0.091c-0.057,0.021-0.111,0.044-0.165,0.073
		c-0.055,0.027-0.109,0.061-0.164,0.101s-0.109,0.074-0.163,0.101c-0.054,0.027-0.113,0.055-0.177,0.082
		c-0.063,0.026-0.129,0.051-0.197,0.069c-0.067,0.019-0.133,0.032-0.193,0.038c-0.062,0.006-0.127,0.014-0.195,0.02
		c-0.068,0.008-0.144,0.012-0.226,0.01c-0.082,0-0.164,0.004-0.247,0.01c-0.082,0.006-0.154,0.016-0.215,0.027l-0.092,0.02"/>
	
		<path id="STROKE_C0F919C1.-4FED.-4018.-A415.-3334E73BEB7A" fill="none" stroke="#000000" stroke-width="1.67" stroke-linecap="round" stroke-linejoin="round" d="
		M132.3,72.038c-0.052-0.11-0.076-0.197-0.076-0.258c0-0.062,0.03-0.103,0.091-0.124c0.063-0.02,0.128-0.033,0.195-0.039
		c0.067-0.007,0.134-0.009,0.194-0.009l0.882,0.006c0.075,0,0.149,0.003,0.226,0.011c0.074,0.008,0.149,0.011,0.225,0.012
		l0.819,0.005c0.06,0.001,0.119,0.008,0.175,0.023s0.124,0.036,0.206,0.064c0.083,0.029,0.15,0.057,0.205,0.084
		c0.054,0.027,0.104,0.063,0.152,0.104c0.046,0.041,0.096,0.079,0.15,0.113c0.054,0.035,0.108,0.069,0.165,0.104
		c0.055,0.034,0.113,0.069,0.175,0.103c0.062,0.035,0.122,0.066,0.183,0.094c0.062,0.028,0.122,0.059,0.183,0.094
		c0.063,0.034,0.119,0.065,0.173,0.091c0.054,0.027,0.109,0.055,0.165,0.083c0.056,0.027,0.11,0.062,0.164,0.103
		c0.055,0.041,0.104,0.09,0.151,0.145c0.048,0.056,0.088,0.107,0.122,0.154c0.035,0.048,0.072,0.103,0.112,0.165
		c0.04,0.061,0.077,0.12,0.111,0.175c0.035,0.056,0.071,0.114,0.111,0.176s0.077,0.12,0.112,0.174
		c0.034,0.054,0.067,0.115,0.1,0.184c0.033,0.068,0.061,0.129,0.081,0.185s0.037,0.111,0.052,0.167
		c0.014,0.055,0.02,0.12,0.02,0.195l-0.006,0.785c0,0.068-0.004,0.136-0.012,0.204c-0.007,0.068-0.022,0.133-0.043,0.195
		c-0.021,0.061-0.04,0.125-0.054,0.194c-0.015,0.068-0.031,0.136-0.052,0.204c-0.02,0.069-0.04,0.138-0.062,0.205
		c-0.021,0.068-0.039,0.129-0.053,0.185c-0.016,0.055-0.036,0.113-0.063,0.175c-0.027,0.061-0.059,0.126-0.093,0.194
		c-0.035,0.068-0.074,0.132-0.114,0.193c-0.041,0.062-0.083,0.12-0.125,0.172c-0.042,0.054-0.077,0.105-0.106,0.153
		c-0.028,0.048-0.063,0.107-0.103,0.175c-0.041,0.067-0.082,0.135-0.122,0.203c-0.041,0.068-0.079,0.137-0.115,0.204
		c-0.035,0.068-0.069,0.136-0.103,0.204c-0.034,0.068-0.062,0.136-0.083,0.204s-0.044,0.136-0.063,0.204
		c-0.022,0.068-0.044,0.136-0.065,0.205c-0.021,0.068-0.039,0.136-0.052,0.204c-0.012,0.068-0.025,0.134-0.04,0.194
		c-0.015,0.063-0.025,0.123-0.032,0.183c-0.008,0.06-0.016,0.128-0.023,0.205c-0.007,0.075-0.011,0.144-0.011,0.204l-0.024,3.49
		c-0.001,0.08-0.005,0.152-0.012,0.213c-0.008,0.063-0.019,0.125-0.033,0.186c-0.014,0.063-0.032,0.133-0.054,0.214
		s-0.039,0.156-0.051,0.225c-0.014,0.067-0.03,0.14-0.053,0.214c-0.021,0.075-0.042,0.141-0.063,0.195s-0.039,0.112-0.053,0.174
		c-0.016,0.062-0.033,0.119-0.053,0.175c-0.019,0.056-0.04,0.11-0.061,0.163c-0.021,0.055-0.043,0.107-0.063,0.162
		c-0.022,0.056-0.047,0.117-0.073,0.185s-0.051,0.136-0.071,0.206c-0.021,0.066-0.047,0.135-0.075,0.203s-0.056,0.139-0.083,0.213
		c-0.026,0.075-0.054,0.143-0.083,0.204c-0.028,0.062-0.063,0.13-0.104,0.204c-0.039,0.075-0.081,0.143-0.123,0.203
		c-0.043,0.063-0.078,0.119-0.106,0.174c-0.029,0.053-0.063,0.111-0.104,0.172c-0.04,0.061-0.099,0.136-0.173,0.225
		c-0.076,0.09-0.139,0.162-0.187,0.215c-0.047,0.055-0.096,0.109-0.146,0.164c-0.048,0.053-0.093,0.1-0.135,0.14
		c-0.04,0.041-0.084,0.085-0.132,0.134c-0.047,0.047-0.092,0.096-0.134,0.143c-0.043,0.047-0.088,0.09-0.135,0.131
		c-0.048,0.039-0.1,0.076-0.156,0.111c-0.057,0.032-0.115,0.066-0.176,0.1c-0.063,0.035-0.12,0.076-0.175,0.123
		c-0.055,0.049-0.108,0.096-0.163,0.143s-0.11,0.096-0.166,0.143c-0.057,0.049-0.111,0.092-0.166,0.133
		c-0.056,0.041-0.103,0.08-0.143,0.121c-0.041,0.041-0.086,0.074-0.135,0.102s-0.101,0.061-0.156,0.102
		c-0.055,0.039-0.111,0.08-0.174,0.121c-0.061,0.039-0.121,0.076-0.184,0.11c-0.062,0.033-0.119,0.071-0.174,0.113
		c-0.056,0.04-0.113,0.081-0.177,0.122s-0.119,0.078-0.167,0.11c-0.047,0.034-0.095,0.068-0.143,0.103
		c-0.046,0.033-0.096,0.066-0.145,0.102c-0.049,0.033-0.101,0.06-0.154,0.079c-0.055,0.019-0.109,0.036-0.163,0.05
		c-0.054,0.015-0.116,0.029-0.185,0.051c-0.068,0.019-0.137,0.039-0.205,0.059c-0.068,0.021-0.137,0.051-0.205,0.091
		s-0.137,0.074-0.205,0.102c-0.068,0.026-0.138,0.054-0.207,0.081c-0.071,0.027-0.137,0.055-0.198,0.082
		c-0.062,0.026-0.12,0.05-0.173,0.068c-0.056,0.02-0.12,0.032-0.195,0.039c-0.074,0.006-0.147,0.008-0.215,0.008
		c-0.068,0-0.131,0.006-0.184,0.02c-0.055,0.015-0.109,0.029-0.166,0.041c-0.056,0.013-0.111,0.025-0.166,0.041
		c-0.054,0.013-0.119,0.029-0.193,0.049c-0.076,0.02-0.147,0.039-0.217,0.06c-0.067,0.021-0.136,0.03-0.205,0.03
		c-0.067-0.001-0.14,0.002-0.214,0.008c-0.075,0.006-0.15,0.01-0.226,0.01c-0.076-0.002-0.15-0.002-0.227-0.002
		c-0.074,0-0.149,0.002-0.225,0.008c-0.076,0.006-0.15,0.012-0.226,0.018c-0.076,0.006-0.147,0.01-0.216,0.01l-1.979-0.015
		c-0.061,0-0.122-0.011-0.184-0.03c-0.061-0.02-0.118-0.048-0.172-0.082c-0.055-0.035-0.108-0.068-0.164-0.104
		c-0.057-0.034-0.118-0.063-0.187-0.084c-0.067-0.021-0.136-0.047-0.204-0.074c-0.067-0.027-0.139-0.049-0.215-0.063
		c-0.074-0.014-0.139-0.03-0.193-0.053c-0.054-0.021-0.111-0.041-0.173-0.062c-0.061-0.021-0.126-0.042-0.193-0.063
		c-0.068-0.022-0.136-0.046-0.204-0.073c-0.068-0.029-0.133-0.057-0.196-0.082c-0.063-0.027-0.121-0.051-0.175-0.073
		c-0.055-0.021-0.119-0.042-0.194-0.064c-0.075-0.021-0.147-0.036-0.214-0.042c-0.068-0.008-0.137-0.011-0.205-0.012
		c-0.068,0-0.137-0.004-0.205-0.012c-0.067-0.007-0.133-0.014-0.193-0.02c-0.062-0.008-0.122-0.02-0.184-0.033
		c-0.061-0.016-0.119-0.033-0.176-0.053c-0.055-0.02-0.113-0.033-0.176-0.041c-0.061-0.007-0.125-0.014-0.193-0.022
		c-0.067-0.009-0.135-0.013-0.205-0.013c-0.068,0-0.136-0.005-0.203-0.012c-0.068-0.008-0.138-0.018-0.205-0.031
		c-0.068-0.014-0.133-0.023-0.194-0.031c-0.062-0.006-0.122-0.01-0.184-0.011l-0.64-0.003c-0.075-0.002-0.143,0.001-0.205,0.008
		c-0.061,0.006-0.125,0.016-0.193,0.027c-0.068,0.013-0.133,0.029-0.195,0.051c-0.061,0.021-0.129,0.04-0.205,0.059
		c-0.075,0.02-0.141,0.043-0.194,0.07l-0.081,0.041"/>
	
		<path id="STROKE_F46BCDBD.-9919.-41C4.-BF71.-1C3016BDF142" fill="none" stroke="#000000" stroke-width="1.67" stroke-linecap="round" stroke-linejoin="round" d="
		M131.651,70.928c0-0.136-0.002-0.24-0.008-0.308c-0.007-0.067-0.01-0.144-0.01-0.226l0.008-1.209
		c0.002-0.068,0.008-0.14,0.023-0.214c0.015-0.075,0.025-0.147,0.033-0.215c0.007-0.068,0.021-0.136,0.043-0.204
		c0.021-0.068,0.053-0.129,0.093-0.182c0.04-0.054,0.075-0.104,0.104-0.153c0.027-0.049,0.059-0.1,0.093-0.153
		c0.033-0.054,0.063-0.104,0.093-0.153c0.028-0.048,0.061-0.099,0.095-0.153c0.035-0.053,0.07-0.107,0.103-0.162
		c0.035-0.055,0.072-0.11,0.114-0.165c0.044-0.055,0.087-0.098,0.136-0.133c0.047-0.033,0.098-0.067,0.152-0.101
		c0.055-0.034,0.105-0.067,0.155-0.102c0.05-0.034,0.101-0.067,0.155-0.102c0.055-0.034,0.113-0.07,0.174-0.11
		c0.062-0.041,0.116-0.081,0.164-0.121c0.047-0.042,0.092-0.081,0.135-0.121c0.042-0.042,0.08-0.089,0.114-0.144
		c0.033-0.055,0.063-0.116,0.092-0.185c0.029-0.067,0.057-0.132,0.086-0.194c0.028-0.061,0.056-0.126,0.082-0.194
		c0.027-0.068,0.052-0.133,0.073-0.194c0.021-0.062,0.039-0.123,0.053-0.183c0.016-0.06,0.026-0.128,0.032-0.204
		c0.009-0.076,0.016-0.148,0.024-0.217c0.007-0.068,0.011-0.132,0.011-0.194c0.001-0.063,0.004-0.13,0.01-0.205
		c0.005-0.075,0.008-0.143,0.009-0.204c0-0.063,0.004-0.127,0.012-0.195s0.011-0.136,0.012-0.205l0.006-0.775
		c0-0.067,0.004-0.132,0.012-0.194c0.007-0.062,0.016-0.127,0.022-0.195s0.019-0.15,0.032-0.246
		c0.015-0.095,0.026-0.174,0.034-0.236c0.008-0.061,0.012-0.123,0.012-0.184l0.005-0.858c0-0.075,0.005-0.149,0.013-0.226
		s0.012-0.144,0.012-0.205l0.017-2.272c0-0.062-0.004-0.124-0.01-0.185c-0.007-0.062-0.017-0.123-0.031-0.183
		c-0.014-0.061-0.026-0.122-0.04-0.184c-0.014-0.061-0.023-0.126-0.03-0.195c-0.006-0.069-0.013-0.133-0.02-0.195
		c-0.006-0.061-0.022-0.12-0.048-0.175c-0.026-0.055-0.047-0.113-0.06-0.174c-0.014-0.06-0.027-0.118-0.041-0.173
		c-0.014-0.055-0.031-0.11-0.052-0.166c-0.02-0.055-0.03-0.113-0.03-0.175l0.001-0.092"/>
	
		<path id="STROKE_63D5963B.-FD6B.-4E5A.-B386.-6FA3E4B4B7E5" fill="none" stroke="#000000" stroke-width="1.67" stroke-linecap="round" stroke-linejoin="round" d="
		M131.356,57.311c0-0.121,0-0.151,0-0.09l-0.002,0.441c-0.002,0.067-0.006,0.146-0.013,0.233c-0.009,0.088-0.015,0.18-0.022,0.275
		c-0.008,0.096-0.013,0.202-0.014,0.319l-0.006,0.889c-0.001,0.109-0.006,0.212-0.012,0.307c-0.008,0.096-0.013,0.188-0.014,0.278
		c0,0.089-0.008,0.167-0.021,0.236c-0.016,0.068-0.031,0.142-0.053,0.224c-0.02,0.081-0.036,0.152-0.05,0.214
		c-0.015,0.061-0.032,0.061-0.052-0.001l-0.031-0.092"/>
	
		<path id="STROKE_19EF9D4F.-F353.-4545.-8E6C.-B16FCC377FEB" fill="none" stroke="#000000" stroke-width="1.67" stroke-linecap="round" stroke-linejoin="round" d="
		M128.935,57.645c-0.026-0.124-0.051-0.148-0.071-0.074c-0.022,0.075-0.033,0.154-0.034,0.236l-0.016,2.424
		c-0.002,0.062-0.006,0.123-0.013,0.185c-0.008,0.062-0.011,0.143-0.011,0.246c-0.002,0.102-0.003,0.187-0.003,0.255
		c-0.001,0.069-0.013,0.058-0.039-0.031c-0.026-0.09-0.042-0.175-0.048-0.256l-0.01-0.123"/>
	
		<path id="STROKE_C00E8DF9.-A42F.-4D0A.-AECB.-4DD318DFB3ED" fill="none" stroke="#000000" stroke-width="1.67" stroke-linecap="round" stroke-linejoin="round" d="
		M126.498,57.278c-0.042,0.11-0.068,0.201-0.075,0.276c-0.008,0.074-0.02,0.143-0.033,0.204c-0.014,0.062-0.027,0.133-0.041,0.214
		c-0.013,0.083-0.022,0.17-0.03,0.266c-0.007,0.095-0.015,0.191-0.023,0.287c-0.007,0.096-0.015,0.191-0.021,0.287
		c-0.009,0.096-0.017,0.195-0.023,0.297c-0.008,0.102-0.019,0.198-0.034,0.287c-0.014,0.089-0.029,0.177-0.044,0.265
		c-0.014,0.088-0.028,0.169-0.04,0.244c-0.013,0.074-0.027,0.146-0.041,0.214c-0.015,0.068-0.025,0.133-0.033,0.195
		c-0.008,0.061-0.019,0.123-0.032,0.184c-0.015,0.062-0.025,0.123-0.033,0.185c-0.007,0.063-0.019,0.126-0.034,0.195
		c-0.014,0.068-0.023,0.142-0.031,0.224c-0.008,0.081-0.015,0.163-0.021,0.245c-0.006,0.083-0.017,0.165-0.03,0.246
		c-0.016,0.081-0.025,0.16-0.033,0.234s-0.02,0.15-0.033,0.226c-0.015,0.076-0.025,0.148-0.033,0.216s-0.019,0.133-0.032,0.193
		s-0.029,0.118-0.043,0.173c-0.015,0.055-0.028,0.12-0.041,0.194c-0.013,0.075-0.023,0.146-0.03,0.214
		c-0.008,0.068-0.012,0.132-0.012,0.194c-0.001,0.062-0.005,0.13-0.012,0.205c-0.008,0.075-0.016,0.15-0.022,0.226
		c-0.009,0.076-0.019,0.148-0.034,0.216c-0.014,0.067-0.027,0.131-0.043,0.191c-0.014,0.061-0.024,0.125-0.031,0.193
		c-0.009,0.068-0.013,0.136-0.013,0.206l-0.006,0.808c0,0.062,0.006,0.126,0.021,0.194c0.012,0.069,0.043,0.127,0.092,0.176
		c0.05,0.049,0.094,0.094,0.133,0.135c0.041,0.041,0.084,0.085,0.131,0.132c0.047,0.048,0.096,0.086,0.144,0.113
		c0.049,0.028,0.103,0.06,0.164,0.094c0.062,0.036,0.122,0.066,0.184,0.095c0.061,0.028,0.126,0.052,0.194,0.074
		c0.067,0.021,0.133,0.036,0.193,0.042c0.061,0.006,0.119,0.02,0.175,0.04c0.057,0.021,0.104,0.055,0.145,0.103
		c0.04,0.049,0.063,0.108,0.069,0.176c0.006,0.068,0.01,0.133,0.01,0.194l-0.004,0.43c-0.001,0.074-0.004,0.155-0.012,0.245
		c-0.008,0.09-0.019,0.182-0.034,0.278c-0.015,0.095-0.028,0.201-0.044,0.316c-0.015,0.115-0.025,0.207-0.033,0.275
		c-0.008,0.069-0.012,0.146-0.013,0.236v0.134"/>
	
		<path id="STROKE_2D512900.-600D.-4FCC.-8D46.-EBB9105061B8" fill="none" stroke="#000000" stroke-width="1.67" stroke-linecap="round" stroke-linejoin="round" d="
		M129.539,92.139c0.015-0.137,0.037-0.236,0.064-0.297c0.03-0.061,0.05-0.125,0.063-0.193s0.036-0.072,0.071-0.011
		c0.033,0.063,0.055,0.134,0.061,0.216c0.008,0.082,0.01,0.176,0.009,0.287l-0.013,1.893c-0.001,0.102-0.005,0.205-0.013,0.307
		c-0.007,0.102-0.015,0.208-0.023,0.316c-0.008,0.109-0.015,0.207-0.022,0.297c-0.007,0.09-0.02,0.191-0.035,0.309
		c-0.014,0.117-0.027,0.227-0.04,0.328c-0.013,0.104-0.026,0.205-0.042,0.307c-0.015,0.103-0.029,0.191-0.043,0.266
		c-0.016,0.074-0.029,0.156-0.044,0.244c-0.016,0.088-0.036,0.173-0.065,0.254c-0.027,0.084-0.051,0.166-0.072,0.246
		c-0.02,0.082-0.041,0.156-0.063,0.225s-0.039,0.141-0.053,0.216c-0.016,0.076-0.032,0.148-0.051,0.216
		c-0.021,0.068-0.041,0.133-0.063,0.192s-0.043,0.121-0.064,0.183s-0.043,0.119-0.063,0.174c-0.022,0.055-0.054,0.127-0.095,0.215
		s-0.074,0.166-0.103,0.233c-0.028,0.068-0.063,0.126-0.104,0.175c-0.041,0.047-0.089,0.096-0.144,0.143
		c-0.054,0.046-0.117,0.077-0.186,0.091c-0.07,0.015-0.143,0.021-0.217,0.021l-3.465-0.023c-0.061-0.001-0.119-0.012-0.173-0.033
		s-0.091-0.07-0.112-0.145c-0.02-0.075-0.041-0.143-0.061-0.205c-0.021-0.063-0.044-0.123-0.07-0.186
		c-0.025-0.062-0.049-0.133-0.068-0.215c-0.021-0.082-0.041-0.174-0.061-0.275c-0.021-0.104-0.035-0.186-0.042-0.246
		c-0.006-0.063-0.009-0.13-0.009-0.205l0.008-1.084c0-0.103,0.008-0.213,0.023-0.328c0.016-0.117,0.033-0.236,0.055-0.358
		c0.022-0.122,0.048-0.247,0.076-0.376c0.029-0.131,0.061-0.271,0.096-0.421c0.033-0.151,0.064-0.298,0.095-0.44
		c0.027-0.143,0.056-0.275,0.083-0.399c0.026-0.123,0.055-0.248,0.083-0.377c0.03-0.128,0.059-0.255,0.088-0.377
		c0.028-0.124,0.053-0.235,0.072-0.338c0.021-0.103,0.037-0.194,0.052-0.276c0.014-0.082,0.029-0.162,0.043-0.236
		c0.016-0.074,0.026-0.146,0.033-0.215c0.008-0.068,0.013-0.133,0.013-0.195l0.001-0.092"/>
	
		<path id="STROKE_AD1DF904.-87D0.-4392.-9E78.-42C846F6FC41" fill="none" stroke="#000000" stroke-width="1.67" stroke-linecap="round" stroke-linejoin="round" d="
		M31.199,76.443c0.123,0.001,0.187-0.029,0.194-0.091c0.007-0.062,0.012-0.133,0.012-0.214l0.025-3.634
		c0-0.075-0.003-0.15-0.009-0.224c-0.007-0.075-0.017-0.157-0.03-0.247c-0.013-0.089-0.026-0.178-0.038-0.267
		c-0.011-0.09-0.024-0.186-0.037-0.288c-0.013-0.102-0.023-0.184-0.03-0.245c-0.005-0.061-0.02-0.148-0.04-0.266
		c-0.02-0.117-0.037-0.203-0.05-0.258c-0.014-0.055-0.024-0.113-0.031-0.173c-0.006-0.061-0.016-0.119-0.028-0.174
		c-0.012-0.055-0.028-0.127-0.048-0.216c-0.02-0.09-0.041-0.169-0.061-0.237c-0.021-0.067-0.042-0.137-0.062-0.205
		c-0.021-0.068-0.041-0.13-0.059-0.184c-0.019-0.053-0.042-0.108-0.07-0.163c-0.027-0.055-0.051-0.117-0.072-0.186
		c-0.02-0.068-0.044-0.14-0.069-0.215c-0.026-0.074-0.052-0.157-0.08-0.246c-0.027-0.09-0.054-0.178-0.079-0.266
		c-0.026-0.088-0.049-0.174-0.069-0.256c-0.021-0.083-0.045-0.169-0.072-0.257s-0.051-0.173-0.072-0.256
		c-0.02-0.083-0.04-0.158-0.059-0.227c-0.018-0.068-0.045-0.136-0.08-0.206c-0.034-0.068-0.062-0.133-0.082-0.195
		c-0.021-0.062-0.04-0.124-0.059-0.186c-0.019-0.061-0.039-0.119-0.059-0.173c-0.021-0.054-0.045-0.118-0.073-0.193
		c-0.027-0.075-0.049-0.14-0.069-0.196c-0.019-0.055-0.039-0.113-0.059-0.175c-0.021-0.062-0.041-0.124-0.062-0.186
		c-0.02-0.061-0.043-0.13-0.069-0.205c-0.026-0.075-0.053-0.143-0.08-0.205c-0.028-0.062-0.052-0.123-0.072-0.183
		c-0.021-0.062-0.041-0.122-0.06-0.184c-0.018-0.062-0.042-0.124-0.07-0.186c-0.027-0.062-0.055-0.12-0.083-0.176
		c-0.027-0.055-0.05-0.11-0.068-0.164c-0.019-0.054-0.043-0.108-0.07-0.164c-0.028-0.056-0.06-0.121-0.093-0.196
		c-0.035-0.075-0.065-0.143-0.091-0.205c-0.025-0.062-0.052-0.124-0.08-0.185c-0.027-0.062-0.055-0.124-0.082-0.186
		c-0.028-0.062-0.055-0.123-0.081-0.183c-0.025-0.061-0.049-0.122-0.069-0.184c-0.021-0.062-0.041-0.123-0.062-0.185
		c-0.02-0.062-0.04-0.121-0.059-0.176c-0.02-0.055-0.042-0.124-0.069-0.205c-0.028-0.081-0.056-0.156-0.083-0.225
		c-0.028-0.068-0.062-0.133-0.101-0.195c-0.04-0.062-0.08-0.114-0.12-0.154c-0.04-0.041-0.083-0.082-0.132-0.123
		c-0.049-0.041-0.093-0.083-0.133-0.125c-0.04-0.042-0.081-0.084-0.123-0.125c-0.041-0.041-0.085-0.085-0.132-0.133
		c-0.046-0.047-0.087-0.095-0.123-0.144c-0.035-0.049-0.072-0.104-0.111-0.164c-0.041-0.061-0.081-0.125-0.122-0.194
		c-0.042-0.068-0.083-0.134-0.123-0.194c-0.04-0.063-0.079-0.118-0.119-0.167c-0.04-0.048-0.081-0.097-0.122-0.144
		c-0.042-0.048-0.093-0.088-0.154-0.123c-0.061-0.035-0.122-0.063-0.183-0.084s-0.126-0.046-0.194-0.074
		c-0.068-0.028-0.132-0.063-0.193-0.104c-0.061-0.042-0.109-0.088-0.144-0.142c-0.034-0.055-0.075-0.1-0.122-0.133
		c-0.047-0.034-0.101-0.059-0.162-0.074c-0.061-0.015-0.123-0.024-0.186-0.032c-0.063-0.008-0.122-0.022-0.176-0.043
		c-0.054-0.021-0.115-0.036-0.183-0.042s-0.133-0.01-0.194-0.011c-0.061,0-0.116,0.013-0.166,0.04
		c-0.049,0.028-0.101,0.058-0.155,0.092c-0.054,0.033-0.105,0.074-0.153,0.121c-0.048,0.046-0.095,0.101-0.143,0.162
		c-0.047,0.061-0.085,0.123-0.114,0.184c-0.028,0.062-0.053,0.12-0.074,0.175c-0.022,0.055-0.041,0.113-0.054,0.174
		c-0.014,0.062-0.032,0.13-0.051,0.205c-0.02,0.074-0.041,0.149-0.062,0.224c-0.022,0.074-0.04,0.149-0.054,0.223
		c-0.015,0.075-0.029,0.15-0.044,0.224c-0.014,0.075-0.029,0.154-0.043,0.235c-0.015,0.083-0.025,0.166-0.031,0.247
		c-0.006,0.081-0.012,0.167-0.02,0.256c-0.007,0.089-0.012,0.181-0.012,0.277l-0.034,4.964c-0.001,0.089,0.002,0.181,0.008,0.275
		c0.007,0.095,0.016,0.193,0.027,0.295c0.012,0.103,0.021,0.209,0.027,0.32c0.006,0.11,0.009,0.195,0.009,0.255l-0.003,0.368
		c0,0.062,0.003,0.127,0.009,0.195c0.007,0.067,0.01,0.133,0.009,0.195l-0.002,0.389c0,0.062,0.002,0.124,0.009,0.185
		c0.007,0.063,0.01,0.123,0.009,0.183c0,0.061,0.003,0.146,0.009,0.256c0.006,0.111,0.016,0.206,0.029,0.289
		c0.014,0.081,0.024,0.159,0.03,0.234c0.007,0.075,0.017,0.143,0.03,0.205c0.014,0.062,0.027,0.123,0.039,0.185
		c0.011,0.063,0.021,0.123,0.027,0.186c0.007,0.062,0.013,0.123,0.02,0.185c0.006,0.062,0.013,0.129,0.019,0.205
		c0.007,0.075,0.013,0.153,0.02,0.234c0.006,0.082,0.009,0.167,0.009,0.256c-0.001,0.089-0.001,0.182-0.002,0.278
		c-0.001,0.095,0.002,0.181,0.008,0.255c0.006,0.075,0.013,0.15,0.02,0.225c0.006,0.075,0.013,0.146,0.02,0.214
		c0.006,0.069,0.016,0.144,0.029,0.227c0.014,0.083,0.023,0.161,0.028,0.236c0.004,0.075,0.01,0.15,0.016,0.225
		c0.007,0.074,0.014,0.143,0.02,0.204c0.007,0.062,0.013,0.124,0.02,0.185c0.006,0.062,0.013,0.127,0.019,0.195
		c0.007,0.069,0.01,0.137,0.01,0.205c-0.001,0.068,0.001,0.136,0.009,0.206c0.006,0.067,0.013,0.132,0.019,0.194
		c0.007,0.061,0.017,0.13,0.03,0.204c0.014,0.075,0.027,0.144,0.041,0.205c0.014,0.062,0.03,0.12,0.048,0.173
		c0.02,0.055,0.032,0.113,0.039,0.173c0.006,0.062,0.013,0.13,0.019,0.206c0.007,0.075,0.013,0.143,0.02,0.205
		c0.006,0.061,0.013,0.126,0.021,0.195c0.005,0.068,0.013,0.136,0.019,0.204c0.007,0.069,0.017,0.134,0.03,0.195
		c0.014,0.062,0.027,0.124,0.038,0.186c0.012,0.061,0.032,0.119,0.06,0.173c0.027,0.054,0.061,0.105,0.101,0.154l0.06,0.073"/>
	
		<path id="STROKE_8A714038.-0456.-49C5.-9BAF.-65E4DE74A728" fill="none" stroke="#000000" stroke-width="1.67" stroke-linecap="round" stroke-linejoin="round" d="
		M30.768,76.523c-0.001,0.149-0.001,0.268-0.002,0.356c-0.001,0.088-0.015,0.166-0.043,0.234c-0.029,0.068-0.074,0.148-0.136,0.245
		c-0.062,0.095-0.11,0.167-0.143,0.215c-0.034,0.049-0.072,0.1-0.114,0.153c-0.042,0.053-0.084,0.104-0.125,0.153
		c-0.041,0.048-0.082,0.095-0.124,0.142c-0.043,0.047-0.105,0.112-0.188,0.194c-0.083,0.083-0.168,0.157-0.256,0.224l-0.132,0.102"
		/>
	
		<path id="STROKE_5B4B05EB.-FD96.-4E8F.-9B81.-C7A2632BA91F" fill="none" stroke="#000000" stroke-width="1.67" stroke-linecap="round" stroke-linejoin="round" d="
		M29.638,100.688c0.083,0.123,0.131,0.224,0.145,0.297c0.013,0.076,0.026,0.158,0.038,0.248c0.011,0.089,0.024,0.188,0.037,0.297
		c0.013,0.109,0.023,0.215,0.029,0.316c0.006,0.103,0.013,0.188,0.019,0.256c0.007,0.068,0.01,0.133,0.01,0.195
		c-0.001,0.063-0.001,0.126-0.002,0.194c0,0.069,0.003,0.137,0.009,0.205c0.007,0.069,0.01,0.137,0.009,0.204l-0.012,1.873
		c-0.001,0.103-0.005,0.205-0.013,0.308c-0.008,0.102-0.028,0.198-0.062,0.286c-0.034,0.089-0.065,0.178-0.094,0.266
		c-0.029,0.088-0.061,0.165-0.096,0.232c-0.035,0.068-0.073,0.137-0.114,0.205c-0.041,0.068-0.082,0.125-0.125,0.174
		c-0.042,0.048-0.094,0.093-0.155,0.133c-0.062,0.04-0.12,0.074-0.174,0.102c-0.055,0.026-0.116,0.057-0.185,0.09
		c-0.068,0.035-0.136,0.068-0.205,0.102c-0.068,0.034-0.14,0.066-0.216,0.101c-0.075,0.034-0.157,0.067-0.247,0.101
		c-0.089,0.034-0.182,0.063-0.278,0.089c-0.097,0.026-0.172,0.046-0.226,0.06c-0.055,0.014-0.13,0.027-0.226,0.041
		c-0.097,0.012-0.192,0.018-0.286,0.017c-0.095-0.001-0.187-0.004-0.276-0.011c-0.089-0.008-0.171-0.039-0.246-0.096
		c-0.075-0.055-0.146-0.109-0.214-0.165c-0.068-0.054-0.128-0.114-0.182-0.185c-0.054-0.067-0.101-0.137-0.143-0.204
		c-0.041-0.069-0.078-0.147-0.111-0.237c-0.033-0.09-0.063-0.182-0.09-0.277c-0.027-0.097-0.051-0.191-0.072-0.287
		c-0.02-0.095-0.033-0.172-0.04-0.233c-0.006-0.062-0.013-0.151-0.02-0.269c-0.006-0.117-0.012-0.205-0.017-0.268
		c-0.004-0.061-0.007-0.126-0.005-0.195l0.015-2.404l0.001-0.133"/>
</g>
</svg>
