<?xml version="1.0" encoding="utf-8"?>
<!-- Generator: Adobe Illustrator 16.0.0, SVG Export Plug-In . SVG Version: 6.00 Build 0)  -->
<!DOCTYPE svg PUBLIC "-//W3C//DTD SVG 1.1//EN" "http://www.w3.org/Graphics/SVG/1.1/DTD/svg11.dtd">
<svg version="1.1" id="Layer_1" xmlns="http://www.w3.org/2000/svg" xmlns:xlink="http://www.w3.org/1999/xlink" x="0px" y="0px"
	 width="160px" height="160px" viewBox="0 0 160 160" enable-background="new 0 0 160 160" xml:space="preserve">
<g id="a3">
	
		<path fill="#FFFFFF" stroke="#000000" stroke-width="1.67" stroke-linecap="round" stroke-linejoin="round" stroke-miterlimit="1.5" d="
		M128.942,64.781c1.555-0.13,3.015,2.139,3.26,5.064c0.244,2.926-0.819,5.407-2.373,5.538c-1.553,0.129-3.014-2.14-3.258-5.066
		C126.326,67.391,127.39,64.911,128.942,64.781z"/>
	
		<path fill="#FFFFFF" stroke="#000000" stroke-width="1.67" stroke-linecap="round" stroke-linejoin="round" stroke-miterlimit="1.5" d="
		M117.914,68.893l16.592-2.245l0.686,5.066l-16.161,2.187C118.767,72.193,118.392,70.521,117.914,68.893z"/>
	
		<path fill="#E3E3E3" stroke="#000000" stroke-width="1.67" stroke-linecap="round" stroke-linejoin="round" stroke-miterlimit="1.5" d="
		M19.795,90.637c0,0,40.179-5.559,40.208-5.562c1.002-0.158,1.994,0.85,2.214,2.249c0.217,1.379-0.398,2.627-1.376,2.813
		l-40.235,5.438L19.795,90.637z"/>
	
		<path fill="#E3E3E3" stroke="#000000" stroke-width="1.67" stroke-linecap="round" stroke-linejoin="round" stroke-miterlimit="1.5" d="
		M19.884,90.596c1.002-0.156,1.994,0.85,2.214,2.25c0.22,1.398-0.415,2.662-1.417,2.819s-1.995-0.851-2.214-2.249
		C18.247,92.018,18.882,90.754,19.884,90.596z"/>
	
		<path fill="#FFEE11" stroke="#000000" stroke-width="1.67" stroke-linecap="round" stroke-linejoin="round" stroke-miterlimit="1.5" d="
		M50.102,86.434c-5.386-0.494-9.152-2.197-13.14-5.479c0,0-20.321,0.268-22.785,1.779c-2.463,1.51,0.791,5.927,8.005,7.283"/>
	
		<path fill="#FFEE11" stroke="#000000" stroke-width="1.67" stroke-linecap="round" stroke-linejoin="round" stroke-miterlimit="1.5" d="
		M50.246,91.613c-4.727,2.342-7.266,5.931-9.584,9.646c0,0-18.433,4.215-21.336,3.192c-2.902-1.022,3.922-9.327,3.922-9.327"/>
	
		<path fill="none" stroke="#000000" stroke-width="1.67" stroke-linecap="round" stroke-linejoin="round" stroke-miterlimit="1.5" d="
		M26.064,88.804l-4.286-4.235"/>
	
		<path fill="none" stroke="#000000" stroke-width="1.67" stroke-linecap="round" stroke-linejoin="round" stroke-miterlimit="1.5" d="
		M30.717,88.341l-4.286-4.235"/>
	
		<path fill="none" stroke="#000000" stroke-width="1.67" stroke-linecap="round" stroke-linejoin="round" stroke-miterlimit="1.5" d="
		M35.35,87.865l-4.286-4.235"/>
	
		<path fill="none" stroke="#000000" stroke-width="1.67" stroke-linecap="round" stroke-linejoin="round" stroke-miterlimit="1.5" d="
		M39.916,87.404l-4.285-4.236"/>
	
		<path fill="none" stroke="#000000" stroke-width="1.67" stroke-linecap="round" stroke-linejoin="round" stroke-miterlimit="1.5" d="
		M39.079,98.631l2.421-5.518"/>
	
		<path fill="none" stroke="#000000" stroke-width="1.67" stroke-linecap="round" stroke-linejoin="round" stroke-miterlimit="1.5" d="
		M34.593,99.17l2.42-5.518"/>
	
		<path fill="none" stroke="#000000" stroke-width="1.67" stroke-linecap="round" stroke-linejoin="round" stroke-miterlimit="1.5" d="
		M30.217,99.91l2.421-5.516"/>
	
		<path fill="none" stroke="#000000" stroke-width="1.67" stroke-linecap="round" stroke-linejoin="round" stroke-miterlimit="1.5" d="
		M25.63,100.662l2.421-5.516"/>
	
		<path fill="#FFFFFF" stroke="#000000" stroke-width="1.67" stroke-linecap="round" stroke-linejoin="round" stroke-miterlimit="1.5" d="
		M128.858,64.788l16.381,2.777l-15.326,7.777c1.896-2.063,2.264-3.923,2.208-5.629C132.06,67.859,131.394,66.189,128.858,64.788z"/>
	
		<path fill="none" stroke="#000000" stroke-width="1.67" stroke-linecap="round" stroke-linejoin="round" stroke-miterlimit="1.5" d="
		M129.597,67.345c0.715-0.061,1.391,1.026,1.507,2.426c0.118,1.399-0.368,2.583-1.083,2.643"/>
</g>
</svg>
