<?xml version="1.0" encoding="utf-8"?>
<!-- Generator: Adobe Illustrator 16.0.0, SVG Export Plug-In . SVG Version: 6.00 Build 0)  -->
<!DOCTYPE svg PUBLIC "-//W3C//DTD SVG 1.1//EN" "http://www.w3.org/Graphics/SVG/1.1/DTD/svg11.dtd">
<svg version="1.1" id="Layer_1" xmlns="http://www.w3.org/2000/svg" xmlns:xlink="http://www.w3.org/1999/xlink" x="0px" y="0px"
	 width="160px" height="160px" viewBox="0 0 160 160" enable-background="new 0 0 160 160" xml:space="preserve">
<g id="a9">
	
		<path id="STROKE_DDABD96B.-76B7.-4FF3.-95EA.-2DEA732C609D" fill="none" stroke="#000000" stroke-width="1.67" stroke-linecap="round" stroke-linejoin="round" d="
		M29.634,84.807c0.004-0.068,0.003-0.119-0.004-0.147c-0.007-0.03-0.024-0.034-0.051-0.013c-0.028,0.02-0.048,0.049-0.062,0.084
		c-0.013,0.037-0.028,0.074-0.043,0.113c-0.016,0.039-0.032,0.08-0.049,0.123c-0.017,0.043-0.035,0.089-0.053,0.139
		c-0.018,0.047-0.036,0.098-0.053,0.149s-0.035,0.104-0.053,0.161c-0.017,0.057-0.03,0.104-0.039,0.138
		c-0.009,0.035-0.018,0.069-0.026,0.104c-0.009,0.034-0.016,0.069-0.021,0.104c-0.006,0.036-0.013,0.071-0.021,0.105
		c-0.008,0.035-0.017,0.07-0.023,0.109s-0.012,0.078-0.019,0.113c-0.004,0.036-0.009,0.076-0.012,0.12
		c-0.002,0.043-0.005,0.084-0.01,0.123c-0.005,0.038-0.009,0.077-0.013,0.119c-0.002,0.041-0.006,0.079-0.011,0.118
		c-0.004,0.039-0.007,0.076-0.009,0.115c-0.002,0.036-0.005,0.071-0.009,0.104c-0.003,0.032-0.007,0.07-0.01,0.11
		c-0.003,0.041-0.007,0.076-0.012,0.105c-0.005,0.03-0.01,0.066-0.016,0.107c-0.006,0.043-0.01,0.08-0.014,0.112
		c-0.003,0.032-0.007,0.065-0.013,0.103c-0.005,0.037-0.009,0.07-0.013,0.103c-0.003,0.033-0.006,0.065-0.01,0.099
		c-0.004,0.031-0.008,0.064-0.014,0.099c-0.006,0.032-0.011,0.065-0.016,0.095c-0.004,0.03-0.01,0.073-0.017,0.129
		c-0.007,0.057-0.012,0.109-0.015,0.159c-0.003,0.05-0.007,0.095-0.012,0.132c-0.005,0.039-0.008,0.073-0.009,0.105
		c-0.001,0.033-0.002,0.066-0.003,0.104c-0.002,0.038-0.005,0.073-0.008,0.105c-0.004,0.031-0.007,0.066-0.009,0.102
		s-0.006,0.067-0.011,0.098c-0.004,0.029-0.008,0.061-0.012,0.09s-0.009,0.063-0.015,0.098c-0.005,0.036-0.009,0.072-0.011,0.107
		s-0.001,0.068,0.003,0.098s0.01,0.061,0.017,0.092c0.008,0.031,0.017,0.064,0.028,0.098c0.011,0.033,0.022,0.065,0.032,0.096
		c0.01,0.031,0.03,0.06,0.059,0.087c0.029,0.028,0.057,0.054,0.086,0.079c0.028,0.025,0.057,0.051,0.084,0.074
		c0.028,0.024,0.056,0.05,0.085,0.074s0.058,0.047,0.088,0.069c0.029,0.022,0.057,0.041,0.082,0.058
		c0.026,0.018,0.052,0.033,0.08,0.051c0.029,0.016,0.059,0.033,0.091,0.051c0.032,0.018,0.065,0.033,0.097,0.045
		c0.033,0.012,0.065,0.023,0.096,0.031c0.032,0.01,0.068,0.021,0.107,0.033c0.042,0.012,0.082,0.021,0.121,0.029
		c0.039,0.006,0.079,0.01,0.121,0.012c0.04,0.001,0.077,0.001,0.111,0c0.035,0,0.072,0,0.112,0.001
		c0.041,0.001,0.078,0.001,0.112,0.001c0.033,0.001,0.067,0.001,0.102,0.001c0.034,0,0.069-0.003,0.104-0.009
		s0.07-0.014,0.106-0.019c0.035-0.006,0.073-0.013,0.113-0.021c0.041-0.008,0.08-0.015,0.118-0.018
		c0.038-0.004,0.075-0.005,0.11-0.002c0.035,0.002,0.071,0.004,0.108,0.002c0.037-0.001,0.072-0.005,0.103-0.014
		c0.032-0.008,0.067-0.018,0.105-0.029c0.038-0.013,0.072-0.035,0.102-0.065c0.031-0.03,0.057-0.058,0.08-0.081
		c0.024-0.025,0.053-0.053,0.09-0.082c0.036-0.028,0.072-0.058,0.108-0.086c0.035-0.029,0.067-0.054,0.094-0.074
		c0.028-0.021,0.054-0.047,0.078-0.078s0.044-0.061,0.06-0.088c0.016-0.028,0.032-0.057,0.047-0.088
		c0.017-0.031,0.034-0.063,0.055-0.096s0.041-0.068,0.06-0.105c0.018-0.037,0.036-0.073,0.053-0.107
		c0.018-0.033,0.032-0.066,0.045-0.1s0.023-0.068,0.033-0.109s0.016-0.083,0.021-0.127c0.005-0.045,0.009-0.084,0.013-0.115
		c0.004-0.033,0.008-0.064,0.012-0.094c0.004-0.029,0.007-0.061,0.011-0.093c0.004-0.033,0.009-0.066,0.014-0.101
		c0.006-0.033,0.01-0.066,0.013-0.102s0.005-0.07,0.008-0.104c0.003-0.036,0.004-0.072,0.006-0.113c0-0.04,0-0.079,0-0.116
		c0-0.037,0-0.074,0-0.116c0-0.04,0-0.079-0.001-0.118c-0.001-0.039-0.004-0.074-0.008-0.104c-0.005-0.031-0.011-0.063-0.021-0.096
		l-0.014-0.051"/>
	
		<path id="STROKE_631D49D7.-165C.-4C84.-B078.-DCB852E8F70B" fill="none" stroke="#000000" stroke-width="1.67" stroke-linecap="round" stroke-linejoin="round" d="
		M33.386,82.91c-0.058,0.035-0.107,0.061-0.152,0.074l-1.411,0.471c-0.054,0.018-0.107,0.033-0.159,0.048
		c-0.052,0.015-0.104,0.03-0.156,0.044c-0.052,0.016-0.104,0.031-0.155,0.048s-0.105,0.035-0.162,0.054
		c-0.056,0.018-0.11,0.033-0.16,0.045c-0.05,0.012-0.103,0.021-0.156,0.03c-0.054,0.009-0.107,0.019-0.159,0.027
		c-0.052,0.009-0.103,0.018-0.15,0.028c-0.047,0.01-0.094,0.021-0.138,0.033c-0.045,0.012-0.088,0.025-0.129,0.039
		s-0.079,0.026-0.115,0.038c-0.036,0.013-0.071,0.025-0.104,0.038c-0.032,0.014-0.063,0.027-0.092,0.043
		c-0.028,0.016-0.056,0.033-0.084,0.055c-0.027,0.02-0.054,0.037-0.081,0.053c-0.025,0.016-0.056,0.031-0.09,0.051
		s-0.067,0.036-0.099,0.05c-0.033,0.013-0.053,0.04-0.059,0.079l-0.01,0.061"/>
	
		<path id="STROKE_631E5199.-5975.-4A81.-A32A.-5FCBDDD2CDAE" fill="none" stroke="#000000" stroke-width="1.67" stroke-linecap="round" stroke-linejoin="round" d="
		M33.551,82.82c0.06,0.009,0.107,0.016,0.144,0.021s0.069,0.011,0.099,0.015c0.03,0.003,0.062,0.012,0.097,0.023
		c0.035,0.011,0.074,0.021,0.115,0.034c0.041,0.012,0.077,0.024,0.106,0.036c0.03,0.014,0.063,0.027,0.099,0.041
		s0.072,0.029,0.109,0.045s0.077,0.033,0.121,0.054s0.088,0.04,0.131,0.06c0.044,0.02,0.091,0.039,0.141,0.059
		c0.05,0.021,0.098,0.043,0.144,0.064c0.047,0.021,0.095,0.041,0.145,0.063c0.05,0.02,0.099,0.041,0.146,0.063
		c0.047,0.021,0.093,0.043,0.138,0.068s0.089,0.049,0.134,0.071s0.087,0.043,0.127,0.061c0.041,0.019,0.08,0.036,0.117,0.054
		c0.038,0.02,0.073,0.037,0.107,0.051c0.033,0.015,0.067,0.027,0.102,0.039c0.036,0.012,0.072,0.021,0.109,0.028
		c0.036,0.007,0.072,0.015,0.106,0.024c0.035,0.009,0.069,0.016,0.104,0.018c0.036,0.002,0.071,0.004,0.106,0.008
		c0.035,0.002,0.069,0.004,0.1,0.004c0.032,0,0.07,0.005,0.115,0.013c0.045,0.008,0.088,0.019,0.129,0.03
		c0.041,0.012,0.081,0.025,0.117,0.043c0.037,0.016,0.074,0.033,0.112,0.052s0.074,0.037,0.108,0.054
		c0.034,0.018,0.065,0.032,0.092,0.047c0.027,0.014,0.056,0.026,0.086,0.039c0.031,0.012,0.059,0.025,0.087,0.039
		c0.027,0.014,0.054,0.031,0.08,0.051c0.026,0.02,0.052,0.039,0.076,0.061c0.024,0.02,0.045,0.043,0.061,0.068
		c0.017,0.027,0.032,0.055,0.045,0.084c0.013,0.031,0.025,0.061,0.038,0.09c0.013,0.029,0.028,0.065,0.045,0.109
		c0.017,0.041,0.034,0.077,0.049,0.107c0.016,0.029,0.033,0.064,0.053,0.106c0.02,0.042,0.038,0.079,0.056,0.113
		c0.017,0.034,0.032,0.067,0.045,0.102c0.013,0.032,0.026,0.066,0.038,0.103l0.195,0.588c0.011,0.033,0.019,0.065,0.024,0.096
		c0.005,0.029,0.009,0.062,0.012,0.098c0.003,0.037,0.004,0.072,0.002,0.111c-0.002,0.037-0.001,0.071,0.005,0.104
		c0.006,0.032,0.012,0.065,0.017,0.101c0.006,0.035,0.01,0.072,0.011,0.111c0,0.04,0,0.079-0.004,0.117
		c-0.004,0.039-0.006,0.074-0.008,0.105c-0.001,0.031-0.005,0.063-0.011,0.094c-0.007,0.031-0.015,0.062-0.025,0.094
		c-0.011,0.031-0.021,0.063-0.034,0.092c-0.012,0.03-0.024,0.061-0.034,0.089c-0.01,0.029-0.021,0.061-0.034,0.093
		c-0.012,0.032-0.027,0.062-0.044,0.086c-0.017,0.027-0.036,0.051-0.056,0.074c-0.021,0.024-0.04,0.049-0.057,0.075
		s-0.033,0.054-0.049,0.081c-0.016,0.029-0.031,0.057-0.045,0.084c-0.014,0.026-0.027,0.055-0.042,0.081
		c-0.014,0.028-0.028,0.056-0.041,0.082c-0.014,0.027-0.032,0.052-0.053,0.073s-0.042,0.045-0.061,0.071
		c-0.02,0.027-0.042,0.052-0.066,0.075c-0.024,0.021-0.049,0.045-0.08,0.068c-0.029,0.023-0.057,0.05-0.085,0.079
		c-0.028,0.028-0.054,0.053-0.079,0.073c-0.024,0.02-0.05,0.037-0.075,0.056c-0.026,0.017-0.056,0.037-0.087,0.058
		c-0.032,0.021-0.062,0.039-0.09,0.051c-0.027,0.014-0.058,0.024-0.092,0.035L36.332,88.4c-0.041,0.014-0.078,0.027-0.111,0.041
		c-0.032,0.014-0.063,0.027-0.094,0.039c-0.03,0.013-0.056,0.03-0.077,0.051c-0.021,0.021-0.047,0.039-0.076,0.052l-0.044,0.018"/>
	
		<path id="STROKE_14BF86BA.-2176.-451B.-A86B.-CCBCDA5A4B91" fill="none" stroke="#000000" stroke-width="1.67" stroke-linecap="round" stroke-linejoin="round" d="
		M28.272,85.141c0.053-0.029,0.093-0.051,0.12-0.065c0.026-0.015,0.026-0.015,0,0c-0.027,0.015-0.06,0.032-0.1,0.05
		c-0.039,0.019-0.075,0.037-0.107,0.053c-0.032,0.018-0.065,0.033-0.098,0.051c-0.034,0.016-0.07,0.033-0.107,0.053
		c-0.037,0.018-0.076,0.035-0.119,0.053c-0.043,0.018-0.087,0.031-0.13,0.047c-0.044,0.015-0.089,0.031-0.134,0.049
		c-0.045,0.018-0.09,0.034-0.134,0.049s-0.087,0.028-0.131,0.043c-0.043,0.015-0.084,0.031-0.124,0.049
		c-0.039,0.02-0.077,0.036-0.115,0.053c-0.038,0.016-0.075,0.032-0.112,0.05c-0.038,0.019-0.073,0.034-0.108,0.048
		c-0.035,0.016-0.069,0.029-0.101,0.042c-0.033,0.015-0.07,0.028-0.111,0.041l-0.332,0.11c-0.031,0.011-0.06,0.021-0.087,0.035
		c-0.027,0.012-0.052,0.029-0.073,0.05s-0.039,0.046-0.053,0.073c-0.013,0.027-0.022,0.055-0.027,0.084
		c-0.005,0.03-0.006,0.062-0.004,0.092c0.002,0.029,0.002,0.063-0.002,0.095c-0.004,0.033-0.008,0.065-0.012,0.095
		c-0.005,0.03-0.009,0.062-0.012,0.094c-0.003,0.031-0.009,0.065-0.017,0.1c-0.009,0.034-0.019,0.068-0.031,0.104
		c-0.011,0.035-0.021,0.07-0.028,0.107c-0.008,0.037-0.014,0.071-0.018,0.102c-0.005,0.029-0.01,0.06-0.017,0.09
		c-0.007,0.031-0.012,0.063-0.017,0.092c-0.005,0.03-0.009,0.061-0.014,0.09c-0.003,0.029-0.005,0.061-0.006,0.092
		c-0.002,0.031-0.001,0.064,0.002,0.098c0.003,0.032,0.006,0.066,0.008,0.1c0.003,0.033,0.006,0.064,0.01,0.096
		c0.003,0.029,0.008,0.059,0.012,0.088c0.004,0.031,0.009,0.063,0.015,0.099c0.006,0.034,0.014,0.073,0.024,0.112
		c0.011,0.039,0.021,0.076,0.032,0.108l0.133,0.399c0.011,0.033,0.024,0.066,0.038,0.1c0.013,0.033,0.028,0.063,0.042,0.09
		c0.015,0.025,0.03,0.055,0.047,0.086c0.016,0.032,0.033,0.066,0.051,0.104c0.018,0.035,0.037,0.07,0.056,0.1
		c0.019,0.031,0.038,0.063,0.057,0.096c0.019,0.034,0.037,0.067,0.053,0.098c0.017,0.033,0.032,0.063,0.047,0.088
		c0.015,0.027,0.031,0.059,0.049,0.095c0.018,0.037,0.034,0.067,0.048,0.095c0.014,0.027,0.031,0.055,0.052,0.082
		s0.047,0.053,0.077,0.076c0.031,0.024,0.059,0.049,0.085,0.074c0.026,0.025,0.049,0.052,0.069,0.08
		c0.02,0.026,0.038,0.055,0.052,0.081c0.015,0.026,0.027,0.055,0.038,0.085c0.01,0.031,0.017,0.061,0.021,0.092
		c0.004,0.029,0.004,0.063-0.002,0.096c-0.006,0.032-0.01,0.066-0.013,0.102s-0.005,0.07-0.007,0.109
		c-0.001,0.038-0.004,0.07-0.009,0.101c-0.004,0.03-0.008,0.063-0.01,0.098c-0.001,0.034-0.003,0.071-0.006,0.109
		c-0.003,0.036-0.002,0.076,0,0.114c0.002,0.041,0.006,0.082,0.013,0.129c0.006,0.046,0.014,0.092,0.023,0.137
		c0.01,0.046,0.018,0.088,0.025,0.126c0.006,0.038,0.013,0.071,0.021,0.104c0.007,0.031,0.016,0.062,0.026,0.093l0.098,0.292
		c0.01,0.031,0.02,0.063,0.029,0.098c0.009,0.034,0.017,0.068,0.022,0.104c0.006,0.035,0.013,0.068,0.021,0.104
		c0.008,0.034,0.018,0.066,0.028,0.098l0.255,0.766c0.012,0.039,0.029,0.074,0.049,0.108c0.019,0.034,0.037,0.064,0.052,0.094
		c0.014,0.028,0.031,0.058,0.049,0.085c0.018,0.027,0.034,0.056,0.048,0.082c0.015,0.027,0.034,0.058,0.057,0.092
		c0.023,0.035,0.048,0.066,0.073,0.092c0.025,0.025,0.05,0.049,0.073,0.069c0.024,0.021,0.046,0.043,0.07,0.066
		c0.022,0.024,0.045,0.049,0.072,0.075c0.025,0.026,0.049,0.053,0.07,0.084c0.022,0.029,0.046,0.061,0.074,0.094
		c0.028,0.033,0.056,0.064,0.082,0.092c0.027,0.029,0.055,0.055,0.083,0.08c0.028,0.024,0.055,0.049,0.081,0.075
		s0.049,0.052,0.069,0.08c0.02,0.027,0.04,0.056,0.061,0.083s0.044,0.055,0.068,0.083c0.024,0.029,0.047,0.056,0.069,0.08
		c0.021,0.025,0.047,0.05,0.075,0.074c0.027,0.024,0.056,0.05,0.084,0.073c0.028,0.025,0.055,0.053,0.079,0.084
		c0.025,0.032,0.051,0.061,0.079,0.082c0.027,0.021,0.055,0.045,0.083,0.069c0.028,0.025,0.056,0.05,0.083,0.071
		c0.027,0.023,0.056,0.044,0.086,0.064c0.031,0.021,0.06,0.041,0.088,0.058c0.028,0.017,0.059,0.031,0.092,0.046
		c0.035,0.016,0.064,0.029,0.091,0.043s0.055,0.027,0.082,0.041s0.058,0.029,0.093,0.046c0.034,0.017,0.067,0.031,0.097,0.046
		c0.03,0.012,0.06,0.023,0.092,0.033c0.032,0.008,0.065,0.016,0.101,0.02c0.036,0.006,0.073,0.013,0.11,0.021
		c0.037,0.008,0.075,0.017,0.115,0.026c0.039,0.009,0.073,0.017,0.102,0.025c0.029,0.008,0.062,0.019,0.098,0.032
		c0.036,0.015,0.07,0.028,0.104,0.042c0.034,0.014,0.065,0.027,0.095,0.041c0.03,0.014,0.062,0.021,0.094,0.027
		c0.034,0.007,0.068,0.014,0.105,0.021s0.071,0.016,0.102,0.022c0.031,0.007,0.063,0.013,0.096,0.019
		c0.033,0.006,0.066,0.014,0.101,0.021c0.035,0.009,0.067,0.016,0.098,0.023c0.031,0.008,0.063,0.016,0.098,0.023
		c0.034,0.008,0.07,0.013,0.107,0.016c0.038,0.002,0.072,0.002,0.104,0.004c0.032,0,0.066-0.002,0.103-0.01
		c0.037-0.007,0.072-0.014,0.105-0.018c0.033-0.005,0.063-0.01,0.094-0.015c0.03-0.004,0.061-0.007,0.095-0.01
		c0.033-0.002,0.066-0.004,0.096-0.006c0.031-0.002,0.062-0.009,0.093-0.019l0.186-0.063c0.031-0.01,0.062-0.019,0.094-0.027
		c0.031-0.007,0.063-0.016,0.093-0.025l0.386-0.129c0.031-0.01,0.06-0.024,0.089-0.043c0.028-0.017,0.056-0.035,0.085-0.053
		c0.028-0.019,0.055-0.034,0.082-0.049s0.058-0.027,0.093-0.039c0.036-0.012,0.069-0.027,0.1-0.047l0.046-0.027"/>
	
		<path id="STROKE_B5771D0F.-689E.-48B2.-89CD.-A669AC85838C" fill="none" stroke="#000000" stroke-width="1.67" stroke-linecap="round" stroke-linejoin="round" d="
		M33.446,94.932c0.065-0.027,0.109-0.052,0.13-0.072c0.021-0.022,0.045-0.043,0.069-0.063c0.025-0.02,0.05-0.041,0.074-0.063
		c0.024-0.022,0.048-0.045,0.072-0.068c0.024-0.021,0.049-0.045,0.074-0.07c0.026-0.025,0.052-0.051,0.078-0.076
		c0.026-0.026,0.05-0.053,0.072-0.08c0.021-0.027,0.042-0.055,0.063-0.082c0.019-0.025,0.041-0.053,0.063-0.08
		c0.022-0.026,0.045-0.053,0.068-0.078s0.043-0.051,0.06-0.075c0.017-0.026,0.034-0.052,0.05-0.081
		c0.016-0.027,0.029-0.059,0.042-0.092c0.011-0.032,0.024-0.063,0.038-0.092c0.013-0.03,0.03-0.057,0.052-0.078
		c0.021-0.021,0.041-0.049,0.059-0.079c0.018-0.031,0.036-0.06,0.053-0.086s0.035-0.052,0.055-0.079
		c0.02-0.025,0.041-0.049,0.062-0.07c0.022-0.021,0.045-0.041,0.071-0.059c0.025-0.018,0.053-0.034,0.081-0.053
		c0.028-0.018,0.057-0.033,0.086-0.049c0.029-0.017,0.062-0.029,0.097-0.042l0.216-0.071c0.036-0.012,0.071-0.023,0.106-0.031
		c0.034-0.009,0.068-0.014,0.102-0.018c0.033-0.002,0.066-0.004,0.099-0.007c0.033-0.002,0.066-0.004,0.1-0.007
		s0.065-0.005,0.096-0.007c0.031-0.001,0.063-0.003,0.096-0.006c0.034-0.003,0.065-0.007,0.096-0.011
		c0.03-0.005,0.061-0.009,0.094-0.015c0.032-0.005,0.064-0.008,0.095-0.01c0.031-0.001,0.062-0.002,0.094-0.001
		c0.031,0.001,0.063,0.002,0.094,0.002c0.032,0.001,0.065,0.001,0.1,0.001c0.035,0,0.068,0.002,0.104,0.004
		c0.036,0.003,0.07,0.006,0.102,0.009c0.033,0.003,0.065,0.008,0.098,0.01c0.032,0.004,0.063,0.008,0.093,0.012
		c0.03,0.005,0.064,0.008,0.102,0.01c0.038,0.001,0.076,0.002,0.115,0c0.04-0.001,0.078-0.004,0.117-0.008
		c0.038-0.004,0.073-0.008,0.104-0.01s0.063-0.004,0.096-0.006c0.034-0.003,0.069-0.006,0.105-0.01
		c0.036-0.003,0.07-0.007,0.103-0.013c0.032-0.005,0.064-0.011,0.094-0.015c0.029-0.004,0.063-0.006,0.099-0.008
		c0.036,0,0.07,0,0.101-0.002c0.031-0.002,0.063-0.002,0.098-0.002c0.034,0,0.071-0.002,0.109-0.004
		c0.041-0.002,0.082-0.005,0.124-0.007c0.042-0.003,0.083-0.005,0.122-0.006c0.039-0.002,0.075-0.002,0.109-0.002
		c0.035,0,0.067-0.001,0.098-0.003c0.031-0.002,0.063-0.004,0.097-0.008c0.033-0.001,0.068-0.004,0.105-0.004
		c0.037,0,0.076-0.002,0.115-0.004c0.04-0.002,0.081-0.002,0.123-0.002c0.043,0,0.079,0,0.11-0.002
		c0.031-0.003,0.068-0.006,0.113-0.01c0.044-0.003,0.089-0.005,0.131-0.005c0.043,0.001,0.084,0.001,0.124,0.002
		c0.041,0.001,0.08,0.003,0.119,0.007c0.039,0.004,0.079,0.008,0.12,0.012c0.042,0.005,0.083,0.01,0.124,0.016
		c0.042,0.006,0.084,0.009,0.127,0.008c0.043,0,0.081,0.002,0.113,0.005c0.033,0.004,0.065,0.007,0.097,0.007
		c0.031,0.002,0.062,0.004,0.092,0.008l0.179,0.026c0.03,0.004,0.068,0.008,0.112,0.013c0.045,0.006,0.089,0.008,0.131,0.008
		s0.084,0,0.124,0.002c0.041,0,0.081,0,0.12-0.002c0.04-0.002,0.08-0.002,0.119,0c0.04,0,0.08,0.002,0.121,0.002
		c0.04,0,0.08,0,0.118-0.004c0.039-0.006,0.081-0.01,0.125-0.012c0.044-0.005,0.081-0.009,0.111-0.013s0.061-0.008,0.094-0.015
		c0.032-0.004,0.067-0.008,0.103-0.012c0.036-0.004,0.072-0.009,0.107-0.016c0.035-0.005,0.068-0.011,0.102-0.016
		c0.032-0.004,0.065-0.008,0.099-0.012c0.033-0.003,0.071-0.006,0.112-0.008c0.042-0.002,0.081-0.004,0.118-0.005
		c0.037,0,0.071-0.002,0.102-0.003c0.031-0.002,0.064-0.005,0.099-0.012s0.073-0.017,0.114-0.029l1.072-0.357
		c0.031-0.01,0.062-0.022,0.093-0.039c0.031-0.016,0.061-0.031,0.091-0.047c0.029-0.016,0.059-0.031,0.091-0.048
		c0.032-0.017,0.063-0.03,0.094-0.04c0.031-0.01,0.066-0.023,0.104-0.037c0.038-0.018,0.076-0.031,0.114-0.043
		c0.038-0.012,0.072-0.023,0.103-0.035c0.031-0.01,0.062-0.021,0.091-0.035c0.03-0.012,0.064-0.028,0.101-0.047
		c0.037-0.017,0.069-0.033,0.095-0.049c0.027-0.014,0.055-0.027,0.084-0.041c0.03-0.012,0.061-0.025,0.094-0.039
		c0.032-0.013,0.064-0.027,0.096-0.043c0.032-0.018,0.065-0.033,0.097-0.047c0.033-0.014,0.068-0.029,0.108-0.049
		c0.039-0.018,0.076-0.035,0.111-0.049c0.036-0.016,0.069-0.031,0.1-0.051c0.031-0.019,0.059-0.04,0.086-0.063
		c0.027-0.023,0.054-0.048,0.083-0.075c0.028-0.025,0.057-0.049,0.087-0.067c0.031-0.02,0.063-0.037,0.098-0.055
		c0.034-0.016,0.071-0.031,0.11-0.043c0.039-0.014,0.073-0.027,0.102-0.043l0.044-0.022"/>
	
		<path id="STROKE_ED774658.-C51F.-407D.-AFF5.-F96787B4B686" fill="none" stroke="#000000" stroke-width="1.67" stroke-linecap="round" stroke-linejoin="round" d="
		M37.863,85.232c0.063-0.016,0.109-0.017,0.137-0.002c0.028,0.012,0.057,0.027,0.088,0.043c0.03,0.015,0.059,0.03,0.088,0.047
		c0.028,0.016,0.058,0.031,0.091,0.047c0.034,0.014,0.069,0.028,0.109,0.045c0.039,0.015,0.082,0.031,0.127,0.047
		s0.093,0.029,0.142,0.042c0.05,0.013,0.089,0.021,0.119,0.024c0.03,0.004,0.061,0.011,0.091,0.018
		c0.031,0.008,0.065,0.016,0.102,0.021c0.038,0.008,0.072,0.014,0.104,0.016c0.034,0.005,0.068,0.01,0.104,0.018
		s0.073,0.014,0.11,0.02c0.036,0.006,0.072,0.012,0.109,0.02s0.073,0.014,0.109,0.019c0.036,0.005,0.076,0.012,0.119,0.021
		c0.043,0.01,0.082,0.018,0.119,0.023c0.036,0.009,0.074,0.016,0.113,0.023c0.041,0.008,0.08,0.012,0.121,0.016
		c0.042,0.002,0.083,0.008,0.125,0.014c0.042,0.005,0.081,0.01,0.116,0.012c0.035,0.004,0.076,0.005,0.122,0.008
		c0.046,0.002,0.09,0.002,0.133,0.002c0.044,0,0.084,0,0.123-0.002c0.039-0.003,0.08-0.004,0.122-0.006
		c0.042-0.004,0.083-0.004,0.124-0.004c0.04,0.001,0.079,0,0.115-0.004c0.036-0.002,0.076-0.006,0.12-0.01
		c0.045-0.003,0.086-0.005,0.126-0.008c0.04-0.002,0.079-0.006,0.12-0.01c0.042-0.006,0.082-0.009,0.121-0.01
		c0.039-0.002,0.079-0.006,0.117-0.01c0.039-0.005,0.075-0.008,0.108-0.012c0.034-0.002,0.071-0.006,0.112-0.01
		c0.04-0.004,0.076-0.009,0.107-0.011c0.031-0.002,0.063-0.004,0.096-0.006c0.034-0.003,0.066-0.003,0.098-0.002
		s0.063,0,0.094-0.002c0.03-0.002,0.07-0.003,0.119-0.002c0.05,0.001,0.097,0.005,0.142,0.013c0.045,0.008,0.086,0.016,0.123,0.023
		c0.036,0.008,0.072,0.018,0.107,0.027c0.036,0.013,0.069,0.023,0.102,0.037c0.033,0.012,0.067,0.024,0.103,0.037
		c0.036,0.014,0.069,0.027,0.098,0.041c0.03,0.012,0.058,0.026,0.084,0.044l0.039,0.024"/>
	
		<path id="STROKE_5E7F4E80.-2009.-45D6.-9311.-1717B6DA9373" fill="none" stroke="#000000" stroke-width="1.7" stroke-linecap="round" stroke-linejoin="round" d="
		M29.64,83.572c-0.023-0.129-0.047-0.227-0.073-0.289c-0.026-0.062-0.052-0.123-0.079-0.185c-0.026-0.061-0.053-0.122-0.08-0.185
		c-0.027-0.063-0.055-0.127-0.083-0.193c-0.028-0.066-0.056-0.132-0.083-0.193c-0.027-0.063-0.053-0.131-0.077-0.203
		c-0.025-0.073-0.049-0.148-0.075-0.227c-0.026-0.076-0.051-0.154-0.075-0.232c-0.024-0.078-0.049-0.154-0.073-0.227
		c-0.024-0.072-0.049-0.146-0.073-0.219c-0.024-0.073-0.048-0.145-0.071-0.213c-0.024-0.066-0.046-0.133-0.068-0.196
		s-0.046-0.124-0.071-0.18c-0.025-0.058-0.051-0.11-0.075-0.162s-0.049-0.104-0.073-0.155c-0.024-0.052-0.05-0.103-0.078-0.155
		c-0.029-0.052-0.058-0.105-0.089-0.16c-0.031-0.055-0.061-0.11-0.092-0.165c-0.03-0.055-0.061-0.113-0.092-0.174
		c-0.031-0.061-0.059-0.126-0.082-0.194c-0.023-0.067-0.045-0.13-0.064-0.188c-0.021-0.058-0.04-0.114-0.06-0.167
		c-0.019-0.054-0.039-0.11-0.06-0.168c-0.02-0.058-0.044-0.12-0.072-0.188c-0.029-0.067-0.057-0.133-0.085-0.2
		s-0.053-0.132-0.075-0.194c-0.022-0.063-0.047-0.13-0.075-0.202c-0.028-0.072-0.054-0.134-0.079-0.187
		c-0.024-0.052-0.054-0.114-0.089-0.184c-0.034-0.07-0.066-0.131-0.095-0.181c-0.03-0.05-0.057-0.101-0.081-0.153
		c-0.024-0.051-0.048-0.103-0.07-0.155c-0.024-0.052-0.048-0.107-0.075-0.165c-0.025-0.058-0.049-0.12-0.073-0.187
		c-0.023-0.066-0.048-0.134-0.076-0.201c-0.029-0.067-0.051-0.13-0.066-0.19c-0.017-0.06-0.032-0.122-0.048-0.186
		c-0.017-0.064-0.041-0.125-0.071-0.18c-0.031-0.056-0.063-0.119-0.097-0.19c-0.033-0.07-0.062-0.134-0.088-0.19
		c-0.025-0.057-0.055-0.109-0.09-0.158c-0.034-0.049-0.064-0.1-0.088-0.153c-0.025-0.052-0.049-0.107-0.073-0.164
		c-0.024-0.057-0.047-0.115-0.068-0.174c-0.02-0.058-0.041-0.119-0.063-0.181c-0.021-0.063-0.046-0.119-0.076-0.168
		c-0.03-0.051-0.06-0.103-0.088-0.153c-0.03-0.051-0.058-0.102-0.087-0.152c-0.027-0.051-0.056-0.102-0.086-0.152l-0.043-0.075"/>
	
		<path id="STROKE_0D5BD0E2.-71B6.-45D3.-8AC8.-F7D042CBCE99" fill="none" stroke="#000000" stroke-width="1.67" stroke-linecap="round" stroke-linejoin="round" d="
		M20.54,56.301c-0.058-0.222-0.102-0.391-0.132-0.504c-0.029-0.113,0.007-0.148,0.108-0.103c0.101,0.045,0.184,0.113,0.249,0.206
		c0.065,0.092,0.135,0.189,0.21,0.288c0.074,0.1,0.151,0.205,0.231,0.315s0.161,0.209,0.243,0.297
		c0.082,0.088,0.159,0.172,0.231,0.254c0.072,0.081,0.162,0.172,0.268,0.276c0.106,0.103,0.216,0.2,0.33,0.289
		c0.111,0.09,0.229,0.179,0.353,0.269c0.123,0.089,0.247,0.182,0.372,0.278c0.125,0.096,0.248,0.184,0.369,0.265
		c0.12,0.08,0.23,0.171,0.329,0.274c0.098,0.104,0.185,0.207,0.26,0.308c0.075,0.102,0.151,0.202,0.228,0.301
		c0.077,0.099,0.151,0.189,0.22,0.271c0.07,0.082,0.146,0.162,0.229,0.241c0.082,0.079,0.158,0.158,0.228,0.24
		s0.167,0.111,0.292,0.089c0.125-0.023,0.25-0.02,0.378,0.008c0.127,0.028,0.257,0.043,0.389,0.049c0.131,0.004,0.262,0.004,0.392,0
		c0.13-0.002,0.276-0.016,0.439-0.039c0.163-0.023,0.313-0.042,0.451-0.057c0.137-0.014,0.277-0.031,0.421-0.049
		s0.294-0.037,0.45-0.057c0.156-0.019,0.317-0.036,0.483-0.05c0.165-0.014,0.328-0.022,0.489-0.023
		c0.161-0.002,0.318-0.013,0.473-0.034c0.153-0.021,0.297-0.039,0.436-0.052c0.137-0.016,0.266-0.038,0.388-0.07l1.127-0.293
		c0.158-0.041,0.313-0.086,0.461-0.134c0.149-0.048,0.292-0.091,0.432-0.127l1.142-0.297c0.112-0.029,0.223-0.048,0.33-0.058
		c0.108-0.008,0.183,0.052,0.224,0.181c0.041,0.13,0.038,0.255-0.009,0.377c-0.049,0.122-0.117,0.225-0.205,0.307
		c-0.088,0.083-0.182,0.172-0.276,0.268c-0.095,0.096-0.195,0.192-0.298,0.288c-0.103,0.096-0.209,0.203-0.319,0.322
		c-0.11,0.119-0.203,0.223-0.28,0.312c-0.076,0.089-0.159,0.175-0.248,0.258c-0.088,0.082-0.181,0.167-0.279,0.254
		c-0.098,0.086-0.199,0.183-0.302,0.289c-0.103,0.105-0.201,0.211-0.294,0.315c-0.093,0.105-0.181,0.209-0.265,0.311
		c-0.084,0.103-0.172,0.205-0.265,0.308c-0.095,0.104-0.174,0.199-0.242,0.288c-0.066,0.088-0.14,0.168-0.222,0.239
		c-0.081,0.071-0.174,0.159-0.277,0.265s-0.201,0.211-0.294,0.316c-0.093,0.105-0.176,0.206-0.25,0.304
		c-0.075,0.098-0.141,0.211-0.198,0.337c-0.057,0.125-0.104,0.249-0.143,0.368c-0.038,0.119-0.062,0.24-0.071,0.361
		c-0.009,0.122-0.022,0.241-0.042,0.356c-0.02,0.117-0.051,0.224-0.096,0.325c-0.046,0.1-0.033,0.207,0.037,0.319
		c0.07,0.112,0.157,0.215,0.26,0.308c0.104,0.092,0.209,0.174,0.318,0.245c0.108,0.072,0.226,0.162,0.354,0.269
		c0.127,0.107,0.238,0.203,0.332,0.288c0.094,0.085,0.188,0.176,0.282,0.272c0.094,0.097,0.189,0.197,0.286,0.3
		c0.096,0.104,0.193,0.209,0.292,0.314c0.101,0.104,0.191,0.206,0.276,0.305c0.084,0.099,0.171,0.202,0.26,0.307
		c0.089,0.106,0.177,0.213,0.264,0.32c0.087,0.108,0.17,0.216,0.249,0.325c0.08,0.107,0.158,0.217,0.235,0.328
		c0.078,0.11,0.155,0.214,0.232,0.314c0.077,0.099,0.157,0.213,0.24,0.342c0.082,0.128,0.157,0.248,0.227,0.361
		c0.071,0.112,0.143,0.229,0.214,0.35c0.073,0.122,0.151,0.251,0.236,0.388c0.083,0.139,0.18,0.279,0.286,0.422
		c0.107,0.143,0.205,0.272,0.296,0.387c0.092,0.116,0.185,0.22,0.279,0.317c0.094,0.097,0.194,0.19,0.3,0.282
		c0.106,0.091,0.206,0.165,0.3,0.221c0.094,0.057,0.164,0.134,0.209,0.231s0.096,0.194,0.149,0.29
		c0.053,0.096,0.031,0.187-0.067,0.274c-0.099,0.087-0.216,0.148-0.355,0.184c-0.14,0.037-0.286,0.054-0.437,0.053
		c-0.152,0-0.289-0.005-0.412-0.014c-0.122-0.008-0.24-0.018-0.353-0.029c-0.113-0.011-0.231-0.025-0.356-0.042
		c-0.125-0.018-0.247-0.03-0.367-0.04c-0.121-0.009-0.235-0.025-0.343-0.047c-0.108-0.022-0.218-0.038-0.332-0.049
		c-0.112-0.011-0.242-0.027-0.386-0.05c-0.144-0.022-0.288-0.039-0.432-0.051c-0.145-0.013-0.269-0.03-0.375-0.053
		c-0.105-0.022-0.218-0.048-0.335-0.077c-0.118-0.029-0.239-0.052-0.364-0.07c-0.125-0.017-0.26-0.032-0.404-0.045
		c-0.144-0.012-0.282-0.026-0.414-0.042c-0.132-0.015-0.264-0.026-0.396-0.032c-0.133-0.006-0.265-0.011-0.397-0.018
		c-0.132-0.006-0.253-0.009-0.364-0.009c-0.11-0.001-0.237-0.007-0.381-0.019c-0.144-0.013-0.286-0.021-0.425-0.025
		c-0.14-0.004-0.266-0.012-0.379-0.023c-0.113-0.011-0.223-0.012-0.331-0.003c-0.108,0.009-0.223,0.014-0.342,0.014
		c-0.12,0-0.254,0.011-0.4,0.029c-0.146,0.019-0.278,0.033-0.396,0.042c-0.118,0.01-0.231,0.019-0.339,0.027
		c-0.107,0.009-0.22,0.019-0.338,0.03c-0.117,0.012-0.23,0.021-0.338,0.028c-0.108,0.007-0.217,0.03-0.325,0.067
		c-0.108,0.039-0.211,0.101-0.308,0.187c-0.098,0.087-0.191,0.192-0.28,0.315c-0.088,0.124-0.169,0.233-0.244,0.332
		c-0.074,0.098-0.156,0.208-0.244,0.332s-0.177,0.247-0.266,0.368c-0.088,0.123-0.18,0.251-0.276,0.386
		c-0.095,0.135-0.194,0.256-0.297,0.363c-0.103,0.107-0.201,0.213-0.294,0.319c-0.093,0.104-0.188,0.199-0.284,0.283
		c-0.096,0.085-0.199,0.167-0.309,0.245c-0.11,0.079-0.22,0.157-0.33,0.236c-0.11,0.079-0.211,0.155-0.302,0.228
		c-0.091,0.074-0.18,0.152-0.269,0.234c-0.088,0.083-0.179,0.181-0.27,0.295c-0.09,0.114-0.179,0.217-0.265,0.308
		c-0.087,0.092-0.172,0.189-0.255,0.291c-0.083,0.103-0.163,0.198-0.24,0.287c-0.077,0.09-0.152,0.184-0.226,0.284
		c-0.074,0.1-0.142,0.203-0.204,0.309c-0.062,0.107-0.119,0.217-0.168,0.329c-0.05,0.113-0.114,0.219-0.19,0.318
		c-0.077,0.099-0.161,0.104-0.253,0.02c-0.091-0.086-0.155-0.199-0.192-0.34l-0.408-1.57c-0.032-0.123-0.049-0.249-0.052-0.379
		c-0.003-0.129-0.01-0.273-0.02-0.43c-0.01-0.157-0.021-0.313-0.034-0.469c-0.012-0.156-0.026-0.322-0.042-0.498
		c-0.015-0.178-0.024-0.351-0.027-0.518c-0.003-0.168-0.002-0.338,0.002-0.508c0.005-0.17,0.011-0.337,0.02-0.501
		c0.009-0.163,0.019-0.317,0.03-0.46c0.012-0.143,0.032-0.278,0.061-0.405c0.028-0.126,0.055-0.257,0.078-0.394
		c0.023-0.137,0.043-0.272,0.06-0.405c0.017-0.133,0.032-0.266,0.046-0.4c0.013-0.135,0.025-0.263,0.034-0.384
		c0.011-0.122,0.024-0.26,0.042-0.414c0.019-0.155,0.051-0.304,0.096-0.446c0.045-0.143,0.096-0.276,0.154-0.4
		c0.057-0.125,0.119-0.25,0.186-0.377c0.067-0.127,0.133-0.235,0.2-0.323c0.067-0.087,0.128-0.179,0.183-0.272
		c0.055-0.093,0.078-0.199,0.067-0.317c-0.01-0.119-0.029-0.233-0.059-0.346c-0.03-0.111-0.097-0.198-0.203-0.261
		c-0.106-0.063-0.217-0.104-0.332-0.124s-0.227-0.046-0.335-0.077c-0.107-0.032-0.228-0.071-0.361-0.117
		c-0.132-0.046-0.249-0.09-0.35-0.133c-0.101-0.043-0.209-0.095-0.325-0.156c-0.115-0.06-0.232-0.124-0.35-0.193
		c-0.118-0.07-0.231-0.135-0.34-0.198c-0.108-0.062-0.221-0.128-0.339-0.197c-0.118-0.069-0.234-0.128-0.347-0.18
		s-0.221-0.103-0.324-0.155c-0.104-0.053-0.212-0.104-0.325-0.155c-0.114-0.051-0.229-0.091-0.346-0.12
		c-0.118-0.029-0.255-0.053-0.411-0.072c-0.157-0.019-0.305-0.035-0.446-0.048c-0.142-0.013-0.276-0.028-0.4-0.046
		c-0.125-0.017-0.239-0.048-0.34-0.093c-0.101-0.045-0.196-0.1-0.285-0.165c-0.089-0.066-0.168-0.14-0.238-0.223
		c-0.071-0.084-0.142-0.167-0.214-0.248c-0.073-0.081-0.144-0.162-0.214-0.245c-0.07-0.082-0.16-0.163-0.271-0.242
		c-0.11-0.082-0.221-0.138-0.332-0.168c-0.11-0.031-0.22-0.066-0.33-0.107c-0.111-0.04-0.198-0.107-0.261-0.203
		c-0.063-0.095-0.118-0.191-0.164-0.289c-0.045-0.098-0.03-0.191,0.047-0.28c0.077-0.089,0.161-0.17,0.252-0.245
		c0.09-0.072,0.184-0.138,0.279-0.193c0.096-0.056,0.208-0.105,0.338-0.149c0.13-0.042,0.264-0.083,0.403-0.119l2.559-0.665
		c0.142-0.037,0.281-0.064,0.418-0.08c0.136-0.018,0.259-0.028,0.367-0.035c0.108-0.007,0.228-0.023,0.36-0.048
		c0.132-0.024,0.256-0.047,0.371-0.067c0.115-0.021,0.245-0.039,0.392-0.056c0.147-0.017,0.276-0.026,0.386-0.026
		s0.219-0.003,0.327-0.01c0.109-0.007,0.212-0.034,0.31-0.081c0.099-0.046,0.152-0.125,0.161-0.237
		c0.009-0.112,0.022-0.235,0.038-0.37c0.016-0.135,0.038-0.265,0.064-0.392c0.026-0.125,0.061-0.259,0.106-0.402
		c0.046-0.142,0.088-0.268,0.128-0.378c0.041-0.11,0.084-0.231,0.129-0.362c0.046-0.131,0.109-0.272,0.188-0.424
		c0.083-0.151,0.172-0.325,0.273-0.521c0.1-0.195,0.171-0.348,0.211-0.458c0.04-0.111,0.089-0.228,0.146-0.353
		c0.058-0.125,0.109-0.238,0.154-0.34c0.045-0.102,0.088-0.208,0.129-0.318c0.04-0.11,0.081-0.221,0.121-0.332
		c0.04-0.111,0.083-0.217,0.128-0.318c0.045-0.103,0.104-0.228,0.175-0.377c0.071-0.15,0.144-0.274,0.218-0.372
		c0.075-0.098,0.158-0.179,0.251-0.243l0.141-0.097"/>
	
		<path id="STROKE_3899CCBE.-817B.-4191.-9AF1.-1DAF86C022DF" fill="none" stroke="#000000" stroke-width="1.7" stroke-linecap="round" stroke-linejoin="round" d="
		M34.58,95.174c-0.041-0.148-0.072-0.253-0.095-0.314c-0.022-0.063-0.042-0.125-0.06-0.191c-0.018-0.064-0.035-0.127-0.051-0.187
		c-0.016-0.059-0.016-0.057,0.002,0.009l0.284,1.037c0.017,0.063,0.042,0.131,0.072,0.201c0.03,0.071,0.061,0.145,0.093,0.221
		c0.031,0.076,0.063,0.153,0.095,0.23c0.032,0.076,0.069,0.154,0.111,0.232c0.041,0.079,0.082,0.16,0.122,0.245
		c0.039,0.085,0.078,0.168,0.116,0.247c0.038,0.078,0.078,0.158,0.12,0.237c0.042,0.079,0.082,0.156,0.118,0.231
		c0.037,0.074,0.073,0.146,0.109,0.216c0.035,0.069,0.069,0.136,0.102,0.196c0.033,0.061,0.063,0.123,0.091,0.188
		c0.027,0.066,0.054,0.125,0.079,0.177c0.025,0.054,0.053,0.106,0.085,0.161c0.031,0.054,0.059,0.106,0.083,0.159
		c0.025,0.051,0.051,0.105,0.078,0.162c0.026,0.057,0.05,0.113,0.071,0.172c0.021,0.057,0.052,0.143,0.092,0.254
		c0.04,0.111,0.069,0.201,0.088,0.271c0.019,0.069,0.049,0.157,0.088,0.262c0.04,0.106,0.079,0.216,0.114,0.327
		c0.036,0.113,0.074,0.221,0.114,0.326s0.072,0.186,0.097,0.236s0.047,0.104,0.068,0.156c0.02,0.054,0.049,0.125,0.089,0.215
		c0.039,0.09,0.081,0.176,0.126,0.26c0.044,0.084,0.084,0.159,0.12,0.229c0.035,0.07,0.067,0.13,0.096,0.181
		c0.029,0.051,0.056,0.1,0.08,0.152c0.025,0.051,0.056,0.104,0.093,0.158c0.037,0.054,0.07,0.105,0.1,0.156
		c0.031,0.049,0.061,0.103,0.09,0.158c0.03,0.057,0.058,0.112,0.085,0.168c0.026,0.057,0.055,0.111,0.086,0.166
		c0.03,0.056,0.059,0.108,0.083,0.16c0.026,0.053,0.054,0.109,0.085,0.17c0.032,0.059,0.062,0.113,0.092,0.164
		c0.03,0.049,0.055,0.109,0.074,0.178l0.028,0.104"/>
</g>
</svg>
