<?xml version="1.0" encoding="UTF-8" standalone="no"?><!DOCTYPE svg PUBLIC "-//W3C//DTD SVG 1.1//EN" "http://www.w3.org/Graphics/SVG/1.1/DTD/svg11.dtd"><svg width="100%" height="100%" viewBox="0 0 160 160" version="1.1" xmlns="http://www.w3.org/2000/svg" xmlns:xlink="http://www.w3.org/1999/xlink" xml:space="preserve" style="fill-rule:evenodd;clip-rule:evenodd;stroke-linecap:round;stroke-linejoin:round;"><g id="accessory"><g id="arrow"><path id="STROKE_BF716912.-FE8C.-4FE9.-92CF.-04A20781C677" d="M120.929,75.994c-0.113,0.013 -0.14,0.009 -0.082,-0.01c0.058,-0.019 0.12,-0.033 0.184,-0.041c0.065,-0.008 0.128,-0.02 0.19,-0.034c0.062,-0.015 0.126,-0.026 0.192,-0.034c0.065,-0.009 0.128,-0.016 0.188,-0.021c0.06,-0.006 0.118,-0.012 0.175,-0.018c0.056,-0.006 0.113,-0.016 0.171,-0.03c0.058,-0.014 0.115,-0.024 0.171,-0.029c0.057,-0.006 0.113,-0.011 0.17,-0.017c0.057,-0.007 0.117,-0.012 0.181,-0.016c0.064,-0.004 0.126,-0.009 0.188,-0.015c0.06,-0.005 0.125,-0.012 0.194,-0.021c0.069,-0.009 0.134,-0.016 0.195,-0.02c0.061,-0.005 0.122,-0.008 0.182,-0.01c0.06,-0.001 0.121,-0.004 0.182,-0.009c0.061,-0.005 0.126,-0.011 0.195,-0.02c0.069,-0.009 0.132,-0.018 0.189,-0.028c0.057,-0.01 0.116,-0.018 0.177,-0.024c0.061,-0.005 0.124,-0.012 0.188,-0.021c0.065,-0.008 0.132,-0.017 0.202,-0.025c0.07,-0.008 0.138,-0.017 0.202,-0.027c0.065,-0.009 0.132,-0.016 0.202,-0.02c0.069,-0.005 0.141,-0.013 0.215,-0.025c0.074,-0.012 0.139,-0.023 0.196,-0.032c0.057,-0.01 0.127,-0.022 0.21,-0.038c0.083,-0.016 0.167,-0.034 0.252,-0.053c0.084,-0.019 0.165,-0.034 0.243,-0.046c0.079,-0.011 0.152,-0.021 0.221,-0.03c0.069,-0.009 0.14,-0.015 0.214,-0.018c0.074,-0.003 0.152,-0.006 0.233,-0.009c0.082,-0.003 0.161,-0.008 0.239,-0.016c0.077,-0.007 0.158,-0.017 0.241,-0.028c0.084,-0.011 0.154,-0.021 0.211,-0.031c0.057,-0.01 0.114,-0.02 0.17,-0.031c0.056,-0.01 0.124,-0.021 0.203,-0.032c0.079,-0.012 0.155,-0.019 0.228,-0.022c0.072,-0.004 0.144,-0.01 0.214,-0.018c0.07,-0.009 0.135,-0.016 0.195,-0.021c0.06,-0.006 0.122,-0.013 0.188,-0.021c0.066,-0.008 0.135,-0.019 0.209,-0.031c0.074,-0.012 0.153,-0.023 0.236,-0.034c0.084,-0.011 0.165,-0.023 0.243,-0.034c0.078,-0.012 0.153,-0.02 0.226,-0.024c0.073,-0.004 0.146,-0.008 0.22,-0.012c0.074,-0.004 0.145,-0.004 0.212,0.001c0.067,0.004 0.134,0.004 0.199,0c0.065,-0.004 0.138,-0.01 0.221,-0.017c0.082,-0.007 0.166,-0.016 0.253,-0.026c0.086,-0.011 0.167,-0.02 0.241,-0.028c0.075,-0.008 0.148,-0.012 0.22,-0.011c0.072,0.001 0.145,0.003 0.218,0.008c0.073,0.004 0.138,0.007 0.197,0.011c0.059,0.003 0.123,0.002 0.192,-0.001c0.07,-0.004 0.143,-0.007 0.22,-0.011c0.077,-0.003 0.146,-0.006 0.207,-0.006c0.06,-0.001 0.127,-0.007 0.201,-0.02c0.073,-0.012 0.141,-0.021 0.202,-0.026c0.061,-0.006 0.122,-0.015 0.184,-0.029c0.062,-0.013 0.121,-0.023 0.178,-0.03c0.057,-0.006 0.115,-0.011 0.175,-0.016c0.059,-0.005 0.119,-0.006 0.179,-0.003c0.06,0.002 0.118,-0.001 0.175,-0.011c0.058,-0.009 0.114,-0.027 0.168,-0.055c0.055,-0.028 0.114,-0.051 0.175,-0.068c0.061,-0.018 0.123,-0.036 0.186,-0.054c0.062,-0.017 0.124,-0.033 0.186,-0.047c0.062,-0.013 0.122,-0.032 0.181,-0.055c0.059,-0.023 0.117,-0.046 0.175,-0.068c0.057,-0.022 0.117,-0.042 0.18,-0.06c0.062,-0.018 0.122,-0.032 0.179,-0.042c0.057,-0.01 0.117,-0.022 0.179,-0.035c0.062,-0.014 0.121,-0.03 0.178,-0.048c0.057,-0.019 0.117,-0.039 0.18,-0.062c0.063,-0.022 0.124,-0.041 0.181,-0.055l0.087,-0.021" style="fill:none;stroke:#000;stroke-width:1.7px;"/><path id="STROKE_9520F1CA.-1E99.-43CC.-9661.-DABB4A1923CF" d="M119.892,72.274c0.14,-0.033 0.247,-0.056 0.322,-0.068c0.075,-0.012 0.145,-0.023 0.209,-0.032c0.065,-0.009 0.138,-0.019 0.221,-0.03c0.082,-0.011 0.152,-0.02 0.208,-0.025c0.057,-0.005 0.12,-0.012 0.19,-0.021c0.07,-0.008 0.142,-0.019 0.216,-0.031c0.074,-0.012 0.148,-0.022 0.222,-0.03c0.075,-0.008 0.151,-0.017 0.229,-0.029c0.078,-0.012 0.152,-0.022 0.221,-0.031c0.069,-0.008 0.138,-0.017 0.208,-0.025c0.07,-0.009 0.136,-0.018 0.198,-0.026c0.061,-0.009 0.12,-0.017 0.177,-0.023c0.056,-0.006 0.124,-0.016 0.202,-0.032c0.079,-0.016 0.149,-0.029 0.21,-0.038c0.062,-0.01 0.122,-0.017 0.182,-0.023c0.06,-0.006 0.121,-0.011 0.181,-0.016c0.061,-0.004 0.122,-0.01 0.183,-0.015c0.061,-0.006 0.123,-0.011 0.188,-0.015c0.064,-0.004 0.124,-0.009 0.181,-0.016c0.056,-0.006 0.12,-0.013 0.19,-0.022c0.07,-0.008 0.146,-0.016 0.228,-0.023c0.081,-0.007 0.153,-0.013 0.214,-0.018c0.061,-0.004 0.128,-0.013 0.202,-0.025c0.074,-0.012 0.141,-0.021 0.202,-0.026c0.061,-0.006 0.121,-0.014 0.182,-0.023c0.06,-0.01 0.119,-0.02 0.176,-0.029c0.057,-0.009 0.121,-0.018 0.191,-0.026c0.07,-0.009 0.135,-0.018 0.195,-0.028c0.061,-0.01 0.122,-0.019 0.183,-0.029c0.061,-0.01 0.13,-0.02 0.205,-0.032c0.074,-0.012 0.144,-0.025 0.209,-0.038c0.066,-0.014 0.131,-0.025 0.197,-0.034c0.066,-0.009 0.129,-0.018 0.189,-0.027c0.06,-0.009 0.123,-0.018 0.189,-0.026c0.066,-0.01 0.131,-0.017 0.196,-0.022c0.066,-0.005 0.131,-0.012 0.195,-0.021c0.065,-0.009 0.132,-0.016 0.202,-0.019c0.069,-0.004 0.14,-0.006 0.212,-0.006c0.073,0 0.139,-0.002 0.2,-0.007c0.061,-0.005 0.12,-0.012 0.177,-0.022c0.057,-0.01 0.114,-0.021 0.171,-0.031c0.057,-0.01 0.121,-0.021 0.19,-0.034c0.07,-0.013 0.139,-0.021 0.209,-0.026c0.069,-0.004 0.14,-0.008 0.213,-0.011c0.073,-0.003 0.144,-0.005 0.213,-0.006c0.069,0 0.138,-0.004 0.207,-0.012c0.069,-0.008 0.138,-0.014 0.207,-0.019c0.07,-0.004 0.139,-0.011 0.208,-0.019c0.069,-0.009 0.134,-0.012 0.193,-0.008c0.06,0.003 0.124,0.007 0.191,0.011c0.068,0.004 0.138,0.007 0.211,0.007c0.074,0 0.151,-0.001 0.233,-0.003c0.081,-0.002 0.152,-0.004 0.212,-0.006c0.061,-0.001 0.127,-0.004 0.2,-0.007c0.072,-0.003 0.142,-0.009 0.208,-0.019c0.065,-0.009 0.128,-0.013 0.187,-0.014c0.059,-0.001 0.122,-0.004 0.187,-0.009c0.065,-0.005 0.136,-0.009 0.213,-0.013c0.077,-0.003 0.153,-0.005 0.226,-0.004c0.073,0.001 0.14,0.001 0.2,0.001c0.061,-0.001 0.121,-0.006 0.181,-0.016c0.061,-0.01 0.119,-0.018 0.176,-0.024c0.056,-0.006 0.117,-0.007 0.181,-0.003c0.064,0.004 0.128,0.003 0.192,-0.002c0.065,-0.005 0.125,-0.012 0.182,-0.022c0.057,-0.009 0.118,-0.014 0.183,-0.015c0.064,-0.001 0.131,-0.006 0.2,-0.015c0.069,-0.008 0.133,-0.02 0.19,-0.034c0.058,-0.014 0.115,-0.026 0.172,-0.035c0.057,-0.009 0.117,-0.019 0.178,-0.028c0.062,-0.01 0.125,-0.019 0.189,-0.028c0.065,-0.01 0.13,-0.015 0.194,-0.016c0.065,-0.001 0.129,0.001 0.192,0.004c0.063,0.004 0.123,0.003 0.18,-0.002c0.056,-0.005 0.114,-0.009 0.175,-0.01l0.09,-0.002" style="fill:none;stroke:#000;stroke-width:1.7px;"/><path id="STROKE_6A9CECA3.-DEAF.-4D36.-A033.-09331A7F2825" d="M145.562,71.437c0.095,-0.081 0.113,-0.126 0.054,-0.133c-0.059,-0.008 -0.119,0.002 -0.178,0.028c-0.059,0.026 -0.114,0.054 -0.164,0.082c-0.051,0.028 -0.11,0.057 -0.177,0.088c-0.067,0.03 -0.14,0.063 -0.218,0.101c-0.078,0.036 -0.158,0.075 -0.24,0.116c-0.082,0.041 -0.166,0.082 -0.252,0.123c-0.086,0.041 -0.168,0.082 -0.247,0.123c-0.078,0.041 -0.154,0.081 -0.226,0.118c-0.073,0.038 -0.139,0.075 -0.2,0.11c-0.06,0.035 -0.118,0.067 -0.172,0.094c-0.055,0.028 -0.108,0.056 -0.159,0.084c-0.05,0.028 -0.111,0.063 -0.181,0.106c-0.07,0.042 -0.138,0.08 -0.206,0.114c-0.068,0.035 -0.134,0.071 -0.199,0.11c-0.066,0.039 -0.131,0.077 -0.196,0.116c-0.065,0.039 -0.132,0.08 -0.201,0.123c-0.069,0.043 -0.129,0.081 -0.18,0.113c-0.051,0.032 -0.102,0.064 -0.153,0.097c-0.051,0.032 -0.112,0.071 -0.182,0.117c-0.071,0.047 -0.136,0.089 -0.197,0.129c-0.061,0.039 -0.125,0.078 -0.194,0.117c-0.068,0.039 -0.137,0.078 -0.207,0.116c-0.069,0.038 -0.131,0.071 -0.186,0.098c-0.055,0.026 -0.107,0.054 -0.158,0.082c-0.051,0.029 -0.106,0.062 -0.167,0.101c-0.061,0.04 -0.117,0.075 -0.168,0.108c-0.051,0.032 -0.102,0.066 -0.154,0.103c-0.052,0.036 -0.103,0.072 -0.155,0.108c-0.051,0.036 -0.103,0.073 -0.155,0.109c-0.051,0.036 -0.105,0.074 -0.16,0.114c-0.056,0.04 -0.114,0.08 -0.174,0.12c-0.061,0.04 -0.122,0.078 -0.182,0.113c-0.06,0.035 -0.125,0.072 -0.195,0.11c-0.069,0.039 -0.135,0.073 -0.198,0.104c-0.063,0.03 -0.125,0.063 -0.185,0.099c-0.06,0.035 -0.12,0.068 -0.18,0.098c-0.06,0.03 -0.117,0.061 -0.172,0.093c-0.056,0.032 -0.116,0.063 -0.18,0.094c-0.064,0.03 -0.13,0.061 -0.197,0.091c-0.067,0.03 -0.133,0.063 -0.198,0.097c-0.064,0.035 -0.135,0.069 -0.211,0.102c-0.077,0.033 -0.154,0.068 -0.232,0.105c-0.078,0.038 -0.153,0.071 -0.224,0.101c-0.072,0.029 -0.144,0.061 -0.217,0.094c-0.074,0.034 -0.142,0.064 -0.204,0.091c-0.062,0.027 -0.126,0.055 -0.19,0.085c-0.064,0.03 -0.128,0.062 -0.192,0.097c-0.065,0.034 -0.127,0.069 -0.188,0.104c-0.06,0.036 -0.118,0.069 -0.173,0.101c-0.056,0.031 -0.113,0.063 -0.171,0.094c-0.059,0.031 -0.12,0.062 -0.184,0.093c-0.064,0.031 -0.123,0.055 -0.177,0.074c-0.054,0.019 -0.111,0.042 -0.17,0.069c-0.059,0.027 -0.116,0.052 -0.17,0.075c-0.055,0.023 -0.111,0.048 -0.169,0.075c-0.058,0.027 -0.114,0.052 -0.169,0.075c-0.054,0.023 -0.113,0.047 -0.176,0.074c-0.064,0.027 -0.125,0.053 -0.184,0.08c-0.06,0.026 -0.117,0.055 -0.173,0.086c-0.055,0.032 -0.112,0.064 -0.172,0.095c-0.06,0.031 -0.121,0.06 -0.183,0.086c-0.063,0.027 -0.125,0.049 -0.188,0.067c-0.062,0.018 -0.125,0.04 -0.189,0.067c-0.064,0.026 -0.123,0.055 -0.178,0.086c-0.056,0.031 -0.11,0.058 -0.163,0.082c-0.053,0.023 -0.109,0.042 -0.167,0.057c-0.057,0.014 -0.089,-0.007 -0.095,-0.064c-0.006,-0.057 0.009,-0.113 0.045,-0.168c0.037,-0.056 0.073,-0.106 0.11,-0.153c0.036,-0.046 0.072,-0.093 0.107,-0.14c0.036,-0.048 0.072,-0.101 0.109,-0.161c0.037,-0.059 0.071,-0.119 0.1,-0.179c0.029,-0.061 0.056,-0.119 0.081,-0.175c0.024,-0.056 0.046,-0.111 0.065,-0.164c0.018,-0.054 0.04,-0.111 0.065,-0.172c0.026,-0.061 0.051,-0.122 0.076,-0.183c0.025,-0.061 0.045,-0.121 0.06,-0.179c0.015,-0.058 0.031,-0.118 0.047,-0.18c0.016,-0.062 0.03,-0.122 0.042,-0.181c0.012,-0.058 0.024,-0.117 0.035,-0.175c0.012,-0.059 0.029,-0.121 0.05,-0.186c0.021,-0.066 0.044,-0.129 0.068,-0.19c0.024,-0.061 0.046,-0.123 0.067,-0.184c0.021,-0.062 0.04,-0.125 0.057,-0.192c0.017,-0.066 0.029,-0.132 0.038,-0.199l0.14,-1.124c0.007,-0.059 0.011,-0.123 0.011,-0.191c-0.001,-0.068 -0.01,-0.129 -0.029,-0.183c-0.018,-0.054 -0.036,-0.112 -0.055,-0.175c-0.019,-0.062 -0.034,-0.124 -0.048,-0.184c-0.013,-0.061 -0.022,-0.12 -0.028,-0.177c-0.007,-0.056 -0.012,-0.117 -0.017,-0.181c-0.005,-0.065 -0.012,-0.128 -0.021,-0.189c-0.009,-0.061 -0.029,-0.124 -0.061,-0.188c-0.031,-0.064 -0.064,-0.125 -0.1,-0.185c-0.035,-0.059 -0.069,-0.115 -0.101,-0.166c-0.032,-0.052 -0.056,-0.108 -0.074,-0.17c-0.017,-0.061 -0.038,-0.119 -0.062,-0.174c-0.024,-0.054 -0.061,-0.102 -0.11,-0.142c-0.05,-0.04 -0.098,-0.078 -0.145,-0.114c-0.047,-0.036 -0.092,-0.076 -0.133,-0.12c-0.042,-0.044 -0.081,-0.087 -0.119,-0.131c-0.037,-0.043 -0.079,-0.089 -0.124,-0.137c-0.045,-0.049 -0.098,-0.089 -0.159,-0.122c-0.06,-0.033 -0.117,-0.066 -0.169,-0.098c-0.051,-0.032 -0.101,-0.063 -0.149,-0.095c-0.047,-0.031 -0.096,-0.069 -0.145,-0.114c-0.049,-0.044 -0.098,-0.091 -0.148,-0.14c-0.05,-0.049 -0.098,-0.091 -0.145,-0.127c-0.047,-0.035 -0.101,-0.067 -0.162,-0.096c-0.062,-0.029 -0.12,-0.058 -0.176,-0.086c-0.055,-0.029 -0.111,-0.057 -0.168,-0.085c-0.057,-0.029 -0.114,-0.051 -0.172,-0.068c-0.059,-0.016 -0.121,-0.028 -0.188,-0.037c-0.067,-0.008 -0.132,-0.016 -0.196,-0.024c-0.063,-0.008 -0.122,-0.021 -0.176,-0.04c-0.053,-0.019 -0.087,-0.058 -0.1,-0.115c-0.014,-0.058 0.008,-0.091 0.065,-0.101c0.057,-0.011 0.118,-0.023 0.183,-0.036c0.066,-0.013 0.134,-0.026 0.204,-0.038c0.071,-0.013 0.143,-0.027 0.218,-0.043c0.074,-0.017 0.148,-0.027 0.222,-0.031c0.074,-0.004 0.142,-0.006 0.206,-0.006c0.064,0 0.128,-0.003 0.193,-0.008c0.065,-0.005 0.132,-0.007 0.2,-0.007c0.068,0 0.141,-0.001 0.219,-0.005c0.078,-0.003 0.147,-0.005 0.206,-0.006c0.059,-0.001 0.122,-0.004 0.187,-0.009c0.065,-0.005 0.139,-0.008 0.22,-0.011c0.081,-0.002 0.162,-0.003 0.243,-0.001c0.081,0.001 0.156,-0.001 0.226,-0.004c0.069,-0.004 0.138,-0.004 0.207,-0.001c0.068,0.004 0.143,0.011 0.222,0.021l0.923,0.115c0.071,0.009 0.149,0.014 0.234,0.017c0.085,0.002 0.172,0.005 0.262,0.008c0.089,0.003 0.177,0.003 0.263,0.001c0.085,-0.003 0.163,-0.004 0.232,-0.004c0.069,0.001 0.141,0.006 0.217,0.015l0.393,0.049c0.059,0.008 0.124,0.018 0.195,0.031c0.07,0.012 0.145,0.026 0.224,0.04c0.08,0.014 0.156,0.025 0.228,0.034l1.398,0.175c0.068,0.008 0.141,0.024 0.219,0.047c0.078,0.023 0.148,0.042 0.21,0.058c0.061,0.016 0.124,0.03 0.187,0.042c0.063,0.012 0.126,0.022 0.19,0.03l1.055,0.131c0.068,0.009 0.135,0.019 0.201,0.031c0.067,0.013 0.133,0.028 0.2,0.045c0.067,0.017 0.135,0.035 0.205,0.051c0.071,0.018 0.144,0.033 0.22,0.046c0.076,0.014 0.149,0.028 0.22,0.041c0.07,0.014 0.137,0.027 0.201,0.039c0.063,0.012 0.123,0.022 0.182,0.029c0.058,0.007 0.127,0.018 0.208,0.032c0.08,0.014 0.155,0.027 0.226,0.04c0.071,0.013 0.14,0.029 0.206,0.046c0.067,0.017 0.136,0.036 0.205,0.058c0.07,0.021 0.14,0.042 0.209,0.064c0.07,0.021 0.14,0.041 0.211,0.058c0.072,0.017 0.145,0.032 0.22,0.046c0.075,0.013 0.146,0.027 0.213,0.04c0.068,0.013 0.13,0.024 0.189,0.031c0.058,0.007 0.121,0.015 0.189,0.023c0.068,0.009 0.133,0.021 0.196,0.037c0.062,0.016 0.127,0.03 0.193,0.043c0.067,0.012 0.136,0.023 0.208,0.032l0.411,0.051c0.077,0.01 0.143,0.009 0.199,-0.001c0.056,-0.01 0.113,-0.02 0.17,-0.029c0.057,-0.01 0.114,-0.019 0.171,-0.029c0.057,-0.011 0.112,-0.006 0.166,0.013l0.08,0.028" style="fill:none;stroke:#000;stroke-width:1.7px;"/><path id="STROKE_312E28E0.-B9DF.-4C02.-AFD6.-6F4FC83D3D26" d="M37.254,76.959c-0.11,-0.065 -0.197,-0.118 -0.261,-0.16c-0.064,-0.041 -0.121,-0.08 -0.173,-0.117c-0.051,-0.037 -0.106,-0.076 -0.164,-0.117c-0.059,-0.041 -0.122,-0.085 -0.189,-0.132c-0.068,-0.047 -0.135,-0.094 -0.201,-0.141c-0.067,-0.047 -0.133,-0.098 -0.198,-0.153c-0.065,-0.054 -0.132,-0.107 -0.199,-0.158c-0.067,-0.052 -0.133,-0.103 -0.199,-0.154c-0.066,-0.05 -0.13,-0.104 -0.192,-0.159c-0.062,-0.056 -0.129,-0.109 -0.199,-0.161c-0.07,-0.051 -0.14,-0.107 -0.211,-0.166c-0.07,-0.06 -0.142,-0.122 -0.215,-0.187c-0.072,-0.065 -0.145,-0.13 -0.218,-0.194c-0.074,-0.064 -0.149,-0.131 -0.226,-0.2c-0.076,-0.07 -0.151,-0.139 -0.223,-0.208c-0.073,-0.069 -0.142,-0.136 -0.207,-0.2c-0.065,-0.064 -0.129,-0.123 -0.19,-0.177c-0.061,-0.055 -0.12,-0.109 -0.178,-0.163c-0.058,-0.054 -0.116,-0.106 -0.175,-0.156c-0.058,-0.05 -0.116,-0.1 -0.173,-0.15c-0.058,-0.05 -0.118,-0.102 -0.18,-0.157c-0.062,-0.054 -0.127,-0.112 -0.197,-0.172c-0.069,-0.06 -0.14,-0.123 -0.213,-0.187c-0.073,-0.064 -0.148,-0.131 -0.225,-0.201c-0.077,-0.069 -0.152,-0.136 -0.226,-0.201c-0.074,-0.065 -0.148,-0.128 -0.221,-0.188c-0.074,-0.06 -0.143,-0.12 -0.208,-0.18c-0.065,-0.06 -0.13,-0.118 -0.197,-0.172c-0.066,-0.056 -0.128,-0.106 -0.186,-0.152c-0.058,-0.046 -0.113,-0.087 -0.164,-0.123c-0.052,-0.036 -0.103,-0.074 -0.154,-0.115c-0.05,-0.041 -0.109,-0.084 -0.176,-0.13c-0.066,-0.046 -0.132,-0.097 -0.199,-0.153c-0.066,-0.056 -0.123,-0.106 -0.169,-0.149c-0.046,-0.044 -0.09,-0.086 -0.132,-0.126c-0.042,-0.039 -0.086,-0.081 -0.132,-0.126c-0.046,-0.044 -0.09,-0.086 -0.132,-0.126c-0.042,-0.039 -0.09,-0.082 -0.144,-0.126c-0.053,-0.045 -0.106,-0.087 -0.157,-0.128c-0.05,-0.041 -0.099,-0.079 -0.146,-0.114c-0.047,-0.036 -0.098,-0.074 -0.153,-0.116c-0.055,-0.041 -0.11,-0.082 -0.164,-0.123c-0.054,-0.042 -0.11,-0.087 -0.168,-0.137c-0.059,-0.05 -0.114,-0.095 -0.164,-0.135c-0.051,-0.04 -0.103,-0.076 -0.155,-0.109c-0.051,-0.031 -0.107,-0.066 -0.166,-0.104c-0.058,-0.038 -0.114,-0.07 -0.166,-0.098c-0.053,-0.028 -0.106,-0.054 -0.158,-0.078c-0.053,-0.024 -0.114,-0.051 -0.183,-0.081c-0.068,-0.03 -0.135,-0.061 -0.2,-0.095c-0.065,-0.033 -0.123,-0.064 -0.176,-0.092c-0.052,-0.028 -0.103,-0.058 -0.154,-0.089l-0.076,-0.048" style="fill:none;stroke:#000;stroke-width:1.7px;"/><path id="STROKE_1335AB42.-C3FB.-48B5.-AC33.-E87073EEE779" d="M28.7,70.189c-0.122,-0.058 -0.215,-0.09 -0.277,-0.098l-0.663,-0.083c-0.085,-0.01 -0.178,-0.018 -0.28,-0.022c-0.103,-0.005 -0.184,-0.009 -0.244,-0.012c-0.06,-0.004 -0.149,-0.008 -0.267,-0.014c-0.119,-0.006 -0.208,-0.01 -0.268,-0.014c-0.06,-0.003 -0.124,-0.007 -0.191,-0.011c-0.067,-0.004 -0.135,-0.009 -0.204,-0.013c-0.068,-0.004 -0.139,-0.007 -0.211,-0.007c-0.072,0 -0.145,0 -0.218,-0.001c-0.074,-0.001 -0.146,-0.002 -0.218,-0.002c-0.073,-0.001 -0.145,0 -0.218,0.004c-0.073,0.004 -0.144,0.006 -0.213,0.006c-0.069,-0.001 -0.137,0.002 -0.206,0.006c-0.068,0.005 -0.137,0.009 -0.207,0.014c-0.069,0.004 -0.164,0.01 -0.285,0.016c-0.12,0.006 -0.208,0.014 -0.265,0.024c-0.057,0.009 -0.114,0.017 -0.171,0.023c-0.056,0.006 -0.113,0.012 -0.17,0.018c-0.056,0.006 -0.135,0.015 -0.235,0.029c-0.1,0.013 -0.18,0.022 -0.24,0.026c-0.06,0.005 -0.146,0.011 -0.258,0.019c-0.113,0.007 -0.2,0.013 -0.261,0.019c-0.061,0.005 -0.123,0.008 -0.187,0.009c-0.063,0 -0.128,0.003 -0.193,0.008c-0.065,0.005 -0.132,0.009 -0.2,0.014c-0.069,0.005 -0.138,0.007 -0.207,0.006c-0.069,0 -0.141,-0.001 -0.218,-0.002c-0.076,-0.002 -0.153,0 -0.232,0.003c-0.078,0.003 -0.153,0.005 -0.226,0.005c-0.072,0 -0.146,-0.001 -0.223,-0.002c-0.076,-0.001 -0.149,-0.002 -0.218,-0.002c-0.069,-0.001 -0.135,-0.001 -0.199,0.001c-0.063,0.001 -0.128,0.001 -0.192,0.002c-0.065,0 -0.147,0 -0.245,0.001c-0.099,0.001 -0.196,0.001 -0.29,0.002c-0.094,0.001 -0.179,0.001 -0.256,0c-0.077,0 -0.15,0.001 -0.219,0.005c-0.07,0.003 -0.143,0.005 -0.219,0.005c-0.077,-0.001 -0.156,-0.002 -0.237,-0.004c-0.08,-0.002 -0.165,-0.004 -0.255,-0.006c-0.09,-0.002 -0.183,-0.005 -0.281,-0.009c-0.099,-0.004 -0.203,-0.011 -0.313,-0.021c-0.111,-0.009 -0.221,-0.014 -0.332,-0.015c-0.111,-0.001 -0.215,-0.001 -0.314,-0.001c-0.098,0 -0.191,0.001 -0.278,0.004c-0.087,0.002 -0.164,0.005 -0.233,0.01c-0.068,0.005 -0.133,0.007 -0.193,0.008c-0.06,0.001 -0.131,0 -0.212,-0.002c-0.081,-0.002 -0.155,-0.005 -0.224,-0.008c-0.068,-0.004 -0.139,-0.006 -0.211,-0.007c-0.072,0 -0.149,-0.002 -0.229,-0.004c-0.081,-0.002 -0.162,-0.003 -0.243,-0.004c-0.081,-0.001 -0.163,-0.003 -0.245,-0.005c-0.081,-0.002 -0.161,-0.001 -0.238,0.003c-0.077,0.003 -0.148,0.007 -0.213,0.011c-0.066,0.004 -0.132,0.009 -0.201,0.013c-0.068,0.005 -0.131,0.013 -0.188,0.023c-0.057,0.01 -0.122,0.012 -0.193,0.008c-0.072,-0.005 -0.151,-0.013 -0.236,-0.023c-0.085,-0.011 -0.17,-0.02 -0.255,-0.026c-0.084,-0.007 -0.166,-0.015 -0.246,-0.025c-0.08,-0.01 -0.158,-0.017 -0.234,-0.023c-0.076,-0.005 -0.157,-0.009 -0.242,-0.01c-0.085,-0.002 -0.167,-0.003 -0.244,-0.005c-0.078,-0.001 -0.148,-0.001 -0.212,0c-0.064,0.001 -0.132,0.001 -0.205,0c-0.074,-0.001 -0.142,-0.005 -0.204,-0.013c-0.063,-0.008 -0.126,-0.012 -0.191,-0.012c-0.065,0 -0.127,0.003 -0.188,0.009c-0.061,0.006 -0.124,0.013 -0.189,0.022c-0.064,0.009 -0.126,0.023 -0.184,0.041c-0.058,0.018 -0.115,0.031 -0.172,0.037c-0.057,0.006 -0.114,0.02 -0.173,0.042c-0.059,0.022 -0.115,0.045 -0.169,0.069c-0.055,0.023 -0.109,0.049 -0.163,0.076c-0.053,0.027 -0.11,0.054 -0.169,0.081c-0.059,0.027 -0.114,0.054 -0.165,0.082c-0.05,0.027 -0.101,0.055 -0.152,0.083c-0.05,0.028 -0.101,0.057 -0.152,0.085c-0.05,0.028 -0.099,0.06 -0.146,0.097c-0.048,0.037 -0.092,0.08 -0.133,0.13c-0.041,0.05 -0.078,0.101 -0.11,0.153c-0.031,0.052 -0.068,0.107 -0.109,0.166c-0.041,0.059 -0.076,0.115 -0.105,0.167c-0.028,0.052 -0.053,0.109 -0.073,0.171c-0.021,0.061 -0.041,0.121 -0.061,0.177c-0.019,0.057 -0.034,0.115 -0.046,0.173c-0.011,0.059 -0.021,0.117 -0.028,0.176l-0.046,0.367c-0.007,0.059 -0.01,0.119 -0.009,0.179c0.001,0.06 0.009,0.118 0.023,0.175c0.013,0.057 0.025,0.116 0.035,0.177c0.01,0.061 0.022,0.12 0.035,0.178c0.014,0.058 0.038,0.119 0.073,0.183c0.035,0.064 0.072,0.126 0.111,0.186c0.04,0.06 0.079,0.121 0.119,0.182c0.039,0.06 0.075,0.12 0.107,0.179c0.032,0.059 0.062,0.118 0.088,0.178c0.027,0.059 0.049,0.115 0.068,0.17c0.018,0.054 0.037,0.111 0.055,0.173c0.019,0.061 0.037,0.125 0.054,0.191c0.017,0.066 0.04,0.133 0.07,0.201c0.03,0.068 0.055,0.129 0.074,0.183c0.02,0.054 0.045,0.113 0.075,0.177c0.03,0.064 0.057,0.127 0.078,0.188c0.022,0.062 0.045,0.121 0.069,0.175c0.024,0.055 0.053,0.115 0.088,0.179c0.035,0.064 0.068,0.12 0.101,0.166c0.032,0.047 0.064,0.096 0.096,0.147c0.032,0.051 0.064,0.102 0.096,0.153c0.032,0.05 0.064,0.101 0.096,0.152c0.032,0.051 0.065,0.1 0.099,0.147c0.033,0.047 0.069,0.094 0.105,0.141c0.037,0.047 0.074,0.097 0.11,0.149c0.036,0.052 0.077,0.105 0.122,0.157c0.045,0.052 0.092,0.103 0.14,0.152c0.049,0.048 0.1,0.1 0.154,0.153c0.053,0.054 0.107,0.105 0.161,0.155c0.054,0.049 0.106,0.098 0.156,0.147c0.049,0.049 0.095,0.094 0.138,0.133c0.042,0.04 0.087,0.084 0.136,0.133c0.049,0.049 0.1,0.096 0.155,0.141c0.054,0.046 0.105,0.088 0.152,0.128c0.046,0.039 0.092,0.081 0.138,0.125c0.046,0.045 0.097,0.09 0.151,0.135c0.055,0.046 0.103,0.088 0.145,0.127c0.043,0.039 0.08,0.082 0.112,0.129c0.033,0.048 0.067,0.095 0.104,0.143c0.037,0.047 0.081,0.091 0.132,0.131c0.051,0.04 0.099,0.08 0.144,0.12c0.045,0.04 0.099,0.073 0.16,0.098c0.062,0.025 0.119,0.049 0.172,0.072c0.053,0.023 0.111,0.044 0.173,0.065c0.062,0.021 0.121,0.04 0.178,0.055c0.058,0.015 0.118,0.029 0.181,0.042c0.063,0.013 0.128,0.023 0.195,0.032l1.505,0.187c0.075,0.01 0.151,0.017 0.229,0.022c0.077,0.004 0.152,0.005 0.224,0.001c0.073,-0.003 0.148,-0.008 0.226,-0.016c0.077,-0.007 0.145,-0.016 0.202,-0.026c0.057,-0.01 0.116,-0.018 0.177,-0.023c0.061,-0.004 0.134,-0.01 0.22,-0.016c0.087,-0.007 0.16,-0.013 0.221,-0.018c0.061,-0.006 0.13,-0.01 0.207,-0.013c0.077,-0.003 0.148,-0.006 0.214,-0.012c0.065,-0.004 0.127,-0.01 0.187,-0.016c0.06,-0.005 0.134,-0.009 0.22,-0.01c0.087,-0.002 0.171,-0.006 0.253,-0.013c0.082,-0.007 0.155,-0.015 0.22,-0.025c0.065,-0.009 0.126,-0.018 0.183,-0.028c0.057,-0.01 0.114,-0.018 0.17,-0.024c0.057,-0.005 0.116,-0.012 0.177,-0.022c0.062,-0.009 0.123,-0.019 0.183,-0.029c0.06,-0.01 0.124,-0.023 0.191,-0.04c0.066,-0.017 0.139,-0.034 0.218,-0.049c0.078,-0.016 0.158,-0.034 0.238,-0.054c0.08,-0.021 0.153,-0.039 0.219,-0.057c0.066,-0.017 0.126,-0.035 0.179,-0.054c0.054,-0.019 0.108,-0.037 0.162,-0.056c0.054,-0.019 0.109,-0.036 0.167,-0.05c0.058,-0.014 0.121,-0.027 0.191,-0.04c0.069,-0.013 0.136,-0.022 0.202,-0.026c0.065,-0.006 0.13,-0.01 0.195,-0.015c0.066,-0.005 0.131,-0.01 0.194,-0.015c0.065,-0.004 0.129,-0.009 0.194,-0.014c0.066,-0.005 0.13,-0.009 0.194,-0.013c0.065,-0.005 0.127,-0.012 0.189,-0.022c0.061,-0.009 0.121,-0.019 0.177,-0.029c0.058,-0.01 0.117,-0.022 0.179,-0.036c0.062,-0.013 0.125,-0.02 0.188,-0.021c0.064,0 0.128,0 0.193,-0.001c0.065,-0.001 0.127,0 0.187,0.003c0.06,0.003 0.124,0.001 0.193,-0.008c0.069,-0.008 0.133,-0.022 0.191,-0.04c0.058,-0.018 0.116,-0.037 0.174,-0.055c0.058,-0.018 0.117,-0.032 0.178,-0.042c0.06,-0.009 0.127,-0.016 0.201,-0.02c0.074,-0.004 0.147,-0.008 0.22,-0.011c0.073,-0.003 0.138,-0.008 0.194,-0.014c0.057,-0.006 0.114,-0.014 0.171,-0.024c0.057,-0.011 0.114,-0.023 0.172,-0.037c0.057,-0.014 0.114,-0.026 0.17,-0.036c0.056,-0.011 0.115,-0.02 0.176,-0.029c0.062,-0.009 0.123,-0.02 0.185,-0.034c0.062,-0.013 0.124,-0.027 0.186,-0.041c0.062,-0.013 0.121,-0.025 0.177,-0.035c0.056,-0.011 0.115,-0.019 0.176,-0.024c0.061,-0.006 0.129,-0.008 0.206,-0.006c0.076,0.001 0.154,0 0.232,-0.004c0.078,-0.003 0.158,-0.008 0.24,-0.015c0.082,-0.007 0.166,-0.014 0.252,-0.019c0.086,-0.006 0.16,-0.012 0.221,-0.017c0.061,-0.006 0.123,-0.011 0.188,-0.016c0.064,-0.005 0.135,-0.009 0.213,-0.012c0.078,-0.002 0.156,-0.006 0.233,-0.009c0.077,-0.004 0.158,-0.006 0.244,-0.008c0.086,-0.001 0.18,-0.002 0.283,-0.003c0.103,0 0.185,0 0.245,-0.001c0.06,-0.001 0.12,-0.002 0.179,-0.004c0.06,-0.001 0.126,-0.002 0.199,-0.001c0.073,0.001 0.149,0 0.226,-0.004c0.077,-0.003 0.162,-0.003 0.256,0c0.094,0.004 0.186,0.004 0.276,0.003c0.09,-0.002 0.174,-0.003 0.251,-0.001c0.078,0.001 0.159,0.003 0.245,0.005c0.085,0.001 0.179,0.004 0.281,0.009c0.103,0.004 0.194,0.009 0.274,0.015l0.121,0.009" style="fill:none;stroke:#000;stroke-width:1.7px;"/><path id="STROKE_416ACCB7.-EF13.-4D3B.-A8B7.-B77CE49B487A" d="M34.459,81.88c0.113,-0.011 0.206,-0.022 0.28,-0.035c0.074,-0.012 0.079,-0.018 0.015,-0.017c-0.063,0 -0.124,0.003 -0.18,0.009c-0.057,0.006 -0.121,0.011 -0.194,0.014c-0.073,0.003 -0.157,0.008 -0.251,0.013c-0.095,0.006 -0.199,0.012 -0.312,0.019c-0.112,0.008 -0.223,0.017 -0.332,0.029c-0.109,0.012 -0.193,0.021 -0.253,0.027c-0.06,0.005 -0.12,0.011 -0.181,0.016c-0.061,0.006 -0.153,0.016 -0.275,0.03c-0.122,0.015 -0.216,0.027 -0.28,0.036c-0.065,0.009 -0.13,0.018 -0.196,0.027c-0.066,0.009 -0.131,0.016 -0.195,0.02c-0.064,0.004 -0.131,0.011 -0.201,0.019c-0.07,0.009 -0.139,0.016 -0.208,0.02c-0.068,0.005 -0.14,0.011 -0.214,0.019c-0.074,0.008 -0.179,0.018 -0.313,0.031c-0.134,0.013 -0.242,0.023 -0.324,0.03c-0.082,0.007 -0.162,0.012 -0.24,0.014c-0.078,0.003 -0.154,0.008 -0.227,0.016c-0.074,0.009 -0.149,0.017 -0.227,0.024c-0.077,0.008 -0.157,0.013 -0.24,0.016c-0.082,0.002 -0.167,0.007 -0.253,0.012c-0.086,0.006 -0.176,0.012 -0.271,0.017c-0.095,0.006 -0.188,0.013 -0.279,0.023c-0.091,0.01 -0.178,0.019 -0.26,0.026c-0.082,0.007 -0.172,0.015 -0.272,0.024c-0.1,0.009 -0.195,0.016 -0.285,0.022c-0.091,0.006 -0.175,0.013 -0.253,0.02c-0.078,0.008 -0.156,0.017 -0.235,0.029c-0.079,0.011 -0.155,0.021 -0.229,0.028c-0.073,0.008 -0.145,0.018 -0.215,0.03c-0.071,0.013 -0.139,0.023 -0.203,0.033c-0.065,0.009 -0.128,0.016 -0.189,0.022c-0.061,0.005 -0.123,0.013 -0.188,0.022c-0.065,0.009 -0.151,0.02 -0.26,0.032c-0.109,0.011 -0.218,0.023 -0.327,0.035c-0.109,0.012 -0.213,0.023 -0.312,0.031c-0.1,0.009 -0.18,0.017 -0.24,0.022c-0.06,0.006 -0.139,0.013 -0.239,0.022c-0.1,0.009 -0.182,0.016 -0.248,0.02c-0.065,0.004 -0.125,0.009 -0.182,0.015c-0.057,0.007 -0.114,0.013 -0.17,0.019c-0.057,0.006 -0.115,0.009 -0.174,0.01c-0.059,0.001 -0.149,0.005 -0.271,0.011c-0.121,0.006 -0.24,0.015 -0.356,0.025c-0.117,0.011 -0.205,0.02 -0.266,0.025c-0.061,0.006 -0.12,0.011 -0.176,0.016c-0.057,0.006 -0.137,0.015 -0.24,0.029c-0.104,0.013 -0.204,0.026 -0.299,0.04c-0.096,0.013 -0.189,0.029 -0.278,0.048c-0.088,0.018 -0.17,0.036 -0.244,0.052c-0.075,0.016 -0.149,0.033 -0.223,0.05c-0.075,0.017 -0.143,0.03 -0.204,0.039c-0.061,0.008 -0.123,0.017 -0.184,0.027c-0.062,0.01 -0.123,0.017 -0.184,0.023c-0.061,0.005 -0.134,0.009 -0.22,0.01c-0.085,0.002 -0.158,0.004 -0.217,0.005c-0.059,0.002 -0.124,0.003 -0.192,0.002c-0.07,0 -0.137,0.002 -0.202,0.007c-0.065,0.005 -0.13,0.01 -0.194,0.014c-0.064,0.004 -0.131,0.009 -0.2,0.013c-0.07,0.005 -0.135,0.01 -0.195,0.016c-0.059,0.005 -0.122,0.008 -0.186,0.008c-0.065,0 -0.125,0.004 -0.182,0.01c-0.057,0.006 -0.117,0.009 -0.18,0.009c-0.064,0 -0.133,0.003 -0.207,0.007c-0.074,0.004 -0.141,0.006 -0.201,0.007c-0.06,0 -0.126,-0.002 -0.198,-0.007c-0.072,-0.004 -0.138,-0.008 -0.197,-0.011c-0.06,-0.002 -0.122,-0.001 -0.186,0.003c-0.064,0.004 -0.132,0.011 -0.202,0.019c-0.07,0.009 -0.133,0.018 -0.19,0.028c-0.057,0.01 -0.121,0.022 -0.19,0.035c-0.07,0.012 -0.136,0.027 -0.198,0.045c-0.063,0.018 -0.129,0.037 -0.2,0.058c-0.07,0.021 -0.137,0.042 -0.2,0.065c-0.063,0.022 -0.124,0.049 -0.184,0.08c-0.06,0.031 -0.115,0.065 -0.167,0.101c-0.052,0.037 -0.106,0.073 -0.162,0.108c-0.056,0.036 -0.113,0.069 -0.172,0.1c-0.058,0.03 -0.111,0.062 -0.159,0.095c-0.048,0.032 -0.094,0.072 -0.138,0.118c-0.044,0.046 -0.083,0.099 -0.115,0.159c-0.033,0.06 -0.065,0.116 -0.098,0.167c-0.033,0.051 -0.07,0.104 -0.11,0.159c-0.041,0.055 -0.082,0.109 -0.123,0.164c-0.041,0.055 -0.079,0.108 -0.115,0.16c-0.036,0.051 -0.074,0.102 -0.116,0.152c-0.041,0.05 -0.083,0.095 -0.127,0.136c-0.043,0.042 -0.083,0.086 -0.118,0.134c-0.036,0.047 -0.057,0.102 -0.065,0.165c-0.008,0.063 -0.02,0.124 -0.036,0.182c-0.016,0.058 -0.039,0.117 -0.068,0.178c-0.03,0.06 -0.054,0.119 -0.073,0.176c-0.019,0.058 -0.035,0.118 -0.047,0.181c-0.013,0.062 -0.025,0.122 -0.036,0.18c-0.012,0.058 -0.024,0.118 -0.036,0.181c-0.012,0.062 -0.022,0.125 -0.03,0.189c-0.008,0.064 -0.015,0.125 -0.023,0.183c-0.007,0.059 -0.017,0.119 -0.029,0.181c-0.012,0.063 -0.024,0.126 -0.036,0.188c-0.013,0.063 -0.022,0.124 -0.03,0.182l-0.046,0.367c-0.007,0.059 -0.019,0.12 -0.035,0.182c-0.017,0.062 -0.029,0.124 -0.037,0.187c-0.008,0.063 -0.015,0.124 -0.022,0.183c-0.008,0.06 -0.004,0.12 0.01,0.182c0.014,0.061 0.032,0.119 0.055,0.173c0.023,0.054 0.048,0.108 0.075,0.163c0.027,0.056 0.055,0.114 0.082,0.177c0.027,0.062 0.047,0.126 0.059,0.192c0.013,0.066 0.027,0.128 0.041,0.185c0.015,0.058 0.033,0.125 0.053,0.2c0.02,0.076 0.043,0.145 0.069,0.207c0.026,0.063 0.055,0.126 0.087,0.19c0.031,0.064 0.064,0.13 0.098,0.198c0.034,0.069 0.065,0.132 0.092,0.191c0.026,0.06 0.048,0.118 0.066,0.175c0.018,0.057 0.037,0.115 0.056,0.173c0.019,0.059 0.041,0.123 0.066,0.195c0.025,0.071 0.051,0.136 0.078,0.195c0.026,0.06 0.055,0.119 0.086,0.179c0.031,0.06 0.06,0.119 0.088,0.177c0.027,0.059 0.052,0.117 0.075,0.176c0.022,0.059 0.041,0.116 0.056,0.173c0.014,0.057 0.026,0.114 0.036,0.171c0.009,0.057 0.014,0.118 0.015,0.182c0,0.064 0.008,0.125 0.023,0.183c0.015,0.057 0.036,0.113 0.063,0.168c0.027,0.054 0.054,0.106 0.082,0.156c0.028,0.051 0.06,0.098 0.098,0.141c0.037,0.043 0.087,0.071 0.15,0.083c0.063,0.012 0.133,0.022 0.208,0.032l0.442,0.055c0.059,0.007 0.134,0.008 0.225,0.003c0.09,-0.005 0.164,-0.011 0.22,-0.016c0.057,-0.007 0.116,-0.013 0.176,-0.018c0.062,-0.006 0.132,-0.007 0.213,-0.006c0.081,0.002 0.154,0.003 0.218,0.003c0.065,0 0.127,-0.001 0.187,-0.003c0.059,-0.001 0.119,-0.003 0.179,-0.003c0.06,-0.001 0.125,-0.003 0.193,-0.008c0.069,-0.005 0.133,-0.01 0.194,-0.014c0.061,-0.005 0.124,-0.012 0.19,-0.021c0.066,-0.009 0.131,-0.018 0.196,-0.027c0.064,-0.009 0.132,-0.018 0.202,-0.027c0.07,-0.008 0.135,-0.015 0.196,-0.02c0.061,-0.005 0.122,-0.012 0.182,-0.021c0.06,-0.01 0.13,-0.021 0.209,-0.032c0.08,-0.012 0.162,-0.021 0.249,-0.027c0.086,-0.007 0.174,-0.013 0.265,-0.019c0.09,-0.006 0.167,-0.009 0.231,-0.009c0.063,0 0.13,-0.003 0.2,-0.007c0.069,-0.005 0.14,-0.009 0.213,-0.013c0.073,-0.004 0.144,-0.008 0.213,-0.012c0.07,-0.003 0.141,-0.007 0.214,-0.011c0.073,-0.004 0.144,-0.008 0.213,-0.012c0.07,-0.004 0.135,-0.008 0.196,-0.014c0.061,-0.005 0.135,-0.011 0.221,-0.018c0.086,-0.006 0.168,-0.013 0.246,-0.021c0.077,-0.008 0.146,-0.012 0.207,-0.012c0.06,-0.001 0.122,-0.004 0.186,-0.009c0.064,-0.005 0.135,-0.007 0.213,-0.006c0.077,0.002 0.157,0.001 0.238,-0.002c0.082,-0.003 0.165,-0.003 0.25,-0.001c0.085,0.003 0.163,0.002 0.232,-0.003c0.07,-0.005 0.137,-0.011 0.201,-0.019c0.065,-0.009 0.128,-0.018 0.19,-0.027c0.061,-0.01 0.127,-0.025 0.198,-0.047c0.07,-0.022 0.135,-0.042 0.193,-0.06c0.058,-0.018 0.118,-0.036 0.181,-0.054c0.062,-0.017 0.132,-0.03 0.21,-0.038c0.077,-0.007 0.153,-0.015 0.228,-0.023c0.074,-0.008 0.145,-0.014 0.214,-0.018c0.068,-0.003 0.131,-0.008 0.187,-0.014c0.057,-0.006 0.12,-0.014 0.19,-0.022c0.071,-0.009 0.14,-0.017 0.209,-0.025c0.069,-0.007 0.131,-0.015 0.188,-0.021c0.057,-0.006 0.116,-0.011 0.176,-0.017c0.061,-0.006 0.12,-0.013 0.176,-0.022c0.056,-0.01 0.115,-0.022 0.177,-0.037c0.062,-0.014 0.12,-0.033 0.174,-0.055c0.055,-0.023 0.11,-0.038 0.167,-0.044c0.056,-0.006 0.115,-0.013 0.177,-0.022c0.061,-0.009 0.12,-0.018 0.176,-0.028c0.056,-0.011 0.115,-0.027 0.178,-0.05c0.064,-0.022 0.125,-0.047 0.184,-0.073c0.059,-0.026 0.117,-0.046 0.175,-0.061c0.058,-0.014 0.115,-0.03 0.172,-0.048c0.057,-0.019 0.115,-0.04 0.174,-0.063c0.058,-0.023 0.119,-0.045 0.182,-0.067c0.063,-0.022 0.13,-0.045 0.201,-0.071c0.071,-0.025 0.137,-0.051 0.196,-0.078c0.059,-0.026 0.123,-0.054 0.191,-0.084c0.068,-0.03 0.13,-0.059 0.185,-0.087c0.055,-0.028 0.112,-0.057 0.172,-0.088c0.06,-0.031 0.119,-0.063 0.178,-0.094c0.058,-0.031 0.117,-0.06 0.176,-0.086c0.059,-0.027 0.121,-0.051 0.184,-0.074c0.063,-0.022 0.124,-0.049 0.184,-0.079c0.059,-0.03 0.115,-0.061 0.166,-0.094c0.051,-0.032 0.102,-0.064 0.153,-0.097c0.051,-0.032 0.106,-0.074 0.164,-0.127c0.058,-0.053 0.112,-0.097 0.163,-0.134c0.05,-0.036 0.102,-0.077 0.155,-0.121c0.052,-0.044 0.109,-0.084 0.169,-0.119c0.06,-0.036 0.125,-0.077 0.196,-0.124c0.071,-0.047 0.129,-0.087 0.176,-0.119c0.047,-0.033 0.094,-0.066 0.141,-0.099c0.046,-0.033 0.1,-0.071 0.161,-0.114c0.062,-0.043 0.121,-0.087 0.178,-0.131c0.057,-0.044 0.116,-0.087 0.177,-0.131c0.061,-0.045 0.127,-0.088 0.195,-0.13c0.069,-0.043 0.127,-0.082 0.175,-0.119c0.047,-0.037 0.094,-0.072 0.141,-0.104c0.047,-0.033 0.092,-0.07 0.135,-0.112c0.044,-0.041 0.088,-0.083 0.133,-0.125c0.044,-0.042 0.088,-0.084 0.132,-0.125c0.043,-0.041 0.096,-0.086 0.158,-0.133c0.061,-0.048 0.115,-0.096 0.159,-0.147c0.045,-0.05 0.094,-0.1 0.147,-0.149c0.053,-0.049 0.106,-0.098 0.16,-0.146c0.053,-0.049 0.108,-0.097 0.165,-0.146c0.058,-0.049 0.111,-0.096 0.159,-0.14c0.049,-0.045 0.101,-0.088 0.158,-0.129c0.056,-0.04 0.106,-0.079 0.149,-0.117c0.043,-0.037 0.1,-0.081 0.169,-0.131c0.07,-0.051 0.131,-0.094 0.182,-0.13c0.052,-0.037 0.104,-0.073 0.155,-0.109c0.052,-0.036 0.104,-0.073 0.155,-0.109c0.052,-0.036 0.101,-0.073 0.148,-0.11c0.048,-0.037 0.095,-0.076 0.143,-0.118c0.048,-0.041 0.095,-0.083 0.139,-0.124c0.045,-0.041 0.089,-0.085 0.133,-0.13c0.044,-0.046 0.086,-0.09 0.125,-0.132c0.039,-0.043 0.08,-0.083 0.123,-0.12c0.043,-0.038 0.086,-0.075 0.129,-0.113c0.043,-0.037 0.089,-0.076 0.137,-0.117c0.047,-0.041 0.097,-0.08 0.149,-0.116c0.051,-0.036 0.099,-0.073 0.143,-0.11c0.045,-0.037 0.095,-0.08 0.152,-0.128c0.058,-0.048 0.111,-0.098 0.161,-0.152c0.049,-0.054 0.097,-0.108 0.142,-0.162c0.045,-0.055 0.088,-0.109 0.129,-0.164c0.04,-0.055 0.086,-0.11 0.135,-0.163c0.049,-0.054 0.099,-0.105 0.147,-0.154c0.049,-0.049 0.102,-0.096 0.159,-0.141c0.057,-0.044 0.114,-0.087 0.17,-0.127c0.057,-0.039 0.111,-0.079 0.163,-0.12c0.052,-0.04 0.1,-0.079 0.143,-0.116c0.043,-0.038 0.085,-0.082 0.125,-0.132c0.04,-0.051 0.083,-0.104 0.13,-0.158c0.046,-0.054 0.087,-0.105 0.122,-0.151c0.035,-0.047 0.069,-0.096 0.1,-0.148c0.032,-0.052 0.069,-0.103 0.11,-0.153c0.041,-0.05 0.08,-0.1 0.116,-0.151c0.036,-0.052 0.076,-0.107 0.122,-0.165c0.046,-0.059 0.087,-0.117 0.124,-0.177c0.037,-0.059 0.072,-0.115 0.104,-0.167c0.033,-0.051 0.062,-0.103 0.086,-0.155c0.024,-0.052 0.048,-0.109 0.072,-0.17c0.024,-0.061 0.052,-0.118 0.085,-0.17c0.033,-0.051 0.078,-0.104 0.135,-0.157c0.057,-0.052 0.111,-0.097 0.163,-0.133c0.051,-0.036 0.11,-0.063 0.177,-0.08c0.067,-0.017 0.13,-0.026 0.191,-0.027l0.09,-0.001" style="fill:none;stroke:#000;stroke-width:1.7px;"/><path id="STROKE_E38F394E.-FAA9.-4BF2.-B0C0.-6FCC30F3F342" d="M32.577,76.992c-0.119,-0.084 -0.211,-0.138 -0.276,-0.162c-0.064,-0.025 -0.131,-0.052 -0.2,-0.082c-0.068,-0.03 -0.139,-0.06 -0.213,-0.091c-0.074,-0.031 -0.146,-0.061 -0.214,-0.091c-0.069,-0.03 -0.136,-0.057 -0.202,-0.083c-0.066,-0.025 -0.129,-0.052 -0.189,-0.081c-0.059,-0.029 -0.118,-0.055 -0.175,-0.08c-0.057,-0.024 -0.112,-0.05 -0.165,-0.078c-0.052,-0.028 -0.102,-0.058 -0.149,-0.089c-0.048,-0.032 -0.097,-0.066 -0.149,-0.102c-0.051,-0.037 -0.102,-0.074 -0.152,-0.11c-0.05,-0.035 -0.103,-0.076 -0.157,-0.121c-0.055,-0.046 -0.116,-0.094 -0.183,-0.145c-0.067,-0.051 -0.141,-0.107 -0.224,-0.169c-0.082,-0.061 -0.169,-0.127 -0.262,-0.199c-0.093,-0.071 -0.165,-0.125 -0.217,-0.162c-0.051,-0.037 -0.102,-0.073 -0.154,-0.109c-0.051,-0.036 -0.104,-0.075 -0.159,-0.116c-0.056,-0.042 -0.108,-0.08 -0.158,-0.116c-0.051,-0.036 -0.103,-0.075 -0.159,-0.116c-0.055,-0.041 -0.108,-0.08 -0.159,-0.116c-0.052,-0.036 -0.127,-0.088 -0.226,-0.156c-0.098,-0.068 -0.189,-0.131 -0.272,-0.188c-0.083,-0.057 -0.163,-0.114 -0.242,-0.171c-0.078,-0.056 -0.152,-0.11 -0.222,-0.162c-0.071,-0.051 -0.136,-0.098 -0.195,-0.14c-0.059,-0.042 -0.118,-0.084 -0.177,-0.124c-0.058,-0.041 -0.119,-0.083 -0.183,-0.125c-0.064,-0.043 -0.131,-0.086 -0.202,-0.129c-0.072,-0.044 -0.146,-0.087 -0.222,-0.13c-0.077,-0.043 -0.158,-0.087 -0.242,-0.133c-0.084,-0.045 -0.166,-0.089 -0.246,-0.133c-0.08,-0.043 -0.164,-0.09 -0.252,-0.139c-0.088,-0.05 -0.172,-0.097 -0.252,-0.142c-0.08,-0.044 -0.16,-0.091 -0.239,-0.139c-0.079,-0.048 -0.151,-0.092 -0.216,-0.129c-0.064,-0.038 -0.123,-0.075 -0.178,-0.111c-0.055,-0.036 -0.111,-0.078 -0.17,-0.124c-0.059,-0.045 -0.115,-0.098 -0.168,-0.156l-0.08,-0.088" style="fill:none;stroke:#000;stroke-width:1.7px;"/><path id="STROKE_C57F1AF9.-B488.-4390.-AC44.-E7F6FF4176E1" d="M28.002,77.447c-0.099,-0.098 -0.181,-0.166 -0.246,-0.203c-0.064,-0.038 -0.127,-0.069 -0.187,-0.094c-0.06,-0.025 -0.126,-0.05 -0.196,-0.076c-0.07,-0.026 -0.146,-0.055 -0.227,-0.086c-0.082,-0.032 -0.167,-0.066 -0.257,-0.103c-0.09,-0.036 -0.183,-0.075 -0.281,-0.117c-0.098,-0.042 -0.173,-0.075 -0.225,-0.099c-0.051,-0.023 -0.121,-0.058 -0.21,-0.103c-0.089,-0.046 -0.183,-0.094 -0.284,-0.146c-0.101,-0.051 -0.176,-0.092 -0.223,-0.123c-0.048,-0.032 -0.121,-0.077 -0.221,-0.136c-0.1,-0.06 -0.178,-0.105 -0.233,-0.138c-0.055,-0.032 -0.11,-0.067 -0.166,-0.104c-0.056,-0.038 -0.113,-0.075 -0.174,-0.112c-0.059,-0.037 -0.121,-0.075 -0.184,-0.113c-0.063,-0.038 -0.127,-0.08 -0.19,-0.126c-0.063,-0.045 -0.128,-0.09 -0.195,-0.132c-0.067,-0.043 -0.135,-0.086 -0.203,-0.129c-0.068,-0.043 -0.135,-0.088 -0.202,-0.134c-0.066,-0.046 -0.133,-0.09 -0.2,-0.133c-0.067,-0.043 -0.134,-0.088 -0.202,-0.135c-0.067,-0.047 -0.134,-0.092 -0.201,-0.134c-0.067,-0.042 -0.131,-0.082 -0.191,-0.12c-0.06,-0.038 -0.117,-0.075 -0.173,-0.111c-0.056,-0.037 -0.131,-0.085 -0.225,-0.144c-0.095,-0.06 -0.184,-0.116 -0.267,-0.169c-0.083,-0.053 -0.161,-0.103 -0.232,-0.15c-0.072,-0.046 -0.142,-0.093 -0.208,-0.14c-0.067,-0.047 -0.136,-0.092 -0.208,-0.136c-0.073,-0.043 -0.142,-0.09 -0.208,-0.141c-0.066,-0.051 -0.134,-0.103 -0.204,-0.154c-0.07,-0.051 -0.129,-0.095 -0.176,-0.13c-0.047,-0.036 -0.107,-0.086 -0.18,-0.151c-0.073,-0.065 -0.151,-0.13 -0.234,-0.195c-0.083,-0.066 -0.158,-0.131 -0.227,-0.195l-0.103,-0.097" style="fill:none;stroke:#000;stroke-width:1.7px;"/><path id="STROKE_AB7674D2.-6904.-4AE3.-8BB7.-837C065037B4" d="M22.751,78.049l-0.537,-0.067c-0.08,-0.01 -0.166,-0.025 -0.257,-0.044c-0.092,-0.02 -0.183,-0.046 -0.273,-0.079c-0.09,-0.032 -0.18,-0.067 -0.27,-0.105c-0.089,-0.037 -0.176,-0.076 -0.261,-0.116c-0.085,-0.04 -0.17,-0.08 -0.254,-0.121c-0.085,-0.04 -0.174,-0.085 -0.266,-0.135c-0.093,-0.05 -0.182,-0.102 -0.27,-0.156c-0.088,-0.053 -0.159,-0.099 -0.215,-0.136c-0.055,-0.037 -0.109,-0.072 -0.161,-0.104c-0.052,-0.032 -0.107,-0.068 -0.165,-0.109c-0.059,-0.041 -0.118,-0.083 -0.177,-0.124c-0.06,-0.042 -0.126,-0.089 -0.201,-0.141c-0.075,-0.052 -0.146,-0.102 -0.213,-0.149c-0.068,-0.047 -0.146,-0.102 -0.236,-0.164c-0.09,-0.062 -0.176,-0.122 -0.259,-0.18c-0.082,-0.058 -0.167,-0.12 -0.253,-0.185c-0.086,-0.066 -0.171,-0.132 -0.257,-0.199c-0.086,-0.066 -0.17,-0.132 -0.252,-0.197c-0.081,-0.066 -0.158,-0.124 -0.229,-0.176c-0.072,-0.051 -0.142,-0.105 -0.212,-0.162c-0.07,-0.056 -0.138,-0.108 -0.206,-0.155c-0.067,-0.047 -0.132,-0.091 -0.195,-0.132c-0.063,-0.042 -0.124,-0.084 -0.183,-0.126c-0.06,-0.042 -0.115,-0.079 -0.167,-0.11c-0.052,-0.032 -0.127,-0.08 -0.226,-0.143c-0.098,-0.063 -0.189,-0.122 -0.272,-0.175c-0.083,-0.053 -0.164,-0.108 -0.242,-0.165c-0.078,-0.058 -0.149,-0.112 -0.212,-0.162c-0.062,-0.051 -0.118,-0.1 -0.168,-0.149c-0.05,-0.049 -0.096,-0.095 -0.137,-0.138l-0.063,-0.065" style="fill:none;stroke:#000;stroke-width:1.7px;"/><path id="STROKE_278F4B47.-7925.-415F.-B501.-0FA1CEA77A07" d="M15.887,80.681c-0.115,-0.041 -0.204,-0.065 -0.267,-0.073c-0.062,-0.008 -0.11,0.014 -0.143,0.066c-0.033,0.052 -0.059,0.119 -0.078,0.202c-0.019,0.083 -0.033,0.16 -0.041,0.232c-0.009,0.071 -0.008,0.15 0.003,0.238c0.011,0.088 0.032,0.176 0.063,0.265c0.032,0.09 0.072,0.18 0.121,0.272c0.049,0.091 0.104,0.179 0.166,0.263c0.062,0.084 0.121,0.16 0.177,0.227c0.056,0.067 0.109,0.127 0.158,0.18c0.05,0.053 0.095,0.101 0.137,0.145l0.062,0.066" style="fill:none;stroke:#000;stroke-width:1.7px;"/><path id="STROKE_431E65BD.-E474.-422A.-9E2F.-4568D15720C9" d="M22.901,83.542c-0.134,0.044 -0.23,0.082 -0.285,0.113c-0.056,0.032 -0.111,0.061 -0.165,0.088c-0.055,0.027 -0.106,0.057 -0.153,0.09c-0.047,0.032 -0.094,0.067 -0.141,0.104c-0.047,0.037 -0.102,0.083 -0.164,0.14c-0.062,0.056 -0.117,0.107 -0.167,0.151c-0.049,0.045 -0.101,0.096 -0.155,0.154c-0.054,0.057 -0.116,0.122 -0.184,0.195c-0.068,0.073 -0.124,0.132 -0.168,0.178c-0.044,0.047 -0.087,0.095 -0.128,0.145c-0.042,0.049 -0.085,0.1 -0.129,0.15c-0.045,0.05 -0.089,0.1 -0.134,0.151c-0.045,0.05 -0.089,0.102 -0.134,0.155c-0.045,0.054 -0.09,0.108 -0.136,0.162c-0.045,0.055 -0.092,0.109 -0.141,0.163c-0.05,0.053 -0.096,0.108 -0.137,0.163c-0.042,0.054 -0.086,0.109 -0.131,0.163c-0.045,0.055 -0.088,0.107 -0.128,0.157c-0.04,0.05 -0.078,0.099 -0.113,0.146c-0.036,0.047 -0.085,0.114 -0.147,0.2c-0.062,0.085 -0.117,0.164 -0.165,0.235c-0.049,0.071 -0.095,0.134 -0.141,0.189c-0.045,0.054 -0.092,0.11 -0.142,0.168c-0.05,0.058 -0.104,0.115 -0.163,0.172c-0.059,0.057 -0.121,0.115 -0.188,0.175c-0.066,0.06 -0.129,0.118 -0.187,0.175c-0.059,0.056 -0.117,0.109 -0.175,0.158c-0.057,0.049 -0.113,0.099 -0.166,0.152l-0.081,0.078" style="fill:none;stroke:#000;stroke-width:1.7px;"/><path id="STROKE_3D461DE0.-288A.-424B.-B1A1.-FB25DEAF36F4" d="M26.959,83.727c-0.039,0.124 -0.081,0.206 -0.124,0.247c-0.044,0.042 -0.092,0.083 -0.144,0.124c-0.052,0.041 -0.102,0.084 -0.15,0.129c-0.049,0.045 -0.102,0.092 -0.159,0.14c-0.058,0.049 -0.113,0.098 -0.166,0.146c-0.054,0.049 -0.109,0.099 -0.167,0.152c-0.058,0.053 -0.119,0.109 -0.182,0.169c-0.064,0.061 -0.132,0.127 -0.206,0.199c-0.073,0.072 -0.152,0.15 -0.234,0.234c-0.083,0.085 -0.147,0.149 -0.191,0.195c-0.044,0.045 -0.09,0.093 -0.139,0.143c-0.049,0.049 -0.1,0.101 -0.154,0.154c-0.054,0.054 -0.108,0.109 -0.162,0.166c-0.054,0.058 -0.111,0.115 -0.169,0.171c-0.059,0.057 -0.117,0.114 -0.176,0.171c-0.058,0.057 -0.117,0.115 -0.176,0.176c-0.059,0.061 -0.118,0.12 -0.177,0.176c-0.058,0.057 -0.117,0.116 -0.176,0.177c-0.059,0.061 -0.116,0.12 -0.17,0.177c-0.054,0.057 -0.108,0.115 -0.163,0.172l-0.325,0.344c-0.055,0.057 -0.107,0.113 -0.156,0.166c-0.049,0.054 -0.098,0.104 -0.147,0.15c-0.048,0.046 -0.097,0.091 -0.145,0.136c-0.048,0.045 -0.096,0.088 -0.144,0.128c-0.048,0.041 -0.093,0.081 -0.136,0.118c-0.043,0.037 -0.088,0.072 -0.135,0.105c-0.047,0.033 -0.108,0.078 -0.185,0.137c-0.076,0.059 -0.149,0.114 -0.219,0.165c-0.07,0.051 -0.13,0.095 -0.182,0.131c-0.052,0.037 -0.101,0.071 -0.148,0.104l-0.07,0.049" style="fill:none;stroke:#000;stroke-width:1.7px;"/><path id="STROKE_C1525D7B.-C6AB.-41B0.-97BB.-9DF9FB33B89F" d="M32.295,83.367c-0.085,0.136 -0.157,0.236 -0.217,0.301c-0.059,0.065 -0.118,0.126 -0.177,0.183c-0.058,0.056 -0.121,0.115 -0.188,0.174c-0.066,0.06 -0.12,0.111 -0.16,0.153c-0.04,0.042 -0.104,0.102 -0.19,0.182c-0.087,0.08 -0.157,0.142 -0.209,0.186c-0.053,0.044 -0.103,0.089 -0.152,0.135c-0.048,0.046 -0.101,0.092 -0.158,0.14c-0.058,0.048 -0.114,0.099 -0.167,0.152c-0.054,0.053 -0.11,0.106 -0.168,0.159c-0.058,0.053 -0.116,0.106 -0.174,0.158c-0.058,0.053 -0.118,0.108 -0.18,0.164c-0.062,0.056 -0.122,0.113 -0.18,0.17c-0.059,0.056 -0.12,0.113 -0.183,0.169c-0.063,0.056 -0.123,0.115 -0.183,0.176c-0.059,0.061 -0.12,0.119 -0.182,0.175c-0.063,0.057 -0.129,0.119 -0.198,0.188c-0.069,0.069 -0.134,0.127 -0.194,0.174c-0.061,0.048 -0.123,0.101 -0.186,0.161c-0.064,0.061 -0.127,0.119 -0.19,0.175c-0.063,0.057 -0.125,0.111 -0.188,0.163c-0.062,0.052 -0.122,0.103 -0.179,0.151c-0.058,0.049 -0.116,0.098 -0.173,0.146c-0.058,0.049 -0.114,0.095 -0.17,0.139c-0.056,0.044 -0.112,0.088 -0.169,0.132c-0.057,0.044 -0.117,0.088 -0.178,0.132c-0.061,0.044 -0.12,0.088 -0.178,0.132c-0.056,0.044 -0.113,0.086 -0.169,0.125c-0.057,0.04 -0.112,0.083 -0.164,0.128c-0.053,0.045 -0.106,0.09 -0.158,0.134c-0.053,0.045 -0.107,0.087 -0.164,0.128l-0.085,0.061" style="fill:none;stroke:#000;stroke-width:1.7px;"/><path id="STROKE_CC6C9B7C.-D146.-47B2.-847E.-81826FC2F22E" d="M33.516,81.609c0.121,-0.001 0.212,-0.005 0.273,-0.01c0.061,-0.006 0.124,-0.015 0.189,-0.028c0.065,-0.013 0.126,-0.023 0.183,-0.029c0.056,-0.006 0.114,-0.008 0.174,-0.004c0.06,0.003 0.122,0.007 0.184,0.01c0.064,0.004 0.129,0.01 0.197,0.019c0.068,0.008 0.132,0.014 0.192,0.017c0.06,0.004 0.126,0.003 0.199,-0.001c0.073,-0.004 0.137,-0.008 0.194,-0.014c0.056,-0.005 0.114,-0.008 0.173,-0.01c0.06,-0.002 0.126,-0.004 0.2,-0.007c0.074,-0.003 0.143,-0.001 0.206,0.007c0.064,0.008 0.128,0.011 0.191,0.01c0.064,-0.001 0.133,-0.003 0.206,-0.006c0.074,-0.003 0.15,-0.007 0.227,-0.01c0.077,-0.004 0.158,-0.007 0.244,-0.009c0.086,-0.002 0.163,-0.005 0.233,-0.009c0.069,-0.004 0.134,-0.009 0.194,-0.014c0.06,-0.006 0.124,-0.011 0.194,-0.015c0.07,-0.005 0.135,-0.012 0.195,-0.021c0.06,-0.009 0.121,-0.018 0.182,-0.027c0.062,-0.01 0.126,-0.021 0.192,-0.034c0.066,-0.013 0.13,-0.027 0.192,-0.04c0.062,-0.014 0.13,-0.027 0.204,-0.039c0.074,-0.012 0.152,-0.026 0.235,-0.041c0.083,-0.015 0.168,-0.031 0.255,-0.046c0.088,-0.015 0.171,-0.031 0.251,-0.046c0.08,-0.016 0.155,-0.032 0.224,-0.049c0.071,-0.016 0.136,-0.03 0.198,-0.039c0.061,-0.01 0.131,-0.022 0.21,-0.038c0.078,-0.016 0.153,-0.034 0.225,-0.054c0.072,-0.021 0.136,-0.037 0.193,-0.047c0.057,-0.01 0.114,-0.022 0.171,-0.036c0.056,-0.015 0.116,-0.029 0.177,-0.042c0.062,-0.014 0.137,-0.03 0.225,-0.05c0.088,-0.019 0.167,-0.035 0.238,-0.048c0.07,-0.012 0.134,-0.023 0.191,-0.033c0.057,-0.009 0.114,-0.019 0.17,-0.029c0.056,-0.01 0.112,-0.019 0.169,-0.025c0.056,-0.006 0.113,-0.014 0.171,-0.024c0.056,-0.01 0.118,-0.02 0.184,-0.029c0.066,-0.009 0.142,-0.019 0.228,-0.029c0.087,-0.011 0.161,-0.02 0.221,-0.029c0.06,-0.009 0.121,-0.016 0.182,-0.022c0.061,-0.006 0.119,-0.011 0.176,-0.017c0.057,-0.007 0.122,-0.016 0.196,-0.028c0.073,-0.012 0.147,-0.021 0.222,-0.029c0.074,-0.007 0.155,-0.016 0.242,-0.026c0.086,-0.011 0.171,-0.022 0.253,-0.033c0.083,-0.011 0.152,-0.02 0.209,-0.026c0.056,-0.006 0.113,-0.012 0.17,-0.018c0.056,-0.006 0.113,-0.012 0.17,-0.017c0.056,-0.005 0.114,-0.009 0.173,-0.01c0.06,-0.002 0.126,-0.004 0.2,-0.008c0.074,-0.003 0.143,-0.007 0.207,-0.012c0.064,-0.005 0.129,-0.01 0.194,-0.014c0.065,-0.004 0.132,-0.01 0.201,-0.019c0.069,-0.009 0.147,-0.014 0.234,-0.016c0.087,-0.003 0.169,-0.008 0.247,-0.015c0.077,-0.008 0.144,-0.014 0.201,-0.019c0.056,-0.006 0.114,-0.011 0.174,-0.017c0.06,-0.006 0.121,-0.011 0.181,-0.016c0.061,-0.004 0.122,-0.01 0.183,-0.015c0.061,-0.006 0.13,-0.01 0.207,-0.014c0.077,-0.003 0.146,-0.007 0.207,-0.012c0.061,-0.005 0.125,-0.01 0.194,-0.014c0.068,-0.005 0.142,-0.011 0.221,-0.018c0.078,-0.008 0.15,-0.015 0.214,-0.024c0.065,-0.008 0.134,-0.015 0.208,-0.019c0.074,-0.003 0.147,-0.005 0.22,-0.005c0.072,0 0.151,-0.001 0.236,-0.003c0.086,-0.002 0.159,-0.003 0.219,-0.005c0.061,-0.001 0.12,-0.004 0.176,-0.01c0.057,-0.005 0.125,-0.009 0.207,-0.012c0.081,-0.003 0.159,-0.004 0.232,-0.003c0.073,0.001 0.146,0.001 0.218,0.001c0.073,0 0.147,0.001 0.224,0.002c0.076,0.001 0.145,0.002 0.205,0.001c0.06,-0.001 0.121,-0.004 0.182,-0.009c0.061,-0.006 0.13,-0.011 0.207,-0.014c0.077,-0.004 0.15,-0.007 0.22,-0.011c0.069,-0.003 0.136,-0.006 0.199,-0.007c0.064,-0.001 0.128,-0.002 0.193,-0.002c0.065,0 0.129,0 0.192,-0.001c0.064,0 0.132,-0.002 0.206,-0.006c0.074,-0.004 0.145,-0.008 0.214,-0.013c0.068,-0.004 0.138,-0.01 0.208,-0.018c0.069,-0.008 0.141,-0.016 0.215,-0.024c0.073,-0.008 0.144,-0.016 0.214,-0.025c0.071,-0.008 0.138,-0.017 0.203,-0.026c0.064,-0.01 0.125,-0.017 0.181,-0.022c0.057,-0.005 0.12,-0.01 0.189,-0.015c0.07,-0.004 0.139,-0.009 0.208,-0.013c0.068,-0.005 0.14,-0.013 0.215,-0.025c0.075,-0.012 0.144,-0.023 0.209,-0.031c0.064,-0.008 0.132,-0.019 0.203,-0.031c0.07,-0.013 0.138,-0.024 0.203,-0.033c0.064,-0.009 0.129,-0.016 0.194,-0.021c0.066,-0.005 0.128,-0.006 0.188,-0.003c0.06,0.004 0.124,0.003 0.193,-0.001c0.068,-0.005 0.135,-0.012 0.201,-0.02c0.065,-0.008 0.127,-0.015 0.183,-0.021c0.057,-0.007 0.119,-0.009 0.187,-0.009c0.068,0 0.134,-0.002 0.199,-0.007c0.066,-0.005 0.135,-0.012 0.208,-0.02c0.074,-0.008 0.146,-0.018 0.216,-0.031c0.071,-0.012 0.138,-0.023 0.203,-0.032c0.065,-0.01 0.128,-0.019 0.189,-0.029c0.062,-0.009 0.123,-0.021 0.185,-0.034c0.062,-0.014 0.122,-0.024 0.178,-0.029c0.057,-0.005 0.117,-0.011 0.181,-0.016c0.064,-0.005 0.128,-0.016 0.19,-0.034c0.063,-0.017 0.125,-0.035 0.187,-0.053c0.063,-0.018 0.124,-0.029 0.184,-0.035c0.06,-0.006 0.118,-0.016 0.176,-0.03c0.058,-0.014 0.116,-0.03 0.174,-0.048c0.058,-0.018 0.118,-0.038 0.181,-0.06c0.063,-0.022 0.122,-0.043 0.176,-0.062c0.054,-0.02 0.109,-0.039 0.166,-0.057c0.057,-0.018 0.111,-0.041 0.162,-0.069c0.05,-0.027 0.103,-0.057 0.158,-0.088c0.056,-0.032 0.109,-0.066 0.161,-0.102c0.052,-0.036 0.102,-0.075 0.149,-0.117c0.048,-0.042 0.093,-0.086 0.133,-0.131c0.041,-0.046 0.084,-0.097 0.129,-0.151c0.045,-0.054 0.087,-0.102 0.127,-0.144c0.039,-0.042 0.068,-0.09 0.088,-0.143c0.02,-0.054 0.045,-0.106 0.077,-0.157c0.032,-0.051 0.062,-0.105 0.091,-0.161c0.029,-0.056 0.053,-0.113 0.072,-0.171c0.019,-0.058 0.039,-0.115 0.06,-0.172c0.02,-0.058 0.042,-0.113 0.066,-0.165c0.024,-0.052 0.042,-0.107 0.053,-0.166c0.012,-0.058 0.022,-0.119 0.03,-0.182c0.008,-0.063 0.008,-0.123 0.002,-0.18c-0.006,-0.056 -0.018,-0.111 -0.038,-0.165c-0.02,-0.053 -0.041,-0.109 -0.063,-0.168c-0.022,-0.058 -0.043,-0.116 -0.06,-0.174c-0.019,-0.057 -0.035,-0.114 -0.05,-0.172c-0.014,-0.058 -0.033,-0.114 -0.056,-0.169c-0.023,-0.054 -0.047,-0.111 -0.074,-0.169c-0.027,-0.058 -0.059,-0.109 -0.098,-0.153c-0.038,-0.043 -0.078,-0.084 -0.121,-0.124c-0.042,-0.04 -0.088,-0.076 -0.139,-0.108c-0.051,-0.031 -0.1,-0.065 -0.147,-0.1c-0.047,-0.036 -0.097,-0.068 -0.149,-0.096c-0.052,-0.028 -0.105,-0.053 -0.158,-0.077c-0.053,-0.024 -0.106,-0.048 -0.158,-0.072c-0.053,-0.024 -0.108,-0.043 -0.166,-0.058c-0.057,-0.016 -0.112,-0.033 -0.166,-0.053c-0.053,-0.02 -0.109,-0.034 -0.169,-0.041l-0.543,-0.068c-0.06,-0.007 -0.12,-0.008 -0.181,-0.002c-0.061,0.005 -0.122,0.019 -0.184,0.041c-0.062,0.021 -0.122,0.039 -0.179,0.054c-0.058,0.014 -0.115,0.026 -0.172,0.036c-0.057,0.01 -0.115,0.024 -0.173,0.042c-0.058,0.019 -0.117,0.033 -0.178,0.042c-0.06,0.01 -0.122,0.024 -0.184,0.042c-0.063,0.017 -0.125,0.033 -0.187,0.047c-0.062,0.013 -0.121,0.027 -0.179,0.041c-0.058,0.015 -0.117,0.028 -0.178,0.042c-0.061,0.014 -0.12,0.026 -0.177,0.036c-0.057,0.01 -0.114,0.02 -0.171,0.031c-0.057,0.01 -0.119,0.019 -0.184,0.028c-0.066,0.009 -0.129,0.016 -0.189,0.021c-0.059,0.005 -0.122,0.01 -0.187,0.015c-0.066,0.005 -0.129,0.012 -0.19,0.022c-0.062,0.009 -0.123,0.019 -0.183,0.028c-0.06,0.009 -0.119,0.018 -0.176,0.028c-0.057,0.01 -0.116,0.018 -0.177,0.024c-0.061,0.005 -0.121,0.011 -0.181,0.017c-0.06,0.005 -0.119,0.013 -0.176,0.022c-0.057,0.009 -0.113,0.017 -0.17,0.023c-0.057,0.006 -0.118,0.014 -0.184,0.023c-0.065,0.009 -0.132,0.015 -0.201,0.019c-0.068,0.004 -0.135,0.008 -0.2,0.013c-0.066,0.005 -0.13,0.01 -0.194,0.016c-0.065,0.005 -0.132,0.011 -0.202,0.019c-0.07,0.008 -0.133,0.017 -0.19,0.027c-0.057,0.01 -0.12,0.017 -0.189,0.022c-0.068,0.004 -0.133,0.007 -0.193,0.008c-0.06,0 -0.125,0.003 -0.193,0.008c-0.069,0.004 -0.136,0.011 -0.202,0.02c-0.065,0.009 -0.126,0.016 -0.183,0.022c-0.057,0.005 -0.116,0.012 -0.177,0.022c-0.061,0.01 -0.124,0.017 -0.188,0.022c-0.065,0.005 -0.125,0.012 -0.182,0.022c-0.057,0.009 -0.118,0.018 -0.184,0.027c-0.066,0.009 -0.131,0.018 -0.196,0.028c-0.065,0.009 -0.134,0.019 -0.209,0.031c-0.075,0.013 -0.149,0.025 -0.223,0.037c-0.074,0.012 -0.14,0.023 -0.197,0.033c-0.057,0.01 -0.12,0.02 -0.189,0.028c-0.069,0.009 -0.134,0.018 -0.196,0.027c-0.061,0.008 -0.12,0.016 -0.176,0.022c-0.057,0.006 -0.116,0.014 -0.178,0.023c-0.061,0.01 -0.126,0.019 -0.195,0.028c-0.069,0.008 -0.134,0.017 -0.196,0.026c-0.061,0.009 -0.124,0.016 -0.188,0.021c-0.064,0.005 -0.133,0.01 -0.207,0.014c-0.074,0.003 -0.141,0.008 -0.202,0.012c-0.061,0.005 -0.126,0.012 -0.195,0.021c-0.069,0.008 -0.136,0.015 -0.201,0.02c-0.065,0.005 -0.128,0.01 -0.188,0.015c-0.059,0.005 -0.12,0.01 -0.181,0.015c-0.061,0.006 -0.119,0.012 -0.176,0.018c-0.057,0.006 -0.118,0.011 -0.183,0.015c-0.065,0.005 -0.132,0.011 -0.201,0.019c-0.069,0.009 -0.136,0.018 -0.202,0.027c-0.066,0.009 -0.135,0.018 -0.209,0.026c-0.073,0.008 -0.138,0.015 -0.194,0.02c-0.057,0.005 -0.114,0.013 -0.171,0.023c-0.057,0.01 -0.118,0.02 -0.182,0.029c-0.065,0.009 -0.126,0.021 -0.184,0.035c-0.058,0.014 -0.119,0.026 -0.185,0.035c-0.066,0.009 -0.129,0.018 -0.189,0.027c-0.06,0.009 -0.124,0.022 -0.191,0.04c-0.067,0.018 -0.136,0.035 -0.207,0.052c-0.071,0.017 -0.154,0.034 -0.251,0.051c-0.096,0.018 -0.173,0.032 -0.229,0.042c-0.055,0.01 -0.119,0.02 -0.189,0.028c-0.07,0.009 -0.135,0.015 -0.196,0.02c-0.061,0.005 -0.126,0.011 -0.195,0.02c-0.069,0.009 -0.136,0.018 -0.202,0.027c-0.066,0.009 -0.133,0.02 -0.203,0.032c-0.069,0.013 -0.132,0.022 -0.189,0.029c-0.057,0.006 -0.116,0.014 -0.177,0.023c-0.062,0.01 -0.125,0.019 -0.189,0.027c-0.065,0.008 -0.128,0.017 -0.189,0.027c-0.062,0.009 -0.123,0.019 -0.184,0.029c-0.062,0.009 -0.125,0.019 -0.189,0.028c-0.065,0.009 -0.126,0.016 -0.183,0.022c-0.056,0.005 -0.119,0.012 -0.189,0.02c-0.07,0.009 -0.137,0.016 -0.202,0.021c-0.064,0.005 -0.125,0.013 -0.182,0.023c-0.057,0.01 -0.118,0.019 -0.184,0.027c-0.065,0.009 -0.131,0.017 -0.195,0.026c-0.065,0.01 -0.13,0.021 -0.196,0.034c-0.067,0.013 -0.131,0.024 -0.192,0.034c-0.062,0.01 -0.129,0.018 -0.202,0.026c-0.074,0.009 -0.145,0.017 -0.215,0.025c-0.07,0.009 -0.138,0.017 -0.203,0.026c-0.064,0.008 -0.125,0.017 -0.182,0.027c-0.057,0.011 -0.114,0.019 -0.171,0.025c-0.056,0.006 -0.113,0.012 -0.169,0.017c-0.057,0.005 -0.113,0.013 -0.169,0.023c-0.056,0.01 -0.12,0.024 -0.191,0.04c-0.071,0.017 -0.14,0.037 -0.207,0.059c-0.068,0.021 -0.139,0.042 -0.214,0.063c-0.074,0.02 -0.146,0.034 -0.215,0.043c-0.069,0.009 -0.139,0.015 -0.208,0.02c-0.07,0.004 -0.135,0.009 -0.196,0.014c-0.061,0.004 -0.121,0.011 -0.182,0.021c-0.06,0.01 -0.118,0.018 -0.175,0.024c-0.057,0.006 -0.128,0.012 -0.215,0.019c-0.086,0.006 -0.166,0.016 -0.241,0.028c-0.075,0.012 -0.145,0.022 -0.209,0.03c-0.065,0.009 -0.13,0.017 -0.196,0.026c-0.066,0.009 -0.129,0.019 -0.191,0.028c-0.061,0.01 -0.124,0.019 -0.189,0.029c-0.065,0.009 -0.127,0.016 -0.188,0.02c-0.061,0.005 -0.122,0.01 -0.183,0.016c-0.061,0.005 -0.119,0.011 -0.176,0.017c-0.057,0.007 -0.115,0.01 -0.174,0.011c-0.059,0 -0.121,0.001 -0.186,0.001c-0.064,0 -0.135,0 -0.211,0c-0.077,-0.001 -0.155,0 -0.233,0.003c-0.078,0.002 -0.156,0.007 -0.233,0.015c-0.078,0.008 -0.156,0.019 -0.235,0.035c-0.078,0.015 -0.146,0.028 -0.203,0.038c-0.057,0.011 -0.123,0.02 -0.196,0.028c-0.073,0.008 -0.147,0.014 -0.221,0.018c-0.074,0.004 -0.158,0.008 -0.253,0.013c-0.094,0.004 -0.176,0.007 -0.244,0.008c-0.068,0 -0.134,0 -0.199,0.001c-0.064,0 -0.129,0 -0.194,0.001c-0.064,0.001 -0.133,0.004 -0.206,0.007c-0.073,0.003 -0.148,0.006 -0.225,0.01c-0.077,0.003 -0.152,0.005 -0.225,0.004c-0.074,-0.001 -0.142,0.001 -0.206,0.006c-0.065,0.005 -0.127,0.01 -0.188,0.015l-0.091,0.007" style="fill:none;stroke:#000;stroke-width:1.7px;"/><path id="STROKE_642A83B8.-5DF5.-4183.-9B12.-C00329F80E86" d="M59.918,77.068c0.102,-0.064 0.164,-0.069 0.187,-0.016c0.023,0.054 0.044,0.112 0.062,0.175c0.019,0.062 0.037,0.124 0.054,0.186c0.018,0.062 0.033,0.126 0.047,0.192c0.014,0.066 0.021,0.131 0.022,0.195c0,0.064 -0.003,0.128 -0.011,0.191c-0.008,0.063 -0.015,0.124 -0.023,0.183c-0.007,0.059 -0.019,0.122 -0.036,0.188c-0.017,0.066 -0.046,0.126 -0.087,0.181c-0.041,0.055 -0.084,0.11 -0.131,0.164c-0.046,0.054 -0.089,0.106 -0.129,0.156c-0.04,0.05 -0.083,0.102 -0.128,0.157c-0.045,0.054 -0.094,0.104 -0.147,0.149c-0.052,0.045 -0.107,0.088 -0.164,0.128c-0.056,0.039 -0.11,0.077 -0.162,0.114c-0.051,0.036 -0.105,0.07 -0.16,0.102c-0.056,0.031 -0.111,0.063 -0.167,0.093c-0.055,0.031 -0.108,0.063 -0.159,0.095c-0.051,0.032 -0.106,0.062 -0.164,0.089c-0.058,0.028 -0.117,0.059 -0.177,0.094c-0.061,0.035 -0.123,0.066 -0.186,0.092c-0.064,0.025 -0.122,0.048 -0.176,0.068c-0.054,0.019 -0.11,0.036 -0.168,0.05c-0.057,0.014 -0.116,0.026 -0.176,0.036c-0.061,0.01 -0.121,0.015 -0.182,0.016c-0.06,0 -0.123,0.005 -0.189,0.014c-0.066,0.009 -0.131,0.02 -0.196,0.034c-0.065,0.013 -0.127,0.027 -0.185,0.041c-0.057,0.014 -0.116,0.023 -0.177,0.028c-0.061,0.005 -0.123,0.006 -0.186,0.003c-0.063,-0.003 -0.124,-0.008 -0.184,-0.016c-0.059,-0.007 -0.121,-0.013 -0.185,-0.017c-0.064,-0.003 -0.128,-0.003 -0.192,0.001c-0.064,0.004 -0.129,0.005 -0.193,0.002c-0.064,-0.003 -0.126,-0.006 -0.186,-0.01c-0.06,-0.003 -0.123,-0.007 -0.191,-0.011c-0.067,-0.004 -0.13,-0.01 -0.19,-0.018c-0.059,-0.007 -0.127,-0.014 -0.203,-0.019c-0.076,-0.005 -0.144,-0.007 -0.204,-0.005c-0.061,0.001 -0.123,0.002 -0.186,0.002c-0.064,0 -0.128,0.003 -0.194,0.008c-0.065,0.005 -0.128,0.015 -0.191,0.028l-0.092,0.021" style="fill:none;stroke:#000;stroke-width:1.7px;"/></g></g></svg>