<?xml version="1.0" encoding="utf-8"?>
<!-- Generator: Adobe Illustrator 16.0.0, SVG Export Plug-In . SVG Version: 6.00 Build 0)  -->
<!DOCTYPE svg PUBLIC "-//W3C//DTD SVG 1.1//EN" "http://www.w3.org/Graphics/SVG/1.1/DTD/svg11.dtd">
<svg version="1.1" id="Layer_1" xmlns="http://www.w3.org/2000/svg" xmlns:xlink="http://www.w3.org/1999/xlink" x="0px" y="0px"
	 width="160px" height="160px" viewBox="0 0 160 160" enable-background="new 0 0 160 160" xml:space="preserve">
<g id="a8">
	
		<path fill="#F4CE00" stroke="#000000" stroke-width="1.7" stroke-linecap="round" stroke-linejoin="round" stroke-miterlimit="1.5" d="
		M51.728,80.329c0.945-0.008,1.685,0.207,1.752,1.057c0,0-1.135,14.104-0.974,17.511c0.051,1.068,1.716,1.531,1.901,2.584
		c0.25,1.43-0.396,5.998-0.396,5.998s-5.752,3.938-14.681,3.275c-9.549-0.712-12.556-7.326-12.556-7.326s0.108-2.9,0.574-3.816
		c0.421-0.826,2.189-0.748,2.22-1.674c0.104-3.06-1.595-16.687-1.595-16.687c0.097-1.246,0.958-1.853,2.66-1.759L51.728,80.329z"/>
	
		<path fill="#FFFFFF" stroke="#000000" stroke-width="1.7" stroke-linecap="round" stroke-linejoin="round" stroke-miterlimit="1.5" d="
		M29.869,79.672c0-0.021,0-0.043,0-0.065c0.024-3.705,2.019-5.38,7.297-2.859c2.344-3.544,4.947-3.431,7.757-0.393
		c4.991-2.312,6.71,0.336,6.585,4.376c-0.004,0.135-0.094,0.671-0.094,0.671s0.21,4.256-11.421,3.865
		C28.443,84.88,29.979,79.672,29.869,79.672z"/>
	
		<path fill="none" stroke="#000000" stroke-width="1.7" stroke-linecap="round" stroke-linejoin="round" stroke-miterlimit="1.5" d="
		M49.336,101.518c0,0,0.243-8.957,0.117-10.939c-0.285-4.469-4.608-2.787-4.23-0.245"/>
	
		<path fill="none" stroke="#000000" stroke-width="1.7" stroke-linecap="round" stroke-linejoin="round" stroke-miterlimit="1.5" d="
		M41.658,102.468c0,0,0.249-9.563,0.12-11.679c-0.291-4.77-4.716-2.975-4.329-0.262"/>
	
		<path fill="none" stroke="#000000" stroke-width="1.7" stroke-linecap="round" stroke-linejoin="round" stroke-miterlimit="1.5" d="
		M34.586,101.811c0,0,0.25-9.564,0.12-11.68c-0.291-4.77-3.563-4.441-3.177-1.729"/>
	
		<circle fill="#FFFFFF" stroke="#000000" stroke-width="1.7" stroke-linecap="round" stroke-linejoin="round" stroke-miterlimit="1.5" cx="25.991" cy="82.939" r="2.72"/>
</g>
</svg>
