<?xml version="1.0" encoding="utf-8"?>
<!-- Generator: Adobe Illustrator 16.0.0, SVG Export Plug-In . SVG Version: 6.00 Build 0)  -->
<!DOCTYPE svg PUBLIC "-//W3C//DTD SVG 1.1//EN" "http://www.w3.org/Graphics/SVG/1.1/DTD/svg11.dtd">
<svg version="1.1" id="Layer_1" xmlns="http://www.w3.org/2000/svg" xmlns:xlink="http://www.w3.org/1999/xlink" x="0px" y="0px"
     width="160px" height="160px" viewBox="0 0 160 160" enable-background="new 0 0 160 160" xml:space="preserve">
    <desc>Created with Sketch.</desc>
   
    <g id="Page-1" stroke="none" stroke-width="1" fill="none" fill-rule="evenodd">
        <path d="M151.562819,89.5451035 C150.748763,87.0738112 150.718613,86.8951636 150.809063,80.6127218 C150.899514,73.1690704 150.447261,69.9534129 149.00005,67.005727 C147.461328,63.880609 142.537293,62.7616843 141.306048,62.4547005 C134.426158,60.7393512 125.979335,63.2845581 125.955132,67.0558593 C125.935299,70.1463316 127.723771,71.7376504 127.211218,72.1544949 C125.733857,73.3752537 124.186421,74.5387022 124.216572,77.0397691 C124.276872,81.2975377 125.995434,84.1558998 130.608418,87.7884017 C133.382238,89.9321733 133.65359,90.3192432 134.286744,93.1180562 C134.769148,95.3809262 152.105523,91.1529322 151.562819,89.5451035 Z" id="Shape" stroke="#000000" fill="#FF0000" fill-rule="nonzero" transform="translate(137.895718, 77.839388) rotate(76.000000) translate(-137.895718, -77.839388) "></path>
        <path d="M37.9280209,108.079004 C36.5088926,107.466339 33.9071572,103.075575 33.0624379,99.9101395 C32.7921278,98.8209575 31.9811973,97.6296648 30.25797,95.7235963 C22.6892853,87.3164729 18.7359991,79.6581622 19.8510286,75.471619 C20.4254377,73.3613289 23.5002158,70.6724109 27.7576009,68.5621209 C33.8733684,65.5328335 38.4010637,65.0222794 41.0365878,67.0304587 C42.050251,67.8133082 42.6922376,68.0515668 43.9086334,68.0515668 C46.6793126,68.0515668 49.0783153,70.2980046 50.8353314,74.5866586 C51.9503608,77.3096136 51.916572,80.849455 50.8015426,85.5465522 C49.8892458,89.3246522 49.8892458,89.6650216 51.1394303,92.0476071 C52.0179383,93.7834909 53.4708555,98.3444404 53.7749544,100.386657 C53.977687,101.611986 53.8763207,101.816208 52.5585587,103.109612 C49.2472591,106.309084 40.5973338,109.23626 37.9280209,108.079004 Z" id="Shape" stroke="#000000" fill="#FF0909" fill-rule="nonzero" transform="translate(36.760428, 87.083312) scale(-1, 1) rotate(-41.000000) translate(-36.760428, -87.083312) "></path>
    </g>
</svg>