<?xml version="1.0" encoding="utf-8"?>
<!-- Generator: Adobe Illustrator 16.0.0, SVG Export Plug-In . SVG Version: 6.00 Build 0)  -->
<!DOCTYPE svg PUBLIC "-//W3C//DTD SVG 1.1//EN" "http://www.w3.org/Graphics/SVG/1.1/DTD/svg11.dtd">
<svg version="1.1" id="Layer_1" xmlns="http://www.w3.org/2000/svg" xmlns:xlink="http://www.w3.org/1999/xlink" x="0px" y="0px"
	 width="160px" height="160px" viewBox="0 0 160 160" enable-background="new 0 0 160 160" xml:space="preserve">
<g id="a12">
	
		<path id="STROKE_32CFA853.-E514.-4068.-B823.-AFF71B1F4FB7" fill="none" stroke="#000000" stroke-width="1.72" stroke-linecap="round" stroke-linejoin="round" d="
		M61.057,90.804c0.126-0.115,0.207-0.202,0.241-0.263c0.035-0.06,0.062-0.127,0.079-0.2c0.017-0.074,0.033-0.142,0.046-0.205
		c0.013-0.063,0.027-0.138,0.044-0.224c0.017-0.084,0.039-0.17,0.063-0.256s0.039-0.158,0.042-0.221s0.006-0.124,0.01-0.185
		c0.003-0.061,0.001-0.123-0.007-0.19c-0.009-0.066-0.017-0.135-0.026-0.203c-0.009-0.068-0.022-0.135-0.04-0.198
		s-0.036-0.128-0.054-0.192s-0.036-0.129-0.054-0.195c-0.018-0.064-0.038-0.135-0.058-0.207c-0.02-0.074-0.042-0.151-0.065-0.235
		c-0.024-0.083-0.044-0.154-0.059-0.211c-0.016-0.058-0.032-0.113-0.047-0.168c-0.015-0.056-0.036-0.13-0.062-0.222
		c-0.026-0.093-0.052-0.186-0.077-0.277c-0.026-0.092-0.051-0.181-0.074-0.264c-0.023-0.084-0.045-0.162-0.065-0.234
		c-0.021-0.073-0.041-0.146-0.062-0.223c-0.021-0.074-0.043-0.154-0.066-0.237s-0.046-0.166-0.069-0.248
		c-0.023-0.082-0.048-0.169-0.073-0.261c-0.025-0.094-0.046-0.168-0.063-0.225s-0.031-0.113-0.047-0.168
		c-0.015-0.056-0.03-0.111-0.045-0.166c-0.015-0.055-0.051-0.13-0.108-0.223c-0.057-0.094-0.107-0.185-0.152-0.271
		c-0.045-0.086-0.088-0.17-0.131-0.248c-0.042-0.078-0.079-0.154-0.109-0.226c-0.03-0.071-0.062-0.138-0.097-0.197
		c-0.034-0.06-0.067-0.125-0.097-0.196c-0.03-0.072-0.062-0.149-0.094-0.23c-0.033-0.081-0.07-0.16-0.112-0.236
		c-0.042-0.077-0.083-0.15-0.123-0.219c-0.04-0.07-0.078-0.135-0.116-0.192c-0.037-0.059-0.077-0.118-0.122-0.176
		c-0.044-0.06-0.089-0.116-0.136-0.172c-0.046-0.056-0.094-0.118-0.144-0.185c-0.049-0.066-0.107-0.131-0.173-0.193
		s-0.132-0.139-0.198-0.229c-0.066-0.092-0.117-0.162-0.151-0.213c-0.034-0.049-0.069-0.099-0.104-0.148
		c-0.034-0.051-0.066-0.101-0.099-0.151c-0.032-0.05-0.075-0.118-0.13-0.202c-0.054-0.085-0.105-0.176-0.153-0.273
		c-0.048-0.099-0.097-0.184-0.147-0.258c-0.051-0.074-0.098-0.15-0.141-0.228c-0.043-0.078-0.083-0.153-0.12-0.222
		c-0.038-0.071-0.079-0.134-0.125-0.19c-0.046-0.056-0.088-0.114-0.125-0.175c-0.037-0.06-0.081-0.123-0.129-0.188
		c-0.049-0.065-0.096-0.127-0.14-0.185c-0.045-0.059-0.09-0.116-0.136-0.173c-0.047-0.056-0.093-0.113-0.14-0.17
		c-0.046-0.058-0.092-0.116-0.136-0.173c-0.044-0.056-0.094-0.111-0.15-0.165c-0.056-0.053-0.107-0.109-0.154-0.167
		c-0.046-0.058-0.104-0.118-0.168-0.177c-0.065-0.062-0.132-0.122-0.202-0.183c-0.068-0.062-0.138-0.117-0.209-0.166
		c-0.073-0.048-0.147-0.098-0.222-0.148c-0.075-0.05-0.143-0.096-0.204-0.139c-0.06-0.042-0.122-0.084-0.184-0.126
		c-0.063-0.042-0.124-0.08-0.181-0.114c-0.06-0.034-0.124-0.07-0.197-0.111c-0.072-0.042-0.133-0.08-0.182-0.116
		c-0.048-0.036-0.108-0.074-0.181-0.114c-0.072-0.039-0.134-0.076-0.184-0.112c-0.051-0.036-0.107-0.075-0.167-0.117
		c-0.061-0.043-0.118-0.087-0.171-0.131c-0.053-0.045-0.115-0.087-0.185-0.127s-0.136-0.082-0.2-0.125
		c-0.063-0.044-0.125-0.087-0.185-0.13c-0.062-0.042-0.122-0.083-0.186-0.126c-0.063-0.042-0.123-0.08-0.181-0.113
		c-0.058-0.034-0.125-0.075-0.199-0.124c-0.075-0.048-0.143-0.094-0.204-0.138c-0.062-0.045-0.128-0.086-0.2-0.125
		c-0.072-0.039-0.138-0.08-0.199-0.123c-0.06-0.043-0.122-0.085-0.185-0.127c-0.063-0.042-0.126-0.089-0.189-0.142
		c-0.063-0.054-0.122-0.104-0.175-0.147c-0.054-0.045-0.108-0.094-0.164-0.147c-0.056-0.054-0.109-0.104-0.161-0.151
		c-0.051-0.047-0.105-0.097-0.161-0.151c-0.056-0.053-0.11-0.102-0.163-0.147c-0.054-0.044-0.112-0.093-0.175-0.146
		c-0.064-0.054-0.123-0.107-0.179-0.161c-0.056-0.053-0.112-0.112-0.168-0.177c-0.057-0.065-0.12-0.131-0.191-0.2
		c-0.07-0.068-0.138-0.134-0.204-0.195c-0.066-0.063-0.13-0.135-0.194-0.217c-0.064-0.082-0.13-0.158-0.202-0.229
		c-0.07-0.07-0.14-0.142-0.208-0.212c-0.068-0.071-0.137-0.141-0.208-0.21c-0.07-0.068-0.132-0.13-0.186-0.187
		c-0.054-0.056-0.11-0.116-0.169-0.18c-0.059-0.064-0.117-0.128-0.176-0.19c-0.058-0.062-0.121-0.129-0.189-0.2
		c-0.069-0.071-0.142-0.155-0.22-0.252c-0.08-0.097-0.134-0.172-0.167-0.225c-0.032-0.052-0.071-0.102-0.115-0.149
		c-0.043-0.047-0.084-0.1-0.121-0.159c-0.036-0.059-0.077-0.111-0.121-0.159c-0.044-0.047-0.104-0.12-0.18-0.22
		c-0.076-0.099-0.131-0.174-0.166-0.224c-0.034-0.05-0.069-0.1-0.103-0.149c-0.034-0.05-0.069-0.1-0.103-0.15
		c-0.034-0.05-0.068-0.101-0.1-0.153c-0.033-0.052-0.066-0.104-0.1-0.154c-0.035-0.049-0.07-0.099-0.104-0.149
		c-0.035-0.05-0.069-0.1-0.104-0.149c-0.034-0.05-0.068-0.101-0.103-0.153c-0.035-0.051-0.07-0.103-0.104-0.152
		c-0.034-0.05-0.068-0.1-0.1-0.151c-0.031-0.051-0.076-0.123-0.132-0.217c-0.057-0.093-0.118-0.18-0.181-0.263
		c-0.064-0.082-0.125-0.159-0.184-0.233c-0.059-0.074-0.114-0.149-0.166-0.224c-0.052-0.076-0.107-0.145-0.165-0.207
		c-0.058-0.062-0.112-0.132-0.162-0.208c-0.049-0.077-0.098-0.147-0.148-0.215c-0.049-0.067-0.098-0.134-0.148-0.2
		c-0.049-0.067-0.104-0.136-0.165-0.207c-0.061-0.072-0.115-0.145-0.166-0.222c-0.049-0.076-0.099-0.148-0.148-0.214
		c-0.049-0.067-0.102-0.147-0.159-0.241c-0.057-0.093-0.115-0.192-0.17-0.294c-0.057-0.104-0.104-0.185-0.142-0.245
		c-0.037-0.061-0.073-0.116-0.107-0.167c-0.034-0.049-0.07-0.104-0.107-0.162c-0.037-0.059-0.069-0.12-0.097-0.183
		c-0.028-0.064-0.059-0.121-0.093-0.17c-0.034-0.05-0.065-0.111-0.093-0.184c-0.028-0.072-0.055-0.135-0.08-0.188
		c-0.025-0.052-0.055-0.108-0.092-0.166c-0.037-0.059-0.079-0.137-0.127-0.235c-0.048-0.098-0.083-0.174-0.109-0.226
		c-0.025-0.053-0.061-0.127-0.108-0.223c-0.046-0.096-0.095-0.192-0.142-0.289c-0.046-0.096-0.091-0.188-0.134-0.276
		c-0.042-0.087-0.091-0.174-0.145-0.259c-0.055-0.085-0.104-0.17-0.148-0.258c-0.044-0.087-0.08-0.157-0.104-0.209
		c-0.025-0.053-0.062-0.128-0.109-0.226s-0.094-0.195-0.139-0.292c-0.044-0.097-0.08-0.17-0.104-0.224
		c-0.024-0.052-0.061-0.127-0.108-0.223c-0.047-0.096-0.078-0.171-0.094-0.229c-0.016-0.057-0.049-0.138-0.099-0.243
		c-0.049-0.105-0.093-0.207-0.131-0.306c-0.038-0.099-0.069-0.173-0.094-0.227c-0.025-0.052-0.05-0.105-0.075-0.16
		c-0.026-0.054-0.046-0.109-0.062-0.164c-0.016-0.055-0.037-0.113-0.063-0.175c-0.028-0.062-0.057-0.148-0.088-0.26
		c-0.031-0.112-0.059-0.194-0.084-0.247c-0.025-0.052-0.053-0.134-0.084-0.244c-0.031-0.11-0.059-0.211-0.085-0.304
		c-0.025-0.093-0.047-0.172-0.066-0.238c-0.018-0.066-0.035-0.125-0.05-0.181s-0.031-0.11-0.046-0.166
		c-0.016-0.055-0.033-0.115-0.051-0.181c-0.018-0.066-0.035-0.127-0.051-0.182c-0.015-0.055-0.027-0.116-0.035-0.182
		c-0.008-0.067-0.016-0.128-0.021-0.187c-0.006-0.058-0.013-0.117-0.019-0.176c-0.006-0.06-0.014-0.123-0.022-0.19
		c-0.008-0.066-0.016-0.128-0.021-0.186c-0.006-0.058-0.014-0.121-0.023-0.19c-0.008-0.068-0.017-0.136-0.025-0.202
		c-0.008-0.067-0.016-0.129-0.021-0.187c-0.006-0.058-0.015-0.146-0.027-0.263c-0.012-0.117-0.021-0.204-0.031-0.262
		c-0.008-0.057-0.015-0.114-0.021-0.172c-0.006-0.058-0.012-0.115-0.017-0.174c-0.006-0.057-0.009-0.142-0.01-0.253
		c0-0.111-0.004-0.215-0.011-0.313c-0.007-0.098-0.007-0.192-0.001-0.281c0.005-0.09,0.006-0.175,0.001-0.254
		c-0.004-0.08-0.004-0.149,0-0.21c0.004-0.06,0.012-0.122,0.025-0.185c0.013-0.063,0.021-0.126,0.024-0.188
		c0.003-0.063-0.024-0.07-0.083-0.023c-0.059,0.047-0.096,0.108-0.115,0.182c-0.018,0.073-0.04,0.154-0.066,0.243
		c-0.026,0.087-0.048,0.168-0.066,0.242c-0.019,0.074-0.041,0.155-0.067,0.243c-0.025,0.088-0.053,0.176-0.079,0.264
		c-0.027,0.088-0.049,0.169-0.067,0.243c-0.018,0.074-0.035,0.153-0.052,0.239c-0.017,0.085-0.035,0.164-0.052,0.238
		c-0.018,0.074-0.04,0.156-0.067,0.243c-0.027,0.088-0.047,0.179-0.062,0.273c-0.014,0.095-0.028,0.188-0.041,0.28
		c-0.013,0.091-0.028,0.18-0.045,0.265c-0.017,0.085-0.037,0.171-0.062,0.259c-0.024,0.087-0.045,0.173-0.063,0.256
		c-0.017,0.084-0.036,0.163-0.055,0.24c-0.02,0.076-0.036,0.156-0.052,0.239c-0.015,0.083-0.035,0.172-0.059,0.269
		c-0.024,0.097-0.048,0.189-0.073,0.276c-0.024,0.088-0.042,0.183-0.054,0.286c-0.012,0.103-0.031,0.202-0.055,0.297
		c-0.025,0.095-0.046,0.196-0.065,0.303s-0.039,0.213-0.061,0.319s-0.037,0.21-0.047,0.312c-0.01,0.103-0.019,0.194-0.027,0.275
		c-0.008,0.081-0.021,0.164-0.039,0.249c-0.017,0.086-0.024,0.163-0.023,0.231c0.001,0.069-0.004,0.135-0.017,0.198
		c-0.014,0.063-0.024,0.136-0.032,0.219c-0.007,0.083-0.018,0.155-0.031,0.218c-0.013,0.063-0.027,0.138-0.042,0.222
		c-0.014,0.084-0.028,0.178-0.041,0.281c-0.012,0.103-0.028,0.208-0.047,0.313s-0.031,0.187-0.035,0.248
		c-0.003,0.06-0.007,0.121-0.01,0.181c-0.004,0.061-0.013,0.139-0.028,0.232c-0.014,0.094-0.023,0.187-0.026,0.278
		s-0.013,0.179-0.03,0.264c-0.017,0.085-0.034,0.17-0.052,0.253c-0.017,0.084-0.03,0.163-0.038,0.235
		c-0.008,0.073-0.025,0.153-0.052,0.239c-0.027,0.086-0.046,0.167-0.056,0.24c-0.01,0.074-0.018,0.151-0.024,0.231
		c-0.006,0.08-0.016,0.167-0.03,0.261c-0.015,0.095-0.027,0.193-0.041,0.295c-0.012,0.104-0.019,0.186-0.02,0.245
		c-0.001,0.06,0.001,0.119,0.007,0.177s0.008,0.118,0.005,0.18c-0.004,0.062-0.007,0.145-0.009,0.245
		c-0.003,0.1-0.005,0.185-0.006,0.254c0,0.07-0.002,0.155-0.002,0.253c0,0.1-0.003,0.196-0.008,0.287
		c-0.005,0.092-0.012,0.179-0.02,0.261c-0.007,0.083-0.017,0.156-0.031,0.219c-0.013,0.063-0.025,0.126-0.035,0.188
		c-0.011,0.063-0.018,0.124-0.022,0.185c-0.003,0.061-0.01,0.127-0.02,0.201c-0.011,0.074-0.021,0.147-0.032,0.218
		c-0.011,0.073-0.019,0.149-0.024,0.232c-0.006,0.082-0.012,0.163-0.02,0.244c-0.009,0.081-0.015,0.167-0.02,0.259
		c-0.006,0.091-0.008,0.187-0.009,0.287c0,0.099-0.001,0.199-0.004,0.3c-0.003,0.1-0.005,0.2-0.008,0.3
		c-0.003,0.101-0.001,0.2,0.006,0.297c0.007,0.098,0.009,0.193,0.006,0.283c-0.003,0.091-0.007,0.183-0.012,0.274
		c-0.005,0.092-0.007,0.177-0.006,0.255c0.001,0.079,0.003,0.157,0.005,0.237s0.004,0.16,0.006,0.24
		c0.001,0.08,0.004,0.159,0.008,0.236c0.004,0.078,0.007,0.157,0.008,0.237c0.002,0.08,0.004,0.159,0.005,0.237
		c0.001,0.078,0.007,0.156,0.019,0.234c0.012,0.077,0.018,0.156,0.02,0.236c0.002,0.079,0.01,0.163,0.024,0.249
		c0.013,0.086,0.023,0.173,0.03,0.259c0.006,0.086,0.011,0.174,0.016,0.263c0.004,0.089,0.008,0.178,0.013,0.268
		c0.004,0.088,0.008,0.177,0.012,0.267c0.004,0.089,0.006,0.168,0.004,0.237c0,0.069,0,0.144,0.001,0.224
		c0.002,0.08,0.004,0.154,0.005,0.223c0,0.069,0.004,0.132,0.01,0.189c0.005,0.058,0.009,0.127,0.011,0.207
		c0.002,0.08,0.009,0.159,0.02,0.236c0.011,0.078,0.016,0.151,0.015,0.22c-0.001,0.07,0.001,0.149,0.005,0.238
		c0.004,0.089,0.01,0.177,0.017,0.266c0.006,0.088,0.017,0.175,0.031,0.261c0.013,0.086,0.021,0.169,0.021,0.247
		c0.002,0.078,0.007,0.151,0.017,0.22c0.008,0.068,0.011,0.137,0.011,0.207c-0.001,0.069,0.003,0.137,0.011,0.204
		c0.008,0.066,0.018,0.134,0.026,0.203c0.009,0.067,0.014,0.135,0.015,0.205c0.001,0.069,0.008,0.142,0.019,0.219
		c0.011,0.078,0.018,0.155,0.019,0.233c0.001,0.08,0.003,0.159,0.005,0.238c0.002,0.08,0.005,0.164,0.009,0.253
		s-0.001,0.176-0.016,0.26c-0.015,0.085-0.02,0.171-0.016,0.258c0.003,0.087,0.002,0.177-0.002,0.268
		c-0.005,0.092-0.002,0.176,0.009,0.254c0.012,0.078,0.018,0.155,0.019,0.233c0.002,0.078,0.008,0.156,0.019,0.232
		c0.012,0.079,0.023,0.155,0.034,0.232c0.012,0.078,0.024,0.154,0.037,0.229c0.013,0.076,0.026,0.151,0.037,0.229
		c0.011,0.078,0.024,0.158,0.038,0.246c0.013,0.086,0.027,0.171,0.041,0.256c0.014,0.084,0.022,0.171,0.026,0.26
		c0.004,0.089,0.013,0.172,0.023,0.249c0.012,0.077,0.023,0.155,0.034,0.231c0.012,0.078,0.018,0.155,0.019,0.234
		c0.002,0.078,0.005,0.157,0.009,0.236c0.004,0.079,0.011,0.157,0.022,0.232s0.024,0.156,0.037,0.242
		c0.014,0.088,0.029,0.178,0.046,0.272c0.016,0.095,0.032,0.19,0.048,0.286c0.017,0.095,0.032,0.186,0.045,0.271
		c0.014,0.086,0.025,0.179,0.031,0.276c0.007,0.098,0.017,0.189,0.031,0.276c0.014,0.086,0.027,0.168,0.038,0.244
		c0.011,0.078,0.021,0.15,0.03,0.217c0.008,0.066,0.017,0.133,0.028,0.199c0.011,0.066,0.025,0.133,0.044,0.197
		c0.018,0.066,0.034,0.143,0.048,0.229c0.014,0.086,0.031,0.166,0.051,0.238c0.021,0.073,0.039,0.157,0.055,0.252
		c0.017,0.097,0.038,0.189,0.064,0.282c0.024,0.092,0.044,0.183,0.059,0.269c0.013,0.086,0.032,0.17,0.055,0.254
		c0.024,0.084,0.047,0.168,0.07,0.252c0.024,0.083,0.042,0.166,0.055,0.252c0.014,0.084,0.031,0.164,0.052,0.238
		s0.04,0.146,0.058,0.212c0.019,0.065,0.037,0.13,0.055,0.193c0.018,0.064,0.035,0.128,0.053,0.192s0.036,0.129,0.054,0.194
		c0.02,0.066,0.039,0.136,0.059,0.208c0.021,0.074,0.041,0.147,0.062,0.223c0.021,0.074,0.042,0.154,0.066,0.236
		c0.024,0.085,0.047,0.168,0.07,0.252s0.047,0.172,0.074,0.264c0.026,0.093,0.052,0.186,0.077,0.277
		c0.026,0.093,0.052,0.186,0.078,0.277c0.025,0.094,0.056,0.185,0.091,0.274c0.036,0.09,0.071,0.181,0.106,0.269
		c0.035,0.09,0.069,0.176,0.102,0.258c0.034,0.08,0.065,0.16,0.099,0.239c0.032,0.079,0.063,0.159,0.094,0.241
		c0.03,0.082,0.061,0.158,0.091,0.23c0.03,0.072,0.062,0.148,0.095,0.229c0.032,0.081,0.066,0.167,0.102,0.257
		c0.035,0.09,0.067,0.17,0.098,0.24c0.03,0.07,0.065,0.145,0.108,0.223c0.043,0.078,0.084,0.156,0.126,0.234
		c0.043,0.079,0.082,0.162,0.117,0.252c0.035,0.091,0.075,0.184,0.12,0.281c0.045,0.097,0.091,0.192,0.138,0.289
		c0.047,0.096,0.093,0.188,0.138,0.275c0.045,0.086,0.094,0.172,0.149,0.258c0.054,0.084,0.101,0.16,0.141,0.23
		c0.039,0.068,0.087,0.137,0.144,0.201c0.056,0.064,0.109,0.13,0.158,0.195c0.048,0.064,0.095,0.121,0.139,0.168
		c0.044,0.048,0.086,0.096,0.128,0.145c0.042,0.05,0.08,0.1,0.115,0.15c0.034,0.05,0.08,0.105,0.139,0.168
		c0.058,0.063,0.104,0.119,0.14,0.17c0.035,0.053,0.07,0.107,0.108,0.166c0.037,0.06,0.071,0.113,0.103,0.165
		c0.032,0.05,0.066,0.101,0.101,0.153c0.035,0.051,0.069,0.102,0.104,0.151c0.035,0.05,0.081,0.105,0.139,0.169
		c0.058,0.062,0.109,0.117,0.15,0.167c0.042,0.05,0.085,0.099,0.129,0.146c0.044,0.047,0.089,0.1,0.135,0.155
		c0.047,0.056,0.097,0.112,0.151,0.168c0.053,0.056,0.114,0.114,0.182,0.173c0.068,0.061,0.133,0.127,0.194,0.199
		c0.061,0.074,0.125,0.146,0.194,0.217c0.068,0.072,0.132,0.138,0.19,0.201c0.059,0.062,0.113,0.116,0.165,0.163
		c0.051,0.048,0.107,0.087,0.167,0.12c0.062,0.033,0.124,0.04,0.187,0.021l0.096-0.025"/>
	
		<path id="STROKE_F0327703.-7646.-419E.-868E.-AC0D9AB5FC51" fill="none" stroke="#000000" stroke-width="1.72" stroke-linecap="round" stroke-linejoin="round" d="
		M53.966,93.977c0.114-0.031,0.203-0.057,0.268-0.074c0.063-0.018,0.125-0.045,0.188-0.082c0.061-0.035,0.106-0.092,0.133-0.168
		c0.027-0.078,0.046-0.147,0.06-0.213c0.012-0.064,0.033-0.131,0.063-0.199c0.03-0.067,0.055-0.139,0.075-0.213
		c0.021-0.074,0.04-0.15,0.06-0.227c0.019-0.076,0.044-0.148,0.073-0.216c0.03-0.068,0.056-0.135,0.079-0.2
		c0.022-0.066,0.04-0.13,0.053-0.193c0.013-0.063,0.028-0.133,0.046-0.209c0.017-0.076,0.03-0.154,0.038-0.234
		c0.008-0.081,0.016-0.162,0.024-0.245c0.007-0.083,0.009-0.164,0.004-0.243c-0.004-0.078-0.008-0.163-0.011-0.25
		c-0.004-0.087-0.009-0.175-0.014-0.264c-0.003-0.09-0.007-0.178-0.013-0.266c-0.004-0.09-0.009-0.164-0.015-0.221
		c-0.006-0.059-0.023-0.139-0.051-0.238c-0.029-0.103-0.053-0.211-0.075-0.326c-0.022-0.113-0.046-0.218-0.072-0.309
		c-0.025-0.094-0.052-0.191-0.081-0.292c-0.028-0.102-0.055-0.198-0.081-0.291c-0.026-0.093-0.051-0.185-0.077-0.278
		c-0.026-0.092-0.052-0.185-0.077-0.276c-0.026-0.093-0.047-0.167-0.062-0.223c-0.016-0.055-0.036-0.128-0.062-0.221
		s-0.046-0.167-0.062-0.224s-0.039-0.141-0.07-0.251c-0.031-0.11-0.06-0.216-0.089-0.318c-0.028-0.101-0.05-0.181-0.066-0.237
		c-0.016-0.057-0.041-0.109-0.075-0.16c-0.035-0.049-0.074-0.119-0.119-0.205c-0.045-0.088-0.08-0.157-0.104-0.209
		c-0.025-0.053-0.06-0.123-0.105-0.211c-0.045-0.086-0.089-0.178-0.134-0.275c-0.045-0.098-0.095-0.188-0.149-0.271
		c-0.054-0.086-0.094-0.154-0.119-0.207c-0.024-0.051-0.054-0.104-0.089-0.155c-0.035-0.052-0.083-0.123-0.148-0.216
		c-0.064-0.09-0.123-0.178-0.177-0.264c-0.054-0.084-0.112-0.162-0.174-0.236c-0.061-0.072-0.122-0.15-0.183-0.232
		c-0.062-0.083-0.123-0.16-0.185-0.234c-0.062-0.072-0.134-0.147-0.215-0.224c-0.083-0.077-0.158-0.149-0.227-0.22
		c-0.067-0.069-0.124-0.129-0.167-0.178c-0.045-0.049-0.103-0.112-0.173-0.192s-0.142-0.153-0.212-0.224
		c-0.07-0.068-0.136-0.139-0.197-0.211c-0.061-0.074-0.119-0.139-0.173-0.194c-0.054-0.057-0.109-0.111-0.164-0.164
		c-0.057-0.054-0.111-0.106-0.164-0.161c-0.055-0.054-0.113-0.107-0.179-0.16s-0.139-0.117-0.219-0.195
		c-0.082-0.077-0.162-0.154-0.245-0.23c-0.083-0.077-0.165-0.158-0.248-0.244c-0.083-0.087-0.16-0.165-0.231-0.234
		c-0.07-0.071-0.134-0.139-0.19-0.203c-0.057-0.065-0.112-0.121-0.165-0.164c-0.053-0.045-0.105-0.086-0.156-0.121
		s-0.102-0.076-0.153-0.121c-0.051-0.045-0.108-0.089-0.17-0.131c-0.063-0.042-0.126-0.089-0.19-0.142
		c-0.063-0.054-0.129-0.11-0.197-0.17c-0.067-0.06-0.132-0.125-0.193-0.199c-0.061-0.073-0.121-0.146-0.18-0.22
		c-0.059-0.074-0.118-0.142-0.176-0.204c-0.058-0.062-0.116-0.126-0.172-0.191s-0.109-0.129-0.159-0.197
		c-0.049-0.067-0.101-0.127-0.157-0.181c-0.056-0.053-0.112-0.112-0.168-0.177c-0.057-0.065-0.108-0.13-0.158-0.195
		c-0.049-0.065-0.103-0.129-0.162-0.194c-0.058-0.064-0.12-0.142-0.184-0.233c-0.063-0.091-0.127-0.178-0.191-0.26
		c-0.064-0.083-0.123-0.166-0.177-0.25c-0.055-0.084-0.104-0.167-0.145-0.245c-0.042-0.078-0.089-0.16-0.142-0.245
		c-0.052-0.086-0.106-0.175-0.163-0.268c-0.057-0.094-0.118-0.187-0.186-0.28c-0.066-0.091-0.13-0.18-0.191-0.263
		c-0.062-0.082-0.109-0.147-0.144-0.198c-0.034-0.05-0.068-0.1-0.103-0.15c-0.034-0.049-0.083-0.115-0.147-0.197
		S44.942,75.5,44.9,75.413c-0.043-0.088-0.09-0.17-0.141-0.245c-0.052-0.076-0.093-0.149-0.123-0.219
		c-0.03-0.071-0.064-0.141-0.104-0.21c-0.041-0.069-0.074-0.135-0.101-0.196c-0.027-0.062-0.054-0.12-0.079-0.174
		c-0.025-0.054-0.05-0.106-0.075-0.16c-0.025-0.052-0.053-0.104-0.085-0.155c-0.032-0.05-0.068-0.11-0.108-0.179
		c-0.04-0.07-0.083-0.128-0.125-0.175c-0.044-0.048-0.1-0.087-0.167-0.118c-0.068-0.031-0.13-0.039-0.188-0.022
		c-0.057,0.015-0.115,0.041-0.173,0.077c-0.059,0.035-0.11,0.104-0.153,0.207c-0.043,0.102-0.083,0.214-0.118,0.335
		c-0.035,0.121-0.059,0.213-0.073,0.276c-0.013,0.063-0.023,0.131-0.031,0.202c-0.009,0.071-0.023,0.145-0.042,0.221
		c-0.02,0.078-0.034,0.156-0.042,0.238c-0.008,0.08-0.021,0.158-0.038,0.234c-0.017,0.076-0.03,0.153-0.038,0.235
		c-0.008,0.081-0.016,0.163-0.023,0.246c-0.007,0.082-0.02,0.165-0.035,0.248c-0.015,0.083-0.024,0.17-0.03,0.261
		c-0.005,0.092-0.007,0.192-0.008,0.302c0,0.108-0.001,0.214-0.004,0.313c-0.003,0.101-0.005,0.216-0.007,0.347s0,0.261,0.005,0.39
		c0.006,0.129,0.017,0.261,0.034,0.396c0.017,0.135,0.032,0.276,0.045,0.422c0.012,0.146,0.024,0.292,0.034,0.439
		c0.01,0.147,0.027,0.301,0.052,0.463s0.045,0.325,0.06,0.489c0.015,0.165,0.035,0.329,0.06,0.492
		c0.026,0.164,0.052,0.326,0.079,0.487c0.026,0.162,0.053,0.324,0.078,0.488c0.025,0.162,0.055,0.324,0.089,0.484
		c0.034,0.158,0.067,0.313,0.098,0.463c0.032,0.15,0.063,0.297,0.092,0.438c0.029,0.141,0.063,0.28,0.102,0.42
		c0.038,0.14,0.076,0.272,0.112,0.403c0.036,0.13,0.073,0.26,0.109,0.39c0.036,0.13,0.067,0.241,0.093,0.333
		c0.025,0.093,0.052,0.189,0.082,0.291c0.028,0.102,0.054,0.193,0.077,0.277s0.044,0.158,0.062,0.225
		c0.019,0.064,0.036,0.126,0.051,0.182l0.023,0.082"/>
	
		<path id="STROKE_131753C0.-0956.-43E2.-A26E.-C62C4E2854DA" fill="none" stroke="#000000" stroke-width="1.72" stroke-linecap="round" stroke-linejoin="round" d="
		M102.69,47.308c-0.035-0.128-0.061-0.221-0.076-0.277c-0.016-0.059-0.031-0.114-0.047-0.169s-0.031-0.11-0.047-0.165
		c-0.014-0.055-0.031-0.115-0.049-0.179c-0.019-0.064-0.031-0.145-0.037-0.243c-0.008-0.097-0.006-0.198,0.004-0.3
		c0.011-0.103,0.021-0.206,0.033-0.308c0.012-0.103,0.02-0.206,0.021-0.308c0.002-0.103,0.006-0.199,0.012-0.288
		c0.006-0.09,0.014-0.167,0.024-0.231c0.01-0.064,0.016-0.131,0.017-0.2c0.001-0.07,0.006-0.146,0.014-0.229
		c0.008-0.082,0.013-0.154,0.017-0.214c0.003-0.061,0.011-0.123,0.021-0.185c0.012-0.063,0.027-0.131,0.047-0.206
		c0.021-0.075,0.039-0.154,0.056-0.24c0.019-0.085,0.04-0.166,0.066-0.243c0.027-0.076,0.048-0.163,0.063-0.256
		c0.014-0.094,0.033-0.185,0.058-0.272s0.048-0.168,0.067-0.243c0.02-0.074,0.041-0.145,0.064-0.21
		c0.021-0.066,0.037-0.136,0.045-0.209c0.008-0.073,0.022-0.142,0.045-0.208c0.023-0.066,0.048-0.139,0.074-0.217
		c0.026-0.077,0.051-0.155,0.07-0.229c0.02-0.075,0.048-0.158,0.084-0.248c0.036-0.091,0.068-0.174,0.095-0.251
		c0.027-0.077,0.06-0.16,0.095-0.251c0.037-0.09,0.068-0.174,0.096-0.251c0.027-0.076,0.056-0.153,0.085-0.23
		c0.03-0.078,0.063-0.157,0.099-0.238c0.036-0.082,0.074-0.157,0.113-0.227c0.039-0.07,0.08-0.142,0.121-0.212
		c0.042-0.071,0.078-0.136,0.111-0.195c0.031-0.059,0.064-0.118,0.1-0.177c0.034-0.061,0.071-0.125,0.111-0.195
		c0.039-0.07,0.074-0.141,0.105-0.211s0.066-0.129,0.104-0.178c0.037-0.049,0.074-0.098,0.109-0.147
		c0.033-0.05,0.075-0.043,0.124,0.021c0.05,0.065,0.083,0.131,0.101,0.197c0.019,0.066,0.039,0.14,0.063,0.224
		c0.023,0.083,0.037,0.169,0.041,0.256s0.004,0.162,0.001,0.224c-0.003,0.063-0.006,0.143-0.009,0.244
		c-0.003,0.1-0.003,0.205-0.001,0.313c0.002,0.109,0.007,0.213,0.014,0.31c0.007,0.098,0.013,0.176,0.02,0.234
		c0.006,0.057,0.012,0.115,0.018,0.173c0.005,0.058,0.011,0.116,0.017,0.173c0.007,0.058,0.021,0.144,0.043,0.259
		c0.021,0.115,0.034,0.201,0.041,0.259c0.006,0.058,0.018,0.139,0.037,0.243c0.019,0.104,0.032,0.185,0.041,0.244
		c0.008,0.059,0.021,0.136,0.037,0.231c0.017,0.095,0.032,0.19,0.049,0.286c0.017,0.095,0.029,0.18,0.041,0.256
		c0.01,0.075,0.027,0.155,0.052,0.238c0.022,0.084,0.04,0.169,0.055,0.255c0.015,0.086,0.034,0.176,0.06,0.268
		c0.025,0.093,0.052,0.186,0.078,0.278c0.025,0.093,0.051,0.185,0.076,0.277c0.026,0.093,0.053,0.186,0.078,0.278
		c0.025,0.093,0.051,0.185,0.077,0.278c0.026,0.092,0.05,0.18,0.074,0.264c0.022,0.083,0.046,0.167,0.069,0.251
		c0.023,0.083,0.048,0.171,0.073,0.264c0.026,0.092,0.049,0.175,0.069,0.248c0.021,0.073,0.041,0.146,0.062,0.221
		s0.04,0.144,0.058,0.208c0.019,0.064,0.037,0.128,0.055,0.194c0.02,0.066,0.036,0.126,0.051,0.182
		c0.016,0.055,0.031,0.11,0.047,0.165c0.014,0.056,0.031,0.115,0.049,0.179s0.042,0.132,0.072,0.204
		c0.03,0.072,0.061,0.144,0.092,0.216c0.029,0.073,0.063,0.153,0.099,0.243c0.034,0.089,0.068,0.176,0.102,0.255
		c0.032,0.082,0.062,0.158,0.091,0.229c0.026,0.071,0.056,0.143,0.086,0.215s0.055,0.14,0.072,0.204s0.039,0.122,0.064,0.175
		c0.024,0.052,0.055,0.105,0.088,0.156c0.035,0.052,0.078,0.11,0.127,0.175c0.049,0.064,0.096,0.127,0.143,0.185
		c0.047,0.058,0.092,0.114,0.137,0.171c0.043,0.056,0.091,0.118,0.14,0.185c0.05,0.067,0.097,0.128,0.144,0.184
		s0.091,0.113,0.136,0.169c0.044,0.058,0.087,0.11,0.132,0.159s0.094,0.096,0.146,0.141c0.053,0.045,0.107,0.094,0.16,0.148
		s0.102,0.105,0.146,0.154s0.084,0.103,0.121,0.162s0.074,0.117,0.111,0.176c0.037,0.06,0.075,0.123,0.115,0.192
		c0.04,0.07,0.08,0.144,0.119,0.223c0.04,0.079,0.085,0.151,0.133,0.215c0.049,0.065,0.095,0.138,0.137,0.215
		c0.043,0.078,0.081,0.142,0.115,0.192c0.034,0.05,0.064,0.103,0.09,0.157c0.025,0.054,0.065,0.128,0.119,0.222
		c0.055,0.094,0.094,0.167,0.119,0.22s0.057,0.108,0.093,0.167c0.036,0.059,0.069,0.12,0.097,0.183
		c0.027,0.063,0.057,0.13,0.088,0.203c0.029,0.072,0.06,0.143,0.09,0.213c0.029,0.071,0.061,0.146,0.094,0.227
		c0.033,0.081,0.066,0.167,0.102,0.256c0.035,0.09,0.067,0.186,0.096,0.287c0.027,0.102,0.057,0.203,0.084,0.305l0.043,0.152"/>
</g>
</svg>
