<?xml version="1.0" encoding="utf-8"?>
<!-- Generator: Adobe Illustrator 16.0.0, SVG Export Plug-In . SVG Version: 6.00 Build 0)  -->
<!DOCTYPE svg PUBLIC "-//W3C//DTD SVG 1.1//EN" "http://www.w3.org/Graphics/SVG/1.1/DTD/svg11.dtd">
<svg version="1.1" id="Layer_1" xmlns="http://www.w3.org/2000/svg" xmlns:xlink="http://www.w3.org/1999/xlink" x="0px" y="0px"
     width="160px" height="160px" viewBox="0 0 160 160" enable-background="new 0 0 160 160" xml:space="preserve">
    <desc>Created with Sketch.</desc>
   
    <g id="Page-1" stroke="none" stroke-width="1" fill="none" fill-rule="evenodd">
        <g id="120px-Klutzy_crab" transform="translate(0.000000, -81.000000)" fill="#FE3333" fill-rule="nonzero">
            <g id="layer106" transform="translate(0.000000, 3.000000)">
                <g id="Group" transform="translate(25.910363, 164.700571) rotate(-46.000000) translate(-25.910363, -164.700571) translate(11.910363, 142.200571)">
                    <path d="M22.3808747,44.2229797 C20.9353536,43.9315787 19.6610127,43.0573755 17.5688111,40.9398611 C15.7048497,39.0360408 15.5336695,38.7834933 14.9630691,37.2876345 C14.3734486,35.7140687 14.2022685,34.6455982 14.5065887,34.4513308 C14.5826688,34.4124773 15.2483693,34.3153437 15.9901499,34.2376367 L17.3405709,34.1016495 L17.8541113,35.1701201 C18.5198118,36.5688452 19.8512128,37.9092901 23.0085352,40.3959125 C25.1387768,42.0471851 25.5762372,42.4745734 25.5762372,42.9019616 C25.5762372,43.1739359 25.424077,43.5430439 25.2528969,43.6984578 C24.9485767,43.9704321 23.5601156,44.4755273 23.2938354,44.4172471 C23.2367754,44.3978204 22.8373551,44.3201134 22.3808747,44.2229797 Z" id="Shape"></path>
                    <path d="M12.3626254,33.5100361 C11.7481932,33.3113217 10.768942,32.2780068 10.768942,31.8607066 C10.768942,31.7216065 10.980153,31.2645633 11.2105651,30.8273916 C11.5369822,30.2511199 11.7673942,30.0524055 12.0362083,30.1120198 C12.3818264,30.1716341 16.0300173,30.1517627 18.1421278,30.0722769 C18.94857,30.032534 19.1213791,30.1120198 19.4669972,30.5690629 C19.8318163,31.0857204 19.8318163,31.1055918 19.4861982,31.8607066 C18.890967,33.0927359 17.7197057,33.5696505 15.1083691,33.6491362 C13.9371078,33.6690077 12.7082435,33.6093933 12.3626254,33.5100361 Z" id="Shape"></path>
                    <path d="M11.2799067,29.2840311 C5.2370088,27.6657031 1.52712841,23.215301 0.284127256,16.0484197 C-0.327811776,12.4842448 0.054650119,9.22832297 1.37414366,6.68523605 C2.11994435,5.24030031 4.41471572,2.87060568 6.00193259,1.94584681 C7.57002636,1.00182212 10.113398,0 10.9165679,0 C12.2551846,0 12.2169384,0.385316199 10.7635832,2.35042881 C7.68476492,6.49257795 5.92544021,9.30538621 5.92544021,10.0567528 C5.92544021,10.6154613 7.57002636,11.2704988 10.2281365,11.8099415 C12.0639536,12.1759919 12.5229079,12.3301184 12.5229079,12.5805739 C12.5229079,12.7539662 11.7197379,13.9484464 10.7444601,15.2199899 C9.61619749,16.6841914 8.98513537,17.6474819 9.06162775,17.84014 C9.2146125,18.2254562 10.2855058,18.649304 12.1213229,19.053886 C12.9627391,19.2465441 13.6894167,19.4969997 13.7276629,19.6125945 C13.7659091,19.7281894 13.4408164,20.7492773 13.0201084,21.8666943 C12.5802772,22.9841113 12.2360615,23.9859334 12.2360615,24.0822624 C12.2360615,24.5061103 13.0392315,24.2171231 14.0910017,23.4272249 C15.6973416,22.1942131 19.1203756,18.6300382 19.1203756,18.1676588 C19.1203756,17.7630768 18.393698,16.6649256 17.2654354,15.3355847 C16.9212197,14.9117369 16.6343733,14.4686233 16.6343733,14.3337626 C16.6343733,14.1989019 17.4184202,13.6787251 18.3745749,13.1585482 C19.3307296,12.6576371 20.2868844,12.0411312 20.4781153,11.7906757 C20.8797003,11.2704988 20.8605772,11.1934356 19.7514377,8.82374096 C18.9482677,7.08981806 19.005637,6.62743862 19.9426687,6.82009672 C22.2565631,7.28247616 24.8955502,9.45951269 26.1576745,11.9255364 C27.1329523,13.7943199 27.4962911,15.0465976 27.7448913,17.339229 C28.0699839,20.3446953 27.3433063,22.7914532 25.4309969,25.1226162 C22.9449945,28.1473483 19.9809148,29.4574234 15.2957566,29.5922841 C13.15397,29.6500815 12.4655386,29.6115499 11.2799067,29.2840311 Z" id="Shape"></path>
                </g>
            </g>
        </g>
        <path d="M116.979764,95.2753275 C117.863705,93.1377714 118.567707,90.9069022 119.072887,88.6016019 C119.298724,88.5036353 119.522562,88.4391937 119.7361,88.4161523 C120.447037,88.3428017 120.501133,88.4142773 120.929872,90.5287384 C121.178414,91.710688 121.665094,93.3953577 121.986593,94.2252252 C122.577033,95.6129779 122.567987,95.77463 121.970442,96.3305468 C121.066233,97.1756941 119.806646,97.5368223 119.091277,97.1703047 C118.756886,97.0033563 118.328551,96.8714194 118.10986,96.886277 C117.930249,96.894901 117.520006,96.4396597 117.251065,95.8817746 C117.15171,95.6869148 117.061142,95.4839041 116.979764,95.2753275 Z M122.961162,92.9247694 C122.374388,90.2073415 122.878987,87.1008196 124.332754,84.7907156 C125.832966,82.4142805 127.789796,80.5552775 130.249688,79.1473755 C135.676932,76.0278807 142.330293,75.4144677 147.870104,77.5141356 C150.144974,78.3820965 152.794081,80.0722672 152.917552,80.7847897 C153.021528,81.3848087 152.426718,82.1875026 151.895749,82.2440759 C151.664477,82.2468923 149.809719,81.5742436 147.772619,80.7409675 C145.735519,79.9076913 144.037108,79.2456654 143.977665,79.2369942 C143.902741,79.2504334 143.611258,81.0233901 143.272374,83.1915175 C142.933489,85.3596449 142.542617,87.2277628 142.390284,87.351754 C142.231451,87.438244 141.564587,87.2678586 140.90919,86.9407488 C140.291256,86.6069194 139.068385,86.014263 138.228163,85.6236385 L136.717062,84.9280146 L136.269616,85.8009428 C136.010438,86.3114335 135.777254,86.9719289 135.694875,87.2767064 C135.579047,87.7228175 135.684935,87.6651575 136.118427,87.0460664 C137.053838,85.7569438 137.447955,85.8022514 140.403259,87.4761663 C141.880911,88.3131238 143.116779,88.9807826 143.176221,88.9894538 C143.229165,88.9606238 143.714457,87.1915702 144.231669,85.0494564 C144.764363,82.8852321 145.311582,81.027737 145.485896,80.9191366 C145.622748,80.8172558 147.163284,81.2369322 148.892659,81.8547373 C150.622034,82.4725424 152.197547,82.982612 152.375875,83.0086255 C152.607147,83.0058091 153.062047,81.8415426 153.811487,79.3677728 C154.447584,77.2430013 155.046791,75.6855157 155.234102,75.6519177 C156.545279,75.4167315 156.241364,81.4646017 154.740383,85.6198483 C153.794648,88.1868277 151.056843,92.003255 148.824781,93.8342929 C146.440386,95.7893219 142.235825,98.0515012 139.749367,98.7488322 C134.58914,100.177092 130.42415,99.4354952 125.407665,96.1206204 L123.38299,94.8017803 L122.961162,92.9247694 Z" id="Combined-Shape" fill="#FE3333" fill-rule="nonzero"></path>
    </g>
</svg>