<?xml version="1.0" encoding="UTF-8" standalone="no"?>
<!DOCTYPE svg PUBLIC "-//W3C//DTD SVG 1.1//EN" "http://www.w3.org/Graphics/SVG/1.1/DTD/svg11.dtd">
<svg width="100%" height="100%" viewBox="0 0 160 160" version="1.1" xmlns="http://www.w3.org/2000/svg" xmlns:xlink="http://www.w3.org/1999/xlink" xml:space="preserve" style="fill-rule:evenodd;clip-rule:evenodd;stroke-linecap:round;stroke-linejoin:round;">
    <g id="accessory">
        <g id="hungry">
           <path d="M38.87,77.239 C38.964,77.301 39.039,77.351 39.095,77.389 C39.152,77.426 39.203,77.46 39.25,77.492 C39.297,77.523 39.346,77.562 39.396,77.609 C39.446,77.657 39.501,77.707 39.561,77.76 C39.62,77.813 39.67,77.863 39.71,77.908 C39.75,77.953 39.795,78.001 39.844,78.053 C39.894,78.105 39.943,78.16 39.992,78.216 C40.041,78.273 40.094,78.336 40.152,78.405 C40.21,78.474 40.268,78.542 40.326,78.61 C40.383,78.677 40.446,78.749 40.514,78.823 C40.581,78.898 40.645,78.972 40.706,79.045 C40.768,79.118 40.832,79.192 40.9,79.267 C40.967,79.342 41.032,79.416 41.095,79.489 C41.157,79.562 41.216,79.638 41.271,79.716 C41.327,79.794 41.383,79.87 41.44,79.944 C41.497,80.017 41.553,80.085 41.606,80.147 C41.66,80.21 41.71,80.272 41.759,80.333 C41.807,80.395 41.853,80.452 41.897,80.503 C41.942,80.554 41.989,80.604 42.039,80.651 C42.089,80.698 42.142,80.743 42.198,80.785 C42.254,80.827 42.308,80.869 42.358,80.912 C42.409,80.954 42.463,80.992 42.52,81.024 C42.577,81.057 42.634,81.089 42.691,81.122 C42.748,81.154 42.803,81.184 42.856,81.21 C42.909,81.236 42.97,81.274 43.039,81.323 C43.109,81.373 43.173,81.425 43.233,81.478 C43.292,81.531 43.347,81.586 43.396,81.643 C43.444,81.7 43.493,81.759 43.541,81.821 C43.59,81.883 43.636,81.942 43.68,81.998 C43.723,82.054 43.763,82.105 43.797,82.15 C43.832,82.195 43.87,82.241 43.911,82.286 C43.952,82.331 43.99,82.376 44.025,82.422 C44.06,82.467 44.091,82.517 44.12,82.571 C44.148,82.625 44.174,82.679 44.199,82.733 C44.223,82.787 44.239,82.842 44.247,82.899 C44.254,82.955 44.256,83.014 44.254,83.075 C44.252,83.137 44.249,83.197 44.247,83.257 C44.244,83.318 44.241,83.391 44.235,83.476 C44.23,83.561 44.228,83.635 44.231,83.697 C44.234,83.758 44.235,83.832 44.235,83.918 C44.235,84.004 44.235,84.083 44.237,84.154 C44.238,84.225 44.237,84.294 44.232,84.36 C44.228,84.426 44.221,84.494 44.213,84.564 L44.07,85.71 C44.062,85.776 44.05,85.835 44.034,85.889 C44.018,85.943 43.999,86.001 43.975,86.065 C43.951,86.128 43.923,86.191 43.889,86.252 C43.855,86.313 43.83,86.373 43.814,86.433 C43.797,86.492 43.78,86.554 43.762,86.617 C43.743,86.68 43.72,86.745 43.69,86.813 C43.661,86.88 43.628,86.945 43.59,87.006 C43.552,87.068 43.52,87.125 43.492,87.178 C43.465,87.23 43.434,87.279 43.398,87.326 C43.362,87.372 43.323,87.418 43.281,87.463 C43.239,87.509 43.195,87.552 43.15,87.592 C43.105,87.632 43.062,87.673 43.022,87.714 C42.981,87.754 42.938,87.797 42.89,87.842 C42.843,87.887 42.795,87.924 42.746,87.953 C42.697,87.982 42.645,88.008 42.592,88.032 C42.538,88.055 42.486,88.082 42.437,88.112 C42.388,88.142 42.338,88.174 42.288,88.209 C42.238,88.244 42.191,88.279 42.146,88.313 C42.102,88.348 42.056,88.382 42.01,88.418 C41.964,88.453 41.919,88.488 41.874,88.522 C41.829,88.557 41.781,88.583 41.727,88.602 C41.674,88.621 41.621,88.645 41.566,88.674 C41.512,88.704 41.455,88.727 41.397,88.746 C41.339,88.764 41.276,88.781 41.207,88.798 C41.139,88.815 41.07,88.837 41,88.863 C40.93,88.889 40.867,88.909 40.809,88.923 C40.751,88.936 40.694,88.947 40.637,88.955 C40.58,88.964 40.516,88.973 40.444,88.984 C40.372,88.995 40.309,88.999 40.253,88.998 C40.197,88.997 40.136,88.992 40.071,88.984 L39.071,88.86 C38.99,88.85 38.917,88.843 38.851,88.84 C38.785,88.836 38.722,88.833 38.661,88.83 C38.6,88.828 38.543,88.836 38.49,88.855 C38.437,88.873 38.38,88.882 38.321,88.879 L38.232,88.875" id="STROKE_61CC324C.-8237.-4605.-B0C4.-B7C90F5C1AE1"></path>
            <path d="M28.971,97.532 C29.103,97.539 29.196,97.533 29.249,97.514 C29.302,97.495 29.357,97.479 29.414,97.466 C29.472,97.453 29.53,97.437 29.588,97.419 C29.647,97.401 29.705,97.383 29.763,97.365 C29.821,97.346 29.882,97.326 29.946,97.304 C30.01,97.282 30.074,97.259 30.138,97.237 C30.202,97.215 30.264,97.189 30.323,97.161 C30.383,97.132 30.44,97.103 30.494,97.075 C30.549,97.047 30.606,97.018 30.665,96.991 C30.724,96.963 30.784,96.937 30.842,96.913 C30.901,96.889 30.956,96.863 31.005,96.834 C31.054,96.805 31.103,96.773 31.153,96.738 C31.203,96.703 31.251,96.663 31.297,96.618 C31.343,96.573 31.389,96.531 31.436,96.492 C31.482,96.453 31.532,96.424 31.586,96.404 C31.639,96.384 31.693,96.356 31.749,96.318 C31.804,96.28 31.857,96.245 31.906,96.215 C31.955,96.185 32.007,96.156 32.061,96.128 C32.115,96.1 32.169,96.076 32.222,96.057 C32.275,96.039 32.33,96.025 32.388,96.017 C32.445,96.008 32.504,96 32.566,95.993 C32.628,95.986 32.69,95.981 32.751,95.978 C32.813,95.975 32.879,95.978 32.948,95.987 L33.369,96.039 C33.439,96.048 33.507,96.059 33.572,96.072 C33.636,96.085 33.698,96.103 33.756,96.125 C33.815,96.149 33.872,96.171 33.93,96.194 C33.987,96.217 34.044,96.239 34.103,96.261 C34.161,96.283 34.217,96.305 34.27,96.327 C34.323,96.35 34.379,96.372 34.438,96.394 C34.496,96.415 34.552,96.435 34.606,96.453 C34.66,96.47 34.716,96.487 34.775,96.505 C34.834,96.522 34.89,96.541 34.944,96.564 C34.997,96.586 35.05,96.611 35.102,96.638 C35.155,96.665 35.208,96.691 35.26,96.717 C35.313,96.743 35.368,96.77 35.426,96.798 C35.484,96.826 35.541,96.856 35.598,96.888 C35.655,96.921 35.71,96.953 35.762,96.985 C35.814,97.017 35.866,97.048 35.918,97.08 C35.97,97.112 36.019,97.144 36.066,97.175 C36.113,97.206 36.168,97.238 36.23,97.271 C36.292,97.305 36.357,97.336 36.423,97.365 C36.49,97.393 36.558,97.42 36.626,97.444 C36.695,97.468 36.756,97.491 36.809,97.512 C36.862,97.533 36.918,97.556 36.977,97.579 C37.035,97.601 37.096,97.625 37.159,97.648 C37.223,97.672 37.284,97.692 37.343,97.709 C37.402,97.726 37.459,97.743 37.513,97.76 C37.566,97.776 37.624,97.798 37.686,97.826 C37.747,97.855 37.805,97.88 37.858,97.902 C37.911,97.924 37.967,97.949 38.024,97.977 C38.082,98.005 38.145,98.033 38.213,98.061 C38.281,98.089 38.352,98.118 38.425,98.147 C38.498,98.177 38.568,98.206 38.635,98.235 C38.701,98.264 38.764,98.292 38.821,98.32 C38.879,98.347 38.935,98.372 38.988,98.393 C39.041,98.414 39.097,98.437 39.155,98.459 C39.214,98.482 39.274,98.508 39.337,98.536 C39.4,98.565 39.465,98.593 39.533,98.622 C39.601,98.651 39.671,98.683 39.742,98.717 C39.813,98.751 39.876,98.779 39.929,98.8 C39.982,98.822 40.048,98.847 40.126,98.878 C40.204,98.908 40.279,98.94 40.351,98.974 C40.422,99.009 40.491,99.043 40.558,99.076 C40.626,99.11 40.69,99.146 40.752,99.184 C40.814,99.222 40.878,99.261 40.945,99.301 C41.011,99.34 41.077,99.381 41.142,99.425 C41.207,99.468 41.275,99.507 41.348,99.541 C41.42,99.576 41.483,99.609 41.535,99.641 C41.587,99.672 41.639,99.702 41.692,99.729 C41.744,99.756 41.794,99.785 41.841,99.816 L42.122,100.004 C42.169,100.035 42.228,100.073 42.299,100.117 C42.371,100.161 42.442,100.2 42.513,100.234 C42.584,100.268 42.654,100.302 42.721,100.336 C42.789,100.37 42.856,100.401 42.924,100.43 C42.992,100.459 43.059,100.491 43.125,100.524 C43.191,100.558 43.258,100.592 43.325,100.625 C43.393,100.659 43.461,100.688 43.529,100.712 C43.598,100.736 43.671,100.763 43.748,100.792 C43.825,100.821 43.89,100.844 43.944,100.862 C43.998,100.879 44.054,100.897 44.113,100.914 C44.173,100.931 44.234,100.951 44.297,100.975 C44.361,100.998 44.424,101.019 44.489,101.037 C44.553,101.055 44.614,101.073 44.673,101.09 C44.732,101.108 44.791,101.128 44.849,101.15 C44.908,101.173 44.973,101.198 45.045,101.228 C45.117,101.257 45.184,101.286 45.247,101.314 C45.31,101.343 45.368,101.368 45.421,101.39 C45.474,101.412 45.533,101.432 45.597,101.45 C45.661,101.468 45.733,101.482 45.812,101.492 L47.902,101.752 C47.963,101.76 48.025,101.763 48.091,101.761 C48.156,101.76 48.219,101.757 48.281,101.754 C48.342,101.751 48.407,101.749 48.473,101.747 C48.54,101.746 48.603,101.749 48.663,101.756 C48.724,101.764 48.792,101.77 48.868,101.775 C48.944,101.779 49.02,101.786 49.094,101.795 C49.168,101.805 49.236,101.813 49.296,101.821 C49.356,101.828 49.417,101.833 49.478,101.834 C49.539,101.836 49.607,101.837 49.684,101.837 C49.761,101.837 49.828,101.835 49.884,101.831 C49.941,101.827 49.999,101.827 50.058,101.829 C50.118,101.832 50.18,101.835 50.247,101.838 C50.313,101.841 50.379,101.842 50.445,101.841 C50.512,101.839 50.578,101.84 50.644,101.842 C50.71,101.845 50.784,101.846 50.864,101.846 C50.945,101.847 51.021,101.849 51.092,101.853 C51.163,101.857 51.232,101.855 51.3,101.848 C51.367,101.84 51.432,101.828 51.496,101.811 C51.559,101.793 51.625,101.774 51.695,101.752 C51.764,101.73 51.831,101.716 51.897,101.708 C51.963,101.701 52.032,101.697 52.103,101.696 C52.175,101.695 52.249,101.7 52.324,101.709 C52.4,101.719 52.469,101.722 52.53,101.72 L52.622,101.717" id="STROKE_76E2E787.-208D.-452A.-B9D3.-3D924F0AFD29"></path>
            <path d="M44.188,84.759 C44.308,84.783 44.385,84.818 44.422,84.864 C44.458,84.909 44.495,84.957 44.534,85.007 C44.574,85.057 44.611,85.107 44.645,85.157 C44.679,85.207 44.718,85.258 44.762,85.309 C44.807,85.361 44.856,85.415 44.91,85.473 C44.964,85.53 45.023,85.591 45.086,85.654 C45.15,85.718 45.219,85.78 45.292,85.839 C45.365,85.899 45.425,85.945 45.472,85.976 C45.519,86.007 45.565,86.041 45.611,86.078 C45.658,86.115 45.709,86.155 45.765,86.197 C45.821,86.239 45.875,86.276 45.926,86.308 C45.978,86.34 46.032,86.377 46.089,86.419 C46.144,86.461 46.2,86.501 46.257,86.539 C46.313,86.578 46.369,86.618 46.425,86.66 C46.481,86.702 46.538,86.742 46.594,86.779 C46.651,86.817 46.712,86.86 46.777,86.909 C46.843,86.958 46.903,87.004 46.957,87.046 C47.012,87.088 47.07,87.13 47.131,87.174 C47.192,87.218 47.255,87.259 47.322,87.298 C47.389,87.336 47.455,87.377 47.522,87.421 C47.588,87.464 47.65,87.502 47.707,87.534 C47.764,87.567 47.83,87.604 47.906,87.644 C47.982,87.685 48.056,87.722 48.128,87.757 C48.2,87.791 48.27,87.822 48.337,87.85 C48.404,87.878 48.474,87.907 48.547,87.937 C48.62,87.966 48.69,87.998 48.758,88.032 C48.825,88.066 48.89,88.094 48.954,88.118 C49.017,88.141 49.088,88.168 49.165,88.198 C49.242,88.228 49.314,88.257 49.382,88.285 C49.45,88.313 49.521,88.34 49.593,88.364 C49.665,88.389 49.735,88.416 49.803,88.445 C49.871,88.474 49.94,88.5 50.008,88.523 C50.077,88.546 50.141,88.569 50.199,88.592 C50.257,88.615 50.323,88.639 50.395,88.663 C50.468,88.688 50.531,88.711 50.584,88.732 C50.637,88.754 50.693,88.776 50.751,88.799 C50.81,88.821 50.865,88.846 50.918,88.874 C50.97,88.901 51.023,88.925 51.077,88.946 C51.13,88.967 51.198,88.998 51.28,89.039 C51.362,89.079 51.438,89.124 51.507,89.174 C51.576,89.224 51.639,89.27 51.695,89.312 C51.751,89.354 51.804,89.398 51.854,89.446 C51.904,89.493 51.952,89.54 51.997,89.586 C52.042,89.633 52.089,89.682 52.138,89.734 C52.188,89.786 52.232,89.835 52.272,89.88 C52.312,89.925 52.347,89.972 52.378,90.022 L52.423,90.096" id="STROKE_E24B4BEC.-1F90.-47E8.-90B0.-AA4C03F5A4B1"></path>
            <path d="M119.942,83.513 C120.069,83.487 120.164,83.443 120.226,83.382 C120.288,83.321 120.35,83.26 120.413,83.199 C120.475,83.138 120.538,83.074 120.603,83.007 C120.668,82.939 120.732,82.869 120.796,82.795 C120.86,82.721 120.928,82.643 120.999,82.562 C121.071,82.481 121.143,82.397 121.216,82.31 C121.289,82.222 121.361,82.139 121.432,82.059 C121.504,81.979 121.557,81.917 121.591,81.873 C121.624,81.828 121.67,81.768 121.727,81.693 C121.783,81.619 121.833,81.549 121.877,81.486 C121.92,81.423 121.962,81.359 122.004,81.296 C122.045,81.232 122.083,81.175 122.117,81.123 C122.152,81.072 122.187,81.021 122.221,80.97 C122.256,80.919 122.298,80.858 122.347,80.789 C122.396,80.72 122.438,80.657 122.473,80.599 C122.509,80.541 122.547,80.48 122.589,80.417 C122.63,80.353 122.672,80.294 122.714,80.238 C122.756,80.183 122.795,80.129 122.829,80.078 C122.864,80.027 122.901,79.98 122.939,79.937 C122.978,79.894 123.027,79.859 123.085,79.832 C123.143,79.805 123.198,79.781 123.25,79.76 C123.302,79.739 123.36,79.715 123.425,79.689 C123.49,79.662 123.555,79.639 123.619,79.619 C123.683,79.6 123.744,79.579 123.801,79.559 C123.858,79.538 123.919,79.518 123.983,79.498 C124.047,79.478 124.112,79.459 124.178,79.439 C124.244,79.42 124.308,79.404 124.372,79.392 C124.435,79.38 124.494,79.367 124.551,79.353 C124.607,79.339 124.666,79.329 124.729,79.324 C124.791,79.318 124.854,79.312 124.916,79.305 C124.979,79.299 125.039,79.292 125.096,79.286 C125.153,79.28 125.212,79.281 125.273,79.288 C125.333,79.296 125.402,79.298 125.478,79.294 C125.554,79.29 125.623,79.288 125.685,79.288 C125.747,79.288 125.806,79.281 125.862,79.269 C125.918,79.256 125.978,79.246 126.04,79.239 C126.103,79.232 126.162,79.226 126.219,79.22 C126.277,79.214 126.334,79.204 126.39,79.19 C126.446,79.176 126.505,79.169 126.567,79.17 C126.628,79.171 126.693,79.173 126.762,79.175 C126.83,79.177 126.895,79.178 126.957,79.179 C127.018,79.18 127.077,79.184 127.133,79.191 C127.188,79.198 127.244,79.198 127.299,79.19 C127.355,79.182 127.417,79.18 127.485,79.182 C127.554,79.183 127.62,79.178 127.683,79.166 C127.746,79.154 127.806,79.145 127.861,79.137 C127.916,79.129 127.973,79.119 128.031,79.107 C128.089,79.094 128.147,79.081 128.203,79.067 C128.259,79.053 128.316,79.038 128.372,79.024 C128.428,79.01 128.491,79.001 128.561,78.996 C128.63,78.992 128.699,78.99 128.767,78.992 C128.836,78.994 128.898,78.999 128.953,79.006 C129.009,79.013 129.067,79.017 129.129,79.018 C129.19,79.019 129.255,79.02 129.324,79.02 C129.393,79.021 129.461,79.025 129.529,79.034 C129.596,79.042 129.661,79.05 129.722,79.058 C129.782,79.065 129.847,79.067 129.916,79.062 C129.986,79.058 130.055,79.053 130.124,79.049 C130.194,79.044 130.26,79.038 130.322,79.032 C130.385,79.025 130.447,79.022 130.508,79.023 C130.57,79.024 130.632,79.025 130.695,79.026 C130.759,79.028 130.821,79.029 130.883,79.03 C130.944,79.031 131.005,79.036 131.066,79.043 C131.127,79.051 131.191,79.059 131.259,79.067 C131.326,79.076 131.391,79.08 131.453,79.079 C131.514,79.079 131.576,79.083 131.637,79.09 C131.697,79.098 131.759,79.106 131.821,79.113 C131.884,79.121 131.94,79.145 131.989,79.186 C132.039,79.227 132.084,79.274 132.125,79.328 C132.166,79.382 132.213,79.439 132.267,79.5 C132.321,79.561 132.379,79.623 132.44,79.686 C132.501,79.749 132.552,79.807 132.595,79.86 C132.638,79.913 132.683,79.97 132.73,80.032 C132.777,80.093 132.827,80.158 132.88,80.227 C132.933,80.295 132.982,80.367 133.028,80.442 C133.073,80.516 133.122,80.597 133.174,80.686 C133.227,80.774 133.278,80.867 133.328,80.963 C133.377,81.059 133.423,81.158 133.465,81.259 C133.507,81.361 133.542,81.441 133.57,81.498 C133.598,81.556 133.63,81.635 133.665,81.736 C133.7,81.837 133.728,81.913 133.75,81.965 C133.771,82.017 133.8,82.089 133.836,82.182 C133.872,82.275 133.903,82.357 133.927,82.429 C133.952,82.501 133.981,82.57 134.015,82.636 C134.049,82.703 134.082,82.769 134.115,82.835 C134.147,82.901 134.177,82.96 134.206,83.011 C134.235,83.062 134.266,83.114 134.3,83.168 C134.334,83.221 134.365,83.276 134.393,83.334 C134.421,83.392 134.446,83.449 134.467,83.508 C134.488,83.566 134.504,83.627 134.515,83.69 C134.527,83.754 134.539,83.817 134.553,83.881 C134.566,83.945 134.575,84.011 134.581,84.081 C134.586,84.15 134.588,84.215 134.588,84.276 C134.587,84.337 134.587,84.398 134.586,84.46 C134.585,84.522 134.583,84.588 134.58,84.656 C134.577,84.724 134.571,84.789 134.564,84.85 L134.483,85.502 C134.473,85.576 134.461,85.657 134.445,85.743 C134.429,85.83 134.41,85.903 134.388,85.962 C134.367,86.022 134.342,86.081 134.313,86.139 C134.285,86.198 134.26,86.257 134.238,86.316 C134.217,86.376 134.192,86.441 134.163,86.513 C134.135,86.585 134.107,86.65 134.078,86.709 C134.05,86.767 134.022,86.826 133.993,86.884 C133.965,86.943 133.931,87.011 133.894,87.088 C133.856,87.166 133.824,87.23 133.798,87.282 C133.772,87.335 133.734,87.389 133.685,87.445 C133.636,87.501 133.584,87.556 133.53,87.61 C133.475,87.664 133.425,87.709 133.378,87.746 C133.331,87.782 133.281,87.821 133.229,87.862 C133.176,87.903 133.123,87.948 133.069,87.997 C133.016,88.045 132.962,88.087 132.908,88.121 C132.855,88.155 132.795,88.186 132.731,88.212 C132.666,88.238 132.605,88.258 132.549,88.271 C132.492,88.284 132.433,88.293 132.37,88.3 C132.308,88.307 132.246,88.307 132.186,88.299 L130.993,88.15 C130.926,88.142 130.866,88.124 130.815,88.096 C130.764,88.069 130.708,88.048 130.648,88.034 C130.588,88.02 130.531,88.006 130.476,87.993 C130.422,87.979 130.368,87.962 130.316,87.941 C130.264,87.92 130.206,87.895 130.14,87.867 C130.075,87.839 130.021,87.806 129.979,87.766 C129.936,87.726 129.897,87.677 129.863,87.617 C129.828,87.557 129.794,87.498 129.76,87.439 C129.727,87.381 129.692,87.328 129.656,87.281 C129.619,87.235 129.58,87.191 129.537,87.152 C129.494,87.112 129.448,87.072 129.399,87.031 C129.349,86.991 129.3,86.944 129.252,86.89 C129.204,86.837 129.156,86.782 129.106,86.727 C129.057,86.672 129.012,86.615 128.972,86.556 C128.931,86.497 128.897,86.438 128.87,86.379 C128.842,86.32 128.815,86.261 128.788,86.204 C128.762,86.147 128.734,86.092 128.706,86.039 C128.677,85.986 128.645,85.934 128.611,85.883 C128.577,85.831 128.542,85.782 128.505,85.737 C128.469,85.691 128.425,85.651 128.375,85.617 C128.324,85.583 128.274,85.552 128.222,85.525 C128.171,85.497 128.115,85.48 128.055,85.472 C127.994,85.465 127.938,85.471 127.885,85.493 C127.833,85.514 127.785,85.542 127.74,85.578 C127.695,85.613 127.649,85.652 127.601,85.695 C127.554,85.738 127.509,85.787 127.469,85.843 C127.429,85.899 127.391,85.956 127.355,86.013 C127.32,86.071 127.294,86.133 127.279,86.2 C127.264,86.267 127.243,86.33 127.216,86.389 C127.189,86.447 127.166,86.503 127.145,86.556 C127.124,86.609 127.1,86.661 127.073,86.712 C127.045,86.763 127.018,86.814 126.99,86.866 C126.962,86.918 126.936,86.97 126.91,87.022 C126.884,87.075 126.853,87.129 126.818,87.186 C126.783,87.242 126.754,87.3 126.733,87.359 C126.711,87.419 126.684,87.474 126.651,87.526 C126.618,87.577 126.575,87.62 126.521,87.654 C126.468,87.689 126.421,87.731 126.381,87.782 C126.342,87.832 126.301,87.882 126.26,87.931 C126.218,87.98 126.184,88.03 126.156,88.082 C126.129,88.135 126.092,88.178 126.047,88.214 C126.002,88.249 125.958,88.284 125.913,88.32 C125.868,88.355 125.816,88.38 125.758,88.394 C125.7,88.408 125.642,88.425 125.585,88.445 C125.528,88.466 125.47,88.493 125.411,88.527 C125.352,88.561 125.294,88.588 125.237,88.608 C125.18,88.629 125.118,88.649 125.052,88.669 C124.986,88.688 124.918,88.703 124.848,88.714 C124.778,88.726 124.712,88.731 124.651,88.73 C124.589,88.729 124.524,88.728 124.455,88.727 C124.387,88.726 124.312,88.721 124.23,88.711 C124.148,88.701 124.066,88.694 123.984,88.69 C123.902,88.686 123.829,88.687 123.767,88.693 L123.673,88.701" id="STROKE_1D53760D.-2F27.-465A.-BEA1.-61CD6E8C67F4"></path>
            <path d="M134.178,81.164 C134.139,81.048 134.124,80.959 134.131,80.898 C134.139,80.837 134.174,80.8 134.238,80.787 C134.301,80.773 134.367,80.768 134.436,80.77 C134.504,80.772 134.569,80.776 134.629,80.784 L135.504,80.893 C135.579,80.902 135.653,80.915 135.727,80.931 C135.8,80.947 135.875,80.959 135.949,80.968 L136.762,81.07 C136.822,81.077 136.879,81.092 136.933,81.113 C136.987,81.134 137.053,81.163 137.131,81.201 C137.209,81.238 137.273,81.274 137.324,81.308 C137.374,81.342 137.42,81.382 137.462,81.429 C137.504,81.475 137.55,81.518 137.599,81.559 C137.649,81.599 137.699,81.64 137.751,81.681 C137.802,81.721 137.856,81.762 137.912,81.804 C137.969,81.845 138.026,81.884 138.083,81.918 C138.14,81.953 138.197,81.991 138.254,82.033 C138.31,82.074 138.364,82.111 138.415,82.144 C138.465,82.177 138.516,82.21 138.568,82.245 C138.621,82.279 138.671,82.319 138.72,82.366 C138.769,82.413 138.813,82.467 138.853,82.528 C138.893,82.588 138.928,82.644 138.956,82.695 C138.985,82.747 139.016,82.805 139.048,82.871 C139.081,82.937 139.111,83 139.138,83.059 C139.166,83.118 139.196,83.181 139.229,83.247 C139.261,83.313 139.291,83.375 139.319,83.432 C139.347,83.49 139.374,83.555 139.398,83.627 C139.423,83.698 139.442,83.763 139.456,83.82 C139.47,83.878 139.48,83.934 139.487,83.991 C139.495,84.047 139.494,84.112 139.484,84.187 L139.387,84.966 C139.379,85.033 139.367,85.101 139.351,85.167 C139.336,85.234 139.314,85.297 139.286,85.356 C139.257,85.414 139.232,85.476 139.21,85.542 C139.187,85.608 139.162,85.674 139.135,85.739 C139.107,85.804 139.079,85.87 139.05,85.935 C139.02,86 138.995,86.059 138.975,86.112 C138.954,86.165 138.927,86.22 138.893,86.278 C138.859,86.336 138.821,86.397 138.778,86.46 C138.735,86.523 138.689,86.583 138.642,86.639 C138.594,86.695 138.546,86.748 138.498,86.796 C138.45,86.844 138.409,86.89 138.375,86.935 C138.341,86.98 138.3,87.034 138.252,87.096 C138.203,87.159 138.155,87.222 138.107,87.284 C138.059,87.347 138.013,87.41 137.969,87.473 C137.926,87.537 137.884,87.6 137.843,87.664 C137.801,87.727 137.766,87.792 137.737,87.857 C137.707,87.922 137.678,87.987 137.649,88.052 C137.62,88.117 137.59,88.182 137.561,88.247 C137.532,88.312 137.507,88.378 137.486,88.444 C137.466,88.51 137.445,88.573 137.423,88.633 C137.402,88.692 137.384,88.751 137.369,88.81 C137.355,88.869 137.34,88.936 137.323,89.011 C137.307,89.085 137.295,89.153 137.287,89.213 L136.856,92.676 C136.846,92.756 136.833,92.827 136.819,92.887 C136.804,92.948 136.786,93.008 136.765,93.067 C136.743,93.126 136.717,93.195 136.686,93.273 C136.655,93.351 136.629,93.424 136.609,93.49 C136.588,93.556 136.563,93.625 136.533,93.696 C136.503,93.768 136.474,93.83 136.446,93.882 C136.419,93.934 136.394,93.99 136.373,94.049 C136.351,94.109 136.327,94.164 136.301,94.217 C136.275,94.269 136.249,94.321 136.221,94.371 C136.194,94.422 136.166,94.474 136.139,94.525 C136.111,94.578 136.08,94.636 136.046,94.7 C136.011,94.765 135.979,94.829 135.95,94.895 C135.921,94.96 135.888,95.024 135.852,95.089 C135.816,95.153 135.78,95.22 135.744,95.291 C135.709,95.362 135.674,95.426 135.638,95.484 C135.603,95.542 135.561,95.605 135.511,95.674 C135.462,95.744 135.413,95.806 135.364,95.862 C135.315,95.918 135.273,95.971 135.238,96.021 C135.204,96.071 135.163,96.124 135.115,96.18 C135.068,96.236 135.001,96.304 134.916,96.384 C134.83,96.463 134.76,96.527 134.707,96.575 C134.653,96.624 134.599,96.672 134.543,96.72 C134.488,96.767 134.438,96.808 134.393,96.844 C134.348,96.879 134.299,96.918 134.246,96.96 C134.194,97.002 134.143,97.044 134.096,97.086 C134.048,97.128 133.999,97.166 133.947,97.201 C133.895,97.235 133.839,97.266 133.779,97.293 C133.719,97.319 133.657,97.346 133.592,97.372 C133.527,97.399 133.465,97.433 133.405,97.474 C133.345,97.515 133.286,97.556 133.226,97.596 C133.166,97.637 133.106,97.677 133.044,97.719 C132.983,97.76 132.922,97.797 132.864,97.831 C132.805,97.864 132.753,97.899 132.708,97.934 C132.663,97.97 132.615,97.998 132.563,98.019 C132.511,98.04 132.455,98.068 132.396,98.101 C132.337,98.135 132.275,98.169 132.209,98.201 C132.144,98.234 132.078,98.264 132.013,98.29 C131.948,98.316 131.886,98.347 131.827,98.382 C131.768,98.417 131.705,98.45 131.638,98.483 C131.57,98.515 131.511,98.546 131.46,98.574 C131.409,98.602 131.358,98.63 131.307,98.658 C131.255,98.686 131.204,98.714 131.151,98.741 C131.098,98.769 131.043,98.79 130.987,98.802 C130.931,98.815 130.875,98.825 130.82,98.833 C130.764,98.841 130.701,98.85 130.631,98.861 C130.561,98.872 130.491,98.884 130.42,98.896 C130.35,98.909 130.278,98.931 130.206,98.963 C130.133,98.995 130.061,99.02 129.99,99.039 C129.919,99.058 129.847,99.077 129.774,99.095 C129.702,99.114 129.633,99.133 129.569,99.153 C129.505,99.173 129.445,99.189 129.388,99.202 C129.332,99.215 129.266,99.22 129.191,99.217 C129.115,99.214 129.044,99.208 128.976,99.2 C128.908,99.192 128.847,99.191 128.791,99.199 C128.736,99.206 128.679,99.213 128.622,99.219 C128.565,99.225 128.509,99.232 128.453,99.24 C128.397,99.247 128.331,99.256 128.254,99.266 C128.177,99.277 128.103,99.288 128.033,99.3 C127.963,99.313 127.894,99.315 127.826,99.306 C127.758,99.298 127.687,99.292 127.612,99.29 C127.536,99.287 127.461,99.281 127.386,99.271 C127.312,99.262 127.237,99.253 127.162,99.244 C127.088,99.234 127.013,99.228 126.937,99.225 C126.862,99.222 126.787,99.22 126.711,99.217 C126.636,99.214 126.564,99.208 126.497,99.2 L124.534,98.955 C124.473,98.948 124.414,98.93 124.355,98.904 C124.297,98.876 124.243,98.843 124.193,98.802 C124.144,98.761 124.093,98.721 124.042,98.68 C123.991,98.639 123.933,98.604 123.868,98.575 C123.802,98.546 123.738,98.513 123.673,98.477 C123.609,98.442 123.54,98.413 123.467,98.39 C123.394,98.368 123.332,98.343 123.281,98.315 C123.23,98.288 123.175,98.261 123.117,98.234 C123.059,98.206 122.997,98.178 122.932,98.149 C122.867,98.12 122.802,98.087 122.738,98.052 C122.673,98.016 122.612,97.981 122.553,97.947 C122.493,97.913 122.438,97.882 122.387,97.855 C122.336,97.827 122.274,97.799 122.202,97.769 C122.13,97.738 122.061,97.716 121.994,97.701 C121.927,97.686 121.86,97.674 121.792,97.666 C121.724,97.657 121.657,97.646 121.59,97.631 C121.523,97.616 121.46,97.601 121.4,97.587 C121.34,97.573 121.281,97.555 121.222,97.533 C121.163,97.511 121.107,97.487 121.054,97.461 C121,97.434 120.944,97.414 120.884,97.4 C120.824,97.386 120.761,97.371 120.694,97.355 C120.627,97.338 120.56,97.326 120.492,97.318 C120.425,97.309 120.357,97.297 120.291,97.282 C120.224,97.267 120.157,97.249 120.091,97.228 C120.025,97.206 119.962,97.189 119.902,97.175 C119.842,97.161 119.782,97.15 119.721,97.142 L119.086,97.063 C119.011,97.054 118.943,97.048 118.882,97.047 C118.82,97.046 118.755,97.048 118.686,97.052 C118.616,97.057 118.55,97.066 118.486,97.079 C118.423,97.093 118.353,97.104 118.276,97.115 C118.199,97.125 118.132,97.14 118.075,97.161 L117.989,97.192" id="STROKE_C0F919C1.-4FED.-4018.-A415.-3334E73BEB7A"></path>
            <path d="M133.664,79.985 C133.68,79.85 133.69,79.748 133.691,79.679 C133.692,79.611 133.698,79.536 133.709,79.454 L133.858,78.253 C133.867,78.185 133.883,78.115 133.906,78.043 C133.929,77.97 133.948,77.901 133.963,77.834 C133.979,77.767 134.001,77.701 134.031,77.636 C134.06,77.571 134.097,77.514 134.144,77.466 C134.191,77.418 134.231,77.371 134.265,77.326 C134.298,77.282 134.335,77.235 134.375,77.185 C134.414,77.136 134.451,77.089 134.485,77.044 C134.519,77 134.556,76.953 134.598,76.904 C134.639,76.855 134.68,76.805 134.719,76.755 C134.759,76.704 134.803,76.654 134.852,76.604 C134.9,76.555 134.95,76.516 135.001,76.488 C135.052,76.46 135.107,76.433 135.165,76.405 C135.223,76.378 135.278,76.351 135.331,76.323 C135.384,76.295 135.439,76.268 135.497,76.241 C135.555,76.214 135.617,76.184 135.683,76.151 C135.748,76.118 135.807,76.085 135.859,76.05 C135.911,76.015 135.96,75.981 136.007,75.945 C136.054,75.91 136.097,75.868 136.137,75.817 C136.177,75.766 136.215,75.709 136.251,75.645 C136.287,75.581 136.323,75.52 136.358,75.462 C136.394,75.404 136.428,75.343 136.463,75.279 C136.497,75.214 136.529,75.153 136.557,75.094 C136.586,75.035 136.611,74.977 136.632,74.919 C136.653,74.861 136.672,74.794 136.688,74.72 C136.705,74.645 136.721,74.575 136.736,74.508 C136.752,74.441 136.763,74.377 136.771,74.316 C136.778,74.254 136.789,74.187 136.804,74.114 C136.818,74.04 136.829,73.973 136.837,73.912 C136.844,73.85 136.856,73.786 136.871,73.72 C136.887,73.653 136.899,73.586 136.907,73.518 L137.003,72.749 C137.012,72.681 137.023,72.617 137.038,72.557 C137.052,72.496 137.067,72.433 137.082,72.366 C137.098,72.299 137.118,72.219 137.144,72.126 C137.17,72.033 137.19,71.956 137.204,71.895 C137.219,71.835 137.23,71.775 137.238,71.713 L137.344,70.862 C137.353,70.788 137.366,70.713 137.382,70.639 C137.399,70.564 137.411,70.497 137.418,70.437 L137.699,68.182 C137.707,68.121 137.711,68.059 137.712,67.997 C137.712,67.935 137.71,67.873 137.703,67.812 C137.697,67.75 137.69,67.688 137.684,67.625 C137.678,67.562 137.676,67.496 137.677,67.428 C137.679,67.359 137.68,67.294 137.68,67.232 C137.681,67.17 137.672,67.11 137.653,67.052 C137.633,66.994 137.62,66.934 137.614,66.873 C137.608,66.811 137.601,66.752 137.594,66.696 C137.587,66.64 137.576,66.583 137.562,66.525 C137.548,66.468 137.545,66.409 137.552,66.348 L137.564,66.256" id="STROKE_F46BCDBD.-9919.-41C4.-BF71.-1C3016BDF142"></path>
            <path d="M134.962,66.427 C134.977,66.308 134.981,66.278 134.974,66.337 L134.919,66.775 C134.911,66.843 134.898,66.92 134.88,67.006 C134.862,67.092 134.844,67.182 134.825,67.277 C134.806,67.371 134.79,67.476 134.775,67.592 L134.665,68.474 C134.652,68.582 134.635,68.683 134.617,68.777 C134.598,68.871 134.583,68.963 134.572,69.051 C134.561,69.14 134.544,69.217 134.522,69.283 C134.5,69.349 134.474,69.421 134.445,69.5 C134.415,69.578 134.39,69.647 134.369,69.706 C134.347,69.765 134.33,69.763 134.317,69.7 L134.297,69.604" id="STROKE_63D5963B.-FD6B.-4E5A.-B386.-6FA3E4B4B7E5"></path>
            <path d="M132.519,66.476 C132.507,66.35 132.485,66.323 132.455,66.394 C132.425,66.466 132.405,66.543 132.395,66.625 L132.095,69.03 C132.087,69.091 132.076,69.152 132.062,69.212 C132.047,69.273 132.033,69.353 132.021,69.455 C132.008,69.556 131.998,69.641 131.989,69.709 C131.981,69.776 131.969,69.764 131.954,69.673 C131.939,69.581 131.933,69.494 131.936,69.413 L131.941,69.29" id="STROKE_19EF9D4F.-F353.-4545.-8E6C.-B16FCC377FEB"></path>
            <path d="M130.142,65.826 C130.086,65.931 130.051,66.019 130.034,66.093 C130.018,66.166 129.999,66.232 129.978,66.292 C129.956,66.351 129.935,66.42 129.912,66.5 C129.89,66.579 129.87,66.666 129.851,66.76 C129.832,66.854 129.813,66.948 129.794,67.042 C129.776,67.136 129.757,67.231 129.738,67.325 C129.719,67.419 129.7,67.516 129.68,67.617 C129.661,67.717 129.639,67.811 129.614,67.898 C129.589,67.985 129.564,68.071 129.539,68.156 C129.515,68.242 129.492,68.321 129.47,68.393 C129.449,68.466 129.427,68.535 129.404,68.601 C129.382,68.667 129.364,68.73 129.349,68.791 C129.335,68.851 129.317,68.911 129.295,68.97 C129.273,69.03 129.255,69.09 129.241,69.15 C129.226,69.21 129.208,69.273 129.185,69.339 C129.163,69.405 129.143,69.478 129.127,69.558 C129.11,69.638 129.093,69.718 129.078,69.8 C129.063,69.881 129.043,69.961 129.019,70.04 C128.995,70.119 128.975,70.195 128.958,70.269 C128.942,70.342 128.923,70.416 128.899,70.489 C128.876,70.563 128.857,70.633 128.841,70.7 C128.826,70.767 128.808,70.83 128.786,70.888 C128.765,70.946 128.744,71.001 128.723,71.054 C128.703,71.107 128.681,71.17 128.66,71.243 C128.639,71.315 128.62,71.385 128.605,71.452 C128.589,71.519 128.578,71.583 128.57,71.644 C128.563,71.705 128.551,71.772 128.535,71.846 C128.519,71.919 128.502,71.993 128.486,72.068 C128.47,72.142 128.45,72.212 128.428,72.279 C128.406,72.344 128.384,72.406 128.362,72.465 C128.341,72.523 128.323,72.585 128.307,72.652 C128.292,72.719 128.28,72.786 128.272,72.854 L128.172,73.656 C128.164,73.717 128.163,73.783 128.168,73.852 C128.174,73.921 128.198,73.983 128.24,74.037 C128.283,74.092 128.322,74.141 128.357,74.187 C128.391,74.232 128.429,74.281 128.47,74.334 C128.511,74.386 128.554,74.43 128.6,74.463 C128.645,74.496 128.696,74.534 128.752,74.575 C128.809,74.617 128.866,74.655 128.923,74.689 C128.98,74.725 129.042,74.757 129.107,74.786 C129.172,74.815 129.234,74.837 129.294,74.851 C129.354,74.865 129.411,74.885 129.464,74.912 C129.517,74.938 129.56,74.978 129.594,75.031 C129.628,75.084 129.644,75.145 129.643,75.213 C129.641,75.282 129.637,75.347 129.629,75.408 L129.576,75.834 C129.567,75.908 129.553,75.989 129.535,76.076 C129.517,76.164 129.495,76.254 129.47,76.348 C129.444,76.441 129.417,76.544 129.389,76.657 C129.361,76.77 129.339,76.859 129.324,76.926 C129.308,76.993 129.295,77.071 129.284,77.159 L129.267,77.292" id="STROKE_C00E8DF9.-A42F.-4D0A.-AECB.-4DD318DFB3ED"></path>
            <path d="M129.086,100.804 C129.116,100.67 129.149,100.574 129.185,100.516 C129.22,100.459 129.248,100.397 129.269,100.331 C129.289,100.265 129.313,100.264 129.34,100.33 C129.367,100.395 129.379,100.469 129.376,100.55 C129.373,100.632 129.365,100.727 129.351,100.837 L129.117,102.715 C129.104,102.816 129.088,102.918 129.069,103.018 C129.049,103.119 129.029,103.223 129.008,103.33 C128.988,103.437 128.969,103.534 128.951,103.622 C128.933,103.71 128.91,103.811 128.881,103.925 C128.853,104.039 128.827,104.146 128.802,104.246 C128.777,104.346 128.751,104.446 128.725,104.546 C128.698,104.645 128.673,104.732 128.65,104.804 C128.627,104.876 128.603,104.955 128.578,105.041 C128.554,105.126 128.522,105.208 128.484,105.287 C128.446,105.365 128.413,105.444 128.384,105.522 C128.354,105.6 128.325,105.672 128.296,105.737 C128.267,105.802 128.24,105.872 128.217,105.946 C128.194,106.019 128.168,106.089 128.141,106.154 C128.113,106.219 128.086,106.281 128.057,106.338 C128.029,106.395 128.001,106.453 127.972,106.512 C127.944,106.57 127.916,106.626 127.888,106.678 C127.86,106.73 127.821,106.797 127.77,106.879 C127.719,106.961 127.676,107.034 127.64,107.099 C127.604,107.163 127.563,107.217 127.517,107.26 C127.471,107.303 127.418,107.345 127.358,107.385 C127.299,107.425 127.233,107.448 127.162,107.454 C127.091,107.459 127.019,107.458 126.946,107.449 L123.507,107.02 C123.446,107.012 123.39,106.995 123.339,106.967 C123.288,106.94 123.257,106.887 123.245,106.811 C123.234,106.734 123.221,106.664 123.208,106.6 C123.195,106.536 123.179,106.472 123.161,106.408 C123.142,106.343 123.128,106.269 123.117,106.186 C123.106,106.103 123.097,106.009 123.089,105.905 C123.08,105.801 123.076,105.718 123.077,105.656 C123.078,105.594 123.083,105.525 123.092,105.451 L123.226,104.376 C123.239,104.274 123.259,104.166 123.288,104.052 C123.316,103.938 123.348,103.822 123.384,103.703 C123.42,103.585 123.46,103.463 123.504,103.337 C123.547,103.212 123.595,103.077 123.647,102.931 C123.698,102.786 123.747,102.644 123.793,102.505 C123.838,102.367 123.881,102.238 123.922,102.119 C123.964,102 124.006,101.878 124.05,101.754 C124.094,101.63 124.137,101.509 124.18,101.39 C124.223,101.271 124.26,101.162 124.292,101.062 C124.324,100.963 124.352,100.874 124.376,100.793 C124.4,100.713 124.424,100.637 124.447,100.564 C124.47,100.492 124.489,100.422 124.504,100.356 C124.52,100.289 124.531,100.225 124.539,100.163 L124.55,100.072" id="STROKE_2D512900.-600D.-4FCC.-8D46.-EBB9105061B8"></path>
            <path d="M33.2468903,76.663053 C33.3702848,76.6806171 33.439062,76.6548564 33.453222,76.5834289 C33.4683935,76.5131724 33.4805307,76.4300355 33.490645,76.3363601 L33.9457885,72.1139431 C33.9548914,72.0272933 33.96096,71.9394727 33.9629829,71.851652 C33.9650057,71.7638314 33.9650057,71.6666432 33.9629829,71.5612584 C33.9599486,71.4558736 33.9579257,71.3504888 33.9559028,71.245104 C33.9548914,71.1397193 33.95388,71.0261379 33.9528686,70.9055308 C33.9518571,70.7849238 33.9508457,70.6877356 33.9518571,70.6174791 C33.9518571,70.5460516 33.9488228,70.4406668 33.9427543,70.3024957 C33.9366857,70.1643245 33.9296057,70.0612816 33.9225256,69.9957089 C33.9154456,69.9289652 33.9124113,69.8610505 33.9124113,69.7896231 C33.9134228,69.7181956 33.9103885,69.650281 33.9053313,69.5847082 C33.8992628,69.5191354 33.8921827,69.4324857 33.8820684,69.32593 C33.8719541,69.2193743 33.8608284,69.124528 33.8486912,69.042562 C33.8355427,68.9594251 33.8234055,68.8774592 33.8112683,68.7954932 C33.7991312,68.7135273 33.7859826,68.639758 33.7738454,68.5741852 C33.7606968,68.5086124 33.7435025,68.4418687 33.7232739,68.3739541 C33.7010224,68.3060395 33.6848396,68.2310992 33.6727024,68.1479623 C33.6595538,68.0659963 33.6443823,67.9793466 33.6281995,67.8891841 C33.6110052,67.7990216 33.5938108,67.6994915 33.577628,67.5917648 C33.5604336,67.4840381 33.5442508,67.3774824 33.5290793,67.2709267 C33.5128964,67.1655419 33.5007593,67.062499 33.4896335,66.9641399 C33.4785078,66.8646098 33.4653592,66.7627378 33.4481649,66.6561821 C33.4309706,66.5496264 33.4168106,66.4477544 33.4056848,66.3482243 C33.3955705,66.2486943 33.3844448,66.1585317 33.3743305,66.0765658 C33.3632048,65.9945998 33.3439876,65.911463 33.3176904,65.8271551 C33.2913932,65.7428473 33.2711646,65.6632232 33.258016,65.5882829 C33.2448674,65.5133427 33.2317188,65.4395733 33.2205931,65.364633 C33.2084559,65.2908637 33.1963188,65.2206071 33.1821588,65.1550344 C33.1669873,65.0894616 33.1508044,65.0110085 33.1325987,64.919675 C33.1133815,64.8295125 33.09821,64.7510594 33.0850615,64.6831447 C33.0729243,64.616401 33.0597757,64.5461445 33.0466271,64.4712042 C33.0334785,64.3962639 33.0203299,64.3224946 33.0071813,64.2475543 C32.9930213,64.172614 32.9778499,64.0894771 32.961667,63.9993146 C32.9444727,63.909152 32.9252555,63.8260151 32.9050269,63.7499039 C32.8847983,63.6737927 32.867604,63.6000233 32.8544554,63.526254 C32.8402953,63.4536556 32.8281582,63.3798862 32.8170325,63.3049459 C32.8048953,63.2311766 32.7897238,63.1562363 32.7684838,63.080125 C32.7482552,63.0040138 32.7280266,62.9325863 32.7067866,62.8646717 C32.6855465,62.7967571 32.6683522,62.7300134 32.6562151,62.6644406 C32.6430665,62.5988679 32.6258721,62.5321242 32.6056435,62.4642095 C32.5833921,62.3962949 32.5601292,62.3166708 32.5348434,62.2241664 C32.5085462,62.1328329 32.4862948,62.0485251 32.468089,61.9735848 C32.4498833,61.8974736 32.4296547,61.8225333 32.4094261,61.747593 C32.3891975,61.6714817 32.3689689,61.5953705 32.3487403,61.5192593 C32.3285117,61.444319 32.3082831,61.3693787 32.2900773,61.2956093 C32.2708602,61.22184 32.2546773,61.1468997 32.2415287,61.0719594 C32.2283801,60.9981901 32.2152315,60.9232498 32.2020829,60.8483095 C32.1879229,60.7733692 32.1757857,60.7031127 32.1626371,60.636369 C32.1505,60.5696253 32.1353285,60.4864884 32.1171228,60.3881292 C32.0999285,60.2897701 32.0807113,60.1984366 32.0614941,60.1152997 C32.0422769,60.0321629 32.0159797,59.9525388 31.9826026,59.8740857 C31.9502368,59.7968035 31.9158482,59.7312308 31.8814595,59.6785384 C31.8460595,59.625846 31.8066137,59.5719826 31.7621108,59.5181193 C31.7176078,59.463085 31.6781621,59.4080507 31.6437734,59.3541874 C31.6083734,59.2991531 31.5719619,59.2452898 31.5355504,59.1925974 C31.4981275,59.1387341 31.4586817,59.0813579 31.4172131,59.019298 C31.3757444,58.958409 31.3403444,58.8963491 31.3110129,58.8354601 C31.2826929,58.7734001 31.2513385,58.7043146 31.2189728,58.6282033 C31.1855956,58.553263 31.1532298,58.472468 31.1188412,58.3869893 C31.085464,58.3015105 31.0520868,58.2207155 31.019721,58.1434333 C30.9873552,58.0649802 30.9539781,57.9958946 30.9195894,57.9338347 C30.8852008,57.8706038 30.8498007,57.8097148 30.8133893,57.7488258 C30.7769778,57.6879369 30.730452,57.6329026 30.6738119,57.584894 C30.6161604,57.5357144 30.5585089,57.4947314 30.4998459,57.461945 C30.4411829,57.4279877 30.3784743,57.3905176 30.3137427,57.3495346 C30.2490112,57.3073807 30.1883254,57.2582011 30.1316853,57.2019959 C30.0750452,57.1457907 30.0325652,57.0837308 30.0042451,57.0169871 C29.9759251,56.9490724 29.940525,56.8916963 29.8970335,56.8460295 C29.8545534,56.7991918 29.8029705,56.7628926 29.7432961,56.7371319 C29.6836217,56.7113712 29.6229359,56.6902942 29.5602273,56.673901 C29.4975186,56.6575078 29.4408785,56.6329181 29.3892956,56.6001317 C29.3367012,56.5685162 29.2770268,56.5439265 29.2102724,56.5263623 C29.1425066,56.5087982 29.0777751,56.4947469 29.0160778,56.4865503 C28.955392,56.4771828 28.8977405,56.4853794 28.8451461,56.5099691 C28.7925517,56.5357299 28.7369231,56.5638325 28.6782601,56.5954479 C28.6195972,56.6270633 28.5639685,56.6668754 28.5103627,56.714884 C28.4567569,56.7628926 28.4031511,56.8190978 28.3475225,56.8846706 C28.2929052,56.9490724 28.2473909,57.0146452 28.2119908,57.0825598 C28.1755793,57.1504744 28.144225,57.2148763 28.115905,57.2757652 C28.0875849,57.3366542 28.0633106,57.402227 28.0410591,57.4713126 C28.0198191,57.5415691 27.9945333,57.6176803 27.9652019,57.7019882 C27.9368818,57.786296 27.9075503,57.8706038 27.8772074,57.9537407 C27.8468645,58.0380485 27.8195559,58.1223564 27.796293,58.2066642 C27.7730301,58.292143 27.7497672,58.3764508 27.7254929,58.4607586 C27.70223,58.5462374 27.6789671,58.635229 27.6546928,58.7300753 C27.6304185,58.8237507 27.6101899,58.917426 27.5950184,59.0111014 C27.5788355,59.1047767 27.5626526,59.2031359 27.5444469,59.3061788 C27.5262412,59.4080507 27.5110697,59.5157774 27.4989325,59.6270169 L26.8779144,65.3939066 C26.8667887,65.4981204 26.8586972,65.6046761 26.8536401,65.7159156 C26.8495944,65.8259842 26.8465601,65.9419074 26.8455486,66.0625145 C26.8455486,66.1831215 26.8415029,66.3084123 26.8354343,66.4372159 C26.8283543,66.5660196 26.8212743,66.6655496 26.8141943,66.7358062 L26.7676685,67.1632 C26.7595771,67.2357984 26.7555314,67.3107387 26.7535085,67.3915337 C26.7524971,67.4723287 26.7474399,67.547269 26.7393485,67.6186965 L26.6907998,68.0718511 C26.6837198,68.1432785 26.6786627,68.2158769 26.6786627,68.2884753 C26.6776512,68.3610737 26.6736055,68.4325012 26.6665255,68.5027577 C26.6584341,68.5730143 26.651354,68.6725443 26.6452855,68.801348 C26.6382055,68.9301516 26.6361826,69.042562 26.6402283,69.1397502 C26.644274,69.2357675 26.6452855,69.3282719 26.6422512,69.4160925 C26.6402283,69.5039132 26.6422512,69.5847082 26.6483198,69.6584775 C26.6553998,69.7322469 26.6604569,69.8060162 26.6655141,69.8786147 C26.6695598,69.952384 26.6715826,70.0249824 26.6705712,70.0975808 C26.6705712,70.1713502 26.6695598,70.2439486 26.6685484,70.315376 C26.6675369,70.3891454 26.6665255,70.4687695 26.6645026,70.5565901 C26.6614683,70.6444108 26.6594455,70.7369152 26.6564112,70.8317615 C26.6533769,70.9277787 26.6462969,71.0273088 26.6351712,71.1303517 C26.623034,71.2345656 26.6119083,71.3422922 26.5997711,71.4535317 C26.5876339,71.5647712 26.5805539,71.6643013 26.5785311,71.750951 C26.5754968,71.8399426 26.5734739,71.9277633 26.5714511,72.0155839 C26.5694282,72.1034046 26.5674053,72.1877124 26.5653825,72.2673365 C26.564371,72.3481315 26.5653825,72.4371231 26.5684168,72.5354822 C26.5724625,72.6326704 26.5724625,72.7263457 26.5684168,72.8141664 C26.564371,72.9008161 26.5613368,72.9886368 26.5583025,73.0764574 C26.5562796,73.1642781 26.5552682,73.2450731 26.5542567,73.3176715 C26.5532453,73.3902699 26.5522339,73.4628683 26.5522339,73.5354667 C26.5512225,73.6080651 26.550211,73.6841764 26.5491996,73.7649714 C26.5471767,73.8445954 26.5421196,73.9253904 26.5340281,74.0038435 C26.5249253,74.0834676 26.5198681,74.1630917 26.5188567,74.2438867 C26.5168338,74.3235107 26.5158224,74.399622 26.514811,74.4722204 C26.514811,74.5459897 26.5168338,74.6267847 26.521891,74.7146054 C26.5259367,74.803597 26.5309939,74.8855629 26.5380739,74.9581613 C26.5441424,75.0319307 26.5532453,75.1021872 26.5663939,75.1677599 C26.5785311,75.2321618 26.5845997,75.3012473 26.5835882,75.3738457 C26.5835882,75.4464442 26.5815654,75.5272392 26.5795425,75.6150598 C26.5775196,75.7028805 26.5754968,75.7825045 26.5744853,75.8562739 C26.5744853,75.9288723 26.5734739,76.0049835 26.5714511,76.0846076 C26.5704396,76.1654026 26.5684168,76.2450266 26.5674053,76.3258216 C26.5653825,76.4066166 26.5684168,76.4827279 26.5744853,76.5564972 C26.5805539,76.6302666 26.5866225,76.7040359 26.5906682,76.7778053 C26.5957254,76.8504037 26.6078625,76.9206602 26.6291026,76.9874039 C26.6503426,77.0541476 26.6786627,77.1185494 26.7130513,77.1806094 L26.7646342,77.2731138" id="STROKE_AD1DF904.-87D0.-4392.-9E78.-42C846F6FC41" fill="#D8D8D8"></path>
            <path d="M28.87,97.2562303 C28.938,97.3959784 28.974,97.5071416 28.979,97.5865439 C28.984,97.6670049 28.987,97.7548768 28.988,97.8501595 C28.989,97.9454423 28.99,98.051312 28.99,98.1677687 C28.99,98.2842254 28.988,98.3964474 28.982,98.5044345 C28.976,98.6134803 28.973,98.7034696 28.971,98.7765197 C28.97,98.8485111 28.965,98.9173264 28.958,98.981907 C28.95,99.0475462 28.942,99.1153028 28.934,99.1862356 C28.925,99.258227 28.92,99.3302184 28.918,99.4032685 C28.917,99.4752599 28.912,99.5483101 28.903,99.6192428 L28.672,101.587361 C28.659,101.69429 28.643,101.801218 28.623,101.908146 C28.604,102.015075 28.572,102.112475 28.528,102.202464 C28.484,102.291395 28.443,102.380325 28.404,102.469256 C28.365,102.558187 28.325,102.635471 28.281,102.702169 C28.238,102.769926 28.193,102.836624 28.144,102.903322 C28.096,102.968961 28.048,103.025072 28,103.070596 C27.952,103.11612 27.896,103.156351 27.83,103.191288 C27.764,103.225166 27.703,103.253751 27.646,103.275983 C27.588,103.298216 27.524,103.321507 27.452,103.349033 C27.38,103.375501 27.308,103.403027 27.236,103.429494 C27.164,103.455962 27.089,103.482429 27.01,103.508897 C26.931,103.535364 26.846,103.559714 26.753,103.584064 C26.66,103.608414 26.564,103.627471 26.466,103.642293 C26.367,103.658173 26.29,103.669819 26.234,103.67723 C26.179,103.685699 26.102,103.689934 26.005,103.690993 C25.908,103.692051 25.813,103.686758 25.719,103.674054 C25.625,103.661349 25.535,103.646527 25.447,103.62853 C25.359,103.609473 25.282,103.566066 25.214,103.49831 C25.146,103.430553 25.081,103.363855 25.02,103.299275 C24.959,103.233635 24.906,103.161644 24.861,103.082242 C24.816,103.003898 24.776,102.925555 24.743,102.84827 C24.71,102.772043 24.682,102.684172 24.66,102.585713 C24.638,102.488313 24.619,102.386678 24.604,102.282925 C24.588,102.178114 24.575,102.075421 24.566,101.973786 C24.557,101.871092 24.553,101.787455 24.553,101.721816 C24.554,101.656176 24.558,101.560894 24.565,101.438085 C24.573,101.314217 24.578,101.219993 24.58,101.154354 C24.583,101.088715 24.588,101.019899 24.597,100.948967 L25.02,96.3061308 L24.911,98.282108" id="STROKE_5B4B05EB.-FD96.-4E8F.-9B81.-C7A2632BA91F" fill="#D8D8D8"></path>
            <path d="M28.126,76.904 C28.238,76.899 28.323,76.894 28.379,76.891 C28.436,76.887 28.436,76.887 28.379,76.891 C28.323,76.894 28.254,76.896 28.172,76.895 C28.09,76.895 28.015,76.896 27.949,76.898 C27.882,76.901 27.813,76.902 27.743,76.903 C27.673,76.905 27.599,76.906 27.522,76.906 C27.445,76.908 27.364,76.905 27.279,76.9 C27.193,76.894 27.108,76.886 27.022,76.875 C26.936,76.864 26.848,76.856 26.758,76.849 C26.668,76.843 26.579,76.835 26.493,76.824 C26.408,76.813 26.322,76.803 26.238,76.792 C26.153,76.781 26.07,76.776 25.99,76.776 C25.909,76.775 25.831,76.773 25.754,76.77 C25.678,76.766 25.601,76.764 25.525,76.764 C25.448,76.765 25.374,76.763 25.305,76.759 C25.235,76.755 25.167,76.752 25.101,76.748 C25.035,76.745 24.962,76.738 24.881,76.728 L24.235,76.648 C24.175,76.64 24.117,76.636 24.061,76.635 C24.005,76.634 23.95,76.642 23.897,76.661 C23.844,76.68 23.795,76.707 23.751,76.741 C23.706,76.776 23.668,76.816 23.636,76.863 C23.604,76.91 23.578,76.96 23.557,77.013 C23.536,77.066 23.509,77.118 23.476,77.171 C23.444,77.224 23.411,77.273 23.38,77.32 C23.348,77.367 23.316,77.416 23.285,77.468 C23.254,77.52 23.218,77.571 23.176,77.621 C23.135,77.672 23.09,77.722 23.042,77.771 C22.994,77.821 22.949,77.874 22.907,77.931 C22.865,77.987 22.828,78.038 22.796,78.085 C22.764,78.132 22.731,78.179 22.695,78.225 C22.659,78.271 22.625,78.318 22.593,78.364 C22.562,78.411 22.53,78.458 22.5,78.505 C22.469,78.552 22.44,78.602 22.413,78.654 C22.386,78.706 22.361,78.761 22.34,78.819 C22.318,78.877 22.296,78.935 22.273,78.994 C22.25,79.052 22.23,79.108 22.213,79.162 C22.196,79.215 22.179,79.269 22.162,79.322 C22.144,79.376 22.127,79.435 22.108,79.499 C22.09,79.563 22.073,79.632 22.059,79.707 C22.045,79.781 22.033,79.851 22.025,79.916 L21.928,80.695 C21.92,80.76 21.914,80.826 21.911,80.892 C21.908,80.958 21.908,81.019 21.912,81.075 C21.915,81.131 21.918,81.193 21.92,81.259 C21.922,81.326 21.924,81.397 21.925,81.473 C21.926,81.55 21.93,81.621 21.937,81.687 C21.944,81.754 21.951,81.823 21.956,81.895 C21.962,81.967 21.965,82.036 21.967,82.103 C21.969,82.169 21.972,82.231 21.976,82.287 C21.979,82.343 21.981,82.409 21.982,82.485 C21.983,82.561 21.985,82.628 21.987,82.684 C21.989,82.739 21.996,82.799 22.009,82.862 C22.022,82.925 22.045,82.989 22.077,83.054 C22.11,83.118 22.137,83.182 22.161,83.246 C22.184,83.309 22.201,83.372 22.213,83.435 C22.225,83.498 22.232,83.558 22.236,83.614 C22.239,83.67 22.237,83.728 22.23,83.787 C22.222,83.847 22.21,83.904 22.193,83.958 C22.176,84.013 22.149,84.066 22.113,84.117 C22.076,84.168 22.042,84.222 22.009,84.278 C21.975,84.335 21.943,84.394 21.91,84.456 C21.878,84.519 21.846,84.573 21.814,84.62 C21.782,84.667 21.75,84.718 21.718,84.775 C21.686,84.831 21.654,84.891 21.62,84.953 C21.586,85.015 21.555,85.08 21.527,85.148 C21.499,85.216 21.472,85.291 21.446,85.374 C21.42,85.456 21.397,85.54 21.376,85.624 C21.355,85.708 21.335,85.785 21.316,85.854 C21.297,85.923 21.281,85.987 21.269,86.046 C21.256,86.105 21.246,86.164 21.239,86.224 L21.168,86.795 C21.16,86.854 21.15,86.917 21.139,86.981 C21.127,87.046 21.111,87.11 21.093,87.173 C21.075,87.236 21.059,87.3 21.046,87.365 C21.032,87.43 21.022,87.492 21.015,87.552 L20.828,89.046 C20.819,89.121 20.818,89.194 20.824,89.266 C20.831,89.338 20.835,89.405 20.837,89.465 C20.838,89.526 20.843,89.587 20.851,89.649 C20.859,89.71 20.864,89.77 20.868,89.827 C20.871,89.884 20.878,89.951 20.889,90.028 C20.9,90.106 20.917,90.176 20.939,90.24 C20.961,90.303 20.984,90.362 21.007,90.415 C21.03,90.469 21.051,90.525 21.07,90.583 C21.089,90.641 21.109,90.702 21.131,90.766 C21.153,90.83 21.171,90.896 21.183,90.963 C21.195,91.03 21.212,91.103 21.232,91.181 C21.252,91.26 21.273,91.334 21.296,91.403 C21.319,91.472 21.344,91.539 21.371,91.603 C21.398,91.667 21.423,91.731 21.446,91.795 C21.47,91.86 21.487,91.923 21.499,91.985 C21.511,92.047 21.523,92.109 21.536,92.172 C21.549,92.236 21.564,92.301 21.582,92.369 C21.599,92.436 21.617,92.499 21.634,92.558 C21.651,92.617 21.674,92.678 21.701,92.742 C21.728,92.806 21.756,92.87 21.784,92.934 C21.813,92.998 21.835,93.067 21.851,93.14 C21.866,93.214 21.889,93.28 21.918,93.339 C21.947,93.398 21.975,93.46 22.002,93.525 C22.029,93.59 22.056,93.652 22.084,93.711 C22.112,93.77 22.143,93.83 22.177,93.89 C22.211,93.95 22.245,94.005 22.279,94.055 C22.314,94.105 22.353,94.156 22.397,94.207 C22.442,94.258 22.481,94.307 22.516,94.352 C22.55,94.398 22.585,94.442 22.62,94.487 C22.655,94.531 22.695,94.581 22.74,94.638 C22.785,94.694 22.827,94.745 22.867,94.792 C22.907,94.837 22.95,94.881 22.995,94.922 C23.041,94.963 23.092,95.002 23.149,95.039 C23.205,95.076 23.261,95.116 23.317,95.159 C23.373,95.203 23.431,95.248 23.49,95.295 C23.549,95.343 23.6,95.385 23.642,95.421 C23.684,95.458 23.73,95.502 23.78,95.554 C23.829,95.606 23.876,95.657 23.921,95.708 C23.965,95.758 24.007,95.806 24.047,95.852 C24.087,95.898 24.132,95.94 24.184,95.976 C24.235,96.013 24.289,96.053 24.345,96.096 C24.4,96.139 24.452,96.179 24.498,96.215 C24.544,96.251 24.593,96.287 24.644,96.324 C24.696,96.36 24.747,96.399 24.798,96.441 C24.848,96.483 24.897,96.522 24.943,96.559 C24.989,96.596 25.038,96.635 25.089,96.676 C25.139,96.718 25.196,96.755 25.258,96.788 C25.32,96.821 25.378,96.851 25.43,96.879 C25.483,96.906 25.543,96.928 25.611,96.946 C25.679,96.965 25.743,96.983 25.802,97.001 C25.861,97.019 25.917,97.037 25.971,97.053 C26.025,97.069 26.081,97.089 26.139,97.112 C26.198,97.135 26.253,97.157 26.307,97.178 C26.36,97.2 26.417,97.214 26.477,97.221 L26.839,97.267 C26.899,97.274 26.959,97.284 27.019,97.296 C27.078,97.309 27.137,97.319 27.196,97.326 L27.948,97.42 C28.008,97.427 28.07,97.427 28.132,97.42 C28.194,97.414 28.256,97.406 28.318,97.398 C28.38,97.39 28.439,97.385 28.496,97.382 C28.552,97.38 28.615,97.383 28.684,97.391 C28.753,97.4 28.821,97.401 28.889,97.393 L28.99,97.382" id="STROKE_1AECC960.-8BE9.-4C63.-A090.-84FA90433351"></path>
            <path d="M30.684,77.437 C30.747,77.324 30.785,77.24 30.797,77.184 C30.809,77.129 30.784,77.108 30.721,77.121 C30.658,77.134 30.601,77.165 30.549,77.215 C30.497,77.265 30.443,77.317 30.385,77.37 C30.328,77.424 30.267,77.48 30.204,77.538 C30.141,77.597 30.074,77.66 30.005,77.727 C29.935,77.795 29.865,77.865 29.795,77.937 C29.725,78.009 29.652,78.086 29.577,78.167 C29.502,78.249 29.443,78.315 29.4,78.366 C29.357,78.418 29.315,78.469 29.273,78.519 C29.232,78.57 29.192,78.623 29.154,78.678 C29.116,78.734 29.076,78.788 29.035,78.839 C28.993,78.891 28.951,78.947 28.908,79.007 C28.866,79.067 28.825,79.125 28.787,79.182 C28.748,79.239 28.71,79.303 28.671,79.374 C28.632,79.445 28.593,79.511 28.555,79.572 C28.516,79.632 28.477,79.696 28.439,79.762 C28.401,79.829 28.363,79.893 28.325,79.955 C28.288,80.016 28.252,80.078 28.218,80.139 C28.185,80.2 28.152,80.257 28.119,80.31 C28.086,80.362 28.051,80.421 28.013,80.487 C27.975,80.552 27.94,80.608 27.908,80.655 C27.876,80.702 27.839,80.758 27.795,80.824 C27.752,80.89 27.714,80.949 27.683,81.001 C27.652,81.053 27.617,81.107 27.579,81.164 C27.541,81.22 27.506,81.275 27.475,81.326 C27.443,81.378 27.412,81.43 27.379,81.481 C27.347,81.533 27.312,81.585 27.276,81.637 C27.24,81.689 27.205,81.738 27.173,81.785 C27.142,81.832 27.097,81.9 27.041,81.988 C26.984,82.077 26.933,82.162 26.888,82.243 C26.843,82.324 26.8,82.395 26.762,82.456 C26.723,82.516 26.69,82.573 26.662,82.627 C26.635,82.68 26.605,82.737 26.573,82.799 C26.54,82.86 26.508,82.916 26.476,82.968 C26.443,83.019 26.411,83.074 26.379,83.131 C26.347,83.189 26.315,83.241 26.283,83.288 C26.251,83.335 26.22,83.382 26.189,83.428 C26.159,83.475 26.124,83.527 26.086,83.583 C26.048,83.639 26.013,83.695 25.981,83.753 C25.949,83.81 25.925,83.866 25.908,83.919 C25.891,83.973 25.876,84.029 25.863,84.088 C25.851,84.147 25.84,84.209 25.832,84.274 C25.824,84.34 25.816,84.402 25.809,84.462 C25.801,84.522 25.811,84.586 25.837,84.656 C25.864,84.726 25.891,84.793 25.919,84.858 C25.948,84.923 25.976,84.987 26.003,85.051 C26.03,85.115 26.058,85.179 26.086,85.243 C26.115,85.307 26.145,85.37 26.178,85.431 C26.211,85.491 26.242,85.546 26.271,85.594 C26.3,85.643 26.332,85.692 26.366,85.742 C26.4,85.793 26.437,85.846 26.477,85.901 C26.517,85.957 26.559,86.008 26.604,86.055 C26.649,86.101 26.694,86.145 26.74,86.186 C26.786,86.227 26.838,86.274 26.896,86.327 C26.955,86.38 27.014,86.429 27.075,86.472 C27.136,86.516 27.2,86.555 27.268,86.589 C27.335,86.622 27.398,86.653 27.455,86.679 C27.513,86.706 27.576,86.736 27.643,86.77 C27.711,86.804 27.773,86.835 27.829,86.862 C27.886,86.89 27.943,86.917 28,86.945 C28.058,86.973 28.119,86.995 28.183,87.013 C28.248,87.031 28.312,87.049 28.376,87.068 C28.44,87.087 28.509,87.105 28.583,87.124 C28.658,87.143 28.729,87.165 28.796,87.189 C28.863,87.213 28.925,87.241 28.982,87.274 C29.04,87.306 29.1,87.337 29.163,87.365 C29.226,87.393 29.287,87.414 29.346,87.426 C29.406,87.439 29.473,87.449 29.547,87.459 C29.622,87.468 29.696,87.459 29.771,87.432 C29.846,87.406 29.913,87.381 29.972,87.358 C30.031,87.335 30.102,87.313 30.187,87.294 C30.271,87.274 30.355,87.254 30.438,87.234 C30.522,87.214 30.595,87.198 30.657,87.185 C30.72,87.173 30.784,87.15 30.849,87.117 C30.915,87.084 30.972,87.051 31.022,87.017 C31.072,86.983 31.122,86.947 31.172,86.907 C31.223,86.867 31.278,86.828 31.339,86.79 C31.4,86.752 31.461,86.709 31.523,86.661 C31.585,86.613 31.644,86.567 31.7,86.523 C31.757,86.479 31.808,86.435 31.856,86.39 C31.903,86.345 31.951,86.293 31.998,86.232 C32.046,86.172 32.092,86.106 32.136,86.036 C32.18,85.965 32.218,85.904 32.251,85.852 C32.283,85.801 32.315,85.751 32.345,85.704 C32.376,85.658 32.407,85.608 32.44,85.557 C32.472,85.505 32.507,85.453 32.543,85.401 C32.58,85.349 32.615,85.295 32.647,85.238 C32.681,85.182 32.713,85.125 32.745,85.069 C32.777,85.012 32.81,84.951 32.844,84.883 C32.878,84.817 32.91,84.752 32.939,84.689 C32.967,84.626 32.998,84.561 33.031,84.494 C33.064,84.427 33.096,84.36 33.125,84.293 C33.154,84.227 33.177,84.166 33.194,84.111 C33.211,84.057 33.226,83.998 33.238,83.934 L33.256,83.838" id="STROKE_C1A0D3B8.-1B5E.-468D.-A381.-8B5FA52BDBA4"></path>
            <path d="M38.52,77.257 C38.396,77.271 38.291,77.273 38.205,77.262 L35.454,76.919 C35.349,76.906 35.246,76.89 35.147,76.873 C35.048,76.856 34.948,76.839 34.849,76.821 C34.749,76.804 34.65,76.789 34.55,76.777 C34.45,76.764 34.345,76.751 34.234,76.737 C34.124,76.724 34.022,76.706 33.929,76.685 C33.835,76.663 33.739,76.639 33.641,76.611 C33.543,76.583 33.447,76.555 33.353,76.528 C33.258,76.501 33.167,76.476 33.079,76.456 C32.99,76.435 32.903,76.417 32.818,76.401 C32.733,76.386 32.65,76.373 32.571,76.363 C32.491,76.353 32.416,76.344 32.346,76.335 C32.275,76.326 32.207,76.32 32.141,76.317 C32.075,76.313 32.012,76.313 31.952,76.315 C31.892,76.317 31.83,76.325 31.768,76.337 C31.705,76.35 31.645,76.358 31.589,76.362 C31.532,76.366 31.468,76.371 31.395,76.376 C31.323,76.382 31.254,76.383 31.188,76.379 C31.122,76.376 31.068,76.405 31.025,76.466 L30.961,76.558 L30.6982494,75.9393839" id="STROKE_23ABA56C.-B94D.-452B.-9DAE.-979BD4DC5B9D"></path>
        </g>
    </g>
</svg>


