<?xml version="1.0" encoding="utf-8"?>
<!-- Generator: Adobe Illustrator 16.0.0, SVG Export Plug-In . SVG Version: 6.00 Build 0)  -->
<!DOCTYPE svg PUBLIC "-//W3C//DTD SVG 1.1//EN" "http://www.w3.org/Graphics/SVG/1.1/DTD/svg11.dtd">
<svg version="1.1" id="Layer_1" xmlns="http://www.w3.org/2000/svg" xmlns:xlink="http://www.w3.org/1999/xlink" x="0px" y="0px"
	 width="160px" height="160px" viewBox="0 0 160 160" enable-background="new 0 0 160 160" xml:space="preserve">
<g id="a16">
	
		<path id="STROKE_55B68D96.-6479.-4708.-B530.-BA918EAE74AE" fill="none" stroke="#000000" stroke-width="1.72" stroke-linecap="round" stroke-linejoin="round" d="
		M59.366,80.465c0.119-0.013,0.188-0.057,0.208-0.132c0.021-0.074,0.024-0.139,0.009-0.194c-0.015-0.056-0.032-0.116-0.05-0.182
		c-0.018-0.066-0.038-0.14-0.06-0.222c-0.022-0.082-0.062-0.171-0.119-0.266c-0.056-0.096-0.102-0.169-0.136-0.219
		c-0.034-0.05-0.069-0.105-0.105-0.163c-0.037-0.059-0.078-0.118-0.125-0.176c-0.045-0.058-0.093-0.12-0.139-0.186
		c-0.046-0.066-0.098-0.131-0.156-0.196c-0.059-0.064-0.117-0.129-0.175-0.193s-0.116-0.128-0.17-0.191
		c-0.056-0.064-0.113-0.127-0.171-0.192c-0.058-0.064-0.115-0.128-0.171-0.191c-0.056-0.064-0.113-0.128-0.171-0.192
		c-0.058-0.065-0.12-0.123-0.185-0.174c-0.065-0.051-0.124-0.105-0.178-0.161c-0.053-0.057-0.103-0.114-0.149-0.169
		c-0.046-0.056-0.097-0.112-0.153-0.168c-0.056-0.056-0.106-0.111-0.15-0.168c-0.043-0.057-0.088-0.115-0.134-0.173
		c-0.047-0.058-0.093-0.115-0.139-0.172c-0.046-0.056-0.097-0.117-0.153-0.182c-0.056-0.065-0.107-0.126-0.153-0.182
		c-0.046-0.056-0.092-0.113-0.138-0.169c-0.046-0.057-0.096-0.113-0.149-0.169c-0.053-0.056-0.104-0.117-0.152-0.183
		c-0.049-0.066-0.103-0.131-0.161-0.195c-0.058-0.065-0.117-0.134-0.175-0.208c-0.058-0.074-0.117-0.142-0.174-0.206
		c-0.058-0.063-0.117-0.125-0.175-0.191c-0.058-0.064-0.117-0.133-0.175-0.208c-0.059-0.074-0.117-0.142-0.175-0.205
		c-0.058-0.062-0.12-0.125-0.185-0.188c-0.065-0.062-0.127-0.126-0.187-0.189c-0.058-0.065-0.109-0.125-0.156-0.183
		c-0.046-0.055-0.094-0.107-0.145-0.152c-0.051-0.046-0.122-0.106-0.214-0.181c-0.092-0.074-0.176-0.146-0.254-0.214
		c-0.077-0.069-0.158-0.128-0.243-0.176c-0.084-0.047-0.161-0.091-0.231-0.132c-0.07-0.04-0.144-0.079-0.223-0.117
		c-0.079-0.038-0.148-0.069-0.206-0.093c-0.057-0.025-0.132-0.059-0.223-0.103c-0.091-0.044-0.165-0.079-0.223-0.103
		c-0.058-0.025-0.111-0.055-0.159-0.092c-0.049-0.037-0.102-0.067-0.159-0.092c-0.058-0.024-0.115-0.053-0.173-0.087
		c-0.059-0.034-0.117-0.068-0.177-0.102c-0.06-0.033-0.115-0.067-0.166-0.103c-0.051-0.037-0.105-0.071-0.163-0.105
		c-0.057-0.034-0.112-0.07-0.162-0.106c-0.051-0.036-0.106-0.075-0.167-0.118s-0.115-0.082-0.165-0.118
		c-0.051-0.036-0.102-0.072-0.153-0.108c-0.051-0.036-0.104-0.071-0.162-0.105c-0.059-0.034-0.129-0.08-0.213-0.137
		c-0.085-0.058-0.169-0.11-0.253-0.155c-0.083-0.047-0.165-0.084-0.241-0.113c-0.077-0.029-0.165-0.059-0.263-0.092
		c-0.098-0.032-0.195-0.061-0.291-0.083c-0.096-0.024-0.201-0.045-0.316-0.064c-0.114-0.019-0.226-0.039-0.333-0.059
		c-0.108-0.021-0.216-0.046-0.324-0.079c-0.108-0.031-0.211-0.063-0.31-0.096c-0.098-0.033-0.174-0.063-0.23-0.087
		c-0.055-0.025-0.112-0.049-0.169-0.071c-0.057-0.023-0.137-0.061-0.241-0.113c-0.103-0.052-0.202-0.106-0.295-0.16
		c-0.094-0.055-0.188-0.104-0.281-0.147c-0.094-0.043-0.188-0.088-0.278-0.134c-0.092-0.045-0.181-0.083-0.267-0.108
		c-0.085-0.026-0.166-0.048-0.24-0.067c-0.073-0.018-0.159-0.034-0.255-0.048c-0.095-0.014-0.18-0.031-0.255-0.051
		c-0.074-0.02-0.148-0.04-0.222-0.061c-0.075-0.02-0.147-0.045-0.216-0.076c-0.071-0.031-0.143-0.061-0.22-0.089
		c-0.077-0.029-0.154-0.058-0.231-0.087c-0.076-0.029-0.155-0.062-0.237-0.099c-0.081-0.037-0.162-0.075-0.241-0.112
		s-0.155-0.077-0.227-0.117c-0.073-0.039-0.144-0.08-0.213-0.123c-0.07-0.042-0.14-0.078-0.21-0.109
		c-0.07-0.031-0.137-0.057-0.201-0.077c-0.064-0.021-0.128-0.038-0.19-0.052c-0.063-0.014-0.136-0.024-0.219-0.032
		c-0.084-0.008-0.167-0.015-0.247-0.022c-0.081-0.006-0.161-0.01-0.24-0.009c-0.079,0-0.15,0-0.212-0.003
		c-0.062-0.002-0.133-0.008-0.214-0.017c-0.082-0.008-0.157-0.013-0.226-0.013c-0.069,0-0.137-0.01-0.204-0.032
		c-0.068-0.022-0.142-0.038-0.223-0.046c-0.083-0.008-0.156-0.008-0.222,0c-0.067,0.009-0.129,0.021-0.186,0.036
		c-0.057,0.016-0.114,0.026-0.171,0.032c-0.057,0.006-0.114,0.017-0.17,0.033c-0.058,0.015-0.127,0.034-0.21,0.057
		c-0.084,0.022-0.155,0.032-0.214,0.03c-0.06-0.003-0.12-0.002-0.18,0.002c-0.06,0.005-0.123,0.012-0.189,0.021
		c-0.067,0.009-0.133,0.018-0.2,0.026c-0.066,0.009-0.139,0.019-0.217,0.031c-0.079,0.012-0.149,0.026-0.214,0.044
		c-0.065,0.017-0.134,0.036-0.207,0.056c-0.074,0.02-0.149,0.04-0.225,0.061c-0.076,0.021-0.146,0.041-0.21,0.058
		c-0.064,0.018-0.133,0.037-0.206,0.057c-0.074,0.02-0.141,0.037-0.197,0.053c-0.057,0.015-0.117,0.032-0.182,0.049
		c-0.064,0.017-0.132,0.037-0.207,0.057c-0.073,0.02-0.146,0.04-0.221,0.06c-0.074,0.02-0.144,0.039-0.21,0.057
		c-0.066,0.018-0.132,0.036-0.196,0.054c-0.064,0.017-0.13,0.035-0.197,0.053c-0.066,0.019-0.13,0.04-0.192,0.067
		c-0.061,0.026-0.122,0.057-0.181,0.092c-0.06,0.035-0.123,0.073-0.192,0.113c-0.068,0.039-0.142,0.079-0.224,0.121
		c-0.081,0.041-0.152,0.075-0.214,0.101c-0.061,0.026-0.122,0.058-0.181,0.095c-0.058,0.037-0.117,0.063-0.173,0.079
		c-0.057,0.015-0.112,0.035-0.164,0.059c-0.052,0.024-0.108,0.054-0.17,0.092s-0.117,0.073-0.167,0.105
		c-0.05,0.033-0.094,0.07-0.134,0.111c-0.04,0.042-0.082,0.087-0.127,0.138c-0.045,0.05-0.09,0.102-0.134,0.154
		c-0.045,0.053-0.089,0.111-0.132,0.171c-0.045,0.062-0.09,0.119-0.134,0.171s-0.091,0.1-0.14,0.144
		c-0.049,0.044-0.092,0.091-0.127,0.138c-0.036,0.048-0.079,0.089-0.131,0.125c-0.052,0.035-0.106,0.074-0.164,0.119
		c-0.057,0.044-0.112,0.089-0.169,0.135c-0.056,0.046-0.104,0.09-0.145,0.131c-0.04,0.042-0.081,0.093-0.123,0.154
		c-0.042,0.061-0.084,0.127-0.126,0.198c-0.042,0.071-0.082,0.141-0.122,0.211c-0.04,0.071-0.08,0.141-0.122,0.212
		c-0.042,0.07-0.086,0.132-0.13,0.184c-0.045,0.053-0.079,0.107-0.105,0.164c-0.025,0.056-0.055,0.11-0.09,0.159
		c-0.035,0.05-0.078,0.097-0.128,0.138c-0.049,0.043-0.09,0.093-0.123,0.151c-0.032,0.059-0.065,0.124-0.097,0.193
		c-0.031,0.069-0.067,0.139-0.107,0.209c-0.041,0.071-0.076,0.14-0.108,0.208c-0.033,0.068-0.064,0.132-0.098,0.19
		c-0.032,0.059-0.061,0.116-0.087,0.173c-0.025,0.057-0.05,0.113-0.076,0.17l-0.166,0.373c-0.025,0.056-0.052,0.124-0.08,0.202
		c-0.027,0.078-0.052,0.146-0.078,0.203c-0.025,0.056-0.049,0.117-0.073,0.183c-0.022,0.066-0.047,0.142-0.072,0.229
		c-0.025,0.087-0.049,0.164-0.072,0.229c-0.023,0.066-0.045,0.131-0.065,0.196c-0.021,0.065-0.044,0.125-0.069,0.182
		c-0.025,0.057-0.052,0.128-0.079,0.217c-0.027,0.088-0.051,0.164-0.071,0.229c-0.021,0.065-0.042,0.135-0.062,0.208
		c-0.021,0.075-0.04,0.155-0.057,0.24c-0.018,0.085-0.035,0.17-0.05,0.254c-0.015,0.085-0.029,0.159-0.042,0.223
		c-0.013,0.063-0.026,0.129-0.038,0.201c-0.011,0.072-0.02,0.145-0.029,0.217c-0.008,0.074-0.021,0.152-0.039,0.235
		c-0.018,0.084-0.031,0.167-0.039,0.249c-0.009,0.083-0.016,0.164-0.022,0.245s-0.009,0.161-0.007,0.241
		c0.001,0.08,0.005,0.149,0.01,0.206c0.006,0.058,0.011,0.116,0.017,0.174c0.005,0.058,0.011,0.117,0.017,0.176
		s0.012,0.118,0.018,0.176c0.005,0.058,0.01,0.116,0.016,0.174c0.006,0.058,0.014,0.125,0.025,0.203
		c0.01,0.077,0.019,0.145,0.024,0.203c0.006,0.057,0.011,0.115,0.017,0.173s0.015,0.125,0.028,0.201
		c0.013,0.078,0.025,0.154,0.035,0.23c0.011,0.074,0.023,0.155,0.036,0.242c0.013,0.086,0.028,0.162,0.047,0.229
		c0.018,0.065,0.036,0.131,0.053,0.195c0.017,0.063,0.035,0.127,0.053,0.191c0.017,0.064,0.033,0.125,0.049,0.182
		c0.015,0.057,0.032,0.119,0.049,0.183c0.018,0.063,0.037,0.134,0.057,0.208s0.038,0.14,0.053,0.195
		c0.015,0.056,0.03,0.11,0.045,0.166s0.032,0.114,0.049,0.178c0.018,0.064,0.034,0.125,0.049,0.183s0.03,0.113,0.046,0.169
		c0.015,0.055,0.03,0.109,0.045,0.165c0.015,0.056,0.035,0.11,0.059,0.162c0.025,0.054,0.049,0.106,0.075,0.161
		c0.024,0.054,0.049,0.112,0.074,0.175c0.025,0.062,0.049,0.119,0.074,0.172c0.024,0.053,0.05,0.11,0.077,0.174
		c0.028,0.063,0.06,0.12,0.093,0.171c0.034,0.05,0.075,0.107,0.124,0.172c0.048,0.066,0.105,0.135,0.174,0.205
		c0.068,0.072,0.119,0.133,0.153,0.184c0.034,0.05,0.074,0.104,0.121,0.162c0.046,0.059,0.093,0.115,0.138,0.172
		c0.046,0.057,0.09,0.107,0.131,0.156s0.086,0.105,0.135,0.172c0.049,0.068,0.106,0.127,0.171,0.179s0.123,0.101,0.174,0.147
		c0.052,0.047,0.104,0.094,0.157,0.139c0.053,0.045,0.105,0.085,0.155,0.121c0.051,0.035,0.103,0.081,0.156,0.136
		c0.053,0.054,0.112,0.108,0.178,0.161c0.065,0.053,0.119,0.104,0.16,0.152c0.041,0.047,0.087,0.09,0.137,0.125
		c0.051,0.037,0.099,0.083,0.146,0.139c0.046,0.057,0.095,0.109,0.146,0.156c0.05,0.047,0.1,0.1,0.146,0.154
		c0.046,0.058,0.096,0.112,0.152,0.166c0.055,0.053,0.104,0.105,0.146,0.155c0.041,0.05,0.085,0.103,0.13,0.16
		c0.046,0.056,0.086,0.109,0.121,0.159s0.068,0.1,0.102,0.149c0.034,0.05,0.073,0.101,0.117,0.15
		c0.044,0.049,0.082,0.099,0.114,0.149s0.066,0.105,0.102,0.164c0.038,0.06,0.073,0.119,0.11,0.18s0.08,0.124,0.129,0.189
		c0.048,0.065,0.094,0.128,0.138,0.187c0.043,0.059,0.089,0.116,0.135,0.172c0.046,0.057,0.088,0.116,0.125,0.177
		c0.036,0.061,0.077,0.114,0.12,0.162c0.044,0.047,0.083,0.096,0.117,0.146c0.034,0.049,0.073,0.104,0.116,0.16
		c0.044,0.058,0.079,0.117,0.107,0.181c0.026,0.063,0.048,0.123,0.063,0.178c0.015,0.055,0.036,0.114,0.063,0.175
		c0.027,0.063,0.048,0.121,0.063,0.178c0.016,0.058,0.038,0.121,0.068,0.191c0.029,0.071,0.054,0.144,0.075,0.219
		c0.02,0.074,0.038,0.14,0.053,0.194c0.015,0.056,0.03,0.111,0.045,0.166c0.015,0.056,0.03,0.112,0.045,0.169
		c0.016,0.057,0.031,0.113,0.046,0.168c0.015,0.055,0.022,0.117,0.021,0.188c-0.002,0.068-0.012,0.142-0.029,0.217
		c-0.018,0.076-0.034,0.145-0.047,0.208c-0.014,0.063-0.032,0.127-0.055,0.192c-0.023,0.066-0.049,0.133-0.079,0.201
		c-0.03,0.066-0.06,0.139-0.09,0.218c-0.029,0.079-0.06,0.152-0.089,0.221c-0.029,0.066-0.056,0.138-0.076,0.213
		c-0.021,0.074-0.047,0.146-0.08,0.214c-0.032,0.068-0.062,0.141-0.089,0.22c-0.028,0.078-0.056,0.155-0.086,0.231
		c-0.03,0.078-0.053,0.154-0.072,0.23c-0.017,0.075-0.041,0.151-0.071,0.229c-0.03,0.078-0.052,0.148-0.066,0.211
		c-0.013,0.063-0.03,0.128-0.05,0.193c-0.02,0.067-0.037,0.133-0.05,0.195c-0.014,0.063-0.031,0.133-0.051,0.207
		c-0.021,0.074-0.04,0.153-0.054,0.238c-0.015,0.084-0.027,0.167-0.036,0.248c-0.009,0.081-0.023,0.159-0.043,0.236
		c-0.02,0.076-0.033,0.153-0.039,0.234c-0.007,0.079-0.015,0.156-0.026,0.23c-0.01,0.073-0.025,0.152-0.043,0.236
		c-0.018,0.082-0.027,0.155-0.028,0.217c0,0.062-0.011,0.134-0.029,0.217c-0.018,0.084-0.036,0.168-0.054,0.253
		c-0.017,0.085-0.031,0.164-0.039,0.235c-0.009,0.07-0.019,0.144-0.029,0.217c-0.011,0.074-0.019,0.156-0.025,0.248
		c-0.005,0.092-0.006,0.181-0.003,0.268c0.003,0.088,0.007,0.176,0.011,0.265c0.003,0.089,0.008,0.177,0.015,0.266
		c0.007,0.089,0.008,0.167,0.007,0.237c-0.001,0.068-0.002,0.139-0.003,0.209c-0.002,0.071-0.003,0.143-0.003,0.211
		c-0.002,0.069,0,0.133,0.005,0.191c0.005,0.057,0.007,0.117,0.006,0.18c-0.001,0.061,0.001,0.121,0.007,0.178
		c0.005,0.059,0.012,0.121,0.02,0.188c0.009,0.066,0.015,0.129,0.021,0.188c0.006,0.057,0.012,0.115,0.018,0.176
		c0.006,0.059,0.012,0.117,0.017,0.176c0.006,0.059,0.011,0.115,0.017,0.173c0.004,0.059,0.008,0.128,0.01,0.208
		c0.001,0.079,0.006,0.152,0.014,0.219c0.008,0.067,0.013,0.137,0.014,0.206c0,0.071,0.01,0.134,0.024,0.189
		c0.015,0.056,0.025,0.11,0.03,0.169c0.006,0.059,0.016,0.114,0.031,0.17c0.015,0.055,0.032,0.115,0.05,0.182
		s0.032,0.137,0.042,0.213c0.011,0.076,0.021,0.151,0.032,0.229c0.011,0.077,0.024,0.148,0.043,0.212
		c0.017,0.064,0.03,0.131,0.039,0.199c0.008,0.068,0.02,0.131,0.035,0.186s0.031,0.115,0.048,0.18
		c0.019,0.063,0.03,0.125,0.035,0.184c0.006,0.057,0.017,0.118,0.035,0.184c0.018,0.066,0.03,0.129,0.036,0.187
		c0.005,0.058,0.015,0.114,0.03,0.169c0.015,0.057,0.033,0.121,0.053,0.195c0.021,0.074,0.04,0.145,0.057,0.209
		c0.018,0.064,0.036,0.129,0.054,0.195c0.017,0.066,0.035,0.131,0.054,0.194c0.017,0.064,0.036,0.134,0.056,0.21
		c0.021,0.073,0.038,0.139,0.054,0.193c0.015,0.056,0.03,0.11,0.045,0.166s0.03,0.111,0.045,0.166s0.031,0.115,0.049,0.182
		c0.018,0.066,0.039,0.125,0.064,0.178c0.024,0.054,0.054,0.104,0.088,0.154s0.074,0.104,0.121,0.162
		c0.046,0.059,0.086,0.117,0.121,0.178c0.034,0.059,0.069,0.119,0.106,0.18c0.037,0.061,0.074,0.125,0.114,0.192
		c0.039,0.068,0.077,0.134,0.114,0.192c0.037,0.063,0.072,0.118,0.106,0.168s0.067,0.1,0.099,0.15
		c0.031,0.051,0.064,0.102,0.098,0.152c0.034,0.049,0.084,0.102,0.15,0.154c0.065,0.053,0.128,0.105,0.192,0.156
		c0.062,0.053,0.12,0.101,0.173,0.146c0.053,0.046,0.105,0.09,0.159,0.136c0.053,0.043,0.113,0.098,0.178,0.16
		c0.066,0.063,0.134,0.129,0.204,0.2c0.07,0.069,0.141,0.146,0.211,0.228c0.07,0.08,0.141,0.154,0.211,0.226
		c0.07,0.071,0.144,0.142,0.222,0.21c0.076,0.069,0.151,0.138,0.221,0.207c0.07,0.068,0.142,0.133,0.217,0.193
		c0.075,0.06,0.147,0.121,0.214,0.183c0.068,0.062,0.138,0.118,0.21,0.167c0.073,0.049,0.146,0.098,0.22,0.146
		c0.075,0.049,0.141,0.09,0.199,0.125c0.057,0.033,0.116,0.066,0.176,0.1c0.061,0.033,0.12,0.068,0.177,0.102
		c0.058,0.035,0.118,0.072,0.181,0.117s0.133,0.081,0.209,0.109c0.077,0.029,0.155,0.063,0.234,0.1
		c0.079,0.038,0.166,0.074,0.255,0.109c0.093,0.035,0.183,0.068,0.27,0.104c0.089,0.036,0.177,0.071,0.266,0.106
		s0.177,0.065,0.263,0.092s0.169,0.056,0.249,0.085c0.079,0.03,0.162,0.058,0.248,0.084c0.087,0.025,0.165,0.055,0.234,0.085
		c0.07,0.03,0.138,0.063,0.206,0.095c0.067,0.031,0.134,0.063,0.201,0.094c0.068,0.031,0.13,0.059,0.187,0.082
		c0.057,0.021,0.116,0.05,0.176,0.084c0.06,0.032,0.13,0.07,0.21,0.108c0.08,0.04,0.159,0.079,0.238,0.116
		c0.08,0.038,0.162,0.08,0.246,0.126c0.083,0.046,0.158,0.08,0.223,0.103c0.065,0.023,0.13,0.045,0.195,0.067
		c0.064,0.022,0.13,0.045,0.198,0.067c0.067,0.021,0.132,0.039,0.193,0.051c0.062,0.012,0.132,0.027,0.208,0.046
		c0.077,0.021,0.15,0.03,0.219,0.03s0.135,0.007,0.197,0.021c0.063,0.013,0.129,0.021,0.201,0.021c0.071-0.002,0.141,0,0.211,0.002
		c0.069,0.002,0.14,0.002,0.211,0.002c0.072,0,0.145-0.006,0.223-0.016c0.076-0.012,0.153-0.018,0.231-0.018
		c0.079-0.001,0.157-0.007,0.233-0.018c0.076-0.012,0.153-0.022,0.232-0.034c0.078-0.013,0.155-0.022,0.23-0.034
		c0.076-0.012,0.151-0.027,0.225-0.047c0.074-0.021,0.142-0.039,0.206-0.057c0.065-0.018,0.13-0.035,0.197-0.054
		c0.066-0.018,0.131-0.036,0.195-0.053c0.065-0.019,0.13-0.036,0.197-0.054c0.065-0.018,0.141-0.039,0.224-0.062
		c0.083-0.022,0.166-0.045,0.25-0.067c0.083-0.023,0.171-0.047,0.263-0.072c0.093-0.025,0.186-0.051,0.278-0.075
		c0.093-0.026,0.187-0.052,0.278-0.075c0.093-0.025,0.183-0.06,0.271-0.104c0.088-0.043,0.172-0.08,0.253-0.111
		s0.16-0.069,0.238-0.111c0.078-0.041,0.153-0.078,0.227-0.107c0.073-0.029,0.146-0.059,0.217-0.088
		c0.07-0.029,0.143-0.059,0.214-0.086c0.071-0.029,0.137-0.063,0.198-0.102c0.061-0.037,0.12-0.078,0.177-0.121
		c0.057-0.045,0.116-0.101,0.177-0.166c0.061-0.068,0.123-0.15,0.186-0.247c0.063-0.098,0.107-0.175,0.132-0.231
		c0.025-0.056,0.051-0.113,0.077-0.17c0.025-0.057,0.048-0.117,0.068-0.183c0.021-0.065,0.049-0.127,0.084-0.186
		c0.035-0.06,0.078-0.142,0.128-0.245c0.051-0.104,0.1-0.195,0.147-0.277c0.046-0.082,0.094-0.165,0.142-0.248
		c0.049-0.084,0.09-0.156,0.122-0.215c0.032-0.059,0.065-0.121,0.098-0.189c0.032-0.069,0.065-0.133,0.097-0.191
		c0.033-0.058,0.069-0.107,0.109-0.15c0.04-0.041,0.078-0.086,0.112-0.134c0.036-0.048,0.081-0.104,0.134-0.169
		c0.054-0.063,0.112-0.129,0.173-0.195c0.061-0.066,0.109-0.125,0.146-0.176c0.038-0.05,0.095-0.115,0.173-0.195
		c0.077-0.081,0.145-0.16,0.203-0.236c0.058-0.077,0.111-0.157,0.157-0.238c0.047-0.082,0.073-0.169,0.079-0.26
		c0.006-0.092,0.001-0.164-0.014-0.22s-0.031-0.115-0.049-0.179l-0.025-0.098"/>
	
		<path id="STROKE_31D15316.-C4B2.-47D7.-BF67.-F6078E407BB5" fill="none" stroke="#000000" stroke-width="1.72" stroke-linecap="round" stroke-linejoin="round" d="
		M54.513,85.163c0.114-0.031,0.184-0.075,0.208-0.132c0.026-0.057,0.028-0.122,0.008-0.197c-0.021-0.075-0.038-0.14-0.053-0.195
		c-0.015-0.055-0.032-0.115-0.048-0.179c-0.019-0.063-0.038-0.134-0.058-0.21c-0.02-0.074-0.047-0.137-0.082-0.187
		s-0.072-0.099-0.116-0.146c-0.044-0.048-0.085-0.107-0.124-0.176c-0.04-0.07-0.082-0.133-0.128-0.189s-0.088-0.12-0.125-0.189
		c-0.038-0.071-0.078-0.135-0.125-0.191c-0.045-0.056-0.093-0.117-0.142-0.184c-0.049-0.068-0.092-0.131-0.129-0.19
		c-0.036-0.06-0.076-0.117-0.12-0.176c-0.044-0.06-0.085-0.118-0.121-0.177c-0.037-0.06-0.072-0.115-0.106-0.164
		c-0.034-0.051-0.069-0.102-0.103-0.152c-0.035-0.052-0.082-0.12-0.143-0.203c-0.062-0.083-0.118-0.167-0.172-0.252
		c-0.054-0.084-0.112-0.168-0.176-0.25c-0.063-0.082-0.133-0.156-0.21-0.225c-0.077-0.066-0.137-0.125-0.181-0.174
		c-0.045-0.049-0.112-0.117-0.204-0.201s-0.164-0.148-0.217-0.192c-0.055-0.045-0.108-0.096-0.165-0.151
		c-0.056-0.056-0.109-0.106-0.16-0.152c-0.051-0.045-0.102-0.09-0.156-0.135c-0.053-0.045-0.106-0.095-0.159-0.149
		c-0.054-0.055-0.108-0.11-0.164-0.165c-0.056-0.056-0.111-0.106-0.164-0.151c-0.053-0.045-0.106-0.095-0.159-0.149
		c-0.053-0.055-0.107-0.104-0.16-0.152c-0.054-0.046-0.107-0.092-0.16-0.137c-0.053-0.045-0.105-0.09-0.156-0.136
		c-0.049-0.045-0.102-0.09-0.155-0.135c-0.053-0.045-0.106-0.089-0.159-0.134c-0.054-0.045-0.106-0.091-0.157-0.139
		c-0.051-0.048-0.099-0.095-0.143-0.142c-0.043-0.048-0.088-0.09-0.137-0.127c-0.049-0.036-0.099-0.077-0.151-0.122
		c-0.054-0.045-0.125-0.105-0.214-0.18c-0.09-0.075-0.179-0.141-0.265-0.198c-0.087-0.057-0.177-0.112-0.271-0.165
		c-0.094-0.053-0.183-0.108-0.267-0.165c-0.085-0.057-0.152-0.104-0.203-0.14s-0.105-0.066-0.163-0.091
		c-0.057-0.024-0.139-0.067-0.245-0.128c-0.106-0.062-0.207-0.123-0.303-0.185c-0.096-0.063-0.19-0.116-0.281-0.161
		c-0.091-0.046-0.184-0.091-0.278-0.134c-0.093-0.044-0.181-0.09-0.263-0.138c-0.082-0.049-0.17-0.1-0.264-0.153
		c-0.094-0.053-0.186-0.102-0.277-0.148c-0.091-0.046-0.182-0.086-0.273-0.12c-0.092-0.035-0.187-0.069-0.285-0.101
		c-0.099-0.033-0.19-0.058-0.274-0.075c-0.083-0.017-0.172-0.034-0.265-0.048c-0.094-0.015-0.181-0.021-0.262-0.018
		c-0.081,0.002-0.162,0-0.243-0.008c-0.081-0.009-0.161-0.012-0.24-0.01c-0.078,0.002-0.158-0.001-0.24-0.009
		c-0.081-0.008-0.167-0.015-0.258-0.019c-0.09-0.004-0.182-0.009-0.275-0.014c-0.093-0.005-0.186-0.011-0.277-0.017
		c-0.09-0.005-0.182-0.015-0.275-0.028c-0.093-0.013-0.185-0.021-0.275-0.028c-0.092-0.005-0.178-0.018-0.262-0.035
		c-0.084-0.017-0.167-0.029-0.251-0.035c-0.083-0.006-0.161-0.015-0.233-0.026c-0.071-0.011-0.148-0.02-0.23-0.029
		c-0.081-0.008-0.157-0.012-0.229-0.012c-0.071,0-0.141,0-0.21,0c-0.069-0.001-0.139-0.001-0.208-0.004
		c-0.069-0.002-0.14-0.003-0.211-0.003c-0.072,0.001-0.142,0-0.212-0.002c-0.069-0.003-0.143-0.003-0.221,0
		c-0.079,0.002-0.149,0.002-0.211-0.001c-0.062-0.002-0.123-0.005-0.183-0.01c-0.06-0.005-0.12-0.004-0.179,0.003
		c-0.059,0.007-0.128,0.011-0.207,0.013c-0.078,0.002-0.159,0.015-0.243,0.037c-0.083,0.023-0.153,0.042-0.21,0.059
		c-0.057,0.015-0.127,0.034-0.21,0.057c-0.083,0.023-0.166,0.045-0.249,0.068c-0.083,0.023-0.167,0.045-0.25,0.068
		c-0.083,0.022-0.163,0.044-0.235,0.064c-0.074,0.02-0.147,0.045-0.221,0.075c-0.074,0.029-0.141,0.057-0.203,0.083
		c-0.062,0.027-0.127,0.059-0.196,0.097c-0.069,0.038-0.129,0.074-0.181,0.109c-0.051,0.035-0.109,0.082-0.172,0.138
		c-0.064,0.059-0.123,0.114-0.177,0.166c-0.055,0.054-0.102,0.101-0.141,0.142c-0.04,0.042-0.077,0.087-0.112,0.136
		c-0.035,0.05-0.08,0.108-0.134,0.172c-0.054,0.063-0.097,0.126-0.13,0.184c-0.032,0.059-0.067,0.114-0.104,0.164
		c-0.038,0.05-0.073,0.105-0.105,0.163c-0.033,0.059-0.07,0.124-0.111,0.195c-0.042,0.07-0.08,0.135-0.111,0.193
		c-0.033,0.059-0.071,0.119-0.116,0.181c-0.044,0.062-0.084,0.118-0.119,0.168c-0.035,0.048-0.073,0.11-0.115,0.181
		c-0.042,0.07-0.069,0.137-0.08,0.199c-0.011,0.063-0.027,0.131-0.047,0.206c-0.021,0.075-0.039,0.14-0.054,0.196
		c-0.016,0.056-0.029,0.115-0.04,0.177c-0.011,0.063-0.022,0.13-0.033,0.202c-0.011,0.072-0.022,0.144-0.033,0.218
		c-0.01,0.074-0.022,0.143-0.036,0.205c-0.013,0.063-0.02,0.129-0.019,0.198c0.001,0.068,0.011,0.136,0.029,0.202
		c0.017,0.064,0.03,0.133,0.038,0.199s0.02,0.127,0.035,0.182c0.015,0.057,0.025,0.112,0.031,0.171
		c0.005,0.058,0.016,0.114,0.031,0.172c0.016,0.057,0.028,0.118,0.036,0.187c0.008,0.066,0.019,0.127,0.034,0.183
		c0.015,0.055,0.032,0.115,0.05,0.181c0.019,0.066,0.034,0.127,0.049,0.182c0.015,0.057,0.031,0.115,0.049,0.18
		c0.017,0.064,0.035,0.13,0.053,0.195c0.018,0.066,0.036,0.131,0.053,0.195c0.018,0.064,0.034,0.124,0.049,0.179
		c0.015,0.056,0.031,0.116,0.049,0.183c0.018,0.064,0.046,0.127,0.082,0.188c0.036,0.059,0.068,0.119,0.096,0.184
		c0.027,0.063,0.052,0.121,0.075,0.174c0.021,0.054,0.046,0.111,0.074,0.172c0.027,0.063,0.053,0.119,0.077,0.172
		c0.025,0.053,0.06,0.107,0.106,0.166c0.046,0.059,0.089,0.121,0.128,0.189c0.039,0.067,0.081,0.131,0.128,0.188
		c0.045,0.06,0.093,0.121,0.138,0.188c0.046,0.064,0.093,0.132,0.142,0.198c0.049,0.067,0.101,0.127,0.157,0.182
		c0.055,0.054,0.099,0.106,0.131,0.159c0.032,0.052,0.077,0.11,0.135,0.174c0.058,0.062,0.109,0.118,0.153,0.168
		c0.045,0.048,0.087,0.098,0.128,0.146c0.041,0.048,0.083,0.096,0.127,0.143c0.043,0.049,0.092,0.095,0.145,0.14
		c0.053,0.044,0.103,0.096,0.149,0.153c0.047,0.059,0.098,0.119,0.153,0.184c0.056,0.063,0.111,0.122,0.167,0.178
		c0.056,0.057,0.112,0.115,0.167,0.178c0.055,0.064,0.107,0.13,0.156,0.196c0.049,0.067,0.104,0.138,0.165,0.212
		c0.061,0.072,0.113,0.132,0.156,0.181c0.044,0.046,0.081,0.097,0.113,0.146c0.032,0.051,0.065,0.102,0.099,0.151
		c0.034,0.051,0.075,0.109,0.124,0.176c0.049,0.067,0.098,0.134,0.147,0.201c0.049,0.066,0.089,0.126,0.121,0.178
		c0.031,0.051,0.065,0.105,0.102,0.164c0.036,0.059,0.079,0.122,0.127,0.189c0.049,0.066,0.097,0.133,0.146,0.197
		c0.047,0.066,0.09,0.129,0.125,0.19c0.034,0.062,0.068,0.116,0.102,0.167c0.034,0.05,0.071,0.11,0.11,0.18
		c0.04,0.07,0.067,0.132,0.082,0.188c0.015,0.056,0.031,0.115,0.049,0.179c0.017,0.065,0.035,0.13,0.053,0.196
		c0.018,0.064,0.034,0.125,0.049,0.181c0.016,0.055,0.031,0.11,0.046,0.166c0.015,0.055,0.031,0.115,0.048,0.179
		c0.018,0.064,0.036,0.129,0.054,0.195s0.034,0.127,0.049,0.182c0.016,0.056,0.031,0.116,0.05,0.183
		c0.017,0.065,0.026,0.133,0.024,0.202c-0.001,0.069-0.005,0.146-0.011,0.227c-0.005,0.083-0.017,0.165-0.036,0.249
		c-0.019,0.083-0.031,0.166-0.039,0.249c-0.008,0.082-0.02,0.165-0.036,0.248c-0.016,0.082-0.029,0.16-0.039,0.234
		c-0.011,0.074-0.027,0.144-0.051,0.209c-0.023,0.065-0.044,0.131-0.065,0.195c-0.02,0.065-0.046,0.137-0.075,0.217
		c-0.03,0.078-0.059,0.155-0.086,0.232c-0.028,0.076-0.047,0.15-0.058,0.223c-0.011,0.072-0.029,0.135-0.055,0.193
		c-0.025,0.057-0.043,0.117-0.057,0.182s-0.028,0.139-0.043,0.222c-0.015,0.082-0.035,0.157-0.058,0.225
		c-0.022,0.067-0.039,0.138-0.05,0.209c-0.011,0.072-0.024,0.15-0.04,0.233c-0.015,0.086-0.029,0.16-0.042,0.223
		c-0.015,0.063-0.023,0.125-0.027,0.186c-0.004,0.06-0.015,0.127-0.033,0.201c-0.018,0.073-0.034,0.143-0.047,0.207
		c-0.013,0.065-0.02,0.133-0.022,0.202c0,0.069-0.003,0.138-0.004,0.208c-0.002,0.069-0.002,0.14,0,0.209
		c0.001,0.07,0.007,0.145,0.017,0.219c0.011,0.076,0.02,0.148,0.029,0.217c0.008,0.068,0.012,0.141,0.013,0.221
		c0.001,0.078,0.011,0.15,0.029,0.216c0.018,0.066,0.031,0.132,0.04,0.199c0.006,0.067,0.014,0.13,0.02,0.188
		c0.007,0.061,0.014,0.123,0.021,0.19c0.008,0.067,0.016,0.134,0.024,0.2c0.008,0.066,0.021,0.133,0.04,0.199
		c0.018,0.065,0.035,0.127,0.049,0.182c0.016,0.055,0.034,0.125,0.058,0.208c0.021,0.084,0.044,0.162,0.063,0.235
		c0.02,0.072,0.041,0.146,0.061,0.222c0.02,0.075,0.043,0.163,0.072,0.265c0.028,0.102,0.055,0.203,0.083,0.305
		s0.06,0.203,0.098,0.304s0.078,0.194,0.123,0.282c0.043,0.088,0.078,0.157,0.103,0.211c0.024,0.053,0.06,0.127,0.107,0.223
		c0.046,0.098,0.092,0.189,0.136,0.275c0.044,0.089,0.082,0.158,0.114,0.208c0.032,0.051,0.06,0.104,0.085,0.157
		c0.025,0.056,0.069,0.123,0.132,0.205c0.064,0.084,0.112,0.149,0.146,0.199c0.034,0.051,0.083,0.121,0.146,0.213
		c0.064,0.092,0.138,0.182,0.222,0.268c0.084,0.086,0.148,0.152,0.188,0.201c0.041,0.047,0.103,0.111,0.186,0.188
		c0.083,0.077,0.15,0.139,0.204,0.185c0.054,0.048,0.122,0.099,0.206,0.155c0.084,0.055,0.164,0.092,0.238,0.111
		c0.074,0.021,0.153,0.02,0.236-0.003c0.083-0.023,0.152-0.046,0.207-0.071l0.082-0.036"/>
	
		<path id="STROKE_E157AECD.-BE8F.-4511.-B708.-3B14050CEB89" fill="none" stroke="#000000" stroke-width="1.72" stroke-linecap="round" stroke-linejoin="round" d="
		M50.923,89.666c-0.035-0.132-0.061-0.227-0.076-0.281c-0.015-0.055-0.031-0.115-0.049-0.179c-0.017-0.064-0.037-0.134-0.056-0.208
		c-0.021-0.074-0.041-0.146-0.058-0.209c-0.018-0.064-0.041-0.133-0.071-0.205c-0.03-0.072-0.067-0.141-0.114-0.207
		c-0.046-0.066-0.094-0.132-0.142-0.199c-0.049-0.066-0.103-0.133-0.161-0.197c-0.059-0.064-0.119-0.123-0.182-0.175
		s-0.127-0.104-0.192-0.157c-0.065-0.054-0.134-0.104-0.206-0.153s-0.151-0.097-0.235-0.144c-0.083-0.045-0.166-0.092-0.248-0.142
		c-0.083-0.048-0.164-0.091-0.244-0.13c-0.079-0.037-0.158-0.07-0.237-0.098c-0.079-0.029-0.159-0.047-0.241-0.056
		c-0.081-0.008-0.167-0.015-0.258-0.019c-0.09-0.004-0.189-0.002-0.297,0.006c-0.107,0.009-0.21,0.016-0.307,0.023
		c-0.098,0.008-0.175,0.02-0.232,0.035s-0.14,0.039-0.249,0.067c-0.111,0.03-0.211,0.058-0.303,0.083
		c-0.093,0.025-0.187,0.051-0.282,0.076c-0.095,0.025-0.184,0.05-0.267,0.072c-0.083,0.023-0.166,0.051-0.247,0.081
		c-0.081,0.032-0.155,0.083-0.227,0.151c-0.07,0.069-0.136,0.137-0.197,0.203s-0.116,0.143-0.165,0.226
		c-0.048,0.084-0.097,0.163-0.146,0.235s-0.095,0.141-0.137,0.201c-0.042,0.061-0.079,0.126-0.111,0.193
		c-0.033,0.068-0.069,0.137-0.109,0.207c-0.039,0.071-0.079,0.146-0.118,0.229c-0.039,0.08-0.066,0.168-0.081,0.263
		c-0.015,0.095-0.038,0.199-0.063,0.315c-0.027,0.117-0.046,0.232-0.056,0.344c-0.011,0.112-0.017,0.197-0.018,0.257
		c-0.002,0.06-0.005,0.12-0.009,0.181c-0.004,0.061-0.007,0.141-0.011,0.242c-0.003,0.1,0,0.184,0.008,0.252
		c0.009,0.068,0.011,0.133,0.007,0.194c-0.004,0.06-0.003,0.119,0.002,0.177c0.006,0.059,0.011,0.115,0.017,0.174
		c0.005,0.057,0.012,0.115,0.021,0.174c0.008,0.06,0.023,0.146,0.043,0.258c0.021,0.113,0.04,0.203,0.057,0.267
		c0.018,0.064,0.036,0.149,0.055,0.255c0.018,0.106,0.032,0.213,0.04,0.32c0.009,0.105,0.023,0.197,0.044,0.271
		c0.02,0.076,0.041,0.17,0.061,0.281c0.021,0.113,0.039,0.198,0.054,0.253c0.015,0.056,0.032,0.116,0.049,0.183
		c0.018,0.065,0.037,0.135,0.057,0.207c0.02,0.074,0.04,0.147,0.061,0.223c0.02,0.075,0.041,0.148,0.06,0.222
		c0.02,0.073,0.041,0.147,0.06,0.222c0.021,0.076,0.042,0.15,0.062,0.225c0.021,0.075,0.038,0.141,0.054,0.195
		c0.015,0.056,0.042,0.117,0.081,0.188c0.04,0.069,0.082,0.133,0.128,0.189c0.045,0.056,0.09,0.113,0.134,0.17
		c0.043,0.057,0.093,0.113,0.149,0.169s0.11,0.101,0.16,0.138c0.051,0.035,0.102,0.081,0.156,0.135
		c0.053,0.055,0.11,0.104,0.173,0.146c0.063,0.042,0.123,0.081,0.18,0.114c0.058,0.035,0.117,0.067,0.177,0.102
		c0.06,0.033,0.124,0.066,0.191,0.098s0.136,0.063,0.206,0.094c0.069,0.029,0.144,0.064,0.224,0.104
		c0.079,0.04,0.156,0.068,0.23,0.087s0.154,0.035,0.24,0.053c0.086,0.017,0.172,0.037,0.259,0.063
		c0.086,0.026,0.177,0.052,0.273,0.075c0.096,0.023,0.191,0.048,0.287,0.07c0.096,0.024,0.191,0.043,0.284,0.059
		c0.093,0.016,0.188,0.029,0.283,0.043c0.096,0.014,0.188,0.023,0.28,0.028c0.09,0.003,0.176,0.01,0.257,0.018
		c0.082,0.009,0.164,0.022,0.248,0.039c0.083,0.019,0.168,0.03,0.252,0.038c0.084,0.008,0.154,0.009,0.211,0.003
		c0.057-0.006,0.125-0.01,0.203-0.012l0.118-0.004"/>
	
		<path id="STROKE_724E44DD.-8FBE.-483A.-B286.-0AD57B7C994C" fill="none" stroke="#000000" stroke-width="1.32" stroke-linecap="round" stroke-linejoin="round" d="
		M118.396,67.562c-0.021-0.079-0.036-0.139-0.047-0.18s-0.021-0.084-0.033-0.129c-0.013-0.046-0.023-0.089-0.033-0.128
		c-0.01-0.04-0.021-0.08-0.031-0.12c-0.012-0.041-0.012-0.09,0-0.147c0.01-0.058,0.02-0.115,0.027-0.173
		c0.008-0.059,0.023-0.111,0.043-0.157c0.022-0.046,0.045-0.09,0.068-0.129c0.023-0.04,0.053-0.082,0.09-0.125
		s0.075-0.086,0.114-0.13c0.039-0.043,0.076-0.09,0.112-0.139c0.035-0.049,0.07-0.095,0.107-0.138s0.072-0.083,0.105-0.118
		c0.033-0.035,0.069-0.071,0.107-0.108c0.039-0.038,0.08-0.07,0.121-0.1c0.043-0.029,0.084-0.059,0.125-0.09
		c0.041-0.03,0.082-0.061,0.125-0.09c0.041-0.031,0.082-0.062,0.124-0.09c0.04-0.029,0.083-0.056,0.127-0.08
		s0.091-0.049,0.141-0.073c0.051-0.025,0.101-0.049,0.151-0.073c0.049-0.025,0.099-0.042,0.146-0.053
		c0.047-0.01,0.102-0.022,0.163-0.034c0.062-0.015,0.119-0.027,0.173-0.039c0.053-0.012,0.104-0.023,0.151-0.033
		c0.048-0.011,0.102-0.022,0.164-0.036c0.061-0.013,0.12-0.026,0.175-0.038c0.056-0.012,0.109-0.011,0.162,0.005
		c0.052,0.015,0.104,0.034,0.158,0.058c0.055,0.023,0.105,0.043,0.151,0.061c0.048,0.018,0.094,0.04,0.14,0.065
		c0.047,0.024,0.092,0.043,0.137,0.054c0.045,0.012,0.094,0.029,0.148,0.053c0.055,0.023,0.107,0.038,0.159,0.047
		c0.054,0.009,0.109,0.021,0.171,0.036c0.06,0.015,0.121,0.029,0.184,0.044c0.062,0.015,0.121,0.037,0.177,0.066
		c0.056,0.029,0.106,0.053,0.153,0.071c0.047,0.019,0.098,0.042,0.153,0.071c0.057,0.03,0.102,0.062,0.136,0.096
		c0.034,0.034,0.07,0.068,0.11,0.104c0.04,0.034,0.075,0.069,0.101,0.104c0.025,0.036,0.057,0.078,0.096,0.125
		c0.035,0.046,0.072,0.091,0.107,0.133c0.036,0.042,0.066,0.081,0.09,0.117c0.024,0.037,0.051,0.08,0.082,0.13
		c0.029,0.05,0.057,0.093,0.084,0.128c0.024,0.036,0.047,0.073,0.065,0.111c0.019,0.038,0.04,0.073,0.065,0.109
		c0.026,0.036,0.055,0.076,0.082,0.12c0.027,0.043,0.057,0.089,0.083,0.14c0.026,0.048,0.052,0.099,0.073,0.15
		c0.021,0.051,0.047,0.102,0.078,0.152c0.028,0.05,0.054,0.097,0.073,0.141c0.021,0.044,0.039,0.088,0.059,0.132
		c0.021,0.043,0.036,0.086,0.046,0.127c0.011,0.041,0.021,0.081,0.03,0.12c0.011,0.039,0.022,0.083,0.034,0.128
		c0.011,0.046,0.021,0.089,0.033,0.127c0.01,0.04,0.02,0.081,0.031,0.121c0.01,0.04,0.021,0.084,0.033,0.129
		c0.012,0.046,0.023,0.089,0.032,0.128c0.011,0.039,0.021,0.079,0.031,0.12c0.011,0.041,0.021,0.081,0.031,0.12
		c0.01,0.041,0.021,0.079,0.031,0.119c0.009,0.039,0.021,0.081,0.032,0.127c0.013,0.046,0.023,0.092,0.037,0.139
		c0.011,0.047,0.011,0.096,0,0.147c-0.014,0.051-0.021,0.098-0.027,0.141s-0.01,0.086-0.014,0.13s-0.01,0.091-0.023,0.142
		c-0.012,0.051-0.016,0.1-0.012,0.148c0.004,0.047,0.01,0.102,0.018,0.163s0.012,0.113,0.015,0.154c0.002,0.041,0.002,0.09,0,0.147
		c-0.001,0.057-0.003,0.113-0.003,0.17c0,0.056-0.006,0.113-0.016,0.17c-0.011,0.058-0.018,0.108-0.024,0.152
		c-0.005,0.045-0.011,0.088-0.017,0.131s-0.014,0.086-0.025,0.131c-0.012,0.044-0.02,0.087-0.026,0.13
		c-0.005,0.043-0.014,0.09-0.025,0.144c-0.011,0.052-0.024,0.1-0.038,0.145c-0.014,0.044-0.026,0.089-0.038,0.133
		c-0.011,0.044-0.024,0.088-0.036,0.133c-0.015,0.045-0.025,0.088-0.029,0.131c-0.007,0.043-0.014,0.094-0.024,0.152
		c-0.01,0.059-0.019,0.11-0.022,0.153c-0.006,0.042-0.01,0.091-0.01,0.148c0,0.056-0.006,0.113-0.016,0.17
		c-0.011,0.058-0.019,0.108-0.023,0.151c-0.005,0.044-0.011,0.089-0.018,0.131c-0.004,0.043-0.016,0.094-0.031,0.155
		c-0.016,0.06-0.029,0.118-0.039,0.176c-0.012,0.057-0.02,0.107-0.023,0.15c-0.006,0.043-0.012,0.089-0.015,0.14
		c-0.004,0.05-0.01,0.104-0.019,0.161c-0.009,0.058-0.01,0.11-0.007,0.159c0.005,0.048,0.005,0.094-0.002,0.137
		c-0.006,0.043-0.007,0.085-0.005,0.126c0.003,0.041-0.002,0.084-0.018,0.128c-0.014,0.045-0.029,0.087-0.051,0.127
		c-0.021,0.039-0.037,0.088-0.047,0.147c-0.01,0.059-0.019,0.109-0.024,0.152c-0.005,0.043-0.011,0.086-0.017,0.129
		c-0.006,0.042-0.007,0.085-0.004,0.127c0.002,0.042-0.002,0.088-0.012,0.139c-0.01,0.05-0.017,0.101-0.021,0.151
		c-0.005,0.051-0.008,0.098-0.015,0.141c-0.004,0.042-0.01,0.091-0.012,0.147c-0.002,0.056-0.001,0.108,0.004,0.157
		c0.004,0.048,0.006,0.093,0.008,0.134c0.003,0.042,0.007,0.086,0.01,0.133c0.005,0.048,0.008,0.1,0.006,0.156
		c0,0.057-0.002,0.106-0.008,0.148c-0.006,0.043-0.012,0.086-0.018,0.129c-0.006,0.042-0.01,0.085-0.018,0.13
		c-0.004,0.044-0.006,0.087-0.003,0.128c0.002,0.041,0.003,0.082,0.006,0.123c0.003,0.042,0.007,0.09,0.013,0.145
		c0.005,0.055,0.012,0.106,0.018,0.152c0.006,0.048,0.008,0.1,0.006,0.157s0,0.112,0.006,0.166c0.005,0.054,0.009,0.105,0.014,0.154
		c0.004,0.049,0.011,0.093,0.021,0.132c0.011,0.04,0.021,0.079,0.031,0.118c0.009,0.04,0.016,0.08,0.019,0.121
		c0.002,0.041,0.011,0.089,0.024,0.142c0.013,0.053,0.021,0.101,0.023,0.142c0.002,0.041,0.01,0.084,0.021,0.132
		c0.013,0.046,0.02,0.09,0.021,0.131c0.002,0.042,0.01,0.088,0.023,0.141c0.014,0.052,0.026,0.102,0.039,0.149
		c0.012,0.047,0.021,0.097,0.025,0.151c0.006,0.054,0.014,0.101,0.025,0.142c0.01,0.041,0.021,0.084,0.033,0.13
		c0.012,0.045,0.023,0.092,0.036,0.139c0.011,0.047,0.021,0.097,0.026,0.151c0.006,0.054,0.016,0.107,0.029,0.161
		c0.014,0.053,0.027,0.11,0.043,0.169c0.016,0.06,0.031,0.119,0.045,0.178c0.016,0.058,0.031,0.117,0.047,0.177
		s0.03,0.116,0.045,0.17c0.014,0.053,0.026,0.106,0.04,0.158c0.013,0.052,0.026,0.103,0.038,0.149
		c0.012,0.047,0.025,0.096,0.039,0.148c0.013,0.052,0.025,0.102,0.038,0.148c0.012,0.048,0.021,0.099,0.026,0.151
		c0.006,0.054,0.014,0.104,0.026,0.152c0.013,0.047,0.024,0.097,0.038,0.149c0.016,0.055,0.028,0.104,0.039,0.149
		c0.012,0.046,0.023,0.093,0.036,0.138c0.012,0.045,0.024,0.096,0.038,0.148s0.027,0.107,0.041,0.16
		c0.015,0.053,0.029,0.113,0.047,0.179s0.033,0.133,0.051,0.198c0.017,0.066,0.034,0.133,0.053,0.199
		c0.016,0.066,0.033,0.117,0.051,0.154c0.019,0.038,0.045,0.089,0.077,0.151c0.033,0.063,0.055,0.113,0.065,0.153
		c0.01,0.039,0.023,0.078,0.042,0.115s0.044,0.087,0.077,0.15c0.031,0.063,0.064,0.125,0.098,0.188s0.062,0.123,0.085,0.182
		c0.022,0.059,0.046,0.113,0.067,0.164c0.021,0.052,0.042,0.1,0.061,0.145c0.016,0.045,0.029,0.086,0.041,0.125
		c0.01,0.041,0.025,0.082,0.045,0.127c0.02,0.046,0.039,0.088,0.057,0.125c0.019,0.037,0.039,0.082,0.061,0.135
		c0.021,0.051,0.043,0.102,0.065,0.152c0.021,0.051,0.042,0.102,0.063,0.153c0.021,0.051,0.046,0.108,0.071,0.174
		c0.024,0.063,0.048,0.122,0.069,0.172s0.047,0.101,0.076,0.15s0.049,0.095,0.06,0.134c0.011,0.04,0.026,0.085,0.048,0.137
		c0.021,0.053,0.042,0.101,0.061,0.145c0.017,0.045,0.035,0.089,0.056,0.135c0.02,0.045,0.04,0.093,0.063,0.143
		c0.021,0.052,0.039,0.109,0.057,0.176c0.017,0.065,0.033,0.132,0.051,0.197c0.018,0.066,0.031,0.121,0.042,0.16
		c0.01,0.041,0.024,0.094,0.041,0.161c0.017,0.065,0.035,0.132,0.052,0.198c0.018,0.066,0.037,0.127,0.061,0.184
		s0.042,0.115,0.057,0.176c0.016,0.059,0.03,0.115,0.044,0.168c0.014,0.055,0.026,0.101,0.036,0.139
		c0.01,0.041,0.021,0.08,0.031,0.12c0.01,0.038,0.02,0.079,0.031,0.12c0.01,0.041,0.021,0.087,0.035,0.139s0.026,0.102,0.038,0.148
		s0.026,0.101,0.042,0.158c0.015,0.059,0.029,0.117,0.045,0.177c0.016,0.061,0.026,0.118,0.032,0.173
		c0.007,0.056,0.011,0.109,0.017,0.164c0.006,0.054,0.01,0.105,0.016,0.153c0.004,0.05,0.008,0.093,0.012,0.135
		c0.006,0.04,0.008,0.081,0.01,0.122s0.006,0.09,0.013,0.145c0.006,0.055,0.013,0.104,0.023,0.143s0.019,0.082,0.022,0.131
		c0.004,0.05,0.004,0.099,0,0.147s-0.012,0.103-0.021,0.162s-0.019,0.116-0.026,0.173c-0.01,0.057-0.017,0.107-0.021,0.15
		c-0.006,0.043-0.012,0.088-0.016,0.14c-0.004,0.05-0.004,0.099,0,0.147c0.005,0.047,0.005,0.096,0,0.146
		c-0.004,0.051-0.008,0.1-0.01,0.148c-0.006,0.05-0.01,0.096-0.012,0.139c-0.005,0.042-0.008,0.092-0.01,0.148
		s-0.008,0.115-0.019,0.172s-0.024,0.113-0.045,0.166c-0.02,0.055-0.034,0.104-0.047,0.147c-0.011,0.044-0.027,0.089-0.05,0.136
		c-0.021,0.047-0.044,0.1-0.068,0.162c-0.023,0.061-0.047,0.112-0.07,0.152c-0.023,0.039-0.049,0.084-0.078,0.132
		s-0.054,0.095-0.074,0.142c-0.02,0.045-0.035,0.092-0.049,0.138c-0.013,0.045-0.031,0.088-0.055,0.128s-0.049,0.081-0.078,0.122
		s-0.059,0.083-0.092,0.124c-0.03,0.042-0.062,0.08-0.093,0.114c-0.03,0.032-0.064,0.075-0.102,0.126s-0.071,0.094-0.103,0.127
		s-0.063,0.068-0.096,0.104c-0.033,0.036-0.066,0.078-0.102,0.127c-0.037,0.051-0.069,0.096-0.101,0.137
		c-0.03,0.043-0.069,0.086-0.114,0.131c-0.045,0.043-0.087,0.085-0.129,0.121c-0.039,0.037-0.082,0.078-0.128,0.123
		c-0.045,0.045-0.088,0.082-0.128,0.113c-0.039,0.03-0.084,0.065-0.133,0.104c-0.049,0.039-0.098,0.074-0.146,0.104
		c-0.048,0.03-0.09,0.061-0.125,0.089c-0.033,0.029-0.072,0.059-0.111,0.087c-0.041,0.03-0.082,0.056-0.124,0.081
		c-0.042,0.023-0.089,0.047-0.142,0.072s-0.105,0.043-0.158,0.055c-0.055,0.013-0.103,0.026-0.149,0.043
		c-0.046,0.017-0.096,0.03-0.149,0.043c-0.053,0.012-0.105,0.027-0.158,0.045c-0.051,0.021-0.104,0.037-0.16,0.049
		c-0.055,0.012-0.114,0.025-0.176,0.037c-0.062,0.015-0.117,0.029-0.17,0.048c-0.051,0.018-0.101,0.036-0.146,0.052
		c-0.047,0.018-0.115,0.036-0.208,0.056c-0.095,0.021-0.167,0.036-0.22,0.048c-0.055,0.012-0.111,0.024-0.174,0.039
		c-0.061,0.013-0.115,0.024-0.162,0.035c-0.049,0.01-0.098,0.021-0.152,0.033c-0.053,0.011-0.104,0.021-0.15,0.033
		c-0.049,0.01-0.1,0.021-0.152,0.033c-0.055,0.012-0.104,0.02-0.151,0.022c-0.048,0.004-0.097,0.004-0.147,0
		c-0.051-0.003-0.102-0.01-0.153-0.019c-0.05-0.01-0.102-0.02-0.155-0.029c-0.052-0.01-0.103-0.016-0.151-0.02
		c-0.05-0.002-0.099-0.016-0.146-0.039c-0.049-0.025-0.096-0.049-0.143-0.074c-0.045-0.025-0.092-0.047-0.138-0.064
		c-0.048-0.019-0.089-0.041-0.128-0.066c-0.039-0.027-0.082-0.053-0.129-0.077c-0.049-0.024-0.098-0.052-0.145-0.083
		c-0.049-0.031-0.094-0.063-0.135-0.096c-0.043-0.032-0.09-0.074-0.146-0.125s-0.101-0.102-0.136-0.149
		c-0.036-0.049-0.074-0.104-0.115-0.165s-0.074-0.109-0.101-0.145c-0.025-0.036-0.063-0.091-0.114-0.162
		c-0.051-0.073-0.092-0.127-0.126-0.162c-0.035-0.035-0.069-0.07-0.103-0.104c-0.034-0.034-0.069-0.071-0.104-0.112l-0.054-0.061"/>
</g>
</svg>
