<?xml version="1.0" encoding="UTF-8" standalone="no"?><!DOCTYPE svg PUBLIC "-//W3C//DTD SVG 1.1//EN" "http://www.w3.org/Graphics/SVG/1.1/DTD/svg11.dtd"><svg width="100%" height="100%" viewBox="0 0 160 160" version="1.1" xmlns="http://www.w3.org/2000/svg" xmlns:xlink="http://www.w3.org/1999/xlink" xml:space="preserve" style="fill-rule:evenodd;clip-rule:evenodd;stroke-linecap:round;stroke-linejoin:round;"><g id="accessory"><g id="leaf"><path id="STROKE_1AAC6D22.-3928.-4A19.-BC24.-CE4F68A22F1B" d="M55.628,89.133c0.118,0.015 0.205,0.025 0.261,0.032c0.057,0.007 0.102,-0.024 0.136,-0.095c0.035,-0.071 0.057,-0.147 0.067,-0.229c0.01,-0.081 0.011,-0.155 0.002,-0.222c-0.008,-0.066 -0.025,-0.135 -0.051,-0.205c-0.025,-0.07 -0.053,-0.14 -0.085,-0.211c-0.031,-0.071 -0.06,-0.141 -0.085,-0.21c-0.026,-0.068 -0.05,-0.141 -0.072,-0.219c-0.022,-0.078 -0.045,-0.156 -0.07,-0.234c-0.024,-0.078 -0.049,-0.152 -0.074,-0.222c-0.025,-0.07 -0.058,-0.144 -0.097,-0.223c-0.039,-0.078 -0.079,-0.161 -0.119,-0.249c-0.04,-0.088 -0.079,-0.176 -0.117,-0.263c-0.038,-0.088 -0.074,-0.155 -0.109,-0.201c-0.035,-0.046 -0.066,-0.096 -0.093,-0.15c-0.027,-0.055 -0.054,-0.108 -0.082,-0.161c-0.027,-0.053 -0.057,-0.11 -0.09,-0.172c-0.033,-0.061 -0.067,-0.119 -0.103,-0.173c-0.036,-0.054 -0.07,-0.112 -0.102,-0.175c-0.033,-0.063 -0.067,-0.126 -0.102,-0.188c-0.034,-0.061 -0.072,-0.124 -0.113,-0.189c-0.041,-0.064 -0.079,-0.127 -0.114,-0.188c-0.035,-0.062 -0.073,-0.124 -0.114,-0.187c-0.041,-0.062 -0.083,-0.126 -0.126,-0.19c-0.043,-0.065 -0.081,-0.124 -0.115,-0.177c-0.034,-0.054 -0.073,-0.108 -0.117,-0.163c-0.044,-0.055 -0.087,-0.111 -0.129,-0.167c-0.042,-0.057 -0.081,-0.112 -0.117,-0.165c-0.036,-0.054 -0.075,-0.109 -0.117,-0.164c-0.042,-0.054 -0.081,-0.104 -0.118,-0.15c-0.037,-0.047 -0.073,-0.093 -0.107,-0.138c-0.035,-0.046 -0.075,-0.093 -0.12,-0.14c-0.045,-0.047 -0.085,-0.093 -0.12,-0.139c-0.035,-0.046 -0.07,-0.092 -0.107,-0.138c-0.037,-0.046 -0.092,-0.111 -0.164,-0.195c-0.073,-0.084 -0.126,-0.149 -0.161,-0.195c-0.035,-0.045 -0.07,-0.091 -0.107,-0.138c-0.037,-0.046 -0.073,-0.091 -0.107,-0.137c-0.035,-0.046 -0.075,-0.093 -0.12,-0.14c-0.045,-0.047 -0.085,-0.097 -0.119,-0.151c-0.033,-0.054 -0.073,-0.104 -0.118,-0.151c-0.045,-0.047 -0.089,-0.094 -0.132,-0.141c-0.043,-0.047 -0.087,-0.094 -0.133,-0.141c-0.045,-0.047 -0.089,-0.094 -0.132,-0.141c-0.043,-0.047 -0.087,-0.094 -0.132,-0.141c-0.046,-0.047 -0.09,-0.09 -0.134,-0.129c-0.044,-0.039 -0.09,-0.078 -0.136,-0.117c-0.046,-0.04 -0.11,-0.097 -0.192,-0.172c-0.082,-0.076 -0.145,-0.134 -0.189,-0.172c-0.044,-0.04 -0.088,-0.079 -0.132,-0.118c-0.044,-0.039 -0.093,-0.082 -0.147,-0.13c-0.053,-0.048 -0.102,-0.092 -0.146,-0.131c-0.044,-0.039 -0.093,-0.083 -0.146,-0.131c-0.054,-0.048 -0.107,-0.092 -0.16,-0.132c-0.052,-0.04 -0.108,-0.085 -0.168,-0.134c-0.06,-0.048 -0.116,-0.097 -0.17,-0.145c-0.053,-0.048 -0.102,-0.096 -0.145,-0.143c-0.043,-0.046 -0.091,-0.089 -0.144,-0.128c-0.052,-0.038 -0.124,-0.096 -0.214,-0.175c-0.09,-0.078 -0.172,-0.155 -0.245,-0.231c-0.074,-0.076 -0.134,-0.133 -0.18,-0.171c-0.046,-0.038 -0.115,-0.096 -0.205,-0.174c-0.09,-0.078 -0.162,-0.133 -0.216,-0.166c-0.053,-0.032 -0.101,-0.071 -0.144,-0.118c-0.043,-0.047 -0.097,-0.086 -0.161,-0.118c-0.064,-0.032 -0.118,-0.068 -0.162,-0.107c-0.044,-0.039 -0.094,-0.078 -0.148,-0.119c-0.055,-0.04 -0.127,-0.09 -0.217,-0.151c-0.091,-0.061 -0.163,-0.107 -0.219,-0.14c-0.056,-0.032 -0.126,-0.075 -0.211,-0.127c-0.085,-0.052 -0.154,-0.089 -0.209,-0.112c-0.055,-0.023 -0.129,-0.061 -0.222,-0.114c-0.093,-0.053 -0.187,-0.102 -0.281,-0.147c-0.095,-0.046 -0.189,-0.091 -0.284,-0.136c-0.094,-0.045 -0.192,-0.091 -0.295,-0.137c-0.103,-0.047 -0.205,-0.088 -0.307,-0.125c-0.102,-0.036 -0.204,-0.078 -0.307,-0.124c-0.102,-0.046 -0.182,-0.081 -0.239,-0.104c-0.056,-0.023 -0.112,-0.047 -0.166,-0.071c-0.055,-0.024 -0.109,-0.048 -0.164,-0.071c-0.054,-0.023 -0.11,-0.046 -0.166,-0.071c-0.057,-0.024 -0.112,-0.048 -0.167,-0.071c-0.054,-0.023 -0.109,-0.045 -0.164,-0.068c-0.054,-0.023 -0.11,-0.047 -0.167,-0.071c-0.056,-0.025 -0.112,-0.044 -0.167,-0.059c-0.056,-0.015 -0.111,-0.034 -0.166,-0.057c-0.054,-0.023 -0.11,-0.046 -0.166,-0.071c-0.057,-0.025 -0.112,-0.048 -0.167,-0.071c-0.054,-0.023 -0.113,-0.047 -0.176,-0.072c-0.063,-0.026 -0.127,-0.05 -0.192,-0.074c-0.065,-0.024 -0.125,-0.048 -0.179,-0.071c-0.055,-0.022 -0.113,-0.046 -0.176,-0.072c-0.063,-0.025 -0.126,-0.05 -0.189,-0.074c-0.063,-0.023 -0.122,-0.051 -0.178,-0.084c-0.055,-0.032 -0.114,-0.06 -0.177,-0.084c-0.063,-0.024 -0.122,-0.048 -0.177,-0.072c-0.054,-0.025 -0.109,-0.049 -0.166,-0.071c-0.057,-0.023 -0.112,-0.046 -0.167,-0.069c-0.055,-0.023 -0.133,-0.058 -0.236,-0.104c-0.103,-0.046 -0.181,-0.081 -0.236,-0.106c-0.054,-0.024 -0.133,-0.055 -0.237,-0.091c-0.104,-0.037 -0.183,-0.064 -0.239,-0.081c-0.055,-0.016 -0.111,-0.036 -0.168,-0.059c-0.057,-0.023 -0.113,-0.042 -0.168,-0.057c-0.056,-0.015 -0.112,-0.029 -0.167,-0.044c-0.056,-0.015 -0.135,-0.042 -0.239,-0.081c-0.104,-0.038 -0.189,-0.065 -0.255,-0.081c-0.066,-0.017 -0.126,-0.032 -0.182,-0.047c-0.056,-0.015 -0.115,-0.031 -0.179,-0.049c-0.064,-0.017 -0.127,-0.038 -0.19,-0.062c-0.063,-0.024 -0.132,-0.044 -0.206,-0.061c-0.075,-0.018 -0.143,-0.039 -0.206,-0.064c-0.063,-0.026 -0.13,-0.051 -0.201,-0.075c-0.072,-0.025 -0.147,-0.051 -0.227,-0.077c-0.08,-0.026 -0.155,-0.052 -0.226,-0.078c-0.071,-0.027 -0.138,-0.052 -0.201,-0.075c-0.063,-0.024 -0.131,-0.05 -0.205,-0.076c-0.073,-0.027 -0.141,-0.052 -0.204,-0.076c-0.063,-0.024 -0.126,-0.048 -0.189,-0.071c-0.063,-0.024 -0.126,-0.049 -0.188,-0.074c-0.063,-0.025 -0.123,-0.046 -0.181,-0.061c-0.058,-0.015 -0.119,-0.031 -0.183,-0.047c-0.064,-0.016 -0.123,-0.031 -0.179,-0.046c-0.055,-0.015 -0.112,-0.031 -0.17,-0.048c-0.057,-0.016 -0.118,-0.032 -0.182,-0.048c-0.063,-0.016 -0.123,-0.032 -0.179,-0.047c-0.056,-0.015 -0.113,-0.026 -0.171,-0.033c-0.059,-0.007 -0.116,-0.018 -0.171,-0.033c-0.056,-0.015 -0.112,-0.03 -0.167,-0.045c-0.056,-0.015 -0.113,-0.026 -0.172,-0.033c-0.058,-0.008 -0.119,-0.02 -0.183,-0.038c-0.064,-0.017 -0.124,-0.033 -0.179,-0.048c-0.056,-0.015 -0.112,-0.03 -0.17,-0.045c-0.058,-0.016 -0.115,-0.027 -0.172,-0.034c-0.056,-0.007 -0.116,-0.018 -0.18,-0.034c-0.064,-0.016 -0.125,-0.032 -0.182,-0.047c-0.058,-0.015 -0.119,-0.031 -0.183,-0.049c-0.063,-0.017 -0.123,-0.034 -0.179,-0.049c-0.055,-0.014 -0.112,-0.029 -0.169,-0.045c-0.058,-0.015 -0.115,-0.03 -0.17,-0.045c-0.056,-0.015 -0.116,-0.03 -0.18,-0.046c-0.064,-0.016 -0.124,-0.032 -0.182,-0.049c-0.057,-0.017 -0.114,-0.033 -0.169,-0.047c-0.056,-0.015 -0.116,-0.031 -0.18,-0.047c-0.064,-0.016 -0.124,-0.031 -0.182,-0.047c-0.058,-0.015 -0.119,-0.03 -0.182,-0.046c-0.064,-0.016 -0.124,-0.036 -0.178,-0.061c-0.055,-0.024 -0.114,-0.044 -0.178,-0.06c-0.064,-0.016 -0.124,-0.031 -0.182,-0.047c-0.058,-0.015 -0.119,-0.03 -0.182,-0.046c-0.064,-0.016 -0.124,-0.032 -0.179,-0.049c-0.056,-0.016 -0.112,-0.032 -0.17,-0.048c-0.058,-0.015 -0.114,-0.03 -0.17,-0.044c-0.055,-0.015 -0.112,-0.03 -0.17,-0.046c-0.057,-0.015 -0.114,-0.026 -0.171,-0.033c-0.057,-0.007 -0.113,-0.018 -0.168,-0.033c-0.056,-0.015 -0.116,-0.031 -0.179,-0.048c-0.064,-0.018 -0.129,-0.031 -0.196,-0.039c-0.067,-0.009 -0.157,-0.024 -0.269,-0.046c-0.112,-0.022 -0.197,-0.04 -0.255,-0.056c-0.058,-0.015 -0.119,-0.026 -0.184,-0.034c-0.065,-0.008 -0.125,-0.02 -0.18,-0.035c-0.056,-0.015 -0.113,-0.026 -0.172,-0.033c-0.058,-0.008 -0.115,-0.019 -0.171,-0.033c-0.056,-0.015 -0.112,-0.026 -0.168,-0.033c-0.057,-0.007 -0.118,-0.02 -0.184,-0.038c-0.066,-0.018 -0.127,-0.03 -0.184,-0.037c-0.056,-0.007 -0.116,-0.018 -0.18,-0.034c-0.064,-0.016 -0.13,-0.029 -0.197,-0.037c-0.067,-0.008 -0.132,-0.02 -0.196,-0.036c-0.064,-0.016 -0.128,-0.032 -0.192,-0.048c-0.064,-0.016 -0.128,-0.028 -0.193,-0.036c-0.065,-0.008 -0.131,-0.02 -0.197,-0.037c-0.066,-0.016 -0.131,-0.033 -0.194,-0.05c-0.064,-0.018 -0.128,-0.035 -0.192,-0.051c-0.064,-0.016 -0.128,-0.031 -0.192,-0.047c-0.064,-0.016 -0.124,-0.036 -0.181,-0.059c-0.057,-0.023 -0.117,-0.043 -0.181,-0.061c-0.063,-0.017 -0.123,-0.037 -0.177,-0.06c-0.055,-0.023 -0.11,-0.046 -0.167,-0.069c-0.057,-0.023 -0.117,-0.043 -0.181,-0.061c-0.063,-0.017 -0.123,-0.037 -0.177,-0.06c-0.055,-0.023 -0.115,-0.046 -0.18,-0.07c-0.065,-0.024 -0.124,-0.049 -0.179,-0.073c-0.054,-0.024 -0.109,-0.044 -0.165,-0.059c-0.055,-0.015 -0.135,-0.041 -0.239,-0.08c-0.103,-0.038 -0.203,-0.075 -0.299,-0.111c-0.095,-0.036 -0.186,-0.072 -0.273,-0.108c-0.087,-0.037 -0.182,-0.074 -0.286,-0.112c-0.104,-0.039 -0.202,-0.085 -0.296,-0.138c-0.093,-0.053 -0.167,-0.091 -0.222,-0.114c-0.054,-0.023 -0.132,-0.065 -0.233,-0.127c-0.1,-0.062 -0.197,-0.12 -0.291,-0.173c-0.093,-0.053 -0.167,-0.095 -0.22,-0.128c-0.053,-0.032 -0.126,-0.078 -0.218,-0.139c-0.093,-0.061 -0.178,-0.113 -0.255,-0.156c-0.078,-0.044 -0.155,-0.091 -0.232,-0.142c-0.076,-0.051 -0.157,-0.106 -0.241,-0.166c-0.084,-0.06 -0.164,-0.116 -0.24,-0.167c-0.077,-0.051 -0.158,-0.102 -0.243,-0.154c-0.085,-0.053 -0.165,-0.108 -0.241,-0.167c-0.075,-0.059 -0.155,-0.118 -0.239,-0.178c-0.084,-0.06 -0.169,-0.116 -0.254,-0.168c-0.085,-0.052 -0.165,-0.104 -0.242,-0.155c-0.076,-0.051 -0.154,-0.098 -0.231,-0.141c-0.078,-0.043 -0.148,-0.085 -0.211,-0.127c-0.063,-0.041 -0.125,-0.082 -0.185,-0.123c-0.061,-0.041 -0.118,-0.082 -0.171,-0.122c-0.052,-0.04 -0.109,-0.08 -0.17,-0.119c-0.061,-0.04 -0.122,-0.084 -0.184,-0.133c-0.062,-0.05 -0.131,-0.105 -0.206,-0.165c-0.076,-0.06 -0.155,-0.12 -0.239,-0.18c-0.084,-0.06 -0.172,-0.125 -0.263,-0.194c-0.092,-0.068 -0.183,-0.138 -0.274,-0.208c-0.091,-0.071 -0.179,-0.136 -0.263,-0.196c-0.084,-0.06 -0.16,-0.115 -0.228,-0.165c-0.068,-0.05 -0.132,-0.099 -0.192,-0.148c-0.06,-0.049 -0.112,-0.093 -0.156,-0.132c-0.044,-0.039 -0.093,-0.083 -0.147,-0.131c-0.053,-0.048 -0.097,-0.099 -0.131,-0.152c-0.033,-0.054 -0.068,-0.104 -0.105,-0.15c-0.037,-0.046 -0.081,-0.097 -0.131,-0.153c-0.051,-0.055 -0.105,-0.117 -0.162,-0.183c-0.058,-0.066 -0.121,-0.132 -0.19,-0.198c-0.068,-0.066 -0.139,-0.132 -0.214,-0.199c-0.075,-0.067 -0.145,-0.134 -0.211,-0.201c-0.066,-0.067 -0.124,-0.133 -0.173,-0.196c-0.05,-0.064 -0.092,-0.123 -0.128,-0.179c-0.036,-0.055 -0.069,-0.122 -0.1,-0.199c-0.031,-0.077 -0.055,-0.146 -0.073,-0.208c-0.018,-0.061 -0.035,-0.125 -0.052,-0.193c-0.017,-0.067 -0.034,-0.132 -0.049,-0.193c-0.016,-0.061 -0.045,-0.127 -0.088,-0.197c-0.042,-0.071 -0.077,-0.134 -0.104,-0.188c-0.027,-0.054 -0.053,-0.112 -0.077,-0.172c-0.025,-0.061 -0.05,-0.121 -0.077,-0.182c-0.026,-0.061 -0.052,-0.118 -0.077,-0.172c-0.025,-0.055 -0.042,-0.111 -0.052,-0.17c-0.01,-0.058 -0.039,-0.066 -0.087,-0.023c-0.048,0.044 -0.076,0.103 -0.085,0.176l-0.118,0.946c-0.008,0.065 -0.008,0.132 0,0.198c0.009,0.067 0.017,0.138 0.025,0.214c0.007,0.076 0.011,0.147 0.012,0.214c0,0.067 -0.001,0.138 -0.002,0.213c0,0.075 -0.001,0.149 -0.002,0.222c0,0.074 -0.001,0.14 -0.002,0.199c-0.001,0.058 -0.001,0.117 0.001,0.174c0.001,0.058 0.002,0.116 0.003,0.175c0.001,0.06 -0.002,0.117 -0.009,0.174c-0.007,0.057 -0.011,0.122 -0.012,0.197c0,0.075 -0.005,0.149 -0.015,0.223l-0.054,0.439c-0.009,0.073 -0.015,0.152 -0.017,0.234c-0.002,0.083 -0.002,0.154 -0.001,0.213c0.001,0.059 0.006,0.122 0.015,0.189c0.009,0.066 0.013,0.133 0.013,0.2c0,0.067 0.004,0.138 0.012,0.214c0.008,0.076 0.01,0.152 0.007,0.226c-0.003,0.075 -0.001,0.149 0.007,0.224c0.008,0.074 0.012,0.145 0.012,0.212c0,0.067 0.001,0.129 0.002,0.187c0.001,0.057 -0.001,0.115 -0.009,0.173c-0.007,0.058 -0.011,0.125 -0.012,0.2c-0.001,0.074 -0.001,0.149 -0.002,0.222c-0.001,0.073 -0.005,0.143 -0.013,0.209c-0.008,0.066 -0.012,0.128 -0.011,0.185c0.002,0.058 0.007,0.121 0.015,0.189c0.009,0.068 0.016,0.14 0.021,0.216c0.006,0.075 0.012,0.151 0.02,0.227c0.007,0.076 0.015,0.147 0.024,0.213c0.009,0.067 0.013,0.138 0.012,0.213c-0.001,0.074 0.003,0.146 0.012,0.214c0.008,0.068 0.012,0.135 0.013,0.2c0,0.065 0.003,0.132 0.01,0.2c0.006,0.068 0.014,0.136 0.023,0.204c0.008,0.068 0.017,0.135 0.025,0.202c0.009,0.066 0.018,0.133 0.026,0.202c0.009,0.068 0.017,0.139 0.024,0.215c0.008,0.076 0.016,0.152 0.023,0.226c0.008,0.074 0.018,0.154 0.031,0.24c0.013,0.087 0.026,0.176 0.04,0.269c0.014,0.093 0.032,0.186 0.054,0.279c0.023,0.094 0.044,0.188 0.064,0.281c0.02,0.094 0.042,0.187 0.064,0.281c0.022,0.094 0.045,0.188 0.067,0.283c0.022,0.096 0.044,0.186 0.065,0.272c0.021,0.085 0.039,0.174 0.053,0.267c0.014,0.093 0.029,0.178 0.045,0.254c0.016,0.077 0.031,0.154 0.044,0.229c0.014,0.075 0.03,0.147 0.047,0.216c0.017,0.069 0.033,0.142 0.049,0.219c0.016,0.077 0.031,0.154 0.045,0.231c0.014,0.076 0.032,0.158 0.056,0.244c0.023,0.086 0.05,0.18 0.079,0.282c0.03,0.103 0.058,0.21 0.085,0.322c0.026,0.112 0.048,0.197 0.066,0.257c0.018,0.06 0.036,0.12 0.054,0.181c0.018,0.062 0.035,0.122 0.051,0.182c0.016,0.059 0.033,0.118 0.051,0.178c0.018,0.06 0.036,0.12 0.054,0.182c0.018,0.061 0.032,0.121 0.041,0.18c0.01,0.058 0.023,0.118 0.039,0.179c0.016,0.061 0.033,0.121 0.051,0.181c0.018,0.06 0.045,0.146 0.082,0.259c0.037,0.113 0.07,0.221 0.097,0.323c0.028,0.103 0.056,0.206 0.086,0.31c0.03,0.104 0.058,0.208 0.086,0.31c0.028,0.102 0.052,0.2 0.075,0.294c0.022,0.094 0.048,0.184 0.078,0.271c0.029,0.086 0.06,0.177 0.09,0.272c0.031,0.095 0.06,0.19 0.089,0.286c0.028,0.096 0.055,0.183 0.079,0.261c0.024,0.078 0.049,0.155 0.073,0.232c0.025,0.076 0.048,0.157 0.069,0.243c0.021,0.085 0.048,0.168 0.081,0.247c0.032,0.079 0.06,0.157 0.082,0.235c0.022,0.078 0.05,0.156 0.082,0.235c0.033,0.079 0.069,0.154 0.11,0.225c0.04,0.07 0.077,0.137 0.112,0.2c0.034,0.063 0.068,0.13 0.099,0.199c0.032,0.069 0.061,0.135 0.088,0.198c0.026,0.062 0.057,0.124 0.091,0.186c0.035,0.061 0.065,0.123 0.089,0.186c0.024,0.062 0.049,0.127 0.074,0.196c0.026,0.068 0.052,0.133 0.078,0.196c0.026,0.062 0.055,0.128 0.087,0.197c0.032,0.069 0.06,0.139 0.086,0.21c0.025,0.07 0.053,0.14 0.085,0.211c0.031,0.071 0.06,0.141 0.085,0.209c0.026,0.069 0.058,0.143 0.097,0.223c0.039,0.08 0.075,0.155 0.109,0.226c0.034,0.072 0.066,0.142 0.098,0.212c0.032,0.069 0.064,0.143 0.097,0.222c0.032,0.079 0.061,0.154 0.087,0.224c0.025,0.07 0.054,0.136 0.087,0.197c0.033,0.062 0.062,0.128 0.087,0.198c0.025,0.07 0.057,0.144 0.096,0.222c0.04,0.079 0.079,0.163 0.119,0.252c0.04,0.09 0.083,0.179 0.129,0.268c0.047,0.088 0.097,0.182 0.151,0.279c0.054,0.098 0.101,0.187 0.142,0.267c0.041,0.08 0.085,0.16 0.133,0.239c0.047,0.079 0.088,0.151 0.123,0.214c0.035,0.063 0.069,0.122 0.103,0.175c0.034,0.054 0.064,0.107 0.091,0.16c0.028,0.053 0.059,0.102 0.094,0.148c0.034,0.046 0.07,0.096 0.105,0.15c0.036,0.054 0.075,0.109 0.117,0.165c0.042,0.056 0.085,0.116 0.128,0.179c0.043,0.063 0.09,0.122 0.14,0.178c0.051,0.055 0.101,0.116 0.15,0.181c0.049,0.065 0.096,0.129 0.139,0.192c0.043,0.063 0.086,0.118 0.129,0.165c0.043,0.046 0.087,0.097 0.131,0.152c0.044,0.055 0.088,0.106 0.131,0.153c0.043,0.047 0.093,0.103 0.151,0.17c0.058,0.066 0.105,0.122 0.142,0.168c0.037,0.046 0.077,0.092 0.12,0.139c0.043,0.047 0.09,0.103 0.142,0.166c0.051,0.064 0.101,0.133 0.15,0.206c0.048,0.073 0.101,0.146 0.158,0.218c0.056,0.073 0.111,0.141 0.162,0.207c0.051,0.065 0.106,0.13 0.164,0.195c0.058,0.065 0.111,0.13 0.161,0.195c0.049,0.065 0.1,0.126 0.152,0.182c0.053,0.056 0.105,0.108 0.157,0.155c0.051,0.048 0.099,0.096 0.144,0.143c0.046,0.047 0.09,0.09 0.134,0.129c0.045,0.039 0.085,0.082 0.122,0.128c0.036,0.046 0.076,0.092 0.12,0.139c0.042,0.047 0.093,0.099 0.152,0.155c0.059,0.057 0.117,0.123 0.174,0.197c0.056,0.074 0.118,0.148 0.186,0.222c0.067,0.073 0.134,0.144 0.2,0.211c0.066,0.067 0.132,0.134 0.198,0.2c0.067,0.065 0.129,0.127 0.188,0.183c0.059,0.057 0.122,0.114 0.189,0.172c0.068,0.058 0.128,0.107 0.183,0.147c0.054,0.041 0.103,0.084 0.146,0.131c0.043,0.047 0.088,0.09 0.134,0.129c0.046,0.04 0.091,0.079 0.136,0.118c0.044,0.039 0.095,0.087 0.154,0.143c0.059,0.057 0.111,0.109 0.156,0.156c0.045,0.047 0.09,0.09 0.134,0.13c0.044,0.038 0.089,0.078 0.135,0.117c0.046,0.039 0.096,0.074 0.15,0.105c0.053,0.03 0.106,0.07 0.158,0.117c0.051,0.048 0.107,0.102 0.168,0.16c0.06,0.059 0.121,0.113 0.181,0.161c0.059,0.049 0.127,0.103 0.203,0.162c0.075,0.059 0.144,0.109 0.205,0.15c0.06,0.041 0.119,0.077 0.174,0.108c0.056,0.031 0.111,0.063 0.164,0.095c0.053,0.032 0.115,0.064 0.186,0.097c0.07,0.033 0.141,0.062 0.212,0.089c0.071,0.026 0.146,0.056 0.225,0.09c0.079,0.034 0.15,0.067 0.214,0.101c0.064,0.033 0.126,0.071 0.187,0.112c0.061,0.041 0.121,0.082 0.182,0.123c0.061,0.041 0.122,0.081 0.183,0.121c0.061,0.039 0.123,0.08 0.186,0.121c0.063,0.042 0.121,0.078 0.175,0.11c0.053,0.032 0.106,0.064 0.16,0.094c0.054,0.031 0.116,0.068 0.187,0.11c0.072,0.043 0.138,0.084 0.198,0.125c0.061,0.041 0.122,0.083 0.183,0.124c0.061,0.041 0.118,0.076 0.172,0.107c0.053,0.031 0.108,0.058 0.165,0.083c0.056,0.025 0.116,0.045 0.18,0.061c0.064,0.016 0.132,0.036 0.203,0.061c0.072,0.025 0.143,0.05 0.214,0.077c0.071,0.026 0.147,0.053 0.226,0.078c0.08,0.026 0.148,0.051 0.205,0.076c0.056,0.025 0.116,0.045 0.18,0.061c0.064,0.016 0.125,0.027 0.181,0.034l2.174,0.271c0.082,0.011 0.164,0.017 0.247,0.019c0.082,0.002 0.158,-0.005 0.226,-0.022c0.068,-0.017 0.137,-0.034 0.207,-0.051c0.07,-0.016 0.143,-0.024 0.217,-0.023c0.074,0.001 0.14,0.002 0.198,0.001c0.057,-0.001 0.119,0.003 0.183,0.011c0.065,0.008 0.128,0.012 0.187,0.011c0.06,0 0.123,-0.005 0.19,-0.014c0.067,-0.01 0.135,-0.026 0.204,-0.049c0.069,-0.023 0.134,-0.04 0.195,-0.05c0.06,-0.01 0.134,-0.027 0.22,-0.049c0.085,-0.023 0.167,-0.046 0.244,-0.068c0.077,-0.022 0.154,-0.045 0.232,-0.069c0.077,-0.024 0.151,-0.048 0.22,-0.073c0.069,-0.025 0.143,-0.045 0.221,-0.061c0.079,-0.016 0.152,-0.032 0.22,-0.047c0.067,-0.015 0.135,-0.032 0.203,-0.049c0.068,-0.017 0.137,-0.038 0.206,-0.063c0.069,-0.025 0.139,-0.049 0.21,-0.072c0.071,-0.023 0.137,-0.043 0.196,-0.061c0.06,-0.018 0.119,-0.036 0.179,-0.054c0.06,-0.019 0.121,-0.04 0.184,-0.064c0.062,-0.024 0.128,-0.048 0.197,-0.073c0.069,-0.025 0.13,-0.051 0.182,-0.078c0.052,-0.027 0.115,-0.057 0.187,-0.089c0.072,-0.033 0.139,-0.066 0.2,-0.1c0.062,-0.034 0.132,-0.066 0.21,-0.098c0.079,-0.032 0.153,-0.064 0.223,-0.097c0.07,-0.032 0.141,-0.065 0.213,-0.098c0.072,-0.032 0.134,-0.062 0.187,-0.089c0.052,-0.027 0.113,-0.053 0.182,-0.078c0.069,-0.025 0.142,-0.04 0.219,-0.047c0.078,-0.006 0.15,-0.013 0.217,-0.023c0.067,-0.009 0.13,-0.018 0.189,-0.026c0.058,-0.009 0.117,-0.023 0.177,-0.041c0.059,-0.018 0.121,-0.039 0.183,-0.063c0.063,-0.024 0.129,-0.052 0.199,-0.085c0.07,-0.033 0.14,-0.066 0.21,-0.099c0.07,-0.032 0.141,-0.061 0.212,-0.085c0.071,-0.025 0.146,-0.053 0.224,-0.085c0.078,-0.032 0.147,-0.053 0.206,-0.063c0.058,-0.01 0.117,-0.023 0.177,-0.04c0.059,-0.016 0.12,-0.03 0.18,-0.04c0.061,-0.01 0.134,-0.025 0.22,-0.047c0.086,-0.021 0.166,-0.035 0.242,-0.044c0.075,-0.008 0.152,-0.024 0.229,-0.048c0.077,-0.023 0.167,-0.045 0.27,-0.064c0.102,-0.019 0.196,-0.04 0.282,-0.063c0.086,-0.023 0.172,-0.046 0.257,-0.068c0.086,-0.023 0.172,-0.046 0.258,-0.069c0.086,-0.023 0.168,-0.041 0.246,-0.055c0.078,-0.014 0.156,-0.03 0.232,-0.046c0.077,-0.016 0.153,-0.032 0.229,-0.048c0.077,-0.016 0.149,-0.031 0.217,-0.047c0.068,-0.015 0.139,-0.027 0.215,-0.035c0.075,-0.008 0.151,-0.02 0.227,-0.034c0.077,-0.014 0.15,-0.03 0.22,-0.047c0.07,-0.017 0.139,-0.033 0.207,-0.051c0.068,-0.017 0.136,-0.029 0.203,-0.036c0.067,-0.008 0.135,-0.016 0.204,-0.023c0.068,-0.007 0.136,-0.016 0.204,-0.025c0.067,-0.009 0.129,-0.014 0.187,-0.015c0.057,0 0.115,-0.001 0.172,-0.002c0.058,-0.001 0.116,-0.001 0.176,-0.002c0.06,-0.001 0.122,0.003 0.187,0.011l2.149,0.268c0.056,0.007 0.116,0.023 0.179,0.046c0.063,0.024 0.123,0.048 0.18,0.071c0.056,0.023 0.112,0.046 0.166,0.071c0.055,0.024 0.109,0.048 0.164,0.07c0.054,0.023 0.11,0.047 0.166,0.071c0.057,0.025 0.112,0.049 0.167,0.071c0.055,0.023 0.109,0.047 0.163,0.071c0.055,0.024 0.11,0.048 0.167,0.071c0.057,0.023 0.112,0.051 0.165,0.083c0.054,0.032 0.108,0.06 0.162,0.082c0.055,0.023 0.114,0.055 0.176,0.096c0.063,0.042 0.125,0.083 0.186,0.124c0.061,0.041 0.122,0.081 0.183,0.121c0.061,0.039 0.12,0.072 0.176,0.096c0.057,0.025 0.112,0.052 0.165,0.083c0.054,0.03 0.107,0.062 0.161,0.094c0.053,0.032 0.111,0.069 0.174,0.111c0.063,0.041 0.121,0.081 0.173,0.121c0.053,0.04 0.106,0.076 0.159,0.106c0.054,0.031 0.115,0.068 0.185,0.11c0.069,0.042 0.131,0.083 0.185,0.123c0.055,0.041 0.104,0.084 0.146,0.131c0.044,0.047 0.088,0.094 0.133,0.141c0.045,0.047 0.089,0.094 0.133,0.141c0.042,0.047 0.082,0.093 0.119,0.139c0.037,0.046 0.072,0.096 0.106,0.15c0.034,0.053 0.074,0.1 0.12,0.139c0.046,0.039 0.087,0.082 0.121,0.128c0.035,0.046 0.071,0.091 0.107,0.137c0.037,0.047 0.078,0.089 0.122,0.128c0.044,0.039 0.094,0.07 0.151,0.093c0.057,0.023 0.107,0.054 0.151,0.093c0.044,0.039 0.088,0.082 0.131,0.129c0.043,0.047 0.083,0.093 0.119,0.139c0.037,0.046 0.074,0.092 0.111,0.139c0.037,0.045 0.076,0.092 0.12,0.139c0.043,0.047 0.086,0.09 0.131,0.129c0.043,0.039 0.088,0.082 0.133,0.129c0.045,0.047 0.085,0.093 0.12,0.139c0.035,0.046 0.075,0.088 0.121,0.128c0.047,0.039 0.092,0.077 0.136,0.115c0.044,0.037 0.094,0.076 0.148,0.116l0.082,0.061" style="fill:none;stroke:#000;stroke-width:1.7px;"/><path id="STROKE_55615A14.-50BD.-41CD.-9ECA.-F251B5CCDCC2" d="M56.409,89.68c0.053,0.122 0.088,0.212 0.106,0.272c0.019,0.059 0.039,0.124 0.062,0.194c0.024,0.07 0.048,0.136 0.074,0.199c0.027,0.062 0.061,0.12 0.103,0.175c0.042,0.055 0.076,0.112 0.103,0.173c0.026,0.061 0.056,0.131 0.089,0.21c0.032,0.079 0.064,0.158 0.095,0.237c0.03,0.079 0.058,0.157 0.082,0.235c0.024,0.078 0.048,0.147 0.073,0.208c0.024,0.06 0.054,0.117 0.09,0.171c0.036,0.054 0.071,0.104 0.106,0.15c0.034,0.045 0.074,0.092 0.12,0.139c0.045,0.047 0.09,0.09 0.134,0.129c0.044,0.039 0.096,0.087 0.157,0.144c0.061,0.057 0.109,0.109 0.144,0.155c0.034,0.046 0.078,0.088 0.13,0.128c0.053,0.04 0.107,0.077 0.162,0.109c0.056,0.033 0.112,0.052 0.168,0.059c0.057,0.007 0.115,0.015 0.173,0.022c0.059,0.007 0.12,0.019 0.184,0.035c0.064,0.016 0.123,0.039 0.176,0.07c0.054,0.03 0.104,0.065 0.15,0.104c0.046,0.04 0.091,0.079 0.135,0.118c0.044,0.039 0.093,0.074 0.147,0.107c0.053,0.032 0.111,0.069 0.174,0.11c0.063,0.041 0.125,0.078 0.187,0.11c0.062,0.031 0.119,0.071 0.171,0.119c0.051,0.048 0.108,0.092 0.171,0.134c0.063,0.041 0.117,0.081 0.161,0.12c0.044,0.039 0.088,0.078 0.132,0.117c0.044,0.039 0.094,0.074 0.15,0.105c0.055,0.031 0.113,0.067 0.174,0.108c0.061,0.041 0.126,0.086 0.194,0.136c0.068,0.05 0.132,0.104 0.191,0.161c0.058,0.057 0.119,0.109 0.181,0.158c0.062,0.05 0.122,0.099 0.182,0.148c0.06,0.049 0.116,0.097 0.167,0.145c0.052,0.048 0.104,0.096 0.158,0.144c0.053,0.048 0.109,0.105 0.167,0.172c0.057,0.066 0.104,0.122 0.138,0.168c0.035,0.046 0.071,0.092 0.107,0.137c0.037,0.047 0.074,0.093 0.111,0.139c0.037,0.046 0.079,0.105 0.128,0.176c0.048,0.072 0.089,0.139 0.122,0.202c0.032,0.063 0.066,0.125 0.101,0.187c0.034,0.062 0.061,0.123 0.079,0.185c0.018,0.061 0.041,0.135 0.071,0.222c0.029,0.086 0.06,0.173 0.092,0.26c0.032,0.087 0.063,0.169 0.094,0.246c0.03,0.077 0.058,0.155 0.082,0.233c0.025,0.078 0.049,0.152 0.074,0.222c0.026,0.07 0.045,0.148 0.058,0.232c0.013,0.085 0.027,0.165 0.043,0.242c0.016,0.077 0.024,0.145 0.026,0.202c0.001,0.058 0.006,0.121 0.015,0.189c0.008,0.068 0.008,0.134 0,0.199c-0.008,0.064 -0.011,0.126 -0.01,0.185c0.001,0.059 -0.002,0.117 -0.009,0.173c-0.007,0.057 -0.011,0.123 -0.012,0.197c0,0.075 0.002,0.147 0.009,0.215c0.006,0.067 0.016,0.152 0.029,0.252c0.013,0.101 0.02,0.185 0.02,0.251c0,0.068 -0.004,0.133 -0.012,0.197l-0.181,1.447c-0.008,0.065 -0.028,0.124 -0.06,0.179c-0.033,0.055 -0.068,0.113 -0.108,0.174c-0.039,0.06 -0.075,0.118 -0.107,0.173c-0.033,0.055 -0.066,0.113 -0.099,0.174c-0.033,0.062 -0.062,0.124 -0.087,0.188c-0.025,0.064 -0.049,0.123 -0.07,0.178c-0.022,0.055 -0.049,0.109 -0.081,0.165c-0.033,0.055 -0.069,0.104 -0.108,0.149c-0.04,0.044 -0.078,0.089 -0.116,0.134c-0.037,0.045 -0.076,0.093 -0.117,0.145c-0.04,0.053 -0.081,0.102 -0.121,0.148c-0.039,0.046 -0.081,0.087 -0.126,0.123c-0.045,0.036 -0.096,0.075 -0.152,0.118c-0.057,0.042 -0.116,0.08 -0.177,0.114c-0.062,0.034 -0.123,0.064 -0.184,0.089c-0.06,0.027 -0.126,0.047 -0.196,0.062c-0.07,0.016 -0.133,0.02 -0.189,0.013l-0.39,-0.049c-0.073,-0.009 -0.147,-0.022 -0.222,-0.04c-0.074,-0.017 -0.138,-0.041 -0.192,-0.071c-0.053,-0.031 -0.107,-0.062 -0.16,-0.095c-0.054,-0.032 -0.109,-0.059 -0.165,-0.083c-0.057,-0.022 -0.121,-0.051 -0.191,-0.085c-0.07,-0.035 -0.14,-0.073 -0.209,-0.115c-0.069,-0.042 -0.138,-0.084 -0.207,-0.126c-0.07,-0.042 -0.135,-0.084 -0.195,-0.125c-0.061,-0.041 -0.123,-0.082 -0.186,-0.121c-0.063,-0.04 -0.122,-0.076 -0.175,-0.108c-0.053,-0.033 -0.102,-0.068 -0.146,-0.107c-0.044,-0.039 -0.089,-0.082 -0.134,-0.129c-0.045,-0.048 -0.093,-0.103 -0.142,-0.166c-0.05,-0.064 -0.096,-0.132 -0.138,-0.204c-0.041,-0.073 -0.075,-0.139 -0.099,-0.199c-0.024,-0.061 -0.05,-0.117 -0.078,-0.17c-0.027,-0.053 -0.054,-0.107 -0.082,-0.161c-0.027,-0.055 -0.057,-0.117 -0.088,-0.186c-0.032,-0.069 -0.061,-0.135 -0.087,-0.198c-0.027,-0.062 -0.052,-0.123 -0.076,-0.184c-0.025,-0.06 -0.045,-0.125 -0.062,-0.194c-0.017,-0.069 -0.035,-0.134 -0.053,-0.193c-0.018,-0.06 -0.043,-0.121 -0.076,-0.184c-0.032,-0.064 -0.067,-0.122 -0.102,-0.176c-0.036,-0.054 -0.071,-0.108 -0.104,-0.161c-0.034,-0.054 -0.069,-0.104 -0.106,-0.15c-0.037,-0.046 -0.074,-0.092 -0.111,-0.138c-0.037,-0.046 -0.076,-0.096 -0.118,-0.151c-0.042,-0.055 -0.084,-0.114 -0.125,-0.179c-0.041,-0.064 -0.083,-0.127 -0.126,-0.19c-0.043,-0.063 -0.082,-0.121 -0.115,-0.175l-0.051,-0.08" style="fill:none;stroke:#000;stroke-width:1.7px;"/><path id="STROKE_6A7954D3.-E10E.-4BF7.-B00F.-9EA3E64D9222" d="M54.857,91.329c0.019,0.118 0.029,0.21 0.029,0.277c0,0.067 -0.003,0.129 -0.01,0.185c-0.007,0.057 -0.014,0.113 -0.022,0.17c-0.007,0.056 -0.009,0.114 -0.008,0.173c0.001,0.059 0.002,0.122 0.002,0.187c0,0.066 0.001,0.128 0.002,0.187c0.001,0.059 -0.025,0.065 -0.078,0.017c-0.054,-0.048 -0.102,-0.1 -0.144,-0.155c-0.042,-0.054 -0.088,-0.11 -0.138,-0.168c-0.051,-0.057 -0.098,-0.113 -0.142,-0.168c-0.045,-0.055 -0.096,-0.115 -0.153,-0.179c-0.058,-0.065 -0.12,-0.131 -0.186,-0.198c-0.066,-0.068 -0.132,-0.138 -0.197,-0.212c-0.066,-0.073 -0.121,-0.133 -0.166,-0.181c-0.045,-0.047 -0.109,-0.109 -0.19,-0.186c-0.082,-0.077 -0.145,-0.135 -0.189,-0.174c-0.044,-0.039 -0.089,-0.082 -0.134,-0.129c-0.045,-0.048 -0.09,-0.09 -0.134,-0.127c-0.045,-0.038 -0.09,-0.076 -0.136,-0.115c-0.046,-0.04 -0.091,-0.079 -0.135,-0.118c-0.044,-0.039 -0.104,-0.088 -0.18,-0.147c-0.075,-0.058 -0.151,-0.113 -0.228,-0.164c-0.077,-0.051 -0.143,-0.093 -0.198,-0.126c-0.056,-0.032 -0.11,-0.068 -0.162,-0.108c-0.053,-0.04 -0.11,-0.076 -0.172,-0.108c-0.062,-0.031 -0.123,-0.068 -0.184,-0.109c-0.061,-0.041 -0.123,-0.082 -0.186,-0.123c-0.063,-0.042 -0.133,-0.084 -0.21,-0.127c-0.078,-0.043 -0.16,-0.087 -0.246,-0.132c-0.085,-0.044 -0.156,-0.077 -0.211,-0.1c-0.054,-0.023 -0.128,-0.061 -0.221,-0.114c-0.094,-0.053 -0.191,-0.107 -0.293,-0.161c-0.102,-0.054 -0.2,-0.104 -0.294,-0.149c-0.094,-0.045 -0.177,-0.08 -0.248,-0.105c-0.072,-0.025 -0.139,-0.05 -0.202,-0.075c-0.063,-0.026 -0.13,-0.047 -0.203,-0.064c-0.072,-0.017 -0.149,-0.03 -0.231,-0.041l-0.666,-0.083c-0.081,-0.01 -0.166,-0.028 -0.254,-0.055c-0.088,-0.027 -0.176,-0.055 -0.264,-0.084c-0.088,-0.028 -0.18,-0.06 -0.275,-0.096c-0.096,-0.036 -0.188,-0.068 -0.276,-0.096c-0.087,-0.029 -0.159,-0.051 -0.215,-0.066c-0.055,-0.014 -0.124,-0.031 -0.204,-0.049c-0.081,-0.018 -0.158,-0.032 -0.231,-0.041l-0.996,-0.124c-0.067,-0.008 -0.138,-0.013 -0.212,-0.015c-0.074,-0.001 -0.144,-0.005 -0.209,-0.013l-1.483,-0.185c-0.073,-0.009 -0.144,-0.01 -0.213,-0.001c-0.07,0.009 -0.134,0.022 -0.194,0.039c-0.059,0.016 -0.125,0.02 -0.199,0.011c-0.073,-0.01 -0.142,-0.014 -0.208,-0.015c-0.066,0 -0.133,-0.004 -0.2,-0.012l-2.149,-0.268c-0.058,-0.007 -0.116,-0.019 -0.171,-0.034c-0.056,-0.015 -0.124,-0.031 -0.205,-0.049c-0.08,-0.018 -0.157,-0.032 -0.231,-0.041l-1.216,-0.151c-0.067,-0.009 -0.136,-0.021 -0.209,-0.038c-0.072,-0.017 -0.148,-0.035 -0.229,-0.053c-0.081,-0.018 -0.157,-0.04 -0.228,-0.067c-0.071,-0.026 -0.139,-0.047 -0.203,-0.063c-0.063,-0.016 -0.128,-0.032 -0.194,-0.048c-0.067,-0.017 -0.128,-0.032 -0.183,-0.047c-0.056,-0.015 -0.112,-0.026 -0.168,-0.033l-0.713,-0.089c-0.059,-0.007 -0.116,-0.019 -0.171,-0.036c-0.056,-0.016 -0.11,-0.04 -0.164,-0.07c-0.054,-0.031 -0.119,-0.068 -0.197,-0.111c-0.077,-0.043 -0.144,-0.081 -0.199,-0.114c-0.056,-0.032 -0.111,-0.059 -0.165,-0.082c-0.055,-0.023 -0.111,-0.046 -0.167,-0.069c-0.057,-0.023 -0.117,-0.047 -0.18,-0.073c-0.063,-0.025 -0.122,-0.045 -0.177,-0.06c-0.056,-0.015 -0.115,-0.03 -0.179,-0.046c-0.064,-0.016 -0.125,-0.032 -0.183,-0.047c-0.057,-0.015 -0.118,-0.035 -0.18,-0.061c-0.063,-0.025 -0.13,-0.05 -0.202,-0.075c-0.071,-0.025 -0.137,-0.058 -0.198,-0.099c-0.061,-0.041 -0.123,-0.078 -0.187,-0.112c-0.064,-0.033 -0.131,-0.066 -0.202,-0.099c-0.07,-0.033 -0.132,-0.061 -0.187,-0.085c-0.054,-0.025 -0.109,-0.049 -0.166,-0.072c-0.057,-0.023 -0.125,-0.047 -0.205,-0.073c-0.08,-0.026 -0.147,-0.047 -0.203,-0.064c-0.055,-0.016 -0.11,-0.036 -0.165,-0.058c-0.054,-0.023 -0.11,-0.046 -0.166,-0.069c-0.057,-0.023 -0.117,-0.047 -0.18,-0.073c-0.062,-0.025 -0.121,-0.053 -0.174,-0.083c-0.054,-0.031 -0.112,-0.067 -0.175,-0.109c-0.063,-0.041 -0.125,-0.078 -0.187,-0.111c-0.062,-0.034 -0.115,-0.07 -0.159,-0.109c-0.044,-0.039 -0.094,-0.074 -0.149,-0.104c-0.056,-0.031 -0.118,-0.068 -0.188,-0.11c-0.069,-0.042 -0.13,-0.079 -0.184,-0.111c-0.053,-0.033 -0.118,-0.078 -0.193,-0.137c-0.076,-0.059 -0.141,-0.105 -0.197,-0.137c-0.055,-0.033 -0.113,-0.073 -0.173,-0.122c-0.06,-0.049 -0.124,-0.094 -0.194,-0.135c-0.069,-0.04 -0.138,-0.085 -0.206,-0.135c-0.069,-0.05 -0.133,-0.1 -0.192,-0.149c-0.06,-0.049 -0.122,-0.094 -0.185,-0.135c-0.062,-0.041 -0.116,-0.081 -0.16,-0.12c-0.044,-0.04 -0.104,-0.085 -0.181,-0.135c-0.077,-0.052 -0.142,-0.097 -0.197,-0.137c-0.054,-0.041 -0.108,-0.081 -0.16,-0.121c-0.053,-0.04 -0.109,-0.085 -0.169,-0.134c-0.059,-0.048 -0.119,-0.097 -0.179,-0.146c-0.06,-0.049 -0.125,-0.099 -0.195,-0.149c-0.07,-0.05 -0.143,-0.109 -0.218,-0.175c-0.074,-0.067 -0.149,-0.134 -0.223,-0.201c-0.075,-0.066 -0.146,-0.129 -0.213,-0.189c-0.067,-0.059 -0.13,-0.117 -0.189,-0.174c-0.059,-0.057 -0.115,-0.11 -0.168,-0.158c-0.054,-0.048 -0.102,-0.095 -0.146,-0.142c-0.043,-0.047 -0.086,-0.09 -0.13,-0.129c-0.044,-0.039 -0.089,-0.082 -0.134,-0.129c-0.045,-0.047 -0.089,-0.094 -0.132,-0.141c-0.044,-0.047 -0.092,-0.09 -0.147,-0.131c-0.054,-0.04 -0.107,-0.084 -0.159,-0.132c-0.051,-0.048 -0.107,-0.096 -0.167,-0.145c-0.06,-0.049 -0.121,-0.098 -0.183,-0.148c-0.061,-0.049 -0.122,-0.098 -0.182,-0.147c-0.06,-0.049 -0.119,-0.102 -0.178,-0.158c-0.059,-0.057 -0.122,-0.115 -0.189,-0.172c-0.068,-0.058 -0.134,-0.12 -0.201,-0.186c-0.066,-0.065 -0.137,-0.132 -0.214,-0.201c-0.076,-0.069 -0.155,-0.137 -0.236,-0.204c-0.081,-0.068 -0.159,-0.14 -0.234,-0.216c-0.076,-0.076 -0.143,-0.143 -0.202,-0.2c-0.059,-0.057 -0.118,-0.11 -0.178,-0.158c-0.06,-0.049 -0.113,-0.093 -0.159,-0.133c-0.047,-0.039 -0.095,-0.083 -0.147,-0.13c-0.051,-0.048 -0.106,-0.105 -0.164,-0.169c-0.057,-0.065 -0.11,-0.117 -0.156,-0.156c-0.046,-0.039 -0.094,-0.087 -0.145,-0.143c-0.05,-0.055 -0.101,-0.107 -0.153,-0.155c-0.051,-0.048 -0.099,-0.1 -0.143,-0.157c-0.044,-0.056 -0.091,-0.112 -0.142,-0.168c-0.05,-0.056 -0.097,-0.111 -0.142,-0.166c-0.044,-0.055 -0.083,-0.106 -0.118,-0.151c-0.035,-0.046 -0.07,-0.092 -0.107,-0.138c-0.037,-0.046 -0.081,-0.097 -0.131,-0.153c-0.051,-0.056 -0.097,-0.107 -0.141,-0.154c-0.042,-0.047 -0.089,-0.107 -0.14,-0.18c-0.05,-0.073 -0.108,-0.147 -0.173,-0.22c-0.066,-0.074 -0.116,-0.134 -0.15,-0.179c-0.035,-0.046 -0.071,-0.092 -0.107,-0.138c-0.037,-0.046 -0.077,-0.093 -0.12,-0.139c-0.043,-0.047 -0.088,-0.094 -0.133,-0.141c-0.045,-0.048 -0.085,-0.094 -0.12,-0.14c-0.034,-0.045 -0.078,-0.093 -0.132,-0.141c-0.054,-0.048 -0.098,-0.096 -0.132,-0.143c-0.035,-0.047 -0.081,-0.107 -0.14,-0.18c-0.059,-0.073 -0.118,-0.142 -0.175,-0.209c-0.058,-0.066 -0.111,-0.135 -0.159,-0.206c-0.049,-0.072 -0.095,-0.14 -0.138,-0.204c-0.043,-0.064 -0.077,-0.123 -0.102,-0.175c-0.026,-0.053 -0.052,-0.106 -0.08,-0.159c-0.027,-0.053 -0.054,-0.114 -0.079,-0.184l-0.038,-0.105" style="fill:none;stroke:#000;stroke-width:1.7px;"/><path id="STROKE_234CFD6D.-2DFB.-4886.-A64D.-45C7F2154E39" d="M115.144,99.391c0.047,-0.109 0.092,-0.195 0.134,-0.256c0.041,-0.062 0.09,-0.123 0.147,-0.183c0.056,-0.06 0.107,-0.112 0.153,-0.156c0.046,-0.043 0.099,-0.099 0.158,-0.167c0.06,-0.067 0.118,-0.13 0.174,-0.188c0.056,-0.059 0.108,-0.115 0.158,-0.167c0.049,-0.053 0.093,-0.102 0.133,-0.146c0.039,-0.045 0.091,-0.096 0.156,-0.153c0.064,-0.058 0.129,-0.112 0.193,-0.163c0.063,-0.051 0.135,-0.1 0.216,-0.148c0.08,-0.047 0.165,-0.095 0.254,-0.143c0.089,-0.048 0.16,-0.085 0.215,-0.112c0.054,-0.027 0.129,-0.059 0.226,-0.096c0.096,-0.038 0.188,-0.075 0.275,-0.114c0.088,-0.039 0.162,-0.067 0.222,-0.085c0.059,-0.018 0.141,-0.041 0.244,-0.07c0.104,-0.028 0.207,-0.052 0.309,-0.072c0.103,-0.019 0.196,-0.036 0.281,-0.051c0.085,-0.015 0.17,-0.03 0.254,-0.045c0.085,-0.015 0.169,-0.025 0.253,-0.03c0.084,-0.006 0.168,-0.016 0.253,-0.031c0.085,-0.015 0.174,-0.028 0.266,-0.041c0.093,-0.012 0.195,-0.024 0.305,-0.036c0.11,-0.012 0.216,-0.028 0.319,-0.049c0.102,-0.021 0.204,-0.033 0.304,-0.036c0.101,-0.003 0.197,-0.008 0.289,-0.012c0.092,-0.004 0.183,-0.006 0.275,-0.004c0.091,0.002 0.178,0.004 0.26,0.006c0.083,0.003 0.17,0.005 0.261,0.009c0.091,0.003 0.178,0.002 0.262,-0.003c0.084,-0.006 0.154,-0.005 0.21,0.002c0.057,0.007 0.136,0.008 0.236,0.003c0.101,-0.005 0.197,-0.006 0.288,-0.002c0.091,0.003 0.17,0.005 0.238,0.005c0.068,0.001 0.155,0.004 0.261,0.009c0.105,0.005 0.188,0.011 0.246,0.019c0.059,0.007 0.142,0.017 0.248,0.031c0.107,0.013 0.19,0.018 0.247,0.016c0.058,-0.003 0.115,0 0.172,0.007c0.056,0.007 0.114,0.01 0.174,0.01c0.06,-0.001 0.142,0.001 0.248,0.007c0.106,0.005 0.212,0.01 0.32,0.016c0.108,0.005 0.191,0.011 0.25,0.019c0.059,0.007 0.141,0.013 0.246,0.019c0.106,0.005 0.208,0.014 0.306,0.026l0.604,0.075c0.056,0.007 0.115,0.01 0.174,0.007c0.06,-0.002 0.123,-0.003 0.189,-0.002c0.066,0 0.131,0.004 0.196,0.012c0.065,0.008 0.131,0.012 0.197,0.013c0.066,0 0.132,0 0.2,0.001c0.068,0 0.135,0.001 0.201,0.001c0.066,0 0.132,-0.001 0.198,-0.002c0.066,-0.001 0.136,0.003 0.209,0.012c0.074,0.009 0.144,0.014 0.213,0.015c0.067,0 0.134,0 0.2,0.001c0.066,0 0.136,0.004 0.209,0.013c0.073,0.01 0.139,0.014 0.196,0.013c0.058,-0.001 0.12,0.003 0.187,0.011c0.067,0.009 0.134,0.013 0.2,0.013c0.065,0 0.131,0 0.198,-0.001c0.066,-0.002 0.127,-0.003 0.185,-0.004c0.058,0 0.116,-0.001 0.176,-0.001c0.059,-0.001 0.118,-0.002 0.175,-0.003c0.058,0 0.117,-0.001 0.176,-0.002c0.06,0 0.119,-0.001 0.176,-0.004c0.058,-0.002 0.138,-0.009 0.239,-0.021c0.101,-0.011 0.198,-0.019 0.29,-0.025c0.092,-0.007 0.19,-0.019 0.292,-0.038c0.102,-0.019 0.204,-0.036 0.306,-0.048c0.102,-0.013 0.203,-0.03 0.303,-0.051c0.101,-0.021 0.203,-0.046 0.306,-0.074c0.104,-0.029 0.198,-0.055 0.284,-0.077c0.086,-0.023 0.168,-0.042 0.246,-0.056c0.079,-0.014 0.156,-0.029 0.233,-0.045c0.076,-0.016 0.148,-0.033 0.216,-0.05c0.068,-0.017 0.137,-0.037 0.206,-0.06c0.068,-0.024 0.142,-0.047 0.219,-0.071c0.077,-0.024 0.156,-0.051 0.237,-0.083c0.08,-0.031 0.165,-0.066 0.252,-0.105c0.088,-0.038 0.177,-0.082 0.265,-0.13c0.089,-0.047 0.179,-0.099 0.268,-0.153c0.09,-0.054 0.17,-0.098 0.24,-0.13c0.07,-0.033 0.141,-0.074 0.213,-0.124c0.072,-0.05 0.136,-0.093 0.192,-0.127c0.055,-0.035 0.105,-0.07 0.15,-0.106c0.045,-0.036 0.1,-0.075 0.164,-0.116c0.065,-0.041 0.129,-0.083 0.191,-0.124c0.063,-0.042 0.118,-0.081 0.165,-0.116c0.047,-0.036 0.098,-0.08 0.153,-0.132c0.056,-0.052 0.116,-0.107 0.18,-0.164c0.065,-0.057 0.131,-0.119 0.199,-0.186c0.068,-0.067 0.139,-0.133 0.213,-0.198c0.074,-0.066 0.144,-0.128 0.208,-0.187c0.065,-0.059 0.129,-0.106 0.193,-0.139c0.064,-0.034 0.119,-0.072 0.165,-0.116c0.045,-0.044 0.092,-0.083 0.139,-0.119c0.047,-0.036 0.098,-0.079 0.153,-0.129c0.055,-0.051 0.103,-0.098 0.142,-0.143c0.04,-0.044 0.078,-0.09 0.116,-0.136c0.038,-0.046 0.08,-0.088 0.127,-0.123c0.047,-0.036 0.09,-0.076 0.13,-0.12c0.04,-0.045 0.078,-0.089 0.116,-0.134c0.037,-0.045 0.076,-0.09 0.115,-0.134c0.04,-0.045 0.084,-0.097 0.132,-0.159c0.048,-0.061 0.097,-0.125 0.148,-0.194c0.051,-0.068 0.099,-0.142 0.143,-0.219c0.043,-0.078 0.09,-0.155 0.14,-0.231c0.05,-0.077 0.096,-0.15 0.139,-0.22c0.043,-0.07 0.08,-0.139 0.112,-0.209c0.032,-0.069 0.065,-0.131 0.097,-0.186c0.032,-0.055 0.066,-0.118 0.1,-0.189c0.034,-0.07 0.063,-0.133 0.087,-0.187c0.024,-0.055 0.051,-0.109 0.081,-0.163c0.03,-0.053 0.057,-0.108 0.081,-0.164c0.024,-0.056 0.053,-0.115 0.086,-0.176c0.033,-0.061 0.067,-0.131 0.103,-0.21c0.035,-0.079 0.069,-0.157 0.102,-0.236c0.034,-0.079 0.068,-0.153 0.102,-0.224c0.034,-0.071 0.068,-0.138 0.102,-0.201c0.033,-0.062 0.058,-0.126 0.074,-0.191c0.017,-0.065 0.038,-0.129 0.062,-0.191c0.025,-0.062 0.046,-0.126 0.062,-0.191c0.017,-0.065 0.037,-0.129 0.059,-0.191c0.023,-0.063 0.044,-0.135 0.062,-0.215c0.019,-0.081 0.041,-0.161 0.068,-0.24c0.027,-0.08 0.055,-0.164 0.083,-0.253c0.028,-0.089 0.051,-0.174 0.07,-0.255c0.019,-0.08 0.042,-0.161 0.068,-0.24c0.027,-0.08 0.053,-0.16 0.078,-0.239c0.025,-0.08 0.046,-0.16 0.065,-0.241c0.019,-0.081 0.041,-0.157 0.067,-0.229c0.026,-0.072 0.049,-0.152 0.068,-0.24c0.02,-0.089 0.044,-0.177 0.071,-0.264c0.028,-0.088 0.05,-0.159 0.065,-0.215c0.016,-0.055 0.039,-0.135 0.069,-0.24c0.03,-0.105 0.051,-0.185 0.065,-0.241c0.013,-0.055 0.034,-0.132 0.063,-0.228c0.03,-0.097 0.058,-0.19 0.086,-0.277c0.028,-0.087 0.052,-0.175 0.071,-0.264c0.02,-0.088 0.043,-0.173 0.07,-0.252c0.027,-0.08 0.054,-0.159 0.081,-0.239c0.027,-0.08 0.056,-0.155 0.088,-0.226c0.033,-0.071 0.062,-0.146 0.089,-0.226c0.027,-0.079 0.058,-0.154 0.092,-0.225c0.035,-0.071 0.064,-0.133 0.087,-0.188c0.024,-0.054 0.053,-0.126 0.088,-0.214c0.034,-0.088 0.063,-0.159 0.087,-0.214c0.024,-0.054 0.048,-0.109 0.072,-0.163c0.023,-0.055 0.047,-0.11 0.071,-0.166c0.024,-0.056 0.048,-0.111 0.072,-0.166c0.024,-0.054 0.057,-0.125 0.099,-0.212c0.043,-0.088 0.081,-0.158 0.113,-0.211c0.032,-0.054 0.06,-0.107 0.084,-0.162c0.024,-0.054 0.058,-0.129 0.102,-0.224c0.043,-0.095 0.083,-0.186 0.119,-0.272c0.037,-0.087 0.078,-0.177 0.124,-0.27c0.045,-0.093 0.09,-0.187 0.134,-0.282c0.043,-0.095 0.088,-0.186 0.132,-0.271c0.045,-0.085 0.094,-0.174 0.148,-0.266c0.054,-0.092 0.107,-0.182 0.158,-0.268c0.051,-0.086 0.099,-0.172 0.144,-0.257c0.044,-0.085 0.083,-0.155 0.115,-0.208c0.032,-0.054 0.073,-0.119 0.123,-0.195c0.05,-0.077 0.106,-0.158 0.168,-0.243c0.061,-0.085 0.118,-0.169 0.169,-0.254c0.051,-0.084 0.11,-0.168 0.178,-0.251c0.067,-0.082 0.136,-0.164 0.206,-0.247c0.07,-0.082 0.134,-0.161 0.192,-0.236c0.058,-0.076 0.119,-0.16 0.182,-0.253c0.062,-0.093 0.127,-0.18 0.195,-0.263c0.068,-0.082 0.131,-0.165 0.191,-0.249c0.059,-0.083 0.124,-0.166 0.194,-0.248c0.069,-0.083 0.133,-0.158 0.19,-0.226c0.058,-0.067 0.116,-0.135 0.175,-0.203c0.06,-0.067 0.123,-0.134 0.189,-0.201c0.065,-0.067 0.124,-0.134 0.175,-0.203c0.051,-0.069 0.1,-0.133 0.148,-0.192c0.048,-0.06 0.096,-0.111 0.144,-0.155c0.048,-0.043 0.095,-0.092 0.142,-0.145c0.047,-0.053 0.104,-0.108 0.171,-0.165c0.066,-0.057 0.132,-0.111 0.196,-0.162c0.063,-0.051 0.127,-0.106 0.192,-0.163c0.065,-0.057 0.126,-0.116 0.185,-0.175c0.058,-0.06 0.11,-0.108 0.155,-0.144c0.044,-0.036 0.092,-0.08 0.141,-0.133c0.049,-0.053 0.092,-0.102 0.13,-0.146c0.037,-0.045 0.08,-0.089 0.128,-0.133c0.048,-0.043 0.095,-0.087 0.141,-0.131c0.045,-0.043 0.092,-0.087 0.141,-0.13c0.047,-0.044 0.095,-0.084 0.142,-0.119c0.047,-0.036 0.09,-0.085 0.13,-0.147c0.039,-0.062 0.071,-0.12 0.095,-0.174c0.024,-0.055 0.017,-0.105 -0.02,-0.151c-0.036,-0.046 -0.086,-0.082 -0.149,-0.107c-0.063,-0.026 -0.122,-0.046 -0.177,-0.061c-0.056,-0.015 -0.112,-0.026 -0.169,-0.033l-1.093,-0.136c-0.082,-0.01 -0.16,-0.016 -0.234,-0.017c-0.074,-0.002 -0.146,-0.003 -0.213,-0.003c-0.068,0 -0.135,-0.005 -0.2,-0.013c-0.065,-0.008 -0.126,-0.011 -0.184,-0.008c-0.058,0.002 -0.12,0.003 -0.188,0.002c-0.068,0 -0.135,-0.004 -0.2,-0.013c-0.065,-0.008 -0.13,-0.012 -0.196,-0.012c-0.066,0 -0.132,0.003 -0.199,0.011c-0.067,0.008 -0.138,0.012 -0.212,0.012c-0.075,0 -0.142,0.004 -0.203,0.013c-0.061,0.008 -0.124,0.016 -0.191,0.024c-0.067,0.007 -0.13,0.016 -0.189,0.027c-0.058,0.01 -0.118,0.019 -0.179,0.028c-0.06,0.008 -0.12,0.021 -0.18,0.039c-0.06,0.018 -0.123,0.031 -0.19,0.039c-0.067,0.007 -0.135,0.02 -0.205,0.036c-0.071,0.017 -0.14,0.033 -0.207,0.049c-0.068,0.015 -0.141,0.035 -0.218,0.059c-0.078,0.024 -0.155,0.048 -0.233,0.071c-0.077,0.024 -0.146,0.04 -0.207,0.049c-0.06,0.008 -0.121,0.021 -0.18,0.04c-0.06,0.018 -0.119,0.031 -0.177,0.039c-0.059,0.009 -0.127,0.018 -0.205,0.025c-0.077,0.008 -0.158,0.015 -0.241,0.02c-0.084,0.006 -0.164,0.017 -0.24,0.033c-0.077,0.016 -0.144,0.028 -0.203,0.037c-0.058,0.008 -0.122,0.021 -0.19,0.038c-0.068,0.017 -0.133,0.034 -0.194,0.05c-0.062,0.017 -0.126,0.029 -0.193,0.038c-0.067,0.009 -0.138,0.013 -0.212,0.012c-0.075,-0.001 -0.149,-0.002 -0.223,-0.004c-0.074,-0.001 -0.141,-0.005 -0.199,-0.013c-0.059,-0.007 -0.117,-0.01 -0.175,-0.009c-0.057,0 -0.114,-0.003 -0.171,-0.01c-0.056,-0.007 -0.115,-0.009 -0.174,-0.007c-0.06,0.002 -0.127,0.003 -0.202,0.001c-0.074,-0.001 -0.139,-0.005 -0.196,-0.012c-0.056,-0.007 -0.114,-0.011 -0.174,-0.01c-0.06,0 -0.126,-0.004 -0.2,-0.013l-0.389,-0.049c-0.073,-0.009 -0.145,-0.009 -0.214,0c-0.069,0.009 -0.138,0.021 -0.205,0.037c-0.068,0.015 -0.14,0.031 -0.217,0.047c-0.076,0.016 -0.144,0.028 -0.202,0.037c-0.059,0.009 -0.119,0.018 -0.179,0.028c-0.061,0.01 -0.134,0.022 -0.218,0.035c-0.085,0.013 -0.166,0.028 -0.242,0.044c-0.076,0.016 -0.152,0.027 -0.228,0.034c-0.075,0.006 -0.142,0.015 -0.201,0.025c-0.058,0.01 -0.122,0.015 -0.19,0.015c-0.068,-0.001 -0.13,-0.001 -0.188,0c-0.057,0.001 -0.114,-0.002 -0.171,-0.009c-0.057,-0.007 -0.115,-0.011 -0.174,-0.01c-0.06,0 -0.127,0.005 -0.203,0.013c-0.075,0.008 -0.151,0.019 -0.228,0.034c-0.076,0.014 -0.143,0.027 -0.202,0.037c-0.059,0.01 -0.127,0.022 -0.206,0.036c-0.078,0.014 -0.146,0.027 -0.205,0.037c-0.059,0.01 -0.126,0.018 -0.201,0.025c-0.075,0.007 -0.151,0.018 -0.228,0.034c-0.076,0.016 -0.149,0.032 -0.219,0.047c-0.07,0.015 -0.139,0.031 -0.207,0.048c-0.068,0.017 -0.14,0.033 -0.217,0.047c-0.076,0.015 -0.144,0.031 -0.204,0.049c-0.059,0.018 -0.129,0.039 -0.208,0.063c-0.08,0.023 -0.163,0.046 -0.248,0.069c-0.086,0.023 -0.173,0.05 -0.259,0.08c-0.087,0.031 -0.16,0.055 -0.22,0.071c-0.059,0.017 -0.118,0.03 -0.177,0.04c-0.059,0.01 -0.119,0.024 -0.18,0.04c-0.062,0.016 -0.119,0.038 -0.171,0.065c-0.052,0.027 -0.117,0.052 -0.195,0.076c-0.077,0.024 -0.159,0.051 -0.246,0.082c-0.087,0.03 -0.162,0.059 -0.224,0.084c-0.063,0.026 -0.129,0.05 -0.198,0.074c-0.069,0.023 -0.138,0.047 -0.207,0.072c-0.069,0.025 -0.142,0.053 -0.221,0.085c-0.078,0.032 -0.149,0.064 -0.213,0.098c-0.064,0.033 -0.126,0.067 -0.188,0.101c-0.062,0.034 -0.124,0.067 -0.188,0.101c-0.064,0.033 -0.122,0.064 -0.174,0.091c-0.052,0.027 -0.105,0.054 -0.157,0.081c-0.052,0.027 -0.115,0.06 -0.188,0.101c-0.073,0.04 -0.145,0.08 -0.216,0.121c-0.071,0.041 -0.133,0.078 -0.187,0.113c-0.053,0.035 -0.107,0.07 -0.163,0.104c-0.055,0.035 -0.114,0.074 -0.177,0.117c-0.063,0.043 -0.122,0.086 -0.179,0.129c-0.056,0.042 -0.111,0.084 -0.166,0.127c-0.054,0.043 -0.113,0.089 -0.176,0.138c-0.064,0.05 -0.124,0.1 -0.182,0.152c-0.058,0.052 -0.118,0.103 -0.182,0.152c-0.063,0.05 -0.128,0.1 -0.194,0.151c-0.066,0.051 -0.13,0.097 -0.193,0.139c-0.062,0.041 -0.12,0.08 -0.173,0.114c-0.054,0.035 -0.104,0.07 -0.151,0.106c-0.047,0.036 -0.097,0.071 -0.15,0.106c-0.053,0.035 -0.104,0.07 -0.151,0.105c-0.047,0.036 -0.098,0.079 -0.153,0.13c-0.055,0.05 -0.111,0.102 -0.169,0.153c-0.057,0.052 -0.114,0.103 -0.169,0.154c-0.055,0.051 -0.107,0.102 -0.157,0.155c-0.049,0.053 -0.096,0.101 -0.142,0.145c-0.046,0.044 -0.089,0.088 -0.128,0.132c-0.04,0.045 -0.092,0.097 -0.157,0.156c-0.065,0.058 -0.126,0.113 -0.183,0.163c-0.057,0.051 -0.105,0.098 -0.142,0.143c-0.038,0.045 -0.086,0.101 -0.146,0.168c-0.059,0.068 -0.112,0.128 -0.159,0.179c-0.047,0.052 -0.091,0.109 -0.133,0.17c-0.042,0.062 -0.083,0.12 -0.124,0.174c-0.041,0.054 -0.08,0.103 -0.117,0.148c-0.038,0.045 -0.072,0.094 -0.104,0.147c-0.033,0.054 -0.072,0.107 -0.119,0.16c-0.047,0.053 -0.092,0.11 -0.133,0.17c-0.042,0.06 -0.084,0.122 -0.125,0.183c-0.042,0.062 -0.082,0.119 -0.12,0.172c-0.039,0.053 -0.075,0.106 -0.107,0.161c-0.032,0.055 -0.069,0.113 -0.111,0.173c-0.041,0.061 -0.081,0.118 -0.12,0.172c-0.039,0.054 -0.074,0.108 -0.106,0.161c-0.032,0.054 -0.07,0.115 -0.113,0.185c-0.042,0.07 -0.079,0.135 -0.11,0.197c-0.031,0.061 -0.067,0.119 -0.108,0.173c-0.041,0.054 -0.081,0.107 -0.122,0.159c-0.041,0.053 -0.073,0.107 -0.097,0.163c-0.024,0.056 -0.056,0.114 -0.095,0.175c-0.04,0.06 -0.08,0.121 -0.122,0.183c-0.042,0.062 -0.082,0.119 -0.12,0.172c-0.039,0.053 -0.078,0.102 -0.117,0.148c-0.04,0.046 -0.076,0.096 -0.108,0.149c-0.033,0.054 -0.064,0.112 -0.096,0.175c-0.031,0.063 -0.062,0.121 -0.095,0.175c-0.032,0.053 -0.068,0.106 -0.109,0.159c-0.04,0.052 -0.077,0.106 -0.109,0.16c-0.033,0.056 -0.068,0.106 -0.105,0.15c-0.038,0.045 -0.073,0.099 -0.106,0.162c-0.034,0.063 -0.063,0.125 -0.088,0.187c-0.024,0.063 -0.057,0.125 -0.096,0.187c-0.04,0.062 -0.081,0.124 -0.122,0.186c-0.042,0.062 -0.083,0.119 -0.124,0.171c-0.04,0.052 -0.079,0.101 -0.117,0.146c-0.037,0.044 -0.076,0.089 -0.115,0.134c-0.04,0.044 -0.083,0.089 -0.129,0.134c-0.046,0.046 -0.093,0.086 -0.139,0.122c-0.047,0.035 -0.102,0.074 -0.165,0.116c-0.063,0.041 -0.126,0.083 -0.191,0.124c-0.065,0.042 -0.129,0.092 -0.194,0.151c-0.065,0.059 -0.121,0.106 -0.168,0.142c-0.047,0.035 -0.103,0.082 -0.167,0.139c-0.065,0.057 -0.133,0.111 -0.205,0.161c-0.072,0.05 -0.132,0.093 -0.179,0.129c-0.047,0.035 -0.089,0.075 -0.127,0.12l-0.056,0.067" style="fill:none;stroke:#000;stroke-width:1.7px;"/><path id="STROKE_CFCF68F6.-EFD8.-41CF.-B917.-7BD017CA1326" d="M122.65,90.367c-0.015,0.116 0.011,0.183 0.077,0.199c0.066,0.016 0.127,0.027 0.184,0.034c0.056,0.007 0.118,0.006 0.185,-0.003c0.067,-0.009 0.137,-0.034 0.211,-0.074c0.073,-0.04 0.135,-0.074 0.188,-0.101c0.052,-0.027 0.102,-0.062 0.15,-0.106c0.048,-0.043 0.095,-0.087 0.141,-0.13c0.046,-0.044 0.095,-0.083 0.148,-0.118c0.054,-0.035 0.104,-0.07 0.151,-0.106c0.047,-0.036 0.102,-0.074 0.164,-0.116c0.063,-0.042 0.127,-0.083 0.191,-0.124c0.065,-0.042 0.133,-0.084 0.204,-0.126c0.071,-0.042 0.143,-0.087 0.215,-0.136c0.072,-0.048 0.145,-0.101 0.221,-0.159c0.075,-0.057 0.146,-0.119 0.211,-0.184c0.066,-0.065 0.131,-0.131 0.197,-0.198c0.066,-0.067 0.124,-0.134 0.175,-0.203c0.051,-0.069 0.105,-0.133 0.161,-0.193c0.057,-0.06 0.106,-0.12 0.147,-0.18c0.042,-0.061 0.087,-0.121 0.135,-0.182c0.048,-0.061 0.092,-0.118 0.133,-0.17c0.04,-0.053 0.081,-0.106 0.122,-0.16c0.04,-0.054 0.084,-0.106 0.131,-0.158c0.047,-0.052 0.096,-0.112 0.147,-0.18c0.051,-0.069 0.105,-0.137 0.163,-0.205c0.057,-0.068 0.116,-0.14 0.176,-0.215c0.061,-0.075 0.115,-0.147 0.164,-0.216c0.049,-0.069 0.099,-0.137 0.151,-0.204c0.05,-0.067 0.096,-0.132 0.135,-0.194c0.04,-0.062 0.081,-0.124 0.122,-0.186c0.042,-0.061 0.084,-0.127 0.127,-0.197c0.043,-0.07 0.088,-0.134 0.136,-0.193c0.048,-0.06 0.097,-0.124 0.148,-0.193c0.051,-0.068 0.101,-0.133 0.149,-0.194c0.048,-0.061 0.102,-0.129 0.162,-0.205c0.061,-0.075 0.12,-0.146 0.177,-0.212c0.057,-0.066 0.119,-0.137 0.186,-0.211c0.066,-0.075 0.13,-0.146 0.189,-0.214c0.06,-0.067 0.122,-0.134 0.188,-0.201c0.066,-0.067 0.123,-0.126 0.172,-0.177c0.049,-0.052 0.092,-0.101 0.13,-0.147c0.038,-0.046 0.081,-0.095 0.13,-0.147c0.049,-0.051 0.101,-0.102 0.156,-0.152c0.055,-0.051 0.108,-0.103 0.157,-0.155c0.049,-0.053 0.101,-0.105 0.156,-0.156c0.055,-0.05 0.117,-0.105 0.183,-0.164c0.067,-0.058 0.129,-0.121 0.187,-0.189c0.057,-0.068 0.12,-0.135 0.188,-0.202c0.067,-0.066 0.129,-0.129 0.186,-0.187c0.056,-0.058 0.112,-0.118 0.169,-0.178c0.056,-0.06 0.109,-0.119 0.159,-0.178c0.05,-0.06 0.098,-0.112 0.144,-0.157c0.046,-0.046 0.094,-0.094 0.143,-0.145c0.048,-0.051 0.096,-0.095 0.144,-0.13c0.047,-0.036 0.092,-0.072 0.137,-0.108c0.045,-0.036 0.104,-0.078 0.176,-0.126c0.072,-0.049 0.135,-0.09 0.191,-0.125c0.055,-0.034 0.114,-0.073 0.177,-0.117c0.063,-0.043 0.135,-0.092 0.216,-0.147c0.082,-0.055 0.163,-0.115 0.246,-0.18c0.082,-0.065 0.161,-0.126 0.237,-0.184c0.075,-0.057 0.145,-0.115 0.209,-0.172c0.065,-0.058 0.125,-0.104 0.18,-0.138c0.056,-0.035 0.106,-0.07 0.151,-0.106c0.045,-0.036 0.099,-0.079 0.162,-0.13c0.064,-0.051 0.124,-0.09 0.178,-0.117c0.054,-0.027 0.117,-0.06 0.188,-0.101c0.071,-0.04 0.147,-0.088 0.228,-0.144c0.082,-0.055 0.168,-0.11 0.257,-0.166c0.09,-0.056 0.162,-0.097 0.217,-0.124c0.054,-0.027 0.126,-0.067 0.216,-0.121c0.09,-0.055 0.18,-0.11 0.269,-0.165c0.09,-0.056 0.171,-0.104 0.242,-0.145c0.071,-0.041 0.141,-0.077 0.211,-0.11c0.07,-0.033 0.137,-0.062 0.2,-0.088c0.062,-0.025 0.128,-0.047 0.196,-0.064c0.068,-0.017 0.132,-0.034 0.191,-0.05l0.089,-0.025" style="fill:none;stroke:#000;stroke-width:1.7px;"/></g></g></svg>