<?xml version="1.0" encoding="utf-8"?>
<!-- Generator: Adobe Illustrator 16.0.0, SVG Export Plug-In . SVG Version: 6.00 Build 0)  -->
<!DOCTYPE svg PUBLIC "-//W3C//DTD SVG 1.1//EN" "http://www.w3.org/Graphics/SVG/1.1/DTD/svg11.dtd">
<svg version="1.1" id="Layer_1" xmlns="http://www.w3.org/2000/svg" xmlns:xlink="http://www.w3.org/1999/xlink" x="0px" y="0px"
	 width="160px" height="160px" viewBox="0 0 160 160" enable-background="new 0 0 160 160" xml:space="preserve">
<g id="a13">
	
		<path id="STROKE_74BC8C08.-0A85.-48CF.-A3B9.-FF42618E3851" fill="none" stroke="#000000" stroke-width="1.45" stroke-linecap="round" stroke-linejoin="round" d="
		M55.082,68.754c-0.02-0.097-0.032-0.171-0.034-0.22c-0.002-0.048,0-0.102,0.005-0.161c0.004-0.058,0.009-0.128,0.015-0.212
		c0.006-0.084,0.007-0.151,0.005-0.2c-0.002-0.049-0.01-0.102-0.02-0.158c-0.012-0.056-0.024-0.112-0.036-0.167
		c-0.011-0.055-0.024-0.114-0.037-0.179c-0.014-0.063-0.041-0.134-0.08-0.208c-0.039-0.075-0.086-0.144-0.142-0.207
		c-0.056-0.063-0.114-0.121-0.174-0.173c-0.06-0.053-0.125-0.101-0.193-0.146c-0.069-0.043-0.132-0.089-0.191-0.134
		s-0.122-0.089-0.19-0.134c-0.069-0.044-0.134-0.089-0.191-0.134c-0.059-0.045-0.122-0.093-0.19-0.146
		c-0.069-0.052-0.138-0.104-0.209-0.154c-0.07-0.051-0.134-0.099-0.193-0.146c-0.059-0.046-0.122-0.087-0.188-0.122
		c-0.067-0.035-0.133-0.067-0.196-0.095c-0.063-0.028-0.127-0.06-0.192-0.095c-0.065-0.036-0.137-0.066-0.217-0.091
		c-0.079-0.023-0.151-0.047-0.215-0.066c-0.064-0.021-0.13-0.04-0.2-0.058s-0.139-0.032-0.207-0.042
		c-0.068-0.009-0.132-0.017-0.192-0.021c-0.061-0.005-0.121-0.013-0.181-0.024c-0.06-0.012-0.115-0.024-0.167-0.04
		c-0.052-0.014-0.109-0.027-0.171-0.038c-0.063-0.011-0.118-0.022-0.17-0.038c-0.052-0.014-0.105-0.028-0.159-0.042
		c-0.054-0.015-0.107-0.028-0.159-0.042c-0.051-0.013-0.11-0.021-0.177-0.024c-0.067-0.003-0.138-0.005-0.215-0.004
		c-0.076,0-0.155,0.004-0.236,0.013c-0.081,0.01-0.166,0.019-0.255,0.028c-0.089,0.009-0.178,0.023-0.265,0.042
		c-0.088,0.018-0.172,0.032-0.253,0.041c-0.081,0.009-0.157,0.021-0.228,0.036c-0.071,0.015-0.142,0.031-0.214,0.046
		c-0.071,0.014-0.142,0.03-0.213,0.044c-0.07,0.015-0.138,0.029-0.201,0.043c-0.063,0.013-0.127,0.027-0.192,0.041
		c-0.065,0.014-0.13,0.028-0.193,0.041c-0.063,0.013-0.126,0.027-0.189,0.04c-0.063,0.013-0.126,0.027-0.189,0.04
		c-0.063,0.014-0.127,0.027-0.192,0.041s-0.129,0.027-0.192,0.042c-0.063,0.013-0.122,0.025-0.177,0.037
		c-0.055,0.012-0.111,0.024-0.168,0.036c-0.057,0.012-0.112,0.027-0.165,0.047c-0.053,0.019-0.106,0.043-0.157,0.071
		c-0.051,0.029-0.105,0.053-0.16,0.072c-0.056,0.02-0.11,0.04-0.163,0.059c-0.053,0.019-0.106,0.043-0.157,0.071
		c-0.051,0.029-0.105,0.053-0.16,0.072c-0.055,0.02-0.105,0.042-0.148,0.068c-0.044,0.025-0.092,0.056-0.143,0.092
		c-0.053,0.036-0.104,0.073-0.153,0.109c-0.049,0.036-0.102,0.076-0.159,0.121c-0.056,0.043-0.109,0.09-0.158,0.143
		c-0.048,0.052-0.097,0.1-0.145,0.143c-0.048,0.044-0.095,0.091-0.141,0.143c-0.047,0.051-0.095,0.099-0.145,0.142
		c-0.051,0.045-0.096,0.088-0.136,0.13c-0.04,0.042-0.081,0.084-0.121,0.126s-0.077,0.082-0.111,0.121
		c-0.034,0.039-0.069,0.075-0.105,0.108c-0.035,0.033-0.075,0.079-0.12,0.138c-0.044,0.059-0.091,0.114-0.137,0.166
		c-0.047,0.051-0.087,0.096-0.121,0.137c-0.034,0.041-0.067,0.082-0.099,0.122c-0.032,0.04-0.068,0.085-0.109,0.135
		c-0.04,0.05-0.075,0.103-0.103,0.158c-0.029,0.056-0.055,0.107-0.08,0.153c-0.024,0.047-0.048,0.096-0.07,0.151
		c-0.023,0.055-0.047,0.117-0.072,0.189c-0.025,0.073-0.052,0.14-0.081,0.203c-0.029,0.064-0.057,0.128-0.083,0.193
		c-0.027,0.064-0.052,0.12-0.077,0.167c-0.024,0.047-0.045,0.097-0.067,0.151c-0.02,0.054-0.046,0.109-0.076,0.164
		c-0.031,0.056-0.057,0.116-0.077,0.179c-0.021,0.063-0.04,0.125-0.06,0.187c-0.019,0.062-0.039,0.123-0.06,0.185
		s-0.042,0.12-0.065,0.176c-0.021,0.056-0.039,0.11-0.051,0.162c-0.013,0.052-0.029,0.109-0.05,0.171
		c-0.021,0.061-0.042,0.124-0.062,0.187c-0.021,0.064-0.038,0.121-0.05,0.172c-0.012,0.052-0.023,0.117-0.032,0.194
		c-0.009,0.076-0.021,0.141-0.036,0.193c-0.015,0.053-0.022,0.112-0.023,0.179c-0.001,0.065-0.007,0.128-0.02,0.189
		c-0.012,0.063-0.022,0.118-0.028,0.169c-0.006,0.051-0.015,0.109-0.026,0.18c-0.01,0.069-0.018,0.133-0.023,0.191
		c-0.004,0.058-0.005,0.112-0.001,0.16c0.004,0.049,0.007,0.098,0.01,0.148c0.002,0.052,0.004,0.104,0.008,0.162
		c0.004,0.056,0.008,0.117,0.013,0.183c0.006,0.066,0.012,0.135,0.019,0.207c0.006,0.072,0.009,0.145,0.008,0.22
		c-0.001,0.075,0.002,0.15,0.009,0.223c0.007,0.074,0.011,0.152,0.012,0.234c0,0.083,0.003,0.169,0.007,0.259
		c0.004,0.089,0.005,0.173,0.004,0.248c-0.001,0.075,0.001,0.146,0.007,0.211c0.005,0.066,0.009,0.124,0.011,0.172
		c0.002,0.05-0.014,0.094-0.048,0.135l-0.051,0.061"/>
	
		<path id="STROKE_2D583C3B.-E56B.-47AC.-B397.-7DC42E9F4A03" fill="none" stroke="#000000" stroke-width="1.45" stroke-linecap="round" stroke-linejoin="round" d="
		M41.506,73.692c0.097-0.021,0.118-0.025,0.061-0.013c-0.057,0.012-0.117,0.025-0.18,0.038c-0.063,0.013-0.128,0.036-0.196,0.068
		c-0.068,0.031-0.139,0.066-0.213,0.106c-0.075,0.041-0.149,0.08-0.223,0.122c-0.075,0.041-0.135,0.07-0.183,0.088
		c-0.047,0.018-0.109,0.044-0.185,0.078c-0.075,0.033-0.147,0.061-0.217,0.084c-0.07,0.023-0.139,0.049-0.207,0.08
		c-0.068,0.03-0.132,0.056-0.194,0.077c-0.061,0.021-0.118,0.045-0.172,0.074c-0.053,0.029-0.111,0.054-0.172,0.075
		c-0.062,0.021-0.125,0.051-0.191,0.091c-0.066,0.039-0.136,0.079-0.211,0.119c-0.074,0.039-0.148,0.083-0.221,0.132
		c-0.072,0.049-0.144,0.099-0.217,0.147c-0.072,0.049-0.135,0.09-0.187,0.125c-0.052,0.035-0.107,0.072-0.165,0.109
		c-0.058,0.038-0.119,0.081-0.183,0.128c-0.064,0.047-0.126,0.089-0.184,0.125c-0.059,0.036-0.117,0.073-0.177,0.111
		c-0.06,0.039-0.114,0.08-0.162,0.124c-0.048,0.043-0.097,0.083-0.147,0.12c-0.05,0.036-0.104,0.076-0.163,0.12
		c-0.058,0.045-0.111,0.089-0.16,0.132c-0.048,0.044-0.099,0.092-0.154,0.145c-0.054,0.053-0.11,0.107-0.167,0.16
		c-0.056,0.053-0.111,0.11-0.165,0.171c-0.053,0.061-0.105,0.122-0.159,0.184c-0.053,0.063-0.101,0.123-0.146,0.182
		c-0.044,0.059-0.095,0.12-0.149,0.18c-0.055,0.061-0.106,0.117-0.152,0.168c-0.046,0.052-0.097,0.108-0.15,0.168
		c-0.053,0.061-0.108,0.118-0.164,0.17c-0.058,0.054-0.112,0.111-0.165,0.171c-0.053,0.061-0.097,0.121-0.134,0.179
		c-0.036,0.059-0.078,0.118-0.125,0.177c-0.047,0.059-0.093,0.118-0.138,0.178c-0.045,0.059-0.089,0.118-0.134,0.177
		s-0.091,0.118-0.138,0.177c-0.047,0.059-0.089,0.118-0.125,0.177c-0.036,0.059-0.071,0.112-0.103,0.161
		c-0.032,0.048-0.064,0.096-0.094,0.144c-0.03,0.048-0.057,0.095-0.081,0.141c-0.024,0.047-0.051,0.098-0.079,0.153
		c-0.029,0.056-0.063,0.112-0.102,0.17c-0.039,0.058-0.07,0.123-0.096,0.195c-0.025,0.072-0.053,0.136-0.083,0.192
		c-0.031,0.056-0.059,0.115-0.086,0.178c-0.027,0.064-0.052,0.123-0.074,0.179c-0.022,0.055-0.048,0.115-0.077,0.179
		c-0.029,0.063-0.055,0.117-0.077,0.164c-0.022,0.045-0.047,0.101-0.077,0.164c-0.028,0.063-0.06,0.129-0.095,0.194
		c-0.035,0.067-0.067,0.132-0.096,0.194c-0.029,0.064-0.055,0.119-0.077,0.164c-0.022,0.048-0.04,0.097-0.054,0.148
		c-0.015,0.053-0.034,0.104-0.058,0.151s-0.045,0.103-0.064,0.163c-0.019,0.063-0.039,0.119-0.062,0.175
		c-0.021,0.054-0.041,0.106-0.055,0.159c-0.015,0.053-0.026,0.109-0.037,0.17c-0.011,0.062-0.026,0.123-0.047,0.186
		c-0.021,0.061-0.038,0.123-0.05,0.184c-0.013,0.063-0.024,0.123-0.035,0.184c-0.011,0.059-0.022,0.115-0.038,0.168
		c-0.014,0.053-0.033,0.105-0.055,0.159c-0.023,0.056-0.037,0.108-0.043,0.159c-0.006,0.053-0.01,0.107-0.012,0.166
		c-0.003,0.059-0.011,0.117-0.024,0.177c-0.012,0.06-0.025,0.121-0.037,0.183c-0.013,0.062-0.021,0.121-0.026,0.18
		c-0.005,0.059-0.01,0.113-0.016,0.164c-0.007,0.051-0.012,0.102-0.016,0.153s-0.008,0.107-0.012,0.165
		c-0.005,0.06-0.006,0.112-0.004,0.162c0.002,0.049,0,0.104-0.004,0.164c-0.004,0.059-0.005,0.117-0.001,0.174
		c0.003,0.057,0.008,0.117,0.013,0.184c0.006,0.066,0.01,0.127,0.013,0.184c0.004,0.056,0.011,0.108,0.021,0.155
		c0.01,0.048,0.016,0.097,0.018,0.147s0.009,0.104,0.021,0.158s0.019,0.106,0.023,0.155c0.004,0.048,0.007,0.097,0.009,0.146
		c0.002,0.049,0.008,0.099,0.018,0.147c0.011,0.048,0.021,0.096,0.031,0.144c0.01,0.047,0.022,0.103,0.035,0.166
		c0.013,0.062,0.025,0.117,0.035,0.166c0.01,0.049,0.022,0.104,0.035,0.166c0.014,0.063,0.028,0.13,0.043,0.203
		c0.015,0.071,0.027,0.147,0.036,0.229c0.009,0.08,0.021,0.16,0.038,0.24s0.035,0.162,0.053,0.25
		c0.018,0.086,0.036,0.17,0.053,0.248c0.017,0.08,0.032,0.151,0.045,0.215c0.014,0.064,0.028,0.129,0.041,0.192
		c0.014,0.063,0.03,0.119,0.048,0.165c0.018,0.045,0.048,0.092,0.09,0.141s0.091,0.105,0.147,0.168
		c0.056,0.063,0.097,0.117,0.123,0.159c0.027,0.044,0.049,0.091,0.068,0.138c0.018,0.047,0.035,0.092,0.052,0.139
		c0.016,0.046,0.033,0.092,0.051,0.139c0.018,0.044,0.033,0.094,0.045,0.149l0.017,0.083"/>
	
		<path id="STROKE_7E388829.-2118.-49FD.-A109.-0133C61AB0A9" fill="none" stroke="#000000" stroke-width="1.45" stroke-linecap="round" stroke-linejoin="round" d="
		M32.434,88.574c0.024-0.105,0.042-0.186,0.057-0.238s0.017-0.104,0.007-0.15c-0.01-0.047-0.04-0.09-0.088-0.129
		c-0.049-0.04-0.098-0.059-0.149-0.055c-0.049,0.004-0.116,0.008-0.197,0.016s-0.158,0.02-0.229,0.034
		c-0.071,0.015-0.139,0.025-0.203,0.031c-0.065,0.006-0.131,0.013-0.198,0.019c-0.066,0.006-0.139,0.016-0.218,0.033
		c-0.08,0.018-0.159,0.034-0.238,0.051c-0.08,0.016-0.159,0.033-0.239,0.051c-0.079,0.017-0.156,0.041-0.233,0.072
		c-0.075,0.032-0.145,0.076-0.208,0.131c-0.062,0.055-0.126,0.105-0.19,0.152c-0.065,0.047-0.126,0.094-0.184,0.139
		c-0.059,0.047-0.112,0.092-0.16,0.135c-0.048,0.045-0.092,0.086-0.132,0.129c-0.04,0.041-0.089,0.084-0.148,0.13
		c-0.059,0.044-0.104,0.087-0.136,0.126c-0.032,0.041-0.064,0.086-0.096,0.133c-0.032,0.048-0.054,0.098-0.067,0.15
		c-0.012,0.052-0.025,0.108-0.037,0.17c-0.013,0.063-0.027,0.133-0.045,0.211c-0.017,0.079-0.029,0.143-0.035,0.193
		c-0.006,0.052-0.012,0.105-0.013,0.163c-0.003,0.059-0.007,0.113-0.013,0.167c-0.006,0.051-0.007,0.109,0,0.174
		c0.004,0.063,0.004,0.125,0,0.186s-0.007,0.127-0.009,0.199c-0.001,0.074-0.002,0.15-0.003,0.225
		c-0.002,0.075,0.002,0.149,0.012,0.223c0.009,0.072,0.013,0.15,0.014,0.232c0.001,0.083,0.006,0.169,0.017,0.258
		c0.01,0.088,0.021,0.178,0.031,0.266s0.021,0.179,0.031,0.269c0.011,0.091,0.021,0.177,0.028,0.257
		c0.01,0.08,0.022,0.161,0.04,0.24c0.016,0.078,0.033,0.159,0.05,0.238c0.017,0.078,0.032,0.15,0.045,0.213s0.027,0.126,0.04,0.189
		c0.014,0.064,0.026,0.119,0.036,0.166c0.011,0.049,0.024,0.094,0.042,0.141c0.018,0.045,0.049,0.089,0.091,0.131
		c0.043,0.042,0.084,0.079,0.123,0.113c0.039,0.033,0.079,0.065,0.12,0.099c0.041,0.032,0.084,0.06,0.129,0.082
		s0.105,0.052,0.181,0.086c0.075,0.036,0.148,0.062,0.217,0.078l0.104,0.026"/>
	
		<path id="STROKE_D33DF07A.-1D54.-4063.-915D.-38A2252604E6" fill="none" stroke="#000000" stroke-width="1.45" stroke-linecap="round" stroke-linejoin="round" d="
		M58.36,73.754c0.056,0.103,0.091,0.19,0.106,0.261c0.016,0.072,0.028,0.132,0.038,0.179c0.01,0.047,0.021,0.099,0.033,0.155
		c0.012,0.058,0.024,0.113,0.037,0.167c0.011,0.055,0.019,0.112,0.022,0.17c0.004,0.058,0.003,0.116,0,0.175
		c-0.005,0.058-0.013,0.122-0.023,0.191c-0.011,0.069-0.018,0.137-0.021,0.203s-0.012,0.142-0.025,0.229
		c-0.014,0.084-0.024,0.153-0.03,0.204c-0.007,0.05-0.021,0.124-0.043,0.221s-0.039,0.172-0.051,0.224
		c-0.012,0.052-0.03,0.105-0.052,0.159c-0.022,0.055-0.041,0.108-0.056,0.16c-0.014,0.053-0.032,0.102-0.055,0.148
		c-0.021,0.046-0.044,0.097-0.066,0.153c-0.022,0.055-0.045,0.106-0.069,0.153c-0.025,0.047-0.048,0.093-0.07,0.139
		c-0.022,0.046-0.045,0.092-0.069,0.139c-0.024,0.046-0.052,0.089-0.084,0.128c-0.033,0.038-0.066,0.078-0.1,0.119
		c-0.033,0.041-0.079,0.1-0.137,0.18c-0.057,0.079-0.102,0.142-0.135,0.191c-0.032,0.048-0.064,0.092-0.096,0.132
		c-0.032,0.042-0.065,0.081-0.099,0.119c-0.034,0.04-0.067,0.079-0.099,0.119c-0.032,0.04-0.065,0.077-0.101,0.11
		c-0.035,0.033-0.069,0.07-0.101,0.11c-0.032,0.04-0.065,0.08-0.099,0.119c-0.034,0.039-0.071,0.08-0.111,0.121
		c-0.04,0.042-0.078,0.08-0.114,0.113c-0.035,0.033-0.073,0.071-0.113,0.112c-0.04,0.042-0.077,0.083-0.111,0.122
		c-0.034,0.04-0.071,0.081-0.111,0.123c-0.04,0.042-0.081,0.083-0.123,0.126c-0.042,0.042-0.082,0.088-0.121,0.138
		c-0.038,0.049-0.074,0.095-0.108,0.135c-0.034,0.042-0.07,0.086-0.109,0.137c-0.038,0.049-0.074,0.094-0.108,0.135
		c-0.034,0.041-0.066,0.081-0.099,0.121c-0.032,0.04-0.069,0.081-0.111,0.122c-0.042,0.041-0.079,0.085-0.108,0.133
		c-0.03,0.048-0.072,0.103-0.127,0.166c-0.055,0.062-0.109,0.124-0.162,0.184c-0.053,0.062-0.103,0.113-0.151,0.158
		c-0.049,0.043-0.094,0.086-0.136,0.127c-0.043,0.04-0.08,0.08-0.11,0.121c-0.032,0.039-0.064,0.088-0.094,0.144
		c-0.031,0.056-0.06,0.113-0.089,0.17c-0.028,0.058-0.049,0.11-0.064,0.164c-0.014,0.052-0.029,0.104-0.042,0.157
		c-0.014,0.053-0.027,0.105-0.041,0.157c-0.012,0.052-0.021,0.107-0.025,0.167c-0.004,0.061-0.008,0.123-0.011,0.188
		c-0.003,0.065-0.002,0.132,0.004,0.198c0.005,0.065,0.015,0.131,0.028,0.195c0.014,0.063,0.026,0.119,0.036,0.166
		c0.01,0.048,0.02,0.094,0.03,0.143c0.01,0.047,0.021,0.098,0.032,0.152c0.012,0.056,0.024,0.115,0.038,0.179
		c0.014,0.063,0.027,0.129,0.041,0.192c0.013,0.064,0.026,0.123,0.038,0.179c0.012,0.055,0.024,0.114,0.038,0.178
		c0.014,0.064,0.028,0.132,0.043,0.202c0.015,0.07,0.028,0.129,0.038,0.178c0.01,0.049,0.025,0.117,0.043,0.204
		c0.018,0.087,0.036,0.17,0.053,0.249c0.017,0.078,0.033,0.158,0.05,0.238c0.017,0.078,0.033,0.154,0.048,0.227
		c0.015,0.071,0.03,0.139,0.042,0.201c0.013,0.063,0.025,0.118,0.035,0.167c0.011,0.05,0.021,0.097,0.031,0.144
		c0.011,0.047,0.021,0.103,0.035,0.165c0.013,0.063,0.022,0.126,0.028,0.192c0.005,0.066,0.005,0.128,0.001,0.186
		c-0.005,0.06-0.008,0.119-0.01,0.178c-0.003,0.059-0.01,0.119-0.023,0.18c-0.013,0.059-0.025,0.124-0.035,0.193
		c-0.011,0.07-0.021,0.139-0.033,0.205c-0.011,0.068-0.022,0.133-0.033,0.193c-0.01,0.062-0.021,0.122-0.035,0.182
		c-0.012,0.061-0.023,0.129-0.032,0.205c-0.01,0.078-0.027,0.152-0.052,0.225c-0.025,0.072-0.046,0.146-0.063,0.227
		c-0.018,0.078-0.033,0.147-0.046,0.207c-0.012,0.061-0.028,0.121-0.047,0.183c-0.019,0.062-0.031,0.118-0.037,0.171
		c-0.006,0.052-0.016,0.104-0.031,0.156c-0.014,0.053-0.028,0.105-0.043,0.158c-0.014,0.051-0.032,0.105-0.052,0.158
		c-0.021,0.055-0.044,0.117-0.072,0.19c-0.027,0.073-0.054,0.14-0.081,0.204c-0.027,0.063-0.054,0.127-0.083,0.191
		c-0.029,0.065-0.061,0.131-0.096,0.195c-0.035,0.064-0.072,0.125-0.111,0.183s-0.072,0.114-0.101,0.171
		c-0.029,0.055-0.063,0.107-0.103,0.158c-0.042,0.049-0.072,0.098-0.094,0.143c-0.022,0.047-0.053,0.096-0.094,0.147
		c-0.04,0.052-0.076,0.097-0.108,0.136c-0.032,0.038-0.068,0.082-0.109,0.133c-0.04,0.05-0.088,0.102-0.142,0.153
		c-0.055,0.054-0.102,0.105-0.14,0.154c-0.038,0.05-0.083,0.097-0.133,0.142c-0.05,0.043-0.099,0.088-0.147,0.131
		s-0.097,0.088-0.147,0.132c-0.05,0.044-0.099,0.092-0.145,0.143c-0.047,0.052-0.098,0.101-0.155,0.146
		c-0.056,0.046-0.106,0.084-0.149,0.117c-0.044,0.033-0.091,0.064-0.144,0.094c-0.051,0.027-0.098,0.055-0.142,0.08
		c-0.043,0.025-0.089,0.047-0.136,0.063c-0.047,0.019-0.102,0.034-0.165,0.048c-0.064,0.014-0.119,0.025-0.168,0.035
		c-0.049,0.01-0.095,0.029-0.138,0.057c-0.043,0.025-0.09,0.053-0.143,0.08c-0.051,0.026-0.101,0.049-0.148,0.066
		c-0.047,0.018-0.101,0.039-0.163,0.059l-0.092,0.031"/>
	
		<path id="STROKE_C91C60D9.-945A.-47E8.-93E3.-CAD301A86DD8" fill="none" stroke="#000000" stroke-width="1.45" stroke-linecap="round" stroke-linejoin="round" d="
		M45.943,89.216c0.11-0.022,0.193-0.04,0.25-0.053c0.057-0.011,0.117-0.024,0.18-0.038s0.119-0.021,0.167-0.023
		c0.049-0.002,0.096,0.004,0.142,0.02c0.045,0.017,0.091,0.037,0.136,0.061c0.046,0.023,0.101,0.049,0.167,0.077
		c0.065,0.027,0.13,0.06,0.195,0.094c0.065,0.036,0.134,0.071,0.207,0.105c0.073,0.034,0.146,0.063,0.22,0.091
		c0.073,0.023,0.15,0.05,0.23,0.074c0.079,0.025,0.154,0.046,0.223,0.064c0.07,0.02,0.143,0.033,0.22,0.043
		c0.076,0.008,0.149,0.019,0.219,0.027c0.07,0.009,0.14,0.023,0.21,0.041c0.069,0.02,0.14,0.041,0.212,0.068
		c0.071,0.025,0.138,0.053,0.202,0.08c0.063,0.029,0.128,0.061,0.195,0.096s0.133,0.07,0.198,0.105
		c0.065,0.037,0.127,0.073,0.186,0.112c0.059,0.038,0.12,0.084,0.18,0.136c0.06,0.054,0.119,0.103,0.178,0.149
		c0.059,0.046,0.119,0.097,0.181,0.147c0.062,0.053,0.119,0.106,0.172,0.162c0.052,0.057,0.101,0.112,0.147,0.17
		c0.046,0.058,0.087,0.11,0.123,0.16c0.036,0.051,0.072,0.096,0.106,0.139c0.034,0.041,0.068,0.089,0.103,0.14
		c0.034,0.052,0.069,0.103,0.105,0.153c0.037,0.049,0.072,0.095,0.105,0.137c0.035,0.042,0.068,0.085,0.1,0.127
		c0.033,0.043,0.066,0.086,0.101,0.129c0.035,0.045,0.069,0.088,0.104,0.129c0.034,0.042,0.069,0.084,0.103,0.127
		c0.035,0.041,0.07,0.092,0.106,0.152c0.036,0.059,0.072,0.117,0.11,0.174c0.038,0.059,0.072,0.121,0.104,0.189
		c0.031,0.068,0.063,0.136,0.094,0.205c0.032,0.067,0.061,0.132,0.089,0.191c0.027,0.059,0.055,0.115,0.083,0.168
		c0.028,0.053,0.052,0.102,0.07,0.148c0.018,0.045,0.042,0.098,0.072,0.158c0.029,0.062,0.059,0.121,0.089,0.181
		c0.029,0.059,0.058,0.114,0.086,0.168s0.053,0.11,0.075,0.17c0.021,0.062,0.046,0.126,0.076,0.194
		c0.029,0.068,0.056,0.139,0.079,0.207c0.023,0.07,0.046,0.138,0.068,0.199c0.021,0.063,0.043,0.129,0.066,0.196
		s0.041,0.136,0.055,0.198c0.013,0.064,0.026,0.124,0.037,0.179c0.012,0.056,0.024,0.111,0.036,0.167
		c0.012,0.057,0.023,0.112,0.035,0.167c0.012,0.056,0.023,0.106,0.033,0.156c0.01,0.048,0.021,0.101,0.033,0.155
		c0.012,0.055,0.024,0.115,0.038,0.179c0.013,0.063,0.029,0.136,0.045,0.215c0.017,0.079,0.031,0.142,0.041,0.19
		c0.01,0.047,0.023,0.109,0.04,0.189c0.017,0.079,0.033,0.154,0.048,0.227c0.015,0.071,0.03,0.143,0.044,0.213
		c0.015,0.07,0.028,0.133,0.041,0.189c0.012,0.057,0.024,0.112,0.036,0.167c0.011,0.056,0.023,0.11,0.035,0.167
		c0.013,0.057,0.023,0.108,0.034,0.155c0.01,0.048,0.018,0.103,0.022,0.168c0.006,0.063,0.002,0.131-0.009,0.2
		c-0.011,0.068-0.018,0.129-0.022,0.18c-0.005,0.049-0.006,0.1-0.003,0.15c0.002,0.051,0.005,0.104,0.008,0.16
		c0.004,0.057,0.01,0.108,0.021,0.156c0.01,0.047,0.021,0.1,0.033,0.155c0.012,0.058,0.023,0.108,0.033,0.156
		c0.01,0.047,0.021,0.098,0.033,0.153c0.011,0.055,0.023,0.11,0.035,0.166c0.012,0.058,0.023,0.109,0.033,0.156
		c0.01,0.047,0.021,0.098,0.033,0.153c0.011,0.055,0.022,0.106,0.032,0.153c0.01,0.048,0.021,0.099,0.033,0.156
		c0.012,0.055,0.038,0.104,0.079,0.146c0.04,0.041,0.081,0.077,0.122,0.11c0.041,0.033,0.089,0.06,0.145,0.082
		c0.055,0.021,0.109,0.039,0.161,0.051c0.051,0.014,0.106,0.023,0.166,0.027c0.058,0.006,0.122,0.013,0.192,0.021
		c0.07,0.009,0.138,0.016,0.205,0.02c0.067,0.002,0.14,0,0.221-0.01c0.081-0.009,0.162-0.018,0.243-0.027
		c0.082-0.008,0.162-0.021,0.24-0.039c0.08-0.017,0.159-0.033,0.238-0.051c0.08-0.016,0.159-0.033,0.238-0.049
		c0.08-0.018,0.159-0.035,0.238-0.051c0.079-0.018,0.159-0.034,0.238-0.051c0.079-0.018,0.143-0.03,0.192-0.041
		c0.049-0.01,0.121-0.025,0.217-0.047c0.095-0.02,0.191-0.039,0.287-0.06c0.095-0.021,0.194-0.041,0.295-0.063
		c0.102-0.021,0.181-0.038,0.238-0.05c0.057-0.012,0.117-0.025,0.18-0.039c0.063-0.014,0.122-0.025,0.177-0.037
		s0.115-0.024,0.18-0.039c0.065-0.014,0.129-0.026,0.192-0.041c0.063-0.012,0.122-0.025,0.177-0.036
		c0.055-0.013,0.114-0.024,0.177-0.038c0.063-0.013,0.123-0.025,0.18-0.038c0.057-0.013,0.112-0.028,0.165-0.047
		c0.054-0.019,0.112-0.035,0.175-0.049c0.063-0.013,0.123-0.026,0.18-0.038c0.057-0.012,0.142-0.03,0.253-0.055
		c0.112-0.022,0.195-0.041,0.25-0.053c0.055-0.011,0.11-0.023,0.166-0.033c0.055-0.013,0.107-0.023,0.155-0.033
		c0.049-0.012,0.121-0.026,0.217-0.047c0.096-0.021,0.19-0.041,0.284-0.061c0.093-0.019,0.164-0.033,0.213-0.045
		c0.049-0.01,0.121-0.025,0.217-0.046s0.187-0.043,0.272-0.069c0.086-0.025,0.176-0.053,0.269-0.08
		c0.094-0.029,0.185-0.052,0.272-0.07c0.088-0.018,0.17-0.037,0.251-0.053c0.079-0.018,0.162-0.035,0.25-0.054
		c0.087-0.019,0.171-0.036,0.25-0.054c0.079-0.016,0.156-0.023,0.231-0.023c0.074,0,0.154,0.008,0.24,0.022s0.169,0.034,0.25,0.06
		c0.079,0.025,0.158,0.045,0.236,0.063s0.16,0.033,0.246,0.048c0.086,0.016,0.168,0.026,0.247,0.034
		c0.078,0.008,0.156,0.016,0.232,0.025c0.076,0.01,0.152,0.014,0.226,0.014c0.074,0,0.144-0.002,0.209-0.008
		c0.064-0.006,0.127-0.006,0.187-0.002c0.062,0.006,0.115,0.006,0.164,0.004c0.048-0.002,0.1-0.006,0.157-0.01
		c0.056-0.004,0.12-0.001,0.19,0.01c0.07,0.01,0.135,0.021,0.195,0.033c0.061,0.012,0.119,0.02,0.177,0.024
		c0.059,0.005,0.118,0.009,0.178,0.013c0.06,0.004,0.119,0.002,0.174-0.002c0.057-0.004,0.111-0.006,0.159-0.008
		c0.049,0,0.108,0.005,0.177,0.014c0.07,0.01,0.136,0.024,0.198,0.045c0.061,0.02,0.122,0.048,0.18,0.086
		c0.059,0.037,0.114,0.078,0.165,0.127c0.05,0.049,0.089,0.099,0.117,0.15c0.028,0.051,0.065,0.105,0.111,0.162
		c0.046,0.057,0.084,0.123,0.116,0.2c0.031,0.077,0.063,0.153,0.096,0.229c0.033,0.075,0.071,0.153,0.114,0.236
		c0.043,0.082,0.082,0.163,0.116,0.248c0.035,0.083,0.073,0.166,0.114,0.248c0.04,0.083,0.081,0.157,0.12,0.224
		c0.04,0.066,0.084,0.135,0.133,0.208c0.05,0.071,0.096,0.138,0.14,0.194c0.045,0.059,0.089,0.111,0.133,0.159
		c0.044,0.048,0.088,0.092,0.13,0.133c0.043,0.04,0.091,0.071,0.144,0.094c0.055,0.022,0.102,0.05,0.142,0.082
		c0.041,0.033,0.083,0.074,0.125,0.124c0.042,0.051,0.077,0.098,0.103,0.14c0.026,0.044,0.053,0.089,0.079,0.132
		c0.026,0.045,0.053,0.093,0.081,0.144c0.028,0.052,0.055,0.1,0.083,0.146c0.026,0.045,0.058,0.097,0.093,0.154
		c0.036,0.059,0.073,0.116,0.111,0.176c0.038,0.059,0.076,0.117,0.114,0.176c0.038,0.06,0.07,0.11,0.096,0.154
		c0.026,0.045,0.045,0.094,0.057,0.148c0.012,0.055,0.024,0.113,0.038,0.178c0.013,0.064,0.026,0.124,0.038,0.18
		c0.012,0.055,0.022,0.105,0.032,0.152c0.01,0.047,0.021,0.099,0.033,0.156c0.012,0.057,0.023,0.107,0.033,0.154
		c0.01,0.048,0.021,0.1,0.033,0.154c0.011,0.055,0.023,0.11,0.035,0.166c0.012,0.057,0.026,0.121,0.041,0.193
		c0.015,0.071,0.03,0.143,0.045,0.215c0.015,0.071,0.032,0.15,0.051,0.237c0.018,0.087,0.036,0.174,0.055,0.261
		c0.018,0.088,0.033,0.154,0.042,0.201c0.011,0.048,0.024,0.111,0.041,0.191c0.017,0.078,0.021,0.16,0.014,0.244
		c-0.008,0.086-0.021,0.166-0.039,0.245c-0.017,0.079-0.038,0.158-0.061,0.237c-0.023,0.08-0.055,0.166-0.095,0.256
		c-0.04,0.094-0.075,0.183-0.105,0.271c-0.031,0.09-0.052,0.16-0.066,0.213s-0.037,0.123-0.067,0.213
		c-0.03,0.089-0.052,0.16-0.066,0.213c-0.015,0.053-0.036,0.127-0.063,0.227c-0.028,0.098-0.062,0.196-0.1,0.295
		c-0.038,0.1-0.068,0.172-0.09,0.217c-0.022,0.047-0.042,0.096-0.055,0.148c-0.015,0.053-0.033,0.105-0.055,0.16
		c-0.023,0.054-0.045,0.105-0.067,0.15c-0.021,0.047-0.045,0.096-0.066,0.15c-0.023,0.055-0.053,0.127-0.091,0.218
		c-0.038,0.091-0.069,0.161-0.095,0.206c-0.024,0.047-0.056,0.108-0.098,0.184c-0.042,0.076-0.088,0.152-0.139,0.23
		c-0.052,0.078-0.097,0.157-0.137,0.239c-0.04,0.082-0.071,0.151-0.094,0.206c-0.022,0.057-0.048,0.107-0.078,0.156
		c-0.031,0.048-0.057,0.099-0.079,0.152c-0.023,0.055-0.048,0.113-0.075,0.176s-0.055,0.127-0.083,0.192
		c-0.029,0.065-0.058,0.126-0.086,0.181c-0.029,0.055-0.058,0.115-0.087,0.179c-0.029,0.063-0.057,0.124-0.086,0.181
		c-0.028,0.057-0.062,0.114-0.102,0.172c-0.038,0.057-0.072,0.115-0.101,0.17c-0.028,0.056-0.059,0.107-0.09,0.155
		c-0.032,0.048-0.065,0.097-0.097,0.146c-0.032,0.048-0.068,0.092-0.108,0.135c-0.04,0.042-0.076,0.087-0.108,0.135
		c-0.033,0.049-0.065,0.093-0.097,0.133c-0.031,0.04-0.063,0.08-0.099,0.119c-0.034,0.039-0.083,0.104-0.147,0.191
		c-0.064,0.089-0.111,0.156-0.141,0.205c-0.031,0.048-0.062,0.096-0.094,0.144c-0.033,0.05-0.064,0.097-0.094,0.144
		c-0.03,0.049-0.066,0.098-0.106,0.147s-0.076,0.099-0.106,0.147c-0.03,0.048-0.06,0.1-0.091,0.158
		c-0.03,0.057-0.061,0.109-0.091,0.157c-0.03,0.048-0.06,0.1-0.091,0.155c-0.031,0.056-0.061,0.107-0.091,0.156
		c-0.031,0.047-0.061,0.1-0.092,0.156c-0.03,0.055-0.065,0.107-0.103,0.157c-0.039,0.049-0.073,0.103-0.104,0.158
		c-0.03,0.056-0.066,0.104-0.106,0.147c-0.04,0.041-0.076,0.086-0.108,0.135c-0.032,0.048-0.069,0.093-0.108,0.135
		c-0.041,0.042-0.092,0.095-0.155,0.157c-0.063,0.063-0.116,0.112-0.157,0.146c-0.042,0.034-0.095,0.074-0.16,0.12
		c-0.064,0.046-0.119,0.086-0.162,0.12c-0.044,0.035-0.097,0.08-0.16,0.135s-0.13,0.11-0.2,0.166
		c-0.071,0.057-0.128,0.103-0.169,0.137c-0.042,0.035-0.094,0.078-0.157,0.133c-0.063,0.056-0.128,0.102-0.196,0.141
		c-0.069,0.038-0.133,0.072-0.192,0.104c-0.06,0.029-0.12,0.055-0.181,0.076c-0.062,0.021-0.128,0.039-0.2,0.053
		c-0.071,0.017-0.15,0.033-0.237,0.052c-0.088,0.018-0.171,0.036-0.251,0.053c-0.079,0.017-0.143,0.03-0.192,0.04
		c-0.048,0.012-0.121,0.025-0.216,0.046c-0.097,0.021-0.187,0.04-0.275,0.06c-0.087,0.018-0.175,0.036-0.262,0.055
		c-0.088,0.02-0.171,0.036-0.25,0.053c-0.079,0.018-0.159,0.035-0.238,0.051s-0.163,0.035-0.25,0.053
		c-0.088,0.02-0.167,0.035-0.238,0.051c-0.071,0.015-0.147,0.031-0.226,0.048c-0.079,0.017-0.15,0.032-0.213,0.045
		s-0.13,0.028-0.202,0.043c-0.071,0.015-0.139,0.029-0.204,0.043c-0.065,0.015-0.133,0.028-0.204,0.044
		c-0.072,0.016-0.147,0.03-0.226,0.047c-0.079,0.018-0.159,0.034-0.238,0.051c-0.079,0.017-0.159,0.033-0.238,0.051
		s-0.159,0.034-0.238,0.05c-0.079,0.017-0.154,0.033-0.226,0.048c-0.071,0.016-0.139,0.03-0.204,0.045
		c-0.065,0.012-0.131,0.018-0.197,0.014c-0.066-0.002-0.132-0.006-0.2-0.008c-0.066-0.002-0.128-0.004-0.186-0.008
		c-0.058-0.004-0.123-0.006-0.191-0.01c-0.068-0.003-0.132-0.006-0.19-0.01c-0.058-0.004-0.116-0.008-0.175-0.014
		c-0.058-0.004-0.117-0.008-0.176-0.013c-0.062-0.003-0.124-0.001-0.188,0.005c-0.064,0.005-0.126,0.005-0.184,0
		c-0.059-0.005-0.121-0.004-0.188,0.002c-0.067,0.006-0.128,0.012-0.186,0.016c-0.056,0.004-0.11,0.002-0.159-0.002
		c-0.051-0.006-0.102-0.012-0.153-0.019c-0.052-0.006-0.109-0.015-0.168-0.026c-0.06-0.011-0.121-0.022-0.183-0.035
		c-0.062-0.012-0.118-0.021-0.168-0.026c-0.05-0.005-0.109-0.015-0.178-0.025c-0.068-0.011-0.138-0.021-0.207-0.032
		c-0.071-0.01-0.131-0.019-0.182-0.023c-0.05-0.005-0.104-0.018-0.167-0.039c-0.062-0.02-0.124-0.036-0.185-0.046
		c-0.062-0.011-0.124-0.026-0.185-0.047c-0.062-0.021-0.124-0.041-0.186-0.062c-0.061-0.021-0.12-0.041-0.176-0.063
		c-0.055-0.021-0.11-0.043-0.163-0.065c-0.054-0.022-0.117-0.045-0.191-0.072c-0.073-0.025-0.141-0.049-0.202-0.066
		c-0.061-0.02-0.115-0.037-0.161-0.053s-0.092-0.039-0.139-0.07c-0.047-0.031-0.095-0.059-0.142-0.082
		c-0.047-0.024-0.094-0.048-0.139-0.07c-0.046-0.024-0.093-0.053-0.142-0.084s-0.096-0.057-0.141-0.08
		c-0.045-0.021-0.093-0.049-0.142-0.08c-0.05-0.03-0.096-0.058-0.142-0.082c-0.046-0.023-0.089-0.052-0.13-0.084
		c-0.041-0.033-0.083-0.07-0.126-0.113c-0.042-0.041-0.08-0.083-0.112-0.127c-0.033-0.041-0.07-0.083-0.113-0.123
		c-0.042-0.04-0.085-0.081-0.128-0.121c-0.042-0.041-0.08-0.088-0.115-0.139c-0.034-0.051-0.069-0.102-0.105-0.151
		c-0.037-0.05-0.076-0.095-0.118-0.136s-0.076-0.082-0.101-0.126c-0.024-0.046-0.059-0.095-0.104-0.153
		c-0.046-0.057-0.086-0.107-0.121-0.148c-0.034-0.043-0.065-0.086-0.091-0.129c-0.026-0.044-0.053-0.093-0.079-0.146
		c-0.025-0.054-0.05-0.11-0.071-0.172c-0.021-0.06-0.047-0.121-0.077-0.183c-0.03-0.061-0.057-0.129-0.082-0.207
		c-0.025-0.077-0.045-0.152-0.061-0.224c-0.015-0.071-0.036-0.146-0.06-0.224c-0.024-0.078-0.045-0.152-0.061-0.225
		c-0.015-0.07-0.035-0.146-0.06-0.224s-0.048-0.146-0.069-0.207c-0.022-0.062-0.042-0.119-0.063-0.175
		c-0.02-0.053-0.039-0.104-0.057-0.149c-0.018-0.046-0.036-0.095-0.053-0.148c-0.017-0.054-0.035-0.104-0.054-0.151
		c-0.018-0.047-0.034-0.098-0.045-0.152c-0.012-0.056-0.024-0.115-0.038-0.179c-0.014-0.063-0.026-0.124-0.038-0.178
		c-0.011-0.056-0.023-0.111-0.035-0.167c-0.012-0.057-0.023-0.109-0.033-0.156c-0.01-0.047-0.021-0.098-0.033-0.152
		c-0.011-0.056-0.022-0.107-0.032-0.154c-0.01-0.047-0.024-0.095-0.042-0.142c-0.018-0.047-0.038-0.093-0.055-0.139
		c-0.018-0.046-0.044-0.09-0.079-0.132c-0.034-0.042-0.073-0.083-0.115-0.123c-0.043-0.041-0.095-0.07-0.156-0.092
		c-0.062-0.021-0.12-0.041-0.173-0.063c-0.054-0.022-0.113-0.043-0.176-0.063c-0.064-0.02-0.125-0.031-0.183-0.035
		c-0.058-0.003-0.111-0.004-0.161-0.002c-0.047,0.003-0.098,0-0.151-0.006c-0.052-0.006-0.103-0.008-0.151-0.006
		c-0.048,0.002-0.103,0.002-0.163-0.002c-0.061-0.004-0.119-0.008-0.178-0.013c-0.058-0.005-0.114-0.01-0.166-0.015
		c-0.052-0.005-0.104-0.011-0.153-0.016c-0.051-0.006-0.1-0.012-0.15-0.02c-0.05-0.006-0.102-0.016-0.156-0.027
		c-0.054-0.014-0.107-0.031-0.161-0.053c-0.053-0.021-0.109-0.048-0.166-0.077s-0.113-0.055-0.166-0.077
		c-0.054-0.021-0.108-0.043-0.164-0.066c-0.055-0.021-0.116-0.045-0.178-0.074c-0.063-0.027-0.122-0.053-0.176-0.075
		c-0.053-0.022-0.116-0.042-0.188-0.06c-0.072-0.018-0.138-0.037-0.2-0.057c-0.061-0.019-0.125-0.037-0.196-0.056
		c-0.07-0.019-0.142-0.041-0.215-0.067c-0.074-0.025-0.15-0.051-0.23-0.074c-0.079-0.025-0.156-0.055-0.229-0.089
		c-0.073-0.034-0.143-0.073-0.21-0.118c-0.066-0.045-0.129-0.086-0.188-0.123c-0.059-0.036-0.114-0.078-0.164-0.125
		c-0.05-0.047-0.101-0.09-0.151-0.131c-0.051-0.039-0.1-0.075-0.147-0.107c-0.047-0.031-0.096-0.066-0.146-0.104
		c-0.051-0.039-0.1-0.074-0.147-0.106c-0.047-0.031-0.099-0.062-0.157-0.091s-0.108-0.057-0.153-0.08
		c-0.046-0.023-0.096-0.045-0.151-0.064c-0.056-0.021-0.106-0.044-0.151-0.068c-0.046-0.021-0.096-0.045-0.152-0.067
		c-0.055-0.022-0.105-0.044-0.151-0.068c-0.046-0.024-0.091-0.047-0.14-0.071c-0.047-0.022-0.091-0.051-0.132-0.084
		c-0.041-0.032-0.085-0.064-0.132-0.096s-0.091-0.063-0.132-0.097c-0.041-0.032-0.085-0.065-0.132-0.097
		c-0.047-0.031-0.095-0.063-0.145-0.094c-0.048-0.031-0.097-0.062-0.144-0.094c-0.048-0.031-0.096-0.063-0.145-0.094
		c-0.049-0.029-0.106-0.064-0.171-0.1c-0.065-0.035-0.126-0.072-0.186-0.108c-0.059-0.037-0.112-0.071-0.159-0.103
		c-0.046-0.031-0.104-0.069-0.173-0.114c-0.069-0.044-0.126-0.077-0.171-0.101c-0.045-0.021-0.092-0.049-0.141-0.08
		c-0.049-0.031-0.097-0.062-0.145-0.094c-0.046-0.031-0.096-0.063-0.144-0.093c-0.05-0.031-0.097-0.06-0.142-0.083
		c-0.046-0.023-0.094-0.055-0.144-0.094c-0.051-0.039-0.1-0.074-0.147-0.105s-0.096-0.066-0.147-0.107
		c-0.051-0.039-0.102-0.084-0.152-0.129c-0.05-0.048-0.097-0.092-0.139-0.132c-0.043-0.04-0.086-0.085-0.131-0.135
		c-0.044-0.049-0.088-0.099-0.13-0.147c-0.042-0.047-0.088-0.092-0.139-0.131c-0.051-0.037-0.1-0.078-0.149-0.117
		c-0.049-0.041-0.094-0.082-0.137-0.122c-0.042-0.04-0.089-0.081-0.14-0.12c-0.05-0.037-0.099-0.072-0.146-0.104
		c-0.047-0.03-0.092-0.067-0.135-0.106c-0.042-0.041-0.088-0.08-0.137-0.121c-0.048-0.038-0.094-0.078-0.137-0.121
		c-0.043-0.041-0.085-0.078-0.126-0.111c-0.04-0.033-0.09-0.072-0.149-0.117c-0.058-0.045-0.115-0.082-0.169-0.111
		c-0.055-0.03-0.111-0.06-0.169-0.088c-0.057-0.03-0.112-0.055-0.166-0.078c-0.053-0.021-0.104-0.049-0.154-0.079
		c-0.049-0.031-0.1-0.058-0.154-0.081c-0.053-0.021-0.103-0.043-0.15-0.065c-0.047-0.021-0.1-0.052-0.156-0.091
		c-0.057-0.039-0.114-0.072-0.171-0.103c-0.058-0.029-0.11-0.06-0.157-0.091c-0.047-0.031-0.096-0.066-0.146-0.105
		c-0.051-0.039-0.101-0.077-0.149-0.115c-0.049-0.041-0.099-0.079-0.148-0.117c-0.052-0.039-0.1-0.074-0.147-0.105
		c-0.046-0.032-0.099-0.063-0.156-0.091c-0.058-0.03-0.118-0.059-0.181-0.087c-0.063-0.027-0.123-0.053-0.178-0.074
		c-0.056-0.021-0.112-0.047-0.167-0.077s-0.113-0.068-0.174-0.114c-0.06-0.046-0.111-0.09-0.151-0.13
		c-0.041-0.041-0.078-0.082-0.113-0.125c-0.034-0.042-0.075-0.091-0.12-0.147c-0.047-0.059-0.087-0.115-0.123-0.174
		c-0.036-0.058-0.072-0.111-0.108-0.164c-0.036-0.051-0.077-0.1-0.121-0.148c-0.044-0.047-0.091-0.096-0.142-0.145
		c-0.051-0.047-0.101-0.092-0.152-0.13s-0.096-0.077-0.137-0.118c-0.04-0.041-0.082-0.082-0.125-0.123
		c-0.042-0.039-0.081-0.086-0.118-0.138c-0.036-0.051-0.076-0.104-0.121-0.161c-0.043-0.056-0.084-0.113-0.123-0.172
		s-0.07-0.109-0.096-0.154c-0.026-0.043-0.053-0.088-0.079-0.131c-0.026-0.043-0.052-0.093-0.079-0.146
		c-0.026-0.053-0.053-0.105-0.081-0.157c-0.028-0.051-0.051-0.104-0.071-0.157c-0.02-0.053-0.044-0.105-0.072-0.158
		c-0.028-0.054-0.052-0.106-0.072-0.16c-0.02-0.053-0.041-0.11-0.062-0.172c-0.021-0.063-0.042-0.117-0.06-0.162
		c-0.018-0.047-0.036-0.092-0.055-0.137c-0.018-0.045-0.04-0.096-0.066-0.148c-0.026-0.055-0.057-0.102-0.091-0.145
		c-0.035-0.042-0.07-0.088-0.106-0.137c-0.036-0.051-0.072-0.102-0.107-0.152c-0.038-0.051-0.067-0.099-0.091-0.143
		c-0.024-0.045-0.051-0.092-0.079-0.145c-0.028-0.051-0.056-0.104-0.084-0.156s-0.056-0.105-0.084-0.156
		c-0.028-0.053-0.056-0.104-0.084-0.157s-0.052-0.102-0.07-0.146c-0.018-0.046-0.044-0.095-0.078-0.145
		c-0.034-0.05-0.068-0.096-0.103-0.138C32.2,98,32.161,97.955,32.116,97.904c-0.044-0.049-0.084-0.098-0.119-0.149
		c-0.034-0.05-0.065-0.101-0.093-0.154c-0.028-0.053-0.06-0.104-0.096-0.153c-0.036-0.051-0.069-0.105-0.1-0.166
		c-0.03-0.061-0.057-0.127-0.08-0.196c-0.023-0.07-0.043-0.147-0.063-0.235c-0.018-0.087-0.036-0.17-0.052-0.25
		c-0.017-0.078-0.031-0.146-0.043-0.201c-0.012-0.055-0.025-0.117-0.04-0.188c-0.016-0.072-0.03-0.14-0.042-0.204
		c-0.014-0.064-0.027-0.127-0.041-0.189c-0.013-0.063-0.027-0.131-0.042-0.201c-0.017-0.072-0.028-0.131-0.038-0.18
		c-0.01-0.047-0.02-0.094-0.03-0.143c-0.01-0.047-0.017-0.1-0.021-0.157s-0.008-0.12-0.014-0.187
		c-0.005-0.064-0.007-0.139-0.009-0.221l-0.001-0.126"/>
</g>
</svg>
