<?xml version="1.0" encoding="UTF-8" standalone="no"?><!DOCTYPE svg PUBLIC "-//W3C//DTD SVG 1.1//EN" "http://www.w3.org/Graphics/SVG/1.1/DTD/svg11.dtd"><svg width="100%" height="100%" viewBox="0 0 160 160" version="1.1" xmlns="http://www.w3.org/2000/svg" xmlns:xlink="http://www.w3.org/1999/xlink" xml:space="preserve" style="fill-rule:evenodd;clip-rule:evenodd;stroke-linecap:round;stroke-linejoin:round;"><g id="accessory"><g id="Speaker"><path id="STROKE_44FBE77C.-FFBF.-4A15.-88AD.-79BB1047AC05" d="M51.709,101.702c0.132,0.053 0.222,0.096 0.271,0.131c0.05,0.034 0.104,0.062 0.163,0.084c0.059,0.022 0.118,0.037 0.178,0.044c0.06,0.008 0.119,0.015 0.176,0.022c0.057,0.007 0.117,0.009 0.178,0.006c0.061,-0.004 0.124,-0.006 0.189,-0.009c0.065,-0.002 0.135,0 0.21,0.006c0.074,0.006 0.148,0.013 0.22,0.022l0.442,0.055c0.075,0.009 0.152,0.01 0.233,0.002c0.08,-0.008 0.151,-0.019 0.214,-0.033c0.063,-0.015 0.128,-0.034 0.195,-0.057c0.068,-0.023 0.14,-0.049 0.216,-0.076c0.076,-0.027 0.15,-0.054 0.222,-0.081c0.071,-0.027 0.142,-0.051 0.213,-0.07c0.071,-0.02 0.138,-0.038 0.202,-0.056c0.064,-0.018 0.127,-0.033 0.19,-0.047c0.063,-0.013 0.125,-0.025 0.187,-0.036c0.062,-0.01 0.123,-0.02 0.182,-0.031c0.06,-0.01 0.121,-0.021 0.183,-0.031c0.062,-0.01 0.125,-0.025 0.189,-0.046c0.065,-0.02 0.129,-0.044 0.194,-0.072c0.064,-0.028 0.129,-0.062 0.196,-0.1c0.067,-0.039 0.133,-0.079 0.199,-0.122c0.066,-0.042 0.132,-0.088 0.196,-0.137c0.064,-0.05 0.128,-0.099 0.191,-0.149c0.064,-0.049 0.127,-0.097 0.191,-0.143c0.064,-0.046 0.124,-0.094 0.18,-0.145c0.056,-0.052 0.111,-0.099 0.163,-0.142c0.052,-0.043 0.101,-0.086 0.146,-0.127c0.045,-0.042 0.094,-0.086 0.147,-0.134c0.053,-0.047 0.105,-0.094 0.158,-0.141c0.053,-0.048 0.107,-0.099 0.161,-0.154c0.053,-0.055 0.108,-0.107 0.164,-0.158c0.057,-0.05 0.112,-0.104 0.166,-0.162c0.054,-0.057 0.111,-0.117 0.169,-0.178c0.058,-0.061 0.115,-0.126 0.171,-0.194c0.055,-0.069 0.113,-0.143 0.172,-0.222c0.06,-0.079 0.117,-0.16 0.171,-0.243c0.053,-0.083 0.105,-0.167 0.155,-0.25c0.05,-0.084 0.09,-0.151 0.118,-0.202c0.029,-0.05 0.067,-0.121 0.114,-0.213c0.047,-0.091 0.096,-0.181 0.147,-0.268c0.05,-0.087 0.1,-0.17 0.15,-0.251c0.05,-0.08 0.097,-0.155 0.142,-0.225c0.044,-0.07 0.089,-0.14 0.134,-0.209c0.044,-0.07 0.091,-0.139 0.139,-0.205c0.047,-0.067 0.092,-0.135 0.133,-0.206c0.041,-0.07 0.084,-0.143 0.13,-0.22c0.045,-0.076 0.089,-0.155 0.132,-0.237c0.042,-0.081 0.086,-0.171 0.13,-0.27c0.045,-0.099 0.08,-0.173 0.105,-0.224c0.024,-0.051 0.047,-0.106 0.068,-0.165c0.022,-0.059 0.045,-0.117 0.071,-0.175c0.025,-0.058 0.049,-0.118 0.072,-0.18c0.022,-0.062 0.046,-0.122 0.071,-0.18c0.024,-0.058 0.048,-0.116 0.07,-0.175c0.022,-0.059 0.044,-0.119 0.066,-0.18c0.021,-0.062 0.045,-0.122 0.07,-0.181c0.026,-0.058 0.05,-0.114 0.071,-0.169c0.022,-0.055 0.043,-0.11 0.064,-0.164c0.02,-0.055 0.051,-0.131 0.092,-0.227c0.04,-0.096 0.079,-0.186 0.115,-0.272c0.036,-0.085 0.071,-0.172 0.103,-0.262c0.032,-0.089 0.065,-0.175 0.097,-0.257c0.033,-0.083 0.064,-0.172 0.093,-0.269c0.03,-0.096 0.059,-0.197 0.086,-0.302c0.028,-0.106 0.049,-0.186 0.064,-0.242c0.014,-0.055 0.029,-0.113 0.043,-0.172c0.015,-0.059 0.03,-0.12 0.044,-0.183c0.014,-0.063 0.029,-0.126 0.044,-0.189c0.015,-0.062 0.03,-0.125 0.046,-0.188c0.015,-0.063 0.03,-0.126 0.046,-0.189c0.015,-0.063 0.03,-0.126 0.045,-0.189c0.015,-0.062 0.032,-0.125 0.05,-0.188c0.018,-0.062 0.036,-0.123 0.054,-0.181c0.019,-0.059 0.035,-0.117 0.049,-0.173c0.015,-0.056 0.038,-0.14 0.069,-0.251c0.031,-0.111 0.063,-0.216 0.094,-0.317c0.031,-0.101 0.057,-0.198 0.08,-0.292c0.023,-0.094 0.045,-0.188 0.068,-0.283c0.021,-0.095 0.04,-0.192 0.056,-0.291c0.016,-0.099 0.033,-0.201 0.05,-0.307c0.017,-0.106 0.028,-0.187 0.036,-0.244c0.007,-0.056 0.016,-0.112 0.026,-0.168c0.011,-0.056 0.02,-0.117 0.028,-0.181c0.008,-0.064 0.018,-0.127 0.03,-0.19c0.011,-0.063 0.021,-0.126 0.029,-0.19c0.008,-0.065 0.018,-0.13 0.03,-0.197c0.012,-0.067 0.024,-0.134 0.036,-0.201c0.012,-0.067 0.026,-0.132 0.041,-0.194c0.015,-0.062 0.028,-0.125 0.04,-0.189c0.011,-0.064 0.022,-0.125 0.033,-0.185c0.01,-0.059 0.02,-0.117 0.031,-0.174c0.011,-0.057 0.026,-0.133 0.045,-0.227c0.019,-0.095 0.039,-0.191 0.058,-0.29c0.02,-0.098 0.039,-0.191 0.057,-0.279c0.018,-0.088 0.033,-0.174 0.043,-0.259c0.011,-0.085 0.025,-0.179 0.041,-0.281c0.017,-0.101 0.031,-0.202 0.043,-0.301l0.206,-1.654c0.008,-0.059 0.014,-0.12 0.018,-0.181c0.003,-0.061 0.009,-0.122 0.016,-0.182c0.008,-0.06 0.013,-0.118 0.017,-0.175c0.003,-0.057 0.01,-0.137 0.019,-0.24c0.009,-0.104 0.015,-0.184 0.019,-0.242c0.003,-0.058 0.009,-0.134 0.017,-0.23c0.009,-0.096 0.015,-0.194 0.02,-0.294c0.006,-0.101 0.012,-0.204 0.019,-0.311c0.006,-0.107 0.011,-0.189 0.015,-0.246c0.003,-0.057 0.007,-0.114 0.01,-0.171c0.004,-0.057 0.007,-0.116 0.011,-0.178c0.004,-0.061 0.008,-0.121 0.012,-0.182c0.004,-0.06 0.008,-0.123 0.012,-0.187c0.005,-0.065 0.009,-0.129 0.013,-0.192c0.004,-0.064 0.007,-0.13 0.008,-0.199c0.001,-0.068 0.004,-0.135 0.008,-0.199c0.005,-0.064 0.009,-0.127 0.013,-0.187c0.004,-0.061 0.006,-0.122 0.007,-0.183c0.001,-0.061 0.002,-0.122 0.002,-0.183c0.001,-0.061 0.003,-0.12 0.006,-0.177c0.003,-0.057 0.003,-0.142 -0.002,-0.255c-0.004,-0.112 -0.005,-0.218 -0.003,-0.319c0.002,-0.099 0.003,-0.202 0.001,-0.306c-0.002,-0.105 -0.003,-0.212 -0.004,-0.32c-0.002,-0.108 -0.001,-0.216 0.003,-0.323c0.003,-0.108 0.002,-0.19 -0.001,-0.248c-0.004,-0.058 -0.006,-0.118 -0.006,-0.179c0.001,-0.062 0.001,-0.123 0.001,-0.184c0,-0.061 0,-0.125 -0.002,-0.194c-0.002,-0.069 -0.004,-0.138 -0.006,-0.206c-0.003,-0.069 -0.003,-0.139 -0.001,-0.211c0.001,-0.072 0.001,-0.144 -0.001,-0.216c-0.002,-0.072 -0.006,-0.143 -0.011,-0.212c-0.005,-0.069 -0.009,-0.14 -0.011,-0.212c-0.002,-0.072 -0.005,-0.141 -0.008,-0.207c-0.002,-0.065 -0.005,-0.13 -0.007,-0.194c-0.002,-0.065 -0.003,-0.126 -0.004,-0.184c0,-0.057 0,-0.142 -0.001,-0.254c-0.001,-0.112 -0.004,-0.213 -0.011,-0.304c-0.006,-0.091 -0.011,-0.181 -0.014,-0.272c-0.004,-0.09 -0.009,-0.181 -0.016,-0.271c-0.007,-0.091 -0.017,-0.184 -0.03,-0.279c-0.013,-0.095 -0.026,-0.196 -0.037,-0.302c-0.012,-0.106 -0.026,-0.215 -0.041,-0.328c-0.015,-0.114 -0.026,-0.199 -0.033,-0.258c-0.007,-0.058 -0.013,-0.118 -0.02,-0.181c-0.007,-0.062 -0.014,-0.124 -0.02,-0.186c-0.006,-0.061 -0.013,-0.122 -0.02,-0.181c-0.008,-0.059 -0.015,-0.117 -0.022,-0.176c-0.008,-0.058 -0.017,-0.144 -0.028,-0.257c-0.011,-0.112 -0.022,-0.223 -0.033,-0.333c-0.012,-0.109 -0.024,-0.211 -0.038,-0.306c-0.014,-0.095 -0.026,-0.17 -0.037,-0.226c-0.011,-0.055 -0.024,-0.127 -0.038,-0.215c-0.015,-0.088 -0.031,-0.179 -0.048,-0.271c-0.017,-0.092 -0.036,-0.186 -0.056,-0.282c-0.021,-0.096 -0.041,-0.194 -0.06,-0.294c-0.02,-0.1 -0.041,-0.203 -0.064,-0.311c-0.023,-0.107 -0.04,-0.188 -0.051,-0.243c-0.012,-0.056 -0.023,-0.113 -0.033,-0.172c-0.01,-0.058 -0.021,-0.119 -0.031,-0.181c-0.011,-0.062 -0.021,-0.123 -0.032,-0.182c-0.01,-0.06 -0.02,-0.12 -0.031,-0.183c-0.011,-0.062 -0.023,-0.123 -0.036,-0.182c-0.014,-0.059 -0.031,-0.144 -0.05,-0.254c-0.02,-0.11 -0.037,-0.208 -0.051,-0.293c-0.014,-0.085 -0.029,-0.164 -0.045,-0.238c-0.016,-0.074 -0.032,-0.144 -0.05,-0.211c-0.017,-0.068 -0.033,-0.134 -0.046,-0.2c-0.013,-0.066 -0.029,-0.135 -0.049,-0.206c-0.02,-0.07 -0.041,-0.149 -0.063,-0.235c-0.023,-0.085 -0.044,-0.175 -0.065,-0.267c-0.021,-0.093 -0.044,-0.191 -0.071,-0.296c-0.027,-0.104 -0.047,-0.184 -0.061,-0.239c-0.015,-0.056 -0.029,-0.112 -0.045,-0.168c-0.015,-0.056 -0.037,-0.137 -0.066,-0.245c-0.029,-0.107 -0.058,-0.204 -0.087,-0.291c-0.028,-0.086 -0.058,-0.167 -0.088,-0.243c-0.031,-0.076 -0.057,-0.144 -0.079,-0.204c-0.022,-0.06 -0.043,-0.118 -0.065,-0.175c-0.021,-0.057 -0.043,-0.112 -0.065,-0.165c-0.022,-0.053 -0.046,-0.11 -0.07,-0.171c-0.025,-0.06 -0.051,-0.123 -0.079,-0.188c-0.028,-0.065 -0.057,-0.134 -0.088,-0.206c-0.031,-0.072 -0.063,-0.145 -0.097,-0.218c-0.035,-0.072 -0.067,-0.143 -0.098,-0.211c-0.032,-0.068 -0.064,-0.137 -0.099,-0.206c-0.035,-0.07 -0.068,-0.135 -0.1,-0.197c-0.032,-0.061 -0.064,-0.121 -0.097,-0.179c-0.032,-0.058 -0.065,-0.11 -0.099,-0.158c-0.034,-0.048 -0.074,-0.103 -0.12,-0.167c-0.047,-0.063 -0.093,-0.126 -0.139,-0.189c-0.045,-0.063 -0.085,-0.118 -0.119,-0.166c-0.034,-0.047 -0.069,-0.094 -0.107,-0.143c-0.037,-0.048 -0.072,-0.099 -0.105,-0.154c-0.033,-0.054 -0.066,-0.107 -0.099,-0.157c-0.034,-0.051 -0.067,-0.103 -0.099,-0.158c-0.033,-0.055 -0.065,-0.106 -0.095,-0.153c-0.03,-0.047 -0.068,-0.102 -0.115,-0.166c-0.046,-0.063 -0.093,-0.125 -0.14,-0.184c-0.047,-0.06 -0.093,-0.122 -0.139,-0.185c-0.046,-0.063 -0.092,-0.124 -0.139,-0.184c-0.047,-0.06 -0.092,-0.114 -0.136,-0.162c-0.044,-0.049 -0.09,-0.094 -0.139,-0.137c-0.049,-0.043 -0.098,-0.087 -0.147,-0.132c-0.049,-0.046 -0.096,-0.089 -0.14,-0.131c-0.045,-0.042 -0.086,-0.083 -0.124,-0.123c-0.039,-0.041 -0.082,-0.084 -0.131,-0.13c-0.049,-0.045 -0.099,-0.086 -0.152,-0.121c-0.053,-0.036 -0.108,-0.072 -0.165,-0.107c-0.058,-0.036 -0.118,-0.072 -0.182,-0.109c-0.064,-0.037 -0.12,-0.073 -0.17,-0.107c-0.051,-0.035 -0.107,-0.072 -0.17,-0.113c-0.064,-0.04 -0.125,-0.079 -0.185,-0.115c-0.06,-0.037 -0.121,-0.07 -0.183,-0.099c-0.062,-0.029 -0.125,-0.058 -0.19,-0.088c-0.064,-0.029 -0.126,-0.055 -0.184,-0.077c-0.058,-0.021 -0.118,-0.036 -0.178,-0.044l-0.357,-0.044c-0.065,-0.008 -0.13,-0.022 -0.196,-0.041c-0.066,-0.019 -0.132,-0.037 -0.198,-0.052c-0.066,-0.015 -0.133,-0.027 -0.201,-0.035l-0.406,-0.051c-0.067,-0.008 -0.129,-0.011 -0.187,-0.007c-0.057,0.003 -0.117,0.002 -0.178,-0.001c-0.061,-0.004 -0.123,-0.004 -0.184,-0.001c-0.061,0.003 -0.123,0.007 -0.186,0.014c-0.062,0.007 -0.125,0.017 -0.188,0.031c-0.062,0.013 -0.127,0.032 -0.195,0.056c-0.067,0.024 -0.126,0.049 -0.176,0.076c-0.051,0.026 -0.109,0.055 -0.174,0.086c-0.066,0.031 -0.13,0.065 -0.192,0.101c-0.061,0.035 -0.125,0.071 -0.191,0.105c-0.066,0.035 -0.129,0.074 -0.188,0.117c-0.058,0.043 -0.112,0.08 -0.159,0.11c-0.047,0.03 -0.094,0.06 -0.141,0.09c-0.047,0.03 -0.102,0.063 -0.163,0.098c-0.062,0.036 -0.118,0.066 -0.168,0.093c-0.05,0.026 -0.107,0.057 -0.169,0.093c-0.063,0.035 -0.123,0.071 -0.181,0.107c-0.058,0.035 -0.117,0.075 -0.176,0.118c-0.06,0.043 -0.118,0.088 -0.175,0.135c-0.057,0.047 -0.113,0.094 -0.168,0.141c-0.056,0.047 -0.11,0.092 -0.163,0.136c-0.052,0.044 -0.101,0.086 -0.145,0.127c-0.045,0.041 -0.092,0.08 -0.14,0.117c-0.048,0.038 -0.094,0.077 -0.139,0.118c-0.045,0.041 -0.089,0.08 -0.134,0.118c-0.044,0.038 -0.089,0.078 -0.133,0.118c-0.045,0.041 -0.091,0.088 -0.137,0.14c-0.046,0.053 -0.09,0.103 -0.132,0.152c-0.042,0.049 -0.087,0.102 -0.134,0.16c-0.047,0.059 -0.091,0.115 -0.134,0.168c-0.042,0.052 -0.089,0.108 -0.139,0.166c-0.051,0.058 -0.101,0.111 -0.15,0.159c-0.05,0.047 -0.099,0.097 -0.149,0.148c-0.05,0.051 -0.098,0.105 -0.144,0.161c-0.047,0.055 -0.094,0.112 -0.141,0.171c-0.047,0.058 -0.09,0.119 -0.13,0.183c-0.041,0.063 -0.083,0.128 -0.127,0.195c-0.044,0.066 -0.088,0.129 -0.132,0.189c-0.043,0.059 -0.088,0.119 -0.135,0.178c-0.047,0.059 -0.095,0.12 -0.142,0.181c-0.047,0.062 -0.093,0.125 -0.137,0.188c-0.044,0.063 -0.084,0.126 -0.12,0.19c-0.037,0.064 -0.076,0.129 -0.117,0.196c-0.042,0.067 -0.083,0.136 -0.124,0.206c-0.041,0.07 -0.08,0.137 -0.117,0.201c-0.036,0.064 -0.073,0.126 -0.109,0.187c-0.036,0.06 -0.066,0.116 -0.091,0.167c-0.025,0.051 -0.051,0.102 -0.079,0.152c-0.027,0.051 -0.06,0.113 -0.099,0.187c-0.039,0.074 -0.072,0.136 -0.1,0.186c-0.027,0.051 -0.053,0.104 -0.077,0.159c-0.025,0.055 -0.049,0.11 -0.075,0.164c-0.025,0.054 -0.05,0.109 -0.075,0.163c-0.025,0.054 -0.054,0.112 -0.087,0.173c-0.032,0.061 -0.061,0.122 -0.086,0.183c-0.025,0.061 -0.051,0.123 -0.077,0.185c-0.026,0.061 -0.051,0.123 -0.073,0.185c-0.023,0.063 -0.046,0.123 -0.071,0.18c-0.025,0.058 -0.048,0.116 -0.07,0.175c-0.022,0.059 -0.044,0.116 -0.065,0.171c-0.02,0.055 -0.04,0.111 -0.058,0.17c-0.018,0.058 -0.038,0.115 -0.06,0.17c-0.022,0.054 -0.043,0.11 -0.063,0.165c-0.021,0.056 -0.041,0.113 -0.059,0.171c-0.019,0.059 -0.037,0.12 -0.056,0.182c-0.019,0.063 -0.039,0.123 -0.06,0.182c-0.021,0.058 -0.041,0.118 -0.06,0.181c-0.019,0.063 -0.039,0.121 -0.061,0.176c-0.021,0.055 -0.041,0.111 -0.06,0.17c-0.018,0.059 -0.038,0.119 -0.06,0.181c-0.021,0.063 -0.041,0.123 -0.06,0.182c-0.018,0.058 -0.037,0.119 -0.056,0.182c-0.018,0.062 -0.037,0.125 -0.055,0.188c-0.018,0.063 -0.035,0.127 -0.05,0.194c-0.016,0.066 -0.031,0.133 -0.047,0.199c-0.016,0.065 -0.031,0.131 -0.047,0.198c-0.016,0.067 -0.031,0.133 -0.047,0.2c-0.016,0.066 -0.031,0.133 -0.046,0.199c-0.014,0.067 -0.029,0.132 -0.045,0.195c-0.015,0.063 -0.03,0.126 -0.045,0.188c-0.015,0.063 -0.033,0.127 -0.052,0.193c-0.019,0.066 -0.037,0.134 -0.053,0.204c-0.016,0.07 -0.034,0.14 -0.052,0.209c-0.019,0.07 -0.037,0.142 -0.054,0.215c-0.016,0.073 -0.035,0.148 -0.055,0.225c-0.021,0.077 -0.04,0.152 -0.056,0.226c-0.016,0.073 -0.033,0.148 -0.049,0.225c-0.016,0.077 -0.033,0.157 -0.051,0.242c-0.018,0.084 -0.034,0.159 -0.05,0.226c-0.016,0.066 -0.03,0.133 -0.042,0.2c-0.012,0.067 -0.026,0.136 -0.042,0.205c-0.016,0.07 -0.032,0.14 -0.048,0.21c-0.016,0.07 -0.032,0.142 -0.048,0.216c-0.015,0.073 -0.032,0.15 -0.049,0.231c-0.018,0.081 -0.035,0.162 -0.053,0.243c-0.017,0.08 -0.034,0.157 -0.051,0.231c-0.016,0.073 -0.033,0.146 -0.049,0.22c-0.017,0.073 -0.032,0.147 -0.044,0.22c-0.013,0.074 -0.027,0.148 -0.043,0.222c-0.016,0.074 -0.032,0.146 -0.048,0.216c-0.016,0.07 -0.03,0.135 -0.041,0.194c-0.011,0.06 -0.022,0.122 -0.034,0.185c-0.011,0.064 -0.026,0.134 -0.043,0.211c-0.017,0.076 -0.03,0.143 -0.041,0.199c-0.011,0.056 -0.024,0.116 -0.039,0.179c-0.015,0.063 -0.029,0.128 -0.041,0.195c-0.012,0.067 -0.024,0.139 -0.036,0.216c-0.013,0.077 -0.024,0.154 -0.033,0.229l-0.206,1.653c-0.009,0.071 -0.02,0.141 -0.032,0.212c-0.013,0.07 -0.023,0.139 -0.032,0.206l-0.11,0.882c-0.009,0.075 -0.015,0.152 -0.018,0.23c-0.004,0.079 -0.006,0.154 -0.008,0.225c-0.001,0.072 -0.003,0.144 -0.004,0.216c-0.002,0.072 -0.004,0.145 -0.006,0.22c-0.002,0.075 -0.004,0.152 -0.006,0.232c-0.003,0.079 -0.006,0.159 -0.009,0.241c-0.003,0.082 -0.006,0.165 -0.009,0.247c-0.004,0.083 -0.008,0.167 -0.011,0.253c-0.004,0.086 -0.007,0.172 -0.01,0.258c-0.004,0.086 -0.007,0.17 -0.01,0.252c-0.002,0.082 -0.005,0.163 -0.008,0.242c-0.002,0.079 -0.006,0.156 -0.012,0.231c-0.006,0.075 -0.01,0.148 -0.012,0.219c-0.002,0.072 -0.005,0.145 -0.007,0.221c-0.002,0.075 -0.003,0.147 -0.004,0.215c-0.002,0.068 -0.003,0.138 -0.005,0.21c-0.001,0.072 -0.002,0.142 -0.003,0.21c-0.002,0.069 -0.003,0.137 -0.005,0.205c-0.003,0.068 -0.004,0.137 -0.005,0.205c-0.001,0.068 -0.001,0.137 0.002,0.205c0.002,0.069 0.003,0.136 0.003,0.2c-0.001,0.064 -0.001,0.127 -0.002,0.189c0,0.061 -0.001,0.124 -0.002,0.188c-0.002,0.064 -0.001,0.126 0.003,0.185c0.004,0.058 0.005,0.118 0.005,0.179c0,0.06 0.004,0.122 0.01,0.183c0.008,0.062 0.012,0.124 0.015,0.186c0.002,0.062 0.007,0.123 0.014,0.185c0.007,0.062 0.014,0.126 0.02,0.192c0.007,0.066 0.012,0.129 0.014,0.19c0.002,0.061 0.006,0.121 0.009,0.18c0.004,0.059 0.005,0.125 0.003,0.201c-0.002,0.075 -0.004,0.148 -0.005,0.22c-0.002,0.072 -0.005,0.149 -0.009,0.231c-0.003,0.083 -0.007,0.156 -0.011,0.22c-0.005,0.063 -0.007,0.13 -0.009,0.198c-0.001,0.068 0,0.137 0.002,0.206c0.003,0.068 0.007,0.137 0.013,0.207c0.006,0.069 0.012,0.136 0.018,0.201c0.006,0.065 0.012,0.132 0.018,0.201c0.006,0.07 0.012,0.139 0.017,0.208c0.005,0.069 0.012,0.142 0.021,0.219c0.009,0.076 0.017,0.147 0.023,0.213c0.007,0.066 0.013,0.131 0.019,0.196c0.005,0.066 0.012,0.129 0.019,0.192c0.007,0.062 0.012,0.124 0.015,0.185c0.004,0.062 0.007,0.134 0.011,0.218c0.003,0.083 0.011,0.167 0.022,0.251c0.012,0.085 0.023,0.156 0.033,0.215c0.01,0.059 0.019,0.117 0.026,0.176c0.008,0.058 0.015,0.116 0.021,0.174c0.007,0.059 0.014,0.117 0.021,0.176c0.008,0.059 0.013,0.119 0.017,0.181c0.003,0.061 0.008,0.121 0.015,0.179c0.006,0.058 0.018,0.126 0.034,0.204c0.016,0.077 0.034,0.148 0.055,0.212c0.021,0.064 0.045,0.127 0.074,0.188c0.028,0.06 0.058,0.118 0.091,0.173c0.033,0.054 0.06,0.112 0.081,0.172c0.021,0.06 0.036,0.128 0.045,0.205c0.009,0.076 0.013,0.145 0.013,0.207c0,0.061 0,0.122 -0.001,0.183c0,0.061 0,0.12 -0.001,0.178c-0.001,0.059 0.003,0.128 0.012,0.207c0.008,0.08 0.02,0.154 0.037,0.221c0.017,0.067 0.036,0.127 0.058,0.179c0.022,0.053 0.049,0.112 0.08,0.178c0.032,0.065 0.057,0.124 0.076,0.177c0.02,0.053 0.036,0.109 0.05,0.168c0.014,0.059 0.025,0.127 0.034,0.204c0.009,0.076 0.015,0.156 0.018,0.239c0.004,0.084 0.012,0.163 0.025,0.236c0.013,0.074 0.028,0.144 0.044,0.21c0.017,0.066 0.039,0.132 0.067,0.197c0.028,0.065 0.058,0.127 0.091,0.185c0.032,0.058 0.058,0.113 0.077,0.166c0.02,0.053 0.036,0.112 0.048,0.178c0.013,0.066 0.025,0.134 0.035,0.204c0.01,0.07 0.021,0.136 0.034,0.199c0.014,0.063 0.036,0.129 0.067,0.197c0.031,0.069 0.065,0.13 0.102,0.185c0.036,0.055 0.071,0.11 0.104,0.165c0.032,0.054 0.065,0.111 0.097,0.169c0.033,0.058 0.063,0.119 0.091,0.183c0.028,0.065 0.053,0.127 0.074,0.188c0.021,0.06 0.042,0.119 0.065,0.176c0.022,0.057 0.044,0.113 0.066,0.17c0.021,0.057 0.048,0.112 0.081,0.167c0.033,0.055 0.068,0.109 0.104,0.164c0.037,0.054 0.068,0.106 0.094,0.156c0.026,0.051 0.05,0.104 0.071,0.161c0.022,0.056 0.04,0.113 0.056,0.169c0.015,0.055 0.04,0.109 0.076,0.16c0.036,0.052 0.076,0.096 0.118,0.133c0.042,0.037 0.088,0.079 0.136,0.125c0.049,0.047 0.092,0.093 0.13,0.141c0.037,0.048 0.072,0.097 0.106,0.148c0.033,0.051 0.07,0.101 0.11,0.149c0.04,0.048 0.079,0.094 0.117,0.138c0.038,0.044 0.081,0.085 0.131,0.124c0.05,0.039 0.1,0.074 0.15,0.106c0.051,0.032 0.1,0.07 0.148,0.116c0.047,0.045 0.09,0.096 0.126,0.151c0.036,0.055 0.076,0.103 0.118,0.144c0.041,0.041 0.085,0.081 0.131,0.119c0.046,0.038 0.098,0.075 0.154,0.111c0.056,0.035 0.112,0.067 0.166,0.095c0.055,0.028 0.111,0.055 0.169,0.08c0.058,0.025 0.119,0.053 0.184,0.083c0.064,0.03 0.136,0.061 0.215,0.092c0.079,0.032 0.146,0.058 0.202,0.079c0.055,0.022 0.114,0.043 0.176,0.065c0.061,0.022 0.125,0.04 0.192,0.056c0.066,0.016 0.138,0.032 0.215,0.049c0.077,0.016 0.157,0.031 0.238,0.045c0.081,0.014 0.163,0.028 0.244,0.042l0.122,0.021" style="fill:none;stroke:#000;stroke-width:1.67px;"/><path id="STROKE_02D85382.-AEE1.-468C.-A938.-21C8D204893F" d="M55.631,90.726c0.115,-0.058 0.197,-0.105 0.249,-0.142c0.051,-0.036 0.096,-0.079 0.135,-0.128c0.038,-0.049 0.072,-0.101 0.101,-0.156c0.029,-0.054 0.057,-0.108 0.085,-0.162c0.028,-0.054 0.057,-0.105 0.088,-0.151c0.031,-0.047 0.064,-0.098 0.101,-0.155c0.036,-0.056 0.073,-0.114 0.109,-0.175c0.036,-0.06 0.073,-0.126 0.111,-0.197c0.037,-0.07 0.068,-0.131 0.093,-0.182c0.024,-0.051 0.056,-0.112 0.093,-0.183c0.037,-0.07 0.073,-0.14 0.106,-0.207c0.034,-0.068 0.067,-0.136 0.102,-0.203c0.034,-0.068 0.066,-0.135 0.095,-0.199c0.029,-0.065 0.061,-0.131 0.095,-0.199c0.034,-0.068 0.069,-0.137 0.102,-0.208c0.034,-0.072 0.068,-0.143 0.102,-0.215c0.034,-0.072 0.063,-0.133 0.088,-0.184c0.024,-0.051 0.048,-0.105 0.069,-0.164c0.021,-0.058 0.042,-0.117 0.065,-0.175c0.021,-0.059 0.04,-0.116 0.054,-0.172c0.014,-0.056 0.029,-0.111 0.043,-0.167c0.014,-0.055 0.028,-0.111 0.041,-0.167c0.014,-0.056 0.026,-0.112 0.037,-0.168c0.01,-0.056 0.023,-0.114 0.038,-0.173c0.015,-0.06 0.027,-0.118 0.038,-0.174c0.011,-0.056 0.027,-0.123 0.047,-0.2c0.021,-0.077 0.041,-0.15 0.061,-0.219c0.019,-0.07 0.04,-0.135 0.062,-0.197c0.021,-0.062 0.04,-0.127 0.056,-0.197c0.016,-0.07 0.032,-0.142 0.049,-0.216c0.017,-0.074 0.029,-0.141 0.036,-0.201l0.274,-2.195c0.008,-0.064 0.014,-0.128 0.018,-0.192c0.004,-0.064 0.009,-0.128 0.013,-0.192c0.004,-0.065 0.007,-0.126 0.006,-0.183c0,-0.058 0,-0.115 0,-0.173c0,-0.058 0.001,-0.127 0.005,-0.205c0.003,-0.079 0.005,-0.154 0.007,-0.226c0.002,-0.071 0.003,-0.143 0.005,-0.215c0.001,-0.071 0.001,-0.147 0,-0.226c-0.001,-0.079 -0.002,-0.147 -0.002,-0.206c0,-0.058 0.001,-0.117 0.002,-0.178c0.001,-0.061 -0.001,-0.122 -0.004,-0.184c-0.003,-0.062 -0.006,-0.125 -0.009,-0.19c-0.003,-0.065 -0.006,-0.13 -0.009,-0.195c-0.003,-0.066 -0.006,-0.131 -0.008,-0.195c-0.002,-0.065 -0.005,-0.126 -0.008,-0.185c-0.004,-0.059 -0.008,-0.117 -0.012,-0.175c-0.004,-0.058 -0.006,-0.124 -0.008,-0.2c-0.002,-0.075 -0.004,-0.146 -0.005,-0.211c-0.003,-0.066 -0.007,-0.127 -0.015,-0.186c-0.007,-0.058 -0.013,-0.123 -0.018,-0.196c-0.005,-0.072 -0.012,-0.149 -0.02,-0.23c-0.008,-0.08 -0.014,-0.155 -0.017,-0.223c-0.002,-0.068 -0.005,-0.131 -0.007,-0.189c-0.003,-0.059 -0.007,-0.117 -0.011,-0.175c-0.004,-0.058 -0.009,-0.116 -0.017,-0.175c-0.007,-0.058 -0.013,-0.116 -0.017,-0.174c-0.003,-0.058 -0.011,-0.126 -0.023,-0.203c-0.011,-0.077 -0.023,-0.146 -0.034,-0.204c-0.011,-0.059 -0.023,-0.122 -0.036,-0.188c-0.013,-0.066 -0.025,-0.128 -0.036,-0.188c-0.011,-0.059 -0.019,-0.123 -0.025,-0.192c-0.005,-0.068 -0.013,-0.144 -0.025,-0.229c-0.011,-0.084 -0.021,-0.167 -0.028,-0.247c-0.008,-0.081 -0.019,-0.154 -0.033,-0.22c-0.014,-0.066 -0.027,-0.129 -0.041,-0.188c-0.014,-0.059 -0.028,-0.117 -0.042,-0.172c-0.015,-0.056 -0.029,-0.112 -0.045,-0.168c-0.015,-0.056 -0.031,-0.115 -0.048,-0.179c-0.017,-0.064 -0.031,-0.123 -0.043,-0.179c-0.011,-0.055 -0.024,-0.114 -0.037,-0.176c-0.013,-0.063 -0.031,-0.125 -0.053,-0.186c-0.022,-0.061 -0.041,-0.126 -0.057,-0.196c-0.016,-0.069 -0.037,-0.135 -0.061,-0.196c-0.025,-0.061 -0.05,-0.12 -0.075,-0.178c-0.025,-0.057 -0.055,-0.109 -0.088,-0.156c-0.034,-0.047 -0.072,-0.095 -0.113,-0.144c-0.041,-0.048 -0.079,-0.1 -0.116,-0.154c-0.037,-0.054 -0.065,-0.112 -0.086,-0.173c-0.021,-0.06 -0.041,-0.121 -0.058,-0.18l-0.026,-0.09" style="fill:none;stroke:#000;stroke-width:1.67px;"/><path id="STROKE_665F881E.-1089.-490D.-9F8D.-A450D1C2F236" d="M57.118,71.167c-0.114,0.043 -0.203,0.074 -0.267,0.095c-0.063,0.022 -0.126,0.046 -0.187,0.074c-0.062,0.029 -0.122,0.065 -0.181,0.108c-0.059,0.043 -0.112,0.079 -0.159,0.11c-0.047,0.03 -0.102,0.064 -0.165,0.104c-0.063,0.039 -0.124,0.076 -0.182,0.112c-0.058,0.035 -0.111,0.072 -0.159,0.109c-0.047,0.036 -0.098,0.077 -0.15,0.121c-0.053,0.044 -0.108,0.093 -0.165,0.147c-0.058,0.055 -0.115,0.111 -0.173,0.168c-0.058,0.057 -0.112,0.115 -0.162,0.174c-0.05,0.058 -0.101,0.115 -0.155,0.169c-0.054,0.054 -0.106,0.109 -0.156,0.164c-0.05,0.056 -0.101,0.111 -0.151,0.165c-0.05,0.055 -0.104,0.109 -0.161,0.164c-0.058,0.054 -0.108,0.111 -0.152,0.17c-0.043,0.059 -0.088,0.118 -0.135,0.177c-0.047,0.059 -0.092,0.12 -0.136,0.183c-0.044,0.063 -0.084,0.125 -0.12,0.185c-0.036,0.059 -0.074,0.119 -0.114,0.179c-0.04,0.06 -0.079,0.118 -0.118,0.174c-0.04,0.056 -0.08,0.114 -0.12,0.174c-0.041,0.06 -0.083,0.122 -0.127,0.185c-0.044,0.063 -0.084,0.123 -0.119,0.179c-0.036,0.056 -0.071,0.111 -0.107,0.165c-0.035,0.054 -0.069,0.109 -0.102,0.166c-0.033,0.057 -0.065,0.113 -0.097,0.17c-0.032,0.057 -0.064,0.116 -0.097,0.177c-0.032,0.061 -0.067,0.123 -0.105,0.187c-0.037,0.064 -0.073,0.13 -0.106,0.198c-0.034,0.067 -0.065,0.137 -0.095,0.209c-0.031,0.072 -0.059,0.143 -0.087,0.215c-0.027,0.072 -0.054,0.139 -0.079,0.201c-0.025,0.062 -0.05,0.122 -0.076,0.179c-0.026,0.058 -0.055,0.119 -0.088,0.184c-0.033,0.064 -0.063,0.132 -0.091,0.205c-0.027,0.073 -0.052,0.145 -0.075,0.218c-0.023,0.072 -0.047,0.146 -0.071,0.222c-0.024,0.076 -0.046,0.151 -0.066,0.224c-0.021,0.073 -0.039,0.149 -0.057,0.23c-0.017,0.081 -0.033,0.149 -0.046,0.205c-0.014,0.056 -0.028,0.113 -0.042,0.173c-0.015,0.06 -0.035,0.129 -0.06,0.209c-0.024,0.079 -0.046,0.152 -0.066,0.218c-0.019,0.066 -0.037,0.128 -0.055,0.188c-0.017,0.059 -0.034,0.12 -0.049,0.183c-0.015,0.062 -0.029,0.127 -0.041,0.194c-0.012,0.067 -0.024,0.134 -0.036,0.201c-0.012,0.067 -0.026,0.135 -0.042,0.205c-0.016,0.07 -0.034,0.138 -0.053,0.204c-0.019,0.066 -0.036,0.132 -0.051,0.199c-0.015,0.067 -0.03,0.129 -0.045,0.189c-0.014,0.059 -0.029,0.118 -0.044,0.178c-0.015,0.059 -0.027,0.117 -0.038,0.173c-0.011,0.057 -0.021,0.113 -0.032,0.169c-0.011,0.056 -0.022,0.119 -0.035,0.189c-0.012,0.071 -0.028,0.141 -0.047,0.21c-0.019,0.07 -0.033,0.133 -0.044,0.189c-0.011,0.056 -0.02,0.114 -0.028,0.175l-0.044,0.355c-0.007,0.057 -0.016,0.115 -0.027,0.176c-0.011,0.06 -0.022,0.12 -0.034,0.179c-0.011,0.059 -0.02,0.118 -0.027,0.175l-0.065,0.52c-0.007,0.057 -0.012,0.116 -0.016,0.177c-0.004,0.061 -0.01,0.123 -0.018,0.186c-0.008,0.063 -0.012,0.129 -0.014,0.198c-0.001,0.068 0,0.135 0.002,0.2c0.002,0.065 0.004,0.129 0.008,0.19c0.003,0.061 0.007,0.121 0.011,0.18c0.004,0.059 0.006,0.122 0.008,0.19c0.002,0.068 0.002,0.134 0.001,0.199c0,0.065 -0.002,0.133 -0.003,0.205c-0.002,0.072 -0.003,0.145 -0.005,0.22c-0.002,0.076 0,0.144 0.007,0.207c0.007,0.062 0.014,0.124 0.02,0.186c0.006,0.062 0.017,0.128 0.034,0.199c0.017,0.07 0.032,0.139 0.045,0.205c0.013,0.067 0.023,0.135 0.029,0.204c0.006,0.069 0.008,0.136 0.007,0.2c-0.002,0.064 -0.001,0.127 0.003,0.189c0.003,0.062 0.007,0.13 0.013,0.202c0.006,0.073 0.016,0.137 0.03,0.193c0.014,0.056 0.036,0.111 0.065,0.165c0.029,0.054 0.056,0.107 0.079,0.16c0.023,0.053 0.038,0.114 0.047,0.183c0.009,0.07 0.02,0.138 0.034,0.205c0.014,0.067 0.026,0.131 0.036,0.193c0.009,0.062 0.022,0.121 0.037,0.177c0.015,0.056 0.037,0.114 0.065,0.176c0.029,0.062 0.053,0.123 0.074,0.183c0.021,0.06 0.042,0.125 0.062,0.196c0.019,0.071 0.037,0.136 0.051,0.196c0.015,0.059 0.028,0.118 0.038,0.176c0.01,0.059 0.026,0.118 0.047,0.178c0.021,0.06 0.053,0.109 0.095,0.147c0.042,0.038 0.076,0.087 0.101,0.148c0.024,0.06 0.044,0.12 0.059,0.18c0.014,0.06 0.038,0.114 0.072,0.161c0.034,0.047 0.07,0.093 0.108,0.137c0.038,0.044 0.071,0.093 0.1,0.147c0.03,0.054 0.053,0.108 0.072,0.161c0.018,0.052 0.038,0.105 0.06,0.159c0.022,0.053 0.052,0.103 0.089,0.151c0.038,0.047 0.075,0.095 0.112,0.144c0.038,0.048 0.073,0.097 0.106,0.148c0.034,0.05 0.065,0.106 0.093,0.167c0.028,0.061 0.07,0.107 0.124,0.14c0.054,0.032 0.104,0.065 0.149,0.099c0.046,0.034 0.083,0.077 0.113,0.128c0.029,0.05 0.07,0.091 0.12,0.122c0.051,0.031 0.104,0.051 0.162,0.058l0.511,0.064c0.056,0.007 0.113,0.01 0.171,0.011c0.058,0 0.115,-0.011 0.172,-0.033c0.056,-0.022 0.112,-0.04 0.168,-0.055c0.057,-0.014 0.116,-0.032 0.18,-0.052c0.063,-0.021 0.123,-0.04 0.18,-0.059c0.057,-0.018 0.121,-0.044 0.194,-0.078c0.072,-0.034 0.137,-0.065 0.195,-0.094c0.058,-0.029 0.121,-0.066 0.188,-0.112c0.066,-0.045 0.125,-0.087 0.177,-0.124c0.051,-0.037 0.102,-0.081 0.152,-0.132c0.05,-0.052 0.099,-0.112 0.147,-0.181c0.048,-0.07 0.094,-0.152 0.139,-0.247c0.044,-0.096 0.077,-0.175 0.1,-0.236l0.033,-0.093" style="fill:none;stroke:#000;stroke-width:1.67px;"/><path id="STROKE_3AF085E5.-D8C6.-4E6D.-BD49.-B69E1E6B3B90" d="M56.217,62.677c-0.021,-0.111 -0.06,-0.173 -0.116,-0.187c-0.057,-0.014 -0.115,-0.025 -0.175,-0.032c-0.06,-0.008 -0.119,-0.013 -0.176,-0.017c-0.058,-0.003 -0.118,0.001 -0.18,0.015c-0.063,0.014 -0.124,0.028 -0.183,0.042c-0.059,0.014 -0.118,0.03 -0.179,0.048c-0.06,0.018 -0.122,0.034 -0.184,0.047c-0.063,0.014 -0.124,0.028 -0.184,0.042c-0.059,0.014 -0.118,0.034 -0.176,0.059c-0.057,0.025 -0.113,0.053 -0.166,0.082c-0.054,0.029 -0.104,0.061 -0.152,0.094c-0.047,0.034 -0.097,0.065 -0.147,0.095c-0.051,0.029 -0.103,0.057 -0.157,0.083c-0.054,0.026 -0.106,0.054 -0.156,0.083c-0.05,0.03 -0.104,0.061 -0.163,0.093c-0.058,0.032 -0.114,0.063 -0.168,0.092c-0.055,0.029 -0.11,0.057 -0.167,0.082c-0.057,0.026 -0.111,0.057 -0.163,0.094c-0.051,0.037 -0.102,0.08 -0.151,0.127c-0.049,0.048 -0.098,0.094 -0.147,0.138c-0.049,0.044 -0.096,0.084 -0.14,0.122c-0.044,0.038 -0.093,0.079 -0.145,0.123c-0.053,0.044 -0.1,0.091 -0.142,0.139c-0.042,0.049 -0.085,0.099 -0.127,0.152c-0.042,0.052 -0.085,0.106 -0.128,0.161c-0.043,0.056 -0.086,0.11 -0.128,0.163c-0.043,0.052 -0.083,0.101 -0.121,0.146c-0.038,0.045 -0.078,0.096 -0.121,0.152c-0.043,0.056 -0.083,0.109 -0.118,0.159c-0.036,0.049 -0.075,0.098 -0.117,0.147c-0.042,0.049 -0.084,0.101 -0.127,0.156c-0.043,0.056 -0.082,0.107 -0.116,0.153c-0.034,0.046 -0.073,0.099 -0.117,0.159c-0.043,0.06 -0.081,0.114 -0.112,0.164c-0.031,0.051 -0.065,0.102 -0.101,0.155c-0.036,0.053 -0.072,0.107 -0.107,0.164c-0.036,0.056 -0.071,0.113 -0.107,0.17c-0.036,0.057 -0.072,0.116 -0.108,0.177c-0.036,0.06 -0.071,0.119 -0.103,0.176c-0.033,0.056 -0.067,0.119 -0.1,0.187c-0.033,0.067 -0.067,0.137 -0.1,0.208c-0.034,0.071 -0.067,0.145 -0.098,0.22c-0.032,0.076 -0.063,0.148 -0.093,0.216c-0.029,0.068 -0.061,0.132 -0.094,0.193c-0.033,0.06 -0.064,0.121 -0.093,0.182c-0.029,0.061 -0.059,0.123 -0.088,0.184c-0.03,0.061 -0.062,0.126 -0.095,0.194c-0.033,0.068 -0.065,0.136 -0.095,0.204c-0.029,0.068 -0.062,0.138 -0.096,0.209c-0.035,0.071 -0.067,0.141 -0.097,0.209c-0.03,0.068 -0.058,0.136 -0.085,0.205c-0.027,0.068 -0.053,0.135 -0.079,0.201c-0.026,0.065 -0.051,0.128 -0.078,0.189c-0.026,0.061 -0.051,0.121 -0.076,0.179c-0.025,0.059 -0.051,0.126 -0.079,0.201c-0.028,0.076 -0.053,0.146 -0.076,0.212c-0.023,0.066 -0.043,0.126 -0.06,0.181c-0.017,0.055 -0.035,0.111 -0.053,0.167c-0.018,0.056 -0.036,0.111 -0.054,0.167c-0.017,0.055 -0.035,0.114 -0.053,0.176c-0.018,0.063 -0.035,0.126 -0.05,0.188c-0.015,0.063 -0.032,0.124 -0.051,0.183c-0.018,0.059 -0.036,0.116 -0.054,0.172c-0.018,0.055 -0.038,0.119 -0.061,0.191c-0.023,0.073 -0.046,0.138 -0.068,0.196c-0.022,0.058 -0.044,0.117 -0.066,0.176c-0.022,0.058 -0.04,0.116 -0.053,0.171c-0.014,0.056 -0.03,0.119 -0.05,0.188c-0.02,0.07 -0.037,0.132 -0.051,0.188c-0.014,0.056 -0.031,0.113 -0.049,0.172c-0.018,0.059 -0.037,0.127 -0.057,0.204c-0.02,0.076 -0.04,0.151 -0.06,0.225c-0.02,0.073 -0.04,0.143 -0.059,0.208c-0.019,0.066 -0.037,0.132 -0.053,0.198c-0.015,0.067 -0.032,0.13 -0.049,0.189c-0.018,0.059 -0.036,0.12 -0.055,0.182c-0.019,0.062 -0.038,0.124 -0.057,0.187c-0.018,0.063 -0.035,0.123 -0.05,0.183c-0.015,0.059 -0.029,0.116 -0.042,0.173c-0.014,0.056 -0.029,0.121 -0.045,0.194c-0.017,0.074 -0.033,0.142 -0.048,0.204c-0.015,0.063 -0.028,0.127 -0.04,0.194c-0.013,0.067 -0.027,0.139 -0.044,0.217c-0.017,0.077 -0.033,0.156 -0.046,0.237c-0.014,0.081 -0.029,0.158 -0.046,0.232c-0.017,0.074 -0.03,0.141 -0.04,0.2c-0.01,0.06 -0.023,0.123 -0.039,0.189c-0.016,0.067 -0.028,0.136 -0.037,0.207c-0.009,0.07 -0.019,0.143 -0.032,0.217c-0.013,0.073 -0.025,0.138 -0.036,0.194c-0.01,0.056 -0.021,0.116 -0.033,0.18c-0.011,0.063 -0.023,0.125 -0.034,0.184c-0.011,0.06 -0.022,0.118 -0.033,0.175c-0.011,0.056 -0.022,0.122 -0.035,0.196c-0.013,0.073 -0.023,0.14 -0.031,0.2c-0.007,0.06 -0.016,0.118 -0.027,0.175c-0.011,0.057 -0.024,0.117 -0.038,0.179c-0.014,0.063 -0.029,0.127 -0.045,0.194c-0.015,0.066 -0.03,0.135 -0.042,0.205c-0.012,0.071 -0.023,0.141 -0.032,0.212l-0.272,2.179c-0.009,0.072 -0.014,0.145 -0.016,0.221c-0.002,0.075 -0.006,0.155 -0.013,0.241c-0.007,0.085 -0.013,0.158 -0.018,0.218c-0.005,0.061 -0.01,0.125 -0.014,0.193c-0.005,0.068 -0.01,0.135 -0.014,0.203c-0.005,0.068 -0.012,0.136 -0.02,0.203c-0.009,0.068 -0.017,0.131 -0.024,0.191c-0.008,0.06 -0.013,0.119 -0.016,0.176c-0.004,0.057 -0.007,0.123 -0.009,0.198c-0.002,0.075 -0.001,0.147 0.001,0.216c0.003,0.069 0.004,0.143 0.004,0.222c0,0.08 0.001,0.149 0.001,0.206c0,0.057 0,0.115 0.001,0.172c0,0.058 -0.002,0.115 -0.005,0.172c-0.004,0.057 -0.007,0.116 -0.011,0.177c-0.004,0.061 -0.007,0.131 -0.01,0.21c-0.002,0.078 -0.004,0.155 -0.006,0.231c-0.002,0.076 -0.003,0.146 -0.001,0.211c0.002,0.064 0.005,0.129 0.008,0.195c0.003,0.065 0.004,0.13 0.004,0.194c-0.001,0.064 -0.001,0.135 0.001,0.211c0.001,0.076 0.002,0.154 0.003,0.233c0,0.079 -0.001,0.156 -0.003,0.231c-0.002,0.075 -0.001,0.145 0.001,0.211c0.003,0.065 0.005,0.128 0.005,0.189c-0.001,0.061 0,0.129 0,0.206c0.001,0.076 0.004,0.15 0.01,0.223c0.006,0.072 0.008,0.138 0.009,0.195c0,0.057 0,0.116 0,0.177c-0.001,0.061 -0.001,0.122 -0.003,0.184c-0.001,0.061 -0.001,0.122 -0.002,0.183c0,0.061 0.002,0.123 0.005,0.185c0.004,0.061 0.009,0.132 0.017,0.212c0.007,0.08 0.013,0.158 0.019,0.234c0.005,0.076 0.01,0.15 0.016,0.223c0.006,0.073 0.015,0.146 0.027,0.219c0.012,0.074 0.021,0.143 0.028,0.209c0.006,0.066 0.012,0.132 0.018,0.198c0.006,0.065 0.009,0.136 0.011,0.211c0.002,0.076 0.007,0.149 0.017,0.218c0.01,0.07 0.019,0.14 0.028,0.209c0.009,0.07 0.022,0.14 0.039,0.21c0.017,0.069 0.03,0.143 0.038,0.22c0.008,0.077 0.015,0.145 0.023,0.203c0.007,0.059 0.012,0.117 0.015,0.174c0.003,0.058 0.007,0.127 0.012,0.207c0.004,0.08 0.009,0.159 0.015,0.235c0.005,0.076 0.009,0.146 0.011,0.211c0.002,0.064 0.005,0.127 0.008,0.19c0.003,0.062 0.007,0.121 0.011,0.179c0.004,0.058 0.011,0.118 0.02,0.181c0.01,0.063 0.021,0.129 0.035,0.199c0.013,0.069 0.026,0.144 0.037,0.225c0.011,0.081 0.02,0.151 0.028,0.209c0.007,0.058 0.016,0.121 0.026,0.187c0.01,0.066 0.018,0.134 0.023,0.203c0.006,0.069 0.012,0.135 0.019,0.197c0.007,0.061 0.012,0.132 0.016,0.211c0.004,0.08 0.012,0.149 0.023,0.208c0.011,0.06 0.023,0.119 0.037,0.178c0.014,0.06 0.028,0.119 0.043,0.178c0.014,0.059 0.028,0.122 0.041,0.189c0.013,0.066 0.029,0.133 0.046,0.2c0.018,0.066 0.034,0.135 0.051,0.205c0.016,0.071 0.032,0.141 0.048,0.212c0.016,0.07 0.034,0.139 0.056,0.207c0.021,0.067 0.04,0.133 0.057,0.196c0.017,0.063 0.034,0.122 0.052,0.178c0.018,0.057 0.041,0.119 0.068,0.188c0.028,0.068 0.054,0.136 0.079,0.203c0.024,0.068 0.048,0.139 0.071,0.214c0.023,0.074 0.041,0.145 0.054,0.212c0.013,0.067 0.026,0.133 0.04,0.2c0.014,0.067 0.028,0.129 0.041,0.189c0.014,0.059 0.03,0.115 0.049,0.168c0.018,0.052 0.041,0.111 0.069,0.175c0.028,0.065 0.054,0.125 0.076,0.182c0.022,0.057 0.042,0.117 0.059,0.181c0.017,0.063 0.036,0.129 0.056,0.195c0.02,0.067 0.043,0.132 0.069,0.193c0.025,0.061 0.054,0.122 0.086,0.184c0.032,0.061 0.064,0.117 0.096,0.168c0.033,0.05 0.066,0.102 0.098,0.157c0.033,0.054 0.065,0.107 0.096,0.158c0.03,0.051 0.057,0.108 0.082,0.172c0.024,0.064 0.047,0.13 0.067,0.197c0.02,0.068 0.04,0.134 0.061,0.197c0.021,0.063 0.044,0.124 0.069,0.181c0.025,0.057 0.055,0.107 0.089,0.152c0.034,0.044 0.071,0.092 0.112,0.144c0.04,0.051 0.079,0.106 0.115,0.164c0.036,0.059 0.072,0.117 0.108,0.176c0.036,0.058 0.073,0.113 0.109,0.165c0.037,0.052 0.082,0.1 0.133,0.146c0.051,0.046 0.103,0.079 0.155,0.1c0.052,0.021 0.109,0.043 0.17,0.065c0.062,0.022 0.124,0.045 0.187,0.067c0.063,0.022 0.117,0.052 0.162,0.09c0.045,0.037 0.086,0.082 0.123,0.134c0.037,0.051 0.077,0.105 0.121,0.161c0.044,0.056 0.094,0.101 0.15,0.137c0.057,0.035 0.115,0.059 0.176,0.07c0.06,0.012 0.124,0.022 0.191,0.03c0.067,0.009 0.134,0.017 0.201,0.025c0.068,0.009 0.133,0.021 0.197,0.036c0.063,0.014 0.13,0.033 0.199,0.056c0.069,0.024 0.134,0.044 0.197,0.062c0.062,0.019 0.123,0.037 0.182,0.055c0.06,0.019 0.125,0.034 0.195,0.047c0.071,0.012 0.137,0.023 0.201,0.035c0.063,0.011 0.123,0.024 0.179,0.039c0.056,0.014 0.111,0.032 0.166,0.054c0.054,0.021 0.112,0.044 0.174,0.07c0.061,0.026 0.125,0.046 0.193,0.061c0.067,0.016 0.138,0.028 0.212,0.037c0.075,0.009 0.143,0.012 0.204,0.009c0.061,-0.003 0.12,-0.01 0.176,-0.022c0.056,-0.011 0.114,-0.019 0.176,-0.025c0.061,-0.007 0.123,-0.011 0.186,-0.014c0.062,-0.004 0.124,-0.012 0.187,-0.026c0.062,-0.014 0.122,-0.028 0.178,-0.042c0.056,-0.015 0.12,-0.035 0.192,-0.062c0.071,-0.027 0.134,-0.052 0.187,-0.074c0.054,-0.023 0.113,-0.048 0.177,-0.076c0.065,-0.028 0.129,-0.056 0.193,-0.084c0.065,-0.028 0.126,-0.058 0.185,-0.09c0.058,-0.032 0.117,-0.066 0.176,-0.102c0.059,-0.037 0.12,-0.078 0.182,-0.124c0.063,-0.046 0.128,-0.099 0.193,-0.16c0.066,-0.06 0.119,-0.111 0.16,-0.152c0.041,-0.041 0.085,-0.084 0.13,-0.129c0.045,-0.045 0.096,-0.093 0.153,-0.143c0.057,-0.05 0.113,-0.097 0.169,-0.141c0.055,-0.043 0.109,-0.087 0.161,-0.131c0.053,-0.044 0.106,-0.095 0.16,-0.153c0.055,-0.059 0.109,-0.118 0.164,-0.179c0.054,-0.061 0.111,-0.122 0.168,-0.184c0.058,-0.061 0.107,-0.111 0.147,-0.149c0.041,-0.039 0.081,-0.079 0.119,-0.121c0.038,-0.041 0.079,-0.084 0.12,-0.13c0.042,-0.045 0.081,-0.091 0.119,-0.136c0.039,-0.046 0.075,-0.096 0.11,-0.149c0.036,-0.053 0.071,-0.108 0.107,-0.165c0.035,-0.057 0.07,-0.112 0.102,-0.165c0.033,-0.054 0.063,-0.107 0.09,-0.162c0.028,-0.053 0.055,-0.109 0.081,-0.167c0.026,-0.057 0.052,-0.114 0.08,-0.168c0.028,-0.055 0.058,-0.111 0.09,-0.168c0.032,-0.057 0.065,-0.114 0.098,-0.171c0.033,-0.057 0.063,-0.113 0.091,-0.167c0.028,-0.054 0.058,-0.104 0.09,-0.151c0.031,-0.046 0.069,-0.103 0.113,-0.169c0.045,-0.067 0.081,-0.125 0.108,-0.176c0.028,-0.05 0.056,-0.102 0.085,-0.156c0.028,-0.054 0.056,-0.114 0.082,-0.179c0.025,-0.065 0.051,-0.13 0.078,-0.196c0.026,-0.065 0.051,-0.13 0.073,-0.195c0.022,-0.065 0.046,-0.132 0.073,-0.2c0.027,-0.069 0.054,-0.139 0.08,-0.212c0.027,-0.073 0.054,-0.146 0.081,-0.218c0.028,-0.071 0.056,-0.142 0.086,-0.21c0.03,-0.068 0.06,-0.136 0.091,-0.204c0.03,-0.069 0.06,-0.133 0.089,-0.195c0.029,-0.061 0.056,-0.121 0.082,-0.178c0.025,-0.058 0.052,-0.116 0.08,-0.173c0.029,-0.057 0.058,-0.115 0.087,-0.173c0.03,-0.058 0.056,-0.114 0.081,-0.168c0.024,-0.055 0.049,-0.111 0.075,-0.169c0.025,-0.059 0.051,-0.117 0.075,-0.175c0.025,-0.057 0.049,-0.117 0.071,-0.179c0.023,-0.063 0.045,-0.125 0.068,-0.186c0.022,-0.062 0.043,-0.127 0.062,-0.197c0.018,-0.07 0.038,-0.139 0.057,-0.208c0.02,-0.07 0.04,-0.14 0.06,-0.209c0.019,-0.069 0.038,-0.137 0.057,-0.204c0.018,-0.066 0.038,-0.128 0.06,-0.187c0.023,-0.059 0.043,-0.118 0.061,-0.176c0.019,-0.059 0.04,-0.119 0.065,-0.181c0.026,-0.062 0.05,-0.122 0.072,-0.18c0.022,-0.058 0.045,-0.118 0.07,-0.18c0.026,-0.062 0.049,-0.123 0.072,-0.185c0.022,-0.062 0.045,-0.125 0.068,-0.191c0.023,-0.065 0.043,-0.13 0.061,-0.192c0.018,-0.063 0.039,-0.127 0.062,-0.193c0.023,-0.065 0.044,-0.133 0.064,-0.203c0.019,-0.069 0.039,-0.139 0.059,-0.208c0.02,-0.069 0.039,-0.139 0.058,-0.208c0.019,-0.07 0.036,-0.142 0.053,-0.215c0.016,-0.073 0.035,-0.148 0.056,-0.225c0.02,-0.077 0.041,-0.154 0.061,-0.23c0.021,-0.077 0.039,-0.15 0.054,-0.22c0.015,-0.07 0.031,-0.138 0.046,-0.205c0.016,-0.066 0.031,-0.131 0.047,-0.194c0.015,-0.063 0.03,-0.123 0.044,-0.178c0.014,-0.056 0.027,-0.114 0.038,-0.173c0.011,-0.06 0.024,-0.123 0.039,-0.189c0.015,-0.067 0.029,-0.137 0.041,-0.211c0.013,-0.074 0.026,-0.15 0.04,-0.227c0.013,-0.078 0.026,-0.163 0.037,-0.255l0.068,-0.542c0.01,-0.085 0.023,-0.172 0.037,-0.26c0.015,-0.088 0.029,-0.169 0.042,-0.242c0.013,-0.074 0.025,-0.145 0.037,-0.212c0.012,-0.067 0.026,-0.133 0.042,-0.2c0.015,-0.066 0.029,-0.133 0.042,-0.2c0.012,-0.067 0.024,-0.138 0.037,-0.211c0.013,-0.074 0.024,-0.152 0.034,-0.234c0.011,-0.081 0.021,-0.165 0.032,-0.25c0.01,-0.085 0.023,-0.172 0.038,-0.26c0.014,-0.088 0.028,-0.174 0.041,-0.258c0.014,-0.084 0.027,-0.167 0.041,-0.248c0.014,-0.081 0.026,-0.159 0.035,-0.234l0.315,-2.53c0.008,-0.06 0.013,-0.129 0.017,-0.208c0.003,-0.078 0.006,-0.157 0.008,-0.236c0.003,-0.08 0.006,-0.15 0.01,-0.21c0.003,-0.06 0.006,-0.125 0.007,-0.193c0.001,-0.068 0.003,-0.138 0.004,-0.21c0.002,-0.072 0.005,-0.144 0.01,-0.215c0.005,-0.071 0.011,-0.142 0.016,-0.213c0.005,-0.072 0.009,-0.142 0.011,-0.21c0.002,-0.068 0.005,-0.138 0.011,-0.209c0.005,-0.071 0.008,-0.143 0.01,-0.215c0.001,-0.071 0.003,-0.145 0.005,-0.22c0.002,-0.075 0.001,-0.153 -0.004,-0.233c-0.005,-0.08 -0.009,-0.16 -0.013,-0.239c-0.004,-0.08 -0.007,-0.157 -0.008,-0.234c-0.002,-0.076 -0.005,-0.154 -0.01,-0.233c-0.005,-0.08 -0.008,-0.157 -0.008,-0.233c-0.001,-0.075 -0.002,-0.153 -0.003,-0.233c-0.001,-0.079 -0.002,-0.16 -0.003,-0.243c-0.001,-0.082 -0.001,-0.165 -0.001,-0.248c0,-0.083 -0.001,-0.171 -0.004,-0.265c-0.003,-0.094 -0.005,-0.186 -0.004,-0.275c0,-0.09 -0.001,-0.184 -0.003,-0.282c-0.001,-0.098 -0.003,-0.197 -0.005,-0.297c-0.003,-0.101 -0.005,-0.202 -0.007,-0.303c-0.002,-0.101 -0.006,-0.205 -0.01,-0.31c-0.004,-0.105 -0.009,-0.213 -0.013,-0.325c-0.005,-0.112 -0.011,-0.222 -0.018,-0.331c-0.008,-0.109 -0.014,-0.193 -0.018,-0.251c-0.004,-0.057 -0.01,-0.137 -0.018,-0.239c-0.009,-0.102 -0.016,-0.204 -0.022,-0.306c-0.006,-0.102 -0.013,-0.198 -0.023,-0.289c-0.01,-0.091 -0.018,-0.186 -0.024,-0.283c-0.007,-0.098 -0.014,-0.198 -0.022,-0.3c-0.009,-0.102 -0.018,-0.204 -0.027,-0.306c-0.01,-0.103 -0.019,-0.204 -0.027,-0.305c-0.009,-0.102 -0.02,-0.204 -0.033,-0.307c-0.013,-0.102 -0.026,-0.201 -0.039,-0.296c-0.013,-0.095 -0.027,-0.197 -0.042,-0.307c-0.015,-0.11 -0.029,-0.209 -0.044,-0.297c-0.015,-0.089 -0.032,-0.175 -0.05,-0.261c-0.017,-0.085 -0.034,-0.168 -0.049,-0.249c-0.015,-0.08 -0.03,-0.158 -0.047,-0.232c-0.017,-0.074 -0.035,-0.148 -0.054,-0.222c-0.019,-0.075 -0.038,-0.153 -0.056,-0.234c-0.019,-0.082 -0.039,-0.166 -0.06,-0.251c-0.022,-0.085 -0.042,-0.168 -0.06,-0.25c-0.019,-0.082 -0.039,-0.165 -0.062,-0.251c-0.023,-0.085 -0.042,-0.166 -0.057,-0.244c-0.015,-0.078 -0.03,-0.154 -0.046,-0.228c-0.016,-0.074 -0.03,-0.148 -0.043,-0.221c-0.013,-0.074 -0.026,-0.145 -0.038,-0.215c-0.013,-0.069 -0.028,-0.137 -0.045,-0.204c-0.018,-0.068 -0.034,-0.137 -0.051,-0.207c-0.016,-0.071 -0.033,-0.145 -0.052,-0.222c-0.019,-0.078 -0.037,-0.149 -0.055,-0.213c-0.018,-0.064 -0.037,-0.131 -0.057,-0.201c-0.02,-0.07 -0.04,-0.139 -0.06,-0.207c-0.02,-0.067 -0.038,-0.136 -0.054,-0.207c-0.016,-0.07 -0.033,-0.137 -0.051,-0.2c-0.018,-0.063 -0.036,-0.127 -0.053,-0.19c-0.017,-0.064 -0.037,-0.135 -0.059,-0.213c-0.023,-0.078 -0.045,-0.149 -0.066,-0.213c-0.022,-0.063 -0.046,-0.129 -0.074,-0.198c-0.027,-0.068 -0.058,-0.137 -0.093,-0.206c-0.035,-0.07 -0.063,-0.131 -0.085,-0.184c-0.022,-0.053 -0.052,-0.118 -0.089,-0.195c-0.038,-0.077 -0.07,-0.14 -0.096,-0.189c-0.026,-0.05 -0.052,-0.1 -0.078,-0.15c-0.026,-0.05 -0.056,-0.108 -0.092,-0.173c-0.035,-0.066 -0.067,-0.124 -0.097,-0.174c-0.029,-0.051 -0.062,-0.106 -0.098,-0.164c-0.036,-0.059 -0.074,-0.117 -0.114,-0.176c-0.04,-0.059 -0.074,-0.114 -0.104,-0.165c-0.03,-0.051 -0.064,-0.107 -0.102,-0.169c-0.039,-0.062 -0.077,-0.126 -0.116,-0.192c-0.039,-0.066 -0.076,-0.133 -0.11,-0.203c-0.035,-0.069 -0.069,-0.129 -0.102,-0.18c-0.033,-0.052 -0.066,-0.106 -0.099,-0.164c-0.032,-0.058 -0.065,-0.111 -0.099,-0.158c-0.034,-0.047 -0.074,-0.099 -0.122,-0.155c-0.047,-0.057 -0.093,-0.109 -0.137,-0.157c-0.043,-0.049 -0.085,-0.101 -0.125,-0.156c-0.041,-0.056 -0.077,-0.107 -0.111,-0.154c-0.034,-0.047 -0.073,-0.099 -0.117,-0.154c-0.043,-0.056 -0.089,-0.108 -0.138,-0.154c-0.049,-0.046 -0.101,-0.078 -0.156,-0.095c-0.055,-0.017 -0.111,-0.038 -0.169,-0.064c-0.058,-0.025 -0.11,-0.053 -0.157,-0.084c-0.047,-0.032 -0.096,-0.06 -0.147,-0.084c-0.052,-0.025 -0.11,-0.044 -0.177,-0.06c-0.066,-0.015 -0.131,-0.026 -0.195,-0.034l-0.569,-0.071c-0.06,-0.008 -0.124,-0.014 -0.193,-0.019c-0.068,-0.005 -0.131,-0.007 -0.188,-0.007c-0.058,0.001 -0.117,0.004 -0.18,0.01c-0.063,0.006 -0.133,0.017 -0.21,0.033c-0.078,0.016 -0.161,0.036 -0.25,0.061c-0.089,0.025 -0.182,0.053 -0.28,0.083c-0.098,0.031 -0.196,0.065 -0.295,0.103c-0.099,0.039 -0.175,0.069 -0.227,0.092c-0.053,0.022 -0.107,0.048 -0.161,0.077c-0.054,0.029 -0.109,0.06 -0.164,0.093c-0.054,0.032 -0.11,0.069 -0.165,0.109c-0.056,0.04 -0.114,0.085 -0.174,0.135c-0.059,0.05 -0.126,0.108 -0.198,0.174c-0.073,0.067 -0.149,0.142 -0.229,0.225c-0.08,0.084 -0.164,0.176 -0.252,0.277c-0.088,0.101 -0.18,0.217 -0.276,0.349c-0.096,0.132 -0.192,0.269 -0.289,0.412c-0.097,0.142 -0.187,0.283 -0.269,0.425l-0.123,0.211" style="fill:none;stroke:#000;stroke-width:1.67px;"/><path id="STROKE_6C71922C.-1A82.-48D3.-9B90.-E9621DB463AF" d="M56.832,80.912c0.016,-0.121 0.034,-0.209 0.054,-0.264c0.021,-0.055 0.057,-0.072 0.109,-0.051c0.052,0.021 0.081,0.066 0.087,0.136c0.006,0.069 0.009,0.146 0.008,0.233c0,0.086 -0.001,0.163 -0.003,0.231c-0.001,0.068 -0.005,0.146 -0.012,0.235c-0.007,0.089 -0.017,0.182 -0.029,0.277c-0.012,0.097 -0.02,0.173 -0.023,0.23c-0.004,0.057 -0.009,0.114 -0.016,0.17c-0.007,0.057 -0.013,0.116 -0.016,0.177c-0.004,0.061 -0.01,0.123 -0.018,0.186c-0.008,0.064 -0.014,0.128 -0.019,0.192c-0.004,0.065 -0.01,0.131 -0.019,0.198l-0.21,1.685c-0.009,0.071 -0.02,0.149 -0.034,0.233c-0.015,0.085 -0.03,0.164 -0.047,0.237c-0.016,0.074 -0.032,0.144 -0.048,0.21c-0.016,0.067 -0.032,0.137 -0.048,0.21c-0.017,0.073 -0.033,0.15 -0.05,0.231c-0.016,0.081 -0.033,0.158 -0.049,0.232c-0.017,0.073 -0.035,0.148 -0.056,0.224c-0.021,0.076 -0.041,0.153 -0.062,0.23c-0.021,0.077 -0.037,0.151 -0.049,0.221c-0.013,0.071 -0.028,0.15 -0.045,0.238c-0.018,0.087 -0.035,0.168 -0.051,0.241c-0.017,0.073 -0.033,0.143 -0.049,0.21c-0.015,0.066 -0.031,0.135 -0.047,0.205c-0.016,0.07 -0.032,0.14 -0.049,0.209c-0.016,0.07 -0.033,0.137 -0.05,0.199c-0.019,0.063 -0.037,0.126 -0.056,0.188c-0.018,0.062 -0.035,0.122 -0.05,0.182c-0.015,0.06 -0.031,0.117 -0.049,0.173c-0.018,0.055 -0.038,0.11 -0.058,0.165c-0.021,0.054 -0.048,0.129 -0.082,0.222c-0.034,0.093 -0.068,0.184 -0.104,0.273c-0.036,0.089 -0.07,0.173 -0.101,0.252c-0.031,0.079 -0.064,0.151 -0.098,0.215c-0.033,0.065 -0.063,0.126 -0.087,0.183c-0.025,0.058 -0.056,0.115 -0.092,0.171c-0.037,0.057 -0.07,0.058 -0.099,0.005c-0.029,-0.054 -0.04,-0.109 -0.033,-0.166l0.124,-0.994c0.007,-0.061 0.017,-0.123 0.028,-0.186c0.012,-0.062 0.025,-0.134 0.038,-0.216c0.014,-0.081 0.028,-0.16 0.041,-0.238c0.013,-0.077 0.029,-0.156 0.046,-0.237c0.018,-0.08 0.036,-0.165 0.054,-0.252c0.018,-0.088 0.037,-0.181 0.057,-0.28c0.02,-0.098 0.041,-0.198 0.063,-0.3c0.023,-0.102 0.048,-0.212 0.074,-0.33c0.025,-0.119 0.051,-0.236 0.077,-0.352c0.025,-0.115 0.051,-0.236 0.076,-0.363c0.026,-0.126 0.055,-0.257 0.087,-0.394c0.032,-0.136 0.064,-0.276 0.097,-0.42c0.032,-0.144 0.064,-0.295 0.093,-0.453c0.03,-0.158 0.066,-0.328 0.107,-0.51c0.041,-0.182 0.078,-0.355 0.109,-0.521c0.032,-0.165 0.062,-0.318 0.089,-0.458c0.028,-0.141 0.057,-0.289 0.087,-0.443c0.031,-0.155 0.062,-0.305 0.095,-0.452c0.033,-0.147 0.064,-0.292 0.092,-0.436c0.028,-0.144 0.058,-0.282 0.089,-0.415c0.032,-0.133 0.062,-0.263 0.093,-0.388c0.03,-0.126 0.06,-0.248 0.088,-0.367c0.029,-0.119 0.058,-0.225 0.089,-0.319c0.03,-0.094 0.059,-0.187 0.088,-0.28c0.03,-0.094 0.054,-0.178 0.075,-0.255c0.021,-0.076 0.043,-0.149 0.066,-0.219c0.024,-0.069 0.046,-0.131 0.066,-0.186c0.021,-0.055 0.043,-0.119 0.067,-0.191c0.024,-0.073 0.028,-0.077 0.013,-0.014c-0.015,0.063 -0.046,0.149 -0.092,0.258c-0.046,0.109 -0.081,0.202 -0.105,0.278c-0.024,0.077 -0.049,0.157 -0.073,0.239c-0.024,0.083 -0.051,0.171 -0.081,0.265c-0.03,0.094 -0.063,0.2 -0.099,0.318c-0.036,0.118 -0.071,0.234 -0.103,0.348c-0.033,0.114 -0.068,0.236 -0.105,0.365c-0.038,0.129 -0.076,0.261 -0.115,0.396c-0.039,0.136 -0.079,0.275 -0.122,0.417c-0.043,0.142 -0.086,0.289 -0.13,0.442c-0.044,0.153 -0.092,0.318 -0.143,0.495c-0.052,0.177 -0.103,0.352 -0.153,0.526c-0.05,0.173 -0.103,0.352 -0.158,0.536c-0.055,0.184 -0.111,0.371 -0.167,0.562c-0.056,0.191 -0.111,0.382 -0.163,0.574c-0.052,0.191 -0.102,0.372 -0.149,0.542c-0.047,0.171 -0.1,0.357 -0.157,0.559c-0.057,0.202 -0.107,0.388 -0.15,0.559c-0.043,0.171 -0.085,0.324 -0.128,0.459c-0.043,0.135 -0.083,0.273 -0.121,0.412c-0.039,0.139 -0.074,0.262 -0.106,0.369c-0.032,0.108 -0.064,0.206 -0.096,0.296c-0.033,0.089 -0.066,0.182 -0.1,0.279c-0.035,0.096 -0.066,0.179 -0.096,0.247c-0.03,0.068 -0.06,0.133 -0.089,0.193c-0.03,0.061 -0.059,0.119 -0.087,0.173c-0.028,0.055 -0.067,0.124 -0.117,0.208c-0.05,0.083 -0.097,0.155 -0.14,0.214c-0.044,0.059 -0.084,0.109 -0.121,0.152c-0.038,0.042 -0.061,0.023 -0.07,-0.057c-0.008,-0.08 0,-0.17 0.023,-0.272c0.024,-0.101 0.047,-0.182 0.069,-0.24c0.022,-0.059 0.044,-0.121 0.066,-0.187c0.022,-0.066 0.045,-0.135 0.069,-0.207c0.024,-0.073 0.051,-0.15 0.083,-0.233c0.031,-0.082 0.063,-0.163 0.095,-0.241c0.032,-0.079 0.062,-0.163 0.091,-0.254c0.029,-0.09 0.06,-0.182 0.094,-0.274c0.033,-0.093 0.07,-0.196 0.109,-0.31c0.039,-0.114 0.078,-0.225 0.116,-0.332c0.038,-0.106 0.079,-0.229 0.122,-0.367c0.043,-0.139 0.086,-0.277 0.128,-0.416c0.042,-0.138 0.085,-0.281 0.128,-0.427c0.043,-0.146 0.09,-0.306 0.141,-0.479c0.051,-0.174 0.098,-0.342 0.139,-0.506c0.042,-0.164 0.083,-0.322 0.125,-0.475c0.041,-0.154 0.086,-0.328 0.135,-0.523c0.05,-0.195 0.096,-0.384 0.14,-0.566c0.044,-0.182 0.086,-0.364 0.128,-0.545c0.041,-0.182 0.082,-0.365 0.123,-0.551c0.042,-0.186 0.083,-0.372 0.124,-0.557c0.041,-0.186 0.078,-0.36 0.113,-0.521c0.035,-0.161 0.074,-0.341 0.116,-0.542c0.043,-0.2 0.082,-0.385 0.118,-0.556c0.036,-0.172 0.069,-0.331 0.098,-0.479c0.03,-0.148 0.061,-0.297 0.094,-0.448c0.032,-0.151 0.063,-0.295 0.091,-0.431c0.028,-0.136 0.054,-0.257 0.078,-0.362c0.024,-0.106 0.048,-0.209 0.071,-0.31c0.022,-0.101 0.044,-0.19 0.065,-0.267c0.02,-0.077 0.039,-0.15 0.055,-0.22c0.016,-0.07 0.037,-0.151 0.063,-0.241c0.026,-0.09 0.049,-0.162 0.07,-0.217c0.021,-0.055 0.026,-0.054 0.015,0.002c-0.011,0.056 -0.04,0.131 -0.088,0.226c-0.048,0.095 -0.086,0.177 -0.116,0.245c-0.03,0.069 -0.064,0.141 -0.103,0.219c-0.039,0.077 -0.077,0.163 -0.114,0.256c-0.036,0.093 -0.078,0.197 -0.125,0.314c-0.047,0.117 -0.092,0.235 -0.136,0.356c-0.043,0.12 -0.088,0.247 -0.134,0.381c-0.047,0.134 -0.1,0.282 -0.159,0.444c-0.06,0.162 -0.116,0.317 -0.166,0.466c-0.051,0.149 -0.109,0.321 -0.173,0.518c-0.064,0.197 -0.126,0.39 -0.186,0.581c-0.06,0.19 -0.118,0.383 -0.174,0.578c-0.057,0.195 -0.114,0.393 -0.171,0.594c-0.057,0.201 -0.113,0.403 -0.167,0.605c-0.053,0.202 -0.108,0.406 -0.163,0.611c-0.055,0.206 -0.109,0.408 -0.163,0.606c-0.053,0.198 -0.106,0.393 -0.159,0.585c-0.052,0.192 -0.104,0.38 -0.156,0.564c-0.051,0.183 -0.103,0.362 -0.154,0.535c-0.051,0.174 -0.098,0.332 -0.14,0.475c-0.043,0.143 -0.086,0.287 -0.129,0.432c-0.043,0.146 -0.085,0.28 -0.126,0.404c-0.042,0.125 -0.077,0.234 -0.106,0.328c-0.03,0.094 -0.061,0.185 -0.094,0.274c-0.033,0.09 -0.06,0.162 -0.081,0.216c-0.021,0.055 -0.047,0.121 -0.078,0.196c-0.032,0.076 -0.07,0.095 -0.115,0.056c-0.045,-0.038 -0.061,-0.112 -0.047,-0.221l0.099,-0.793c0.011,-0.092 0.027,-0.189 0.046,-0.291c0.019,-0.102 0.039,-0.213 0.062,-0.333c0.022,-0.12 0.046,-0.239 0.072,-0.357c0.026,-0.119 0.052,-0.241 0.079,-0.368c0.027,-0.127 0.056,-0.256 0.086,-0.389c0.03,-0.132 0.062,-0.27 0.095,-0.415c0.032,-0.143 0.07,-0.301 0.112,-0.472c0.043,-0.171 0.084,-0.339 0.122,-0.503c0.039,-0.163 0.082,-0.333 0.129,-0.507c0.046,-0.174 0.094,-0.349 0.142,-0.527c0.048,-0.177 0.095,-0.358 0.143,-0.543c0.048,-0.185 0.096,-0.363 0.142,-0.533c0.046,-0.171 0.098,-0.361 0.156,-0.569c0.059,-0.209 0.114,-0.409 0.168,-0.6c0.053,-0.191 0.107,-0.379 0.163,-0.563c0.055,-0.184 0.109,-0.364 0.164,-0.541c0.054,-0.176 0.11,-0.347 0.166,-0.513c0.057,-0.166 0.108,-0.32 0.154,-0.461c0.047,-0.142 0.097,-0.285 0.151,-0.43c0.054,-0.145 0.106,-0.282 0.155,-0.412c0.05,-0.13 0.096,-0.256 0.14,-0.376c0.043,-0.121 0.082,-0.229 0.115,-0.326c0.033,-0.097 0.067,-0.19 0.1,-0.279c0.033,-0.089 0.063,-0.17 0.09,-0.243c0.026,-0.073 0.051,-0.142 0.074,-0.207c0.023,-0.065 0.047,-0.14 0.072,-0.227c0.026,-0.087 0.044,-0.159 0.054,-0.216c0.009,-0.057 -0.01,-0.052 -0.057,0.014c-0.048,0.066 -0.088,0.124 -0.119,0.174c-0.031,0.05 -0.065,0.107 -0.102,0.171c-0.036,0.064 -0.074,0.135 -0.112,0.213c-0.038,0.078 -0.083,0.167 -0.135,0.265c-0.052,0.098 -0.105,0.199 -0.157,0.304c-0.053,0.105 -0.106,0.209 -0.158,0.314c-0.053,0.105 -0.115,0.229 -0.188,0.371c-0.072,0.143 -0.143,0.294 -0.214,0.454c-0.071,0.16 -0.139,0.32 -0.205,0.482c-0.066,0.161 -0.132,0.326 -0.196,0.494c-0.064,0.168 -0.131,0.343 -0.201,0.525c-0.07,0.181 -0.138,0.369 -0.206,0.562c-0.067,0.194 -0.135,0.389 -0.203,0.585c-0.068,0.197 -0.134,0.397 -0.199,0.601c-0.065,0.204 -0.131,0.41 -0.196,0.618c-0.066,0.208 -0.137,0.429 -0.213,0.665c-0.076,0.235 -0.146,0.462 -0.21,0.681c-0.063,0.219 -0.124,0.422 -0.183,0.608c-0.06,0.186 -0.118,0.377 -0.174,0.572c-0.057,0.195 -0.114,0.382 -0.172,0.562c-0.059,0.179 -0.108,0.338 -0.147,0.477c-0.04,0.139 -0.08,0.276 -0.122,0.412c-0.042,0.135 -0.078,0.254 -0.108,0.359c-0.031,0.104 -0.06,0.196 -0.089,0.275c-0.028,0.079 -0.054,0.155 -0.078,0.228c-0.024,0.072 -0.052,0.142 -0.086,0.21c-0.033,0.068 -0.063,0.064 -0.09,-0.011c-0.026,-0.075 -0.036,-0.143 -0.028,-0.203l0.093,-0.744c0.012,-0.095 0.029,-0.195 0.054,-0.3c0.024,-0.105 0.049,-0.221 0.075,-0.348c0.026,-0.126 0.053,-0.249 0.083,-0.368c0.03,-0.119 0.06,-0.241 0.09,-0.366c0.031,-0.126 0.061,-0.255 0.091,-0.389c0.031,-0.133 0.064,-0.269 0.1,-0.408c0.036,-0.14 0.07,-0.285 0.102,-0.435c0.033,-0.15 0.075,-0.312 0.126,-0.485c0.051,-0.174 0.099,-0.343 0.145,-0.506c0.045,-0.164 0.09,-0.33 0.136,-0.497c0.046,-0.167 0.094,-0.336 0.145,-0.505c0.05,-0.169 0.1,-0.33 0.147,-0.483c0.048,-0.152 0.101,-0.322 0.16,-0.509c0.06,-0.187 0.116,-0.365 0.17,-0.535c0.053,-0.17 0.106,-0.338 0.159,-0.504c0.053,-0.166 0.108,-0.329 0.163,-0.487c0.056,-0.159 0.109,-0.305 0.159,-0.439c0.05,-0.134 0.104,-0.275 0.162,-0.423c0.058,-0.148 0.113,-0.29 0.167,-0.427c0.053,-0.138 0.107,-0.271 0.163,-0.4c0.056,-0.129 0.113,-0.257 0.172,-0.383c0.059,-0.126 0.113,-0.244 0.163,-0.353c0.049,-0.108 0.096,-0.21 0.141,-0.306c0.044,-0.095 0.085,-0.184 0.124,-0.266c0.039,-0.081 0.078,-0.168 0.118,-0.26c0.04,-0.092 0.074,-0.17 0.1,-0.235c0.027,-0.065 0.053,-0.129 0.078,-0.191c0.025,-0.062 0.051,-0.136 0.076,-0.223c0.026,-0.086 0.046,-0.158 0.06,-0.214c0.014,-0.055 -0.004,-0.066 -0.056,-0.033c-0.051,0.033 -0.106,0.098 -0.165,0.195c-0.059,0.097 -0.109,0.183 -0.151,0.256c-0.041,0.074 -0.083,0.148 -0.124,0.222c-0.042,0.074 -0.088,0.155 -0.138,0.242c-0.051,0.088 -0.105,0.189 -0.163,0.304c-0.057,0.115 -0.116,0.234 -0.174,0.356c-0.059,0.122 -0.118,0.249 -0.178,0.383c-0.06,0.132 -0.125,0.283 -0.196,0.45c-0.07,0.168 -0.138,0.334 -0.202,0.499c-0.064,0.165 -0.13,0.337 -0.199,0.515c-0.07,0.178 -0.138,0.362 -0.205,0.551c-0.067,0.19 -0.134,0.383 -0.202,0.58c-0.068,0.197 -0.136,0.397 -0.205,0.601c-0.069,0.204 -0.135,0.404 -0.2,0.601c-0.064,0.197 -0.124,0.392 -0.181,0.588c-0.056,0.194 -0.112,0.383 -0.167,0.567c-0.056,0.183 -0.11,0.361 -0.164,0.534c-0.054,0.174 -0.102,0.332 -0.146,0.474c-0.044,0.143 -0.089,0.287 -0.135,0.432c-0.047,0.145 -0.091,0.279 -0.131,0.403c-0.04,0.125 -0.077,0.232 -0.111,0.322c-0.033,0.09 -0.061,0.171 -0.084,0.244c-0.023,0.072 -0.045,0.136 -0.067,0.19c-0.021,0.055 -0.048,0.113 -0.081,0.174c-0.032,0.061 -0.062,0.061 -0.087,0.001c-0.026,-0.061 -0.031,-0.148 -0.017,-0.262l0.063,-0.511c0.01,-0.078 0.024,-0.159 0.042,-0.243c0.018,-0.083 0.038,-0.171 0.06,-0.262c0.023,-0.091 0.043,-0.182 0.062,-0.273c0.019,-0.091 0.038,-0.186 0.057,-0.285c0.02,-0.098 0.039,-0.197 0.058,-0.294c0.019,-0.099 0.038,-0.197 0.057,-0.295c0.02,-0.099 0.04,-0.199 0.06,-0.301c0.02,-0.102 0.04,-0.204 0.06,-0.306c0.021,-0.102 0.043,-0.205 0.067,-0.31c0.024,-0.105 0.046,-0.21 0.066,-0.316c0.019,-0.105 0.044,-0.217 0.073,-0.336c0.03,-0.119 0.057,-0.234 0.082,-0.346c0.025,-0.112 0.052,-0.225 0.08,-0.341c0.028,-0.115 0.059,-0.232 0.092,-0.35c0.033,-0.119 0.066,-0.231 0.098,-0.339c0.031,-0.107 0.068,-0.228 0.11,-0.364c0.042,-0.135 0.083,-0.265 0.123,-0.389c0.041,-0.124 0.083,-0.247 0.126,-0.367c0.044,-0.121 0.088,-0.243 0.133,-0.367c0.045,-0.123 0.091,-0.243 0.137,-0.36c0.047,-0.117 0.092,-0.228 0.134,-0.334c0.042,-0.106 0.09,-0.223 0.145,-0.349c0.056,-0.127 0.108,-0.243 0.157,-0.348c0.049,-0.105 0.094,-0.204 0.134,-0.297c0.04,-0.092 0.085,-0.188 0.134,-0.286c0.049,-0.098 0.096,-0.193 0.139,-0.285c0.044,-0.091 0.083,-0.176 0.118,-0.255c0.035,-0.079 0.072,-0.162 0.111,-0.25c0.04,-0.089 0.071,-0.164 0.094,-0.226c0.022,-0.063 0.047,-0.126 0.073,-0.191c0.027,-0.064 0.056,-0.141 0.088,-0.231c0.033,-0.09 0.061,-0.172 0.085,-0.244c0.024,-0.073 -0.001,-0.079 -0.074,-0.02c-0.073,0.06 -0.128,0.112 -0.166,0.158c-0.038,0.046 -0.081,0.098 -0.127,0.156c-0.048,0.059 -0.097,0.119 -0.148,0.181c-0.051,0.063 -0.105,0.132 -0.161,0.208c-0.057,0.076 -0.121,0.161 -0.194,0.256c-0.073,0.096 -0.138,0.187 -0.196,0.273c-0.058,0.086 -0.122,0.188 -0.194,0.305c-0.072,0.117 -0.142,0.232 -0.211,0.346c-0.068,0.114 -0.136,0.233 -0.202,0.358c-0.066,0.124 -0.132,0.251 -0.198,0.38c-0.066,0.128 -0.131,0.257 -0.194,0.386c-0.063,0.129 -0.128,0.26 -0.195,0.392c-0.067,0.132 -0.13,0.259 -0.189,0.381c-0.058,0.122 -0.117,0.242 -0.175,0.361c-0.058,0.119 -0.112,0.232 -0.161,0.341c-0.05,0.109 -0.096,0.207 -0.14,0.296c-0.043,0.089 -0.085,0.179 -0.125,0.271c-0.04,0.092 -0.076,0.176 -0.107,0.251c-0.032,0.076 -0.063,0.151 -0.093,0.226c-0.031,0.075 -0.059,0.141 -0.085,0.199c-0.025,0.058 -0.053,0.121 -0.083,0.19c-0.029,0.069 -0.031,0.069 -0.004,0c0.027,-0.07 0.072,-0.154 0.134,-0.254c0.063,-0.101 0.115,-0.177 0.157,-0.229l0.064,-0.078" style="fill:none;stroke:#000;stroke-width:1.67px;"/><path id="STROKE_00482E24.-0AF8.-4E2E.-994D.-22640F0A7E2E" d="M45.193,58.15c-0.109,-0.056 -0.195,-0.058 -0.259,-0.005c-0.064,0.053 -0.121,0.103 -0.17,0.151c-0.049,0.048 -0.104,0.108 -0.163,0.18c-0.06,0.072 -0.124,0.149 -0.192,0.23c-0.069,0.081 -0.124,0.146 -0.166,0.195c-0.042,0.049 -0.084,0.099 -0.126,0.151c-0.043,0.053 -0.088,0.112 -0.136,0.178c-0.048,0.066 -0.096,0.132 -0.144,0.197c-0.048,0.067 -0.096,0.136 -0.145,0.21c-0.049,0.073 -0.098,0.15 -0.147,0.229c-0.05,0.08 -0.1,0.164 -0.151,0.251c-0.05,0.088 -0.099,0.178 -0.146,0.268c-0.048,0.091 -0.096,0.186 -0.144,0.285c-0.048,0.098 -0.095,0.197 -0.139,0.295c-0.045,0.099 -0.087,0.199 -0.128,0.298c-0.041,0.099 -0.083,0.2 -0.124,0.303c-0.041,0.103 -0.079,0.202 -0.113,0.298c-0.034,0.096 -0.07,0.191 -0.106,0.284c-0.037,0.093 -0.07,0.184 -0.1,0.274c-0.029,0.09 -0.058,0.174 -0.085,0.254c-0.028,0.079 -0.053,0.154 -0.076,0.223c-0.024,0.069 -0.049,0.136 -0.075,0.201c-0.027,0.065 -0.049,0.127 -0.066,0.186c-0.018,0.058 -0.045,0.131 -0.081,0.216c-0.037,0.085 -0.069,0.155 -0.097,0.209l-0.042,0.081" style="fill:none;stroke:#000;stroke-width:1.67px;"/><path id="STROKE_1511BB74.-8F84.-4167.-A6B4.-D42014EC73E5" d="M43.322,55.294c0.018,-0.149 0.024,-0.256 0.018,-0.322c-0.007,-0.065 -0.047,-0.087 -0.122,-0.064c-0.075,0.024 -0.145,0.076 -0.209,0.158c-0.065,0.082 -0.119,0.149 -0.161,0.201c-0.043,0.052 -0.086,0.111 -0.13,0.178c-0.044,0.066 -0.09,0.132 -0.138,0.198c-0.048,0.066 -0.097,0.138 -0.146,0.215c-0.049,0.076 -0.103,0.158 -0.161,0.244c-0.057,0.086 -0.121,0.179 -0.19,0.278c-0.07,0.1 -0.136,0.194 -0.198,0.284c-0.062,0.09 -0.132,0.194 -0.212,0.314c-0.079,0.119 -0.159,0.237 -0.239,0.353c-0.08,0.116 -0.162,0.235 -0.245,0.358c-0.084,0.123 -0.174,0.258 -0.272,0.403c-0.097,0.146 -0.19,0.287 -0.28,0.424c-0.089,0.137 -0.169,0.266 -0.241,0.386c-0.073,0.12 -0.148,0.248 -0.226,0.382c-0.079,0.134 -0.155,0.268 -0.229,0.403c-0.074,0.135 -0.146,0.268 -0.217,0.399c-0.071,0.132 -0.138,0.261 -0.201,0.386c-0.062,0.126 -0.121,0.25 -0.176,0.372c-0.055,0.123 -0.104,0.241 -0.147,0.354c-0.042,0.113 -0.087,0.231 -0.135,0.355c-0.048,0.124 -0.087,0.233 -0.117,0.326l-0.045,0.14" style="fill:none;stroke:#000;stroke-width:1.67px;"/><path id="STROKE_26E7C9AA.-F4F6.-4FC2.-A297.-9340C72F2912" d="M19.827,80.271c-0.035,-0.12 -0.072,-0.203 -0.109,-0.252c-0.037,-0.048 -0.081,-0.089 -0.131,-0.124c-0.05,-0.034 -0.102,-0.064 -0.156,-0.089c-0.055,-0.025 -0.11,-0.044 -0.166,-0.059c-0.056,-0.014 -0.118,-0.026 -0.185,-0.034c-0.068,-0.009 -0.135,-0.017 -0.202,-0.025c-0.067,-0.009 -0.134,-0.01 -0.2,-0.004c-0.066,0.007 -0.134,0.013 -0.203,0.019c-0.069,0.006 -0.135,0.014 -0.197,0.024c-0.062,0.01 -0.123,0.024 -0.183,0.041c-0.061,0.018 -0.118,0.038 -0.171,0.06c-0.054,0.022 -0.112,0.044 -0.176,0.065c-0.063,0.021 -0.122,0.043 -0.175,0.064c-0.053,0.022 -0.111,0.047 -0.171,0.076c-0.061,0.028 -0.117,0.057 -0.168,0.087c-0.05,0.029 -0.103,0.061 -0.158,0.093c-0.054,0.033 -0.108,0.066 -0.159,0.1c-0.051,0.033 -0.106,0.07 -0.164,0.109c-0.059,0.039 -0.117,0.077 -0.176,0.113c-0.059,0.036 -0.114,0.072 -0.166,0.109c-0.052,0.036 -0.102,0.077 -0.151,0.121c-0.049,0.045 -0.096,0.089 -0.141,0.134c-0.045,0.045 -0.092,0.095 -0.141,0.149c-0.05,0.055 -0.092,0.107 -0.128,0.157c-0.036,0.049 -0.071,0.097 -0.105,0.143c-0.034,0.046 -0.067,0.095 -0.098,0.145c-0.031,0.05 -0.063,0.101 -0.096,0.155c-0.032,0.053 -0.065,0.114 -0.099,0.182c-0.033,0.067 -0.064,0.134 -0.093,0.199c-0.03,0.064 -0.057,0.128 -0.084,0.189c-0.026,0.062 -0.052,0.12 -0.077,0.174c-0.025,0.055 -0.05,0.111 -0.075,0.17c-0.025,0.058 -0.048,0.118 -0.071,0.18c-0.022,0.061 -0.042,0.125 -0.061,0.191c-0.018,0.066 -0.033,0.131 -0.045,0.195c-0.011,0.063 -0.021,0.129 -0.03,0.195c-0.008,0.067 -0.018,0.129 -0.028,0.186c-0.011,0.056 -0.024,0.116 -0.039,0.178c-0.015,0.063 -0.028,0.122 -0.039,0.179c-0.011,0.057 -0.02,0.114 -0.027,0.17c-0.007,0.057 -0.014,0.117 -0.022,0.18c-0.008,0.063 -0.012,0.124 -0.012,0.182c0,0.058 0.006,0.115 0.016,0.17c0.011,0.055 0.013,0.119 0.008,0.19c-0.005,0.072 -0.008,0.138 -0.008,0.198c0,0.061 0.002,0.121 0.006,0.179c0.004,0.057 0.01,0.118 0.02,0.18c0.01,0.063 0.029,0.125 0.057,0.186c0.029,0.061 0.048,0.121 0.059,0.18c0.011,0.059 0.021,0.117 0.028,0.176c0.007,0.059 0.02,0.117 0.038,0.173c0.018,0.056 0.045,0.114 0.081,0.172c0.036,0.059 0.076,0.112 0.121,0.161c0.045,0.048 0.087,0.095 0.128,0.139c0.041,0.045 0.081,0.095 0.121,0.15c0.04,0.056 0.079,0.104 0.117,0.144c0.039,0.041 0.083,0.081 0.132,0.12c0.05,0.038 0.107,0.072 0.172,0.102c0.064,0.029 0.124,0.055 0.178,0.076c0.055,0.021 0.111,0.045 0.17,0.07c0.059,0.025 0.12,0.055 0.184,0.087c0.064,0.033 0.129,0.065 0.193,0.095c0.065,0.03 0.125,0.054 0.181,0.071c0.056,0.018 0.111,0.035 0.166,0.053c0.055,0.018 0.113,0.031 0.174,0.039l0.394,0.049c0.06,0.007 0.123,0.004 0.19,-0.009c0.067,-0.013 0.131,-0.03 0.191,-0.052c0.06,-0.022 0.122,-0.046 0.187,-0.074c0.066,-0.028 0.132,-0.056 0.2,-0.083c0.068,-0.027 0.129,-0.051 0.182,-0.07c0.053,-0.019 0.114,-0.045 0.183,-0.08c0.069,-0.034 0.131,-0.069 0.186,-0.105c0.055,-0.036 0.105,-0.071 0.149,-0.106c0.044,-0.035 0.092,-0.072 0.144,-0.112c0.052,-0.04 0.099,-0.086 0.142,-0.138c0.042,-0.052 0.087,-0.1 0.135,-0.145c0.048,-0.044 0.098,-0.083 0.149,-0.116c0.051,-0.033 0.101,-0.07 0.149,-0.111c0.049,-0.041 0.092,-0.085 0.13,-0.13c0.038,-0.046 0.075,-0.097 0.112,-0.154c0.036,-0.056 0.072,-0.111 0.107,-0.165c0.036,-0.053 0.071,-0.108 0.107,-0.165c0.035,-0.056 0.063,-0.116 0.082,-0.178c0.018,-0.063 0.031,-0.123 0.038,-0.179c0.007,-0.057 0.014,-0.113 0.022,-0.17c0.007,-0.056 0.015,-0.113 0.026,-0.169c0.011,-0.056 0.02,-0.114 0.027,-0.175l0.068,-0.542c0.008,-0.06 0.019,-0.122 0.034,-0.185c0.016,-0.063 0.031,-0.128 0.045,-0.195c0.015,-0.066 0.026,-0.128 0.033,-0.184l0.066,-0.532c0.007,-0.056 0.011,-0.113 0.012,-0.171c0.001,-0.057 -0.003,-0.115 -0.01,-0.173c-0.008,-0.058 -0.013,-0.119 -0.016,-0.18c-0.004,-0.062 -0.004,-0.124 0,-0.184c0.004,-0.061 0.006,-0.121 0.007,-0.183c0,-0.061 -0.005,-0.123 -0.015,-0.185c-0.01,-0.062 -0.02,-0.121 -0.032,-0.177c-0.011,-0.055 -0.022,-0.112 -0.032,-0.171c-0.011,-0.059 -0.022,-0.116 -0.033,-0.171c-0.012,-0.055 -0.023,-0.111 -0.033,-0.166c-0.011,-0.055 -0.022,-0.113 -0.033,-0.172c-0.011,-0.06 -0.021,-0.122 -0.03,-0.187c-0.01,-0.066 -0.018,-0.128 -0.026,-0.186c-0.007,-0.059 -0.015,-0.123 -0.024,-0.192c-0.009,-0.07 -0.021,-0.144 -0.038,-0.222c-0.016,-0.078 -0.029,-0.144 -0.04,-0.2c-0.01,-0.055 -0.023,-0.112 -0.038,-0.171c-0.015,-0.06 -0.03,-0.121 -0.048,-0.184c-0.017,-0.063 -0.033,-0.128 -0.05,-0.195c-0.017,-0.067 -0.035,-0.136 -0.056,-0.207c-0.02,-0.071 -0.042,-0.148 -0.064,-0.229c-0.022,-0.082 -0.044,-0.166 -0.065,-0.251c-0.022,-0.086 -0.045,-0.175 -0.069,-0.268c-0.025,-0.093 -0.051,-0.187 -0.079,-0.28c-0.028,-0.093 -0.055,-0.183 -0.08,-0.269c-0.025,-0.086 -0.048,-0.174 -0.07,-0.262c-0.021,-0.088 -0.044,-0.176 -0.069,-0.262c-0.025,-0.086 -0.048,-0.17 -0.067,-0.251c-0.02,-0.081 -0.039,-0.163 -0.057,-0.245c-0.018,-0.082 -0.038,-0.165 -0.06,-0.251c-0.021,-0.086 -0.043,-0.171 -0.065,-0.256c-0.021,-0.085 -0.045,-0.171 -0.07,-0.257c-0.025,-0.086 -0.049,-0.17 -0.072,-0.252c-0.023,-0.082 -0.044,-0.167 -0.061,-0.255c-0.018,-0.089 -0.037,-0.18 -0.058,-0.272c-0.021,-0.093 -0.04,-0.183 -0.057,-0.272c-0.018,-0.089 -0.034,-0.175 -0.049,-0.26c-0.016,-0.085 -0.032,-0.17 -0.05,-0.254c-0.018,-0.085 -0.035,-0.168 -0.05,-0.249c-0.014,-0.082 -0.031,-0.16 -0.051,-0.234c-0.019,-0.074 -0.037,-0.149 -0.054,-0.223c-0.016,-0.074 -0.034,-0.148 -0.053,-0.222c-0.02,-0.074 -0.037,-0.152 -0.052,-0.233c-0.015,-0.08 -0.033,-0.167 -0.054,-0.26c-0.022,-0.092 -0.041,-0.187 -0.058,-0.283c-0.016,-0.096 -0.033,-0.188 -0.051,-0.276c-0.018,-0.088 -0.037,-0.179 -0.057,-0.272c-0.021,-0.093 -0.041,-0.182 -0.06,-0.267c-0.019,-0.084 -0.038,-0.167 -0.056,-0.249c-0.018,-0.082 -0.037,-0.16 -0.057,-0.235c-0.019,-0.074 -0.037,-0.144 -0.054,-0.211c-0.016,-0.066 -0.033,-0.133 -0.05,-0.2c-0.018,-0.067 -0.035,-0.131 -0.053,-0.19c-0.017,-0.06 -0.033,-0.121 -0.047,-0.185c-0.015,-0.063 -0.028,-0.128 -0.041,-0.194c-0.013,-0.066 -0.026,-0.135 -0.038,-0.209c-0.012,-0.073 -0.026,-0.149 -0.042,-0.226c-0.016,-0.078 -0.032,-0.157 -0.047,-0.238c-0.015,-0.082 -0.03,-0.16 -0.047,-0.233c-0.016,-0.074 -0.032,-0.147 -0.049,-0.217c-0.016,-0.071 -0.031,-0.134 -0.045,-0.19c-0.015,-0.055 -0.034,-0.117 -0.058,-0.184c-0.023,-0.067 -0.048,-0.133 -0.073,-0.198c-0.025,-0.065 -0.045,-0.125 -0.059,-0.181c-0.014,-0.056 -0.018,-0.112 -0.011,-0.168c0.007,-0.057 0.014,-0.115 0.022,-0.176c0.007,-0.06 0.039,-0.085 0.095,-0.074c0.056,0.011 0.112,0.02 0.169,0.027c0.058,0.007 0.117,0.011 0.177,0.011c0.061,0 0.123,0 0.184,0.001c0.062,0.001 0.129,0 0.201,-0.002c0.072,-0.002 0.139,-0.007 0.201,-0.013c0.062,-0.007 0.126,-0.013 0.192,-0.019c0.066,-0.006 0.136,-0.015 0.21,-0.028c0.073,-0.013 0.146,-0.022 0.219,-0.026c0.072,-0.005 0.147,-0.012 0.224,-0.02c0.076,-0.009 0.155,-0.021 0.236,-0.036c0.082,-0.016 0.165,-0.034 0.251,-0.056c0.086,-0.022 0.162,-0.041 0.229,-0.058c0.066,-0.016 0.134,-0.038 0.203,-0.066c0.069,-0.027 0.137,-0.056 0.206,-0.087c0.068,-0.031 0.137,-0.064 0.206,-0.099c0.069,-0.035 0.139,-0.069 0.212,-0.103c0.072,-0.034 0.147,-0.066 0.224,-0.096c0.076,-0.03 0.152,-0.056 0.227,-0.079c0.075,-0.024 0.153,-0.045 0.235,-0.063c0.081,-0.019 0.162,-0.036 0.244,-0.051c0.081,-0.015 0.162,-0.03 0.243,-0.045c0.082,-0.016 0.162,-0.027 0.243,-0.035c0.08,-0.008 0.159,-0.02 0.236,-0.035c0.078,-0.016 0.155,-0.031 0.233,-0.046c0.078,-0.015 0.153,-0.031 0.227,-0.048c0.074,-0.016 0.147,-0.034 0.217,-0.054c0.071,-0.021 0.144,-0.042 0.219,-0.064c0.074,-0.023 0.148,-0.044 0.219,-0.064c0.072,-0.02 0.143,-0.039 0.213,-0.055c0.071,-0.016 0.137,-0.033 0.2,-0.051c0.063,-0.017 0.125,-0.033 0.185,-0.047c0.06,-0.014 0.119,-0.025 0.177,-0.032c0.058,-0.007 0.124,-0.019 0.198,-0.034c0.073,-0.016 0.144,-0.034 0.213,-0.055c0.068,-0.02 0.13,-0.045 0.187,-0.074c0.057,-0.029 0.116,-0.065 0.176,-0.108c0.059,-0.043 0.116,-0.092 0.17,-0.146c0.054,-0.054 0.106,-0.11 0.157,-0.169c0.05,-0.059 0.094,-0.109 0.132,-0.15c0.037,-0.042 0.075,-0.086 0.113,-0.132c0.038,-0.045 0.076,-0.09 0.113,-0.132c0.038,-0.042 0.076,-0.086 0.114,-0.132c0.038,-0.046 0.077,-0.089 0.118,-0.131c0.041,-0.041 0.083,-0.082 0.125,-0.124c0.042,-0.042 0.095,-0.089 0.159,-0.142c0.064,-0.053 0.126,-0.103 0.186,-0.149c0.06,-0.047 0.115,-0.087 0.166,-0.12c0.05,-0.034 0.105,-0.069 0.163,-0.105c0.059,-0.035 0.114,-0.068 0.165,-0.097c0.051,-0.03 0.102,-0.062 0.153,-0.094c0.051,-0.034 0.103,-0.062 0.155,-0.084c0.053,-0.022 0.086,-0.002 0.101,0.062c0.014,0.063 0.018,0.123 0.011,0.179c-0.007,0.057 -0.014,0.113 -0.022,0.17c-0.007,0.056 -0.014,0.127 -0.021,0.213c-0.007,0.086 -0.013,0.162 -0.017,0.23c-0.005,0.068 -0.007,0.14 -0.007,0.215c0.001,0.076 0.003,0.151 0.004,0.227c0.002,0.076 0.003,0.155 0.004,0.238c0,0.083 0.004,0.166 0.011,0.249c0.008,0.084 0.017,0.171 0.027,0.263c0.011,0.092 0.021,0.185 0.03,0.28c0.01,0.095 0.02,0.191 0.029,0.289c0.01,0.098 0.023,0.2 0.038,0.307c0.016,0.106 0.029,0.21 0.041,0.313c0.012,0.102 0.024,0.181 0.036,0.237c0.011,0.055 0.025,0.134 0.041,0.236c0.016,0.103 0.033,0.209 0.052,0.319c0.018,0.11 0.031,0.195 0.039,0.254c0.007,0.059 0.015,0.12 0.025,0.182c0.01,0.062 0.022,0.122 0.037,0.182c0.015,0.059 0.027,0.122 0.036,0.188c0.009,0.066 0.019,0.132 0.029,0.199c0.01,0.066 0.022,0.132 0.035,0.198c0.013,0.066 0.024,0.134 0.034,0.203c0.01,0.07 0.019,0.138 0.029,0.204c0.009,0.066 0.019,0.132 0.029,0.198c0.01,0.065 0.02,0.133 0.03,0.203c0.01,0.07 0.017,0.137 0.023,0.203c0.006,0.066 0.014,0.131 0.024,0.197c0.01,0.066 0.018,0.131 0.024,0.197c0.005,0.066 0.015,0.132 0.029,0.199c0.014,0.067 0.025,0.133 0.035,0.198c0.009,0.066 0.019,0.132 0.029,0.198c0.01,0.066 0.02,0.132 0.029,0.199c0.009,0.066 0.019,0.13 0.03,0.192c0.011,0.062 0.021,0.127 0.03,0.193c0.009,0.066 0.019,0.13 0.03,0.192c0.011,0.062 0.021,0.125 0.032,0.188c0.011,0.063 0.021,0.125 0.031,0.187c0.009,0.062 0.02,0.125 0.03,0.187c0.011,0.062 0.019,0.124 0.026,0.187c0.006,0.062 0.014,0.122 0.025,0.181c0.011,0.059 0.02,0.12 0.026,0.182c0.006,0.062 0.013,0.124 0.02,0.186c0.007,0.062 0.014,0.122 0.021,0.18c0.008,0.059 0.015,0.117 0.022,0.175c0.006,0.058 0.016,0.143 0.028,0.253c0.012,0.11 0.022,0.219 0.029,0.328c0.008,0.109 0.016,0.214 0.026,0.316c0.009,0.101 0.016,0.204 0.021,0.309c0.004,0.106 0.011,0.212 0.019,0.321c0.009,0.109 0.019,0.22 0.03,0.333c0.01,0.112 0.019,0.198 0.027,0.258c0.007,0.059 0.014,0.117 0.021,0.175c0.006,0.059 0.012,0.117 0.015,0.175c0.004,0.058 0.011,0.116 0.021,0.174c0.011,0.059 0.024,0.142 0.04,0.248c0.016,0.107 0.033,0.21 0.049,0.309c0.016,0.1 0.033,0.192 0.051,0.277c0.018,0.084 0.036,0.167 0.055,0.249c0.018,0.082 0.035,0.163 0.051,0.244c0.016,0.081 0.035,0.162 0.057,0.245c0.022,0.082 0.044,0.164 0.066,0.246c0.022,0.081 0.042,0.165 0.06,0.25c0.018,0.085 0.035,0.17 0.05,0.254c0.015,0.084 0.03,0.169 0.044,0.254c0.015,0.084 0.029,0.169 0.043,0.254c0.015,0.085 0.031,0.171 0.05,0.259c0.018,0.088 0.034,0.175 0.049,0.26c0.014,0.084 0.029,0.168 0.044,0.249c0.014,0.081 0.032,0.159 0.052,0.234c0.02,0.074 0.04,0.145 0.061,0.212c0.02,0.067 0.039,0.13 0.056,0.189c0.018,0.06 0.038,0.12 0.059,0.181c0.022,0.061 0.042,0.119 0.06,0.176c0.018,0.056 0.036,0.112 0.054,0.168c0.018,0.056 0.037,0.122 0.057,0.196c0.02,0.075 0.038,0.14 0.052,0.195c0.014,0.056 0.028,0.115 0.041,0.178c0.014,0.063 0.024,0.127 0.03,0.192c0.007,0.066 0.012,0.128 0.016,0.186c0.004,0.058 0.006,0.116 0.006,0.173c0,0.058 -0.011,0.058 -0.033,0.001c-0.023,-0.057 -0.049,-0.11 -0.079,-0.16c-0.029,-0.05 -0.061,-0.102 -0.094,-0.157c-0.032,-0.055 -0.065,-0.109 -0.098,-0.164c-0.033,-0.054 -0.066,-0.109 -0.099,-0.164c-0.032,-0.054 -0.064,-0.106 -0.093,-0.157c-0.03,-0.05 -0.06,-0.102 -0.089,-0.156c-0.029,-0.054 -0.061,-0.105 -0.094,-0.153c-0.034,-0.048 -0.073,-0.094 -0.119,-0.139c-0.045,-0.045 -0.097,-0.091 -0.155,-0.138c-0.059,-0.046 -0.115,-0.086 -0.168,-0.118c-0.053,-0.032 -0.11,-0.066 -0.171,-0.102c-0.061,-0.036 -0.119,-0.068 -0.173,-0.097c-0.053,-0.028 -0.106,-0.054 -0.157,-0.079c-0.052,-0.024 -0.111,-0.049 -0.18,-0.076c-0.069,-0.026 -0.131,-0.049 -0.187,-0.067c-0.056,-0.018 -0.111,-0.036 -0.166,-0.054c-0.055,-0.018 -0.112,-0.037 -0.171,-0.058c-0.059,-0.022 -0.118,-0.041 -0.177,-0.059c-0.058,-0.019 -0.119,-0.036 -0.182,-0.05c-0.062,-0.015 -0.126,-0.026 -0.19,-0.034l-0.538,-0.067c-0.061,-0.008 -0.121,-0.01 -0.182,-0.008c-0.062,0.003 -0.12,0.01 -0.176,0.021c-0.056,0.011 -0.117,0.027 -0.184,0.048c-0.067,0.02 -0.137,0.039 -0.208,0.055c-0.071,0.016 -0.134,0.031 -0.19,0.045c-0.055,0.015 -0.113,0.035 -0.174,0.06c-0.062,0.025 -0.119,0.055 -0.174,0.092c-0.054,0.037 -0.109,0.077 -0.165,0.121c-0.057,0.043 -0.111,0.086 -0.163,0.13c-0.053,0.043 -0.102,0.087 -0.147,0.132c-0.045,0.045 -0.089,0.092 -0.131,0.14c-0.042,0.049 -0.082,0.098 -0.12,0.147c-0.039,0.049 -0.077,0.095 -0.115,0.137c-0.037,0.043 -0.074,0.092 -0.111,0.148c-0.036,0.057 -0.07,0.114 -0.103,0.171c-0.032,0.058 -0.06,0.112 -0.083,0.163c-0.024,0.051 -0.047,0.106 -0.069,0.164c-0.022,0.058 -0.043,0.12 -0.062,0.186c-0.02,0.066 -0.038,0.127 -0.056,0.182c-0.018,0.055 -0.034,0.11 -0.047,0.166c-0.014,0.056 -0.028,0.119 -0.044,0.19c-0.017,0.071 -0.03,0.134 -0.041,0.19c-0.011,0.056 -0.019,0.112 -0.026,0.169l-0.079,0.626c-0.009,0.078 -0.014,0.156 -0.012,0.236c0.001,0.08 0.007,0.149 0.017,0.208c0.01,0.058 0.022,0.119 0.036,0.183c0.015,0.063 0.034,0.127 0.058,0.191c0.024,0.064 0.052,0.128 0.084,0.193c0.032,0.065 0.062,0.121 0.092,0.168c0.031,0.047 0.065,0.102 0.104,0.164c0.04,0.063 0.078,0.118 0.116,0.166c0.037,0.049 0.081,0.096 0.133,0.142c0.051,0.045 0.1,0.084 0.147,0.114c0.047,0.031 0.097,0.064 0.15,0.1c0.052,0.036 0.106,0.067 0.161,0.096c0.054,0.028 0.11,0.056 0.168,0.085c0.057,0.028 0.118,0.054 0.183,0.077c0.066,0.023 0.134,0.04 0.206,0.052c0.071,0.013 0.138,0.023 0.202,0.031l0.559,0.069c0.059,0.008 0.118,0.013 0.176,0.017c0.058,0.004 0.117,0.008 0.177,0.012c0.06,0.004 0.123,0.003 0.188,-0.004c0.066,-0.006 0.134,-0.014 0.204,-0.023c0.07,-0.009 0.144,-0.021 0.222,-0.036c0.077,-0.016 0.153,-0.033 0.228,-0.053c0.074,-0.02 0.149,-0.04 0.223,-0.06c0.074,-0.019 0.143,-0.038 0.206,-0.055c0.063,-0.017 0.121,-0.034 0.174,-0.053c0.053,-0.018 0.11,-0.04 0.171,-0.064c0.062,-0.025 0.121,-0.056 0.179,-0.092c0.058,-0.037 0.119,-0.078 0.183,-0.124c0.064,-0.046 0.127,-0.092 0.19,-0.138c0.063,-0.046 0.121,-0.089 0.173,-0.129c0.052,-0.04 0.098,-0.079 0.139,-0.118c0.041,-0.038 0.084,-0.083 0.13,-0.135c0.046,-0.051 0.085,-0.1 0.117,-0.147c0.031,-0.047 0.064,-0.093 0.099,-0.139c0.034,-0.047 0.067,-0.095 0.098,-0.145c0.031,-0.05 0.064,-0.098 0.098,-0.144c0.035,-0.046 0.068,-0.096 0.1,-0.149c0.033,-0.054 0.067,-0.112 0.104,-0.176c0.037,-0.064 0.069,-0.125 0.098,-0.182c0.028,-0.058 0.056,-0.112 0.084,-0.162c0.029,-0.05 0.056,-0.108 0.082,-0.173c0.025,-0.066 0.051,-0.131 0.078,-0.196c0.027,-0.065 0.049,-0.127 0.067,-0.186c0.019,-0.058 0.037,-0.128 0.054,-0.209c0.018,-0.081 0.031,-0.16 0.041,-0.238c0.01,-0.077 0.02,-0.162 0.032,-0.255c0.011,-0.093 0.019,-0.168 0.022,-0.225c0.004,-0.057 0.002,-0.116 -0.005,-0.178c-0.007,-0.061 -0.016,-0.125 -0.026,-0.192c-0.01,-0.066 -0.023,-0.14 -0.037,-0.22c-0.015,-0.081 -0.029,-0.16 -0.04,-0.238l-0.018,-0.116" style="fill:none;stroke:#000;stroke-width:1.67px;"/><path id="STROKE_1CA57F93.-C428.-4E2A.-9EE6.-B278E23D53DF" d="M26.731,70.855c-0.116,-0.008 -0.201,-0.003 -0.257,0.015c-0.056,0.018 -0.119,0.036 -0.189,0.053c-0.07,0.016 -0.152,0.033 -0.244,0.05c-0.093,0.017 -0.187,0.031 -0.282,0.041c-0.095,0.01 -0.174,0.018 -0.235,0.024c-0.062,0.007 -0.123,0.013 -0.182,0.02c-0.059,0.008 -0.119,0.015 -0.181,0.021c-0.061,0.007 -0.123,0.014 -0.186,0.021c-0.063,0.006 -0.123,0.015 -0.182,0.026c-0.058,0.01 -0.119,0.021 -0.182,0.031c-0.063,0.01 -0.126,0.02 -0.188,0.03c-0.062,0.011 -0.125,0.023 -0.187,0.036c-0.063,0.014 -0.126,0.03 -0.19,0.047c-0.064,0.018 -0.125,0.034 -0.184,0.048c-0.059,0.014 -0.121,0.03 -0.185,0.046c-0.063,0.017 -0.127,0.032 -0.189,0.046c-0.063,0.014 -0.126,0.029 -0.19,0.047c-0.064,0.018 -0.126,0.034 -0.184,0.048c-0.059,0.014 -0.119,0.028 -0.179,0.042c-0.06,0.014 -0.121,0.028 -0.183,0.041c-0.063,0.014 -0.125,0.026 -0.187,0.036c-0.062,0.01 -0.125,0.021 -0.188,0.031c-0.063,0.01 -0.128,0.018 -0.193,0.024c-0.065,0.007 -0.131,0.015 -0.198,0.024c-0.067,0.01 -0.133,0.02 -0.199,0.03c-0.065,0.009 -0.133,0.019 -0.203,0.028c-0.069,0.01 -0.137,0.019 -0.203,0.029c-0.067,0.009 -0.134,0.021 -0.2,0.035c-0.066,0.014 -0.131,0.026 -0.193,0.036c-0.062,0.01 -0.125,0.022 -0.188,0.036c-0.064,0.013 -0.127,0.027 -0.189,0.041c-0.063,0.013 -0.124,0.027 -0.184,0.041c-0.06,0.014 -0.119,0.026 -0.177,0.037c-0.059,0.011 -0.116,0.022 -0.172,0.033c-0.056,0.011 -0.113,0.022 -0.171,0.032c-0.059,0.011 -0.116,0.02 -0.171,0.028c-0.056,0.007 -0.131,0.02 -0.228,0.037c-0.096,0.017 -0.186,0.033 -0.27,0.047c-0.084,0.014 -0.164,0.028 -0.241,0.04c-0.077,0.011 -0.15,0.024 -0.217,0.037c-0.067,0.013 -0.132,0.03 -0.196,0.051c-0.063,0.021 -0.114,0.053 -0.151,0.095l-0.056,0.064" style="fill:none;stroke:#000;stroke-width:1.67px;"/><path id="STROKE_3819E904.-A0B5.-40F3.-ADEF.-BCA933C38EBD" d="M18.719,55.057c-0.071,-0.149 -0.122,-0.26 -0.153,-0.333c-0.03,-0.074 -0.067,-0.16 -0.112,-0.259c-0.045,-0.099 -0.083,-0.183 -0.115,-0.25c-0.031,-0.067 -0.063,-0.136 -0.097,-0.207c-0.034,-0.071 -0.069,-0.144 -0.106,-0.217c-0.036,-0.074 -0.077,-0.158 -0.123,-0.251c-0.046,-0.094 -0.089,-0.188 -0.132,-0.284c-0.042,-0.097 -0.087,-0.196 -0.135,-0.299c-0.047,-0.103 -0.094,-0.212 -0.14,-0.326c-0.046,-0.115 -0.095,-0.227 -0.146,-0.336c-0.05,-0.109 -0.103,-0.223 -0.157,-0.341c-0.054,-0.119 -0.111,-0.234 -0.17,-0.347c-0.058,-0.113 -0.119,-0.228 -0.18,-0.345c-0.061,-0.116 -0.124,-0.23 -0.189,-0.341c-0.064,-0.111 -0.13,-0.223 -0.198,-0.337c-0.068,-0.115 -0.135,-0.227 -0.2,-0.338c-0.065,-0.111 -0.129,-0.221 -0.191,-0.329c-0.061,-0.107 -0.123,-0.219 -0.184,-0.335c-0.062,-0.117 -0.122,-0.23 -0.181,-0.341c-0.059,-0.11 -0.117,-0.22 -0.173,-0.33c-0.056,-0.11 -0.111,-0.216 -0.165,-0.319c-0.053,-0.104 -0.107,-0.207 -0.161,-0.311c-0.054,-0.104 -0.106,-0.204 -0.158,-0.301c-0.051,-0.097 -0.101,-0.194 -0.15,-0.291c-0.048,-0.096 -0.098,-0.193 -0.149,-0.291c-0.052,-0.097 -0.101,-0.187 -0.148,-0.272c-0.047,-0.084 -0.099,-0.178 -0.155,-0.282c-0.057,-0.105 -0.113,-0.199 -0.169,-0.285c-0.056,-0.085 -0.111,-0.171 -0.164,-0.256c-0.053,-0.085 -0.1,-0.163 -0.143,-0.235c-0.042,-0.073 -0.086,-0.143 -0.132,-0.212c-0.047,-0.07 -0.089,-0.132 -0.127,-0.188c-0.038,-0.056 -0.075,-0.112 -0.11,-0.168c-0.036,-0.056 -0.071,-0.109 -0.104,-0.159c-0.033,-0.049 -0.074,-0.108 -0.123,-0.178c-0.049,-0.069 -0.091,-0.13 -0.127,-0.183c-0.036,-0.053 -0.071,-0.104 -0.104,-0.154l-0.05,-0.074" style="fill:none;stroke:#000;stroke-width:1.67px;"/><path id="STROKE_DC2C07AA.-71EA.-464F.-BA19.-F7D86B7E5FC4" d="M18.219,56.083c-0.101,-0.062 -0.183,-0.102 -0.247,-0.122c-0.065,-0.019 -0.125,-0.034 -0.182,-0.045c-0.057,-0.011 -0.115,-0.02 -0.174,-0.027c-0.06,-0.008 -0.123,-0.011 -0.19,-0.01c-0.067,0.001 -0.137,0.017 -0.21,0.047c-0.074,0.031 -0.147,0.068 -0.219,0.114c-0.072,0.044 -0.137,0.088 -0.193,0.129c-0.056,0.041 -0.113,0.087 -0.17,0.137c-0.058,0.051 -0.116,0.107 -0.176,0.17c-0.06,0.062 -0.12,0.128 -0.18,0.199c-0.06,0.071 -0.117,0.144 -0.173,0.22c-0.055,0.075 -0.108,0.157 -0.158,0.247c-0.051,0.091 -0.097,0.18 -0.138,0.268c-0.042,0.089 -0.078,0.174 -0.109,0.255c-0.031,0.081 -0.057,0.157 -0.078,0.23c-0.022,0.073 -0.04,0.148 -0.056,0.224c-0.016,0.077 -0.029,0.154 -0.039,0.232c-0.009,0.078 -0.019,0.152 -0.027,0.223c-0.009,0.071 -0.012,0.142 -0.008,0.212c0.004,0.07 0.011,0.138 0.021,0.203c0.011,0.064 0.021,0.127 0.031,0.189c0.01,0.062 0.024,0.132 0.041,0.209c0.018,0.078 0.037,0.153 0.058,0.226c0.022,0.072 0.045,0.141 0.07,0.208c0.025,0.066 0.053,0.132 0.085,0.196c0.031,0.065 0.066,0.126 0.104,0.186c0.039,0.059 0.079,0.113 0.121,0.16c0.042,0.048 0.085,0.094 0.128,0.138c0.044,0.045 0.091,0.089 0.143,0.132c0.052,0.043 0.106,0.082 0.162,0.116c0.056,0.034 0.11,0.062 0.162,0.084c0.052,0.021 0.104,0.041 0.157,0.059c0.052,0.019 0.108,0.036 0.166,0.052c0.059,0.017 0.115,0.035 0.17,0.054c0.055,0.019 0.115,0.037 0.18,0.054c0.064,0.016 0.132,0.029 0.204,0.038l1.203,0.15c0.068,0.009 0.13,0.003 0.184,-0.017c0.054,-0.02 0.111,-0.046 0.169,-0.078c0.058,-0.033 0.12,-0.07 0.186,-0.113c0.066,-0.043 0.133,-0.086 0.202,-0.129c0.069,-0.043 0.138,-0.081 0.206,-0.111c0.068,-0.031 0.129,-0.056 0.182,-0.073c0.053,-0.017 0.112,-0.035 0.175,-0.055c0.062,-0.019 0.121,-0.041 0.176,-0.064c0.055,-0.024 0.11,-0.056 0.167,-0.097c0.056,-0.041 0.105,-0.083 0.147,-0.126c0.042,-0.044 0.082,-0.09 0.122,-0.14c0.039,-0.049 0.08,-0.096 0.122,-0.139c0.042,-0.043 0.085,-0.086 0.13,-0.129c0.045,-0.043 0.079,-0.097 0.101,-0.16c0.023,-0.064 0.041,-0.125 0.054,-0.183c0.014,-0.059 0.028,-0.121 0.042,-0.186c0.014,-0.064 0.026,-0.13 0.034,-0.199c0.009,-0.069 0.017,-0.136 0.025,-0.202c0.009,-0.066 0.015,-0.132 0.021,-0.197c0.005,-0.066 -0.005,-0.137 -0.029,-0.212c-0.024,-0.076 -0.047,-0.142 -0.07,-0.199c-0.023,-0.057 -0.05,-0.122 -0.08,-0.196c-0.031,-0.073 -0.063,-0.156 -0.097,-0.248c-0.035,-0.092 -0.071,-0.191 -0.109,-0.295c-0.038,-0.105 -0.067,-0.186 -0.087,-0.242c-0.02,-0.057 -0.042,-0.115 -0.064,-0.176c-0.023,-0.06 -0.048,-0.124 -0.077,-0.191c-0.028,-0.066 -0.056,-0.134 -0.084,-0.201c-0.028,-0.067 -0.058,-0.135 -0.089,-0.202c-0.031,-0.068 -0.065,-0.135 -0.102,-0.203c-0.037,-0.068 -0.072,-0.137 -0.105,-0.208c-0.034,-0.07 -0.069,-0.141 -0.106,-0.212c-0.036,-0.072 -0.076,-0.142 -0.119,-0.21c-0.042,-0.069 -0.087,-0.137 -0.134,-0.203c-0.046,-0.066 -0.093,-0.13 -0.14,-0.19c-0.047,-0.061 -0.095,-0.124 -0.144,-0.191c-0.049,-0.066 -0.099,-0.125 -0.149,-0.177c-0.051,-0.052 -0.1,-0.097 -0.147,-0.136c-0.047,-0.039 -0.098,-0.073 -0.152,-0.101c-0.054,-0.028 -0.105,-0.057 -0.153,-0.087l-0.072,-0.045" style="fill:none;stroke:#000;stroke-width:1.67px;"/><path id="STROKE_C4A9EB6D.-D2EB.-4AF8.-8D1A.-8C16A4D58F76" d="M23.891,100.753c0.039,-0.128 0.062,-0.22 0.069,-0.277c0.007,-0.057 0.015,-0.117 0.023,-0.183c0.008,-0.065 0.01,-0.134 0.004,-0.208c-0.006,-0.073 -0.019,-0.143 -0.041,-0.209c-0.022,-0.066 -0.048,-0.128 -0.077,-0.187c-0.029,-0.058 -0.062,-0.111 -0.099,-0.157c-0.037,-0.048 -0.072,-0.096 -0.105,-0.145c-0.033,-0.05 -0.067,-0.101 -0.1,-0.153c-0.033,-0.052 -0.065,-0.108 -0.096,-0.166c-0.032,-0.059 -0.067,-0.116 -0.106,-0.172c-0.038,-0.056 -0.078,-0.107 -0.118,-0.151c-0.04,-0.045 -0.084,-0.082 -0.132,-0.112c-0.047,-0.029 -0.098,-0.057 -0.152,-0.082c-0.054,-0.026 -0.107,-0.05 -0.159,-0.075c-0.052,-0.024 -0.105,-0.052 -0.158,-0.083c-0.054,-0.03 -0.11,-0.063 -0.17,-0.097c-0.059,-0.035 -0.115,-0.067 -0.169,-0.095c-0.054,-0.028 -0.11,-0.05 -0.169,-0.066c-0.058,-0.016 -0.116,-0.029 -0.173,-0.039c-0.057,-0.01 -0.116,-0.024 -0.177,-0.04c-0.062,-0.017 -0.125,-0.035 -0.189,-0.052c-0.065,-0.017 -0.132,-0.03 -0.203,-0.039c-0.071,-0.009 -0.138,-0.017 -0.201,-0.025c-0.062,-0.008 -0.125,-0.008 -0.187,-0.001c-0.062,0.008 -0.121,0.02 -0.178,0.037c-0.056,0.018 -0.111,0.038 -0.165,0.062c-0.055,0.023 -0.114,0.043 -0.18,0.059c-0.066,0.016 -0.133,0.032 -0.201,0.048c-0.069,0.015 -0.138,0.038 -0.209,0.069c-0.07,0.03 -0.133,0.059 -0.188,0.085c-0.056,0.026 -0.107,0.054 -0.156,0.084c-0.049,0.03 -0.099,0.06 -0.152,0.09c-0.053,0.03 -0.107,0.068 -0.164,0.112c-0.057,0.044 -0.11,0.084 -0.16,0.12c-0.051,0.036 -0.1,0.07 -0.15,0.1c-0.05,0.03 -0.101,0.065 -0.154,0.104c-0.052,0.039 -0.101,0.076 -0.145,0.113c-0.044,0.036 -0.089,0.076 -0.134,0.119c-0.045,0.043 -0.088,0.091 -0.131,0.142c-0.043,0.052 -0.081,0.104 -0.115,0.158c-0.034,0.053 -0.069,0.106 -0.106,0.159c-0.037,0.053 -0.072,0.105 -0.106,0.155c-0.033,0.051 -0.066,0.099 -0.099,0.146c-0.033,0.047 -0.065,0.098 -0.096,0.152c-0.03,0.053 -0.057,0.106 -0.078,0.158c-0.023,0.052 -0.041,0.111 -0.055,0.179c-0.015,0.067 -0.027,0.134 -0.035,0.2l-0.047,0.375c-0.007,0.059 -0.01,0.123 -0.009,0.19c0.001,0.067 0.011,0.132 0.03,0.194c0.019,0.063 0.04,0.128 0.062,0.194c0.022,0.066 0.046,0.126 0.073,0.181c0.026,0.054 0.056,0.109 0.089,0.165c0.032,0.056 0.066,0.112 0.102,0.167c0.036,0.056 0.068,0.114 0.097,0.175c0.028,0.062 0.054,0.122 0.077,0.183c0.023,0.06 0.05,0.118 0.082,0.173c0.032,0.055 0.072,0.108 0.12,0.16c0.049,0.051 0.097,0.095 0.144,0.131c0.046,0.036 0.096,0.073 0.149,0.109c0.052,0.037 0.109,0.073 0.169,0.107c0.06,0.035 0.114,0.074 0.163,0.116c0.049,0.042 0.09,0.09 0.123,0.143c0.033,0.053 0.072,0.105 0.117,0.156c0.045,0.051 0.094,0.09 0.148,0.117c0.054,0.028 0.112,0.057 0.175,0.086c0.063,0.029 0.122,0.058 0.177,0.086c0.054,0.027 0.104,0.06 0.147,0.099c0.043,0.039 0.088,0.082 0.133,0.13c0.046,0.048 0.097,0.082 0.152,0.101c0.055,0.019 0.115,0.033 0.181,0.041l0.352,0.044c0.057,0.007 0.113,0.006 0.169,-0.002c0.056,-0.008 0.109,-0.032 0.159,-0.071c0.05,-0.039 0.099,-0.08 0.146,-0.122c0.049,-0.042 0.098,-0.088 0.149,-0.136c0.051,-0.048 0.098,-0.091 0.143,-0.128c0.044,-0.037 0.09,-0.076 0.138,-0.118c0.047,-0.043 0.098,-0.086 0.152,-0.131c0.054,-0.046 0.105,-0.091 0.153,-0.136c0.048,-0.045 0.095,-0.092 0.141,-0.141c0.045,-0.049 0.089,-0.096 0.131,-0.142c0.043,-0.046 0.084,-0.097 0.124,-0.152c0.04,-0.056 0.081,-0.112 0.121,-0.171c0.041,-0.058 0.083,-0.118 0.127,-0.179c0.044,-0.062 0.09,-0.121 0.137,-0.179c0.046,-0.057 0.09,-0.112 0.133,-0.164c0.042,-0.053 0.081,-0.101 0.118,-0.144c0.036,-0.044 0.072,-0.088 0.108,-0.132c0.036,-0.044 0.076,-0.093 0.122,-0.147c0.045,-0.055 0.092,-0.113 0.139,-0.174c0.047,-0.061 0.093,-0.122 0.137,-0.183c0.044,-0.061 0.084,-0.115 0.12,-0.162c0.036,-0.047 0.08,-0.094 0.132,-0.142c0.051,-0.048 0.096,-0.093 0.135,-0.138c0.039,-0.043 0.08,-0.093 0.123,-0.148c0.044,-0.055 0.089,-0.116 0.136,-0.182c0.047,-0.066 0.087,-0.123 0.121,-0.171c0.034,-0.047 0.073,-0.101 0.116,-0.162c0.043,-0.061 0.086,-0.116 0.128,-0.166c0.043,-0.049 0.084,-0.099 0.124,-0.148c0.039,-0.05 0.084,-0.103 0.133,-0.161c0.05,-0.057 0.1,-0.115 0.15,-0.175c0.051,-0.06 0.094,-0.112 0.129,-0.156c0.036,-0.044 0.079,-0.099 0.13,-0.165c0.051,-0.066 0.101,-0.129 0.15,-0.186c0.049,-0.058 0.1,-0.117 0.153,-0.177c0.053,-0.059 0.098,-0.111 0.133,-0.155c0.036,-0.044 0.072,-0.087 0.107,-0.131c0.036,-0.044 0.072,-0.089 0.108,-0.137c0.036,-0.047 0.071,-0.094 0.104,-0.141c0.033,-0.047 0.075,-0.104 0.126,-0.17c0.051,-0.067 0.1,-0.132 0.147,-0.196c0.048,-0.063 0.096,-0.125 0.146,-0.186c0.049,-0.059 0.097,-0.12 0.144,-0.181c0.048,-0.061 0.098,-0.121 0.151,-0.181c0.053,-0.06 0.099,-0.11 0.137,-0.15c0.038,-0.041 0.086,-0.092 0.141,-0.155c0.056,-0.063 0.105,-0.116 0.147,-0.159c0.042,-0.043 0.082,-0.088 0.121,-0.134c0.04,-0.046 0.08,-0.091 0.122,-0.135c0.042,-0.044 0.082,-0.088 0.121,-0.135c0.039,-0.046 0.084,-0.102 0.135,-0.169c0.051,-0.066 0.099,-0.128 0.142,-0.186c0.044,-0.058 0.087,-0.116 0.131,-0.174c0.044,-0.058 0.087,-0.116 0.131,-0.174c0.044,-0.059 0.091,-0.118 0.14,-0.178c0.049,-0.061 0.093,-0.114 0.132,-0.161c0.04,-0.047 0.079,-0.092 0.117,-0.135c0.039,-0.044 0.08,-0.09 0.122,-0.138c0.043,-0.049 0.084,-0.099 0.123,-0.148c0.04,-0.05 0.079,-0.1 0.119,-0.149c0.039,-0.05 0.079,-0.098 0.118,-0.144c0.039,-0.047 0.084,-0.1 0.134,-0.161c0.05,-0.06 0.098,-0.118 0.145,-0.172c0.046,-0.055 0.09,-0.107 0.132,-0.156c0.041,-0.049 0.087,-0.1 0.137,-0.155c0.049,-0.054 0.093,-0.103 0.132,-0.147c0.039,-0.044 0.083,-0.091 0.131,-0.143c0.05,-0.05 0.096,-0.103 0.139,-0.158c0.043,-0.055 0.089,-0.113 0.139,-0.174c0.049,-0.061 0.096,-0.118 0.139,-0.174c0.043,-0.055 0.085,-0.107 0.124,-0.157c0.04,-0.049 0.084,-0.103 0.134,-0.16c0.05,-0.057 0.096,-0.109 0.138,-0.155c0.042,-0.046 0.086,-0.09 0.131,-0.133c0.044,-0.042 0.089,-0.085 0.133,-0.128c0.044,-0.044 0.09,-0.087 0.138,-0.129c0.048,-0.042 0.098,-0.086 0.149,-0.131c0.051,-0.044 0.106,-0.093 0.164,-0.147c0.057,-0.053 0.114,-0.106 0.169,-0.159c0.056,-0.054 0.109,-0.105 0.16,-0.153c0.051,-0.049 0.101,-0.095 0.149,-0.14c0.048,-0.046 0.096,-0.088 0.144,-0.127c0.047,-0.04 0.094,-0.078 0.141,-0.114c0.046,-0.037 0.094,-0.069 0.143,-0.097c0.049,-0.027 0.072,-0.013 0.068,0.044c-0.004,0.057 -0.013,0.115 -0.026,0.174c-0.014,0.059 -0.029,0.117 -0.046,0.176c-0.016,0.058 -0.034,0.123 -0.055,0.193c-0.02,0.07 -0.039,0.134 -0.055,0.192c-0.017,0.059 -0.032,0.117 -0.046,0.176c-0.013,0.059 -0.025,0.116 -0.035,0.173c-0.01,0.056 -0.021,0.12 -0.033,0.191c-0.012,0.071 -0.022,0.135 -0.029,0.192l-0.046,0.371c-0.008,0.065 -0.011,0.129 -0.01,0.189c0.002,0.061 0.012,0.127 0.03,0.199c0.019,0.071 0.037,0.134 0.055,0.188c0.018,0.054 0.037,0.112 0.056,0.175c0.019,0.063 0.04,0.124 0.063,0.184c0.023,0.06 0.056,0.12 0.1,0.18c0.043,0.06 0.097,0.103 0.16,0.129c0.064,0.026 0.128,0.043 0.194,0.051c0.065,0.008 0.14,0.009 0.223,0.001c0.083,-0.008 0.156,-0.021 0.219,-0.041c0.063,-0.019 0.132,-0.039 0.207,-0.06c0.076,-0.021 0.153,-0.043 0.231,-0.066c0.078,-0.024 0.166,-0.051 0.263,-0.081c0.098,-0.03 0.2,-0.061 0.307,-0.094c0.107,-0.032 0.191,-0.056 0.251,-0.072c0.06,-0.016 0.12,-0.032 0.179,-0.046c0.059,-0.014 0.118,-0.029 0.178,-0.046c0.059,-0.016 0.118,-0.03 0.177,-0.041c0.059,-0.011 0.119,-0.022 0.181,-0.033c0.062,-0.01 0.122,-0.017 0.181,-0.022c0.058,-0.005 0.117,-0.008 0.174,-0.01c0.058,-0.002 0.139,0 0.245,0.004c0.106,0.003 0.209,0.012 0.311,0.024c0.101,0.013 0.2,0.031 0.297,0.056c0.097,0.024 0.189,0.063 0.277,0.116c0.087,0.053 0.168,0.114 0.244,0.181c0.077,0.067 0.145,0.138 0.205,0.215c0.06,0.077 0.109,0.159 0.146,0.245c0.037,0.087 0.065,0.181 0.084,0.283c0.018,0.101 0.021,0.208 0.01,0.318c-0.012,0.111 -0.021,0.195 -0.028,0.252c-0.007,0.056 -0.022,0.139 -0.044,0.248c-0.022,0.109 -0.047,0.189 -0.075,0.24c-0.028,0.051 -0.069,0.123 -0.122,0.215c-0.054,0.093 -0.097,0.162 -0.131,0.207c-0.033,0.044 -0.081,0.108 -0.142,0.191c-0.062,0.083 -0.127,0.161 -0.197,0.234l-0.104,0.109" style="fill:none;stroke:#000;stroke-width:1.67px;"/><path id="STROKE_170453CF.-CF1C.-4377.-B407.-81476401F1AD" d="M13.172,44.758c0.085,-0.105 0.139,-0.183 0.16,-0.235c0.021,-0.052 0.059,-0.09 0.114,-0.113c0.055,-0.023 0.111,-0.039 0.17,-0.047c0.058,-0.008 0.115,-0.026 0.17,-0.056c0.055,-0.029 0.11,-0.061 0.166,-0.096c0.057,-0.036 0.117,-0.068 0.181,-0.096c0.064,-0.028 0.127,-0.049 0.189,-0.062c0.062,-0.014 0.129,-0.026 0.2,-0.035c0.07,-0.009 0.143,-0.023 0.219,-0.04c0.075,-0.019 0.139,-0.038 0.193,-0.058c0.054,-0.021 0.12,-0.043 0.199,-0.066c0.079,-0.024 0.154,-0.041 0.225,-0.053c0.071,-0.012 0.138,-0.016 0.201,-0.011c0.063,0.005 0.132,0.012 0.206,0.021c0.074,0.009 0.145,0.021 0.213,0.035c0.068,0.015 0.136,0.035 0.206,0.062c0.07,0.027 0.139,0.055 0.208,0.085c0.069,0.03 0.139,0.056 0.209,0.076c0.07,0.02 0.144,0.038 0.22,0.054c0.076,0.016 0.143,0.028 0.199,0.035l1.482,0.185c0.072,0.008 0.146,0.01 0.222,0.005c0.077,-0.006 0.148,-0.018 0.214,-0.038c0.066,-0.019 0.133,-0.045 0.201,-0.079c0.068,-0.034 0.135,-0.074 0.201,-0.12c0.066,-0.046 0.124,-0.1 0.175,-0.164c0.05,-0.063 0.096,-0.124 0.136,-0.182c0.041,-0.058 0.079,-0.116 0.113,-0.172c0.034,-0.056 0.063,-0.113 0.088,-0.17c0.025,-0.058 0.05,-0.112 0.075,-0.164c0.025,-0.051 0.053,-0.113 0.083,-0.185c0.03,-0.072 0.059,-0.142 0.089,-0.211c0.029,-0.069 0.06,-0.134 0.093,-0.197c0.032,-0.062 0.064,-0.121 0.095,-0.178c0.031,-0.056 0.06,-0.117 0.086,-0.18c0.025,-0.064 0.052,-0.133 0.08,-0.208c0.028,-0.075 0.053,-0.152 0.075,-0.231c0.021,-0.08 0.038,-0.158 0.051,-0.235c0.012,-0.077 0.022,-0.145 0.03,-0.205l0.011,-0.089" style="fill:none;stroke:#000;stroke-width:1.67px;"/></g></g></svg>