<?xml version="1.0" encoding="utf-8"?>
<!-- Generator: Adobe Illustrator 16.0.0, SVG Export Plug-In . SVG Version: 6.00 Build 0)  -->
<!DOCTYPE svg PUBLIC "-//W3C//DTD SVG 1.1//EN" "http://www.w3.org/Graphics/SVG/1.1/DTD/svg11.dtd">
<svg version="1.1" id="Layer_1" xmlns="http://www.w3.org/2000/svg" xmlns:xlink="http://www.w3.org/1999/xlink" x="0px" y="0px"
	 width="160px" height="160px" viewBox="0 0 160 160" enable-background="new 0 0 160 160" xml:space="preserve">
<g id="a18">
	
		<path fill="#11AA11" stroke="#000000" stroke-width="1.7" stroke-linecap="round" stroke-linejoin="round" stroke-miterlimit="1.5" d="
		M116.978,66.092l3.053-4.887l4.39,0.277c0,0,5.62-7.267,7.831-10.375c1.341-1.885,5.944,1.18,6.224,3.071
		c0.28,1.892-5.182,7.289-4.545,8.278c0.635,0.989,8.692-2.425,8.692-2.425c3.652,4.716-0.36,7.444-6.216,9.477
		c0,0,0.999,2.815,0.457,4.067c-1.576,3.647-6.753,4.868-11.736,4.027c-1.868,1.849-3.757,3.181-5.663,4.091
		c0.024-0.563,0.035-1.127,0.035-1.693C119.499,75.106,118.608,70.419,116.978,66.092z"/>
	
		<path fill="none" stroke="#000000" stroke-width="1.7" stroke-linecap="round" stroke-linejoin="round" stroke-miterlimit="1.5" d="
		M124.28,61.68c5.152,2.192,8.334,4.919,4.906,9.534c-1.227,1.649-4.563-1.575-4.563-1.575"/>
	
		<path fill="#11AA11" stroke="#000000" stroke-width="1.7" stroke-linecap="round" stroke-linejoin="round" stroke-miterlimit="1.5" d="
		M59.814,95.203l-8.639,2.016l-9.025-6.41l-4.529,2.231c0,0-9.165-5.218-12.88-7.535c-2.254-1.405-5.779,3.875-5.24,6.003
		c0.539,2.129,8.71,5.436,8.473,6.764c-0.237,1.33-10.282,1.271-10.282,1.271c-1.787,6.608,3.669,7.729,10.773,7.296
		c0,0,0.184,3.424,1.311,4.512c3.28,3.168,9.306,2.176,14.215-0.916c7.397,3,13.352,2.112,18.537-0.852"/>
	
		<path fill="none" stroke="#000000" stroke-width="1.7" stroke-linecap="round" stroke-linejoin="round" stroke-miterlimit="1.5" d="
		M37.857,93.188c-4.492,4.6-6.659,8.895-0.988,12.271c2.025,1.206,4.138-3.685,4.138-3.685"/>
</g>
</svg>
