<svg xmlns="http://www.w3.org/2000/svg" viewBox="0 0 160 160">
  <g fill="#0f0">
    <path d="M139.5 61.5l-7.4 13.3-12.8 7.7s-.6 4.6-1 5.9c-1.1 4 20.1 2.3 22.3-1.7l-2.8-4.7 11.2-9.6c1.4-2.5.9-3.7-1.9-3.4l-10.9 8.1 6.8-13.4c.6-2.8-2-3.3-3.5-2.2z"/>
    <path d="M119.4 82.4l6.3-9.8c.8-.9 1.8-1 3.1-.4a142.2 142.2 0 008.2 6.5s-.6 2.8-4.4 2L129 80s.6 3.1-3.4 3.7-6.2-1.3-6.2-1.3z"/>
    <path d="M25.8 63.7L34 77.3l14.6 7.6s.6 4.8 1 6.1c1.2 4.1-21.6 3-24-1l1.6-5.1-12.7-9.6c-1.6-2.5-.9-3.8 2.3-3.5l12.4 8.1-7.5-13.7c-.6-3 2.3-3.6 4.1-2.5z"/>
    <path d="M48.4 84.8l-7.1-9.9c-.9-.9-2.1-1-3.6-.3 0 0-3.9 2.6-2.1 1.5S28 81.6 28 81.6s.6 2.9 5 2l4.4-.9s-.8 3.2 3.8 3.8 7.2-1.7 7.2-1.7z"/>
  </g>
  <g fill="#010101">
    <g opacity=".1">
      <path d="M119.4 82.4l6.3-9.8c.8-.9 1.8-1 3.1-.4a142.2 142.2 0 008.2 6.5s-.6 2.8-4.4 2L129 80s.6 3.1-3.4 3.7-6.2-1.3-6.2-1.3z"/>
      <path d="M48.4 84.8l-7.1-9.9c-.9-.9-2.1-1-3.6-.3 0 0-3.9 2.6-2.1 1.5S28 81.6 28 81.6s.6 2.9 5 2l4.4-.9s-.8 3.2 3.8 3.8 7.2-1.7 7.2-1.7z"/>
      <path d="M22 64.1c1.3 0 2.5.8 3 1.9l6.9 12.9 2.1-1.6L26 64a2.8 2.8 0 00-4 .1c0-.1 0 0 0 0z"/>
      <path d="M149 69.1c.2 1.3-1.2 2-2.2 2.7L136 80l1.9 1.8 11.1-9.4c.6-1 1.3-2.4 0-3.3z"/>
      <path d="M141.3 61s.5.8-.7 2.7l-7.2 11.7 2.5 1.9 7-13.3c0 .2 1-2.7-1.6-3z"/>
      <path d="M13.8 72.7c1-.4 2 .3 3 1.2 1.7 1.4 10.6 7.9 10.6 7.9l2.3-1.3-12.8-8.8c-1.3-.2-2.8 0-3.1 1z" transform="rotate(-1.2 21.8 76.7)"/>
      <path d="M139.5 84.9S125 91 118 88l.4 1.1s3.3 2.5 12.5 1.2c0 0 8.1-1.3 9.1-3.3l-.5-2.1z"/>
      <path d="M139.5 84.9s-16 7-23 4c0 0-.3.9.2 1.1 3.3 1.4 6.1 1.5 14 .4 0 0 7.9-1.2 9.6-3.8z" transform="rotate(3.15 -3.83 -2924.44) scale(-1 1)"/>
    </g>
    <path d="M48.4 84.8l-7.1-9.9c-.9-.9-2.1-1-3.6-.3 0 0-3.9 2.6-2.1 1.5S28 81.6 28 81.6c2.3-1.3 13.5-7.2 20.4 3.2z" opacity=".1"/>
  </g>
</svg>
