<?xml version="1.0" encoding="utf-8"?>
<!-- Generator: Adobe Illustrator 22.0.1, SVG Export Plug-In . SVG Version: 6.00 Build 0)  -->
<svg version="1.1" id="Layer_1" xmlns="http://www.w3.org/2000/svg" xmlns:xlink="http://www.w3.org/1999/xlink" x="0px" y="0px"
	 viewBox="0 0 160 160" style="enable-background:new 0 0 160 160;" xml:space="preserve">
<style type="text/css">
	.st0{fill:url(#SVGID_1_);}
	.st1{fill:#FCB22B;}
	.st2{opacity:5.000000e-02;}
	.st3{fill:url(#SVGID_2_);}
	.st4{opacity:0.1;}
</style>
<title>Artboard 42 copy 252</title>
<radialGradient id="SVGID_1_" cx="557.6818" cy="-639.0594" r="14.13" gradientTransform="matrix(0.98 0.21 0.23 -1.11 -260.57 -746.0099)" gradientUnits="userSpaceOnUse">
	<stop  offset="0" style="stop-color:#FFD22D"/>
	<stop  offset="0.87" style="stop-color:#FCB22B"/>
	<stop  offset="1" style="stop-color:#F28312"/>
</radialGradient>
<path class="st0" d="M139.5,61.5l-7.4,13.3l-12.8,7.7c0,0-0.6,4.6-1,5.9c-1.1,4,20.1,2.3,22.3-1.7l-2.8-4.7l11.2-9.6
	c1.4-2.5,0.9-3.7-1.9-3.4l-10.9,8.1l6.8-13.4C143.6,60.9,141,60.4,139.5,61.5z"/>
<path class="st1" d="M139.5,61.5l-7.4,13.3l-12.8,7.7c0,0-0.6,4.6-1,5.9c-1.1,4,20.1,2.3,22.3-1.7l-2.8-4.7l11.2-9.6
	c1.4-2.5,0.9-3.7-1.9-3.4l-10.9,8.1l6.8-13.4C143.6,60.9,141,60.4,139.5,61.5z"/>
<path class="st1" d="M119.4,82.4l6.3-9.8c0.8-0.9,1.8-1,3.1-0.4c0,0,3.3,2.4,1.8,1.4s6.4,5.1,6.4,5.1s-0.6,2.8-4.4,2L129,80
	c0,0,0.6,3.1-3.4,3.7S119.4,82.4,119.4,82.4z"/>
<g class="st2">
	<path d="M119.4,82.4l6.3-9.8c0.8-0.9,1.8-1,3.1-0.4c0,0,3.3,2.4,1.8,1.4s6.4,5.1,6.4,5.1s-0.6,2.8-4.4,2L129,80
		c0,0,0.6,3.1-3.4,3.7S119.4,82.4,119.4,82.4z"/>
</g>
<path class="st1" d="M25.8,63.7L34,77.3l14.6,7.6c0,0,0.6,4.8,1,6.1c1.2,4.1-21.6,3-24-1l1.6-5.1l-12.7-9.6
	c-1.6-2.5-0.9-3.8,2.3-3.5l12.4,8.1l-7.5-13.7C21.1,63.2,24,62.6,25.8,63.7z"/>
<radialGradient id="SVGID_2_" cx="9796.1318" cy="1083.8346" r="8.24" gradientTransform="matrix(-0.98 0.21 -0.21 -0.98 9846.04 -883.4799)" gradientUnits="userSpaceOnUse">
	<stop  offset="0" style="stop-color:#FFD22D"/>
	<stop  offset="0.87" style="stop-color:#FCB22B"/>
	<stop  offset="1" style="stop-color:#F28312"/>
</radialGradient>
<path class="st3" d="M48.4,84.8l-7.1-9.9c-0.9-0.9-2.1-1-3.6-0.3c0,0-3.9,2.6-2.1,1.5s-7.6,5.5-7.6,5.5s0.6,2.9,5,2l4.4-0.9
	c0,0-0.8,3.2,3.8,3.8S48.4,84.8,48.4,84.8z"/>
<path class="st1" d="M48.4,84.8l-7.1-9.9c-0.9-0.9-2.1-1-3.6-0.3c0,0-3.9,2.6-2.1,1.5s-7.6,5.5-7.6,5.5s0.6,2.9,5,2l4.4-0.9
	c0,0-0.8,3.2,3.8,3.8S48.4,84.8,48.4,84.8z"/>
<g class="st2">
	<path d="M48.4,84.8l-7.1-9.9c-0.9-0.9-2.1-1-3.6-0.3c0,0-3.9,2.6-2.1,1.5s-7.6,5.5-7.6,5.5s0.6,2.9,5,2l4.4-0.9
		c0,0-0.8,3.2,3.8,3.8S48.4,84.8,48.4,84.8z"/>
</g>
<g class="st2">
	<path d="M48.4,84.8l-7.1-9.9c-0.9-0.9-2.1-1-3.6-0.3c0,0-3.9,2.6-2.1,1.5s-7.6,5.5-7.6,5.5C30.3,80.3,41.5,74.4,48.4,84.8z"/>
</g>
<g class="st4">
	<path d="M22,64.1c1.3,0,2.5,0.8,3,1.9c1,2,6.9,12.9,6.9,12.9l2.1-1.6L26,64C24.9,62.9,23.1,62.9,22,64.1C22,64,22,64.1,22,64.1z"/>
</g>
<g class="st4">
	<path d="M149,68c0.2,1.3-0.4,2.5-1.4,3.2c-1.8,1.3-11.6,8.8-11.6,8.8l1.9,1.8l11.9-10C150.6,70.6,150.3,68.9,149,68z"/>
</g>
<g class="st4">
	<path d="M140.7,61.2c0,0,1.1,0.6-0.1,2.5c-1.2,1.9-7.2,11.7-7.2,11.7l2.5,1.9l7-13.9C143,63.6,143.4,61.9,140.7,61.2z"/>
</g>
<g class="st4">
	<path d="M13.7,73.1c1.2-0.5,2.5-0.3,3.5,0.6c1.7,1.4,10.6,7.9,10.6,7.9l2.3-1.3l-12.8-8.8C15.8,70.9,14.2,71.7,13.7,73.1z"/>
</g>
<g class="st4">
	<path d="M139.5,84.9c0,0-14.5,6.1-21.5,3.1l0.4,1.1c0,0,3.3,2.5,12.5,1.2c0,0,8.1-1.3,9.1-3.3L139.5,84.9z"/>
</g>
</svg>
