<?xml version="1.0" encoding="utf-8"?>
<!-- Generator: Adobe Illustrator 22.0.1, SVG Export Plug-In . SVG Version: 6.00 Build 0)  -->
<svg version="1.1" id="Layer_1" xmlns="http://www.w3.org/2000/svg" xmlns:xlink="http://www.w3.org/1999/xlink" x="0px" y="0px"
	 viewBox="0 0 160 160" style="enable-background:new 0 0 160 160;" xml:space="preserve">
<style type="text/css">
	.st0{fill:#FFFFFF;}
	.st1{opacity:0.2;enable-background:new    ;}
	.st2{fill:url(#SVGID_1_);}
	.st3{opacity:5.000000e-02;}
	.st4{fill:url(#SVGID_2_);}
	.st5{fill:url(#SVGID_3_);}
	.st6{fill:url(#SVGID_4_);}
</style>
<title>Artboard 42 copy 93</title>
<path class="st0" d="M57.5,80.2c-0.2-1.4-1.4-2.4-2.9-2.2c0,0,0,0,0,0l-16,2.4l-2.3-8c0,0,0-2-1.7-0.7l2.6,8.9l-3.8,0.6l-2.3-7.9
	c0,0,0-2-1.7-0.7l2.6,8.9l-2.2,0.3c0.4,1.3,0.5,2.6,0.2,3.9l3.4-0.3l2.4,8.4h0.1c-0.2,0.5,0.1,1,0.5,1.1c0.4,0.2,0.8,0,1.1-0.4h0.1
	l0-0.2c0.1-0.3,0-0.7-0.2-0.9l-2.4-8.4l3.6-0.4l2.6,8.9h0.1c-0.2,0.4,0,1,0.4,1.2l0,0c0.1,0.1,0.3,0.2,0.5,0.2c0.6,0,1-0.5,1-1
	c0-0.4-0.3-0.8-0.7-0.9l-2.4-8.4l15.4-1.6C56.7,82.9,57.7,81.6,57.5,80.2z"/>
<path class="st1" d="M55.3,83.1l-15.4,1.6l-0.5-1.6c0,0,18.8-2.3,18-2.9C57.5,80.2,58,82.3,55.3,83.1z"/>
<radialGradient id="SVGID_1_" cx="193.4239" cy="-473.2453" r="8.39" gradientTransform="matrix(1.0098 0.1224 0.12 -0.99 -117.4796 -407.6953)" gradientUnits="userSpaceOnUse">
	<stop  offset="0" style="stop-color:#F79B32"/>
	<stop  offset="0.87" style="stop-color:#F2612B"/>
	<stop  offset="1" style="stop-color:#C6462D"/>
</radialGradient>
<path class="st2" d="M12.8,83.5c0.6-4.6,4.8-7.8,9.5-7.3s8,4.7,7.5,9.3c-0.6,4.6-4.8,7.8-9.5,7.3S12.2,88.1,12.8,83.5z"/>
<g class="st3">
	<path d="M30,85.2c-0.6,4.6-4.8,7.9-9.5,7.3c0,0,0,0,0,0c-2.2-0.3-4.3-1.4-5.7-3.1c2.2,0.8,7.7,1.6,11.1-1.8c2.5-2.4,2.6-6.8,2-9
		C29.5,80.5,30.3,82.9,30,85.2z"/>
</g>
<linearGradient id="SVGID_2_" gradientUnits="userSpaceOnUse" x1="-151.4481" y1="-473.7446" x2="-151.4481" y2="-465.4745" gradientTransform="matrix(0.9 0.11 0.12 -0.99 215.34 -369.95)">
	<stop  offset="0" style="stop-color:#FFD22D;stop-opacity:0"/>
	<stop  offset="0.81" style="stop-color:#FFFCEF;stop-opacity:0.7"/>
	<stop  offset="1" style="stop-color:#FFFFFF;stop-opacity:0.8"/>
</linearGradient>
<path class="st4" d="M29.1,85.5c-0.6,1.5-3.9-2.5-7-2.7s-7,2.4-7.4,1c0.5-4.3,4.1-7.4,8.1-7S29.6,81.2,29.1,85.5z"/>
<radialGradient id="SVGID_3_" cx="346.8345" cy="-543.6172" r="7.3917" gradientTransform="matrix(0.9909 0.1345 0.1345 -0.9909 -131.2035 -508.8409)" gradientUnits="userSpaceOnUse">
	<stop  offset="0" style="stop-color:#F79B32"/>
	<stop  offset="0.87" style="stop-color:#F2612B"/>
	<stop  offset="1" style="stop-color:#C6462D"/>
</radialGradient>
<path class="st5" d="M146.7,77.5c-0.5,4-4.3,6.9-8.3,6.3c-2.8-0.4-5.1-2.3-6-4.9c-0.1-0.4,4.6,0.1,4.6-1.9c0-1-1.7-1-3-0.9l-2,0.2
	c0,0,0-0.5,0.1-0.8c0.6-4,4.3-6.9,8.3-6.3S147.3,73.4,146.7,77.5L146.7,77.5z"/>
<g class="st3">
	<path d="M146.7,77.5c-0.6,4-4.3,6.9-8.3,6.3c-1.9-0.3-3.7-1.3-4.8-2.8c1.9,0.7,6.6,1.5,9.6-1.4c2.2-2.1,2.4-6,1.9-7.9
		C146.3,73.3,147,75.4,146.7,77.5z"/>
</g>
<path class="st0" d="M137.1,76.5c-0.2-0.8-2.3-0.5-2.3-0.5l-6.4,0.5l-1.5-5.7c0,0,0-1.4-1.2-0.5l1.7,6.3l-3.3,0.3l-1.6-5.8
	c0,0,0-1.4-1.2-0.5l1.7,6.4l-3.7,0.3l0.1,3.2l4.6-0.6l2.1,8h0.1l0,0c-0.2,0.4,0,0.9,0.3,1.1c0.4,0.2,0.8,0,1-0.3h0.1v-0.2
	c0.1-0.3,0-0.6-0.2-0.8l-2.1-8l3.1-0.4l2.3,8.5h0.1l0,0c-0.2,0.4,0,0.8,0.4,1c0.4,0.2,0.8,0,1-0.3l0,0h0.1v-0.2
	c0.1-0.3,0-0.6-0.2-0.8l-2.3-8.5l5.5-0.7C136.9,78.3,137.3,77.5,137.1,76.5z"/>
<linearGradient id="SVGID_4_" gradientUnits="userSpaceOnUse" x1="5.2897" y1="-545.3352" x2="5.2897" y2="-538.0552" gradientTransform="matrix(0.9 0.12 0.13 -0.99 205.79 -464.31)">
	<stop  offset="0" style="stop-color:#FFD22D;stop-opacity:0"/>
	<stop  offset="0.81" style="stop-color:#FFFCEF;stop-opacity:0.7"/>
	<stop  offset="1" style="stop-color:#FFFFFF;stop-opacity:0.8"/>
</linearGradient>
<path class="st6" d="M145.9,77.7c-0.6,1.3-3.4-2.2-6.1-2.5s-6.2,2-6.5,0.8c0.5-3.8,3.8-6.5,7.2-6C144.1,70.6,146.5,74.1,145.9,77.7z
	"/>
<polygon class="st1" points="123.9,80 119.3,80.5 119.3,79.1 123.3,78.7 123.5,78.6 "/>
<polygon class="st1" points="128.3,79.4 125.2,79.8 124.9,78.4 128,78.1 "/>
<path class="st1" d="M134.4,78.7l-4.7,0.6l-0.4-1.4l7.5-0.9C136.8,77.1,137.6,77.9,134.4,78.7z"/>
<path class="st1" d="M33.4,85.3l-3.4,0.3c0.1-0.5,0.1-1,0.1-1.5l2.6-0.3L33,84L33.4,85.3z"/>
<polygon class="st1" points="37.8,83.3 38.3,84.7 34.8,85.1 34.8,85.1 34.3,83.9 "/>
<circle class="st1" cx="42" cy="94" r="1"/>
<circle class="st1" cx="36.7" cy="94.2" r="0.9"/>
</svg>
