<?xml version="1.0" encoding="UTF-8" standalone="no"?>
<!-- Generator: Adobe Illustrator 22.0.1, SVG Export Plug-In . SVG Version: 6.00 Build 0)  -->

<svg
   xmlns:dc="http://purl.org/dc/elements/1.1/"
   xmlns:cc="http://creativecommons.org/ns#"
   xmlns:rdf="http://www.w3.org/1999/02/22-rdf-syntax-ns#"
   xmlns:svg="http://www.w3.org/2000/svg"
   xmlns="http://www.w3.org/2000/svg"
   xmlns:sodipodi="http://sodipodi.sourceforge.net/DTD/sodipodi-0.dtd"
   xmlns:inkscape="http://www.inkscape.org/namespaces/inkscape"
   version="1.1"
   id="Layer_1"
   x="0px"
   y="0px"
   viewBox="0 0 160 160"
   style="enable-background:new 0 0 160 160;"
   xml:space="preserve"
   sodipodi:docname="side_14.svg"
   inkscape:version="0.92.2 (5c3e80d, 2017-08-06)"><metadata
     id="metadata19"><rdf:RDF><cc:Work
         rdf:about=""><dc:format>image/svg+xml</dc:format><dc:type
           rdf:resource="http://purl.org/dc/dcmitype/StillImage" /></cc:Work></rdf:RDF></metadata><defs
     id="defs17" /><sodipodi:namedview
     pagecolor="#ffffff"
     bordercolor="#666666"
     borderopacity="1"
     objecttolerance="10"
     gridtolerance="10"
     guidetolerance="10"
     inkscape:pageopacity="0"
     inkscape:pageshadow="2"
     inkscape:window-width="1920"
     inkscape:window-height="976"
     id="namedview15"
     showgrid="false"
     inkscape:zoom="5.9"
     inkscape:cx="45.640754"
     inkscape:cy="77.989899"
     inkscape:window-x="0"
     inkscape:window-y="27"
     inkscape:window-maximized="1"
     inkscape:current-layer="Layer_1" /><style
     type="text/css"
     id="style2">
	.st0{fill:#ED1C24;}
	.st1{opacity:0.18;enable-background:new    ;}
	.st2{fill:none;stroke:#FFFFFF;stroke-width:2;stroke-linecap:round;stroke-linejoin:round;}
	.st3{opacity:0.6;fill:none;stroke:#FFFFFF;stroke-width:2;stroke-linecap:round;stroke-linejoin:round;enable-background:new    ;}
</style><title
     id="title4">Artboard 42 copy 206</title><path
     class="st0"
     d="M30.1,71.2c0,0,6.9-5.7,11.4,2.3s-1.1,13.7-1.1,13.7s12.5,17.3,21.6,18.3c0,0,3.8-5.5,11.6-1.7  s4.3,10.7,4.3,10.7s-2.3,4.6-10.2,4.6s-27.3-14.8-34.1-28.4S29,73.5,30.1,71.2z"
     id="path6"
     style="fill:#000000;fill-opacity:1" /><path
     class="st1"
     d="M30.1,71.2c0,0,6.9-5.7,11.4,2.3s-1.1,13.7-1.1,13.7s12.5,17.3,21.6,18.3c0,0,3.8-5.5,11.6-1.7  s4.3,10.7,4.3,10.7C73,106,69,107,60.7,107.5C47,103.9,36.3,91.2,38,88.5C38,88.6,44,72,30.1,71.2z"
     id="path8"
     style="fill:#010101;fill-opacity:1" /><path
     class="st2"
     d="M26.7,55.6c-4.2,2.2-8.8,8.3-9.7,13"
     id="path10" /><path
     class="st3"
     d="M30,59.2c-3.4,1.8-7.2,6.8-7.9,10.7"
     id="path12" /></svg>