<svg xmlns="http://www.w3.org/2000/svg" viewBox="0 0 160 160">
  <path class="st0" d="M116.4 96.2c-2.7 7.8 12.8-.3 12.5-1.2-.9-.9-4.2-1.2-4.2-1.2a35 35 0 006.5-.6c3.6-.6 5.6-3.3 5.3-4.2s-5.3-1.2-5.3-1.2c2.4 0 4.8-.4 7.1-1.2 3-1.2 4.8-3.6 3.6-4.2a8 8 0 00-3-.6c3.3-.3 7.1-3 7.7-4.8s-2.4-.6-2.4-.6c-7.1 1.2-16.9-3.9-16.9-3.9s-.6-3-2.4-3.6-2.4-.6-4.2 2.4c-.4.6-1 1.2-1.6 1.7l-.5.4c.9 7.9.1 15.6-2.2 22.8zM43.8 97.3c-7.9 3.9-13-.4-12.7-1.4.9-1.1 4.2-1.4 4.2-1.4a36 36 0 01-6.6-.7c-3.6-.7-5.7-3.9-5.4-5s5.4-1.4 5.4-1.4c-2.5 0-4.9-.5-7.2-1.4-3-1.4-4.8-4.3-3.6-5 .9-.5 2-.7 3-.7-3.3-.4-7.2-3.6-7.8-5.7s2.4-.7 2.4-.7c7.2 1.4 17.2-4.6 17.2-4.6s.6-3.6 2.4-4.3 2.4-.7 4.2 2.8S52 77.1 52 77.1l5.5 1.4s6-1 3 2-4 2-6 4-2.3 8.7-10.7 12.8z" fill="#fff"/>
  <path d="M53 82s-12-4-16-7-18 1-18 1 6 4 11 4l-8 2s7 6 13 5l-7 3c3.5 2.5 7.9 3.2 12 2l-3 4s7 3 13-7 7-7 3-7zM119.2 79.2c1.5-.6 2.9-1.4 4.2-2.3 3.6-2.7 16 .9 16 .9s-5.3 3.6-9.8 3.6l7.1 1.8s-6.2 5.3-11.6 4.4l6.2 2.7c-3.1 2.2-7 2.8-10.7 1.8l2.7 3.6c-2.1.7-4.5.4-6.4-.8 2.1-5.9 2.1-8.9 2.3-15.7z" opacity=".05"/>
</svg>
