<svg xmlns="http://www.w3.org/2000/svg" viewBox="0 0 160 160">
  <path d="M63.3 76.1s.8 14.1-17.6 21.1-27.8-5.5-27.8-5.5-.5-15 18.4-21 27 5.4 27 5.4z" fill="#dd8313"/>
  <path d="M63.3 76.1s.8 14.1-17.6 21.1-27.8-5.5-27.8-5.5c20.9 2.1 34.4-3.8 45.4-15.6z" opacity=".5" fill="#754c24"/>
  <path d="M46.8 77.6h-.2l-.4.1c-.2.1-.3.4-.3.6l1.3 3.7-5 1.8-1.9-5.1c-.1-.3-.3-.4-.6-.3l-.4.1c-.2.1-.4.4-.3.7l2 5.1-5.8 2.1-1.1-3.1c-.1-.3-.3-.4-.6-.3l-.4.1c-.3.1-.4.4-.3.6l1.2 3.2-4.6 1.7c-.3.1-.4.3-.3.6l.1.4c.1.2.4.3.6.3l4.6-1.7 1.4 3.7c.1.3.3.4.6.3l.4-.1c.3-.1.4-.3.3-.6l-1.4-3.8 5.7-2.1 2 5.2c.1.3.3.4.6.3l.3-.2c.3-.1.4-.3.3-.6l-2-5.2 5.1-1.9 1.2 3.3c.1.3.3.4.6.3l.4-.1c.3-.1.4-.3.3-.6L49 82.8l5-1.9c.3-.1.4-.3.3-.6l-.1-.4c-.1-.3-.3-.4-.6-.3l-5 1.9-1.4-3.6c0-.2-.2-.3-.4-.3z"/>
</svg>
