<?xml version="1.0" encoding="UTF-8" standalone="no"?>
<!-- Generator: Adobe Illustrator 22.0.1, SVG Export Plug-In . SVG Version: 6.00 Build 0)  -->

<svg
   xmlns:dc="http://purl.org/dc/elements/1.1/"
   xmlns:cc="http://creativecommons.org/ns#"
   xmlns:rdf="http://www.w3.org/1999/02/22-rdf-syntax-ns#"
   xmlns:svg="http://www.w3.org/2000/svg"
   xmlns="http://www.w3.org/2000/svg"
   xmlns:sodipodi="http://sodipodi.sourceforge.net/DTD/sodipodi-0.dtd"
   xmlns:inkscape="http://www.inkscape.org/namespaces/inkscape"
   version="1.1"
   id="Layer_1"
   x="0px"
   y="0px"
   viewBox="0 0 160 160"
   style="enable-background:new 0 0 160 160;"
   xml:space="preserve"
   sodipodi:docname="side_05.svg"
   inkscape:version="0.92.2 (5c3e80d, 2017-08-06)"><metadata
     id="metadata109"><rdf:RDF><cc:Work
         rdf:about=""><dc:format>image/svg+xml</dc:format><dc:type
           rdf:resource="http://purl.org/dc/dcmitype/StillImage" /></cc:Work></rdf:RDF></metadata><defs
     id="defs107" /><sodipodi:namedview
     pagecolor="#ffffff"
     bordercolor="#666666"
     borderopacity="1"
     objecttolerance="10"
     gridtolerance="10"
     guidetolerance="10"
     inkscape:pageopacity="0"
     inkscape:pageshadow="2"
     inkscape:window-width="1920"
     inkscape:window-height="976"
     id="namedview105"
     showgrid="false"
     inkscape:zoom="8.34386"
     inkscape:cx="86.597487"
     inkscape:cy="78.498649"
     inkscape:window-x="0"
     inkscape:window-y="27"
     inkscape:window-maximized="1"
     inkscape:current-layer="Layer_1" /><style
     type="text/css"
     id="style2">
	.st0{fill:#FFFFFF;}
	.st1{opacity:0.3;}
	.st2{opacity:0.3;enable-background:new    ;}
	.st3{fill:#603813;}
	.st4{opacity:0.1;fill:#FFFFFF;enable-background:new    ;}
	.st5{opacity:0.16;fill:#FFFFFF;enable-background:new    ;}
	.st6{opacity:0.3;fill:#FFFFFF;enable-background:new    ;}
	.st7{fill:url(#SVGID_1_);}
	.st8{clip-path:url(#SVGID_3_);}
	.st9{fill:url(#SVGID_4_);}
	.st10{fill:url(#SVGID_5_);}
	.st11{clip-path:url(#SVGID_7_);}
	.st12{fill:url(#SVGID_8_);}
	.st13{fill:url(#SVGID_9_);}
	.st14{clip-path:url(#SVGID_11_);}
	.st15{fill:url(#SVGID_12_);}
</style><title
     id="title4">Artboard 42 copy 198</title><path
     class="st0"
     d="M124.6,80.7c0,0,20,0.3,18.6-12.5c0,0,9.6,11.1,1,20.9s-27.3,6.1-27.3,6.1L124.6,80.7z"
     id="path6" /><path
     class="st0"
     d="M143.2,68.2L143.2,68.2c0.3,13.7-20.2,12.1-20.2,12.1l-1.2,5.7l-4.9,9.2c0,0,18.7,3.6,27.3-6.1  S143.2,68.2,143.2,68.2z"
     id="path8" /><g
     class="st1"
     id="g14"><polygon
       class="st2"
       points="143.2,68.2 143.2,68.2 143.2,68.2  "
       id="polygon10" /><path
       class="st2"
       d="M143.2,68.2c8.4,22.4-21.7,19.4-21.7,19.4l0.3-1.7l-4.9,9.2c0,0,18.7,3.6,27.3-6.1S143.2,68.2,143.2,68.2z"
       id="path12" /></g><path
     class="st3"
     d="M118.5,75c0,0,7.1,1,7.3,11.2S114.8,98,114.8,98C118.3,90.9,119.6,82.9,118.5,75z"
     id="path16"
     style="fill:#000000;fill-opacity:1" /><path
     class="st3"
     d="M38.2,78.1l9.6-4c0,0,8.6,0.9,9.5,11.4s-5.5,12.9-5.5,12.9l-10.3,0.2c0,0-4.5-3.1-5.2-11.3S38.2,78.1,38.2,78.1  z"
     id="path18"
     style="fill:#000000;fill-opacity:1" /><path
     class="st4"
     d="M38.2,78.1l9.6-4c5,1.5,9,4.3,9.5,11.4c-0.8-1.6-2.3-2.3-4.5-2.2L48,84.4l-5.7,1.4l-5.9,1.4  C36.8,82.2,36.3,79.9,38.2,78.1z"
     id="path20" /><ellipse
     transform="matrix(0.9968 -7.974522e-02 7.974522e-02 0.9968 -6.8972 3.6279)"
     class="st5"
     cx="42"
     cy="88.2"
     rx="4.9"
     ry="9.1"
     id="ellipse22" /><path
     class="st0"
     d="M41.7,80.6c0,0-15.6,2.1-20-2.9s-0.2-13.9-0.2-13.9s-11.1,6.4-10,19s25,13.8,30.3,12.4c0,0,3.6-1.8,3.3-7.5  C45.1,81.9,41.7,80.6,41.7,80.6z"
     id="path24" /><path
     class="st6"
     d="M41.7,80.6c0,0-15.6,2.1-20-2.9s-0.2-13.9-0.2-13.9s-11.1,6.4-10,19s25,13.8,30.3,12.4c0,0,3.6-1.8,3.3-7.5  C45.1,81.9,41.7,80.6,41.7,80.6z"
     id="path26" /><path
     class="st2"
     d="M21.5,63.9"
     id="path28" /><path
     class="st2"
     d="M45,87.7c-15.9,3.8-39.8-2.6-23.5-23.8c0,0-11.1,6.4-10,19s25,13.8,30.3,12.4C41.8,95.3,45.4,93.5,45,87.7  L45,87.7z"
     id="path30" /><linearGradient
     id="SVGID_1_"
     gradientUnits="userSpaceOnUse"
     x1="466.36"
     y1="-1239.12"
     x2="466.36"
     y2="-1221.21"
     gradientTransform="matrix(1 0 0 -1 0 162)"><stop
       offset="0"
       style="stop-color:#A66707"
       id="stop32" /><stop
       offset="1"
       style="stop-color:#000000"
       id="stop34" /></linearGradient><linearGradient
     id="SVGID_5_"
     gradientUnits="userSpaceOnUse"
     x1="478.85"
     y1="-1425.5028"
     x2="478.85"
     y2="-1410.8242"
     gradientTransform="matrix(1 0 0 -1 0 162)"><stop
       offset="0"
       style="stop-color:#A66707"
       id="stop56" /><stop
       offset="1"
       style="stop-color:#000000"
       id="stop58" /></linearGradient><linearGradient
     id="SVGID_9_"
     gradientUnits="userSpaceOnUse"
     x1="-269.64"
     y1="-1247.12"
     x2="-269.64"
     y2="-1229.21"
     gradientTransform="matrix(1 0 0 -1 0 162)"><stop
       offset="0"
       style="stop-color:#A66707"
       id="stop80" /><stop
       offset="1"
       style="stop-color:#000000"
       id="stop82" /></linearGradient></svg>