<svg xmlns="http://www.w3.org/2000/svg" viewBox="0 0 160 160">
  <path d="M46.7 67.2s-8.4.6-9.9 7.7c0 0-8.5.1-12.1 6.4L16 84.9l.2 3 17.4 18.8 1.4 4.9s4.2 4.9 9.3 5.6l6.7-6.7s-.4-5-2.4-5.8-7.3-3.5-8.3-3.4-6-12.6-6-12.6 12 6.7 16.6-6.2c0-.1 8.8-14.8-4.2-15.3z" fill="#0f0"/>
  <path d="M117.1 67l.5.2c3.3.9 5.8 3.5 6.7 6.8 0 0 8.5-.1 12.2 6l8.9 3.4-.1 3-16.9 19.3-1.2 5s-1.1 3-6.2 3.7l-9.8-4.4s.2-5 2.3-5.9 7.2-3.7 8.2-3.6 5.6-12.8 5.6-12.8-4.4 2.6-9 1.7C120 78 118 74 117.1 67z" fill="#0f0"/>
  <g stroke="none" stroke-width="2" stroke-linecap="round" stroke-linejoin="round" stroke-miterlimit="4" stroke-dasharray="none">
    <path d="M37.7 96c.8 2 1.5 3.2 2.3 4.6-4.8 1-6.2 3-7 5.9l-4-4.3c1.3-4.4 4-5.8 8.7-6.2z"/>
    <path d="M133.1 101c-1.6 1.5-2.5 2.6-3.6 3.8-2.5-4.2-4.8-4.7-7.9-4.4l2.7-5.4c4.5-.3 6.7 1.7 8.8 6z"/>
  </g>
  <g fill="#010101">
    <path d="M46.3 67.4c6.3 3 5.1 14.5-2.1 13-.4 2.9-1.5 7.1-9.8 6-3.1.8-5.7 1.2-5.7 1.2l9.1 14.8c5.9 1.6 10.5 4.3 12.8 8.3 0 0-.4-5-2.4-5.8-2-.8-7.5-3.5-8.5-3.5-1-.4-5.9-12.6-5.9-12.6s12 6.8 16.7-6.1c-.1-.2 8.8-14.7-4.2-15.3z" transform="translate(.4 -.2)" opacity=".1"/>
    <path d="M117.4 69.4s4.8 2.8 5.8 6.8c0 0 7 1 9 6l3 1-11 19-8 5a11 11 0 00-3 3.8l-2-1s.1-5.8 3.2-6.2c2.6-1.3 6.5-3.4 7.6-3.4 2.2-4 3.7-8.4 5.3-12.7a13.7 13.7 0 01-9 1.7c1.2-7.1.8-13.1-.9-20z" opacity=".15"/>
  </g>
</svg>
