<svg id="Layer_1" data-name="Layer 1" xmlns="http://www.w3.org/2000/svg" xmlns:xlink="http://www.w3.org/1999/xlink" viewBox="0 0 160 160"><defs><style>.cls-1{fill:#fff;}.cls-2{opacity:0.1;}.cls-3{fill:url(#linear-gradient);}.cls-4,.cls-5{opacity:0.4;}.cls-4{fill:url(#linear-gradient-2);}.cls-5{fill:url(#linear-gradient-3);}</style><linearGradient id="linear-gradient" x1="29.34" y1="75.94" x2="41.07" y2="65.21" gradientUnits="userSpaceOnUse"><stop offset="0" stop-color="#ffd22d" stop-opacity="0"/><stop offset="0.81" stop-color="#fffcef" stop-opacity="0.7"/><stop offset="1" stop-color="#fff" stop-opacity="0.8"/></linearGradient><linearGradient id="linear-gradient-2" x1="792.97" y1="1435.98" x2="816.89" y2="1430.56" gradientTransform="matrix(0.93, 0.38, -0.38, 0.93, -149.05, -1545.73)" xlink:href="#linear-gradient"/><linearGradient id="linear-gradient-3" x1="7041.14" y1="-2544.73" x2="7056.74" y2="-2548.26" gradientTransform="matrix(-0.85, 0.7, 0.84, 0.71, 8251.39, -3078.66)" xlink:href="#linear-gradient"/></defs><title>Artboard 42 copy 210</title><path class="cls-1" d="M46.46,73.93a6.81,6.81,0,0,1-5.46-3C38,66.08,25,60,20,60s3,8.51,3,8.51,0,1.21,2,2.43,4,1.22,2,1.22-3,0-2,2.43S29,77,29,83.1,19,96.47,21,97.68s7-1.21,11-4.86,8-13.37,14-12.15C51,80,49.3,74.19,46.46,73.93Z"/><g class="cls-2"><path d="M34,84.1C31,91,19,96.47,21,97.68s7-1.21,11-4.86,8-13.37,14-12.15c3.34-.45,3.69-3.19,2.71-5a2,2,0,0,0-1.87-1.07C49,79,36,78,34,84.1Z"/></g><path class="cls-3" d="M28,66s5,0,10,5,2,6,2,6-7,2-8,7S35,70,28,66Z"/><path class="cls-1" d="M53.36,81.57s19.2,4.68,15.58,6.19-20.66,6.53-29.12,1.57S38.59,92,53.36,81.57Z"/><path class="cls-4" d="M53.62,81.5l11.89,3.36c-7.42,2.23-16,3-25.34,2.9C40.17,87.76,48.08,85.41,53.62,81.5Z"/><path class="cls-1" d="M119.39,80.38c-.48,4.17-1.11,8-2.32,10.45,0,0,16.66-3.87,20.81-8.46C145,74.54,140.46,84.37,119.39,80.38Z"/><path class="cls-5" d="M119.07,80.42l-.8,6s12.17-3.12,18.51-5.41C136.78,81,127,81.91,119.07,80.42Z"/><g class="cls-2"><path d="M65.6,85.13s4.7,2.06,3.34,2.63c-3.62,1.52-20.66,6.53-29.12,1.57-1.52-.89-3.09-1.63-3.09-1.63C44.11,91.83,69.8,86.19,65.6,85.13Z"/></g></svg>