<?xml version="1.0" encoding="utf-8"?>
<!-- Generator: Adobe Illustrator 22.0.1, SVG Export Plug-In . SVG Version: 6.00 Build 0)  -->
<svg version="1.1" id="Layer_1" xmlns="http://www.w3.org/2000/svg" xmlns:xlink="http://www.w3.org/1999/xlink" x="0px" y="0px"
	 viewBox="0 0 160 160" style="enable-background:new 0 0 160 160;" xml:space="preserve">
<style type="text/css">
	.st0{fill:#FD9727;}
	.st1{opacity:0.1;enable-background:new    ;}
	.st2{opacity:0.2;enable-background:new    ;}
	.st3{opacity:0.2;fill:#FFFFFF;enable-background:new    ;}
</style>
<title>Artboard 42 copy 251</title>
<path class="st0" d="M137.1,64.3c0,0,7.2,6.3,6.3,15.2c0,0-1.8,9.2-2.4,10.5s-3.1,8.7-9.1,9.9l-4.1,0.5c-0.8,1.3-1.8,2.4-3,3.3
	c-2.4,2-6.6,2.5-7.8,1.9s-0.6,1.3-1.9,0.7c-0.7-0.3-4.6-1.6-4.6-1.6c5-5.8,7.9-13.1,8.7-22.8c0,0,0.7-0.8,1.2-1.2
	c0,0,3.6-4.6,5.7-7.5c2.1-2.9,6.8-4.7,7.7-5.1c0,0-5.1,6.2-3.5,7.7s4.4,0.4,4.4,0.4S138.8,75.9,137.1,64.3z"/>
<path class="st1" d="M137.1,64.3c0,0,7.2,6.3,6.3,15.2c0,0-1.8,9.2-2.4,10.5s-3.1,8.7-9.1,9.9l-4.1,0.5c-1.8,0.6-3.9-0.1-6-1.2
	c3.5,1,20.7-14.8,12.9-22.8C134.7,76.4,138.8,75.9,137.1,64.3z"/>
<path class="st2" d="M127.8,100.4c-0.8,1.3-1.8,2.4-3,3.3c-2.4,2-6.6,2.5-7.8,1.9s-0.6,1.3-1.9,0.7c-0.7-0.3-4.6-1.6-4.6-1.6
	l1.7-2.4c0,0,1.9-0.3,2-1c2.1,3.3,7.1-1.8,5.6-3.5C119.8,97.8,123.7,100.9,127.8,100.4z"/>
<path class="st3" d="M129.7,77.3c0,0-3.5-0.8-5.4-0.1c0,0,3.5-6.5,7.4-8.1C131.7,69.1,127.7,74.8,129.7,77.3z"/>
<path class="st0" d="M19.9,64.3c0,0-7.2,6.3-6.3,15.2c0,0,1.8,9.2,2.4,10.5s3.1,8.7,9.1,9.9l4.1,0.5c0.8,1.3,1.8,2.4,3,3.3
	c2.5,2,6.5,2.5,7.8,1.9s0.6,1.3,1.9,0.7s7-1.6,8.1-4.4c0.6-1.7,0.6-3.7-0.1-5.4c0,0-4.1-0.5-5.7,1c0,0-0.8-3.5-4.3-2.7
	c0,0,3.2-8.4-3.2-14.1c0,0-3.6-4.6-5.7-7.5s-6.8-4.7-7.7-5.1c0,0,5.1,6.2,3.5,7.7s-4.5,0.4-4.5,0.4S18.2,75.9,19.9,64.3z"/>
<path class="st3" d="M19.9,64.3c0,0-7.2,6.3-6.3,15.2c0,0,1.8,9.2,2.4,10.5s3.1,8.7,9.1,9.9l4.1,0.5c1.8,0.6,3.9-0.1,6-1.2
	c-3.5,1-20.7-14.8-13-22.8C22.3,76.4,18.2,75.9,19.9,64.3z"/>
<path class="st2" d="M29.2,100.4c0.8,1.3,1.8,2.4,3,3.3c2.5,2,6.5,2.5,7.8,1.9s0.6,1.3,1.9,0.7s7-1.6,8.1-4.4
	c0.6-1.7,0.6-3.7-0.1-5.4c-1.4,6.4-6.9,6.7-7.2,4.8c-2.1,3.3-7.1-1.8-5.6-3.5C37.2,97.8,33.3,100.9,29.2,100.4z"/>
<path class="st1" d="M29,77.9c0,0,2.6-1.4,4-1.1c0,0-2.9-5.6-5.9-6.4C27.1,70.4,30.4,75.1,29,77.9z"/>
</svg>
