<svg id="Layer_1" data-name="Layer 1" xmlns="http://www.w3.org/2000/svg" viewBox="0 0 160 160"><defs><style>.cls-1,.cls-2,.cls-5{fill:#fff;}.cls-2,.cls-3{opacity:0.35;}.cls-4{opacity:0.5;}.cls-5{opacity:0.21;}</style></defs><title>Artboard 42 copy 209</title><path class="cls-1" d="M129,63h1.75c-2.24-2-15.61-.48-15.61-.48L116,64.4l2.34,4.88a37.9,37.9,0,0,1,7.79-2.41C126.14,67,128,86,126,88s-8.41,3.25-8.41,3.25L117,93l-1,2.61S133,97,133,85,135,63,129,63Z"/><path class="cls-1" d="M24.6,67.9s-4.65.28-6.5,1.27c-.48.25-.39,1.1.2,1.53a24.3,24.3,0,0,1,8.07,11c3.29,8.48,3.34,16.72,13.72,20.42s14.76,0,14.76,0S62,93,54,84.21c0,0-1-1.67-4.65-.58s-7.52,1.86-11.67-5.69S31.47,67,24.6,67.9Z"/><ellipse class="cls-2" cx="24.71" cy="69.62" rx="6.45" ry="1.73" transform="translate(-4.23 1.65) rotate(-3.52)"/><ellipse class="cls-3" cx="24.94" cy="69.61" rx="4.84" ry="0.87" transform="translate(-4.23 1.66) rotate(-3.52)"/><path class="cls-3" d="M29.76,69.31c.52.84-4.77,1.17-4.77,1.17.38-1.08.33-1.65-.11-1.73C24.88,68.75,29.25,68.48,29.76,69.31Z"/><path class="cls-4" d="M126.13,66.87S128,86,126,88s-8.41,3.25-8.41,3.25L117,93s8.84-1.21,10.92-4.1S129,71,129,71,129.25,65.73,126.13,66.87Z"/><path class="cls-5" d="M115.14,62.52S128.51,61,130.75,63a62.93,62.93,0,0,0-8.35.42L116,64Z"/></svg>