<?xml version="1.0" encoding="utf-8"?>
<!-- Generator: Adobe Illustrator 22.0.1, SVG Export Plug-In . SVG Version: 6.00 Build 0)  -->
<svg version="1.1" id="Layer_1" xmlns="http://www.w3.org/2000/svg" xmlns:xlink="http://www.w3.org/1999/xlink" x="0px" y="0px"
	 viewBox="0 0 160 160" style="enable-background:new 0 0 160 160;" xml:space="preserve">
<style type="text/css">
	.st0{fill:#42210B;}
	.st1{opacity:0.7;enable-background:new    ;}
	.st2{fill:#00A013;}
	.st3{opacity:0.2;enable-background:new    ;}
</style>
<title>Artboard 42 copy 207</title>
<path class="st0" d="M54.7,74.4c0,0-11.6-0.4-13.3-2.7s-5.8,6.4-5.8,6.4s-4.7,4.7-8.5,4.4c-2.3-0.2-11.3-5.8-11.3-5.8l9.8,10.7
	l9.3,0.6l2.5-2.4l-1.7,8.5l1.7,9.1l0.6-9l5.5-12.7l4.7,0.3l2.1,3.2l2.3,0.2C52.8,85.3,57.7,81.7,54.7,74.4z"/>
<path class="st1" d="M15.6,76.8l9.8,10.7l9.3,0.6l2.5-2.4l-1.7,8.5l1.7,9.1l0.6-9l5.5-12.7l4.7,0.3l2.1,3.2l2.3,0.2
	c1.7-1.5,2.8-3.6,2.9-5.8c0-0.5-13.1-1.5-13.1-1.5l-11,7.5C25.6,85.9,20.6,81.5,15.6,76.8z"/>
<path class="st2" d="M26.8,61.1c0,0-2.6,17.7,10.6,16.2C37.4,77.3,47.7,67.9,26.8,61.1z"/>
<path class="st3" d="M26.8,61.1c0,0-2.6,17.7,10.6,16.2L26.8,61.1z"/>
<path class="st2" d="M33,112.7c0,0,12.5-6.6,5.4-14.4C38.3,98.4,27.5,96.2,33,112.7z"/>
<path class="st3" d="M33,112.7c0,0,12.5-6.6,5.4-14.4L33,112.7z"/>
<path class="st2" d="M26.3,96c0,0,11.1,4.6,12.3-4.3C38.7,91.8,34.2,83.5,26.3,96z"/>
<path class="st3" d="M26.3,96c0,0,11.1,4.6,12.3-4.3L26.3,96z"/>
<path class="st2" d="M11.1,76.8c0,0,7.6,11,14.1,3.4C25.2,80.2,26,69.8,11.1,76.8z"/>
<path class="st3" d="M11.1,76.8c0,0,7.6,11,14.1,3.4L11.1,76.8z"/>
<path class="st0" d="M119.1,76.2c0,0,6.8,4.7,10.5,4.4c2.4-0.2,11.4-5.8,11.4-5.8l-9.8,10.7l-9.3,0.6l-2.5-2.4l1.7,8.5l-1.7,9.1
	l-0.6-9l-1-2.4C118.9,84.4,119.6,79.4,119.1,76.2z"/>
<path class="st1" d="M141.2,74.8l-9.8,10.7l-9.3,0.6l-2.5-2.4l1.7,8.5l-1.7,9.1l-0.6-9l-1.1-2.4l1.4-8.4l6.3,1.9
	C131.2,83.9,136.2,79.5,141.2,74.8z"/>
<path class="st2" d="M129.2,63.1c0,0,2,13.5-8.1,12.4C121.1,75.5,113.2,68.3,129.2,63.1z"/>
<path class="st3" d="M129.2,63.1c0,0,2,13.5-8.1,12.4L129.2,63.1z"/>
<path class="st2" d="M130.5,94c0,0-11.1,4.6-12.3-4.3C118.2,89.8,122.6,81.5,130.5,94z"/>
<path class="st3" d="M130.5,94c0,0-11.1,4.6-12.3-4.3L130.5,94z"/>
<path class="st2" d="M146.9,74.6c0,0-8.2,11.8-15.2,3.7C131.7,78.3,130.8,67.1,146.9,74.6z"/>
<path class="st3" d="M146.9,74.6c0,0-8.2,11.8-15.2,3.7L146.9,74.6z"/>
</svg>
