<?xml version="1.0" encoding="utf-8"?>
<!-- Generator: Adobe Illustrator 22.0.1, SVG Export Plug-In . SVG Version: 6.00 Build 0)  -->
<svg version="1.1" id="Layer_1" xmlns="http://www.w3.org/2000/svg" xmlns:xlink="http://www.w3.org/1999/xlink" x="0px" y="0px"
	 viewBox="0 0 160 160" style="enable-background:new 0 0 160 160;" xml:space="preserve">
<style type="text/css">
	.st0{fill:#D8D8D8;}
	.st1{opacity:0.16;}
	.st2{fill:#FFFFFF;}
	.st3{fill:none;stroke:#000000;stroke-width:0.5;stroke-linecap:round;stroke-linejoin:round;}
	.st4{fill:none;stroke:#000000;stroke-width:0.5;stroke-miterlimit:10;}
	.st5{opacity:0.1;}
	.st6{fill:#724C00;}
	.st7{opacity:5.000000e-02;}
</style>
<title>Artboard 42 copy 253</title>
<path class="st0" d="M42.8,68.7c1.6,2.3,2,5.1,1.2,7.7l-0.4,2l4.3,0.1c3,0.9,3.2,8,0.6,10.2c-1.1,0.6-2.1,1.4-3,2.2
	c-0.9,1.2-5.2,5.2-8.4,6.3c-0.6,0.2-1.8,0.8-3.3,1.4c-6,2.4-17.4,5.9-19.3-6.5l0.3-6.6c0.2-3.3-1.5-5.7,0.8-12s8.8-7.3,13.6-6
	c0,0,0.8,0.5,2.4-1.7S39.9,62.5,42.8,68.7z"/>
<g class="st1">
	<path d="M48.6,88.9c0,0-8.3,7.2-11.4,8.4c-2.7,1-16.2,8.1-21-0.5c-0.6-1.5-1.2-3.1-1.5-4.7c0.9,2.2,5.7,4.2,10.6,4.3
		c6.6,0.3,11.2-4.3,15.3-3.6C43.1,91.2,45.8,89.9,48.6,88.9z"/>
</g>
<path class="st2" d="M52.5,35.5c-1.7-9.2-9.7-17.8-17.9-19.4C33,15.8,19,41,12.3,53.5c1.3,4.3,4,8.2,9.2,15c9,14,11,15,12,28
	c0.8,10.4,1,11.8,1,12c0,0-1,0-1,2s2,3,4,3s4-1,4-3c0-1.1-0.9-2-2-2l-1-12c0,0-0.6-20.2,8-31C55,54.9,54.5,46.5,52.5,35.5z
	 M34.5,83.5l-5-11c0,0,3,4,9,0L34.5,83.5z M34.4,68.5c-8.9,0.7-17.1-8.5-18.9-20.9c-0.1-0.7,15.8-28.1,16.2-28.1
	c8.9,0.3,16.6,10.3,17.7,23.1C50.6,56.1,43.8,67.7,34.4,68.5L34.4,68.5z"/>
<line class="st3" x1="41" y1="22" x2="25" y2="31"/>
<line class="st3" x1="49" y1="57" x2="27" y2="70"/>
<line class="st3" x1="46" y1="27" x2="19" y2="42"/>
<line class="st3" x1="48" y1="34" x2="16" y2="52"/>
<line class="st3" x1="41" y1="71" x2="28.5" y2="27"/>
<line class="st3" x1="45" y1="65" x2="32" y2="20"/>
<line class="st3" x1="35" y1="72" x2="24" y2="34"/>
<line class="st4" x1="49" y1="58" x2="37" y2="17"/>
<line class="st3" x1="28" y1="68" x2="20" y2="40"/>
<line class="st3" x1="50" y1="41" x2="18" y2="59"/>
<line class="st3" x1="53" y1="47" x2="21" y2="65"/>
<g class="st5">
	<path d="M37,103.5l0.5,7c0,0,0.7,2.2-1.1,2.6s6.1,0.4,5.1-2.6c0-1.1-0.9-2-2-2l-0.4-4.8L37,103.5z"/>
</g>
<path class="st6" d="M52.5,35.5c-1.7-9.2-9.7-17.8-17.9-19.4C33,15.8,20,41,12.3,53.5c1.3,4.3,4,8.2,9.2,15c9,14,11,15,12,28
	c0.8,10.4,1,11.8,1,12c0,0-1,0-1,2s2,3,4,3s4-1,4-3c0-1.1-0.9-2-2-2l-1-12c0,0-0.6-20.2,8-31C55,54.9,54.5,46.5,52.5,35.5z
	 M34.5,83.5l-5-11c0,0,3,4,9,0L34.5,83.5z M34.4,68.5c-8.9,0.7-17.1-8.5-18.9-20.9C22,36,30,23,31.7,19.5
	c8.9,0.3,16.6,10.3,17.7,23.1C50.6,56.1,43.8,67.7,34.4,68.5L34.4,68.5z"/>
<g class="st5">
	<path d="M33.8,17.4c3.1,0.2,6,1.5,8.2,3.6c6,6,8,10,9,21s-3.5,20.5-7.5,24.5s-14,6-14,6c1.5,0.9,3.3,1.2,5,1
		c1.4-0.3,2.8-0.8,4.1-1.4l2.9,2.4c1.6-3.5,3.5-6.9,5.8-10c3.2-4,7.6-12.9,6.4-19.4c-1.1-5.7-2.7-26.7-19.7-28
		C34,17,34,17,33.8,17.4z"/>
</g>
<path class="st2" d="M35.1,98.1c-5.6,2.4-18.4,7.2-20.4-6.1l0.4-6.7c0.2-3.3-1.5-5.7,0.8-12s2.4-6.4,13.6-6
	c10.3,0.3,5.3,16.3,7.2,27.1C36.7,95.5,36,97.7,35.1,98.1z"/>
<g class="st7">
	<path d="M37.2,97.2c3.2-0.7-20.2,10.3-22.5-5.2l0.3-6.6c0.2-3.3-1.5-5.7,0.8-12s8.8-7.3,13.6-6C14.6,68.3,21,99.3,37.2,97.2z"/>
</g>
</svg>
