<?xml version="1.0" encoding="UTF-8" standalone="no"?>
<!-- Generator: Adobe Illustrator 22.0.1, SVG Export Plug-In . SVG Version: 6.00 Build 0)  -->

<svg
   xmlns:dc="http://purl.org/dc/elements/1.1/"
   xmlns:cc="http://creativecommons.org/ns#"
   xmlns:rdf="http://www.w3.org/1999/02/22-rdf-syntax-ns#"
   xmlns:svg="http://www.w3.org/2000/svg"
   xmlns="http://www.w3.org/2000/svg"
   xmlns:sodipodi="http://sodipodi.sourceforge.net/DTD/sodipodi-0.dtd"
   xmlns:inkscape="http://www.inkscape.org/namespaces/inkscape"
   version="1.1"
   id="Layer_1"
   x="0px"
   y="0px"
   viewBox="0 0 160 160"
   style="enable-background:new 0 0 160 160;"
   xml:space="preserve"
   sodipodi:docname="side_02.svg"
   inkscape:version="0.92.2 (5c3e80d, 2017-08-06)"><metadata
     id="metadata45"><rdf:RDF><cc:Work
         rdf:about=""><dc:format>image/svg+xml</dc:format><dc:type
           rdf:resource="http://purl.org/dc/dcmitype/StillImage" /></cc:Work></rdf:RDF></metadata><defs
     id="defs43" /><sodipodi:namedview
     pagecolor="#ffffff"
     bordercolor="#666666"
     borderopacity="1"
     objecttolerance="10"
     gridtolerance="10"
     guidetolerance="10"
     inkscape:pageopacity="0"
     inkscape:pageshadow="2"
     inkscape:window-width="1920"
     inkscape:window-height="976"
     id="namedview41"
     showgrid="false"
     inkscape:zoom="2.95"
     inkscape:cx="10.263677"
     inkscape:cy="96.574875"
     inkscape:window-x="0"
     inkscape:window-y="27"
     inkscape:window-maximized="1"
     inkscape:current-layer="Layer_1" /><style
     type="text/css"
     id="style2">
	.st0{fill:#5E5E5E;}
	.st1{fill:#E2E2E2;}
	.st2{fill:#603813;}
	.st3{opacity:0.2;enable-background:new    ;}
	.st4{fill:#FFFFFF;}
</style><title
     id="title4">Artboard 42 copy 195</title><path
     class="st0"
     d="M125.8,71.4c0,0,19.2,1.4,19.6,2.8c0.1,0.4-18.2,9.7-17,9.1c0,0,2.4-5.8,2.1-7.1S125.8,71.4,125.8,71.4z"
     id="path6" /><path
     class="st1"
     d="M125.2,71.3c0,0,19.2,1.4,19.6,2.8c-5,1-14.6,2.4-14.6,2.4L125.2,71.3z"
     id="path8" /><path
     class="st2"
     d="M130.6,79.2l-11.6,1v-4.7l10.8-0.8c0,0,5,0.4,5.2,1.2S132.3,78.9,130.6,79.2z"
     id="path10" /><path
     class="st2"
     d="M54.6,83.7l-36.5,2c0,0-2.8,0.1-3-1.6l0,0c-0.1-1.5,0.8-2.4,2.6-2.9L54,77.5c1.7-0.1,3.2,1.1,3.4,2.8  c0,0,0,0,0,0l0,0C57.6,82.1,56.3,83.6,54.6,83.7z"
     id="path12" /><path
     class="st3"
     d="M54.6,83.7l-36.5,2c-1.8,0-2.8-0.5-3-1.6c17-1.2,44.2-2.4,42.3-3.8C57.4,80.4,57.9,83,54.6,83.7z"
     id="path14" /><polygon
     class="st4"
     points="38.8,80.4 33.4,74.6 16.3,74.7 22.4,81.3 "
     id="polygon16"
     style="fill:#000000;fill-opacity:1" /><polygon
     class="st4"
     points="39.4,83.2 32.8,91.1 15.7,92.3 22.3,84.4 "
     id="polygon18"
     style="fill:#000000;fill-opacity:1" /><path
     class="st3"
     d="M23.8,76.7L23.8,76.7c0.2-0.2,0.5-0.2,0.7,0l2.7,2.9c0.2,0.2,0.2,0.5,0,0.7l0,0c-0.2,0.2-0.5,0.2-0.7,0  l-2.7-2.9C23.6,77.2,23.6,76.9,23.8,76.7z"
     id="path20"
     style="fill:#010101;fill-opacity:1" /><path
     class="st3"
     d="M20.8,76.7L20.8,76.7c0.2-0.2,0.5-0.2,0.7,0l2.7,2.9c0.2,0.2,0.2,0.5,0,0.7l0,0c-0.2,0.2-0.5,0.2-0.7,0  l-2.7-2.9C20.6,77.2,20.6,76.9,20.8,76.7z"
     id="path22"
     style="fill:#010101;fill-opacity:1" /><path
     class="st3"
     d="M26.8,76.7L26.8,76.7c0.2-0.2,0.5-0.2,0.7,0l2.7,2.9c0.2,0.2,0.2,0.5,0,0.7l0,0c-0.2,0.2-0.5,0.2-0.7,0  l-2.7-2.9C26.6,77.2,26.6,76.9,26.8,76.7z"
     id="path24"
     style="fill:#010101;fill-opacity:1" /><path
     class="st3"
     d="M29.8,76.7L29.8,76.7c0.2-0.2,0.5-0.2,0.7,0l2.7,2.9c0.2,0.2,0.2,0.5,0,0.7l0,0c-0.2,0.2-0.5,0.2-0.7,0  l-2.7-2.9C29.6,77.2,29.6,76.9,29.8,76.7z"
     id="path26"
     style="fill:#010101;fill-opacity:1" /><path
     class="st3"
     d="M32.8,76.7L32.8,76.7c0.2-0.2,0.5-0.2,0.7,0l2.7,2.9c0.2,0.2,0.2,0.5,0,0.7l0,0c-0.2,0.2-0.5,0.2-0.7,0  l-2.7-2.9C32.6,77.2,32.6,76.9,32.8,76.7z"
     id="path28"
     style="fill:#010101;fill-opacity:1" /><path
     class="st3"
     d="M26.2,85.7L26.2,85.7c0.2,0.2,0.2,0.5,0,0.7l-2.7,2.9c-0.2,0.2-0.5,0.2-0.7,0l0,0c-0.2-0.2-0.2-0.5,0-0.7  l2.7-2.9C25.7,85.5,26,85.5,26.2,85.7z"
     id="path30"
     style="fill:#010101;fill-opacity:1" /><path
     class="st3"
     d="M23.2,85.7L23.2,85.7c0.2,0.2,0.2,0.5,0,0.7l-2.7,2.9c-0.2,0.2-0.5,0.2-0.7,0l0,0c-0.2-0.2-0.2-0.5,0-0.7  l2.7-2.9C22.7,85.5,23,85.5,23.2,85.7z"
     id="path32"
     style="fill:#010101;fill-opacity:1" /><path
     class="st3"
     d="M29.2,85.7L29.2,85.7c0.2,0.2,0.2,0.5,0,0.7l-2.7,2.9c-0.2,0.2-0.5,0.2-0.7,0l0,0c-0.2-0.2-0.2-0.5,0-0.7  l2.7-2.9C28.7,85.5,29,85.5,29.2,85.7z"
     id="path34"
     style="fill:#010101;fill-opacity:1" /><path
     class="st3"
     d="M32.2,85.7L32.2,85.7c0.2,0.2,0.2,0.5,0,0.7l-2.7,2.9c-0.2,0.2-0.5,0.2-0.7,0l0,0c-0.2-0.2-0.2-0.5,0-0.7  l2.7-2.9C31.7,85.5,32,85.5,32.2,85.7z"
     id="path36"
     style="fill:#010101;fill-opacity:1" /><path
     class="st3"
     d="M35.2,85.7L35.2,85.7c0.2,0.2,0.2,0.5,0,0.7l-2.7,2.9c-0.2,0.2-0.5,0.2-0.7,0l0,0c-0.2-0.2-0.2-0.5,0-0.7  l2.7-2.9C34.7,85.5,35,85.5,35.2,85.7z"
     id="path38"
     style="fill:#010101;fill-opacity:1" /></svg>