<?xml version="1.0" encoding="UTF-8" standalone="no"?>
<!-- Generator: Adobe Illustrator 22.0.1, SVG Export Plug-In . SVG Version: 6.00 Build 0)  -->

<svg
   xmlns:dc="http://purl.org/dc/elements/1.1/"
   xmlns:cc="http://creativecommons.org/ns#"
   xmlns:rdf="http://www.w3.org/1999/02/22-rdf-syntax-ns#"
   xmlns:svg="http://www.w3.org/2000/svg"
   xmlns="http://www.w3.org/2000/svg"
   xmlns:sodipodi="http://sodipodi.sourceforge.net/DTD/sodipodi-0.dtd"
   xmlns:inkscape="http://www.inkscape.org/namespaces/inkscape"
   version="1.1"
   id="Layer_1"
   x="0px"
   y="0px"
   viewBox="0 0 160 160"
   style="enable-background:new 0 0 160 160;"
   xml:space="preserve"
   sodipodi:docname="side_12.svg"
   inkscape:version="0.92.2 (5c3e80d, 2017-08-06)"><metadata
     id="metadata42"><rdf:RDF><cc:Work
         rdf:about=""><dc:format>image/svg+xml</dc:format><dc:type
           rdf:resource="http://purl.org/dc/dcmitype/StillImage" /></cc:Work></rdf:RDF></metadata><defs
     id="defs40" /><sodipodi:namedview
     pagecolor="#ffffff"
     bordercolor="#666666"
     borderopacity="1"
     objecttolerance="10"
     gridtolerance="10"
     guidetolerance="10"
     inkscape:pageopacity="0"
     inkscape:pageshadow="2"
     inkscape:window-width="1920"
     inkscape:window-height="976"
     id="namedview38"
     showgrid="false"
     inkscape:zoom="11.8"
     inkscape:cx="47.954013"
     inkscape:cy="73.706141"
     inkscape:window-x="0"
     inkscape:window-y="27"
     inkscape:window-maximized="1"
     inkscape:current-layer="Layer_1" /><style
     type="text/css"
     id="style2">
	.st0{fill:#FFFFFF;}
	.st1{opacity:5.000000e-02;}
	.st2{opacity:0.2;}
	.st3{fill:url(#SVGID_1_);}
	.st4{opacity:0.5;}
	.st5{opacity:0.1;}
</style><title
     id="title4">Artboard 42 copy 204</title><path
     class="st0"
     d="M42,66.5c-2.1-4-6.6-6.2-11-5.5c-8,1-10,4-12,9s7,17,7,17l6,6c1,1,0,7,4,9s13,0,13-4s-4-5-5-18l1-9L42,66.5z"
     id="path6" /><g
     class="st1"
     id="g10"><path
       d="M42,66.5c-2.1-4-6.6-6.2-11-5.5c13,4,14,32,13,19l1-9L42,66.5z"
       id="path8" /></g><g
     class="st2"
     id="g14"><path
       class="st0"
       d="M31,61c-8,1-10,4-12,9s7,17,7,17l6,6c1,1,0,7,4,9c0-14-14-21-14-29S26.9,64.1,31,61z"
       id="path12" /></g><linearGradient
     id="SVGID_1_"
     gradientUnits="userSpaceOnUse"
     x1="28.6072"
     y1="81.4678"
     x2="45.3333"
     y2="81.4678"
     gradientTransform="matrix(1 0 0 -1 0 162)"><stop
       offset="0"
       style="stop-color:#A66707"
       id="stop16" /><stop
       offset="1"
       style="stop-color:#000000"
       id="stop18" /></linearGradient><path
     class="st3"
     d="M44,74c-1-2-6-7-12-4s-3,10,1,14c2.3,2.3,4.8,4.5,7.4,6.5L44,92c0,0,3-1,0-5c-2.1-2.9-0.9-5.8,0.1-7.6  c0.3-0.5,0.6-1,0.8-1.5C45,77,45,76,44,74z"
     id="path21"
     style="fill:#663f04;fill-opacity:1" /><g
     class="st2"
     id="g25"><path
       d="M44,74c2,1-6-7-12-4s-3,10,1,14c2.3,2.3,4.8,4.5,7.4,6.5L44,92C31,84.8,24.8,64.8,44,74z"
       id="path23" /></g><g
     class="st4"
     id="g29"><path
       d="M39,75c-2,0-4,3-2,6s6,3,6,3s-1-0.9,0.5-3.5S41,75,39,75z"
       id="path27" /></g><path
     class="st0"
     d="M114,61.1c0,0,14.3-7.4,19.7-1s-7.2,11.9-7.2,18.3s3.6,15-3.6,18.3s-6.8-0.7-6.8-0.7C115,96,122.7,77,114,61.1z  "
     id="path31" /><g
     class="st5"
     id="g35"><path
       d="M119,59.1c0,0,9-2.1,10,3.9s-4,6-5,11s1,13,0,18c-0.4,2.8-2.3,5.1-5,6c0,0,9.9,0.4,8.4-9.3s-3.2-11.4,1.7-16.5   C134,67,136,64,134,60S121.9,58.2,119,59.1z"
       id="path33" /></g></svg>