<?xml version="1.0" encoding="UTF-8" standalone="no"?>
<!-- Generator: Adobe Illustrator 22.0.1, SVG Export Plug-In . SVG Version: 6.00 Build 0)  -->

<svg
   xmlns:dc="http://purl.org/dc/elements/1.1/"
   xmlns:cc="http://creativecommons.org/ns#"
   xmlns:rdf="http://www.w3.org/1999/02/22-rdf-syntax-ns#"
   xmlns:svg="http://www.w3.org/2000/svg"
   xmlns="http://www.w3.org/2000/svg"
   xmlns:sodipodi="http://sodipodi.sourceforge.net/DTD/sodipodi-0.dtd"
   xmlns:inkscape="http://www.inkscape.org/namespaces/inkscape"
   version="1.1"
   id="Layer_1"
   x="0px"
   y="0px"
   viewBox="0 0 160 160"
   style="enable-background:new 0 0 160 160;"
   xml:space="preserve"
   sodipodi:docname="side_07.svg"
   inkscape:version="0.92.2 (5c3e80d, 2017-08-06)"><metadata
     id="metadata27"><rdf:RDF><cc:Work
         rdf:about=""><dc:format>image/svg+xml</dc:format><dc:type
           rdf:resource="http://purl.org/dc/dcmitype/StillImage" /></cc:Work></rdf:RDF></metadata><defs
     id="defs25" /><sodipodi:namedview
     pagecolor="#ffffff"
     bordercolor="#666666"
     borderopacity="1"
     objecttolerance="10"
     gridtolerance="10"
     guidetolerance="10"
     inkscape:pageopacity="0"
     inkscape:pageshadow="2"
     inkscape:window-width="1920"
     inkscape:window-height="976"
     id="namedview23"
     showgrid="false"
     inkscape:zoom="5.9"
     inkscape:cx="80.876928"
     inkscape:cy="77.028456"
     inkscape:window-x="0"
     inkscape:window-y="27"
     inkscape:window-maximized="1"
     inkscape:current-layer="Layer_1" /><style
     type="text/css"
     id="style2">
	.st0{fill:#FD9727;}
	.st1{opacity:0.1;enable-background:new    ;}
	.st2{opacity:0.2;enable-background:new    ;}
	.st3{opacity:0.2;fill:#FFFFFF;enable-background:new    ;}
</style><title
     id="title4">Artboard 42 copy 251</title><path
     class="st0"
     d="M137.1,64.3c0,0,7.2,6.3,6.3,15.2c0,0-1.8,9.2-2.4,10.5s-3.1,8.7-9.1,9.9l-4.1,0.5c-0.8,1.3-1.8,2.4-3,3.3  c-2.4,2-6.6,2.5-7.8,1.9s-0.6,1.3-1.9,0.7c-0.7-0.3-4.6-1.6-4.6-1.6c5-5.8,7.9-13.1,8.7-22.8c0,0,0.7-0.8,1.2-1.2  c0,0,3.6-4.6,5.7-7.5c2.1-2.9,6.8-4.7,7.7-5.1c0,0-5.1,6.2-3.5,7.7s4.4,0.4,4.4,0.4S138.8,75.9,137.1,64.3z"
     id="path6"
     style="fill:#000000;fill-opacity:1" /><path
     class="st1"
     d="M137.1,64.3c0,0,7.2,6.3,6.3,15.2c0,0-1.8,9.2-2.4,10.5s-3.1,8.7-9.1,9.9l-4.1,0.5c-1.8,0.6-3.9-0.1-6-1.2  c3.5,1,20.7-14.8,12.9-22.8C134.7,76.4,138.8,75.9,137.1,64.3z"
     id="path8"
     style="fill:#010101;fill-opacity:1" /><path
     class="st2"
     d="M127.8,100.4c-0.8,1.3-1.8,2.4-3,3.3c-2.4,2-6.6,2.5-7.8,1.9s-0.6,1.3-1.9,0.7c-0.7-0.3-4.6-1.6-4.6-1.6  l1.7-2.4c0,0,1.9-0.3,2-1c2.1,3.3,7.1-1.8,5.6-3.5C119.8,97.8,123.7,100.9,127.8,100.4z"
     id="path10"
     style="fill:#010101;fill-opacity:1" /><path
     class="st3"
     d="M129.7,77.3c0,0-3.5-0.8-5.4-0.1c0,0,3.5-6.5,7.4-8.1C131.7,69.1,127.7,74.8,129.7,77.3z"
     id="path12" /><path
     class="st0"
     d="M19.9,64.3c0,0-7.2,6.3-6.3,15.2c0,0,1.8,9.2,2.4,10.5s3.1,8.7,9.1,9.9l4.1,0.5c0.8,1.3,1.8,2.4,3,3.3  c2.5,2,6.5,2.5,7.8,1.9s0.6,1.3,1.9,0.7s7-1.6,8.1-4.4c0.6-1.7,0.6-3.7-0.1-5.4c0,0-4.1-0.5-5.7,1c0,0-0.8-3.5-4.3-2.7  c0,0,3.2-8.4-3.2-14.1c0,0-3.6-4.6-5.7-7.5s-6.8-4.7-7.7-5.1c0,0,5.1,6.2,3.5,7.7s-4.5,0.4-4.5,0.4S18.2,75.9,19.9,64.3z"
     id="path14"
     style="fill:#000000;fill-opacity:1" /><path
     class="st3"
     d="M19.9,64.3c0,0-7.2,6.3-6.3,15.2c0,0,1.8,9.2,2.4,10.5s3.1,8.7,9.1,9.9l4.1,0.5c1.8,0.6,3.9-0.1,6-1.2  c-3.5,1-20.7-14.8-13-22.8C22.3,76.4,18.2,75.9,19.9,64.3z"
     id="path16" /><path
     class="st2"
     d="M29.2,100.4c0.8,1.3,1.8,2.4,3,3.3c2.5,2,6.5,2.5,7.8,1.9s0.6,1.3,1.9,0.7s7-1.6,8.1-4.4  c0.6-1.7,0.6-3.7-0.1-5.4c-1.4,6.4-6.9,6.7-7.2,4.8c-2.1,3.3-7.1-1.8-5.6-3.5C37.2,97.8,33.3,100.9,29.2,100.4z"
     id="path18"
     style="fill:#010101;fill-opacity:1" /><path
     class="st1"
     d="M29,77.9c0,0,2.6-1.4,4-1.1c0,0-2.9-5.6-5.9-6.4C27.1,70.4,30.4,75.1,29,77.9z"
     id="path20"
     style="fill:#010101;fill-opacity:1" /></svg>