<?xml version="1.0" encoding="utf-8"?>
<!-- Generator: Adobe Illustrator 22.0.1, SVG Export Plug-In . SVG Version: 6.00 Build 0)  -->
<svg version="1.1" id="Layer_1" xmlns="http://www.w3.org/2000/svg" xmlns:xlink="http://www.w3.org/1999/xlink" x="0px" y="0px"
	 viewBox="0 0 160 160" style="enable-background:new 0 0 160 160;" xml:space="preserve">
<style type="text/css">
	.st0{fill:#D68227;}
	.st1{opacity:0.1;}
	.st2{fill:#472300;}
	.st3{fill:#7F3A01;}
	.st4{fill:#231100;}
</style>
<title>Artboard 42 copy 250</title>
<ellipse class="st0" cx="47.5" cy="81" rx="9.5" ry="15"/>
<g class="st1">
	<path d="M57,81c0,8.3-4.2,15-9.5,15S38,89.3,38,81S42,81,57,81z"/>
</g>
<ellipse class="st2" cx="44.5" cy="81" rx="9.5" ry="15"/>
<path class="st0" d="M49,80.5c0,4.7-2.4,8.5-5.4,8.5c-0.9,0-4.5,0.1-4.5,0.1c-0.5-2.8-0.8-5.7-0.9-8.6c0-2.6,1.9-8.5,1.9-8.5h3.5
	C46.6,72,49,75.8,49,80.5z"/>
<g class="st1">
	<path d="M49,80.5c0,4.7-2.4,8.5-5.4,8.5s-5.4-3.8-5.4-8.5S40.5,80.5,49,80.5z"/>
</g>
<ellipse class="st3" cx="39.9" cy="80.5" rx="5.4" ry="8.5"/>
<path class="st0" d="M44,89l15,17l17,5l1-2l-16-5L46,87C46,87,43,86,44,89z"/>
<g class="st1">
	<path d="M44,89l15,17l17,5l1-2l-17-4L44.2,87C43.8,87.3,43.6,87.9,44,89z"/>
</g>
<path class="st4" d="M74.4,106.4l12.5,3.4c1.3,0.4,2.1,1.7,1.8,3.1l0,0c-0.4,1.3-1.7,2.1-3.1,1.8l-12.5-3.4
	c-1.3-0.4-2.1-1.7-1.8-3.1l0,0C71.7,106.8,73.1,106,74.4,106.4z"/>
</svg>
