<?xml version="1.0" encoding="utf-8"?>
<!-- Generator: Adobe Illustrator 22.0.1, SVG Export Plug-In . SVG Version: 6.00 Build 0)  -->
<svg version="1.1" id="Layer_1" xmlns="http://www.w3.org/2000/svg" xmlns:xlink="http://www.w3.org/1999/xlink" x="0px" y="0px"
	 viewBox="0 0 160 160" style="enable-background:new 0 0 160 160;" xml:space="preserve">
<style type="text/css">
	.st0{fill:#5E5E5E;}
	.st1{fill:#E2E2E2;}
	.st2{fill:#603813;}
	.st3{opacity:0.2;enable-background:new    ;}
	.st4{fill:#FFFFFF;}
</style>
<title>Artboard 42 copy 195</title>
<path class="st0" d="M125.8,71.4c0,0,19.2,1.4,19.6,2.8c0.1,0.4-18.2,9.7-17,9.1c0,0,2.4-5.8,2.1-7.1S125.8,71.4,125.8,71.4z"/>
<path class="st1" d="M125.2,71.3c0,0,19.2,1.4,19.6,2.8c-5,1-14.6,2.4-14.6,2.4L125.2,71.3z"/>
<path class="st2" d="M130.6,79.2l-11.6,1v-4.7l10.8-0.8c0,0,5,0.4,5.2,1.2S132.3,78.9,130.6,79.2z"/>
<path class="st2" d="M54.6,83.7l-36.5,2c0,0-2.8,0.1-3-1.6l0,0c-0.1-1.5,0.8-2.4,2.6-2.9L54,77.5c1.7-0.1,3.2,1.1,3.4,2.8
	c0,0,0,0,0,0l0,0C57.6,82.1,56.3,83.6,54.6,83.7z"/>
<path class="st3" d="M54.6,83.7l-36.5,2c-1.8,0-2.8-0.5-3-1.6c17-1.2,44.2-2.4,42.3-3.8C57.4,80.4,57.9,83,54.6,83.7z"/>
<polygon class="st4" points="38.8,80.4 33.4,74.6 16.3,74.7 22.4,81.3 "/>
<polygon class="st4" points="39.4,83.2 32.8,91.1 15.7,92.3 22.3,84.4 "/>
<path class="st3" d="M23.8,76.7L23.8,76.7c0.2-0.2,0.5-0.2,0.7,0l2.7,2.9c0.2,0.2,0.2,0.5,0,0.7l0,0c-0.2,0.2-0.5,0.2-0.7,0
	l-2.7-2.9C23.6,77.2,23.6,76.9,23.8,76.7z"/>
<path class="st3" d="M20.8,76.7L20.8,76.7c0.2-0.2,0.5-0.2,0.7,0l2.7,2.9c0.2,0.2,0.2,0.5,0,0.7l0,0c-0.2,0.2-0.5,0.2-0.7,0
	l-2.7-2.9C20.6,77.2,20.6,76.9,20.8,76.7z"/>
<path class="st3" d="M26.8,76.7L26.8,76.7c0.2-0.2,0.5-0.2,0.7,0l2.7,2.9c0.2,0.2,0.2,0.5,0,0.7l0,0c-0.2,0.2-0.5,0.2-0.7,0
	l-2.7-2.9C26.6,77.2,26.6,76.9,26.8,76.7z"/>
<path class="st3" d="M29.8,76.7L29.8,76.7c0.2-0.2,0.5-0.2,0.7,0l2.7,2.9c0.2,0.2,0.2,0.5,0,0.7l0,0c-0.2,0.2-0.5,0.2-0.7,0
	l-2.7-2.9C29.6,77.2,29.6,76.9,29.8,76.7z"/>
<path class="st3" d="M32.8,76.7L32.8,76.7c0.2-0.2,0.5-0.2,0.7,0l2.7,2.9c0.2,0.2,0.2,0.5,0,0.7l0,0c-0.2,0.2-0.5,0.2-0.7,0
	l-2.7-2.9C32.6,77.2,32.6,76.9,32.8,76.7z"/>
<path class="st3" d="M26.2,85.7L26.2,85.7c0.2,0.2,0.2,0.5,0,0.7l-2.7,2.9c-0.2,0.2-0.5,0.2-0.7,0l0,0c-0.2-0.2-0.2-0.5,0-0.7
	l2.7-2.9C25.7,85.5,26,85.5,26.2,85.7z"/>
<path class="st3" d="M23.2,85.7L23.2,85.7c0.2,0.2,0.2,0.5,0,0.7l-2.7,2.9c-0.2,0.2-0.5,0.2-0.7,0l0,0c-0.2-0.2-0.2-0.5,0-0.7
	l2.7-2.9C22.7,85.5,23,85.5,23.2,85.7z"/>
<path class="st3" d="M29.2,85.7L29.2,85.7c0.2,0.2,0.2,0.5,0,0.7l-2.7,2.9c-0.2,0.2-0.5,0.2-0.7,0l0,0c-0.2-0.2-0.2-0.5,0-0.7
	l2.7-2.9C28.7,85.5,29,85.5,29.2,85.7z"/>
<path class="st3" d="M32.2,85.7L32.2,85.7c0.2,0.2,0.2,0.5,0,0.7l-2.7,2.9c-0.2,0.2-0.5,0.2-0.7,0l0,0c-0.2-0.2-0.2-0.5,0-0.7
	l2.7-2.9C31.7,85.5,32,85.5,32.2,85.7z"/>
<path class="st3" d="M35.2,85.7L35.2,85.7c0.2,0.2,0.2,0.5,0,0.7l-2.7,2.9c-0.2,0.2-0.5,0.2-0.7,0l0,0c-0.2-0.2-0.2-0.5,0-0.7
	l2.7-2.9C34.7,85.5,35,85.5,35.2,85.7z"/>
</svg>
