<svg xmlns="http://www.w3.org/2000/svg" viewBox="0 0 160 160">
  <path d="M42 66.5L26 51c-.9-.2-4 9-4 19s4 15 6 17l7 7c3 3 6 4 10 6 3 1 4 2 4-2s-4-5-5-18l1-9-3-4.5z" fill="#0f0"/>
  <path d="M114 61.1c3.6-4.7 19.7-11 19.7-11s2.2 12.2-4.8 28.8c-2.5 6-6 14.5-9 16.8-3 2.3-3.8.3-3.8.3-1.1 0 7.9-19-2.1-34.9z" fill="#0f0"/>
  <g fill="#010101" opacity=".1">
    <path d="M26 52.2C41 69 43.6 78.7 43.6 78.7l1.4-8.6S29 52 26 52.2z"/>
    <path d="M121.6 55.8l8.6-1.7c1 6-1.6 15.2-3.1 20-2.7 8.3-4.9 12.9-7.1 17.9-2.2 5-3.9 4-3.9 4 1 1.8 4.7.8 8.5-7.4 2.4-5.4 4.8-10.4 6.4-15.8 0 0 3.9-10.8 2.7-22.7-4.1 1.7-8.2 3.5-12.1 5.7z"/>
    <path d="M-11.8 102.1C10.7 84 5.7 83.8 1.2 82.8c2.8-1.5 7.4-.6 7.2.7-.2 1.8-5.6 9-7.8 10.5-4.4 3-8 5.8-12.4 8.1z" transform="rotate(79 17.8 116.2)"/>
  </g>
  <path d="M44 74c-1-2-15-12-15-12s-2 16 4 22c2.3 2.3 4.8 4.5 7.4 6.5L44 92s3-1 0-5c-2.1-2.9-.9-5.8.1-7.6l.8-1.5C45 77 45 76 44 74z"/>
  <path d="M118.5 70.6c.5-1.7 9.2-8 9.2-8s-.8 10.8-3.3 16.1c-1 2.1-2.3 4.4-4 6.2-.5.6-2.3 1.5-2.3 1.5l.5-3.7a38.8 38.8 0 00-.1-8.9l-.3-2.2c0-.3 0-.5.3-1z"/>
  <g fill="#010101">
    <g opacity=".2">
      <path d="M44 74c2 1-15-12-15-12-.7-.1-.8 17.9 4 22l7.4 6.5L44 92c-13-7.2-19.2-27.2 0-18z"/>
      <path d="M44 74c-.6-1.9-16.9-9.4-16.9-9.4 1 5.2 1.9 13.8 6.4 19.2 4 4.9 5.5 5.7 6.9 6.7 1 .7 3.6 1.5 3.6 1.5-13-7.2-19.2-27.2 0-18z" transform="matrix(-.5475 0 0 .86018 142.6 7)"/>
    </g>
    <g opacity=".4">
      <path d="M39 75c-2 0-4 3-2 6s6 3 6 3-1-.9.5-3.5S41 75 39 75z"/>
      <path d="M39 75c-2 0-4 3-2 6s6.4 3 6.4 3l.1-3.5c.2-3-2.5-5.5-4.5-5.5z" transform="matrix(-.5475 0 0 .86018 142.6 7)"/>
    </g>
  </g>
</svg>
