<svg xmlns="http://www.w3.org/2000/svg" viewBox="0 0 160 160">
  <path d="M125.8 71.4s19.2 1.4 19.6 2.8c.1.4-18.2 9.7-17 9.1 0 0 2.4-5.8 2.1-7.1s-4.7-4.8-4.7-4.8z" fill="#5e5e5e"/>
  <path d="M125.2 71.3s19.2 1.4 19.6 2.8c-5 1-14.6 2.4-14.6 2.4l-5-5.2z" fill="#e2e2e2"/>
  <g fill="#603813">
    <path d="M130.6 79.2l-11.6 1v-4.7l10.8-.8s5 .4 5.2 1.2-2.7 3-4.4 3.3z"/>
    <path d="M54.6 83.7l-36.5 2s-2.8.1-3-1.6c-.1-1.5.8-2.4 2.6-2.9L54 77.5a3.2 3.2 0 013.4 2.8 3 3 0 01-2.8 3.4z"/>
  </g>
  <path d="M54.6 83.7l-36.5 2c-1.8 0-2.8-.5-3-1.6 17-1.2 44.2-2.4 42.3-3.8 0 .1.5 2.7-2.8 3.4z" opacity=".2"/>
  <path d="M38.8 80.4l-5.4-5.8-17.1.1 6.1 6.6z"/>
  <path d="M39.4 83.2l-6.6 7.9-17.1 1.2 6.6-7.9z"/>
  <g fill="#010101" opacity=".2">
    <path d="M23.8 76.7c.2-.2.5-.2.7 0l2.7 2.9c.2.2.2.5 0 .7-.2.2-.5.2-.7 0l-2.7-2.9a.5.5 0 010-.7z"/>
    <path d="M20.8 76.7c.2-.2.5-.2.7 0l2.7 2.9c.2.2.2.5 0 .7-.2.2-.5.2-.7 0l-2.7-2.9a.5.5 0 010-.7z"/>
    <path d="M26.8 76.7c.2-.2.5-.2.7 0l2.7 2.9c.2.2.2.5 0 .7-.2.2-.5.2-.7 0l-2.7-2.9a.5.5 0 010-.7z"/>
    <path d="M29.8 76.7c.2-.2.5-.2.7 0l2.7 2.9c.2.2.2.5 0 .7-.2.2-.5.2-.7 0l-2.7-2.9a.5.5 0 010-.7z"/>
    <path d="M32.8 76.7c.2-.2.5-.2.7 0l2.7 2.9c.2.2.2.5 0 .7-.2.2-.5.2-.7 0l-2.7-2.9a.5.5 0 010-.7z"/>
    <path d="M26.2 85.7c.2.2.2.5 0 .7l-2.7 2.9c-.2.2-.5.2-.7 0a.5.5 0 010-.7l2.7-2.9c.2-.2.5-.2.7 0z"/>
    <path d="M23.2 85.7c.2.2.2.5 0 .7l-2.7 2.9c-.2.2-.5.2-.7 0a.5.5 0 010-.7l2.7-2.9c.2-.2.5-.2.7 0z"/>
    <path d="M29.2 85.7c.2.2.2.5 0 .7l-2.7 2.9c-.2.2-.5.2-.7 0a.5.5 0 010-.7l2.7-2.9c.2-.2.5-.2.7 0z"/>
    <path d="M32.2 85.7c.2.2.2.5 0 .7l-2.7 2.9c-.2.2-.5.2-.7 0a.5.5 0 010-.7l2.7-2.9c.2-.2.5-.2.7 0z"/>
    <path d="M35.2 85.7c.2.2.2.5 0 .7l-2.7 2.9c-.2.2-.5.2-.7 0a.5.5 0 010-.7l2.7-2.9c.2-.2.5-.2.7 0z"/>
  </g>
</svg>
