<?xml version="1.0" encoding="UTF-8" standalone="no"?>
<!-- Generator: Adobe Illustrator 22.0.1, SVG Export Plug-In . SVG Version: 6.00 Build 0)  -->

<svg
   xmlns:dc="http://purl.org/dc/elements/1.1/"
   xmlns:cc="http://creativecommons.org/ns#"
   xmlns:rdf="http://www.w3.org/1999/02/22-rdf-syntax-ns#"
   xmlns:svg="http://www.w3.org/2000/svg"
   xmlns="http://www.w3.org/2000/svg"
   xmlns:sodipodi="http://sodipodi.sourceforge.net/DTD/sodipodi-0.dtd"
   xmlns:inkscape="http://www.inkscape.org/namespaces/inkscape"
   version="1.1"
   id="Layer_1"
   x="0px"
   y="0px"
   viewBox="0 0 160 160"
   style="enable-background:new 0 0 160 160;"
   xml:space="preserve"
   sodipodi:docname="side_13.svg"
   inkscape:version="0.92.2 (5c3e80d, 2017-08-06)"><metadata
     id="metadata21"><rdf:RDF><cc:Work
         rdf:about=""><dc:format>image/svg+xml</dc:format><dc:type
           rdf:resource="http://purl.org/dc/dcmitype/StillImage" /></cc:Work></rdf:RDF></metadata><defs
     id="defs19" /><sodipodi:namedview
     pagecolor="#ffffff"
     bordercolor="#666666"
     borderopacity="1"
     objecttolerance="10"
     gridtolerance="10"
     guidetolerance="10"
     inkscape:pageopacity="0"
     inkscape:pageshadow="2"
     inkscape:window-width="1920"
     inkscape:window-height="976"
     id="namedview17"
     showgrid="false"
     inkscape:zoom="5.9"
     inkscape:cx="57.438291"
     inkscape:cy="59.061607"
     inkscape:window-x="0"
     inkscape:window-y="27"
     inkscape:window-maximized="1"
     inkscape:current-layer="Layer_1" /><style
     type="text/css"
     id="style2">
	.st0{fill:#FFFFFF;}
	.st1{opacity:0.1;}
	.st2{opacity:0.15;enable-background:new    ;}
</style><title
     id="title4">Artboard 42 copy 205</title><path
     class="st0"
     d="M46.7,67.2c0,0-8.4,0.6-9.9,7.7c0,0-8.5,0.1-12.1,6.4L16,84.9l0.2,3l17.4,18.8l1.4,4.9c0,0,4.2,4.9,9.3,5.6  l6.7-6.7c0,0-0.4-5-2.4-5.8s-7.3-3.5-8.3-3.4s-6-12.6-6-12.6s12,6.7,16.6-6.2C50.9,82.4,59.7,67.7,46.7,67.2z"
     id="path6"
     style="fill:#00ff00;fill-opacity:1" /><g
     class="st1"
     id="g10"
     transform="translate(0.4237288,-0.16949152)"
     style="opacity:0.1;fill:#010101;fill-opacity:1"><path
       d="M 46.276271,67.369492 C 52.616347,70.310324 51.4,81.9 44.2,80.4 c -0.4,2.9 -1.5,7.1 -9.8,6 -3.1,0.8 -5.7,1.2 -5.7,1.2 l 9.1,14.8 c 5.9,1.6 10.476271,4.26949 12.776271,8.26949 0,0 -0.4,-5 -2.4,-5.8 -2,-0.8 -7.471574,-3.44532 -8.476271,-3.46949 -1.021186,-0.38729 -5.9,-12.6 -5.9,-12.6 0,0 11.984746,6.837288 16.676271,-6.130508 -0.1,-0.2 8.842373,-14.7 -4.2,-15.3 z"
       id="path8"
       inkscape:connector-curvature="0"
       sodipodi:nodetypes="ccccccscccc"
       style="fill:#010101;fill-opacity:1" /></g><path
     class="st0"
     d="M117.1,67l0.5,0.2c3.3,0.9,5.8,3.5,6.7,6.8c0,0,8.5-0.1,12.2,6l8.9,3.4l-0.1,3l-16.9,19.3l-1.2,5  c0,0-1.1,3-6.2,3.7l-9.8-4.4c0,0,0.2-5,2.3-5.9s7.2-3.7,8.2-3.6s5.6-12.8,5.6-12.8s-4.4,2.6-9,1.7C120,78,118,74,117.1,67z"
     id="path12"
     style="fill:#00ff00;fill-opacity:1" /><path
     class="st2"
     d="m 117.41969,69.379606 c 0,0 4.74981,2.789886 5.74981,6.789886 0,0 7,1 9,6 l 3,1 -11,19.000008 -8,5 c -1.2,1 -2.2,2.3 -2.9,3.8 L 111.2,110 c 0,0 0.10001,-5.77457 3.1695,-6.2305 2.6,-1.3 6.48837,-3.34905 7.59026,-3.3603 2.21858,-4.017153 3.7359,-8.38493 5.34024,-12.7092 -3.44981,1.779394 -6.22023,2.170416 -9,1.7 1.19026,-7.128448 0.75976,-13.149978 -0.88031,-20.020394 z"
     id="path14"
     inkscape:connector-curvature="0"
     style="opacity:0.15;enable-background:new;fill:#010101;fill-opacity:1"
     sodipodi:nodetypes="ccccccccccccc" /></svg>