<svg xmlns="http://www.w3.org/2000/svg" viewBox="0 0 160 160">
  <path d="M52.5 103.1s.9.1 1.9-1.6.5-5.3-2.1-6.5-3.3-3.9-4.8-6.7-7.4-7.8-19-9.7-12.9-6.5-13.7-7.5-2.5 7.9 1.4 15.4S26.7 100 36 97.2s12.4 2 12.4 2 2.3 3.7 4.1 3.9z"/>
  <path d="M119.5 82c3.2-1 6.5-1.6 9.9-1.8 12-1 13.8-5.4 14.7-6.3s1.9 8-2.6 15.1-11.9 12.5-21.2 9c-1.4-.5-2.8-.9-4.3-1.1a35.2 35.2 0 003.5-14.9z"/>
  <g fill="#010101" opacity=".14">
    <path d="M52.5 103.1s.9.1 1.9-1.6.5-5.3-2.1-6.5-3.3-3.9-4.8-6.7-7.4-7.8-19-9.7-13.5-9.3-13.7-7.5c1.3 16.3 29.6 11.5 37.7 32z"/>
    <path d="M119.2 82.4c3.6-1.2 7.3-1.9 11-2.2 12-1 14.7-8.1 14.7-6.3-1.8 10.5-14.9 11.1-26.4 16 1.2-4.3 1.2-5.2.7-7.5z"/>
  </g>
</svg>
