<?xml version="1.0" encoding="utf-8"?>
<!-- Generator: Adobe Illustrator 22.0.1, SVG Export Plug-In . SVG Version: 6.00 Build 0)  -->
<svg version="1.1" id="Layer_1" xmlns="http://www.w3.org/2000/svg" xmlns:xlink="http://www.w3.org/1999/xlink" x="0px" y="0px"
	 viewBox="0 0 160 160" style="enable-background:new 0 0 160 160;" xml:space="preserve">
<style type="text/css">
	.st0{fill:#FFFFFF;}
	.st1{opacity:0.1;}
	.st2{opacity:0.15;enable-background:new    ;}
</style>
<title>Artboard 42 copy 205</title>
<path class="st0" d="M46.7,67.2c0,0-8.4,0.6-9.9,7.7c0,0-8.5,0.1-12.1,6.4L16,84.9l0.2,3l17.4,18.8l1.4,4.9c0,0,4.2,4.9,9.3,5.6
	l6.7-6.7c0,0-0.4-5-2.4-5.8s-7.3-3.5-8.3-3.4s-6-12.6-6-12.6s12,6.7,16.6-6.2C50.9,82.4,59.7,67.7,46.7,67.2z"/>
<g class="st1">
	<path d="M46.2,67.2c6.4,3.6,5.2,14.7-2,13.2c-0.4,2.9-1.5,7.1-9.8,6c-3.1,0.8-5.7,1.2-5.7,1.2l9.1,14.8c5.9,1.6,10.3,4.2,12.6,8.2
		c0,0-0.4-5-2.4-5.8s-7.3-3.5-8.3-3.4s-5.9-12.6-5.9-12.6s11.5,6.2,16.7-5.2C50.4,83.4,59.2,67.8,46.2,67.2z"/>
</g>
<path class="st0" d="M117.1,67l0.5,0.2c3.3,0.9,5.8,3.5,6.7,6.8c0,0,8.5-0.1,12.2,6l8.9,3.4l-0.1,3l-16.9,19.3l-1.2,5
	c0,0-1.1,3-6.2,3.7l-9.8-4.4c0,0,0.2-5,2.3-5.9s7.2-3.7,8.2-3.6s5.6-12.8,5.6-12.8s-4.4,2.6-9,1.7C120,78,118,74,117.1,67z"/>
<path class="st2" d="M117.4,69.3c0,0,4.6,2.7,5.6,6.7c0,0,7,1,9,6l3,1l-11,19l-8,5c-1.2,1-2.2,2.3-2.9,3.8L111,110
	c0,0,0.3-4.8,3.2-6.4c2.6-1.3,5.2-2.6,7.8-3.6l5-12c-3.3,1.3-6.4,1.8-9,1C119.4,83.1,119.1,76.5,117.4,69.3z"/>
</svg>
