<svg xmlns="http://www.w3.org/2000/svg" viewBox="0 0 160 160">
  <path d="M53.5 84.2a2.5 2.5 0 00-2.9-2.2l-16 2.4-2.3-8s0-2-1.7-.7l2.6 8.9-3.8.6-2.3-7.9s0-2-1.7-.7l2.6 8.9-2.2.3c.4 1.3.5 2.6.2 3.9l3.4-.3 2.4 8.4h.1c-.2.5.1 1 .5 1.1.4.2.8 0 1.1-.4h.1v-.2a1 1 0 00-.2-.9L31 89l3.6-.4 2.6 8.9h.1c-.2.4 0 1 .4 1.2l.5.2c.6 0 1-.5 1-1a1 1 0 00-.7-.9l-2.4-8.4L51.5 87c1.2-.1 2.2-1.4 2-2.8z" fill="#fff"/>
  <path d="M51.3 87.1l-15.4 1.6-.5-1.6s18.8-2.3 18-2.9c.1 0 .6 2.1-2.1 2.9z" opacity=".2"/>
  <path d="M8.8 87.5a8.5 8.5 0 019.5-7.3c4.7.5 8 4.7 7.5 9.3a8.5 8.5 0 01-9.5 7.3 8.4 8.4 0 01-7.5-9.3z"/>
  <path d="M146.7 77.5c-.5 4-4.3 6.9-8.3 6.3a7.4 7.4 0 01-6-4.9c-.1-.4 4.6.1 4.6-1.9 0-1-1.7-1-3-.9l-2 .2.1-.8c.6-4 4.3-6.9 8.3-6.3s6.9 4.2 6.3 8.3z"/>
  <g fill="#010101" opacity=".3">
    <path d="M30 85.2a8.5 8.5 0 01-9.5 7.3 9 9 0 01-5.7-3.1c2.2.8 7.7 1.6 11.1-1.8 2.5-2.4 2.6-6.8 2-9a8.6 8.6 0 012.1 6.6z" transform="translate(-4.2 4.2)"/>
    <path d="M146.7 77.5c-.6 4-4.3 6.9-8.3 6.3a7.4 7.4 0 01-4.8-2.8c1.9.7 6.6 1.5 9.6-1.4 2.2-2.1 2.4-6 1.9-7.9a8 8 0 011.6 5.8z"/>
  </g>
  <path d="M137.1 76.5c-.2-.8-2.3-.5-2.3-.5l-6.4.5-1.5-5.7s0-1.4-1.2-.5l1.7 6.3-3.3.3-1.6-5.8s0-1.4-1.2-.5L123 77l-3.7.3.1 3.2 4.6-.6 2.1 8h.1c-.2.4 0 .9.3 1.1.4.2.8 0 1-.3h.1v-.2c.1-.3 0-.6-.2-.8l-2.1-8 3.1-.4 2.3 8.5h.1c-.2.4 0 .8.4 1 .4.2.8 0 1-.3h.1v-.2c.1-.3 0-.6-.2-.8l-2.3-8.5 5.5-.7c1.6 0 2-.8 1.8-1.8z" fill="#fff"/>
  <g opacity=".2">
    <path d="M123.9 80l-4.6.5v-1.4l4-.4.2-.1z"/>
    <path d="M128.3 79.4l-3.1.4-.3-1.4 3.1-.3z"/>
    <path d="M134.4 78.7l-4.7.6-.4-1.4 7.5-.9c0 .1.8.9-2.4 1.7z"/>
    <path d="M29.4 89.3l-3.4.3.1-1.5 2.6-.3.3.2z"/>
    <path d="M34.3 83.9l3.5-.6.5 1.4-3.5.4z" transform="translate(-4 4)"/>
    <circle cx="38" cy="98" r="1"/>
    <circle cx="32.7" cy="98.2" r=".9"/>
  </g>
</svg>
