<?xml version="1.0" encoding="utf-8"?>
<!-- Generator: Adobe Illustrator 22.0.1, SVG Export Plug-In . SVG Version: 6.00 Build 0)  -->
<svg version="1.1" id="Layer_1" xmlns="http://www.w3.org/2000/svg" xmlns:xlink="http://www.w3.org/1999/xlink" x="0px" y="0px"
	 viewBox="0 0 160 160" style="enable-background:new 0 0 160 160;" xml:space="preserve">
<style type="text/css">
	.st0{fill:#FFFFFF;}
	.st1{opacity:0.3;}
	.st2{opacity:0.3;enable-background:new    ;}
	.st3{fill:#603813;}
	.st4{opacity:0.1;fill:#FFFFFF;enable-background:new    ;}
	.st5{opacity:0.16;fill:#FFFFFF;enable-background:new    ;}
	.st6{opacity:0.3;fill:#FFFFFF;enable-background:new    ;}
	.st7{fill:url(#SVGID_1_);}
	.st8{clip-path:url(#SVGID_3_);}
	.st9{fill:url(#SVGID_4_);}
	.st10{fill:url(#SVGID_5_);}
	.st11{clip-path:url(#SVGID_7_);}
	.st12{fill:url(#SVGID_8_);}
	.st13{fill:url(#SVGID_9_);}
	.st14{clip-path:url(#SVGID_11_);}
	.st15{fill:url(#SVGID_12_);}
</style>
<title>Artboard 42 copy 198</title>
<path class="st0" d="M124.6,80.7c0,0,20,0.3,18.6-12.5c0,0,9.6,11.1,1,20.9s-27.3,6.1-27.3,6.1L124.6,80.7z"/>
<path class="st0" d="M143.2,68.2L143.2,68.2c0.3,13.7-20.2,12.1-20.2,12.1l-1.2,5.7l-4.9,9.2c0,0,18.7,3.6,27.3-6.1
	S143.2,68.2,143.2,68.2z"/>
<g class="st1">
	<polygon class="st2" points="143.2,68.2 143.2,68.2 143.2,68.2 	"/>
	<path class="st2" d="M143.2,68.2c8.4,22.4-21.7,19.4-21.7,19.4l0.3-1.7l-4.9,9.2c0,0,18.7,3.6,27.3-6.1S143.2,68.2,143.2,68.2z"/>
</g>
<path class="st3" d="M118.5,75c0,0,7.1,1,7.3,11.2S114.8,98,114.8,98C118.3,90.9,119.6,82.9,118.5,75z"/>
<path class="st3" d="M38.2,78.1l9.6-4c0,0,8.6,0.9,9.5,11.4s-5.5,12.9-5.5,12.9l-10.3,0.2c0,0-4.5-3.1-5.2-11.3S38.2,78.1,38.2,78.1
	z"/>
<path class="st4" d="M38.2,78.1l9.6-4c5,1.5,9,4.3,9.5,11.4c-0.8-1.6-2.3-2.3-4.5-2.2L48,84.4l-5.7,1.4l-5.9,1.4
	C36.8,82.2,36.3,79.9,38.2,78.1z"/>
<ellipse transform="matrix(0.9968 -7.974522e-02 7.974522e-02 0.9968 -6.8972 3.6279)" class="st5" cx="42" cy="88.2" rx="4.9" ry="9.1"/>
<path class="st0" d="M41.7,80.6c0,0-15.6,2.1-20-2.9s-0.2-13.9-0.2-13.9s-11.1,6.4-10,19s25,13.8,30.3,12.4c0,0,3.6-1.8,3.3-7.5
	C45.1,81.9,41.7,80.6,41.7,80.6z"/>
<path class="st6" d="M41.7,80.6c0,0-15.6,2.1-20-2.9s-0.2-13.9-0.2-13.9s-11.1,6.4-10,19s25,13.8,30.3,12.4c0,0,3.6-1.8,3.3-7.5
	C45.1,81.9,41.7,80.6,41.7,80.6z"/>
<path class="st2" d="M21.5,63.9"/>
<path class="st2" d="M45,87.7c-15.9,3.8-39.8-2.6-23.5-23.8c0,0-11.1,6.4-10,19s25,13.8,30.3,12.4C41.8,95.3,45.4,93.5,45,87.7
	L45,87.7z"/>
<linearGradient id="SVGID_1_" gradientUnits="userSpaceOnUse" x1="466.36" y1="-1239.12" x2="466.36" y2="-1221.21" gradientTransform="matrix(1 0 0 -1 0 162)">
	<stop  offset="0" style="stop-color:#A66707"/>
	<stop  offset="1" style="stop-color:#000000"/>
</linearGradient>
<path class="st7" d="M477.7,1396.1c-2.8,3.2-6.9,5-11.1,5l0,0h-0.2h-0.2l0,0c-4.3,0-8.3-1.8-11.1-5c-3-3.3-4.9-8.6-4.9-11
	c0-2.1,3.5,0.6,12.3,1.3c1.1,0.1,2.4,0.1,3.7,0.1h0.5c7.9,0,12.8-2.5,13.6-3s2.4-0.7,2.4,1.6S480.7,1392.8,477.7,1396.1z"/>
<g>
	<defs>
		<path id="SVGID_2_" d="M477.7,1396.1c-2.8,3.2-6.9,5-11.1,5l0,0h-0.2h-0.2l0,0c-4.3,0-8.3-1.8-11.1-5c-3-3.3-4.9-8.6-4.9-11
			c0-2.1,3.5,0.6,12.3,1.3c1.1,0.1,2.4,0.1,3.7,0.1h0.5c7.9,0,12.8-2.5,13.6-3s2.4-0.7,2.4,1.6S480.7,1392.8,477.7,1396.1z"/>
	</defs>
	<clipPath id="SVGID_3_">
		<use xlink:href="#SVGID_2_"  style="overflow:visible;"/>
	</clipPath>
	<g class="st8">
		
			<linearGradient id="SVGID_4_" gradientUnits="userSpaceOnUse" x1="386.985" y1="-1641.15" x2="386.985" y2="190.07" gradientTransform="matrix(1 0 0 -1 0 162)">
			<stop  offset="0" style="stop-color:#A66707"/>
			<stop  offset="1" style="stop-color:#000000"/>
		</linearGradient>
		<rect x="-116.1" y="-28.1" class="st9" width="1006.2" height="1831.2"/>
	</g>
</g>
<linearGradient id="SVGID_5_" gradientUnits="userSpaceOnUse" x1="478.85" y1="-1425.5028" x2="478.85" y2="-1410.8242" gradientTransform="matrix(1 0 0 -1 0 162)">
	<stop  offset="0" style="stop-color:#A66707"/>
	<stop  offset="1" style="stop-color:#000000"/>
</linearGradient>
<path class="st10" d="M492,1583.4c-3.7,2.7-8.3,4.2-12.9,4.1l0,0h-0.2h-0.2l0,0c-4.6,0.1-9.2-1.4-12.9-4.1c-3.5-2.7-5.7-7-5.7-9
	s7.2,1.2,20.6,1.2h-1.5c9.1,0,14.8-2.1,15.8-2.5s2.8-0.5,2.8,1.3S495.5,1580.7,492,1583.4z"/>
<g>
	<defs>
		<path id="SVGID_6_" d="M492,1583.4c-3.7,2.7-8.3,4.2-12.9,4.1l0,0h-0.2h-0.2l0,0c-4.6,0.1-9.2-1.4-12.9-4.1c-3.5-2.7-5.7-7-5.7-9
			s7.2,1.2,20.6,1.2h-1.5c9.1,0,14.8-2.1,15.8-2.5s2.8-0.5,2.8,1.3S495.5,1580.7,492,1583.4z"/>
	</defs>
	<clipPath id="SVGID_7_">
		<use xlink:href="#SVGID_6_"  style="overflow:visible;"/>
	</clipPath>
	<g class="st11">
		
			<linearGradient id="SVGID_8_" gradientUnits="userSpaceOnUse" x1="404.985" y1="-1829.1499" x2="404.985" y2="2.07" gradientTransform="matrix(1 0 0 -1 0 162)">
			<stop  offset="0" style="stop-color:#A66707"/>
			<stop  offset="1" style="stop-color:#000000"/>
		</linearGradient>
		<rect x="-98.1" y="159.9" class="st12" width="1006.2" height="1831.2"/>
	</g>
</g>
<linearGradient id="SVGID_9_" gradientUnits="userSpaceOnUse" x1="-269.64" y1="-1247.12" x2="-269.64" y2="-1229.21" gradientTransform="matrix(1 0 0 -1 0 162)">
	<stop  offset="0" style="stop-color:#A66707"/>
	<stop  offset="1" style="stop-color:#000000"/>
</linearGradient>
<path class="st13" d="M-258.3,1404.1c-2.8,3.2-6.9,5-11.1,5l0,0h-0.2h-0.2l0,0c-4.3,0-8.3-1.8-11.1-5c-3-3.3-4.9-8.6-4.9-11
	c0-2.1,3.5,0.6,12.3,1.3c1.1,0.1,2.4,0.1,3.7,0.1h0.5c7.9,0,12.8-2.5,13.6-3s2.4-0.7,2.4,1.6S-255.3,1400.8-258.3,1404.1z"/>
<g>
	<defs>
		<path id="SVGID_10_" d="M-258.3,1404.1c-2.8,3.2-6.9,5-11.1,5l0,0h-0.2h-0.2l0,0c-4.3,0-8.3-1.8-11.1-5c-3-3.3-4.9-8.6-4.9-11
			c0-2.1,3.5,0.6,12.3,1.3c1.1,0.1,2.4,0.1,3.7,0.1h0.5c7.9,0,12.8-2.5,13.6-3s2.4-0.7,2.4,1.6S-255.3,1400.8-258.3,1404.1z"/>
	</defs>
	<clipPath id="SVGID_11_">
		<use xlink:href="#SVGID_10_"  style="overflow:visible;"/>
	</clipPath>
	<g class="st14">
		
			<linearGradient id="SVGID_12_" gradientUnits="userSpaceOnUse" x1="-349.015" y1="-1649.15" x2="-349.015" y2="182.07" gradientTransform="matrix(1 0 0 -1 0 162)">
			<stop  offset="0" style="stop-color:#A66707"/>
			<stop  offset="1" style="stop-color:#000000"/>
		</linearGradient>
		<rect x="-852.1" y="-20.1" class="st15" width="1006.2" height="1831.2"/>
	</g>
</g>
</svg>
