<?xml version="1.0" encoding="utf-8"?>
<!-- Generator: Adobe Illustrator 22.0.1, SVG Export Plug-In . SVG Version: 6.00 Build 0)  -->
<svg version="1.1" id="Layer_1" xmlns="http://www.w3.org/2000/svg" xmlns:xlink="http://www.w3.org/1999/xlink" x="0px" y="0px"
	 viewBox="0 0 160 160" style="enable-background:new 0 0 160 160;" xml:space="preserve">
<style type="text/css">
	.st0{fill:#FFFFFF;}
	.st1{fill:url(#SVGID_1_);}
	.st2{opacity:0.5;fill:url(#SVGID_2_);enable-background:new    ;}
	.st3{fill:url(#SVGID_3_);}
	.st4{fill:url(#SVGID_4_);}
	.st5{fill:url(#SVGID_5_);}
	.st6{fill:url(#SVGID_6_);}
	.st7{fill:url(#SVGID_7_);}
	.st8{opacity:0.1;}
</style>
<title>Artboard 42 copy 196</title>
<path class="st0" d="M26.4,71l2.4,24l-2.4,2v3.3c0,0,0,1.7,2.4,2.3c2.5,0.5,7.1,2,14.2,1.4c3.8-0.3,7.5-1.3,11-2.9
	c1-0.4,1.7-1.4,1.8-2.5L54.9,95l-2.4-2l-2.4-23"/>
<linearGradient id="SVGID_1_" gradientUnits="userSpaceOnUse" x1="29.0733" y1="75.5582" x2="50.7233" y2="77.2582" gradientTransform="matrix(1 0 0 -1 0 162)">
	<stop  offset="0" style="stop-color:#FFD22D"/>
	<stop  offset="0.87" style="stop-color:#FCB22B"/>
	<stop  offset="1" style="stop-color:#F28312"/>
</linearGradient>
<path class="st1" d="M28.9,71.2l2.5,23.7l-3.7,3c0,0,0,1.3,4.9,2c6.7,2.2,17.7-0.1,20.9-1.9c2.5-0.9,0.5-2,0.5-2l-2.5-3L49,70.2
	L28.9,71.2z"/>
<ellipse transform="matrix(0.9984 -5.651854e-02 5.651854e-02 0.9984 -3.9248 2.2749)" class="st0" cx="38.3" cy="70.5" rx="11.9" ry="2.5"/>
<linearGradient id="SVGID_2_" gradientUnits="userSpaceOnUse" x1="29.6776" y1="63.6731" x2="57.0318" y2="63.6731" gradientTransform="matrix(1 0 0 -1 -2.15 162.12)">
	<stop  offset="0" style="stop-color:#FFD22D"/>
	<stop  offset="0.87" style="stop-color:#FCB22B"/>
	<stop  offset="1" style="stop-color:#F28312"/>
</linearGradient>
<path class="st2" d="M54.9,97.2c0.1,1.7-5.9,4.4-13.4,4.8s-13.8-1.6-13.9-3.2s5.9-3.4,13.5-3.8S54.7,95.5,54.9,97.2z"/>
<linearGradient id="SVGID_3_" gradientUnits="userSpaceOnUse" x1="61.1381" y1="540.057" x2="64.8681" y2="540.347" gradientTransform="matrix(1 -7.000000e-02 -5.000000e-02 -0.8 0.33 521.25)">
	<stop  offset="0" style="stop-color:#FFD22D;stop-opacity:0"/>
	<stop  offset="0.81" style="stop-color:#FFFCEF;stop-opacity:0.7"/>
	<stop  offset="1" style="stop-color:#FFFFFF;stop-opacity:0.8"/>
</linearGradient>
<path class="st3" d="M34.6,93L34.6,93c-0.9,0.1-1.7-0.5-1.9-1.4l-1.1-13c0-0.9,0.8-1.6,1.7-1.6c0,0,0,0,0,0l0,0
	c0.9-0.1,1.7,0.5,1.9,1.4l1,13C36.2,92.3,35.5,93,34.6,93z"/>
<linearGradient id="SVGID_4_" gradientUnits="userSpaceOnUse" x1="67.0588" y1="539.6284" x2="70.7888" y2="539.9184" gradientTransform="matrix(1 -7.000000e-02 -5.000000e-02 -0.8 0.33 521.32)">
	<stop  offset="0" style="stop-color:#FFD22D;stop-opacity:0"/>
	<stop  offset="0.81" style="stop-color:#FFFCEF;stop-opacity:0.7"/>
	<stop  offset="1" style="stop-color:#FFFFFF;stop-opacity:0.8"/>
</linearGradient>
<path class="st4" d="M40.5,93L40.5,93c-0.9,0.1-1.7-0.5-1.9-1.4l-1.1-13c0-0.9,0.7-1.6,1.6-1.6c0,0,0,0,0,0l0,0
	c0.9-0.1,1.7,0.5,1.9,1.4l1,13C42.1,92.3,41.4,93,40.5,93z"/>
<linearGradient id="SVGID_5_" gradientUnits="userSpaceOnUse" x1="73.0501" y1="540.4319" x2="76.7801" y2="540.7219" gradientTransform="matrix(1 -7.000000e-02 -5.000000e-02 -0.8 0.34 521.38)">
	<stop  offset="0" style="stop-color:#FFD22D;stop-opacity:0"/>
	<stop  offset="0.81" style="stop-color:#FFFCEF;stop-opacity:0.7"/>
	<stop  offset="1" style="stop-color:#FFFFFF;stop-opacity:0.8"/>
</linearGradient>
<path class="st5" d="M46.4,92L46.4,92c-0.9,0.1-1.7-0.5-1.9-1.4l-1.1-13c0-0.9,0.7-1.6,1.6-1.6c0,0,0,0,0,0l0,0
	c0.9-0.1,1.7,0.5,1.8,1.4l1.1,13C48,91.3,47.3,92,46.4,92z"/>
<linearGradient id="SVGID_6_" gradientUnits="userSpaceOnUse" x1="21.2138" y1="140.707" x2="21.3838" y2="124.757" gradientTransform="matrix(1 0 0 -0.8 0 -1094.52)">
	<stop  offset="0" style="stop-color:#FFD22D;stop-opacity:0"/>
	<stop  offset="0.81" style="stop-color:#FFFCEF;stop-opacity:0.7"/>
	<stop  offset="1" style="stop-color:#FFFFFF;stop-opacity:0.8"/>
</linearGradient>
<path class="st6" d="M50.1,70c0,2-2.4,4-13.1,5s-10.7-4-10.7-4"/>
<path class="st0" d="M29.7,72.9c0,0-8.1,2.2-6.9-4.4c0,0-4.9-5.5,1.2-5.5c0,0,1.2-4.4,6.1,0c0,0,4.9-7.7,9.8,1.1
	c0,0,3.7-4.4,6.1,2.2c0,0,7.6,2.4,2,5.1S31.7,74,29.7,72.9z"/>
<linearGradient id="SVGID_7_" gradientUnits="userSpaceOnUse" x1="25.6694" y1="93.6079" x2="45.0594" y2="95.1279" gradientTransform="matrix(1 0 0 -1 0 162)">
	<stop  offset="0" style="stop-color:#FFD22D;stop-opacity:0.5"/>
	<stop  offset="0.81" style="stop-color:#FFFCEF;stop-opacity:0.7"/>
	<stop  offset="1" style="stop-color:#FFFFFF;stop-opacity:0.8"/>
</linearGradient>
<path class="st7" d="M30.9,72.4c0,0-6.9,1.8-5.8-3.4c0,0-4.1-4.3,1-4.3c0,0,1-3.5,5.2,0c0,0,4.1-6.1,8.3,0.9c0,0,3.1-3.5,5.2,1.7
	c0,0,6.4,2,1.7,4S32.5,73.3,30.9,72.4z"/>
<g class="st8">
	<path d="M41.2,64.4c0,0,1.8-0.4,1.8,2.6s-3.1,3.9-3.1,3.9s0.8-0.9,1.9,0.1s-1.5,1.7-1.5,1.7s6.4-0.3,8.7-2.5S45.4,67,45.4,67
		S45.4,63.9,41.2,64.4z"/>
</g>
<g class="st8">
	<path d="M31.1,66c0.7,1.9,2.7,3,4.7,2.6C35.8,68.6,32.3,71,31.1,66z"/>
</g>
<g class="st8">
	<path d="M27.4,67.1c1.2,0.7,2.7,0.5,3.8-0.4C31.2,66.7,30.6,69.3,27.4,67.1z"/>
</g>
<g class="st8">
	<path d="M37.9,68.5c0,0,2.4-0.8,1.7-2.9C39.5,65.7,41.8,67.5,37.9,68.5z"/>
</g>
</svg>
