<?xml version="1.0" encoding="utf-8"?>
<!-- Generator: Adobe Illustrator 22.0.1, SVG Export Plug-In . SVG Version: 6.00 Build 0)  -->
<svg version="1.1" id="Layer_1" xmlns="http://www.w3.org/2000/svg" xmlns:xlink="http://www.w3.org/1999/xlink" x="0px" y="0px"
	 viewBox="0 0 160 160" style="enable-background:new 0 0 160 160;" xml:space="preserve">
<style type="text/css">
	.st0{fill:#ED1C24;}
	.st1{opacity:0.18;enable-background:new    ;}
	.st2{fill:none;stroke:#FFFFFF;stroke-width:2;stroke-linecap:round;stroke-linejoin:round;}
	.st3{opacity:0.6;fill:none;stroke:#FFFFFF;stroke-width:2;stroke-linecap:round;stroke-linejoin:round;enable-background:new    ;}
</style>
<title>Artboard 42 copy 206</title>
<path class="st0" d="M30.1,71.2c0,0,6.9-5.7,11.4,2.3s-1.1,13.7-1.1,13.7s12.5,17.3,21.6,18.3c0,0,3.8-5.5,11.6-1.7
	s4.3,10.7,4.3,10.7s-2.3,4.6-10.2,4.6s-27.3-14.8-34.1-28.4S29,73.5,30.1,71.2z"/>
<path class="st1" d="M30.1,71.2c0,0,6.9-5.7,11.4,2.3s-1.1,13.7-1.1,13.7s12.5,17.3,21.6,18.3c0,0,3.8-5.5,11.6-1.7
	s4.3,10.7,4.3,10.7C73,106,69,107,60.7,107.5C47,103.9,36.3,91.2,38,88.5C38,88.6,44,72,30.1,71.2z"/>
<path class="st2" d="M26.7,55.6c-4.2,2.2-8.8,8.3-9.7,13"/>
<path class="st3" d="M30,59.2c-3.4,1.8-7.2,6.8-7.9,10.7"/>
</svg>
