<?xml version="1.0" encoding="UTF-8" standalone="no"?>
<!-- Generator: Adobe Illustrator 22.0.1, SVG Export Plug-In . SVG Version: 6.00 Build 0)  -->

<svg
   xmlns:dc="http://purl.org/dc/elements/1.1/"
   xmlns:cc="http://creativecommons.org/ns#"
   xmlns:rdf="http://www.w3.org/1999/02/22-rdf-syntax-ns#"
   xmlns:svg="http://www.w3.org/2000/svg"
   xmlns="http://www.w3.org/2000/svg"
   xmlns:sodipodi="http://sodipodi.sourceforge.net/DTD/sodipodi-0.dtd"
   xmlns:inkscape="http://www.inkscape.org/namespaces/inkscape"
   version="1.1"
   id="Layer_1"
   x="0px"
   y="0px"
   viewBox="0 0 160 160"
   style="enable-background:new 0 0 160 160;"
   xml:space="preserve"
   sodipodi:docname="side_16.svg"
   inkscape:version="0.92.2 (5c3e80d, 2017-08-06)"><metadata
     id="metadata57"><rdf:RDF><cc:Work
         rdf:about=""><dc:format>image/svg+xml</dc:format><dc:type
           rdf:resource="http://purl.org/dc/dcmitype/StillImage" /></cc:Work></rdf:RDF></metadata><defs
     id="defs55" /><sodipodi:namedview
     pagecolor="#ffffff"
     bordercolor="#666666"
     borderopacity="1"
     objecttolerance="10"
     gridtolerance="10"
     guidetolerance="10"
     inkscape:pageopacity="0"
     inkscape:pageshadow="2"
     inkscape:window-width="1920"
     inkscape:window-height="976"
     id="namedview53"
     showgrid="false"
     inkscape:zoom="2.8284271"
     inkscape:cx="54.039164"
     inkscape:cy="107.11316"
     inkscape:window-x="0"
     inkscape:window-y="27"
     inkscape:window-maximized="1"
     inkscape:current-layer="Layer_1" /><style
     type="text/css"
     id="style2">
	.st0{fill:#D8D8D8;}
	.st1{opacity:0.16;}
	.st2{fill:#FFFFFF;}
	.st3{fill:none;stroke:#000000;stroke-width:0.5;stroke-linecap:round;stroke-linejoin:round;}
	.st4{fill:none;stroke:#000000;stroke-width:0.5;stroke-miterlimit:10;}
	.st5{opacity:0.1;}
	.st6{fill:#724C00;}
	.st7{opacity:5.000000e-02;}
</style><title
     id="title4">Artboard 42 copy 253</title><path
     class="st0"
     d="M42.8,68.7c1.6,2.3,2,5.1,1.2,7.7l-0.4,2l4.3,0.1c3,0.9,3.2,8,0.6,10.2c-1.1,0.6-2.1,1.4-3,2.2  c-0.9,1.2-5.2,5.2-8.4,6.3c-0.6,0.2-1.8,0.8-3.3,1.4c-6,2.4-17.4,5.9-19.3-6.5l0.3-6.6c0.2-3.3-1.5-5.7,0.8-12s8.8-7.3,13.6-6  c0,0,0.8,0.5,2.4-1.7S39.9,62.5,42.8,68.7z"
     id="path6" /><g
     class="st1"
     id="g10"
     style="fill:#010101;fill-opacity:1"><path
       d="M48.6,88.9c0,0-8.3,7.2-11.4,8.4c-2.7,1-16.2,8.1-21-0.5c-0.6-1.5-1.2-3.1-1.5-4.7c0.9,2.2,5.7,4.2,10.6,4.3   c6.6,0.3,11.2-4.3,15.3-3.6C43.1,91.2,45.8,89.9,48.6,88.9z"
       id="path8"
       style="fill:#010101;fill-opacity:1" /></g><line
     class="st3"
     x1="41"
     y1="22"
     x2="25"
     y2="31"
     id="line14" /><line
     class="st3"
     x1="49"
     y1="57"
     x2="27"
     y2="70"
     id="line16" /><line
     class="st3"
     x1="46"
     y1="27"
     x2="19"
     y2="42"
     id="line18" /><line
     class="st3"
     x1="48"
     y1="34"
     x2="16"
     y2="52"
     id="line20" /><line
     class="st3"
     x1="41"
     y1="71"
     x2="28.5"
     y2="27"
     id="line22" /><line
     class="st3"
     x1="45"
     y1="65"
     x2="32"
     y2="20"
     id="line24" /><line
     class="st3"
     x1="35"
     y1="72"
     x2="24"
     y2="34"
     id="line26" /><line
     class="st4"
     x1="49"
     y1="58"
     x2="37"
     y2="17"
     id="line28" /><line
     class="st3"
     x1="28"
     y1="68"
     x2="20"
     y2="40"
     id="line30" /><line
     class="st3"
     x1="50"
     y1="41"
     x2="18"
     y2="59"
     id="line32" /><line
     class="st3"
     x1="53"
     y1="47"
     x2="21"
     y2="65"
     id="line34" /><g
     class="st5"
     id="g38"><path
       d="M37,103.5l0.5,7c0,0,0.7,2.2-1.1,2.6s6.1,0.4,5.1-2.6c0-1.1-0.9-2-2-2l-0.4-4.8L37,103.5z"
       id="path36" /></g><path
     class="st6"
     d="M52.5,35.5c-1.7-9.2-9.7-17.8-17.9-19.4C33,15.8,20,41,12.3,53.5c1.3,4.3,4,8.2,9.2,15c9,14,11,15,12,28  c0.8,10.4,1,11.8,1,12c0,0-1,0-1,2s2,3,4,3s4-1,4-3c0-1.1-0.9-2-2-2l-1-12c0,0-0.6-20.2,8-31C55,54.9,54.5,46.5,52.5,35.5z   M34.5,83.5l-5-11c0,0,3,4,9,0L34.5,83.5z M34.4,68.5c-8.9,0.7-17.1-8.5-18.9-20.9C22,36,30,23,31.7,19.5  c8.9,0.3,16.6,10.3,17.7,23.1C50.6,56.1,43.8,67.7,34.4,68.5L34.4,68.5z"
     id="path40"
     style="fill:#000000;fill-opacity:1" /><g
     class="st5"
     id="g44"
     style="fill:#010101;fill-opacity:1"><path
       d="M 34.07554,16.432755 C 37.17554,16.632755 39.8,18.9 42,21 c 6,6 8,10 9,21 1,11 -3.5,20.5 -7.5,24.5 -4,4 -14,6 -14,6 1.5,0.9 3.3,1.2 5,1 1.4,-0.3 2.8,-0.8 4.1,-1.4 l 2.9,2.4 c 1.6,-3.5 3.5,-6.9 5.8,-10 3.2,-4 6.681658,-10.455904 6.4,-19.4 C 53.416622,36.101277 50.781697,20.457585 34.504806,16.105411 Z"
       id="path42"
       style="fill:#010101;fill-opacity:1"
       inkscape:connector-curvature="0"
       sodipodi:nodetypes="ccsscccccscc" /></g><path
     class="st2"
     d="M35.1,98.1c-5.6,2.4-18.4,7.2-20.4-6.1l0.4-6.7c0.2-3.3-1.5-5.7,0.8-12s2.4-6.4,13.6-6  c10.3,0.3,5.3,16.3,7.2,27.1C36.7,95.5,36,97.7,35.1,98.1z"
     id="path46" /><g
     class="st7"
     id="g50"><path
       d="M37.2,97.2c3.2-0.7-20.2,10.3-22.5-5.2l0.3-6.6c0.2-3.3-1.5-5.7,0.8-12s8.8-7.3,13.6-6C14.6,68.3,21,99.3,37.2,97.2z"
       id="path48" /></g></svg>