<?xml version="1.0" encoding="utf-8"?>
<!-- Generator: Adobe Illustrator 22.0.1, SVG Export Plug-In . SVG Version: 6.00 Build 0)  -->
<svg version="1.1" id="Layer_1" xmlns="http://www.w3.org/2000/svg" xmlns:xlink="http://www.w3.org/1999/xlink" x="0px" y="0px"
	 viewBox="0 0 160 160" style="enable-background:new 0 0 160 160;" xml:space="preserve">
<style type="text/css">
	.st0{fill:#303030;}
	.st1{fill:#FFE000;}
	.st2{opacity:0.5;fill:#FFFFFF;enable-background:new    ;}
	.st3{fill:#D8D8D8;}
	.st4{fill:#FFFFFF;}
	.st5{opacity:5.000000e-02;}
	.st6{opacity:0.16;}
</style>
<title>Artboard 42 copy 200</title>
<path class="st0" d="M34.5,116.9L32.9,104l2-0.4l1.5,13C36.4,116.6,36,118.6,34.5,116.9z"/>
<polygon class="st1" points="28.9,51.2 32,56.2 37.9,56.4 34.2,60.9 35.7,66.5 30.3,64.3 25.5,67.6 25.8,61.8 21.2,58.2 26.9,56.7 
	"/>
<path class="st2" d="M30.1,55.9l0.9,1.4c0.1,0.2,0.4,0.3,0.6,0.3l1.6,0.1c0.4,0,0.7,0.4,0.7,0.8c0,0.2-0.1,0.3-0.2,0.5l-1,1.3
	c-0.2,0.2-0.2,0.4-0.2,0.7l0.4,1.6c0.1,0.4-0.1,0.8-0.5,0.9c-0.2,0-0.3,0-0.5,0l-1.5-0.6c-0.2-0.1-0.5-0.1-0.7,0.1l-1.4,0.9
	c-0.3,0.2-0.8,0.1-1.1-0.2c-0.1-0.1-0.1-0.3-0.1-0.5l0.1-1.6c0-0.3-0.1-0.5-0.3-0.7l-1.3-1c-0.3-0.2-0.4-0.7-0.2-1.1
	c0.1-0.1,0.3-0.2,0.4-0.3l1.6-0.4c0.2-0.1,0.4-0.2,0.5-0.5l0.6-1.5c0.1-0.4,0.6-0.6,1-0.5C29.8,55.6,30,55.7,30.1,55.9z"/>
<path class="st3" d="M46.8,71.7c1.6,2.3,2,5.1,1.2,7.7l-0.4,2l4.3,0.1c3,0.9,3.2,8,0.6,10.2c-1.1,0.6-2.1,1.4-3,2.2
	c-0.9,1.2-5.2,5.2-8.4,6.3c-0.6,0.2-1.8,0.8-3.3,1.4c-6,2.4-17.4,5.9-19.3-6.5l0.3-6.6c0.2-3.3-1.5-5.7,0.8-12s8.8-7.3,13.6-6
	c0,0,0.8,0.5,2.4-1.7S43.9,65.5,46.8,71.7z"/>
<path class="st4" d="M39.1,101.1c-5.6,2.4-18.4,7.2-20.4-6.1l0.4-6.7c0.2-3.3-1.5-5.7,0.8-12s2.4-6.4,13.6-6
	c10.3,0.3,5.3,16.3,7.2,27.1C40.7,98.5,40,100.7,39.1,101.1z"/>
<g class="st5">
	<path d="M41.2,100.2c3.2-0.7-20.2,10.3-22.5-5.2l0.3-6.6c0.2-3.3-1.5-5.7,0.8-12s8.8-7.3,13.6-6C18.6,71.3,25,102.3,41.2,100.2z"/>
</g>
<g class="st6">
	<path d="M52.6,91.9c0,0-8.3,7.2-11.4,8.4c-2.7,1-16.2,8.1-21-0.5c-0.6-1.5-1.2-3.1-1.5-4.7c0.9,2.2,5.7,4.2,10.6,4.3
		c6.6,0.3,11.2-4.3,15.3-3.6C47.1,94.2,49.8,92.9,52.6,91.9z"/>
</g>
</svg>
