<svg xmlns="http://www.w3.org/2000/svg" viewBox="0 0 160 160">
  <g fill="#42210b">
    <path d="M54.7 74.4s-11.6-.4-13.3-2.7-5.8 6.4-5.8 6.4-4.7 4.7-8.5 4.4a60.8 60.8 0 01-11.3-5.8l9.8 10.7 9.3.6 2.5-2.4-1.7 8.5 1.7 9.1.6-9 5.5-12.7 4.7.3 2.1 3.2 2.3.2c.2.1 5.1-3.5 2.1-10.8z"/>
    <path d="M119.1 76.2s6.8 4.7 10.5 4.4c2.4-.2 11.4-5.8 11.4-5.8l-9.8 10.7-9.3.6-2.5-2.4 1.7 8.5-1.7 9.1-.6-9-1-2.4a45.3 45.3 0 001.3-13.7z"/>
  </g>
  <g fill="#010101" opacity=".7">
    <path d="M141.2 74.8l-9.8 10.7-9.3.6-2.5-2.4 1.7 8.5-1.7 9.1-.6-9-1.1-2.4 1.4-8.4 6.3 1.9c5.6.5 10.6-3.9 15.6-8.6z"/>
    <path d="M15.6 76.8l9.8 10.7 9.3.6 2.5-2.4-1.7 8.5 1.7 9.1.6-9 5.5-12.7 4.7.3 2.1 3.2 2.3.2a8.4 8.4 0 002.9-5.8c0-.5-13.1-1.5-13.1-1.5l-11 7.5c-5.6.4-10.6-4-15.6-8.7z"/>
  </g>
  <path d="M26.8 61.1s-2.6 17.7 10.6 16.2c0 0 10.3-9.4-10.6-16.2z"/>
  <path d="M33 112.7s12.5-6.6 5.4-14.4c-.1.1-10.9-2.1-5.4 14.4z"/>
  <path d="M26.3 96s11.1 4.6 12.3-4.3c.1.1-4.4-8.2-12.3 4.3z"/>
  <path d="M11.1 76.8s7.6 11 14.1 3.4c0 0 .8-10.4-14.1-3.4z"/>
  <path d="M129.2 63.1s2 13.5-8.1 12.4c0 0-7.9-7.2 8.1-12.4z"/>
  <path d="M130.5 94s-11.1 4.6-12.3-4.3c0 .1 4.4-8.2 12.3 4.3z"/>
  <path d="M146.9 74.6s-8.2 11.8-15.2 3.7c0 0-.9-11.2 15.2-3.7z"/>
  <g fill="#010101" opacity=".2">
    <path d="M26.8 61.1s-2.6 17.7 10.6 16.2L26.8 61.1z"/>
    <path d="M33 112.7s12.5-6.6 5.4-14.4L33 112.7z"/>
    <path d="M26.3 96s11.1 4.6 12.3-4.3L26.3 96z"/>
    <path d="M11.1 76.8s7.6 11 14.1 3.4l-14.1-3.4z"/>
    <path d="M129.2 63.1s2 13.5-8.1 12.4l8.1-12.4z"/>
    <path d="M130.5 94s-11.1 4.6-12.3-4.3l12.3 4.3z"/>
    <path d="M146.9 74.6s-8.2 11.8-15.2 3.7l15.2-3.7z"/>
  </g>
</svg>
