<?xml version="1.0" encoding="UTF-8" standalone="no"?>
<!-- Generator: Adobe Illustrator 22.0.1, SVG Export Plug-In . SVG Version: 6.00 Build 0)  -->

<svg
   xmlns:dc="http://purl.org/dc/elements/1.1/"
   xmlns:cc="http://creativecommons.org/ns#"
   xmlns:rdf="http://www.w3.org/1999/02/22-rdf-syntax-ns#"
   xmlns:svg="http://www.w3.org/2000/svg"
   xmlns="http://www.w3.org/2000/svg"
   xmlns:sodipodi="http://sodipodi.sourceforge.net/DTD/sodipodi-0.dtd"
   xmlns:inkscape="http://www.inkscape.org/namespaces/inkscape"
   version="1.1"
   id="Layer_1"
   x="0px"
   y="0px"
   viewBox="0 0 160 160"
   style="enable-background:new 0 0 160 160;"
   xml:space="preserve"
   sodipodi:docname="side_04.svg"
   inkscape:version="0.92.2 (5c3e80d, 2017-08-06)"><metadata
     id="metadata37"><rdf:RDF><cc:Work
         rdf:about=""><dc:format>image/svg+xml</dc:format><dc:type
           rdf:resource="http://purl.org/dc/dcmitype/StillImage" /></cc:Work></rdf:RDF></metadata><defs
     id="defs35" /><sodipodi:namedview
     pagecolor="#ffffff"
     bordercolor="#666666"
     borderopacity="1"
     objecttolerance="10"
     gridtolerance="10"
     guidetolerance="10"
     inkscape:pageopacity="0"
     inkscape:pageshadow="2"
     inkscape:window-width="1920"
     inkscape:window-height="976"
     id="namedview33"
     showgrid="false"
     inkscape:zoom="5.9"
     inkscape:cx="93.310416"
     inkscape:cy="72.935089"
     inkscape:window-x="0"
     inkscape:window-y="27"
     inkscape:window-maximized="1"
     inkscape:current-layer="Layer_1" /><style
     type="text/css"
     id="style2">
	.st0{fill:#FF3333;}
	.st1{opacity:0.16;}
	.st2{opacity:0.1;}
	.st3{opacity:0.3;}
</style><title
     id="title4">Artboard 42 copy 197</title><path
     class="st0"
     d="M117.1,68.1c1.9,1.6,2.9,12,1,20.9c0,0,4.7,3.2,6.9,3.7c0.6,0.1,1.7,0.5,3,0.9c5.6,1.5,16,3.4,16.3-7.8l-1-5.8  c-0.5-2.9,0.8-5.2-2-10.5s-8.5-5.5-12.6-3.9c0,0-0.6,0.6-2.3-1.2S119.1,62.3,117.1,68.1z"
     id="path6"
     style="fill:#000000;fill-opacity:1" /><g
     class="st1"
     id="g10"
     style="fill:#010101;fill-opacity:1"><path
       d="M117.1,68.1c1.9,1.6,2.9,12,1,20.9c0,0,4.7,3.2,6.9,3.7c0.6,0.1,1.7,0.5,3,0.9c-2.6-0.1-3.5-5.1-3-5.3   c0-7.6-1.4-12.5-1.3-17.8c0.2-2.7,2.3-4.8,5-4.9c0,0-0.6,0.6-2.3-1.2S119.1,62.3,117.1,68.1z"
       id="path8"
       style="fill:#010101;fill-opacity:1" /></g><g
     class="st2"
     id="g16"
     style="fill:#010101;fill-opacity:1"><path
       d="M125.1,92.7c-3-0.3,18.9,7,19.4-6.9l-1-5.8c-0.5-2.9,0.8-5.2-2-10.5s-8.5-5.5-12.6-3.9C142,64.8,139.6,92.8,125.1,92.7z"
       id="path14"
       style="fill:#010101;fill-opacity:1" /></g><g
     class="st3"
     id="g20"
     style="fill:#010101;fill-opacity:1"><path
       d="M118.5,89.3c0,0,5.1,3,6.6,3.3c2.5,0.6,15.1,5.5,18.5-2.6c0.4-1.4,0.7-2.9,0.9-4.3c-0.6,2.1-4.6,4.3-8.9,4.9   c-5.8,1-10.4-2.7-13.9-1.6c-1-0.5-2.8-1.2-2.8-1.2L118.5,89.3z"
       id="path18"
       style="fill:#010101;fill-opacity:1" /></g><path
     class="st0"
     d="M26.3,68.7c-1.6,2.2-2.1,5-1.3,7.6l0.3,2c0,0-10.1-1.8-9,6.2c0.1,0.7,0.2,1.4,0.3,2.1c1,6.6,2,9.6,6.4,11.6  c4.8,2.2,5-2.4,8.1-1.2s19.7,10.7,22.4-4.5L53.3,86c-0.1-3.3,1.7-5.6-0.5-11.9s-8.5-7.4-13.3-6.3c0,0-0.8,0.5-2.3-1.7  S29.4,62.7,26.3,68.7z"
     id="path22"
     style="fill:#000000;fill-opacity:1" /><g
     class="st2"
     id="g26"
     style="fill:#010101;fill-opacity:1"><path
       d="M31,97c-3.2-0.8,19.7,10.7,22.4-4.5L53.3,86c-0.1-3.3,1.7-5.6-0.5-11.9s-8.5-7.4-13.3-6.3C54.1,69.1,47,99.6,31,97z"
       id="path24"
       style="fill:#010101;fill-opacity:1" /></g><g
     class="st3"
     id="g30"
     style="fill:#010101;fill-opacity:1"><path
       d="M19,95.1c1.2,1.3,2.5,2.3,4,3.1c4.8,2.2,5-2.4,8.1-1.2c2.7,1,15.7,8.5,20.8,0.1c0.7-1.5,1.2-3,1.6-4.6c-1,2.2-5.8,4-10.5,4   c-6.6,0.1-11-4.6-15-4C21.4,96,19,95.1,19,95.1z"
       id="path28"
       style="fill:#010101;fill-opacity:1" /></g></svg>