<?xml version="1.0" encoding="UTF-8" standalone="no"?>
<!-- Generator: Adobe Illustrator 22.0.1, SVG Export Plug-In . SVG Version: 6.00 Build 0)  -->

<svg
   xmlns:dc="http://purl.org/dc/elements/1.1/"
   xmlns:cc="http://creativecommons.org/ns#"
   xmlns:rdf="http://www.w3.org/1999/02/22-rdf-syntax-ns#"
   xmlns:svg="http://www.w3.org/2000/svg"
   xmlns="http://www.w3.org/2000/svg"
   xmlns:sodipodi="http://sodipodi.sourceforge.net/DTD/sodipodi-0.dtd"
   xmlns:inkscape="http://www.inkscape.org/namespaces/inkscape"
   version="1.1"
   id="Layer_1"
   x="0px"
   y="0px"
   viewBox="0 0 160 160"
   style="enable-background:new 0 0 160 160;"
   xml:space="preserve"
   sodipodi:docname="side_08.svg"
   inkscape:version="0.92.2 (5c3e80d, 2017-08-06)"><metadata
     id="metadata29"><rdf:RDF><cc:Work
         rdf:about=""><dc:format>image/svg+xml</dc:format><dc:type
           rdf:resource="http://purl.org/dc/dcmitype/StillImage" /></cc:Work></rdf:RDF></metadata><defs
     id="defs27" /><sodipodi:namedview
     pagecolor="#ffffff"
     bordercolor="#666666"
     borderopacity="1"
     objecttolerance="10"
     gridtolerance="10"
     guidetolerance="10"
     inkscape:pageopacity="0"
     inkscape:pageshadow="2"
     inkscape:window-width="1920"
     inkscape:window-height="976"
     id="namedview25"
     showgrid="false"
     inkscape:zoom="8.34386"
     inkscape:cx="42.513733"
     inkscape:cy="103.97955"
     inkscape:window-x="0"
     inkscape:window-y="27"
     inkscape:window-maximized="1"
     inkscape:current-layer="Layer_1" /><style
     type="text/css"
     id="style2">
	.st0{fill:#303030;}
	.st1{fill:#FFE000;}
	.st2{opacity:0.5;fill:#FFFFFF;enable-background:new    ;}
	.st3{fill:#D8D8D8;}
	.st4{fill:#FFFFFF;}
	.st5{opacity:5.000000e-02;}
	.st6{opacity:0.16;}
</style><title
     id="title4">Artboard 42 copy 200</title><path
     class="st0"
     d="M34.5,116.9L32.9,104l2-0.4l1.5,13C36.4,116.6,36,118.6,34.5,116.9z"
     id="path6" /><path
     class="st3"
     d="M46.8,71.7c1.6,2.3,2,5.1,1.2,7.7l-0.4,2l4.3,0.1c3,0.9,3.2,8,0.6,10.2c-1.1,0.6-2.1,1.4-3,2.2  c-0.9,1.2-5.2,5.2-8.4,6.3c-0.6,0.2-1.8,0.8-3.3,1.4c-6,2.4-17.4,5.9-19.3-6.5l0.3-6.6c0.2-3.3-1.5-5.7,0.8-12s8.8-7.3,13.6-6  c0,0,0.8,0.5,2.4-1.7S43.9,65.5,46.8,71.7z"
     id="path12" /><path
     class="st4"
     d="M39.1,101.1c-5.6,2.4-18.4,7.2-20.4-6.1l0.4-6.7c0.2-3.3-1.5-5.7,0.8-12s2.4-6.4,13.6-6  c10.3,0.3,5.3,16.3,7.2,27.1C40.7,98.5,40,100.7,39.1,101.1z"
     id="path14" /><g
     class="st5"
     id="g18"><path
       d="M41.2,100.2c3.2-0.7-20.2,10.3-22.5-5.2l0.3-6.6c0.2-3.3-1.5-5.7,0.8-12s8.8-7.3,13.6-6C18.6,71.3,25,102.3,41.2,100.2z"
       id="path16" /></g><g
     class="st6"
     id="g22"><path
       d="M52.6,91.9c0,0-8.3,7.2-11.4,8.4c-2.7,1-16.2,8.1-21-0.5c-0.6-1.5-1.2-3.1-1.5-4.7c0.9,2.2,5.7,4.2,10.6,4.3   c6.6,0.3,11.2-4.3,15.3-3.6C47.1,94.2,49.8,92.9,52.6,91.9z"
       id="path20" /></g><polygon
     class="st1"
     points="32,56.2 37.9,56.4 34.2,60.9 35.7,66.5 30.3,64.3 25.5,67.6 25.8,61.8 21.2,58.2 26.9,56.7 28.9,51.2 "
     id="polygon8"
     style="fill:#000000;fill-opacity:1"
     transform="matrix(1.4465645,0,0,1.4547334,-13.195981,-27.011162)" /><path
     class="st2"
     d="m 30.34561,54.308433 1.301909,2.036627 c 0.144656,0.290947 0.578625,0.43642 0.867938,0.43642 l 2.314503,0.145473 c 0.578626,0 1.012596,0.581894 1.012596,1.163787 0,0.290947 -0.144657,0.43642 -0.289313,0.727367 l -1.446565,1.891153 c -0.289313,0.290947 -0.289313,0.581893 -0.289313,1.018313 l 0.578626,2.327574 c 0.144657,0.581893 -0.144656,1.163786 -0.723282,1.30926 -0.289313,0 -0.43397,0 -0.723282,0 l -2.169847,-0.87284 c -0.289313,-0.145474 -0.723282,-0.145474 -1.012595,0.145473 l -2.025191,1.30926 c -0.433969,0.290947 -1.157251,0.145473 -1.591221,-0.290947 -0.144656,-0.145473 -0.144656,-0.43642 -0.144656,-0.727366 l 0.144656,-2.327574 c 0,-0.43642 -0.144656,-0.727366 -0.433969,-1.018313 L 23.83607,60.127367 c -0.433969,-0.290947 -0.578626,-1.018314 -0.289313,-1.600207 0.144657,-0.145473 0.43397,-0.290947 0.578626,-0.43642 l 2.314503,-0.581893 c 0.289313,-0.145474 0.578626,-0.290947 0.723283,-0.727367 l 0.867938,-2.1821 c 0.144657,-0.581893 0.867939,-0.87284 1.446565,-0.727367 0.433969,0 0.723282,0.145474 0.867938,0.43642 z"
     id="path10"
     inkscape:connector-curvature="0"
     style="opacity:0.5;fill:#ffffff;stroke-width:1.45064318;enable-background:new" /></svg>