<svg xmlns="http://www.w3.org/2000/svg" viewBox="0 0 160 160">
  <path d="M42 66.5c-2.1-4-6.6-6.2-11-5.5-8 1-10 4-12 9s7 17 7 17l6 6c1 1 0 7 4 9s13 0 13-4-4-5-5-18l1-9-3-4.5z" fill="#0f0"/>
  <path d="M114 61.1s14.3-7.4 19.7-1c5.4 6.4-5.5 18.1-5.5 24.5 0 6.4.5 9.3-5.3 12.1-7.1 3.5-6.8-.7-6.8-.7-1.1 0 6.6-19-2.1-34.9z" fill="#0f0"/>
  <path d="M44 74c-1-2-6-7-12-4s-3 10 1 14c2.3 2.3 4.8 4.5 7.4 6.5L44 92s3-1 0-5c-2.1-2.9-.9-5.8.1-7.6l.8-1.5C45 77 45 76 44 74z"/>
  <path d="M118 69.7c.5-2 3.6-6.7 7.3-3.8 3.7 2.8 1.9 9.6-.6 13.4-1.4 2.2-3.2 5-4.6 6.2-.7.6-2.5 1.3-2.5 1.3s.3-1.5.5-4.6a48.6 48.6 0 00-.4-9.7c-.1-1.3-.3-1.6.2-2.8z"/>
  <g opacity=".1">
    <path d="M42 66.5c-2.1-4-6.6-6.2-11-5.5 13 4 14 32 13 19l1-9-3-4.5z"/>
  </g>
  <g fill="#010101">
    <g opacity=".1">
      <path d="M31 61c-8 1-10 4-12 9s7 17 7 17l6 6c1 1 0 7 4 9 1.8 1 6.6 1.1 10.2-.6 3.7-1.8 3-3.9 2.1-6.3 1 4.7-12.5 8.3-13.6.6C33.8 89.7 22 80.2 22 73c0-8 4.9-8.9 9-12z"/>
      <path d="M118.6 59.2s9.9-1.4 11.6 4.4c2 6.7-3.8 11.7-4.8 16.7S125 87 124 92c-.4 2.8-2.4 5-5.1 5.9 0 0 9.7-1.1 9.3-9.6-.4-7.7 1.9-10.2 3.7-13.9 1.8-3.6 5-8.9 2.1-13.8-2.6-4.7-12-2.7-15.4-1.4z"/>
    </g>
    <g opacity=".2">
      <path d="M44 74c-1.5-2.4-6.1-6.8-12-4-6 3-3 10 1 14 2.3 2.3 4.8 4.5 7.4 6.5L44 92c-13-7.2-19.2-27.2 0-18z"/>
      <path d="M44 74c-.2-.5-5.5-7.4-12-4-5.9 3-3 10 1 14 2.3 2.3 5.3 5.3 7.4 6.5 1.2.7 4.1 1.3 4.1 1.3-13.3-7-19.7-27-.5-17.8z" transform="matrix(-.6159 0 0 .95926 145 -1.3)"/>
    </g>
    <g opacity=".5">
      <path d="M39 75c-2 0-4 3-2 6s6 3 6 3-1-.9.5-3.5S41 75 39 75z"/>
      <path d="M39 75c-2 0-4 3-2 6s6.5 3 6.5 3 0-2 .2-3.7C44.3 77.5 41 75 39 75z" transform="matrix(-.6159 0 0 .95926 145 -1.3)"/>
    </g>
  </g>
</svg>
