<svg xmlns="http://www.w3.org/2000/svg" viewBox="0 0 160 160">
  <path d="M42.8 68.7c1.6 2.3 2 5.1 1.2 7.7l-.4 2 4.3.1c3 .9 3.2 8 .6 10.2-1.1.6-2.1 1.4-3 2.2a25 25 0 01-8.4 6.3l-3.3 1.4c-6 2.4-17.4 5.9-19.3-6.5l.3-6.6c.2-3.3-1.5-5.7.8-12s8.8-7.3 13.6-6c0 0 .8.5 2.4-1.7s8.3-3.3 11.2 2.9z" fill="#d8d8d8"/>
  <path d="M48.6 88.9s-8.3 7.2-11.4 8.4c-2.7 1-16.2 8.1-21-.5-.6-1.5-1.2-3.1-1.5-4.7.9 2.2 5.7 4.2 10.6 4.3 6.6.3 11.2-4.3 15.3-3.6 2.5-1.6 5.2-2.9 8-3.9z" fill="#010101" opacity=".16"/>
  <g fill="none" stroke="#000" stroke-width=".5" stroke-linecap="round" stroke-linejoin="round">
    <path d="M41 22l-16 9"/>
    <path d="M49 57L27 70"/>
    <path d="M46 27L19 42"/>
    <path d="M48 34L16 52"/>
    <path d="M41 71L28.5 27"/>
    <path d="M45 65L32 20"/>
    <path d="M35 72L24 34"/>
    <path d="M49 58L37 17"/>
    <path d="M28 68l-8-28"/>
    <path d="M50 41L18 59"/>
    <path d="M53 47L21 65"/>
  </g>
  <path d="M52.5 35.5c-1.7-9.2-9.7-17.8-17.9-19.4C33 15.8 20 41 12.3 53.5a50 50 0 009.2 15c9 14 11 15 12 28l1 12s-1 0-1 2 2 3 4 3 4-1 4-3a2 2 0 00-2-2l-1-12s-.6-20.2 8-31c8.5-10.6 8-19 6-30zm-18 48l-5-11s3 4 9 0l-4 11zm-.1-15c-8.9.7-17.1-8.5-18.9-20.9C22 36 30 23 31.7 19.5c8.9.3 16.6 10.3 17.7 23.1 1.2 13.5-5.6 25.1-15 25.9z"/>
  <g fill="#010101" opacity=".1">
    <path d="M34 16.4c3.2.2 5.8 2.5 8 4.6 6 6 8 10 9 21s-3.5 20.5-7.5 24.5-14 6-14 6a8 8 0 005 1c1.4-.3 2.8-.8 4.1-1.4l2.9 2.4c1.6-3.5 3.5-6.9 5.8-10a29 29 0 006.4-19.4c-.3-9-3-24.6-19.2-29z"/>
    <path d="M37 103.5l.5 7s.7 2.2-1.1 2.6 6.1.4 5.1-2.6a2 2 0 00-2-2l-.4-4.8-2.1-.2z"/>
  </g>
  <path d="M35.1 98.1c-5.6 2.4-18.4 7.2-20.4-6.1l.4-6.7c.2-3.3-1.5-5.7.8-12s2.4-6.4 13.6-6c10.3.3 5.3 16.3 7.2 27.1 0 1.1-.7 3.3-1.6 3.7z" fill="#fff"/>
  <path d="M37.2 97.2c3.2-.7-20.2 10.3-22.5-5.2l.3-6.6c.2-3.3-1.5-5.7.8-12s8.8-7.3 13.6-6c-14.8.9-8.4 31.9 7.8 29.8z" opacity=".05"/>
</svg>
