<svg xmlns="http://www.w3.org/2000/svg" viewBox="0 0 160 160">
  <path d="M117.1 68.1c1.9 1.6 2.9 12 1 20.9 0 0 4.7 3.2 6.9 3.7l3 .9c5.6 1.5 16 3.4 16.3-7.8l-1-5.8c-.5-2.9.8-5.2-2-10.5s-8.5-5.5-12.6-3.9c0 0-.6.6-2.3-1.2s-7.3-2.1-9.3 3.7z"/>
  <path d="M26.3 68.7a8.6 8.6 0 00-1.3 7.6l.3 2s-10.1-1.8-9 6.2l.3 2.1c1 6.6 2 9.6 6.4 11.6 4.8 2.2 5-2.4 8.1-1.2s19.7 10.7 22.4-4.5l-.2-6.5c-.1-3.3 1.7-5.6-.5-11.9s-8.5-7.4-13.3-6.3c0 0-.8.5-2.3-1.7s-7.8-3.4-10.9 2.6z"/>
  <g fill="#010101">
    <path d="M117.1 68.1c1.9 1.6 2.9 12 1 20.9 0 0 4.7 3.2 6.9 3.7l3 .9c-2.6-.1-3.5-5.1-3-5.3 0-7.6-1.4-12.5-1.3-17.8a5.2 5.2 0 015-4.9s-.6.6-2.3-1.2-7.3-2.1-9.3 3.7z" opacity=".16"/>
    <g opacity=".3">
      <path d="M118.5 89.3s5.1 3 6.6 3.3c2.5.6 15.1 5.5 18.5-2.6.4-1.4.7-2.9.9-4.3-.6 2.1-4.6 4.3-8.9 4.9-5.8 1-10.4-2.7-13.9-1.6l-2.8-1.2-.4 1.5z"/>
      <path d="M19 95.1c1.2 1.3 2.5 2.3 4 3.1 4.8 2.2 5-2.4 8.1-1.2 2.7 1 15.7 8.5 20.8.1a25 25 0 001.6-4.6c-1 2.2-5.8 4-10.5 4-6.6.1-11-4.6-15-4-6.6 3.5-9 2.6-9 2.6z"/>
    </g>
    <g opacity=".1">
      <path d="M125.1 92.7c-3-.3 18.9 7 19.4-6.9l-1-5.8c-.5-2.9.8-5.2-2-10.5s-8.5-5.5-12.6-3.9c13.1-.8 10.7 27.2-3.8 27.1z"/>
      <path d="M31 97c-3.2-.8 19.7 10.7 22.4-4.5l-.1-6.5c-.1-3.3 1.7-5.6-.5-11.9s-8.5-7.4-13.3-6.3C54.1 69.1 47 99.6 31 97z"/>
    </g>
  </g>
</svg>
