<?xml version="1.0" encoding="UTF-8" standalone="no"?>
<svg
   xmlns:dc="http://purl.org/dc/elements/1.1/"
   xmlns:cc="http://creativecommons.org/ns#"
   xmlns:rdf="http://www.w3.org/1999/02/22-rdf-syntax-ns#"
   xmlns:svg="http://www.w3.org/2000/svg"
   xmlns="http://www.w3.org/2000/svg"
   xmlns:sodipodi="http://sodipodi.sourceforge.net/DTD/sodipodi-0.dtd"
   xmlns:inkscape="http://www.inkscape.org/namespaces/inkscape"
   id="Layer_1"
   data-name="Layer 1"
   viewBox="0 0 160 160"
   version="1.1"
   sodipodi:docname="side_20.svg"
   inkscape:version="0.92.2 (5c3e80d, 2017-08-06)">
  <metadata
     id="metadata40">
    <rdf:RDF>
      <cc:Work
         rdf:about="">
        <dc:format>image/svg+xml</dc:format>
        <dc:type
           rdf:resource="http://purl.org/dc/dcmitype/StillImage" />
      </cc:Work>
    </rdf:RDF>
  </metadata>
  <sodipodi:namedview
     pagecolor="#ffffff"
     bordercolor="#666666"
     borderopacity="1"
     objecttolerance="10"
     gridtolerance="10"
     guidetolerance="10"
     inkscape:pageopacity="0"
     inkscape:pageshadow="2"
     inkscape:window-width="1920"
     inkscape:window-height="976"
     id="namedview38"
     showgrid="false"
     inkscape:zoom="2.95"
     inkscape:cx="-15.812647"
     inkscape:cy="115.87627"
     inkscape:window-x="0"
     inkscape:window-y="27"
     inkscape:window-maximized="1"
     inkscape:current-layer="Layer_1" />
  <defs
     id="defs13">
    <style
       id="style2">.cls-1{fill:#fff;}.cls-2{opacity:0.1;}</style>
  </defs>
  <title
     id="title15">Artboard 42 copy 210</title>
  <path
     class="cls-1"
     d="M46.46,73.93a6.81,6.81,0,0,1-5.46-3C38,66.08,25,60,20,60s3,8.51,3,8.51,0,1.21,2,2.43,4,1.22,2,1.22-3,0-2,2.43S29,77,29,83.1,19,96.47,21,97.68s7-1.21,11-4.86,8-13.37,14-12.15C51,80,49.3,74.19,46.46,73.93Z"
     id="path17" />
  <g
     class="cls-2"
     id="g21">
    <path
       d="M34,84.1C31,91,19,96.47,21,97.68s7-1.21,11-4.86,8-13.37,14-12.15c3.34-.45,3.69-3.19,2.71-5a2,2,0,0,0-1.87-1.07C49,79,36,78,34,84.1Z"
       id="path19" />
  </g>
  <path
     d="m 28,66 c 0,0 5,0 10,5 5,5 2,6 2,6 0,0 -7,2 -8,7 -1,5 3,-14 -4,-18 z"
     id="path23"
     style="fill-opacity:0.09607843"
     inkscape:connector-curvature="0" />
  <path
     class="cls-1"
     d="M53.36,81.57s19.2,4.68,15.58,6.19-20.66,6.53-29.12,1.57S38.59,92,53.36,81.57Z"
     id="path25" />
  <path
     d="m 53.62,81.5 11.89,3.36 c -7.42,2.23 -16,3 -25.34,2.9 0,0 7.91,-2.35 13.45,-6.26 z"
     id="path27"
     style="fill-opacity:0.11372549"
     inkscape:connector-curvature="0" />
  <path
     class="cls-1"
     d="M119.39,80.38c-.48,4.17-1.11,8-2.32,10.45,0,0,16.66-3.87,20.81-8.46C145,74.54,140.46,84.37,119.39,80.38Z"
     id="path29" />
  <path
     class="cls-5"
     d="m 119.07,80.42 -0.8,6 c 0,0 12.17,-3.12 18.51,-5.41 0,-0.01 -9.78,0.9 -17.71,-0.59 z"
     id="path31"
     style="fill-opacity:0.09607843"
     inkscape:connector-curvature="0" />
  <g
     class="cls-2"
     id="g35">
    <path
       d="M65.6,85.13s4.7,2.06,3.34,2.63c-3.62,1.52-20.66,6.53-29.12,1.57-1.52-.89-3.09-1.63-3.09-1.63C44.11,91.83,69.8,86.19,65.6,85.13Z"
       id="path33" />
  </g>
</svg>
