<?xml version="1.0" encoding="utf-8"?>
<!-- Generator: Adobe Illustrator 22.0.1, SVG Export Plug-In . SVG Version: 6.00 Build 0)  -->
<svg version="1.1" id="Layer_1" xmlns="http://www.w3.org/2000/svg" xmlns:xlink="http://www.w3.org/1999/xlink" x="0px" y="0px"
	 viewBox="0 0 160 160" style="enable-background:new 0 0 160 160;" xml:space="preserve">
<style type="text/css">
	.st0{fill:#FFFFFF;}
	.st1{opacity:5.000000e-02;}
</style>
<title>Artboard 42 copy 208</title>
<path class="st0" d="M116.4,96.2c-2.7,7.8,12.8-0.3,12.5-1.2c-0.9-0.9-4.2-1.2-4.2-1.2c2.2,0,4.4-0.2,6.5-0.6
	c3.6-0.6,5.6-3.3,5.3-4.2s-5.3-1.2-5.3-1.2c2.4,0,4.8-0.4,7.1-1.2c3-1.2,4.8-3.6,3.6-4.2c-1-0.4-2-0.6-3-0.6c3.3-0.3,7.1-3,7.7-4.8
	s-2.4-0.6-2.4-0.6c-7.1,1.2-16.9-3.9-16.9-3.9s-0.6-3-2.4-3.6s-2.4-0.6-4.2,2.4c-0.4,0.6-1,1.2-1.6,1.7l-0.5,0.4
	C119.5,81.3,118.7,89,116.4,96.2z"/>
<path class="st0" d="M43.8,97.3c-7.9,3.9-13-0.4-12.7-1.4c0.9-1.1,4.2-1.4,4.2-1.4c-2.2,0-4.5-0.3-6.6-0.7c-3.6-0.7-5.7-3.9-5.4-5
	s5.4-1.4,5.4-1.4c-2.5,0-4.9-0.5-7.2-1.4c-3-1.4-4.8-4.3-3.6-5c0.9-0.5,2-0.7,3-0.7c-3.3-0.4-7.2-3.6-7.8-5.7s2.4-0.7,2.4-0.7
	c7.2,1.4,17.2-4.6,17.2-4.6s0.6-3.6,2.4-4.3s2.4-0.7,4.2,2.8S52,77.1,52,77.1l5.5,1.4c0,0,6-1,3,2s-4,2-6,4S52.2,93.2,43.8,97.3z"/>
<g class="st1">
	<path d="M53,82c0,0-12-4-16-7s-18,1-18,1s6,4,11,4l-8,2c0,0,7,6,13,5l-7,3c3.5,2.5,7.9,3.2,12,2l-3,4c0,0,7,3,13-7S57,82,53,82z"/>
</g>
<g class="st1">
	<path d="M119.2,79.2c1.5-0.6,2.9-1.4,4.2-2.3c3.6-2.7,16,0.9,16,0.9s-5.3,3.6-9.8,3.6l7.1,1.8c0,0-6.2,5.3-11.6,4.4l6.2,2.7
		c-3.1,2.2-7,2.8-10.7,1.8l2.7,3.6c-2.1,0.7-4.5,0.4-6.4-0.8C119,89,119,86,119.2,79.2z"/>
</g>
</svg>
