<svg xmlns="http://www.w3.org/2000/svg" viewBox="0 0 160 160">
  <path d="M30 71s6-5 10 2-1 12.1-1 12.1 11.1 15.3 19.2 16.2c0 0 3.3-4.9 10.2-1.5 7 3.4 3.8 9.5 3.8 9.5s-2 4-9 4-24.1-13-30.1-25C27 76.1 29 73 30 71z"/>
  <path d="M30 71s6-5 10 2-1 12.1-1 12.1 11.1 15.3 19.2 16.2c0 0 3.3-4.9 10.2-1.5 7 3.4 3.8 9.5 3.8 9.5-4.3-7.5-7.8-6.7-15.2-6.2-12-3.2-21.6-14.4-20-16.8 0 0 5.3-14.6-7-15.3z" opacity=".2" fill="#010101"/>
  <g fill="none" stroke="#fff" stroke-width="2" stroke-linecap="round" stroke-linejoin="round">
    <path d="M26.7 55.6a22 22 0 00-9.7 13"/>
    <path d="M30 59.2a17.9 17.9 0 00-7.9 10.7" opacity=".6"/>
  </g>
</svg>
