<svg xmlns="http://www.w3.org/2000/svg" viewBox="0 0 160 160">
  <path d="M137.1 64.3s7.2 6.3 6.3 15.2c0 0-1.8 9.2-2.4 10.5s-3.1 8.7-9.1 9.9l-4.1.5c-.8 1.3-1.8 2.4-3 3.3-2.4 2-6.6 2.5-7.8 1.9s-.6 1.3-1.9.7l-4.6-1.6c5-5.8 7.9-13.1 8.7-22.8l1.2-1.2 5.7-7.5c2.1-2.9 6.8-4.7 7.7-5.1 0 0-5.1 6.2-3.5 7.7s4.4.4 4.4.4 4.1-.3 2.4-11.9z"/>
  <path d="M19.9 64.3s-7.2 6.3-6.3 15.2c0 0 1.8 9.2 2.4 10.5s3.1 8.7 9.1 9.9l4.1.5c.8 1.3 1.8 2.4 3 3.3 2.5 2 6.5 2.5 7.8 1.9s.6 1.3 1.9.7 7-1.6 8.1-4.4c.6-1.7.6-3.7-.1-5.4 0 0-4.1-.5-5.7 1 0 0-.8-3.5-4.3-2.7 0 0 3.2-8.4-3.2-14.1L31 73.2c-2.1-2.9-6.8-4.7-7.7-5.1 0 0 5.1 6.2 3.5 7.7s-4.5.4-4.5.4-4.1-.3-2.4-11.9z"/>
  <g fill="#010101" opacity=".1">
    <path d="M137.1 64.3s7.2 6.3 6.3 15.2c0 0-1.8 9.2-2.4 10.5s-3.1 8.7-9.1 9.9l-4.1.5c-1.8.6-3.9-.1-6-1.2 3.5 1 20.7-14.8 12.9-22.8 0 0 4.1-.5 2.4-12.1z"/>
    <path d="M29 77.9s2.6-1.4 4-1.1c0 0-2.9-5.6-5.9-6.4 0 0 3.3 4.7 1.9 7.5z"/>
  </g>
  <g opacity=".2">
    <g fill="#010101">
      <path d="M127.8 100.4c-.8 1.3-1.8 2.4-3 3.3-2.4 2-6.6 2.5-7.8 1.9s-.6 1.3-1.9.7l-4.6-1.6 1.7-2.4s1.9-.3 2-1c2.1 3.3 7.1-1.8 5.6-3.5 0 0 3.9 3.1 8 2.6z"/>
      <path d="M29.2 100.4c.8 1.3 1.8 2.4 3 3.3 2.5 2 6.5 2.5 7.8 1.9s.6 1.3 1.9.7 7-1.6 8.1-4.4c.6-1.7.6-3.7-.1-5.4-1.4 6.4-6.9 6.7-7.2 4.8-2.1 3.3-7.1-1.8-5.6-3.5.1 0-3.8 3.1-7.9 2.6z"/>
    </g>
    <g fill="#fff">
      <path d="M129.7 77.3s-3.5-.8-5.4-.1c0 0 3.5-6.5 7.4-8.1 0 0-4 5.7-2 8.2z"/>
      <path d="M19.9 64.3s-7.2 6.3-6.3 15.2c0 0 1.8 9.2 2.4 10.5s3.1 8.7 9.1 9.9l4.1.5c1.8.6 3.9-.1 6-1.2-3.5 1-20.7-14.8-13-22.8.1 0-4-.5-2.3-12.1z"/>
    </g>
  </g>
</svg>
