<?xml version="1.0" encoding="UTF-8" standalone="no"?>
<!-- Generator: Adobe Illustrator 22.0.1, SVG Export Plug-In . SVG Version: 6.00 Build 0)  -->

<svg
   xmlns:dc="http://purl.org/dc/elements/1.1/"
   xmlns:cc="http://creativecommons.org/ns#"
   xmlns:rdf="http://www.w3.org/1999/02/22-rdf-syntax-ns#"
   xmlns:svg="http://www.w3.org/2000/svg"
   xmlns="http://www.w3.org/2000/svg"
   xmlns:sodipodi="http://sodipodi.sourceforge.net/DTD/sodipodi-0.dtd"
   xmlns:inkscape="http://www.inkscape.org/namespaces/inkscape"
   version="1.1"
   id="Layer_1"
   x="0px"
   y="0px"
   viewBox="0 0 160 160"
   style="enable-background:new 0 0 160 160;"
   xml:space="preserve"
   sodipodi:docname="side_14.svg"
   inkscape:version="0.92.2 (5c3e80d, 2017-08-06)"><metadata
     id="metadata19"><rdf:RDF><cc:Work
         rdf:about=""><dc:format>image/svg+xml</dc:format><dc:type
           rdf:resource="http://purl.org/dc/dcmitype/StillImage" /></cc:Work></rdf:RDF></metadata><defs
     id="defs17" /><sodipodi:namedview
     pagecolor="#ffffff"
     bordercolor="#666666"
     borderopacity="1"
     objecttolerance="10"
     gridtolerance="10"
     guidetolerance="10"
     inkscape:pageopacity="0"
     inkscape:pageshadow="2"
     inkscape:window-width="1920"
     inkscape:window-height="976"
     id="namedview15"
     showgrid="false"
     inkscape:zoom="4.17193"
     inkscape:cx="46.780664"
     inkscape:cy="75.82338"
     inkscape:window-x="0"
     inkscape:window-y="27"
     inkscape:window-maximized="1"
     inkscape:current-layer="Layer_1" /><style
     type="text/css"
     id="style2">
	.st0{fill:#ED1C24;}
	.st1{opacity:0.18;enable-background:new    ;}
	.st2{fill:none;stroke:#FFFFFF;stroke-width:2;stroke-linecap:round;stroke-linejoin:round;}
	.st3{opacity:0.6;fill:none;stroke:#FFFFFF;stroke-width:2;stroke-linecap:round;stroke-linejoin:round;enable-background:new    ;}
</style><title
     id="title4">Artboard 42 copy 206</title><path
     class="st0"
     d="m 29.957577,70.972708 c 0,0 6.103195,-5.04177 10.08354,2.034398 3.980345,7.076169 -0.972973,12.117939 -0.972973,12.117939 0,0 11.056513,15.302215 19.105654,16.186735 0,0 3.36118,-4.864866 10.260444,-1.503686 6.899264,3.361176 3.803441,9.464376 3.803441,9.464376 0,0 -2.034399,4.0688 -9.022115,4.0688 -6.987716,0 -24.147424,-13.09092 -30.162167,-25.120402 -6.014743,-12.029486 -4.068797,-15.213762 -3.095824,-17.24816 z"
     id="path6"
     style="fill:#000000;fill-opacity:1;stroke-width:0.88452101"
     inkscape:connector-curvature="0" /><path
     class="st1"
     d="m 29.957577,70.972708 c 0,0 6.103195,-5.04177 10.08354,2.034398 3.980345,7.076169 -0.972973,12.117939 -0.972973,12.117939 0,0 11.056513,15.302215 19.105654,16.186735 0,0 3.36118,-4.864866 10.260444,-1.503686 6.899264,3.361176 3.803441,9.464376 3.803441,9.464376 -4.334154,-7.51843 -7.872238,-6.63391 -15.213762,-6.19165 C 44.905983,99.896546 35.441608,88.663129 36.945294,86.274922 c 0,0.08845 5.307126,-14.594597 -6.987717,-15.302214 z"
     id="path8"
     style="opacity:0.18000004;fill:#010101;fill-opacity:1;stroke-width:0.88452101;enable-background:new"
     inkscape:connector-curvature="0" /><path
     class="st2"
     d="M26.7,55.6c-4.2,2.2-8.8,8.3-9.7,13"
     id="path10" /><path
     class="st3"
     d="M30,59.2c-3.4,1.8-7.2,6.8-7.9,10.7"
     id="path12" /></svg>