<svg xmlns="http://www.w3.org/2000/svg" viewBox="0 0 160 160">
  <path d="M34.5 116.9L32.9 104l2-.4 1.5 13s-.4 2-1.9.3z" fill="#303030"/>
  <path d="M46.8 71.7c1.6 2.3 2 5.1 1.2 7.7l-.4 2 4.3.1c3 .9 3.2 8 .6 10.2-1.1.6-2.1 1.4-3 2.2a25 25 0 01-8.4 6.3l-3.3 1.4c-6 2.4-17.4 5.9-19.3-6.5l.3-6.6c.2-3.3-1.5-5.7.8-12s8.8-7.3 13.6-6c0 0 .8.5 2.4-1.7s8.3-3.3 11.2 2.9z" fill="#d8d8d8"/>
  <path d="M39.1 101.1c-5.6 2.4-18.4 7.2-20.4-6.1l.4-6.7c.2-3.3-1.5-5.7.8-12s2.4-6.4 13.6-6c10.3.3 5.3 16.3 7.2 27.1 0 1.1-.7 3.3-1.6 3.7z" fill="#fff"/>
  <path d="M41.2 100.2c3.2-.7-20.2 10.3-22.5-5.2l.3-6.6c.2-3.3-1.5-5.7.8-12s8.8-7.3 13.6-6c-14.8.9-8.4 31.9 7.8 29.8z" opacity=".05"/>
  <path d="M52.6 91.9s-8.3 7.2-11.4 8.4c-2.7 1-16.2 8.1-21-.5-.6-1.5-1.2-3.1-1.5-4.7.9 2.2 5.7 4.2 10.6 4.3 6.6.3 11.2-4.3 15.3-3.6 2.5-1.6 5.2-2.9 8-3.9z" opacity=".16"/>
  <path d="M33 54.7l8.6.3-5.3 6.6 2.1 8.1-7.8-3.2-7 4.8.5-8.4-6.6-5.2 8.2-2.2 3-8z"/>
  <path d="M30.3 54.3l1.3 2c.2.3.6.5 1 .5l2.2.1c.6 0 1 .6 1 1.2l-.2.7-1.5 2c-.3.2-.3.5-.3 1l.6 2.3c.1.5-.1 1.1-.7 1.3h-.8l-2.1-1a.9.9 0 00-1 .2l-2 1.3c-.5.3-1.2.2-1.6-.2-.2-.2-.2-.5-.2-.8l.2-2.3c0-.4-.2-.7-.5-1L23.8 60c-.4-.3-.5-1-.3-1.6l.6-.4 2.3-.6c.3-.1.6-.3.8-.7l.8-2.2c.2-.6.9-.9 1.5-.7.4 0 .7.1.8.4z" opacity=".5" fill="#fff"/>
</svg>
