<?xml version="1.0" encoding="utf-8"?>
<!-- Generator: Adobe Illustrator 22.0.1, SVG Export Plug-In . SVG Version: 6.00 Build 0)  -->
<svg version="1.1" id="Layer_1" xmlns="http://www.w3.org/2000/svg" xmlns:xlink="http://www.w3.org/1999/xlink" x="0px" y="0px"
	 viewBox="0 0 160 160" style="enable-background:new 0 0 160 160;" xml:space="preserve">
<style type="text/css">
	.st0{fill:#E0E0E0;}
	.st1{opacity:0.1;fill:#FFFFFF;enable-background:new    ;}
	.st2{opacity:0.3;fill:#FFFFFF;enable-background:new    ;}
	.st3{fill:url(#SVGID_1_);}
	.st4{fill:#FFFFFF;}
	.st5{opacity:5.000000e-02;}
	.st6{opacity:0.16;}
	.st7{fill:#515151;}
	.st8{fill:#D8D8D8;}
</style>
<title>Artboard 42 copy 203</title>
<path class="st0" d="M36.3,92.3L36,99c-0.3-0.3,2.7,2.3,5,0l-0.4-7.8L36.3,92.3z"/>
<path class="st0" d="M129.6,97.1l-0.8,6.7c-0.3-0.3,2.5,2.5,5,0.3l0.1-6.1C132.4,98.3,130.9,97.9,129.6,97.1z"/>
<path class="st0" d="M34,42.2c0,0,0.9-4.3,3.5-1.7s5.8,16.1,2.4,23.9c-0.8,4.7-0.6,5.7-0.6,5.7c-1.1,0.5-2.4,0.5-3.5,0L34,42.2z"/>
<path class="st1" d="M37.5,40.4c0,0,6.5,9.6,2.4,23.9C40.4,70,39.6,42.1,37.5,40.4z"/>
<path class="st2" d="M34.6,42L34.6,42c0.3,0,0.5,0.2,0.5,0.5l1.7,26.9c0,0.3-0.2,0.5-0.5,0.5l0,0c-0.3,0-0.5-0.2-0.5-0.5l-1.7-26.9
	C34.1,42.3,34.3,42.1,34.6,42z"/>
<path class="st0" d="M129.5,50.8l-0.8,15.4c0,0-0.2,4.6,4.4,4.9s5.5-2.8,5.6-4.3l0.8-15.4c0,0-1.2,0.3-1.4,4.2s-1.2,7.6-2,7.6
	c-0.2,0-0.4,0-0.6,0c-0.5,0-0.9-0.2-0.8-2.4c0.2-3.1,0.5-9.2-0.3-9.3s-1.3,9.2-1.3,9.2s-0.1,2.3-1.7,2.2s-1.1-8.5-1.1-8.5
	S130.7,50.4,129.5,50.8z"/>
<path class="st2" d="M139.5,51.3c0,0-0.9,3-1.4,10.7c0,0,0,8.4-2.6,8.7c0,0,2.8,0.4,3.3-8.8L139.5,51.3z"/>
<path class="st2" d="M134.4,60.2l0.5-8.5c0,0-0.4,8.5-0.1,10s-0.5,1.5-0.5,1.5L134.4,60.2z"/>
<polygon class="st0" points="130.9,77 128.5,84.8 130.5,85 132.7,77.7 "/>
<radialGradient id="SVGID_1_" cx="-186.3134" cy="815.3292" r="4.8905" gradientTransform="matrix(0.9899 -0.1418 -0.1418 -0.9899 317.7431 863.6364)" gradientUnits="userSpaceOnUse">
	<stop  offset="0" style="stop-color:#FFD22D"/>
	<stop  offset="0.87" style="stop-color:#FCB22B"/>
	<stop  offset="1" style="stop-color:#F28312"/>
</radialGradient>
<path class="st3" d="M14.2,80.3l6.1-0.9c1.7-0.2,3.3,0.9,3.5,2.6l0,0c0.2,1.7-0.9,3.3-2.6,3.5l-6.1,0.9c-1.7,0.2-3.3-0.9-3.5-2.6
	l0,0C11.4,82.1,12.5,80.6,14.2,80.3z"/>
<path class="st4" d="M27,68.2c-1.4,1.6-2.1,3.8-1.7,5.9l0.1,1.6c0,0-7.9-2.3-7.6,4.2c0,0.6,0,1.1,0.1,1.7c0.2,5.3,0.8,7.8,4.1,9.7
	c3.6,2.1,4.2-1.4,6.5-0.2s14.6,10.2,18.1-1.6l0.5-5.2c0.2-2.6,1.8-4.3,0.6-9.4s-6.1-6.6-10-6.1c0,0-0.6,0.3-1.7-1.6S30,63.7,27,68.2
	z"/>
<g class="st5">
	<path d="M28.4,91c-2.5-0.9,14.7,10.2,18.1-1.6l0.5-5.2c0.2-2.6,1.8-4.3,0.6-9.4s-6.1-6.6-10-6.1C49,70.9,40.8,94.4,28.4,91z"/>
</g>
<g class="st6">
	<path d="M19,88.4c0.8,1.1,1.8,2,2.9,2.8c3.6,2.1,4.2-1.4,6.5-0.2c2,1.1,11.7,8,16.4,1.9c0.7-1.1,1.2-2.3,1.7-3.5
		c-1,1.6-4.9,2.7-8.7,2.3c-5.2-0.5-8.3-4.6-11.5-4.4C20.9,89.4,19,88.4,19,88.4z"/>
</g>
<path class="st7" d="M25,80.4l4.4-0.4c0.2,0,0.5,0.2,0.5,0.4v0c0,0.2-0.2,0.5-0.4,0.5l-4.4,0.4c-0.2,0-0.5-0.2-0.5-0.4l0,0
	C24.6,80.7,24.7,80.5,25,80.4z"/>
<path class="st7" d="M25.2,82.2l4.4-0.4c0.2,0,0.5,0.2,0.5,0.4v0c0,0.2-0.2,0.5-0.4,0.5l-4.4,0.4c-0.2,0-0.5-0.2-0.5-0.4v0
	C24.8,82.4,25,82.2,25.2,82.2z"/>
<path class="st7" d="M25.5,83.9l4.4-0.4c0.2,0,0.5,0.2,0.5,0.4l0,0c0,0.2-0.2,0.5-0.4,0.5l-4.4,0.4c-0.2,0-0.5-0.2-0.5-0.4v0
	C25.1,84.2,25.2,84,25.5,83.9z"/>
<path class="st8" d="M124,73.5c-1.4,1.6-2,3.7-1.6,5.8l0.1,1.6l-3.3-0.3l-1.4,7.7c0.8,0.6,1.5,1.2,2.1,1.9c0.6,1,3.5,4.4,5.8,5.5
	c0.4,0.2,1.3,0.7,2.4,1.3c4.4,2.4,12.7,6,15.2-3.3l0.4-5.1c0.2-2.5,1.7-4.2,0.4-9.2s-6-6.3-9.8-5.8c0,0-0.6,0.3-1.7-1.5
	S126.8,69.1,124,73.5z"/>
<path class="st4" d="M127.2,96.5c4,2.3,13.4,7.1,16.1-2.8l0.4-5.1c0.2-2.5,1.7-4.2,0.4-9.2s-1.3-5-9.8-5.8c-7.8-0.7-5.5,11.9-7.8,20
	C126.2,94.4,126.6,96.1,127.2,96.5z"/>
<g class="st5">
	<path d="M125.7,95.7c-2.4-0.8,14.4,9.6,17.6-1.9l0.4-5.1c0.2-2.5,1.7-4.2,0.4-9.2s-6-6.3-9.8-5.8C145.4,75.7,137.8,98.7,125.7,95.7
		z"/>
</g>
<g class="st6">
	<path d="M117.8,88.3c0,0,5.7,6.2,7.9,7.4c2,1,11.6,7.6,16,1.5c0.6-1.1,1.2-2.3,1.6-3.4c-0.9,1.6-4.7,2.7-8.4,2.4
		c-5.1-0.3-8.1-4.3-11.3-4.1C121.8,90.5,119.8,89.3,117.8,88.3z"/>
</g>
</svg>
