<?xml version="1.0" encoding="utf-8"?>
<!-- Generator: Adobe Illustrator 22.0.1, SVG Export Plug-In . SVG Version: 6.00 Build 0)  -->
<svg version="1.1" id="Layer_1" xmlns="http://www.w3.org/2000/svg" xmlns:xlink="http://www.w3.org/1999/xlink" x="0px" y="0px"
	 viewBox="0 0 160 160" style="enable-background:new 0 0 160 160;" xml:space="preserve">
<style type="text/css">
	.st0{fill:#DD8313;}
	.st1{opacity:0.5;fill:#754C24;enable-background:new    ;}
	.st2{fill:#FFFFFF;}
</style>
<title>Artboard 42 copy 202</title>
<path class="st0" d="M63.3,76.1c0,0,0.8,14.1-17.6,21.1s-27.8-5.5-27.8-5.5s-0.5-15,18.4-21S63.3,76.1,63.3,76.1z"/>
<path class="st1" d="M63.3,76.1c0,0,0.8,14.1-17.6,21.1s-27.8-5.5-27.8-5.5C38.8,93.8,52.3,87.9,63.3,76.1z"/>
<path class="st2" d="M29.2,89.6l-0.1-0.4c-0.1-0.3,0-0.5,0.3-0.6l24.2-9c0.3-0.1,0.5,0,0.6,0.3l0.1,0.4c0.1,0.3,0,0.5-0.3,0.6
	l-24.2,9C29.6,89.9,29.3,89.8,29.2,89.6z"/>
<path class="st2" d="M46.2,77.7l0.4-0.1c0.3-0.1,0.5,0,0.6,0.3l3,8.2c0.1,0.3,0,0.5-0.3,0.6l-0.4,0.1c-0.3,0.1-0.5,0-0.6-0.3l-3-8.2
	C45.9,78.1,46,77.8,46.2,77.7z"/>
<path class="st2" d="M33.1,83.1l0.4-0.1c0.3-0.1,0.5,0,0.6,0.3l3,8.2c0.1,0.3,0,0.5-0.3,0.6l-0.4,0.1c-0.3,0.1-0.5,0-0.6-0.3l-3-8.2
	C32.7,83.5,32.8,83.2,33.1,83.1z"/>
<path class="st2" d="M39.3,78.5l0.4-0.1c0.3-0.1,0.5,0,0.6,0.3l4.3,11.6c0.1,0.3,0,0.5-0.3,0.6L44,91.1c-0.3,0.1-0.5,0-0.6-0.3
	L39,79.2C38.9,78.9,39.1,78.6,39.3,78.5z"/>
</svg>
