<svg xmlns="http://www.w3.org/2000/svg" viewBox="0 0 160 160">
  <path d="M130.8 63c-2.3-2-15.7-.5-15.7-.5l.9 1.9 2.3 4.9c2.5-1.1 5.2-2 7.8-2.4 0 .1 1.9 19.1-.1 21.1s-8.4 3.3-8.4 3.3L117 93l-1 2.6S133 97 133 85c.7-16.3.6-19.6-2.3-22z" fill="#0f0"/>
  <path d="M24.6 67.9s-4.7.3-6.5 1.3c-.5.2-.4 1 .2 1.5 3.7 2.8 6.5 6.6 8 11 3.4 8.5 3.4 16.7 13.8 20.4 10.4 3.7 14.8 0 14.8 0S62 93 54 84.2c0 0-1.6-1.6-4.7-.6-3.6 1.2-7.5 1.9-11.6-5.7-4.2-7.5-6.2-10.9-13.1-10z" fill="#0f0"/>
  <g fill="#fff">
    <ellipse cx="24.7" cy="69.6" rx="6.5" ry="1.7" transform="rotate(-3.5 24.7 69.7)" opacity=".3"/>
    <path d="M45.4 85c5.2 1 9 .1 10.5 1.8-.5-.9-.9-1.4-1.9-2.6-.1-.1-2-1.6-4.6-.6-10.9 4-11.6-9.5-17.6-14.1 6.1 7.1 5.7 14 13.6 15.5z" opacity=".3"/>
    <path d="M115.1 62.5s14.6-1.7 16.1 1c-2.3-.8-6-.4-8.8 0l-6.4.8z" opacity=".4"/>
  </g>
  <g fill="#010101">
    <path d="M19.8 72c4.7 4 5.9 7.9 6.6 9.7 3.3 8.5 3.3 16.7 13.7 20.4 10.4 3.7 14.8 0 14.8 0s5.3-6 1.7-14c0 0 3.9 11-7.9 11-5.4-.1-10.5-.9-14.5-6-5.3-6.8-7.8-19-14.4-21.1z" opacity=".16"/>
    <ellipse cx="24.9" cy="69.6" rx="4.8" ry=".9" transform="rotate(-3.5 24.9 69.7)" opacity=".35"/>
    <path d="M29.8 69.3c.5.9-4.8 1.2-4.8 1.2.4-1.1.3-1.7-.1-1.7 0 0 4.4-.3 4.9.5z" opacity=".35"/>
    <path d="M126.1 66.9S128 86 126 88s-8.4 3.3-8.4 3.3L117 93s8.8-1.2 11-4.1 1-17.9 1-17.9.3-5.3-2.9-4.1z" opacity=".5"/>
  </g>
</svg>
