<?xml version="1.0" encoding="utf-8"?>
<!-- Generator: Adobe Illustrator 16.0.0, SVG Export Plug-In . SVG Version: 6.00 Build 0)  -->
<!DOCTYPE svg PUBLIC "-//W3C//DTD SVG 1.1//EN" "http://www.w3.org/Graphics/SVG/1.1/DTD/svg11.dtd">
<svg version="1.1" id="Layer_1" xmlns="http://www.w3.org/2000/svg" xmlns:xlink="http://www.w3.org/1999/xlink" x="0px" y="0px"
	 width="160px" height="160px" viewBox="0 0 160 160" enable-background="new 0 0 160 160" xml:space="preserve">
<g id="a6">
	
		<path fill="#11AA11" stroke="#000000" stroke-width="1.67" stroke-linecap="round" stroke-linejoin="round" stroke-miterlimit="1.5" d="
		M52.674,82.846l-6.629,1.004l-0.915-2.84l-6.228-3.64l-8.052,1.441l-0.837,1.487l-6.254,1.078c-1.364,2.488-1.206,4.9,0.404,7.24
		c-1.169,10.736,7.911,15.598,13.622,8.953l10.467,1.033l8.365,0.392"/>
	
		<path fill="#11AA11" stroke="#000000" stroke-width="1.67" stroke-linecap="round" stroke-linejoin="round" stroke-miterlimit="1.5" d="
		M52.674,82.846l-6.629,1.004l-0.915-2.84l-6.228-3.64l-8.052,1.441l-0.837,1.487l-6.254,1.078c-1.364,2.488-1.206,4.9,0.404,7.24
		c-1.169,10.736,7.911,15.598,13.622,8.953l10.467,1.033l8.365,0.392"/>
	
		<path fill="none" stroke="#000000" stroke-width="1.67" stroke-linecap="round" stroke-linejoin="round" stroke-miterlimit="1.5" d="
		M30.162,80.021l-2.241,8.294c3.419,3.352,5.854,2.449,7.235-2.992"/>
	
		<path fill="none" stroke="#000000" stroke-width="1.67" stroke-linecap="round" stroke-linejoin="round" stroke-miterlimit="1.5" d="
		M46.121,83.967c0.093,3.239-1.614,4.666-4.554,4.854"/>
	
		<path fill="#FFEE11" stroke="#000000" stroke-width="1.67" stroke-linecap="round" stroke-linejoin="round" stroke-miterlimit="1.5" d="
		M36.776,98.998l0.569,1.747c0,0,3.054,2.272,3.38,3.478c0.489,1.809-1.172,3.835-3.709,4.522c-2.536,0.687-4.993-0.226-5.482-2.035
		c-0.323-1.192,1.128-4.679,1.128-4.679l-0.268-1.235 M28.541,86.283c-1.511-5.396-2.845-9.998-2.845-9.998l4.687-1.269
		c0,0,0.413,1.644,1.045,4.116L28.541,86.283z"/>
	
		<path fill="#FFEE11" stroke="#000000" stroke-width="1.67" stroke-linecap="round" stroke-linejoin="round" stroke-miterlimit="1.5" d="
		M17.223,35.679c0.215-0.062,0.432-0.118,0.652-0.168c8.246-1.915,16.783,4.293,19.369,13.938c0.021,0.077,0.041,0.156,0.061,0.233
		c0.043,0.169,0.085,0.339,0.125,0.509c1.57,6.766-0.473,18.807-5.74,24.157c-0.838,1.063-1.704,1.79-2.555,2.054
		c-0.276,0.085-0.555,0.154-0.837,0.206c-0.27,0.097-0.545,0.179-0.826,0.244c-0.868,0.201-1.982,0.011-3.243-0.485
		C16.982,74.403,9.147,65.035,7.092,58.4c-0.052-0.167-0.102-0.334-0.149-0.502c-0.023-0.078-0.045-0.156-0.065-0.233
		c-2.631-9.632,1.611-19.298,9.697-21.803C16.791,35.795,17.007,35.734,17.223,35.679z M18.296,39.642
		c0.173-0.05,0.348-0.095,0.525-0.136c6.65-1.544,13.535,3.463,15.62,11.24c0.017,0.063,0.033,0.125,0.05,0.189
		c0.034,0.136,0.068,0.273,0.1,0.41c1.266,5.457-0.381,15.167-4.627,19.482c-0.677,0.858-1.375,1.443-2.061,1.657
		c-0.224,0.067-0.449,0.124-0.676,0.166c-0.218,0.078-0.44,0.144-0.667,0.197c-0.698,0.162-1.597,0.009-2.614-0.391
		c-5.844-1.584-12.163-9.139-13.821-14.49c-0.041-0.134-0.082-0.269-0.12-0.404c-0.018-0.063-0.036-0.126-0.052-0.189
		c-2.123-7.767,1.299-15.563,7.82-17.583C17.947,39.736,18.121,39.686,18.296,39.642z"/>
	
		<path fill="none" stroke="#000000" stroke-width="1.67" stroke-linecap="round" stroke-linejoin="round" stroke-miterlimit="1.5" d="
		M17.223,35.679c0.215-0.062,0.432-0.118,0.652-0.168c8.246-1.915,16.783,4.293,19.369,13.938c0.021,0.077,0.041,0.156,0.061,0.233
		c0.043,0.169,0.085,0.339,0.125,0.509c1.57,6.766-0.473,18.807-5.74,24.157c-0.838,1.063-1.704,1.79-2.555,2.054
		c-0.276,0.085-0.555,0.154-0.837,0.206c-0.27,0.097-0.545,0.179-0.826,0.244c-0.868,0.201-1.982,0.011-3.243-0.485
		C16.982,74.403,9.147,65.035,7.092,58.4c-0.052-0.167-0.102-0.334-0.149-0.502c-0.023-0.078-0.045-0.156-0.065-0.233
		c-2.631-9.632,1.611-19.298,9.697-21.803C16.791,35.795,17.007,35.734,17.223,35.679z"/>
	
		<path fill="none" stroke="#000000" stroke-width="1.67" stroke-linecap="round" stroke-linejoin="round" stroke-miterlimit="1.5" d="
		M9.14,54.174c-0.577-6.745,2.805-12.91,8.542-14.688c0.177-0.055,0.886-0.247,1.067-0.289c6.773-1.572,13.786,3.528,15.909,11.449
		c0.018,0.063,0.12,0.47,0.153,0.61c1.29,5.558-0.388,15.448-4.714,19.843"/>
	
		<path fill="none" stroke="#000000" stroke-width="1.7" stroke-linecap="round" stroke-linejoin="round" stroke-miterlimit="1.5" d="
		M12.661,62.118l13.147-22.16"/>
	
		<path fill="none" stroke="#000000" stroke-width="1.7" stroke-linecap="round" stroke-linejoin="round" stroke-miterlimit="1.5" d="
		M15.234,64.59l13.505-22.763"/>
	
		<path fill="none" stroke="#000000" stroke-width="1.7" stroke-linecap="round" stroke-linejoin="round" stroke-miterlimit="1.5" d="
		M18.04,66.669l13.297-22.414"/>
	
		<path fill="none" stroke="#000000" stroke-width="1.7" stroke-linecap="round" stroke-linejoin="round" stroke-miterlimit="1.5" d="
		M19.929,70.294L33.33,47.706"/>
	
		<path fill="none" stroke="#000000" stroke-width="1.7" stroke-linecap="round" stroke-linejoin="round" stroke-miterlimit="1.5" d="
		M23.021,71.889l11.77-19.837"/>
	
		<path fill="none" stroke="#000000" stroke-width="1.7" stroke-linecap="round" stroke-linejoin="round" stroke-miterlimit="1.5" d="
		M26.972,72.039l8.129-13.701"/>
	
		<path fill="none" stroke="#000000" stroke-width="1.7" stroke-linecap="round" stroke-linejoin="round" stroke-miterlimit="1.5" d="
		M9.624,53.62l8.224-13.863"/>
	
		<path fill="none" stroke="#000000" stroke-width="1.7" stroke-linecap="round" stroke-linejoin="round" stroke-miterlimit="1.5" d="
		M10.383,59.149l11.845-19.964"/>
	
		<path fill="none" stroke="#000000" stroke-width="1.7" stroke-linecap="round" stroke-linejoin="round" stroke-miterlimit="1.5" d="
		M13.331,42.614l21.242,15.543"/>
	
		<path fill="none" stroke="#000000" stroke-width="1.7" stroke-linecap="round" stroke-linejoin="round" stroke-miterlimit="1.5" d="
		M11.03,45.236L34.066,62.09"/>
	
		<path fill="none" stroke="#000000" stroke-width="1.7" stroke-linecap="round" stroke-linejoin="round" stroke-miterlimit="1.5" d="
		M9.954,48.751l23.11,16.911"/>
	
		<path fill="none" stroke="#000000" stroke-width="1.7" stroke-linecap="round" stroke-linejoin="round" stroke-miterlimit="1.5" d="
		M9.191,52.499l21.973,16.077"/>
	
		<path fill="none" stroke="#000000" stroke-width="1.7" stroke-linecap="round" stroke-linejoin="round" stroke-miterlimit="1.5" d="
		M10.571,57.813l18.663,13.656"/>
	
		<path fill="none" stroke="#000000" stroke-width="1.7" stroke-linecap="round" stroke-linejoin="round" stroke-miterlimit="1.5" d="
		M13.789,64.473l8.902,6.513"/>
	
		<path fill="none" stroke="#000000" stroke-width="1.7" stroke-linecap="round" stroke-linejoin="round" stroke-miterlimit="1.5" d="
		M20.191,39.024L33.97,49.106"/>
	
		<path fill="none" stroke="#000000" stroke-width="1.7" stroke-linecap="round" stroke-linejoin="round" stroke-miterlimit="1.5" d="
		M16.32,40.497l18.991,13.895"/>
</g>
</svg>
