<?xml version="1.0" encoding="utf-8"?>
<!-- Generator: Adobe Illustrator 16.0.0, SVG Export Plug-In . SVG Version: 6.00 Build 0)  -->
<!DOCTYPE svg PUBLIC "-//W3C//DTD SVG 1.1//EN" "http://www.w3.org/Graphics/SVG/1.1/DTD/svg11.dtd">
<svg version="1.1" id="Layer_1" xmlns="http://www.w3.org/2000/svg" xmlns:xlink="http://www.w3.org/1999/xlink" x="0px" y="0px"
	 width="160px" height="160px" viewBox="0 0 160 160" enable-background="new 0 0 160 160" xml:space="preserve">
<g id="a5">
	
		<path fill="#CC5E47" stroke="#000000" stroke-width="1.7" stroke-linecap="round" stroke-linejoin="round" stroke-miterlimit="1.5" d="
		M48.974,81.75l-14.386,0.207L24.39,94.141l-13.424-2.316l-0.825,1.752l15.159,4.769l6.912-4.55l3.106,9.102l2.546-0.564
		l-0.485-11.34l12.568,0.561c0,0,3.146-0.607,2.688-5.256C52.177,81.637,48.974,81.75,48.974,81.75z"/>
	
		<path fill="none" stroke="#000000" stroke-width="1.7" stroke-linecap="round" stroke-linejoin="round" stroke-miterlimit="1.5" d="
		M37.592,105.837l-0.895-3.315"/>
	
		<path fill="#43975C" stroke="#000000" stroke-width="1.7" stroke-linecap="round" stroke-linejoin="round" stroke-miterlimit="1.5" d="
		M15.577,83.711c0.124-3.428-1.161-4.471-1.161-4.471s-1.65,0.307-3.466,3.313C8.404,86.771,15.405,88.498,15.577,83.711z"/>
	
		<path fill="#43975C" stroke="#000000" stroke-width="1.7" stroke-linecap="round" stroke-linejoin="round" stroke-miterlimit="1.5" d="
		M29.676,76.952c-1.198-3.651-4.084-4.28-4.084-4.28s-2.383,1.867-1.797,5.925c0.627,4.349,5.111,4.343,5.111,4.343
		S30.665,79.964,29.676,76.952z"/>
	
		<path fill="#43975C" stroke="#000000" stroke-width="1.7" stroke-linecap="round" stroke-linejoin="round" stroke-miterlimit="1.5" d="
		M125.91,67.456c0.892-3.738-1.236-5.785-1.236-5.785s-3.008,0.341-4.635,4.104c-1.745,4.033,2.078,6.377,2.078,6.377
		S125.175,70.54,125.91,67.456z"/>
	
		<path fill="#43975C" stroke="#000000" stroke-width="1.7" stroke-linecap="round" stroke-linejoin="round" stroke-miterlimit="1.5" d="
		M118.843,97.218c-0.55,3.804,1.756,5.65,1.756,5.65s2.965-0.613,4.243-4.509c1.372-4.174-2.142-4.953-2.142-4.953
		S119.296,94.081,118.843,97.218z"/>
	
		<path fill="none" stroke="#000000" stroke-width="1.7" stroke-linecap="round" stroke-linejoin="round" stroke-miterlimit="1.5" d="
		M124.175,88.301l-1.311,5.373"/>
	
		<path fill="#43975C" stroke="#000000" stroke-width="1.7" stroke-linecap="round" stroke-linejoin="round" stroke-miterlimit="1.5" d="
		M136.829,88.037c1.698-2.814,4.151-4.389,4.151-4.389s-2.302-1.967-6.162-0.588c-4.139,1.478-3.243,5.871-3.243,5.871
		S135.189,90.751,136.829,88.037z"/>
	
		<path fill="#43975C" stroke="#000000" stroke-width="1.7" stroke-linecap="round" stroke-linejoin="round" stroke-miterlimit="1.5" d="
		M143.478,74.493c2.117-2.515,3.181-4.184,3.181-4.184s-1.966-2.3-5.995-1.541c-4.317,0.814-4.119,5.293-4.119,5.293
		S141.435,76.918,143.478,74.493z"/>
	
		<path fill="#43975C" stroke="#000000" stroke-width="1.7" stroke-linecap="round" stroke-linejoin="round" stroke-miterlimit="1.5" d="
		M42.005,108.826c-2.102-3.217-5.052-3.078-5.052-3.078s-1.819,2.42-0.206,6.188c1.73,4.039,6.06,2.875,6.06,2.875
		S43.739,111.48,42.005,108.826z"/>
	
		<path fill="#43975C" stroke="#000000" stroke-width="1.7" stroke-linecap="round" stroke-linejoin="round" stroke-miterlimit="1.5" d="
		M24.768,107.385c3.762,0.779,5.323-1.105,5.323-1.105s-0.057-2.393-3.867-3.906c-4.083-1.623-6.065,1.47-6.065,1.47
		S21.663,106.742,24.768,107.385z"/>
	
		<path fill="none" stroke="#000000" stroke-width="1.7" stroke-linecap="round" stroke-linejoin="round" stroke-miterlimit="1.5" d="
		M28.74,82.806l2.442,2.875"/>
	
		<path fill="none" stroke="#000000" stroke-width="1.7" stroke-linecap="round" stroke-linejoin="round" stroke-miterlimit="1.5" d="
		M12.598,86.585l-1.278,5.319"/>
	
		<path fill="none" stroke="#000000" stroke-width="1.7" stroke-linecap="round" stroke-linejoin="round" stroke-miterlimit="1.5" d="
		M30.129,105.984l6.424-3.379"/>
	
		<path fill="#934635" stroke="#000000" stroke-width="1.7" stroke-linecap="round" stroke-linejoin="round" stroke-miterlimit="1.5" d="
		M119.499,80.163l2.091,2.113l2.33-5.981l12.544-3.932l-8.834,6.471l-1.693,9.996l-6.975-2.297
		C119.308,84.457,119.491,82.33,119.499,80.163z"/>
	
		<path fill="none" stroke="#000000" stroke-width="1.7" stroke-linecap="round" stroke-linejoin="round" stroke-miterlimit="1.5" d="
		M127.095,86.528l4.104,0.284"/>
	
		<path fill="none" stroke="#000000" stroke-width="1.7" stroke-linecap="round" stroke-linejoin="round" stroke-miterlimit="1.5" d="
		M122.801,71.702l1.767,4.448"/>
</g>
</svg>
