<svg xmlns="http://www.w3.org/2000/svg"><path fill="#f15a24" d="M79 88.5c-.3-.1-6.4 4.2-8.3 6.2s.4 7.8 8.3 4c3.2-1.2 7.1-4.7 7.1-4.7s-4.8-2.4-7.1-5.5"/><path fill="#e84715" d="M81.1 92.7c-2 1.8-4.2 3.5-6.6 4.8-2.9 1.4-2.1 2.2 0 2.1s5.5-.8 9.7-4.2l1.9-1.4-4-2.2z"/><path fill="none" stroke="#42210b" stroke-linecap="round" stroke-linejoin="round" stroke-width="2" d="M76.1 83.3c-.5-2.6 3.3 13.4 18.4 12.7 16-.8 16.5-13.6 16.5-13.6"/><path fill="#010101" d="M77 75s0-12 6-12 6 11.6 6 11.6S84 63 77 75m23 0s0-12 6-12 6 11.6 6 11.6-5-11.6-12 .4" opacity=".6"/></svg>