<svg xmlns="http://www.w3.org/2000/svg"><path fill="#010101" d="M109 98.4a21.1 21.1 0 0 1-12.9 4.1h-.5a21.2 21.2 0 0 1-12.9-4.1c-3.5-2.8-5.7-7-5.7-9s7.2 1.1 20.6 1.1h-1.5c9.1 0 14.8-2 15.8-2.4s2.7-.6 2.7 1.3c0 1.8-2 6.2-5.6 9" clip-rule="evenodd" opacity=".6"/><ellipse cx="97.3" cy="72.7" fill="#fff" rx="7.7" ry="10.8" transform="rotate(-3.2 97.4 72.7)"/><ellipse cx="97.4" cy="74.5" rx="4.6" ry="5.5"/><circle cx="94.5" cy="71.5" r="2.5" fill="#fff"/><path d="M91 62c4.4-5.1 8.7-5 13 0 0 0-6-12-13 0"/></svg>