<svg xmlns="http://www.w3.org/2000/svg"><path d="M83.5 57.7a1 1 0 0 0-.9 1.3s4 11.8 4.3 22.3a1 1 0 1 0 2 0c-.3-11-4.4-23-4.4-23a1 1 0 0 0-1-.6m-.3 2.5c-1.6.2-2.7.7-3.3 1.7-.7 1-.5 2 0 3 .9 2 3 3.9 5.8 5.2 2.4 1.2 4.2 3 4.7 4 .3.6.2 1 0 1.3-.2.4-.8.8-2 1.1-2.4.5-3.8 0-4.6-.9-.9-.8-1.1-2-.7-3.1a1 1 0 1 0-2-.7 5.1 5.1 0 0 0 1.2 5.2c1.4 1.4 3.7 2.1 6.5 1.5 1.6-.4 2.7-1 3.3-2s.6-2.1.1-3.1c-.8-2-3-3.7-5.6-5-2.4-1.3-4.4-3-5-4.3-.2-.6-.2-.9 0-1.1 0-.3.6-.6 1.8-.8 2.6-.2 3.8.6 4.5 1.2.6.7.7 1.3.7 1.3a1 1 0 1 0 2-.3s-.2-1.3-1.3-2.4c-1-1-3-2-6.1-1.8m19-2.3a1 1 0 0 0-1 1.4s5 10.6 6.2 20.3a1 1 0 1 0 2-.2 80.7 80.7 0 0 0-6.3-21 1 1 0 0 0-.9-.5m-.1 2.5c-1.5.4-2.5 1-3 1.9-.5 1-.3 2 .3 3 1 1.7 3.3 3.2 6 4.2 2.3.9 4.2 2.3 4.7 3.3.3.5.3.8.1 1.1-.1.3-.6.8-1.7 1.2-2.1.7-3.5.3-4.3-.4a2.9 2.9 0 0 1-1-2.8 1 1 0 1 0-2-.4c-.3 1.7.3 3.6 1.7 4.8s3.6 1.6 6.2.7c1.4-.5 2.4-1.2 3-2.2.4-1 .3-2-.2-3-1-1.8-3.2-3.2-5.9-4.2-2.3-.9-4.3-2.3-5-3.4-.2-.5-.2-.8-.1-1 0-.2.5-.6 1.6-.8 2.4-.4 3.6.1 4.2.6.7.6.8 1.1.8 1.1a1 1 0 1 0 2-.5s-.4-1.2-1.5-2.1c-1.1-1-3-1.6-6-1.1z"/><path fill="#010101" d="M106.7 99a15 15 0 0 1-11.1 5H95a15 15 0 0 1-11-5c-3-3.2-5-8.5-5-11s4.6 1.5 16 1.5h.6c7.8 0 12.7-2.5 13.6-3s2.4-.6 2.4 1.6-1.9 7.7-4.9 11z" opacity=".6"/><path fill="#f15a24" d="M92 90.3c-.4.1-.7 10.5 0 14.5s9.2 7.6 11.7-4c1.4-4.4.7-11.9.7-11.9s-6.8 2.2-12.3 1.3z"/><path fill="#e84715" d="M98.7 92.6s.7 7.1-.2 11.4.7 4.2 2.4 2 3.8-6.2 3.5-13.7v-3.4l-5.9 1.6z"/></svg>