<svg xmlns="http://www.w3.org/2000/svg"><path d="M94 85s4.8-2 8.2 0c.8.4.7 1.1 0 2 0 0-3.4 4-4.1 4s-4.8-4-4.8-4c-.6-1-.3-1.7.7-2"/><path fill="#3a3a3a" d="M99.3 84.1c1 .2 2 .4 3 .9.8.4.7 1.1 0 2a22 22 0 0 1-4.1 4c1.9-3.2 2.6-6.3 1.1-6.9" opacity=".2"/><path fill="none" stroke="#000" stroke-linecap="round" stroke-linejoin="round" d="M96 100c1.6.2 2-5.8 2-9m-10 4.5s7.5 11 18 0"/><path fill="#010101" d="M79 82s0-12 6-12 6 11.6 6 11.6S86 70 79 82m23 0s0-12 6-12 6 11.6 6 11.6-5-11.6-12 .4" opacity=".6"/><path fill="#fff" d="M96 86s4-1 6 0z" opacity=".3"/><path fill="none" stroke="#000" stroke-linecap="round" stroke-linejoin="round" stroke-width=".5" d="M93 90c-9.9-3.8-20.4-6.2-31-7m30.6 8.3c-12-2.8-27.7-1.2-27.7-1.2m27.6 3.1c-12.3-1-27.6 5-27.6 5M101 90a84.1 84.1 0 0 1 27-7m-26.7 8.3c10.5-2.8 24.1-1.2 24.1-1.2m-24 3.1c10.7-1 24 5 24 5"/></svg>