<svg xmlns="http://www.w3.org/2000/svg"><path fill="#010101" d="M97.6 82.4c4.8.2 8.5 4.3 8.3 9.1l-.1 3.3a8.7 8.7 0 0 1-9.1 8.3H96a8 8 0 0 1-7.6-8.4l.2-4a8.6 8.6 0 0 1 9-8.3" opacity=".6"/><path d="M92.6 63a1 1 0 0 0-.9.5L82.1 80a1 1 0 1 0 1.7 1l9.7-16.6a1 1 0 0 0-.9-1.5zm-11 .4a1 1 0 0 0-.8 1.6l11.4 15.8a1 1 0 1 0 1.6-1.2L82.4 63.8a1 1 0 0 0-.8-.4m30.6.3a1 1 0 0 0-.8.4l-10 15.4a1 1 0 1 0 1.6 1l10-15.3a1 1 0 0 0-.8-1.5m-9.5-.9a1 1 0 0 0-1 1.4l8.3 17a1 1 0 1 0 1.8-.8l-8.2-17a1 1 0 0 0-.9-.6"/></svg>