<svg xmlns="http://www.w3.org/2000/svg"><path fill="#010101" d="M74.4 83c13.5 2 26.4 2.5 38.2 0 0 0-1.1 23-19.4 23-4.9.2-9.6-2-12.8-5.7-5.7-6.8-6-17.3-6-17.3" opacity=".6"/><path fill="#f15a24" d="M107.4 98.4a16.7 16.7 0 0 1-14.2 7.3c-4.9.2-9.6-2-12.8-5.7-5.7-6.9 31.8-8.4 27-1.6"/><path d="M93.4 67.8c-.2-.4-.6-.6-1-.6l-7.9.2-4.8-6.9c-.4-.5-1-.6-1.5-.2l-.4.5-2.1 8.1-7.5 2.5a1 1 0 0 0-.7.9c-.1.4.1.8.5 1.1l6.6 4.8.1 8.4c0 .4.2.8.6 1s.8.1 1.1-.1l6.2-5.1 7.6 2.7h.5l.6-.3c.3-.3.4-.8.2-1.2l-2.8-8c.1.1 4.9-7.4 4.7-7.8m28.1 4.1a1 1 0 0 0-.8-.8l-7.6-1.9-2.7-7.4c-.2-.5-.9-.8-1.4-.5l-.4.4-4.2 6.7-7.8.4c-.4 0-.8.3-.9.6-.2.4-.1.8.2 1.1l5 6.1-2.1 7.7c-.1.4 0 .8.3 1.1s.7.4 1.1.2l7.3-3L114 87l.5.2.6-.1c.3-.2.5-.6.5-1l-.5-7.9c-.1-.3 6.5-5.9 6.4-6.3" opacity=".2"/><path fill="#f3ff00" d="M92.3 68.6a1 1 0 0 0-.9-.5l-7.1.2-4.2-5.9c-.4-.4-1-.5-1.4-.1l-.3.4-2 7-6.8 2.3c-.3.1-.6.4-.7.8 0 .4.1.7.4.9l5.9 4.1V85q0 .6.6.9c.3.1.7.1 1-.1l5.7-4.4 6.8 2.2c.4.1.7 0 1-.2.2-.3.3-.7.2-1l-2.4-6.9s4.4-6.6 4.2-6.9m26.6 3.8c-.1-.3-.3-.6-.6-.7l-6.2-1.6-2.2-6.1c-.2-.5-.7-.7-1.2-.5l-.4.3-3.4 5.5-6.4.3c-.5 0-.9.4-.8.9l.2.5 4.1 5-1.7 6.3c-.1.3 0 .7.3.9.2.2.6.3.9.2l6-2.4 5.3 3.6.4.1.5-.1c.3-.2.5-.5.4-.8l-.4-6.5c-.1 0 5.3-4.6 5.2-4.9"/><path d="m84 68.3-4-5.9a1 1 0 0 0-1.3-.2c-.2.1-.3.3-.3.5l3.7 6.3zm6.7.5-4.4 5.8.1.2-.1 1.1 2.4 6.7c.2.5.7.7 1.2.5l.4-.4-2-7.1h-.4l3.7-5.6c.2-.4.1-1-.4-1.2zm21.1 1.3-2.1-6.1c-.2-.4-.6-.6-1-.5l-.4.3 1.7 6.4zm5.6 2-5.3 4v.2l-.4.9.4 6.4c0 .4.4.8.9.7l.5-.2v-6.6l-.3-.1 4.6-4c.3-.3.3-.8 0-1.1z" opacity=".1"/><path d="m81.6 79.2-5.2 4.9a1 1 0 0 0 0 1.3l.5.2 5.6-4.7zm25.4-.3-5.7 3c-.4.2-.5.7-.3 1.1.1.2.2.3.4.3l6-2.7z" opacity=".05"/></svg>