<svg xmlns="http://www.w3.org/2000/svg"><path fill="#010101" d="M77 76s0-12 6-12 6 11.59 6 11.59S84 64 77 76m24-.5s0-11 5.5-11 5.5 10.62 5.5 10.62-4.58-10.62-11 .38m-5.67 19.59q-.77 0-1.5-.06c-.88-.06-1.28 5.36-2.55 5.67s-1.72-6.38-2.54-6.63c-2.37-.72-6.48-1.76-8.26-2.91-4-2.59-4.42-5.74-4.42-7 0-2.38 7.46 5.42 19 5.42h.46c7.89 0 12.78-2.53 13.65-3s2.39-.65 2.39 1.6c0 1.09-1.85 2.77-4.69 4.21-.73.37-.86 8.43-2.38 8.05s-1.73-6.39-2.65-6.14a24.2 24.2 0 0 1-6.51.79" opacity=".6"/><path fill="#fff" d="m87.93 88.54 2.57 11.38s.46 1.92 1.48 0 2.5-10.4 2.5-10.4a26.7 26.7 0 0 1-6.55-.98m12.91.59 2.81 10.21s1.22 2.34 1.78 0 1.77-11.89 1.77-11.89-1.51.82-6.36 1.68"/><path d="M91 91.51s1.19-.51 0 8.41c0 0 0 1.08 1 0 .8-1.92 2.48-10.4 2.48-10.4a19.2 19.2 0 0 1-4.36-.45zm12.45-.71s1.07-.72 1.5 8.27a.87.87 0 0 0 .23.43c.16.14 1.69-11.63 1.69-11.63a48 48 0 0 1-4.72 1.68z" opacity=".05"/></svg>