<?xml version="1.0" encoding="UTF-8" standalone="no"?>
<svg
   xmlns:dc="http://purl.org/dc/elements/1.1/"
   xmlns:cc="http://creativecommons.org/ns#"
   xmlns:rdf="http://www.w3.org/1999/02/22-rdf-syntax-ns#"
   xmlns:svg="http://www.w3.org/2000/svg"
   xmlns="http://www.w3.org/2000/svg"
   xmlns:xlink="http://www.w3.org/1999/xlink"
   xmlns:sodipodi="http://sodipodi.sourceforge.net/DTD/sodipodi-0.dtd"
   xmlns:inkscape="http://www.inkscape.org/namespaces/inkscape"
   id="Layer_1"
   data-name="Layer 1"
   viewBox="0 0 160 160"
   version="1.1"
   sodipodi:docname="facebg.svg"
   inkscape:version="0.92.2 (5c3e80d, 2017-08-06)">
  <metadata
     id="metadata92">
    <rdf:RDF>
      <cc:Work
         rdf:about="">
        <dc:format>image/svg+xml</dc:format>
        <dc:type
           rdf:resource="http://purl.org/dc/dcmitype/StillImage" />
      </cc:Work>
    </rdf:RDF>
  </metadata>
  <sodipodi:namedview
     pagecolor="#ffffff"
     bordercolor="#666666"
     borderopacity="1"
     objecttolerance="10"
     gridtolerance="10"
     guidetolerance="10"
     inkscape:pageopacity="0"
     inkscape:pageshadow="2"
     inkscape:window-width="1920"
     inkscape:window-height="976"
     id="namedview90"
     showgrid="false"
     inkscape:zoom="5.9"
     inkscape:cx="98.93647"
     inkscape:cy="100.93816"
     inkscape:window-x="0"
     inkscape:window-y="27"
     inkscape:window-maximized="1"
     inkscape:current-layer="Layer_1" />
  <defs
     id="defs39">
    <style
       id="style2">.cls-1,.cls-9{fill:url(#linear-gradient);}.cls-1,.cls-2,.cls-3,.cls-4,.cls-5{clip-rule:evenodd;}.cls-2,.cls-20{fill:url(#linear-gradient-2);}.cls-12,.cls-3,.cls-6{fill:#fff;}.cls-17,.cls-5{fill:url(#linear-gradient-3);}.cls-7{opacity:0.05;}.cls-8{fill:url(#linear-gradient-4);}.cls-12,.cls-15,.cls-17,.cls-20,.cls-9{fill-rule:evenodd;}.cls-10{clip-path:url(#clip-path);}.cls-11{fill:url(#linear-gradient-6);}.cls-13{clip-path:url(#clip-path-2);}.cls-14{clip-path:url(#clip-path-3);}.cls-16{clip-path:url(#clip-path-4);}.cls-18{clip-path:url(#clip-path-5);}.cls-19{fill:url(#linear-gradient-8);}.cls-21{clip-path:url(#clip-path-6);}.cls-22{fill:url(#linear-gradient-10);}</style>
    <linearGradient
       id="linear-gradient"
       x1="86.83"
       y1="223.33"
       x2="86.83"
       y2="206.71"
       gradientTransform="matrix(1, 0, 0, -1, 0, 698.33)"
       gradientUnits="userSpaceOnUse">
      <stop
         offset="0"
         stop-color="#a66707"
         id="stop4" />
      <stop
         offset="1"
         id="stop6" />
    </linearGradient>
    <linearGradient
       id="linear-gradient-2"
       x1="-363.17"
       y1="862.5"
       x2="-363.17"
       y2="847.83"
       gradientTransform="matrix(1, 0, 0, 1, 0, 0)"
       xlink:href="#linear-gradient" />
    <linearGradient
       id="linear-gradient-3"
       x1="-375.67"
       y1="676.12"
       x2="-375.67"
       y2="658.21"
       gradientTransform="matrix(1, 0, 0, 1, 0, 0)"
       xlink:href="#linear-gradient" />
    <linearGradient
       id="linear-gradient-4"
       x1="-218.56"
       y1="84.9"
       x2="-218.56"
       y2="46.02"
       gradientTransform="translate(277.22) scale(0.9 1)"
       gradientUnits="userSpaceOnUse">
      <stop
         offset="0"
         stop-color="#ffd22d"
         stop-opacity="0"
         id="stop11" />
      <stop
         offset="0.81"
         stop-color="#fffcef"
         stop-opacity="0.7"
         id="stop13" />
      <stop
         offset="1"
         stop-color="#fff"
         stop-opacity="0.8"
         id="stop15" />
    </linearGradient>
    <clipPath
       id="clip-path">
      <path
         class="cls-1"
         d="M97.92,479.8A14.37,14.37,0,0,0,87.3,475h0l-.2,0-.21,0h0c-10.6,1.07-18.13,10.4-15.32,15.28,2.46,5.5,19.9-8.34,27.83.57,2.35,1.31,3.73-1,3.23-3.43C102.17,485.31,100.83,483,97.92,479.8Z"
         id="path18" />
    </clipPath>
    <linearGradient
       id="linear-gradient-6"
       x1="6.98"
       y1="894.14"
       x2="6.98"
       y2="-937.07"
       gradientTransform="matrix(1, 0, 0, 1, 0, 0)"
       xlink:href="#linear-gradient" />
    <clipPath
       id="clip-path-2">
      <path
         class="cls-3"
         d="M71.83,484.55S70,488,71.54,490.28c2.46,5.5,19.9-8.34,27.83.57a53.52,53.52,0,0,0,.45-8.81S71.83,485.39,71.83,484.55Z"
         id="path22" />
    </clipPath>
    <clipPath
       id="clip-path-3">
      <path
         class="cls-3"
         d="M97.92,479.8A14.37,14.37,0,0,0,87.3,475h0l-.2,0-.21,0h0A21.62,21.62,0,0,0,73,482.6s27.06-.24,26.65-.75S98.59,480.53,97.92,479.8Z"
         id="path25" />
    </clipPath>
    <clipPath
       id="clip-path-4">
      <path
         class="cls-4"
         d="M97.92,479.8c-1.92-2.8-7.37-4.41-7.37-4.41C91,477,91,481,90.4,482.33c0,0,9.44-.28,9.27-.48C99.17,481.21,98.59,480.53,97.92,479.8Z"
         id="path28" />
    </clipPath>
    <clipPath
       id="clip-path-5">
      <path
         class="cls-5"
         d="M-364.3,671.09a15.08,15.08,0,0,1-11.14,5h0l-.22,0-.21,0h0a15.08,15.08,0,0,1-11.14-5c-3-3.33-4.9-8.6-4.9-11,0-2.11,3.49.63,12.32,1.28,1.15.09,2.39.14,3.72.14h.46c7.89,0,12.78-2.53,13.65-3s2.39-.65,2.39,1.6S-361.26,667.76-364.3,671.09Z"
         id="path31" />
    </clipPath>
    <linearGradient
       id="linear-gradient-8"
       x1="-455.02"
       y1="1078.14"
       x2="-455.02"
       y2="-753.07"
       gradientTransform="matrix(1, 0, 0, 1, 0, 0)"
       xlink:href="#linear-gradient" />
    <clipPath
       id="clip-path-6">
      <path
         class="cls-2"
         d="M-350,858.38a21.11,21.11,0,0,1-12.88,4.12h0l-.25,0-.25,0h0a21.17,21.17,0,0,1-12.9-4.12c-3.53-2.73-5.67-7-5.67-9s7.16,1.16,20.57,1.16h-1.47c9.12,0,14.78-2.08,15.79-2.47s2.76-.54,2.76,1.31S-346.49,855.65-350,858.38Z"
         id="path35" />
    </clipPath>
    <linearGradient
       id="linear-gradient-10"
       x1="-437.02"
       y1="1266.14"
       x2="-437.02"
       y2="-565.07"
       gradientTransform="matrix(1, 0, 0, 1, 0, 0)"
       xlink:href="#linear-gradient" />
  </defs>
  <title
     id="title41">Artboard 42 copy 226</title>
  <g
     class="cls-7"
     id="g47"
     style="opacity:0.1;fill:#010101;fill-opacity:1">
    <path
       d="M119.21,80a39.46,39.46,0,0,1-67.13,28.13c10.36,2.33,36,3,49.82-14.28,10.39-12.47,8.31-33.23,4.16-43.26A39.35,39.35,0,0,1,119.21,80Z"
       id="path45"
       style="fill:#010101;fill-opacity:1" />
  </g>
</svg>
