<?xml version="1.0" encoding="UTF-8" standalone="no"?><!DOCTYPE svg PUBLIC "-//W3C//DTD SVG 1.1//EN" "http://www.w3.org/Graphics/SVG/1.1/DTD/svg11.dtd"><svg width="100%" height="100%" viewBox="0 0 160 160" version="1.1" xmlns="http://www.w3.org/2000/svg" xmlns:xlink="http://www.w3.org/1999/xlink" xml:space="preserve" style="fill-rule:evenodd;clip-rule:evenodd;stroke-linecap:round;stroke-linejoin:round;"><g id="faces"><g id="cat"><path id="STROKE_D6B66650.-B586.-47A3.-B840.-2A3A17BDEA88" d="M111.492,76.078c0.031,0.121 0.046,0.211 0.046,0.27c0,0.059 0.011,0.119 0.032,0.18c0.021,0.06 0.055,0.113 0.101,0.158c0.046,0.045 0.103,0.067 0.171,0.067c0.067,0 0.12,-0.022 0.159,-0.067c0.038,-0.045 0.075,-0.101 0.112,-0.169c0.037,-0.068 0.067,-0.128 0.089,-0.18c0.024,-0.052 0.05,-0.112 0.078,-0.179c0.029,-0.068 0.056,-0.136 0.079,-0.204c0.023,-0.068 0.05,-0.139 0.08,-0.214c0.031,-0.076 0.061,-0.154 0.09,-0.237c0.029,-0.082 0.055,-0.165 0.078,-0.248c0.023,-0.084 0.042,-0.167 0.058,-0.25c0.015,-0.082 0.031,-0.164 0.046,-0.246c0.015,-0.083 0.027,-0.173 0.034,-0.271c0.008,-0.098 0.016,-0.189 0.024,-0.271c0.007,-0.082 0.011,-0.172 0.011,-0.268l0,-1.679c0,-0.061 -0.004,-0.129 -0.011,-0.204c-0.008,-0.075 -0.016,-0.157 -0.024,-0.246c-0.007,-0.09 -0.019,-0.184 -0.034,-0.282c-0.015,-0.098 -0.031,-0.192 -0.046,-0.281c-0.016,-0.09 -0.027,-0.187 -0.035,-0.293c-0.008,-0.105 -0.019,-0.207 -0.035,-0.305c-0.015,-0.098 -0.03,-0.192 -0.043,-0.282c-0.013,-0.089 -0.028,-0.179 -0.043,-0.27c-0.016,-0.091 -0.031,-0.178 -0.046,-0.261c-0.016,-0.082 -0.031,-0.16 -0.047,-0.235c-0.015,-0.075 -0.031,-0.151 -0.046,-0.226c-0.015,-0.075 -0.03,-0.146 -0.043,-0.214c-0.014,-0.068 -0.032,-0.136 -0.055,-0.204c-0.023,-0.068 -0.043,-0.143 -0.058,-0.225c-0.015,-0.082 -0.035,-0.168 -0.057,-0.258c-0.024,-0.089 -0.043,-0.183 -0.058,-0.281c-0.016,-0.098 -0.038,-0.197 -0.067,-0.295c-0.029,-0.098 -0.058,-0.199 -0.089,-0.303c-0.031,-0.104 -0.061,-0.201 -0.09,-0.292c-0.029,-0.091 -0.062,-0.174 -0.101,-0.249c-0.038,-0.075 -0.073,-0.143 -0.104,-0.202c-0.031,-0.059 -0.064,-0.119 -0.101,-0.18c-0.036,-0.06 -0.074,-0.113 -0.112,-0.157c-0.039,-0.045 -0.077,-0.094 -0.113,-0.148c-0.037,-0.053 -0.07,-0.106 -0.101,-0.158c-0.031,-0.052 -0.065,-0.104 -0.101,-0.156c-0.037,-0.052 -0.074,-0.105 -0.113,-0.158c-0.038,-0.053 -0.076,-0.102 -0.113,-0.147c-0.036,-0.045 -0.085,-0.09 -0.147,-0.134c-0.061,-0.045 -0.126,-0.091 -0.193,-0.137c-0.068,-0.046 -0.135,-0.088 -0.202,-0.126c-0.068,-0.037 -0.135,-0.075 -0.203,-0.112c-0.067,-0.038 -0.131,-0.071 -0.19,-0.1c-0.06,-0.029 -0.12,-0.058 -0.182,-0.089c-0.062,-0.03 -0.122,-0.064 -0.182,-0.102c-0.06,-0.037 -0.119,-0.074 -0.179,-0.112c-0.06,-0.037 -0.123,-0.072 -0.19,-0.102c-0.068,-0.03 -0.128,-0.06 -0.182,-0.091c-0.054,-0.03 -0.111,-0.056 -0.171,-0.078c-0.06,-0.021 -0.119,-0.036 -0.179,-0.045c-0.06,-0.009 -0.127,-0.013 -0.202,-0.013c-0.075,0 -0.154,0 -0.237,0c-0.083,0 -0.162,0.004 -0.237,0.013c-0.075,0.009 -0.139,0.02 -0.193,0.034c-0.054,0.015 -0.115,0.041 -0.182,0.078c-0.067,0.038 -0.127,0.072 -0.179,0.102c-0.052,0.03 -0.105,0.065 -0.159,0.102c-0.054,0.038 -0.107,0.072 -0.159,0.102c-0.052,0.03 -0.107,0.068 -0.167,0.112c-0.06,0.045 -0.123,0.09 -0.191,0.135c-0.067,0.044 -0.132,0.093 -0.193,0.145c-0.062,0.052 -0.122,0.101 -0.182,0.147c-0.06,0.046 -0.123,0.092 -0.191,0.137c-0.067,0.044 -0.131,0.089 -0.19,0.134c-0.06,0.045 -0.117,0.089 -0.171,0.134c-0.054,0.045 -0.107,0.09 -0.158,0.137c-0.052,0.046 -0.102,0.091 -0.148,0.136c-0.046,0.045 -0.087,0.089 -0.124,0.134c-0.037,0.045 -0.074,0.098 -0.112,0.158c-0.039,0.061 -0.073,0.121 -0.101,0.18c-0.029,0.059 -0.063,0.126 -0.102,0.201c-0.038,0.075 -0.076,0.151 -0.112,0.226c-0.037,0.075 -0.074,0.15 -0.113,0.225c-0.038,0.075 -0.072,0.15 -0.101,0.225c-0.029,0.075 -0.059,0.15 -0.09,0.225c-0.03,0.075 -0.057,0.154 -0.08,0.237c-0.023,0.082 -0.049,0.165 -0.078,0.249c-0.029,0.083 -0.055,0.166 -0.078,0.248c-0.023,0.083 -0.046,0.169 -0.069,0.258c-0.024,0.09 -0.043,0.184 -0.058,0.282c-0.016,0.098 -0.031,0.192 -0.046,0.281c-0.016,0.09 -0.03,0.184 -0.044,0.282c-0.013,0.098 -0.028,0.192 -0.043,0.281c-0.016,0.09 -0.031,0.18 -0.046,0.271c-0.016,0.091 -0.027,0.166 -0.035,0.225c-0.008,0.06 -0.011,0.12 -0.011,0.18c0,0.061 -0.008,0.144 -0.023,0.249c-0.016,0.106 -0.024,0.189 -0.024,0.249c0,0.061 -0.007,0.143 -0.023,0.247c-0.015,0.104 -0.026,0.186 -0.031,0.247c-0.006,0.061 -0.013,0.125 -0.021,0.193c-0.008,0.068 -0.015,0.131 -0.023,0.19c-0.008,0.06 -0.019,0.138 -0.034,0.237c-0.016,0.098 -0.027,0.177 -0.035,0.238c-0.008,0.06 -0.012,0.132 -0.012,0.214l0,0.879c0,0.068 0.004,0.143 0.012,0.225c0.008,0.083 0.023,0.165 0.046,0.248c0.023,0.082 0.045,0.161 0.067,0.235c0.021,0.076 0.043,0.151 0.066,0.226c0.023,0.075 0.05,0.154 0.081,0.236c0.03,0.082 0.056,0.164 0.078,0.247c0.021,0.082 0.043,0.165 0.066,0.249c0.023,0.084 0.05,0.167 0.081,0.249c0.031,0.082 0.061,0.161 0.089,0.236c0.029,0.075 0.055,0.147 0.078,0.214c0.024,0.068 0.051,0.128 0.081,0.18c0.031,0.052 0.061,0.108 0.09,0.169c0.029,0.061 0.059,0.117 0.089,0.169c0.031,0.052 0.066,0.108 0.104,0.169c0.039,0.06 0.084,0.125 0.136,0.193c0.052,0.067 0.096,0.124 0.133,0.169c0.036,0.044 0.082,0.096 0.136,0.156c0.053,0.059 0.11,0.115 0.17,0.168c0.059,0.054 0.112,0.099 0.159,0.137c0.046,0.037 0.091,0.075 0.136,0.113c0.044,0.037 0.092,0.075 0.144,0.112c0.052,0.038 0.105,0.079 0.159,0.123c0.054,0.045 0.11,0.09 0.17,0.135c0.06,0.045 0.119,0.086 0.179,0.123c0.06,0.038 0.119,0.08 0.179,0.126c0.06,0.046 0.12,0.088 0.182,0.126c0.062,0.037 0.126,0.075 0.193,0.112c0.068,0.038 0.135,0.071 0.203,0.1c0.067,0.029 0.134,0.058 0.202,0.088c0.067,0.031 0.131,0.058 0.19,0.081c0.06,0.023 0.125,0.041 0.194,0.056c0.069,0.014 0.134,0.025 0.193,0.032c0.06,0.008 0.12,0.011 0.179,0.011l0.791,0c0.06,0 0.131,-0.011 0.214,-0.032c0.083,-0.022 0.154,-0.052 0.214,-0.089c0.06,-0.038 0.119,-0.079 0.179,-0.124c0.06,-0.044 0.12,-0.093 0.182,-0.147c0.061,-0.053 0.122,-0.11 0.182,-0.169c0.06,-0.059 0.123,-0.115 0.19,-0.169c0.068,-0.053 0.131,-0.106 0.191,-0.158c0.06,-0.052 0.124,-0.115 0.193,-0.19c0.07,-0.075 0.134,-0.14 0.194,-0.193c0.059,-0.053 0.119,-0.11 0.179,-0.169c0.059,-0.059 0.115,-0.119 0.167,-0.18c0.052,-0.06 0.109,-0.124 0.171,-0.192c0.061,-0.068 0.118,-0.14 0.17,-0.215c0.052,-0.075 0.094,-0.138 0.124,-0.19c0.031,-0.052 0.057,-0.105 0.078,-0.159c0.021,-0.053 0.044,-0.106 0.067,-0.157c0.023,-0.052 0.046,-0.109 0.069,-0.17c0.023,-0.06 0.046,-0.12 0.069,-0.179c0.023,-0.06 0.046,-0.119 0.067,-0.18c0.021,-0.061 0.043,-0.125 0.066,-0.193c0.023,-0.068 0.043,-0.131 0.058,-0.19c0.015,-0.06 0.037,-0.145 0.066,-0.258c0.029,-0.113 0.055,-0.23 0.078,-0.351c0.023,-0.121 0.039,-0.215 0.047,-0.281c0.007,-0.067 0.011,-0.134 0.011,-0.202l0,-0.654l0,-0.102" style="fill:none;stroke:#000;stroke-width:1.67px;"/><path id="STROKE_515E5277.-C0DF.-41B2.-966D.-163E5C6A4451" d="M108.559,74.41c0.046,-0.104 0.079,-0.198 0.101,-0.282c0.021,-0.083 0.035,-0.155 0.043,-0.214c0.008,-0.059 0.019,-0.119 0.035,-0.18c0.015,-0.06 0.027,-0.12 0.034,-0.18c0.008,-0.059 0.012,-0.122 0.012,-0.19c0,-0.068 0.003,-0.132 0.011,-0.193c0.008,-0.061 0.016,-0.125 0.023,-0.193c0.008,-0.068 0.016,-0.139 0.023,-0.214c0.008,-0.075 0.012,-0.15 0.012,-0.225c0,-0.075 0.004,-0.161 0.012,-0.258c0.007,-0.097 0.011,-0.191 0.011,-0.282l0,-3.3c0,-0.068 -0.004,-0.132 -0.011,-0.193c-0.008,-0.06 -0.012,-0.12 -0.012,-0.18c0,-0.059 -0.008,-0.122 -0.023,-0.19c-0.016,-0.068 -0.043,-0.124 -0.081,-0.169c-0.038,-0.045 -0.088,-0.067 -0.147,-0.067c-0.06,0 -0.101,0.033 -0.124,0.099c-0.024,0.067 -0.042,0.145 -0.055,0.236c-0.014,0.091 -0.02,0.167 -0.02,0.228c0,0.06 -0.004,0.124 -0.012,0.191c-0.008,0.066 -0.011,0.148 -0.011,0.246l0,4.54" style="fill:none;stroke:#000;stroke-width:1.67px;"/><path id="STROKE_F038B121.-0BEA.-4C0C.-B8DC.-E23DCBF74367" d="M90.551,72.313c0.043,-0.135 0.068,-0.241 0.075,-0.316c0.008,-0.075 0.012,-0.146 0.012,-0.212l0,-1.588c0,-0.105 -0.008,-0.214 -0.023,-0.327c-0.016,-0.112 -0.034,-0.225 -0.055,-0.337c-0.021,-0.113 -0.04,-0.2 -0.055,-0.26c-0.015,-0.061 -0.035,-0.144 -0.058,-0.249c-0.023,-0.106 -0.049,-0.207 -0.078,-0.303c-0.029,-0.097 -0.058,-0.195 -0.089,-0.293c-0.031,-0.098 -0.058,-0.173 -0.081,-0.225c-0.023,-0.052 -0.049,-0.124 -0.078,-0.215c-0.029,-0.091 -0.063,-0.181 -0.101,-0.27c-0.039,-0.09 -0.08,-0.18 -0.124,-0.271c-0.045,-0.091 -0.09,-0.178 -0.136,-0.26c-0.046,-0.082 -0.091,-0.165 -0.136,-0.247c-0.044,-0.082 -0.089,-0.157 -0.135,-0.225c-0.047,-0.068 -0.096,-0.131 -0.148,-0.19c-0.052,-0.06 -0.108,-0.123 -0.167,-0.191c-0.06,-0.068 -0.113,-0.132 -0.159,-0.193c-0.046,-0.061 -0.091,-0.125 -0.136,-0.193c-0.044,-0.068 -0.089,-0.135 -0.136,-0.203c-0.046,-0.068 -0.087,-0.135 -0.124,-0.202c-0.036,-0.066 -0.074,-0.13 -0.112,-0.19c-0.039,-0.061 -0.076,-0.117 -0.113,-0.169c-0.036,-0.052 -0.078,-0.101 -0.124,-0.148c-0.046,-0.046 -0.092,-0.091 -0.136,-0.136c-0.044,-0.045 -0.089,-0.086 -0.136,-0.123c-0.046,-0.038 -0.091,-0.075 -0.135,-0.113c-0.044,-0.037 -0.092,-0.075 -0.144,-0.113c-0.053,-0.037 -0.102,-0.075 -0.148,-0.112c-0.046,-0.038 -0.095,-0.067 -0.147,-0.089c-0.052,-0.022 -0.112,-0.044 -0.179,-0.067c-0.068,-0.023 -0.132,-0.042 -0.193,-0.056c-0.062,-0.015 -0.131,-0.03 -0.206,-0.046c-0.075,-0.016 -0.142,-0.027 -0.202,-0.035c-0.059,-0.007 -0.131,-0.011 -0.213,-0.011l-0.393,0c-0.06,0 -0.128,0.004 -0.205,0.011c-0.077,0.008 -0.157,0.023 -0.24,0.046c-0.083,0.023 -0.161,0.05 -0.237,0.08c-0.075,0.03 -0.146,0.064 -0.213,0.102c-0.068,0.037 -0.135,0.075 -0.202,0.112c-0.068,0.038 -0.131,0.076 -0.191,0.113c-0.06,0.038 -0.119,0.079 -0.179,0.124c-0.06,0.044 -0.12,0.089 -0.182,0.134c-0.062,0.045 -0.118,0.097 -0.17,0.158c-0.052,0.061 -0.108,0.124 -0.168,0.191c-0.06,0.066 -0.116,0.137 -0.17,0.212c-0.054,0.075 -0.107,0.146 -0.159,0.214c-0.052,0.068 -0.104,0.139 -0.156,0.215c-0.052,0.075 -0.101,0.146 -0.147,0.214c-0.047,0.068 -0.092,0.136 -0.136,0.203c-0.044,0.068 -0.089,0.14 -0.135,0.215c-0.047,0.075 -0.088,0.146 -0.125,0.214c-0.036,0.068 -0.078,0.143 -0.124,0.226c-0.046,0.082 -0.088,0.168 -0.124,0.257c-0.037,0.09 -0.074,0.184 -0.113,0.282c-0.038,0.098 -0.076,0.196 -0.113,0.295c-0.036,0.098 -0.074,0.195 -0.112,0.292c-0.039,0.097 -0.065,0.175 -0.081,0.236c-0.015,0.06 -0.03,0.121 -0.043,0.182c-0.014,0.06 -0.032,0.143 -0.055,0.247c-0.023,0.104 -0.042,0.186 -0.058,0.246c-0.015,0.061 -0.027,0.122 -0.034,0.183c-0.008,0.06 -0.02,0.142 -0.035,0.246c-0.016,0.104 -0.031,0.213 -0.046,0.325c-0.016,0.113 -0.03,0.222 -0.044,0.327c-0.013,0.106 -0.024,0.189 -0.031,0.249c-0.008,0.061 -0.02,0.144 -0.035,0.249c-0.015,0.106 -0.023,0.188 -0.023,0.247c0,0.059 -0.004,0.119 -0.012,0.18c-0.007,0.061 -0.015,0.125 -0.023,0.193c-0.008,0.068 -0.015,0.136 -0.023,0.203c-0.007,0.068 -0.011,0.135 -0.011,0.202c0,0.066 -0.004,0.133 -0.012,0.201c-0.008,0.068 -0.015,0.132 -0.023,0.193c-0.008,0.061 -0.015,0.121 -0.023,0.18c-0.008,0.059 -0.012,0.119 -0.012,0.179c0,0.061 -0.003,0.144 -0.008,0.25c-0.006,0.105 -0.017,0.207 -0.032,0.305c-0.016,0.098 -0.023,0.192 -0.023,0.281l0,1.419c0,0.091 0.003,0.185 0.011,0.282c0.008,0.096 0.022,0.19 0.044,0.281c0.021,0.091 0.047,0.178 0.078,0.26c0.03,0.082 0.065,0.161 0.104,0.236c0.038,0.075 0.08,0.147 0.124,0.214c0.044,0.068 0.088,0.132 0.132,0.191c0.045,0.059 0.094,0.115 0.148,0.169c0.054,0.053 0.107,0.11 0.158,0.169c0.052,0.059 0.108,0.119 0.168,0.18c0.06,0.06 0.113,0.121 0.159,0.181c0.046,0.061 0.091,0.114 0.136,0.159c0.044,0.044 0.085,0.093 0.124,0.145c0.038,0.052 0.076,0.1 0.112,0.145c0.037,0.045 0.078,0.09 0.124,0.136c0.047,0.046 0.088,0.096 0.125,0.148c0.036,0.052 0.082,0.1 0.136,0.145c0.053,0.044 0.102,0.093 0.147,0.147c0.044,0.053 0.096,0.099 0.156,0.136c0.059,0.038 0.124,0.079 0.193,0.124c0.069,0.045 0.138,0.082 0.205,0.112c0.067,0.031 0.146,0.061 0.237,0.091c0.09,0.031 0.177,0.06 0.26,0.089c0.083,0.029 0.161,0.055 0.237,0.078c0.075,0.023 0.154,0.053 0.236,0.091c0.083,0.038 0.154,0.072 0.214,0.102c0.06,0.03 0.12,0.056 0.179,0.078c0.06,0.021 0.117,0.04 0.17,0.056c0.054,0.016 0.111,0.031 0.171,0.046c0.06,0.014 0.119,0.025 0.179,0.032c0.06,0.007 0.119,0.011 0.179,0.011l0.656,0c0.076,0 0.152,-0.015 0.228,-0.043c0.075,-0.029 0.142,-0.059 0.202,-0.089c0.059,-0.031 0.119,-0.065 0.179,-0.102c0.059,-0.038 0.119,-0.075 0.179,-0.113c0.059,-0.037 0.12,-0.078 0.182,-0.123c0.061,-0.045 0.122,-0.098 0.182,-0.158c0.059,-0.061 0.119,-0.125 0.179,-0.193c0.059,-0.068 0.119,-0.139 0.179,-0.214c0.059,-0.075 0.116,-0.15 0.17,-0.226c0.054,-0.075 0.115,-0.153 0.182,-0.236c0.067,-0.082 0.131,-0.172 0.191,-0.27c0.059,-0.099 0.105,-0.177 0.135,-0.237c0.031,-0.059 0.065,-0.126 0.101,-0.201c0.037,-0.075 0.071,-0.146 0.101,-0.214c0.031,-0.068 0.062,-0.139 0.093,-0.215c0.031,-0.075 0.061,-0.153 0.089,-0.236c0.029,-0.082 0.059,-0.165 0.09,-0.249c0.031,-0.084 0.058,-0.17 0.081,-0.26c0.023,-0.089 0.049,-0.187 0.078,-0.292c0.029,-0.106 0.058,-0.203 0.089,-0.292c0.031,-0.09 0.058,-0.184 0.081,-0.282c0.023,-0.098 0.049,-0.203 0.078,-0.316c0.029,-0.113 0.059,-0.225 0.089,-0.338c0.031,-0.113 0.058,-0.225 0.081,-0.338c0.023,-0.112 0.042,-0.225 0.055,-0.338c0.014,-0.112 0.028,-0.221 0.043,-0.327c0.016,-0.105 0.027,-0.202 0.035,-0.292c0.008,-0.09 0.016,-0.183 0.023,-0.282c0.008,-0.098 0.012,-0.203 0.012,-0.316l0,-0.63l0,-0.145" style="fill:none;stroke:#000;stroke-width:1.67px;"/><path id="STROKE_C7E6736A.-0D66.-49E2.-9F6F.-B6C99A94C9C8" d="M86.399,73.418c0.073,0.107 0.117,0.13 0.133,0.069c0.015,-0.06 0.023,-0.14 0.023,-0.238l0,-3.019c0,-0.066 -0.004,-0.134 -0.012,-0.201c-0.007,-0.068 -0.011,-0.132 -0.011,-0.193c0,-0.061 -0.004,-0.121 -0.012,-0.18c-0.008,-0.059 -0.015,-0.138 -0.023,-0.236c-0.008,-0.098 -0.015,-0.188 -0.023,-0.271c-0.008,-0.082 -0.018,-0.153 -0.032,-0.214c-0.013,-0.061 -0.024,-0.125 -0.032,-0.193c-0.007,-0.068 -0.038,-0.087 -0.092,-0.056c-0.054,0.03 -0.092,0.102 -0.113,0.214c-0.021,0.113 -0.039,0.203 -0.054,0.271c-0.016,0.068 -0.027,0.136 -0.035,0.203c-0.008,0.068 -0.019,0.14 -0.035,0.215c-0.015,0.075 -0.027,0.154 -0.035,0.236c-0.007,0.082 -0.015,0.168 -0.023,0.258c-0.007,0.089 -0.015,0.187 -0.023,0.292c-0.007,0.106 -0.015,0.204 -0.023,0.294c-0.007,0.091 -0.011,0.182 -0.011,0.271l0,1.759" style="fill:none;stroke:#000;stroke-width:1.67px;"/><path id="STROKE_BA8A5A67.-1C1A.-4C13.-A1F4.-AE8CBE26F096" d="M102.801,79.703c0.107,-0.029 0.161,-0.074 0.161,-0.134c0,-0.061 -0.004,-0.121 -0.011,-0.18c-0.008,-0.059 -0.038,-0.111 -0.09,-0.156c-0.052,-0.045 -0.112,-0.09 -0.182,-0.137c-0.069,-0.046 -0.134,-0.083 -0.193,-0.112c-0.06,-0.029 -0.12,-0.059 -0.179,-0.089c-0.06,-0.03 -0.124,-0.057 -0.191,-0.08c-0.067,-0.023 -0.132,-0.046 -0.193,-0.067c-0.062,-0.022 -0.127,-0.044 -0.194,-0.067c-0.067,-0.023 -0.131,-0.05 -0.191,-0.081c-0.059,-0.03 -0.123,-0.064 -0.19,-0.101c-0.067,-0.038 -0.135,-0.075 -0.202,-0.113c-0.067,-0.038 -0.139,-0.075 -0.214,-0.112c-0.075,-0.038 -0.15,-0.076 -0.225,-0.113c-0.075,-0.038 -0.147,-0.075 -0.216,-0.113c-0.07,-0.037 -0.146,-0.067 -0.229,-0.089c-0.082,-0.021 -0.161,-0.04 -0.236,-0.056c-0.076,-0.016 -0.155,-0.031 -0.237,-0.045c-0.083,-0.015 -0.166,-0.026 -0.248,-0.033c-0.083,-0.007 -0.166,-0.011 -0.249,-0.011l-0.843,0c-0.106,0 -0.208,0.008 -0.306,0.022c-0.098,0.014 -0.193,0.033 -0.283,0.056c-0.091,0.024 -0.174,0.042 -0.249,0.057c-0.075,0.014 -0.15,0.028 -0.225,0.043c-0.075,0.014 -0.146,0.03 -0.213,0.045c-0.068,0.016 -0.135,0.035 -0.203,0.057c-0.067,0.021 -0.134,0.047 -0.202,0.078c-0.067,0.03 -0.138,0.064 -0.213,0.102c-0.076,0.037 -0.148,0.071 -0.217,0.101c-0.069,0.031 -0.137,0.064 -0.205,0.102c-0.067,0.038 -0.131,0.079 -0.19,0.123c-0.06,0.045 -0.116,0.086 -0.168,0.124c-0.052,0.037 -0.101,0.075 -0.147,0.113c-0.047,0.037 -0.088,0.083 -0.125,0.136c-0.036,0.053 -0.066,0.106 -0.089,0.158l-0.035,0.078" style="fill:none;stroke:#000;stroke-width:1.67px;"/><path id="STROKE_C1811AF1.-687D.-4206.-9927.-CB3780EEF7A6" d="M103.118,79.976l0,1.26c0,0.075 -0.008,0.154 -0.023,0.236c-0.015,0.083 -0.03,0.161 -0.043,0.236c-0.014,0.075 -0.04,0.155 -0.078,0.238c-0.039,0.084 -0.08,0.164 -0.124,0.239c-0.045,0.075 -0.09,0.154 -0.136,0.236c-0.046,0.082 -0.091,0.161 -0.136,0.236c-0.044,0.075 -0.093,0.157 -0.147,0.247c-0.054,0.089 -0.103,0.176 -0.147,0.26c-0.045,0.083 -0.086,0.166 -0.125,0.249c-0.038,0.082 -0.075,0.161 -0.112,0.236c-0.037,0.075 -0.074,0.146 -0.113,0.214c-0.038,0.068 -0.076,0.135 -0.112,0.202c-0.037,0.066 -0.074,0.137 -0.113,0.212c-0.039,0.075 -0.08,0.154 -0.124,0.238c-0.044,0.084 -0.094,0.167 -0.148,0.249c-0.053,0.082 -0.099,0.161 -0.135,0.236c-0.037,0.075 -0.078,0.15 -0.124,0.226c-0.047,0.074 -0.092,0.142 -0.136,0.203c-0.044,0.061 -0.086,0.113 -0.124,0.158c-0.039,0.045 -0.08,0.097 -0.124,0.156c-0.045,0.059 -0.093,0.116 -0.145,0.169c-0.052,0.053 -0.097,0.106 -0.135,0.158c-0.039,0.052 -0.08,0.1 -0.125,0.145c-0.044,0.045 -0.101,0.086 -0.17,0.124c-0.069,0.037 -0.138,0.071 -0.205,0.101c-0.067,0.031 -0.131,0.061 -0.191,0.091c-0.059,0.031 -0.119,0.046 -0.179,0.046l-1.207,0c-0.067,0 -0.131,-0.015 -0.19,-0.046c-0.06,-0.03 -0.124,-0.056 -0.194,-0.078c-0.069,-0.021 -0.13,-0.047 -0.182,-0.078c-0.052,-0.03 -0.107,-0.057 -0.167,-0.08c-0.06,-0.023 -0.117,-0.042 -0.171,-0.056c-0.053,-0.014 -0.11,-0.037 -0.17,-0.067c-0.059,-0.03 -0.111,-0.064 -0.156,-0.102c-0.044,-0.037 -0.097,-0.075 -0.159,-0.113c-0.061,-0.037 -0.114,-0.078 -0.159,-0.123c-0.044,-0.045 -0.092,-0.09 -0.144,-0.134c-0.052,-0.045 -0.097,-0.094 -0.136,-0.148c-0.038,-0.053 -0.075,-0.114 -0.112,-0.181c-0.037,-0.068 -0.07,-0.132 -0.101,-0.191c-0.031,-0.059 -0.062,-0.116 -0.093,-0.169c-0.031,-0.053 -0.06,-0.11 -0.089,-0.169c-0.029,-0.059 -0.059,-0.119 -0.09,-0.18c-0.031,-0.06 -0.065,-0.117 -0.104,-0.169c-0.038,-0.052 -0.072,-0.108 -0.101,-0.168c-0.028,-0.061 -0.058,-0.126 -0.089,-0.193c-0.031,-0.068 -0.058,-0.128 -0.081,-0.18c-0.023,-0.052 -0.045,-0.116 -0.067,-0.191c-0.021,-0.075 -0.043,-0.15 -0.066,-0.225c-0.023,-0.075 -0.046,-0.143 -0.069,-0.204c-0.023,-0.06 -0.045,-0.116 -0.067,-0.168c-0.021,-0.052 -0.043,-0.109 -0.066,-0.169c-0.023,-0.061 -0.046,-0.121 -0.069,-0.18c-0.023,-0.059 -0.043,-0.119 -0.058,-0.18c-0.015,-0.061 -0.03,-0.128 -0.043,-0.203c-0.014,-0.076 -0.021,-0.147 -0.021,-0.215l0,-0.676c0,-0.067 -0.004,-0.135 -0.011,-0.203c-0.008,-0.068 -0.016,-0.131 -0.023,-0.191c-0.008,-0.059 -0.012,-0.122 -0.012,-0.19l0,-0.789l0,-0.101" style="fill:none;stroke:#000;stroke-width:1.67px;"/><path id="STROKE_EC577C49.-94E9.-4B47.-B818.-9A707725A57D" d="M103.592,81.033l0.69,0c0.083,0 0.158,-0.004 0.225,-0.011c0.068,-0.008 0.147,-0.022 0.237,-0.044c0.09,-0.021 0.177,-0.044 0.26,-0.067c0.083,-0.023 0.177,-0.049 0.283,-0.08c0.106,-0.03 0.204,-0.06 0.294,-0.091c0.091,-0.03 0.166,-0.049 0.226,-0.056c0.059,-0.007 0.142,-0.022 0.248,-0.043c0.106,-0.022 0.211,-0.041 0.315,-0.057c0.104,-0.016 0.201,-0.031 0.291,-0.045c0.091,-0.015 0.185,-0.03 0.283,-0.046c0.098,-0.015 0.189,-0.027 0.272,-0.034c0.083,-0.008 0.173,-0.018 0.271,-0.033c0.098,-0.014 0.196,-0.029 0.292,-0.045c0.096,-0.016 0.183,-0.028 0.26,-0.035c0.077,-0.007 0.171,-0.022 0.283,-0.043c0.111,-0.022 0.216,-0.041 0.314,-0.057c0.099,-0.016 0.177,-0.027 0.237,-0.034c0.06,-0.007 0.119,-0.011 0.179,-0.011c0.06,0 0.143,-0.007 0.249,-0.022c0.106,-0.014 0.204,-0.026 0.294,-0.034c0.09,-0.009 0.189,-0.021 0.295,-0.035c0.105,-0.014 0.21,-0.029 0.315,-0.043c0.103,-0.015 0.201,-0.03 0.291,-0.046c0.09,-0.016 0.167,-0.031 0.228,-0.045c0.062,-0.015 0.141,-0.037 0.237,-0.067c0.096,-0.031 0.171,-0.054 0.225,-0.07c0.054,-0.016 0.13,-0.034 0.228,-0.056c0.098,-0.022 0.177,-0.04 0.237,-0.056c0.06,-0.016 0.139,-0.035 0.237,-0.057c0.098,-0.021 0.199,-0.044 0.303,-0.067c0.104,-0.023 0.201,-0.042 0.292,-0.056c0.09,-0.015 0.177,-0.025 0.26,-0.032c0.082,-0.008 0.169,-0.016 0.259,-0.024c0.091,-0.009 0.178,-0.017 0.26,-0.024c0.083,-0.007 0.162,-0.018 0.237,-0.033c0.075,-0.014 0.154,-0.033 0.237,-0.056c0.083,-0.023 0.165,-0.046 0.248,-0.067c0.083,-0.022 0.166,-0.048 0.249,-0.078c0.082,-0.03 0.165,-0.057 0.248,-0.08c0.083,-0.023 0.162,-0.046 0.237,-0.067c0.075,-0.022 0.15,-0.041 0.225,-0.057c0.075,-0.016 0.15,-0.027 0.225,-0.034c0.075,-0.008 0.147,-0.011 0.217,-0.011c0.069,0 0.137,-0.004 0.205,-0.011c0.067,-0.007 0.131,-0.014 0.19,-0.022c0.06,-0.007 0.127,-0.015 0.203,-0.024c0.075,-0.008 0.146,-0.02 0.213,-0.034c0.068,-0.015 0.139,-0.033 0.214,-0.056c0.075,-0.024 0.146,-0.039 0.214,-0.046c0.067,-0.007 0.135,-0.014 0.205,-0.021c0.069,-0.008 0.141,-0.019 0.216,-0.033c0.075,-0.014 0.143,-0.022 0.202,-0.022c0.06,0 0.12,-0.008 0.179,-0.023c0.06,-0.016 0.124,-0.035 0.191,-0.057c0.067,-0.021 0.132,-0.04 0.193,-0.056c0.062,-0.016 0.13,-0.035 0.205,-0.057c0.075,-0.021 0.143,-0.04 0.202,-0.056c0.06,-0.016 0.124,-0.031 0.191,-0.045c0.067,-0.015 0.139,-0.03 0.214,-0.046c0.075,-0.016 0.146,-0.031 0.214,-0.045c0.067,-0.015 0.128,-0.033 0.181,-0.056c0.054,-0.024 0.127,-0.046 0.217,-0.068c0.09,-0.021 0.169,-0.044 0.237,-0.067c0.067,-0.023 0.134,-0.045 0.202,-0.067c0.067,-0.022 0.135,-0.041 0.202,-0.056c0.067,-0.016 0.135,-0.028 0.202,-0.035c0.068,-0.007 0.132,-0.018 0.194,-0.032c0.061,-0.015 0.13,-0.033 0.205,-0.057c0.075,-0.023 0.142,-0.046 0.202,-0.069c0.06,-0.023 0.119,-0.038 0.179,-0.046l0.089,-0.01" style="fill:none;stroke:#000;stroke-width:1.67px;"/><path id="STROKE_7419E165.-F197.-4675.-8831.-94CD9E7DFE0C" d="M102.535,82.137c0.104,0.046 0.189,0.07 0.257,0.07l2.212,0c0.067,0 0.135,0.003 0.202,0.01c0.067,0.007 0.142,0.019 0.225,0.035c0.083,0.016 0.169,0.031 0.26,0.045c0.09,0.015 0.203,0.037 0.338,0.067c0.135,0.031 0.247,0.057 0.338,0.078c0.09,0.022 0.162,0.041 0.216,0.057c0.054,0.016 0.133,0.035 0.237,0.056c0.104,0.022 0.205,0.041 0.303,0.057c0.098,0.015 0.193,0.03 0.283,0.045c0.091,0.014 0.173,0.03 0.249,0.045c0.075,0.016 0.15,0.031 0.225,0.046c0.075,0.014 0.15,0.029 0.225,0.043c0.075,0.015 0.15,0.03 0.225,0.046c0.075,0.015 0.15,0.031 0.225,0.045c0.076,0.014 0.151,0.03 0.226,0.045c0.075,0.016 0.151,0.032 0.228,0.046c0.077,0.015 0.149,0.029 0.217,0.043c0.067,0.015 0.142,0.03 0.225,0.046c0.082,0.016 0.173,0.031 0.271,0.045c0.098,0.015 0.185,0.03 0.26,0.046c0.075,0.016 0.157,0.031 0.245,0.045c0.089,0.015 0.172,0.025 0.249,0.033l0.115,0.011" style="fill:none;stroke:#000;stroke-width:1.67px;"/><circle id="STROKE_C908C0D1.-A219.-454A.-9635.-E36137EA2851" cx="110.857" cy="83.198" r="0.837" style="stroke:#000;stroke-width:0.03px;stroke-linecap:butt;stroke-linejoin:miter;"/><path id="STROKE_D3F6586A.-6224.-47CB.-9D57.-9CA0C6B66597" d="M111.354,83.242c0.15,0 0.26,0.008 0.329,0.023c0.069,0.016 0.134,0.031 0.193,0.046c0.06,0.014 0.124,0.033 0.191,0.056c0.067,0.023 0.142,0.046 0.225,0.067c0.083,0.022 0.158,0.037 0.225,0.044c0.068,0.007 0.135,0.015 0.203,0.024c0.067,0.008 0.135,0.016 0.204,0.023c0.07,0.007 0.138,0.011 0.206,0.011c0.067,0 0.142,0.007 0.225,0.022c0.082,0.014 0.158,0.03 0.225,0.045c0.067,0.016 0.135,0.035 0.202,0.057c0.068,0.021 0.131,0.044 0.191,0.067c0.059,0.023 0.123,0.042 0.19,0.056c0.068,0.014 0.132,0.029 0.194,0.045c0.061,0.016 0.13,0.028 0.205,0.035c0.075,0.007 0.158,0.015 0.248,0.022c0.091,0.007 0.181,0.011 0.272,0.011l0.664,0c0.067,0 0.134,0.003 0.202,0.011c0.067,0.007 0.135,0.018 0.202,0.034c0.067,0.016 0.136,0.035 0.205,0.057c0.069,0.021 0.134,0.043 0.194,0.067c0.059,0.023 0.123,0.041 0.19,0.056c0.068,0.014 0.139,0.025 0.214,0.032c0.075,0.008 0.142,0.011 0.202,0.011c0.059,0 0.12,0.005 0.182,0.013c0.061,0.009 0.122,0.017 0.182,0.024c0.059,0.007 0.127,0.015 0.202,0.022c0.075,0.007 0.142,0.018 0.202,0.032c0.06,0.015 0.119,0.03 0.179,0.046c0.06,0.016 0.12,0.031 0.182,0.045c0.062,0.015 0.126,0.03 0.193,0.046c0.068,0.016 0.139,0.031 0.214,0.045c0.075,0.014 0.154,0.033 0.237,0.056c0.083,0.024 0.181,0.05 0.295,0.08c0.113,0.031 0.2,0.053 0.259,0.068c0.06,0.014 0.12,0.029 0.179,0.043c0.06,0.014 0.123,0.037 0.191,0.067c0.067,0.031 0.128,0.054 0.182,0.07c0.054,0.015 0.122,0.027 0.205,0.034c0.083,0.007 0.162,0.014 0.237,0.022c0.075,0.007 0.15,0.018 0.225,0.032c0.075,0.015 0.146,0.03 0.213,0.046c0.068,0.016 0.128,0.039 0.18,0.069c0.051,0.03 0.104,0.06 0.158,0.089l0.081,0.043" style="fill:none;stroke:#000;stroke-width:1.67px;"/><path id="STROKE_A58CCBF0.-2E0D.-4754.-9E2F.-0413ABC83E63" d="M102.598,82.813c0.077,0.121 0.138,0.204 0.182,0.249c0.045,0.045 0.094,0.086 0.148,0.123c0.054,0.038 0.11,0.072 0.17,0.102c0.06,0.03 0.123,0.061 0.191,0.091c0.067,0.03 0.127,0.064 0.179,0.102c0.052,0.037 0.108,0.082 0.17,0.134c0.062,0.052 0.122,0.101 0.182,0.145c0.06,0.045 0.123,0.086 0.191,0.124c0.067,0.037 0.127,0.068 0.179,0.091c0.052,0.023 0.104,0.046 0.158,0.069c0.054,0.023 0.123,0.045 0.205,0.067c0.083,0.022 0.154,0.044 0.214,0.067c0.06,0.023 0.119,0.042 0.179,0.056c0.06,0.015 0.12,0.034 0.182,0.057c0.061,0.023 0.118,0.045 0.17,0.067c0.052,0.022 0.112,0.055 0.179,0.102c0.068,0.046 0.127,0.084 0.179,0.114c0.052,0.031 0.113,0.065 0.182,0.102c0.07,0.038 0.142,0.075 0.217,0.113c0.075,0.038 0.15,0.067 0.225,0.089c0.075,0.021 0.143,0.04 0.202,0.056c0.06,0.016 0.127,0.038 0.202,0.067c0.076,0.029 0.154,0.059 0.237,0.089c0.083,0.03 0.15,0.057 0.202,0.08c0.052,0.023 0.117,0.057 0.194,0.102c0.077,0.045 0.141,0.082 0.193,0.113c0.052,0.03 0.108,0.056 0.168,0.077c0.059,0.022 0.119,0.045 0.179,0.068c0.059,0.023 0.124,0.046 0.193,0.069c0.07,0.023 0.138,0.045 0.205,0.067c0.068,0.022 0.135,0.044 0.202,0.067c0.068,0.023 0.143,0.046 0.226,0.067c0.082,0.022 0.154,0.044 0.213,0.067c0.06,0.024 0.12,0.047 0.179,0.07c0.06,0.023 0.117,0.049 0.171,0.078c0.054,0.029 0.11,0.051 0.17,0.067c0.06,0.016 0.119,0.035 0.179,0.056c0.06,0.022 0.116,0.044 0.17,0.067c0.054,0.023 0.111,0.042 0.171,0.057c0.06,0.014 0.119,0.029 0.179,0.045c0.06,0.016 0.119,0.035 0.179,0.056c0.06,0.022 0.127,0.048 0.202,0.078c0.075,0.031 0.14,0.058 0.194,0.081c0.053,0.023 0.106,0.049 0.158,0.08c0.052,0.03 0.105,0.06 0.159,0.088c0.054,0.029 0.107,0.059 0.159,0.089c0.052,0.031 0.104,0.061 0.156,0.091c0.052,0.031 0.105,0.057 0.159,0.08c0.054,0.023 0.107,0.05 0.159,0.081c0.051,0.03 0.111,0.056 0.179,0.077c0.067,0.022 0.13,0.044 0.19,0.068c0.06,0.023 0.12,0.045 0.182,0.067c0.062,0.021 0.126,0.04 0.194,0.056c0.067,0.016 0.134,0.031 0.202,0.045c0.067,0.015 0.135,0.034 0.202,0.057c0.067,0.023 0.135,0.045 0.202,0.067c0.067,0.022 0.135,0.048 0.202,0.078c0.067,0.03 0.136,0.057 0.205,0.08c0.069,0.023 0.13,0.045 0.182,0.067c0.052,0.022 0.104,0.044 0.156,0.067c0.052,0.023 0.113,0.05 0.182,0.081c0.069,0.03 0.13,0.064 0.182,0.101c0.052,0.038 0.104,0.079 0.156,0.124c0.052,0.044 0.108,0.093 0.167,0.145c0.06,0.052 0.121,0.093 0.182,0.123c0.062,0.031 0.122,0.061 0.182,0.091c0.06,0.031 0.127,0.057 0.202,0.08c0.075,0.023 0.146,0.049 0.214,0.078c0.067,0.029 0.132,0.051 0.193,0.067c0.062,0.016 0.123,0.035 0.182,0.057c0.06,0.021 0.131,0.044 0.214,0.067c0.083,0.023 0.158,0.046 0.225,0.069c0.068,0.023 0.131,0.042 0.191,0.056c0.06,0.015 0.119,0.034 0.179,0.057c0.06,0.023 0.112,0.053 0.159,0.091c0.046,0.037 0.091,0.075 0.135,0.113c0.045,0.037 0.09,0.078 0.136,0.123c0.046,0.045 0.095,0.086 0.147,0.123c0.052,0.038 0.101,0.075 0.148,0.113c0.046,0.037 0.099,0.075 0.159,0.113c0.059,0.037 0.119,0.067 0.179,0.09c0.059,0.024 0.119,0.046 0.179,0.068c0.059,0.021 0.124,0.044 0.193,0.067c0.069,0.023 0.137,0.045 0.205,0.067c0.067,0.022 0.135,0.048 0.202,0.078c0.067,0.03 0.127,0.057 0.179,0.08c0.052,0.023 0.105,0.042 0.159,0.056c0.054,0.015 0.11,0.03 0.17,0.046c0.06,0.016 0.12,0.038 0.179,0.067c0.06,0.029 0.123,0.055 0.191,0.078l0.101,0.034" style="fill:none;stroke:#000;stroke-width:1.67px;"/><path id="STROKE_9919DBAE.-79F8.-40CD.-BB1A.-5137103AC4CE" d="M94.929,80.608c-0.15,0 -0.267,-0.008 -0.35,-0.024c-0.082,-0.016 -0.158,-0.031 -0.225,-0.045c-0.067,-0.015 -0.139,-0.033 -0.216,-0.056c-0.077,-0.024 -0.168,-0.046 -0.272,-0.068c-0.104,-0.021 -0.183,-0.04 -0.237,-0.056c-0.054,-0.016 -0.133,-0.039 -0.236,-0.069c-0.104,-0.031 -0.183,-0.053 -0.237,-0.067c-0.054,-0.015 -0.129,-0.029 -0.225,-0.044c-0.097,-0.014 -0.202,-0.037 -0.315,-0.067c-0.114,-0.03 -0.208,-0.049 -0.283,-0.056c-0.075,-0.007 -0.154,-0.015 -0.237,-0.024c-0.083,-0.009 -0.162,-0.017 -0.237,-0.024c-0.075,-0.007 -0.165,-0.014 -0.271,-0.021c-0.106,-0.008 -0.204,-0.015 -0.295,-0.022c-0.09,-0.007 -0.184,-0.011 -0.283,-0.011c-0.098,0 -0.199,-0.004 -0.303,-0.011c-0.104,-0.007 -0.197,-0.018 -0.28,-0.034c-0.083,-0.016 -0.169,-0.028 -0.26,-0.035c-0.09,-0.007 -0.181,-0.015 -0.271,-0.022c-0.091,-0.007 -0.181,-0.019 -0.272,-0.034c-0.09,-0.016 -0.181,-0.031 -0.271,-0.046c-0.091,-0.014 -0.185,-0.033 -0.283,-0.056c-0.098,-0.023 -0.181,-0.042 -0.249,-0.056c-0.067,-0.015 -0.138,-0.034 -0.213,-0.057c-0.075,-0.023 -0.15,-0.042 -0.225,-0.056c-0.075,-0.015 -0.151,-0.033 -0.226,-0.056c-0.075,-0.023 -0.15,-0.042 -0.225,-0.057c-0.075,-0.014 -0.154,-0.033 -0.237,-0.056c-0.082,-0.023 -0.161,-0.042 -0.236,-0.056c-0.076,-0.015 -0.151,-0.03 -0.226,-0.046c-0.075,-0.016 -0.15,-0.031 -0.225,-0.045c-0.075,-0.015 -0.15,-0.029 -0.225,-0.044c-0.075,-0.014 -0.151,-0.029 -0.228,-0.045c-0.077,-0.016 -0.153,-0.031 -0.228,-0.046c-0.076,-0.014 -0.147,-0.029 -0.214,-0.045c-0.067,-0.016 -0.139,-0.031 -0.214,-0.046c-0.075,-0.014 -0.146,-0.028 -0.213,-0.043c-0.068,-0.014 -0.139,-0.026 -0.214,-0.035c-0.075,-0.008 -0.146,-0.02 -0.214,-0.034c-0.067,-0.015 -0.135,-0.025 -0.202,-0.033c-0.067,-0.007 -0.132,-0.018 -0.193,-0.034c-0.062,-0.016 -0.123,-0.028 -0.182,-0.035c-0.06,-0.007 -0.12,-0.018 -0.18,-0.032c-0.059,-0.015 -0.138,-0.034 -0.236,-0.057c-0.098,-0.023 -0.177,-0.042 -0.237,-0.056c-0.06,-0.015 -0.139,-0.037 -0.237,-0.067c-0.098,-0.03 -0.208,-0.057 -0.329,-0.08c-0.121,-0.023 -0.226,-0.049 -0.314,-0.078c-0.089,-0.029 -0.183,-0.055 -0.281,-0.078c-0.098,-0.023 -0.2,-0.046 -0.306,-0.069c-0.106,-0.024 -0.188,-0.039 -0.248,-0.046c-0.06,-0.007 -0.119,-0.015 -0.179,-0.022c-0.06,-0.007 -0.15,-0.018 -0.272,-0.032c-0.121,-0.015 -0.211,-0.022 -0.271,-0.022c-0.06,0 -0.12,-0.004 -0.182,-0.013c-0.062,-0.008 -0.126,-0.013 -0.193,-0.013l-1.352,0c-0.098,0 -0.177,-0.003 -0.237,-0.011c-0.059,-0.007 -0.138,-0.014 -0.236,-0.021c-0.099,-0.007 -0.189,-0.011 -0.272,-0.011c-0.083,0 -0.181,-0.004 -0.294,-0.011c-0.114,-0.007 -0.208,-0.019 -0.283,-0.035c-0.075,-0.015 -0.161,-0.027 -0.257,-0.034c-0.097,-0.008 -0.183,-0.018 -0.26,-0.033c-0.077,-0.014 -0.153,-0.021 -0.228,-0.021c-0.075,0 -0.151,-0.004 -0.226,-0.011c-0.075,-0.007 -0.15,-0.011 -0.225,-0.011l-0.924,0c-0.075,0 -0.146,-0.004 -0.214,-0.013c-0.067,-0.009 -0.138,-0.013 -0.213,-0.013l-1.444,0c-0.06,0 -0.124,0.004 -0.193,0.013c-0.07,0.009 -0.149,0.02 -0.237,0.035c-0.089,0.014 -0.164,0.021 -0.226,0.021c-0.061,0 -0.126,0.004 -0.193,0.011c-0.067,0.007 -0.139,0.019 -0.214,0.035c-0.075,0.015 -0.146,0.027 -0.213,0.034c-0.068,0.008 -0.139,0.015 -0.214,0.022c-0.075,0.007 -0.146,0.015 -0.214,0.022c-0.067,0.007 -0.138,0.014 -0.213,0.021c-0.076,0.008 -0.154,0.019 -0.237,0.035c-0.083,0.016 -0.163,0.031 -0.24,0.046c-0.077,0.014 -0.153,0.029 -0.228,0.045c-0.075,0.016 -0.146,0.027 -0.214,0.035c-0.067,0.007 -0.134,0.014 -0.202,0.021c-0.067,0.007 -0.135,0.011 -0.202,0.011c-0.067,0 -0.131,0.004 -0.191,0.011c-0.059,0.007 -0.124,0.014 -0.193,0.022c-0.069,0.007 -0.138,0.015 -0.205,0.023c-0.068,0.009 -0.139,0.021 -0.214,0.035l-0.112,0.022" style="fill:none;stroke:#000;stroke-width:1.67px;"/><path id="STROKE_9A4E6D18.-F84D.-4DBA.-ACDF.-2D011C6BC4BB" d="M95.449,82.544c-0.139,0 -0.238,0 -0.298,0c-0.059,0 -0.123,-0.003 -0.19,-0.011c-0.068,-0.007 -0.143,-0.01 -0.226,-0.01c-0.082,0 -0.173,-0.004 -0.271,-0.011c-0.098,-0.007 -0.203,-0.011 -0.315,-0.011l-1.319,0c-0.076,0 -0.155,0.004 -0.237,0.011c-0.083,0.007 -0.166,0.014 -0.248,0.021c-0.083,0.008 -0.166,0.015 -0.249,0.022c-0.083,0.007 -0.177,0.015 -0.283,0.022c-0.106,0.007 -0.208,0.015 -0.306,0.024c-0.098,0.008 -0.203,0.02 -0.315,0.034c-0.111,0.015 -0.216,0.025 -0.314,0.033c-0.099,0.007 -0.197,0.014 -0.295,0.022c-0.098,0.007 -0.203,0.014 -0.315,0.023c-0.111,0.009 -0.22,0.013 -0.326,0.013c-0.106,0 -0.204,0.004 -0.295,0.011c-0.09,0.007 -0.192,0.011 -0.306,0.011c-0.113,0 -0.218,0.003 -0.314,0.011c-0.097,0.007 -0.19,0.014 -0.28,0.021c-0.091,0.008 -0.189,0.015 -0.295,0.022c-0.106,0.007 -0.193,0.011 -0.26,0.011c-0.067,0 -0.158,0.004 -0.272,0.013c-0.113,0.009 -0.219,0.016 -0.317,0.023c-0.098,0.008 -0.185,0.015 -0.26,0.022c-0.075,0.008 -0.154,0.015 -0.237,0.022c-0.083,0.007 -0.169,0.014 -0.26,0.021c-0.09,0.008 -0.177,0.016 -0.259,0.024c-0.083,0.009 -0.162,0.017 -0.237,0.024c-0.075,0.007 -0.165,0.015 -0.269,0.022c-0.104,0.007 -0.213,0.018 -0.326,0.032c-0.114,0.015 -0.2,0.026 -0.26,0.035c-0.06,0.009 -0.12,0.017 -0.182,0.024c-0.062,0.007 -0.13,0.014 -0.205,0.022c-0.075,0.007 -0.146,0.014 -0.214,0.021c-0.067,0.007 -0.135,0.015 -0.202,0.022c-0.067,0.007 -0.135,0.011 -0.202,0.011c-0.067,0 -0.135,0.004 -0.202,0.013c-0.067,0.008 -0.139,0.013 -0.214,0.013c-0.075,0 -0.147,0.003 -0.216,0.01c-0.07,0.008 -0.142,0.011 -0.217,0.011c-0.075,0 -0.146,0 -0.214,0c-0.067,0 -0.13,0.004 -0.19,0.011c-0.06,0.007 -0.119,0.011 -0.179,0.011c-0.06,0 -0.12,0 -0.182,0c-0.062,0 -0.126,0.003 -0.193,0.011c-0.068,0.007 -0.131,0.011 -0.191,0.011c-0.06,0 -0.119,0.003 -0.179,0.01c-0.06,0.008 -0.119,0.016 -0.179,0.024c-0.06,0.009 -0.143,0.017 -0.249,0.024c-0.106,0.007 -0.188,0.015 -0.248,0.022c-0.06,0.007 -0.142,0.014 -0.248,0.021c-0.106,0.008 -0.208,0.015 -0.306,0.022c-0.098,0.007 -0.204,0.019 -0.318,0.035c-0.114,0.016 -0.226,0.031 -0.338,0.045c-0.111,0.015 -0.197,0.03 -0.257,0.046c-0.059,0.016 -0.12,0.031 -0.182,0.045c-0.061,0.015 -0.122,0.029 -0.182,0.044c-0.059,0.014 -0.119,0.025 -0.179,0.034c-0.059,0.009 -0.119,0.017 -0.179,0.024c-0.059,0.007 -0.142,0.018 -0.248,0.032c-0.106,0.015 -0.212,0.026 -0.318,0.033c-0.106,0.007 -0.204,0.015 -0.294,0.024c-0.091,0.008 -0.177,0.016 -0.26,0.023c-0.083,0.008 -0.17,0.015 -0.26,0.022c-0.09,0.007 -0.173,0.018 -0.248,0.033c-0.075,0.014 -0.158,0.029 -0.249,0.045c-0.09,0.016 -0.177,0.028 -0.259,0.035c-0.083,0.007 -0.166,0.014 -0.249,0.022c-0.083,0.007 -0.172,0.018 -0.268,0.034c-0.097,0.016 -0.194,0.031 -0.292,0.046c-0.098,0.014 -0.197,0.025 -0.295,0.032c-0.098,0.007 -0.196,0.015 -0.294,0.022c-0.098,0.007 -0.185,0.019 -0.26,0.034c-0.075,0.016 -0.158,0.031 -0.248,0.046c-0.091,0.014 -0.174,0.029 -0.249,0.045c-0.075,0.016 -0.15,0.028 -0.225,0.035c-0.075,0.007 -0.154,0.018 -0.237,0.032c-0.083,0.015 -0.169,0.03 -0.259,0.046c-0.091,0.016 -0.185,0.031 -0.284,0.046c-0.098,0.014 -0.195,0.028 -0.291,0.043c-0.097,0.014 -0.19,0.029 -0.28,0.045c-0.091,0.016 -0.167,0.031 -0.229,0.046c-0.061,0.014 -0.144,0.029 -0.248,0.045c-0.104,0.016 -0.209,0.031 -0.315,0.046c-0.105,0.014 -0.215,0.029 -0.329,0.045c-0.113,0.016 -0.226,0.031 -0.338,0.046c-0.111,0.014 -0.224,0.029 -0.338,0.043c-0.113,0.014 -0.222,0.029 -0.326,0.045c-0.104,0.016 -0.197,0.031 -0.28,0.046c-0.083,0.014 -0.155,0.03 -0.216,0.046c-0.062,0.015 -0.055,0.023 0.02,0.023c0.075,0 0.147,0 0.216,0c0.07,0 0.142,-0.004 0.217,-0.013l0.112,-0.013" style="fill:none;stroke:#000;stroke-width:1.67px;"/><path id="STROKE_27B87938.-8BCE.-4651.-A89A.-FF670E9083BB" d="M96.194,83.649c-0.123,0 -0.227,0.007 -0.309,0.021c-0.083,0.015 -0.166,0.041 -0.249,0.078c-0.082,0.038 -0.169,0.072 -0.259,0.102c-0.091,0.031 -0.192,0.064 -0.304,0.102c-0.111,0.038 -0.201,0.064 -0.268,0.078c-0.068,0.014 -0.136,0.033 -0.205,0.056c-0.07,0.023 -0.152,0.046 -0.249,0.069c-0.096,0.024 -0.182,0.042 -0.257,0.057c-0.075,0.014 -0.158,0.033 -0.248,0.056c-0.09,0.023 -0.181,0.046 -0.271,0.067c-0.091,0.022 -0.181,0.044 -0.272,0.068c-0.09,0.022 -0.188,0.045 -0.294,0.067c-0.106,0.021 -0.211,0.044 -0.315,0.067c-0.104,0.023 -0.201,0.046 -0.292,0.069c-0.09,0.023 -0.196,0.05 -0.318,0.08c-0.121,0.031 -0.234,0.056 -0.34,0.078c-0.106,0.022 -0.215,0.044 -0.327,0.067c-0.111,0.023 -0.22,0.046 -0.326,0.067c-0.106,0.022 -0.215,0.048 -0.329,0.078c-0.114,0.031 -0.218,0.057 -0.315,0.08c-0.096,0.024 -0.209,0.05 -0.338,0.081c-0.129,0.03 -0.249,0.056 -0.36,0.078c-0.112,0.021 -0.225,0.047 -0.338,0.078c-0.114,0.03 -0.224,0.056 -0.33,0.08c-0.106,0.023 -0.207,0.049 -0.303,0.078c-0.096,0.029 -0.193,0.055 -0.292,0.078c-0.098,0.023 -0.203,0.049 -0.317,0.08c-0.114,0.03 -0.216,0.056 -0.306,0.078c-0.091,0.021 -0.177,0.047 -0.26,0.078c-0.083,0.03 -0.18,0.06 -0.292,0.091c-0.111,0.03 -0.213,0.057 -0.303,0.08c-0.09,0.023 -0.185,0.049 -0.283,0.078c-0.098,0.029 -0.196,0.055 -0.294,0.078c-0.099,0.023 -0.201,0.05 -0.307,0.08c-0.105,0.03 -0.196,0.056 -0.271,0.078c-0.075,0.022 -0.161,0.048 -0.257,0.078c-0.096,0.03 -0.186,0.057 -0.268,0.08c-0.083,0.023 -0.166,0.045 -0.249,0.067c-0.083,0.022 -0.169,0.048 -0.26,0.078c-0.09,0.03 -0.177,0.057 -0.26,0.08c-0.082,0.023 -0.169,0.046 -0.259,0.067c-0.091,0.022 -0.178,0.048 -0.26,0.078c-0.083,0.031 -0.166,0.057 -0.249,0.08c-0.082,0.023 -0.161,0.047 -0.236,0.07c-0.076,0.023 -0.151,0.045 -0.226,0.067c-0.075,0.021 -0.15,0.044 -0.225,0.067c-0.075,0.023 -0.147,0.042 -0.217,0.056c-0.069,0.015 -0.133,0.03 -0.193,0.046c-0.06,0.016 -0.119,0.031 -0.179,0.045c-0.06,0.015 -0.123,0.033 -0.19,0.056c-0.068,0.024 -0.131,0.042 -0.191,0.057c-0.06,0.014 -0.124,0.029 -0.194,0.043c-0.069,0.015 -0.133,0.033 -0.193,0.057c-0.06,0.023 -0.123,0.046 -0.191,0.069c-0.067,0.023 -0.134,0.042 -0.202,0.056c-0.067,0.015 -0.135,0.033 -0.202,0.056c-0.067,0.024 -0.136,0.046 -0.205,0.067c-0.069,0.022 -0.142,0.045 -0.216,0.068c-0.076,0.023 -0.143,0.045 -0.203,0.067c-0.059,0.021 -0.127,0.044 -0.202,0.067c-0.075,0.023 -0.146,0.046 -0.214,0.069c-0.067,0.023 -0.134,0.042 -0.202,0.057c-0.067,0.014 -0.138,0.033 -0.213,0.056c-0.076,0.023 -0.144,0.045 -0.205,0.067c-0.062,0.022 -0.127,0.044 -0.194,0.067c-0.067,0.023 -0.134,0.046 -0.202,0.067c-0.067,0.022 -0.131,0.044 -0.19,0.067c-0.06,0.023 -0.128,0.047 -0.203,0.07c-0.075,0.023 -0.143,0.049 -0.205,0.078c-0.061,0.028 -0.126,0.054 -0.193,0.078c-0.068,0.023 -0.135,0.046 -0.202,0.069c-0.068,0.023 -0.135,0.045 -0.203,0.067c-0.067,0.022 -0.134,0.044 -0.202,0.067c-0.067,0.023 -0.131,0.05 -0.193,0.08c-0.062,0.031 -0.126,0.057 -0.193,0.078c-0.068,0.022 -0.135,0.041 -0.203,0.057c-0.067,0.015 -0.134,0.034 -0.202,0.056c-0.067,0.022 -0.138,0.048 -0.214,0.078c-0.075,0.03 -0.146,0.06 -0.213,0.091c-0.068,0.03 -0.143,0.057 -0.226,0.08c-0.082,0.023 -0.161,0.049 -0.236,0.078c-0.075,0.029 -0.154,0.058 -0.237,0.089c-0.083,0.03 -0.162,0.064 -0.237,0.101c-0.075,0.038 -0.154,0.072 -0.236,0.102c-0.083,0.031 -0.162,0.065 -0.237,0.102c-0.075,0.038 -0.154,0.072 -0.237,0.102c-0.083,0.03 -0.163,0.06 -0.24,0.091c-0.077,0.03 -0.153,0.06 -0.228,0.089c-0.075,0.029 -0.146,0.058 -0.214,0.089c-0.067,0.03 -0.134,0.056 -0.202,0.08c-0.067,0.023 -0.131,0.045 -0.19,0.067c-0.06,0.021 -0.117,0.044 -0.171,0.067c-0.054,0.023 -0.125,0.046 -0.213,0.069c-0.089,0.023 -0.164,0.046 -0.226,0.067l-0.092,0.033" style="fill:none;stroke:#000;stroke-width:1.67px;"/><path id="STROKE_7008491B.-B283.-4765.-BD17.-40C19D0AA904" d="M99.555,86.534c0,0.193 0,0.324 0,0.391c0,0.068 -0.008,0.143 -0.023,0.226c-0.016,0.082 -0.049,0.161 -0.101,0.236c-0.052,0.075 -0.078,0.146 -0.078,0.214c0,0.068 -0.008,0.151 -0.023,0.249c-0.016,0.098 -0.027,0.189 -0.035,0.271c-0.008,0.082 -0.012,0.161 -0.012,0.236c0,0.075 0,0.154 0,0.236c0,0.083 0.012,0.158 0.035,0.225c0.023,0.068 0.045,0.136 0.066,0.204c0.022,0.068 0.048,0.136 0.078,0.204c0.031,0.067 0.05,0.146 0.058,0.235c0.008,0.09 0.012,0.165 0.012,0.226l0,1.464c0,0.075 0.004,0.15 0.011,0.225c0.008,0.075 0.012,0.154 0.012,0.236l0,0.474c0,0.067 -0.004,0.13 -0.012,0.191c-0.007,0.061 -0.015,0.121 -0.023,0.182l-0.011,0.091" style="fill:none;stroke:#000;stroke-width:1.67px;"/><path id="STROKE_7FE35445.-35E0.-4D1D.-BC20.-2238C7B43716" d="M105.33,94.443c-0.119,0 -0.213,-0.019 -0.28,-0.056c-0.067,-0.038 -0.128,-0.08 -0.182,-0.126c-0.054,-0.046 -0.111,-0.084 -0.17,-0.113c-0.06,-0.029 -0.123,-0.058 -0.191,-0.089c-0.067,-0.03 -0.142,-0.057 -0.225,-0.08c-0.083,-0.023 -0.154,-0.042 -0.214,-0.056c-0.06,-0.015 -0.12,-0.022 -0.182,-0.022c-0.061,0 -0.122,-0.004 -0.182,-0.013c-0.059,-0.008 -0.123,-0.013 -0.19,-0.013c-0.068,0 -0.131,-0.003 -0.191,-0.011c-0.06,-0.007 -0.123,-0.014 -0.19,-0.021c-0.068,-0.007 -0.132,-0.015 -0.194,-0.022c-0.061,-0.007 -0.122,-0.014 -0.182,-0.022c-0.059,-0.007 -0.119,-0.018 -0.179,-0.034c-0.059,-0.016 -0.146,-0.031 -0.26,-0.046c-0.113,-0.014 -0.223,-0.036 -0.329,-0.067c-0.106,-0.03 -0.215,-0.06 -0.326,-0.091c-0.112,-0.03 -0.228,-0.056 -0.349,-0.078c-0.122,-0.021 -0.212,-0.036 -0.272,-0.045c-0.06,-0.009 -0.119,-0.02 -0.179,-0.035c-0.06,-0.014 -0.146,-0.029 -0.26,-0.043c-0.114,-0.015 -0.2,-0.022 -0.26,-0.022c-0.06,0 -0.142,-0.004 -0.248,-0.013c-0.106,-0.008 -0.212,-0.016 -0.318,-0.024c-0.106,-0.007 -0.203,-0.01 -0.292,-0.01c-0.088,0 -0.17,-0.004 -0.245,-0.011c-0.075,-0.008 -0.151,-0.015 -0.228,-0.022c-0.077,-0.007 -0.153,-0.011 -0.228,-0.011c-0.075,0 -0.146,-0.003 -0.214,-0.011c-0.067,-0.007 -0.135,-0.015 -0.202,-0.023c-0.067,-0.009 -0.139,-0.013 -0.214,-0.013l-1.265,0c-0.09,0 -0.176,0.004 -0.259,0.013c-0.083,0.008 -0.162,0.016 -0.237,0.023c-0.075,0.008 -0.15,0.015 -0.225,0.022c-0.075,0.007 -0.143,0.018 -0.202,0.033c-0.06,0.014 -0.12,0.029 -0.179,0.045c-0.06,0.016 -0.121,0.031 -0.182,0.045c-0.062,0.015 -0.123,0.03 -0.182,0.046c-0.06,0.016 -0.123,0.038 -0.191,0.067c-0.067,0.029 -0.138,0.055 -0.214,0.078c-0.075,0.023 -0.154,0.053 -0.236,0.091c-0.083,0.038 -0.158,0.071 -0.226,0.102c-0.067,0.03 -0.132,0.06 -0.193,0.091c-0.062,0.03 -0.123,0.064 -0.182,0.102c-0.06,0.037 -0.12,0.071 -0.179,0.101c-0.06,0.031 -0.116,0.057 -0.168,0.078l-0.078,0.033" style="fill:none;stroke:#000;stroke-width:1.67px;"/></g></g></svg>