<?xml version="1.0" encoding="UTF-8" standalone="no"?><!DOCTYPE svg PUBLIC "-//W3C//DTD SVG 1.1//EN" "http://www.w3.org/Graphics/SVG/1.1/DTD/svg11.dtd"><svg width="100%" height="100%" viewBox="0 0 160 160" version="1.1" xmlns="http://www.w3.org/2000/svg" xmlns:xlink="http://www.w3.org/1999/xlink" xml:space="preserve" style="fill-rule:evenodd;clip-rule:evenodd;stroke-linecap:round;stroke-linejoin:round;"><g id="faces"><g id="cool"><path id="STROKE_21762DEE.-C226.-473E.-821E.-3238E22F330C" d="M120.969,64.825c-0.125,0.024 -0.218,0.036 -0.277,0.036l-0.404,0c-0.06,0 -0.127,-0.006 -0.202,-0.018c-0.076,-0.012 -0.149,-0.031 -0.221,-0.056c-0.072,-0.026 -0.146,-0.057 -0.221,-0.092c-0.075,-0.035 -0.155,-0.066 -0.24,-0.092c-0.084,-0.026 -0.169,-0.05 -0.253,-0.074c-0.085,-0.023 -0.159,-0.041 -0.221,-0.053c-0.063,-0.011 -0.124,-0.023 -0.184,-0.035c-0.059,-0.011 -0.15,-0.03 -0.272,-0.056c-0.122,-0.026 -0.215,-0.045 -0.277,-0.057c-0.063,-0.011 -0.136,-0.023 -0.221,-0.035c-0.085,-0.012 -0.164,-0.023 -0.24,-0.035c-0.075,-0.012 -0.148,-0.018 -0.22,-0.018c-0.073,0 -0.14,-0.007 -0.203,-0.021c-0.062,-0.014 -0.136,-0.021 -0.22,-0.021c-0.085,0 -0.158,-0.006 -0.221,-0.018c-0.063,-0.011 -0.124,-0.017 -0.184,-0.017l-3.725,0c-0.101,0 -0.199,0.013 -0.296,0.039c-0.098,0.025 -0.176,0.044 -0.236,0.056c-0.059,0.012 -0.139,0.023 -0.239,0.035c-0.1,0.012 -0.199,0.024 -0.296,0.035c-0.097,0.012 -0.194,0.018 -0.291,0.018l-1.156,0c-0.085,0 -0.158,-0.006 -0.221,-0.018c-0.063,-0.011 -0.142,-0.023 -0.239,-0.035c-0.098,-0.012 -0.195,-0.023 -0.292,-0.035c-0.097,-0.012 -0.196,-0.018 -0.296,-0.018l-1.649,0c-0.097,0 -0.196,-0.013 -0.296,-0.038c-0.1,-0.026 -0.199,-0.045 -0.296,-0.057c-0.097,-0.012 -0.201,-0.023 -0.31,-0.035c-0.11,-0.012 -0.22,-0.018 -0.329,-0.018l-1.414,0c-0.076,0 -0.143,0.006 -0.202,0.018c-0.06,0.012 -0.127,0.023 -0.203,0.035c-0.075,0.012 -0.142,0.031 -0.202,0.057c-0.059,0.025 -0.127,0.044 -0.202,0.056c-0.075,0.012 -0.142,0.023 -0.202,0.035c-0.059,0.012 -0.145,0.03 -0.258,0.053c-0.113,0.024 -0.199,0.042 -0.259,0.056c-0.059,0.014 -0.137,0.022 -0.234,0.022l-8.796,0c-0.085,0 -0.171,0.006 -0.259,0.017c-0.087,0.012 -0.173,0.03 -0.258,0.053c-0.085,0.024 -0.163,0.041 -0.235,0.053c-0.072,0.012 -0.152,0.025 -0.239,0.039c-0.088,0.014 -0.174,0.027 -0.259,0.039c-0.084,0.011 -0.175,0.017 -0.273,0.017c-0.097,0 -0.176,0.006 -0.239,0.018c-0.063,0.011 -0.136,0.017 -0.221,0.017l-1.508,0c-0.063,0 -0.13,0.006 -0.202,0.018c-0.072,0.012 -0.144,0.023 -0.216,0.035c-0.072,0.012 -0.14,0.025 -0.202,0.039c-0.063,0.014 -0.126,0.021 -0.188,0.021c-0.063,0 -0.124,0.006 -0.184,0.018c-0.059,0.011 -0.12,0.023 -0.183,0.035c-0.063,0.012 -0.13,0.018 -0.202,0.018c-0.072,0 -0.139,0 -0.202,0c-0.063,0 -0.124,0.005 -0.183,0.017c-0.06,0.012 -0.127,0.018 -0.202,0.018c-0.075,0 -0.149,0.006 -0.221,0.018c-0.072,0.011 -0.144,0.024 -0.216,0.038c-0.072,0.014 -0.14,0.021 -0.202,0.021c-0.063,0 -0.126,0.012 -0.188,0.035c-0.063,0.024 -0.13,0.036 -0.202,0.036c-0.072,0 -0.14,0.006 -0.202,0.018c-0.063,0.011 -0.124,0.023 -0.183,0.035c-0.06,0.011 -0.121,0.017 -0.184,0.017c-0.062,0 -0.13,0.007 -0.202,0.022c-0.072,0.013 -0.139,0.02 -0.202,0.02l-6.277,0c-0.088,0 -0.161,0.006 -0.221,0.018c-0.059,0.012 -0.121,0.018 -0.183,0.018c-0.063,0 -0.13,0.006 -0.202,0.017c-0.072,0.012 -0.14,0.018 -0.202,0.018c-0.063,0 -0.13,0.006 -0.202,0.018c-0.072,0.011 -0.152,0.024 -0.24,0.038c-0.088,0.014 -0.161,0.027 -0.221,0.039c-0.059,0.012 -0.127,0.029 -0.202,0.053c-0.075,0.023 -0.142,0.06 -0.202,0.109c-0.059,0.049 -0.095,0.111 -0.108,0.183l-0.019,0.11" style="fill:none;stroke:#000;stroke-width:1.72px;"/><path id="STROKE_3CB26D59.-ACFA.-4895.-9FC3.-B260A93968FA" d="M121.664,67.32c0.101,-0.075 0.168,-0.082 0.202,-0.021c0.035,0.061 0.047,0.134 0.038,0.219c-0.009,0.084 -0.02,0.164 -0.033,0.239c-0.012,0.075 -0.025,0.161 -0.037,0.257c-0.013,0.097 -0.019,0.175 -0.019,0.237c0,0.061 -0.007,0.128 -0.019,0.201c-0.013,0.072 -0.025,0.146 -0.037,0.222c-0.013,0.075 -0.019,0.149 -0.019,0.221c0,0.073 -0.013,0.159 -0.038,0.258c-0.025,0.098 -0.044,0.19 -0.057,0.275c-0.012,0.084 -0.024,0.169 -0.037,0.253c-0.012,0.085 -0.03,0.158 -0.052,0.219c-0.022,0.061 -0.039,0.135 -0.051,0.222c-0.013,0.087 -0.032,0.161 -0.057,0.222c-0.025,0.061 -0.05,0.128 -0.075,0.201c-0.025,0.073 -0.05,0.14 -0.075,0.2c-0.025,0.062 -0.044,0.123 -0.056,0.184c-0.013,0.061 -0.043,0.147 -0.09,0.257c-0.047,0.11 -0.083,0.196 -0.108,0.257c-0.025,0.061 -0.056,0.147 -0.094,0.258c-0.037,0.11 -0.069,0.196 -0.094,0.257c-0.025,0.061 -0.061,0.145 -0.108,0.254c-0.047,0.108 -0.095,0.217 -0.145,0.327c-0.051,0.111 -0.101,0.215 -0.151,0.314c-0.05,0.099 -0.105,0.197 -0.164,0.296c-0.06,0.099 -0.115,0.19 -0.165,0.275c-0.05,0.084 -0.094,0.169 -0.131,0.253c-0.038,0.085 -0.08,0.171 -0.127,0.258c-0.047,0.087 -0.102,0.178 -0.164,0.275c-0.063,0.096 -0.124,0.193 -0.184,0.292c-0.059,0.099 -0.114,0.19 -0.164,0.275c-0.05,0.084 -0.099,0.151 -0.146,0.201c-0.047,0.049 -0.102,0.11 -0.164,0.183c-0.063,0.073 -0.113,0.134 -0.151,0.183c-0.037,0.05 -0.086,0.118 -0.146,0.205c-0.059,0.087 -0.12,0.172 -0.183,0.257c-0.062,0.084 -0.112,0.151 -0.15,0.201c-0.038,0.049 -0.074,0.098 -0.108,0.148c-0.035,0.049 -0.083,0.122 -0.146,0.218c-0.063,0.097 -0.124,0.194 -0.183,0.293c-0.059,0.098 -0.121,0.19 -0.183,0.275c-0.063,0.084 -0.119,0.157 -0.169,0.218c-0.051,0.061 -0.105,0.122 -0.165,0.183c-0.059,0.061 -0.114,0.116 -0.164,0.166c-0.05,0.049 -0.105,0.099 -0.165,0.148c-0.059,0.049 -0.12,0.105 -0.183,0.166c-0.063,0.061 -0.124,0.128 -0.183,0.201c-0.06,0.072 -0.108,0.133 -0.146,0.183c-0.038,0.049 -0.081,0.098 -0.131,0.148c-0.051,0.049 -0.105,0.11 -0.165,0.183c-0.06,0.073 -0.108,0.134 -0.146,0.183c-0.037,0.049 -0.075,0.099 -0.112,0.148c-0.038,0.049 -0.087,0.111 -0.146,0.183c-0.059,0.073 -0.114,0.146 -0.165,0.219c-0.05,0.073 -0.104,0.14 -0.164,0.201c-0.059,0.061 -0.121,0.122 -0.183,0.183c-0.063,0.061 -0.124,0.116 -0.183,0.166c-0.06,0.049 -0.121,0.091 -0.184,0.127c-0.062,0.035 -0.13,0.077 -0.202,0.127c-0.072,0.049 -0.145,0.098 -0.221,0.148c-0.075,0.049 -0.148,0.098 -0.22,0.147c-0.072,0.05 -0.146,0.099 -0.221,0.148c-0.075,0.05 -0.149,0.105 -0.221,0.166c-0.072,0.061 -0.139,0.122 -0.202,0.183c-0.063,0.061 -0.124,0.122 -0.183,0.184c-0.06,0.061 -0.121,0.116 -0.183,0.165c-0.063,0.049 -0.124,0.086 -0.184,0.109c-0.059,0.024 -0.12,0.047 -0.183,0.071c-0.063,0.023 -0.124,0.048 -0.183,0.074c-0.06,0.026 -0.127,0.044 -0.202,0.056c-0.076,0.012 -0.149,0.03 -0.221,0.053c-0.072,0.024 -0.152,0.048 -0.24,0.074c-0.087,0.026 -0.186,0.063 -0.296,0.113c-0.109,0.049 -0.213,0.097 -0.31,0.144c-0.097,0.047 -0.194,0.09 -0.291,0.127c-0.097,0.038 -0.196,0.076 -0.296,0.113c-0.101,0.038 -0.187,0.068 -0.259,0.092c-0.072,0.023 -0.144,0.041 -0.216,0.052c-0.072,0.012 -0.139,0.018 -0.202,0.018c-0.062,0 -0.13,0.006 -0.202,0.018c-0.072,0.012 -0.139,0.024 -0.202,0.038c-0.063,0.015 -0.125,0.028 -0.188,0.039c-0.062,0.012 -0.124,0.018 -0.183,0.018c-0.06,0 -0.127,0 -0.202,0c-0.075,0 -0.155,0.006 -0.24,0.017c-0.084,0.012 -0.163,0.018 -0.235,0.018l-1.325,0c-0.072,0 -0.139,-0.012 -0.202,-0.035c-0.062,-0.024 -0.13,-0.048 -0.202,-0.074c-0.072,-0.026 -0.144,-0.05 -0.216,-0.074c-0.072,-0.023 -0.145,-0.041 -0.221,-0.053c-0.075,-0.012 -0.148,-0.03 -0.221,-0.056c-0.072,-0.026 -0.152,-0.057 -0.239,-0.092c-0.088,-0.035 -0.168,-0.072 -0.24,-0.109c-0.072,-0.038 -0.139,-0.076 -0.202,-0.113c-0.063,-0.038 -0.124,-0.074 -0.183,-0.109c-0.06,-0.036 -0.133,-0.072 -0.221,-0.109c-0.088,-0.038 -0.167,-0.075 -0.24,-0.11c-0.072,-0.035 -0.139,-0.066 -0.202,-0.091c-0.062,-0.026 -0.13,-0.051 -0.202,-0.074c-0.072,-0.024 -0.139,-0.054 -0.202,-0.092c-0.062,-0.038 -0.13,-0.081 -0.202,-0.13c-0.072,-0.05 -0.137,-0.098 -0.197,-0.145c-0.06,-0.047 -0.121,-0.095 -0.183,-0.144c-0.063,-0.05 -0.126,-0.099 -0.188,-0.148c-0.063,-0.05 -0.124,-0.086 -0.184,-0.11c-0.059,-0.023 -0.114,-0.054 -0.164,-0.091c-0.05,-0.038 -0.105,-0.081 -0.164,-0.131c-0.06,-0.049 -0.115,-0.098 -0.165,-0.147c-0.05,-0.05 -0.094,-0.099 -0.131,-0.148c-0.038,-0.05 -0.08,-0.105 -0.127,-0.166c-0.047,-0.061 -0.09,-0.128 -0.127,-0.201c-0.038,-0.073 -0.075,-0.134 -0.113,-0.183c-0.038,-0.05 -0.08,-0.105 -0.127,-0.166c-0.047,-0.061 -0.108,-0.115 -0.183,-0.162c-0.075,-0.047 -0.136,-0.089 -0.183,-0.127c-0.047,-0.038 -0.096,-0.075 -0.146,-0.113c-0.05,-0.037 -0.106,-0.068 -0.169,-0.091c-0.063,-0.024 -0.124,-0.054 -0.183,-0.092c-0.06,-0.037 -0.121,-0.068 -0.183,-0.092c-0.063,-0.023 -0.124,-0.054 -0.184,-0.091c-0.059,-0.038 -0.114,-0.074 -0.164,-0.11c-0.05,-0.035 -0.105,-0.077 -0.165,-0.126c-0.059,-0.05 -0.12,-0.093 -0.183,-0.131c-0.063,-0.037 -0.124,-0.074 -0.183,-0.109c-0.06,-0.035 -0.121,-0.072 -0.183,-0.109c-0.063,-0.038 -0.126,-0.074 -0.188,-0.109c-0.063,-0.036 -0.118,-0.072 -0.165,-0.11c-0.047,-0.037 -0.108,-0.075 -0.183,-0.112c-0.075,-0.038 -0.149,-0.074 -0.221,-0.11c-0.072,-0.035 -0.139,-0.058 -0.202,-0.07c-0.063,-0.012 -0.124,-0.025 -0.183,-0.039c-0.06,-0.014 -0.121,-0.021 -0.183,-0.021l-0.386,0c-0.075,0 -0.149,-0.006 -0.221,-0.018c-0.072,-0.011 -0.139,-0.017 -0.202,-0.017l-0.587,0c-0.059,0 -0.127,0.006 -0.202,0.017c-0.075,0.012 -0.143,0.037 -0.202,0.074c-0.059,0.038 -0.114,0.082 -0.165,0.131c-0.05,0.049 -0.104,0.091 -0.164,0.127c-0.059,0.035 -0.114,0.077 -0.164,0.127c-0.05,0.049 -0.1,0.098 -0.151,0.148c-0.05,0.049 -0.105,0.098 -0.164,0.148c-0.06,0.049 -0.121,0.091 -0.183,0.126c-0.063,0.036 -0.118,0.072 -0.165,0.109c-0.047,0.038 -0.102,0.069 -0.164,0.092c-0.063,0.024 -0.118,0.066 -0.165,0.127c-0.047,0.061 -0.102,0.122 -0.164,0.183c-0.063,0.061 -0.13,0.129 -0.202,0.205c-0.072,0.075 -0.14,0.149 -0.202,0.222c-0.063,0.072 -0.13,0.139 -0.202,0.201c-0.072,0.061 -0.134,0.122 -0.184,0.183c-0.05,0.061 -0.106,0.116 -0.169,0.166c-0.062,0.049 -0.117,0.091 -0.164,0.126c-0.047,0.036 -0.096,0.078 -0.146,0.127c-0.05,0.05 -0.105,0.093 -0.164,0.13c-0.06,0.038 -0.115,0.075 -0.165,0.11c-0.05,0.035 -0.106,0.071 -0.169,0.109c-0.063,0.038 -0.117,0.075 -0.164,0.113c-0.047,0.037 -0.102,0.08 -0.165,0.127c-0.062,0.047 -0.123,0.089 -0.183,0.126c-0.06,0.038 -0.127,0.088 -0.202,0.149c-0.075,0.061 -0.143,0.116 -0.202,0.165c-0.06,0.049 -0.127,0.105 -0.202,0.166c-0.075,0.061 -0.155,0.122 -0.24,0.183c-0.084,0.061 -0.158,0.116 -0.221,0.166c-0.062,0.049 -0.129,0.097 -0.202,0.144c-0.072,0.047 -0.133,0.089 -0.183,0.127c-0.05,0.037 -0.111,0.075 -0.183,0.113c-0.072,0.037 -0.144,0.074 -0.216,0.109c-0.072,0.035 -0.146,0.072 -0.221,0.109c-0.075,0.038 -0.149,0.074 -0.221,0.109c-0.072,0.036 -0.139,0.066 -0.202,0.092c-0.063,0.026 -0.124,0.051 -0.183,0.074c-0.06,0.024 -0.121,0.054 -0.183,0.092c-0.063,0.037 -0.13,0.074 -0.202,0.109c-0.073,0.035 -0.14,0.078 -0.203,0.127c-0.062,0.049 -0.129,0.093 -0.202,0.13c-0.072,0.038 -0.145,0.074 -0.22,0.109c-0.076,0.036 -0.143,0.066 -0.203,0.092c-0.059,0.026 -0.12,0.051 -0.183,0.074c-0.062,0.024 -0.136,0.041 -0.22,0.053c-0.085,0.012 -0.165,0.025 -0.24,0.039c-0.075,0.014 -0.143,0.027 -0.202,0.039c-0.06,0.011 -0.127,0.023 -0.202,0.035c-0.075,0.011 -0.155,0.029 -0.24,0.053c-0.084,0.023 -0.175,0.054 -0.273,0.091c-0.097,0.038 -0.195,0.062 -0.295,0.074c-0.101,0.012 -0.199,0.031 -0.296,0.057c-0.097,0.025 -0.195,0.05 -0.292,0.074c-0.097,0.023 -0.194,0.041 -0.291,0.053c-0.097,0.011 -0.196,0.017 -0.296,0.017l-1.56,0c-0.063,0 -0.124,-0.006 -0.183,-0.017c-0.06,-0.012 -0.127,-0.03 -0.202,-0.053c-0.075,-0.024 -0.149,-0.054 -0.221,-0.092c-0.072,-0.038 -0.146,-0.068 -0.221,-0.092c-0.075,-0.023 -0.149,-0.048 -0.221,-0.074c-0.072,-0.026 -0.145,-0.056 -0.221,-0.091c-0.075,-0.036 -0.148,-0.066 -0.22,-0.092c-0.072,-0.026 -0.146,-0.05 -0.221,-0.074c-0.075,-0.023 -0.143,-0.048 -0.202,-0.074c-0.06,-0.026 -0.126,-0.056 -0.198,-0.092c-0.072,-0.035 -0.145,-0.071 -0.22,-0.109c-0.075,-0.037 -0.143,-0.074 -0.202,-0.109c-0.06,-0.035 -0.127,-0.077 -0.202,-0.127c-0.076,-0.049 -0.143,-0.098 -0.203,-0.148c-0.059,-0.049 -0.12,-0.104 -0.183,-0.166c-0.062,-0.061 -0.125,-0.116 -0.188,-0.165c-0.062,-0.05 -0.13,-0.105 -0.202,-0.166c-0.072,-0.061 -0.139,-0.116 -0.202,-0.166c-0.063,-0.049 -0.124,-0.097 -0.183,-0.144c-0.06,-0.047 -0.121,-0.108 -0.183,-0.183c-0.063,-0.075 -0.13,-0.149 -0.202,-0.222c-0.072,-0.073 -0.14,-0.14 -0.203,-0.201c-0.062,-0.061 -0.123,-0.128 -0.183,-0.201c-0.059,-0.073 -0.114,-0.151 -0.164,-0.236c-0.05,-0.085 -0.099,-0.164 -0.146,-0.24c-0.047,-0.075 -0.095,-0.143 -0.146,-0.204c-0.05,-0.061 -0.093,-0.128 -0.131,-0.201c-0.038,-0.073 -0.08,-0.145 -0.127,-0.218c-0.047,-0.073 -0.089,-0.14 -0.127,-0.201c-0.037,-0.061 -0.075,-0.128 -0.113,-0.201c-0.037,-0.073 -0.079,-0.153 -0.126,-0.24c-0.047,-0.087 -0.09,-0.178 -0.127,-0.275c-0.038,-0.096 -0.069,-0.187 -0.094,-0.274c-0.025,-0.087 -0.05,-0.161 -0.075,-0.223c-0.025,-0.061 -0.05,-0.139 -0.076,-0.235c-0.025,-0.097 -0.048,-0.2 -0.07,-0.311c-0.022,-0.11 -0.045,-0.214 -0.071,-0.313c-0.025,-0.099 -0.043,-0.196 -0.056,-0.293c-0.012,-0.096 -0.031,-0.194 -0.056,-0.292c-0.025,-0.099 -0.044,-0.198 -0.057,-0.296c-0.012,-0.099 -0.031,-0.191 -0.056,-0.275c-0.025,-0.085 -0.055,-0.163 -0.089,-0.236c-0.035,-0.073 -0.065,-0.147 -0.09,-0.222c-0.025,-0.075 -0.056,-0.155 -0.094,-0.24c-0.037,-0.084 -0.068,-0.169 -0.093,-0.254c-0.026,-0.084 -0.055,-0.17 -0.09,-0.257c-0.034,-0.087 -0.058,-0.179 -0.07,-0.275c-0.013,-0.096 -0.032,-0.188 -0.057,-0.275c-0.025,-0.087 -0.05,-0.166 -0.075,-0.239c-0.025,-0.073 -0.05,-0.146 -0.075,-0.219c-0.025,-0.073 -0.056,-0.139 -0.094,-0.2c-0.038,-0.062 -0.073,-0.129 -0.108,-0.201c-0.034,-0.073 -0.07,-0.14 -0.108,-0.201c-0.038,-0.061 -0.075,-0.117 -0.113,-0.166c-0.037,-0.049 -0.074,-0.11 -0.108,-0.183c-0.034,-0.073 -0.07,-0.134 -0.108,-0.183c-0.038,-0.05 -0.081,-0.105 -0.131,-0.166c-0.051,-0.061 -0.099,-0.122 -0.146,-0.183c-0.047,-0.061 -0.089,-0.116 -0.127,-0.166c-0.038,-0.049 -0.075,-0.105 -0.113,-0.165c-0.037,-0.062 -0.075,-0.117 -0.113,-0.166c-0.037,-0.05 -0.073,-0.105 -0.108,-0.166c-0.034,-0.061 -0.076,-0.128 -0.127,-0.201c-0.05,-0.072 -0.1,-0.139 -0.15,-0.2c-0.05,-0.062 -0.105,-0.117 -0.164,-0.166c-0.06,-0.049 -0.108,-0.099 -0.146,-0.148c-0.038,-0.049 -0.086,-0.105 -0.145,-0.166c-0.06,-0.061 -0.121,-0.122 -0.184,-0.183c-0.063,-0.061 -0.119,-0.116 -0.169,-0.165c-0.05,-0.05 -0.093,-0.098 -0.127,-0.145c-0.034,-0.047 -0.077,-0.101 -0.127,-0.162c-0.05,-0.061 -0.094,-0.116 -0.131,-0.166c-0.038,-0.049 -0.074,-0.11 -0.108,-0.183c-0.035,-0.073 -0.071,-0.14 -0.109,-0.201c-0.037,-0.061 -0.068,-0.129 -0.093,-0.204c-0.026,-0.076 -0.057,-0.144 -0.094,-0.205c-0.038,-0.061 -0.074,-0.122 -0.109,-0.183c-0.034,-0.061 -0.057,-0.122 -0.07,-0.183c-0.013,-0.061 -0.019,-0.128 -0.019,-0.201l0,-0.437c0,-0.073 0.006,-0.147 0.019,-0.222c0.013,-0.075 0.042,-0.161 0.089,-0.257c0.047,-0.097 0.09,-0.17 0.127,-0.219c0.038,-0.049 0.075,-0.104 0.113,-0.165c0.038,-0.062 0.073,-0.117 0.108,-0.166c0.034,-0.049 0.083,-0.105 0.146,-0.166c0.062,-0.061 0.119,-0.116 0.169,-0.165c0.05,-0.05 0.105,-0.098 0.164,-0.145c0.06,-0.047 0.121,-0.101 0.184,-0.162c0.062,-0.061 0.13,-0.116 0.202,-0.165c0.072,-0.05 0.145,-0.099 0.22,-0.148c0.076,-0.05 0.149,-0.099 0.221,-0.148c0.072,-0.05 0.151,-0.092 0.235,-0.127c0.085,-0.036 0.171,-0.078 0.259,-0.127c0.087,-0.049 0.161,-0.093 0.221,-0.131c0.059,-0.037 0.12,-0.074 0.183,-0.109c0.062,-0.035 0.117,-0.071 0.164,-0.109c0.047,-0.038 0.108,-0.081 0.183,-0.131c0.076,-0.049 0.138,-0.091 0.188,-0.126l0.075,-0.053" style="fill:none;stroke:#000;stroke-width:1.72px;"/><path id="STROKE_C870999E.-E4E3.-4500.-B49E.-6163694A0B61" d="M119.757,68.744c0,-0.146 0.006,-0.255 0.019,-0.328c0.012,-0.072 0.025,-0.151 0.037,-0.236c0.013,-0.084 0.032,-0.188 0.056,-0.31c0.026,-0.122 0.055,-0.233 0.09,-0.331c0.034,-0.099 0.064,-0.179 0.089,-0.24c0.025,-0.061 0.044,-0.122 0.056,-0.183c0.013,-0.061 -0.006,-0.067 -0.056,-0.018c-0.05,0.05 -0.092,0.111 -0.127,0.183c-0.034,0.073 -0.083,0.146 -0.145,0.219c-0.063,0.073 -0.119,0.153 -0.17,0.24c-0.05,0.086 -0.111,0.178 -0.183,0.274c-0.072,0.097 -0.138,0.2 -0.197,0.311c-0.06,0.11 -0.133,0.226 -0.221,0.349c-0.088,0.122 -0.174,0.257 -0.259,0.405c-0.084,0.148 -0.175,0.294 -0.272,0.44c-0.097,0.146 -0.202,0.291 -0.315,0.437c-0.112,0.146 -0.224,0.31 -0.333,0.494c-0.11,0.183 -0.226,0.366 -0.348,0.549c-0.122,0.184 -0.263,0.386 -0.423,0.606c-0.16,0.221 -0.313,0.435 -0.46,0.642c-0.148,0.206 -0.293,0.426 -0.437,0.659c-0.144,0.232 -0.279,0.453 -0.405,0.662c-0.125,0.209 -0.266,0.448 -0.422,0.716c-0.157,0.267 -0.303,0.523 -0.437,0.768c-0.135,0.244 -0.276,0.483 -0.423,0.715c-0.147,0.233 -0.282,0.465 -0.404,0.698c-0.122,0.232 -0.238,0.446 -0.348,0.641c-0.11,0.195 -0.227,0.397 -0.352,0.606c-0.126,0.209 -0.243,0.406 -0.353,0.589c-0.109,0.183 -0.206,0.353 -0.291,0.511c-0.085,0.157 -0.169,0.297 -0.254,0.419c-0.084,0.122 -0.164,0.244 -0.239,0.367c-0.076,0.122 -0.149,0.226 -0.221,0.313c-0.072,0.087 -0.133,0.167 -0.183,0.24c-0.051,0.073 -0.106,0.14 -0.165,0.201c-0.059,0.061 -0.114,0.11 -0.164,0.148c-0.05,0.037 -0.113,0.08 -0.188,0.127c-0.075,0.047 -0.136,0.089 -0.183,0.126c-0.047,0.038 -0.083,0.008 -0.109,-0.091c-0.025,-0.099 -0.025,-0.184 0,-0.257c0.026,-0.073 0.057,-0.146 0.094,-0.219c0.038,-0.073 0.074,-0.145 0.108,-0.218c0.035,-0.073 0.071,-0.159 0.109,-0.258c0.037,-0.098 0.075,-0.19 0.112,-0.274c0.038,-0.085 0.074,-0.183 0.108,-0.293c0.035,-0.11 0.071,-0.221 0.108,-0.331c0.038,-0.111 0.076,-0.221 0.113,-0.332c0.038,-0.11 0.075,-0.232 0.113,-0.366c0.038,-0.134 0.08,-0.281 0.127,-0.44c0.047,-0.16 0.089,-0.313 0.127,-0.459c0.037,-0.145 0.081,-0.285 0.131,-0.419c0.05,-0.134 0.099,-0.292 0.146,-0.475c0.047,-0.184 0.095,-0.361 0.146,-0.533c0.05,-0.171 0.104,-0.343 0.164,-0.514c0.059,-0.172 0.121,-0.343 0.183,-0.515c0.063,-0.171 0.124,-0.355 0.183,-0.549c0.06,-0.195 0.127,-0.385 0.202,-0.568c0.076,-0.183 0.149,-0.372 0.221,-0.567c0.072,-0.195 0.146,-0.391 0.221,-0.589c0.075,-0.197 0.149,-0.399 0.221,-0.606c0.072,-0.206 0.152,-0.407 0.24,-0.602c0.087,-0.195 0.167,-0.397 0.239,-0.607c0.072,-0.209 0.151,-0.417 0.235,-0.623c0.085,-0.207 0.171,-0.414 0.259,-0.62c0.087,-0.207 0.167,-0.409 0.239,-0.606c0.072,-0.198 0.146,-0.388 0.221,-0.571c0.075,-0.184 0.143,-0.354 0.202,-0.511c0.06,-0.158 0.114,-0.305 0.164,-0.441c0.051,-0.136 0.095,-0.265 0.132,-0.388c0.038,-0.122 0.074,-0.231 0.108,-0.327c0.035,-0.097 0.058,-0.175 0.071,-0.236c0.012,-0.061 0.025,-0.122 0.037,-0.184c0.013,-0.061 0.025,-0.128 0.038,-0.2c0.012,-0.073 -0.013,-0.104 -0.075,-0.092c-0.063,0.012 -0.124,0.048 -0.183,0.109c-0.06,0.061 -0.127,0.134 -0.203,0.219c-0.075,0.084 -0.148,0.182 -0.22,0.292c-0.073,0.111 -0.157,0.227 -0.254,0.349c-0.097,0.122 -0.201,0.256 -0.31,0.402c-0.11,0.145 -0.221,0.298 -0.334,0.458c-0.113,0.16 -0.224,0.325 -0.333,0.497c-0.11,0.171 -0.226,0.349 -0.348,0.532c-0.122,0.183 -0.238,0.366 -0.348,0.55c-0.109,0.183 -0.225,0.372 -0.347,0.567c-0.123,0.195 -0.245,0.39 -0.367,0.585c-0.122,0.195 -0.245,0.403 -0.367,0.624c-0.122,0.221 -0.25,0.434 -0.385,0.641c-0.135,0.207 -0.263,0.42 -0.385,0.641c-0.122,0.221 -0.251,0.454 -0.386,0.698c-0.134,0.245 -0.256,0.464 -0.366,0.659c-0.11,0.195 -0.232,0.422 -0.366,0.68c-0.135,0.259 -0.27,0.503 -0.405,0.733c-0.134,0.23 -0.263,0.462 -0.385,0.694c-0.122,0.233 -0.239,0.448 -0.352,0.645c-0.113,0.198 -0.23,0.4 -0.352,0.606c-0.123,0.207 -0.239,0.408 -0.348,0.603c-0.11,0.195 -0.22,0.384 -0.329,0.567c-0.11,0.184 -0.219,0.349 -0.329,0.497c-0.11,0.148 -0.219,0.289 -0.329,0.423c-0.11,0.134 -0.208,0.262 -0.296,0.384c-0.088,0.122 -0.18,0.239 -0.277,0.349c-0.097,0.111 -0.194,0.22 -0.291,0.328c-0.098,0.108 -0.184,0.211 -0.259,0.31c-0.075,0.099 -0.149,0.184 -0.221,0.257c-0.072,0.073 -0.139,0.147 -0.202,0.222c-0.062,0.075 -0.13,0.143 -0.202,0.205c-0.072,0.061 -0.133,0.072 -0.183,0.035c-0.05,-0.038 -0.075,-0.106 -0.075,-0.205c0,-0.098 0,-0.209 0,-0.331c0,-0.122 0.019,-0.25 0.056,-0.384c0.038,-0.134 0.088,-0.286 0.15,-0.458c0.063,-0.172 0.124,-0.336 0.184,-0.493c0.059,-0.158 0.126,-0.322 0.202,-0.494c0.075,-0.171 0.149,-0.349 0.221,-0.532c0.072,-0.183 0.144,-0.379 0.216,-0.588c0.072,-0.21 0.152,-0.417 0.239,-0.624c0.088,-0.207 0.18,-0.427 0.278,-0.659c0.097,-0.233 0.194,-0.477 0.291,-0.733c0.097,-0.256 0.183,-0.489 0.258,-0.698c0.076,-0.209 0.155,-0.429 0.24,-0.659c0.084,-0.23 0.164,-0.456 0.24,-0.676c0.075,-0.221 0.155,-0.436 0.239,-0.645c0.085,-0.209 0.163,-0.412 0.235,-0.607c0.072,-0.194 0.152,-0.389 0.24,-0.584c0.088,-0.195 0.167,-0.385 0.239,-0.568c0.072,-0.183 0.151,-0.372 0.235,-0.567c0.085,-0.195 0.171,-0.384 0.259,-0.567c0.088,-0.184 0.167,-0.373 0.24,-0.568c0.071,-0.195 0.145,-0.391 0.22,-0.588c0.075,-0.198 0.143,-0.388 0.202,-0.571c0.06,-0.184 0.121,-0.367 0.183,-0.55c0.063,-0.183 0.118,-0.354 0.165,-0.511c0.047,-0.157 0.089,-0.316 0.127,-0.475c0.038,-0.16 0.075,-0.313 0.113,-0.459c0.037,-0.145 0.069,-0.279 0.093,-0.401c0.026,-0.123 0.044,-0.239 0.057,-0.349c0.013,-0.111 0.023,-0.215 0.033,-0.314c0.009,-0.099 0.02,-0.179 0.033,-0.239c0.012,-0.062 0.018,-0.123 0.018,-0.184c0,-0.061 0,-0.122 0,-0.183c0,-0.061 -0.048,-0.092 -0.145,-0.092c-0.097,0 -0.182,0.031 -0.254,0.092c-0.072,0.061 -0.152,0.134 -0.24,0.219c-0.087,0.084 -0.18,0.181 -0.277,0.292c-0.097,0.11 -0.188,0.215 -0.272,0.313c-0.085,0.099 -0.177,0.21 -0.277,0.332c-0.101,0.122 -0.212,0.263 -0.334,0.423c-0.122,0.159 -0.238,0.312 -0.348,0.458c-0.109,0.145 -0.225,0.298 -0.348,0.458c-0.122,0.16 -0.238,0.324 -0.347,0.493c-0.11,0.169 -0.226,0.345 -0.348,0.529c-0.122,0.183 -0.25,0.368 -0.385,0.553c-0.135,0.186 -0.263,0.382 -0.385,0.589c-0.122,0.206 -0.257,0.407 -0.404,0.602c-0.148,0.195 -0.307,0.409 -0.48,0.641c-0.172,0.233 -0.332,0.46 -0.479,0.681c-0.147,0.22 -0.306,0.453 -0.475,0.697c-0.169,0.245 -0.327,0.47 -0.474,0.677c-0.147,0.207 -0.307,0.445 -0.479,0.715c-0.173,0.271 -0.332,0.534 -0.48,0.79c-0.147,0.256 -0.294,0.5 -0.441,0.733c-0.147,0.232 -0.282,0.452 -0.404,0.659c-0.123,0.206 -0.257,0.42 -0.404,0.641c-0.148,0.221 -0.282,0.429 -0.404,0.624c-0.123,0.195 -0.238,0.384 -0.348,0.567c-0.11,0.183 -0.213,0.336 -0.31,0.458c-0.097,0.122 -0.194,0.245 -0.292,0.367c-0.097,0.122 -0.189,0.232 -0.277,0.331c-0.088,0.099 -0.155,0.179 -0.202,0.24c-0.047,0.061 -0.102,0.115 -0.164,0.162c-0.063,0.047 -0.13,0.083 -0.202,0.109c-0.072,0.026 -0.115,-0.022 -0.127,-0.145c-0.013,-0.122 -0.019,-0.232 -0.019,-0.331c0,-0.098 0.011,-0.209 0.033,-0.331c0.022,-0.122 0.064,-0.256 0.127,-0.402c0.062,-0.145 0.125,-0.298 0.188,-0.458c0.062,-0.16 0.13,-0.325 0.202,-0.497c0.072,-0.171 0.139,-0.336 0.202,-0.493c0.062,-0.157 0.136,-0.335 0.22,-0.532c0.085,-0.197 0.157,-0.381 0.217,-0.55c0.059,-0.169 0.12,-0.333 0.183,-0.493c0.063,-0.16 0.125,-0.32 0.188,-0.479c0.063,-0.16 0.118,-0.307 0.165,-0.441c0.046,-0.134 0.101,-0.274 0.164,-0.419c0.062,-0.146 0.124,-0.286 0.183,-0.42c0.06,-0.134 0.114,-0.269 0.164,-0.405c0.051,-0.136 0.105,-0.266 0.165,-0.388c0.059,-0.122 0.12,-0.25 0.183,-0.384c0.063,-0.134 0.124,-0.268 0.183,-0.401c0.06,-0.134 0.121,-0.268 0.184,-0.402c0.062,-0.134 0.13,-0.269 0.202,-0.406c0.072,-0.136 0.145,-0.277 0.22,-0.423c0.076,-0.145 0.138,-0.285 0.189,-0.419c0.05,-0.134 0.104,-0.268 0.164,-0.401c0.06,-0.134 0.121,-0.27 0.183,-0.406c0.063,-0.136 0.124,-0.271 0.183,-0.405c0.06,-0.134 0.115,-0.268 0.165,-0.402c0.05,-0.133 0.099,-0.262 0.146,-0.384c0.047,-0.122 0.095,-0.25 0.145,-0.384c0.05,-0.134 0.094,-0.256 0.132,-0.366c0.037,-0.111 0.073,-0.221 0.108,-0.332c0.034,-0.11 0.064,-0.215 0.089,-0.313c0.025,-0.099 0.05,-0.196 0.075,-0.293c0.025,-0.096 0.044,-0.175 0.057,-0.236c0.012,-0.061 0.025,-0.128 0.037,-0.201c0.013,-0.072 0.032,-0.152 0.057,-0.239c0.025,-0.087 0.037,-0.161 0.037,-0.222c0,-0.061 -0.038,-0.104 -0.113,-0.127c-0.075,-0.024 -0.161,-0.036 -0.258,-0.036c-0.097,0 -0.194,0 -0.291,0c-0.097,0 -0.207,0.037 -0.329,0.11c-0.122,0.072 -0.221,0.145 -0.296,0.218c-0.076,0.073 -0.155,0.159 -0.24,0.258c-0.084,0.098 -0.175,0.209 -0.272,0.331c-0.097,0.122 -0.196,0.256 -0.296,0.402c-0.101,0.145 -0.205,0.292 -0.315,0.44c-0.11,0.148 -0.226,0.307 -0.348,0.476c-0.122,0.169 -0.244,0.345 -0.366,0.528c-0.123,0.184 -0.251,0.374 -0.386,0.571c-0.134,0.198 -0.275,0.413 -0.422,0.645c-0.148,0.233 -0.295,0.452 -0.442,0.659c-0.147,0.207 -0.301,0.421 -0.46,0.642c-0.16,0.22 -0.319,0.446 -0.475,0.676c-0.157,0.23 -0.309,0.456 -0.456,0.677c-0.147,0.22 -0.294,0.428 -0.442,0.623c-0.147,0.195 -0.313,0.422 -0.498,0.68c-0.184,0.259 -0.357,0.497 -0.517,0.716c-0.159,0.218 -0.318,0.444 -0.474,0.677c-0.157,0.232 -0.309,0.464 -0.456,0.697c-0.147,0.233 -0.294,0.458 -0.441,0.677c-0.148,0.218 -0.289,0.426 -0.423,0.623c-0.135,0.198 -0.27,0.4 -0.405,0.607c-0.134,0.206 -0.269,0.407 -0.404,0.602c-0.134,0.195 -0.269,0.384 -0.404,0.567c-0.134,0.184 -0.263,0.355 -0.385,0.515c-0.122,0.16 -0.232,0.32 -0.329,0.479c-0.097,0.16 -0.195,0.288 -0.296,0.384c-0.1,0.097 -0.192,0.194 -0.277,0.293c-0.085,0.099 -0.163,0.184 -0.235,0.257c-0.072,0.073 -0.133,0.128 -0.183,0.166c-0.05,0.037 -0.1,0.074 -0.151,0.109c-0.05,0.035 -0.111,0.06 -0.183,0.074c-0.072,0.014 -0.114,-0.016 -0.127,-0.092c-0.012,-0.075 -0.018,-0.149 -0.018,-0.221c0,-0.073 0.006,-0.165 0.018,-0.275c0.013,-0.111 0.044,-0.233 0.094,-0.367c0.05,-0.134 0.105,-0.268 0.165,-0.402c0.059,-0.134 0.12,-0.28 0.183,-0.44c0.063,-0.16 0.13,-0.326 0.202,-0.497c0.072,-0.171 0.144,-0.349 0.216,-0.532c0.072,-0.184 0.152,-0.367 0.24,-0.55c0.087,-0.183 0.167,-0.378 0.239,-0.585c0.073,-0.207 0.153,-0.415 0.24,-0.624c0.088,-0.209 0.174,-0.422 0.258,-0.641c0.085,-0.219 0.17,-0.432 0.254,-0.641c0.085,-0.209 0.171,-0.417 0.259,-0.624c0.088,-0.207 0.18,-0.414 0.277,-0.62c0.097,-0.207 0.188,-0.409 0.272,-0.606c0.085,-0.198 0.177,-0.4 0.278,-0.606c0.1,-0.207 0.198,-0.408 0.296,-0.603c0.097,-0.195 0.194,-0.391 0.291,-0.589c0.097,-0.197 0.194,-0.399 0.291,-0.606c0.097,-0.207 0.202,-0.413 0.315,-0.62c0.113,-0.207 0.218,-0.421 0.315,-0.641c0.097,-0.221 0.2,-0.448 0.31,-0.68c0.11,-0.233 0.207,-0.46 0.291,-0.681c0.085,-0.22 0.177,-0.44 0.278,-0.659c0.1,-0.218 0.186,-0.432 0.258,-0.641c0.072,-0.209 0.139,-0.417 0.202,-0.624c0.063,-0.206 0.124,-0.401 0.183,-0.585c0.06,-0.183 0.108,-0.349 0.146,-0.496c0.037,-0.148 0.069,-0.289 0.094,-0.423c0.025,-0.134 0.048,-0.262 0.07,-0.384c0.022,-0.122 0.04,-0.22 0.052,-0.293c0.013,-0.073 0.025,-0.14 0.037,-0.201c0.013,-0.061 0.019,-0.128 0.019,-0.201c0,-0.073 -0.03,-0.115 -0.089,-0.127c-0.059,-0.011 -0.12,0.019 -0.183,0.092c-0.063,0.073 -0.136,0.171 -0.221,0.293c-0.085,0.122 -0.175,0.25 -0.272,0.384c-0.098,0.134 -0.209,0.286 -0.334,0.458c-0.125,0.171 -0.249,0.355 -0.371,0.549c-0.123,0.195 -0.251,0.398 -0.386,0.607c-0.134,0.209 -0.28,0.447 -0.437,0.715c-0.156,0.268 -0.314,0.524 -0.474,0.768c-0.16,0.245 -0.313,0.501 -0.461,0.768c-0.147,0.268 -0.3,0.537 -0.46,0.808c-0.16,0.27 -0.32,0.533 -0.479,0.789c-0.16,0.256 -0.318,0.506 -0.475,0.75c-0.157,0.245 -0.333,0.514 -0.531,0.807c-0.197,0.294 -0.382,0.575 -0.554,0.843c-0.172,0.267 -0.356,0.542 -0.55,0.824c-0.194,0.282 -0.384,0.57 -0.568,0.864c-0.185,0.293 -0.364,0.593 -0.536,0.898c-0.172,0.306 -0.349,0.611 -0.531,0.916c-0.182,0.306 -0.365,0.617 -0.55,0.934c-0.185,0.317 -0.362,0.629 -0.531,0.934c-0.169,0.306 -0.34,0.618 -0.512,0.938c-0.172,0.319 -0.338,0.624 -0.498,0.916c-0.16,0.291 -0.313,0.578 -0.46,0.86c-0.148,0.282 -0.289,0.533 -0.423,0.754c-0.135,0.22 -0.264,0.434 -0.386,0.641c-0.122,0.207 -0.244,0.408 -0.366,0.602c-0.122,0.195 -0.238,0.373 -0.348,0.533c-0.109,0.16 -0.208,0.301 -0.296,0.423c-0.087,0.122 -0.174,0.244 -0.258,0.366c-0.085,0.122 -0.163,0.233 -0.235,0.331c-0.072,0.099 -0.146,0.185 -0.221,0.257c-0.075,0.073 -0.13,0.134 -0.164,0.184c-0.035,0.049 -0.077,0.091 -0.127,0.127c-0.05,0.035 -0.1,-0.003 -0.15,-0.113c-0.051,-0.11 -0.051,-0.227 0,-0.349c0.05,-0.122 0.111,-0.25 0.183,-0.384c0.072,-0.134 0.139,-0.28 0.202,-0.437c0.062,-0.157 0.13,-0.328 0.202,-0.511c0.072,-0.183 0.145,-0.366 0.22,-0.55c0.076,-0.183 0.149,-0.379 0.221,-0.588c0.072,-0.209 0.152,-0.417 0.24,-0.624c0.088,-0.207 0.174,-0.426 0.258,-0.659c0.085,-0.233 0.17,-0.471 0.254,-0.715c0.085,-0.245 0.171,-0.502 0.259,-0.772c0.087,-0.27 0.167,-0.533 0.239,-0.789c0.072,-0.257 0.157,-0.513 0.254,-0.769c0.097,-0.256 0.189,-0.512 0.277,-0.768c0.088,-0.256 0.18,-0.513 0.277,-0.772c0.098,-0.258 0.188,-0.509 0.273,-0.754c0.085,-0.244 0.188,-0.519 0.31,-0.824c0.122,-0.306 0.24,-0.598 0.352,-0.878c0.113,-0.279 0.231,-0.566 0.353,-0.86c0.122,-0.293 0.238,-0.587 0.348,-0.881c0.109,-0.293 0.219,-0.581 0.328,-0.863c0.11,-0.282 0.213,-0.545 0.311,-0.789c0.097,-0.245 0.194,-0.495 0.291,-0.751c0.097,-0.256 0.189,-0.5 0.277,-0.733c0.088,-0.233 0.168,-0.452 0.24,-0.659c0.072,-0.207 0.139,-0.396 0.202,-0.567c0.062,-0.172 0.112,-0.324 0.15,-0.458c0.038,-0.134 0.08,-0.268 0.127,-0.402c0.047,-0.134 0.083,-0.256 0.108,-0.367c0.025,-0.11 0.05,-0.203 0.075,-0.278c0.025,-0.075 0.044,-0.149 0.056,-0.222c0.013,-0.073 0.026,-0.151 0.038,-0.236c0.013,-0.085 0.019,-0.157 0.019,-0.218c0,-0.062 -0.056,-0.062 -0.169,0c-0.113,0.061 -0.199,0.127 -0.259,0.2c-0.059,0.073 -0.126,0.159 -0.202,0.257c-0.075,0.099 -0.148,0.197 -0.22,0.293c-0.073,0.096 -0.157,0.213 -0.254,0.349c-0.097,0.136 -0.201,0.277 -0.31,0.423c-0.11,0.146 -0.215,0.298 -0.315,0.458c-0.101,0.16 -0.212,0.331 -0.334,0.515c-0.122,0.183 -0.244,0.372 -0.366,0.567c-0.122,0.195 -0.263,0.414 -0.423,0.659c-0.16,0.244 -0.313,0.488 -0.461,0.733c-0.147,0.244 -0.293,0.488 -0.437,0.733c-0.144,0.244 -0.283,0.482 -0.418,0.715c-0.134,0.233 -0.288,0.496 -0.46,0.789c-0.172,0.294 -0.338,0.575 -0.498,0.843c-0.16,0.267 -0.32,0.536 -0.479,0.807c-0.16,0.27 -0.318,0.539 -0.475,0.807c-0.157,0.267 -0.315,0.542 -0.475,0.824c-0.159,0.282 -0.306,0.545 -0.441,0.79c-0.135,0.244 -0.288,0.519 -0.461,0.824c-0.172,0.306 -0.332,0.592 -0.479,0.86c-0.147,0.268 -0.288,0.524 -0.423,0.768c-0.135,0.245 -0.257,0.464 -0.366,0.659c-0.11,0.195 -0.22,0.403 -0.329,0.624c-0.11,0.221 -0.226,0.423 -0.348,0.606c-0.122,0.183 -0.233,0.355 -0.334,0.514c-0.1,0.16 -0.192,0.301 -0.277,0.423c-0.084,0.123 -0.169,0.245 -0.254,0.367c-0.084,0.122 -0.17,0.231 -0.258,0.328c-0.087,0.096 -0.161,0.188 -0.221,0.275c-0.059,0.086 -0.114,0.154 -0.164,0.204c-0.05,0.049 -0.099,0.097 -0.146,0.144c-0.047,0.047 -0.108,0.095 -0.183,0.145c-0.075,0.049 -0.136,0.037 -0.183,-0.036c-0.047,-0.072 -0.071,-0.145 -0.071,-0.218c0,-0.073 0.017,-0.159 0.052,-0.257c0.034,-0.099 0.077,-0.209 0.127,-0.331c0.05,-0.123 0.105,-0.256 0.164,-0.402c0.06,-0.146 0.121,-0.293 0.183,-0.441c0.063,-0.147 0.13,-0.307 0.202,-0.479c0.073,-0.171 0.146,-0.349 0.221,-0.532c0.076,-0.183 0.149,-0.378 0.221,-0.585c0.072,-0.207 0.158,-0.413 0.259,-0.62c0.1,-0.207 0.198,-0.439 0.296,-0.698c0.097,-0.258 0.188,-0.51 0.272,-0.754c0.085,-0.244 0.176,-0.483 0.273,-0.715c0.097,-0.233 0.202,-0.489 0.314,-0.769c0.113,-0.279 0.224,-0.554 0.334,-0.824c0.11,-0.27 0.225,-0.539 0.348,-0.807c0.122,-0.268 0.238,-0.543 0.347,-0.825c0.11,-0.282 0.226,-0.557 0.348,-0.824c0.122,-0.268 0.232,-0.524 0.329,-0.769c0.097,-0.244 0.207,-0.513 0.329,-0.806c0.122,-0.294 0.221,-0.552 0.296,-0.772c0.075,-0.221 0.149,-0.435 0.221,-0.642c0.072,-0.206 0.127,-0.39 0.164,-0.549c0.038,-0.16 0.082,-0.313 0.132,-0.459c0.05,-0.145 0.086,-0.279 0.108,-0.401c0.022,-0.123 0.045,-0.233 0.07,-0.332c0.025,-0.098 0.044,-0.184 0.057,-0.257c0.012,-0.073 0.025,-0.145 0.037,-0.218c0.013,-0.073 0.025,-0.14 0.038,-0.201c0.012,-0.061 0.025,-0.122 0.037,-0.183c0.013,-0.061 0.019,-0.128 0.019,-0.201c0,-0.073 0,-0.14 0,-0.201c0,-0.061 -0.042,-0.104 -0.127,-0.13c-0.084,-0.026 -0.17,-0.026 -0.258,0c-0.088,0.026 -0.161,0.062 -0.221,0.109c-0.06,0.047 -0.121,0.108 -0.183,0.183c-0.063,0.075 -0.13,0.155 -0.202,0.24c-0.072,0.084 -0.152,0.188 -0.24,0.31c-0.087,0.122 -0.174,0.25 -0.258,0.384c-0.085,0.134 -0.176,0.275 -0.273,0.423c-0.097,0.148 -0.2,0.313 -0.31,0.497c-0.11,0.183 -0.221,0.372 -0.333,0.567c-0.113,0.195 -0.237,0.396 -0.372,0.602c-0.134,0.207 -0.274,0.433 -0.418,0.677c-0.144,0.244 -0.29,0.483 -0.437,0.716c-0.147,0.232 -0.294,0.471 -0.441,0.715c-0.148,0.244 -0.282,0.471 -0.405,0.68c-0.122,0.209 -0.269,0.442 -0.441,0.698c-0.172,0.256 -0.326,0.481 -0.461,0.676c-0.134,0.195 -0.275,0.397 -0.422,0.607c-0.148,0.209 -0.301,0.416 -0.461,0.623c-0.16,0.207 -0.307,0.408 -0.442,0.603c-0.134,0.195 -0.269,0.384 -0.404,0.567c-0.134,0.183 -0.256,0.361 -0.366,0.532c-0.11,0.172 -0.22,0.331 -0.329,0.479c-0.11,0.148 -0.207,0.276 -0.292,0.385c-0.084,0.108 -0.164,0.217 -0.239,0.327c-0.075,0.111 -0.142,0.197 -0.202,0.258c-0.06,0.061 -0.121,0.116 -0.183,0.165c-0.063,0.05 -0.124,0.099 -0.183,0.148c-0.06,0.05 -0.109,0.038 -0.146,-0.035c-0.038,-0.073 -0.057,-0.159 -0.057,-0.257c0,-0.099 0,-0.215 0,-0.349c0,-0.134 0.024,-0.281 0.071,-0.441c0.047,-0.159 0.102,-0.331 0.164,-0.514c0.063,-0.183 0.137,-0.372 0.221,-0.567c0.085,-0.195 0.171,-0.403 0.258,-0.624c0.088,-0.221 0.181,-0.465 0.278,-0.733c0.097,-0.268 0.2,-0.524 0.31,-0.768c0.109,-0.245 0.213,-0.496 0.31,-0.755c0.097,-0.258 0.196,-0.521 0.296,-0.789c0.1,-0.268 0.193,-0.536 0.277,-0.803c0.085,-0.268 0.163,-0.512 0.235,-0.733c0.072,-0.221 0.146,-0.46 0.221,-0.716c0.075,-0.256 0.138,-0.5 0.188,-0.733c0.05,-0.232 0.092,-0.446 0.127,-0.641c0.034,-0.195 0.058,-0.366 0.07,-0.514c0.013,-0.149 0.019,-0.284 0.019,-0.406l0,-0.458c0,-0.061 -0.019,-0.122 -0.056,-0.183c-0.038,-0.061 -0.105,-0.098 -0.202,-0.11c-0.097,-0.011 -0.176,-0.017 -0.235,-0.017c-0.06,0 -0.121,0 -0.184,0c-0.062,0 -0.13,0.025 -0.202,0.074c-0.072,0.049 -0.139,0.11 -0.202,0.183c-0.062,0.073 -0.13,0.146 -0.202,0.219c-0.072,0.072 -0.145,0.152 -0.22,0.239c-0.076,0.087 -0.155,0.179 -0.24,0.275c-0.085,0.096 -0.169,0.2 -0.254,0.31c-0.084,0.111 -0.177,0.233 -0.277,0.367c-0.1,0.134 -0.186,0.256 -0.259,0.366c-0.071,0.111 -0.151,0.221 -0.239,0.331c-0.088,0.111 -0.168,0.221 -0.24,0.332c-0.072,0.11 -0.144,0.208 -0.216,0.292c-0.072,0.085 -0.146,0.171 -0.221,0.258c-0.075,0.087 -0.142,0.167 -0.202,0.239c-0.059,0.073 -0.12,0.14 -0.183,0.201c-0.063,0.061 -0.119,0.116 -0.169,0.166c-0.05,0.049 -0.099,0.097 -0.146,0.144c-0.047,0.047 -0.089,0.095 -0.127,0.145c-0.037,0.049 -0.081,0.104 -0.131,0.165c-0.05,0.061 -0.099,0.122 -0.146,0.183c-0.047,0.062 -0.095,0.129 -0.145,0.201l-0.076,0.11" style="fill:none;stroke:#000;stroke-width:1.72px;"/><path id="STROKE_382BC378.-E13B.-4BE5.-BECE.-B8BC8A1D05DF" d="M111.13,93.13c0.119,0 0.216,0 0.292,0c0.075,0 0.129,-0.025 0.164,-0.074c0.034,-0.05 0.064,-0.105 0.089,-0.166c0.025,-0.061 0.014,-0.11 -0.033,-0.148c-0.047,-0.038 -0.108,-0.056 -0.183,-0.056c-0.075,0 -0.161,0.024 -0.258,0.074c-0.097,0.049 -0.171,0.092 -0.221,0.13c-0.05,0.038 -0.13,0.093 -0.24,0.166c-0.11,0.072 -0.2,0.128 -0.272,0.165c-0.072,0.038 -0.146,0.08 -0.221,0.127c-0.075,0.047 -0.149,0.089 -0.221,0.127c-0.072,0.037 -0.146,0.081 -0.221,0.13c-0.075,0.05 -0.149,0.092 -0.221,0.127c-0.072,0.035 -0.152,0.078 -0.239,0.127c-0.088,0.049 -0.174,0.093 -0.259,0.13c-0.084,0.038 -0.175,0.082 -0.272,0.131c-0.097,0.049 -0.188,0.091 -0.273,0.127c-0.084,0.035 -0.171,0.071 -0.258,0.109c-0.088,0.038 -0.18,0.068 -0.277,0.092c-0.097,0.023 -0.188,0.048 -0.273,0.074c-0.084,0.025 -0.177,0.05 -0.277,0.074c-0.1,0.023 -0.193,0.047 -0.277,0.07c-0.085,0.024 -0.17,0.054 -0.254,0.092c-0.085,0.037 -0.171,0.068 -0.258,0.091c-0.088,0.024 -0.174,0.048 -0.259,0.074c-0.084,0.026 -0.158,0.051 -0.221,0.074c-0.062,0.024 -0.136,0.048 -0.221,0.074c-0.084,0.026 -0.162,0.051 -0.234,0.074c-0.073,0.024 -0.146,0.047 -0.221,0.071c-0.075,0.023 -0.149,0.042 -0.221,0.056c-0.072,0.014 -0.152,0.039 -0.24,0.074c-0.088,0.035 -0.167,0.059 -0.239,0.071c-0.072,0.011 -0.157,0.036 -0.254,0.074c-0.097,0.037 -0.19,0.068 -0.278,0.091c-0.087,0.024 -0.18,0.048 -0.277,0.074c-0.097,0.026 -0.194,0.058 -0.291,0.095c-0.097,0.038 -0.189,0.074 -0.277,0.11c-0.088,0.035 -0.186,0.071 -0.296,0.109c-0.11,0.038 -0.213,0.074 -0.31,0.109c-0.097,0.035 -0.194,0.072 -0.292,0.109c-0.097,0.038 -0.2,0.069 -0.31,0.092c-0.109,0.024 -0.214,0.048 -0.314,0.074c-0.101,0.026 -0.199,0.051 -0.296,0.074c-0.098,0.024 -0.188,0.041 -0.273,0.053c-0.085,0.012 -0.177,0.025 -0.277,0.039c-0.101,0.014 -0.199,0.027 -0.296,0.038c-0.097,0.012 -0.188,0.018 -0.273,0.018c-0.084,0 -0.17,0.006 -0.258,0.018c-0.088,0.011 -0.18,0.017 -0.278,0.017c-0.097,0 -0.181,0.006 -0.253,0.018c-0.072,0.012 -0.158,0.018 -0.258,0.018l-7.03,0c-0.062,0 -0.148,-0.006 -0.258,-0.018c-0.11,-0.012 -0.196,-0.018 -0.259,-0.018c-0.062,0 -0.142,-0.006 -0.239,-0.017c-0.097,-0.012 -0.176,-0.024 -0.235,-0.036c-0.059,-0.011 -0.139,-0.024 -0.24,-0.038c-0.1,-0.014 -0.199,-0.033 -0.296,-0.057c-0.097,-0.023 -0.194,-0.054 -0.291,-0.091c-0.097,-0.038 -0.196,-0.074 -0.296,-0.11c-0.1,-0.035 -0.174,-0.071 -0.221,-0.109c-0.047,-0.038 -0.114,-0.081 -0.202,-0.13c-0.088,-0.05 -0.174,-0.098 -0.258,-0.145c-0.085,-0.047 -0.163,-0.089 -0.235,-0.127c-0.072,-0.037 -0.152,-0.075 -0.24,-0.112c-0.088,-0.038 -0.167,-0.074 -0.24,-0.11c-0.071,-0.035 -0.15,-0.065 -0.234,-0.091c-0.085,-0.026 -0.159,-0.051 -0.221,-0.074c-0.063,-0.024 -0.126,-0.041 -0.188,-0.053c-0.063,-0.012 -0.124,-0.031 -0.183,-0.057c-0.06,-0.025 -0.127,-0.056 -0.202,-0.091c-0.076,-0.035 -0.143,-0.078 -0.202,-0.127c-0.06,-0.049 -0.115,-0.099 -0.165,-0.148c-0.05,-0.049 -0.092,-0.099 -0.127,-0.148c-0.034,-0.049 -0.07,-0.099 -0.108,-0.148c-0.037,-0.049 -0.081,-0.092 -0.132,-0.127c-0.05,-0.035 -0.098,-0.077 -0.145,-0.127c-0.047,-0.049 -0.089,-0.098 -0.127,-0.148c-0.037,-0.049 -0.075,-0.049 -0.113,0c-0.037,0.05 -0.056,0.111 -0.056,0.184c0,0.072 0.006,0.152 0.019,0.239c0.012,0.087 0.037,0.173 0.075,0.257c0.038,0.085 0.092,0.164 0.164,0.237c0.072,0.072 0.163,0.139 0.273,0.201c0.109,0.06 0.196,0.11 0.258,0.147c0.063,0.038 0.124,0.068 0.184,0.092c0.059,0.023 0.126,0.048 0.202,0.074c0.075,0.026 0.148,0.056 0.22,0.092c0.072,0.035 0.152,0.065 0.24,0.091c0.088,0.026 0.174,0.051 0.259,0.074c0.084,0.024 0.175,0.048 0.272,0.074c0.097,0.026 0.189,0.051 0.277,0.074c0.088,0.024 0.18,0.054 0.277,0.092c0.098,0.038 0.188,0.068 0.273,0.092c0.085,0.023 0.171,0.054 0.258,0.091c0.088,0.038 0.174,0.074 0.259,0.109c0.084,0.036 0.169,0.066 0.253,0.092c0.085,0.026 0.165,0.056 0.24,0.092c0.075,0.035 0.149,0.071 0.221,0.109c0.072,0.037 0.145,0.081 0.221,0.13c0.075,0.05 0.148,0.092 0.221,0.127c0.072,0.035 0.145,0.078 0.22,0.127c0.076,0.049 0.156,0.093 0.24,0.131c0.085,0.037 0.163,0.073 0.235,0.109c0.072,0.035 0.145,0.065 0.221,0.091c0.075,0.026 0.161,0.057 0.258,0.092c0.097,0.035 0.188,0.059 0.273,0.07c0.084,0.012 0.17,0.025 0.258,0.039c0.088,0.014 0.174,0.021 0.259,0.021l1.062,0c0.084,0 0.164,-0.007 0.239,-0.021c0.075,-0.014 0.155,-0.027 0.24,-0.039c0.084,-0.011 0.164,-0.023 0.24,-0.035c0.075,-0.012 0.142,-0.023 0.201,-0.035c0.06,-0.012 0.127,-0.018 0.202,-0.018l0.752,0c0.063,0 0.124,0.006 0.184,0.018c0.059,0.012 0.126,0.029 0.202,0.053c0.075,0.023 0.142,0.048 0.201,0.074c0.06,0.025 0.127,0.044 0.202,0.056c0.076,0.012 0.149,0.024 0.221,0.035c0.072,0.012 0.146,0.024 0.221,0.036c0.075,0.011 0.155,0.017 0.24,0.017l6.165,0c0.134,0 0.239,-0.006 0.314,-0.017c0.075,-0.012 0.143,-0.024 0.202,-0.036c0.06,-0.011 0.134,-0.023 0.221,-0.035c0.088,-0.012 0.168,-0.031 0.24,-0.056c0.072,-0.026 0.145,-0.051 0.221,-0.074c0.075,-0.024 0.142,-0.047 0.202,-0.071c0.059,-0.023 0.127,-0.048 0.202,-0.074c0.075,-0.026 0.142,-0.044 0.202,-0.056c0.059,-0.012 0.127,-0.03 0.202,-0.053c0.075,-0.024 0.149,-0.048 0.22,-0.074c0.073,-0.026 0.14,-0.045 0.202,-0.057c0.063,-0.011 0.124,-0.029 0.184,-0.052c0.059,-0.024 0.12,-0.048 0.183,-0.074c0.063,-0.026 0.13,-0.057 0.202,-0.092c0.072,-0.035 0.139,-0.066 0.202,-0.091c0.063,-0.026 0.13,-0.057 0.202,-0.092c0.072,-0.035 0.14,-0.066 0.202,-0.092c0.063,-0.025 0.149,-0.069 0.259,-0.13c0.109,-0.061 0.213,-0.116 0.31,-0.166c0.097,-0.049 0.188,-0.097 0.272,-0.144c0.085,-0.047 0.171,-0.095 0.259,-0.145c0.088,-0.049 0.174,-0.104 0.258,-0.165c0.085,-0.062 0.169,-0.123 0.254,-0.184c0.084,-0.061 0.146,-0.116 0.183,-0.165c0.038,-0.05 0.082,-0.093 0.132,-0.131c0.05,-0.037 0.105,-0.081 0.164,-0.13c0.06,-0.049 0.133,-0.116 0.221,-0.201c0.088,-0.084 0.167,-0.163 0.24,-0.236c0.072,-0.073 0.145,-0.14 0.221,-0.201c0.075,-0.061 0.142,-0.116 0.202,-0.165c0.059,-0.05 0.114,-0.099 0.164,-0.148c0.05,-0.05 0.111,-0.099 0.183,-0.148c0.072,-0.05 0.14,-0.092 0.202,-0.127c0.063,-0.035 0.124,-0.072 0.183,-0.11c0.06,-0.037 0.121,-0.081 0.184,-0.13c0.062,-0.049 0.117,-0.098 0.164,-0.145c0.047,-0.046 0.089,-0.095 0.127,-0.144l0.056,-0.074" style="fill:none;stroke:#000;stroke-width:1.72px;"/></g></g></svg>