<?xml version="1.0" encoding="utf-8"?>
<!-- Generator: Adobe Illustrator 16.0.0, SVG Export Plug-In . SVG Version: 6.00 Build 0)  -->
<!DOCTYPE svg PUBLIC "-//W3C//DTD SVG 1.1//EN" "http://www.w3.org/Graphics/SVG/1.1/DTD/svg11.dtd">
<svg version="1.1" id="Layer_1" xmlns="http://www.w3.org/2000/svg" xmlns:xlink="http://www.w3.org/1999/xlink" x="0px" y="0px"
	 width="160px" height="160px" viewBox="0 0 160 160" enable-background="new 0 0 160 160" xml:space="preserve">
<g id="dollars">
	<path fill="#001" d="M86.823,61.824l0.123,1.362c0.908,0.092,1.697,0.277,2.365,0.555
		c0.668,0.276,1.267,0.697,1.798,1.261c0.417,0.428,0.749,0.87,0.995,1.324c0.248,0.455,0.389,0.87,0.422,1.248
		c0.039,0.421-0.082,0.784-0.361,1.091c-0.279,0.307-0.637,0.46-1.074,0.46c-0.824,0-1.397-0.445-1.723-1.336
		c-0.372-1.05-1.104-1.749-2.194-2.094l0.476,5.246c1.067,0.286,1.922,0.547,2.561,0.783c0.641,0.236,1.223,0.576,1.751,1.021
		c0.563,0.462,1.015,1.016,1.354,1.658c0.34,0.643,0.545,1.347,0.613,2.112c0.088,0.958-0.056,1.855-0.431,2.693
		c-0.374,0.836-0.974,1.519-1.8,2.049c-0.827,0.53-1.836,0.845-3.029,0.946l0.284,3.14c0.044,0.496,0.029,0.856-0.048,1.084
		c-0.075,0.228-0.277,0.341-0.605,0.341c-0.302,0-0.522-0.093-0.662-0.277c-0.138-0.186-0.225-0.471-0.26-0.857l-0.309-3.404
		c-0.994-0.109-1.875-0.342-2.641-0.695c-0.77-0.353-1.422-0.791-1.961-1.317c-0.54-0.525-0.953-1.071-1.24-1.639
		c-0.286-0.567-0.455-1.124-0.505-1.671c-0.036-0.403,0.089-0.767,0.376-1.09c0.285-0.324,0.663-0.485,1.135-0.485
		c0.377,0,0.705,0.088,0.981,0.265c0.277,0.176,0.479,0.424,0.61,0.744c0.289,0.689,0.535,1.217,0.736,1.582
		c0.2,0.366,0.486,0.7,0.854,1.003c0.367,0.303,0.84,0.534,1.418,0.693l-0.531-5.864c-1.154-0.311-2.128-0.657-2.918-1.04
		c-0.791-0.382-1.455-0.927-1.99-1.633c-0.534-0.707-0.852-1.614-0.953-2.724c-0.131-1.446,0.223-2.631,1.06-3.556
		s2.118-1.463,3.845-1.614l-0.121-1.337c-0.063-0.707,0.17-1.059,0.698-1.059C86.461,60.79,86.761,61.134,86.823,61.824z
		 M86.005,70.475l-0.438-4.83c-0.687,0.21-1.213,0.487-1.576,0.832c-0.364,0.346-0.515,0.866-0.451,1.564
		c0.061,0.665,0.291,1.167,0.691,1.508C84.632,69.888,85.224,70.197,86.005,70.475z M87.946,74.22l0.5,5.524
		c0.834-0.169,1.459-0.509,1.875-1.021c0.416-0.514,0.592-1.11,0.531-1.792c-0.066-0.731-0.343-1.295-0.828-1.695
		C89.538,74.835,88.845,74.498,87.946,74.22z"/>
	<path fill="#001" d="M108.396,61.824l0.123,1.362c0.908,0.092,1.697,0.277,2.364,0.555
		c0.669,0.276,1.269,0.697,1.798,1.261c0.418,0.428,0.75,0.87,0.996,1.324c0.247,0.455,0.389,0.87,0.422,1.248
		c0.038,0.421-0.082,0.784-0.36,1.091c-0.279,0.307-0.638,0.46-1.075,0.46c-0.823,0-1.398-0.445-1.723-1.336
		c-0.372-1.05-1.104-1.749-2.194-2.094l0.476,5.246c1.068,0.286,1.922,0.547,2.562,0.783c0.639,0.236,1.223,0.576,1.751,1.021
		c0.563,0.462,1.014,1.016,1.354,1.658c0.34,0.643,0.545,1.347,0.614,2.112c0.087,0.958-0.058,1.855-0.431,2.693
		c-0.375,0.836-0.975,1.519-1.801,2.049s-1.836,0.845-3.029,0.946l0.283,3.14c0.046,0.496,0.03,0.856-0.045,1.084
		c-0.076,0.228-0.279,0.341-0.605,0.341c-0.305,0-0.525-0.093-0.663-0.277c-0.139-0.186-0.226-0.471-0.261-0.857l-0.309-3.404
		c-0.994-0.109-1.874-0.342-2.642-0.695c-0.767-0.353-1.421-0.791-1.96-1.317c-0.54-0.525-0.953-1.071-1.24-1.639
		c-0.286-0.567-0.455-1.124-0.504-1.671c-0.037-0.403,0.088-0.767,0.374-1.09s0.664-0.485,1.135-0.485
		c0.378,0,0.706,0.088,0.983,0.265c0.275,0.176,0.479,0.424,0.608,0.744c0.29,0.689,0.535,1.217,0.736,1.582
		c0.201,0.366,0.485,0.7,0.854,1.003c0.367,0.303,0.841,0.534,1.418,0.693l-0.531-5.864c-1.154-0.311-2.127-0.657-2.92-1.04
		c-0.79-0.382-1.453-0.927-1.988-1.633c-0.533-0.707-0.852-1.614-0.953-2.724c-0.13-1.446,0.223-2.631,1.059-3.556
		c0.838-0.925,2.12-1.463,3.846-1.614l-0.121-1.337c-0.064-0.707,0.169-1.059,0.699-1.059
		C108.033,60.79,108.333,61.134,108.396,61.824z M107.577,70.475l-0.438-4.83c-0.688,0.21-1.213,0.487-1.576,0.832
		c-0.363,0.346-0.515,0.866-0.451,1.564c0.061,0.665,0.291,1.167,0.691,1.508C106.204,69.888,106.796,70.197,107.577,70.475z
		 M109.519,74.22l0.5,5.524c0.833-0.169,1.458-0.509,1.875-1.021c0.415-0.514,0.593-1.11,0.531-1.792
		c-0.066-0.731-0.343-1.295-0.828-1.695C111.11,74.835,110.418,74.498,109.519,74.22z"/>
	
		<path fill="#FF0700" stroke="#000000" stroke-width="1.7" stroke-linecap="round" stroke-linejoin="round" stroke-miterlimit="1.5" d="
		M104.547,92.628c0,0-0.183,6.854-1.102,8.957c-2.702,6.18-9.359,4.999-10.267-1.194c-0.325-2.225,0.162-7.726,0.162-7.726"/>
	
		<path fill="none" stroke="#000000" stroke-width="1.7" stroke-linecap="round" stroke-linejoin="round" stroke-miterlimit="1.5" d="
		M113.813,87.686c0,0-6.058,5.457-14.897,5.457c-9.596,0-15.019-5.457-15.019-5.457"/>
</g>
</svg>
