<?xml version="1.0" encoding="utf-8"?>
<!-- Generator: Adobe Illustrator 16.0.0, SVG Export Plug-In . SVG Version: 6.00 Build 0)  -->
<!DOCTYPE svg PUBLIC "-//W3C//DTD SVG 1.1//EN" "http://www.w3.org/Graphics/SVG/1.1/DTD/svg11.dtd">
<svg version="1.1" id="Layer_1" xmlns="http://www.w3.org/2000/svg" xmlns:xlink="http://www.w3.org/1999/xlink" x="0px" y="0px"
	 width="160px" height="160px" viewBox="0 0 160 160" enable-background="new 0 0 160 160" xml:space="preserve">
<g id="f13">
	
		<path fill="#FFFFFF" stroke="#000000" stroke-width="1.7" stroke-linecap="round" stroke-linejoin="round" stroke-miterlimit="1.5" d="
		M112.474,91.232c0,0-21.815,0.256-27.907-0.879c-3.743-0.695-9.372-6.525-9.372-6.525s2.068,7.256,4.839,8.893
		s11.785,0.926,11.785,0.926l1.23,6.617l3.135-6.393l11.942,0.123l1.325,6.594L112.474,91.232z"/>
	
		<path fill="#FFFFFF" fill-opacity="0.8941" stroke="#000000" stroke-width="1.7" stroke-linecap="round" stroke-linejoin="round" stroke-miterlimit="1.5" d="
		M83.392,77.609c-0.429-1.239-0.676-2.685-0.676-4.229c0-4.577,2.165-8.293,4.831-8.293c2.667,0,4.832,3.716,4.832,8.293
		c0,1.143-0.135,2.232-0.38,3.223c-0.842-2.432-2.389-4.064-4.155-4.064C85.843,72.539,84.125,74.631,83.392,77.609z"/>
	
		<path fill="#FFFFFF" fill-opacity="0.8941" stroke="#000000" stroke-width="1.7" stroke-linecap="round" stroke-linejoin="round" stroke-miterlimit="1.5" d="
		M105.791,77.609c-0.429-1.239-0.675-2.685-0.675-4.229c0-4.577,2.165-8.293,4.83-8.293c2.666,0,4.832,3.716,4.832,8.293
		c0,1.143-0.135,2.232-0.379,3.223c-0.844-2.432-2.39-4.064-4.156-4.064C108.243,72.539,106.524,74.631,105.791,77.609z"/>
</g>
</svg>
