<?xml version="1.0" encoding="utf-8"?>
<!-- Generator: Adobe Illustrator 16.0.0, SVG Export Plug-In . SVG Version: 6.00 Build 0)  -->
<!DOCTYPE svg PUBLIC "-//W3C//DTD SVG 1.1//EN" "http://www.w3.org/Graphics/SVG/1.1/DTD/svg11.dtd">
<svg version="1.1" id="Layer_1" xmlns="http://www.w3.org/2000/svg" xmlns:xlink="http://www.w3.org/1999/xlink" x="0px" y="0px"
	 width="160px" height="160px" viewBox="0 0 160 160" enable-background="new 0 0 160 160" xml:space="preserve">
<g id="f1">
	
		<path fill-opacity="0.8941" stroke="#000000" stroke-width="1.7" stroke-linecap="round" stroke-linejoin="round" stroke-miterlimit="1.5" d="
		M99.767,87.828c1.615-1.785,2.998-3.911,3.811-6.875c-3.242-2.434-6-2.361-8.357-0.211C95.698,83.553,97.235,85.904,99.767,87.828z
		"/>
	
		<path fill="none" stroke="#000000" stroke-width="1.7" stroke-linecap="round" stroke-linejoin="round" stroke-miterlimit="1.5" d="
		M99.551,87.892l0.291,6.92"/>
	
		<path fill="none" stroke="#000000" stroke-width="1.7" stroke-linecap="round" stroke-linejoin="round" stroke-miterlimit="1.5" d="
		M93.397,92.302c4.271,3.298,8.248,3.746,11.732-0.547"/>
	
		<path fill="none" stroke="#000000" stroke-width="1.7" stroke-linecap="round" stroke-linejoin="round" stroke-miterlimit="1.5" d="
		M98.534,83.156c-8.768-2.58-17.803-4.286-27.636-3.389"/>
	
		<path fill="none" stroke="#000000" stroke-width="1.7" stroke-linecap="round" stroke-linejoin="round" stroke-miterlimit="1.5" d="
		M97.944,83.725C88.901,83.602,80,84.536,71.221,86.398"/>
	
		<path fill="none" stroke="#000000" stroke-width="1.7" stroke-linecap="round" stroke-linejoin="round" stroke-miterlimit="1.5" d="
		M98.051,85.531c-8.944,1.436-16.36,4.746-23.872,7.315"/>
	
		<path fill="none" stroke="#000000" stroke-width="1.7" stroke-linecap="round" stroke-linejoin="round" stroke-miterlimit="1.5" d="
		M102.464,83.506c6.234-1.871,12.26-2.077,18.713-2.127"/>
	
		<path fill="none" stroke="#000000" stroke-width="1.7" stroke-linecap="round" stroke-linejoin="round" stroke-miterlimit="1.5" d="
		M102.368,83.326c7.211,0.648,13.572,1.883,19.152,3.654"/>
	
		<path fill="none" stroke="#000000" stroke-width="1.7" stroke-linecap="round" stroke-linejoin="round" stroke-miterlimit="1.5" d="
		M102.36,84.441c6.25,1.81,12.041,4.403,17.494,7.568"/>
	
		<path fill="#FFFFFF" fill-opacity="0.8941" stroke="#000000" stroke-width="1.7" stroke-linecap="round" stroke-linejoin="round" stroke-miterlimit="1.5" d="
		M83.392,77.609c-0.429-1.239-0.676-2.685-0.676-4.229c0-4.577,2.165-8.293,4.831-8.293c2.667,0,4.832,3.716,4.832,8.293
		c0,1.143-0.135,2.232-0.38,3.223c-0.842-2.432-2.389-4.064-4.155-4.064C85.843,72.539,84.125,74.631,83.392,77.609z"/>
	
		<path fill="#FFFFFF" fill-opacity="0.8941" stroke="#000000" stroke-width="1.7" stroke-linecap="round" stroke-linejoin="round" stroke-miterlimit="1.5" d="
		M105.791,77.609c-0.429-1.239-0.675-2.685-0.675-4.229c0-4.577,2.165-8.293,4.83-8.293c2.666,0,4.832,3.716,4.832,8.293
		c0,1.143-0.135,2.232-0.379,3.223c-0.844-2.432-2.39-4.064-4.156-4.064C108.243,72.539,106.524,74.631,105.791,77.609z"/>
</g>
</svg>
