<?xml version="1.0" encoding="utf-8"?>
<!-- Generator: Adobe Illustrator 16.0.0, SVG Export Plug-In . SVG Version: 6.00 Build 0)  -->
<!DOCTYPE svg PUBLIC "-//W3C//DTD SVG 1.1//EN" "http://www.w3.org/Graphics/SVG/1.1/DTD/svg11.dtd">
<svg version="1.1" id="Layer_1" xmlns="http://www.w3.org/2000/svg" xmlns:xlink="http://www.w3.org/1999/xlink" x="0px" y="0px"
	 width="160px" height="160px" viewBox="0 0 160 160" enable-background="new 0 0 160 160" xml:space="preserve">
<g id="f15">
	
		<path fill="#FFFFFF" fill-opacity="0.8941" stroke="#010101" stroke-width="1.7" stroke-linecap="round" stroke-linejoin="round" stroke-miterlimit="1.5" d="
		M107.672,99.229c-1.149,7.67-2.905,8.912-5.917,4.683c-3.175,5.12-5.48,3.05-6.711-4.128"/>
	
		<path fill="#010101" fill-opacity="0.8941" stroke="#010101" stroke-width="1.7" stroke-linecap="round" stroke-linejoin="round" stroke-miterlimit="1.5" d="
		M114.081,91.128c0.082,0.353,0.124,0.714,0.124,1.079c0,4.669-6.897,8.459-15.394,8.459c-8.498,0-15.396-3.79-15.396-8.459
		c0-0.365,0.043-0.727,0.125-1.079c0.966,4.159,7.438,7.379,15.271,7.379C106.642,98.507,113.115,95.287,114.081,91.128z"/>
	
		<path fill="#010101" fill-opacity="0.8941" stroke="#010101" stroke-width="1.7" stroke-linecap="round" stroke-linejoin="round" stroke-miterlimit="1.5" d="
		M75.696,64.083c2.558,0.013,8.737-1.603,14.965-1.198c3.865,0.252,7.236,2.568,11.326,2.639c4.008,0.07,8.457-2.258,11.84-2.365
		c6.389-0.203,10.395,1.684,10.391,1.626l3.684,0.843l-1.762,3.351c0,0-0.477,14.874-4.594,17.092
		c-4.117,2.221-13.402,3.714-20.781-2.213c-8.299,4.498-17.507,3.474-21.83-2.971c-2.247-3.351-1.565-12.002-1.565-12.002
		s-1.953-0.024-2.873,0.017C71.674,69.032,71.112,64.06,75.696,64.083z M103.387,71.35c0.49-6.164,18.319-5.966,18.75,0.051
		c0.199,2.775,1.599,13.094-8.827,13.371C100.429,85.113,103.177,74.012,103.387,71.35z M80.951,70.379
		c0.489-6.164,18.319-5.965,18.75,0.051c0.198,2.775,1.598,13.095-8.828,13.371C77.992,84.144,80.739,73.042,80.951,70.379z"/>
	<g>
		
			<ellipse fill="#FFFFFF" fill-opacity="0.8941" stroke="#010101" stroke-width="1.7" stroke-linecap="round" stroke-linejoin="round" stroke-miterlimit="1.5" cx="88.377" cy="73.043" rx="4.406" ry="7.312"/>
		
			<ellipse fill="#FFFFFF" fill-opacity="0.8941" stroke="#010101" stroke-width="1.7" stroke-linecap="round" stroke-linejoin="round" stroke-miterlimit="1.5" cx="108.873" cy="73.043" rx="4.406" ry="7.312"/>
	</g>
</g>
</svg>
