<?xml version="1.0" encoding="utf-8"?>
<!-- Generator: Adobe Illustrator 16.0.0, SVG Export Plug-In . SVG Version: 6.00 Build 0)  -->
<!DOCTYPE svg PUBLIC "-//W3C//DTD SVG 1.1//EN" "http://www.w3.org/Graphics/SVG/1.1/DTD/svg11.dtd">
<svg version="1.1" id="Layer_1" xmlns="http://www.w3.org/2000/svg" xmlns:xlink="http://www.w3.org/1999/xlink" x="0px" y="0px"
	 width="160px" height="160px" viewBox="0 0 160 160" enable-background="new 0 0 160 160" xml:space="preserve">
<g id="f18">
	<g>
		
			<ellipse fill="#FFFFFF" fill-opacity="0.8941" stroke="#010101" stroke-width="1.7" stroke-linecap="round" stroke-linejoin="round" stroke-miterlimit="1.5" cx="108.873" cy="73.043" rx="4.406" ry="7.312"/>
	</g>
	
		<path fill="#FFFFFF" fill-opacity="0.8941" stroke="#010101" stroke-width="1.7" stroke-linecap="round" stroke-linejoin="round" stroke-miterlimit="1.5" d="
		M110.692,62.569l8.451,4.293c0,0,0.193-3.146-2.513-4.707C111.955,59.458,110.692,62.569,110.692,62.569z"/>
	
		<path fill="#FFFFFF" fill-opacity="0.8941" stroke="#010101" stroke-width="1.7" stroke-linecap="round" stroke-linejoin="round" stroke-miterlimit="1.5" d="
		M89.519,64.353l-8.449,4.293c0,0-0.194-3.145,2.513-4.707C88.257,61.243,89.519,64.353,89.519,64.353z"/>
	
		<path fill="#FFFFFF" fill-opacity="0.8941" stroke="#010101" stroke-width="1.7" stroke-linecap="round" stroke-linejoin="round" stroke-miterlimit="1.5" d="
		M94.052,74.869l-12.4-0.038c0,0,1.649-3.778,5.731-3.983C94.437,70.495,94.052,74.869,94.052,74.869z"/>
	
		<path fill="none" stroke="#010101" stroke-width="1.7" stroke-linecap="round" stroke-linejoin="round" stroke-miterlimit="1.5" d="
		M99.824,84.48c4.854,1.041,6.79,3.131,2.313,7.53c4.442,3.449,3.617,6.112-2.479,7.988"/>
	
		<path fill="#EE2524" fill-opacity="0.8941" stroke="#010101" stroke-width="1.7" stroke-linecap="round" stroke-linejoin="round" stroke-miterlimit="1.5" d="
		M116.004,89.005c2.495-4.092,5.322-3.401,6.386-1.624c1.064,1.775,0.366,4.641-1.746,7.16c-1.514,1.906-4.582,3.436-7.051,4.35
		c-1.771-1.95-3.791-4.718-4.257-7.107c-0.714-3.209-0.016-6.074,1.747-7.161C112.847,83.535,115.672,84.225,116.004,89.005z"/>
</g>
</svg>
