<?xml version="1.0" encoding="utf-8"?>
<!-- Generator: Adobe Illustrator 16.0.0, SVG Export Plug-In . SVG Version: 6.00 Build 0)  -->
<!DOCTYPE svg PUBLIC "-//W3C//DTD SVG 1.1//EN" "http://www.w3.org/Graphics/SVG/1.1/DTD/svg11.dtd">
<svg version="1.1" id="Layer_1" xmlns="http://www.w3.org/2000/svg" xmlns:xlink="http://www.w3.org/1999/xlink" x="0px" y="0px"
	 width="160px" height="160px" viewBox="0 0 160 160" enable-background="new 0 0 160 160" xml:space="preserve">
<g id="f2">
	
		<path fill="#FFFFFF" fill-opacity="0.8941" stroke="#010101" stroke-width="1.7" stroke-linecap="round" stroke-linejoin="round" stroke-miterlimit="1.5" d="
		M89.015,66.201c0.133,0,0.269,0.01,0.403,0.029c2.405,0.356,3.878,3.887,3.286,7.878c-0.591,3.992-3.023,6.944-5.43,6.587
		s-3.878-3.886-3.286-7.878c0.188-1.277,0.565-2.447,1.071-3.437l-5.67-4.605L89.015,66.201z"/>
	
		<path fill="none" stroke="#010101" stroke-width="1.7" stroke-linecap="round" stroke-linejoin="round" stroke-miterlimit="1.5" d="
		M44.651,62.007c24.673-1.26,49.005,0.427,72.953,5.43"/>
	
		<path fill="#010101" fill-opacity="0.8941" stroke="#010101" stroke-width="1.7" stroke-linecap="round" stroke-linejoin="round" stroke-miterlimit="1.5" d="
		M103.638,65.217c0,0-3.225,12.723,4.866,14.306c5.804,1.136,6.567-12.067,6.567-12.067"/>
	
		<path fill="#FFFFFF" fill-opacity="0.8941" stroke="#010101" stroke-width="1.7" stroke-linecap="round" stroke-linejoin="round" stroke-miterlimit="1.5" d="
		M107.965,93.795c-2.219-1.088-15.334-5.889-19.085-4.682c-3.75,1.209-3.79,13.562-0.047,14.824
		c1.93,0.65,12.766-8.102,17.963-6.115C112.38,99.955,112.073,95.807,107.965,93.795z"/>
	
		<path fill="none" stroke="#010101" stroke-width="1.7" stroke-linecap="round" stroke-linejoin="round" stroke-miterlimit="1.5" d="
		M92.293,89l-1.198,14.123"/>
	
		<path fill="none" stroke="#010101" stroke-width="1.7" stroke-linecap="round" stroke-linejoin="round" stroke-miterlimit="1.5" d="
		M97.722,91.059l-0.764,8.991"/>
	
		<path fill="none" stroke="#010101" stroke-width="1.7" stroke-linecap="round" stroke-linejoin="round" stroke-miterlimit="1.5" d="
		M102.604,91.845l-0.496,5.861"/>
</g>
</svg>
