<?xml version="1.0" encoding="utf-8"?>
<!-- Generator: Adobe Illustrator 16.0.0, SVG Export Plug-In . SVG Version: 6.00 Build 0)  -->
<!DOCTYPE svg PUBLIC "-//W3C//DTD SVG 1.1//EN" "http://www.w3.org/Graphics/SVG/1.1/DTD/svg11.dtd">
<svg version="1.1" id="Layer_1" xmlns="http://www.w3.org/2000/svg" xmlns:xlink="http://www.w3.org/1999/xlink" x="0px" y="0px"
	 width="160px" height="160px" viewBox="0 0 160 160" enable-background="new 0 0 160 160" xml:space="preserve">
<g id="f23">
	
		<path fill="#FFFFFF" fill-opacity="0.8941" stroke="#010101" stroke-width="1.7" stroke-linecap="round" stroke-linejoin="round" stroke-miterlimit="1.5" d="
		M87.973,65.762c0.134-0.021,0.269-0.031,0.404-0.031c2.433,0,4.406,3.277,4.406,7.312s-1.974,7.312-4.406,7.312
		s-4.406-3.277-4.406-7.312c0-1.291,0.202-2.504,0.556-3.557l-6.282-3.724H87.973z"/>
	
		<path fill="#FFFFFF" fill-opacity="0.8941" stroke="#010101" stroke-width="1.7" stroke-linecap="round" stroke-linejoin="round" stroke-miterlimit="1.5" d="
		M109.271,65.762c-0.134-0.021-0.269-0.031-0.404-0.031c-2.432,0-4.406,3.277-4.406,7.312s1.975,7.312,4.406,7.312
		s4.406-3.277,4.406-7.312c0-1.291-0.203-2.504-0.557-3.557l6.283-3.724H109.271z"/>
	
		<path fill="#010101" fill-opacity="0.8941" stroke="#010101" stroke-width="1.7" stroke-linecap="round" stroke-linejoin="round" stroke-miterlimit="1.5" d="
		M83.541,100.666c-0.082-0.395-0.125-0.797-0.125-1.203c0-5.204,6.897-9.428,15.396-9.428c8.496,0,15.394,4.224,15.394,9.428
		c0,0.406-0.042,0.809-0.124,1.203c-0.966-4.637-7.439-8.225-15.27-8.225C90.979,92.441,84.507,96.029,83.541,100.666z"/>
</g>
</svg>
