<?xml version="1.0" encoding="utf-8"?>
<!-- Generator: Adobe Illustrator 16.0.0, SVG Export Plug-In . SVG Version: 6.00 Build 0)  -->
<!DOCTYPE svg PUBLIC "-//W3C//DTD SVG 1.1//EN" "http://www.w3.org/Graphics/SVG/1.1/DTD/svg11.dtd">
<svg version="1.1" id="Layer_1" xmlns="http://www.w3.org/2000/svg" xmlns:xlink="http://www.w3.org/1999/xlink" x="0px" y="0px"
	 width="160px" height="160px" viewBox="0 0 160 160" enable-background="new 0 0 160 160" xml:space="preserve">
<g id="f3">
	
		<path fill="#FFFFFF" fill-opacity="0.8941" stroke="#010101" stroke-width="1.7" stroke-linecap="round" stroke-linejoin="round" stroke-miterlimit="1.5" d="
		M83.24,80.654c-0.429-2.143-0.675-4.643-0.675-7.312c0-7.915,2.164-14.339,4.83-14.339s4.832,6.425,4.832,14.339
		c0,1.976-0.136,3.86-0.379,5.574c-0.844-4.206-2.39-7.027-4.156-7.027C85.692,71.889,83.974,75.505,83.24,80.654z"/>
	
		<path fill="#FFFFFF" fill-opacity="0.8941" stroke="#010101" stroke-width="1.7" stroke-linecap="round" stroke-linejoin="round" stroke-miterlimit="1.5" d="
		M105.639,80.654c-0.428-2.143-0.675-4.643-0.675-7.312c0-7.915,2.165-14.339,4.83-14.339c2.668,0,4.832,6.425,4.832,14.339
		c0,1.976-0.135,3.86-0.379,5.574c-0.842-4.206-2.389-7.027-4.154-7.027C108.091,71.889,106.373,75.505,105.639,80.654z"/>
	
		<circle id="STROKE_71A2EEF1.-93E5.-4766.-8954.-0997821DBA6A" fill="#010101" fill-opacity="0.8941" stroke="#ED2024" stroke-width="0.03" cx="112.675" cy="93.515" r="0.85"/>
	
		<circle fill="#ED2024" fill-opacity="0.8941" stroke="#010101" stroke-width="1.7" stroke-linecap="round" stroke-linejoin="round" stroke-miterlimit="1.5" cx="99.078" cy="79.56" r="9.511"/>
	
		<path fill="#FFFFFF" fill-opacity="0.8941" stroke="#010101" stroke-width="1.7" stroke-linecap="round" stroke-linejoin="round" stroke-miterlimit="1.5" d="
		M84.398,90.892c2.22,6.794,13.632,8.632,28.351,2.347c-8.438,9.093-22.889,7.297-28.811,3.424
		C82.262,95.564,83.392,87.814,84.398,90.892z"/>
	<ellipse fill="#FFFFFF" fill-opacity="0.8941" cx="102.364" cy="76.403" rx="2.588" ry="2.829"/>
</g>
</svg>
