<?xml version="1.0" encoding="utf-8"?>
<!-- Generator: Adobe Illustrator 16.0.0, SVG Export Plug-In . SVG Version: 6.00 Build 0)  -->
<!DOCTYPE svg PUBLIC "-//W3C//DTD SVG 1.1//EN" "http://www.w3.org/Graphics/SVG/1.1/DTD/svg11.dtd">
<svg version="1.1" id="Layer_1" xmlns="http://www.w3.org/2000/svg" xmlns:xlink="http://www.w3.org/1999/xlink" x="0px" y="0px"
	 width="160px" height="160px" viewBox="0 0 160 160" enable-background="new 0 0 160 160" xml:space="preserve">
<g id="f6">
	<path fill="#333" d="M79.866,70.761c2.117-1.512,4.182-4.073,4.873-6.319c1.517-4.918,9.18-0.373,8.688,4.819
		C93.171,71.98,91.231,79.9,86.683,80.26C78.595,80.9,76.166,73.401,79.866,70.761z"/>
	<path fill="#333" d="M114.489,72.69c-2.118-1.511-3.021-5.273-3.713-7.52c-1.517-4.917-9.18-0.372-8.688,4.819
		c0.257,2.719,2.81,11.583,7.356,11.943C117.533,82.572,118.19,75.331,114.489,72.69z"/>
	<path fill="#333" d="M100.36,88.796c-4.986,0.108-8.097-4.435-7.449-5.808c1.344-2.843,13.673-2.625,14.785,0.404
		C108.239,84.871,104.039,88.717,100.36,88.796z"/>
	
		<path fill="none" stroke="#000000" stroke-width="1.7" stroke-linecap="round" stroke-linejoin="round" stroke-miterlimit="1.5" d="
		M100.138,86.429l0.053,6.915"/>
	
		<path fill="none" stroke="#000000" stroke-width="1.7" stroke-linecap="round" stroke-linejoin="round" stroke-miterlimit="1.5" d="
		M110.297,90.979c-2.147,5.696-5.071,2.832-9.995,2.646c-4.947-0.186-11.277,3.141-13.426-1.4"/>
</g>
</svg>
