<?xml version="1.0" encoding="utf-8"?>
<!-- Generator: Adobe Illustrator 16.0.0, SVG Export Plug-In . SVG Version: 6.00 Build 0)  -->
<!DOCTYPE svg PUBLIC "-//W3C//DTD SVG 1.1//EN" "http://www.w3.org/Graphics/SVG/1.1/DTD/svg11.dtd">
<svg version="1.1" id="Layer_1" xmlns="http://www.w3.org/2000/svg" xmlns:xlink="http://www.w3.org/1999/xlink" x="0px" y="0px"
	 width="160px" height="160px" viewBox="0 0 160 160" enable-background="new 0 0 160 160" xml:space="preserve">
<g id="f7">
	<g>
		
			<ellipse fill="#FFFFFF" fill-opacity="0.8941" stroke="#010101" stroke-width="1.7" stroke-linecap="round" stroke-linejoin="round" stroke-miterlimit="1.5" cx="88.377" cy="73.043" rx="4.406" ry="7.312"/>
		
			<ellipse fill="#FFFFFF" fill-opacity="0.8941" stroke="#010101" stroke-width="1.7" stroke-linecap="round" stroke-linejoin="round" stroke-miterlimit="1.5" cx="108.873" cy="73.043" rx="4.406" ry="7.312"/>
	</g>
	
		<path fill="#FED401" fill-opacity="0.8941" stroke="#010101" stroke-width="1.7" stroke-linecap="round" stroke-linejoin="round" stroke-miterlimit="1.5" d="
		M100.062,95.343c-3.838,1.367-6.756-0.913-7.323-7.157c0,0-2.546-0.465-2.909-1.899c-0.818-3.228,1.239-9.947,2.982-10.837
		c4.553-2.324,11.623-0.645,15.354,2.744c8.523,7.743-3.329,27.444-7.229,23.515C100.339,101.107,99.336,98.101,100.062,95.343z"/>
	
		<path fill="none" stroke="#010101" stroke-width="1.7" stroke-linecap="round" stroke-linejoin="round" stroke-miterlimit="1.5" d="
		M100.028,95.218c0.027-1.694,0.293-4.456-3.035-6.015c-1.889-0.885-4.12-0.993-4.12-0.993"/>
</g>
</svg>
