<?xml version="1.0" encoding="utf-8"?>
<!-- Generator: Adobe Illustrator 16.0.0, SVG Export Plug-In . SVG Version: 6.00 Build 0)  -->
<!DOCTYPE svg PUBLIC "-//W3C//DTD SVG 1.1//EN" "http://www.w3.org/Graphics/SVG/1.1/DTD/svg11.dtd">
<svg version="1.1" id="Layer_1" xmlns="http://www.w3.org/2000/svg" xmlns:xlink="http://www.w3.org/1999/xlink" x="0px" y="0px"
	 width="160px" height="160px" viewBox="0 0 160 160" enable-background="new 0 0 160 160" xml:space="preserve">
<g id="f8">
	
		<path fill="#FFFFFF" fill-opacity="0.8941" stroke="#010101" stroke-width="1.7" stroke-linecap="round" stroke-linejoin="round" stroke-miterlimit="1.5" d="
		M83.392,77.609c-0.429-1.239-0.676-2.685-0.676-4.229c0-4.577,2.165-8.293,4.831-8.293c2.667,0,4.832,3.716,4.832,8.293
		c0,1.143-0.135,2.232-0.38,3.223c-0.842-2.432-2.389-4.064-4.155-4.064C85.843,72.539,84.125,74.631,83.392,77.609z"/>
	
		<path fill="#FFFFFF" fill-opacity="0.8941" stroke="#010101" stroke-width="1.7" stroke-linecap="round" stroke-linejoin="round" stroke-miterlimit="1.5" d="
		M105.791,77.609c-0.429-1.239-0.675-2.685-0.675-4.229c0-4.577,2.165-8.293,4.83-8.293c2.666,0,4.832,3.716,4.832,8.293
		c0,1.143-0.135,2.232-0.379,3.223c-0.844-2.432-2.39-4.064-4.156-4.064C108.243,72.539,106.524,74.631,105.791,77.609z"/>
	
		<path fill="#FBE500" fill-opacity="0.8941" stroke="#010101" stroke-width="1.7" stroke-linecap="round" stroke-linejoin="round" stroke-miterlimit="1.5" d="
		M83.155,90.523l-2.33-1.348l1.402-2.306c0,0,10.442-1.191,11.896-4.554c4.195-9.705,6.163-8.473,13.263,0.045
		c3.297,3.957,10.964,6.879,13.991,6.256c6.519-1.34,4.843,6.123,1.028,5.006c-1.322-0.387-2.715-0.758-4.153-1.075
		c-0.42,1.903-1.153,4.524-2.202,5.853c-3.523,4.455-14.572,4.922-23.382,0.694l-7.995-2.101l-2.285-4.053L83.155,90.523z"/>
	
		<path fill="none" stroke="#010101" stroke-width="1.7" stroke-linecap="round" stroke-linejoin="round" stroke-miterlimit="1.5" d="
		M100.733,88.581l-4.342-5.483l-0.465,1.77L100.733,88.581z"/>
	
		<path fill="none" stroke="#010101" stroke-width="1.7" stroke-linecap="round" stroke-linejoin="round" stroke-miterlimit="1.5" d="
		M117.951,92.576c-5.903-1.23-12.664-2.988-20.054,2.746c-3.95,3.065-14.617-4.731-14.617-4.731"/>
	
		<path fill="#010101" fill-opacity="0.8941" stroke="#010101" stroke-width="1.7" stroke-linecap="round" stroke-linejoin="round" stroke-miterlimit="1.5" d="
		M98.665,95.438c5.607,1.606,12.775,0.817,18.291-1.49c0.761-0.319-6.426-2.648-14.234-1.314"/>
</g>
</svg>
