<?xml version="1.0" encoding="utf-8"?>
<!-- Generator: Adobe Illustrator 22.0.1, SVG Export Plug-In . SVG Version: 6.00 Build 0)  -->
<svg version="1.1" id="Layer_1" xmlns="http://www.w3.org/2000/svg" xmlns:xlink="http://www.w3.org/1999/xlink" x="0px" y="0px"
	 viewBox="0 0 160 160" style="enable-background:new 0 0 160 160;" xml:space="preserve">
<style type="text/css">
	.st0{fill:#FFFFFF;}
	.st1{opacity:0.1;}
	.st2{fill:url(#SVGID_1_);}
	.st3{fill:#42210B;}
</style>
<title>Artboard 42 copy 228</title>
<path class="st0" d="M72.4,70.5c0,0-5,2.3-4.5,5.4s4.5,2.3,4.5-0.4S73.8,71,72.4,70.5z"/>
<g class="st1">
	<path d="M72.5,71c-1.2,1.1-1.8,2.8-1.7,4.4c0.4,2.6,1.7,1.8,1.7-0.4S73.6,71.3,72.5,71z"/>
</g>
<path class="st0" d="M111,66.8c0,0,3.2-0.9,4.3,0.7s-1.2,2.9-2.3,1.6S110.5,67.5,111,66.8z"/>
<g class="st1">
	<path d="M111.1,67c1,0.1,1.9,0.6,2.5,1.4c0.8,1.3,0,1.5-0.9,0.5S110.8,67.6,111.1,67z"/>
</g>
<path class="st0" d="M70.5,67.2c0,0-3.4-0.1-4,1.8s1.9,2.5,2.6,1S71.1,67.8,70.5,67.2z"/>
<g class="st1">
	<path d="M70.5,67.5c-1,0.3-1.8,1-2.1,2c-0.5,1.5,0.4,1.4,1,0.2S71,68,70.5,67.5z"/>
</g>
<linearGradient id="SVGID_1_" gradientUnits="userSpaceOnUse" x1="92.7627" y1="60.93" x2="92.7627" y2="80.3821" gradientTransform="matrix(1 0 0 -1 0 162)">
	<stop  offset="0" style="stop-color:#A66707"/>
	<stop  offset="1" style="stop-color:#000000"/>
</linearGradient>
<path class="st2" d="M109.9,101.1H75.5c0,0,1.7-19.4,18.6-19.4c4.4-0.2,8.8,1.6,11.8,4.8C111.2,92.2,109.9,101.1,109.9,101.1z"/>
<circle class="st3" cx="78.8" cy="67.7" r="4.8"/>
<circle class="st3" cx="106.1" cy="67.7" r="4.4"/>
<path d="M105.3,58.5c2.9-0.3,5.8,4.6,8.6,6.9c0,0-3.7-7.5-4.4-8.6S105.3,58.5,105.3,58.5z"/>
<path d="M80.7,59.2c-2.6-1.2-7,2.3-10.4,3.6c0,0,6-5.8,7.1-6.6S80.7,59.2,80.7,59.2z"/>
</svg>
