<svg xmlns="http://www.w3.org/2000/svg" viewBox="0 0 160 160">
  <path d="M104.7 101.1c-2.8 3.2-6.9 5-11.1 5h-.4c-4.3 0-8.3-1.8-11.1-5-3-3.3-4.9-8.6-4.9-11 0-2.1 3.5.6 12.3 1.3l3.7.1h.5c7.9 0 12.8-2.5 13.7-3 .9-.5 2.4-.7 2.4 1.6s-2.1 7.7-5.1 11z" fill="#010101" opacity=".6"/>
  <ellipse transform="rotate(-3.1 82.8 75.8)" cx="82.8" cy="75.8" rx="6.2" ry="8.6" fill="#fff"/>
  <ellipse transform="rotate(-3.1 105.8 75.9)" cx="105.8" cy="75.9" rx="6.2" ry="8.6" fill="#fff"/>
  <ellipse cx="82.9" cy="76.3" rx="3.7" ry="4.4"/>
  <ellipse cx="105.9" cy="76.3" rx="3.7" ry="4.4"/>
  <circle cx="80.5" cy="73.9" r="2" fill="#fff"/>
  <circle cx="103.5" cy="73.9" r="2" fill="#fff"/>
  <path d="M77.7 67.3c3.5-4.1 7-4 10.4 0 0 0-4.8-9.6-10.4 0z"/>
  <path d="M100.7 67.3c3.5-4.1 7-4 10.4 0 0 0-4.8-9.6-10.4 0z"/>
  <path d="M68.3 67v4l2 .2c.8.3 1.3 1 1.4 1.8v5.4s.9 9 10.8 8.5S92.7 77 92.7 77s0-6.5 2.2-6.5 2.3 6.5 2.3 6.5.4 9.9 10.3 9.9 10.3-8.5 10.3-8.5v-5.8c0-.7.6-1.3 1.3-1.3H121v-4l-21.8-.1c-.8.2-1.4.6-2 1.2l-2.1 2-2.2-2.1a3.4 3.4 0 00-2.7-1L68.3 67z" fill="none" stroke="#000" stroke-width="2" stroke-miterlimit="10"/>
  <path d="M90.1 96.5l-.2-4.3c3.3.4 6.7.3 10-.4l.2 4.2c.1.5-.2.7-.7.9l-4 .2-.4-3.4-.3 3.3-3.9.2c-.5-.1-.7-.3-.7-.7z" fill="#fff"/>
</svg>
