<svg xmlns="http://www.w3.org/2000/svg" viewBox="0 0 160 160">
  <g fill="#010101" opacity=".6">
    <path d="M77 75s0-12 6-12 6 11.6 6 11.6S84 63 77 75z"/>
    <path d="M101 74.5s0-11 5.5-11 5.5 10.6 5.5 10.6-4.6-10.6-11 .4z"/>
    <path d="M106.7 100a15 15 0 01-11.1 5H95a15 15 0 01-11.1-5c-3-3.2-5-8.5-5-11s4.6 1.5 16 1.5h.6c7.8 0 12.7-2.5 13.6-3s2.4-.6 2.4 1.6-1.9 7.7-4.9 11z"/>
  </g>
  <circle cx="99" cy="79.8" r="9"/>
  <path d="M108 80.8a9 9 0 01-16 4.6c2.3.8 8 1.6 11.6-2 2.7-2.5 2.8-7.2 2.1-9.6a9 9 0 012.2 7z" fill="#010101" opacity=".2"/>
</svg>
