<?xml version="1.0" encoding="utf-8"?>
<!-- Generator: Adobe Illustrator 22.0.1, SVG Export Plug-In . SVG Version: 6.00 Build 0)  -->
<svg version="1.1" id="Layer_1" xmlns="http://www.w3.org/2000/svg" xmlns:xlink="http://www.w3.org/1999/xlink" x="0px" y="0px"
	 viewBox="0 0 160 160" style="enable-background:new 0 0 160 160;" xml:space="preserve">
<style type="text/css">
	.st0{opacity:0.2;}
	.st1{fill:#42210B;}
	.st2{fill:#FBDB31;}
	.st3{opacity:5.000000e-02;}
</style>
<title>Artboard 42 copy 247</title>
<g class="st0">
	<path d="M94,71c-7.4,0.5-8.9,4.8-8.9,4.8c-1.5,2.8-2.3,6-2.4,9.2c0,4.3-0.8,4,4.5,5.2c0,0-1,11,9.3,10.3c0,1.1,0,2.3,0,3.7
		c0,10.6,6.4,3.4,6.4,3.4s7.9-3.9,9.9-16.4S102.9,71,94,71z M94.1,92.2c-0.1,0-0.2-0.1-0.3-0.2L94.1,92.2z M93.8,92.1
		c-0.9-0.3-1.8-0.7-2.6-0.9C92.1,91.4,93,91.7,93.8,92.1L93.8,92.1z M94.6,92.5c1.2,0.8,1.7,1.9,1.9,3.8
		C96.3,94.8,95.7,93.5,94.6,92.5L94.6,92.5z"/>
</g>
<ellipse transform="matrix(0.9672 -0.2541 0.2541 0.9672 -14.8764 29.5239)" class="st1" cx="106.8" cy="72.3" rx="3.6" ry="5.1"/>
<ellipse transform="matrix(0.1454 -0.9894 0.9894 0.1454 -8.054352e-02 144.6261)" class="st1" cx="83.7" cy="72.4" rx="5.7" ry="4"/>
<path class="st2" d="M94.9,72c-6.7,0.4-8,4.4-8,4.4c-1.4,2.6-2.1,5.5-2.2,8.4c0,3.9-0.7,3.7,4.1,4.8c0,0-0.9,10.1,8.4,9.6
	c0,1,0,2.1,0,3.4c0,9.8,5.8,3.1,5.8,3.1s7.1-3.6,8.9-15.1S102.9,72,94.9,72z M95,91.6c-0.1-0.1-0.2-0.1-0.3-0.2L95,91.6z M94.7,91.5
	c-0.8-0.3-1.6-0.6-2.3-0.8C93.2,90.8,94,91.1,94.7,91.5L94.7,91.5z M95.4,91.9c1.1,0.8,1.5,1.8,1.7,3.5C97,94,96.4,92.8,95.4,91.9
	L95.4,91.9z"/>
<g class="st0">
	<path d="M88.8,89.7c0,0-0.9,10.1,8.4,9.6c0,0,0.8-6.5-2.4-7.8S88.8,89.5,88.8,89.7z"/>
</g>
<g class="st3">
	<path d="M86.9,76.4c0,0,1.3-4,8-4.4c8,0,18.7,7.1,16.9,18.7s-8.9,15.1-8.9,15.1C111.8,89.8,108.1,75.3,86.9,76.4z"/>
</g>
<path d="M90.3,79.1c-0.7,1.4-1.2,2.9-1.6,4.4C88.7,84.4,91.9,78.2,90.3,79.1z"/>
<path d="M91.6,79.1C91.2,80,90.9,81,90.7,82C90.8,82.5,92.9,78.3,91.6,79.1z"/>
</svg>
