<svg xmlns="http://www.w3.org/2000/svg" viewBox="0 0 160 160">
  <path d="M87.2 94h21.2s-.6 11-10.8 11c-2.6.1-5.2-.9-7.1-2.7-3.2-3.3-3.3-8.3-3.3-8.3z" fill="#603813"/>
  <path d="M105.5 101.3a10 10 0 01-7.9 3.5c-2.6.1-5.2-.9-7.1-2.7-3.2-3.3 17.7-4 15-.8z" fill="#f15a24"/>
  <path d="M71.3 68h-1.8v4h1.8c1 .3 1.8 1.2 1.8 2.2V80s-.3 8.1 11.8 7.9c0 0-8.6.2-10-8.3v-5.4c0-.8-.6-1.5-1.3-1.8l-1.9-.4-.4-4z" fill="#010101" opacity=".5"/>
  <path d="M71.3 68v4l2 .2c.8.3 1.3 1 1.4 1.8v5.4s.9 9 10.8 8.5S95.7 78 95.7 78s0-4.5 2.2-4.5 2.3 4.5 2.3 4.5.4 9.9 10.3 9.9 10.3-8.5 10.3-8.5v-5.8c0-.7.6-1.3 1.3-1.3H124v-4l-21.8-.1c-.8.2-1.4.6-2 1.2l-2.1 2-2.2-2.1a3.4 3.4 0 00-2.7-1L71.3 68z" opacity=".5" stroke="#000" stroke-miterlimit="10"/>
  <path d="M71.3 68v4l2 .2c.8.3 1.3 1 1.4 1.8v5.4s.9 9 10.8 8.5S95.7 78 95.7 78s0-4.5 2.2-4.5 2.3 4.5 2.3 4.5.4 9.9 10.3 9.9 10.3-8.5 10.3-8.5v-5.8c0-.7.6-1.3 1.3-1.3H124v-4l-21.8-.1c-.8.2-1.4.6-2 1.2l-2.1 2-2.2-2.1a3.4 3.4 0 00-2.7-1L71.3 68z" fill="none" stroke="#000" stroke-miterlimit="10"/>
</svg>
