<?xml version="1.0" encoding="UTF-8" standalone="no"?>
<!-- Generator: Adobe Illustrator 22.0.1, SVG Export Plug-In . SVG Version: 6.00 Build 0)  -->

<svg
   xmlns:dc="http://purl.org/dc/elements/1.1/"
   xmlns:cc="http://creativecommons.org/ns#"
   xmlns:rdf="http://www.w3.org/1999/02/22-rdf-syntax-ns#"
   xmlns:svg="http://www.w3.org/2000/svg"
   xmlns="http://www.w3.org/2000/svg"
   xmlns:sodipodi="http://sodipodi.sourceforge.net/DTD/sodipodi-0.dtd"
   xmlns:inkscape="http://www.inkscape.org/namespaces/inkscape"
   version="1.1"
   id="Layer_1"
   x="0px"
   y="0px"
   viewBox="0 0 160 160"
   style="enable-background:new 0 0 160 160;"
   xml:space="preserve"
   sodipodi:docname="face_09.svg"
   inkscape:version="0.92.2 (5c3e80d, 2017-08-06)"><metadata
     id="metadata23"><rdf:RDF><cc:Work
         rdf:about=""><dc:format>image/svg+xml</dc:format><dc:type
           rdf:resource="http://purl.org/dc/dcmitype/StillImage" /></cc:Work></rdf:RDF></metadata><defs
     id="defs21" /><sodipodi:namedview
     pagecolor="#ffffff"
     bordercolor="#666666"
     borderopacity="1"
     objecttolerance="10"
     gridtolerance="10"
     guidetolerance="10"
     inkscape:pageopacity="0"
     inkscape:pageshadow="2"
     inkscape:window-width="1920"
     inkscape:window-height="976"
     id="namedview19"
     showgrid="false"
     inkscape:zoom="11.8"
     inkscape:cx="65.147738"
     inkscape:cy="77.287648"
     inkscape:window-x="0"
     inkscape:window-y="27"
     inkscape:window-maximized="1"
     inkscape:current-layer="Layer_1" /><style
     type="text/css"
     id="style2">
	.st0{fill:#603813;}
	.st1{fill:#F15A24;}
	.st2{fill:#FC0D0A;}
	.st3{opacity:0.16;enable-background:new    ;}
</style><title
     id="title4">Artboard 42 copy 242</title><path
     class="st0"
     d="M85.2,94h21.2c0,0-0.6,11-10.8,11c-2.6,0.1-5.2-0.9-7.1-2.7C85.3,99,85.2,94,85.2,94z"
     id="path6" /><path
     class="st1"
     d="M103.5,101.3c-1.9,2.3-4.9,3.6-7.9,3.5c-2.6,0.1-5.2-0.9-7.1-2.7C85.3,98.8,106.2,98.1,103.5,101.3z"
     id="path8" /><path
     class="st2"
     d="M82.2,82.4c0,0-10-4.9-8.5-11.4s10.1-0.7,9.5-0.9s6.2-5.4,8.5,0.8C93.4,77,83.8,83.4,82.2,82.4z"
     id="path10"
     style="fill:#000000;fill-opacity:1" /><path
     class="st3"
     d="M82.2,82.4c0,0-10-4.9-8.5-11.4s10-0.6,9.5-0.9C76,66.1,75.7,78.7,82.2,82.4z"
     id="path12"
     style="fill:#010101;fill-opacity:1;opacity:0.1" /><path
     class="st2"
     d="m 107.01369,82.4 c 0,0 -8.530491,-4.9 -7.250916,-11.4 1.279576,-6.5 8.615796,-0.7 8.103966,-0.9 -0.51183,-0.2 5.28891,-5.4 7.25092,0.8 1.45019,6.1 -6.73909,12.5 -8.10397,11.5 z"
     id="path14"
     inkscape:connector-curvature="0"
     style="fill:#000000;stroke-width:0.92360675;fill-opacity:1" /><path
     class="st3"
     d="m 106.92839,82.4 c 0,0 -8.530496,-4.9 -7.250921,-11.4 1.279571,-6.5 8.530491,-0.6 8.103971,-0.9 -6.14196,-4 -6.39787,8.6 -0.85305,12.3 z"
     id="path16"
     inkscape:connector-curvature="0"
     style="opacity:0.1;stroke-width:0.92360675;enable-background:new;fill:#010101;fill-opacity:1" /></svg>