<?xml version="1.0" encoding="UTF-8" standalone="no"?>
<!-- Generator: Adobe Illustrator 22.0.1, SVG Export Plug-In . SVG Version: 6.00 Build 0)  -->

<svg
   xmlns:dc="http://purl.org/dc/elements/1.1/"
   xmlns:cc="http://creativecommons.org/ns#"
   xmlns:rdf="http://www.w3.org/1999/02/22-rdf-syntax-ns#"
   xmlns:svg="http://www.w3.org/2000/svg"
   xmlns="http://www.w3.org/2000/svg"
   xmlns:sodipodi="http://sodipodi.sourceforge.net/DTD/sodipodi-0.dtd"
   xmlns:inkscape="http://www.inkscape.org/namespaces/inkscape"
   version="1.1"
   id="Layer_1"
   x="0px"
   y="0px"
   viewBox="0 0 160 160"
   style="enable-background:new 0 0 160 160;"
   xml:space="preserve"
   sodipodi:docname="face_18.svg"
   inkscape:version="0.92.2 (5c3e80d, 2017-08-06)"><metadata
     id="metadata35"><rdf:RDF><cc:Work
         rdf:about=""><dc:format>image/svg+xml</dc:format><dc:type
           rdf:resource="http://purl.org/dc/dcmitype/StillImage" /></cc:Work></rdf:RDF></metadata><defs
     id="defs33" /><sodipodi:namedview
     pagecolor="#ffffff"
     bordercolor="#666666"
     borderopacity="1"
     objecttolerance="10"
     gridtolerance="10"
     guidetolerance="10"
     inkscape:pageopacity="0"
     inkscape:pageshadow="2"
     inkscape:window-width="1920"
     inkscape:window-height="976"
     id="namedview31"
     showgrid="false"
     inkscape:zoom="11.8"
     inkscape:cx="79.61607"
     inkscape:cy="94.878678"
     inkscape:window-x="0"
     inkscape:window-y="27"
     inkscape:window-maximized="1"
     inkscape:current-layer="Layer_1" /><style
     type="text/css"
     id="style2">
	.st0{fill:url(#SVGID_1_);}
	.st1{fill:url(#SVGID_2_);}
	.st2{fill:#603813;}
	.st3{fill:#F15A24;}
	.st4{fill:#FFFFFF;}
</style><title
     id="title4">Artboard 42 copy 248</title><linearGradient
     id="SVGID_1_"
     gradientUnits="userSpaceOnUse"
     x1="83"
     y1="81.19"
     x2="83"
     y2="90.99"
     gradientTransform="matrix(1 0 0 -1 0 162)"><stop
       offset="0"
       style="stop-color:#A66707"
       id="stop6" /><stop
       offset="0.5"
       style="stop-color:#9D6209"
       id="stop8" /><stop
       offset="1"
       style="stop-color:#000000"
       id="stop10" /></linearGradient><path
     class="st0"
     d="M77,81c0,0,0-12,6-12s6,11.6,6,11.6S84,69,77,81z"
     id="path13"
     style="fill:#010101;fill-opacity:1;opacity:0.6" /><linearGradient
     id="SVGID_2_"
     gradientUnits="userSpaceOnUse"
     x1="106.5"
     y1="83.65"
     x2="106.5"
     y2="92.62"
     gradientTransform="matrix(1 0 0 -1 0 162)"><stop
       offset="0"
       style="stop-color:#A66707"
       id="stop15" /><stop
       offset="0.5"
       style="stop-color:#9D6209"
       id="stop17" /><stop
       offset="1"
       style="stop-color:#000000"
       id="stop19" /></linearGradient><path
     class="st1"
     d="M101,80.5c0,0,0-11,5.5-11s5.5,10.6,5.5,10.6S107.4,69.5,101,80.5z"
     id="path22"
     style="fill:#010101;fill-opacity:1;opacity:0.6" /><path
     class="st2"
     d="M75,85.4h38.3c0,0-1.1,23.1-19.4,23.1c-5,0.2-9.7-1.9-12.9-5.8C75.2,95.9,75,85.4,75,85.4z"
     id="path24" /><path
     class="st3"
     d="M108.1,100.8c-3.2,4.7-8.5,7.5-14.2,7.3c-5,0.2-9.7-1.9-12.9-5.8C75.2,95.5,112.9,94,108.1,100.8z"
     id="path26" /><path
     class="st4"
     d="M75,85h38.3c-0.1,2.5-0.5,5-1.3,7.3c0,0-22.5,4.2-35.9-0.3C75.5,89.7,75.1,87.4,75,85z"
     id="path28" /></svg>