<?xml version="1.0" encoding="utf-8"?>
<!-- Generator: Adobe Illustrator 22.0.1, SVG Export Plug-In . SVG Version: 6.00 Build 0)  -->
<svg version="1.1" id="Layer_1" xmlns="http://www.w3.org/2000/svg" xmlns:xlink="http://www.w3.org/1999/xlink" x="0px" y="0px"
	 viewBox="0 0 160 160" style="enable-background:new 0 0 160 160;" xml:space="preserve">
<style type="text/css">
	.st0{fill:#F15A24;}
	.st1{fill:#E84715;}
	.st2{fill:url(#SVGID_1_);}
	.st3{fill:none;stroke:#42210B;stroke-width:2;stroke-linecap:round;stroke-linejoin:round;}
	.st4{fill:url(#SVGID_2_);}
	.st5{fill:url(#SVGID_3_);}
</style>
<title>Artboard 42 copy 249</title>
<path class="st0" d="M79,88.5c-0.3-0.1-6.4,4.2-8.3,6.2s0.4,7.8,8.3,4c3.2-1.2,7.1-4.7,7.1-4.7S81.3,91.6,79,88.5z"/>
<path class="st1" d="M81.1,92.7c-2,1.8-4.2,3.5-6.6,4.8c-2.9,1.4-2.1,2.2,0,2.1s5.5-0.8,9.7-4.2l1.9-1.4l-4-2.2L81.1,92.7z"/>
<linearGradient id="SVGID_1_" gradientUnits="userSpaceOnUse" x1="-8.9332" y1="879.3187" x2="-9.0832" y2="888.3987" gradientTransform="matrix(0.6644 0.7473 0.7473 -0.6644 -576.0177 688.202)">
	<stop  offset="0" style="stop-color:#FFD22D;stop-opacity:0"/>
	<stop  offset="0.81" style="stop-color:#A66707;stop-opacity:0.7"/>
	<stop  offset="1" style="stop-color:#A66707"/>
</linearGradient>
<path class="st2" d="M79,88.5c-0.3-0.1-6.4,4.2-8.3,6.2s0.4,7.8,8.3,4c3.2-1.2,7.1-4.7,7.1-4.7S81.3,91.6,79,88.5z"/>
<path class="st3" d="M76.1,83.3c-0.5-2.6,3.3,13.4,18.4,12.7c16-0.8,16.5-13.6,16.5-13.6"/>
<linearGradient id="SVGID_2_" gradientUnits="userSpaceOnUse" x1="83" y1="87.19" x2="83" y2="96.99" gradientTransform="matrix(1 0 0 -1 0 162)">
	<stop  offset="0" style="stop-color:#A66707"/>
	<stop  offset="0.5" style="stop-color:#9D6209"/>
	<stop  offset="1" style="stop-color:#000000"/>
</linearGradient>
<path class="st4" d="M77,75c0,0,0-12,6-12s6,11.6,6,11.6S84,63,77,75z"/>
<linearGradient id="SVGID_3_" gradientUnits="userSpaceOnUse" x1="106" y1="89.34" x2="106" y2="99.14" gradientTransform="matrix(1 0 0 -1 0 162)">
	<stop  offset="0" style="stop-color:#A66707"/>
	<stop  offset="0.5" style="stop-color:#9D6209"/>
	<stop  offset="1" style="stop-color:#000000"/>
</linearGradient>
<path class="st5" d="M100,75c0,0,0-12,6-12s6,11.6,6,11.6S107,63,100,75z"/>
</svg>
