<?xml version="1.0" encoding="UTF-8" standalone="no"?>
<!-- Generator: Adobe Illustrator 22.0.1, SVG Export Plug-In . SVG Version: 6.00 Build 0)  -->

<svg
   xmlns:dc="http://purl.org/dc/elements/1.1/"
   xmlns:cc="http://creativecommons.org/ns#"
   xmlns:rdf="http://www.w3.org/1999/02/22-rdf-syntax-ns#"
   xmlns:svg="http://www.w3.org/2000/svg"
   xmlns="http://www.w3.org/2000/svg"
   xmlns:sodipodi="http://sodipodi.sourceforge.net/DTD/sodipodi-0.dtd"
   xmlns:inkscape="http://www.inkscape.org/namespaces/inkscape"
   version="1.1"
   id="Layer_1"
   x="0px"
   y="0px"
   viewBox="0 0 160 160"
   style="enable-background:new 0 0 160 160;"
   xml:space="preserve"
   sodipodi:docname="face_11.svg"
   inkscape:version="0.92.2 (5c3e80d, 2017-08-06)"><metadata
     id="metadata45"><rdf:RDF><cc:Work
         rdf:about=""><dc:format>image/svg+xml</dc:format><dc:type
           rdf:resource="http://purl.org/dc/dcmitype/StillImage" /></cc:Work></rdf:RDF></metadata><defs
     id="defs43" /><sodipodi:namedview
     pagecolor="#ffffff"
     bordercolor="#666666"
     borderopacity="1"
     objecttolerance="10"
     gridtolerance="10"
     guidetolerance="10"
     inkscape:pageopacity="0"
     inkscape:pageshadow="2"
     inkscape:window-width="1920"
     inkscape:window-height="976"
     id="namedview41"
     showgrid="false"
     inkscape:zoom="11.8"
     inkscape:cx="64.525518"
     inkscape:cy="69.85134"
     inkscape:window-x="0"
     inkscape:window-y="27"
     inkscape:window-maximized="1"
     inkscape:current-layer="Layer_1" /><style
     type="text/css"
     id="style2">
	.st0{fill:none;stroke:#303030;stroke-width:2;stroke-linecap:round;stroke-linejoin:round;}
	.st1{fill:#603813;}
	.st2{fill:#F15A24;}
	.st3{fill:url(#SVGID_1_);}
	.st4{fill:url(#SVGID_2_);}
	.st5{opacity:0.15;}
</style><title
     id="title4">Artboard 42 copy 244</title><path
     class="st0"
     d="M77.2,70.9c1-5.6,9.1-5.6,9.8-0.2"
     id="path6" /><path
     class="st0"
     d="M103.5,70.7c0.9-5.2,8.5-5.2,9.1-0.2"
     id="path8" /><path
     class="st1"
     d="M85.2,91h21.2c0,0-0.6,11-10.8,11c-2.6,0.1-5.2-0.9-7.1-2.7C85.3,96,85.2,91,85.2,91z"
     id="path10" /><path
     class="st2"
     d="M103.5,98.3c-1.9,2.3-4.9,3.6-7.9,3.5c-2.6,0.1-5.2-0.9-7.1-2.7C85.3,95.8,106.2,95.1,103.5,98.3z"
     id="path12" /><radialGradient
     id="SVGID_1_"
     cx="81.5863"
     cy="77.484"
     r="13.6763"
     gradientTransform="matrix(1 0 0 -1 0 162)"
     gradientUnits="userSpaceOnUse"><stop
       offset="0"
       style="stop-color:#754C24"
       id="stop14" /><stop
       offset="0.87"
       style="stop-color:#603813"
       id="stop16" /><stop
       offset="1"
       style="stop-color:#603813"
       id="stop18" /></radialGradient><path
     class="st3"
     d="M98,84.9c1.1-6.6-3.3-12.1-13.2-9.9c-7.8,2-4.4,9.9-8.8,13.2s-11,3.3-11,3.3S92.5,101.4,98,84.9z"
     id="path21"
     style="fill:#4d3118;fill-opacity:1" /><radialGradient
     id="SVGID_2_"
     cx="8866.0752"
     cy="91.7875"
     r="12.4429"
     gradientTransform="matrix(-1 0 0 -1.07 8978.1504 182.22)"
     gradientUnits="userSpaceOnUse"><stop
       offset="0"
       style="stop-color:#754C24"
       id="stop23" /><stop
       offset="0.87"
       style="stop-color:#603813"
       id="stop25" /><stop
       offset="1"
       style="stop-color:#603813"
       id="stop27" /></radialGradient><path
     class="st4"
     d="M97.2,84.7c-1-6.4,3-11.8,12-9.7c6.8,1,4,9.7,8,12.9s10,3.2,10,3.2S102.2,100.8,97.2,84.7z"
     id="path30"
     style="fill:#4d3118;fill-opacity:1" /><g
     class="st5"
     id="g34"><path
       d="M98,84.7c1-6.4-3-11.8-12-9.7c13.2,4,2.2,21-18,16.1C68,91.1,93,100.8,98,84.7z"
       id="path32" /></g><g
     class="st5"
     id="g38"><path
       d="M102.8,75.1c0,0,5.2-0.1,6.2,2.9s0,6,1,8s7.8,7.8,16.4,5.4c0,0-9.3,1.2-11.3-7.1S111.6,74.1,102.8,75.1z"
       id="path36" /></g></svg>