<svg xmlns="http://www.w3.org/2000/svg" viewBox="0 0 160 160">
  <path d="M85.2 94h21.2s-.6 11-10.8 11c-2.6.1-5.2-.9-7.1-2.7-3.2-3.3-3.3-8.3-3.3-8.3z" fill="#603813"/>
  <path d="M103.5 101.3a10 10 0 01-7.9 3.5c-2.6.1-5.2-.9-7.1-2.7-3.2-3.3 17.7-4 15-.8z" fill="#f15a24"/>
  <path d="M82.2 82.4s-10-4.9-8.5-11.4 10.1-.7 9.5-.9 6.2-5.4 8.5.8c1.7 6.1-7.9 12.5-9.5 11.5z"/>
  <path d="M107 82.4s-8.5-4.9-7.2-11.4c1.2-6.5 8.6-.7 8-.9-.4-.2 5.4-5.4 7.3.8 1.5 6.1-6.7 12.5-8 11.5z"/>
  <g fill="#010101" opacity=".1">
    <path d="M82.2 82.4s-10-4.9-8.5-11.4 10-.6 9.5-.9c-7.2-4-7.5 8.6-1 12.3z"/>
    <path d="M107 82.4s-8.6-4.9-7.3-11.4c1.3-6.5 8.5-.6 8-.9-6-4-6.3 8.6-.8 12.3z"/>
  </g>
</svg>
