<svg id="Layer_1" data-name="Layer 1" xmlns="http://www.w3.org/2000/svg" xmlns:xlink="http://www.w3.org/1999/xlink" viewBox="0 0 160 160"><defs><style>.cls-1,.cls-5{fill:url(#linear-gradient);}.cls-1,.cls-2,.cls-4{clip-rule:evenodd;}.cls-10,.cls-2{fill:url(#linear-gradient-2);}.cls-3{fill:url(#linear-gradient-3);}.cls-17,.cls-4{fill:url(#linear-gradient-4);}.cls-10,.cls-17,.cls-5{fill-rule:evenodd;}.cls-6{clip-path:url(#clip-path);}.cls-7{fill:url(#linear-gradient-6);}.cls-8{fill:url(#linear-gradient-7);}.cls-9{fill:url(#linear-gradient-8);}.cls-11{clip-path:url(#clip-path-2);}.cls-12{clip-path:url(#clip-path-3);}.cls-13{fill:url(#linear-gradient-11);}.cls-14{fill:url(#radial-gradient);}.cls-15{opacity:0.05;}.cls-16{fill:url(#linear-gradient-12);}.cls-18{clip-path:url(#clip-path-4);}.cls-19{fill:url(#linear-gradient-14);}</style><linearGradient id="linear-gradient" x1="95.33" y1="665.12" x2="95.33" y2="647.21" gradientUnits="userSpaceOnUse"><stop offset="0" stop-color="#a66707"/><stop offset="1"/></linearGradient><linearGradient id="linear-gradient-2" x1="95.33" y1="105.12" x2="95.33" y2="87.21" xlink:href="#linear-gradient"/><linearGradient id="linear-gradient-3" x1="15.98" y1="507.14" x2="15.98" y2="-1324.07" xlink:href="#linear-gradient"/><linearGradient id="linear-gradient-4" x1="93.83" y1="848.71" x2="93.83" y2="831.66" xlink:href="#linear-gradient"/><clipPath id="clip-path"><path class="cls-1" d="M106.7,660.09a15.08,15.08,0,0,1-11.14,5h0l-.22,0-.21,0h0a15.08,15.08,0,0,1-11.14-5c-3-3.33-4.9-8.6-4.9-11s4.46,1.42,16,1.42h.46c7.89,0,12.78-2.53,13.65-3s2.39-.65,2.39,1.6S109.74,656.76,106.7,660.09Z"/></clipPath><linearGradient id="linear-gradient-6" x1="15.98" y1="1067.14" x2="15.98" y2="-764.07" xlink:href="#linear-gradient"/><linearGradient id="linear-gradient-7" x1="83" y1="74.81" x2="83" y2="65.01" gradientUnits="userSpaceOnUse"><stop offset="0" stop-color="#a66707"/><stop offset="0.5" stop-color="#9d6209"/><stop offset="1"/></linearGradient><linearGradient id="linear-gradient-8" x1="106.5" y1="72.35" x2="106.5" y2="63.38" xlink:href="#linear-gradient-7"/><clipPath id="clip-path-2"><path class="cls-2" d="M106.7,100.09a15.08,15.08,0,0,1-11.14,5h0l-.22,0-.21,0h0a15.08,15.08,0,0,1-11.14-5c-3-3.33-4.9-8.6-4.9-11s4.46,1.42,16,1.42h.46c7.89,0,12.78-2.53,13.65-3s2.39-.65,2.39,1.6S109.74,96.76,106.7,100.09Z"/></clipPath><clipPath id="clip-path-3"><rect class="cls-3" x="-487.11" y="-1324.07" width="1006.19" height="1831.22"/></clipPath><linearGradient id="linear-gradient-11" x1="95.33" y1="117.59" x2="95.33" y2="81.57" xlink:href="#linear-gradient-7"/><radialGradient id="radial-gradient" cx="257.2" cy="605.2" r="8.98" gradientTransform="translate(-85.5 -551.41) rotate(6.73)" gradientUnits="userSpaceOnUse"><stop offset="0" stop-color="#f05a2e"/><stop offset="0.87" stop-color="#f0532b"/><stop offset="1" stop-color="#e91e25"/></radialGradient><linearGradient id="linear-gradient-12" x1="-71.9" y1="606.01" x2="-71.9" y2="597.16" gradientTransform="matrix(0.9, 0.11, -0.12, 0.99, 234.75, -513.63)" gradientUnits="userSpaceOnUse"><stop offset="0" stop-color="#ffd22d" stop-opacity="0"/><stop offset="0.81" stop-color="#fffcef" stop-opacity="0.7"/><stop offset="1" stop-color="#fff" stop-opacity="0.8"/></linearGradient><clipPath id="clip-path-4"><path class="cls-4" d="M95.33,843.09q-.77,0-1.5-.06c-.88-.06-1.28,5.36-2.55,5.67s-1.72-6.38-2.54-6.63c-2.37-.72-6.48-1.76-8.26-2.91-4-2.59-4.42-5.74-4.42-7,0-2.38,7.46,5.42,19,5.42h.46c7.89,0,12.78-2.53,13.65-3s2.39-.65,2.39,1.6c0,1.09-1.85,2.77-4.69,4.21-.73.37-.86,8.43-2.38,8s-1.73-6.39-2.65-6.14A24.2,24.2,0,0,1,95.33,843.09Z"/></clipPath><linearGradient id="linear-gradient-14" x1="15.98" y1="1254.14" x2="15.98" y2="-577.07" xlink:href="#linear-gradient"/></defs><title>Artboard 42 copy 227</title><path class="cls-5" d="M106.7,660.09a15.08,15.08,0,0,1-11.14,5h0l-.22,0-.21,0h0a15.08,15.08,0,0,1-11.14-5c-3-3.33-4.9-8.6-4.9-11s4.46,1.42,16,1.42h.46c7.89,0,12.78-2.53,13.65-3s2.39-.65,2.39,1.6S109.74,656.76,106.7,660.09Z"/><g class="cls-6"><rect class="cls-7" x="-487.11" y="-764.07" width="1006.19" height="1831.22"/></g><path class="cls-8" d="M77,75s0-12,6-12,6,11.59,6,11.59S84,63,77,75Z"/><path class="cls-9" d="M101,74.5s0-11,5.5-11S112,74.12,112,74.12,107.42,63.5,101,74.5Z"/><path class="cls-10" d="M106.7,100.09a15.08,15.08,0,0,1-11.14,5h0l-.22,0-.21,0h0a15.08,15.08,0,0,1-11.14-5c-3-3.33-4.9-8.6-4.9-11s4.46,1.42,16,1.42h.46c7.89,0,12.78-2.53,13.65-3s2.39-.65,2.39,1.6S109.74,96.76,106.7,100.09Z"/><g class="cls-11"><rect class="cls-3" x="-487.11" y="-1324.07" width="1006.19" height="1831.22"/><g class="cls-12"><rect class="cls-13" x="76.55" y="81.57" width="37.54" height="36.02"/></g></g><circle class="cls-14" cx="99.02" cy="79.75" r="8.98"/><g class="cls-15"><path d="M107.93,80.8A9,9,0,0,1,92,85.37c2.28.81,8,1.64,11.64-1.9,2.68-2.54,2.77-7.29,2.1-9.66A9,9,0,0,1,107.93,80.8Z"/></g><path class="cls-16" d="M107,81.09c-.66,1.58-4.13-2.63-7.44-2.86s-7.44,2.61-7.89,1c.54-4.63,4.42-8,8.65-7.47S107.49,76.46,107,81.09Z"/><path class="cls-17" d="M95.33,843.09q-.77,0-1.5-.06c-.88-.06-1.28,5.36-2.55,5.67s-1.72-6.38-2.54-6.63c-2.37-.72-6.48-1.76-8.26-2.91-4-2.59-4.42-5.74-4.42-7,0-2.38,7.46,5.42,19,5.42h.46c7.89,0,12.78-2.53,13.65-3s2.39-.65,2.39,1.6c0,1.09-1.85,2.77-4.69,4.21-.73.37-.86,8.43-2.38,8s-1.73-6.39-2.65-6.14A24.2,24.2,0,0,1,95.33,843.09Z"/><g class="cls-18"><rect class="cls-19" x="-487.11" y="-577.07" width="1006.19" height="1831.22"/></g></svg>