<?xml version="1.0" encoding="utf-8"?>
<!-- Generator: Adobe Illustrator 22.0.1, SVG Export Plug-In . SVG Version: 6.00 Build 0)  -->
<svg version="1.1" id="Layer_1" xmlns="http://www.w3.org/2000/svg" xmlns:xlink="http://www.w3.org/1999/xlink" x="0px" y="0px"
	 viewBox="0 0 160 160" style="enable-background:new 0 0 160 160;" xml:space="preserve">
<style type="text/css">
	.st0{fill:#42210B;}
	.st1{fill:none;stroke:#42210B;stroke-width:2;stroke-linecap:round;stroke-linejoin:round;}
	.st2{fill:url(#SVGID_1_);}
	.st3{clip-path:url(#SVGID_3_);}
	.st4{fill:url(#SVGID_4_);}
	.st5{fill:#FFFFFF;}
	.st6{clip-path:url(#SVGID_6_);}
	.st7{clip-path:url(#SVGID_8_);}
	.st8{opacity:5.000000e-02;}
	.st9{clip-path:url(#SVGID_10_);}
</style>
<title>Artboard 42 copy 229</title>
<circle class="st0" cx="79.8" cy="71.6" r="4.6"/>
<circle class="st0" cx="108.2" cy="71.6" r="4.3"/>
<path class="st1" d="M76.1,87.3c0,0,2.8,13.4,18.4,12.7c16-0.8,16.5-13.6,16.5-13.6"/>
<linearGradient id="SVGID_1_" gradientUnits="userSpaceOnUse" x1="555.8547" y1="-350.3301" x2="555.8547" y2="-333.7138" gradientTransform="matrix(1 0 0 1 0 1744.3301)">
	<stop  offset="0" style="stop-color:#A66707"/>
	<stop  offset="1" style="stop-color:#000000"/>
</linearGradient>
<path class="st2" d="M566.9,1398.8c-2.7-3-6.6-4.8-10.6-4.8l0,0h-0.2h-0.2l0,0c-10.6,1.1-18.1,10.4-15.3,15.3
	c2.5,5.5,19.9-8.3,27.8,0.6c2.3,1.3,3.7-1,3.2-3.4C571.2,1404.3,569.8,1402,566.9,1398.8z"/>
<g>
	<defs>
		<path id="SVGID_2_" d="M566.9,1398.8c-2.7-3-6.6-4.8-10.6-4.8l0,0h-0.2h-0.2l0,0c-10.6,1.1-18.1,10.4-15.3,15.3
			c2.5,5.5,19.9-8.3,27.8,0.6c2.3,1.3,3.7-1,3.2-3.4C571.2,1404.3,569.8,1402,566.9,1398.8z"/>
	</defs>
	<clipPath id="SVGID_3_">
		<use xlink:href="#SVGID_2_"  style="overflow:visible;"/>
	</clipPath>
	<g class="st3">
		
			<linearGradient id="SVGID_4_" gradientUnits="userSpaceOnUse" x1="475.985" y1="-1651.15" x2="475.985" y2="180.07" gradientTransform="matrix(1 0 0 -1 0 162)">
			<stop  offset="0" style="stop-color:#A66707"/>
			<stop  offset="1" style="stop-color:#000000"/>
		</linearGradient>
		<rect x="-27.1" y="-18.1" class="st4" width="1006.2" height="1831.2"/>
	</g>
</g>
<path class="st5" d="M540.8,1403.6c0,0-1.8,3.4-0.3,5.7c2.5,5.5,19.9-8.3,27.8,0.6c0.4-2.9,0.5-5.9,0.5-8.8
	C568.8,1401,540.8,1404.4,540.8,1403.6z"/>
<g>
	<defs>
		<path id="SVGID_5_" d="M540.8,1403.6c0,0-1.8,3.4-0.3,5.7c2.5,5.5,19.9-8.3,27.8,0.6c0.4-2.9,0.5-5.9,0.5-8.8
			C568.8,1401,540.8,1404.4,540.8,1403.6z"/>
	</defs>
	<clipPath id="SVGID_6_">
		<use xlink:href="#SVGID_5_"  style="overflow:visible;"/>
	</clipPath>
	<g class="st6">
		<rect x="-27.1" y="-18.1" class="st5" width="1006.2" height="1831.2"/>
	</g>
</g>
<path class="st5" d="M566.9,1398.8c-2.7-3-6.6-4.8-10.6-4.8l0,0h-0.2h-0.2l0,0c-5.4,0.7-10.3,3.4-13.8,7.6c0,0,27.1-0.2,26.7-0.8
	S567.6,1399.5,566.9,1398.8z"/>
<g>
	<defs>
		<path id="SVGID_7_" d="M566.9,1398.8c-2.7-3-6.6-4.8-10.6-4.8l0,0h-0.2h-0.2l0,0c-5.4,0.7-10.3,3.4-13.8,7.6
			c0,0,27.1-0.2,26.7-0.8S567.6,1399.5,566.9,1398.8z"/>
	</defs>
	<clipPath id="SVGID_8_">
		<use xlink:href="#SVGID_7_"  style="overflow:visible;"/>
	</clipPath>
	<g class="st7">
		<rect x="-27.1" y="-18.1" class="st5" width="1006.2" height="1831.2"/>
	</g>
</g>
<g class="st8">
	<path d="M566.9,1398.8c-1.9-2.8-7.4-4.4-7.4-4.4c0.5,1.6,0.5,5.6-0.2,6.9c0,0,9.4-0.3,9.3-0.5
		C568.2,1400.2,567.6,1399.5,566.9,1398.8z"/>
	<g>
		<defs>
			<path id="SVGID_9_" d="M566.9,1398.8c-1.9-2.8-7.4-4.4-7.4-4.4c0.5,1.6,0.5,5.6-0.2,6.9c0,0,9.4-0.3,9.3-0.5
				C568.2,1400.2,567.6,1399.5,566.9,1398.8z"/>
		</defs>
		<clipPath id="SVGID_10_">
			<use xlink:href="#SVGID_9_"  style="overflow:visible;"/>
		</clipPath>
		<g class="st9">
			<rect x="-27.1" y="-18.1" width="1006.2" height="1831.2"/>
		</g>
	</g>
</g>
</svg>
