<?xml version="1.0" encoding="utf-8"?>
<!-- Generator: Adobe Illustrator 22.0.1, SVG Export Plug-In . SVG Version: 6.00 Build 0)  -->
<svg version="1.1" id="Layer_1" xmlns="http://www.w3.org/2000/svg" xmlns:xlink="http://www.w3.org/1999/xlink" x="0px" y="0px"
	 viewBox="0 0 160 160" style="enable-background:new 0 0 160 160;" xml:space="preserve">
<style type="text/css">
	.st0{fill:url(#SVGID_1_);}
	.st1{fill:url(#SVGID_2_);}
	.st2{fill:#603813;}
	.st3{fill:#F15A24;}
	.st4{fill:#FFFFFF;}
</style>
<title>Artboard 42 copy 248</title>
<linearGradient id="SVGID_1_" gradientUnits="userSpaceOnUse" x1="83" y1="81.19" x2="83" y2="90.99" gradientTransform="matrix(1 0 0 -1 0 162)">
	<stop  offset="0" style="stop-color:#A66707"/>
	<stop  offset="0.5" style="stop-color:#9D6209"/>
	<stop  offset="1" style="stop-color:#000000"/>
</linearGradient>
<path class="st0" d="M77,81c0,0,0-12,6-12s6,11.6,6,11.6S84,69,77,81z"/>
<linearGradient id="SVGID_2_" gradientUnits="userSpaceOnUse" x1="106.5" y1="83.65" x2="106.5" y2="92.62" gradientTransform="matrix(1 0 0 -1 0 162)">
	<stop  offset="0" style="stop-color:#A66707"/>
	<stop  offset="0.5" style="stop-color:#9D6209"/>
	<stop  offset="1" style="stop-color:#000000"/>
</linearGradient>
<path class="st1" d="M101,80.5c0,0,0-11,5.5-11s5.5,10.6,5.5,10.6S107.4,69.5,101,80.5z"/>
<path class="st2" d="M75,85.4h38.3c0,0-1.1,23.1-19.4,23.1c-5,0.2-9.7-1.9-12.9-5.8C75.2,95.9,75,85.4,75,85.4z"/>
<path class="st3" d="M108.1,100.8c-3.2,4.7-8.5,7.5-14.2,7.3c-5,0.2-9.7-1.9-12.9-5.8C75.2,95.5,112.9,94,108.1,100.8z"/>
<path class="st4" d="M75,85h38.3c-0.1,2.5-0.5,5-1.3,7.3c0,0-22.5,4.2-35.9-0.3C75.5,89.7,75.1,87.4,75,85z"/>
</svg>
