<svg xmlns="http://www.w3.org/2000/svg" viewBox="0 0 160 160">
  <g fill="#010101" opacity=".6">
    <path d="M77 76s0-12 6-12 6 11.59 6 11.59S84 64 77 76z"/>
    <path d="M101 75.5s0-11 5.5-11 5.5 10.62 5.5 10.62-4.58-10.62-11 .38z"/>
    <path d="M95.33 95.09q-.77 0-1.5-.06c-.88-.06-1.28 5.36-2.55 5.67s-1.72-6.38-2.54-6.63c-2.37-.72-6.48-1.76-8.26-2.91-4-2.59-4.42-5.74-4.42-7 0-2.38 7.46 5.42 19 5.42h.46c7.89 0 12.78-2.53 13.65-3s2.39-.65 2.39 1.6c0 1.09-1.85 2.77-4.69 4.21-.73.37-.86 8.43-2.38 8.05s-1.73-6.39-2.65-6.14a24.2 24.2 0 01-6.51.79z"/>
  </g>
  <g fill="#fff">
    <path d="M87.93 88.54l2.57 11.38s.46 1.92 1.48 0 2.5-10.4 2.5-10.4a26.66 26.66 0 01-6.55-.98z"/>
    <path d="M100.84 89.13l2.81 10.21s1.22 2.34 1.78 0 1.77-11.89 1.77-11.89-1.51.82-6.36 1.68z"/>
  </g>
  <g opacity=".05">
    <path d="M91 91.51s1.19-.51 0 8.41c0 0 0 1.08 1 0 .8-1.92 2.48-10.4 2.48-10.4a19.21 19.21 0 01-4.36-.45z"/>
    <path d="M103.45 90.8s1.07-.72 1.5 8.27a.87.87 0 00.23.43c.16.14 1.69-11.63 1.69-11.63a48.16 48.16 0 01-4.72 1.68z"/>
  </g>
</svg>
