<?xml version="1.0" encoding="utf-8"?>
<!-- Generator: Adobe Illustrator 22.0.1, SVG Export Plug-In . SVG Version: 6.00 Build 0)  -->
<svg version="1.1" id="Layer_1" xmlns="http://www.w3.org/2000/svg" xmlns:xlink="http://www.w3.org/1999/xlink" x="0px" y="0px"
	 viewBox="0 0 160 160" style="enable-background:new 0 0 160 160;" xml:space="preserve">
<style type="text/css">
	.st0{fill:none;stroke:#000000;stroke-width:0.5;stroke-linecap:round;stroke-linejoin:round;}
	.st1{fill:#FFFFFF;}
	.st2{fill:url(#SVGID_1_);}
	.st3{clip-path:url(#SVGID_3_);}
	.st4{fill:url(#SVGID_4_);}
	.st5{clip-path:url(#SVGID_6_);}
	.st6{fill:url(#SVGID_7_);}
	.st7{clip-path:url(#SVGID_9_);}
	.st8{clip-path:url(#SVGID_11_);}
	.st9{clip-path:url(#SVGID_13_);}
	.st10{clip-path:url(#SVGID_15_);}
	.st11{opacity:5.000000e-02;clip-path:url(#SVGID_17_);}
	.st12{clip-path:url(#SVGID_19_);}
	.st13{opacity:0.1;clip-path:url(#SVGID_17_);fill:#FFFFFF;enable-background:new    ;}
</style>
<title>Artboard 42 copy 231</title>
<path class="st0" d="M117.2,66c0,0-35.8-11.5-73.2-2.5"/>
<path d="M101.5,63.4c0,0,0.5,19.6,7,20.6c4.5,1.1,6.5-1.7,7-4.6s0.4-11.4-1.8-14.3L101,62L101.5,63.4z"/>
<ellipse transform="matrix(0.9985 -5.495018e-02 5.495018e-02 0.9985 -3.8666 4.798)" class="st1" cx="85.3" cy="72.7" rx="7.7" ry="10.8"/>
<ellipse cx="85.4" cy="74.5" rx="4.6" ry="5.5"/>
<circle class="st1" cx="82.5" cy="71.5" r="2.5"/>
<path d="M79,62.4c3.6-2.6,11.5,1.6,17,2.6c0,0-10.9-7.2-12.8-8.2S79,62.4,79,62.4z"/>
<linearGradient id="SVGID_1_" gradientUnits="userSpaceOnUse" x1="95.8548" y1="957.67" x2="95.8548" y2="974.2863" gradientTransform="matrix(1 0 0 1 0 -871.67)">
	<stop  offset="0" style="stop-color:#A66707"/>
	<stop  offset="1" style="stop-color:#000000"/>
</linearGradient>
<path class="st2" d="M106.9,90.8c-2.7-3-6.6-4.8-10.6-4.8l0,0h-0.2h-0.2l0,0c-10.6,1.1-18.1,10.4-15.3,15.3
	c2.5,5.5,19.9-8.3,27.8,0.6c2.3,1.3,3.7-1,3.2-3.4C111.2,96.3,109.8,94,106.9,90.8z"/>
<g>
	<defs>
		<path id="SVGID_2_" d="M106.9,90.8c-2.7-3-6.6-4.8-10.6-4.8l0,0h-0.2h-0.2l0,0c-10.6,1.1-18.1,10.4-15.3,15.3
			c2.5,5.5,19.9-8.3,27.8,0.6c2.3,1.3,3.7-1,3.2-3.4C111.2,96.3,109.8,94,106.9,90.8z"/>
	</defs>
	<clipPath id="SVGID_3_">
		<use xlink:href="#SVGID_2_"  style="overflow:visible;"/>
	</clipPath>
	<g class="st3">
		
			<linearGradient id="SVGID_4_" gradientUnits="userSpaceOnUse" x1="15.985" y1="-343.15" x2="15.985" y2="1488.0699" gradientTransform="matrix(1 0 0 -1 0 162)">
			<stop  offset="0" style="stop-color:#A66707"/>
			<stop  offset="1" style="stop-color:#000000"/>
		</linearGradient>
		<rect x="-487.1" y="-1326.1" class="st4" width="1006.2" height="1831.2"/>
		<g>
			<defs>
				<rect id="SVGID_5_" x="-487.1" y="-1326.1" width="1006.2" height="1831.2"/>
			</defs>
			<clipPath id="SVGID_6_">
				<use xlink:href="#SVGID_5_"  style="overflow:visible;"/>
			</clipPath>
			<g class="st5">
				
					<linearGradient id="SVGID_7_" gradientUnits="userSpaceOnUse" x1="95.32" y1="46.41" x2="95.32" y2="82.43" gradientTransform="matrix(1 0 0 -1 0 162)">
					<stop  offset="0" style="stop-color:#A66707"/>
					<stop  offset="0.5" style="stop-color:#9D6209"/>
					<stop  offset="1" style="stop-color:#000000"/>
				</linearGradient>
				<rect x="76.6" y="79.6" class="st6" width="37.5" height="36"/>
			</g>
		</g>
		<path class="st1" d="M80.8,95.6c0,0-1.8,3.4-0.3,5.7c2.5,5.5,19.9-8.3,27.8,0.6c0.4-2.9,0.5-5.9,0.4-8.8
			C108.8,93,80.8,96.4,80.8,95.6z"/>
		<g>
			<defs>
				<path id="SVGID_8_" d="M80.8,95.6c0,0-1.8,3.4-0.3,5.7c2.5,5.5,19.9-8.3,27.8,0.6c0.4-2.9,0.5-5.9,0.4-8.8
					C108.8,93,80.8,96.4,80.8,95.6z"/>
			</defs>
			<clipPath id="SVGID_9_">
				<use xlink:href="#SVGID_8_"  style="overflow:visible;"/>
			</clipPath>
			<g class="st7">
				<rect x="-487.1" y="-1326.1" class="st1" width="1006.2" height="1831.2"/>
				<g>
					<defs>
						<rect id="SVGID_10_" x="-487.1" y="-1326.1" width="1006.2" height="1831.2"/>
					</defs>
					<clipPath id="SVGID_11_">
						<use xlink:href="#SVGID_10_"  style="overflow:visible;"/>
					</clipPath>
					<g class="st8">
						<rect x="76.6" y="79.6" class="st1" width="37.5" height="36"/>
					</g>
				</g>
				<path class="st1" d="M106.9,90.8c-2.7-3-6.6-4.8-10.6-4.8l0,0h-0.2h-0.2l0,0c-5.4,0.7-10.4,3.4-13.9,7.6c0,0,27.1-0.2,26.7-0.8
					S107.6,91.5,106.9,90.8z"/>
				<g>
					<defs>
						<path id="SVGID_12_" d="M106.9,90.8c-2.7-3-6.6-4.8-10.6-4.8l0,0h-0.2h-0.2l0,0c-5.4,0.7-10.4,3.4-13.9,7.6
							c0,0,27.1-0.2,26.7-0.8S107.6,91.5,106.9,90.8z"/>
					</defs>
					<clipPath id="SVGID_13_">
						<use xlink:href="#SVGID_12_"  style="overflow:visible;"/>
					</clipPath>
					<g class="st9">
						<rect x="-487.1" y="-1326.1" class="st1" width="1006.2" height="1831.2"/>
						<g>
							<defs>
								<rect id="SVGID_14_" x="-487.1" y="-1326.1" width="1006.2" height="1831.2"/>
							</defs>
							<clipPath id="SVGID_15_">
								<use xlink:href="#SVGID_14_"  style="overflow:visible;"/>
							</clipPath>
							<g class="st10">
								<rect x="76.6" y="79.6" class="st1" width="37.5" height="36"/>
							</g>
						</g>
						<g>
							<path d="M106.9,90.8c-1.9-2.8-7.4-4.4-7.4-4.4c0.5,1.6,0.5,5.6-0.1,6.9c0,0,9.4-0.3,9.3-0.5
								C108.2,92.2,107.6,91.5,106.9,90.8z"/>
							<g>
								<defs>
									<path id="SVGID_16_" d="M106.9,90.8c-1.9-2.8-7.4-4.4-7.4-4.4c0.5,1.6,0.5,5.6-0.1,6.9c0,0,9.4-0.3,9.3-0.5
										C108.2,92.2,107.6,91.5,106.9,90.8z"/>
								</defs>
								<clipPath id="SVGID_17_">
									<use xlink:href="#SVGID_16_"  style="overflow:visible;"/>
								</clipPath>
								<g class="st11">
									<rect x="-487.1" y="-1326.1" width="1006.2" height="1831.2"/>
									<g>
										<defs>
											<rect id="SVGID_18_" x="-487.1" y="-1326.1" width="1006.2" height="1831.2"/>
										</defs>
										<clipPath id="SVGID_19_">
											<use xlink:href="#SVGID_18_"  style="overflow:visible;"/>
										</clipPath>
										<g class="st12">
											<rect x="76.6" y="79.6" width="37.5" height="36"/>
										</g>
									</g>
								</g>
								<g class="st11">
									<path d="M99.4,94.3c0,0,0.4,3.4-0.5,4.6c1.9-0.1,3.8,0.1,5.7,0.5c1.4,0.4,2.7,1.1,3.8,2.1c0,0,1.2-6.4,0.4-8.4L99.4,94.3z"
										/>
								</g>
								<path class="st13" d="M105.2,63c0,0,0.1,15.4,3.4,18.7L111,84c0,0-5,1.5-7-5.2c-1.4-5.5-2.4-11.1-3-16.8L105.2,63z"/>
							</g>
						</g>
					</g>
				</g>
			</g>
		</g>
	</g>
</g>
</svg>
