<?xml version="1.0" encoding="utf-8"?>
<!-- Generator: Adobe Illustrator 22.0.1, SVG Export Plug-In . SVG Version: 6.00 Build 0)  -->
<svg version="1.1" id="Layer_1" xmlns="http://www.w3.org/2000/svg" xmlns:xlink="http://www.w3.org/1999/xlink" x="0px" y="0px"
	 viewBox="0 0 160 160" style="enable-background:new 0 0 160 160;" xml:space="preserve">
<style type="text/css">
	.st0{fill:#603813;}
	.st1{fill:#F15A24;}
	.st2{fill:#DD6901;}
	.st3{opacity:0.5;stroke:#000000;stroke-miterlimit:10;enable-background:new    ;}
	.st4{fill:none;stroke:#000000;stroke-miterlimit:10;}
</style>
<title>Artboard 42 copy 235</title>
<path class="st0" d="M87.2,94h21.2c0,0-0.6,11-10.8,11c-2.6,0.1-5.2-0.9-7.1-2.7C87.3,99,87.2,94,87.2,94z"/>
<path class="st1" d="M105.5,101.3c-1.9,2.3-4.9,3.6-7.9,3.5c-2.6,0.1-5.2-0.9-7.1-2.7C87.3,98.8,108.2,98.1,105.5,101.3z"/>
<path class="st2" d="M71.3,68h-1.8v4h1.8c1,0.3,1.8,1.2,1.8,2.2v5.8c0,0-0.3,8.1,11.8,7.9c0,0-8.6,0.2-10-8.3v-5.4
	c0-0.8-0.6-1.5-1.3-1.8L71.7,72L71.3,68z"/>
<path class="st3" d="M71.3,68v4l2,0.2c0.8,0.3,1.3,1,1.4,1.8v5.4c0,0,0.9,9,10.8,8.5S95.7,78,95.7,78s0-4.5,2.2-4.5s2.3,4.5,2.3,4.5
	s0.4,9.9,10.3,9.9s10.3-8.5,10.3-8.5v-5.8c0-0.7,0.6-1.3,1.3-1.3c0,0,0,0,0.1,0h1.8v-4l-21.8-0.1c-0.8,0.2-1.4,0.6-2,1.2l-2.1,2
	l-2.2-2.1c-0.7-0.7-1.7-1.1-2.7-1L71.3,68z"/>
<path class="st4" d="M71.3,68v4l2,0.2c0.8,0.3,1.3,1,1.4,1.8v5.4c0,0,0.9,9,10.8,8.5S95.7,78,95.7,78s0-4.5,2.2-4.5s2.3,4.5,2.3,4.5
	s0.4,9.9,10.3,9.9s10.3-8.5,10.3-8.5v-5.8c0-0.7,0.6-1.3,1.3-1.3c0,0,0,0,0.1,0h1.8v-4l-21.8-0.1c-0.8,0.2-1.4,0.6-2,1.2l-2.1,2
	l-2.2-2.1c-0.7-0.7-1.7-1.1-2.7-1L71.3,68z"/>
</svg>
