<?xml version="1.0" encoding="UTF-8" standalone="no"?>
<!-- Generator: Adobe Illustrator 22.0.1, SVG Export Plug-In . SVG Version: 6.00 Build 0)  -->

<svg
   xmlns:dc="http://purl.org/dc/elements/1.1/"
   xmlns:cc="http://creativecommons.org/ns#"
   xmlns:rdf="http://www.w3.org/1999/02/22-rdf-syntax-ns#"
   xmlns:svg="http://www.w3.org/2000/svg"
   xmlns="http://www.w3.org/2000/svg"
   xmlns:sodipodi="http://sodipodi.sourceforge.net/DTD/sodipodi-0.dtd"
   xmlns:inkscape="http://www.inkscape.org/namespaces/inkscape"
   version="1.1"
   id="Layer_1"
   x="0px"
   y="0px"
   viewBox="0 0 160 160"
   style="enable-background:new 0 0 160 160;"
   xml:space="preserve"
   sodipodi:docname="face_14.svg"
   inkscape:version="0.92.2 (5c3e80d, 2017-08-06)"><metadata
     id="metadata21"><rdf:RDF><cc:Work
         rdf:about=""><dc:format>image/svg+xml</dc:format><dc:type
           rdf:resource="http://purl.org/dc/dcmitype/StillImage" /></cc:Work></rdf:RDF></metadata><defs
     id="defs19" /><sodipodi:namedview
     pagecolor="#ffffff"
     bordercolor="#666666"
     borderopacity="1"
     objecttolerance="10"
     gridtolerance="10"
     guidetolerance="10"
     inkscape:pageopacity="0"
     inkscape:pageshadow="2"
     inkscape:window-width="1920"
     inkscape:window-height="976"
     id="namedview17"
     showgrid="false"
     inkscape:zoom="23.6"
     inkscape:cx="95.85008"
     inkscape:cy="67.992054"
     inkscape:window-x="0"
     inkscape:window-y="27"
     inkscape:window-maximized="1"
     inkscape:current-layer="Layer_1" /><style
     type="text/css"
     id="style2">
	.st0{fill:none;stroke:#000000;stroke-linecap:round;stroke-linejoin:round;}
</style><title
     id="title4">Artboard 42 copy 232</title><path
     d="M84,63c-2-1-5-2-9,3s-8,13-5,19s11,3,12-1s0-6,3-9S89,66,84,63z"
     id="path6" /><path
     d="M103.2,62.8c1.9-0.9,4.7-1.9,8.4,2.8s7.4,12.1,4.7,17.7S106,86,105.1,82.3s0-5.6-2.8-8.4S98.6,65.6,103.2,62.8z"
     id="path8" /><path
     class="st0"
     d="M95,99c2.2,0.2,2-11,2-11"
     id="path12" /><path
     class="st0"
     d="M83.5,94.5c0,0,10,11,24,0"
     id="path14" /><path
     d="M91,84c0,0,7-2,12,0c1.2,0.4,1,1.1,0,2c0,0-5,4-6,4s-7-4-7-4C89,85,89.5,84.3,91,84z"
     id="path10" /></svg>