<?xml version="1.0" encoding="UTF-8" standalone="no"?>
<!-- Generator: Adobe Illustrator 22.0.1, SVG Export Plug-In . SVG Version: 6.00 Build 0)  -->

<svg
   xmlns:dc="http://purl.org/dc/elements/1.1/"
   xmlns:cc="http://creativecommons.org/ns#"
   xmlns:rdf="http://www.w3.org/1999/02/22-rdf-syntax-ns#"
   xmlns:svg="http://www.w3.org/2000/svg"
   xmlns="http://www.w3.org/2000/svg"
   xmlns:sodipodi="http://sodipodi.sourceforge.net/DTD/sodipodi-0.dtd"
   xmlns:inkscape="http://www.inkscape.org/namespaces/inkscape"
   version="1.1"
   id="Layer_1"
   x="0px"
   y="0px"
   viewBox="0 0 160 160"
   style="enable-background:new 0 0 160 160;"
   xml:space="preserve"
   sodipodi:docname="face_20.svg"
   inkscape:version="0.92.2 (5c3e80d, 2017-08-06)"><metadata
     id="metadata21"><rdf:RDF><cc:Work
         rdf:about=""><dc:format>image/svg+xml</dc:format><dc:type
           rdf:resource="http://purl.org/dc/dcmitype/StillImage" /></cc:Work></rdf:RDF></metadata><defs
     id="defs19" /><sodipodi:namedview
     pagecolor="#ffffff"
     bordercolor="#666666"
     borderopacity="1"
     objecttolerance="10"
     gridtolerance="10"
     guidetolerance="10"
     inkscape:pageopacity="0"
     inkscape:pageshadow="2"
     inkscape:window-width="1920"
     inkscape:window-height="976"
     id="namedview17"
     showgrid="false"
     inkscape:zoom="11.8"
     inkscape:cx="68.348766"
     inkscape:cy="72.538123"
     inkscape:window-x="0"
     inkscape:window-y="27"
     inkscape:window-maximized="1"
     inkscape:current-layer="Layer_1" /><style
     type="text/css"
     id="style2">
	.st0{fill:#603813;}
	.st1{fill:#F15A24;}
	.st2{fill:#DD6901;}
	.st3{opacity:0.5;stroke:#000000;stroke-miterlimit:10;enable-background:new    ;}
	.st4{fill:none;stroke:#000000;stroke-miterlimit:10;}
</style><title
     id="title4">Artboard 42 copy 235</title><path
     class="st0"
     d="M87.2,94h21.2c0,0-0.6,11-10.8,11c-2.6,0.1-5.2-0.9-7.1-2.7C87.3,99,87.2,94,87.2,94z"
     id="path6" /><path
     class="st1"
     d="M105.5,101.3c-1.9,2.3-4.9,3.6-7.9,3.5c-2.6,0.1-5.2-0.9-7.1-2.7C87.3,98.8,108.2,98.1,105.5,101.3z"
     id="path8" /><path
     class="st2"
     d="M71.3,68h-1.8v4h1.8c1,0.3,1.8,1.2,1.8,2.2v5.8c0,0-0.3,8.1,11.8,7.9c0,0-8.6,0.2-10-8.3v-5.4  c0-0.8-0.6-1.5-1.3-1.8L71.7,72L71.3,68z"
     id="path10"
     style="fill:#010101;fill-opacity:1;opacity:0.5" /><path
     class="st3"
     d="M71.3,68v4l2,0.2c0.8,0.3,1.3,1,1.4,1.8v5.4c0,0,0.9,9,10.8,8.5S95.7,78,95.7,78s0-4.5,2.2-4.5s2.3,4.5,2.3,4.5  s0.4,9.9,10.3,9.9s10.3-8.5,10.3-8.5v-5.8c0-0.7,0.6-1.3,1.3-1.3c0,0,0,0,0.1,0h1.8v-4l-21.8-0.1c-0.8,0.2-1.4,0.6-2,1.2l-2.1,2  l-2.2-2.1c-0.7-0.7-1.7-1.1-2.7-1L71.3,68z"
     id="path12" /><path
     class="st4"
     d="M71.3,68v4l2,0.2c0.8,0.3,1.3,1,1.4,1.8v5.4c0,0,0.9,9,10.8,8.5S95.7,78,95.7,78s0-4.5,2.2-4.5s2.3,4.5,2.3,4.5  s0.4,9.9,10.3,9.9s10.3-8.5,10.3-8.5v-5.8c0-0.7,0.6-1.3,1.3-1.3c0,0,0,0,0.1,0h1.8v-4l-21.8-0.1c-0.8,0.2-1.4,0.6-2,1.2l-2.1,2  l-2.2-2.1c-0.7-0.7-1.7-1.1-2.7-1L71.3,68z"
     id="path14" /></svg>