<?xml version="1.0" encoding="utf-8"?>
<!-- Generator: Adobe Illustrator 22.0.1, SVG Export Plug-In . SVG Version: 6.00 Build 0)  -->
<svg version="1.1" id="Layer_1" xmlns="http://www.w3.org/2000/svg" xmlns:xlink="http://www.w3.org/1999/xlink" x="0px" y="0px"
	 viewBox="0 0 160 160" style="enable-background:new 0 0 160 160;" xml:space="preserve">
<style type="text/css">
	.st0{opacity:0.3;fill:#FCFCFC;enable-background:new    ;}
	.st1{opacity:0.3;enable-background:new    ;}
	.st2{fill:#211309;}
	.st3{fill:#42210B;}
</style>
<title>Artboard 42 copy 233</title>
<ellipse class="st0" cx="100.5" cy="86.5" rx="14.5" ry="11.7"/>
<path class="st1" d="M100.5,98.2c-8,0-14.5-5.2-14.5-11.7s6.5-11.7,14.5-11.7S115,80,115,86.5c0-7.3-7.4-13.3-16.5-13.3
	S82,79.2,82,86.5s7.4,13.3,16.5,13.3s16.5-6,16.5-13.3C115,93,108.5,98.2,100.5,98.2z"/>
<ellipse class="st2" cx="96" cy="86.5" rx="3" ry="5.5"/>
<path class="st3" d="M99,86.5c0,3-1.3,5.5-3,5.5c-0.5,0-1.1-0.2-1.4-0.6C98,91,98,82,94.3,82c0.4-0.6,1-0.9,1.7-1
	C97.7,81,99,83.5,99,86.5z"/>
<ellipse class="st2" cx="107" cy="86.5" rx="3" ry="5.5"/>
<path class="st3" d="M110,86.5c0,3-1.3,5.5-3,5.5c-0.5,0-1.1-0.2-1.4-0.6C109,91,109,82,105.3,82c0.4-0.6,1-0.9,1.7-1
	C108.7,81,110,83.5,110,86.5z"/>
<ellipse transform="matrix(0.9798 -0.2001 0.2001 0.9798 -11.5845 23.3658)" class="st3" cx="109.8" cy="69" rx="3.6" ry="5.1"/>
<ellipse transform="matrix(0.2001 -0.9798 0.9798 0.2001 2.9682 139.119)" class="st3" cx="86.7" cy="67.7" rx="5.7" ry="4"/>
</svg>
