<?xml version="1.0" encoding="utf-8"?>
<!-- Generator: Adobe Illustrator 22.0.1, SVG Export Plug-In . SVG Version: 6.00 Build 0)  -->
<svg version="1.1" id="Layer_1" xmlns="http://www.w3.org/2000/svg" xmlns:xlink="http://www.w3.org/1999/xlink" x="0px" y="0px"
	 viewBox="0 0 160 160" style="enable-background:new 0 0 160 160;" xml:space="preserve">
<style type="text/css">
	.st0{fill:#603813;}
	.st1{fill:#F15A24;}
	.st2{fill:#FC0D0A;}
	.st3{opacity:0.16;enable-background:new    ;}
</style>
<title>Artboard 42 copy 242</title>
<path class="st0" d="M85.2,94h21.2c0,0-0.6,11-10.8,11c-2.6,0.1-5.2-0.9-7.1-2.7C85.3,99,85.2,94,85.2,94z"/>
<path class="st1" d="M103.5,101.3c-1.9,2.3-4.9,3.6-7.9,3.5c-2.6,0.1-5.2-0.9-7.1-2.7C85.3,98.8,106.2,98.1,103.5,101.3z"/>
<path class="st2" d="M82.2,82.4c0,0-10-4.9-8.5-11.4s10.1-0.7,9.5-0.9s6.2-5.4,8.5,0.8C93.4,77,83.8,83.4,82.2,82.4z"/>
<path class="st3" d="M82.2,82.4c0,0-10-4.9-8.5-11.4s10-0.6,9.5-0.9C76,66.1,75.7,78.7,82.2,82.4z"/>
<path class="st2" d="M108.3,82.4c0,0-10-4.9-8.5-11.4s10.1-0.7,9.5-0.9s6.2-5.4,8.5,0.8C119.5,77,109.9,83.4,108.3,82.4z"/>
<path class="st3" d="M108.2,82.4c0,0-10-4.9-8.5-11.4s10-0.6,9.5-0.9C102,66.1,101.7,78.7,108.2,82.4z"/>
</svg>
