<?xml version="1.0" encoding="UTF-8" standalone="no"?>
<!-- Generator: Adobe Illustrator 22.0.1, SVG Export Plug-In . SVG Version: 6.00 Build 0)  -->

<svg
   xmlns:dc="http://purl.org/dc/elements/1.1/"
   xmlns:cc="http://creativecommons.org/ns#"
   xmlns:rdf="http://www.w3.org/1999/02/22-rdf-syntax-ns#"
   xmlns:svg="http://www.w3.org/2000/svg"
   xmlns="http://www.w3.org/2000/svg"
   xmlns:sodipodi="http://sodipodi.sourceforge.net/DTD/sodipodi-0.dtd"
   xmlns:inkscape="http://www.inkscape.org/namespaces/inkscape"
   version="1.1"
   id="Layer_1"
   x="0px"
   y="0px"
   viewBox="0 0 160 160"
   style="enable-background:new 0 0 160 160;"
   xml:space="preserve"
   sodipodi:docname="face_21.svg"
   inkscape:version="0.92.2 (5c3e80d, 2017-08-06)"><metadata
     id="metadata44"><rdf:RDF><cc:Work
         rdf:about=""><dc:format>image/svg+xml</dc:format><dc:type
           rdf:resource="http://purl.org/dc/dcmitype/StillImage" /></cc:Work></rdf:RDF></metadata><defs
     id="defs42" /><sodipodi:namedview
     pagecolor="#ffffff"
     bordercolor="#666666"
     borderopacity="1"
     objecttolerance="10"
     gridtolerance="10"
     guidetolerance="10"
     inkscape:pageopacity="0"
     inkscape:pageshadow="2"
     inkscape:window-width="1920"
     inkscape:window-height="976"
     id="namedview40"
     showgrid="false"
     inkscape:zoom="11.8"
     inkscape:cx="84.812"
     inkscape:cy="84.864743"
     inkscape:window-x="0"
     inkscape:window-y="27"
     inkscape:window-maximized="1"
     inkscape:current-layer="Layer_1" /><style
     type="text/css"
     id="style2">
	.st0{fill:#F15A24;}
	.st1{fill:#E84715;}
	.st2{fill:url(#SVGID_1_);}
	.st3{fill:none;stroke:#42210B;stroke-width:2;stroke-linecap:round;stroke-linejoin:round;}
	.st4{fill:url(#SVGID_2_);}
	.st5{fill:url(#SVGID_3_);}
</style><title
     id="title4">Artboard 42 copy 249</title><path
     class="st0"
     d="M79,88.5c-0.3-0.1-6.4,4.2-8.3,6.2s0.4,7.8,8.3,4c3.2-1.2,7.1-4.7,7.1-4.7S81.3,91.6,79,88.5z"
     id="path6" /><path
     class="st1"
     d="M81.1,92.7c-2,1.8-4.2,3.5-6.6,4.8c-2.9,1.4-2.1,2.2,0,2.1s5.5-0.8,9.7-4.2l1.9-1.4l-4-2.2L81.1,92.7z"
     id="path8" /><linearGradient
     id="SVGID_1_"
     gradientUnits="userSpaceOnUse"
     x1="-8.9332"
     y1="879.3187"
     x2="-9.0832"
     y2="888.3987"
     gradientTransform="matrix(0.6644 0.7473 0.7473 -0.6644 -576.0177 688.202)"><stop
       offset="0"
       style="stop-color:#FFD22D;stop-opacity:0"
       id="stop10" /><stop
       offset="0.81"
       style="stop-color:#A66707;stop-opacity:0.7"
       id="stop12" /><stop
       offset="1"
       style="stop-color:#A66707"
       id="stop14" /></linearGradient><path
     class="st3"
     d="M76.1,83.3c-0.5-2.6,3.3,13.4,18.4,12.7c16-0.8,16.5-13.6,16.5-13.6"
     id="path19" /><linearGradient
     id="SVGID_2_"
     gradientUnits="userSpaceOnUse"
     x1="83"
     y1="87.19"
     x2="83"
     y2="96.99"
     gradientTransform="matrix(1 0 0 -1 0 162)"><stop
       offset="0"
       style="stop-color:#A66707"
       id="stop21" /><stop
       offset="0.5"
       style="stop-color:#9D6209"
       id="stop23" /><stop
       offset="1"
       style="stop-color:#000000"
       id="stop25" /></linearGradient><path
     class="st4"
     d="M77,75c0,0,0-12,6-12s6,11.6,6,11.6S84,63,77,75z"
     id="path28"
     style="fill:#010101;fill-opacity:1;opacity:0.6" /><linearGradient
     id="SVGID_3_"
     gradientUnits="userSpaceOnUse"
     x1="106"
     y1="89.34"
     x2="106"
     y2="99.14"
     gradientTransform="matrix(1 0 0 -1 0 162)"><stop
       offset="0"
       style="stop-color:#A66707"
       id="stop30" /><stop
       offset="0.5"
       style="stop-color:#9D6209"
       id="stop32" /><stop
       offset="1"
       style="stop-color:#000000"
       id="stop34" /></linearGradient><path
     class="st5"
     d="M100,75c0,0,0-12,6-12s6,11.6,6,11.6S107,63,100,75z"
     id="path37"
     style="fill:#010101;fill-opacity:1;opacity:0.6" /></svg>