<svg xmlns="http://www.w3.org/2000/svg" viewBox="0 0 160 160">
  <g fill="#010101" opacity=".6">
    <path d="M84 63c-2-1-5-2-9 3s-8 13-5 19 11 3 12-1 0-6 3-9 4-9-1-12z"/>
    <path d="M103.2 62.8c1.9-.9 4.7-1.9 8.4 2.8s7.4 12.1 4.7 17.7-10.3 2.7-11.2-1 0-5.6-2.8-8.4-3.7-8.3.9-11.1z"/>
  </g>
  <path d="M98 83.11c-3.7-.06-7 .89-7 .89-1.5.3-2 1-1 2 0 0 4.74 3.16 6.5 3.86a58.45 58.45 0 01-.17 3.68c-.11 1.37-.3 2.73-.57 3.69-.14.48-.3.78-.4 1.01-.23.49-.38.61-.38.61-.38.04-.47.03-.47.03-1.5-.06-2.88-.33-4.1-.73a16.37 16.37 0 01-6.54-3.99.5.5 0 10-.74.68s2.58 2.84 6.97 4.26c4.38 1.42 10.6 1.38 17.7-4.2.58-.41-.08-1.26-.6-.8-4.13 3.25-7.85 4.52-11.06 4.75.25-.36.43-.82.58-1.35.3-1.08.49-2.48.6-3.88.11-1.37.16-2.73.18-3.77C99.1 89.13 103 86 103 86c1-.9 1.2-1.6 0-2a14.21 14.21 0 00-5-.89z"/>
</svg>
