<svg xmlns="http://www.w3.org/2000/svg" viewBox="0 0 160 160">
  <g fill="none" stroke="#303030" stroke-width="2" stroke-linecap="round" stroke-linejoin="round">
    <path d="M77.2 70.9c1-5.6 9.1-5.6 9.8-.2"/>
    <path d="M103.5 70.7c.9-5.2 8.5-5.2 9.1-.2"/>
  </g>
  <path d="M85.2 91h21.2s-.6 11-10.8 11c-2.6.1-5.2-.9-7.1-2.7-3.2-3.3-3.3-8.3-3.3-8.3z" fill="#603813"/>
  <path d="M103.5 98.3a10 10 0 01-7.9 3.5c-2.6.1-5.2-.9-7.1-2.7-3.2-3.3 17.7-4 15-.8z" fill="#f15a24"/>
  <path d="M98 84.9c1.1-6.6-3.3-12.1-13.2-9.9-7.8 2-4.4 9.9-8.8 13.2s-11 3.3-11 3.3 27.5 9.9 33-6.6z" fill="#4d3118"/>
  <path d="M97.2 84.7c-1-6.4 3-11.8 12-9.7 6.8 1 4 9.7 8 12.9s10 3.2 10 3.2-25 9.7-30-6.4z" fill="#4d3118"/>
  <g opacity=".15">
    <path d="M98 84.7c1-6.4-3-11.8-12-9.7 13.2 4 2.2 21-18 16.1 0 0 25 9.7 30-6.4z"/>
    <path d="M102.8 75.1S108 75 109 78s0 6 1 8 7.8 7.8 16.4 5.4c0 0-9.3 1.2-11.3-7.1s-3.5-10.2-12.3-9.2z"/>
  </g>
</svg>
