<?xml version="1.0" encoding="UTF-8" standalone="no"?>
<!-- Generator: Adobe Illustrator 22.0.1, SVG Export Plug-In . SVG Version: 6.00 Build 0)  -->

<svg
   xmlns:dc="http://purl.org/dc/elements/1.1/"
   xmlns:cc="http://creativecommons.org/ns#"
   xmlns:rdf="http://www.w3.org/1999/02/22-rdf-syntax-ns#"
   xmlns:svg="http://www.w3.org/2000/svg"
   xmlns="http://www.w3.org/2000/svg"
   xmlns:sodipodi="http://sodipodi.sourceforge.net/DTD/sodipodi-0.dtd"
   xmlns:inkscape="http://www.inkscape.org/namespaces/inkscape"
   version="1.1"
   id="Layer_1"
   x="0px"
   y="0px"
   viewBox="0 0 160 160"
   style="enable-background:new 0 0 160 160;"
   xml:space="preserve"
   sodipodi:docname="face_19.svg"
   inkscape:version="0.92.2 (5c3e80d, 2017-08-06)"><metadata
     id="metadata88"><rdf:RDF><cc:Work
         rdf:about=""><dc:format>image/svg+xml</dc:format><dc:type
           rdf:resource="http://purl.org/dc/dcmitype/StillImage" /></cc:Work></rdf:RDF></metadata><defs
     id="defs86" /><sodipodi:namedview
     pagecolor="#ffffff"
     bordercolor="#666666"
     borderopacity="1"
     objecttolerance="10"
     gridtolerance="10"
     guidetolerance="10"
     inkscape:pageopacity="0"
     inkscape:pageshadow="2"
     inkscape:window-width="1920"
     inkscape:window-height="976"
     id="namedview84"
     showgrid="false"
     inkscape:zoom="8.34386"
     inkscape:cx="73.828033"
     inkscape:cy="75.823496"
     inkscape:window-x="0"
     inkscape:window-y="27"
     inkscape:window-maximized="1"
     inkscape:current-layer="Layer_1" /><style
     type="text/css"
     id="style2">
	.st0{fill:url(#SVGID_1_);}
	.st1{fill:#F15A24;}
	.st2{opacity:0.2;}
	.st3{fill:#F3FF00;}
	.st4{opacity:0.1;}
	.st5{opacity:5.000000e-02;}
	.st6{opacity:0.2;fill:url(#SVGID_2_);enable-background:new    ;}
	.st7{opacity:0.2;fill:url(#SVGID_3_);enable-background:new    ;}
	.st8{opacity:0.2;fill:url(#SVGID_4_);enable-background:new    ;}
	.st9{opacity:0.2;fill:url(#SVGID_5_);enable-background:new    ;}
</style><title
     id="title4">Artboard 42 copy 234</title><linearGradient
     id="SVGID_1_"
     gradientUnits="userSpaceOnUse"
     x1="93.8328"
     y1="57.49"
     x2="93.4428"
     y2="82.7"
     gradientTransform="matrix(1 0 0 -1 0 162)"><stop
       offset="0"
       style="stop-color:#A66707"
       id="stop6" /><stop
       offset="1"
       style="stop-color:#000000"
       id="stop8" /></linearGradient><path
     class="st0"
     d="M74.4,83c13.5,2,26.4,2.5,38.2,0c0,0-1.1,23-19.4,23c-4.9,0.2-9.6-2-12.8-5.7C74.7,93.5,74.4,83,74.4,83z"
     id="path11"
     style="fill:#010101;fill-opacity:1;opacity:0.6" /><path
     class="st1"
     d="M107.4,98.4c-3.2,4.7-8.5,7.4-14.2,7.3c-4.9,0.2-9.6-2-12.8-5.7C74.7,93.1,112.2,91.6,107.4,98.4z"
     id="path13" /><g
     id="surface1"
     class="st2"><path
       d="M93.4,67.8c-0.2-0.4-0.6-0.6-1-0.6l-7.9,0.2l-4.8-6.9c-0.4-0.5-1-0.6-1.5-0.2c-0.2,0.1-0.3,0.3-0.4,0.5l-2.1,8.1l-7.5,2.5   c-0.4,0.1-0.7,0.5-0.7,0.9c-0.1,0.4,0.1,0.8,0.5,1.1l6.6,4.8l0.1,8.4c0,0.4,0.2,0.8,0.6,1c0.4,0.2,0.8,0.1,1.1-0.1l6.2-5.1l7.6,2.7   c0.2,0,0.3,0,0.5,0c0.2,0,0.4-0.2,0.6-0.3c0.3-0.3,0.4-0.8,0.2-1.2l-2.8-8C88.8,75.7,93.6,68.2,93.4,67.8z"
       id="path15" /></g><g
     id="surface1-2"><path
       class="st3"
       d="M92.3,68.6c-0.2-0.3-0.5-0.5-0.9-0.5l-7.1,0.2l-4.2-5.9c-0.4-0.4-1-0.5-1.4-0.1c-0.1,0.1-0.2,0.3-0.3,0.4l-2,7   L69.6,72c-0.3,0.1-0.6,0.4-0.7,0.8c0,0.4,0.1,0.7,0.4,0.9l5.9,4.1V85c0,0.4,0.2,0.7,0.6,0.9c0.3,0.1,0.7,0.1,1-0.1l5.7-4.4l6.8,2.2   c0.4,0.1,0.7,0,1-0.2c0.2-0.3,0.3-0.7,0.2-1l-2.4-6.9C88.1,75.5,92.5,68.9,92.3,68.6z"
       id="path18" /></g><g
     id="surface1-3"
     class="st4"><path
       d="M84,68.3l-4-5.9c-0.3-0.4-0.9-0.5-1.3-0.2c-0.2,0.1-0.3,0.3-0.3,0.5l3.7,6.3L84,68.3z"
       id="path21" /></g><g
     id="surface1-4"
     class="st5"><path
       d="M81.6,79.2l-5.2,4.9c-0.3,0.4-0.3,0.9,0,1.3c0.1,0.1,0.3,0.2,0.5,0.2l5.6-4.7L81.6,79.2z"
       id="path24" /></g><g
     class="st4"
     id="g29"><path
       d="M90.7,68.8l-4.4,5.8l0.1,0.2l-0.1,1.1l2.4,6.7c0.2,0.5,0.7,0.7,1.2,0.5c0.2-0.1,0.3-0.2,0.4-0.4l-2-7.1h-0.4l3.7-5.6   c0.2-0.4,0.1-1-0.4-1.2C91,68.8,90.8,68.8,90.7,68.8z"
       id="path27" /></g><linearGradient
     id="SVGID_2_"
     gradientUnits="userSpaceOnUse"
     x1="69"
     y1="95"
     x2="79"
     y2="95"
     gradientTransform="matrix(1 0 0 -1 0 162)"><stop
       offset="0"
       style="stop-color:#FFD22D;stop-opacity:0"
       id="stop31" /><stop
       offset="0.81"
       style="stop-color:#FFFCEF;stop-opacity:0.7"
       id="stop33" /><stop
       offset="1"
       style="stop-color:#FFFFFF;stop-opacity:0.8"
       id="stop35" /></linearGradient><polygon
     class="st6"
     points="79,62 77.8,70.8 69,72 76.5,69.5 "
     id="polygon38" /><linearGradient
     id="SVGID_3_"
     gradientUnits="userSpaceOnUse"
     x1="528.0304"
     y1="4356.5981"
     x2="538.0247"
     y2="4356.5981"
     gradientTransform="matrix(0.3221 -0.9467 -0.9467 -0.3221 4024.791 1986.6932)"><stop
       offset="0"
       style="stop-color:#FFD22D;stop-opacity:0"
       id="stop40" /><stop
       offset="0.81"
       style="stop-color:#FFFCEF;stop-opacity:0.7"
       id="stop42" /><stop
       offset="1"
       style="stop-color:#FFFFFF;stop-opacity:0.8"
       id="stop44" /></linearGradient><polygon
     class="st7"
     points="68.9,72.7 76.8,76.7 75.1,85.3 75.2,77.4 "
     id="polygon47" /><g
     id="surface1-5"
     class="st2"><path
       d="M121.5,71.9c-0.1-0.4-0.4-0.7-0.8-0.8l-7.6-1.9l-2.7-7.4c-0.2-0.5-0.9-0.8-1.4-0.5c-0.2,0.1-0.3,0.2-0.4,0.4l-4.2,6.7   l-7.8,0.4c-0.4,0-0.8,0.3-0.9,0.6c-0.2,0.4-0.1,0.8,0.2,1.1l5,6.1l-2.1,7.7c-0.1,0.4,0,0.8,0.3,1.1c0.3,0.3,0.7,0.4,1.1,0.2l7.3-3   l6.5,4.4c0.1,0.1,0.3,0.2,0.5,0.2c0.2,0,0.4,0,0.6-0.1c0.3-0.2,0.5-0.6,0.5-1l-0.5-7.9C115,77.9,121.6,72.3,121.5,71.9z"
       id="path49" /></g><g
     id="surface1-6"><path
       class="st3"
       d="M118.9,72.4c-0.1-0.3-0.3-0.6-0.6-0.7l-6.2-1.6l-2.2-6.1c-0.2-0.5-0.7-0.7-1.2-0.5c-0.1,0.1-0.3,0.2-0.4,0.3   l-3.4,5.5l-6.4,0.3c-0.5,0-0.9,0.4-0.8,0.9c0,0.2,0.1,0.4,0.2,0.5l4.1,5l-1.7,6.3c-0.1,0.3,0,0.7,0.3,0.9c0.2,0.2,0.6,0.3,0.9,0.2   l6-2.4l5.3,3.6c0.1,0.1,0.3,0.1,0.4,0.1c0.2,0,0.4,0,0.5-0.1c0.3-0.2,0.5-0.5,0.4-0.8l-0.4-6.5C113.6,77.3,119,72.7,118.9,72.4z"
       id="path52" /></g><g
     id="surface1-7"
     class="st4"><path
       d="M111.8,70.1l-2.1-6.1c-0.2-0.4-0.6-0.6-1-0.5c-0.2,0.1-0.3,0.2-0.4,0.3l1.7,6.4L111.8,70.1z"
       id="path55" /></g><g
     id="surface1-8"
     class="st5"><path
       d="M107,78.9l-5.7,3c-0.4,0.2-0.5,0.7-0.3,1.1c0.1,0.2,0.2,0.3,0.4,0.3l6-2.7L107,78.9z"
       id="path58" /></g><g
     class="st4"
     id="g63"><path
       d="M117.4,72.1l-5.3,4v0.2l-0.4,0.9l0.4,6.4c0,0.4,0.4,0.8,0.9,0.7c0.2,0,0.3-0.1,0.5-0.2v-6.6l-0.3-0.1l4.6-4   c0.3-0.3,0.3-0.8,0-1.1C117.7,72.2,117.6,72.2,117.4,72.1z"
       id="path61" /></g><linearGradient
     id="SVGID_4_"
     gradientUnits="userSpaceOnUse"
     x1="708.2716"
     y1="-706.2899"
     x2="717.2766"
     y2="-706.2899"
     gradientTransform="matrix(0.9625 0.2711 0.2711 -0.9625 -391.1331 -806.5452)"><stop
       offset="0"
       style="stop-color:#FFD22D;stop-opacity:0"
       id="stop65" /><stop
       offset="0.81"
       style="stop-color:#FFFCEF;stop-opacity:0.7"
       id="stop67" /><stop
       offset="1"
       style="stop-color:#FFFFFF;stop-opacity:0.8"
       id="stop69" /></linearGradient><polygon
     class="st8"
     points="109,63.4 105.8,70.7 97.9,69.6 105,69.3 "
     id="polygon72" /><linearGradient
     id="SVGID_5_"
     gradientUnits="userSpaceOnUse"
     x1="-21.4921"
     y1="3499.0261"
     x2="-12.4921"
     y2="3499.0261"
     gradientTransform="matrix(0.57 -0.82 -0.82 -0.57 2986.9399 2043.5599)"><stop
       offset="0"
       style="stop-color:#FFD22D;stop-opacity:0"
       id="stop74" /><stop
       offset="0.81"
       style="stop-color:#FFFCEF;stop-opacity:0.7"
       id="stop76" /><stop
       offset="1"
       style="stop-color:#FFFFFF;stop-opacity:0.8"
       id="stop78" /></linearGradient><polygon
     class="st9"
     points="97.6,70.2 103.4,75.6 99.9,82.7 101.9,75.8 "
     id="polygon81" /></svg>