<?xml version="1.0" encoding="utf-8"?>
<!-- Generator: Adobe Illustrator 22.0.1, SVG Export Plug-In . SVG Version: 6.00 Build 0)  -->
<svg version="1.1" id="Layer_1" xmlns="http://www.w3.org/2000/svg" xmlns:xlink="http://www.w3.org/1999/xlink" x="0px" y="0px"
	 viewBox="0 0 160 160" style="enable-background:new 0 0 160 160;" xml:space="preserve">
<style type="text/css">
	.st0{fill:#3A3A3A;}
	.st1{opacity:0.2;}
	.st2{fill:none;stroke:#000000;stroke-linecap:round;stroke-linejoin:round;}
	.st3{fill:url(#SVGID_1_);}
	.st4{fill:url(#SVGID_2_);}
	.st5{opacity:0.3;fill:#FFFFFF;enable-background:new    ;}
	.st6{fill:none;stroke:#000000;stroke-width:0.5;stroke-linecap:round;stroke-linejoin:round;}
</style>
<title>Artboard 42 copy 225</title>
<path class="st0" d="M94,85c0,0,4.8-2,8.2,0c0.8,0.4,0.7,1.1,0,2c0,0-3.4,4-4.1,4s-4.8-4-4.8-4C92.7,86,93,85.3,94,85z"/>
<g class="st1">
	<path d="M99.3,84.1c1,0.2,2,0.4,3,0.9c0.8,0.4,0.7,1.1,0,2c-1.2,1.5-2.6,2.9-4.1,4C100.1,87.8,100.8,84.7,99.3,84.1z"/>
</g>
<path class="st2" d="M96,100c1.6,0.2,2-5.8,2-9"/>
<path class="st2" d="M88,95.5c0,0,7.5,11,18,0"/>
<linearGradient id="SVGID_1_" gradientUnits="userSpaceOnUse" x1="85" y1="711.81" x2="85" y2="702.01" gradientTransform="matrix(1 0 0 1 0 -630)">
	<stop  offset="0" style="stop-color:#A66707"/>
	<stop  offset="0.5" style="stop-color:#9D6209"/>
	<stop  offset="1" style="stop-color:#000000"/>
</linearGradient>
<path class="st3" d="M79,82c0,0,0-12,6-12s6,11.6,6,11.6S86,70,79,82z"/>
<linearGradient id="SVGID_2_" gradientUnits="userSpaceOnUse" x1="108" y1="709.66" x2="108" y2="699.86" gradientTransform="matrix(1 0 0 1 0 -630)">
	<stop  offset="0" style="stop-color:#A66707"/>
	<stop  offset="0.5" style="stop-color:#9D6209"/>
	<stop  offset="1" style="stop-color:#000000"/>
</linearGradient>
<path class="st4" d="M102,82c0,0,0-12,6-12s6,11.6,6,11.6S109,70,102,82z"/>
<path class="st5" d="M96,86c0,0,4-1,6,0H96z"/>
<path class="st6" d="M93,90c-9.9-3.8-20.4-6.2-31-7"/>
<path class="st6" d="M92.6,91.3c-12-2.8-27.7-1.2-27.7-1.2"/>
<path class="st6" d="M92.5,93.2c-12.3-1-27.6,5-27.6,5"/>
<path class="st6" d="M101,90c8.5-3.8,17.7-6.2,27-7"/>
<path class="st6" d="M101.3,91.3c10.5-2.8,24.1-1.2,24.1-1.2"/>
<path class="st6" d="M101.4,93.2c10.7-1,24,5,24,5"/>
</svg>
