<?xml version="1.0" encoding="UTF-8" standalone="no"?>
<!-- Generator: Adobe Illustrator 22.0.1, SVG Export Plug-In . SVG Version: 6.00 Build 0)  -->

<svg
   xmlns:dc="http://purl.org/dc/elements/1.1/"
   xmlns:cc="http://creativecommons.org/ns#"
   xmlns:rdf="http://www.w3.org/1999/02/22-rdf-syntax-ns#"
   xmlns:svg="http://www.w3.org/2000/svg"
   xmlns="http://www.w3.org/2000/svg"
   xmlns:xlink="http://www.w3.org/1999/xlink"
   xmlns:sodipodi="http://sodipodi.sourceforge.net/DTD/sodipodi-0.dtd"
   xmlns:inkscape="http://www.inkscape.org/namespaces/inkscape"
   version="1.1"
   id="Layer_1"
   x="0px"
   y="0px"
   viewBox="0 0 160 160"
   style="enable-background:new 0 0 160 160;"
   xml:space="preserve"
   sodipodi:docname="face_17.svg"
   inkscape:version="0.92.2 (5c3e80d, 2017-08-06)"><metadata
     id="metadata152"><rdf:RDF><cc:Work
         rdf:about=""><dc:format>image/svg+xml</dc:format><dc:type
           rdf:resource="http://purl.org/dc/dcmitype/StillImage" /></cc:Work></rdf:RDF></metadata><defs
     id="defs150"><defs
       id="defs26"><path
         d="M106.9,90.8c-2.7-3-6.6-4.8-10.6-4.8l0,0h-0.2h-0.2l0,0c-10.6,1.1-18.1,10.4-15.3,15.3    c2.5,5.5,19.9-8.3,27.8,0.6c2.3,1.3,3.7-1,3.2-3.4C111.2,96.3,109.8,94,106.9,90.8z"
         id="SVGID_2_" /></defs><clipPath
       id="SVGID_3_"><use
         id="use28"
         style="overflow:visible;"
         xlink:href="#SVGID_2_" /></clipPath><linearGradient
       id="SVGID_4_"
       gradientUnits="userSpaceOnUse"
       x1="15.985"
       y1="-343.14999"
       x2="15.985"
       y2="1488.0699"
       gradientTransform="matrix(1,0,0,-1,0,162)"><stop
         offset="0"
         style="stop-color:#A66707"
         id="stop31" /><stop
         offset="1"
         style="stop-color:#000000"
         id="stop33" /></linearGradient></defs><sodipodi:namedview
     pagecolor="#ffffff"
     bordercolor="#666666"
     borderopacity="1"
     objecttolerance="10"
     gridtolerance="10"
     guidetolerance="10"
     inkscape:pageopacity="0"
     inkscape:pageshadow="2"
     inkscape:window-width="1920"
     inkscape:window-height="976"
     id="namedview148"
     showgrid="false"
     inkscape:zoom="8.34386"
     inkscape:cx="96.637735"
     inkscape:cy="74.599159"
     inkscape:window-x="0"
     inkscape:window-y="27"
     inkscape:window-maximized="1"
     inkscape:current-layer="Layer_1" /><style
     type="text/css"
     id="style2">
	.st0{fill:none;stroke:#000000;stroke-width:0.5;stroke-linecap:round;stroke-linejoin:round;}
	.st1{fill:#FFFFFF;}
	.st2{fill:url(#SVGID_1_);}
	.st3{clip-path:url(#SVGID_3_);}
	.st4{fill:url(#SVGID_4_);}
	.st5{clip-path:url(#SVGID_6_);}
	.st6{fill:url(#SVGID_7_);}
	.st7{clip-path:url(#SVGID_9_);}
	.st8{clip-path:url(#SVGID_11_);}
	.st9{clip-path:url(#SVGID_13_);}
	.st10{clip-path:url(#SVGID_15_);}
	.st11{opacity:5.000000e-02;clip-path:url(#SVGID_17_);}
	.st12{clip-path:url(#SVGID_19_);}
	.st13{opacity:0.1;clip-path:url(#SVGID_17_);fill:#FFFFFF;enable-background:new    ;}
</style><title
     id="title4">Artboard 42 copy 231</title><path
     class="st0"
     d="M117.2,66c0,0-35.8-11.5-73.2-2.5"
     id="path6" /><path
     d="M101.5,63.4c0,0,0.5,19.6,7,20.6c4.5,1.1,6.5-1.7,7-4.6s0.4-11.4-1.8-14.3L101,62L101.5,63.4z"
     id="path8" /><ellipse
     transform="matrix(0.9985 -5.495018e-02 5.495018e-02 0.9985 -3.8666 4.798)"
     class="st1"
     cx="85.3"
     cy="72.7"
     rx="7.7"
     ry="10.8"
     id="ellipse10" /><ellipse
     cx="85.4"
     cy="74.5"
     rx="4.6"
     ry="5.5"
     id="ellipse12" /><circle
     class="st1"
     cx="82.5"
     cy="71.5"
     r="2.5"
     id="circle14" /><path
     d="M79,62.4c3.6-2.6,11.5,1.6,17,2.6c0,0-10.9-7.2-12.8-8.2S79,62.4,79,62.4z"
     id="path16" /><linearGradient
     id="SVGID_1_"
     gradientUnits="userSpaceOnUse"
     x1="95.8548"
     y1="957.67"
     x2="95.8548"
     y2="974.2863"
     gradientTransform="matrix(1 0 0 1 0 -871.67)"><stop
       offset="0"
       style="stop-color:#A66707"
       id="stop18" /><stop
       offset="1"
       style="stop-color:#000000"
       id="stop20" /></linearGradient><path
     class="st2"
     d="M106.9,90.8c-2.7-3-6.6-4.8-10.6-4.8l0,0h-0.2h-0.2l0,0c-10.6,1.1-18.1,10.4-15.3,15.3  c2.5,5.5,19.9-8.3,27.8,0.6c2.3,1.3,3.7-1,3.2-3.4C111.2,96.3,109.8,94,106.9,90.8z"
     id="path23"
     style="fill:#010101;fill-opacity:1;opacity:0.6" /><path
     class="st1"
     d="m 80.8,95.6 c 0,0 -1.8,3.4 -0.3,5.7 2.5,5.5 19.9,-8.3 27.8,0.6 0.4,-2.9 0.5,-5.9 0.4,-8.8 0.1,-0.1 -27.9,3.3 -27.9,2.5 z"
     id="path57"
     inkscape:connector-curvature="0"
     style="fill:#ffffff" /><g
     id="g141"><defs
       id="defs60"><path
         id="SVGID_8_"
         d="m 80.8,95.6 c 0,0 -1.8,3.4 -0.3,5.7 2.5,5.5 19.9,-8.3 27.8,0.6 0.4,-2.9 0.5,-5.9 0.4,-8.8 0.1,-0.1 -27.9,3.3 -27.9,2.5 z"
         inkscape:connector-curvature="0" /></defs><clipPath
       id="SVGID_9_"><use
         xlink:href="#SVGID_8_"
         style="overflow:visible"
         id="use62"
         x="0"
         y="0"
         width="100%"
         height="100%" /></clipPath><g
       class="st7"
       clip-path="url(#SVGID_9_)"
       id="g139"><rect
         x="-487.10001"
         y="-1326.1"
         class="st1"
         width="1006.2"
         height="1831.2"
         id="rect65"
         style="fill:#ffffff" /><g
         id="g77"><defs
           id="defs68"><rect
             id="SVGID_10_"
             x="-487.10001"
             y="-1326.1"
             width="1006.2"
             height="1831.2" /></defs><clipPath
           id="SVGID_11_"><use
             xlink:href="#SVGID_10_"
             style="overflow:visible"
             id="use70"
             x="0"
             y="0"
             width="100%"
             height="100%" /></clipPath><g
           class="st8"
           clip-path="url(#SVGID_11_)"
           id="g75"><rect
             x="76.599998"
             y="79.599998"
             class="st1"
             width="37.5"
             height="36"
             id="rect73"
             style="fill:#ffffff" /></g></g><path
         class="st1"
         d="M 106.9,90.8 C 104.2,87.8 100.3,86 96.3,86 v 0 h -0.2 -0.2 v 0 c -5.4,0.7 -10.4,3.4 -13.9,7.6 0,0 27.1,-0.2 26.7,-0.8 -0.4,-0.6 -1.1,-1.3 -1.8,-2 z"
         id="path79"
         inkscape:connector-curvature="0"
         style="fill:#ffffff" /><g
         id="g137"><defs
           id="defs82"><path
             id="SVGID_12_"
             d="M 106.9,90.8 C 104.2,87.8 100.3,86 96.3,86 v 0 h -0.2 -0.2 v 0 c -5.4,0.7 -10.4,3.4 -13.9,7.6 0,0 27.1,-0.2 26.7,-0.8 -0.4,-0.6 -1.1,-1.3 -1.8,-2 z"
             inkscape:connector-curvature="0" /></defs><clipPath
           id="SVGID_13_"><use
             xlink:href="#SVGID_12_"
             style="overflow:visible"
             id="use84"
             x="0"
             y="0"
             width="100%"
             height="100%" /></clipPath><g
           class="st9"
           clip-path="url(#SVGID_13_)"
           id="g135"><rect
             x="-487.10001"
             y="-1326.1"
             class="st1"
             width="1006.2"
             height="1831.2"
             id="rect87"
             style="fill:#ffffff" /><g
             id="g99"><defs
               id="defs90"><rect
                 id="SVGID_14_"
                 x="-487.10001"
                 y="-1326.1"
                 width="1006.2"
                 height="1831.2" /></defs><clipPath
               id="SVGID_15_"><use
                 xlink:href="#SVGID_14_"
                 style="overflow:visible"
                 id="use92"
                 x="0"
                 y="0"
                 width="100%"
                 height="100%" /></clipPath><g
               class="st10"
               clip-path="url(#SVGID_15_)"
               id="g97"><rect
                 x="76.599998"
                 y="79.599998"
                 class="st1"
                 width="37.5"
                 height="36"
                 id="rect95"
                 style="fill:#ffffff" /></g></g><g
             id="g133"><path
               d="M 106.9,90.8 C 105,88 99.5,86.4 99.5,86.4 100,88 100,92 99.4,93.3 c 0,0 9.4,-0.3 9.3,-0.5 -0.5,-0.6 -1.1,-1.3 -1.8,-2 z"
               id="path101"
               inkscape:connector-curvature="0" /><g
               id="g131"><defs
                 id="defs104"><path
                   id="SVGID_16_"
                   d="M 106.9,90.8 C 105,88 99.5,86.4 99.5,86.4 100,88 100,92 99.4,93.3 c 0,0 9.4,-0.3 9.3,-0.5 -0.5,-0.6 -1.1,-1.3 -1.8,-2 z"
                   inkscape:connector-curvature="0" /></defs><clipPath
                 id="SVGID_17_"><use
                   xlink:href="#SVGID_16_"
                   style="overflow:visible"
                   id="use106"
                   x="0"
                   y="0"
                   width="100%"
                   height="100%" /></clipPath><g
                 class="st11"
                 id="g123"><rect
                   x="-487.10001"
                   y="-1326.1"
                   width="1006.2"
                   height="1831.2"
                   id="rect109" /><g
                   id="g121"><defs
                     id="defs112"><rect
                       id="SVGID_18_"
                       x="-487.10001"
                       y="-1326.1"
                       width="1006.2"
                       height="1831.2" /></defs><clipPath
                     id="SVGID_19_"><use
                       xlink:href="#SVGID_18_"
                       style="overflow:visible"
                       id="use114"
                       x="0"
                       y="0"
                       width="100%"
                       height="100%" /></clipPath><g
                     class="st12"
                     clip-path="url(#SVGID_19_)"
                     id="g119"><rect
                       x="76.599998"
                       y="79.599998"
                       width="37.5"
                       height="36"
                       id="rect117" /></g></g></g><g
                 class="st11"
                 id="g127"><path
                   d="m 99.4,94.3 c 0,0 0.4,3.4 -0.5,4.6 1.9,-0.1 3.8,0.1 5.7,0.5 1.4,0.4 2.7,1.1 3.8,2.1 0,0 1.2,-6.4 0.4,-8.4 z"
                   id="path125"
                   inkscape:connector-curvature="0" /></g><path
                 class="st13"
                 d="m 105.2,63 c 0,0 0.1,15.4 3.4,18.7 L 111,84 c 0,0 -5,1.5 -7,-5.2 -1.4,-5.5 -2.4,-11.1 -3,-16.8 z"
                 clip-path="url(#SVGID_17_)"
                 id="path129"
                 inkscape:connector-curvature="0"
                 style="opacity:0.1;fill:#ffffff;enable-background:new" /></g></g></g></g></g></g></svg>