<?xml version="1.0" encoding="UTF-8" standalone="no"?>
<!-- Generator: Adobe Illustrator 22.0.1, SVG Export Plug-In . SVG Version: 6.00 Build 0)  -->

<svg
   xmlns:dc="http://purl.org/dc/elements/1.1/"
   xmlns:cc="http://creativecommons.org/ns#"
   xmlns:rdf="http://www.w3.org/1999/02/22-rdf-syntax-ns#"
   xmlns:svg="http://www.w3.org/2000/svg"
   xmlns="http://www.w3.org/2000/svg"
   xmlns:sodipodi="http://sodipodi.sourceforge.net/DTD/sodipodi-0.dtd"
   xmlns:inkscape="http://www.inkscape.org/namespaces/inkscape"
   version="1.1"
   id="Layer_1"
   x="0px"
   y="0px"
   viewBox="0 0 160 160"
   style="enable-background:new 0 0 160 160;"
   xml:space="preserve"
   sodipodi:docname="face_01.svg"
   inkscape:version="0.92.2 (5c3e80d, 2017-08-06)"><metadata
     id="metadata53"><rdf:RDF><cc:Work
         rdf:about=""><dc:format>image/svg+xml</dc:format><dc:type
           rdf:resource="http://purl.org/dc/dcmitype/StillImage" /></cc:Work></rdf:RDF></metadata><defs
     id="defs51" /><sodipodi:namedview
     pagecolor="#ffffff"
     bordercolor="#666666"
     borderopacity="1"
     objecttolerance="10"
     gridtolerance="10"
     guidetolerance="10"
     inkscape:pageopacity="0"
     inkscape:pageshadow="2"
     inkscape:window-width="1920"
     inkscape:window-height="976"
     id="namedview49"
     showgrid="false"
     inkscape:zoom="8.34386"
     inkscape:cx="120.58764"
     inkscape:cy="84.585437"
     inkscape:window-x="0"
     inkscape:window-y="27"
     inkscape:window-maximized="1"
     inkscape:current-layer="Layer_1" /><style
     type="text/css"
     id="style2">
	.st0{fill:#3A3A3A;}
	.st1{opacity:0.2;}
	.st2{fill:none;stroke:#000000;stroke-linecap:round;stroke-linejoin:round;}
	.st3{fill:url(#SVGID_1_);}
	.st4{fill:url(#SVGID_2_);}
	.st5{opacity:0.3;fill:#FFFFFF;enable-background:new    ;}
	.st6{fill:none;stroke:#000000;stroke-width:0.5;stroke-linecap:round;stroke-linejoin:round;}
</style><title
     id="title4">Artboard 42 copy 225</title><path
     class="st0"
     d="M94,85c0,0,4.8-2,8.2,0c0.8,0.4,0.7,1.1,0,2c0,0-3.4,4-4.1,4s-4.8-4-4.8-4C92.7,86,93,85.3,94,85z"
     id="path6" /><g
     class="st1"
     id="g10"><path
       d="M99.3,84.1c1,0.2,2,0.4,3,0.9c0.8,0.4,0.7,1.1,0,2c-1.2,1.5-2.6,2.9-4.1,4C100.1,87.8,100.8,84.7,99.3,84.1z"
       id="path8" /></g><path
     class="st2"
     d="M96,100c1.6,0.2,2-5.8,2-9"
     id="path12" /><path
     class="st2"
     d="M88,95.5c0,0,7.5,11,18,0"
     id="path14" /><linearGradient
     id="SVGID_1_"
     gradientUnits="userSpaceOnUse"
     x1="85"
     y1="711.81"
     x2="85"
     y2="702.01"
     gradientTransform="matrix(1 0 0 1 0 -630)"><stop
       offset="0"
       style="stop-color:#A66707"
       id="stop16" /><stop
       offset="0.5"
       style="stop-color:#9D6209"
       id="stop18" /><stop
       offset="1"
       style="stop-color:#000000"
       id="stop20" /></linearGradient><path
     class="st3"
     d="M79,82c0,0,0-12,6-12s6,11.6,6,11.6S86,70,79,82z"
     id="path23"
     style="fill:#010101;fill-opacity:1;opacity:0.6" /><linearGradient
     id="SVGID_2_"
     gradientUnits="userSpaceOnUse"
     x1="108"
     y1="709.66"
     x2="108"
     y2="699.86"
     gradientTransform="matrix(1 0 0 1 0 -630)"><stop
       offset="0"
       style="stop-color:#A66707"
       id="stop25" /><stop
       offset="0.5"
       style="stop-color:#9D6209"
       id="stop27" /><stop
       offset="1"
       style="stop-color:#000000"
       id="stop29" /></linearGradient><path
     class="st4"
     d="M102,82c0,0,0-12,6-12s6,11.6,6,11.6S109,70,102,82z"
     id="path32"
     style="fill:#010101;fill-opacity:1;opacity:0.6" /><path
     class="st5"
     d="M96,86c0,0,4-1,6,0H96z"
     id="path34" /><path
     class="st6"
     d="M93,90c-9.9-3.8-20.4-6.2-31-7"
     id="path36" /><path
     class="st6"
     d="M92.6,91.3c-12-2.8-27.7-1.2-27.7-1.2"
     id="path38" /><path
     class="st6"
     d="M92.5,93.2c-12.3-1-27.6,5-27.6,5"
     id="path40" /><path
     class="st6"
     d="M101,90c8.5-3.8,17.7-6.2,27-7"
     id="path42" /><path
     class="st6"
     d="M101.3,91.3c10.5-2.8,24.1-1.2,24.1-1.2"
     id="path44" /><path
     class="st6"
     d="M101.4,93.2c10.7-1,24,5,24,5"
     id="path46" /></svg>