<?xml version="1.0" encoding="UTF-8" standalone="no"?>
<svg
   xmlns:dc="http://purl.org/dc/elements/1.1/"
   xmlns:cc="http://creativecommons.org/ns#"
   xmlns:rdf="http://www.w3.org/1999/02/22-rdf-syntax-ns#"
   xmlns:svg="http://www.w3.org/2000/svg"
   xmlns="http://www.w3.org/2000/svg"
   xmlns:xlink="http://www.w3.org/1999/xlink"
   xmlns:sodipodi="http://sodipodi.sourceforge.net/DTD/sodipodi-0.dtd"
   xmlns:inkscape="http://www.inkscape.org/namespaces/inkscape"
   id="Layer_1"
   data-name="Layer 1"
   viewBox="0 0 160 160"
   version="1.1"
   sodipodi:docname="face_05.svg"
   inkscape:version="0.92.2 (5c3e80d, 2017-08-06)">
  <metadata
     id="metadata134">
    <rdf:RDF>
      <cc:Work
         rdf:about="">
        <dc:format>image/svg+xml</dc:format>
        <dc:type
           rdf:resource="http://purl.org/dc/dcmitype/StillImage" />
      </cc:Work>
    </rdf:RDF>
  </metadata>
  <sodipodi:namedview
     pagecolor="#ffffff"
     bordercolor="#666666"
     borderopacity="1"
     objecttolerance="10"
     gridtolerance="10"
     guidetolerance="10"
     inkscape:pageopacity="0"
     inkscape:pageshadow="2"
     inkscape:window-width="1920"
     inkscape:window-height="976"
     id="namedview132"
     showgrid="false"
     inkscape:zoom="11.8"
     inkscape:cx="103.87167"
     inkscape:cy="78.164786"
     inkscape:window-x="0"
     inkscape:window-y="27"
     inkscape:window-maximized="1"
     inkscape:current-layer="Layer_1" />
  <defs
     id="defs59">
    <style
       id="style2">.cls-1,.cls-10{fill:url(#linear-gradient);}.cls-1,.cls-3,.cls-4,.cls-5,.cls-6,.cls-7,.cls-8{clip-rule:evenodd;}.cls-2{fill:url(#linear-gradient-2);}.cls-27,.cls-3{fill:url(#linear-gradient-3);}.cls-30,.cls-4{fill:url(#linear-gradient-4);}.cls-33,.cls-5{fill:url(#linear-gradient-5);}.cls-17,.cls-6{fill:url(#linear-gradient-6);}.cls-20,.cls-22,.cls-7{fill:#fff;}.cls-9{fill:none;stroke:#000;stroke-linecap:round;stroke-linejoin:round;}.cls-10,.cls-17,.cls-20,.cls-25,.cls-27,.cls-30,.cls-33{fill-rule:evenodd;}.cls-11{clip-path:url(#clip-path);}.cls-12{clip-path:url(#clip-path-2);}.cls-13{fill:url(#linear-gradient-9);}.cls-14{fill:#f15a24;}.cls-15{fill:#e84715;}.cls-16{fill:url(#linear-gradient-10);}.cls-18{clip-path:url(#clip-path-3);}.cls-19{fill:url(#linear-gradient-12);}.cls-21{clip-path:url(#clip-path-4);}.cls-23{clip-path:url(#clip-path-5);}.cls-24{opacity:0.05;}.cls-26{clip-path:url(#clip-path-6);}.cls-28{clip-path:url(#clip-path-7);}.cls-29{fill:url(#linear-gradient-14);}.cls-31{clip-path:url(#clip-path-8);}.cls-32{fill:url(#linear-gradient-16);}.cls-34{clip-path:url(#clip-path-9);}.cls-35{fill:url(#linear-gradient-18);}</style>
    <linearGradient
       id="linear-gradient"
       x1="95.33"
       y1="104.12"
       x2="95.33"
       y2="86.21"
       gradientUnits="userSpaceOnUse">
      <stop
         offset="0"
         stop-color="#a66707"
         id="stop4" />
      <stop
         offset="1"
         id="stop6" />
    </linearGradient>
    <linearGradient
       id="linear-gradient-2"
       x1="15.98"
       y1="506.14"
       x2="15.98"
       y2="-1325.07"
       xlink:href="#linear-gradient" />
    <linearGradient
       id="linear-gradient-3"
       x1="93.83"
       y1="287.71"
       x2="93.83"
       y2="270.66"
       xlink:href="#linear-gradient" />
    <linearGradient
       id="linear-gradient-4"
       x1="93.33"
       y1="1401.12"
       x2="93.33"
       y2="1383.21"
       xlink:href="#linear-gradient" />
    <linearGradient
       id="linear-gradient-5"
       x1="105.83"
       y1="1587.5"
       x2="105.83"
       y2="1572.83"
       xlink:href="#linear-gradient" />
    <linearGradient
       id="linear-gradient-6"
       x1="555.83"
       y1="948.33"
       x2="555.83"
       y2="931.71"
       gradientTransform="matrix(1, 0, 0, -1, 0, 2148.33)"
       xlink:href="#linear-gradient" />
    <clipPath
       id="clip-path">
      <path
         class="cls-1"
         d="M106.7,99.09a15.08,15.08,0,0,1-11.14,5h0l-.22,0-.21,0h0a15.08,15.08,0,0,1-11.14-5c-3-3.33-4.9-8.6-4.9-11s4.46,1.42,16,1.42h.46c7.89,0,12.78-2.53,13.65-3s2.39-.65,2.39,1.6S109.74,95.76,106.7,99.09Z"
         id="path14" />
    </clipPath>
    <clipPath
       id="clip-path-2">
      <rect
         class="cls-2"
         x="-487.11"
         y="-1325.07"
         width="1006.19"
         height="1831.22"
         id="rect17" />
    </clipPath>
    <linearGradient
       id="linear-gradient-9"
       x1="95.33"
       y1="116.59"
       x2="95.33"
       y2="80.57"
       gradientUnits="userSpaceOnUse">
      <stop
         offset="0"
         stop-color="#a66707"
         id="stop20" />
      <stop
         offset="0.5"
         stop-color="#9d6209"
         id="stop22" />
      <stop
         offset="1"
         id="stop24" />
    </linearGradient>
    <linearGradient
       id="linear-gradient-10"
       x1="98.2"
       y1="103.04"
       x2="97.99"
       y2="90.64"
       gradientUnits="userSpaceOnUse">
      <stop
         offset="0"
         stop-color="#ffd22d"
         stop-opacity="0"
         id="stop27" />
      <stop
         offset="0.81"
         stop-color="#a66707"
         stop-opacity="0.7"
         id="stop29" />
      <stop
         offset="1"
         stop-color="#a66707"
         id="stop31" />
    </linearGradient>
    <clipPath
       id="clip-path-3">
      <path
         class="cls-6"
         d="M566.92,1204.8a14.37,14.37,0,0,0-10.62-4.8h0l-.2,0-.21,0h0c-10.6,1.07-18.13,10.4-15.32,15.28,2.46,5.5,19.9-8.34,27.83.57,2.35,1.31,3.73-1,3.23-3.43C571.17,1210.31,569.83,1208,566.92,1204.8Z"
         id="path34" />
    </clipPath>
    <linearGradient
       id="linear-gradient-12"
       x1="475.98"
       y1="1619.14"
       x2="475.98"
       y2="-212.07"
       xlink:href="#linear-gradient" />
    <clipPath
       id="clip-path-4">
      <path
         class="cls-7"
         d="M540.83,1209.55s-1.83,3.45-.29,5.73c2.46,5.5,19.9-8.34,27.83.57a53.52,53.52,0,0,0,.45-8.81S540.83,1210.39,540.83,1209.55Z"
         id="path38" />
    </clipPath>
    <clipPath
       id="clip-path-5">
      <path
         class="cls-7"
         d="M566.92,1204.8a14.37,14.37,0,0,0-10.62-4.8h0l-.2,0-.21,0h0a21.62,21.62,0,0,0-13.84,7.6s27.06-.24,26.65-.75S567.59,1205.53,566.92,1204.8Z"
         id="path41" />
    </clipPath>
    <clipPath
       id="clip-path-6">
      <path
         class="cls-8"
         d="M566.92,1204.8c-1.92-2.8-7.37-4.41-7.37-4.41.45,1.61.45,5.61-.15,6.94,0,0,9.44-.28,9.27-.48C568.17,1206.21,567.59,1205.53,566.92,1204.8Z"
         id="path44" />
    </clipPath>
    <clipPath
       id="clip-path-7">
      <path
         class="cls-3"
         d="M95.33,282.09q-.77,0-1.5-.06c-.88-.06-1.28,5.36-2.55,5.67s-1.72-6.38-2.54-6.63c-2.37-.72-6.48-1.76-8.26-2.91-4-2.59-4.42-5.74-4.42-7.05,0-2.38,7.46,5.42,19,5.42h.46c7.89,0,12.78-2.53,13.65-3s2.39-.65,2.39,1.6c0,1.09-1.85,2.77-4.69,4.21-.73.37-.86,8.43-2.38,8.05s-1.73-6.39-2.65-6.14A24.2,24.2,0,0,1,95.33,282.09Z"
         id="path47" />
    </clipPath>
    <linearGradient
       id="linear-gradient-14"
       x1="15.98"
       y1="693.14"
       x2="15.98"
       y2="-1138.07"
       xlink:href="#linear-gradient" />
    <clipPath
       id="clip-path-8">
      <path
         class="cls-4"
         d="M104.7,1396.09a15.08,15.08,0,0,1-11.14,5h0l-.22,0-.21,0h0a15.08,15.08,0,0,1-11.14-5c-3-3.33-4.9-8.6-4.9-11,0-2.11,3.49.63,12.32,1.28,1.15.09,2.39.14,3.72.14h.46c7.89,0,12.78-2.53,13.65-3s2.39-.65,2.39,1.6S107.74,1392.76,104.7,1396.09Z"
         id="path51" />
    </clipPath>
    <linearGradient
       id="linear-gradient-16"
       x1="13.98"
       y1="1803.14"
       x2="13.98"
       y2="-28.07"
       xlink:href="#linear-gradient" />
    <clipPath
       id="clip-path-9">
      <path
         class="cls-5"
         d="M119,1583.38a21.11,21.11,0,0,1-12.88,4.12h0l-.25,0-.25,0h0a21.17,21.17,0,0,1-12.9-4.12c-3.53-2.73-5.67-7-5.67-9s7.16,1.16,20.57,1.16H106.1c9.12,0,14.78-2.08,15.79-2.47s2.76-.54,2.76,1.31S122.51,1580.65,119,1583.38Z"
         id="path55" />
    </clipPath>
    <linearGradient
       id="linear-gradient-18"
       x1="31.98"
       y1="1991.14"
       x2="31.98"
       y2="159.93"
       xlink:href="#linear-gradient" />
  </defs>
  <title
     id="title61">Artboard 42 copy 230</title>
  <path
     class="cls-9"
     d="M89.6,64.55s-.61-3.74-6.33-3.34c-5.44.77-2.25,5.45,2.84,8s8,6.86,2.47,8.29c-5.13,1.13-7.43-2.46-6.46-5.36"
     id="path63"
     style="stroke:#010101;stroke-opacity:1;opacity:0.6" />
  <path
     class="cls-9"
     d="M83.54,58.71s4.11,11.8,4.32,22.52"
     id="path65"
     style="stroke:#010101;stroke-opacity:1;opacity:0.6" />
  <path
     class="cls-9"
     d="M108.5,63.87s-.94-3.43-6.25-2.49c-5,1.24-1.56,5.31,3.44,7.18s8.12,5.62,3.12,7.5c-4.68,1.56-7.18-1.56-6.56-4.38"
     id="path67"
     style="stroke:#010101;stroke-opacity:1;opacity:0.6" />
  <path
     class="cls-9"
     d="M102.17,58.88s5,10.62,6.25,20.61"
     id="path69"
     style="stroke:#010101;stroke-opacity:1;opacity:0.6" />
  <path
     class="cls-10"
     d="M106.7,99.09a15.08,15.08,0,0,1-11.14,5h0l-.22,0-.21,0h0a15.08,15.08,0,0,1-11.14-5c-3-3.33-4.9-8.6-4.9-11s4.46,1.42,16,1.42h.46c7.89,0,12.78-2.53,13.65-3s2.39-.65,2.39,1.6S109.74,95.76,106.7,99.09Z"
     id="path71"
     style="fill:#010101;fill-opacity:1;opacity:0.6" />
  <path
     class="cls-14"
     d="M92.07,90.25c-.42.17-.81,10.58-.11,14.55s9.25,7.63,11.76-4c1.38-4.43.68-11.9.68-11.9S97.58,91.13,92.07,90.25Z"
     id="path81" />
  <path
     class="cls-15"
     d="M98.69,92.56s.67,7.17-.18,11.41.7,4.25,2.39,2.12,3.77-6.26,3.55-13.79V88.89l-5.94,1.66Z"
     id="path83" />
</svg>
