<svg xmlns="http://www.w3.org/2000/svg" viewBox="0 0 160 160">
  <path d="M97.6 82.4c4.8.2 8.5 4.3 8.3 9.1l-.1 3.3a8.7 8.7 0 01-9.1 8.3H96a8 8 0 01-7.6-8.4l.2-4a8.6 8.6 0 019-8.3z" fill="#010101" opacity=".6"/>
  <path d="M92.6 63a1 1 0 00-.9.5L82.1 80a1 1 0 101.7 1l9.7-16.6a1 1 0 00-.9-1.5zm-11 .4a1 1 0 00-.8 1.6l11.4 15.8a1 1 0 101.6-1.2L82.4 63.8a1 1 0 00-.8-.4z"/>
  <path d="M112.2 63.7a1 1 0 00-.8.4l-10 15.4a1 1 0 101.6 1l10-15.3a1 1 0 00-.8-1.5zm-9.5-.9a1 1 0 00-1 1.4l8.3 17a1 1 0 101.8-.8l-8.2-17a1 1 0 00-.9-.6z"/>
</svg>
