<?xml version="1.0" encoding="utf-8"?>
<!-- Generator: Adobe Illustrator 22.0.1, SVG Export Plug-In . SVG Version: 6.00 Build 0)  -->
<svg version="1.1" id="Layer_1" xmlns="http://www.w3.org/2000/svg" xmlns:xlink="http://www.w3.org/1999/xlink" x="0px" y="0px"
	 viewBox="0 0 160 160" style="enable-background:new 0 0 160 160;" xml:space="preserve">
<style type="text/css">
	.st0{fill:#FC0D0A;}
	.st1{fill:url(#SVGID_1_);}
</style>
<title>Artboard 42 copy 241</title>
<path class="st0" d="M111.4,68.3c0.6,2.7-0.6,5.3-2.5,5.7s-4-1.5-4.6-4.2s0.6-5.3,2.5-5.7c0.7-0.1,7.9,0.3,7.9,0.3
	S111.1,66.9,111.4,68.3z"/>
<path class="st0" d="M80.7,66.9c-0.6,3.1,0.7,5.9,2.8,6.3s4.4-1.7,5.1-4.7s-0.6-5.9-2.8-6.3c-0.6-0.1-10.1-0.1-10.6,0.1
	C74.3,62.6,82,66,80.7,66.9z"/>
<linearGradient id="SVGID_1_" gradientUnits="userSpaceOnUse" x1="95.2352" y1="65" x2="95.2352" y2="80.37" gradientTransform="matrix(1 0 0 -1 0 162)">
	<stop  offset="0" style="stop-color:#A66707"/>
	<stop  offset="1" style="stop-color:#000000"/>
</linearGradient>
<path class="st1" d="M111.9,97c-7.7-10.3-21.2-9.6-33.4,0c0,0,1.7-15.4,18-15.4c5.3,0,8.9,1.6,11.4,3.8C113.1,90,111.9,97,111.9,97z
	"/>
</svg>
