<?xml version="1.0" encoding="utf-8"?>
<!-- Generator: Adobe Illustrator 22.0.1, SVG Export Plug-In . SVG Version: 6.00 Build 0)  -->
<svg version="1.1" id="Layer_1" xmlns="http://www.w3.org/2000/svg" xmlns:xlink="http://www.w3.org/1999/xlink" x="0px" y="0px"
	 viewBox="0 0 160 160" style="enable-background:new 0 0 160 160;" xml:space="preserve">
<style type="text/css">
	.st0{fill:url(#SVGID_1_);}
	.st1{clip-path:url(#SVGID_3_);}
	.st2{fill:url(#SVGID_4_);}
	.st3{fill:url(#SVGID_5_);}
	.st4{fill:url(#SVGID_6_);}
	.st5{opacity:0.2;fill:#FFFFFF;enable-background:new    ;}
	.st6{opacity:0.2;enable-background:new    ;}
	.st7{fill:#EB5273;}
	.st8{opacity:0.2;}
	.st9{fill:#FBDB31;}
	.st10{opacity:5.000000e-02;}
</style>
<title>Artboard 42 copy 240</title>
<linearGradient id="SVGID_1_" gradientUnits="userSpaceOnUse" x1="93.81" y1="247.2896" x2="93.81" y2="264.3395" gradientTransform="matrix(1 0 0 -1 0 162)">
	<stop  offset="0" style="stop-color:#A66707"/>
	<stop  offset="1" style="stop-color:#000000"/>
</linearGradient>
<path class="st0" d="M95.3-90.9c-0.5,0-1,0-1.5-0.1c-0.8,0-1.3,5.4-2.6,5.7s-1.7-6.4-2.5-6.6c-2.4-0.7-6.5-1.8-8.3-2.9
	c-4-2.6-4.4-5.7-4.4-7c0-2.4,7.5,5.4,19,5.4h0.5c7.9,0,12.8-2.5,13.7-3s2.4-0.7,2.4,1.6c0,1.1-1.8,2.8-4.7,4.2
	c-0.7,0.4-0.9,8.4-2.4,8.1s-1.7-6.4-2.7-6.1C99.7-91.1,97.5-90.9,95.3-90.9z"/>
<g>
	<defs>
		<path id="SVGID_2_" d="M95.3-90.9c-0.5,0-1,0-1.5-0.1c-0.8,0-1.3,5.4-2.6,5.7s-1.7-6.4-2.5-6.6c-2.4-0.7-6.5-1.8-8.3-2.9
			c-4-2.6-4.4-5.7-4.4-7c0-2.4,7.5,5.4,19,5.4h0.5c7.9,0,12.8-2.5,13.7-3s2.4-0.7,2.4,1.6c0,1.1-1.8,2.8-4.7,4.2
			c-0.7,0.4-0.9,8.4-2.4,8.1s-1.7-6.4-2.7-6.1C99.7-91.1,97.5-90.9,95.3-90.9z"/>
	</defs>
	<clipPath id="SVGID_3_">
		<use xlink:href="#SVGID_2_"  style="overflow:visible;"/>
	</clipPath>
	<g class="st1">
		
			<linearGradient id="SVGID_4_" gradientUnits="userSpaceOnUse" x1="15.985" y1="-158.15" x2="15.985" y2="1673.0699" gradientTransform="matrix(1 0 0 -1 0 162)">
			<stop  offset="0" style="stop-color:#A66707"/>
			<stop  offset="1" style="stop-color:#000000"/>
		</linearGradient>
		<rect x="-487.1" y="-1511.1" class="st2" width="1006.2" height="1831.2"/>
	</g>
</g>
<linearGradient id="SVGID_5_" gradientUnits="userSpaceOnUse" x1="82" y1="85.19" x2="82" y2="94.99" gradientTransform="matrix(1 0 0 -1 0 162)">
	<stop  offset="0" style="stop-color:#A66707"/>
	<stop  offset="0.5" style="stop-color:#9D6209"/>
	<stop  offset="1" style="stop-color:#000000"/>
</linearGradient>
<path class="st3" d="M76,77c0,0,0-12,6-12s6,11.6,6,11.6S83,65,76,77z"/>
<linearGradient id="SVGID_6_" gradientUnits="userSpaceOnUse" x1="105.5" y1="87.65" x2="105.5" y2="96.62" gradientTransform="matrix(1 0 0 -1 0 162)">
	<stop  offset="0" style="stop-color:#A66707"/>
	<stop  offset="0.5" style="stop-color:#9D6209"/>
	<stop  offset="1" style="stop-color:#000000"/>
</linearGradient>
<path class="st4" d="M100,76.5c0,0,0-11,5.5-11s5.5,10.6,5.5,10.6S106.4,65.5,100,76.5z"/>
<path class="st5" d="M129.7,77.3c0,0-3.5-0.8-5.4-0.1c0,0,3.5-6.5,7.4-8.1C131.7,69.1,127.7,74.8,129.7,77.3z"/>
<path class="st6" d="M75,91.1c-0.2-1.5,0.4-2.9,1.4-3.9c0,0,10.8,0,13-4.6s4.3-10.1,7.9-7.8c5.7,3.3,5,7.8,8.6,10.1
	s7.2,5.7,12.2,5.7s5.8,0.5,5.8,2.1s-2.2,4.7-6.5,3.1s-10.4-4.3-19.8-0.4s-5,4.7-10.8,2.3C82.7,95.9,78.8,93.7,75,91.1z"/>
<path class="st6" d="M77.8,92.6l-0.6,2.9l2.2,3.6c0,0,6.5,0,8.7,2.2s13.7,5,20.9,2.9s6.7-8.6,6.7-8.6s-12.7,5.4-22.1,2.1
	c-0.9,0.7-2,1.2-3.1,1.5c-2.2-0.7-4.4-1.5-6.6-2.5C81.6,95.7,79.6,94.3,77.8,92.6z"/>
<path class="st7" d="M116.3,94.5c0,0-5.8-2.2-10.1-1.4s-9,1.8-11.3,3.4c0,0,2.4,1.7,7.2,1.3S114.2,96,116.3,94.5z"/>
<g class="st8">
	<path d="M116.3,94.5c0,0-5.8-2.2-10.1-1.4c-3.4,0.5-6.7,1.3-9.9,2.6C100.5,97.4,109.9,94.5,116.3,94.5z"/>
</g>
<path class="st9" d="M76,90.9l1.4-3.6c0,0,10.8,0,13-4.3s4.3-9.4,7.9-7.2s5,7.2,8.6,9.4s7.2,4.3,12.2,4.3s5.7,1.4,5.7,2.9
	s-2.2,4.3-6.5,2.9s-10.4-4-19.8-0.4s-5,4.3-10.8,2.2C83.7,95.4,79.8,93.3,76,90.9z"/>
<g class="st10">
	<path d="M76,90.9l1.4-3.6c4.6,3.2,9.7,5.7,15.1,7.2c4.3-5,21.6-5,32.4-2.2c0.1,1.4-2.2,4.3-6.5,2.9s-10.4-4-19.8-0.4
		s-5,4.3-10.8,2.2C83.7,95.4,79.8,93.3,76,90.9z"/>
</g>
<path d="M91.8,83l-0.7,2.2l5.1,4.3c0.4,0.4,1,0.4,1.4,0c0,0,0,0,0,0c0.7-0.7-2.2-3.6-2.2-3.6L93.3,83C92.9,82.6,92.3,82.6,91.8,83
	C91.9,83,91.9,83,91.8,83z"/>
<path class="st9" d="M78.8,92.6l-0.6,1.9l2.2,3.6c0,0,6.5,0,8.7,2.2s13.7,5,20.9,2.9s6.7-8.6,6.7-8.6s-12.7,5.4-22.1,2.1
	c-0.9,0.7-2,1.2-3.1,1.5c-2.2-0.7-4.4-1.5-6.6-2.5C81.4,94.2,78.8,92.6,78.8,92.6z"/>
<g class="st8">
	<path d="M78.8,92.6l-0.6,1.9l2.2,3.6c0,0,6.5,0,8.7,2.2s13.7,5,20.9,2.9s6.7-8.6,6.7-8.6s-12.7,5.4-22.1,2.1
		c-0.9,0.7-2,1.2-3.1,1.5c-2.2-0.7-4.4-1.5-6.6-2.5C81.4,94.2,78.8,92.6,78.8,92.6z"/>
</g>
</svg>
