<?xml version="1.0" encoding="UTF-8" standalone="no"?>
<svg
   xmlns:dc="http://purl.org/dc/elements/1.1/"
   xmlns:cc="http://creativecommons.org/ns#"
   xmlns:rdf="http://www.w3.org/1999/02/22-rdf-syntax-ns#"
   xmlns:svg="http://www.w3.org/2000/svg"
   xmlns="http://www.w3.org/2000/svg"
   xmlns:xlink="http://www.w3.org/1999/xlink"
   xmlns:sodipodi="http://sodipodi.sourceforge.net/DTD/sodipodi-0.dtd"
   xmlns:inkscape="http://www.inkscape.org/namespaces/inkscape"
   id="Layer_1"
   data-name="Layer 1"
   viewBox="0 0 160 160"
   version="1.1"
   sodipodi:docname="face_06.svg"
   inkscape:version="0.92.2 (5c3e80d, 2017-08-06)">
  <metadata
     id="metadata131">
    <rdf:RDF>
      <cc:Work
         rdf:about="">
        <dc:format>image/svg+xml</dc:format>
        <dc:type
           rdf:resource="http://purl.org/dc/dcmitype/StillImage" />
      </cc:Work>
    </rdf:RDF>
  </metadata>
  <sodipodi:namedview
     pagecolor="#ffffff"
     bordercolor="#666666"
     borderopacity="1"
     objecttolerance="10"
     gridtolerance="10"
     guidetolerance="10"
     inkscape:pageopacity="0"
     inkscape:pageshadow="2"
     inkscape:window-width="1920"
     inkscape:window-height="976"
     id="namedview129"
     showgrid="false"
     inkscape:zoom="11.8"
     inkscape:cx="79.823981"
     inkscape:cy="78.78694"
     inkscape:window-x="0"
     inkscape:window-y="27"
     inkscape:window-maximized="1"
     inkscape:current-layer="Layer_1" />
  <defs
     id="defs54">
    <style
       id="style2">.cls-1,.cls-9{fill:url(#linear-gradient);}.cls-1,.cls-2,.cls-4,.cls-5,.cls-6,.cls-7,.cls-8{clip-rule:evenodd;}.cls-2,.cls-24{fill:url(#linear-gradient-2);}.cls-3{fill:url(#linear-gradient-3);}.cls-28,.cls-4{fill:url(#linear-gradient-4);}.cls-31,.cls-5{fill:url(#linear-gradient-5);}.cls-12,.cls-6{fill:url(#linear-gradient-6);}.cls-15,.cls-17,.cls-7{fill:#fff;}.cls-12,.cls-15,.cls-20,.cls-24,.cls-28,.cls-31,.cls-9{fill-rule:evenodd;}.cls-10{clip-path:url(#clip-path);}.cls-11{fill:url(#linear-gradient-8);}.cls-13{clip-path:url(#clip-path-2);}.cls-14{fill:url(#linear-gradient-10);}.cls-16{clip-path:url(#clip-path-3);}.cls-18{clip-path:url(#clip-path-4);}.cls-19{opacity:0.05;}.cls-21{clip-path:url(#clip-path-5);}.cls-22{fill:url(#linear-gradient-11);}.cls-23{fill:url(#linear-gradient-12);}.cls-25{clip-path:url(#clip-path-6);}.cls-26{clip-path:url(#clip-path-7);}.cls-27{fill:url(#linear-gradient-15);}.cls-29{clip-path:url(#clip-path-8);}.cls-30{fill:url(#linear-gradient-17);}.cls-32{clip-path:url(#clip-path-9);}.cls-33{fill:url(#linear-gradient-19);}</style>
    <linearGradient
       id="linear-gradient"
       x1="95.33"
       y1="-82.88"
       x2="95.33"
       y2="-100.79"
       gradientUnits="userSpaceOnUse">
      <stop
         offset="0"
         stop-color="#a66707"
         id="stop4" />
      <stop
         offset="1"
         id="stop6" />
    </linearGradient>
    <linearGradient
       id="linear-gradient-2"
       x1="93.83"
       y1="100.71"
       x2="93.83"
       y2="83.66"
       xlink:href="#linear-gradient" />
    <linearGradient
       id="linear-gradient-3"
       x1="15.98"
       y1="506.14"
       x2="15.98"
       y2="-1325.07"
       xlink:href="#linear-gradient" />
    <linearGradient
       id="linear-gradient-4"
       x1="93.33"
       y1="1214.12"
       x2="93.33"
       y2="1196.21"
       xlink:href="#linear-gradient" />
    <linearGradient
       id="linear-gradient-5"
       x1="105.83"
       y1="1400.5"
       x2="105.83"
       y2="1385.83"
       xlink:href="#linear-gradient" />
    <linearGradient
       id="linear-gradient-6"
       x1="555.83"
       y1="761.33"
       x2="555.83"
       y2="744.71"
       gradientTransform="matrix(1, 0, 0, -1, 0, 1774.33)"
       xlink:href="#linear-gradient" />
    <clipPath
       id="clip-path">
      <path
         class="cls-1"
         d="M106.7-87.91a15.08,15.08,0,0,1-11.14,5h0l-.22,0-.21,0h0a15.08,15.08,0,0,1-11.14-5c-3-3.33-4.9-8.6-4.9-11s4.46,1.42,16,1.42h.46c7.89,0,12.78-2.53,13.65-3s2.39-.65,2.39,1.6S109.74-91.24,106.7-87.91Z"
         id="path14" />
    </clipPath>
    <linearGradient
       id="linear-gradient-8"
       x1="15.98"
       y1="319.14"
       x2="15.98"
       y2="-1512.07"
       xlink:href="#linear-gradient" />
    <clipPath
       id="clip-path-2">
      <path
         class="cls-6"
         d="M566.92,1017.8a14.37,14.37,0,0,0-10.62-4.8h0l-.2,0-.21,0h0c-10.6,1.07-18.13,10.4-15.32,15.28,2.46,5.5,19.9-8.34,27.83.57,2.35,1.31,3.73-1,3.23-3.43C571.17,1023.31,569.83,1021,566.92,1017.8Z"
         id="path18" />
    </clipPath>
    <linearGradient
       id="linear-gradient-10"
       x1="475.98"
       y1="1432.14"
       x2="475.98"
       y2="-399.07"
       xlink:href="#linear-gradient" />
    <clipPath
       id="clip-path-3">
      <path
         class="cls-7"
         d="M540.83,1022.55s-1.83,3.45-.29,5.73c2.46,5.5,19.9-8.34,27.83.57a53.52,53.52,0,0,0,.45-8.81S540.83,1023.39,540.83,1022.55Z"
         id="path22" />
    </clipPath>
    <clipPath
       id="clip-path-4">
      <path
         class="cls-7"
         d="M566.92,1017.8a14.37,14.37,0,0,0-10.62-4.8h0l-.2,0-.21,0h0a21.62,21.62,0,0,0-13.84,7.6s27.06-.24,26.65-.75S567.59,1018.53,566.92,1017.8Z"
         id="path25" />
    </clipPath>
    <clipPath
       id="clip-path-5">
      <path
         class="cls-8"
         d="M566.92,1017.8c-1.92-2.8-7.37-4.41-7.37-4.41.45,1.61.45,5.61-.15,6.94,0,0,9.44-.28,9.27-.48C568.17,1019.21,567.59,1018.53,566.92,1017.8Z"
         id="path28" />
    </clipPath>
    <linearGradient
       id="linear-gradient-11"
       x1="83"
       y1="75.81"
       x2="83"
       y2="66.01"
       gradientUnits="userSpaceOnUse">
      <stop
         offset="0"
         stop-color="#a66707"
         id="stop31" />
      <stop
         offset="0.5"
         stop-color="#9d6209"
         id="stop33" />
      <stop
         offset="1"
         id="stop35" />
    </linearGradient>
    <linearGradient
       id="linear-gradient-12"
       x1="106.5"
       y1="73.35"
       x2="106.5"
       y2="64.38"
       xlink:href="#linear-gradient-11" />
    <clipPath
       id="clip-path-6">
      <path
         class="cls-2"
         d="M95.33,95.09q-.77,0-1.5-.06c-.88-.06-1.28,5.36-2.55,5.67s-1.72-6.38-2.54-6.63c-2.37-.72-6.48-1.76-8.26-2.91-4-2.59-4.42-5.74-4.42-7,0-2.38,7.46,5.42,19,5.42h.46c7.89,0,12.78-2.53,13.65-3s2.39-.65,2.39,1.6c0,1.09-1.85,2.77-4.69,4.21-.73.37-.86,8.43-2.38,8.05s-1.73-6.39-2.65-6.14A24.2,24.2,0,0,1,95.33,95.09Z"
         id="path39" />
    </clipPath>
    <clipPath
       id="clip-path-7">
      <rect
         class="cls-3"
         x="-487.11"
         y="-1325.07"
         width="1006.19"
         height="1831.22"
         id="rect42" />
    </clipPath>
    <linearGradient
       id="linear-gradient-15"
       x1="95.33"
       y1="116.59"
       x2="95.33"
       y2="80.57"
       xlink:href="#linear-gradient-11" />
    <clipPath
       id="clip-path-8">
      <path
         class="cls-4"
         d="M104.7,1209.09a15.08,15.08,0,0,1-11.14,5h0l-.22,0-.21,0h0a15.08,15.08,0,0,1-11.14-5c-3-3.33-4.9-8.6-4.9-11,0-2.11,3.49.63,12.32,1.28,1.15.09,2.39.14,3.72.14h.46c7.89,0,12.78-2.53,13.65-3s2.39-.65,2.39,1.6S107.74,1205.76,104.7,1209.09Z"
         id="path46" />
    </clipPath>
    <linearGradient
       id="linear-gradient-17"
       x1="13.98"
       y1="1616.14"
       x2="13.98"
       y2="-215.07"
       xlink:href="#linear-gradient" />
    <clipPath
       id="clip-path-9">
      <path
         class="cls-5"
         d="M119,1396.38a21.11,21.11,0,0,1-12.88,4.12h0l-.25,0-.25,0h0a21.17,21.17,0,0,1-12.9-4.12c-3.53-2.73-5.67-7-5.67-9s7.16,1.16,20.57,1.16H106.1c9.12,0,14.78-2.08,15.79-2.47s2.76-.54,2.76,1.31S122.51,1393.65,119,1396.38Z"
         id="path50" />
    </clipPath>
    <linearGradient
       id="linear-gradient-19"
       x1="31.98"
       y1="1804.14"
       x2="31.98"
       y2="-27.07"
       xlink:href="#linear-gradient" />
  </defs>
  <title
     id="title56">Artboard 42 copy 239</title>
  <path
     class="cls-22"
     d="M77,76s0-12,6-12,6,11.59,6,11.59S84,64,77,76Z"
     id="path90"
     style="fill:#010101;fill-opacity:1;opacity:0.6" />
  <path
     class="cls-23"
     d="M101,75.5s0-11,5.5-11S112,75.12,112,75.12,107.42,64.5,101,75.5Z"
     id="path92"
     style="fill:#010101;fill-opacity:1;opacity:0.6" />
  <path
     class="cls-24"
     d="M95.33,95.09q-.77,0-1.5-.06c-.88-.06-1.28,5.36-2.55,5.67s-1.72-6.38-2.54-6.63c-2.37-.72-6.48-1.76-8.26-2.91-4-2.59-4.42-5.74-4.42-7,0-2.38,7.46,5.42,19,5.42h.46c7.89,0,12.78-2.53,13.65-3s2.39-.65,2.39,1.6c0,1.09-1.85,2.77-4.69,4.21-.73.37-.86,8.43-2.38,8.05s-1.73-6.39-2.65-6.14A24.2,24.2,0,0,1,95.33,95.09Z"
     id="path94"
     style="fill:#010101;fill-opacity:1;opacity:0.6" />
  <path
     class="cls-17"
     d="M87.93,88.54,90.5,99.92s.46,1.92,1.48,0,2.5-10.4,2.5-10.4A26.66,26.66,0,0,1,87.93,88.54Z"
     id="path116" />
  <g
     class="cls-19"
     id="g120">
    <path
       d="M91,91.51s1.19-.51,0,8.41c0,0,0,1.08,1,0,.8-1.92,2.48-10.4,2.48-10.4a19.21,19.21,0,0,1-4.36-.45Z"
       id="path118" />
  </g>
  <path
     class="cls-17"
     d="M100.84,89.13l2.81,10.21s1.22,2.34,1.78,0,1.77-11.89,1.77-11.89S105.69,88.27,100.84,89.13Z"
     id="path122" />
  <g
     class="cls-19"
     id="g126">
    <path
       d="M103.45,90.8s1.07-.72,1.5,8.27a.87.87,0,0,0,.23.43c.16.14,1.69-11.63,1.69-11.63a48.16,48.16,0,0,1-4.72,1.68Z"
       id="path124" />
  </g>
</svg>
