<svg xmlns="http://www.w3.org/2000/svg" viewBox="0 0 160 160">
  <g fill="#fff">
    <path d="M72.4 70.5s-5 2.3-4.5 5.4 4.5 2.3 4.5-.4 1.4-4.5 0-5z"/>
    <path d="M111 66.8s3.2-.9 4.3.7-1.2 2.9-2.3 1.6-2.5-1.6-2-2.3z"/>
    <path d="M70.5 67.2s-3.4-.1-4 1.8 1.9 2.5 2.6 1 2-2.2 1.4-2.8z"/>
  </g>
  <g fill="#010101" opacity=".6">
    <path d="M109.9 101.1H75.5s1.7-19.4 18.6-19.4c4.4-.2 8.8 1.6 11.8 4.8 5.3 5.7 4 14.6 4 14.6z"/>
    <circle cx="78.8" cy="67.7" r="4.8"/>
    <circle cx="106.1" cy="67.7" r="4.4"/>
  </g>
  <path d="M105.3 58.5c2.9-.3 5.8 4.6 8.6 6.9 0 0-3.7-7.5-4.4-8.6s-4.2 1.7-4.2 1.7z"/>
  <path d="M80.7 59.2c-2.6-1.2-7 2.3-10.4 3.6 0 0 6-5.8 7.1-6.6s3.3 3 3.3 3z"/>
</svg>
