<?xml version="1.0" encoding="utf-8"?>
<!-- Generator: Adobe Illustrator 22.0.1, SVG Export Plug-In . SVG Version: 6.00 Build 0)  -->
<svg version="1.1" id="Layer_1" xmlns="http://www.w3.org/2000/svg" xmlns:xlink="http://www.w3.org/1999/xlink" x="0px" y="0px"
	 viewBox="0 0 160 160" style="enable-background:new 0 0 160 160;" xml:space="preserve">
<style type="text/css">
	.st0{fill:#FFFFFF;}
	.st1{fill:#DD6901;}
	.st2{fill:none;stroke:#000000;stroke-width:2;stroke-miterlimit:10;}
	.st3{fill:url(#SVGID_1_);}
	.st4{clip-path:url(#SVGID_3_);}
	.st5{fill:url(#SVGID_4_);}
	.st6{clip-path:url(#SVGID_6_);}
	.st7{fill:url(#SVGID_7_);}
	.st8{fill:url(#SVGID_8_);}
	.st9{fill:url(#SVGID_9_);}
	.st10{clip-path:url(#SVGID_11_);}
	.st11{fill:url(#SVGID_12_);}
</style>
<title>Artboard 42 copy 245</title>
<ellipse transform="matrix(0.9985 -5.495018e-02 5.495018e-02 0.9985 -4.0427 4.6635)" class="st0" cx="82.8" cy="75.8" rx="6.2" ry="8.6"/>
<ellipse cx="82.9" cy="76.3" rx="3.7" ry="4.4"/>
<circle class="st0" cx="80.5" cy="73.9" r="2"/>
<path d="M77.7,67.3c3.5-4.1,7-4,10.4,0C88.1,67.3,83.3,57.7,77.7,67.3z"/>
<ellipse transform="matrix(0.9985 -5.495018e-02 5.495018e-02 0.9985 -4.0083 5.9271)" class="st0" cx="105.8" cy="75.9" rx="6.2" ry="8.6"/>
<ellipse cx="105.9" cy="76.3" rx="3.7" ry="4.4"/>
<circle class="st0" cx="103.5" cy="73.9" r="2"/>
<path d="M100.7,67.3c3.5-4.1,7-4,10.4,0C111.1,67.3,106.3,57.7,100.7,67.3z"/>
<path class="st1" d="M68.3,67h-1.8v4h1.8c1,0.3,1.8,1.2,1.8,2.2v5.8c0,0-0.3,8.1,11.8,7.9c0,0-8.6,0.2-10-8.3v-5.4
	c0-0.8-0.6-1.5-1.3-1.8L68.7,71L68.3,67z"/>
<path class="st2" d="M68.3,67v4l2,0.2c0.8,0.3,1.3,1,1.4,1.8v5.4c0,0,0.9,9,10.8,8.5S92.7,77,92.7,77s0-6.5,2.2-6.5s2.3,6.5,2.3,6.5
	s0.4,9.9,10.3,9.9s10.3-8.5,10.3-8.5v-5.8c0-0.7,0.6-1.3,1.3-1.3c0,0,0,0,0.1,0h1.8v-4l-21.8-0.1c-0.8,0.2-1.4,0.6-2,1.2l-2.1,2
	l-2.2-2.1c-0.7-0.7-1.7-1.1-2.7-1L68.3,67z"/>
<linearGradient id="SVGID_1_" gradientUnits="userSpaceOnUse" x1="93.36" y1="55.88" x2="93.36" y2="73.79" gradientTransform="matrix(1 0 0 -1 0 162)">
	<stop  offset="0" style="stop-color:#A66707"/>
	<stop  offset="1" style="stop-color:#000000"/>
</linearGradient>
<path class="st3" d="M104.7,101.1c-2.8,3.2-6.9,5-11.1,5l0,0h-0.2h-0.2l0,0c-4.3,0-8.3-1.8-11.1-5c-3-3.3-4.9-8.6-4.9-11
	c0-2.1,3.5,0.6,12.3,1.3c1.2,0.1,2.4,0.1,3.7,0.1h0.5c7.9,0,12.8-2.5,13.7-3s2.4-0.7,2.4,1.6S107.7,97.8,104.7,101.1z"/>
<g>
	<defs>
		<path id="SVGID_2_" d="M104.7,101.1c-2.8,3.2-6.9,5-11.1,5l0,0h-0.2h-0.2l0,0c-4.3,0-8.3-1.8-11.1-5c-3-3.3-4.9-8.6-4.9-11
			c0-2.1,3.5,0.6,12.3,1.3c1.2,0.1,2.4,0.1,3.7,0.1h0.5c7.9,0,12.8-2.5,13.7-3s2.4-0.7,2.4,1.6S107.7,97.8,104.7,101.1z"/>
	</defs>
	<clipPath id="SVGID_3_">
		<use xlink:href="#SVGID_2_"  style="overflow:visible;"/>
	</clipPath>
	<g class="st4">
		
			<linearGradient id="SVGID_4_" gradientUnits="userSpaceOnUse" x1="13.985" y1="-346.15" x2="13.985" y2="1485.0699" gradientTransform="matrix(1 0 0 -1 0 162)">
			<stop  offset="0" style="stop-color:#A66707"/>
			<stop  offset="1" style="stop-color:#000000"/>
		</linearGradient>
		<rect x="-489.1" y="-1323.1" class="st5" width="1006.2" height="1831.2"/>
		<g>
			<defs>
				<rect id="SVGID_5_" x="-489.1" y="-1323.1" width="1006.2" height="1831.2"/>
			</defs>
			<clipPath id="SVGID_6_">
				<use xlink:href="#SVGID_5_"  style="overflow:visible;"/>
			</clipPath>
			<g class="st6">
				
					<linearGradient id="SVGID_7_" gradientUnits="userSpaceOnUse" x1="93.32" y1="43.41" x2="93.32" y2="79.43" gradientTransform="matrix(1 0 0 -1 0 162)">
					<stop  offset="0" style="stop-color:#A66707"/>
					<stop  offset="0.5" style="stop-color:#9D6209"/>
					<stop  offset="1" style="stop-color:#000000"/>
				</linearGradient>
				<rect x="74.6" y="82.6" class="st7" width="37.5" height="36"/>
			</g>
		</g>
		
			<linearGradient id="SVGID_8_" gradientUnits="userSpaceOnUse" x1="82.0233" y1="27.0871" x2="82.0233" y2="32.0871" gradientTransform="matrix(0.9992 -3.978300e-02 -3.978300e-02 -0.9992 14.2184 127.3312)">
			<stop  offset="0" style="stop-color:#FFFFFF"/>
			<stop  offset="1" style="stop-color:#A1A1A1"/>
		</linearGradient>
		<path class="st8" d="M90.1,96.5l-0.2-4.3c3.3,0.4,6.7,0.3,10-0.4l0.2,4.2c0.1,0.5-0.2,0.7-0.7,0.9l-4,0.2L95,93.7L94.7,97
			l-3.9,0.2C90.3,97.1,90.1,96.9,90.1,96.5z"/>
		
			<linearGradient id="SVGID_9_" gradientUnits="userSpaceOnUse" x1="105.85" y1="-130.5029" x2="105.85" y2="-115.8241" gradientTransform="matrix(1 0 0 -1 0 162)">
			<stop  offset="0" style="stop-color:#A66707"/>
			<stop  offset="1" style="stop-color:#000000"/>
		</linearGradient>
		<path class="st9" d="M119,288.4c-3.7,2.7-8.3,4.2-12.9,4.1l0,0h-0.2h-0.2l0,0c-4.6,0.1-9.2-1.4-12.9-4.1c-3.5-2.7-5.7-7-5.7-9
			s7.2,1.2,20.6,1.2h-1.5c9.1,0,14.8-2.1,15.8-2.5s2.8-0.5,2.8,1.3S122.5,285.6,119,288.4z"/>
		<g>
			<defs>
				<path id="SVGID_10_" d="M119,288.4c-3.7,2.7-8.3,4.2-12.9,4.1l0,0h-0.2h-0.2l0,0c-4.6,0.1-9.2-1.4-12.9-4.1
					c-3.5-2.7-5.7-7-5.7-9s7.2,1.2,20.6,1.2h-1.5c9.1,0,14.8-2.1,15.8-2.5s2.8-0.5,2.8,1.3S122.5,285.6,119,288.4z"/>
			</defs>
			<clipPath id="SVGID_11_">
				<use xlink:href="#SVGID_10_"  style="overflow:visible;"/>
			</clipPath>
			<g class="st10">
				
					<linearGradient id="SVGID_12_" gradientUnits="userSpaceOnUse" x1="31.985" y1="-534.15" x2="31.985" y2="1297.0699" gradientTransform="matrix(1 0 0 -1 0 162)">
					<stop  offset="0" style="stop-color:#A66707"/>
					<stop  offset="1" style="stop-color:#000000"/>
				</linearGradient>
				<rect x="-471.1" y="-1135.1" class="st11" width="1006.2" height="1831.2"/>
			</g>
		</g>
	</g>
</g>
</svg>
