<?xml version="1.0" encoding="UTF-8" standalone="no"?>
<svg
   xmlns:dc="http://purl.org/dc/elements/1.1/"
   xmlns:cc="http://creativecommons.org/ns#"
   xmlns:rdf="http://www.w3.org/1999/02/22-rdf-syntax-ns#"
   xmlns:svg="http://www.w3.org/2000/svg"
   xmlns="http://www.w3.org/2000/svg"
   xmlns:xlink="http://www.w3.org/1999/xlink"
   xmlns:sodipodi="http://sodipodi.sourceforge.net/DTD/sodipodi-0.dtd"
   xmlns:inkscape="http://www.inkscape.org/namespaces/inkscape"
   id="Layer_1"
   data-name="Layer 1"
   viewBox="0 0 160 160"
   version="1.1"
   sodipodi:docname="face_13.svg"
   inkscape:version="0.92.2 (5c3e80d, 2017-08-06)">
  <metadata
     id="metadata99">
    <rdf:RDF>
      <cc:Work
         rdf:about="">
        <dc:format>image/svg+xml</dc:format>
        <dc:type
           rdf:resource="http://purl.org/dc/dcmitype/StillImage" />
      </cc:Work>
    </rdf:RDF>
  </metadata>
  <sodipodi:namedview
     pagecolor="#ffffff"
     bordercolor="#666666"
     borderopacity="1"
     objecttolerance="10"
     gridtolerance="10"
     guidetolerance="10"
     inkscape:pageopacity="0"
     inkscape:pageshadow="2"
     inkscape:window-width="1920"
     inkscape:window-height="976"
     id="namedview97"
     showgrid="false"
     inkscape:zoom="8.34386"
     inkscape:cx="64.235462"
     inkscape:cy="82.493373"
     inkscape:window-x="0"
     inkscape:window-y="27"
     inkscape:window-maximized="1"
     inkscape:current-layer="Layer_1" />
  <defs
     id="defs42">
    <style
       id="style2">.cls-1,.cls-7{fill:url(#linear-gradient);}.cls-1,.cls-2,.cls-4,.cls-5,.cls-6{clip-rule:evenodd;}.cls-2,.cls-20{fill:url(#linear-gradient-2);}.cls-3{fill:url(#linear-gradient-3);}.cls-10,.cls-12,.cls-4{fill:#fff;}.cls-17,.cls-6{fill:url(#linear-gradient-4);}.cls-10,.cls-15,.cls-17,.cls-20,.cls-7{fill-rule:evenodd;}.cls-8{clip-path:url(#clip-path);}.cls-9{fill:url(#linear-gradient-6);}.cls-11{clip-path:url(#clip-path-2);}.cls-13{clip-path:url(#clip-path-3);}.cls-14{opacity:0.05;}.cls-16{clip-path:url(#clip-path-4);}.cls-18{clip-path:url(#clip-path-5);}.cls-19{fill:url(#linear-gradient-8);}.cls-21{clip-path:url(#clip-path-6);}.cls-22{clip-path:url(#clip-path-7);}.cls-23{fill:url(#linear-gradient-11);}</style>
    <linearGradient
       id="linear-gradient"
       x1="545.83"
       y1="-536.67"
       x2="545.83"
       y2="-553.29"
       gradientTransform="matrix(1, 0, 0, -1, 0, -821.67)"
       gradientUnits="userSpaceOnUse">
      <stop
         offset="0"
         stop-color="#a66707"
         id="stop4" />
      <stop
         offset="1"
         id="stop6" />
    </linearGradient>
    <linearGradient
       id="linear-gradient-2"
       x1="95.83"
       y1="102.5"
       x2="95.83"
       y2="87.83"
       gradientTransform="matrix(1, 0, 0, 1, 0, 0)"
       xlink:href="#linear-gradient" />
    <linearGradient
       id="linear-gradient-3"
       x1="21.98"
       y1="506.14"
       x2="21.98"
       y2="-1325.07"
       gradientTransform="matrix(1, 0, 0, 1, 0, 0)"
       xlink:href="#linear-gradient" />
    <linearGradient
       id="linear-gradient-4"
       x1="83.33"
       y1="-83.88"
       x2="83.33"
       y2="-101.79"
       gradientTransform="matrix(1, 0, 0, 1, 0, 0)"
       xlink:href="#linear-gradient" />
    <clipPath
       id="clip-path">
      <path
         class="cls-1"
         d="M556.92-280.2A14.37,14.37,0,0,0,546.3-285h0l-.2,0-.21,0h0c-10.6,1.07-18.13,10.4-15.32,15.28,2.46,5.5,19.9-8.34,27.83.57,2.35,1.31,3.73-1,3.23-3.43C561.17-274.69,559.83-277,556.92-280.2Z"
         id="path12" />
    </clipPath>
    <linearGradient
       id="linear-gradient-6"
       x1="465.98"
       y1="134.14"
       x2="465.98"
       y2="-1697.07"
       gradientTransform="matrix(1, 0, 0, 1, 0, 0)"
       xlink:href="#linear-gradient" />
    <clipPath
       id="clip-path-2">
      <path
         class="cls-4"
         d="M530.83-275.45s-1.83,3.45-.29,5.73c2.46,5.5,19.9-8.34,27.83.57a53.52,53.52,0,0,0,.45-8.81S530.83-274.61,530.83-275.45Z"
         id="path16" />
    </clipPath>
    <clipPath
       id="clip-path-3">
      <path
         class="cls-4"
         d="M556.92-280.2A14.37,14.37,0,0,0,546.3-285h0l-.2,0-.21,0h0A21.62,21.62,0,0,0,532-277.4s27.06-.24,26.65-.75S557.59-279.47,556.92-280.2Z"
         id="path19" />
    </clipPath>
    <clipPath
       id="clip-path-4">
      <path
         class="cls-5"
         d="M556.92-280.2c-1.92-2.8-7.37-4.41-7.37-4.41.45,1.61.45,5.61-.15,6.94,0,0,9.44-.28,9.27-.48C558.17-278.79,557.59-279.47,556.92-280.2Z"
         id="path22" />
    </clipPath>
    <clipPath
       id="clip-path-5">
      <path
         class="cls-6"
         d="M94.7-88.91a15.08,15.08,0,0,1-11.14,5h0l-.22,0-.21,0h0a15.08,15.08,0,0,1-11.14-5c-3-3.33-4.9-8.6-4.9-11,0-2.11,3.49.63,12.32,1.28,1.15.09,2.39.14,3.72.14h.46c7.89,0,12.78-2.53,13.65-3s2.39-.65,2.39,1.6S97.74-92.24,94.7-88.91Z"
         id="path25" />
    </clipPath>
    <linearGradient
       id="linear-gradient-8"
       x1="3.98"
       y1="318.14"
       x2="3.98"
       y2="-1513.07"
       gradientTransform="matrix(1, 0, 0, 1, 0, 0)"
       xlink:href="#linear-gradient" />
    <clipPath
       id="clip-path-7">
      <rect
         class="cls-3"
         x="-481.11"
         y="-1325.07"
         width="1006.19"
         height="1831.22"
         id="rect32" />
    </clipPath>
    <linearGradient
       id="linear-gradient-11"
       x1="101.33"
       y1="116.59"
       x2="101.33"
       y2="80.57"
       gradientUnits="userSpaceOnUse">
      <stop
         offset="0"
         stop-color="#a66707"
         id="stop35" />
      <stop
         offset="0.5"
         stop-color="#9d6209"
         id="stop37" />
      <stop
         offset="1"
         id="stop39" />
    </linearGradient>
  </defs>
  <title
     id="title44">Artboard 42 copy 246</title>
  <path
     id="path29"
     d="m 109,98.38 a 21.11,21.11 0 0 1 -12.9,4.12 v 0 H 95.85 95.6 v 0 A 21.17,21.17 0 0 1 82.7,98.38 c -3.53,-2.73 -5.67,-7 -5.67,-9 0,-2 7.16,1.16 20.57,1.16 h -1.5 c 9.12,0 14.78,-2.08 15.79,-2.47 1.01,-0.39 2.76,-0.54 2.76,1.31 0,1.85 -2.14,6.27 -5.65,9 z"
     class="cls-2"
     style="clip-rule:evenodd;fill:#010101;fill-opacity:1;opacity:0.6"
     inkscape:connector-curvature="0" />
  <ellipse
     class="cls-12"
     cx="97.32"
     cy="72.71"
     rx="7.68"
     ry="10.76"
     transform="translate(-3.85 5.46) rotate(-3.15)"
     id="ellipse88" />
  <ellipse
     cx="97.42"
     cy="74.5"
     rx="4.58"
     ry="5.5"
     id="ellipse90" />
  <circle
     class="cls-12"
     cx="94.5"
     cy="71.5"
     r="2.5"
     id="circle92" />
  <path
     d="M91,62c4.41-5.13,8.74-5,13,0C104,62,98,50,91,62Z"
     id="path94" />
</svg>
