<?xml version="1.0" encoding="UTF-8" standalone="no"?>
<svg
   xmlns:dc="http://purl.org/dc/elements/1.1/"
   xmlns:cc="http://creativecommons.org/ns#"
   xmlns:rdf="http://www.w3.org/1999/02/22-rdf-syntax-ns#"
   xmlns:svg="http://www.w3.org/2000/svg"
   xmlns="http://www.w3.org/2000/svg"
   xmlns:xlink="http://www.w3.org/1999/xlink"
   xmlns:sodipodi="http://sodipodi.sourceforge.net/DTD/sodipodi-0.dtd"
   xmlns:inkscape="http://www.inkscape.org/namespaces/inkscape"
   id="Layer_1"
   data-name="Layer 1"
   viewBox="0 0 160 160"
   version="1.1"
   sodipodi:docname="face_05.svg"
   inkscape:version="0.92.2 (5c3e80d, 2017-08-06)">
  <metadata
     id="metadata134">
    <rdf:RDF>
      <cc:Work
         rdf:about="">
        <dc:format>image/svg+xml</dc:format>
        <dc:type
           rdf:resource="http://purl.org/dc/dcmitype/StillImage" />
      </cc:Work>
    </rdf:RDF>
  </metadata>
  <sodipodi:namedview
     pagecolor="#ffffff"
     bordercolor="#666666"
     borderopacity="1"
     objecttolerance="10"
     gridtolerance="10"
     guidetolerance="10"
     inkscape:pageopacity="0"
     inkscape:pageshadow="2"
     inkscape:window-width="1920"
     inkscape:window-height="976"
     id="namedview132"
     showgrid="false"
     inkscape:zoom="8.34386"
     inkscape:cx="81.950949"
     inkscape:cy="75.972774"
     inkscape:window-x="0"
     inkscape:window-y="27"
     inkscape:window-maximized="1"
     inkscape:current-layer="Layer_1" />
  <defs
     id="defs59">
    <style
       id="style2">.cls-1,.cls-10{fill:url(#linear-gradient);}.cls-1,.cls-3,.cls-4,.cls-5,.cls-6,.cls-7,.cls-8{clip-rule:evenodd;}.cls-2{fill:url(#linear-gradient-2);}.cls-27,.cls-3{fill:url(#linear-gradient-3);}.cls-30,.cls-4{fill:url(#linear-gradient-4);}.cls-33,.cls-5{fill:url(#linear-gradient-5);}.cls-17,.cls-6{fill:url(#linear-gradient-6);}.cls-20,.cls-22,.cls-7{fill:#fff;}.cls-9{fill:none;stroke:#000;stroke-linecap:round;stroke-linejoin:round;}.cls-10,.cls-17,.cls-20,.cls-25,.cls-27,.cls-30,.cls-33{fill-rule:evenodd;}.cls-11{clip-path:url(#clip-path);}.cls-12{clip-path:url(#clip-path-2);}.cls-13{fill:url(#linear-gradient-9);}.cls-14{fill:#f15a24;}.cls-15{fill:#e84715;}.cls-16{fill:url(#linear-gradient-10);}.cls-18{clip-path:url(#clip-path-3);}.cls-19{fill:url(#linear-gradient-12);}.cls-21{clip-path:url(#clip-path-4);}.cls-23{clip-path:url(#clip-path-5);}.cls-24{opacity:0.05;}.cls-26{clip-path:url(#clip-path-6);}.cls-28{clip-path:url(#clip-path-7);}.cls-29{fill:url(#linear-gradient-14);}.cls-31{clip-path:url(#clip-path-8);}.cls-32{fill:url(#linear-gradient-16);}.cls-34{clip-path:url(#clip-path-9);}.cls-35{fill:url(#linear-gradient-18);}</style>
    <linearGradient
       id="linear-gradient"
       x1="95.33"
       y1="104.12"
       x2="95.33"
       y2="86.21"
       gradientUnits="userSpaceOnUse">
      <stop
         offset="0"
         stop-color="#a66707"
         id="stop4" />
      <stop
         offset="1"
         id="stop6" />
    </linearGradient>
    <linearGradient
       id="linear-gradient-2"
       x1="15.98"
       y1="506.14"
       x2="15.98"
       y2="-1325.07"
       xlink:href="#linear-gradient" />
    <linearGradient
       id="linear-gradient-3"
       x1="93.83"
       y1="287.71"
       x2="93.83"
       y2="270.66"
       xlink:href="#linear-gradient" />
    <linearGradient
       id="linear-gradient-4"
       x1="93.33"
       y1="1401.12"
       x2="93.33"
       y2="1383.21"
       xlink:href="#linear-gradient" />
    <linearGradient
       id="linear-gradient-5"
       x1="105.83"
       y1="1587.5"
       x2="105.83"
       y2="1572.83"
       xlink:href="#linear-gradient" />
    <linearGradient
       id="linear-gradient-6"
       x1="555.83"
       y1="948.33"
       x2="555.83"
       y2="931.71"
       gradientTransform="matrix(1, 0, 0, -1, 0, 2148.33)"
       xlink:href="#linear-gradient" />
    <clipPath
       id="clip-path">
      <path
         class="cls-1"
         d="M106.7,99.09a15.08,15.08,0,0,1-11.14,5h0l-.22,0-.21,0h0a15.08,15.08,0,0,1-11.14-5c-3-3.33-4.9-8.6-4.9-11s4.46,1.42,16,1.42h.46c7.89,0,12.78-2.53,13.65-3s2.39-.65,2.39,1.6S109.74,95.76,106.7,99.09Z"
         id="path14" />
    </clipPath>
    <clipPath
       id="clip-path-2">
      <rect
         class="cls-2"
         x="-487.11"
         y="-1325.07"
         width="1006.19"
         height="1831.22"
         id="rect17" />
    </clipPath>
    <linearGradient
       id="linear-gradient-9"
       x1="95.33"
       y1="116.59"
       x2="95.33"
       y2="80.57"
       gradientUnits="userSpaceOnUse">
      <stop
         offset="0"
         stop-color="#a66707"
         id="stop20" />
      <stop
         offset="0.5"
         stop-color="#9d6209"
         id="stop22" />
      <stop
         offset="1"
         id="stop24" />
    </linearGradient>
    <linearGradient
       id="linear-gradient-10"
       x1="98.2"
       y1="103.04"
       x2="97.99"
       y2="90.64"
       gradientUnits="userSpaceOnUse">
      <stop
         offset="0"
         stop-color="#ffd22d"
         stop-opacity="0"
         id="stop27" />
      <stop
         offset="0.81"
         stop-color="#a66707"
         stop-opacity="0.7"
         id="stop29" />
      <stop
         offset="1"
         stop-color="#a66707"
         id="stop31" />
    </linearGradient>
    <clipPath
       id="clip-path-3">
      <path
         class="cls-6"
         d="M566.92,1204.8a14.37,14.37,0,0,0-10.62-4.8h0l-.2,0-.21,0h0c-10.6,1.07-18.13,10.4-15.32,15.28,2.46,5.5,19.9-8.34,27.83.57,2.35,1.31,3.73-1,3.23-3.43C571.17,1210.31,569.83,1208,566.92,1204.8Z"
         id="path34" />
    </clipPath>
    <linearGradient
       id="linear-gradient-12"
       x1="475.98"
       y1="1619.14"
       x2="475.98"
       y2="-212.07"
       xlink:href="#linear-gradient" />
    <clipPath
       id="clip-path-4">
      <path
         class="cls-7"
         d="M540.83,1209.55s-1.83,3.45-.29,5.73c2.46,5.5,19.9-8.34,27.83.57a53.52,53.52,0,0,0,.45-8.81S540.83,1210.39,540.83,1209.55Z"
         id="path38" />
    </clipPath>
    <clipPath
       id="clip-path-5">
      <path
         class="cls-7"
         d="M566.92,1204.8a14.37,14.37,0,0,0-10.62-4.8h0l-.2,0-.21,0h0a21.62,21.62,0,0,0-13.84,7.6s27.06-.24,26.65-.75S567.59,1205.53,566.92,1204.8Z"
         id="path41" />
    </clipPath>
    <clipPath
       id="clip-path-6">
      <path
         class="cls-8"
         d="M566.92,1204.8c-1.92-2.8-7.37-4.41-7.37-4.41.45,1.61.45,5.61-.15,6.94,0,0,9.44-.28,9.27-.48C568.17,1206.21,567.59,1205.53,566.92,1204.8Z"
         id="path44" />
    </clipPath>
    <clipPath
       id="clip-path-7">
      <path
         class="cls-3"
         d="M95.33,282.09q-.77,0-1.5-.06c-.88-.06-1.28,5.36-2.55,5.67s-1.72-6.38-2.54-6.63c-2.37-.72-6.48-1.76-8.26-2.91-4-2.59-4.42-5.74-4.42-7.05,0-2.38,7.46,5.42,19,5.42h.46c7.89,0,12.78-2.53,13.65-3s2.39-.65,2.39,1.6c0,1.09-1.85,2.77-4.69,4.21-.73.37-.86,8.43-2.38,8.05s-1.73-6.39-2.65-6.14A24.2,24.2,0,0,1,95.33,282.09Z"
         id="path47" />
    </clipPath>
    <linearGradient
       id="linear-gradient-14"
       x1="15.98"
       y1="693.14"
       x2="15.98"
       y2="-1138.07"
       xlink:href="#linear-gradient" />
    <clipPath
       id="clip-path-8">
      <path
         class="cls-4"
         d="M104.7,1396.09a15.08,15.08,0,0,1-11.14,5h0l-.22,0-.21,0h0a15.08,15.08,0,0,1-11.14-5c-3-3.33-4.9-8.6-4.9-11,0-2.11,3.49.63,12.32,1.28,1.15.09,2.39.14,3.72.14h.46c7.89,0,12.78-2.53,13.65-3s2.39-.65,2.39,1.6S107.74,1392.76,104.7,1396.09Z"
         id="path51" />
    </clipPath>
    <linearGradient
       id="linear-gradient-16"
       x1="13.98"
       y1="1803.14"
       x2="13.98"
       y2="-28.07"
       xlink:href="#linear-gradient" />
    <clipPath
       id="clip-path-9">
      <path
         class="cls-5"
         d="M119,1583.38a21.11,21.11,0,0,1-12.88,4.12h0l-.25,0-.25,0h0a21.17,21.17,0,0,1-12.9-4.12c-3.53-2.73-5.67-7-5.67-9s7.16,1.16,20.57,1.16H106.1c9.12,0,14.78-2.08,15.79-2.47s2.76-.54,2.76,1.31S122.51,1580.65,119,1583.38Z"
         id="path55" />
    </clipPath>
    <linearGradient
       id="linear-gradient-18"
       x1="31.98"
       y1="1991.14"
       x2="31.98"
       y2="159.93"
       xlink:href="#linear-gradient" />
  </defs>
  <title
     id="title61">Artboard 42 copy 230</title>
  <path
     id="path65"
     style="color:#000000;font-style:normal;font-variant:normal;font-weight:normal;font-stretch:normal;font-size:medium;line-height:normal;font-family:sans-serif;font-variant-ligatures:normal;font-variant-position:normal;font-variant-caps:normal;font-variant-numeric:normal;font-variant-alternates:normal;font-feature-settings:normal;text-indent:0;text-align:start;text-decoration:none;text-decoration-line:none;text-decoration-style:solid;text-decoration-color:#000000;letter-spacing:normal;word-spacing:normal;text-transform:none;writing-mode:lr-tb;direction:ltr;text-orientation:mixed;dominant-baseline:auto;baseline-shift:baseline;text-anchor:start;white-space:normal;shape-padding:0;clip-rule:nonzero;display:inline;overflow:visible;visibility:visible;opacity:0.6;isolation:auto;mix-blend-mode:normal;color-interpolation:sRGB;color-interpolation-filters:linearRGB;solid-color:#000000;solid-opacity:1;vector-effect:none;fill:#010101;fill-opacity:1;fill-rule:nonzero;stroke:none;stroke-width:2;stroke-linecap:round;stroke-linejoin:round;stroke-miterlimit:4;stroke-dasharray:none;stroke-dashoffset:0;stroke-opacity:1;color-rendering:auto;image-rendering:auto;shape-rendering:auto;text-rendering:auto;enable-background:accumulate"
     d="m 83.484375,57.697266 a 1.0001,1.0001 0 0 0 -0.888672,1.341796 c 0,0 4.058395,11.732021 4.263672,22.210938 a 1.0001907,1.0001907 0 1 0 2,-0.03906 c -0.214723,-10.961083 -4.375,-22.830079 -4.375,-22.830079 a 1.0001,1.0001 0 0 0 -1,-0.683593 z m -0.283203,2.515625 a 1.0001,1.0001 0 0 0 -0.07227,0.0078 c -1.512607,0.214101 -2.643053,0.716619 -3.261718,1.65625 -0.618666,0.939631 -0.495333,2.115714 -0.0293,3.095703 0.932072,1.95998 3.134974,3.783596 5.824218,5.13086 2.411509,1.208123 4.251817,2.906853 4.746094,4.064453 0.247139,0.5788 0.226806,0.898228 0,1.242187 -0.225294,0.341666 -0.837126,0.791953 -2.064453,1.113282 -2.301805,0.500481 -3.741807,-0.05009 -4.566406,-0.892579 -0.827714,-0.845666 -1.079186,-2.067039 -0.708985,-3.173828 a 1.0001,1.0001 0 1 0 -1.896484,-0.634765 c -0.599798,1.793211 -0.186505,3.817151 1.175781,5.208984 1.362286,1.391833 3.63434,2.064924 6.447266,1.445312 a 1.0001,1.0001 0 0 0 0.03516,-0.0078 c 1.520959,-0.393304 2.624228,-1.012943 3.248047,-1.958984 0.623819,-0.946042 0.595283,-2.130754 0.169922,-3.126954 -0.850723,-1.992399 -3.010961,-3.724529 -5.689453,-5.066406 -2.400756,-1.202736 -4.338635,-2.993104 -4.914063,-4.203125 -0.287714,-0.60501 -0.259616,-0.9026 -0.105469,-1.136719 0.151747,-0.230473 0.674493,-0.591331 1.841797,-0.765624 2.603975,-0.171064 3.826852,0.547962 4.484375,1.21875 0.66204,0.675395 0.748047,1.281249 0.748047,1.28125 a 1.0003674,1.0003674 0 1 0 1.97461,-0.322266 c 0,0 -0.220009,-1.26477 -1.292969,-2.359375 -1.07296,-1.094605 -3.014923,-2.031709 -6.09375,-1.816406 z" />
  <path
     id="path69"
     style="color:#000000;font-style:normal;font-variant:normal;font-weight:normal;font-stretch:normal;font-size:medium;line-height:normal;font-family:sans-serif;font-variant-ligatures:normal;font-variant-position:normal;font-variant-caps:normal;font-variant-numeric:normal;font-variant-alternates:normal;font-feature-settings:normal;text-indent:0;text-align:start;text-decoration:none;text-decoration-line:none;text-decoration-style:solid;text-decoration-color:#000000;letter-spacing:normal;word-spacing:normal;text-transform:none;writing-mode:lr-tb;direction:ltr;text-orientation:mixed;dominant-baseline:auto;baseline-shift:baseline;text-anchor:start;white-space:normal;shape-padding:0;clip-rule:nonzero;display:inline;overflow:visible;visibility:visible;opacity:0.6;isolation:auto;mix-blend-mode:normal;color-interpolation:sRGB;color-interpolation-filters:linearRGB;solid-color:#000000;solid-opacity:1;vector-effect:none;fill:#010101;fill-opacity:1;fill-rule:nonzero;stroke:none;stroke-width:2;stroke-linecap:round;stroke-linejoin:round;stroke-miterlimit:4;stroke-dasharray:none;stroke-dashoffset:0;stroke-opacity:1;color-rendering:auto;image-rendering:auto;shape-rendering:auto;text-rendering:auto;enable-background:accumulate"
     d="m 102.20898,57.867188 a 1.0001,1.0001 0 0 0 -0.94336,1.439453 c 0,0 4.94206,10.555987 6.16211,20.30664 a 1.0001,1.0001 0 1 0 1.98438,-0.248047 c -1.27995,-10.229346 -6.33789,-20.912109 -6.33789,-20.912109 a 1.0001,1.0001 0 0 0 -0.86524,-0.585937 z m -0.13281,2.527343 a 1.0001,1.0001 0 0 0 -0.0664,0.01563 c -1.40005,0.347213 -2.426956,0.93142 -2.923832,1.892578 -0.496877,0.961158 -0.256923,2.073119 0.28125,2.953125 1.076342,1.760014 3.320182,3.248208 5.972652,4.240235 2.3585,0.882077 4.22509,2.285184 4.78516,3.294922 0.28003,0.504868 0.289,0.783578 0.12109,1.109375 -0.1666,0.323269 -0.67605,0.795842 -1.77343,1.21289 -2.08521,0.688325 -3.45876,0.319483 -4.29297,-0.371093 -0.83762,-0.693395 -1.18599,-1.788504 -0.95313,-2.847657 a 1.0001,1.0001 0 1 0 -1.95312,-0.429687 c -0.38714,1.760847 0.20348,3.636753 1.63086,4.818359 1.42738,1.181606 3.64224,1.584748 6.22265,0.724609 a 1.0001,1.0001 0 0 0 0.0352,-0.01172 c 1.38458,-0.520602 2.36424,-1.215172 2.86133,-2.179688 0.49709,-0.964516 0.35153,-2.094712 -0.14844,-2.996094 -0.99993,-1.802762 -3.19248,-3.209343 -5.83398,-4.197265 -2.34753,-0.877974 -4.3251,-2.35767 -4.96875,-3.410156 -0.32183,-0.526244 -0.31711,-0.783033 -0.20899,-0.992188 0.10643,-0.205885 0.53967,-0.583449 1.60156,-0.855469 2.40374,-0.414438 3.59838,0.130302 4.26563,0.679688 0.67214,0.553415 0.80469,1.089844 0.80469,1.089844 a 1.0004774,1.0004774 0 1 0 1.92968,-0.529297 c 0,0 -0.33753,-1.178885 -1.46289,-2.105469 -1.12536,-0.926584 -3.05523,-1.613627 -5.92578,-1.105469 z" />
  <path
     class="cls-10"
     d="M106.7,99.09a15.08,15.08,0,0,1-11.14,5h0l-.22,0-.21,0h0a15.08,15.08,0,0,1-11.14-5c-3-3.33-4.9-8.6-4.9-11s4.46,1.42,16,1.42h.46c7.89,0,12.78-2.53,13.65-3s2.39-.65,2.39,1.6S109.74,95.76,106.7,99.09Z"
     id="path71"
     style="fill:#010101;fill-opacity:1;opacity:0.6" />
  <path
     class="cls-14"
     d="M92.07,90.25c-.42.17-.81,10.58-.11,14.55s9.25,7.63,11.76-4c1.38-4.43.68-11.9.68-11.9S97.58,91.13,92.07,90.25Z"
     id="path81" />
  <path
     class="cls-15"
     d="M98.69,92.56s.67,7.17-.18,11.41.7,4.25,2.39,2.12,3.77-6.26,3.55-13.79V88.89l-5.94,1.66Z"
     id="path83" />
</svg>
