<svg xmlns="http://www.w3.org/2000/svg" viewBox="0 0 160 160">
  <path d="M94 71c-7.4.5-8.9 4.8-8.9 4.8a21 21 0 00-2.4 9.2c0 4.3-.8 4 4.5 5.2 0 0-1 11 9.3 10.3v3.7c0 10.6 6.4 3.4 6.4 3.4s7.9-3.9 9.9-16.4S102.9 71 94 71zm.1 21.2l-.3-.2.3.2zm-.3-.1l-2.6-.9c.9.2 1.8.5 2.6.9zm.8.4c1.2.8 1.7 1.9 1.9 3.8a6 6 0 00-1.9-3.8z" opacity=".2"/>
  <ellipse transform="rotate(-14.7 106.9 72.3)" cx="106.8" cy="72.3" rx="3.6" ry="5.1" fill="#42210b"/>
  <ellipse transform="rotate(-81.6 83.7 72.4)" cx="83.7" cy="72.4" rx="5.7" ry="4" fill="#42210b"/>
  <path d="M94.9 72c-6.7.4-8 4.4-8 4.4a19.1 19.1 0 00-2.2 8.4c0 3.9-.7 3.7 4.1 4.8 0 0-.9 10.1 8.4 9.6v3.4c0 9.8 5.8 3.1 5.8 3.1s7.1-3.6 8.9-15.1-9-18.6-17-18.6zm.1 19.6l-.3-.2.3.2zm-.3-.1l-2.3-.8c.8.1 1.6.4 2.3.8zm.7.4c1.1.8 1.5 1.8 1.7 3.5a5.1 5.1 0 00-1.7-3.5z" fill="#fbdb31"/>
  <path d="M88.8 89.7s-.9 10.1 8.4 9.6c0 0 .8-6.5-2.4-7.8s-6-2-6-1.8z" opacity=".2"/>
  <path d="M86.9 76.4s1.3-4 8-4.4c8 0 18.7 7.1 16.9 18.7s-8.9 15.1-8.9 15.1c8.9-16 5.2-30.5-16-29.4z" opacity=".05"/>
  <path d="M90.3 79.1c-.7 1.4-1.2 2.9-1.6 4.4 0 .9 3.2-5.3 1.6-4.4zM91.6 79.1a14 14 0 00-.9 2.9c.1.5 2.2-3.7.9-2.9z"/>
</svg>
