<svg xmlns="http://www.w3.org/2000/svg" viewBox="0 0 160 160">
  <g fill="#010101" opacity=".6">
    <path d="M76 77s0-12 6-12 6 11.6 6 11.6S83 65 76 77z"/>
    <path d="M100 76.5s0-11 5.5-11 5.5 10.6 5.5 10.6-4.6-10.6-11 .4z"/>
  </g>
  <g opacity=".2">
    <path d="M75 91.1c-.2-1.5.4-2.9 1.4-3.9 0 0 10.8 0 13-4.6s4.3-10.1 7.9-7.8c5.7 3.3 5 7.8 8.6 10.1s7.2 5.7 12.2 5.7 5.8.5 5.8 2.1-2.2 4.7-6.5 3.1-10.4-4.3-19.8-.4-5 4.7-10.8 2.3c-4.1-1.8-8-4-11.8-6.6z"/>
    <path d="M77.8 92.6l-.6 2.9 2.2 3.6s6.5 0 8.7 2.2 13.7 5 20.9 2.9 6.7-8.6 6.7-8.6-12.7 5.4-22.1 2.1a9 9 0 01-3.1 1.5c-2.2-.7-4.4-1.5-6.6-2.5-2.3-1-4.3-2.4-6.1-4.1z"/>
    <path d="M116.3 94.5s-5.8-2.2-10.1-1.4c-3.4.5-6.7 1.3-9.9 2.6 4.2 1.7 13.6-1.2 20-1.2z"/>
  </g>
  <path d="M116.3 94.5s-5.8-2.2-10.1-1.4-9 1.8-11.3 3.4c0 0 2.4 1.7 7.2 1.3s12.1-1.8 14.2-3.3z" fill="#eb5273"/>
  <path d="M76 90.9l1.4-3.6s10.8 0 13-4.3 4.3-9.4 7.9-7.2 5 7.2 8.6 9.4 7.2 4.3 12.2 4.3 5.7 1.4 5.7 2.9-2.2 4.3-6.5 2.9-10.4-4-19.8-.4-5 4.3-10.8 2.2c-4-1.7-7.9-3.8-11.7-6.2z" fill="#fbdb31"/>
  <path d="M76 90.9l1.4-3.6a50 50 0 0015.1 7.2c4.3-5 21.6-5 32.4-2.2.1 1.4-2.2 4.3-6.5 2.9s-10.4-4-19.8-.4-5 4.3-10.8 2.2c-4.1-1.6-8-3.7-11.8-6.1z" opacity=".05"/>
  <path d="M91.8 83l-.7 2.2 5.1 4.3c.4.4 1 .4 1.4 0 .7-.7-2.2-3.6-2.2-3.6L93.3 83c-.4-.4-1-.4-1.5 0 .1 0 .1 0 0 0z"/>
  <path d="M78.8 92.6l-.6 1.9 2.2 3.6s6.5 0 8.7 2.2 13.7 5 20.9 2.9 6.7-8.6 6.7-8.6-12.7 5.4-22.1 2.1a9 9 0 01-3.1 1.5c-2.2-.7-4.4-1.5-6.6-2.5-3.5-1.5-6.1-3.1-6.1-3.1z" fill="#fbdb31"/>
  <path d="M78.8 92.6l-.6 1.9 2.2 3.6s6.5 0 8.7 2.2 13.7 5 20.9 2.9 6.7-8.6 6.7-8.6-12.7 5.4-22.1 2.1a9 9 0 01-3.1 1.5c-2.2-.7-4.4-1.5-6.6-2.5-3.5-1.5-6.1-3.1-6.1-3.1z" opacity=".2"/>
</svg>
