<svg xmlns="http://www.w3.org/2000/svg" viewBox="0 0 160 160">
  <g opacity=".3">
    <ellipse cx="100.5" cy="86.5" rx="14.5" ry="11.7" fill="#fcfcfc"/>
    <path d="M100.5 98.2c-8 0-14.5-5.2-14.5-11.7s6.5-11.7 14.5-11.7S115 80 115 86.5c0-7.3-7.4-13.3-16.5-13.3S82 79.2 82 86.5s7.4 13.3 16.5 13.3 16.5-6 16.5-13.3c0 6.5-6.5 11.7-14.5 11.7z"/>
  </g>
  <g fill="#211309">
    <ellipse cx="96" cy="86.5" rx="3" ry="5.5"/>
    <ellipse cx="107" cy="86.5" rx="3" ry="5.5"/>
  </g>
  <g fill="#42210b">
    <path d="M99 86.5c0 3-1.3 5.5-3 5.5-.5 0-1.1-.2-1.4-.6C98 91 98 82 94.3 82c.4-.6 1-.9 1.7-1 1.7 0 3 2.5 3 5.5z"/>
    <path d="M110 86.5c0 3-1.3 5.5-3 5.5-.5 0-1.1-.2-1.4-.6 3.4-.4 3.4-9.4-.3-9.4.4-.6 1-.9 1.7-1 1.7 0 3 2.5 3 5.5z"/>
    <ellipse transform="rotate(-11.5 109.8 69)" cx="109.8" cy="69" rx="3.6" ry="5.1"/>
    <ellipse transform="rotate(-78.5 86.7 67.7)" cx="86.7" cy="67.7" rx="5.7" ry="4"/>
  </g>
</svg>
