<svg xmlns="http://www.w3.org/2000/svg" viewBox="0 0 160 160">
  <path d="M94 85s4.8-2 8.2 0c.8.4.7 1.1 0 2 0 0-3.4 4-4.1 4s-4.8-4-4.8-4c-.6-1-.3-1.7.7-2z"/>
  <path d="M99.3 84.1c1 .2 2 .4 3 .9.8.4.7 1.1 0 2a22.1 22.1 0 01-4.1 4c1.9-3.2 2.6-6.3 1.1-6.9z" fill="#3a3a3a" opacity=".2"/>
  <g fill="none" stroke="#000" stroke-linecap="round" stroke-linejoin="round">
    <path d="M96 100c1.6.2 2-5.8 2-9"/>
    <path d="M88 95.5s7.5 11 18 0"/>
  </g>
  <g fill="#010101" opacity=".6">
    <path d="M79 82s0-12 6-12 6 11.6 6 11.6S86 70 79 82z"/>
    <path d="M102 82s0-12 6-12 6 11.6 6 11.6-5-11.6-12 .4z"/>
  </g>
  <path d="M96 86s4-1 6 0h-6z" opacity=".3" fill="#fff"/>
  <g fill="none" stroke="#000" stroke-linecap="round" stroke-linejoin="round" stroke-width=".5">
    <path d="M93 90c-9.9-3.8-20.4-6.2-31-7"/>
    <path d="M92.6 91.3c-12-2.8-27.7-1.2-27.7-1.2"/>
    <path d="M92.5 93.2c-12.3-1-27.6 5-27.6 5"/>
    <path d="M101 90a84.1 84.1 0 0127-7"/>
    <path d="M101.3 91.3c10.5-2.8 24.1-1.2 24.1-1.2"/>
    <path d="M101.4 93.2c10.7-1 24 5 24 5"/>
  </g>
</svg>
