<svg xmlns="http://www.w3.org/2000/svg" viewBox="0 0 160 160">
  <path d="M117.2 66S81.4 54.5 44 63.5" fill="none" stroke="#000" stroke-width=".5" stroke-linecap="round" stroke-linejoin="round"/>
  <path d="M101.5 63.4s.5 19.6 7 20.6c4.5 1.1 6.5-1.7 7-4.6s.4-11.4-1.8-14.3L101 62l.5 1.4z" fill="#010101"/>
  <ellipse transform="rotate(-3.1 85.3 72.7)" cx="85.3" cy="72.7" rx="7.7" ry="10.8" fill="#fff"/>
  <ellipse cx="85.4" cy="74.5" rx="4.6" ry="5.5"/>
  <circle cx="82.5" cy="71.5" r="2.5" fill="#fff"/>
  <path d="M79 62.4c3.6-2.6 11.5 1.6 17 2.6 0 0-10.9-7.2-12.8-8.2S79 62.4 79 62.4z"/>
  <path d="M106.9 90.8c-2.7-3-6.6-4.8-10.6-4.8h-.4c-10.6 1.1-18.1 10.4-15.3 15.3 2.5 5.5 19.9-8.3 27.8.6 2.3 1.3 3.7-1 3.2-3.4-.4-2.2-1.8-4.5-4.7-7.7z" fill="#010101" opacity=".6"/>
  <path d="M80.8 95.6s-1.8 3.4-.3 5.7c2.5 5.5 19.9-8.3 27.8.6.4-2.9.5-5.9.4-8.8.1-.1-27.9 3.3-27.9 2.5z" fill="#fff"/>
  <path d="M80.8 95.6s-1.8 3.4-.3 5.7c2.5 5.5 19.9-8.3 27.8.6.4-2.9.5-5.9.4-8.8.1-.1-27.9 3.3-27.9 2.5z" fill="#fff"/>
</svg>
