<?xml version="1.0" encoding="utf-8"?>
<!-- Generator: Adobe Illustrator 22.0.1, SVG Export Plug-In . SVG Version: 6.00 Build 0)  -->
<svg version="1.1" id="Layer_1" xmlns="http://www.w3.org/2000/svg" xmlns:xlink="http://www.w3.org/1999/xlink" x="0px" y="0px"
	 viewBox="0 0 160 160" style="enable-background:new 0 0 160 160;" xml:space="preserve">
<style type="text/css">
	.st0{fill:none;stroke:#000000;stroke-linecap:round;stroke-linejoin:round;}
</style>
<title>Artboard 42 copy 232</title>
<path d="M84,63c-2-1-5-2-9,3s-8,13-5,19s11,3,12-1s0-6,3-9S89,66,84,63z"/>
<path d="M103.2,62.8c1.9-0.9,4.7-1.9,8.4,2.8s7.4,12.1,4.7,17.7S106,86,105.1,82.3s0-5.6-2.8-8.4S98.6,65.6,103.2,62.8z"/>
<path d="M91,84c0,0,7-2,12,0c1.2,0.4,1,1.1,0,2c0,0-5,4-6,4s-7-4-7-4C89,85,89.5,84.3,91,84z"/>
<path class="st0" d="M95,99c2.2,0.2,2-11,2-11"/>
<path class="st0" d="M83.5,94.5c0,0,10,11,24,0"/>
</svg>
