<?xml version="1.0" encoding="UTF-8" standalone="no"?>
<!-- Generator: Adobe Illustrator 22.0.1, SVG Export Plug-In . SVG Version: 6.00 Build 0)  -->

<svg
   xmlns:dc="http://purl.org/dc/elements/1.1/"
   xmlns:cc="http://creativecommons.org/ns#"
   xmlns:rdf="http://www.w3.org/1999/02/22-rdf-syntax-ns#"
   xmlns:svg="http://www.w3.org/2000/svg"
   xmlns="http://www.w3.org/2000/svg"
   xmlns:sodipodi="http://sodipodi.sourceforge.net/DTD/sodipodi-0.dtd"
   xmlns:inkscape="http://www.inkscape.org/namespaces/inkscape"
   version="1.1"
   id="Layer_1"
   x="0px"
   y="0px"
   viewBox="0 0 160 160"
   style="enable-background:new 0 0 160 160;"
   xml:space="preserve"
   sodipodi:docname="face_10.svg"
   inkscape:version="0.92.2 (5c3e80d, 2017-08-06)"><metadata
     id="metadata21"><rdf:RDF><cc:Work
         rdf:about=""><dc:format>image/svg+xml</dc:format><dc:type
           rdf:resource="http://purl.org/dc/dcmitype/StillImage" /></cc:Work></rdf:RDF></metadata><defs
     id="defs19" /><sodipodi:namedview
     pagecolor="#ffffff"
     bordercolor="#666666"
     borderopacity="1"
     objecttolerance="10"
     gridtolerance="10"
     guidetolerance="10"
     inkscape:pageopacity="0"
     inkscape:pageshadow="2"
     inkscape:window-width="1920"
     inkscape:window-height="976"
     id="namedview17"
     showgrid="false"
     inkscape:zoom="8.34386"
     inkscape:cx="78.941739"
     inkscape:cy="80.103579"
     inkscape:window-x="0"
     inkscape:window-y="27"
     inkscape:window-maximized="1"
     inkscape:current-layer="Layer_1" /><style
     type="text/css"
     id="style2">
	.st0{fill:#603813;}
	.st1{fill:none;stroke:#42210B;stroke-linecap:round;stroke-linejoin:round;}
</style><title
     id="title4">Artboard 42 copy 243</title><path
     class="st0"
     d="M97.6,82.4L97.6,82.4c4.8,0.2,8.5,4.3,8.3,9.1l-0.1,3.3c-0.2,4.8-4.3,8.5-9.1,8.3l-0.7,0  c-4.4-0.2-7.8-3.9-7.6-8.4l0.2-4C88.8,85.8,92.9,82.1,97.6,82.4z"
     id="path6"
     style="fill:#010101;fill-opacity:1;opacity:0.6" /><path
     id="line10"
     d="m 92.607422,62.974609 a 1.0001,1.0001 0 0 0 -0.882813,0.511719 l -9.646484,16.66211 a 1.0001,1.0001 0 1 0 1.730469,1.001953 l 9.646484,-16.66211 a 1.0001,1.0001 0 0 0 -0.847656,-1.513672 z m -11.027344,0.441407 a 1.0001,1.0001 0 0 0 -0.761719,1.595703 L 92.21875,80.796875 A 1.0001546,1.0001546 0 1 0 93.839844,79.625 L 82.439453,63.839844 a 1.0001,1.0001 0 0 0 -0.859375,-0.423828 z" /><path
     id="line14"
     d="m 112.21094,63.677734 a 1.0001,1.0001 0 0 0 -0.81055,0.462891 L 101.3125,79.486328 a 1.0001,1.0001 0 1 0 1.67188,1.097656 l 10.08789,-15.345703 a 1.0001,1.0001 0 0 0 -0.86133,-1.560547 z m -9.5,-0.878906 a 1.0001,1.0001 0 0 0 -0.92774,1.449219 l 8.25391,17.013672 a 1.0001,1.0001 0 1 0 1.79883,-0.873047 L 103.58398,63.375 a 1.0001,1.0001 0 0 0 -0.87304,-0.576172 z" /></svg>