<?xml version="1.0" encoding="UTF-8" standalone="no"?>
<!-- Generator: Adobe Illustrator 22.0.1, SVG Export Plug-In . SVG Version: 6.00 Build 0)  -->

<svg
   xmlns:dc="http://purl.org/dc/elements/1.1/"
   xmlns:cc="http://creativecommons.org/ns#"
   xmlns:rdf="http://www.w3.org/1999/02/22-rdf-syntax-ns#"
   xmlns:svg="http://www.w3.org/2000/svg"
   xmlns="http://www.w3.org/2000/svg"
   xmlns:sodipodi="http://sodipodi.sourceforge.net/DTD/sodipodi-0.dtd"
   xmlns:inkscape="http://www.inkscape.org/namespaces/inkscape"
   version="1.1"
   id="Layer_1"
   x="0px"
   y="0px"
   viewBox="0 0 160 160"
   style="enable-background:new 0 0 160 160;"
   xml:space="preserve"
   sodipodi:docname="face_07.svg"
   inkscape:version="0.92.2 (5c3e80d, 2017-08-06)"><metadata
     id="metadata79"><rdf:RDF><cc:Work
         rdf:about=""><dc:format>image/svg+xml</dc:format><dc:type
           rdf:resource="http://purl.org/dc/dcmitype/StillImage" /></cc:Work></rdf:RDF></metadata><defs
     id="defs77" /><sodipodi:namedview
     pagecolor="#ffffff"
     bordercolor="#666666"
     borderopacity="1"
     objecttolerance="10"
     gridtolerance="10"
     guidetolerance="10"
     inkscape:pageopacity="0"
     inkscape:pageshadow="2"
     inkscape:window-width="1920"
     inkscape:window-height="976"
     id="namedview75"
     showgrid="false"
     inkscape:zoom="8.34386"
     inkscape:cx="62.718694"
     inkscape:cy="71.199251"
     inkscape:window-x="0"
     inkscape:window-y="27"
     inkscape:window-maximized="1"
     inkscape:current-layer="Layer_1" /><style
     type="text/css"
     id="style2">
	.st0{fill:url(#SVGID_1_);}
	.st1{clip-path:url(#SVGID_3_);}
	.st2{fill:url(#SVGID_4_);}
	.st3{fill:url(#SVGID_5_);}
	.st4{fill:url(#SVGID_6_);}
	.st5{opacity:0.2;fill:#FFFFFF;enable-background:new    ;}
	.st6{opacity:0.2;enable-background:new    ;}
	.st7{fill:#EB5273;}
	.st8{opacity:0.2;}
	.st9{fill:#FBDB31;}
	.st10{opacity:5.000000e-02;}
</style><title
     id="title4">Artboard 42 copy 240</title><linearGradient
     id="SVGID_1_"
     gradientUnits="userSpaceOnUse"
     x1="93.81"
     y1="247.2896"
     x2="93.81"
     y2="264.3395"
     gradientTransform="matrix(1 0 0 -1 0 162)"><stop
       offset="0"
       style="stop-color:#A66707"
       id="stop6" /><stop
       offset="1"
       style="stop-color:#000000"
       id="stop8" /></linearGradient><linearGradient
     id="SVGID_5_"
     gradientUnits="userSpaceOnUse"
     x1="82"
     y1="85.19"
     x2="82"
     y2="94.99"
     gradientTransform="matrix(1 0 0 -1 0 162)"><stop
       offset="0"
       style="stop-color:#A66707"
       id="stop30" /><stop
       offset="0.5"
       style="stop-color:#9D6209"
       id="stop32" /><stop
       offset="1"
       style="stop-color:#000000"
       id="stop34" /></linearGradient><path
     class="st3"
     d="M76,77c0,0,0-12,6-12s6,11.6,6,11.6S83,65,76,77z"
     id="path37"
     style="fill:#010101;fill-opacity:1;opacity:0.6" /><linearGradient
     id="SVGID_6_"
     gradientUnits="userSpaceOnUse"
     x1="105.5"
     y1="87.65"
     x2="105.5"
     y2="96.62"
     gradientTransform="matrix(1 0 0 -1 0 162)"><stop
       offset="0"
       style="stop-color:#A66707"
       id="stop39" /><stop
       offset="0.5"
       style="stop-color:#9D6209"
       id="stop41" /><stop
       offset="1"
       style="stop-color:#000000"
       id="stop43" /></linearGradient><path
     class="st4"
     d="M100,76.5c0,0,0-11,5.5-11s5.5,10.6,5.5,10.6S106.4,65.5,100,76.5z"
     id="path46"
     style="fill:#010101;fill-opacity:1;opacity:0.6" /><path
     class="st6"
     d="M75,91.1c-0.2-1.5,0.4-2.9,1.4-3.9c0,0,10.8,0,13-4.6s4.3-10.1,7.9-7.8c5.7,3.3,5,7.8,8.6,10.1  s7.2,5.7,12.2,5.7s5.8,0.5,5.8,2.1s-2.2,4.7-6.5,3.1s-10.4-4.3-19.8-0.4s-5,4.7-10.8,2.3C82.7,95.9,78.8,93.7,75,91.1z"
     id="path50" /><path
     class="st6"
     d="M77.8,92.6l-0.6,2.9l2.2,3.6c0,0,6.5,0,8.7,2.2s13.7,5,20.9,2.9s6.7-8.6,6.7-8.6s-12.7,5.4-22.1,2.1  c-0.9,0.7-2,1.2-3.1,1.5c-2.2-0.7-4.4-1.5-6.6-2.5C81.6,95.7,79.6,94.3,77.8,92.6z"
     id="path52" /><path
     class="st7"
     d="M116.3,94.5c0,0-5.8-2.2-10.1-1.4s-9,1.8-11.3,3.4c0,0,2.4,1.7,7.2,1.3S114.2,96,116.3,94.5z"
     id="path54" /><g
     class="st8"
     id="g58"><path
       d="M116.3,94.5c0,0-5.8-2.2-10.1-1.4c-3.4,0.5-6.7,1.3-9.9,2.6C100.5,97.4,109.9,94.5,116.3,94.5z"
       id="path56" /></g><path
     class="st9"
     d="M76,90.9l1.4-3.6c0,0,10.8,0,13-4.3s4.3-9.4,7.9-7.2s5,7.2,8.6,9.4s7.2,4.3,12.2,4.3s5.7,1.4,5.7,2.9  s-2.2,4.3-6.5,2.9s-10.4-4-19.8-0.4s-5,4.3-10.8,2.2C83.7,95.4,79.8,93.3,76,90.9z"
     id="path60" /><g
     class="st10"
     id="g64"><path
       d="M76,90.9l1.4-3.6c4.6,3.2,9.7,5.7,15.1,7.2c4.3-5,21.6-5,32.4-2.2c0.1,1.4-2.2,4.3-6.5,2.9s-10.4-4-19.8-0.4   s-5,4.3-10.8,2.2C83.7,95.4,79.8,93.3,76,90.9z"
       id="path62" /></g><path
     d="M91.8,83l-0.7,2.2l5.1,4.3c0.4,0.4,1,0.4,1.4,0c0,0,0,0,0,0c0.7-0.7-2.2-3.6-2.2-3.6L93.3,83C92.9,82.6,92.3,82.6,91.8,83  C91.9,83,91.9,83,91.8,83z"
     id="path66" /><path
     class="st9"
     d="M78.8,92.6l-0.6,1.9l2.2,3.6c0,0,6.5,0,8.7,2.2s13.7,5,20.9,2.9s6.7-8.6,6.7-8.6s-12.7,5.4-22.1,2.1  c-0.9,0.7-2,1.2-3.1,1.5c-2.2-0.7-4.4-1.5-6.6-2.5C81.4,94.2,78.8,92.6,78.8,92.6z"
     id="path68" /><g
     class="st8"
     id="g72"><path
       d="M78.8,92.6l-0.6,1.9l2.2,3.6c0,0,6.5,0,8.7,2.2s13.7,5,20.9,2.9s6.7-8.6,6.7-8.6s-12.7,5.4-22.1,2.1   c-0.9,0.7-2,1.2-3.1,1.5c-2.2-0.7-4.4-1.5-6.6-2.5C81.4,94.2,78.8,92.6,78.8,92.6z"
       id="path70" /></g></svg>