<?xml version="1.0" encoding="utf-8"?>
<!-- Generator: Adobe Illustrator 16.0.0, SVG Export Plug-In . SVG Version: 6.00 Build 0)  -->
<!DOCTYPE svg PUBLIC "-//W3C//DTD SVG 1.1//EN" "http://www.w3.org/Graphics/SVG/1.1/DTD/svg11.dtd">
<svg version="1.1" id="Layer_1" xmlns="http://www.w3.org/2000/svg" xmlns:xlink="http://www.w3.org/1999/xlink" x="0px" y="0px"
	 width="160px" height="160px" viewBox="0 0 160 160" enable-background="new 0 0 160 160" xml:space="preserve">
<g id="f21">
	
		<path fill-opacity="0.8941" stroke="#000000" stroke-width="1.7" stroke-linecap="round" stroke-linejoin="round" stroke-miterlimit="1.5" d="
		M114.081,90.035c0.082,0.395,0.124,0.795,0.124,1.203c0,5.202-6.897,9.428-15.394,9.428c-8.498,0-15.396-4.226-15.396-9.428
		c0-0.408,0.043-0.809,0.125-1.203c0.966,4.636,7.438,8.225,15.271,8.225C106.642,98.26,113.115,94.671,114.081,90.035z"/>
	
		<path fill="#FFFFFF" fill-opacity="0.8941" stroke="#000000" stroke-width="1.7" stroke-linecap="round" stroke-linejoin="round" stroke-miterlimit="1.5" d="
		M107.864,66.134c1.986-3.981,5.957-3.981,7.943-1.99c1.985,1.99,1.985,5.973,0,9.953c-1.391,2.986-4.965,5.973-7.943,7.962
		c-2.979-1.989-6.553-4.976-7.942-7.962c-1.985-3.98-1.985-7.963,0-9.953C101.908,62.153,105.879,62.153,107.864,66.134z"/>
	
		<path fill="#FFFFFF" fill-opacity="0.8941" stroke="#000000" stroke-width="1.7" stroke-linecap="round" stroke-linejoin="round" stroke-miterlimit="1.5" d="
		M91.473,66.134c1.986-3.981,5.958-3.981,7.943-1.99c1.985,1.99,1.985,5.973,0,9.953c-1.39,2.986-4.964,5.973-7.943,7.962
		c-2.978-1.989-6.552-4.976-7.941-7.962c-1.986-3.98-1.986-7.963,0-9.953C85.517,62.153,89.487,62.153,91.473,66.134z"/>
</g>
</svg>
