<?xml version="1.0" encoding="utf-8"?>
<!-- Generator: Adobe Illustrator 16.0.0, SVG Export Plug-In . SVG Version: 6.00 Build 0)  -->
<!DOCTYPE svg PUBLIC "-//W3C//DTD SVG 1.1//EN" "http://www.w3.org/Graphics/SVG/1.1/DTD/svg11.dtd">
<svg version="1.1" id="Layer_1" xmlns="http://www.w3.org/2000/svg" xmlns:xlink="http://www.w3.org/1999/xlink" x="0px" y="0px"
	 width="160px" height="160px" viewBox="0 0 160 160" enable-background="new 0 0 160 160" xml:space="preserve">
<g id="f5">
	
		<path fill="#FFFFFF" fill-opacity="0.8941" stroke="#000000" stroke-width="1.7" stroke-linecap="round" stroke-linejoin="round" stroke-miterlimit="1.5" d="
		M83.392,77.609c-0.429-1.239-0.676-2.685-0.676-4.229c0-4.577,2.165-8.293,4.831-8.293c2.667,0,4.832,3.716,4.832,8.293
		c0,1.143-0.135,2.232-0.38,3.223c-0.842-2.432-2.389-4.064-4.155-4.064C85.843,72.539,84.125,74.631,83.392,77.609z"/>
	
		<path fill="#FFFFFF" fill-opacity="0.8941" stroke="#000000" stroke-width="1.7" stroke-linecap="round" stroke-linejoin="round" stroke-miterlimit="1.5" d="
		M114.103,77.609c0.43-1.239,0.676-2.685,0.676-4.229c0-4.577-2.166-8.293-4.832-8.293c-2.665,0-4.83,3.716-4.83,8.293
		c0,1.143,0.135,2.232,0.379,3.223c0.842-2.432,2.389-4.064,4.156-4.064C111.651,72.539,113.368,74.631,114.103,77.609z"/>
	
		<path fill="#001" stroke="#000000" stroke-width="1.7" stroke-linecap="round" stroke-linejoin="round" stroke-miterlimit="1.5" d="
		M73.289,84.621c0,0,6.106,2.576,10.495-2.166c8.753-9.459,14.683,0.338,14.683,0.338s7.687-7.958,14.522,0.953
		c3.419,4.457,7.918,0.395,7.918,0.395c-4.09,12.621-11.045,15.383-21.301,6.775C87.571,99.4,79.129,96.229,73.289,84.621z"/>
	
		<path fill="none" stroke="#000000" stroke-width="1.7" stroke-linecap="round" stroke-linejoin="round" stroke-miterlimit="1.5" d="
		M107.229,95.32c-6.446,4.127-12.125,3.732-17.336,0.57"/>
</g>
</svg>
