<?xml version="1.0" encoding="UTF-8" standalone="no"?><!DOCTYPE svg PUBLIC "-//W3C//DTD SVG 1.1//EN" "http://www.w3.org/Graphics/SVG/1.1/DTD/svg11.dtd"><svg width="100%" height="100%" viewBox="0 0 160 160" version="1.1" xmlns="http://www.w3.org/2000/svg" xmlns:xlink="http://www.w3.org/1999/xlink" xml:space="preserve" style="fill-rule:evenodd;clip-rule:evenodd;stroke-linecap:round;stroke-linejoin:round;"><g id="faces"><g id="panda"><path id="STROKE_88A83606.-420F.-4ABE.-9B02.-DC3A7BB1A655" d="M105.429,81.276c-0.09,-0.071 -0.169,-0.106 -0.237,-0.106c-0.069,0 -0.136,0.001 -0.201,0.004c-0.066,0.003 -0.126,-0.001 -0.183,-0.013c-0.056,-0.012 -0.114,-0.023 -0.173,-0.031c-0.059,-0.009 -0.119,-0.013 -0.178,-0.013c-0.059,0 -0.119,-0.007 -0.178,-0.022c-0.059,-0.015 -0.119,-0.022 -0.178,-0.022l-0.354,0c-0.062,0 -0.123,0.001 -0.182,0.004c-0.06,0.003 -0.119,0.004 -0.178,0.004c-0.06,0 -0.122,0 -0.187,0c-0.066,0 -0.133,-0.001 -0.201,-0.004c-0.069,-0.003 -0.135,-0.008 -0.201,-0.014c-0.065,-0.006 -0.128,-0.014 -0.187,-0.022c-0.059,-0.009 -0.119,-0.02 -0.178,-0.035c-0.059,-0.015 -0.122,-0.03 -0.187,-0.045c-0.066,-0.015 -0.136,-0.025 -0.21,-0.032c-0.075,-0.006 -0.149,-0.009 -0.222,-0.009l-0.385,0c-0.069,0 -0.135,-0.001 -0.201,-0.004c-0.065,-0.003 -0.135,-0.007 -0.209,-0.013c-0.073,-0.006 -0.138,-0.014 -0.195,-0.026c-0.056,-0.012 -0.113,-0.02 -0.17,-0.023c-0.057,-0.003 -0.12,-0.009 -0.188,-0.018c-0.068,-0.009 -0.139,-0.016 -0.213,-0.022c-0.074,-0.006 -0.139,-0.009 -0.196,-0.009l-0.78,0c-0.065,0 -0.129,0.002 -0.191,0.005c-0.063,0.003 -0.127,0.004 -0.192,0.004c-0.065,0 -0.131,0 -0.196,0c-0.066,0 -0.131,0.003 -0.197,0.009c-0.065,0.005 -0.126,0.013 -0.182,0.022c-0.056,0.009 -0.122,0.018 -0.196,0.026c-0.075,0.009 -0.143,0.015 -0.206,0.018c-0.062,0.004 -0.126,0.008 -0.191,0.014c-0.066,0.006 -0.131,0.013 -0.196,0.022c-0.066,0.009 -0.133,0.018 -0.201,0.027c-0.069,0.008 -0.131,0.02 -0.187,0.035c-0.057,0.015 -0.113,0.027 -0.17,0.036c-0.057,0.009 -0.118,0.02 -0.183,0.032c-0.065,0.012 -0.128,0.019 -0.192,0.022c-0.063,0.003 -0.125,0.006 -0.188,0.008c-0.062,0.003 -0.122,0.009 -0.178,0.018c-0.056,0.009 -0.115,0.024 -0.178,0.045c-0.062,0.02 -0.122,0.039 -0.178,0.057c-0.056,0.018 -0.114,0.031 -0.173,0.04c-0.06,0.01 -0.118,0.022 -0.175,0.036c-0.057,0.015 -0.113,0.031 -0.17,0.049c-0.056,0.018 -0.115,0.034 -0.178,0.049c-0.062,0.015 -0.121,0.031 -0.177,0.048c-0.057,0.018 -0.116,0.036 -0.179,0.054c-0.062,0.019 -0.123,0.035 -0.182,0.05c-0.06,0.015 -0.12,0.032 -0.183,0.053c-0.062,0.021 -0.12,0.041 -0.174,0.062c-0.054,0.02 -0.112,0.038 -0.175,0.053l-0.093,0.022" style="fill:none;stroke:#000;stroke-width:1.7px;"/><path id="STROKE_32AD3F7D.-9F93.-446E.-98E6.-65CB8E690D82" d="M105.438,81.473c0.084,-0.078 0.155,-0.113 0.214,-0.107c0.06,0.006 0.113,0.027 0.16,0.062c0.047,0.036 0.099,0.064 0.155,0.084c0.057,0.021 0.115,0.043 0.175,0.067c0.06,0.024 0.114,0.058 0.161,0.103c0.047,0.044 0.093,0.092 0.138,0.142c0.045,0.05 0.089,0.096 0.133,0.137c0.044,0.042 0.089,0.081 0.134,0.117c0.045,0.036 0.077,0.083 0.098,0.143c0.02,0.059 0.035,0.12 0.044,0.182c0.009,0.062 0.016,0.128 0.019,0.196c0.003,0.068 0.004,0.135 0.004,0.2c0,0.065 -0.008,0.128 -0.023,0.187c-0.015,0.059 -0.034,0.12 -0.058,0.182c-0.023,0.062 -0.047,0.121 -0.071,0.178c-0.023,0.056 -0.05,0.116 -0.08,0.178c-0.029,0.062 -0.065,0.117 -0.107,0.165c-0.042,0.048 -0.086,0.093 -0.133,0.134c-0.047,0.042 -0.092,0.085 -0.133,0.13c-0.042,0.044 -0.086,0.092 -0.131,0.142c-0.045,0.05 -0.092,0.093 -0.142,0.128c-0.05,0.035 -0.103,0.065 -0.157,0.089c-0.054,0.024 -0.11,0.049 -0.17,0.076c-0.059,0.027 -0.114,0.056 -0.164,0.089c-0.05,0.033 -0.099,0.068 -0.147,0.107c-0.048,0.039 -0.099,0.077 -0.152,0.116c-0.053,0.038 -0.111,0.072 -0.173,0.101c-0.063,0.03 -0.123,0.058 -0.183,0.085c-0.059,0.027 -0.117,0.06 -0.173,0.099c-0.056,0.038 -0.11,0.077 -0.161,0.115c-0.051,0.038 -0.101,0.077 -0.152,0.115c-0.05,0.039 -0.104,0.075 -0.161,0.108c-0.057,0.032 -0.113,0.065 -0.169,0.097c-0.057,0.033 -0.112,0.059 -0.165,0.081c-0.053,0.021 -0.109,0.043 -0.169,0.066c-0.059,0.024 -0.116,0.052 -0.17,0.085c-0.054,0.033 -0.109,0.06 -0.165,0.081c-0.056,0.02 -0.111,0.045 -0.164,0.074c-0.054,0.03 -0.107,0.061 -0.16,0.094c-0.053,0.032 -0.11,0.059 -0.17,0.08c-0.06,0.022 -0.118,0.047 -0.175,0.076c-0.056,0.03 -0.115,0.06 -0.178,0.09c-0.062,0.029 -0.124,0.057 -0.187,0.084c-0.062,0.027 -0.122,0.052 -0.178,0.076c-0.056,0.023 -0.115,0.048 -0.178,0.075c-0.062,0.027 -0.126,0.046 -0.191,0.058c-0.066,0.012 -0.13,0.025 -0.192,0.04c-0.062,0.015 -0.126,0.03 -0.192,0.045c-0.065,0.015 -0.126,0.028 -0.183,0.04c-0.057,0.012 -0.118,0.022 -0.183,0.031c-0.065,0.008 -0.125,0.014 -0.182,0.018c-0.057,0.003 -0.119,0.005 -0.184,0.005c-0.066,0 -0.128,0.001 -0.187,0.004c-0.06,0.003 -0.119,0.01 -0.178,0.022c-0.06,0.012 -0.122,0.02 -0.187,0.023c-0.066,0.002 -0.128,0.004 -0.187,0.004c-0.06,0 -0.118,-0.005 -0.174,-0.014c-0.056,-0.009 -0.114,-0.024 -0.174,-0.044c-0.061,-0.021 -0.12,-0.044 -0.179,-0.071c-0.06,-0.027 -0.116,-0.051 -0.169,-0.072c-0.054,-0.021 -0.107,-0.042 -0.16,-0.063c-0.053,-0.02 -0.11,-0.043 -0.169,-0.067c-0.059,-0.024 -0.119,-0.05 -0.179,-0.08c-0.06,-0.029 -0.118,-0.063 -0.175,-0.102c-0.056,-0.038 -0.105,-0.076 -0.147,-0.115c-0.042,-0.039 -0.086,-0.079 -0.133,-0.121c-0.047,-0.041 -0.101,-0.08 -0.16,-0.116c-0.059,-0.035 -0.118,-0.064 -0.174,-0.088c-0.058,-0.024 -0.116,-0.047 -0.175,-0.067c-0.059,-0.021 -0.117,-0.044 -0.173,-0.071c-0.057,-0.027 -0.11,-0.054 -0.16,-0.08c-0.05,-0.027 -0.103,-0.052 -0.157,-0.076c-0.054,-0.023 -0.106,-0.048 -0.156,-0.075c-0.05,-0.027 -0.106,-0.054 -0.169,-0.081c-0.062,-0.026 -0.124,-0.043 -0.187,-0.048c-0.062,-0.006 -0.124,-0.022 -0.187,-0.049c-0.062,-0.027 -0.123,-0.06 -0.182,-0.099c-0.06,-0.038 -0.12,-0.074 -0.18,-0.106c-0.06,-0.033 -0.119,-0.061 -0.179,-0.085c-0.059,-0.024 -0.117,-0.048 -0.173,-0.071c-0.056,-0.023 -0.11,-0.05 -0.16,-0.08c-0.05,-0.029 -0.102,-0.062 -0.156,-0.098c-0.054,-0.036 -0.105,-0.075 -0.152,-0.117c-0.047,-0.041 -0.096,-0.081 -0.147,-0.119c-0.051,-0.038 -0.104,-0.072 -0.161,-0.102c-0.056,-0.03 -0.111,-0.059 -0.164,-0.089c-0.053,-0.03 -0.105,-0.058 -0.156,-0.085c-0.051,-0.027 -0.102,-0.058 -0.152,-0.093c-0.05,-0.035 -0.099,-0.075 -0.147,-0.12c-0.048,-0.044 -0.093,-0.087 -0.134,-0.129c-0.041,-0.042 -0.084,-0.082 -0.129,-0.121c-0.045,-0.038 -0.085,-0.08 -0.121,-0.125c-0.035,-0.044 -0.068,-0.099 -0.098,-0.164c-0.029,-0.065 -0.058,-0.132 -0.084,-0.2c-0.027,-0.069 -0.045,-0.132 -0.054,-0.192l-0.013,-0.089" style="fill:none;stroke:#000;stroke-width:1.7px;"/><path id="STROKE_4998A95C.-6416.-44C5.-B39D.-B368CF6A9BA9" d="M105.579,82.488c0,0.118 -0.025,0.215 -0.075,0.289c-0.05,0.074 -0.101,0.131 -0.152,0.169c-0.051,0.039 -0.095,0.086 -0.133,0.142c-0.038,0.056 -0.1,0.125 -0.187,0.205c-0.087,0.08 -0.155,0.15 -0.206,0.209c-0.05,0.06 -0.1,0.118 -0.15,0.174c-0.05,0.057 -0.104,0.116 -0.161,0.178c-0.057,0.062 -0.112,0.125 -0.166,0.187c-0.053,0.062 -0.107,0.124 -0.164,0.186c-0.056,0.062 -0.111,0.123 -0.165,0.183c-0.054,0.059 -0.105,0.109 -0.152,0.151c-0.047,0.042 -0.099,0.094 -0.155,0.156c-0.056,0.063 -0.11,0.117 -0.161,0.162c-0.051,0.044 -0.118,0.1 -0.201,0.168c-0.083,0.068 -0.158,0.129 -0.227,0.182c-0.068,0.054 -0.135,0.1 -0.2,0.138c-0.066,0.038 -0.124,0.071 -0.175,0.098c-0.051,0.026 -0.105,0.05 -0.161,0.072c-0.056,0.021 -0.111,0.015 -0.164,-0.018c-0.053,-0.034 -0.071,-0.083 -0.054,-0.148c0.018,-0.065 0.04,-0.126 0.067,-0.182c0.028,-0.057 0.057,-0.113 0.089,-0.169c0.033,-0.057 0.069,-0.119 0.111,-0.187c0.042,-0.068 0.09,-0.142 0.144,-0.222c0.054,-0.081 0.109,-0.165 0.165,-0.255c0.057,-0.089 0.117,-0.18 0.183,-0.275c0.065,-0.095 0.117,-0.173 0.156,-0.236c0.039,-0.063 0.092,-0.145 0.16,-0.245c0.067,-0.1 0.131,-0.194 0.192,-0.28c0.06,-0.086 0.105,-0.154 0.134,-0.205c0.03,-0.051 0.071,-0.121 0.124,-0.21c0.054,-0.089 0.1,-0.166 0.139,-0.231c0.038,-0.065 0.071,-0.127 0.098,-0.186c0.026,-0.059 0.002,-0.071 -0.072,-0.036c-0.075,0.035 -0.146,0.084 -0.215,0.146c-0.068,0.062 -0.145,0.135 -0.231,0.218c-0.086,0.084 -0.152,0.149 -0.197,0.196c-0.045,0.048 -0.087,0.095 -0.128,0.143c-0.041,0.048 -0.089,0.104 -0.143,0.169c-0.054,0.066 -0.105,0.132 -0.152,0.201c-0.047,0.068 -0.096,0.136 -0.147,0.204c-0.051,0.068 -0.105,0.142 -0.161,0.223c-0.056,0.08 -0.111,0.159 -0.164,0.236c-0.053,0.077 -0.105,0.151 -0.156,0.222c-0.051,0.072 -0.107,0.152 -0.166,0.241c-0.059,0.089 -0.116,0.173 -0.169,0.253c-0.053,0.08 -0.104,0.156 -0.151,0.227c-0.048,0.071 -0.096,0.144 -0.143,0.218c-0.047,0.074 -0.093,0.147 -0.138,0.218c-0.045,0.072 -0.086,0.134 -0.125,0.188c-0.038,0.053 -0.076,0.108 -0.115,0.165c-0.038,0.056 -0.074,0.108 -0.107,0.155c-0.032,0.048 -0.076,0.101 -0.13,0.16c-0.054,0.06 -0.109,0.107 -0.165,0.142c-0.057,0.036 -0.101,0.025 -0.134,-0.031c-0.033,-0.057 -0.044,-0.126 -0.035,-0.209c0.009,-0.083 0.031,-0.176 0.067,-0.28c0.036,-0.104 0.067,-0.187 0.093,-0.25c0.027,-0.062 0.066,-0.144 0.116,-0.244c0.05,-0.101 0.092,-0.184 0.124,-0.249c0.033,-0.066 0.066,-0.127 0.098,-0.183c0.033,-0.057 0.067,-0.112 0.103,-0.165c0.036,-0.053 0.073,-0.107 0.112,-0.164c0.039,-0.056 0.076,-0.11 0.112,-0.161c0.035,-0.051 0.077,-0.108 0.124,-0.173c0.047,-0.065 0.095,-0.128 0.143,-0.187c0.047,-0.059 0.095,-0.119 0.142,-0.178c0.047,-0.059 0.097,-0.12 0.147,-0.182c0.051,-0.062 0.1,-0.125 0.148,-0.188c0.047,-0.062 0.09,-0.122 0.129,-0.177c0.038,-0.056 0.082,-0.119 0.13,-0.187c0.047,-0.069 0.091,-0.134 0.13,-0.196c0.038,-0.062 0.085,-0.142 0.138,-0.241c0.053,-0.098 0.097,-0.185 0.133,-0.262c0.036,-0.077 0.064,-0.144 0.084,-0.2c0.021,-0.057 -0.001,-0.09 -0.067,-0.099c-0.065,-0.009 -0.127,0.012 -0.187,0.063c-0.059,0.05 -0.125,0.113 -0.196,0.187c-0.072,0.074 -0.132,0.138 -0.183,0.191c-0.05,0.053 -0.102,0.106 -0.156,0.16c-0.054,0.053 -0.109,0.113 -0.165,0.178c-0.057,0.066 -0.116,0.137 -0.178,0.214c-0.063,0.078 -0.124,0.156 -0.183,0.236c-0.059,0.08 -0.117,0.16 -0.173,0.24c-0.057,0.081 -0.119,0.17 -0.187,0.267c-0.069,0.098 -0.136,0.196 -0.201,0.294c-0.066,0.098 -0.129,0.198 -0.192,0.298c-0.062,0.101 -0.123,0.202 -0.182,0.303c-0.06,0.101 -0.12,0.199 -0.183,0.294c-0.062,0.094 -0.119,0.186 -0.17,0.275c-0.051,0.089 -0.107,0.186 -0.17,0.29c-0.062,0.103 -0.117,0.192 -0.164,0.266c-0.047,0.075 -0.099,0.151 -0.156,0.228c-0.057,0.078 -0.114,0.153 -0.17,0.228c-0.057,0.074 -0.11,0.142 -0.16,0.204c-0.05,0.062 -0.095,0.114 -0.134,0.156c-0.038,0.041 -0.091,0.087 -0.156,0.138c-0.065,0.05 -0.126,0.057 -0.182,0.022c-0.057,-0.035 -0.085,-0.11 -0.085,-0.223c0,-0.112 0.012,-0.201 0.035,-0.267c0.024,-0.065 0.052,-0.134 0.085,-0.208c0.033,-0.075 0.065,-0.153 0.098,-0.236c0.033,-0.084 0.068,-0.167 0.107,-0.25c0.039,-0.084 0.082,-0.173 0.129,-0.267c0.047,-0.095 0.095,-0.185 0.143,-0.271c0.048,-0.087 0.097,-0.176 0.147,-0.268c0.05,-0.091 0.103,-0.183 0.16,-0.276c0.056,-0.092 0.109,-0.181 0.16,-0.267c0.051,-0.085 0.113,-0.183 0.184,-0.293c0.072,-0.11 0.139,-0.217 0.201,-0.321c0.062,-0.104 0.125,-0.208 0.187,-0.312c0.062,-0.104 0.123,-0.209 0.183,-0.316c0.059,-0.106 0.117,-0.209 0.173,-0.306c0.056,-0.099 0.109,-0.191 0.156,-0.277c0.048,-0.086 0.099,-0.181 0.152,-0.285c0.053,-0.104 0.099,-0.191 0.138,-0.263c0.039,-0.071 0.076,-0.142 0.112,-0.214c0.036,-0.071 0.067,-0.133 0.093,-0.186c0.027,-0.053 0.063,-0.12 0.108,-0.2c0.045,-0.081 0.079,-0.147 0.102,-0.2c0.024,-0.053 0.01,-0.053 -0.041,0c-0.051,0.053 -0.113,0.121 -0.187,0.204c-0.074,0.083 -0.128,0.147 -0.164,0.192c-0.036,0.044 -0.081,0.099 -0.135,0.164c-0.054,0.065 -0.106,0.128 -0.156,0.187c-0.05,0.06 -0.104,0.123 -0.16,0.188c-0.056,0.065 -0.114,0.13 -0.173,0.195c-0.059,0.065 -0.122,0.136 -0.187,0.214c-0.066,0.077 -0.125,0.147 -0.179,0.209c-0.054,0.063 -0.116,0.134 -0.184,0.214c-0.069,0.079 -0.128,0.151 -0.178,0.214c-0.05,0.062 -0.108,0.135 -0.174,0.218c-0.065,0.082 -0.121,0.155 -0.168,0.217c-0.047,0.062 -0.098,0.127 -0.152,0.196c-0.054,0.068 -0.108,0.137 -0.161,0.205c-0.053,0.069 -0.104,0.134 -0.152,0.196c-0.048,0.062 -0.095,0.123 -0.142,0.182c-0.047,0.06 -0.092,0.112 -0.134,0.156c-0.042,0.045 -0.082,0.088 -0.12,0.129c-0.039,0.042 -0.09,0.093 -0.153,0.152c-0.062,0.059 -0.118,0.105 -0.168,0.138c-0.05,0.032 -0.105,0.054 -0.165,0.066c-0.059,0.012 -0.095,-0.017 -0.107,-0.089c-0.012,-0.071 -0.008,-0.139 0.013,-0.204c0.02,-0.065 0.049,-0.133 0.084,-0.205c0.036,-0.071 0.078,-0.142 0.126,-0.214c0.048,-0.071 0.098,-0.144 0.151,-0.218c0.054,-0.074 0.113,-0.151 0.178,-0.232c0.066,-0.08 0.134,-0.163 0.206,-0.249c0.071,-0.085 0.125,-0.15 0.161,-0.195c0.036,-0.044 0.071,-0.091 0.107,-0.139c0.036,-0.047 0.071,-0.095 0.107,-0.142c0.036,-0.048 0.07,-0.096 0.103,-0.146c0.032,-0.051 0.064,-0.101 0.093,-0.152c0.03,-0.051 0.068,-0.125 0.115,-0.222c0.048,-0.098 0.088,-0.191 0.12,-0.28c0.033,-0.089 0.06,-0.167 0.08,-0.232c0.021,-0.066 0.037,-0.13 0.049,-0.192c0.012,-0.062 -0.017,-0.077 -0.089,-0.044c-0.071,0.032 -0.148,0.094 -0.231,0.186c-0.083,0.092 -0.145,0.163 -0.187,0.214c-0.042,0.051 -0.09,0.109 -0.143,0.174c-0.053,0.065 -0.107,0.13 -0.16,0.196c-0.053,0.065 -0.105,0.132 -0.156,0.2c-0.051,0.068 -0.101,0.136 -0.152,0.204c-0.05,0.069 -0.098,0.136 -0.142,0.201c-0.045,0.065 -0.085,0.124 -0.121,0.177c-0.036,0.054 -0.076,0.114 -0.12,0.178c-0.044,0.066 -0.096,0.144 -0.157,0.237c-0.059,0.092 -0.112,0.17 -0.156,0.232c-0.044,0.062 -0.085,0.117 -0.124,0.164c-0.039,0.047 -0.085,0.092 -0.138,0.133c-0.053,0.042 -0.095,0.026 -0.124,-0.048c-0.03,-0.075 -0.038,-0.144 -0.023,-0.209c0.014,-0.065 0.038,-0.135 0.071,-0.209c0.032,-0.074 0.069,-0.151 0.111,-0.232c0.042,-0.08 0.088,-0.165 0.138,-0.254c0.051,-0.089 0.105,-0.178 0.165,-0.267c0.059,-0.089 0.121,-0.179 0.187,-0.271c0.065,-0.092 0.129,-0.181 0.191,-0.267c0.063,-0.086 0.118,-0.162 0.166,-0.228c0.048,-0.065 0.09,-0.125 0.125,-0.178c0.036,-0.053 0.064,-0.106 0.085,-0.16c0.02,-0.053 -0.004,-0.062 -0.072,-0.026c-0.069,0.036 -0.137,0.088 -0.205,0.155c-0.069,0.068 -0.125,0.126 -0.169,0.173c-0.044,0.048 -0.089,0.095 -0.134,0.143c-0.045,0.048 -0.091,0.096 -0.138,0.143c-0.047,0.048 -0.095,0.098 -0.143,0.151c-0.047,0.054 -0.095,0.103 -0.142,0.148c-0.047,0.044 -0.099,0.097 -0.156,0.16c-0.057,0.062 -0.111,0.118 -0.161,0.168c-0.05,0.051 -0.101,0.103 -0.151,0.156c-0.05,0.054 -0.095,0.101 -0.133,0.143c-0.039,0.042 -0.079,0.085 -0.121,0.129c-0.042,0.045 -0.1,0.101 -0.175,0.169c-0.074,0.068 -0.138,0.121 -0.192,0.16c-0.053,0.039 -0.107,0.065 -0.164,0.08c-0.056,0.015 -0.099,-0.012 -0.129,-0.08c-0.029,-0.069 -0.044,-0.141 -0.044,-0.219c0,-0.077 0.015,-0.158 0.044,-0.244c0.03,-0.086 0.067,-0.174 0.111,-0.263c0.044,-0.089 0.096,-0.179 0.156,-0.271c0.06,-0.092 0.107,-0.161 0.139,-0.209c0.033,-0.047 0.082,-0.114 0.146,-0.2c0.065,-0.086 0.115,-0.152 0.151,-0.196c0.036,-0.044 0.084,-0.105 0.144,-0.182c0.06,-0.077 0.105,-0.144 0.135,-0.201c0.029,-0.056 0.014,-0.078 -0.046,-0.066c-0.06,0.012 -0.12,0.053 -0.179,0.124c-0.06,0.071 -0.122,0.145 -0.187,0.222c-0.066,0.078 -0.134,0.149 -0.205,0.214c-0.07,0.065 -0.141,0.13 -0.213,0.195c-0.072,0.065 -0.143,0.126 -0.214,0.183c-0.072,0.056 -0.142,0.111 -0.21,0.165c-0.069,0.053 -0.136,0.107 -0.201,0.161c-0.065,0.053 -0.125,0.105 -0.178,0.155c-0.053,0.05 -0.104,0.093 -0.152,0.129c-0.048,0.035 -0.098,0.063 -0.151,0.084c-0.054,0.022 -0.095,-0.001 -0.125,-0.066c-0.03,-0.066 -0.044,-0.133 -0.044,-0.2c0,-0.068 0.011,-0.14 0.035,-0.214c0.024,-0.074 0.052,-0.151 0.084,-0.232c0.033,-0.08 0.072,-0.162 0.117,-0.244c0.045,-0.083 0.087,-0.165 0.128,-0.245c0.042,-0.08 0.076,-0.15 0.103,-0.21c0.028,-0.059 0.044,-0.117 0.05,-0.173c0.005,-0.057 -0.029,-0.063 -0.103,-0.018c-0.074,0.044 -0.142,0.105 -0.205,0.183c-0.062,0.077 -0.124,0.159 -0.187,0.245c-0.062,0.085 -0.12,0.164 -0.174,0.235c-0.054,0.071 -0.106,0.141 -0.156,0.209c-0.051,0.069 -0.1,0.124 -0.148,0.166c-0.048,0.041 -0.101,0.081 -0.161,0.12c-0.059,0.038 -0.12,0.061 -0.182,0.07c-0.062,0.01 -0.123,0.005 -0.183,-0.012c-0.059,-0.018 -0.12,-0.042 -0.182,-0.072c-0.063,-0.029 -0.123,-0.056 -0.183,-0.08c-0.059,-0.024 -0.116,-0.045 -0.17,-0.062l-0.081,-0.027" style="fill:none;stroke:#000;stroke-width:1.7px;"/><path id="STROKE_D4F3B4A3.-808E.-490E.-AAB1.-3610311F6533" d="M113.543,72.126c-0.125,0 -0.214,-0.009 -0.269,-0.027c-0.053,-0.017 -0.106,-0.043 -0.156,-0.076c-0.05,-0.033 -0.103,-0.084 -0.159,-0.151c-0.057,-0.068 -0.104,-0.123 -0.143,-0.165c-0.039,-0.041 -0.076,-0.086 -0.112,-0.133c-0.035,-0.047 -0.07,-0.095 -0.102,-0.143c-0.033,-0.048 -0.064,-0.098 -0.094,-0.152c-0.03,-0.053 -0.059,-0.112 -0.089,-0.178c-0.03,-0.065 -0.059,-0.138 -0.089,-0.218c-0.03,-0.079 -0.056,-0.146 -0.08,-0.2c-0.024,-0.053 -0.049,-0.116 -0.076,-0.187c-0.028,-0.071 -0.053,-0.135 -0.077,-0.191c-0.023,-0.056 -0.05,-0.118 -0.08,-0.186c-0.029,-0.069 -0.057,-0.133 -0.084,-0.192c-0.027,-0.059 -0.053,-0.122 -0.08,-0.188c-0.026,-0.065 -0.053,-0.131 -0.08,-0.196c-0.027,-0.065 -0.055,-0.131 -0.085,-0.2c-0.031,-0.068 -0.062,-0.141 -0.095,-0.218c-0.033,-0.077 -0.061,-0.142 -0.085,-0.196c-0.023,-0.053 -0.048,-0.107 -0.075,-0.16c-0.026,-0.053 -0.053,-0.106 -0.08,-0.16c-0.026,-0.053 -0.051,-0.107 -0.075,-0.16c-0.024,-0.053 -0.053,-0.112 -0.089,-0.178c-0.036,-0.065 -0.068,-0.126 -0.098,-0.183c-0.03,-0.057 -0.061,-0.114 -0.094,-0.174c-0.032,-0.059 -0.067,-0.115 -0.102,-0.168c-0.036,-0.053 -0.076,-0.113 -0.121,-0.178c-0.045,-0.066 -0.085,-0.131 -0.121,-0.196c-0.036,-0.065 -0.072,-0.135 -0.107,-0.209c-0.036,-0.074 -0.069,-0.145 -0.098,-0.214c-0.03,-0.068 -0.057,-0.134 -0.08,-0.196c-0.024,-0.062 -0.047,-0.123 -0.071,-0.182c-0.024,-0.059 -0.049,-0.119 -0.076,-0.178c-0.026,-0.059 -0.05,-0.119 -0.071,-0.178c-0.022,-0.059 -0.044,-0.123 -0.067,-0.192c-0.024,-0.068 -0.048,-0.139 -0.071,-0.214c-0.024,-0.074 -0.049,-0.145 -0.076,-0.214c-0.026,-0.068 -0.057,-0.133 -0.093,-0.196c-0.036,-0.062 -0.07,-0.122 -0.103,-0.182c-0.033,-0.059 -0.06,-0.116 -0.081,-0.169c-0.021,-0.054 -0.044,-0.11 -0.067,-0.17c-0.024,-0.059 -0.049,-0.117 -0.076,-0.173c-0.026,-0.055 -0.056,-0.109 -0.088,-0.16c-0.033,-0.05 -0.073,-0.099 -0.121,-0.147c-0.048,-0.047 -0.096,-0.093 -0.143,-0.137c-0.047,-0.045 -0.093,-0.092 -0.138,-0.143c-0.045,-0.051 -0.089,-0.099 -0.133,-0.143c-0.045,-0.045 -0.092,-0.085 -0.143,-0.12c-0.051,-0.035 -0.103,-0.075 -0.156,-0.12c-0.053,-0.044 -0.108,-0.084 -0.165,-0.12c-0.056,-0.035 -0.115,-0.057 -0.178,-0.066c-0.062,-0.009 -0.124,-0.017 -0.187,-0.022c-0.062,-0.006 -0.123,-0.011 -0.184,-0.014c-0.059,-0.004 -0.121,-0.005 -0.183,-0.005c-0.063,0 -0.126,0 -0.192,0c-0.065,0 -0.132,0.003 -0.199,0.009c-0.068,0.006 -0.136,0.018 -0.205,0.036c-0.068,0.018 -0.133,0.035 -0.196,0.053c-0.062,0.018 -0.12,0.037 -0.174,0.058c-0.055,0.021 -0.111,0.044 -0.17,0.067c-0.06,0.023 -0.119,0.051 -0.178,0.084c-0.06,0.032 -0.116,0.067 -0.169,0.103c-0.054,0.035 -0.109,0.076 -0.166,0.12c-0.057,0.045 -0.109,0.085 -0.156,0.12c-0.047,0.035 -0.097,0.074 -0.15,0.115c-0.054,0.042 -0.104,0.087 -0.152,0.134c-0.048,0.047 -0.095,0.096 -0.139,0.147c-0.045,0.051 -0.091,0.103 -0.139,0.156c-0.047,0.053 -0.094,0.103 -0.142,0.151c-0.048,0.048 -0.096,0.1 -0.143,0.156c-0.047,0.056 -0.09,0.108 -0.129,0.156c-0.038,0.048 -0.076,0.097 -0.111,0.147c-0.036,0.05 -0.079,0.106 -0.129,0.169c-0.05,0.062 -0.095,0.115 -0.134,0.16c-0.039,0.044 -0.079,0.098 -0.121,0.16c-0.042,0.063 -0.077,0.121 -0.107,0.174c-0.03,0.053 -0.059,0.108 -0.089,0.164c-0.03,0.057 -0.058,0.115 -0.085,0.174c-0.026,0.059 -0.053,0.114 -0.079,0.165c-0.027,0.051 -0.055,0.109 -0.085,0.174c-0.029,0.065 -0.061,0.132 -0.093,0.2c-0.033,0.069 -0.064,0.129 -0.094,0.182c-0.029,0.053 -0.061,0.11 -0.093,0.169c-0.033,0.059 -0.06,0.116 -0.082,0.169c-0.021,0.054 -0.043,0.111 -0.067,0.17c-0.023,0.059 -0.045,0.121 -0.066,0.186c-0.02,0.065 -0.04,0.129 -0.058,0.192c-0.018,0.063 -0.033,0.128 -0.045,0.196c-0.011,0.068 -0.023,0.133 -0.035,0.196c-0.012,0.063 -0.027,0.128 -0.045,0.196c-0.019,0.068 -0.035,0.134 -0.05,0.2c-0.014,0.066 -0.023,0.128 -0.026,0.187c-0.003,0.06 -0.007,0.119 -0.014,0.178c-0.006,0.06 -0.01,0.12 -0.013,0.183c-0.003,0.062 -0.006,0.123 -0.009,0.182c-0.003,0.059 -0.008,0.119 -0.013,0.178c-0.005,0.059 -0.009,0.12 -0.012,0.182c-0.004,0.062 -0.005,0.128 -0.005,0.196l0,0.378c0,0.065 0.004,0.129 0.013,0.192c0.008,0.063 0.017,0.122 0.026,0.179c0.009,0.056 0.018,0.118 0.027,0.186c0.009,0.068 0.017,0.13 0.023,0.187c0.006,0.056 0.019,0.111 0.04,0.165c0.021,0.054 0.049,0.107 0.084,0.16c0.036,0.053 0.064,0.106 0.085,0.16c0.02,0.054 0.037,0.111 0.049,0.174c0.012,0.062 0.027,0.123 0.044,0.182c0.018,0.059 0.036,0.122 0.054,0.187c0.018,0.066 0.033,0.13 0.045,0.192c0.011,0.062 0.024,0.124 0.039,0.186c0.015,0.063 0.032,0.128 0.049,0.196c0.018,0.069 0.034,0.131 0.049,0.188c0.016,0.056 0.028,0.114 0.037,0.174c0.009,0.059 0.019,0.117 0.031,0.172c0.011,0.056 0.027,0.117 0.049,0.182c0.021,0.066 0.04,0.127 0.058,0.184c0.017,0.056 0.036,0.111 0.057,0.164c0.02,0.053 0.044,0.111 0.072,0.174c0.027,0.063 0.057,0.125 0.09,0.187c0.033,0.062 0.066,0.121 0.098,0.178c0.033,0.057 0.063,0.117 0.089,0.182c0.027,0.065 0.049,0.128 0.066,0.187c0.018,0.059 0.034,0.119 0.049,0.178c0.016,0.059 0.034,0.12 0.054,0.182c0.021,0.062 0.043,0.123 0.066,0.182c0.024,0.06 0.055,0.118 0.094,0.174c0.038,0.057 0.076,0.114 0.112,0.174c0.035,0.059 0.07,0.12 0.102,0.183c0.033,0.063 0.063,0.121 0.089,0.174c0.027,0.053 0.057,0.105 0.089,0.155c0.033,0.051 0.067,0.103 0.103,0.156c0.036,0.053 0.071,0.108 0.107,0.164c0.036,0.057 0.073,0.113 0.112,0.17c0.039,0.056 0.077,0.111 0.116,0.165c0.039,0.053 0.084,0.102 0.134,0.147c0.05,0.045 0.103,0.086 0.16,0.124c0.056,0.038 0.105,0.081 0.147,0.128c0.041,0.048 0.082,0.095 0.121,0.143c0.038,0.048 0.08,0.099 0.124,0.152c0.044,0.053 0.092,0.105 0.143,0.155c0.05,0.051 0.101,0.1 0.151,0.148c0.05,0.047 0.101,0.093 0.152,0.138c0.051,0.044 0.103,0.09 0.156,0.137c0.053,0.048 0.105,0.095 0.155,0.143c0.051,0.048 0.103,0.097 0.157,0.147c0.054,0.05 0.107,0.104 0.161,0.16c0.053,0.057 0.102,0.11 0.147,0.16c0.045,0.05 0.089,0.098 0.133,0.142c0.044,0.045 0.089,0.087 0.134,0.125c0.045,0.039 0.095,0.076 0.151,0.112c0.057,0.035 0.116,0.063 0.178,0.084c0.063,0.021 0.125,0.048 0.188,0.081c0.062,0.032 0.117,0.066 0.165,0.101c0.048,0.036 0.094,0.072 0.138,0.107c0.044,0.036 0.095,0.072 0.152,0.107c0.057,0.036 0.115,0.064 0.174,0.085c0.06,0.021 0.124,0.037 0.192,0.049c0.069,0.011 0.135,0.023 0.201,0.035c0.065,0.012 0.133,0.028 0.204,0.05c0.071,0.021 0.135,0.04 0.192,0.058c0.057,0.017 0.115,0.035 0.174,0.053c0.06,0.017 0.117,0.035 0.174,0.053c0.056,0.018 0.112,0.032 0.169,0.044c0.056,0.012 0.12,0.018 0.191,0.018c0.072,0 0.145,0 0.219,0c0.075,0 0.142,0.002 0.201,0.005c0.059,0.003 0.117,0.01 0.173,0.022c0.057,0.012 0.118,0.025 0.183,0.04c0.065,0.015 0.128,0.025 0.187,0.031c0.059,0.006 0.12,0.008 0.183,0.008c0.062,0 0.124,0 0.187,0c0.062,0 0.129,-0.005 0.201,-0.017c0.071,-0.011 0.141,-0.026 0.209,-0.044c0.069,-0.018 0.13,-0.038 0.183,-0.058c0.053,-0.021 0.11,-0.049 0.169,-0.084c0.059,-0.036 0.114,-0.067 0.165,-0.093c0.051,-0.027 0.108,-0.054 0.17,-0.081c0.063,-0.027 0.12,-0.05 0.173,-0.071c0.054,-0.021 0.11,-0.043 0.169,-0.067c0.06,-0.024 0.121,-0.049 0.184,-0.076c0.063,-0.027 0.118,-0.056 0.166,-0.089c0.047,-0.032 0.097,-0.069 0.15,-0.111c0.053,-0.042 0.101,-0.082 0.143,-0.121c0.042,-0.038 0.086,-0.082 0.134,-0.129c0.048,-0.047 0.097,-0.096 0.148,-0.146c0.05,-0.051 0.099,-0.105 0.147,-0.164c0.048,-0.06 0.091,-0.118 0.129,-0.174c0.038,-0.057 0.075,-0.113 0.11,-0.17c0.036,-0.056 0.073,-0.115 0.112,-0.178c0.039,-0.062 0.073,-0.124 0.103,-0.186c0.029,-0.062 0.055,-0.12 0.075,-0.174c0.021,-0.053 0.039,-0.11 0.054,-0.169c0.015,-0.06 0.033,-0.117 0.053,-0.174c0.021,-0.056 0.045,-0.12 0.072,-0.192c0.028,-0.071 0.053,-0.136 0.077,-0.196c0.023,-0.059 0.042,-0.121 0.057,-0.186c0.014,-0.065 0.028,-0.132 0.04,-0.2c0.012,-0.069 0.024,-0.131 0.036,-0.188c0.012,-0.056 0.027,-0.114 0.045,-0.174c0.017,-0.059 0.032,-0.117 0.044,-0.173c0.012,-0.056 0.023,-0.114 0.031,-0.174c0.008,-0.059 0.012,-0.123 0.012,-0.191l0,-1.379c0,-0.062 -0.007,-0.127 -0.021,-0.196c-0.015,-0.068 -0.033,-0.131 -0.054,-0.187c-0.021,-0.057 -0.047,-0.113 -0.076,-0.17c-0.03,-0.056 -0.064,-0.11 -0.102,-0.16c-0.038,-0.05 -0.085,-0.1 -0.142,-0.151c-0.057,-0.051 -0.113,-0.097 -0.166,-0.138c-0.053,-0.041 -0.114,-0.082 -0.182,-0.124c-0.069,-0.042 -0.131,-0.08 -0.188,-0.116c-0.056,-0.036 -0.117,-0.076 -0.182,-0.121c-0.066,-0.044 -0.131,-0.089 -0.196,-0.133c-0.066,-0.045 -0.133,-0.091 -0.201,-0.138c-0.069,-0.047 -0.137,-0.093 -0.205,-0.138c-0.069,-0.045 -0.136,-0.086 -0.201,-0.125c-0.066,-0.039 -0.135,-0.076 -0.209,-0.111c-0.074,-0.035 -0.154,-0.075 -0.241,-0.12l-0.13,-0.067" style="fill:none;stroke:#000;stroke-width:1.7px;"/><path id="STROKE_CB198B5E.-044E.-4806.-BFB8.-8D939FA29372" d="M88.024,78.49c0.09,-0.083 0.164,-0.143 0.224,-0.178c0.059,-0.035 0.118,-0.081 0.178,-0.138c0.059,-0.056 0.112,-0.113 0.16,-0.169c0.048,-0.056 0.099,-0.125 0.152,-0.205c0.053,-0.079 0.101,-0.152 0.143,-0.218c0.041,-0.065 0.084,-0.134 0.129,-0.205c0.044,-0.071 0.088,-0.144 0.133,-0.218c0.045,-0.075 0.091,-0.149 0.139,-0.223c0.048,-0.074 0.093,-0.149 0.134,-0.227c0.041,-0.077 0.084,-0.152 0.129,-0.226c0.044,-0.075 0.088,-0.15 0.13,-0.227c0.041,-0.077 0.083,-0.156 0.124,-0.236c0.041,-0.08 0.082,-0.162 0.124,-0.245c0.042,-0.082 0.086,-0.168 0.13,-0.257c0.045,-0.089 0.09,-0.182 0.134,-0.277c0.044,-0.095 0.091,-0.19 0.142,-0.285c0.051,-0.095 0.102,-0.186 0.152,-0.275c0.05,-0.089 0.099,-0.178 0.147,-0.267c0.048,-0.089 0.094,-0.177 0.139,-0.263c0.044,-0.086 0.088,-0.175 0.133,-0.267c0.045,-0.092 0.087,-0.182 0.125,-0.272c0.039,-0.089 0.076,-0.18 0.112,-0.272c0.036,-0.092 0.071,-0.182 0.106,-0.271c0.035,-0.089 0.069,-0.18 0.102,-0.271c0.032,-0.092 0.064,-0.187 0.094,-0.286c0.031,-0.098 0.061,-0.195 0.091,-0.293c0.029,-0.097 0.057,-0.195 0.084,-0.293c0.027,-0.098 0.052,-0.195 0.075,-0.291c0.024,-0.095 0.047,-0.188 0.071,-0.28c0.024,-0.092 0.048,-0.179 0.072,-0.262c0.024,-0.083 0.048,-0.163 0.072,-0.24c0.023,-0.078 0.045,-0.149 0.066,-0.214c0.02,-0.065 0.041,-0.131 0.061,-0.196c0.021,-0.066 0.042,-0.131 0.063,-0.196c0.022,-0.065 0.043,-0.135 0.063,-0.209c0.021,-0.074 0.042,-0.148 0.063,-0.223c0.021,-0.074 0.042,-0.151 0.063,-0.231c0.02,-0.081 0.039,-0.164 0.057,-0.249c0.017,-0.086 0.037,-0.17 0.058,-0.254c0.021,-0.083 0.041,-0.166 0.058,-0.249c0.017,-0.084 0.032,-0.158 0.044,-0.223c0.013,-0.065 0.025,-0.129 0.036,-0.191c0.011,-0.062 0.022,-0.121 0.031,-0.178c0.009,-0.056 0.018,-0.119 0.027,-0.187c0.009,-0.069 0.015,-0.135 0.018,-0.2c0.003,-0.065 0.005,-0.135 0.005,-0.209l0,-0.984c0,-0.083 -0.005,-0.167 -0.014,-0.25c-0.009,-0.083 -0.021,-0.153 -0.035,-0.209c-0.015,-0.057 -0.034,-0.118 -0.058,-0.183c-0.025,-0.065 -0.047,-0.132 -0.068,-0.2c-0.02,-0.068 -0.044,-0.144 -0.07,-0.227c-0.027,-0.082 -0.049,-0.152 -0.068,-0.208c-0.018,-0.057 -0.036,-0.115 -0.053,-0.174c-0.018,-0.06 -0.04,-0.12 -0.066,-0.182c-0.027,-0.063 -0.057,-0.128 -0.09,-0.196c-0.032,-0.069 -0.068,-0.131 -0.107,-0.188c-0.038,-0.056 -0.079,-0.114 -0.121,-0.174c-0.041,-0.059 -0.079,-0.114 -0.111,-0.164c-0.033,-0.05 -0.066,-0.105 -0.098,-0.164c-0.033,-0.059 -0.067,-0.116 -0.103,-0.17c-0.036,-0.053 -0.07,-0.104 -0.103,-0.151c-0.033,-0.047 -0.067,-0.095 -0.103,-0.142c-0.035,-0.047 -0.072,-0.093 -0.11,-0.138c-0.038,-0.044 -0.083,-0.089 -0.134,-0.134c-0.051,-0.045 -0.103,-0.093 -0.156,-0.143c-0.053,-0.05 -0.102,-0.098 -0.147,-0.142c-0.045,-0.045 -0.091,-0.089 -0.138,-0.133c-0.047,-0.045 -0.095,-0.087 -0.143,-0.126c-0.048,-0.038 -0.098,-0.077 -0.152,-0.115c-0.053,-0.038 -0.105,-0.075 -0.156,-0.111c-0.051,-0.036 -0.108,-0.069 -0.17,-0.099c-0.062,-0.029 -0.122,-0.051 -0.178,-0.066c-0.056,-0.015 -0.119,-0.033 -0.187,-0.053c-0.068,-0.021 -0.137,-0.042 -0.205,-0.063c-0.069,-0.021 -0.131,-0.037 -0.187,-0.049c-0.057,-0.011 -0.113,-0.023 -0.169,-0.035c-0.056,-0.012 -0.119,-0.024 -0.187,-0.036c-0.069,-0.012 -0.136,-0.021 -0.201,-0.026c-0.065,-0.006 -0.132,-0.009 -0.201,-0.009l-0.379,0c-0.065,0 -0.129,0.003 -0.191,0.009c-0.063,0.005 -0.127,0.014 -0.192,0.026c-0.065,0.012 -0.126,0.029 -0.183,0.049c-0.056,0.021 -0.111,0.04 -0.165,0.057c-0.054,0.018 -0.112,0.034 -0.174,0.049c-0.063,0.015 -0.125,0.034 -0.188,0.058c-0.062,0.024 -0.126,0.051 -0.191,0.081c-0.066,0.029 -0.125,0.061 -0.178,0.093c-0.054,0.033 -0.105,0.065 -0.155,0.098c-0.051,0.034 -0.101,0.066 -0.152,0.099c-0.051,0.032 -0.103,0.072 -0.157,0.12c-0.053,0.047 -0.103,0.092 -0.151,0.133c-0.048,0.042 -0.094,0.085 -0.138,0.129c-0.044,0.045 -0.089,0.089 -0.134,0.134c-0.045,0.044 -0.089,0.092 -0.133,0.142c-0.044,0.05 -0.089,0.102 -0.134,0.156c-0.045,0.053 -0.091,0.111 -0.139,0.173c-0.048,0.062 -0.087,0.119 -0.116,0.17c-0.03,0.051 -0.06,0.101 -0.089,0.151c-0.03,0.05 -0.06,0.102 -0.089,0.156c-0.03,0.054 -0.058,0.105 -0.085,0.156c-0.026,0.05 -0.059,0.111 -0.098,0.182c-0.039,0.071 -0.079,0.141 -0.121,0.21c-0.042,0.068 -0.081,0.136 -0.119,0.204c-0.038,0.068 -0.075,0.133 -0.111,0.196c-0.036,0.063 -0.072,0.127 -0.108,0.192c-0.035,0.065 -0.069,0.131 -0.102,0.2c-0.033,0.068 -0.067,0.14 -0.103,0.214c-0.036,0.074 -0.07,0.146 -0.102,0.217c-0.033,0.071 -0.067,0.14 -0.103,0.209c-0.036,0.068 -0.07,0.132 -0.103,0.192c-0.032,0.059 -0.065,0.119 -0.098,0.182c-0.033,0.062 -0.064,0.123 -0.094,0.182c-0.029,0.059 -0.061,0.117 -0.093,0.174c-0.033,0.056 -0.067,0.113 -0.103,0.169c-0.036,0.057 -0.073,0.112 -0.111,0.165c-0.039,0.054 -0.079,0.104 -0.12,0.152c-0.041,0.047 -0.083,0.093 -0.125,0.137c-0.042,0.045 -0.085,0.092 -0.13,0.142c-0.045,0.051 -0.091,0.1 -0.138,0.148c-0.047,0.048 -0.096,0.095 -0.147,0.143c-0.051,0.047 -0.103,0.093 -0.156,0.137c-0.054,0.045 -0.107,0.088 -0.16,0.13c-0.053,0.041 -0.108,0.083 -0.164,0.125c-0.056,0.041 -0.116,0.083 -0.178,0.124c-0.063,0.041 -0.128,0.083 -0.197,0.128c-0.068,0.044 -0.133,0.086 -0.196,0.125c-0.062,0.039 -0.123,0.076 -0.183,0.112c-0.06,0.036 -0.119,0.073 -0.175,0.111c-0.056,0.038 -0.109,0.078 -0.16,0.12c-0.05,0.042 -0.1,0.086 -0.151,0.133c-0.051,0.048 -0.099,0.095 -0.143,0.142c-0.044,0.048 -0.092,0.097 -0.143,0.148c-0.051,0.05 -0.1,0.104 -0.147,0.161c-0.047,0.056 -0.094,0.112 -0.142,0.169c-0.048,0.056 -0.092,0.108 -0.131,0.156c-0.038,0.047 -0.078,0.1 -0.119,0.16c-0.041,0.059 -0.078,0.112 -0.111,0.16c-0.032,0.047 -0.062,0.098 -0.089,0.151c-0.026,0.054 -0.053,0.11 -0.081,0.17c-0.027,0.059 -0.054,0.121 -0.081,0.186c-0.027,0.065 -0.052,0.132 -0.075,0.2c-0.024,0.069 -0.044,0.135 -0.062,0.2c-0.017,0.066 -0.037,0.135 -0.058,0.209c-0.021,0.074 -0.04,0.147 -0.058,0.219c-0.018,0.071 -0.032,0.136 -0.045,0.195c-0.012,0.06 -0.024,0.124 -0.036,0.192c-0.012,0.069 -0.023,0.143 -0.031,0.222c-0.008,0.08 -0.014,0.162 -0.017,0.245c-0.003,0.084 -0.005,0.162 -0.005,0.237c0,0.074 -0.001,0.143 -0.004,0.208c-0.003,0.065 -0.005,0.127 -0.005,0.187l0,0.837c0,0.072 0.009,0.14 0.027,0.205c0.017,0.065 0.035,0.13 0.053,0.196c0.018,0.066 0.038,0.128 0.058,0.187c0.021,0.06 0.043,0.12 0.067,0.183c0.023,0.062 0.045,0.125 0.067,0.19c0.021,0.065 0.043,0.132 0.067,0.2c0.024,0.069 0.047,0.131 0.071,0.188c0.023,0.056 0.053,0.113 0.089,0.169c0.036,0.057 0.071,0.112 0.107,0.165c0.036,0.053 0.073,0.107 0.112,0.164c0.039,0.056 0.073,0.11 0.102,0.161c0.03,0.051 0.06,0.102 0.09,0.155c0.029,0.054 0.057,0.106 0.084,0.156c0.027,0.051 0.058,0.099 0.094,0.143c0.035,0.045 0.077,0.086 0.125,0.124c0.048,0.038 0.095,0.083 0.143,0.134c0.047,0.05 0.09,0.101 0.129,0.151c0.038,0.05 0.081,0.093 0.129,0.129c0.047,0.036 0.1,0.069 0.16,0.099c0.06,0.029 0.119,0.059 0.175,0.089c0.056,0.029 0.113,0.068 0.169,0.115c0.056,0.048 0.107,0.092 0.151,0.134c0.045,0.041 0.09,0.081 0.134,0.119c0.044,0.039 0.095,0.076 0.152,0.112c0.057,0.036 0.11,0.067 0.161,0.094c0.05,0.027 0.106,0.056 0.168,0.089c0.063,0.032 0.122,0.065 0.178,0.097c0.057,0.033 0.116,0.069 0.178,0.108c0.063,0.038 0.119,0.071 0.17,0.098c0.051,0.027 0.105,0.05 0.161,0.071c0.057,0.02 0.114,0.038 0.173,0.053c0.06,0.015 0.119,0.027 0.178,0.036c0.06,0.009 0.121,0.018 0.183,0.026c0.062,0.009 0.125,0.019 0.187,0.031c0.063,0.012 0.127,0.023 0.192,0.032c0.065,0.009 0.129,0.016 0.191,0.022c0.063,0.006 0.127,0.009 0.192,0.009c0.066,0 0.134,0 0.206,0c0.071,0 0.147,-0.009 0.228,-0.027c0.08,-0.018 0.15,-0.031 0.21,-0.04c0.059,-0.009 0.12,-0.017 0.182,-0.023c0.062,-0.005 0.125,-0.008 0.187,-0.008c0.063,0 0.125,0 0.188,0c0.062,0 0.123,-0.001 0.182,-0.004c0.059,-0.003 0.12,-0.008 0.182,-0.014c0.063,-0.006 0.124,-0.01 0.183,-0.01c0.059,0 0.119,-0.004 0.179,-0.012c0.06,-0.009 0.133,-0.016 0.219,-0.022c0.086,-0.007 0.159,-0.014 0.218,-0.023c0.059,-0.008 0.123,-0.019 0.192,-0.031c0.068,-0.012 0.138,-0.03 0.21,-0.054c0.071,-0.024 0.151,-0.059 0.24,-0.106c0.089,-0.048 0.181,-0.092 0.276,-0.134c0.096,-0.041 0.189,-0.095 0.281,-0.16c0.092,-0.065 0.164,-0.124 0.215,-0.178c0.051,-0.053 0.1,-0.105 0.147,-0.156l0.07,-0.075" style="fill:none;stroke:#000;stroke-width:1.7px;"/><path id="STROKE_FF3E3A7E.-D6C7.-4A65.-A3B7.-E103F92502DB" d="M90.691,64.158c0.107,-0.054 0.178,-0.052 0.213,0.004c0.036,0.057 0.069,0.123 0.099,0.2c0.029,0.077 0.064,0.167 0.102,0.267c0.039,0.101 0.069,0.18 0.089,0.236c0.021,0.057 0.044,0.119 0.071,0.188c0.027,0.068 0.051,0.135 0.072,0.2c0.021,0.065 0.044,0.133 0.067,0.205c0.024,0.071 0.046,0.138 0.066,0.2c0.021,0.062 0.044,0.135 0.071,0.218c0.027,0.083 0.051,0.162 0.072,0.236c0.021,0.075 0.044,0.149 0.067,0.223c0.024,0.074 0.046,0.147 0.066,0.218c0.021,0.071 0.042,0.141 0.063,0.209c0.021,0.068 0.039,0.13 0.054,0.186c0.014,0.057 0.035,0.13 0.062,0.218c0.028,0.089 0.05,0.17 0.068,0.241c0.017,0.071 0.013,0.079 -0.014,0.022c-0.026,-0.056 -0.059,-0.129 -0.098,-0.218c-0.039,-0.089 -0.081,-0.193 -0.125,-0.312c-0.045,-0.118 -0.078,-0.21 -0.098,-0.275c-0.021,-0.065 -0.045,-0.141 -0.071,-0.227c-0.027,-0.086 -0.053,-0.165 -0.08,-0.236c-0.027,-0.071 -0.057,-0.156 -0.089,-0.254c-0.033,-0.098 -0.065,-0.193 -0.098,-0.285c-0.033,-0.092 -0.067,-0.187 -0.103,-0.285c-0.036,-0.098 -0.072,-0.197 -0.107,-0.298c-0.036,-0.1 -0.07,-0.193 -0.103,-0.28c-0.033,-0.086 -0.07,-0.179 -0.112,-0.28c-0.041,-0.101 -0.079,-0.19 -0.111,-0.267c-0.033,-0.077 -0.067,-0.155 -0.103,-0.232c-0.036,-0.078 -0.072,-0.149 -0.107,-0.214c-0.036,-0.065 -0.067,-0.122 -0.094,-0.173c-0.027,-0.05 -0.064,-0.115 -0.111,-0.196c-0.047,-0.08 -0.09,-0.147 -0.128,-0.201c-0.039,-0.053 -0.085,-0.093 -0.139,-0.12c-0.053,-0.026 -0.087,0.007 -0.102,0.099c-0.015,0.092 -0.023,0.182 -0.023,0.271c0,0.089 0,0.165 0,0.227c0,0.062 0.008,0.123 0.023,0.182c0.015,0.059 0.033,0.129 0.053,0.21c0.021,0.08 0.041,0.159 0.062,0.236c0.021,0.077 0.045,0.155 0.072,0.235c0.027,0.08 0.057,0.168 0.09,0.263c0.033,0.095 0.064,0.189 0.094,0.28c0.029,0.092 0.059,0.179 0.089,0.259c0.029,0.08 0.06,0.174 0.093,0.281c0.033,0.106 0.064,0.208 0.094,0.306c0.029,0.097 0.061,0.2 0.093,0.307c0.033,0.107 0.063,0.217 0.089,0.329c0.027,0.113 0.057,0.237 0.089,0.374c0.033,0.137 0.063,0.265 0.089,0.384c0.027,0.119 0.057,0.252 0.089,0.4c0.033,0.148 0.062,0.282 0.089,0.401c0.027,0.118 0.053,0.24 0.08,0.364c0.027,0.125 0.054,0.245 0.081,0.36c0.027,0.116 0.053,0.228 0.077,0.335c0.023,0.107 0.045,0.204 0.066,0.289c0.02,0.086 0.04,0.17 0.058,0.253c0.018,0.084 0.034,0.155 0.049,0.214c0.014,0.06 0.029,0.132 0.044,0.218c0.015,0.087 0.005,0.1 -0.031,0.041c-0.035,-0.06 -0.065,-0.116 -0.088,-0.17c-0.024,-0.053 -0.051,-0.114 -0.082,-0.182c-0.03,-0.068 -0.058,-0.136 -0.085,-0.205c-0.027,-0.068 -0.056,-0.142 -0.089,-0.222c-0.033,-0.08 -0.067,-0.167 -0.103,-0.263c-0.035,-0.095 -0.071,-0.19 -0.107,-0.285c-0.036,-0.094 -0.069,-0.186 -0.101,-0.275c-0.032,-0.089 -0.072,-0.196 -0.12,-0.321c-0.048,-0.125 -0.097,-0.259 -0.148,-0.401c-0.05,-0.143 -0.099,-0.285 -0.146,-0.427c-0.048,-0.142 -0.099,-0.295 -0.152,-0.458c-0.054,-0.163 -0.109,-0.329 -0.166,-0.499c-0.057,-0.169 -0.115,-0.344 -0.174,-0.525c-0.06,-0.181 -0.124,-0.374 -0.192,-0.578c-0.068,-0.205 -0.135,-0.401 -0.201,-0.588c-0.065,-0.187 -0.128,-0.358 -0.187,-0.512c-0.059,-0.154 -0.122,-0.311 -0.187,-0.472c-0.065,-0.16 -0.131,-0.311 -0.196,-0.454c-0.066,-0.143 -0.122,-0.266 -0.169,-0.369c-0.047,-0.104 -0.09,-0.198 -0.129,-0.281c-0.039,-0.083 -0.078,-0.164 -0.116,-0.241c-0.039,-0.077 -0.081,-0.152 -0.125,-0.226c-0.044,-0.075 -0.063,-0.054 -0.058,0.062c0.005,0.116 0.022,0.212 0.049,0.289c0.028,0.077 0.06,0.166 0.098,0.267c0.038,0.101 0.074,0.196 0.106,0.285c0.033,0.089 0.072,0.193 0.117,0.312c0.045,0.118 0.088,0.23 0.13,0.333c0.042,0.104 0.083,0.208 0.124,0.312c0.041,0.104 0.081,0.209 0.12,0.316c0.039,0.108 0.076,0.217 0.112,0.33c0.035,0.112 0.071,0.229 0.107,0.351c0.036,0.123 0.073,0.258 0.112,0.406c0.039,0.148 0.076,0.295 0.112,0.44c0.035,0.145 0.071,0.297 0.107,0.458c0.036,0.16 0.074,0.328 0.115,0.503c0.041,0.175 0.086,0.368 0.133,0.579c0.048,0.211 0.093,0.407 0.135,0.588c0.042,0.181 0.089,0.387 0.143,0.619c0.053,0.231 0.105,0.451 0.155,0.658c0.05,0.208 0.099,0.413 0.147,0.615c0.048,0.202 0.096,0.398 0.143,0.588c0.047,0.189 0.088,0.361 0.124,0.516c0.036,0.153 0.07,0.3 0.103,0.439c0.033,0.14 0.065,0.275 0.098,0.405c0.033,0.131 0.06,0.244 0.081,0.339c0.021,0.095 0.039,0.178 0.053,0.25c0.015,0.071 0.028,0.15 0.04,0.236c0.013,0.086 -0.014,0.081 -0.079,-0.014c-0.066,-0.095 -0.112,-0.175 -0.139,-0.24c-0.026,-0.065 -0.057,-0.142 -0.093,-0.231c-0.036,-0.089 -0.07,-0.178 -0.103,-0.267c-0.032,-0.089 -0.068,-0.184 -0.107,-0.285c-0.039,-0.101 -0.077,-0.205 -0.116,-0.312c-0.039,-0.108 -0.082,-0.228 -0.129,-0.362c-0.047,-0.133 -0.09,-0.262 -0.129,-0.386c-0.039,-0.125 -0.084,-0.269 -0.135,-0.432c-0.051,-0.163 -0.103,-0.328 -0.156,-0.494c-0.053,-0.167 -0.111,-0.349 -0.173,-0.548c-0.063,-0.198 -0.127,-0.394 -0.192,-0.587c-0.066,-0.193 -0.131,-0.39 -0.197,-0.592c-0.065,-0.202 -0.13,-0.393 -0.195,-0.574c-0.066,-0.181 -0.142,-0.381 -0.228,-0.601c-0.085,-0.219 -0.166,-0.429 -0.24,-0.628c-0.075,-0.199 -0.149,-0.393 -0.224,-0.583c-0.074,-0.19 -0.149,-0.374 -0.223,-0.552c-0.073,-0.178 -0.143,-0.341 -0.208,-0.49c-0.066,-0.148 -0.128,-0.286 -0.187,-0.414c-0.06,-0.127 -0.121,-0.253 -0.183,-0.378c-0.062,-0.124 -0.12,-0.237 -0.174,-0.338c-0.054,-0.101 -0.101,-0.184 -0.14,-0.249c-0.038,-0.065 -0.083,-0.138 -0.133,-0.218c-0.05,-0.08 -0.084,-0.082 -0.102,-0.005c-0.017,0.077 -0.017,0.145 0,0.204c0.018,0.06 0.04,0.128 0.066,0.206c0.027,0.077 0.055,0.155 0.085,0.232c0.03,0.076 0.062,0.162 0.098,0.257c0.036,0.095 0.07,0.188 0.103,0.281c0.033,0.092 0.067,0.187 0.103,0.285c0.035,0.097 0.069,0.192 0.102,0.284c0.033,0.093 0.073,0.212 0.12,0.357c0.047,0.146 0.092,0.287 0.134,0.423c0.041,0.137 0.086,0.285 0.134,0.445c0.048,0.16 0.098,0.34 0.152,0.538c0.053,0.199 0.108,0.4 0.164,0.605c0.056,0.205 0.114,0.419 0.173,0.641c0.06,0.222 0.122,0.452 0.188,0.69c0.065,0.237 0.13,0.476 0.196,0.717c0.065,0.241 0.129,0.484 0.191,0.73c0.063,0.247 0.127,0.493 0.192,0.739c0.066,0.246 0.129,0.493 0.192,0.743c0.062,0.249 0.125,0.492 0.187,0.73c0.062,0.237 0.123,0.468 0.183,0.694c0.061,0.226 0.117,0.442 0.171,0.646c0.053,0.205 0.1,0.387 0.142,0.548c0.042,0.16 0.082,0.315 0.12,0.463c0.038,0.148 0.071,0.273 0.098,0.374c0.027,0.101 0.05,0.187 0.067,0.257c0.018,0.071 0.033,0.136 0.045,0.195c0.012,0.06 0.002,0.058 -0.031,-0.004c-0.033,-0.062 -0.067,-0.127 -0.102,-0.195c-0.036,-0.068 -0.078,-0.151 -0.126,-0.249c-0.048,-0.098 -0.094,-0.199 -0.138,-0.303c-0.044,-0.104 -0.095,-0.221 -0.152,-0.352c-0.057,-0.13 -0.111,-0.264 -0.161,-0.4c-0.05,-0.136 -0.102,-0.279 -0.155,-0.427c-0.053,-0.148 -0.11,-0.303 -0.169,-0.463c-0.059,-0.16 -0.123,-0.338 -0.192,-0.535c-0.068,-0.196 -0.136,-0.389 -0.205,-0.579c-0.068,-0.19 -0.138,-0.383 -0.21,-0.578c-0.071,-0.196 -0.143,-0.392 -0.214,-0.587c-0.072,-0.196 -0.143,-0.392 -0.214,-0.588c-0.072,-0.196 -0.139,-0.379 -0.201,-0.548c-0.063,-0.169 -0.134,-0.357 -0.214,-0.565c-0.08,-0.207 -0.155,-0.402 -0.227,-0.583c-0.071,-0.182 -0.138,-0.349 -0.201,-0.503c-0.062,-0.154 -0.127,-0.313 -0.196,-0.476c-0.068,-0.163 -0.132,-0.317 -0.191,-0.463c-0.06,-0.145 -0.112,-0.276 -0.157,-0.392c-0.045,-0.115 -0.089,-0.228 -0.133,-0.338c-0.044,-0.109 -0.084,-0.203 -0.12,-0.28c-0.036,-0.078 -0.067,-0.146 -0.094,-0.206c-0.026,-0.059 -0.058,-0.127 -0.093,-0.204c-0.036,-0.077 -0.048,-0.077 -0.036,0c0.013,0.077 0.028,0.144 0.045,0.2c0.018,0.056 0.035,0.116 0.053,0.178c0.017,0.062 0.035,0.126 0.053,0.192c0.018,0.065 0.036,0.134 0.054,0.205c0.017,0.071 0.037,0.144 0.058,0.218c0.021,0.074 0.041,0.15 0.058,0.227c0.018,0.077 0.036,0.155 0.054,0.235c0.018,0.08 0.036,0.162 0.053,0.245c0.018,0.083 0.037,0.177 0.057,0.281c0.021,0.103 0.042,0.207 0.063,0.311c0.021,0.104 0.041,0.215 0.058,0.334c0.018,0.118 0.038,0.244 0.062,0.378c0.024,0.133 0.053,0.286 0.089,0.458c0.036,0.173 0.074,0.357 0.116,0.552c0.042,0.196 0.084,0.391 0.126,0.584c0.042,0.193 0.086,0.391 0.133,0.592c0.047,0.201 0.095,0.406 0.143,0.614c0.048,0.207 0.092,0.4 0.133,0.579c0.041,0.179 0.086,0.363 0.134,0.552c0.048,0.189 0.093,0.37 0.134,0.542c0.042,0.173 0.082,0.336 0.12,0.491c0.038,0.154 0.071,0.289 0.098,0.405c0.028,0.116 0.055,0.229 0.081,0.338c0.027,0.11 0.049,0.203 0.067,0.28c0.017,0.077 0.033,0.144 0.049,0.2c0.015,0.057 0.028,0.119 0.039,0.188c0.012,0.068 0.006,0.075 -0.018,0.022c-0.023,-0.054 -0.045,-0.11 -0.066,-0.17c-0.02,-0.059 -0.041,-0.121 -0.063,-0.186c-0.021,-0.065 -0.043,-0.135 -0.067,-0.209c-0.024,-0.074 -0.046,-0.156 -0.066,-0.245c-0.021,-0.089 -0.046,-0.188 -0.076,-0.298c-0.029,-0.11 -0.057,-0.222 -0.084,-0.335c-0.027,-0.113 -0.058,-0.239 -0.094,-0.378c-0.035,-0.139 -0.07,-0.28 -0.102,-0.423c-0.033,-0.142 -0.07,-0.294 -0.112,-0.454c-0.042,-0.16 -0.085,-0.328 -0.13,-0.503c-0.045,-0.175 -0.097,-0.367 -0.156,-0.574c-0.06,-0.208 -0.119,-0.411 -0.178,-0.609c-0.06,-0.199 -0.12,-0.401 -0.183,-0.606c-0.062,-0.204 -0.125,-0.412 -0.187,-0.623c-0.062,-0.211 -0.128,-0.422 -0.196,-0.632c-0.069,-0.211 -0.134,-0.411 -0.196,-0.601c-0.063,-0.19 -0.134,-0.399 -0.214,-0.627c-0.08,-0.229 -0.155,-0.442 -0.227,-0.641c-0.071,-0.2 -0.146,-0.394 -0.223,-0.584c-0.078,-0.19 -0.146,-0.36 -0.206,-0.512c-0.059,-0.151 -0.118,-0.299 -0.178,-0.444c-0.059,-0.146 -0.113,-0.272 -0.161,-0.379c-0.048,-0.107 -0.09,-0.2 -0.128,-0.28c-0.039,-0.081 -0.073,-0.149 -0.103,-0.206c-0.031,-0.056 -0.068,-0.107 -0.112,-0.151c-0.044,-0.045 -0.065,-0.015 -0.062,0.09c0.003,0.104 0.02,0.204 0.049,0.298c0.03,0.095 0.06,0.193 0.09,0.294c0.029,0.101 0.063,0.209 0.102,0.325c0.039,0.116 0.08,0.243 0.124,0.383c0.045,0.139 0.085,0.266 0.12,0.382c0.036,0.116 0.078,0.249 0.126,0.4c0.048,0.151 0.092,0.297 0.133,0.437c0.041,0.139 0.083,0.285 0.125,0.436c0.041,0.151 0.085,0.307 0.13,0.467c0.045,0.161 0.09,0.337 0.138,0.53c0.047,0.193 0.09,0.374 0.129,0.543c0.038,0.17 0.083,0.364 0.134,0.584c0.051,0.22 0.099,0.428 0.143,0.627c0.044,0.198 0.088,0.4 0.133,0.605c0.045,0.205 0.091,0.41 0.138,0.614c0.048,0.205 0.095,0.41 0.143,0.615c0.048,0.204 0.094,0.399 0.138,0.582c0.044,0.184 0.093,0.389 0.147,0.615c0.054,0.226 0.103,0.438 0.147,0.636c0.044,0.199 0.087,0.396 0.129,0.592c0.042,0.197 0.079,0.372 0.112,0.526c0.033,0.154 0.064,0.308 0.094,0.463c0.029,0.154 0.053,0.285 0.072,0.392c0.018,0.106 0.033,0.2 0.044,0.28c0.011,0.079 0.022,0.161 0.031,0.244c0.009,0.083 -0.022,0.103 -0.094,0.058c-0.071,-0.044 -0.123,-0.095 -0.156,-0.151c-0.033,-0.057 -0.065,-0.116 -0.098,-0.178c-0.033,-0.062 -0.066,-0.13 -0.098,-0.205c-0.033,-0.074 -0.064,-0.153 -0.094,-0.236c-0.029,-0.083 -0.062,-0.177 -0.098,-0.28c-0.036,-0.104 -0.07,-0.207 -0.103,-0.308c-0.032,-0.1 -0.064,-0.207 -0.093,-0.32c-0.03,-0.112 -0.059,-0.229 -0.089,-0.351c-0.03,-0.123 -0.064,-0.255 -0.103,-0.396c-0.039,-0.143 -0.074,-0.277 -0.107,-0.405c-0.033,-0.128 -0.071,-0.275 -0.115,-0.441c-0.044,-0.166 -0.087,-0.331 -0.129,-0.494c-0.042,-0.163 -0.087,-0.326 -0.135,-0.49c-0.048,-0.163 -0.097,-0.33 -0.147,-0.499c-0.05,-0.169 -0.102,-0.339 -0.155,-0.511c-0.053,-0.173 -0.109,-0.343 -0.166,-0.512c-0.057,-0.169 -0.112,-0.337 -0.165,-0.503c-0.053,-0.167 -0.108,-0.33 -0.164,-0.49c-0.057,-0.159 -0.111,-0.314 -0.165,-0.463c-0.053,-0.149 -0.105,-0.29 -0.156,-0.423c-0.051,-0.133 -0.099,-0.252 -0.144,-0.356c-0.044,-0.104 -0.084,-0.197 -0.119,-0.28c-0.035,-0.083 -0.072,-0.163 -0.111,-0.24c-0.039,-0.078 -0.072,-0.142 -0.098,-0.192c-0.027,-0.05 -0.063,-0.097 -0.107,-0.142c-0.045,-0.044 -0.068,-0.013 -0.068,0.093c0,0.107 0.012,0.197 0.036,0.272c0.023,0.074 0.05,0.159 0.079,0.254c0.03,0.095 0.061,0.191 0.094,0.289c0.033,0.097 0.065,0.192 0.098,0.285c0.033,0.092 0.069,0.201 0.107,0.325c0.039,0.124 0.077,0.244 0.112,0.36c0.036,0.116 0.075,0.243 0.116,0.383c0.042,0.139 0.083,0.277 0.121,0.414c0.039,0.137 0.078,0.279 0.116,0.428c0.038,0.148 0.078,0.301 0.119,0.458c0.042,0.158 0.087,0.321 0.135,0.49c0.048,0.169 0.094,0.341 0.138,0.516c0.044,0.175 0.09,0.351 0.138,0.529c0.048,0.178 0.094,0.358 0.138,0.539c0.044,0.18 0.087,0.36 0.129,0.538c0.042,0.179 0.082,0.353 0.121,0.522c0.039,0.168 0.076,0.334 0.112,0.498c0.036,0.163 0.068,0.32 0.098,0.471c0.03,0.151 0.058,0.287 0.085,0.406c0.026,0.119 0.051,0.235 0.075,0.347c0.023,0.112 0.041,0.21 0.053,0.293c0.013,0.084 0.023,0.158 0.032,0.223c0.009,0.065 0.015,0.135 0.017,0.209c0.003,0.074 -0.015,0.086 -0.053,0.036c-0.038,-0.051 -0.072,-0.113 -0.102,-0.187c-0.029,-0.074 -0.061,-0.159 -0.093,-0.254c-0.033,-0.095 -0.066,-0.195 -0.098,-0.299c-0.033,-0.103 -0.066,-0.211 -0.099,-0.324c-0.032,-0.112 -0.068,-0.24 -0.107,-0.382c-0.038,-0.143 -0.074,-0.277 -0.107,-0.402c-0.033,-0.124 -0.071,-0.27 -0.116,-0.436c-0.045,-0.166 -0.09,-0.328 -0.134,-0.485c-0.044,-0.158 -0.092,-0.318 -0.143,-0.481c-0.05,-0.163 -0.101,-0.33 -0.151,-0.502c-0.05,-0.172 -0.103,-0.344 -0.156,-0.516c-0.054,-0.172 -0.11,-0.343 -0.166,-0.513c-0.056,-0.169 -0.111,-0.336 -0.164,-0.499c-0.053,-0.163 -0.108,-0.321 -0.165,-0.475c-0.056,-0.154 -0.109,-0.301 -0.16,-0.441c-0.051,-0.14 -0.099,-0.266 -0.143,-0.378c-0.044,-0.113 -0.09,-0.221 -0.138,-0.324c-0.048,-0.104 -0.088,-0.196 -0.121,-0.277c-0.033,-0.08 -0.064,-0.149 -0.094,-0.205c-0.029,-0.057 -0.062,-0.119 -0.098,-0.187c-0.035,-0.068 -0.064,-0.071 -0.084,-0.008c-0.021,0.062 -0.031,0.124 -0.031,0.186c0,0.062 0.009,0.134 0.026,0.214c0.018,0.081 0.038,0.173 0.062,0.277c0.024,0.103 0.048,0.207 0.072,0.311c0.024,0.104 0.051,0.214 0.081,0.329c0.03,0.116 0.062,0.245 0.098,0.387c0.036,0.142 0.069,0.283 0.098,0.423c0.03,0.14 0.061,0.286 0.094,0.44c0.032,0.154 0.067,0.312 0.102,0.472c0.036,0.16 0.07,0.324 0.103,0.49c0.033,0.167 0.067,0.337 0.102,0.512c0.035,0.175 0.071,0.364 0.11,0.569c0.039,0.205 0.076,0.402 0.112,0.592c0.036,0.19 0.067,0.366 0.094,0.53c0.026,0.163 0.054,0.333 0.084,0.511c0.03,0.178 0.057,0.351 0.081,0.517c0.024,0.167 0.047,0.314 0.067,0.441c0.021,0.127 0.039,0.254 0.054,0.382c0.015,0.128 0.029,0.237 0.04,0.326c0.011,0.088 0.02,0.167 0.026,0.236c0.006,0.068 0.011,0.139 0.014,0.213c0.003,0.075 -0.015,0.055 -0.054,-0.058c-0.038,-0.112 -0.073,-0.221 -0.102,-0.325c-0.03,-0.104 -0.061,-0.212 -0.094,-0.324c-0.033,-0.112 -0.067,-0.233 -0.103,-0.36c-0.035,-0.128 -0.075,-0.271 -0.119,-0.428c-0.045,-0.158 -0.091,-0.313 -0.139,-0.467c-0.047,-0.154 -0.097,-0.31 -0.147,-0.467c-0.05,-0.158 -0.104,-0.32 -0.16,-0.486c-0.058,-0.166 -0.116,-0.332 -0.175,-0.499c-0.059,-0.166 -0.122,-0.331 -0.187,-0.494c-0.066,-0.163 -0.13,-0.326 -0.192,-0.49c-0.062,-0.163 -0.125,-0.32 -0.187,-0.471c-0.062,-0.151 -0.125,-0.301 -0.187,-0.449c-0.062,-0.149 -0.123,-0.288 -0.183,-0.419c-0.059,-0.13 -0.114,-0.246 -0.165,-0.347c-0.051,-0.101 -0.099,-0.193 -0.143,-0.276c-0.044,-0.084 -0.088,-0.161 -0.133,-0.232c-0.045,-0.072 -0.096,-0.138 -0.152,-0.201c-0.056,-0.062 -0.104,-0.051 -0.143,0.032c-0.038,0.083 -0.058,0.178 -0.058,0.285c0,0.107 0.005,0.228 0.014,0.365c0.009,0.136 0.024,0.276 0.044,0.418c0.021,0.143 0.046,0.293 0.076,0.45c0.029,0.157 0.059,0.318 0.089,0.481c0.03,0.163 0.057,0.318 0.081,0.463c0.024,0.145 0.053,0.31 0.085,0.493c0.033,0.184 0.064,0.356 0.094,0.516c0.029,0.161 0.056,0.323 0.08,0.486c0.023,0.163 0.047,0.32 0.07,0.472c0.024,0.152 0.044,0.3 0.059,0.446c0.015,0.145 0.028,0.276 0.04,0.391c0.011,0.115 0.021,0.232 0.03,0.351c0.01,0.118 0.016,0.222 0.019,0.312c0.003,0.09 0.004,0.176 0.004,0.258c0,0.083 0,0.166 0,0.249c0,0.084 -0.037,0.097 -0.111,0.041c-0.075,-0.057 -0.129,-0.128 -0.162,-0.214c-0.032,-0.086 -0.065,-0.177 -0.098,-0.272c-0.032,-0.094 -0.066,-0.198 -0.101,-0.311c-0.035,-0.113 -0.075,-0.241 -0.12,-0.384c-0.045,-0.142 -0.09,-0.283 -0.135,-0.422c-0.044,-0.139 -0.093,-0.282 -0.147,-0.427c-0.053,-0.145 -0.109,-0.289 -0.169,-0.432c-0.059,-0.143 -0.121,-0.283 -0.186,-0.423c-0.066,-0.139 -0.13,-0.262 -0.192,-0.369c-0.063,-0.108 -0.128,-0.209 -0.197,-0.304c-0.068,-0.094 -0.132,-0.17 -0.191,-0.226c-0.059,-0.057 -0.116,-0.1 -0.17,-0.129c-0.054,-0.03 -0.127,-0.051 -0.219,-0.063c-0.092,-0.012 -0.165,0.036 -0.218,0.143c-0.053,0.107 -0.086,0.202 -0.098,0.285c-0.012,0.083 -0.02,0.176 -0.023,0.28c-0.003,0.104 -0.005,0.203 -0.005,0.298l0,0.508c0,0.107 0.005,0.201 0.014,0.281c0.009,0.079 0.021,0.15 0.036,0.213c0.016,0.062 0.031,0.124 0.045,0.187c0.015,0.063 0.04,0.136 0.075,0.218c0.036,0.083 0.078,0.151 0.126,0.205l0.072,0.08" style="fill:none;stroke:#000;stroke-width:1.7px;"/><path id="STROKE_AE73BF69.-6B55.-4018.-8DAB.-0297CBCA3C07" d="M114.613,75.749c0,-0.125 0.007,-0.223 0.021,-0.294c0.015,-0.071 0.039,-0.077 0.071,-0.018c0.033,0.059 0.049,0.12 0.049,0.182c0,0.063 -0.007,0.122 -0.021,0.178c-0.015,0.057 -0.036,0.128 -0.063,0.214c-0.027,0.086 -0.057,0.177 -0.089,0.272c-0.032,0.094 -0.068,0.186 -0.106,0.275c-0.039,0.089 -0.079,0.18 -0.121,0.272c-0.042,0.093 -0.085,0.185 -0.13,0.276c-0.045,0.092 -0.087,0.175 -0.125,0.25c-0.038,0.074 -0.081,0.151 -0.128,0.23c-0.048,0.08 -0.095,0.158 -0.14,0.232c-0.044,0.074 -0.09,0.144 -0.138,0.209c-0.047,0.066 -0.093,0.13 -0.138,0.192c-0.045,0.062 -0.089,0.121 -0.133,0.178c-0.044,0.056 -0.084,0.11 -0.12,0.16c-0.036,0.05 -0.075,0.099 -0.116,0.147c-0.042,0.048 -0.083,0.094 -0.121,0.139c-0.039,0.044 -0.094,0.102 -0.164,0.173c-0.071,0.07 -0.137,0.13 -0.197,0.178c-0.06,0.047 -0.123,0.079 -0.188,0.094c-0.066,0.014 -0.115,-0.012 -0.147,-0.081c-0.033,-0.068 -0.054,-0.162 -0.062,-0.281c-0.008,-0.118 -0.012,-0.215 -0.012,-0.289c0,-0.074 0,-0.153 0,-0.236c0,-0.083 0.001,-0.18 0.004,-0.289c0.003,-0.11 0.012,-0.206 0.026,-0.289c0.015,-0.084 0.034,-0.185 0.057,-0.303c0.024,-0.119 0.048,-0.236 0.072,-0.352c0.025,-0.116 0.052,-0.233 0.081,-0.351c0.03,-0.119 0.063,-0.239 0.098,-0.361c0.036,-0.121 0.072,-0.245 0.108,-0.369c0.035,-0.125 0.074,-0.251 0.115,-0.378c0.041,-0.128 0.084,-0.264 0.129,-0.41c0.045,-0.145 0.082,-0.273 0.111,-0.383c0.03,-0.11 0.06,-0.223 0.09,-0.339c0.029,-0.115 0.054,-0.216 0.075,-0.302c0.021,-0.085 0.038,-0.17 0.054,-0.253c0.015,-0.083 0.028,-0.165 0.041,-0.245c0.012,-0.08 -0.002,-0.066 -0.04,0.04c-0.039,0.107 -0.076,0.205 -0.112,0.294c-0.036,0.089 -0.072,0.181 -0.108,0.275c-0.035,0.095 -0.076,0.191 -0.12,0.29c-0.045,0.098 -0.09,0.201 -0.134,0.311c-0.044,0.11 -0.09,0.219 -0.138,0.33c-0.048,0.11 -0.097,0.221 -0.147,0.334c-0.05,0.113 -0.102,0.229 -0.156,0.347c-0.054,0.119 -0.11,0.235 -0.166,0.347c-0.056,0.112 -0.117,0.243 -0.182,0.391c-0.066,0.148 -0.128,0.291 -0.188,0.428c-0.059,0.137 -0.112,0.261 -0.159,0.374c-0.047,0.112 -0.102,0.246 -0.165,0.4c-0.064,0.155 -0.117,0.289 -0.161,0.402c-0.044,0.112 -0.089,0.23 -0.134,0.351c-0.045,0.122 -0.089,0.234 -0.133,0.338c-0.044,0.104 -0.083,0.193 -0.116,0.267c-0.032,0.074 -0.067,0.155 -0.102,0.241c-0.036,0.086 -0.067,0.157 -0.094,0.214c-0.026,0.056 -0.064,0.121 -0.112,0.196c-0.047,0.074 -0.092,0.072 -0.134,-0.006c-0.042,-0.077 -0.063,-0.162 -0.063,-0.254c0,-0.092 0.011,-0.188 0.032,-0.289c0.021,-0.101 0.048,-0.22 0.081,-0.356c0.033,-0.136 0.065,-0.27 0.098,-0.4c0.033,-0.131 0.076,-0.302 0.129,-0.512c0.053,-0.211 0.107,-0.411 0.16,-0.601c0.053,-0.19 0.105,-0.378 0.156,-0.565c0.051,-0.187 0.105,-0.385 0.161,-0.593c0.056,-0.207 0.113,-0.416 0.169,-0.627c0.056,-0.21 0.108,-0.415 0.156,-0.614c0.048,-0.199 0.098,-0.42 0.152,-0.663c0.053,-0.243 0.1,-0.47 0.142,-0.681c0.042,-0.211 0.075,-0.4 0.099,-0.566c0.023,-0.166 0.042,-0.326 0.058,-0.481c0.015,-0.154 0.027,-0.285 0.035,-0.392c0.008,-0.106 0.014,-0.195 0.017,-0.267c0.003,-0.071 0.005,-0.144 0.005,-0.218c0,-0.074 -0.002,-0.074 -0.005,0c-0.003,0.074 -0.012,0.143 -0.026,0.206c-0.015,0.062 -0.033,0.126 -0.054,0.191c-0.021,0.065 -0.043,0.138 -0.067,0.218c-0.024,0.079 -0.05,0.169 -0.08,0.267c-0.03,0.098 -0.058,0.19 -0.084,0.276c-0.027,0.086 -0.058,0.187 -0.094,0.303c-0.036,0.116 -0.07,0.23 -0.103,0.343c-0.032,0.113 -0.066,0.226 -0.102,0.338c-0.036,0.112 -0.072,0.228 -0.107,0.346c-0.036,0.119 -0.075,0.239 -0.116,0.361c-0.041,0.123 -0.081,0.247 -0.119,0.374c-0.039,0.128 -0.081,0.254 -0.126,0.379c-0.045,0.125 -0.089,0.26 -0.134,0.405c-0.044,0.146 -0.088,0.284 -0.133,0.414c-0.045,0.131 -0.087,0.252 -0.125,0.365c-0.039,0.112 -0.077,0.209 -0.112,0.289c-0.036,0.081 -0.074,0.193 -0.115,0.339c-0.041,0.145 -0.078,0.252 -0.111,0.32c-0.033,0.068 -0.067,0.155 -0.103,0.262c-0.036,0.106 -0.078,0.21 -0.125,0.311c-0.048,0.101 -0.09,0.175 -0.126,0.223c-0.036,0.048 -0.075,0.047 -0.119,-0.004c-0.045,-0.05 -0.068,-0.107 -0.071,-0.169c-0.003,-0.062 -0.005,-0.123 -0.005,-0.182c0,-0.06 0,-0.141 0,-0.245c0,-0.104 0.006,-0.221 0.017,-0.352c0.012,-0.13 0.026,-0.242 0.045,-0.334c0.018,-0.091 0.037,-0.198 0.058,-0.32c0.02,-0.122 0.046,-0.259 0.075,-0.41c0.03,-0.151 0.058,-0.304 0.085,-0.458c0.026,-0.154 0.056,-0.307 0.089,-0.459c0.032,-0.151 0.067,-0.307 0.102,-0.468c0.036,-0.16 0.072,-0.329 0.108,-0.507c0.035,-0.178 0.073,-0.353 0.111,-0.525c0.039,-0.171 0.081,-0.345 0.126,-0.52c0.045,-0.175 0.086,-0.347 0.124,-0.517c0.038,-0.169 0.077,-0.337 0.115,-0.503c0.039,-0.166 0.077,-0.33 0.112,-0.493c0.036,-0.163 0.066,-0.308 0.089,-0.433c0.024,-0.125 0.046,-0.249 0.067,-0.374c0.022,-0.124 0.038,-0.232 0.05,-0.324c0.011,-0.093 0.021,-0.173 0.03,-0.241c0.009,-0.068 0.016,-0.142 0.019,-0.223c0.003,-0.08 -0.014,-0.09 -0.049,-0.031c-0.036,0.059 -0.067,0.12 -0.094,0.183c-0.027,0.063 -0.058,0.139 -0.093,0.228c-0.036,0.088 -0.075,0.185 -0.117,0.289c-0.042,0.103 -0.088,0.219 -0.138,0.346c-0.05,0.128 -0.098,0.246 -0.143,0.356c-0.044,0.11 -0.097,0.238 -0.156,0.384c-0.059,0.145 -0.119,0.295 -0.178,0.449c-0.059,0.154 -0.12,0.311 -0.182,0.471c-0.063,0.161 -0.128,0.326 -0.196,0.495c-0.069,0.169 -0.14,0.355 -0.215,0.556c-0.075,0.201 -0.143,0.384 -0.205,0.548c-0.063,0.163 -0.132,0.346 -0.209,0.547c-0.077,0.201 -0.141,0.379 -0.192,0.534c-0.051,0.155 -0.103,0.315 -0.156,0.481c-0.053,0.166 -0.102,0.322 -0.147,0.467c-0.045,0.146 -0.088,0.288 -0.129,0.427c-0.041,0.139 -0.077,0.258 -0.106,0.356c-0.03,0.098 -0.06,0.189 -0.091,0.272c-0.03,0.084 -0.057,0.165 -0.08,0.245c-0.024,0.08 -0.051,0.155 -0.08,0.227c-0.03,0.071 -0.054,0.076 -0.071,0.013c-0.018,-0.062 -0.023,-0.139 -0.017,-0.231c0.006,-0.091 0.021,-0.188 0.044,-0.289c0.024,-0.101 0.052,-0.22 0.085,-0.357c0.033,-0.137 0.065,-0.269 0.098,-0.396c0.032,-0.127 0.072,-0.28 0.12,-0.458c0.047,-0.178 0.094,-0.351 0.142,-0.521c0.048,-0.169 0.099,-0.34 0.152,-0.512c0.053,-0.172 0.111,-0.371 0.174,-0.597c0.062,-0.225 0.124,-0.443 0.186,-0.653c0.063,-0.211 0.124,-0.414 0.183,-0.61c0.059,-0.197 0.123,-0.418 0.192,-0.664c0.068,-0.245 0.131,-0.481 0.188,-0.707c0.057,-0.226 0.109,-0.447 0.156,-0.663c0.047,-0.217 0.089,-0.426 0.125,-0.627c0.035,-0.202 0.064,-0.386 0.084,-0.552c0.021,-0.166 0.037,-0.316 0.049,-0.45c0.012,-0.134 0.021,-0.267 0.027,-0.397c0.006,-0.13 0.009,-0.239 0.009,-0.328l0,-0.433c0,-0.069 -0.032,-0.083 -0.098,-0.045c-0.065,0.039 -0.111,0.091 -0.138,0.156c-0.026,0.065 -0.057,0.139 -0.093,0.222c-0.036,0.084 -0.069,0.167 -0.098,0.25c-0.03,0.084 -0.069,0.185 -0.117,0.303c-0.047,0.119 -0.097,0.245 -0.147,0.378c-0.05,0.134 -0.101,0.266 -0.151,0.397c-0.051,0.13 -0.103,0.264 -0.157,0.4c-0.053,0.136 -0.109,0.276 -0.169,0.419c-0.059,0.142 -0.121,0.295 -0.187,0.458c-0.065,0.163 -0.132,0.326 -0.2,0.49c-0.069,0.163 -0.142,0.341 -0.22,0.533c-0.077,0.193 -0.15,0.377 -0.219,0.552c-0.068,0.175 -0.134,0.342 -0.196,0.499c-0.062,0.158 -0.123,0.318 -0.182,0.481c-0.06,0.163 -0.111,0.31 -0.156,0.441c-0.044,0.13 -0.088,0.261 -0.133,0.392c-0.045,0.13 -0.087,0.25 -0.125,0.36c-0.039,0.109 -0.074,0.203 -0.103,0.28c-0.03,0.077 -0.055,0.147 -0.075,0.209c-0.021,0.063 -0.051,0.134 -0.09,0.214c-0.038,0.08 -0.071,0.073 -0.098,-0.022c-0.026,-0.095 -0.036,-0.184 -0.031,-0.267c0.007,-0.083 0.022,-0.183 0.045,-0.298c0.024,-0.116 0.053,-0.246 0.089,-0.388c0.036,-0.143 0.073,-0.29 0.112,-0.441c0.039,-0.151 0.079,-0.311 0.12,-0.48c0.041,-0.169 0.087,-0.353 0.138,-0.552c0.051,-0.199 0.101,-0.379 0.151,-0.539c0.051,-0.16 0.107,-0.347 0.169,-0.56c0.063,-0.213 0.123,-0.423 0.183,-0.627c0.059,-0.205 0.116,-0.41 0.17,-0.615c0.054,-0.205 0.107,-0.409 0.161,-0.614c0.053,-0.205 0.102,-0.408 0.147,-0.61c0.045,-0.202 0.084,-0.391 0.116,-0.566c0.033,-0.175 0.063,-0.354 0.089,-0.538c0.027,-0.184 0.047,-0.357 0.062,-0.52c0.014,-0.163 0.025,-0.306 0.031,-0.428c0.006,-0.122 0.01,-0.232 0.013,-0.329c0.003,-0.098 0.005,-0.184 0.005,-0.258c0,-0.074 0,-0.16 0,-0.258c0,-0.099 -0.021,-0.123 -0.063,-0.072c-0.042,0.05 -0.073,0.112 -0.094,0.186c-0.02,0.074 -0.042,0.158 -0.066,0.25c-0.023,0.093 -0.048,0.189 -0.075,0.289c-0.027,0.101 -0.055,0.203 -0.086,0.307c-0.03,0.105 -0.061,0.213 -0.093,0.326c-0.032,0.112 -0.067,0.228 -0.106,0.346c-0.039,0.119 -0.081,0.239 -0.126,0.361c-0.044,0.122 -0.097,0.254 -0.156,0.396c-0.059,0.142 -0.119,0.282 -0.178,0.419c-0.059,0.137 -0.12,0.279 -0.182,0.428c-0.063,0.148 -0.128,0.299 -0.197,0.453c-0.068,0.154 -0.135,0.308 -0.201,0.463c-0.065,0.155 -0.132,0.31 -0.2,0.467c-0.069,0.157 -0.136,0.313 -0.201,0.467c-0.066,0.155 -0.131,0.306 -0.196,0.455c-0.066,0.148 -0.131,0.289 -0.196,0.423c-0.066,0.133 -0.124,0.256 -0.174,0.369c-0.05,0.113 -0.098,0.215 -0.143,0.307c-0.045,0.092 -0.089,0.181 -0.134,0.267c-0.045,0.086 -0.086,0.156 -0.124,0.209c-0.038,0.053 -0.089,0.111 -0.151,0.174c-0.063,0.062 -0.121,0.085 -0.175,0.067c-0.054,-0.017 -0.084,-0.084 -0.09,-0.2c-0.006,-0.116 -0.009,-0.22 -0.009,-0.312c0,-0.093 0.003,-0.188 0.009,-0.285c0.006,-0.098 0.022,-0.204 0.046,-0.32c0.024,-0.116 0.053,-0.245 0.085,-0.388c0.033,-0.142 0.067,-0.288 0.102,-0.436c0.035,-0.149 0.073,-0.304 0.115,-0.467c0.042,-0.164 0.087,-0.33 0.135,-0.499c0.048,-0.17 0.101,-0.354 0.161,-0.552c0.059,-0.199 0.114,-0.381 0.164,-0.547c0.05,-0.166 0.109,-0.353 0.178,-0.561c0.068,-0.208 0.134,-0.409 0.196,-0.602c0.063,-0.193 0.126,-0.384 0.192,-0.574c0.065,-0.19 0.129,-0.377 0.191,-0.56c0.063,-0.184 0.118,-0.351 0.166,-0.502c0.048,-0.152 0.091,-0.293 0.129,-0.423c0.038,-0.131 0.075,-0.26 0.11,-0.388c0.036,-0.128 0.066,-0.233 0.091,-0.316c0.024,-0.084 0.045,-0.157 0.063,-0.219c0.017,-0.062 0.035,-0.127 0.053,-0.195c0.018,-0.069 0.014,-0.054 -0.014,0.044c-0.027,0.098 -0.053,0.178 -0.076,0.24c-0.024,0.062 -0.052,0.131 -0.084,0.205c-0.033,0.074 -0.073,0.159 -0.12,0.254c-0.048,0.095 -0.097,0.192 -0.148,0.29c-0.051,0.098 -0.104,0.2 -0.16,0.307c-0.057,0.107 -0.122,0.227 -0.197,0.361c-0.074,0.133 -0.143,0.256 -0.205,0.369c-0.062,0.113 -0.135,0.245 -0.218,0.396c-0.083,0.151 -0.162,0.298 -0.236,0.441c-0.075,0.143 -0.149,0.285 -0.224,0.427c-0.074,0.142 -0.148,0.281 -0.222,0.418c-0.074,0.137 -0.146,0.269 -0.218,0.396c-0.072,0.128 -0.137,0.246 -0.196,0.356c-0.06,0.11 -0.119,0.219 -0.178,0.326c-0.06,0.106 -0.115,0.198 -0.166,0.275c-0.051,0.077 -0.098,0.15 -0.142,0.218c-0.044,0.069 -0.084,0.13 -0.12,0.183c-0.036,0.054 -0.082,0.106 -0.139,0.156c-0.057,0.05 -0.115,0.049 -0.175,-0.005c-0.059,-0.054 -0.089,-0.113 -0.089,-0.178c0,-0.065 0,-0.133 0,-0.205c0,-0.071 0.003,-0.157 0.009,-0.258c0.006,-0.101 0.02,-0.206 0.04,-0.316c0.021,-0.109 0.045,-0.225 0.072,-0.347c0.027,-0.122 0.059,-0.254 0.095,-0.396c0.036,-0.142 0.071,-0.283 0.106,-0.423c0.035,-0.14 0.072,-0.276 0.111,-0.41c0.038,-0.133 0.085,-0.283 0.139,-0.449c0.054,-0.166 0.107,-0.325 0.161,-0.476c0.053,-0.151 0.109,-0.302 0.168,-0.454c0.06,-0.152 0.121,-0.305 0.183,-0.459c0.062,-0.154 0.126,-0.308 0.192,-0.463c0.065,-0.154 0.13,-0.309 0.196,-0.463c0.065,-0.154 0.129,-0.308 0.192,-0.462c0.062,-0.155 0.117,-0.305 0.165,-0.45c0.048,-0.146 0.087,-0.272 0.116,-0.379c0.03,-0.107 0.054,-0.203 0.071,-0.289c0.018,-0.086 0.031,-0.157 0.04,-0.214c0.009,-0.056 0.014,-0.114 0.014,-0.174c0,-0.059 -0.023,-0.068 -0.068,-0.026c-0.045,0.042 -0.086,0.097 -0.125,0.165c-0.039,0.068 -0.077,0.141 -0.115,0.218c-0.038,0.077 -0.084,0.168 -0.138,0.271c-0.054,0.104 -0.112,0.219 -0.175,0.344c-0.062,0.124 -0.123,0.248 -0.182,0.369c-0.06,0.122 -0.124,0.248 -0.192,0.378c-0.069,0.131 -0.14,0.262 -0.213,0.392c-0.074,0.131 -0.144,0.254 -0.209,0.37c-0.066,0.116 -0.14,0.246 -0.224,0.391c-0.083,0.145 -0.163,0.278 -0.237,0.401c-0.075,0.122 -0.142,0.236 -0.201,0.343c-0.059,0.106 -0.121,0.212 -0.187,0.315c-0.065,0.104 -0.126,0.204 -0.182,0.299c-0.057,0.095 -0.109,0.178 -0.156,0.249c-0.047,0.071 -0.093,0.14 -0.138,0.209c-0.045,0.068 -0.1,0.14 -0.165,0.214c-0.066,0.074 -0.122,0.13 -0.17,0.169c-0.048,0.039 -0.088,0.015 -0.121,-0.071c-0.033,-0.086 -0.043,-0.16 -0.031,-0.222l0.018,-0.094" style="fill:none;stroke:#000;stroke-width:1.7px;"/><circle id="STROKE_BC698804.-C431.-422D.-B730.-65307E2C7337" cx="99.919" cy="87.562" r="0.85" style="stroke:#000;stroke-width:0.03px;stroke-linecap:butt;stroke-linejoin:miter;"/><circle id="STROKE_96FCAB90.-7977.-49B3.-AA56.-CC5F4BE9E6DB" cx="100.062" cy="87.579" r="0.85" style="stroke:#000;stroke-width:0.03px;stroke-linecap:butt;stroke-linejoin:miter;"/><circle id="STROKE_8F33E48D.-408E.-473E.-B605.-3B424E764E7B" cx="100.096" cy="87.526" r="0.85" style="stroke:#000;stroke-width:0.03px;stroke-linecap:butt;stroke-linejoin:miter;"/><circle id="STROKE_540369B5.-27F0.-4BA5.-A342.-3935BF0B65DE" cx="100.151" cy="87.242" r="0.85" style="stroke:#000;stroke-width:0.03px;stroke-linecap:butt;stroke-linejoin:miter;"/><path id="STROKE_063C884C.-7E03.-423D.-8E9A.-591DA94840B6" d="M100.151,87.242c0.113,0.065 0.171,0.131 0.174,0.2c0.003,0.068 0.004,0.134 0.004,0.196c0,0.062 0.002,0.127 0.005,0.195c0.003,0.068 0.004,0.145 0.004,0.231l0,2.827c0,0.095 -0.001,0.186 -0.004,0.272c-0.003,0.086 -0.006,0.171 -0.009,0.254c-0.003,0.082 -0.005,0.156 -0.005,0.222l0,0.382c0,0.071 -0.001,0.141 -0.005,0.209c-0.003,0.068 -0.009,0.137 -0.018,0.206c-0.009,0.068 -0.021,0.136 -0.035,0.204l-0.022,0.102" style="fill:none;stroke:#000;stroke-width:1.7px;"/><path id="STROKE_6E9D55CF.-2E4F.-487E.-81AA.-FA42894CE631" d="M100.185,92.92c-0.124,0.03 -0.221,0.042 -0.29,0.036c-0.068,-0.006 -0.133,-0.01 -0.195,-0.013c-0.063,-0.003 -0.124,-0.009 -0.183,-0.018c-0.06,-0.009 -0.123,-0.018 -0.192,-0.027c-0.068,-0.008 -0.134,-0.015 -0.196,-0.022c-0.062,-0.006 -0.128,-0.011 -0.196,-0.014c-0.069,-0.002 -0.137,-0.007 -0.206,-0.012c-0.068,-0.006 -0.135,-0.011 -0.2,-0.014c-0.066,-0.004 -0.128,-0.007 -0.187,-0.009c-0.06,-0.003 -0.119,-0.012 -0.178,-0.027c-0.06,-0.015 -0.116,-0.032 -0.169,-0.053c-0.054,-0.02 -0.114,-0.035 -0.183,-0.045c-0.068,-0.009 -0.138,-0.013 -0.21,-0.013l-0.593,0c-0.062,0 -0.129,-0.002 -0.201,-0.005c-0.071,-0.002 -0.137,-0.004 -0.196,-0.004l-0.575,0c-0.075,0 -0.146,0.002 -0.213,0.004c-0.068,0.003 -0.13,0.005 -0.187,0.005c-0.058,0 -0.119,0.003 -0.184,0.009c-0.066,0.007 -0.131,0.014 -0.197,0.022c-0.065,0.009 -0.13,0.018 -0.195,0.027c-0.066,0.009 -0.131,0.021 -0.197,0.036c-0.065,0.015 -0.13,0.032 -0.195,0.053c-0.065,0.02 -0.128,0.038 -0.191,0.053c-0.064,0.015 -0.126,0.027 -0.189,0.036c-0.062,0.009 -0.125,0.019 -0.187,0.031c-0.062,0.012 -0.129,0.029 -0.2,0.05c-0.07,0.02 -0.133,0.041 -0.187,0.062c-0.054,0.021 -0.11,0.042 -0.17,0.062c-0.059,0.021 -0.12,0.044 -0.182,0.071c-0.063,0.027 -0.125,0.042 -0.187,0.045c-0.063,0.003 -0.125,0.007 -0.187,0.013c-0.063,0.005 -0.124,0.01 -0.183,0.013c-0.059,0.004 -0.119,0.008 -0.178,0.014c-0.059,0.006 -0.119,0.011 -0.179,0.017c-0.06,0.006 -0.129,0.013 -0.205,0.022c-0.077,0.009 -0.145,0.015 -0.205,0.018c-0.059,0.003 -0.12,0.006 -0.182,0.009c-0.063,0.003 -0.125,0.007 -0.187,0.014c-0.063,0.006 -0.125,0.012 -0.187,0.018c-0.063,0.005 -0.127,0.01 -0.192,0.012c-0.065,0.003 -0.131,0.005 -0.196,0.005c-0.066,0 -0.133,0 -0.201,0c-0.068,0 -0.137,-0.002 -0.206,-0.005c-0.068,-0.002 -0.135,-0.014 -0.2,-0.035c-0.066,-0.02 -0.128,-0.038 -0.187,-0.053c-0.06,-0.014 -0.119,-0.029 -0.178,-0.044c-0.06,-0.015 -0.119,-0.027 -0.179,-0.036c-0.06,-0.009 -0.122,-0.018 -0.184,-0.027c-0.062,-0.008 -0.125,-0.02 -0.187,-0.035c-0.063,-0.014 -0.127,-0.032 -0.192,-0.054c-0.065,-0.021 -0.132,-0.045 -0.201,-0.072c-0.068,-0.026 -0.134,-0.056 -0.196,-0.088c-0.062,-0.033 -0.125,-0.061 -0.187,-0.085c-0.062,-0.024 -0.122,-0.057 -0.178,-0.098c-0.056,-0.041 -0.119,-0.085 -0.187,-0.133c-0.068,-0.048 -0.116,-0.1 -0.143,-0.156c-0.026,-0.056 -0.072,-0.097 -0.138,-0.124c-0.065,-0.027 -0.121,-0.06 -0.169,-0.098c-0.047,-0.039 -0.094,-0.076 -0.142,-0.112c-0.048,-0.035 -0.087,-0.088 -0.116,-0.16c-0.03,-0.071 -0.072,-0.126 -0.125,-0.165c-0.053,-0.039 -0.11,-0.082 -0.17,-0.129c-0.06,-0.047 -0.111,-0.093 -0.152,-0.138c-0.041,-0.044 -0.081,-0.096 -0.12,-0.155c-0.038,-0.06 -0.079,-0.112 -0.12,-0.156l-0.063,-0.067" style="fill:none;stroke:#000;stroke-width:1.7px;"/><path id="STROKE_8E0B5CF2.-32F2.-433B.-BB6E.-933D8931893A" d="M100.016,93.064c0.131,-0.043 0.223,-0.084 0.277,-0.126c0.053,-0.042 0.105,-0.083 0.156,-0.124c0.051,-0.041 0.106,-0.075 0.165,-0.102c0.06,-0.027 0.129,-0.043 0.209,-0.05c0.08,-0.006 0.154,-0.009 0.223,-0.009c0.068,0 0.144,0.003 0.228,0.009c0.083,0.007 0.167,0.014 0.25,0.022c0.083,0.009 0.164,0.018 0.245,0.027c0.081,0.009 0.151,0.018 0.21,0.027c0.059,0.01 0.118,0.017 0.178,0.023c0.059,0.005 0.118,0.011 0.178,0.017c0.059,0.006 0.118,0.012 0.178,0.018c0.059,0.006 0.118,0.012 0.178,0.018c0.059,0.005 0.119,0.01 0.179,0.013c0.06,0.002 0.121,0.007 0.184,0.013c0.062,0.007 0.124,0.016 0.187,0.028c0.062,0.012 0.124,0.023 0.187,0.035l0.093,0.017" style="fill:none;stroke:#000;stroke-width:1.7px;"/><path id="STROKE_4A01A5B6.-DE60.-419F.-877B.-51DFE236CFB1" d="M103.699,92.983c0.119,0.03 0.207,0.052 0.263,0.067c0.056,0.015 0.123,0.036 0.201,0.062c0.077,0.027 0.156,0.045 0.236,0.054c0.08,0.008 0.158,0.015 0.236,0.022c0.077,0.006 0.158,0.011 0.24,0.013c0.083,0.003 0.153,0.005 0.211,0.005c0.057,0 0.128,0.001 0.214,0.004c0.086,0.003 0.17,0.006 0.253,0.008c0.083,0.003 0.163,0.005 0.241,0.005l0.963,0" style="fill:none;stroke:#000;stroke-width:1.7px;"/><path id="STROKE_12442AEE.-7BA4.-4F11.-B9C7.-8FAA04CDADE6" d="M107.051,93.188c0.131,-0.006 0.228,-0.015 0.29,-0.027c0.062,-0.011 0.123,-0.024 0.182,-0.039c0.06,-0.015 0.122,-0.032 0.188,-0.05c0.065,-0.018 0.127,-0.036 0.187,-0.054c0.059,-0.017 0.126,-0.04 0.201,-0.066c0.074,-0.027 0.145,-0.058 0.214,-0.094c0.069,-0.035 0.135,-0.075 0.201,-0.12c0.065,-0.044 0.132,-0.086 0.201,-0.124c0.068,-0.039 0.137,-0.08 0.205,-0.121c0.068,-0.042 0.123,-0.083 0.164,-0.124c0.041,-0.041 0.09,-0.084 0.147,-0.129c0.058,-0.044 0.111,-0.09 0.161,-0.138c0.05,-0.048 0.095,-0.102 0.134,-0.161c0.039,-0.059 0.079,-0.122 0.121,-0.187c0.041,-0.064 0.077,-0.127 0.107,-0.186c0.03,-0.059 0.055,-0.117 0.075,-0.174c0.021,-0.056 0.046,-0.116 0.076,-0.178c0.029,-0.062 0.059,-0.132 0.088,-0.209c0.03,-0.078 0.06,-0.154 0.09,-0.228c0.029,-0.074 0.056,-0.142 0.079,-0.204c0.024,-0.063 0.048,-0.128 0.072,-0.196c0.024,-0.069 0.045,-0.139 0.063,-0.209l0.026,-0.107" style="fill:none;stroke:#000;stroke-width:1.7px;"/></g></g></svg>