<?xml version="1.0" encoding="utf-8"?>
<!-- Generator: Adobe Illustrator 16.0.0, SVG Export Plug-In . SVG Version: 6.00 Build 0)  -->
<!DOCTYPE svg PUBLIC "-//W3C//DTD SVG 1.1//EN" "http://www.w3.org/Graphics/SVG/1.1/DTD/svg11.dtd">
<svg version="1.1" id="Layer_1" xmlns="http://www.w3.org/2000/svg" xmlns:xlink="http://www.w3.org/1999/xlink" x="0px" y="0px"
	 width="160px" height="160px" viewBox="0 0 160 160" enable-background="new 0 0 160 160" xml:space="preserve">
<g id="f9">
	<path fill-opacity="0.8" d="M81.312,41.731c21.166,0.724,38.127,18.135,38.127,39.476c0,21.342-16.961,38.753-38.127,39.477v-0.063
		c13.012-1.353,18.59-18.494,18.59-39.414c0-20.918-10.387-38.561-18.59-39.413V41.731z"/>
	
		<path fill="#FFFFFF" fill-opacity="0.8941" stroke="#000000" stroke-width="1.7" stroke-linecap="round" stroke-linejoin="round" stroke-miterlimit="1.5" d="
		M105.791,77.609c-0.429-1.239-0.675-2.685-0.675-4.229c0-4.577,2.165-8.293,4.83-8.293c2.666,0,4.832,3.716,4.832,8.293
		c0,1.143-0.135,2.232-0.379,3.223c-0.844-2.432-2.39-4.064-4.156-4.064C108.243,72.539,106.524,74.631,105.791,77.609z"/>
	
		<path fill="#FFFFFF" fill-opacity="0.8941" stroke="#000000" stroke-width="1.7" stroke-linecap="round" stroke-linejoin="round" stroke-miterlimit="1.5" d="
		M81.586,78.809c0,0-4.98,4.453-5.816,5.634c-3.207,4.527,5.089,7.9,5.686,3.048C81.622,86.15,81.586,78.809,81.586,78.809z"/>
	<g>
		
			<ellipse fill="#FFFFFF" fill-opacity="0.8941" stroke="#000000" stroke-width="1.7" stroke-linecap="round" stroke-linejoin="round" stroke-miterlimit="1.5" cx="88.377" cy="73.043" rx="4.406" ry="7.312"/>
	</g>
	
		<path fill="#001" stroke="#000000" stroke-width="1.7" stroke-linecap="round" stroke-linejoin="round" stroke-miterlimit="1.5" d="
		M99.306,92.445c-0.164-0.002-0.328-0.004-0.494-0.004c-7.832,0-14.305,3.588-15.271,8.225c-0.082-0.395-0.125-0.797-0.125-1.203
		c0-5.204,6.897-9.428,15.396-9.428c0.244,0,0.488,0.003,0.73,0.01C99.474,90.854,99.396,91.656,99.306,92.445z"/>
	<path d="M99.521,90.309c7.67-0.232,13.906-3.43,14.941-7.53c0.1,0.715,0.152,1.443,0.152,2.186c0,8.745-7.165,15.844-15.99,15.844
		c-0.246,0-0.492-0.005-0.736-0.016C98.653,97.557,99.192,94.033,99.521,90.309z"/>
	
		<path fill="#FFFFFF" fill-opacity="0.8941" stroke="#000000" stroke-width="1.7" stroke-linecap="round" stroke-linejoin="round" stroke-miterlimit="1.5" d="
		M99.521,90.309c7.67-0.232,13.906-3.43,14.941-7.53c0.066,0.468,0.109,0.942,0.133,1.423c-0.396,6.313-7.265,11.359-15.716,11.459
		C99.146,93.932,99.358,92.145,99.521,90.309z"/>
</g>
</svg>
