<svg xmlns="http://www.w3.org/2000/svg"><path fill="#442a16" d="M81.1 33.8s6.7 2.4 4.4 4.8-4.9-3.8-16.7-1.2S42 42 41 72.4l16.1 3.1s-3.3-12.1 6.7-12.1V51.3s20 10.9 33.4 6 27.8-36.2 3.3-39.9-19.4 16.4-19.4 16.4"/><path d="m41 72.4 16.1 3.1s-3.3-12.1 6.7-12.1c0 0-10-10.9 0-12.1s20 10.9 33.4 6 27.8-36.2 3.3-39.9c9.2 13.9 6.2 21-6.1 25.9-10.9 4.4-21.4.9-33.2 5.1C46 52 41.5 67.1 41 72.4" opacity=".1"/><path fill="#442a16" d="M105 50.6s6 6.5 7.2 10.5 3.6 1.3 3.6-2.6c0-7.4-3-10.4-5.9-14.4"/><path d="M105 50.6s6 6.5 7.2 10.5 3.6 1.3 3.6-2.6c1.1-5.2-5.9-14.4-5.9-14.4" opacity=".1"/><path fill="#754c24" d="M41.3 73.9 57 77.5v2l-15.5-4zm4 4.4 11.2 2.8.2 2-11.1-3.2z"/></svg>