<svg xmlns="http://www.w3.org/2000/svg"><path fill="#743a4b" d="M43.8 62.3c-2.8.7-3.5-1.6.2-5.3a55.4 55.4 0 0 1 39-14c24 1 31 10 31 10s4 5-2.4 3.7c0 0-31-14.1-67.8 5.6"/><path d="M45.5 60.2A48.2 48.2 0 0 1 68 50c18-4 39.1 1.6 39.1 1.6s5.9 1.1 5.9 3.3-3 .2-3 .2c-24.3-5.3-47.7-5.6-66 8 0-.1-1-.7 1.5-2.9" opacity=".2"/><ellipse cx="94" cy="37.3" fill="#c1c1c1" rx="14.8" ry="16.9" transform="rotate(-23.9 94 37.3)"/><ellipse cx="94.7" cy="36.2" fill="#efefef" rx="14.1" ry="16.2" transform="rotate(-24.3 94.7 36.2)"/><ellipse cx="95.4" cy="36.7" fill="#fff" rx="11.5" ry="13" transform="rotate(-17.1 95.4 36.7)"/><ellipse cx="96.1" cy="36.5" rx="3.5" ry="4" transform="rotate(-17.1 96.1 36.5)"/><path fill="#010101" d="M93.2 34.2a7 7 0 0 1 3.6 2.2c1.5 1.7.8 4-1.2 3.9 3.4.7 4.6-2.7 3.3-5.9 0 0-2.5-4.1-5.7-.2" opacity=".3"/></svg>