<?xml version="1.0" encoding="utf-8"?>
<!-- Generator: Adobe Illustrator 16.0.0, SVG Export Plug-In . SVG Version: 6.00 Build 0)  -->
<!DOCTYPE svg PUBLIC "-//W3C//DTD SVG 1.1//EN" "http://www.w3.org/Graphics/SVG/1.1/DTD/svg11.dtd">
<svg version="1.1" id="Layer_1" xmlns="http://www.w3.org/2000/svg" xmlns:xlink="http://www.w3.org/1999/xlink" x="0px" y="0px"
     width="160px" height="160px" viewBox="0 0 160 160" enable-background="new 0 0 160 160" xml:space="preserve">
    <defs>
        <rect id="path-1" x="0" y="0" width="160" height="160"></rect>
        <path d="M109.124741,27.6381084 L163.907644,59.2670322 C168.858061,62.125157 171.907644,67.4071893 171.907644,73.1234387 L171.907644,136.381286 C171.907644,142.097536 168.858061,147.379568 163.907644,150.237693 L109.124741,181.866617 C104.174324,184.724741 98.0751584,184.724741 93.1247411,181.866617 L38.3418381,150.237693 C33.3914209,147.379568 30.3418381,142.097536 30.3418381,136.381286 L30.3418381,73.1234387 C30.3418381,67.4071893 33.3914209,62.125157 38.3418381,59.2670322 L93.1247411,27.6381084 C98.0751584,24.7799837 104.174324,24.7799837 109.124741,27.6381084 Z" id="path-2"></path>
    </defs>
    <g id="Page-1" stroke="none" stroke-width="1" fill="none" fill-rule="evenodd">
        <g id="Guitar-528-2" transform="translate(-21.000000, -26.000000)">
            <mask id="mask-3" fill="white">
                <use xlink:href="#path-2"></use>
            </mask>
            <g id="Mask" transform="translate(101.124741, 104.752363) rotate(30.000000) translate(-101.124741, -104.752363) "></g>
            <g mask="url(#mask-3)">
                <g transform="translate(103.821505, 154.821505) rotate(25.000000) translate(-103.821505, -154.821505) translate(60.321505, 114.321505)">
                    <g id="layer101" transform="translate(20.414822, 0.000000)">
                        <path d="M12.7056772,60.2628302 C12.4605516,59.996349 12.5422601,59.8821427 12.9099486,59.9202115 C12.9916571,59.9392458 13.747461,59.2730427 14.6054007,58.4355302 C15.5041945,57.559949 16.1987171,57.0079521 16.2804256,57.1411928 C16.3621342,57.2363646 15.6471845,58.0548427 14.6871092,58.9494583 C13.1755013,60.3580021 12.9303757,60.5102771 12.7056772,60.2628302 Z" id="Shape" fill="#C16629" fill-rule="nonzero"></path>
                        <path d="M8.90623033,59.4062833 C8.7632404,59.1778708 9.15135594,58.9494583 9.41690868,59.1017333 C9.64160715,59.234974 9.49861721,59.5775927 9.21263734,59.5775927 C9.11050167,59.5775927 8.98793887,59.5014552 8.90623033,59.4062833 Z" id="Shape" fill="#C16629" fill-rule="nonzero"></path>
                        <path d="M9.92758702,59.4062833 C9.78459709,59.1778708 10.1727126,58.9494583 10.4382654,59.1017333 C10.6629638,59.234974 10.5199739,59.5775927 10.233994,59.5775927 C10.1318584,59.5775927 10.0092956,59.5014552 9.92758702,59.4062833 Z" id="Shape" fill="#C16629" fill-rule="nonzero"></path>
                        <path d="M4.73909504,55.884924 C2.79851733,54.0576241 1.28690943,52.5348741 1.3890451,52.477771 C1.49118077,52.4206678 3.16620574,53.8482459 5.10678345,55.6565115 C7.04736116,57.4838115 8.55896906,59.0065615 8.45683339,59.0636646 C8.35469772,59.1207677 6.67967275,57.6931896 4.73909504,55.884924 Z" id="Shape" fill="#C16629" fill-rule="nonzero"></path>
                        <path d="M0.939648154,51.9638428 C0.857939619,51.8496366 0.878366753,51.6592928 1.00092956,51.5450866 C1.12349236,51.4308804 1.24605516,51.4308804 1.34819083,51.5831553 C1.42989937,51.6973616 1.40947223,51.8877053 1.28690943,52.0019116 C1.16434663,52.1161178 1.04178382,52.1161178 0.939648154,51.9638428 Z" id="Shape" fill="#C16629" fill-rule="nonzero"></path>
                        <path d="M18.0984405,48.7470335 C17.9554506,48.518621 18.3435661,48.2902085 18.6091189,48.4424835 C18.8338174,48.5757242 18.6908274,48.9183429 18.4048475,48.9183429 C18.3027119,48.9183429 18.1801491,48.8422054 18.0984405,48.7470335 Z" id="Shape" fill="#C16629" fill-rule="nonzero"></path>
                        <path d="M19.9368826,48.7470335 C19.7938926,48.518621 20.1820082,48.2902085 20.4475609,48.4424835 C20.6722594,48.5757242 20.5292695,48.9183429 20.2432896,48.9183429 C20.1411539,48.9183429 20.0185911,48.8422054 19.9368826,48.7470335 Z" id="Shape" fill="#C16629" fill-rule="nonzero"></path>
                        <path d="M0.0408542676,48.4805523 C-0.122562803,48.2902085 0.224698472,47.8524179 1.53203503,46.6532523 C2.47168319,45.7776711 3.35004994,45.111468 3.47261274,45.1876055 C3.59517555,45.263743 2.98236153,45.9299461 2.06314051,46.7674586 C1.16434663,47.5478679 0.490251211,48.2711742 0.531105479,48.3473117 C0.714949683,48.6328273 0.285979873,48.7279991 0.0408542676,48.4805523 Z" id="Shape" fill="#C16629" fill-rule="nonzero"></path>
                        <path d="M14.3398479,46.9387679 C13.9721595,46.5771148 13.747461,46.2535304 13.8700238,46.1964273 C13.9721595,46.1202898 14.3398479,46.3677367 14.7075363,46.7103554 C15.0752247,47.0720086 15.2999232,47.3955929 15.1773604,47.452696 C15.0752247,47.5288335 14.7075363,47.2813867 14.3398479,46.9387679 Z" id="Shape" fill="#C16629" fill-rule="nonzero"></path>
                        <path d="M23.4503496,47.4336617 C23.3686411,47.3384898 23.6341938,46.9958711 24.0018822,46.6532523 C24.3899977,46.3106336 24.737259,46.1012554 24.7985404,46.2154617 C24.880249,46.3106336 24.6146962,46.6532523 24.2470078,46.9958711 C23.8588923,47.3384898 23.511631,47.5478679 23.4503496,47.4336617 Z" id="Shape" fill="#C16629" fill-rule="nonzero"></path>
                        <path d="M25.65648,44.350093 C25.5951986,44.2549211 25.5951986,44.045543 25.6973343,43.9313367 C25.7790428,43.7980961 25.8198971,43.5506492 25.79947,43.3603055 C25.7586157,43.1889961 25.8403242,42.9986524 25.962887,42.9225149 C26.2488669,42.7512055 26.4735654,43.3793399 26.2080127,43.6267867 C26.0854498,43.740993 26.0445956,43.9313367 26.0854498,44.0645774 C26.2284398,44.3691273 25.8403242,44.6165742 25.65648,44.350093 Z" id="Shape" fill="#C16629" fill-rule="nonzero"></path>
                        <path d="M12.3788431,43.3983742 C12.2971345,43.284168 12.3175617,43.0938242 12.4401245,42.979618 C12.5626873,42.8654118 12.6852501,42.8654118 12.7873858,43.0176867 C12.8690943,43.131893 12.8486672,43.3222367 12.7261044,43.436443 C12.6035415,43.5506492 12.4809787,43.5506492 12.3788431,43.3983742 Z" id="Shape" fill="#C16629" fill-rule="nonzero"></path>
                        <path d="M12.3788431,41.6852805 C12.2971345,41.5710743 12.3175617,41.3807305 12.4401245,41.2665243 C12.5626873,41.152318 12.6852501,41.152318 12.7873858,41.304593 C12.8690943,41.4187993 12.8486672,41.609143 12.7261044,41.7233493 C12.6035415,41.8375555 12.4809787,41.8375555 12.3788431,41.6852805 Z" id="Shape" fill="#C16629" fill-rule="nonzero"></path>
                        <path d="M12.5831144,40.7335618 C12.5014059,40.6193555 12.521833,40.4290118 12.6443958,40.3148055 C12.7669586,40.2005993 12.8895214,40.2005993 12.9916571,40.3528743 C13.0733656,40.4670805 13.0529385,40.6574243 12.9303757,40.7716305 C12.8078129,40.8858368 12.6852501,40.8858368 12.5831144,40.7335618 Z" id="Shape" fill="#C16629" fill-rule="nonzero"></path>
                        <path d="M13.8291696,38.4875056 C13.7678882,38.3732993 13.8495967,38.20199 13.9925866,38.0877837 C14.1560037,37.9545431 14.3398479,37.9355087 14.4011293,38.0306806 C14.4624107,38.1448868 14.3807022,38.3161962 14.2377123,38.4304025 C14.0742952,38.5636431 13.890451,38.5826775 13.8291696,38.4875056 Z" id="Shape" fill="#C16629" fill-rule="nonzero"></path>
                        <path d="M14.6462549,37.7261306 C14.5849735,37.6119243 14.6666821,37.440615 14.809672,37.3264087 C14.9730891,37.1931681 15.1569333,37.1741337 15.2182147,37.2693056 C15.2794961,37.3835118 15.1977875,37.5548212 15.0547976,37.6690275 C14.8913805,37.8022681 14.7075363,37.8213025 14.6462549,37.7261306 Z" id="Shape" fill="#C16629" fill-rule="nonzero"></path>
                        <path d="M15.871883,36.9457212 C15.6880388,36.6602056 16.341707,36.2604837 16.5868326,36.4888962 C16.7502497,36.6411712 16.6889683,36.7553775 16.4029884,36.9076525 C16.1578628,37.0218587 15.9331644,37.0408931 15.871883,36.9457212 Z" id="Shape" fill="#C16629" fill-rule="nonzero"></path>
                        <path d="M17.0770838,36.37469 C16.954521,36.1653119 17.3426366,35.8797962 17.5264808,36.0511056 C17.5877622,36.1082087 17.7716064,36.07014 17.9145963,35.9559337 C18.2618576,35.6894525 18.8950988,35.8797962 18.7112546,36.1843462 C18.629546,36.2985525 18.3844204,36.3556556 18.1801491,36.2985525 C17.9758777,36.2414494 17.7307521,36.2795181 17.6694707,36.37469 C17.5264808,36.6031025 17.2405009,36.6031025 17.0770838,36.37469 Z" id="Shape" fill="#C16629" fill-rule="nonzero"></path>
                        <path d="M47.7586388,15.8556341 L43.7344934,12.1248967 L43.7344934,11.2493154 L43.7344934,10.3737342 L49.311101,5.19638428 C54.6221558,0.228412496 54.9081356,0 55.6435124,0 C56.0724823,0 56.6648691,0.114206248 56.9712761,0.266481245 C57.8904972,0.723306237 64.5293156,7.08078738 64.6723056,7.67085299 C65.0195669,8.94615609 64.8357226,9.17456859 59.0956981,14.5232279 L53.6212262,19.6054059 L52.7020052,19.6054059 L51.762357,19.6054059 L47.7586388,15.8556341 Z M56.4810249,11.8203467 C59.5859493,8.92712172 59.9127834,8.54643423 59.7902206,8.10864361 C59.6880849,7.72795611 59.5246679,7.61374987 59.0956981,7.61374987 C58.319467,7.61374987 51.905347,13.5524748 51.905347,14.2948154 C51.905347,14.5612966 51.9666284,14.8468122 52.0483369,14.9039154 C52.518161,15.3607404 53.2331107,14.8468122 56.4810249,11.8203467 Z M53.2943921,8.88905297 C55.3983868,6.92851238 56.6035877,5.65320928 56.6035877,5.40576241 C56.6035877,4.94893741 56.2358993,4.56824992 55.8069295,4.56824992 C55.2962512,4.56824992 48.6370056,10.8686279 48.6370056,11.3444873 C48.6370056,11.8584154 48.8004226,11.991656 49.4336638,11.991656 C49.8422064,11.991656 50.7001461,11.3064186 53.2943921,8.88905297 Z" id="Shape" fill="#C16629" fill-rule="nonzero"></path>
                    </g>
                    <g id="layer102" transform="translate(20.414822, 0.000000)">
                        <path d="M12.1984667,60.495339 C11.4784898,59.88234 11.3139236,59.8248714 11.0259328,60.0164336 C10.8613667,60.1696833 10.3059559,60.2654644 9.79168663,60.2654644 L8.86600197,60.2654644 L4.97812639,56.6640953 C0.781689268,52.7562266 0.514269256,52.3731023 1.15196313,51.1662605 C1.48109546,50.5915739 1.46052469,50.5724177 0.740547728,49.8061689 L0,49.0590764 L1.60452008,47.5457351 C2.4890632,46.7028615 3.31189401,46.0323938 3.43531863,46.0323938 C3.70273864,46.0323938 16.29205,57.7559997 16.29205,58.0050306 C16.29205,58.1199679 15.5720731,58.8862167 14.6669592,59.7099341 L13.0418683,61.2041191 L12.1984667,60.495339 Z" id="Shape" fill="#553932" fill-rule="nonzero"></path>
                        <path d="M17.814287,49.4038883 C16.4771869,49.0973888 15.5515023,48.5610147 14.3995392,47.4116416 C13.2064345,46.223956 12.8773022,45.6301132 12.5687406,44.0976157 C12.3630329,43.0631799 12.3836037,42.6800555 12.6715945,41.6264635 C13.0624391,40.1514347 14.1526899,38.5997809 15.22237,37.9484695 C16.8063193,36.9715023 17.1148808,36.856565 18.4725517,36.6266904 L19.8919348,36.415972 L32.3783923,24.6923661 L44.8442791,12.9879164 L48.3207392,16.2061611 L51.7766286,19.4435621 L39.207888,31.0522307 L26.6185767,42.6800555 L26.3922982,44.0018346 C26.0837366,45.610957 25.7751751,46.2047998 24.5614996,47.4116416 C23.3889657,48.5801709 22.2987149,49.1931699 20.858761,49.461357 C19.5422317,49.7103878 19.1719578,49.7103878 17.814287,49.4038883 Z" id="Shape" fill="#553932" fill-rule="nonzero"></path>
                        <path d="M57.3307366,18.9838129 C57.1044581,18.8688755 56.7136135,18.6006885 56.4461935,18.3899701 L55.9936365,17.9876895 L56.9604627,17.068191 L57.9272889,16.1486925 L58.6061244,16.7616915 C59.4083844,17.4896278 59.4700967,18.1026268 58.7706905,18.734782 C58.2152797,19.2519999 57.9478597,19.3094686 57.3307366,18.9838129 Z" id="Shape" fill="#553932" fill-rule="nonzero"></path>
                        <path d="M59.9432244,15.5165372 L59.2849598,14.884382 L60.2723567,13.9840397 L61.2597537,13.0836975 L61.7945937,13.6009154 C62.6379953,14.4246328 62.7202784,15.0759442 62.0825845,15.6506308 C61.3831783,16.3210984 60.7249137,16.282786 59.9432244,15.5165372 Z" id="Shape" fill="#553932" fill-rule="nonzero"></path>
                        <path d="M63.0905523,12.5090109 L62.4939999,11.9151681 L63.4608261,11.033982 L64.4070816,10.1336398 L65.0447754,10.6891701 C66.1761678,11.6852935 65.6824693,13.0836975 64.2219446,13.0836975 C63.8928123,13.0836975 63.4402554,12.8538228 63.0905523,12.5090109 Z" id="Shape" fill="#553932" fill-rule="nonzero"></path>
                        <path d="M45.9756714,8.63945469 C45.5025437,8.141393 45.0911283,7.47092534 45.0911283,7.14526962 C45.0911283,6.76214524 46.0990961,5.99589649 46.5927946,5.99589649 C46.8602146,5.99589649 47.353913,6.26408355 47.7241869,6.62805171 L48.3824516,7.26020693 L47.3950546,8.16054922 L46.4076576,9.0608915 L45.9756714,8.63945469 Z" id="Shape" fill="#553932" fill-rule="nonzero"></path>
                        <path d="M49.0407162,5.36374127 C48.2384562,4.59749252 48.1973146,4.04196217 48.9172916,3.39065073 C49.5344147,2.79680795 50.2543917,2.87343282 51.118364,3.65883779 L51.6737748,4.19521192 L50.6863778,5.09555421 L49.6989809,5.99589649 L49.0407162,5.36374127 Z" id="Shape" fill="#553932" fill-rule="nonzero"></path>
                        <path d="M52.2291856,2.39452735 C51.5914917,1.76237213 51.5092086,1.05359204 52.0440487,0.440593033 C52.5788887,-0.191562188 53.4222903,-0.114937313 54.2039795,0.612999002 L54.8416734,1.20684179 L53.9365595,2.06887163 C53.442861,2.5477771 52.9697333,2.93090148 52.908021,2.93090148 C52.8257379,2.93090148 52.5377471,2.68187064 52.2291856,2.39452735 Z" id="Shape" fill="#553932" fill-rule="nonzero"></path>
                    </g>
                    <g id="layer103" transform="translate(0.000000, 21.504150)">
                        <path d="M27.1741779,58.6091038 C23.6730853,57.9265002 20.5383861,56.4475257 16.9965832,53.8308786 C15.0628402,52.4087877 7.85710312,45.7534026 5.94371532,43.6487082 C1.87267743,39.1359399 0,35.2488916 0,31.248076 C0,27.4558338 1.58770478,24.2703503 5.10915255,20.9900608 C8.24385172,18.0510731 10.7271848,16.9513228 19.4392059,14.543249 C22.8792329,13.5951884 25.0775934,12.571283 26.5228118,11.225037 C27.1131123,10.6751619 28.5990412,8.91176926 29.8203525,7.31902752 C33.7896145,2.16157808 35.8251334,0.587797547 39.2040949,0.094806056 C42.44057,-0.379224224 46.308056,1.09975025 49.9719901,4.19042767 L51.1933014,5.23329429 L45.6974003,10.3528213 C40.4661166,15.2448138 40.1607888,15.4913095 39.4483571,15.4913095 C38.4509529,15.4913095 37.0464448,15.9463786 35.9472646,16.6289822 C34.8887947,17.3115858 34.8073739,17.3874307 34.0135216,18.7905603 C32.8329206,20.8004487 32.9754069,23.0947552 34.4002702,25.1994497 C35.3569641,26.6215405 37.819942,27.8160968 39.7740402,27.8160968 C41.3821001,27.8160968 43.4786846,26.9818035 44.5371545,25.9578981 C45.453138,25.04776 46.2469904,23.4929407 46.3487664,22.3363068 L46.4708975,21.2175953 L51.9260883,16.1359907 L57.381279,11.0543861 L58.0326451,11.6042612 C59.1114701,12.571283 61.0045028,15.0362405 61.7576448,16.4772925 C63.9560052,20.6108366 63.2639288,24.4978849 59.7831914,27.5506399 C58.9689838,28.2711659 56.9131097,29.7880628 55.1829186,30.9446967 C53.4730827,32.0823693 51.58005,33.4665378 50.9897495,34.0164129 C49.5445311,35.3626589 48.4453509,37.4104697 47.4275914,40.6149144 C45.9213074,45.3931396 45.1478102,47.4219892 44.272537,49.0526534 C41.7688487,53.6791889 37.2499967,57.3387026 32.6700791,58.4384529 C31.5505436,58.7039099 28.2122926,58.7987159 27.1741779,58.6091038 Z M30.1867459,30.6223561 L23.8155716,24.687497 L22.2889324,26.1095878 L20.7622932,27.5127174 L21.5561456,28.2901271 C22.3092876,29.0106531 22.349998,29.0675368 22.0853805,29.5226058 C21.7189871,30.1293646 21.6986319,30.9257355 22.0650254,31.5704166 C22.4110636,32.1771754 28.6193964,37.9224224 29.2504072,38.2258018 C29.8610629,38.5102199 30.6549153,38.4912587 31.3266365,38.1689181 C31.8762267,37.9034612 31.916937,37.9034612 32.6904342,38.6429484 L33.4639314,39.3824356 L35.0109258,37.9603448 L36.537565,36.538254 L30.1867459,30.6223561 Z" id="Shape" stroke="#313131" fill="#FF9800" fill-rule="nonzero"></path>
                    </g>
                </g>
            </g>
        </g>
    </g>
</svg>