<?xml version="1.0" encoding="utf-8"?>
<!-- Generator: Adobe Illustrator 16.0.0, SVG Export Plug-In . SVG Version: 6.00 Build 0)  -->
<!DOCTYPE svg PUBLIC "-//W3C//DTD SVG 1.1//EN" "http://www.w3.org/Graphics/SVG/1.1/DTD/svg11.dtd">
<svg version="1.1" id="Layer_1" xmlns="http://www.w3.org/2000/svg" xmlns:xlink="http://www.w3.org/1999/xlink" x="0px" y="0px"
	 width="160px" height="160px" viewBox="0 0 160 160" enable-background="new 0 0 160 160" xml:space="preserve">
<g id="l13">
	
		<path fill="#FF2200" stroke="#000000" stroke-width="1.7" stroke-linecap="round" stroke-linejoin="round" stroke-miterlimit="1.5" d="
		M79.024,126.857l-1.595,9.508l-0.031,4.762l-1.29,2.1l-2.103-0.234l-0.3-4.625l-4.397,5.021l-3.691,0.5l-3.467-0.875l-0.574-2.711
		l5.566-4.906l1.427-7.301l3.393-5.92l4.71-1.367l2.607,2.795l-0.273,2.883"/>
	
		<path fill="#FF2200" stroke="#000000" stroke-width="1.7" stroke-linecap="round" stroke-linejoin="round" stroke-miterlimit="1.5" d="
		M83.087,126.857l1.595,9.508l0.032,4.762l1.289,2.1l2.104-0.234l0.3-4.625l4.396,5.021l3.692,0.5l3.467-0.875l0.572-2.711
		l-5.564-4.906l-1.426-7.301l-3.395-5.92l-4.711-1.367l-2.606,2.795l0.272,2.883"/>
	
		<path fill="#11AA11" stroke="#000000" stroke-width="1.7" stroke-linecap="round" stroke-linejoin="round" stroke-miterlimit="1.5" d="
		M71.227,117.502l0.624,9.533l-2.835,8.847l-3.666,3.566l2.95,0.463l4.53-4.396l3.604-9.496l1.617-9.191"/>
	
		<path fill="#11AA11" stroke="#000000" stroke-width="1.7" stroke-linecap="round" stroke-linejoin="round" stroke-miterlimit="1.5" d="
		M91.01,117.502l-0.624,9.533l2.835,8.847l3.666,3.566l-2.95,0.463l-4.529-4.396l-3.604-9.496l-1.617-9.191"/>
</g>
</svg>
