<?xml version="1.0" encoding="UTF-8" standalone="no"?>
<!DOCTYPE svg PUBLIC "-//W3C//DTD SVG 1.1//EN" "http://www.w3.org/Graphics/SVG/1.1/DTD/svg11.dtd">
<svg width="100%" height="100%" viewBox="0 0 160 160" version="1.1" xmlns="http://www.w3.org/2000/svg" xmlns:xlink="http://www.w3.org/1999/xlink" xml:space="preserve" style="fill-rule:evenodd;clip-rule:evenodd;stroke-linecap:round;stroke-linejoin:round;">
    <path id="overlay0" d="M0,0L160,0L160,79.155C159.872,77.066 159.266,74.999 158.184,73.124L125.06,15.752C122.603,11.497 118.064,8.876 113.15,8.876L46.902,8.876C41.989,8.876 37.449,11.497 34.993,15.752L1.869,73.124C-0.588,77.379 -0.588,82.621 1.869,86.876L34.993,144.248C37.449,148.503 41.989,151.124 46.902,151.124L113.15,151.124C118.063,151.124 122.603,148.503 125.06,144.248L158.184,86.876C159.266,85.001 159.872,82.934 160,80.845L160,160L0,160L0,0Z" style="fill:white;"/>
    <g transform="matrix(0.3317,0,0,0.3317,-103.188,-36.6312)">
        <g id="legs">
            <g id="l18">
                <path id="STROKE_0EFB1647.-3E6B.-4AC2.-9589.-439387148465" d="M616.347,449.71C616.254,449.379 616.19,449.314 616.157,449.514C616.123,449.714 616.129,449.897 616.176,450.062C616.222,450.227 616.279,450.426 616.347,450.658C616.415,450.889 616.5,451.129 616.601,451.377C616.703,451.625 616.803,451.897 616.9,452.192C616.997,452.487 617.103,452.792 617.217,453.106C617.332,453.421 617.423,453.653 617.491,453.802C617.558,453.951 617.626,454.109 617.694,454.274C617.761,454.439 617.827,454.604 617.891,454.769C617.954,454.934 618.02,455.1 618.088,455.265C618.155,455.43 618.229,455.595 618.31,455.76C618.391,455.925 618.465,456.091 618.532,456.256C618.6,456.421 618.676,456.578 618.761,456.727C618.846,456.876 618.928,457.034 619.009,457.199C619.089,457.364 619.163,457.522 619.231,457.671C619.299,457.82 619.373,457.967 619.453,458.114C619.534,458.26 619.625,458.408 619.727,458.557C619.828,458.706 619.919,458.863 620,459.028C620.08,459.193 620.171,459.351 620.273,459.5C620.374,459.649 620.474,459.807 620.571,459.972C620.668,460.137 620.776,460.302 620.895,460.467C621.014,460.632 621.122,460.79 621.219,460.939C621.316,461.088 621.414,461.245 621.511,461.41C621.609,461.575 621.717,461.733 621.835,461.882C621.954,462.031 622.062,462.181 622.159,462.33C622.257,462.479 622.357,462.627 622.458,462.773C622.559,462.919 622.659,463.067 622.757,463.216C622.854,463.365 622.954,463.507 623.055,463.64C623.157,463.773 623.314,463.956 623.525,464.188C623.737,464.42 623.942,464.642 624.141,464.855C624.34,465.068 624.499,465.233 624.618,465.35C624.737,465.468 624.893,465.625 625.088,465.822C625.283,466.019 625.48,466.208 625.679,466.389C625.878,466.57 626.077,466.76 626.276,466.961C626.475,467.161 626.682,467.359 626.898,467.556C627.114,467.753 627.33,467.968 627.546,468.199C627.762,468.431 627.97,468.663 628.169,468.895C628.368,469.127 628.567,469.349 628.766,469.562C628.965,469.775 629.155,469.973 629.337,470.157C629.52,470.342 629.693,470.516 629.858,470.681C630.023,470.846 630.18,471.012 630.328,471.177C630.477,471.342 630.625,471.5 630.773,471.649C630.921,471.798 631.069,471.937 631.218,472.068C631.366,472.198 631.506,472.322 631.637,472.439C631.768,472.557 631.902,472.673 632.037,472.787C632.172,472.902 632.314,473.026 632.463,473.159C632.611,473.292 632.759,473.424 632.907,473.554C633.056,473.685 633.212,473.832 633.377,473.997C633.542,474.162 633.716,474.328 633.898,474.493C634.08,474.658 634.262,474.823 634.445,474.988C634.627,475.153 634.817,475.319 635.016,475.484C635.215,475.649 635.414,475.806 635.613,475.955C635.812,476.104 636.003,476.246 636.185,476.379C636.367,476.512 636.532,476.628 636.681,476.727C636.829,476.826 636.986,476.916 637.151,476.999C637.316,477.082 637.515,477.172 637.748,477.27C637.981,477.369 638.171,477.459 638.319,477.542C638.468,477.625 638.633,477.699 638.815,477.766C638.997,477.833 639.179,477.915 639.361,478.013C639.543,478.112 639.734,478.202 639.933,478.285C640.132,478.368 640.339,478.468 640.555,478.585C640.771,478.702 640.985,478.826 641.197,478.957C641.409,479.087 641.631,479.219 641.864,479.352C642.097,479.485 642.338,479.617 642.588,479.748C642.838,479.878 643.086,480.026 643.331,480.191C643.577,480.356 643.808,480.513 644.024,480.662C644.24,480.811 644.447,480.953 644.646,481.086C644.845,481.219 645.044,481.343 645.243,481.458C645.442,481.572 645.633,481.688 645.815,481.806C645.997,481.923 646.188,482.031 646.387,482.13C646.586,482.228 646.768,482.31 646.933,482.377C647.098,482.444 647.263,482.518 647.428,482.601C647.593,482.684 647.759,482.758 647.924,482.825C648.089,482.892 648.246,482.974 648.394,483.073C648.542,483.172 648.69,483.262 648.839,483.345C648.987,483.427 649.152,483.551 649.334,483.716C649.516,483.881 649.666,484.021 649.785,484.135C649.904,484.25 650.012,484.382 650.109,484.531C650.206,484.68 650.306,484.822 650.408,484.955C650.509,485.088 650.609,485.238 650.706,485.403C650.803,485.568 650.909,485.733 651.024,485.898C651.138,486.063 651.254,486.236 651.373,486.417C651.492,486.598 651.6,486.764 651.697,486.913C651.794,487.062 651.902,487.212 652.021,487.361C652.14,487.51 652.265,487.675 652.396,487.856C652.527,488.037 652.659,488.185 652.79,488.299C652.921,488.414 653.053,488.546 653.184,488.695C653.315,488.844 653.448,488.994 653.584,489.143C653.719,489.292 653.853,489.465 653.984,489.662C654.115,489.859 654.23,490.032 654.327,490.181C654.424,490.33 654.524,490.472 654.625,490.605C654.727,490.738 654.827,490.878 654.924,491.024C655.021,491.17 655.121,491.31 655.223,491.444C655.324,491.577 655.424,491.711 655.521,491.844C655.618,491.977 655.718,492.109 655.82,492.239C655.921,492.37 656.029,492.527 656.144,492.711C656.258,492.895 656.364,493.07 656.461,493.235C656.558,493.4 656.666,493.573 656.785,493.754C656.904,493.935 657.003,494.116 657.084,494.297C657.165,494.478 657.239,494.652 657.306,494.817C657.374,494.982 657.44,495.155 657.503,495.336C657.566,495.517 657.624,495.698 657.675,495.879C657.726,496.06 657.776,496.243 657.827,496.427C657.878,496.611 657.928,496.786 657.979,496.951C658.03,497.116 658.071,497.297 658.1,497.494C658.13,497.691 658.162,497.889 658.195,498.09C658.229,498.29 658.263,498.48 658.297,498.661C658.331,498.842 658.365,499.023 658.399,499.204C658.433,499.385 658.458,499.584 658.475,499.8C658.492,500.016 658.509,500.222 658.526,500.419C658.543,500.616 658.56,500.813 658.577,501.01C658.594,501.207 658.602,501.405 658.602,501.606C658.602,501.806 658.61,502.004 658.627,502.201C658.644,502.398 658.653,502.588 658.653,502.773L658.653,505.374C658.653,505.571 658.644,505.752 658.627,505.917C658.61,506.082 658.594,506.248 658.577,506.413C658.56,506.578 658.534,506.776 658.5,507.008L658.45,507.356" style="fill:none;stroke:black;stroke-width:4.92px;"/>
                <path id="STROKE_518418C5.-34E9.-486A.-B51E.-402FD7222ECF" d="M652.694,509.09L652.694,510.481C652.694,510.646 652.603,510.778 652.421,510.877C652.239,510.975 652.065,511.049 651.9,511.1C651.735,511.151 651.562,511.201 651.38,511.248C651.197,511.296 651.015,511.345 650.833,511.396C650.651,511.447 650.469,511.505 650.287,511.572C650.105,511.639 649.923,511.713 649.741,511.796C649.559,511.879 649.377,511.961 649.194,512.044C649.012,512.127 648.83,512.2 648.648,512.263C648.466,512.326 648.292,512.383 648.127,512.434C647.962,512.485 647.788,512.536 647.606,512.587C647.424,512.638 647.242,512.679 647.06,512.711C646.878,512.742 646.704,512.776 646.539,512.811C646.374,512.846 646.2,512.895 646.018,512.958C645.836,513.022 645.646,513.105 645.447,513.206C645.248,513.308 645.032,513.391 644.799,513.454C644.566,513.517 644.341,513.574 644.125,513.625C643.909,513.676 643.719,513.718 643.554,513.749C643.389,513.781 643.223,513.797 643.058,513.797C642.893,513.797 642.694,513.807 642.461,513.826C642.228,513.845 642.029,513.87 641.864,513.902C641.699,513.933 641.508,513.965 641.292,513.997C641.076,514.029 640.862,514.07 640.651,514.121C640.439,514.172 640.233,514.213 640.034,514.245C639.835,514.276 639.636,514.318 639.437,514.369C639.238,514.42 639.031,514.47 638.815,514.521C638.599,514.572 638.375,514.613 638.142,514.645C637.909,514.677 637.709,514.693 637.544,514.693C637.379,514.693 637.197,514.701 636.998,514.716C636.799,514.732 636.577,514.758 636.331,514.793C636.086,514.828 635.88,514.853 635.715,514.869C635.55,514.885 635.359,514.917 635.143,514.964C634.927,515.012 634.711,515.061 634.495,515.112C634.279,515.163 634.089,515.204 633.924,515.236C633.759,515.267 633.568,515.293 633.352,515.312C633.136,515.331 632.914,515.341 632.685,515.341C632.456,515.341 632.257,515.341 632.088,515.341C631.919,515.341 631.737,515.349 631.542,515.364C631.347,515.38 631.164,515.404 630.995,515.436C630.826,515.468 630.658,515.501 630.493,515.536C630.328,515.571 630.163,515.604 629.998,515.636C629.833,515.668 629.668,515.684 629.503,515.684L628.264,515.684C628.035,515.684 627.804,515.668 627.571,515.636C627.338,515.604 627.139,515.571 626.974,515.536C626.809,515.501 626.644,515.468 626.479,515.436C626.314,515.404 626.115,515.355 625.882,515.288C625.649,515.221 625.433,515.172 625.234,515.141C625.035,515.109 624.836,515.083 624.637,515.064C624.438,515.045 624.247,515.036 624.065,515.036L621.715,515.036C621.516,515.036 621.308,515.028 621.092,515.012C620.876,514.996 620.669,514.964 620.47,514.917C620.271,514.869 620.063,514.836 619.847,514.817C619.631,514.798 619.432,514.788 619.25,514.788L615.134,514.788C614.918,514.788 614.71,514.772 614.511,514.74C614.312,514.709 614.122,514.667 613.94,514.616C613.758,514.565 613.584,514.524 613.419,514.493C613.254,514.461 613.088,514.437 612.923,514.421C612.758,514.405 612.585,514.397 612.402,514.397L611.234,514.397C611.035,514.397 610.829,514.389 610.617,514.373C610.406,514.358 610.2,514.34 610.001,514.321C609.802,514.302 609.62,514.276 609.455,514.245C609.29,514.213 609.125,514.181 608.96,514.15C608.795,514.118 608.612,514.077 608.413,514.026C608.214,513.975 608.032,513.933 607.867,513.902C607.702,513.87 607.534,513.821 607.365,513.754C607.196,513.687 607.022,513.637 606.844,513.602C606.666,513.567 606.486,513.533 606.304,513.502C606.122,513.47 605.946,513.438 605.777,513.406C605.608,513.375 605.426,513.333 605.231,513.282C605.036,513.231 604.854,513.165 604.685,513.082C604.515,512.999 604.333,512.917 604.138,512.835C603.943,512.752 603.763,512.678 603.598,512.611C603.433,512.544 603.266,512.485 603.096,512.434C602.927,512.383 602.76,512.334 602.595,512.287C602.43,512.239 602.247,512.174 602.048,512.091C601.849,512.009 601.653,511.95 601.458,511.915C601.263,511.88 601.066,511.847 600.867,511.815C600.668,511.783 600.485,511.751 600.32,511.72C600.155,511.688 599.99,511.647 599.825,511.596C599.66,511.545 599.486,511.487 599.304,511.42C599.122,511.353 598.946,511.296 598.777,511.248C598.608,511.201 598.44,511.159 598.275,511.124C598.11,511.089 597.945,511.064 597.78,511.048C597.615,511.032 597.449,510.999 597.284,510.948C597.119,510.897 596.954,510.848 596.789,510.8C596.624,510.753 596.458,510.688 596.293,510.605C596.128,510.522 595.963,510.44 595.798,510.357C595.633,510.274 595.476,510.184 595.328,510.086C595.179,509.987 595.023,509.913 594.858,509.862C594.693,509.811 594.51,509.752 594.311,509.685C594.112,509.618 593.922,509.561 593.74,509.514C593.557,509.467 593.375,509.425 593.193,509.39C593.011,509.355 592.821,509.297 592.622,509.214C592.423,509.131 592.224,509.041 592.025,508.942C591.826,508.844 591.626,508.746 591.427,508.647C591.228,508.548 591.038,508.45 590.856,508.352C590.674,508.253 590.483,508.153 590.284,508.051C590.085,507.95 589.886,507.858 589.687,507.775C589.488,507.692 589.299,507.619 589.122,507.556C588.944,507.493 588.779,507.428 588.626,507.361C588.473,507.294 588.306,507.235 588.124,507.184C587.942,507.133 587.76,507.083 587.578,507.032C587.396,506.981 587.222,506.932 587.057,506.884C586.892,506.837 586.71,506.772 586.511,506.689C586.312,506.606 586.121,506.54 585.939,506.489C585.757,506.438 585.583,506.389 585.418,506.341C585.253,506.294 585.071,506.237 584.872,506.17C584.673,506.103 584.491,506.052 584.326,506.017C584.161,505.982 583.987,505.949 583.805,505.917C583.623,505.885 583.458,505.828 583.309,505.746C583.161,505.663 583.013,505.573 582.865,505.474C582.716,505.375 582.551,505.285 582.369,505.202C582.187,505.12 582.013,505.03 581.848,504.931C581.683,504.832 581.527,504.724 581.378,504.607C581.23,504.49 581.097,504.374 580.978,504.259C580.859,504.145 580.734,504.029 580.603,503.911C580.472,503.794 580.324,503.686 580.159,503.587C579.994,503.489 579.828,503.399 579.663,503.316C579.498,503.233 579.35,503.135 579.219,503.02C579.088,502.906 578.956,502.782 578.825,502.649C578.694,502.516 578.569,502.392 578.45,502.277C578.331,502.163 578.215,502.047 578.101,501.929C577.986,501.812 577.855,501.696 577.707,501.582C577.558,501.467 577.402,501.361 577.237,501.262C577.072,501.164 576.93,501.04 576.811,500.891C576.692,500.742 576.584,500.6 576.487,500.467C576.39,500.334 576.282,500.192 576.163,500.043C576.044,499.894 575.919,499.746 575.788,499.6C575.657,499.454 575.542,499.314 575.445,499.181C575.348,499.047 575.24,498.89 575.121,498.709C575.002,498.528 574.903,498.347 574.823,498.166C574.742,497.985 574.66,497.819 574.575,497.67C574.49,497.521 574.408,497.371 574.327,497.222C574.247,497.073 574.165,496.908 574.08,496.727C573.995,496.546 573.904,496.355 573.807,496.155C573.709,495.955 573.626,495.78 573.559,495.631C573.491,495.482 573.417,495.317 573.336,495.136C573.256,494.955 573.174,494.781 573.089,494.616C573.004,494.451 572.936,494.286 572.885,494.121C572.834,493.956 572.794,493.791 572.765,493.626C572.735,493.461 572.695,493.287 572.644,493.106C572.593,492.925 572.551,492.744 572.517,492.563C572.483,492.382 572.441,492.192 572.39,491.991C572.339,491.791 572.305,491.601 572.288,491.42C572.271,491.239 572.254,491.065 572.237,490.9C572.22,490.735 572.206,490.554 572.193,490.357C572.18,490.16 572.166,489.97 572.149,489.786C572.132,489.601 572.123,489.411 572.123,489.214L572.123,488.128C572.123,487.963 572.115,487.797 572.098,487.632C572.081,487.467 572.064,487.294 572.047,487.113C572.03,486.932 572.013,486.749 571.996,486.565C571.979,486.381 571.962,486.183 571.945,485.97C571.928,485.757 571.911,485.55 571.894,485.35C571.877,485.15 571.861,484.934 571.844,484.702C571.827,484.47 571.81,484.264 571.793,484.083C571.776,483.902 571.759,483.721 571.742,483.54C571.725,483.359 571.717,483.17 571.717,482.973C571.717,482.776 571.711,482.569 571.698,482.354C571.685,482.138 571.678,481.922 571.678,481.706C571.678,481.49 571.67,481.266 571.653,481.034C571.636,480.802 571.628,480.596 571.628,480.415C571.628,480.234 571.619,480.045 571.602,479.848C571.585,479.651 571.568,479.47 571.551,479.305C571.534,479.14 571.518,478.974 571.501,478.809C571.484,478.644 571.45,478.445 571.399,478.214C571.348,477.982 571.306,477.767 571.272,477.57C571.238,477.373 571.198,477.151 571.151,476.903C571.104,476.656 571.047,476.375 570.98,476.06C570.912,475.745 570.853,475.48 570.802,475.264C570.751,475.049 570.709,474.833 570.675,474.617C570.641,474.401 570.601,474.179 570.554,473.95C570.507,473.721 570.459,473.483 570.408,473.235C570.357,472.987 570.298,472.739 570.23,472.492C570.163,472.244 570.106,472.012 570.059,471.796C570.012,471.58 569.964,471.331 569.913,471.048C569.862,470.765 569.802,470.518 569.735,470.305C569.667,470.092 569.616,469.895 569.582,469.714C569.548,469.533 569.516,469.343 569.487,469.143C569.458,468.942 569.434,468.752 569.417,468.571C569.4,468.39 569.383,468.217 569.366,468.052C569.349,467.887 569.341,467.664 569.341,467.385C569.341,467.105 569.341,466.849 569.341,466.618C569.341,466.386 569.398,466.187 569.512,466.022C569.627,465.857 569.75,465.699 569.881,465.55C570.012,465.401 570.137,465.259 570.256,465.126L570.433,464.926" style="fill:none;stroke:black;stroke-width:4.92px;"/>
                <path id="STROKE_021F021E.-C133.-49CF.-BB3C.-09260CFC1C41" d="M626.282,521.982C626.045,521.683 625.852,521.451 625.704,521.286C625.556,521.121 625.425,520.972 625.31,520.838C625.196,520.705 625.065,520.573 624.916,520.443C624.768,520.313 624.611,520.189 624.446,520.071C624.281,519.954 624.124,519.846 623.976,519.747C623.828,519.649 623.669,519.574 623.5,519.523C623.331,519.472 623.148,519.431 622.953,519.4C622.758,519.368 622.57,519.352 622.388,519.352C622.206,519.352 622.03,519.352 621.861,519.352C621.692,519.352 621.524,519.377 621.359,519.428C621.194,519.479 621.029,519.553 620.864,519.652C620.699,519.751 620.533,519.865 620.368,519.995C620.203,520.125 620.029,520.249 619.847,520.367C619.665,520.484 619.483,520.6 619.301,520.715C619.119,520.829 618.971,520.945 618.856,521.062C618.742,521.18 618.602,521.312 618.437,521.458C618.272,521.604 618.138,521.752 618.037,521.901C617.935,522.05 617.835,522.215 617.738,522.396C617.641,522.577 617.543,522.768 617.446,522.968C617.349,523.168 617.258,523.376 617.173,523.592C617.088,523.808 617.004,524.022 616.919,524.235C616.834,524.448 616.743,524.662 616.646,524.878C616.549,525.094 616.458,525.301 616.373,525.498C616.288,525.695 616.205,525.876 616.125,526.041C616.044,526.206 615.962,526.379 615.877,526.56C615.792,526.741 615.727,526.914 615.68,527.079C615.633,527.244 615.593,527.41 615.559,527.575C615.526,527.74 615.492,527.907 615.458,528.075C615.424,528.244 615.399,528.41 615.382,528.575C615.365,528.74 615.356,528.906 615.356,529.071L615.356,531.443C615.356,531.64 615.381,531.831 615.432,532.015C615.483,532.199 615.534,532.374 615.585,532.539C615.636,532.704 615.693,532.877 615.756,533.058C615.82,533.239 615.894,533.428 615.979,533.625C616.064,533.822 616.138,534.003 616.201,534.168C616.264,534.333 616.33,534.508 616.398,534.693C616.466,534.877 616.549,535.093 616.646,535.34C616.743,535.588 616.843,535.826 616.944,536.055C617.046,536.284 617.146,536.498 617.243,536.698C617.34,536.898 617.431,537.073 617.516,537.222C617.601,537.371 617.683,537.529 617.764,537.694C617.844,537.859 617.935,538.048 618.037,538.261C618.138,538.474 618.238,538.68 618.335,538.88C618.432,539.08 618.524,539.263 618.609,539.428C618.694,539.593 618.793,539.759 618.907,539.924C619.022,540.089 619.145,540.22 619.276,540.319C619.407,540.418 619.563,540.508 619.746,540.591C619.928,540.673 620.078,540.771 620.197,540.886C620.315,541 620.448,541.132 620.597,541.281C620.745,541.43 620.876,541.564 620.991,541.682C621.105,541.799 621.221,541.915 621.34,542.029C621.459,542.144 621.584,542.258 621.715,542.372C621.846,542.487 622.003,542.585 622.185,542.668C622.367,542.751 622.566,542.817 622.782,542.868C622.998,542.919 623.214,542.944 623.43,542.944L626.11,542.944C626.326,542.944 626.532,542.952 626.727,542.968C626.922,542.984 627.11,543 627.292,543.016C627.474,543.031 627.656,543.049 627.838,543.068C628.02,543.087 628.202,543.097 628.385,543.097C628.567,543.097 628.757,543.097 628.956,543.097C629.155,543.097 629.354,543.03 629.553,542.896C629.752,542.763 629.951,542.629 630.15,542.496C630.349,542.363 630.54,542.239 630.722,542.125C630.904,542.01 631.078,541.904 631.243,541.805C631.408,541.707 631.565,541.617 631.713,541.534C631.861,541.451 632.026,541.351 632.209,541.234C632.391,541.116 632.556,540.992 632.704,540.862C632.852,540.732 632.985,540.6 633.104,540.467C633.223,540.334 633.339,540.192 633.454,540.043C633.568,539.894 633.676,539.728 633.778,539.547C633.879,539.366 633.97,539.193 634.051,539.028C634.131,538.863 634.213,538.705 634.298,538.556C634.383,538.407 634.483,538.267 634.597,538.137C634.712,538.007 634.826,537.875 634.94,537.742C635.055,537.609 635.163,537.475 635.264,537.341C635.365,537.208 635.465,537.051 635.562,536.87C635.66,536.689 635.768,536.515 635.886,536.35C636.005,536.185 636.121,536.012 636.236,535.831C636.35,535.65 636.433,535.477 636.484,535.312C636.535,535.147 636.56,534.981 636.56,534.816L636.56,532.139C636.56,531.942 636.551,531.736 636.534,531.52C636.517,531.304 636.492,531.105 636.458,530.924C636.424,530.743 636.399,530.562 636.382,530.381C636.365,530.2 636.331,530.019 636.28,529.838C636.229,529.657 636.187,529.474 636.153,529.29C636.119,529.106 636.07,528.931 636.007,528.766C635.944,528.601 635.861,528.412 635.759,528.199C635.658,527.986 635.55,527.772 635.435,527.556C635.321,527.34 635.198,527.124 635.067,526.908C634.936,526.692 634.819,526.519 634.718,526.389C634.616,526.258 634.508,526.118 634.394,525.969C634.279,525.82 634.156,525.671 634.025,525.522C633.894,525.373 633.76,525.207 633.625,525.026C633.49,524.845 633.339,524.647 633.174,524.431C633.009,524.215 632.835,523.983 632.653,523.735C632.471,523.487 632.323,523.29 632.209,523.144C632.094,522.998 631.988,522.85 631.891,522.701C631.794,522.552 631.686,522.402 631.567,522.253C631.448,522.104 631.332,521.947 631.218,521.782C631.103,521.617 630.98,521.459 630.849,521.31C630.718,521.161 630.578,521.037 630.43,520.938C630.282,520.84 630.123,520.75 629.954,520.667C629.784,520.584 629.608,520.518 629.426,520.467C629.244,520.416 629.047,520.383 628.836,520.367C628.624,520.351 628.393,520.343 628.143,520.343L627.768,520.343" style="fill:none;stroke:black;stroke-width:4.92px;"/>
                <path id="STROKE_FAC9C9A0.-CB27.-4CC6.-9320.-11F93A0904E1" d="M581.397,511.567C581.304,511.237 581.182,511.031 581.029,510.948C580.876,510.865 580.711,510.8 580.533,510.753C580.356,510.705 580.182,510.681 580.013,510.681C579.843,510.681 579.676,510.746 579.511,510.877C579.346,511.007 579.197,511.162 579.066,511.343C578.935,511.524 578.82,511.698 578.723,511.863C578.626,512.028 578.526,512.194 578.424,512.363C578.323,512.531 578.215,512.698 578.101,512.863C577.986,513.028 577.887,513.194 577.802,513.359C577.717,513.524 577.635,513.689 577.554,513.854C577.474,514.019 577.392,514.2 577.307,514.397C577.222,514.594 577.156,514.801 577.11,515.017C577.063,515.233 577.023,515.439 576.989,515.636C576.955,515.833 576.921,516.047 576.887,516.279C576.853,516.511 576.819,516.717 576.786,516.898C576.752,517.079 576.726,517.286 576.709,517.518C576.692,517.75 576.684,517.974 576.684,518.19L576.684,520.438C576.684,520.603 576.701,520.778 576.735,520.962C576.769,521.147 576.803,521.321 576.836,521.486C576.87,521.651 576.913,521.817 576.964,521.982C577.015,522.147 577.072,522.312 577.135,522.477C577.198,522.642 577.272,522.841 577.357,523.073C577.442,523.305 577.524,523.503 577.605,523.668C577.686,523.833 577.777,523.989 577.878,524.135C577.98,524.281 578.08,524.421 578.177,524.554C578.274,524.688 578.374,524.829 578.475,524.978C578.577,525.127 578.668,525.293 578.748,525.474C578.829,525.655 578.92,525.844 579.022,526.041C579.123,526.238 579.214,526.436 579.295,526.636C579.375,526.837 579.457,527.035 579.542,527.232C579.627,527.429 579.71,527.619 579.79,527.804C579.871,527.988 579.953,528.153 580.038,528.299C580.123,528.445 580.231,528.601 580.362,528.766C580.493,528.931 580.633,529.089 580.781,529.238C580.929,529.387 581.094,529.521 581.277,529.638C581.459,529.755 581.624,529.863 581.772,529.962C581.92,530.06 582.068,530.15 582.217,530.233C582.365,530.316 582.515,530.406 582.668,530.505C582.82,530.604 582.979,530.694 583.144,530.776C583.309,530.859 583.483,530.949 583.665,531.048C583.847,531.147 584.029,531.237 584.211,531.32C584.393,531.402 584.567,531.476 584.732,531.543C584.897,531.61 585.094,531.684 585.323,531.767C585.552,531.85 585.766,531.916 585.965,531.967C586.164,532.018 586.363,532.06 586.562,532.091C586.761,532.123 586.96,532.155 587.159,532.187C587.358,532.218 587.557,532.234 587.756,532.234L588.95,532.234C589.149,532.234 589.34,532.202 589.522,532.139C589.704,532.076 589.861,531.993 589.992,531.891C590.123,531.79 590.272,531.656 590.437,531.491C590.602,531.326 590.735,531.17 590.837,531.024C590.938,530.878 591.029,530.73 591.11,530.581C591.191,530.432 591.273,530.267 591.358,530.086C591.443,529.905 591.517,529.714 591.58,529.514C591.643,529.314 591.709,529.123 591.777,528.942C591.844,528.761 591.912,528.58 591.98,528.399C592.048,528.218 592.114,528.036 592.177,527.851C592.24,527.667 592.323,527.461 592.425,527.232C592.526,527.003 592.617,526.781 592.698,526.565C592.779,526.349 592.827,526.158 592.844,525.993C592.861,525.828 592.878,525.655 592.895,525.474C592.912,525.293 592.929,525.078 592.946,524.831C592.963,524.583 592.971,524.318 592.971,524.035L592.971,520.862C592.971,520.579 592.954,520.348 592.92,520.167C592.886,519.986 592.844,519.797 592.793,519.6C592.742,519.403 592.694,519.196 592.647,518.98C592.6,518.764 592.543,518.54 592.476,518.309C592.408,518.077 592.332,517.845 592.247,517.613C592.162,517.381 592.071,517.133 591.974,516.87C591.877,516.606 591.771,516.334 591.656,516.055C591.542,515.776 591.451,515.561 591.383,515.412C591.315,515.263 591.247,515.113 591.18,514.964C591.112,514.815 591.004,514.608 590.856,514.345C590.707,514.081 590.542,513.825 590.36,513.578C590.178,513.33 589.964,513.09 589.719,512.858C589.473,512.627 589.274,512.462 589.122,512.363C588.969,512.264 588.81,512.156 588.645,512.039C588.48,511.922 588.315,511.814 588.15,511.715C587.985,511.616 587.794,511.51 587.578,511.396C587.362,511.281 587.163,511.165 586.981,511.048C586.799,510.931 586.625,510.84 586.46,510.776C586.295,510.713 586.115,510.63 585.92,510.529C585.725,510.427 585.537,510.352 585.355,510.305C585.173,510.257 584.997,510.2 584.828,510.133C584.658,510.066 584.482,510.025 584.3,510.009C584.118,509.994 583.904,509.978 583.659,509.962C583.413,509.946 583.182,509.938 582.966,509.938L582.642,509.938" style="fill:none;stroke:black;stroke-width:4.92px;"/>
                <path id="STROKE_735E0E63.-D3F4.-47DA.-9776.-61D29D1D95F6" d="M640.282,517.618C640.579,517.815 640.818,517.972 641,518.089C641.182,518.207 641.339,518.356 641.47,518.537C641.601,518.718 641.709,518.915 641.794,519.128C641.879,519.341 641.953,519.539 642.016,519.724C642.08,519.908 642.146,520.083 642.213,520.248C642.281,520.413 642.349,520.594 642.417,520.791C642.484,520.988 642.558,521.177 642.639,521.358C642.72,521.539 642.794,521.72 642.861,521.901C642.929,522.082 642.986,522.255 643.033,522.42C643.08,522.585 643.128,522.768 643.179,522.968C643.23,523.168 643.272,523.359 643.306,523.54C643.34,523.721 643.382,523.919 643.433,524.135C643.484,524.351 643.526,524.575 643.56,524.807C643.594,525.039 643.634,525.261 643.681,525.474C643.727,525.687 643.776,525.901 643.827,526.117C643.878,526.333 643.928,526.539 643.979,526.736C644.03,526.933 644.078,527.132 644.125,527.332C644.172,527.532 644.204,527.723 644.221,527.904C644.238,528.085 644.254,528.283 644.271,528.499C644.288,528.715 644.297,528.929 644.297,529.142L644.297,530.31C644.297,530.475 644.288,530.64 644.271,530.805C644.254,530.97 644.231,531.143 644.202,531.324C644.172,531.505 644.14,531.694 644.106,531.891C644.072,532.088 644.03,532.269 643.979,532.434C643.928,532.599 643.869,532.757 643.801,532.906C643.734,533.055 643.66,533.238 643.579,533.454C643.498,533.67 643.407,533.884 643.306,534.097C643.204,534.31 643.104,534.499 643.007,534.664C642.91,534.829 642.81,534.987 642.709,535.136C642.607,535.285 642.49,535.442 642.359,535.607C642.228,535.772 642.063,535.946 641.864,536.127C641.665,536.308 641.442,536.506 641.197,536.722C640.951,536.938 640.754,537.103 640.606,537.218C640.458,537.332 640.316,537.448 640.181,537.565C640.045,537.683 639.903,537.791 639.755,537.889C639.607,537.988 639.467,538.086 639.336,538.185C639.205,538.283 639.014,538.415 638.764,538.58C638.514,538.745 638.281,538.895 638.065,539.028C637.849,539.161 637.667,539.269 637.519,539.352C637.371,539.435 637.197,539.501 636.998,539.552L636.7,539.628" style="fill:none;stroke:black;stroke-width:4.92px;"/>
                <path id="STROKE_294584AE.-840F.-475C.-97AE.-0B24739B987D" d="M654.422,512.863C654.659,512.596 654.852,512.504 655,512.587C655.149,512.67 655.272,512.786 655.369,512.935C655.466,513.084 655.557,513.241 655.642,513.406C655.727,513.571 655.809,513.745 655.89,513.926C655.97,514.107 656.044,514.329 656.112,514.593C656.18,514.856 656.239,515.071 656.29,515.236C656.341,515.401 656.383,515.566 656.417,515.731C656.451,515.896 656.476,516.069 656.493,516.25C656.51,516.431 656.524,516.622 656.537,516.822C656.55,517.022 656.565,517.23 656.582,517.446C656.599,517.662 656.607,517.894 656.607,518.142L656.607,521.534C656.607,521.731 656.599,521.961 656.582,522.225C656.565,522.488 656.542,522.728 656.512,522.944C656.483,523.16 656.442,523.384 656.391,523.616C656.34,523.848 656.281,524.07 656.214,524.283C656.146,524.496 656.089,524.685 656.042,524.85C655.995,525.015 655.947,525.198 655.896,525.398C655.845,525.598 655.794,525.781 655.743,525.946C655.692,526.111 655.61,526.317 655.496,526.565C655.381,526.813 655.273,527.027 655.172,527.208L655.019,527.48" style="fill:none;stroke:black;stroke-width:4.92px;"/>
                <path id="STROKE_121ABED0.-87F6.-4702.-8C65.-E1D957D95824" d="M661.13,508.795C661.461,509.093 661.7,509.325 661.848,509.49C661.996,509.655 662.136,509.836 662.267,510.033C662.398,510.23 662.489,510.411 662.54,510.576C662.591,510.741 662.642,510.907 662.693,511.072C662.744,511.237 662.794,511.42 662.845,511.62C662.896,511.82 662.945,512.036 662.991,512.268C663.038,512.499 663.086,512.739 663.137,512.987C663.188,513.235 663.231,513.499 663.265,513.778C663.298,514.057 663.332,514.337 663.366,514.616C663.4,514.896 663.425,515.185 663.442,515.484C663.459,515.782 663.468,516.071 663.468,516.351L663.468,518.661C663.468,518.893 663.459,519.123 663.442,519.352C663.425,519.581 663.4,519.819 663.366,520.067C663.332,520.314 663.281,520.562 663.214,520.81C663.146,521.057 663.08,521.305 663.017,521.553C662.954,521.801 662.896,522.041 662.845,522.272C662.794,522.504 662.744,522.728 662.693,522.944C662.642,523.16 662.591,523.359 662.54,523.54C662.489,523.721 662.432,523.902 662.369,524.083C662.306,524.264 662.223,524.47 662.121,524.702C662.02,524.934 661.929,525.14 661.848,525.321C661.767,525.502 661.685,525.676 661.6,525.841C661.515,526.006 661.433,526.171 661.352,526.336C661.272,526.501 661.181,526.659 661.079,526.808C660.978,526.957 660.878,527.107 660.781,527.256C660.684,527.405 660.569,527.547 660.438,527.68C660.307,527.813 660.165,527.945 660.012,528.075C659.859,528.206 659.726,528.338 659.612,528.471C659.497,528.604 659.375,528.728 659.244,528.842C659.113,528.957 658.981,529.081 658.85,529.214C658.719,529.347 658.568,529.481 658.399,529.614C658.23,529.747 658.054,529.863 657.871,529.962C657.689,530.06 657.484,530.133 657.255,530.181L656.912,530.252" style="fill:none;stroke:black;stroke-width:4.92px;"/>
                <path id="STROKE_5C1FD925.-52F1.-44E2.-849D.-38A24BA22F99" d="M598.129,512.311C598.493,512.546 598.717,512.738 598.802,512.887C598.887,513.036 598.969,513.217 599.05,513.43C599.131,513.643 599.213,513.857 599.298,514.073C599.383,514.289 599.457,514.496 599.52,514.693C599.583,514.89 599.649,515.096 599.717,515.312C599.785,515.528 599.853,515.76 599.92,516.008C599.988,516.255 600.062,516.519 600.143,516.798C600.223,517.078 600.297,517.351 600.365,517.618C600.433,517.885 600.501,518.158 600.568,518.437C600.636,518.716 600.676,518.955 600.689,519.152C600.702,519.349 600.716,519.53 600.733,519.695C600.75,519.86 600.759,520.051 600.759,520.267C600.759,520.483 600.736,520.673 600.689,520.838C600.642,521.003 600.551,521.169 600.416,521.334C600.281,521.499 600.13,521.672 599.965,521.853C599.8,522.034 599.677,522.2 599.596,522.349C599.516,522.498 599.434,522.647 599.349,522.796C599.264,522.945 599.182,523.095 599.101,523.244C599.02,523.393 598.946,523.559 598.879,523.74C598.811,523.921 598.752,524.102 598.701,524.283C598.65,524.464 598.608,524.637 598.574,524.802C598.54,524.967 598.491,525.15 598.428,525.35C598.364,525.55 598.29,525.749 598.205,525.946C598.12,526.143 598.029,526.331 597.932,526.512C597.835,526.693 597.729,526.867 597.615,527.032C597.5,527.197 597.375,527.354 597.24,527.503C597.104,527.652 596.97,527.786 596.839,527.904C596.708,528.021 596.569,528.129 596.42,528.228C596.272,528.326 596.124,528.416 595.976,528.499C595.827,528.582 595.654,528.688 595.455,528.818C595.256,528.949 595.09,529.073 594.959,529.19C594.828,529.307 594.694,529.423 594.559,529.538C594.424,529.652 594.273,529.776 594.108,529.909C593.943,530.042 593.786,530.166 593.638,530.281C593.49,530.395 593.333,530.493 593.168,530.576C593.003,530.659 592.821,530.733 592.622,530.8C592.423,530.867 592.232,530.916 592.05,530.948C591.868,530.98 591.677,530.996 591.478,530.996L590.284,530.996C590.051,530.996 589.812,530.972 589.566,530.924C589.321,530.877 589.124,530.812 588.975,530.729C588.827,530.646 588.662,530.546 588.48,530.429C588.298,530.311 588.124,530.187 587.959,530.057L587.711,529.862" style="fill:none;stroke:black;stroke-width:4.92px;"/>
                <g id="STROKE_0EFB1647.-3E6B.-4AC2.-9589.-4393871484651" transform="matrix(-1,0,0,1,1107.89,0)">
                    <path d="M616.347,449.71C616.254,449.379 616.19,449.314 616.157,449.514C616.123,449.714 616.129,449.897 616.176,450.062C616.222,450.227 616.279,450.426 616.347,450.658C616.415,450.889 616.5,451.129 616.601,451.377C616.703,451.625 616.803,451.897 616.9,452.192C616.997,452.487 617.103,452.792 617.217,453.106C617.332,453.421 617.423,453.653 617.491,453.802C617.558,453.951 617.626,454.109 617.694,454.274C617.761,454.439 617.827,454.604 617.891,454.769C617.954,454.934 618.02,455.1 618.088,455.265C618.155,455.43 618.229,455.595 618.31,455.76C618.391,455.925 618.465,456.091 618.532,456.256C618.6,456.421 618.676,456.578 618.761,456.727C618.846,456.876 618.928,457.034 619.009,457.199C619.089,457.364 619.163,457.522 619.231,457.671C619.299,457.82 619.373,457.967 619.453,458.114C619.534,458.26 619.625,458.408 619.727,458.557C619.828,458.706 619.919,458.863 620,459.028C620.08,459.193 620.171,459.351 620.273,459.5C620.374,459.649 620.474,459.807 620.571,459.972C620.668,460.137 620.776,460.302 620.895,460.467C621.014,460.632 621.122,460.79 621.219,460.939C621.316,461.088 621.414,461.245 621.511,461.41C621.609,461.575 621.717,461.733 621.835,461.882C621.954,462.031 622.062,462.181 622.159,462.33C622.257,462.479 622.357,462.627 622.458,462.773C622.559,462.919 622.659,463.067 622.757,463.216C622.854,463.365 622.954,463.507 623.055,463.64C623.157,463.773 623.314,463.956 623.525,464.188C623.737,464.42 623.942,464.642 624.141,464.855C624.34,465.068 624.499,465.233 624.618,465.35C624.737,465.468 624.893,465.625 625.088,465.822C625.283,466.019 625.48,466.208 625.679,466.389C625.878,466.57 626.077,466.76 626.276,466.961C626.475,467.161 626.682,467.359 626.898,467.556C627.114,467.753 627.33,467.968 627.546,468.199C627.762,468.431 627.97,468.663 628.169,468.895C628.368,469.127 628.567,469.349 628.766,469.562C628.965,469.775 629.155,469.973 629.337,470.157C629.52,470.342 629.693,470.516 629.858,470.681C630.023,470.846 630.18,471.012 630.328,471.177C630.477,471.342 630.625,471.5 630.773,471.649C630.921,471.798 631.069,471.937 631.218,472.068C631.366,472.198 631.506,472.322 631.637,472.439C631.768,472.557 631.902,472.673 632.037,472.787C632.172,472.902 632.314,473.026 632.463,473.159C632.611,473.292 632.759,473.424 632.907,473.554C633.056,473.685 633.212,473.832 633.377,473.997C633.542,474.162 633.716,474.328 633.898,474.493C634.08,474.658 634.262,474.823 634.445,474.988C634.627,475.153 634.817,475.319 635.016,475.484C635.215,475.649 635.414,475.806 635.613,475.955C635.812,476.104 636.003,476.246 636.185,476.379C636.367,476.512 636.532,476.628 636.681,476.727C636.829,476.826 636.986,476.916 637.151,476.999C637.316,477.082 637.515,477.172 637.748,477.27C637.981,477.369 638.171,477.459 638.319,477.542C638.468,477.625 638.633,477.699 638.815,477.766C638.997,477.833 639.179,477.915 639.361,478.013C639.543,478.112 639.734,478.202 639.933,478.285C640.132,478.368 640.339,478.468 640.555,478.585C640.771,478.702 640.985,478.826 641.197,478.957C641.409,479.087 641.631,479.219 641.864,479.352C642.097,479.485 642.338,479.617 642.588,479.748C642.838,479.878 643.086,480.026 643.331,480.191C643.577,480.356 643.808,480.513 644.024,480.662C644.24,480.811 644.447,480.953 644.646,481.086C644.845,481.219 645.044,481.343 645.243,481.458C645.442,481.572 645.633,481.688 645.815,481.806C645.997,481.923 646.188,482.031 646.387,482.13C646.586,482.228 646.768,482.31 646.933,482.377C647.098,482.444 647.263,482.518 647.428,482.601C647.593,482.684 647.759,482.758 647.924,482.825C648.089,482.892 648.246,482.974 648.394,483.073C648.542,483.172 648.69,483.262 648.839,483.345C648.987,483.427 649.152,483.551 649.334,483.716C649.516,483.881 649.666,484.021 649.785,484.135C649.904,484.25 650.012,484.382 650.109,484.531C650.206,484.68 650.306,484.822 650.408,484.955C650.509,485.088 650.609,485.238 650.706,485.403C650.803,485.568 650.909,485.733 651.024,485.898C651.138,486.063 651.254,486.236 651.373,486.417C651.492,486.598 651.6,486.764 651.697,486.913C651.794,487.062 651.902,487.212 652.021,487.361C652.14,487.51 652.265,487.675 652.396,487.856C652.527,488.037 652.659,488.185 652.79,488.299C652.921,488.414 653.053,488.546 653.184,488.695C653.315,488.844 653.448,488.994 653.584,489.143C653.719,489.292 653.853,489.465 653.984,489.662C654.115,489.859 654.23,490.032 654.327,490.181C654.424,490.33 654.524,490.472 654.625,490.605C654.727,490.738 654.827,490.878 654.924,491.024C655.021,491.17 655.121,491.31 655.223,491.444C655.324,491.577 655.424,491.711 655.521,491.844C655.618,491.977 655.718,492.109 655.82,492.239C655.921,492.37 656.029,492.527 656.144,492.711C656.258,492.895 656.364,493.07 656.461,493.235C656.558,493.4 656.666,493.573 656.785,493.754C656.904,493.935 657.003,494.116 657.084,494.297C657.165,494.478 657.239,494.652 657.306,494.817C657.374,494.982 657.44,495.155 657.503,495.336C657.566,495.517 657.624,495.698 657.675,495.879C657.726,496.06 657.776,496.243 657.827,496.427C657.878,496.611 657.928,496.786 657.979,496.951C658.03,497.116 658.071,497.297 658.1,497.494C658.13,497.691 658.162,497.889 658.195,498.09C658.229,498.29 658.263,498.48 658.297,498.661C658.331,498.842 658.365,499.023 658.399,499.204C658.433,499.385 658.458,499.584 658.475,499.8C658.492,500.016 658.509,500.222 658.526,500.419C658.543,500.616 658.56,500.813 658.577,501.01C658.594,501.207 658.602,501.405 658.602,501.606C658.602,501.806 658.61,502.004 658.627,502.201C658.644,502.398 658.653,502.588 658.653,502.773L658.653,505.374C658.653,505.571 658.644,505.752 658.627,505.917C658.61,506.082 658.594,506.248 658.577,506.413C658.56,506.578 658.534,506.776 658.5,507.008L658.45,507.356" style="fill:none;stroke:black;stroke-width:4.92px;"/>
                </g>
                <g id="STROKE_518418C5.-34E9.-486A.-B51E.-402FD7222ECF1" transform="matrix(-1,0,0,1,1107.89,0)">
                    <path d="M652.694,509.09L652.694,510.481C652.694,510.646 652.603,510.778 652.421,510.877C652.239,510.975 652.065,511.049 651.9,511.1C651.735,511.151 651.562,511.201 651.38,511.248C651.197,511.296 651.015,511.345 650.833,511.396C650.651,511.447 650.469,511.505 650.287,511.572C650.105,511.639 649.923,511.713 649.741,511.796C649.559,511.879 649.377,511.961 649.194,512.044C649.012,512.127 648.83,512.2 648.648,512.263C648.466,512.326 648.292,512.383 648.127,512.434C647.962,512.485 647.788,512.536 647.606,512.587C647.424,512.638 647.242,512.679 647.06,512.711C646.878,512.742 646.704,512.776 646.539,512.811C646.374,512.846 646.2,512.895 646.018,512.958C645.836,513.022 645.646,513.105 645.447,513.206C645.248,513.308 645.032,513.391 644.799,513.454C644.566,513.517 644.341,513.574 644.125,513.625C643.909,513.676 643.719,513.718 643.554,513.749C643.389,513.781 643.223,513.797 643.058,513.797C642.893,513.797 642.694,513.807 642.461,513.826C642.228,513.845 642.029,513.87 641.864,513.902C641.699,513.933 641.508,513.965 641.292,513.997C641.076,514.029 640.862,514.07 640.651,514.121C640.439,514.172 640.233,514.213 640.034,514.245C639.835,514.276 639.636,514.318 639.437,514.369C639.238,514.42 639.031,514.47 638.815,514.521C638.599,514.572 638.375,514.613 638.142,514.645C637.909,514.677 637.709,514.693 637.544,514.693C637.379,514.693 637.197,514.701 636.998,514.716C636.799,514.732 636.577,514.758 636.331,514.793C636.086,514.828 635.88,514.853 635.715,514.869C635.55,514.885 635.359,514.917 635.143,514.964C634.927,515.012 634.711,515.061 634.495,515.112C634.279,515.163 634.089,515.204 633.924,515.236C633.759,515.267 633.568,515.293 633.352,515.312C633.136,515.331 632.914,515.341 632.685,515.341C632.456,515.341 632.257,515.341 632.088,515.341C631.919,515.341 631.737,515.349 631.542,515.364C631.347,515.38 631.164,515.404 630.995,515.436C630.826,515.468 630.658,515.501 630.493,515.536C630.328,515.571 630.163,515.604 629.998,515.636C629.833,515.668 629.668,515.684 629.503,515.684L628.264,515.684C628.035,515.684 627.804,515.668 627.571,515.636C627.338,515.604 627.139,515.571 626.974,515.536C626.809,515.501 626.644,515.468 626.479,515.436C626.314,515.404 626.115,515.355 625.882,515.288C625.649,515.221 625.433,515.172 625.234,515.141C625.035,515.109 624.836,515.083 624.637,515.064C624.438,515.045 624.247,515.036 624.065,515.036L621.715,515.036C621.516,515.036 621.308,515.028 621.092,515.012C620.876,514.996 620.669,514.964 620.47,514.917C620.271,514.869 620.063,514.836 619.847,514.817C619.631,514.798 619.432,514.788 619.25,514.788L615.134,514.788C614.918,514.788 614.71,514.772 614.511,514.74C614.312,514.709 614.122,514.667 613.94,514.616C613.758,514.565 613.584,514.524 613.419,514.493C613.254,514.461 613.088,514.437 612.923,514.421C612.758,514.405 612.585,514.397 612.402,514.397L611.234,514.397C611.035,514.397 610.829,514.389 610.617,514.373C610.406,514.358 610.2,514.34 610.001,514.321C609.802,514.302 609.62,514.276 609.455,514.245C609.29,514.213 609.125,514.181 608.96,514.15C608.795,514.118 608.612,514.077 608.413,514.026C608.214,513.975 608.032,513.933 607.867,513.902C607.702,513.87 607.534,513.821 607.365,513.754C607.196,513.687 607.022,513.637 606.844,513.602C606.666,513.567 606.486,513.533 606.304,513.502C606.122,513.47 605.946,513.438 605.777,513.406C605.608,513.375 605.426,513.333 605.231,513.282C605.036,513.231 604.854,513.165 604.685,513.082C604.515,512.999 604.333,512.917 604.138,512.835C603.943,512.752 603.763,512.678 603.598,512.611C603.433,512.544 603.266,512.485 603.096,512.434C602.927,512.383 602.76,512.334 602.595,512.287C602.43,512.239 602.247,512.174 602.048,512.091C601.849,512.009 601.653,511.95 601.458,511.915C601.263,511.88 601.066,511.847 600.867,511.815C600.668,511.783 600.485,511.751 600.32,511.72C600.155,511.688 599.99,511.647 599.825,511.596C599.66,511.545 599.486,511.487 599.304,511.42C599.122,511.353 598.946,511.296 598.777,511.248C598.608,511.201 598.44,511.159 598.275,511.124C598.11,511.089 597.945,511.064 597.78,511.048C597.615,511.032 597.449,510.999 597.284,510.948C597.119,510.897 596.954,510.848 596.789,510.8C596.624,510.753 596.458,510.688 596.293,510.605C596.128,510.522 595.963,510.44 595.798,510.357C595.633,510.274 595.476,510.184 595.328,510.086C595.179,509.987 595.023,509.913 594.858,509.862C594.693,509.811 594.51,509.752 594.311,509.685C594.112,509.618 593.922,509.561 593.74,509.514C593.557,509.467 593.375,509.425 593.193,509.39C593.011,509.355 592.821,509.297 592.622,509.214C592.423,509.131 592.224,509.041 592.025,508.942C591.826,508.844 591.626,508.746 591.427,508.647C591.228,508.548 591.038,508.45 590.856,508.352C590.674,508.253 590.483,508.153 590.284,508.051C590.085,507.95 589.886,507.858 589.687,507.775C589.488,507.692 589.299,507.619 589.122,507.556C588.944,507.493 588.779,507.428 588.626,507.361C588.473,507.294 588.306,507.235 588.124,507.184C587.942,507.133 587.76,507.083 587.578,507.032C587.396,506.981 587.222,506.932 587.057,506.884C586.892,506.837 586.71,506.772 586.511,506.689C586.312,506.606 586.121,506.54 585.939,506.489C585.757,506.438 585.583,506.389 585.418,506.341C585.253,506.294 585.071,506.237 584.872,506.17C584.673,506.103 584.491,506.052 584.326,506.017C584.161,505.982 583.987,505.949 583.805,505.917C583.623,505.885 583.458,505.828 583.309,505.746C583.161,505.663 583.013,505.573 582.865,505.474C582.716,505.375 582.551,505.285 582.369,505.202C582.187,505.12 582.013,505.03 581.848,504.931C581.683,504.832 581.527,504.724 581.378,504.607C581.23,504.49 581.097,504.374 580.978,504.259C580.859,504.145 580.734,504.029 580.603,503.911C580.472,503.794 580.324,503.686 580.159,503.587C579.994,503.489 579.828,503.399 579.663,503.316C579.498,503.233 579.35,503.135 579.219,503.02C579.088,502.906 578.956,502.782 578.825,502.649C578.694,502.516 578.569,502.392 578.45,502.277C578.331,502.163 578.215,502.047 578.101,501.929C577.986,501.812 577.855,501.696 577.707,501.582C577.558,501.467 577.402,501.361 577.237,501.262C577.072,501.164 576.93,501.04 576.811,500.891C576.692,500.742 576.584,500.6 576.487,500.467C576.39,500.334 576.282,500.192 576.163,500.043C576.044,499.894 575.919,499.746 575.788,499.6C575.657,499.454 575.542,499.314 575.445,499.181C575.348,499.047 575.24,498.89 575.121,498.709C575.002,498.528 574.903,498.347 574.823,498.166C574.742,497.985 574.66,497.819 574.575,497.67C574.49,497.521 574.408,497.371 574.327,497.222C574.247,497.073 574.165,496.908 574.08,496.727C573.995,496.546 573.904,496.355 573.807,496.155C573.709,495.955 573.626,495.78 573.559,495.631C573.491,495.482 573.417,495.317 573.336,495.136C573.256,494.955 573.174,494.781 573.089,494.616C573.004,494.451 572.936,494.286 572.885,494.121C572.834,493.956 572.794,493.791 572.765,493.626C572.735,493.461 572.695,493.287 572.644,493.106C572.593,492.925 572.551,492.744 572.517,492.563C572.483,492.382 572.441,492.192 572.39,491.991C572.339,491.791 572.305,491.601 572.288,491.42C572.271,491.239 572.254,491.065 572.237,490.9C572.22,490.735 572.206,490.554 572.193,490.357C572.18,490.16 572.166,489.97 572.149,489.786C572.132,489.601 572.123,489.411 572.123,489.214L572.123,488.128C572.123,487.963 572.115,487.797 572.098,487.632C572.081,487.467 572.064,487.294 572.047,487.113C572.03,486.932 572.013,486.749 571.996,486.565C571.979,486.381 571.962,486.183 571.945,485.97C571.928,485.757 571.911,485.55 571.894,485.35C571.877,485.15 571.861,484.934 571.844,484.702C571.827,484.47 571.81,484.264 571.793,484.083C571.776,483.902 571.759,483.721 571.742,483.54C571.725,483.359 571.717,483.17 571.717,482.973C571.717,482.776 571.711,482.569 571.698,482.354C571.685,482.138 571.678,481.922 571.678,481.706C571.678,481.49 571.67,481.266 571.653,481.034C571.636,480.802 571.628,480.596 571.628,480.415C571.628,480.234 571.619,480.045 571.602,479.848C571.585,479.651 571.568,479.47 571.551,479.305C571.534,479.14 571.518,478.974 571.501,478.809C571.484,478.644 571.45,478.445 571.399,478.214C571.348,477.982 571.306,477.767 571.272,477.57C571.238,477.373 571.198,477.151 571.151,476.903C571.104,476.656 571.047,476.375 570.98,476.06C570.912,475.745 570.853,475.48 570.802,475.264C570.751,475.049 570.709,474.833 570.675,474.617C570.641,474.401 570.601,474.179 570.554,473.95C570.507,473.721 570.459,473.483 570.408,473.235C570.357,472.987 570.298,472.739 570.23,472.492C570.163,472.244 570.106,472.012 570.059,471.796C570.012,471.58 569.964,471.331 569.913,471.048C569.862,470.765 569.802,470.518 569.735,470.305C569.667,470.092 569.616,469.895 569.582,469.714C569.548,469.533 569.516,469.343 569.487,469.143C569.458,468.942 569.434,468.752 569.417,468.571C569.4,468.39 569.383,468.217 569.366,468.052C569.349,467.887 569.341,467.664 569.341,467.385C569.341,467.105 569.341,466.849 569.341,466.618C569.341,466.386 569.398,466.187 569.512,466.022C569.627,465.857 569.75,465.699 569.881,465.55C570.012,465.401 570.137,465.259 570.256,465.126L570.433,464.926" style="fill:none;stroke:black;stroke-width:4.92px;"/>
                </g>
                <g id="STROKE_021F021E.-C133.-49CF.-BB3C.-09260CFC1C411" transform="matrix(-1,0,0,1,1107.89,0)">
                    <path d="M626.282,521.982C626.045,521.683 625.852,521.451 625.704,521.286C625.556,521.121 625.425,520.972 625.31,520.838C625.196,520.705 625.065,520.573 624.916,520.443C624.768,520.313 624.611,520.189 624.446,520.071C624.281,519.954 624.124,519.846 623.976,519.747C623.828,519.649 623.669,519.574 623.5,519.523C623.331,519.472 623.148,519.431 622.953,519.4C622.758,519.368 622.57,519.352 622.388,519.352C622.206,519.352 622.03,519.352 621.861,519.352C621.692,519.352 621.524,519.377 621.359,519.428C621.194,519.479 621.029,519.553 620.864,519.652C620.699,519.751 620.533,519.865 620.368,519.995C620.203,520.125 620.029,520.249 619.847,520.367C619.665,520.484 619.483,520.6 619.301,520.715C619.119,520.829 618.971,520.945 618.856,521.062C618.742,521.18 618.602,521.312 618.437,521.458C618.272,521.604 618.138,521.752 618.037,521.901C617.935,522.05 617.835,522.215 617.738,522.396C617.641,522.577 617.543,522.768 617.446,522.968C617.349,523.168 617.258,523.376 617.173,523.592C617.088,523.808 617.004,524.022 616.919,524.235C616.834,524.448 616.743,524.662 616.646,524.878C616.549,525.094 616.458,525.301 616.373,525.498C616.288,525.695 616.205,525.876 616.125,526.041C616.044,526.206 615.962,526.379 615.877,526.56C615.792,526.741 615.727,526.914 615.68,527.079C615.633,527.244 615.593,527.41 615.559,527.575C615.526,527.74 615.492,527.907 615.458,528.075C615.424,528.244 615.399,528.41 615.382,528.575C615.365,528.74 615.356,528.906 615.356,529.071L615.356,531.443C615.356,531.64 615.381,531.831 615.432,532.015C615.483,532.199 615.534,532.374 615.585,532.539C615.636,532.704 615.693,532.877 615.756,533.058C615.82,533.239 615.894,533.428 615.979,533.625C616.064,533.822 616.138,534.003 616.201,534.168C616.264,534.333 616.33,534.508 616.398,534.693C616.466,534.877 616.549,535.093 616.646,535.34C616.743,535.588 616.843,535.826 616.944,536.055C617.046,536.284 617.146,536.498 617.243,536.698C617.34,536.898 617.431,537.073 617.516,537.222C617.601,537.371 617.683,537.529 617.764,537.694C617.844,537.859 617.935,538.048 618.037,538.261C618.138,538.474 618.238,538.68 618.335,538.88C618.432,539.08 618.524,539.263 618.609,539.428C618.694,539.593 618.793,539.759 618.907,539.924C619.022,540.089 619.145,540.22 619.276,540.319C619.407,540.418 619.563,540.508 619.746,540.591C619.928,540.673 620.078,540.771 620.197,540.886C620.315,541 620.448,541.132 620.597,541.281C620.745,541.43 620.876,541.564 620.991,541.682C621.105,541.799 621.221,541.915 621.34,542.029C621.459,542.144 621.584,542.258 621.715,542.372C621.846,542.487 622.003,542.585 622.185,542.668C622.367,542.751 622.566,542.817 622.782,542.868C622.998,542.919 623.214,542.944 623.43,542.944L626.11,542.944C626.326,542.944 626.532,542.952 626.727,542.968C626.922,542.984 627.11,543 627.292,543.016C627.474,543.031 627.656,543.049 627.838,543.068C628.02,543.087 628.202,543.097 628.385,543.097C628.567,543.097 628.757,543.097 628.956,543.097C629.155,543.097 629.354,543.03 629.553,542.896C629.752,542.763 629.951,542.629 630.15,542.496C630.349,542.363 630.54,542.239 630.722,542.125C630.904,542.01 631.078,541.904 631.243,541.805C631.408,541.707 631.565,541.617 631.713,541.534C631.861,541.451 632.026,541.351 632.209,541.234C632.391,541.116 632.556,540.992 632.704,540.862C632.852,540.732 632.985,540.6 633.104,540.467C633.223,540.334 633.339,540.192 633.454,540.043C633.568,539.894 633.676,539.728 633.778,539.547C633.879,539.366 633.97,539.193 634.051,539.028C634.131,538.863 634.213,538.705 634.298,538.556C634.383,538.407 634.483,538.267 634.597,538.137C634.712,538.007 634.826,537.875 634.94,537.742C635.055,537.609 635.163,537.475 635.264,537.341C635.365,537.208 635.465,537.051 635.562,536.87C635.66,536.689 635.768,536.515 635.886,536.35C636.005,536.185 636.121,536.012 636.236,535.831C636.35,535.65 636.433,535.477 636.484,535.312C636.535,535.147 636.56,534.981 636.56,534.816L636.56,532.139C636.56,531.942 636.551,531.736 636.534,531.52C636.517,531.304 636.492,531.105 636.458,530.924C636.424,530.743 636.399,530.562 636.382,530.381C636.365,530.2 636.331,530.019 636.28,529.838C636.229,529.657 636.187,529.474 636.153,529.29C636.119,529.106 636.07,528.931 636.007,528.766C635.944,528.601 635.861,528.412 635.759,528.199C635.658,527.986 635.55,527.772 635.435,527.556C635.321,527.34 635.198,527.124 635.067,526.908C634.936,526.692 634.819,526.519 634.718,526.389C634.616,526.258 634.508,526.118 634.394,525.969C634.279,525.82 634.156,525.671 634.025,525.522C633.894,525.373 633.76,525.207 633.625,525.026C633.49,524.845 633.339,524.647 633.174,524.431C633.009,524.215 632.835,523.983 632.653,523.735C632.471,523.487 632.323,523.29 632.209,523.144C632.094,522.998 631.988,522.85 631.891,522.701C631.794,522.552 631.686,522.402 631.567,522.253C631.448,522.104 631.332,521.947 631.218,521.782C631.103,521.617 630.98,521.459 630.849,521.31C630.718,521.161 630.578,521.037 630.43,520.938C630.282,520.84 630.123,520.75 629.954,520.667C629.784,520.584 629.608,520.518 629.426,520.467C629.244,520.416 629.047,520.383 628.836,520.367C628.624,520.351 628.393,520.343 628.143,520.343L627.768,520.343" style="fill:none;stroke:black;stroke-width:4.92px;"/>
                </g>
                <g id="STROKE_FAC9C9A0.-CB27.-4CC6.-9320.-11F93A0904E11" transform="matrix(-1,0,0,1,1107.89,0)">
                    <path d="M581.397,511.567C581.304,511.237 581.182,511.031 581.029,510.948C580.876,510.865 580.711,510.8 580.533,510.753C580.356,510.705 580.182,510.681 580.013,510.681C579.843,510.681 579.676,510.746 579.511,510.877C579.346,511.007 579.197,511.162 579.066,511.343C578.935,511.524 578.82,511.698 578.723,511.863C578.626,512.028 578.526,512.194 578.424,512.363C578.323,512.531 578.215,512.698 578.101,512.863C577.986,513.028 577.887,513.194 577.802,513.359C577.717,513.524 577.635,513.689 577.554,513.854C577.474,514.019 577.392,514.2 577.307,514.397C577.222,514.594 577.156,514.801 577.11,515.017C577.063,515.233 577.023,515.439 576.989,515.636C576.955,515.833 576.921,516.047 576.887,516.279C576.853,516.511 576.819,516.717 576.786,516.898C576.752,517.079 576.726,517.286 576.709,517.518C576.692,517.75 576.684,517.974 576.684,518.19L576.684,520.438C576.684,520.603 576.701,520.778 576.735,520.962C576.769,521.147 576.803,521.321 576.836,521.486C576.87,521.651 576.913,521.817 576.964,521.982C577.015,522.147 577.072,522.312 577.135,522.477C577.198,522.642 577.272,522.841 577.357,523.073C577.442,523.305 577.524,523.503 577.605,523.668C577.686,523.833 577.777,523.989 577.878,524.135C577.98,524.281 578.08,524.421 578.177,524.554C578.274,524.688 578.374,524.829 578.475,524.978C578.577,525.127 578.668,525.293 578.748,525.474C578.829,525.655 578.92,525.844 579.022,526.041C579.123,526.238 579.214,526.436 579.295,526.636C579.375,526.837 579.457,527.035 579.542,527.232C579.627,527.429 579.71,527.619 579.79,527.804C579.871,527.988 579.953,528.153 580.038,528.299C580.123,528.445 580.231,528.601 580.362,528.766C580.493,528.931 580.633,529.089 580.781,529.238C580.929,529.387 581.094,529.521 581.277,529.638C581.459,529.755 581.624,529.863 581.772,529.962C581.92,530.06 582.068,530.15 582.217,530.233C582.365,530.316 582.515,530.406 582.668,530.505C582.82,530.604 582.979,530.694 583.144,530.776C583.309,530.859 583.483,530.949 583.665,531.048C583.847,531.147 584.029,531.237 584.211,531.32C584.393,531.402 584.567,531.476 584.732,531.543C584.897,531.61 585.094,531.684 585.323,531.767C585.552,531.85 585.766,531.916 585.965,531.967C586.164,532.018 586.363,532.06 586.562,532.091C586.761,532.123 586.96,532.155 587.159,532.187C587.358,532.218 587.557,532.234 587.756,532.234L588.95,532.234C589.149,532.234 589.34,532.202 589.522,532.139C589.704,532.076 589.861,531.993 589.992,531.891C590.123,531.79 590.272,531.656 590.437,531.491C590.602,531.326 590.735,531.17 590.837,531.024C590.938,530.878 591.029,530.73 591.11,530.581C591.191,530.432 591.273,530.267 591.358,530.086C591.443,529.905 591.517,529.714 591.58,529.514C591.643,529.314 591.709,529.123 591.777,528.942C591.844,528.761 591.912,528.58 591.98,528.399C592.048,528.218 592.114,528.036 592.177,527.851C592.24,527.667 592.323,527.461 592.425,527.232C592.526,527.003 592.617,526.781 592.698,526.565C592.779,526.349 592.827,526.158 592.844,525.993C592.861,525.828 592.878,525.655 592.895,525.474C592.912,525.293 592.929,525.078 592.946,524.831C592.963,524.583 592.971,524.318 592.971,524.035L592.971,520.862C592.971,520.579 592.954,520.348 592.92,520.167C592.886,519.986 592.844,519.797 592.793,519.6C592.742,519.403 592.694,519.196 592.647,518.98C592.6,518.764 592.543,518.54 592.476,518.309C592.408,518.077 592.332,517.845 592.247,517.613C592.162,517.381 592.071,517.133 591.974,516.87C591.877,516.606 591.771,516.334 591.656,516.055C591.542,515.776 591.451,515.561 591.383,515.412C591.315,515.263 591.247,515.113 591.18,514.964C591.112,514.815 591.004,514.608 590.856,514.345C590.707,514.081 590.542,513.825 590.36,513.578C590.178,513.33 589.964,513.09 589.719,512.858C589.473,512.627 589.274,512.462 589.122,512.363C588.969,512.264 588.81,512.156 588.645,512.039C588.48,511.922 588.315,511.814 588.15,511.715C587.985,511.616 587.794,511.51 587.578,511.396C587.362,511.281 587.163,511.165 586.981,511.048C586.799,510.931 586.625,510.84 586.46,510.776C586.295,510.713 586.115,510.63 585.92,510.529C585.725,510.427 585.537,510.352 585.355,510.305C585.173,510.257 584.997,510.2 584.828,510.133C584.658,510.066 584.482,510.025 584.3,510.009C584.118,509.994 583.904,509.978 583.659,509.962C583.413,509.946 583.182,509.938 582.966,509.938L582.642,509.938" style="fill:none;stroke:black;stroke-width:4.92px;"/>
                </g>
                <g id="STROKE_735E0E63.-D3F4.-47DA.-9776.-61D29D1D95F61" transform="matrix(-1,0,0,1,1107.89,0)">
                    <path d="M640.282,517.618C640.579,517.815 640.818,517.972 641,518.089C641.182,518.207 641.339,518.356 641.47,518.537C641.601,518.718 641.709,518.915 641.794,519.128C641.879,519.341 641.953,519.539 642.016,519.724C642.08,519.908 642.146,520.083 642.213,520.248C642.281,520.413 642.349,520.594 642.417,520.791C642.484,520.988 642.558,521.177 642.639,521.358C642.72,521.539 642.794,521.72 642.861,521.901C642.929,522.082 642.986,522.255 643.033,522.42C643.08,522.585 643.128,522.768 643.179,522.968C643.23,523.168 643.272,523.359 643.306,523.54C643.34,523.721 643.382,523.919 643.433,524.135C643.484,524.351 643.526,524.575 643.56,524.807C643.594,525.039 643.634,525.261 643.681,525.474C643.727,525.687 643.776,525.901 643.827,526.117C643.878,526.333 643.928,526.539 643.979,526.736C644.03,526.933 644.078,527.132 644.125,527.332C644.172,527.532 644.204,527.723 644.221,527.904C644.238,528.085 644.254,528.283 644.271,528.499C644.288,528.715 644.297,528.929 644.297,529.142L644.297,530.31C644.297,530.475 644.288,530.64 644.271,530.805C644.254,530.97 644.231,531.143 644.202,531.324C644.172,531.505 644.14,531.694 644.106,531.891C644.072,532.088 644.03,532.269 643.979,532.434C643.928,532.599 643.869,532.757 643.801,532.906C643.734,533.055 643.66,533.238 643.579,533.454C643.498,533.67 643.407,533.884 643.306,534.097C643.204,534.31 643.104,534.499 643.007,534.664C642.91,534.829 642.81,534.987 642.709,535.136C642.607,535.285 642.49,535.442 642.359,535.607C642.228,535.772 642.063,535.946 641.864,536.127C641.665,536.308 641.442,536.506 641.197,536.722C640.951,536.938 640.754,537.103 640.606,537.218C640.458,537.332 640.316,537.448 640.181,537.565C640.045,537.683 639.903,537.791 639.755,537.889C639.607,537.988 639.467,538.086 639.336,538.185C639.205,538.283 639.014,538.415 638.764,538.58C638.514,538.745 638.281,538.895 638.065,539.028C637.849,539.161 637.667,539.269 637.519,539.352C637.371,539.435 637.197,539.501 636.998,539.552L636.7,539.628" style="fill:none;stroke:black;stroke-width:4.92px;"/>
                </g>
                <g id="STROKE_294584AE.-840F.-475C.-97AE.-0B24739B987D1" transform="matrix(-1,0,0,1,1107.89,0)">
                    <path d="M654.422,512.863C654.659,512.596 654.852,512.504 655,512.587C655.149,512.67 655.272,512.786 655.369,512.935C655.466,513.084 655.557,513.241 655.642,513.406C655.727,513.571 655.809,513.745 655.89,513.926C655.97,514.107 656.044,514.329 656.112,514.593C656.18,514.856 656.239,515.071 656.29,515.236C656.341,515.401 656.383,515.566 656.417,515.731C656.451,515.896 656.476,516.069 656.493,516.25C656.51,516.431 656.524,516.622 656.537,516.822C656.55,517.022 656.565,517.23 656.582,517.446C656.599,517.662 656.607,517.894 656.607,518.142L656.607,521.534C656.607,521.731 656.599,521.961 656.582,522.225C656.565,522.488 656.542,522.728 656.512,522.944C656.483,523.16 656.442,523.384 656.391,523.616C656.34,523.848 656.281,524.07 656.214,524.283C656.146,524.496 656.089,524.685 656.042,524.85C655.995,525.015 655.947,525.198 655.896,525.398C655.845,525.598 655.794,525.781 655.743,525.946C655.692,526.111 655.61,526.317 655.496,526.565C655.381,526.813 655.273,527.027 655.172,527.208L655.019,527.48" style="fill:none;stroke:black;stroke-width:4.92px;"/>
                </g>
                <g id="STROKE_121ABED0.-87F6.-4702.-8C65.-E1D957D958241" transform="matrix(-1,0,0,1,1107.89,0)">
                    <path d="M661.13,508.795C661.461,509.093 661.7,509.325 661.848,509.49C661.996,509.655 662.136,509.836 662.267,510.033C662.398,510.23 662.489,510.411 662.54,510.576C662.591,510.741 662.642,510.907 662.693,511.072C662.744,511.237 662.794,511.42 662.845,511.62C662.896,511.82 662.945,512.036 662.991,512.268C663.038,512.499 663.086,512.739 663.137,512.987C663.188,513.235 663.231,513.499 663.265,513.778C663.298,514.057 663.332,514.337 663.366,514.616C663.4,514.896 663.425,515.185 663.442,515.484C663.459,515.782 663.468,516.071 663.468,516.351L663.468,518.661C663.468,518.893 663.459,519.123 663.442,519.352C663.425,519.581 663.4,519.819 663.366,520.067C663.332,520.314 663.281,520.562 663.214,520.81C663.146,521.057 663.08,521.305 663.017,521.553C662.954,521.801 662.896,522.041 662.845,522.272C662.794,522.504 662.744,522.728 662.693,522.944C662.642,523.16 662.591,523.359 662.54,523.54C662.489,523.721 662.432,523.902 662.369,524.083C662.306,524.264 662.223,524.47 662.121,524.702C662.02,524.934 661.929,525.14 661.848,525.321C661.767,525.502 661.685,525.676 661.6,525.841C661.515,526.006 661.433,526.171 661.352,526.336C661.272,526.501 661.181,526.659 661.079,526.808C660.978,526.957 660.878,527.107 660.781,527.256C660.684,527.405 660.569,527.547 660.438,527.68C660.307,527.813 660.165,527.945 660.012,528.075C659.859,528.206 659.726,528.338 659.612,528.471C659.497,528.604 659.375,528.728 659.244,528.842C659.113,528.957 658.981,529.081 658.85,529.214C658.719,529.347 658.568,529.481 658.399,529.614C658.23,529.747 658.054,529.863 657.871,529.962C657.689,530.06 657.484,530.133 657.255,530.181L656.912,530.252" style="fill:none;stroke:black;stroke-width:4.92px;"/>
                </g>
                <g id="STROKE_5C1FD925.-52F1.-44E2.-849D.-38A24BA22F991" transform="matrix(-1,0,0,1,1107.89,0)">
                    <path d="M598.129,512.311C598.493,512.546 598.717,512.738 598.802,512.887C598.887,513.036 598.969,513.217 599.05,513.43C599.131,513.643 599.213,513.857 599.298,514.073C599.383,514.289 599.457,514.496 599.52,514.693C599.583,514.89 599.649,515.096 599.717,515.312C599.785,515.528 599.853,515.76 599.92,516.008C599.988,516.255 600.062,516.519 600.143,516.798C600.223,517.078 600.297,517.351 600.365,517.618C600.433,517.885 600.501,518.158 600.568,518.437C600.636,518.716 600.676,518.955 600.689,519.152C600.702,519.349 600.716,519.53 600.733,519.695C600.75,519.86 600.759,520.051 600.759,520.267C600.759,520.483 600.736,520.673 600.689,520.838C600.642,521.003 600.551,521.169 600.416,521.334C600.281,521.499 600.13,521.672 599.965,521.853C599.8,522.034 599.677,522.2 599.596,522.349C599.516,522.498 599.434,522.647 599.349,522.796C599.264,522.945 599.182,523.095 599.101,523.244C599.02,523.393 598.946,523.559 598.879,523.74C598.811,523.921 598.752,524.102 598.701,524.283C598.65,524.464 598.608,524.637 598.574,524.802C598.54,524.967 598.491,525.15 598.428,525.35C598.364,525.55 598.29,525.749 598.205,525.946C598.12,526.143 598.029,526.331 597.932,526.512C597.835,526.693 597.729,526.867 597.615,527.032C597.5,527.197 597.375,527.354 597.24,527.503C597.104,527.652 596.97,527.786 596.839,527.904C596.708,528.021 596.569,528.129 596.42,528.228C596.272,528.326 596.124,528.416 595.976,528.499C595.827,528.582 595.654,528.688 595.455,528.818C595.256,528.949 595.09,529.073 594.959,529.19C594.828,529.307 594.694,529.423 594.559,529.538C594.424,529.652 594.273,529.776 594.108,529.909C593.943,530.042 593.786,530.166 593.638,530.281C593.49,530.395 593.333,530.493 593.168,530.576C593.003,530.659 592.821,530.733 592.622,530.8C592.423,530.867 592.232,530.916 592.05,530.948C591.868,530.98 591.677,530.996 591.478,530.996L590.284,530.996C590.051,530.996 589.812,530.972 589.566,530.924C589.321,530.877 589.124,530.812 588.975,530.729C588.827,530.646 588.662,530.546 588.48,530.429C588.298,530.311 588.124,530.187 587.959,530.057L587.711,529.862" style="fill:none;stroke:black;stroke-width:4.92px;"/>
                </g>
            </g>
        </g>
    </g>
</svg>
