<?xml version="1.0" encoding="utf-8"?>
<!-- Generator: Adobe Illustrator 16.0.0, SVG Export Plug-In . SVG Version: 6.00 Build 0)  -->
<!DOCTYPE svg PUBLIC "-//W3C//DTD SVG 1.1//EN" "http://www.w3.org/Graphics/SVG/1.1/DTD/svg11.dtd">
<svg version="1.1" id="Layer_1" xmlns="http://www.w3.org/2000/svg" xmlns:xlink="http://www.w3.org/1999/xlink" x="0px" y="0px"
	 width="160px" height="160px" viewBox="0 0 160 160" enable-background="new 0 0 160 160" xml:space="preserve">
<g id="l4">
	
		<circle fill="#FFFFFF" stroke="#000000" stroke-width="1.7" stroke-linecap="round" stroke-linejoin="round" stroke-miterlimit="1.5" cx="106.608" cy="126.638" r="18.302"/>
	
		<path fill="#FFFFFF" stroke="#000000" stroke-width="1.7" stroke-linecap="round" stroke-linejoin="round" stroke-miterlimit="1.5" d="
		M69.678,118.712c3.674,1.13,7.576,1.739,11.619,1.739c0.298,0,0.595-0.003,0.89-0.01l-0.58,8.711
		c1.373,3.473-9.036,2.974-8.936,0.482L69.678,118.712z"/>
	
		<path fill="#11AA11" stroke="#000000" stroke-width="1.7" stroke-linecap="round" stroke-linejoin="round" stroke-miterlimit="1.5" d="
		M83.358,132.461l-1.566-2.59"/>
	<path stroke="#000000" stroke-width="1.7" stroke-linecap="round" stroke-linejoin="round" stroke-miterlimit="1.5" d="
		M101.827,136.311l5.22,4.736l-1.022,3.672l-9.934-3.293l0.645-3.114L101.827,136.311z"/>
	<path stroke="#000000" stroke-width="1.7" stroke-linecap="round" stroke-linejoin="round" stroke-miterlimit="1.5" d="
		M122.664,135.658l-5.054-2.061l-3.991,6.112l1.383,3.295L122.664,135.658z"/>
	<path stroke="#000000" stroke-width="1.7" stroke-linecap="round" stroke-linejoin="round" stroke-miterlimit="1.5" d="
		M118.698,113.066l-2.215,0.998l1.306,5.328l6.222,2.188"/>
	
		<path fill="#11AA11" stroke="#000000" stroke-width="1.7" stroke-linecap="round" stroke-linejoin="round" stroke-miterlimit="1.5" d="
		M105.637,119.385l-1.225-4.523"/>
	
		<path fill="#11AA11" stroke="#000000" stroke-width="1.7" stroke-linecap="round" stroke-linejoin="round" stroke-miterlimit="1.5" d="
		M97.578,114.123l-4.347,6.479"/>
	
		<path fill="#11AA11" stroke="#000000" stroke-width="1.7" stroke-linecap="round" stroke-linejoin="round" stroke-miterlimit="1.5" d="
		M112.444,122.295l5.328-2.877"/>
	
		<path fill="#11AA11" stroke="#000000" stroke-width="1.7" stroke-linecap="round" stroke-linejoin="round" stroke-miterlimit="1.5" d="
		M112.203,130.428l5.125,3.227"/>
	
		<path fill="#11AA11" stroke="#000000" stroke-width="1.7" stroke-linecap="round" stroke-linejoin="round" stroke-miterlimit="1.5" d="
		M104.589,131.314l-2.519,5.509"/>
	
		<path fill="#11AA11" stroke="#000000" stroke-width="1.7" stroke-linecap="round" stroke-linejoin="round" stroke-miterlimit="1.5" d="
		M100.926,125.695l-6.034-0.514"/>
	<path stroke="#000000" stroke-width="1.7" stroke-linecap="round" stroke-linejoin="round" stroke-miterlimit="1.5" d="
		M107.358,108.373l2.553,2.123l-5.541,3.904l-6.727-0.375l0.932-3.619"/>
	<path stroke="#000000" stroke-width="1.7" stroke-linecap="round" stroke-linejoin="round" stroke-miterlimit="1.5" d="
		M94.473,125.01l-1.413-3.841l-3.678,0.077l-1.098,7.16l2.748,1.88L94.473,125.01z"/>
	
		<path fill="#FFEE11" stroke="#000000" stroke-width="1.7" stroke-linecap="round" stroke-linejoin="round" stroke-miterlimit="1.5" d="
		M71.939,128.674l-1.525,1.697l2.355,1.454l10.491,0.496c0,0,1.561,4.188,1.456,5.911c-0.093,1.541-2.354,6.168-2.354,6.168
		l-2.801-3.166l-6.919,1.111l-2.217,3.049l-1.903-1.854l-1.928,2.273l-1.993-2.344l-2.468,2.104l-1.945-2.356l-2.479,2.854
		l-2.648-2.888c0,0-0.727-4.228,0.666-5.271c1.395-1.044,4.698,0.487,7.696-0.99S71.939,128.674,71.939,128.674z"/>
	
		<path fill="none" stroke="#000000" stroke-width="1.7" stroke-linecap="round" stroke-linejoin="round" stroke-miterlimit="1.5" d="
		M73.855,141.908c-0.277-4.049-2.061-6.916-5.871-8.195"/>
	
		<path fill="none" stroke="#000000" stroke-width="1.7" stroke-linecap="round" stroke-linejoin="round" stroke-miterlimit="1.5" d="
		M67.539,144.348c0.465-3.361-0.473-6.043-3.134-7.891"/>
	<path stroke="#000000" stroke-width="1.7" stroke-linecap="round" stroke-linejoin="round" stroke-miterlimit="1.5" d="
		M105.328,119.541l-4.668,6.154l3.534,6.34l8.121-1.783l0.148-7.863L105.328,119.541z"/>
	
		<path fill="#11AA11" stroke="#000000" stroke-width="1.7" stroke-linecap="round" stroke-linejoin="round" stroke-miterlimit="1.5" d="
		M90.396,130.715l6.164,8.434"/>
</g>
</svg>
