<?xml version="1.0" encoding="utf-8"?>
<!-- Generator: Adobe Illustrator 16.0.0, SVG Export Plug-In . SVG Version: 6.00 Build 0)  -->
<!DOCTYPE svg PUBLIC "-//W3C//DTD SVG 1.1//EN" "http://www.w3.org/Graphics/SVG/1.1/DTD/svg11.dtd">
<svg version="1.1" id="Layer_1" xmlns="http://www.w3.org/2000/svg" xmlns:xlink="http://www.w3.org/1999/xlink" x="0px" y="0px"
	 width="160px" height="160px" viewBox="0 0 160 160" enable-background="new 0 0 160 160" xml:space="preserve">
<g id="l11">
	
		<path fill="#FFEE11" stroke="#000000" stroke-width="1.7" stroke-linecap="round" stroke-linejoin="round" stroke-miterlimit="1.5" d="
		M57.736,107.814c0,0-1.877,4.523-5.047,8.902c-1.098,1.516-6.258,4.07-6.258,4.07c0.373,6.121,3.188,11.191,6.886,15.88
		l22.86,0.567c0,0,3.53-0.098,3.045-4.389c-0.398-3.533-7.816-4.207-7.816-4.207c-0.432-7.414-0.212-8.507,3.105-14.037
		c0,0-3.115-4.298-7.682-6.529C62.708,106.059,57.736,107.814,57.736,107.814z"/>
	
		<path fill="none" stroke="#000000" stroke-width="1.7" stroke-linecap="round" stroke-linejoin="round" stroke-miterlimit="1.5" d="
		M60.102,130.306c3.497-1.25,7.063-2.224,11.01-1.68"/>
	
		<path fill="#FFEE11" stroke="#000000" stroke-width="1.7" stroke-linecap="round" stroke-linejoin="round" stroke-miterlimit="1.5" d="
		M108.432,107.408c1.044-0.098,2.017-0.049,2.88,0.132c2.973,0.62,5.825,2.683,6.971,3.59c2.572,1.531,3.955,4.437,2.561,8.368
		c-2.219,6.258-5.477,14.249-9.729,17.243c-4.252,2.995-15.779,0.723-15.779,0.723L84.586,136.7l-1.866-17.294
		C92.793,118.721,101.835,114.252,108.432,107.408z"/>
	
		<path fill="#FFEE11" stroke="#000000" stroke-width="1.7" stroke-linecap="round" stroke-linejoin="round" stroke-miterlimit="1.5" d="
		M118.81,111.564c0,0-3.649-3.221-7.498-4.024c-5.174-1.081-14.253,2.594-19.096,13.749"/>
	
		<path fill="none" stroke="#000000" stroke-width="1.7" stroke-linecap="round" stroke-linejoin="round" stroke-miterlimit="1.5" d="
		M116.815,110.313c-8.174-5.549-12.85,4.938-15.314,8.586c-6.777,10.031-12.652,21.404-16.318,17.093"/>
	<path stroke="#000000" stroke-width="1.7" stroke-linecap="round" stroke-linejoin="round" stroke-miterlimit="1.5" d="
		M98.259,131.341l12.301,1.209"/>
	<path stroke="#000000" stroke-width="1.7" stroke-linecap="round" stroke-linejoin="round" stroke-miterlimit="1.5" d="
		M101.324,126.672l12.3,1.209"/>
	<path stroke="#000000" stroke-width="1.7" stroke-linecap="round" stroke-linejoin="round" stroke-miterlimit="1.5" d="
		M104.251,121.525l12.301,1.211"/>
	<path stroke="#000000" stroke-width="1.7" stroke-linecap="round" stroke-linejoin="round" stroke-miterlimit="1.5" d="
		M107.819,116.624l10.447,1.026"/>
	
		<path fill="none" stroke="#000000" stroke-width="1.7" stroke-linecap="round" stroke-linejoin="round" stroke-miterlimit="1.5" d="
		M43.143,117.828c-0.658,2.413,0.012,5.883,0.012,5.883"/>
	
		<path fill="none" stroke="#000000" stroke-width="1.7" stroke-linecap="round" stroke-linejoin="round" stroke-miterlimit="1.5" d="
		M38.994,115.816c-1.792,3.607-2.356,8.172-2.356,8.172"/>
	
		<path fill="none" stroke="#000000" stroke-width="1.7" stroke-linecap="round" stroke-linejoin="round" stroke-miterlimit="1.5" d="
		M124.856,118.253c-0.025-3.126-2.137-8.899-2.137-8.899"/>
	
		<path fill="none" stroke="#000000" stroke-width="1.7" stroke-linecap="round" stroke-linejoin="round" stroke-miterlimit="1.5" d="
		M128.106,116.537c0.676-6.278,0.049-8.114-2.196-10.873"/>
</g>
</svg>
