<svg xmlns="http://www.w3.org/2000/svg"><symbol id="face_01"><path d="M94 85s4.8-2 8.2 0c.8.4.7 1.1 0 2 0 0-3.4 4-4.1 4s-4.8-4-4.8-4c-.6-1-.3-1.7.7-2z"/><path d="M99.3 84.1c1 .2 2 .4 3 .9.8.4.7 1.1 0 2a22.1 22.1 0 01-4.1 4c1.9-3.2 2.6-6.3 1.1-6.9z" fill="#3a3a3a" opacity=".2"/><g fill="none" stroke="#000" stroke-linecap="round" stroke-linejoin="round"><path d="M96 100c1.6.2 2-5.8 2-9M88 95.5s7.5 11 18 0"/></g><g fill="#010101" opacity=".6"><path d="M79 82s0-12 6-12 6 11.6 6 11.6S86 70 79 82zM102 82s0-12 6-12 6 11.6 6 11.6-5-11.6-12 .4z"/></g><path d="M96 86s4-1 6 0h-6z" opacity=".3" fill="#fff"/><g fill="none" stroke="#000" stroke-linecap="round" stroke-linejoin="round" stroke-width=".5"><path d="M93 90c-9.9-3.8-20.4-6.2-31-7M92.6 91.3c-12-2.8-27.7-1.2-27.7-1.2M92.5 93.2c-12.3-1-27.6 5-27.6 5M101 90a84.1 84.1 0 0127-7M101.3 91.3c10.5-2.8 24.1-1.2 24.1-1.2M101.4 93.2c10.7-1 24 5 24 5"/></g></symbol><symbol id="face_02"><g fill="#010101" opacity=".6"><path d="M77 75s0-12 6-12 6 11.6 6 11.6S84 63 77 75zM101 74.5s0-11 5.5-11 5.5 10.6 5.5 10.6-4.6-10.6-11 .4zM106.7 100a15 15 0 01-11.1 5H95a15 15 0 01-11.1-5c-3-3.2-5-8.5-5-11s4.6 1.5 16 1.5h.6c7.8 0 12.7-2.5 13.6-3s2.4-.6 2.4 1.6-1.9 7.7-4.9 11z"/></g><circle cx="99" cy="79.8" r="9"/><path d="M108 80.8a9 9 0 01-16 4.6c2.3.8 8 1.6 11.6-2 2.7-2.5 2.8-7.2 2.1-9.6a9 9 0 012.2 7z" fill="#010101" opacity=".2"/></symbol><symbol id="face_03"><g fill="#fff"><path d="M72.4 70.5s-5 2.3-4.5 5.4 4.5 2.3 4.5-.4 1.4-4.5 0-5zM111 66.8s3.2-.9 4.3.7-1.2 2.9-2.3 1.6-2.5-1.6-2-2.3zM70.5 67.2s-3.4-.1-4 1.8 1.9 2.5 2.6 1 2-2.2 1.4-2.8z"/></g><g fill="#010101" opacity=".6"><path d="M109.9 101.1H75.5s1.7-19.4 18.6-19.4c4.4-.2 8.8 1.6 11.8 4.8 5.3 5.7 4 14.6 4 14.6z"/><circle cx="78.8" cy="67.7" r="4.8"/><circle cx="106.1" cy="67.7" r="4.4"/></g><path d="M105.3 58.5c2.9-.3 5.8 4.6 8.6 6.9 0 0-3.7-7.5-4.4-8.6s-4.2 1.7-4.2 1.7zM80.7 59.2c-2.6-1.2-7 2.3-10.4 3.6 0 0 6-5.8 7.1-6.6s3.3 3 3.3 3z"/></symbol><symbol id="face_04"><ellipse cx="108.8" cy="71.6" rx="3.7" ry="4.3" fill="#42210b"/><path d="M76.1 87.3s2.8 13.4 18.4 12.7c16-.8 16.5-13.6 16.5-13.6" fill="none" stroke="#42210b" stroke-width="2" stroke-linecap="round" stroke-linejoin="round"/><path d="M75.6 68.2a9.3 9.3 0 018.7 6.2c-3.2-2.1-4.2-2.8-9-.6" fill="none" stroke="#42210b" stroke-width="2.5" stroke-linecap="round" stroke-linejoin="round"/></symbol><symbol id="face_05"><path d="M83.5 57.7a1 1 0 00-.9 1.3s4 11.8 4.3 22.3a1 1 0 102 0c-.3-11-4.4-23-4.4-23a1 1 0 00-1-.6zm-.3 2.5c-1.6.2-2.7.7-3.3 1.7-.7 1-.5 2 0 3 .9 2 3 3.9 5.8 5.2 2.4 1.2 4.2 3 4.7 4 .3.6.2 1 0 1.3-.2.4-.8.8-2 1.1-2.4.5-3.8 0-4.6-.9-.9-.8-1.1-2-.7-3.1a1 1 0 10-2-.7 5.1 5.1 0 001.2 5.2c1.4 1.4 3.7 2.1 6.5 1.5 1.6-.4 2.7-1 3.3-2 .6-1 .6-2.1.1-3.1-.8-2-3-3.7-5.6-5-2.4-1.3-4.4-3-5-4.3-.2-.6-.2-.9 0-1.1 0-.3.6-.6 1.8-.8 2.6-.2 3.8.6 4.5 1.2.6.7.7 1.3.7 1.3a1 1 0 102-.3s-.2-1.3-1.3-2.4c-1-1-3-2-6.1-1.8zM102.2 57.9a1 1 0 00-1 1.4s5 10.6 6.2 20.3a1 1 0 102-.2 80.7 80.7 0 00-6.3-21 1 1 0 00-.9-.5zm-.1 2.5c-1.5.4-2.5 1-3 1.9-.5 1-.3 2 .3 3 1 1.7 3.3 3.2 6 4.2 2.3.9 4.2 2.3 4.7 3.3.3.5.3.8.1 1.1-.1.3-.6.8-1.7 1.2-2.1.7-3.5.3-4.3-.4a2.9 2.9 0 01-1-2.8 1 1 0 10-2-.4c-.3 1.7.3 3.6 1.7 4.8 1.4 1.2 3.6 1.6 6.2.7 1.4-.5 2.4-1.2 3-2.2.4-1 .3-2-.2-3-1-1.8-3.2-3.2-5.9-4.2-2.3-.9-4.3-2.3-5-3.4-.2-.5-.2-.8-.1-1 0-.2.5-.6 1.6-.8 2.4-.4 3.6.1 4.2.6.7.6.8 1.1.8 1.1a1 1 0 102-.5s-.4-1.2-1.5-2.1c-1.1-1-3-1.6-6-1.1z"/><path d="M106.7 99a15 15 0 01-11.1 5H95a15 15 0 01-11-5c-3-3.2-5-8.5-5-11s4.6 1.5 16 1.5h.6c7.8 0 12.7-2.5 13.6-3s2.4-.6 2.4 1.6-1.9 7.7-4.9 11z" fill="#010101" opacity=".6"/><path d="M92 90.3c-.4.1-.7 10.5 0 14.5s9.2 7.6 11.7-4c1.4-4.4.7-11.9.7-11.9s-6.8 2.2-12.3 1.3z" fill="#f15a24"/><path d="M98.7 92.6s.7 7.1-.2 11.4.7 4.2 2.4 2 3.8-6.2 3.5-13.7v-3.4l-5.9 1.6z" fill="#e84715"/></symbol><symbol id="face_06"><g fill="#010101" opacity=".6"><path d="M77 76s0-12 6-12 6 11.59 6 11.59S84 64 77 76zM101 75.5s0-11 5.5-11 5.5 10.62 5.5 10.62-4.58-10.62-11 .38zM95.33 95.09q-.77 0-1.5-.06c-.88-.06-1.28 5.36-2.55 5.67s-1.72-6.38-2.54-6.63c-2.37-.72-6.48-1.76-8.26-2.91-4-2.59-4.42-5.74-4.42-7 0-2.38 7.46 5.42 19 5.42h.46c7.89 0 12.78-2.53 13.65-3s2.39-.65 2.39 1.6c0 1.09-1.85 2.77-4.69 4.21-.73.37-.86 8.43-2.38 8.05s-1.73-6.39-2.65-6.14a24.2 24.2 0 01-6.51.79z"/></g><g fill="#fff"><path d="M87.93 88.54l2.57 11.38s.46 1.92 1.48 0 2.5-10.4 2.5-10.4a26.66 26.66 0 01-6.55-.98zM100.84 89.13l2.81 10.21s1.22 2.34 1.78 0 1.77-11.89 1.77-11.89-1.51.82-6.36 1.68z"/></g><g opacity=".05"><path d="M91 91.51s1.19-.51 0 8.41c0 0 0 1.08 1 0 .8-1.92 2.48-10.4 2.48-10.4a19.21 19.21 0 01-4.36-.45zM103.45 90.8s1.07-.72 1.5 8.27a.87.87 0 00.23.43c.16.14 1.69-11.63 1.69-11.63a48.16 48.16 0 01-4.72 1.68z"/></g></symbol><symbol id="face_07"><g fill="#010101" opacity=".6"><path d="M76 77s0-12 6-12 6 11.6 6 11.6S83 65 76 77zM100 76.5s0-11 5.5-11 5.5 10.6 5.5 10.6-4.6-10.6-11 .4z"/></g><g opacity=".2"><path d="M75 91.1c-.2-1.5.4-2.9 1.4-3.9 0 0 10.8 0 13-4.6s4.3-10.1 7.9-7.8c5.7 3.3 5 7.8 8.6 10.1s7.2 5.7 12.2 5.7 5.8.5 5.8 2.1-2.2 4.7-6.5 3.1-10.4-4.3-19.8-.4-5 4.7-10.8 2.3c-4.1-1.8-8-4-11.8-6.6z"/><path d="M77.8 92.6l-.6 2.9 2.2 3.6s6.5 0 8.7 2.2 13.7 5 20.9 2.9 6.7-8.6 6.7-8.6-12.7 5.4-22.1 2.1a9 9 0 01-3.1 1.5c-2.2-.7-4.4-1.5-6.6-2.5-2.3-1-4.3-2.4-6.1-4.1z"/><path d="M116.3 94.5s-5.8-2.2-10.1-1.4c-3.4.5-6.7 1.3-9.9 2.6 4.2 1.7 13.6-1.2 20-1.2z"/></g><path d="M116.3 94.5s-5.8-2.2-10.1-1.4-9 1.8-11.3 3.4c0 0 2.4 1.7 7.2 1.3s12.1-1.8 14.2-3.3z" fill="#eb5273"/><path d="M76 90.9l1.4-3.6s10.8 0 13-4.3 4.3-9.4 7.9-7.2 5 7.2 8.6 9.4 7.2 4.3 12.2 4.3 5.7 1.4 5.7 2.9-2.2 4.3-6.5 2.9-10.4-4-19.8-.4-5 4.3-10.8 2.2c-4-1.7-7.9-3.8-11.7-6.2z" fill="#fbdb31"/><path d="M76 90.9l1.4-3.6a50 50 0 0015.1 7.2c4.3-5 21.6-5 32.4-2.2.1 1.4-2.2 4.3-6.5 2.9s-10.4-4-19.8-.4-5 4.3-10.8 2.2c-4.1-1.6-8-3.7-11.8-6.1z" opacity=".05"/><path d="M91.8 83l-.7 2.2 5.1 4.3c.4.4 1 .4 1.4 0 .7-.7-2.2-3.6-2.2-3.6L93.3 83c-.4-.4-1-.4-1.5 0 .1 0 .1 0 0 0z"/><path d="M78.8 92.6l-.6 1.9 2.2 3.6s6.5 0 8.7 2.2 13.7 5 20.9 2.9 6.7-8.6 6.7-8.6-12.7 5.4-22.1 2.1a9 9 0 01-3.1 1.5c-2.2-.7-4.4-1.5-6.6-2.5-3.5-1.5-6.1-3.1-6.1-3.1z" fill="#fbdb31"/><path d="M78.8 92.6l-.6 1.9 2.2 3.6s6.5 0 8.7 2.2 13.7 5 20.9 2.9 6.7-8.6 6.7-8.6-12.7 5.4-22.1 2.1a9 9 0 01-3.1 1.5c-2.2-.7-4.4-1.5-6.6-2.5-3.5-1.5-6.1-3.1-6.1-3.1z" opacity=".2"/></symbol><symbol id="face_08"><path d="M111.4 68.3c.6 2.7-.6 5.3-2.5 5.7s-4-1.5-4.6-4.2.6-5.3 2.5-5.7c.7-.1 7.9.3 7.9.3s-3.6 2.5-3.3 3.9zM80.7 66.9c-.6 3.1.7 5.9 2.8 6.3s4.4-1.7 5.1-4.7-.6-5.9-2.8-6.3c-.6-.1-10.1-.1-10.6.1-.9.3 6.8 3.7 5.5 4.6z"/><path d="M111.9 81.6c-7.7 10.3-21.2 9.6-33.4 0 0 0 1.7 15.4 18 15.4 5.3 0 8.9-1.6 11.4-3.8 5.2-4.6 4-11.6 4-11.6z" opacity=".6" fill="#010101"/></symbol><symbol id="face_09"><path d="M85.2 94h21.2s-.6 11-10.8 11c-2.6.1-5.2-.9-7.1-2.7-3.2-3.3-3.3-8.3-3.3-8.3z" fill="#603813"/><path d="M103.5 101.3a10 10 0 01-7.9 3.5c-2.6.1-5.2-.9-7.1-2.7-3.2-3.3 17.7-4 15-.8z" fill="#f15a24"/><path d="M82.2 82.4s-10-4.9-8.5-11.4 10.1-.7 9.5-.9 6.2-5.4 8.5.8c1.7 6.1-7.9 12.5-9.5 11.5zM107 82.4s-8.5-4.9-7.2-11.4c1.2-6.5 8.6-.7 8-.9-.4-.2 5.4-5.4 7.3.8 1.5 6.1-6.7 12.5-8 11.5z"/><g fill="#010101" opacity=".1"><path d="M82.2 82.4s-10-4.9-8.5-11.4 10-.6 9.5-.9c-7.2-4-7.5 8.6-1 12.3zM107 82.4s-8.6-4.9-7.3-11.4c1.3-6.5 8.5-.6 8-.9-6-4-6.3 8.6-.8 12.3z"/></g></symbol><symbol id="face_10"><path d="M97.6 82.4c4.8.2 8.5 4.3 8.3 9.1l-.1 3.3a8.7 8.7 0 01-9.1 8.3H96a8 8 0 01-7.6-8.4l.2-4a8.6 8.6 0 019-8.3z" fill="#010101" opacity=".6"/><path d="M92.6 63a1 1 0 00-.9.5L82.1 80a1 1 0 101.7 1l9.7-16.6a1 1 0 00-.9-1.5zm-11 .4a1 1 0 00-.8 1.6l11.4 15.8a1 1 0 101.6-1.2L82.4 63.8a1 1 0 00-.8-.4zM112.2 63.7a1 1 0 00-.8.4l-10 15.4a1 1 0 101.6 1l10-15.3a1 1 0 00-.8-1.5zm-9.5-.9a1 1 0 00-1 1.4l8.3 17a1 1 0 101.8-.8l-8.2-17a1 1 0 00-.9-.6z"/></symbol><symbol id="face_11"><g fill="none" stroke="#303030" stroke-width="2" stroke-linecap="round" stroke-linejoin="round"><path d="M77.2 70.9c1-5.6 9.1-5.6 9.8-.2M103.5 70.7c.9-5.2 8.5-5.2 9.1-.2"/></g><path d="M85.2 91h21.2s-.6 11-10.8 11c-2.6.1-5.2-.9-7.1-2.7-3.2-3.3-3.3-8.3-3.3-8.3z" fill="#603813"/><path d="M103.5 98.3a10 10 0 01-7.9 3.5c-2.6.1-5.2-.9-7.1-2.7-3.2-3.3 17.7-4 15-.8z" fill="#f15a24"/><path d="M98 84.9c1.1-6.6-3.3-12.1-13.2-9.9-7.8 2-4.4 9.9-8.8 13.2s-11 3.3-11 3.3 27.5 9.9 33-6.6z" fill="#4d3118"/><path d="M97.2 84.7c-1-6.4 3-11.8 12-9.7 6.8 1 4 9.7 8 12.9s10 3.2 10 3.2-25 9.7-30-6.4z" fill="#4d3118"/><g opacity=".15"><path d="M98 84.7c1-6.4-3-11.8-12-9.7 13.2 4 2.2 21-18 16.1 0 0 25 9.7 30-6.4zM102.8 75.1S108 75 109 78s0 6 1 8 7.8 7.8 16.4 5.4c0 0-9.3 1.2-11.3-7.1s-3.5-10.2-12.3-9.2z"/></g></symbol><symbol id="face_12"><path d="M104.7 101.1c-2.8 3.2-6.9 5-11.1 5h-.4c-4.3 0-8.3-1.8-11.1-5-3-3.3-4.9-8.6-4.9-11 0-2.1 3.5.6 12.3 1.3l3.7.1h.5c7.9 0 12.8-2.5 13.7-3 .9-.5 2.4-.7 2.4 1.6s-2.1 7.7-5.1 11z" fill="#010101" opacity=".6"/><ellipse transform="rotate(-3.1 82.8 75.8)" cx="82.8" cy="75.8" rx="6.2" ry="8.6" fill="#fff"/><ellipse transform="rotate(-3.1 105.8 75.9)" cx="105.8" cy="75.9" rx="6.2" ry="8.6" fill="#fff"/><ellipse cx="82.9" cy="76.3" rx="3.7" ry="4.4"/><ellipse cx="105.9" cy="76.3" rx="3.7" ry="4.4"/><circle cx="80.5" cy="73.9" r="2" fill="#fff"/><circle cx="103.5" cy="73.9" r="2" fill="#fff"/><path d="M77.7 67.3c3.5-4.1 7-4 10.4 0 0 0-4.8-9.6-10.4 0zM100.7 67.3c3.5-4.1 7-4 10.4 0 0 0-4.8-9.6-10.4 0z"/><path d="M68.3 67v4l2 .2c.8.3 1.3 1 1.4 1.8v5.4s.9 9 10.8 8.5S92.7 77 92.7 77s0-6.5 2.2-6.5 2.3 6.5 2.3 6.5.4 9.9 10.3 9.9 10.3-8.5 10.3-8.5v-5.8c0-.7.6-1.3 1.3-1.3h1.9v-4l-21.8-.1c-.8.2-1.4.6-2 1.2l-2.1 2-2.2-2.1a3.4 3.4 0 00-2.7-1L68.3 67z" fill="none" stroke="#000" stroke-width="2" stroke-miterlimit="10"/><path d="M90.1 96.5l-.2-4.3c3.3.4 6.7.3 10-.4l.2 4.2c.1.5-.2.7-.7.9l-4 .2-.4-3.4-.3 3.3-3.9.2c-.5-.1-.7-.3-.7-.7z" fill="#fff"/></symbol><symbol id="face_13"><path d="M109 98.4a21.1 21.1 0 01-12.9 4.1h-.5a21.2 21.2 0 01-12.9-4.1c-3.5-2.8-5.7-7-5.7-9s7.2 1.1 20.6 1.1h-1.5c9.1 0 14.8-2 15.8-2.4 1-.4 2.7-.6 2.7 1.3 0 1.8-2 6.2-5.6 9z" clip-rule="evenodd" fill="#010101" opacity=".6"/><ellipse cx="97.3" cy="72.7" rx="7.7" ry="10.8" transform="rotate(-3.2 97.4 72.7)" fill="#fff"/><ellipse cx="97.4" cy="74.5" rx="4.6" ry="5.5"/><circle cx="94.5" cy="71.5" r="2.5" fill="#fff"/><path d="M91 62c4.4-5.1 8.7-5 13 0 0 0-6-12-13 0z"/></symbol><symbol id="face_14"><g fill="#010101" opacity=".6"><path d="M84 63c-2-1-5-2-9 3s-8 13-5 19 11 3 12-1 0-6 3-9 4-9-1-12zM103.2 62.8c1.9-.9 4.7-1.9 8.4 2.8s7.4 12.1 4.7 17.7-10.3 2.7-11.2-1 0-5.6-2.8-8.4-3.7-8.3.9-11.1z"/></g><path d="M98 83.11c-3.7-.06-7 .89-7 .89-1.5.3-2 1-1 2 0 0 4.74 3.16 6.5 3.86a58.45 58.45 0 01-.17 3.68c-.11 1.37-.3 2.73-.57 3.69-.14.48-.3.78-.4 1.01-.23.49-.38.61-.38.61-.38.04-.47.03-.47.03-1.5-.06-2.88-.33-4.1-.73a16.37 16.37 0 01-6.54-3.99.5.5 0 10-.74.68s2.58 2.84 6.97 4.26c4.38 1.42 10.6 1.38 17.7-4.2.58-.41-.08-1.26-.6-.8-4.13 3.25-7.85 4.52-11.06 4.75.25-.36.43-.82.58-1.35.3-1.08.49-2.48.6-3.88.11-1.37.16-2.73.18-3.77C99.1 89.13 103 86 103 86c1-.9 1.2-1.6 0-2a14.21 14.21 0 00-5-.89z"/></symbol><symbol id="face_15"><path d="M94 71c-7.4.5-8.9 4.8-8.9 4.8a21 21 0 00-2.4 9.2c0 4.3-.8 4 4.5 5.2 0 0-1 11 9.3 10.3v3.7c0 10.6 6.4 3.4 6.4 3.4s7.9-3.9 9.9-16.4S102.9 71 94 71zm.1 21.2l-.3-.2.3.2zm-.3-.1l-2.6-.9c.9.2 1.8.5 2.6.9zm.8.4c1.2.8 1.7 1.9 1.9 3.8a6 6 0 00-1.9-3.8z" opacity=".2"/><ellipse transform="rotate(-14.7 106.9 72.3)" cx="106.8" cy="72.3" rx="3.6" ry="5.1" fill="#42210b"/><ellipse transform="rotate(-81.6 83.7 72.4)" cx="83.7" cy="72.4" rx="5.7" ry="4" fill="#42210b"/><path d="M94.9 72c-6.7.4-8 4.4-8 4.4a19.1 19.1 0 00-2.2 8.4c0 3.9-.7 3.7 4.1 4.8 0 0-.9 10.1 8.4 9.6v3.4c0 9.8 5.8 3.1 5.8 3.1s7.1-3.6 8.9-15.1-9-18.6-17-18.6zm.1 19.6l-.3-.2.3.2zm-.3-.1l-2.3-.8c.8.1 1.6.4 2.3.8zm.7.4c1.1.8 1.5 1.8 1.7 3.5a5.1 5.1 0 00-1.7-3.5z" fill="#fbdb31"/><path d="M88.8 89.7s-.9 10.1 8.4 9.6c0 0 .8-6.5-2.4-7.8s-6-2-6-1.8z" opacity=".2"/><path d="M86.9 76.4s1.3-4 8-4.4c8 0 18.7 7.1 16.9 18.7s-8.9 15.1-8.9 15.1c8.9-16 5.2-30.5-16-29.4z" opacity=".05"/><path d="M90.3 79.1c-.7 1.4-1.2 2.9-1.6 4.4 0 .9 3.2-5.3 1.6-4.4zm1.3 0a14 14 0 00-.9 2.9c.1.5 2.2-3.7.9-2.9z"/></symbol><symbol id="face_16"><g opacity=".3"><ellipse cx="100.5" cy="86.5" rx="14.5" ry="11.7" fill="#fcfcfc"/><path d="M100.5 98.2c-8 0-14.5-5.2-14.5-11.7s6.5-11.7 14.5-11.7S115 80 115 86.5c0-7.3-7.4-13.3-16.5-13.3S82 79.2 82 86.5s7.4 13.3 16.5 13.3 16.5-6 16.5-13.3c0 6.5-6.5 11.7-14.5 11.7z"/></g><g fill="#211309"><ellipse cx="96" cy="86.5" rx="3" ry="5.5"/><ellipse cx="107" cy="86.5" rx="3" ry="5.5"/></g><g fill="#42210b"><path d="M99 86.5c0 3-1.3 5.5-3 5.5-.5 0-1.1-.2-1.4-.6C98 91 98 82 94.3 82c.4-.6 1-.9 1.7-1 1.7 0 3 2.5 3 5.5zM110 86.5c0 3-1.3 5.5-3 5.5-.5 0-1.1-.2-1.4-.6 3.4-.4 3.4-9.4-.3-9.4.4-.6 1-.9 1.7-1 1.7 0 3 2.5 3 5.5z"/><ellipse transform="rotate(-11.5 109.8 69)" cx="109.8" cy="69" rx="3.6" ry="5.1"/><ellipse transform="rotate(-78.5 86.7 67.7)" cx="86.7" cy="67.7" rx="5.7" ry="4"/></g></symbol><symbol id="face_17"><path d="M117.2 66S81.4 54.5 44 63.5" fill="none" stroke="#000" stroke-width=".5" stroke-linecap="round" stroke-linejoin="round"/><path d="M101.5 63.4s.5 19.6 7 20.6c4.5 1.1 6.5-1.7 7-4.6s.4-11.4-1.8-14.3L101 62l.5 1.4z" fill="#010101"/><ellipse transform="rotate(-3.1 85.3 72.7)" cx="85.3" cy="72.7" rx="7.7" ry="10.8" fill="#fff"/><ellipse cx="85.4" cy="74.5" rx="4.6" ry="5.5"/><circle cx="82.5" cy="71.5" r="2.5" fill="#fff"/><path d="M79 62.4c3.6-2.6 11.5 1.6 17 2.6 0 0-10.9-7.2-12.8-8.2S79 62.4 79 62.4z"/><path d="M106.9 90.8c-2.7-3-6.6-4.8-10.6-4.8h-.4c-10.6 1.1-18.1 10.4-15.3 15.3 2.5 5.5 19.9-8.3 27.8.6 2.3 1.3 3.7-1 3.2-3.4-.4-2.2-1.8-4.5-4.7-7.7z" fill="#010101" opacity=".6"/><path d="M80.8 95.6s-1.8 3.4-.3 5.7c2.5 5.5 19.9-8.3 27.8.6.4-2.9.5-5.9.4-8.8.1-.1-27.9 3.3-27.9 2.5z" fill="#fff"/><path d="M80.8 95.6s-1.8 3.4-.3 5.7c2.5 5.5 19.9-8.3 27.8.6.4-2.9.5-5.9.4-8.8.1-.1-27.9 3.3-27.9 2.5z" fill="#fff"/></symbol><symbol id="face_18"><path d="M77 81s0-12 6-12 6 11.6 6 11.6S84 69 77 81zm24-.5s0-11 5.5-11 5.5 10.6 5.5 10.6-4.6-10.6-11 .4z" fill="#010101" opacity=".6"/><path d="M75 85.4h38.3s-1.1 23.1-19.4 23.1c-5 .2-9.7-1.9-12.9-5.8-5.8-6.8-6-17.3-6-17.3z" fill="#603813"/><path d="M108.1 100.8a16.5 16.5 0 01-14.2 7.3c-5 .2-9.7-1.9-12.9-5.8-5.8-6.8 31.9-8.3 27.1-1.5z" fill="#f15a24"/><path d="M75 85h38.3c-.1 2.5-.5 5-1.3 7.3 0 0-22.5 4.2-35.9-.3a33 33 0 01-1.1-7z" fill="#fff"/></symbol><symbol id="face_19"><path d="M74.4 83c13.5 2 26.4 2.5 38.2 0 0 0-1.1 23-19.4 23-4.9.2-9.6-2-12.8-5.7-5.7-6.8-6-17.3-6-17.3z" fill="#010101" opacity=".6"/><path d="M107.4 98.4a16.7 16.7 0 01-14.2 7.3c-4.9.2-9.6-2-12.8-5.7-5.7-6.9 31.8-8.4 27-1.6z" fill="#f15a24"/><g opacity=".2"><path d="M93.4 67.8c-.2-.4-.6-.6-1-.6l-7.9.2-4.8-6.9c-.4-.5-1-.6-1.5-.2l-.4.5-2.1 8.1-7.5 2.5a1 1 0 00-.7.9c-.1.4.1.8.5 1.1l6.6 4.8.1 8.4c0 .4.2.8.6 1 .4.2.8.1 1.1-.1l6.2-5.1 7.6 2.7h.5l.6-.3c.3-.3.4-.8.2-1.2l-2.8-8c.1.1 4.9-7.4 4.7-7.8zM121.5 71.9a1 1 0 00-.8-.8l-7.6-1.9-2.7-7.4c-.2-.5-.9-.8-1.4-.5l-.4.4-4.2 6.7-7.8.4c-.4 0-.8.3-.9.6-.2.4-.1.8.2 1.1l5 6.1-2.1 7.7c-.1.4 0 .8.3 1.1.3.3.7.4 1.1.2l7.3-3L114 87l.5.2.6-.1c.3-.2.5-.6.5-1l-.5-7.9c-.1-.3 6.5-5.9 6.4-6.3z"/></g><g fill="#f3ff00"><path d="M92.3 68.6a1 1 0 00-.9-.5l-7.1.2-4.2-5.9c-.4-.4-1-.5-1.4-.1l-.3.4-2 7-6.8 2.3c-.3.1-.6.4-.7.8 0 .4.1.7.4.9l5.9 4.1V85c0 .4.2.7.6.9.3.1.7.1 1-.1l5.7-4.4 6.8 2.2c.4.1.7 0 1-.2.2-.3.3-.7.2-1l-2.4-6.9s4.4-6.6 4.2-6.9zM118.9 72.4c-.1-.3-.3-.6-.6-.7l-6.2-1.6-2.2-6.1c-.2-.5-.7-.7-1.2-.5l-.4.3-3.4 5.5-6.4.3c-.5 0-.9.4-.8.9l.2.5 4.1 5-1.7 6.3c-.1.3 0 .7.3.9.2.2.6.3.9.2l6-2.4 5.3 3.6.4.1.5-.1c.3-.2.5-.5.4-.8l-.4-6.5c-.1 0 5.3-4.6 5.2-4.9z"/></g><g opacity=".1"><path d="M84 68.3l-4-5.9a1 1 0 00-1.3-.2c-.2.1-.3.3-.3.5l3.7 6.3 1.9-.7zM90.7 68.8l-4.4 5.8.1.2-.1 1.1 2.4 6.7c.2.5.7.7 1.2.5l.4-.4-2-7.1h-.4l3.7-5.6c.2-.4.1-1-.4-1.2h-.5zM111.8 70.1l-2.1-6.1c-.2-.4-.6-.6-1-.5l-.4.3 1.7 6.4 1.8-.1zM117.4 72.1l-5.3 4v.2l-.4.9.4 6.4c0 .4.4.8.9.7l.5-.2v-6.6l-.3-.1 4.6-4c.3-.3.3-.8 0-1.1l-.4-.2z"/></g><g opacity=".05"><path d="M81.6 79.2l-5.2 4.9a1 1 0 000 1.3l.5.2 5.6-4.7-.9-1.7zM107 78.9l-5.7 3c-.4.2-.5.7-.3 1.1.1.2.2.3.4.3l6-2.7-.4-1.7z"/></g></symbol><symbol id="face_20"><path d="M87.2 94h21.2s-.6 11-10.8 11c-2.6.1-5.2-.9-7.1-2.7-3.2-3.3-3.3-8.3-3.3-8.3z" fill="#603813"/><path d="M105.5 101.3a10 10 0 01-7.9 3.5c-2.6.1-5.2-.9-7.1-2.7-3.2-3.3 17.7-4 15-.8z" fill="#f15a24"/><path d="M71.3 68h-1.8v4h1.8c1 .3 1.8 1.2 1.8 2.2V80s-.3 8.1 11.8 7.9c0 0-8.6.2-10-8.3v-5.4c0-.8-.6-1.5-1.3-1.8l-1.9-.4-.4-4z" fill="#010101" opacity=".5"/><path d="M71.3 68v4l2 .2c.8.3 1.3 1 1.4 1.8v5.4s.9 9 10.8 8.5S95.7 78 95.7 78s0-4.5 2.2-4.5 2.3 4.5 2.3 4.5.4 9.9 10.3 9.9 10.3-8.5 10.3-8.5v-5.8c0-.7.6-1.3 1.3-1.3h1.9v-4l-21.8-.1c-.8.2-1.4.6-2 1.2l-2.1 2-2.2-2.1a3.4 3.4 0 00-2.7-1L71.3 68z" opacity=".5" stroke="#000" stroke-miterlimit="10"/><path d="M71.3 68v4l2 .2c.8.3 1.3 1 1.4 1.8v5.4s.9 9 10.8 8.5S95.7 78 95.7 78s0-4.5 2.2-4.5 2.3 4.5 2.3 4.5.4 9.9 10.3 9.9 10.3-8.5 10.3-8.5v-5.8c0-.7.6-1.3 1.3-1.3h1.9v-4l-21.8-.1c-.8.2-1.4.6-2 1.2l-2.1 2-2.2-2.1a3.4 3.4 0 00-2.7-1L71.3 68z" fill="none" stroke="#000" stroke-miterlimit="10"/></symbol><symbol id="face_21"><path d="M79 88.5c-.3-.1-6.4 4.2-8.3 6.2s.4 7.8 8.3 4c3.2-1.2 7.1-4.7 7.1-4.7s-4.8-2.4-7.1-5.5z" fill="#f15a24"/><path d="M81.1 92.7c-2 1.8-4.2 3.5-6.6 4.8-2.9 1.4-2.1 2.2 0 2.1s5.5-.8 9.7-4.2l1.9-1.4-4-2.2-1 .9z" fill="#e84715"/><path d="M76.1 83.3c-.5-2.6 3.3 13.4 18.4 12.7 16-.8 16.5-13.6 16.5-13.6" fill="none" stroke="#42210b" stroke-width="2" stroke-linecap="round" stroke-linejoin="round"/><g fill="#010101" opacity=".6"><path d="M77 75s0-12 6-12 6 11.6 6 11.6S84 63 77 75zM100 75s0-12 6-12 6 11.6 6 11.6-5-11.6-12 .4z"/></g></symbol><symbol id="bottom_01"><path d="M90.5 122.5s5 0 4-2c-.4-.9-3.9-2.6-3.9-2.6l-2.4.3c2.4 2 3 3.4 2.3 4.3z" opacity=".1"/><path d="M89 122.8s-1.1 3.6 2 4.2c6 1 7 6 6 8-2 5-16 8-22-2s-6-11-16-12-12 5-12 5c0 2 1 1 1 1 2-3.6 5.9-5.6 10-5 9 1 11 3 12 5s5 11 12 13 14 0 16-5-3.3-8.5-6-9c-.8-.2-1.8 0-2-2.8v-.2c0-2-1-.2-1-.2z" opacity=".3"/><path d="M84.5 123.5c1 2 6-1 6-1s5 0 4-2c-.4-.9-3.9-2.6-3.9-2.6l-4.8.6s-1.8 3.9-1.3 5z"/><path d="M90 122.8s-1.1 3.6 2 4.2c6 1 7 6 6 8-2 5-16 8-22-2s-6-11-16-12-12 5-12 5c0 2 1 1 1 1 2-3.6 5.9-5.6 10-5 9 1 11 3 12 5s5 11 12 13 14 0 16-5-3.3-8.5-6-9c-.8-.2-1.8 0-2-2.8v-.2c0-2-1-.2-1-.2z" fill="#fff"/><path d="M84.5 123.5c1 2 4-1 6-1s5 0 4-2c-1.5.5-7.5 2.5-10 3z" opacity=".1"/></symbol><symbol id="bottom_02"><g fill="currentColor"><path d="M117.8 127.3c-5-5.9-9.9-2.5-11.9-.7-1.2-1-2.3-2.1-3.2-3.4L97 115a35.2 35.2 0 01-12.2 4.1l3.6 11s-5 .7-5 3.4 2.2 6.2 8.6 3.4 12.9-.7 18.6.7 12.2-.7 12.2-4.8c0-3.2-1.3-5.6-5-5.5zM75.5 125.9l-.8-7.2s-10-1.4-16.4-5.7c0 0-3.4 12.9-6.9 14.9a4 4 0 00-5.4 1.3 3.9 3.9 0 003.3 6c.6 0 1.3-.2 1.8-.5a5.3 5.3 0 009 .2 5.4 5.4 0 007.1 2.6 5 5 0 002.5-2.5 6 6 0 008.3 2.1 6 6 0 002.1-8.3 5.6 5.6 0 00-4.6-2.9z"/></g><g fill="#fff" opacity=".2"><path d="M122 131.9c-2.6-2.6-7.9-3-7.9-3a9 9 0 013.9-.9c2.2-.1 4 1.7 4 3.9zM86.1 119.1S90 128 89 131c0 0 1.9-8 1-10.2s-3.9-1.7-3.9-1.7zM58.9 113.9s-3.3 11.2-6.3 13c0 0 7.2-5.6 8.1-8.4s-1.8-4.6-1.8-4.6zM79 130.9c-2.6-2.6-4.6-3.3-7.9 0 0-2.2 1.8-3.9 3.9-3.9s4 1.7 4 3.9zM67.6 133c-1.9-1.9-3.3-2.4-5.7 0-.1-1.6 1.1-2.9 2.7-3s2.9 1.1 3 2.7v.3zM58.3 131.6c-1.4-1.4-2.5-1.8-4.3 0a2.1 2.1 0 012.3-2c1.1 0 1.9.9 2 2zM52.1 131.6c-1.3-2.4-2.6-3.2-5.5-1.6.4-1.5 1.9-2.5 3.4-2.1 1.5.4 2.5 1.9 2.1 3.4v.3z"/></g><g fill="#010101" opacity=".1"><path d="M83.4 133.5c0 2.7 2.2 6.2 8.6 3.4s12.9-.7 18.6.7 12.2-.7 12.2-4.8C114 138 113 134 98 134.6c-8 0-12 4.4-14.6-1.1zM71.5 136.1c5.2-.4 7.8-1.8 7.3-8.4a5.6 5.6 0 01-7 8.6c-.2 0-.2-.1-.3-.2zM62.6 136.5c4.2-.3 6.2-1.5 5.8-6.7 1.9 1.6 2.1 4.4.5 6.2s-4.4 2.1-6.2.5c0 .1-.1 0-.1 0zM53.5 135.9c3.7-.2 5.5-1.3 5.2-5.9 1.7 1.4 2 3.8.6 5.5a3.9 3.9 0 01-5.5.6l-.3-.2zM47.3 134c3-.2 4.5-1 4.2-4.8 1.4 1.1 1.6 3.1.5 4.5s-3.1 1.6-4.5.5l-.2-.2zM69 117.5l.8 7.3c-5.1-.4-10.2.6-14.7 2.8a40 40 0 0114.9-.8s2.8-1.8 5.6-.9l-.9-7.4a22 22 0 01-5.7-1zM105.9 126.6c2-1.8 6.9-5.2 11.9.7 0 .1-8.8 2.7-11.9-.7z"/></g></symbol><symbol id="bottom_03"><path d="M59.5 114.4c-.6-1-1.9-1.2-2.9-.6h-.1c-1.8 1.2-1.8 2.9-1.2 3.5l12.2 13.4 1.2 11.1s0 1.2 2.3 1.2 1.8-1.8 1.8-1.8l-.6-11.1 8.8-14c1.2-1.8-1.2-5.8-4.7-2.9L71.6 126 70 109.8a3 3 0 00-2.9-1.8c-2.3 0-2.3 2.3-2.3 3.5s2.9 15.2 2.9 15.2l-8.2-12.3zM119 120.2c0-.6-.5-1.2-1.1-1.2l-11.1 2.9-2.1 2c1.7-1.9 3.1-3.9 4.4-6.1 1.2-2.3 2.3-1.8 2.3-1.8s2.9 0 3.5-1.8-.6-1.8-2.9-2.3c-1.5-.3-3 .1-4.1 1.2l-8.8 9.9-3.5-5.2 1.8-3.5c-1.8 2.3-12.2 5.2-12.2 5.2l5.2 1.2c2 1.7 3.8 3.7 5.2 5.8 1.8 2.9-2.3 14-2.3 14-.3 2.5 3.7 1.5 4.7-2.2.5-2.8 1.2-5.5 2-8.1 1.4.2 9.3 1.1 10.9 1.1.9 0 1.7-.7 1.8-1.7v-.1l-5.8-3.5c-.1.1 12.1-4.6 12.1-5.8z"/><g fill="#010101" opacity=".1"><path d="M59.5 114.4c-.6-.2-1.2-.2-1.8 0-1.8 1.2 1.8 5.2 1.8 5.2l9.3 11.1 1.2 11.1s-.3 1.2 1.2 1.2c2-.3 1.8-1.8 1.8-1.8l-.6-11.1 8.8-14c1.2-1.8-.9-3.8-3.5-1.2l-5.8 12.8-1.9-17.9s0-1.2-2.3-1.2-1.8 2.9-1.8 2.9l2.9 16.9-9.3-14zM92.4 118.2l5.3 7 1.5-2.1-3.6-5.1 1.4-2.9-4.6 2.5z"/></g><path d="M99.8 126.7c2.3-1.8 6.6-8.3 9.2-12.1 2.2-1.6 4.9-2.2 6-.2-.5 1.8-3.5 1.8-3.5 1.8s-1.2-.6-2.3 1.8-5.8 8.2-7.6 9.3-3.6 11-3.6 11c-1 1.9-2 3-3.1 3l4.9-14.6z" opacity=".1"/><path d="M106.8 122l11.1-2.9c.6 0 1.2.5 1.2 1.1 0 1.2-12.2 5.8-12.2 5.8l5.8 3.5c0 .9-.7 1.7-1.7 1.8h-.1c-1.8 0-11.1-1.2-11.1-1.2l1.2-2.5 5.8-5.6z" fill="#010101" opacity=".2"/></symbol><symbol id="bottom_04"><path d="M86.8 118.7L108 109c5.8 10.7 5 19.9 0 28.1l-21.2-10.8c.9-1.1 1.9-5.2 0-7.6zM79.1 117.7l-26-12c-5.5 9.6-5.5 21.2 0 34.6l26.1-13.4c-1.2-1.3-3.8-5.4-.1-9.2z"/><path d="M79.1 117.7l-26-12c-5.5 9.6-5.5 21.2 0 34.6l26.1-13.4c-1.2-1.3-3.8-5.4-.1-9.2z" fill="#fff" opacity=".15"/><g fill="#010101" opacity=".5"><path d="M97.9 125.9l-7.1-1.6s-1.2-.1-1.1-.8c.1-.7 1.3-.5 1.3-.5l7.2.2c.7.1 1.2.8 1.1 1.5-.1.7-.7 1.2-1.4 1.2zM98.2 120l-7.1 1.4s-1.1.4-1.3-.3c-.2-.7 1-1 1-1l6.8-2.7a1 1 0 011.4.9v.1c.3.7-.1 1.3-.8 1.6zM66.8 127l9.1-2.2s1.6-.2 1.5-1c-.2-.6-1.8-.3-1.8-.3l-9.3.9c-.8 0-1.4.8-1.3 1.6.2.8 1 1.2 1.8 1zM66.3 120l9.3 1.5s1.5.4 1.7-.3c.2-.7-1.3-1-1.3-1l-8.9-2.7c-.8-.2-1.6.2-1.9 1-.2.7.3 1.4 1.1 1.6z"/></g><circle cx="83.9" cy="122.1" r="6.7"/></symbol><symbol id="bottom_05"><path d="M95.8 115.5a16 16 0 002.7 2.5c.4 0 1.3-2.4 2.1-5 2.7-1.8 2.2-1.4 4.7-3.5 3.1 6.5 8.6 19.5 8.6 19.5l-1.9 10v-9s-7.7-17-8.7-17c-1 0-2.9 11-3.9 11-.5 0-7.3-7.2-7.3-7.2zM55.9 110.6s-3.6 3.4-4 3.4c-1.1 0-4.4-12-5.5-12s-12.1 23-12.1 23l2.2 10v-9s8.8-17 9.9-17 3.3 11 4.4 11c.5 0 8.3-7.1 8.3-7.1l-3.2-2.3z"/><g fill="#010101" opacity=".2"><path d="M55.9 110.6s-3.6 3.4-4 3.4c-1.1 0-4.4-12-5.5-12s-12.1 23-12.1 23l2.2 10v-9s8.8-17 9.9-17 3.3 11 4.4 11c.5 0 8.3-7.1 8.3-7.1l-3.2-2.3zM95.8 115.5a16 16 0 002.7 2.5c.4 0 1.3-2.3 2.1-5 2.6-1.7 2.3-1.5 4.7-3.5 3.1 6.5 8.6 19.5 8.6 19.5l-1.9 10v-9s-7.7-17-8.7-17c-1 0-2.9 11-3.9 11-.5 0-7.3-7.2-7.3-7.2z"/></g><path d="M70 107.1s-9 12.3-10 12.3-4-13.4-5-13.4-11 25.8-11 25.8l2 11.2v-10.1s8-19.1 9-19.1 3 12.3 4 12.3 15-16.8 15-16.8 0-3.3-4-2.2z"/><path d="M60 122.4c-1 0-4-12.4-5-12.4s-10 21.8-10 21.8l1 11.2v-10.1s8-19.1 9-19.1 3 12.3 4 12.3 15-16.8 15-16.8c0-.9-.5-1.8-1.3-2.2-.6-.3-11.7 15.3-12.7 15.3z" fill="#010101" opacity=".1"/><path d="M96 107.2s9 12.3 10 12.3 4-13.5 5-13.5 11 25.8 11 25.8l-2 11.2v-10.1s-8-19.1-9-19.1-3 12.3-4 12.3-15-16.8-15-16.8 0-3.2 4-2.1z"/></symbol><symbol id="bottom_06"><path d="M61 114.7a63.3 63.3 0 0026.6 16c-7 2.5-8 6.5-9.6 12.3 0 0 15.4-3.3 17-7.7 0 0 6 6.8 18 5.8-2.2-5.8-9-12.2-18-13.5-2.7 0-4.2-6.8 3-12.6-22 8.7-37-.3-37-.3z" fill="currentColor"/><path d="M87.6 130.7c-6.6 2.1-8.3 6.7-9.6 12.3 0 0 15.4-3.3 17-7.7 0 0 6 6.8 18 5.8-2.2-5.8-9-12.2-18-13.5 0 .4-.6 1-.6 2.2-1.6-.3-4.3.1-6.8 1z"/><path d="M91 128.5s14 4.8 22 12.6c-2.2-5.8-9-12.2-18-13.5-2.7 0-4.2-6.8 3-12.6a52 52 0 01-8.5 2.6c-2.5 8 1.5 10.9 1.5 10.9z" fill="#010101" opacity=".1"/></symbol><symbol id="bottom_07"><path d="M85.2 120.5c-.6 5.3 0 10.6 1.8 15.5 3 8 2 6 2 6" fill="none" stroke="#3f2904" stroke-width="2" stroke-linecap="round" stroke-linejoin="round"/><path d="M88 138s-6.4-19.1 12.8-19.6S129 99 129 99a34.4 34.4 0 01-10 29c-7 8-23-4-31 10zM84.7 130.4s-3.3-8.8-17.9-10-29.2 1.2-32.5-14.4c-1 8.2 1.4 16.5 6.8 22.8 9 10.8 31.4 3.6 31.4 3.6s9-3.6 14.6 3.6l-2.4-5.6z"/><g opacity=".25" fill="#010101"><path d="M88 138c-1-17 36-8 41-39a34.4 34.4 0 01-10 29c-7 8-23-4-31 10zM34.2 106S33 120 41 128.8c9 10.2 31.4 3.6 31.4 3.6 1.4-2.4 15.6-.3 14.6 3.6 0-13.7-48-3.9-52.8-30z"/></g></symbol><symbol id="bottom_08"><path fill="#fd9727" d="M101.62 127.8c.63-6.9-.75-8.88-.75-8.88s-1.62-10.24-6.44-12.83c-3.13-1.78-5.67-1.83-7.93-1.11-2.13.02-4.18.67-6.02 1.87-.11.08-.33.14-.45.22a34.1 34.1 0 01-13.18-2.97 15.6 15.6 0 00-9.95-1.16c-4.7.17-10.04 2.77-11.13 12.84-1.84 16.53 6.55 24.13 6.55 24.13 3.75 4.02 10.66 6.88 16.22 5.33 2.43.03 4.73-.88 6.62-2.37 0 0 4.13-6.07 10.02-7.76l.31-.04c2.71.18 5.48.06 8.11-.48 4.51-.21 7.52-1.7 8.02-6.8z"/><path d="M69.43 143.67a9.66 9.66 0 01-3.8 1.97c.92-.04 1.85-.18 2.71-.43 2.44.02 4.73-.89 6.62-2.38 0 0 4.04-6.08 10.02-7.75-.92.03-1.86.17-2.81.4-7.34.12-12.74 8.2-12.74 8.2zm32.19-15.88c.63-6.9-.75-8.87-.75-8.87s-1.62-10.25-6.44-12.84c-3.14-1.77-5.67-1.82-7.93-1.1-.92.03-1.86.17-2.72.42 1.81.12 3.55.64 5.12 1.52 4.82 2.6 6.44 12.84 6.44 12.84s1.37 1.97.75 8.87c-.4 3.99-2.33 5.68-5.32 6.46.92-.03 1.86-.17 2.82-.4 4.52-.32 7.53-1.81 8.03-6.9zm-34.87-23.7a15.6 15.6 0 00-9.95-1.17c-.92.04-1.86.17-2.82.4 2.45-.06 5 .5 7.14 1.59 3.05 1.66 12.3 3.92 16 2.55 1.1.1 2.25-.1 3.26-.63-.12.08-.33.14-.45.22a34.1 34.1 0 01-13.18-2.96z" opacity=".8"/><circle fill="#33221f" transform="rotate(10.13)" r="5.7" cy="105.12" cx="100.63"/><path fill="#543933" d="M113.02 114.08l-28.18 3.66a5.7 5.7 0 011.08 4.45 5.7 5.7 0 01-.46 1.4l28.34-3.68c.41-.03.7-.48.67-.9l-.56-4.26c-.03-.4-.48-.7-.9-.67z"/><path d="M68.41 115.25l2.59 15.1-3.56.58-.3-1.78c-.93.13-1.92-.55-2.06-1.49l.02-.1c-.3-1.78-1.54-7.9-1.54-7.9.12-.68.74-1.28 1.38-1.47l-.18-2.37z"/><path fill="#fd9727" d="M118.97 110.88l6.87-.9a4.98 4.98 0 015.54 4.24l.12 1.03a4.98 4.98 0 01-4.24 5.54l-6.87.91a4.98 4.98 0 01-5.54-4.24l-.12-1.04a4.98 4.98 0 014.24-5.54z"/><path opacity=".2" d="M118.97 110.88l6.87-.9a4.98 4.98 0 015.54 4.24l.12 1.03a4.98 4.98 0 01-4.24 5.54l-6.87.91a4.98 4.98 0 01-5.54-4.24l-.12-1.04a4.98 4.98 0 014.24-5.54z"/><path fill="#543933" d="M116.62 110.97s-.59-1.83.96-1.96c1.55-.13 1.33 1.66 1.33 1.66zm3.59 10.6s.49 1.81-.96 1.96c-1.45.15-1.33-1.66-1.33-1.66zm4.13-.38s.49 1.81-.96 1.96c-1.45.15-1.33-1.66-1.33-1.66zm3.54-.49s.5 1.82-.96 1.96c-1.45.15-1.33-1.66-1.33-1.66zm-7.11-10.2s-.59-1.84.96-1.97c1.55-.13 1.33 1.66 1.33 1.66zm4.13-.39s-.59-1.83.96-1.96c1.55-.13 1.33 1.66 1.33 1.66z"/><path fill="#fd9727" d="M118.09 110.72l6.86-.9a4.98 4.98 0 015.54 4.24l.12 1.04a4.98 4.98 0 01-4.24 5.54l-6.87.9a4.98 4.98 0 01-5.54-4.24l-.12-1.04a5.07 5.07 0 014.25-5.54z"/><path d="M117.51 113.36l8.53-1.11c.31-.05.57.2.62.51.05.32-.2.58-.52.62l-8.53 1.12c-.3.04-.57-.2-.61-.52-.05-.31.2-.57.51-.62zm1.07 4.26l8.53-1.12c.31-.04.57.2.62.52.04.31-.2.57-.52.62l-8.53 1.11c-.31.05-.57-.2-.62-.51-.06-.22.2-.58.52-.62z"/></symbol><symbol id="bottom_09"><path d="M73.7 124.8l-.1-1 .1-6.3-3.8-.5.5 4c-3-.2-5.9.5-8.5 2-3 2-5 5-3 8s6 3 11 0a7.2 7.2 0 003.8-6.2z" fill="currentColor"/><path d="M76.8 122s0-2.1-3.2-2.5v4.3l.1 1c-.1 2.6-1.5 5-3.8 6.2-5 3-9 3-11 0s0-6 3-8c2.6-1.5 5.5-2.2 8.5-2l-.2-1.3c-1.8.3-3.6.8-5.3 1.3-12 4-13 16-12 17s3 2 10 2c4.2-.1 8-2.3 10-6l1 5s2 2 3 0-.1-17-.1-17z"/><path d="M87.2 124.8l.1-1-.1-6.3 3.8-.5-.5 4c3-.2 5.9.5 8.5 2 3 2 5 5 3 8s-6 3-11 0a7 7 0 01-3.8-6.2z" fill="currentColor"/><path d="M84 122s0-2.1 3.2-2.5v4.3l-.1 1c.1 2.6 1.5 5 3.8 6.2 5 3 9 3 11 0s0-6-3-8a14.9 14.9 0 00-8.5-2l.2-1.3c1.8.3 3.6.8 5.3 1.3 12 4 13 16 12 17s-3 2-10 2c-4.2-.1-8-2.3-10-6l-1 5s-2 2-3 0 .1-17 .1-17z"/></symbol><symbol id="bottom_10"><ellipse cx="80" cy="131.5" rx="32" ry="8.7" opacity=".3"/><ellipse cx="80" cy="130.3" rx="17" ry="4.1" opacity=".6"/></symbol><symbol id="bottom_11"><g fill="currentColor"><path d="M64.7 115.9s-2.8 10.7-11.2 12.9c-5 1.3-10.3.5-14.6-2.2 0 0-3.9-1.1-1.7 2.8s8.4 11.8 25.8 5.6 18-16.9 18-16.9-11.2 1.2-16.3-2.2z"/><path d="M58 112s-6.2 13.5-15.2 3.9c0 0-5.6-5.6-3.4 1.1s11.1 18.7 30.3.9c0 .1-7.8-2-11.7-5.9zM94.8 115.9s2.8 10.7 11.2 12.9c5 1.3 10.3.5 14.6-2.2 0 0 3.9-1.1 1.7 2.8s-8.4 11.8-25.9 5.6-18-16.9-18-16.9 11.3 1.2 16.4-2.2z"/><path d="M101.5 112s6.2 13.5 15.2 3.9c0 0 5.6-5.6 3.4 1.1s-11.2 18.7-30.3.9c-.1.1 7.8-2 11.7-5.9z"/></g><ellipse transform="rotate(-65 46 121.6)" cx="45.9" cy="121.6" rx="1.4" ry="1.8"/><ellipse transform="rotate(-2.5 51 122.3)" cx="51" cy="122.3" rx="1.8" ry="1.4"/><ellipse transform="rotate(-27.5 55.6 121)" cx="55.6" cy="121.1" rx="1.4" ry="1.1"/><ellipse transform="rotate(-47.8 58.4 118.6)" cx="58.4" cy="118.6" rx="1.4" ry="1.1"/><ellipse transform="rotate(-25 113.5 121.6)" cx="113.5" cy="121.6" rx="1.8" ry="1.4"/><ellipse transform="rotate(-87.5 108.5 122.3)" cx="108.5" cy="122.3" rx="1.4" ry="1.8"/><ellipse transform="rotate(-62.5 103.9 121.1)" cx="103.9" cy="121.1" rx="1.1" ry="1.4"/><ellipse transform="rotate(-42.2 101 118.6)" cx="101.1" cy="118.6" rx="1.1" ry="1.4"/><path d="M58 112s-6.2 13.5-15.2 3.9c0 0-5.6-5.6-3.4 1.1s11.1 18.7 30.3.9c0 .1-7.8-2-11.7-5.9z" fill="#010101" opacity=".3"/><g fill="#010101" opacity=".2"><path d="M101.5 112s6.2 13.5 15.2 3.9c0 0 5.6-5.6 3.4 1.1s-11.2 18.7-30.3.9c-.1.1 7.8-2 11.7-5.9zM64.7 115.9s-2.8 10.7-11.2 12.9c-5 1.3-10.3.5-14.6-2.2 0 0-3.9-1.1-1.7 2.8s8.4 11.8 25.8 5.6 18-16.9 18-16.9-11.2 1.2-16.3-2.2z"/><path d="M94.8 115.9s2.8 10.7 11.2 12.9c5 1.3 10.3.5 14.6-2.2 0 0 3.9-1.1 1.7 2.8s-8.4 11.8-25.9 5.6-18-16.9-18-16.9 11.3 1.2 16.4-2.2z"/></g><g fill="currentColor"><path d="M62.5 114.8s-1.7 14.6-7.3 14.6c0 0-2.2 0-3.9-2.8s-3.4-2.2-2.8.6S50.7 139.6 62 139s15.7-11.2 15.7-17.4v-3.2c-.1 0-9.6.3-15.2-3.6zM97 114.8s1.7 14.6 7.3 14.6c0 0 2.2 0 3.9-2.8s3.4-2.2 2.8.6-2.2 12.4-13.5 11.8-15.7-11.2-15.7-17.4v-3.2s9.6.3 15.2-3.6z"/></g><ellipse transform="rotate(-37.1 64.1 128.3)" cx="64.1" cy="128.3" rx="2.2" ry="1.7"/><ellipse transform="rotate(-9.5 58.5 131.1)" cx="58.5" cy="131.1" rx="2.2" ry="1.7"/><ellipse transform="rotate(-62.1 68 123.8)" cx="68" cy="123.8" rx="1.8" ry="1.3"/><ellipse transform="rotate(-82.4 69 119.3)" cx="69.1" cy="119.3" rx="1.8" ry="1.3"/><ellipse transform="rotate(-52.9 95.3 128.3)" cx="95.3" cy="128.3" rx="1.7" ry="2.2"/><ellipse transform="rotate(-80.5 101 131.1)" cx="100.9" cy="131.1" rx="1.7" ry="2.2"/><ellipse transform="rotate(-27.9 91.5 123.8)" cx="91.5" cy="123.8" rx="1.3" ry="1.8"/><ellipse transform="rotate(-7.6 90.4 119.3)" cx="90.4" cy="119.3" rx="1.3" ry="1.8"/></symbol><symbol id="bottom_12"><g fill="#ededed"><path d="M61 115.2l3.6 5.1s6.2 4 16.8 3.6c13.1-.7 17.5-3.6 17.5-3.6l2.9-7.3s-16 10.9-40.8 2.2z"/><path d="M67.9 131a6 6 0 002 1.2c6.1 2.6 21 2.5 24.2-1.2l2.2-9.6a60 60 0 01-29.9 0l1.5 9.6z"/><path d="M70.3 133.7c3.1 3.1 7.3 4.8 11.7 4.8 7.3 0 10.2-4.8 10.2-4.8v-1.1s-10.9 3.8-21.9-.5v1.6z"/></g><path d="M81.4 123.9l1.6-.1a37.6 37.6 0 0015.9-3.5l2.9-7.3s-7.1 4.9-19.2 5.5c2.4 1.1-1.2 5.4-1.2 5.4z" opacity=".05"/><path d="M70.3 133.7c3.1 3.1 7.3 4.8 11.7 4.8 7.3 0 10.2-4.8 10.2-4.8v-1.1s-10.9 3.8-21.9-.5v1.6z" opacity=".3"/><path d="M78.1 123.5c.3.3-6.4 3.9-10.9 3.7l.3 1s9.7-1 12.7-5l-2.1.3zm16.8 4.8c1.2.7-10.3 6.7-16 5.9l4-.1s9-.4 12-4.5v-1.3zm-.4-6.4s-13.4 10.3-25.6 9.8l1.6.6s10.9 1.6 25.8-10.4h-1.8z"/><g opacity=".15"><path d="M81 134c5.6.1 11.3-.9 13.1-3l2.2-9.6a86 86 0 01-14.3 1.8c.9 1.5.1 5.8-1 10.8z"/><path d="M82.1 123.2c10.2 0 13.7-1.5 13.7-1.5l-.6 1.5s-16.8 3.6-28.4-.7v-1.1s5.1 1.8 15.3 1.8z"/></g></symbol><symbol id="bottom_13"><path d="M88.8 117.9l.2 6.1c3.2 1.2 6.8 1.2 10 0l3.2-11.8s-7.7 4.6-13.4 5.7z" fill="#99671d"/><path d="M91 124.6S89.9 137 91 139s4.4 3 4.4 0 1.6-14.4 1.6-14.4l-3 .2c-1 0-2 0-3-.2z" fill="#f5f5f5"/><path d="M91 139c1.1 2 4.4 3 4.4 0s1.6-14.4 1.6-14.4l-3 .2s0 15.2-3 14.2z" opacity=".1"/><path d="M69.6 123.3s2.6 5.2 5.2 7.1L78 133v4.2c0 .4-9.8-2.8-8.4-13.9z" fill="#6d4716"/><path d="M68.9 123.3s5.2-1.3 8.4 2 3.2 7.8 1.3 7.8-1.9.6-9.7-9.8z" fill="#fff"/><path d="M44.2 108.4s4.5-7.8 18.2-.7S65 129.8 77.3 137c0 0-3.5 3.5-8-5.7-4.4-9-4.3-23.6-25.1-22.9z" fill="#99671d"/><path d="M77.3 137s-5.8 2.6-9.8-10.4S59 105.8 48 106.4c-1.6 0-3 .6-4.2 1.6-5.3 4.8-1.2 18.7 4.2 23.1 6.5 5.2 20.8 10.4 26.7 8.4s2.6-2.5 2.6-2.5z" fill="#444"/><path d="M78.2 118.2l-.9 7.1c-1.8-1.3-3.4-2.2-4.8-2.2l.6-5.9c1.7.5 3.4.8 5.1 1z" fill="currentColor"/><path d="M45.5 111h11c.3 0 .5.2.5.5s-.2.5-.5.5h-11c-.3 0-.5-.2-.5-.5s.2-.5.5-.5zM44.5 114h14c.3 0 .5.2.5.5s-.2.5-.5.5h-14c-.3 0-.5-.2-.5-.5s.2-.5.5-.5zM44.5 117h17c.3 0 .5.2.5.5s-.2.5-.5.5h-17c-.3 0-.5-.2-.5-.5s.2-.5.5-.5zM45.5 120h17c.3 0 .5.2.5.5s-.2.5-.5.5h-17c-.3 0-.5-.2-.5-.5s.2-.5.5-.5zM46.5 123h17c.3 0 .5.2.5.5s-.2.5-.5.5h-17c-.3 0-.5-.2-.5-.5s.2-.5.5-.5zM48.5 126h17c.3 0 .5.2.5.5s-.2.5-.5.5h-17c-.3 0-.5-.2-.5-.5s.2-.5.5-.5zM50.5 129h15c.3 0 .5.2.5.5s-.2.5-.5.5h-15c-.3 0-.5-.2-.5-.5s.2-.5.5-.5zM54.5 132h13c.3 0 .5.2.5.5s-.2.5-.5.5h-13c-.3 0-.5-.2-.5-.5s.2-.5.5-.5zM59.5 135h9c.3 0 .5.2.5.5s-.2.5-.5.5h-9c-.3 0-.5-.2-.5-.5s.2-.5.5-.5z"/><path d="M94.7 124.7c1.8-.2 2.5-.1 4.3-.7l3.2-11.8-4.3 2.4s-.7 10.2-3.2 10z" opacity=".1"/></symbol><symbol id="bottom_14"><path d="M97 122.5s-2.8 5.5-5.5 7.5c-1.2.8-2.3 1.8-3.4 2.7v4.4c0 .4 10.2-3 8.9-14.6z" fill="#6d4716"/><path d="M97.6 122.5s-5.4-1.4-8.9 2-3.4 8.2-1.4 8.2 2.2.7 10.3-10.2z" fill="#fff"/><path d="M123.5 106.8s-4.8-8.2-19.1-.7c-14.3 7.5-2.7 23.2-15.7 30.7 0 0 3.4 4.3 8.4-5.9 4.7-9.3 4.6-24.7 26.4-24.1z" fill="#99671d"/><path d="M88.8 136.8s6.1 2.7 10.2-10.9 8.9-21.8 20.4-21.1c1.6 0 3.2.6 4.4 1.7 5.6 5 1.3 19.6-4.4 24.2-6.8 5.4-21.8 10.9-27.9 8.9s-2.7-2.8-2.7-2.8z" fill="#444"/><path d="M87.8 117.2l1 7.4c1.9-1.4 3.6-2.3 5-2.3l-.6-6.2c-1.8.5-3.6.8-5.4 1.1z" fill="currentColor"/><path d="M122.2 110.6h-11.6c-.3 0-.5-.2-.5-.5v-.1c0-.3.2-.5.5-.5h11.6c.3 0 .5.2.5.5v.1c0 .3-.2.5-.5.5zM123.3 113.8h-14.7c-.3 0-.5-.2-.5-.5v-.1c0-.3.2-.5.5-.5h14.7c.3 0 .5.2.5.5v.1c0 .3-.3.5-.5.5zM123.3 116.9h-17.9c-.3 0-.5-.2-.5-.5v-.1c0-.3.2-.5.5-.5h17.9c.3 0 .5.2.5.5v.1c0 .3-.3.5-.5.5zM122.2 120.1h-17.9c-.3 0-.5-.2-.5-.5v-.1c0-.3.2-.5.5-.5h17.9c.3 0 .5.2.5.5v.1c0 .2-.2.5-.5.5zM121.1 123.2h-17.9c-.3 0-.5-.2-.5-.5v-.1c0-.3.2-.5.5-.5h17.9c.3 0 .5.2.5.5v.1c0 .3-.2.5-.5.5zM119.1 126.4h-17.9c-.3 0-.5-.2-.5-.5v-.1c0-.3.2-.5.5-.5h17.9c.3 0 .5.2.5.5v.1c0 .2-.3.5-.5.5zM117 129.5h-15.8c-.3 0-.5-.2-.5-.5s.2-.5.5-.5H117c.3 0 .5.2.5.5v.1c0 .2-.3.4-.5.4zM112.8 132.7H99.1c-.3 0-.5-.2-.5-.5v-.1c0-.3.2-.5.5-.5h13.7c.3 0 .5.2.5.5v.1c0 .2-.3.5-.5.5zM107.5 135.8H98c-.3 0-.5-.2-.5-.5v-.1c0-.3.2-.5.5-.5h9.5c.3 0 .5.2.5.5v.1c0 .3-.2.5-.5.5z"/><path d="M63 123.5s-2.8 5.5-5.5 7.5c-1.2.8-2.3 1.8-3.4 2.7v4.4c0 .4 10.2-3 8.9-14.6z" fill="#6d4716"/><path d="M60.3 113l-2.1 11.3c1.9-1.4 2.7-.3 4.1-.3l2.2-9.2c-2-.4-2.9-1.4-4.2-1.8z" fill="currentColor"/><path d="M63.6 123.5s-5.5-1.4-8.9 2c-3.4 3.4-3.4 8.2-1.4 8.2s2.2.7 10.3-10.2z" fill="#fff"/><path d="M89.5 107.8s-4.8-8.2-19.1-.7c-14.3 7.5-2.7 23.2-15.7 30.7 0 0 3.6 4 8.4-6 4.6-9.3 4.6-24.6 26.4-24z" fill="#99671d"/><path d="M54.8 137.8s6.1 2.7 10.2-10.9 8.9-21.8 20.4-21.1c1.6 0 3.2.6 4.4 1.7 5.6 5 1.3 19.6-4.4 24.2-6.8 5.4-21.8 10.9-28 8.9s-2.6-2.8-2.6-2.8z" fill="#444"/><path d="M88.2 111.6H76.6c-.3 0-.5-.2-.5-.5v-.1c0-.3.2-.5.5-.5h11.6c.3 0 .5.2.5.5v.1c0 .3-.2.5-.5.5zM89.3 114.8H74.5c-.3 0-.5-.2-.5-.5v-.1c0-.3.2-.5.5-.5h14.7c.3 0 .5.2.5.5v.1c.1.3-.2.5-.4.5zM89.3 117.9H71.4c-.3 0-.5-.2-.5-.5v-.1c0-.3.2-.5.5-.5h17.9c.3 0 .5.2.5.5v.1c0 .3-.3.5-.5.5zM88.2 121.1H70.3c-.3 0-.5-.2-.5-.5v-.1c0-.3.2-.5.5-.5h17.9c.3 0 .5.2.5.5v.1c0 .2-.2.5-.5.5zM87.1 124.2H69.3c-.3 0-.5-.2-.5-.5v-.1c0-.3.2-.5.5-.5h17.9c.3 0 .5.2.5.5v.1c-.1.3-.3.5-.6.5zM85.1 127.4H67.2c-.3 0-.5-.2-.5-.5v-.1c0-.3.2-.5.5-.5h17.9c.3 0 .5.2.5.5v.1c0 .2-.3.5-.5.5zM83 130.5H67.2c-.3 0-.5-.2-.5-.5s.2-.5.5-.5H83c.3 0 .5.2.5.5v.1c0 .2-.3.4-.5.4zM78.8 133.7H65.1c-.3 0-.5-.2-.5-.5v-.1c0-.3.2-.5.5-.5h13.7c.3 0 .5.2.5.5v.1c0 .2-.3.5-.5.5zM73.5 136.8H64c-.3 0-.5-.2-.5-.5v-.1c0-.3.2-.5.5-.5h9.5c.3 0 .5.2.5.5v.1c0 .3-.2.5-.5.5z"/></symbol><symbol id="bottom_15"><path d="M129.1 114.1c1.2-1.8-.9-2.8-3.2-2.3 0 0-14.6 2.6-30 4-13.2 5.7-27 6-35.7-1.6-12.6-3-22.4-7.5-25.7-5.8 0 0-6.6.9-5.3 5.3-.1 1.3.2 2.5.8 3.7 3.6 5.7 39.8 13.8 72.4 8 18.3-3.2 25.2-6.8 26.7-9.2.3-.6.3-1.4 0-2.1zM54 123.4zm45.8.3l2.5-.4a267.1 267.1 0 00-2.5.4z" fill="#fff"/><circle cx="63.8" cy="134.7" r="6.1" fill="#490b37"/><circle cx="61.1" cy="134.5" r="6.1"/><circle cx="111.3" cy="133.1" r="6.1" fill="#490b37"/><circle cx="61.1" cy="134.5" r="6.1" fill="#fff" opacity=".4"/><path d="M56.5 132l4.2.4c.7.1 1.2.7 1.2 1.4l-.1 1.5c-.1.7-.7 1.2-1.4 1.2l-4.2-.4c-.7-.1-1.2-.7-1.2-1.4l.1-1.5c.1-.7.7-1.2 1.4-1.2z" fill="#010101"/><circle cx="108.7" cy="133.7" r="6.1"/><circle cx="108.7" cy="133.7" r="6.1" fill="#fff" opacity=".4"/><path d="M103.5 132.7l4.1-.9c.7-.2 1.4.3 1.5 1l.3 1.5c.2.7-.3 1.4-1 1.5l-4.1.9c-.7.2-1.4-.3-1.5-1l-.3-1.5c-.2-.6.3-1.3 1-1.5z" fill="#010101"/><circle cx="99.3" cy="135.7" r="6.1" fill="#490b37"/><circle cx="96.6" cy="136.3" r="6.1" fill="#fff"/><circle cx="96.6" cy="136.3" r="3.4"/><path d="M120.3 125.5c-14.3 4.5-59.6 9.8-77.8-.9-1.8-1-4.4-2.9-4.4-2.9s32.9 10.8 72.9 1.8c11.3-2.9 18-5.5 18.4-9.2 3.1 2-2.5 9.1-9.1 11.2z" fill="#490b37"/><path d="M29.2 113.6c-.1 1.3.2 2.5.8 3.7 3.6 5.7 39.8 13.8 72.4 8 18.3-3.2 25.2-6.8 26.7-9.2.5-.8 0-2.6-.1-1.9-6 4.7-23.4 10-43.3 10.7-26.1 1-54.4-3.7-56.5-11.3z" opacity=".1"/><circle cx="51.7" cy="133.7" r="6.1" fill="#490b37"/><circle cx="49" cy="133.4" r="6.1" fill="#fff"/><circle cx="49" cy="133.4" r="3.4"/><path d="M34.5 108.4s-8.1 1.2-4.5 6.9c3.6 5.7 39.8 13.8 72.4 8 18.3-3.2 25.2-6.8 26.7-9.2 1.2-1.8-.8-2.8-3.2-2.3 0 0-14.6 2.6-30 4a42.9 42.9 0 01-35.6-1.6c-12.6-3-22.5-7.5-25.8-5.8z"/><ellipse cx="79" cy="121" rx="18" ry="2" fill="#010101" opacity=".15"/></symbol><symbol id="bottom_16"><g fill="#a34b1a"><path d="M79 119.2l-.4 11.2s1.1 2.6-9.7 2.6H46.2s-5.4-5.2-2.2-7.8 11.9-3.4 11.9-3.4l-2.6-6.6 25.7 4zM81.6 119.2L80 130.4s-1 2.6 9.8 2.6h22.7s5.4-5.2 2.2-7.8-14.9-3.4-14.9-3.4l.6-5.6-18.8 3z"/></g><path d="M59.8 118.4l-8.3-.9c-.3 0-.5-.3-.4-.6l.1-.5c0-.3.3-.5.6-.4l8.3.9c.3 0 .5.3.4.6l-.1.5c-.1.2-.3.4-.6.4zM60.6 120.9l-8.3-.9c-.3 0-.5-.3-.4-.6l.1-.5c0-.3.3-.5.6-.4l8.3.9c.3 0 .5.3.4.6l-.1.5c-.1.3-.4.5-.6.4zM94.9 117.3l8.3.5c.3 0 .5.3.5.5v.5c0 .3-.3.5-.5.5l-8.3-.5c-.3 0-.5-.3-.5-.5v-.5c0-.3.3-.6.5-.5zM93.9 119.6l8.3.5c.3 0 .5.3.5.5v.5c0 .3-.3.5-.5.5l-8.3-.5c-.3 0-.5-.3-.5-.5v-.5c0-.3.2-.5.5-.5z"/><g fill="#490b37"><circle cx="68.5" cy="135.9" r="3.9"/><circle cx="52.5" cy="135.9" r="3.9"/><circle cx="90.2" cy="135.9" r="3.9"/><circle cx="106.2" cy="135.9" r="3.9"/></g><g fill="#fff"><circle cx="70.2" cy="135.7" r="3.9"/><circle cx="54.2" cy="135.7" r="3.9"/><circle cx="88.5" cy="135.7" r="3.9"/><circle cx="104.5" cy="135.7" r="3.9"/></g><circle cx="70.2" cy="135.7" r="2.2"/><circle cx="54.2" cy="135.7" r="2.2"/><circle cx="88.5" cy="135.7" r="2.2"/><circle cx="104.5" cy="135.7" r="2.2"/></symbol><symbol id="bottom_17"><path d="M45 137h75s6 0 7-2.2 1 3.3-7 4.5-67 0-75 0-9-2.3 0-2.3z" fill="#444"/><path d="M34 138.3h75s6 0 7-2.2 1 3.3-7 4.5-67 0-75 0l-2.2-.1-1.5-2 3.7-.2z" fill="#919191"/><path d="M79.9 117.8l-10.6 17.6S68.2 138 79 138h22.7s5.4-5.2 2.2-7.8-11.9-3.4-11.9-3.4l8.6-13.8s-7.6 5.2-20.7 4.8z" fill="#49230f"/><path d="M63.6 115.2L52 135.4s-1 2.6 9.8 2.6h22.7s5.4-5.2 2.2-7.8-11.9-3.4-11.9-3.4l7.6-8.6c-.1 0-7.7.8-18.8-3z" fill="#a34b1a"/><path d="M74.4 119.7l8.1 1.9c.3.1.4.3.4.6l-.1.5c-.1.3-.3.4-.6.4l-8.1-1.9c-.3-.1-.4-.3-.4-.6l.1-.5c.1-.3.4-.4.6-.4zM72.9 122.8l8.1 1.9c.3.1.4.3.4.6l-.1.5c-.1.3-.3.4-.6.4l-8.1-1.9c-.3-.1-.4-.3-.4-.6l.1-.5c0-.3.3-.4.6-.4zM91.4 118.7l8.1 1.9c.3.1.4.3.4.6l-.1.5c-.1.3-.3.4-.6.4l-8.1-1.9c-.3-.1-.4-.3-.4-.6l.1-.5c.1-.3.3-.4.6-.4zM89.9 121.8l8.1 1.9c.3.1.4.3.4.6l-.1.5c-.1.3-.3.4-.6.4l-8.1-1.9c-.3-.1-.4-.3-.4-.6l.1-.5c0-.3.3-.4.6-.4z"/></symbol><symbol id="bottom_18"><path d="M64.5 122.5s2.7 5.5 5.5 7.5c1.2.8 2.3 1.8 3.4 2.7v4.4c0 .4-10.2-3-8.9-14.6z" fill="#6d4716"/><path d="M63.8 122.5s5.5-1.4 8.9 2 3.4 8.2 1.4 8.2-2.1.7-10.3-10.2z" fill="#fff"/><path d="M37.9 106.8s4.8-8.2 19.1-.7c14.3 7.5 2.7 23.2 15.7 30.7 0 0-3.7 3.65-8.36-5.93-4.59-9.42-4.54-24.67-26.44-24.07z" fill="#99671d"/><path d="M72.7 136.8s-6.1 2.7-10.2-10.9-8.9-21.8-20.5-21.1c-1.6 0-3.2.6-4.4 1.7-5.5 5-1.3 19.6 4.4 24.2 6.8 5.4 21.8 10.9 28 8.9s2.7-2.8 2.7-2.8z" fill="#444"/><path d="M73.7 117.2l-1 7.4c-1.9-1.4-3.6-2.3-5-2.3l.7-6.2c1.7.5 3.4.8 5.3 1.1z" fill="currentColor"/><path d="M39.3 109.6h11.6c.3 0 .5.2.5.5v.1c0 .3-.2.5-.5.5H39.3c-.3 0-.5-.2-.5-.5v-.1c0-.3.2-.5.5-.5zM38.2 112.7H53c.3 0 .5.2.5.5v.1c0 .3-.2.5-.5.5H38.2c-.3 0-.5-.2-.5-.5v-.1c0-.2.3-.5.5-.5zM38.2 115.9h17.9c.3 0 .5.2.5.5v.1c0 .3-.2.5-.5.5H38.2c-.3 0-.5-.2-.5-.5v-.1c0-.3.3-.5.5-.5zM39.3 119h17.9c.3 0 .5.2.5.5v.1c0 .3-.2.5-.5.5H39.3c-.3 0-.5-.2-.5-.5v-.1c0-.2.2-.5.5-.5zM40.3 122.2h17.9c.3 0 .5.2.5.5v.1c0 .3-.2.5-.5.5H40.3c-.3 0-.5-.2-.5-.5v-.1c0-.3.3-.5.5-.5zM42.4 125.3h17.9c.3 0 .5.2.5.5v.1c0 .3-.2.5-.5.5H42.4c-.3 0-.5-.2-.5-.5v-.1c0-.3.2-.5.5-.5zM44.5 128.5h15.8c.3 0 .5.2.5.5v.1c0 .3-.2.5-.5.5H44.5c-.3 0-.5-.2-.5-.5v-.1c0-.3.2-.5.5-.5zM48.7 131.6h13.7c.3 0 .5.2.5.5v.1c0 .3-.2.5-.5.5H48.7c-.3 0-.5-.2-.5-.5v-.1c0-.3.2-.5.5-.5zM54 134.8h9.5c.3 0 .5.2.5.5v.1c0 .3-.2.5-.5.5H54c-.3 0-.5-.2-.5-.5v-.1c0-.3.2-.5.5-.5z"/><circle cx="102.8" cy="123.9" r="15.5" fill="#fff"/><path d="M118.3 123.9c0 8.5-6.9 15.5-15.5 15.5-5 .1-9.8-2.4-12.6-6.5 23.3 5.6 23.3-18.7 19.1-23 5.5 2.3 9.1 7.9 9 14z" opacity=".15"/><path d="M111.2 122l-1.9 6.6c-.1.4-.4.6-.8.6l-6.8.2c-.4 0-.7-.2-.8-.6l-2.3-6.4c-.1-.4 0-.8.3-1l5.4-4.2c.3-.2.7-.2 1 0l5.6 3.9c.2.2.4.5.3.9zM108.8 109.6l-4.2 3.2c-.3.2-.7.2-1 0l-5.5-3.8c3.5-1.1 7.3-.9 10.7.6zM99.2 134.1l1.8 5.1c-2.2.1-9-2.8-10-5.2 0-.2.3-.2.6-.2l6.9-.2c.3 0 .6.2.7.5zM90.9 113.9l1.9 5.4c.1.3 0 .7-.3.9l-5.3 4.1c-.1-3.8 1.2-7.5 3.7-10.4zM110.8 137.2l1.4-4.7c.1-.3.4-.6.8-.6l3.2-.1c-1.4 2.2-3.2 4-5.4 5.4zM118 120.7l-1.7-1.1c-.3-.2-.4-.6-.3-.9l.6-1.9c.7 1.2 1.2 2.5 1.4 3.9zM100.8 129.45a.25.25 0 00-.23.16l-1.4 3.4a.25.25 0 10.46.19l1.4-3.4a.25.25 0 00-.24-.35zM93.57 119.85a.25.25 0 00-.06.48l3.4 1.3a.25.25 0 10.18-.46l-3.4-1.3a.25.25 0 00-.12-.02zM115.3 118.65a.25.25 0 00-.11.03l-3.3 1.7a.25.25 0 10.23.44l3.3-1.7a.25.25 0 00-.12-.47z"/><path d="M103.9 112.85a.25.25 0 00-.25.26l.2 3.7a.25.25 0 10.5-.02l-.2-3.7a.25.25 0 00-.24-.24zM109.5 128.85a.25.25 0 00-.18.43l2.6 2.6a.25.25 0 10.36-.36l-2.6-2.6a.25.25 0 00-.18-.07z"/></symbol><symbol id="bottom_19"><path d="M39 110l9 23s48-1 47-2c-.6-.6-2.8-7.3-4.6-13-22.4 5-36.3-8-36.3-8H39z" opacity=".3"/><path d="M95 131l26 9-26 2.4-17 1.6-30-11" opacity=".5"/><path d="M95 130.9V142l26-2z" opacity=".5"/><g fill="none" stroke="#000" stroke-miterlimit="10"><path d="M63.5 131.9c-.8-2.8 31.9-12.5 32.7-8.3.4 2.4-34.4 5-34.8 2.6s7.1-5.2 16.7-6.2l2.1-.2"/><path d="M63.5 137.9c-.8-2.1 32.1-10.7 32.8-7.4.3 1.9-7.2 3.4-16.8 4.5s-17.6.4-17.9-1.4c-.1-.6.5-1.2 1.7-1.8"/></g><path d="M48 133v18.2c.8.5 3.1.6 5.2.8H78v-8l-30-11z" opacity=".7"/><path d="M121 140v7.2a26 26 0 01-15 4.8H78v-8l43-4z"/><path d="M121 140v7.2a26 26 0 01-15 4.8H78v-8l43-4z" opacity=".1" fill="#fff"/></symbol><symbol id="bottom_20"><path d="M46.4 101.1s-1.3 1.9-1.1 5.9c.7 9.7-2.1 19.5 3.5 26.4 5.6 7 16.7 11.8 22.9 8.4s5.6-15.3-1.4-20.2a21.8 21.8 0 01-4.4-4.7 40 40 0 01-19.5-15.8z" fill="#99671d"/><path d="M46.4 101.1s-1.3 1.9-1.1 5.9c.7 9.7-2.1 19.5 3.5 26.4 12.2 12.9 22.9 8.4 22.9 8.4-10.1 1.1-21.6-35.8-21.6-35.8a30 30 0 01-3.7-4.9z" fill="#6d4716"/><path d="M54.8 115.4c-4 0-7.3-3.3-7.3-7.3.1-1.3.5-2.7 1.1-3.8.1-.2 7.1 8.1 10.8 9.5 0-.1-1.3 1.2-4.6 1.6z" fill="#fff"/><path d="M58.8 113.3c-.8.3-1.7.5-2.6.6a6 6 0 01-5.9-6.3l.2-1.8a24 24 0 008.3 7.5z" opacity=".2"/><path d="M94 124.5s-2.8 5.5-5.5 7.5c-1.2.8-2.3 1.8-3.4 2.7v4.4c0 .4 10.2-3 8.9-14.6z" fill="#6d4716"/><path d="M94.6 124.5s-5.4-1.4-8.9 2c-3.4 3.4-3.4 8.2-1.4 8.2s2.2.7 10.3-10.2z" fill="#fff"/><path d="M120.5 108.8s-4.8-8.2-19.1-.7c-14.3 7.5-2.7 23.2-15.7 30.7 0 0 3.7 3.6 8.4-5.9 4.6-9.3 4.6-24.7 26.4-24.1z" fill="#99671d"/><path d="M85.8 138.8s6.1 2.7 10.2-10.9 8.9-21.8 20.4-21.1c1.6 0 3.2.6 4.4 1.7 5.6 5 1.3 19.6-4.4 24.2-6.8 5.4-21.8 10.9-27.9 8.9s-2.7-2.8-2.7-2.8z" fill="#444"/><path d="M84.8 119.2l1 7.4c1.9-1.4 3.6-2.3 5-2.3l-.6-6.2c-1.8.5-3.6.8-5.4 1.1z" fill="currentColor"/><path d="M119.2 112.6h-11.6c-.3 0-.5-.2-.5-.5v-.1c0-.3.2-.5.5-.5h11.6c.3 0 .5.2.5.5v.1c0 .3-.2.5-.5.5zM120.3 115.8h-14.7c-.3 0-.5-.2-.5-.5v-.1c0-.3.2-.5.5-.5h14.7c.3 0 .5.2.5.5v.1c0 .3-.3.5-.5.5zM120.3 118.9h-17.9c-.3 0-.5-.2-.5-.5v-.1c0-.3.2-.5.5-.5h17.9c.3 0 .5.2.5.5v.1c0 .3-.3.5-.5.5zM119.2 122.1h-17.9c-.3 0-.5-.2-.5-.5v-.1c0-.3.2-.5.5-.5h17.9c.3 0 .5.2.5.5v.1c0 .2-.2.5-.5.5zM118.1 125.2h-17.9c-.3 0-.5-.2-.5-.5v-.1c0-.3.2-.5.5-.5h17.9c.3 0 .5.2.5.5v.1c0 .3-.2.5-.5.5zM116.1 128.4H98.2c-.3 0-.5-.2-.5-.5s.2-.5.5-.5h17.9c.3 0 .5.2.5.5 0 .2-.3.5-.5.5zM114 131.5H98.2c-.3 0-.5-.2-.5-.5s.2-.5.5-.5H114c.3 0 .5.2.5.5v.1c0 .2-.3.4-.5.4zM109.8 134.7H96.1c-.3 0-.5-.2-.5-.5v-.1c0-.3.2-.5.5-.5h13.7c.3 0 .5.2.5.5v.1c0 .2-.3.5-.5.5zM104.5 137.8H95c-.3 0-.5-.2-.5-.5v-.1c0-.3.2-.5.5-.5h9.5c.3 0 .5.2.5.5v.1c0 .3-.2.5-.5.5z"/></symbol><symbol id="bottom_21"><ellipse cx="36.9" cy="126.7" rx="15.4" ry="25.6" transform="rotate(-10.1)"/><path d="M59 118c.3 1.7-1.5 3.6-1.5 3.6s-2.4-1-2.8-3 1.6-3.6 1.6-3.6 2.4 1 2.7 3z" fill="#010101" opacity=".5"/><path d="M120.7 120.8c-2.6 13.5-11.2 23.1-19.2 21.6-7.6-1.4-12-12.2-10.4-24.6C94 116 107 113 115.6 96.3c4.8 4.5 7 14.1 5 24.5z"/><g fill="#010101" opacity=".4"><path d="M49.2 120.3c.8 4.2 4.7 16.4 10 18.5-5.2 1-11.1-7.1-13-18s.7-20.6 6-21.6c-4.6 2.3-3.8 16.9-3 21zM97 116.7c-.7 4-1.4 16.4 2.7 20.2-5-1-7.5-9.8-5.8-19.9l3.4-1.6-.3 1.3z"/></g><g fill="#fff" opacity=".2"><path d="M55.6 92.9a25.6 15.4 79.9 00-1.5.1 25.6 15.4 79.9 00-10.7 28 25.6 15.4 79.9 0019.7 22.5 25.6 15.4 79.9 0010.6-28 25.6 15.4 79.9 00-18-22.6zm-2.5 6.3c5 0 10.4 7.8 12.2 18.1 2 11-.7 20.6-6 21.5a4.9 4.9 0 01-.9 0c-5 0-10.4-7.7-12.2-18-2-11 .7-20.6 6-21.6a4.8 4.8 0 01.9 0zM115.6 96.3C107 113 94 116 91 117.8c-1.6 12.4 2.8 23.2 10.4 24.6 8 1.5 16.6-8.1 19.2-21.6 2-10.4-.3-20-5.1-24.5zm-4 7c1.7 4 2.1 9.8 1 16.2-2 10-7.2 17.4-12 17.4a4.3 4.3 0 01-1 0c-4.9-1-7.4-9.8-5.8-19.9.1-.3 11.2-4 17.8-13.6z"/></g></symbol><symbol id="side_01"><path d="M53.5 84.2a2.5 2.5 0 00-2.9-2.2l-16 2.4-2.3-8s0-2-1.7-.7l2.6 8.9-3.8.6-2.3-7.9s0-2-1.7-.7l2.6 8.9-2.2.3c.4 1.3.5 2.6.2 3.9l3.4-.3 2.4 8.4h.1c-.2.5.1 1 .5 1.1.4.2.8 0 1.1-.4h.1v-.2a1 1 0 00-.2-.9L31 89l3.6-.4 2.6 8.9h.1c-.2.4 0 1 .4 1.2l.5.2c.6 0 1-.5 1-1a1 1 0 00-.7-.9l-2.4-8.4L51.5 87c1.2-.1 2.2-1.4 2-2.8z" fill="#fff"/><path d="M51.3 87.1l-15.4 1.6-.5-1.6s18.8-2.3 18-2.9c.1 0 .6 2.1-2.1 2.9z" opacity=".2"/><path d="M8.8 87.5a8.5 8.5 0 019.5-7.3c4.7.5 8 4.7 7.5 9.3a8.5 8.5 0 01-9.5 7.3 8.4 8.4 0 01-7.5-9.3zM146.7 77.5c-.5 4-4.3 6.9-8.3 6.3a7.4 7.4 0 01-6-4.9c-.1-.4 4.6.1 4.6-1.9 0-1-1.7-1-3-.9l-2 .2.1-.8c.6-4 4.3-6.9 8.3-6.3s6.9 4.2 6.3 8.3z"/><g fill="#010101" opacity=".3"><path d="M25.8 89.4a8.5 8.5 0 01-9.5 7.3 9 9 0 01-5.7-3.1c2.2.8 7.7 1.6 11.1-1.8 2.5-2.4 2.6-6.8 2-9a8.6 8.6 0 012.1 6.6zM146.7 77.5c-.6 4-4.3 6.9-8.3 6.3a7.4 7.4 0 01-4.8-2.8c1.9.7 6.6 1.5 9.6-1.4 2.2-2.1 2.4-6 1.9-7.9a8 8 0 011.6 5.8z"/></g><path d="M137.1 76.5c-.2-.8-2.3-.5-2.3-.5l-6.4.5-1.5-5.7s0-1.4-1.2-.5l1.7 6.3-3.3.3-1.6-5.8s0-1.4-1.2-.5L123 77l-3.7.3.1 3.2 4.6-.6 2.1 8h.1c-.2.4 0 .9.3 1.1.4.2.8 0 1-.3h.1v-.2c.1-.3 0-.6-.2-.8l-2.1-8 3.1-.4 2.3 8.5h.1c-.2.4 0 .8.4 1 .4.2.8 0 1-.3h.1v-.2c.1-.3 0-.6-.2-.8l-2.3-8.5 5.5-.7c1.6 0 2-.8 1.8-1.8z" fill="#fff"/><g opacity=".2"><path d="M123.9 80l-4.6.5v-1.4l4-.4.2-.1zM128.3 79.4l-3.1.4-.3-1.4 3.1-.3zM134.4 78.7l-4.7.6-.4-1.4 7.5-.9c0 .1.8.9-2.4 1.7zM29.4 89.3l-3.4.3.1-1.5 2.6-.3.3.2zM30.3 87.9l3.5-.6.5 1.4-3.5.4z"/><circle cx="38" cy="98" r="1"/><circle cx="32.7" cy="98.2" r=".9"/></g></symbol><symbol id="side_02"><path d="M125.8 71.4s19.2 1.4 19.6 2.8c.1.4-18.2 9.7-17 9.1 0 0 2.4-5.8 2.1-7.1s-4.7-4.8-4.7-4.8z" fill="#5e5e5e"/><path d="M125.2 71.3s19.2 1.4 19.6 2.8c-5 1-14.6 2.4-14.6 2.4l-5-5.2z" fill="#e2e2e2"/><g fill="#603813"><path d="M130.6 79.2l-11.6 1v-4.7l10.8-.8s5 .4 5.2 1.2-2.7 3-4.4 3.3zM54.6 83.7l-36.5 2s-2.8.1-3-1.6c-.1-1.5.8-2.4 2.6-2.9L54 77.5a3.2 3.2 0 013.4 2.8 3 3 0 01-2.8 3.4z"/></g><path d="M54.6 83.7l-36.5 2c-1.8 0-2.8-.5-3-1.6 17-1.2 44.2-2.4 42.3-3.8 0 .1.5 2.7-2.8 3.4z" opacity=".2"/><path d="M38.8 80.4l-5.4-5.8-17.1.1 6.1 6.6zM39.4 83.2l-6.6 7.9-17.1 1.2 6.6-7.9z"/><g fill="#010101" opacity=".2"><path d="M23.8 76.7c.2-.2.5-.2.7 0l2.7 2.9c.2.2.2.5 0 .7-.2.2-.5.2-.7 0l-2.7-2.9a.5.5 0 010-.7zM20.8 76.7c.2-.2.5-.2.7 0l2.7 2.9c.2.2.2.5 0 .7-.2.2-.5.2-.7 0l-2.7-2.9a.5.5 0 010-.7zM26.8 76.7c.2-.2.5-.2.7 0l2.7 2.9c.2.2.2.5 0 .7-.2.2-.5.2-.7 0l-2.7-2.9a.5.5 0 010-.7zM29.8 76.7c.2-.2.5-.2.7 0l2.7 2.9c.2.2.2.5 0 .7-.2.2-.5.2-.7 0l-2.7-2.9a.5.5 0 010-.7zM32.8 76.7c.2-.2.5-.2.7 0l2.7 2.9c.2.2.2.5 0 .7-.2.2-.5.2-.7 0l-2.7-2.9a.5.5 0 010-.7zM26.2 85.7c.2.2.2.5 0 .7l-2.7 2.9c-.2.2-.5.2-.7 0a.5.5 0 010-.7l2.7-2.9c.2-.2.5-.2.7 0zM23.2 85.7c.2.2.2.5 0 .7l-2.7 2.9c-.2.2-.5.2-.7 0a.5.5 0 010-.7l2.7-2.9c.2-.2.5-.2.7 0zM29.2 85.7c.2.2.2.5 0 .7l-2.7 2.9c-.2.2-.5.2-.7 0a.5.5 0 010-.7l2.7-2.9c.2-.2.5-.2.7 0zM32.2 85.7c.2.2.2.5 0 .7l-2.7 2.9c-.2.2-.5.2-.7 0a.5.5 0 010-.7l2.7-2.9c.2-.2.5-.2.7 0zM35.2 85.7c.2.2.2.5 0 .7l-2.7 2.9c-.2.2-.5.2-.7 0a.5.5 0 010-.7l2.7-2.9c.2-.2.5-.2.7 0z"/></g></symbol><symbol id="side_03"><path d="M26.4 71l2.4 24-2.4 2v3.3s0 1.7 2.4 2.3c2.5.5 7.1 2 14.2 1.4 3.8-.3 7.5-1.3 11-2.9a3 3 0 001.8-2.5l-.9-3.6-2.4-2-2.4-23" fill="#fff"/><g fill="#fcbb00"><path d="M28.9 71.2l2.5 23.7-3.7 3s0 1.3 4.9 2c6.7 2.2 17.7-.1 20.9-1.9 2.5-.9.5-2 .5-2l-2.5-3L49 70.2l-20.1 1z"/><path d="M54.9 97.2c.1 1.7-5.9 4.4-13.4 4.8s-13.8-1.6-13.9-3.2 5.9-3.4 13.5-3.8 13.6.5 13.8 2.2z" opacity=".5"/></g><g fill="#ffd22d" fill-opacity=".5"><path d="M34.6 93c-.9.1-1.7-.5-1.9-1.4l-1.1-13c0-.9.8-1.6 1.7-1.6.9-.1 1.7.5 1.9 1.4l1 13c0 .9-.7 1.6-1.6 1.6zM40.5 93c-.9.1-1.7-.5-1.9-1.4l-1.1-13c0-.9.7-1.6 1.6-1.6.9-.1 1.7.5 1.9 1.4l1 13c.1.9-.6 1.6-1.5 1.6zM46.4 92c-.9.1-1.7-.5-1.9-1.4l-1.1-13c0-.9.7-1.6 1.6-1.6.9-.1 1.7.5 1.8 1.4l1.1 13c.1.9-.6 1.6-1.5 1.6z"/></g><path d="M29.7 72.9s-8.1 2.2-6.9-4.4c0 0-4.9-5.5 1.2-5.5 0 0 1.2-4.4 6.1 0 0 0 4.9-7.7 9.8 1.1 0 0 3.7-4.4 6.1 2.2 0 0 7.6 2.4 2 5.1S31.7 74 29.7 72.9z" fill="#fff"/><path d="M30.9 72.4S24 74.2 25.1 69c0 0-4.1-4.3 1-4.3 0 0 1-3.5 5.2 0 0 0 4.1-6.1 8.3.9 0 0 3.1-3.5 5.2 1.7 0 0 6.4 2 1.7 4s-14 2-15.6 1.1z" fill="#ffefae" fill-opacity=".5"/><g opacity=".1"><path d="M41.2 64.4S43 64 43 67s-3.1 3.9-3.1 3.9.8-.9 1.9.1-1.5 1.7-1.5 1.7 6.4-.3 8.7-2.5-3.6-3.2-3.6-3.2 0-3.1-4.2-2.6zM31.1 66c.7 1.9 2.7 3 4.7 2.6 0 0-3.5 2.4-4.7-2.6zM27.4 67.1c1.2.7 2.7.5 3.8-.4 0 0-.6 2.6-3.8.4zM37.9 68.5s2.4-.8 1.7-2.9c-.1.1 2.2 1.9-1.7 2.9z"/></g></symbol><symbol id="side_04"><path d="M117.1 68.1c1.9 1.6 2.9 12 1 20.9 0 0 4.7 3.2 6.9 3.7l3 .9c5.6 1.5 16 3.4 16.3-7.8l-1-5.8c-.5-2.9.8-5.2-2-10.5s-8.5-5.5-12.6-3.9c0 0-.6.6-2.3-1.2s-7.3-2.1-9.3 3.7zM26.3 68.7a8.6 8.6 0 00-1.3 7.6l.3 2s-10.1-1.8-9 6.2l.3 2.1c1 6.6 2 9.6 6.4 11.6 4.8 2.2 5-2.4 8.1-1.2s19.7 10.7 22.4-4.5l-.2-6.5c-.1-3.3 1.7-5.6-.5-11.9s-8.5-7.4-13.3-6.3c0 0-.8.5-2.3-1.7s-7.8-3.4-10.9 2.6z"/><g fill="#010101"><path d="M117.1 68.1c1.9 1.6 2.9 12 1 20.9 0 0 4.7 3.2 6.9 3.7l3 .9c-2.6-.1-3.5-5.1-3-5.3 0-7.6-1.4-12.5-1.3-17.8a5.2 5.2 0 015-4.9s-.6.6-2.3-1.2-7.3-2.1-9.3 3.7z" opacity=".16"/><g opacity=".3"><path d="M118.5 89.3s5.1 3 6.6 3.3c2.5.6 15.1 5.5 18.5-2.6.4-1.4.7-2.9.9-4.3-.6 2.1-4.6 4.3-8.9 4.9-5.8 1-10.4-2.7-13.9-1.6l-2.8-1.2-.4 1.5zM19 95.1c1.2 1.3 2.5 2.3 4 3.1 4.8 2.2 5-2.4 8.1-1.2 2.7 1 15.7 8.5 20.8.1a25 25 0 001.6-4.6c-1 2.2-5.8 4-10.5 4-6.6.1-11-4.6-15-4-6.6 3.5-9 2.6-9 2.6z"/></g><g opacity=".1"><path d="M125.1 92.7c-3-.3 18.9 7 19.4-6.9l-1-5.8c-.5-2.9.8-5.2-2-10.5s-8.5-5.5-12.6-3.9c13.1-.8 10.7 27.2-3.8 27.1zM31 97c-3.2-.8 19.7 10.7 22.4-4.5l-.1-6.5c-.1-3.3 1.7-5.6-.5-11.9s-8.5-7.4-13.3-6.3C54.1 69.1 47 99.6 31 97z"/></g></g></symbol><symbol id="side_05"><path d="M124.6 80.7s20 .3 18.6-12.5c0 0 9.6 11.1 1 20.9s-27.3 6.1-27.3 6.1l7.7-14.5z" fill="#fff"/><path d="M143.2 68.2c.3 13.7-20.2 12.1-20.2 12.1l-1.2 5.7-4.9 9.2s18.7 3.6 27.3-6.1-1-20.9-1-20.9z" fill="#fff"/><path d="M143.2 68.2c8.4 22.4-21.7 19.4-21.7 19.4l.3-1.7-4.9 9.2s18.7 3.6 27.3-6.1-1-20.8-1-20.8z" opacity=".1"/><path d="M118.5 75s7.1 1 7.3 11.2-11 11.8-11 11.8a39.6 39.6 0 003.7-23zM38.2 78.1l9.6-4s8.6.9 9.5 11.4-5.5 12.9-5.5 12.9l-10.3.2s-4.5-3.1-5.2-11.3 1.9-9.2 1.9-9.2z"/><g fill="#fff"><path d="M38.2 78.1l9.6-4c5 1.5 9 4.3 9.5 11.4-.8-1.6-2.3-2.3-4.5-2.2L48 84.4l-5.7 1.4-5.9 1.4c.4-5-.1-7.3 1.8-9.1z" opacity=".1"/><ellipse transform="rotate(-4.6 42 88.2)" cx="42" cy="88.2" rx="4.9" ry="9.1" opacity=".16"/><path d="M41.7 80.6s-15.6 2.1-20-2.9-.2-13.9-.2-13.9-11.1 6.4-10 19 25 13.8 30.3 12.4c0 0 3.6-1.8 3.3-7.5 0-5.8-3.4-7.1-3.4-7.1z"/><path d="M41.7 80.6s-15.6 2.1-20-2.9-.2-13.9-.2-13.9-11.1 6.4-10 19 25 13.8 30.3 12.4c0 0 3.6-1.8 3.3-7.5 0-5.8-3.4-7.1-3.4-7.1z" opacity=".3"/></g><path d="M45 87.7c-15.9 3.8-39.8-2.6-23.5-23.8 0 0-11.1 6.4-10 19s25 13.8 30.3 12.4c0 0 3.6-1.8 3.2-7.6z" opacity=".3"/></symbol><symbol id="side_06"><path d="M42 66.5L26 51c-.9-.2-4 9-4 19s4 15 6 17l7 7c3 3 6 4 10 6 3 1 4 2 4-2s-4-5-5-18l1-9-3-4.5zM114 61.1c3.6-4.7 19.7-11 19.7-11s2.2 12.2-4.8 28.8c-2.5 6-6 14.5-9 16.8-3 2.3-3.8.3-3.8.3-1.1 0 7.9-19-2.1-34.9z" fill="currentColor"/><g fill="#010101" opacity=".1"><path d="M26 52.2C41 69 43.6 78.7 43.6 78.7l1.4-8.6S29 52 26 52.2zM121.6 55.8l8.6-1.7c1 6-1.6 15.2-3.1 20-2.7 8.3-4.9 12.9-7.1 17.9-2.2 5-3.9 4-3.9 4 1 1.8 4.7.8 8.5-7.4 2.4-5.4 4.8-10.4 6.4-15.8 0 0 3.9-10.8 2.7-22.7-4.1 1.7-8.2 3.5-12.1 5.7zM25.993 84.453c22.06 18.633 21.303 13.687 21.426 9.079 2.007 2.462 2 7.15.687 7.201-1.805.147-9.904-3.78-11.796-5.653-3.784-3.747-7.22-6.746-10.317-10.627z"/></g><path d="M44 74c-1-2-15-12-15-12s-2 16 4 22c2.3 2.3 4.8 4.5 7.4 6.5L44 92s3-1 0-5c-2.1-2.9-.9-5.8.1-7.6l.8-1.5C45 77 45 76 44 74zM118.5 70.6c.5-1.7 9.2-8 9.2-8s-.8 10.8-3.3 16.1c-1 2.1-2.3 4.4-4 6.2-.5.6-2.3 1.5-2.3 1.5l.5-3.7a38.8 38.8 0 00-.1-8.9l-.3-2.2c0-.3 0-.5.3-1z"/><g fill="#010101"><g opacity=".2"><path d="M44 74c2 1-15-12-15-12-.7-.1-.8 17.9 4 22l7.4 6.5L44 92c-13-7.2-19.2-27.2 0-18zM118.51 70.653c.328-1.634 9.253-8.085 9.253-8.085-.548 4.473-1.04 11.87-3.504 16.515-2.19 4.215-3.012 4.903-3.778 5.763-.548.602-1.971 1.29-1.971 1.29 7.117-6.193 10.512-23.396 0-15.483z"/></g><g opacity=".4"><path d="M39 75c-2 0-4 3-2 6s6 3 6 3-1-.9.5-3.5S41 75 39 75zM121.248 71.513c1.094 0 2.19 2.581 1.094 5.162s-3.503 2.58-3.503 2.58l-.055-3.01c-.11-2.581 1.368-4.732 2.463-4.732z"/></g></g></symbol><symbol id="side_07"><path d="M137.1 64.3s7.2 6.3 6.3 15.2c0 0-1.8 9.2-2.4 10.5s-3.1 8.7-9.1 9.9l-4.1.5c-.8 1.3-1.8 2.4-3 3.3-2.4 2-6.6 2.5-7.8 1.9s-.6 1.3-1.9.7l-4.6-1.6c5-5.8 7.9-13.1 8.7-22.8l1.2-1.2 5.7-7.5c2.1-2.9 6.8-4.7 7.7-5.1 0 0-5.1 6.2-3.5 7.7s4.4.4 4.4.4 4.1-.3 2.4-11.9zM19.9 64.3s-7.2 6.3-6.3 15.2c0 0 1.8 9.2 2.4 10.5s3.1 8.7 9.1 9.9l4.1.5c.8 1.3 1.8 2.4 3 3.3 2.5 2 6.5 2.5 7.8 1.9s.6 1.3 1.9.7 7-1.6 8.1-4.4c.6-1.7.6-3.7-.1-5.4 0 0-4.1-.5-5.7 1 0 0-.8-3.5-4.3-2.7 0 0 3.2-8.4-3.2-14.1L31 73.2c-2.1-2.9-6.8-4.7-7.7-5.1 0 0 5.1 6.2 3.5 7.7s-4.5.4-4.5.4-4.1-.3-2.4-11.9z"/><g fill="#010101" opacity=".1"><path d="M137.1 64.3s7.2 6.3 6.3 15.2c0 0-1.8 9.2-2.4 10.5s-3.1 8.7-9.1 9.9l-4.1.5c-1.8.6-3.9-.1-6-1.2 3.5 1 20.7-14.8 12.9-22.8 0 0 4.1-.5 2.4-12.1zM29 77.9s2.6-1.4 4-1.1c0 0-2.9-5.6-5.9-6.4 0 0 3.3 4.7 1.9 7.5z"/></g><g opacity=".2"><g fill="#010101"><path d="M127.8 100.4c-.8 1.3-1.8 2.4-3 3.3-2.4 2-6.6 2.5-7.8 1.9s-.6 1.3-1.9.7l-4.6-1.6 1.7-2.4s1.9-.3 2-1c2.1 3.3 7.1-1.8 5.6-3.5 0 0 3.9 3.1 8 2.6zM29.2 100.4c.8 1.3 1.8 2.4 3 3.3 2.5 2 6.5 2.5 7.8 1.9s.6 1.3 1.9.7 7-1.6 8.1-4.4c.6-1.7.6-3.7-.1-5.4-1.4 6.4-6.9 6.7-7.2 4.8-2.1 3.3-7.1-1.8-5.6-3.5.1 0-3.8 3.1-7.9 2.6z"/></g><g fill="#fff"><path d="M129.7 77.3s-3.5-.8-5.4-.1c0 0 3.5-6.5 7.4-8.1 0 0-4 5.7-2 8.2zM19.9 64.3s-7.2 6.3-6.3 15.2c0 0 1.8 9.2 2.4 10.5s3.1 8.7 9.1 9.9l4.1.5c1.8.6 3.9-.1 6-1.2-3.5 1-20.7-14.8-13-22.8.1 0-4-.5-2.3-12.1z"/></g></g></symbol><symbol id="side_08"><path d="M34.5 116.9L32.9 104l2-.4 1.5 13s-.4 2-1.9.3z" fill="#303030"/><path d="M46.8 71.7c1.6 2.3 2 5.1 1.2 7.7l-.4 2 4.3.1c3 .9 3.2 8 .6 10.2-1.1.6-2.1 1.4-3 2.2a25 25 0 01-8.4 6.3l-3.3 1.4c-6 2.4-17.4 5.9-19.3-6.5l.3-6.6c.2-3.3-1.5-5.7.8-12s8.8-7.3 13.6-6c0 0 .8.5 2.4-1.7s8.3-3.3 11.2 2.9z" fill="#d8d8d8"/><path d="M39.1 101.1c-5.6 2.4-18.4 7.2-20.4-6.1l.4-6.7c.2-3.3-1.5-5.7.8-12s2.4-6.4 13.6-6c10.3.3 5.3 16.3 7.2 27.1 0 1.1-.7 3.3-1.6 3.7z" fill="#fff"/><path d="M41.2 100.2c3.2-.7-20.2 10.3-22.5-5.2l.3-6.6c.2-3.3-1.5-5.7.8-12s8.8-7.3 13.6-6c-14.8.9-8.4 31.9 7.8 29.8z" opacity=".05"/><path d="M52.6 91.9s-8.3 7.2-11.4 8.4c-2.7 1-16.2 8.1-21-.5-.6-1.5-1.2-3.1-1.5-4.7.9 2.2 5.7 4.2 10.6 4.3 6.6.3 11.2-4.3 15.3-3.6 2.5-1.6 5.2-2.9 8-3.9z" opacity=".16"/><path d="M33 54.7l8.6.3-5.3 6.6 2.1 8.1-7.8-3.2-7 4.8.5-8.4-6.6-5.2 8.2-2.2 3-8z"/><path d="M30.3 54.3l1.3 2c.2.3.6.5 1 .5l2.2.1c.6 0 1 .6 1 1.2l-.2.7-1.5 2c-.3.2-.3.5-.3 1l.6 2.3c.1.5-.1 1.1-.7 1.3h-.8l-2.1-1a.9.9 0 00-1 .2l-2 1.3c-.5.3-1.2.2-1.6-.2-.2-.2-.2-.5-.2-.8l.2-2.3c0-.4-.2-.7-.5-1L23.8 60c-.4-.3-.5-1-.3-1.6l.6-.4 2.3-.6c.3-.1.6-.3.8-.7l.8-2.2c.2-.6.9-.9 1.5-.7.4 0 .7.1.8.4z" opacity=".5" fill="#fff"/></symbol><symbol id="side_09"><path d="M52.5 103.1s.9.1 1.9-1.6.5-5.3-2.1-6.5-3.3-3.9-4.8-6.7-7.4-7.8-19-9.7-12.9-6.5-13.7-7.5-2.5 7.9 1.4 15.4S26.7 100 36 97.2s12.4 2 12.4 2 2.3 3.7 4.1 3.9zM119.5 82c3.2-1 6.5-1.6 9.9-1.8 12-1 13.8-5.4 14.7-6.3s1.9 8-2.6 15.1-11.9 12.5-21.2 9c-1.4-.5-2.8-.9-4.3-1.1a35.2 35.2 0 003.5-14.9z"/><g fill="#010101" opacity=".14"><path d="M52.5 103.1s.9.1 1.9-1.6.5-5.3-2.1-6.5-3.3-3.9-4.8-6.7-7.4-7.8-19-9.7-13.5-9.3-13.7-7.5c1.3 16.3 29.6 11.5 37.7 32zM119.2 82.4c3.6-1.2 7.3-1.9 11-2.2 12-1 14.7-8.1 14.7-6.3-1.8 10.5-14.9 11.1-26.4 16 1.2-4.3 1.2-5.2.7-7.5z"/></g></symbol><symbol id="side_10"><path d="M63.3 76.1s.8 14.1-17.6 21.1-27.8-5.5-27.8-5.5-.5-15 18.4-21 27 5.4 27 5.4z" fill="#dd8313"/><path d="M63.3 76.1s.8 14.1-17.6 21.1-27.8-5.5-27.8-5.5c20.9 2.1 34.4-3.8 45.4-15.6z" opacity=".5" fill="#754c24"/><path d="M46.8 77.6h-.2l-.4.1c-.2.1-.3.4-.3.6l1.3 3.7-5 1.8-1.9-5.1c-.1-.3-.3-.4-.6-.3l-.4.1c-.2.1-.4.4-.3.7l2 5.1-5.8 2.1-1.1-3.1c-.1-.3-.3-.4-.6-.3l-.4.1c-.3.1-.4.4-.3.6l1.2 3.2-4.6 1.7c-.3.1-.4.3-.3.6l.1.4c.1.2.4.3.6.3l4.6-1.7 1.4 3.7c.1.3.3.4.6.3l.4-.1c.3-.1.4-.3.3-.6l-1.4-3.8 5.7-2.1 2 5.2c.1.3.3.4.6.3l.3-.2c.3-.1.4-.3.3-.6l-2-5.2 5.1-1.9 1.2 3.3c.1.3.3.4.6.3l.4-.1c.3-.1.4-.3.3-.6L49 82.8l5-1.9c.3-.1.4-.3.3-.6l-.1-.4c-.1-.3-.3-.4-.6-.3l-5 1.9-1.4-3.6c0-.2-.2-.3-.4-.3z"/></symbol><symbol id="side_11"><path d="M14.2 80.3l6.1-.9c1.7-.2 3.3.9 3.5 2.6.2 1.7-.9 3.3-2.6 3.5l-6.1.9c-1.7.2-3.3-.9-3.5-2.6-.2-1.7.9-3.2 2.6-3.5z" fill="currentColor"/><g fill="#e0e0e0"><path d="M36.3 92.3L36 99c-.3-.3 2.7 2.3 5 0l-.4-7.8-4.3 1.1zM129.6 97.1l-.8 6.7c-.3-.3 2.5 2.5 5 .3l.1-6.1a6 6 0 01-4.3-.9zM34 42.2s.9-4.3 3.5-1.7 5.8 16.1 2.4 23.9c-.8 4.7-.6 5.7-.6 5.7-1.1.5-2.4.5-3.5 0L34 42.2zM129.5 50.8l-.8 15.4s-.2 4.6 4.4 4.9 5.5-2.8 5.6-4.3l.8-15.4s-1.2.3-1.4 4.2-1.2 7.6-2 7.6h-.6c-.5 0-.9-.2-.8-2.4.2-3.1.5-9.2-.3-9.3s-1.3 9.2-1.3 9.2-.1 2.3-1.7 2.2-1.1-8.5-1.1-8.5.4-4-.8-3.6zM130.9 77l-2.4 7.8 2 .2 2.2-7.3z"/></g><g fill="#fff"><path d="M37.5 40.4S44 50 39.9 64.3c.5 5.7-.3-22.2-2.4-23.9z" opacity=".1"/><g opacity=".3"><path d="M34.6 42c.3 0 .5.2.5.5l1.7 26.9c0 .3-.2.5-.5.5s-.5-.2-.5-.5l-1.7-26.9c0-.2.2-.4.5-.5zM139.5 51.3s-.9 3-1.4 10.7c0 0 0 8.4-2.6 8.7 0 0 2.8.4 3.3-8.8l.7-10.6zM134.4 60.2l.5-8.5s-.4 8.5-.1 10-.5 1.5-.5 1.5l.1-3z"/></g><path d="M27 68.2a7 7 0 00-1.7 5.9l.1 1.6s-7.9-2.3-7.6 4.2l.1 1.7c.2 5.3.8 7.8 4.1 9.7 3.6 2.1 4.2-1.4 6.5-.2s14.6 10.2 18.1-1.6l.5-5.2c.2-2.6 1.8-4.3.6-9.4s-6.1-6.6-10-6.1c0 0-.6.3-1.7-1.6s-6-3.5-9 1z"/></g><path d="M25 80.4l4.4-.4c.2 0 .5.2.5.4s-.2.5-.4.5l-4.4.4c-.2 0-.5-.2-.5-.4s.1-.4.4-.5zM25.2 82.2l4.4-.4c.2 0 .5.2.5.4s-.2.5-.4.5l-4.4.4c-.2 0-.5-.2-.5-.4 0-.3.2-.5.4-.5zM25.5 83.9l4.4-.4c.2 0 .5.2.5.4s-.2.5-.4.5l-4.4.4c-.2 0-.5-.2-.5-.4s.1-.4.4-.5z"/><path d="M124 73.5a6.8 6.8 0 00-1.6 5.8l.1 1.6-3.3-.3-1.4 7.7c.8.6 1.5 1.2 2.1 1.9.6 1 3.5 4.4 5.8 5.5l2.4 1.3c4.4 2.4 12.7 6 15.2-3.3l.4-5.1c.2-2.5 1.7-4.2.4-9.2s-6-6.3-9.8-5.8c0 0-.6.3-1.7-1.5s-5.8-3-8.6 1.4z" fill="#d8d8d8"/><path d="M127.2 96.5c4 2.3 13.4 7.1 16.1-2.8l.4-5.1c.2-2.5 1.7-4.2.4-9.2s-1.3-5-9.8-5.8c-7.8-.7-5.5 11.9-7.8 20-.3.8.1 2.5.7 2.9z" fill="#fff"/><g opacity=".05"><path d="M28.4 91c-2.5-.9 14.7 10.2 18.1-1.6l.5-5.2c.2-2.6 1.8-4.3.6-9.4s-6.1-6.6-10-6.1C49 70.9 40.8 94.4 28.4 91zM125.7 95.7c-2.4-.8 14.4 9.6 17.6-1.9l.4-5.1c.2-2.5 1.7-4.2.4-9.2s-6-6.3-9.8-5.8c11.1 2 3.5 25-8.6 22z"/></g><g opacity=".16"><path d="M19 88.4c.8 1.1 1.8 2 2.9 2.8 3.6 2.1 4.2-1.4 6.5-.2 2 1.1 11.7 8 16.4 1.9.7-1.1 1.2-2.3 1.7-3.5-1 1.6-4.9 2.7-8.7 2.3-5.2-.5-8.3-4.6-11.5-4.4-5.4 2.1-7.3 1.1-7.3 1.1zM117.8 88.3s5.7 6.2 7.9 7.4c2 1 11.6 7.6 16 1.5a26 26 0 001.6-3.4c-.9 1.6-4.7 2.7-8.4 2.4-5.1-.3-8.1-4.3-11.3-4.1a26.3 26.3 0 00-5.8-3.8z"/></g></symbol><symbol id="side_12"><path d="M42 66.5c-2.1-4-6.6-6.2-11-5.5-8 1-10 4-12 9s7 17 7 17l6 6c1 1 0 7 4 9s13 0 13-4-4-5-5-18l1-9-3-4.5zM114 61.1s14.3-7.4 19.7-1c5.4 6.4-5.5 18.1-5.5 24.5 0 6.4.5 9.3-5.3 12.1-7.1 3.5-6.8-.7-6.8-.7-1.1 0 6.6-19-2.1-34.9z" fill="currentColor"/><path d="M44 74c-1-2-6-7-12-4s-3 10 1 14c2.3 2.3 4.8 4.5 7.4 6.5L44 92s3-1 0-5c-2.1-2.9-.9-5.8.1-7.6l.8-1.5C45 77 45 76 44 74zM118 69.7c.5-2 3.6-6.7 7.3-3.8 3.7 2.8 1.9 9.6-.6 13.4-1.4 2.2-3.2 5-4.6 6.2-.7.6-2.5 1.3-2.5 1.3s.3-1.5.5-4.6a48.6 48.6 0 00-.4-9.7c-.1-1.3-.3-1.6.2-2.8z"/><path d="M42 66.5c-2.1-4-6.6-6.2-11-5.5 13 4 14 32 13 19l1-9-3-4.5z" opacity=".1"/><g fill="#010101"><g opacity=".1"><path d="M31 61c-8 1-10 4-12 9s7 17 7 17l6 6c1 1 0 7 4 9 1.8 1 6.6 1.1 10.2-.6 3.7-1.8 3-3.9 2.1-6.3 1 4.7-12.5 8.3-13.6.6C33.8 89.7 22 80.2 22 73c0-8 4.9-8.9 9-12zM118.6 59.2s9.9-1.4 11.6 4.4c2 6.7-3.8 11.7-4.8 16.7S125 87 124 92c-.4 2.8-2.4 5-5.1 5.9 0 0 9.7-1.1 9.3-9.6-.4-7.7 1.9-10.2 3.7-13.9 1.8-3.6 5-8.9 2.1-13.8-2.6-4.7-12-2.7-15.4-1.4z"/></g><g opacity=".2"><path d="M44 74c-1.5-2.4-6.1-6.8-12-4-6 3-3 10 1 14 2.3 2.3 4.8 4.5 7.4 6.5L44 92c-13-7.2-19.2-27.2 0-18zM117.9 69.685c.124-.48 3.388-7.098 7.391-3.837 3.634 2.878 1.848 9.593-.616 13.43-1.416 2.206-3.264 5.084-4.557 6.235-.74.672-2.526 1.247-2.526 1.247 8.192-6.715 12.134-25.9.308-17.075z"/></g><g opacity=".5"><path d="M39 75c-2 0-4 3-2 6s6 3 6 3-1-.9.5-3.5S41 75 39 75zM120.98 70.645c1.232 0 2.463 2.877 1.232 5.755s-4.004 2.878-4.004 2.878 0-1.919-.123-3.55c-.37-2.685 1.663-5.083 2.895-5.083z"/></g></g></symbol><symbol id="side_13"><path d="M46.7 67.2s-8.4.6-9.9 7.7c0 0-8.5.1-12.1 6.4L16 84.9l.2 3 17.4 18.8 1.4 4.9s4.2 4.9 9.3 5.6l6.7-6.7s-.4-5-2.4-5.8-7.3-3.5-8.3-3.4-6-12.6-6-12.6 12 6.7 16.6-6.2c0-.1 8.8-14.8-4.2-15.3zM117.1 67l.5.2c3.3.9 5.8 3.5 6.7 6.8 0 0 8.5-.1 12.2 6l8.9 3.4-.1 3-16.9 19.3-1.2 5s-1.1 3-6.2 3.7l-9.8-4.4s.2-5 2.3-5.9 7.2-3.7 8.2-3.6 5.6-12.8 5.6-12.8-4.4 2.6-9 1.7C120 78 118 74 117.1 67z" fill="currentColor"/><g stroke-width="2" stroke-linecap="round" stroke-linejoin="round"><path d="M37.7 96c.8 2 1.5 3.2 2.3 4.6-4.8 1-6.2 3-7 5.9l-4-4.3c1.3-4.4 4-5.8 8.7-6.2zM133.1 101c-1.6 1.5-2.5 2.6-3.6 3.8-2.5-4.2-4.8-4.7-7.9-4.4l2.7-5.4c4.5-.3 6.7 1.7 8.8 6z"/></g><g fill="#010101"><path d="M46.7 67.2c6.3 3 5.1 14.5-2.1 13-.4 2.9-1.5 7.1-9.8 6-3.1.8-5.7 1.2-5.7 1.2l9.1 14.8c5.9 1.6 10.5 4.3 12.8 8.3 0 0-.4-5-2.4-5.8-2-.8-7.5-3.5-8.5-3.5-1-.4-5.9-12.6-5.9-12.6s12 6.8 16.7-6.1c-.1-.2 8.8-14.7-4.2-15.3z" opacity=".1"/><path d="M117.4 69.4s4.8 2.8 5.8 6.8c0 0 7 1 9 6l3 1-11 19-8 5a11 11 0 00-3 3.8l-2-1s.1-5.8 3.2-6.2c2.6-1.3 6.5-3.4 7.6-3.4 2.2-4 3.7-8.4 5.3-12.7a13.7 13.7 0 01-9 1.7c1.2-7.1.8-13.1-.9-20z" opacity=".15"/></g></symbol><symbol id="side_14"><path d="M30 71s6-5 10 2-1 12.1-1 12.1 11.1 15.3 19.2 16.2c0 0 3.3-4.9 10.2-1.5 7 3.4 3.8 9.5 3.8 9.5s-2 4-9 4-24.1-13-30.1-25C27 76.1 29 73 30 71z"/><path d="M30 71s6-5 10 2-1 12.1-1 12.1 11.1 15.3 19.2 16.2c0 0 3.3-4.9 10.2-1.5 7 3.4 3.8 9.5 3.8 9.5-4.3-7.5-7.8-6.7-15.2-6.2-12-3.2-21.6-14.4-20-16.8 0 0 5.3-14.6-7-15.3z" opacity=".2" fill="#010101"/><g fill="none" stroke="#fff" stroke-width="2" stroke-linecap="round" stroke-linejoin="round"><path d="M26.7 55.6a22 22 0 00-9.7 13"/><path d="M30 59.2a17.9 17.9 0 00-7.9 10.7" opacity=".6"/></g></symbol><symbol id="side_15"><g fill="currentColor"><path d="M139.5 61.5l-7.4 13.3-12.8 7.7s-.6 4.6-1 5.9c-1.1 4 20.1 2.3 22.3-1.7l-2.8-4.7 11.2-9.6c1.4-2.5.9-3.7-1.9-3.4l-10.9 8.1 6.8-13.4c.6-2.8-2-3.3-3.5-2.2z"/><path d="M119.4 82.4l6.3-9.8c.8-.9 1.8-1 3.1-.4a142.2 142.2 0 008.2 6.5s-.6 2.8-4.4 2L129 80s.6 3.1-3.4 3.7-6.2-1.3-6.2-1.3zM25.8 63.7L34 77.3l14.6 7.6s.6 4.8 1 6.1c1.2 4.1-21.6 3-24-1l1.6-5.1-12.7-9.6c-1.6-2.5-.9-3.8 2.3-3.5l12.4 8.1-7.5-13.7c-.6-3 2.3-3.6 4.1-2.5z"/><path d="M48.4 84.8l-7.1-9.9c-.9-.9-2.1-1-3.6-.3 0 0-3.9 2.6-2.1 1.5S28 81.6 28 81.6s.6 2.9 5 2l4.4-.9s-.8 3.2 3.8 3.8 7.2-1.7 7.2-1.7z"/></g><g fill="#010101"><g opacity=".1"><path d="M119.4 82.4l6.3-9.8c.8-.9 1.8-1 3.1-.4a142.2 142.2 0 008.2 6.5s-.6 2.8-4.4 2L129 80s.6 3.1-3.4 3.7-6.2-1.3-6.2-1.3zM48.4 84.8l-7.1-9.9c-.9-.9-2.1-1-3.6-.3 0 0-3.9 2.6-2.1 1.5S28 81.6 28 81.6s.6 2.9 5 2l4.4-.9s-.8 3.2 3.8 3.8 7.2-1.7 7.2-1.7z"/><path d="M22 64.1c1.3 0 2.5.8 3 1.9l6.9 12.9 2.1-1.6L26 64a2.8 2.8 0 00-4 .1c0-.1 0 0 0 0zM149 69.1c.2 1.3-1.2 2-2.2 2.7L136 80l1.9 1.8 11.1-9.4c.6-1 1.3-2.4 0-3.3zM141.3 61s.5.8-.7 2.7l-7.2 11.7 2.5 1.9 7-13.3c0 .2 1-2.7-1.6-3zM13.718 72.868c.991-.42 2.006.258 3.024 1.137 1.73 1.364 10.764 7.677 10.764 7.677l2.272-1.348-12.982-8.53c-1.304-.173-2.799.058-3.078 1.064zM139.5 84.9S125 91 118 88l.4 1.1s3.3 2.5 12.5 1.2c0 0 8.1-1.3 9.1-3.3l-.5-2.1zM-304.659 72.898s15.591 7.869 22.746 5.258c0 0 .25.915-.26 1.087-3.372 1.217-6.174 1.163-14.001-.37 0 0-7.822-1.632-9.377-4.321z"/></g><path d="M48.4 84.8l-7.1-9.9c-.9-.9-2.1-1-3.6-.3 0 0-3.9 2.6-2.1 1.5S28 81.6 28 81.6c2.3-1.3 13.5-7.2 20.4 3.2z" opacity=".1"/></g></symbol><symbol id="side_16"><path d="M42.8 68.7c1.6 2.3 2 5.1 1.2 7.7l-.4 2 4.3.1c3 .9 3.2 8 .6 10.2-1.1.6-2.1 1.4-3 2.2a25 25 0 01-8.4 6.3l-3.3 1.4c-6 2.4-17.4 5.9-19.3-6.5l.3-6.6c.2-3.3-1.5-5.7.8-12s8.8-7.3 13.6-6c0 0 .8.5 2.4-1.7s8.3-3.3 11.2 2.9z" fill="#d8d8d8"/><path d="M48.6 88.9s-8.3 7.2-11.4 8.4c-2.7 1-16.2 8.1-21-.5-.6-1.5-1.2-3.1-1.5-4.7.9 2.2 5.7 4.2 10.6 4.3 6.6.3 11.2-4.3 15.3-3.6 2.5-1.6 5.2-2.9 8-3.9z" fill="#010101" opacity=".16"/><g fill="none" stroke="#000" stroke-width=".5" stroke-linecap="round" stroke-linejoin="round"><path d="M41 22l-16 9M49 57L27 70M46 27L19 42M48 34L16 52M41 71L28.5 27M45 65L32 20M35 72L24 34M49 58L37 17M28 68l-8-28M50 41L18 59M53 47L21 65"/></g><path d="M52.5 35.5c-1.7-9.2-9.7-17.8-17.9-19.4C33 15.8 20 41 12.3 53.5a50 50 0 009.2 15c9 14 11 15 12 28l1 12s-1 0-1 2 2 3 4 3 4-1 4-3a2 2 0 00-2-2l-1-12s-.6-20.2 8-31c8.5-10.6 8-19 6-30zm-18 48l-5-11s3 4 9 0l-4 11zm-.1-15c-8.9.7-17.1-8.5-18.9-20.9C22 36 30 23 31.7 19.5c8.9.3 16.6 10.3 17.7 23.1 1.2 13.5-5.6 25.1-15 25.9z"/><g fill="#010101" opacity=".1"><path d="M34 16.4c3.2.2 5.8 2.5 8 4.6 6 6 8 10 9 21s-3.5 20.5-7.5 24.5-14 6-14 6a8 8 0 005 1c1.4-.3 2.8-.8 4.1-1.4l2.9 2.4c1.6-3.5 3.5-6.9 5.8-10a29 29 0 006.4-19.4c-.3-9-3-24.6-19.2-29zM37 103.5l.5 7s.7 2.2-1.1 2.6 6.1.4 5.1-2.6a2 2 0 00-2-2l-.4-4.8-2.1-.2z"/></g><path d="M35.1 98.1c-5.6 2.4-18.4 7.2-20.4-6.1l.4-6.7c.2-3.3-1.5-5.7.8-12s2.4-6.4 13.6-6c10.3.3 5.3 16.3 7.2 27.1 0 1.1-.7 3.3-1.6 3.7z" fill="#fff"/><path d="M37.2 97.2c3.2-.7-20.2 10.3-22.5-5.2l.3-6.6c.2-3.3-1.5-5.7.8-12s8.8-7.3 13.6-6c-14.8.9-8.4 31.9 7.8 29.8z" opacity=".05"/></symbol><symbol id="side_17"><g fill="#42210b"><path d="M54.7 74.4s-11.6-.4-13.3-2.7-5.8 6.4-5.8 6.4-4.7 4.7-8.5 4.4a60.8 60.8 0 01-11.3-5.8l9.8 10.7 9.3.6 2.5-2.4-1.7 8.5 1.7 9.1.6-9 5.5-12.7 4.7.3 2.1 3.2 2.3.2c.2.1 5.1-3.5 2.1-10.8zM119.1 76.2s6.8 4.7 10.5 4.4c2.4-.2 11.4-5.8 11.4-5.8l-9.8 10.7-9.3.6-2.5-2.4 1.7 8.5-1.7 9.1-.6-9-1-2.4a45.3 45.3 0 001.3-13.7z"/></g><g fill="#010101" opacity=".7"><path d="M141.2 74.8l-9.8 10.7-9.3.6-2.5-2.4 1.7 8.5-1.7 9.1-.6-9-1.1-2.4 1.4-8.4 6.3 1.9c5.6.5 10.6-3.9 15.6-8.6zM15.6 76.8l9.8 10.7 9.3.6 2.5-2.4-1.7 8.5 1.7 9.1.6-9 5.5-12.7 4.7.3 2.1 3.2 2.3.2a8.4 8.4 0 002.9-5.8c0-.5-13.1-1.5-13.1-1.5l-11 7.5c-5.6.4-10.6-4-15.6-8.7z"/></g><path d="M26.8 61.1s-2.6 17.7 10.6 16.2c0 0 10.3-9.4-10.6-16.2zM33 112.7s12.5-6.6 5.4-14.4c-.1.1-10.9-2.1-5.4 14.4z"/><path d="M26.3 96s11.1 4.6 12.3-4.3c.1.1-4.4-8.2-12.3 4.3zM11.1 76.8s7.6 11 14.1 3.4c0 0 .8-10.4-14.1-3.4zM129.2 63.1s2 13.5-8.1 12.4c0 0-7.9-7.2 8.1-12.4zM130.5 94s-11.1 4.6-12.3-4.3c0 .1 4.4-8.2 12.3 4.3zM146.9 74.6s-8.2 11.8-15.2 3.7c0 0-.9-11.2 15.2-3.7z"/><g fill="#010101" opacity=".2"><path d="M26.8 61.1s-2.6 17.7 10.6 16.2L26.8 61.1zM33 112.7s12.5-6.6 5.4-14.4L33 112.7zM26.3 96s11.1 4.6 12.3-4.3L26.3 96zM11.1 76.8s7.6 11 14.1 3.4l-14.1-3.4zM129.2 63.1s2 13.5-8.1 12.4l8.1-12.4zM130.5 94s-11.1 4.6-12.3-4.3l12.3 4.3zM146.9 74.6s-8.2 11.8-15.2 3.7l15.2-3.7z"/></g></symbol><symbol id="side_18"><path class="st0" d="M116.4 96.2c-2.7 7.8 12.8-.3 12.5-1.2-.9-.9-4.2-1.2-4.2-1.2a35 35 0 006.5-.6c3.6-.6 5.6-3.3 5.3-4.2s-5.3-1.2-5.3-1.2c2.4 0 4.8-.4 7.1-1.2 3-1.2 4.8-3.6 3.6-4.2a8 8 0 00-3-.6c3.3-.3 7.1-3 7.7-4.8s-2.4-.6-2.4-.6c-7.1 1.2-16.9-3.9-16.9-3.9s-.6-3-2.4-3.6-2.4-.6-4.2 2.4c-.4.6-1 1.2-1.6 1.7l-.5.4c.9 7.9.1 15.6-2.2 22.8zm-72.6 1.1c-7.9 3.9-13-.4-12.7-1.4.9-1.1 4.2-1.4 4.2-1.4a36 36 0 01-6.6-.7c-3.6-.7-5.7-3.9-5.4-5s5.4-1.4 5.4-1.4c-2.5 0-4.9-.5-7.2-1.4-3-1.4-4.8-4.3-3.6-5 .9-.5 2-.7 3-.7-3.3-.4-7.2-3.6-7.8-5.7s2.4-.7 2.4-.7c7.2 1.4 17.2-4.6 17.2-4.6s.6-3.6 2.4-4.3 2.4-.7 4.2 2.8S52 77.1 52 77.1l5.5 1.4s6-1 3 2-4 2-6 4-2.3 8.7-10.7 12.8z" fill="#fff"/><path d="M53 82s-12-4-16-7-18 1-18 1 6 4 11 4l-8 2s7 6 13 5l-7 3c3.5 2.5 7.9 3.2 12 2l-3 4s7 3 13-7 7-7 3-7zm66.2-2.8c1.5-.6 2.9-1.4 4.2-2.3 3.6-2.7 16 .9 16 .9s-5.3 3.6-9.8 3.6l7.1 1.8s-6.2 5.3-11.6 4.4l6.2 2.7c-3.1 2.2-7 2.8-10.7 1.8l2.7 3.6c-2.1.7-4.5.4-6.4-.8 2.1-5.9 2.1-8.9 2.3-15.7z" opacity=".05"/></symbol><symbol id="side_19"><ellipse cx="47.5" cy="81" rx="9.5" ry="15"/><path d="M57 81c0 8.3-4.2 15-9.5 15S38 89.3 38 81s4 0 19 0z" fill="#010101" opacity=".1"/><ellipse cx="44.5" cy="81" rx="9.5" ry="15"/><ellipse cx="44.5" cy="81" rx="9.5" ry="15" fill="#010101" opacity=".6"/><path d="M49 80.5c0 4.7-2.4 8.5-5.4 8.5l-4.5.1c-.5-2.8-.8-5.7-.9-8.6 0-2.6 1.9-8.5 1.9-8.5h3.5c3 0 5.4 3.8 5.4 8.5z"/><ellipse cx="39.9" cy="80.5" rx="5.4" ry="8.5"/><path d="M44 89l15 17 17 5 1-2-16-5-15-17s-3-1-2 2z"/><g fill="#010101"><ellipse cx="39.9" cy="80.5" rx="5.4" ry="8.5" opacity=".4"/><path d="M44 89l15 17 17 5 1-2-17-4-15.8-18c-.4.3-.6.9-.2 2z" opacity=".1"/></g><path d="M74.4 106.4l12.5 3.4c1.3.4 2.1 1.7 1.8 3.1a2.6 2.6 0 01-3.1 1.8l-12.5-3.4a2.6 2.6 0 01-1.8-3.1 2.5 2.5 0 013.1-1.8z" fill="#231100"/></symbol><symbol id="side_20"><g fill="currentColor"><path d="M40.5 74a6.8 6.8 0 01-5.5-3c-3-5-16-11-21-11s3 8.5 3 8.5 0 1.2 2 2.4c2 1.3 4 1.3 2 1.3s-3 0-2 2.4 4 2.4 4 8.5-10 13.4-8 14.6c2 1.2 7-1.2 11-4.9 4-3.6 8-13.3 14-12.1 5-.7 3.3-6.5.5-6.8zM53.4 81.6s19.2 4.6 15.5 6.2-20.6 6.5-29 1.5-1.3 2.7 13.5-7.7zM119.4 80.4a35 35 0 01-2.3 10.4s16.6-3.8 20.8-8.4c7.1-7.9 2.6 2-18.5-2z"/></g><g fill="#010101" opacity=".1"><path d="M28 84.1C25 91 13 96.5 15 97.7c2 1.2 7-1.2 11-4.9 4-3.6 8-13.3 14-12.1 3.3-.5 3.7-3.2 2.7-5a2 2 0 00-1.9-1.1C43 79 30 78 28 84.1zM65.6 85.1s4.7 2 3.3 2.7c-3.6 1.5-20.6 6.5-29 1.5l-3.2-1.6c7.4 4.1 33.1-1.5 28.9-2.6z"/></g><path d="M22 66s5 0 10 5 2 6 2 6-7 2-8 7 3-14-4-18zM53.6 81.5l12 3.4c-7.5 2.2-16 3-25.4 2.9 0 0 7.9-2.4 13.4-6.3zM119 80.4l-.7 6s12.1-3.1 18.5-5.4c0 0-9.8 1-17.7-.6z"/></symbol><symbol id="side_21"><path d="M130.8 63c-2.3-2-15.7-.5-15.7-.5l.9 1.9 2.3 4.9c2.5-1.1 5.2-2 7.8-2.4 0 .1 1.9 19.1-.1 21.1s-8.4 3.3-8.4 3.3L117 93l-1 2.6S133 97 133 85c.7-16.3.6-19.6-2.3-22zM24.6 67.9s-4.7.3-6.5 1.3c-.5.2-.4 1 .2 1.5 3.7 2.8 6.5 6.6 8 11 3.4 8.5 3.4 16.7 13.8 20.4 10.4 3.7 14.8 0 14.8 0S62 93 54 84.2c0 0-1.6-1.6-4.7-.6-3.6 1.2-7.5 1.9-11.6-5.7-4.2-7.5-6.2-10.9-13.1-10z" fill="currentColor"/><g fill="#fff"><ellipse cx="24.7" cy="69.6" rx="6.5" ry="1.7" transform="rotate(-3.5 24.7 69.7)" opacity=".3"/><path d="M45.4 85c5.2 1 9 .1 10.5 1.8-.5-.9-.9-1.4-1.9-2.6-.1-.1-2-1.6-4.6-.6-10.9 4-11.6-9.5-17.6-14.1 6.1 7.1 5.7 14 13.6 15.5z" opacity=".3"/><path d="M115.1 62.5s14.6-1.7 16.1 1c-2.3-.8-6-.4-8.8 0l-6.4.8z" opacity=".4"/></g><g fill="#010101"><path d="M19.8 72c4.7 4 5.9 7.9 6.6 9.7 3.3 8.5 3.3 16.7 13.7 20.4 10.4 3.7 14.8 0 14.8 0s5.3-6 1.7-14c0 0 3.9 11-7.9 11-5.4-.1-10.5-.9-14.5-6-5.3-6.8-7.8-19-14.4-21.1z" opacity=".16"/><ellipse cx="24.9" cy="69.6" rx="4.8" ry=".9" transform="rotate(-3.5 24.9 69.7)" opacity=".35"/><path d="M29.8 69.3c.5.9-4.8 1.2-4.8 1.2.4-1.1.3-1.7-.1-1.7 0 0 4.4-.3 4.9.5z" opacity=".35"/><path d="M126.1 66.9S128 86 126 88s-8.4 3.3-8.4 3.3L117 93s8.8-1.2 11-4.1 1-17.9 1-17.9.3-5.3-2.9-4.1z" opacity=".5"/></g></symbol><symbol id="top_01"><path d="M95.4 49.9S92 60 81 53c.3 3.8-1.6 5.5-6 5 0 0-3 9-7 3-.9 1.3.6 7.2-7 4-1.6 5.6-5.6 6.7-11 5 0 0-15 1-10-9 0 0-15-9 2-12 0 0-5-22 15-17 0-5 12.9-22.3 32-5 0 0 15-13 22 6 0 0 15 2 8 16 1.9-.8 12.2 3.7 5 12 1.9 5.3-.2 7.3-5 7 0 0 3 2-.4 4.5 0 0-6.6-2.5-6.6-9.5-4-1.1-5.6-3.8-3.8-8.9 0 0-10.3 6.8-12.8-4.2z" fill="#42210b"/><path d="M68.5 39.5S52 34 54 51c-12 2-3 13-3 13s-14.5-12.5-1.4-13.4c0 0-4.4-18.4 13.1-14 0-4.4 7.8-20.4 24.5-5.2C74 29 71 30 68.5 39.5z" opacity=".05" fill="#fff"/><path d="M89 27s15-13 22 6c0 0 15 2 8 16 1.9-.8 12.2 3.7 5 12 1.9 5.3-.2 7.3-5 7 0 0 3 2-.4 4.5 0 0-6.6-2.5-6.6-9.5-4-1.1-5.6-3.8-3.8-8.9-5.2 4.9-13.8.6-12.7-4.4 0 0 7.8.7 7.7-6.5C105 35 95.5 26.2 89 27z" opacity=".5"/></symbol><symbol id="top_02"><path d="M75.9 27.8c.1 2.2-2.7 5.4-2.7 5.4s-1.5-2.8-3.6-3.8-4 1-3 1.5l2 4.7-2.6.1a9 9 0 01-7.9-10 9 9 0 0110-7.9 9 9 0 017.8 10z"/><path d="M75.9 27.8c.1 2.2-2.7 5.4-2.7 5.4l-1.6-2.7c1 0 3.6-7.3 2.1-9.7a9 9 0 012.2 7z" fill="#010101" opacity=".25"/><path d="M66 31s3.7 5.7 4.8 10.3c.6 2.2 1 4.4 1.2 6.7 1 4 8 2 8-1 0 0-6.1-13.9-9-17-2.6-3.9-6.2-1.2-5 1z" fill="#93505c"/></symbol><symbol id="top_03"><path d="M80.5 42.9S77 25.1 73.3 20.3c-.2-.2-1.7-.5-4.1.6l-.2.2s2.6 2.6 9 21.8c0 0 2.5 1.3 2.5 0z" fill="#825105"/><ellipse transform="rotate(-4.6 71.2 20.6)" cx="71.2" cy="20.6" rx="2.2" ry=".5" fill="#f4b145"/><path d="M77.2 41.3s.7-.1 1.2-1.4c.5-1.9-.5-3.8-2.4-4.4-2-.5-2.9-2.4-4.3-4.2s-6.4-4.7-14.9-4.5-10.2-3-10.9-3.6-.8 6 3 10.9 9.3 8.3 15.6 5.1 9.2-.2 9.2-.2 2.2 2.4 3.5 2.3z"/><path d="M77.2 41.3s.7-.1 1.2-1.4c.5-1.9-.5-3.8-2.4-4.4-2-.5-2.9-2.4-4.3-4.2-1.4-1.8-6.4-4.8-14.9-4.5-9.8.3-11.2-4.7-11-3.4 3 11.5 22.9 4.2 31.4 17.9z" opacity=".2" fill="#010101"/></symbol><symbol id="top_04"><path d="M33.6 59.8L68 21s2.1-3 6.4 0c4.3 3 44.5 27.4 44.5 27.4 1.5 1 1.1 2 1.3 2.8-.3 1.3-7.5-8.2-46.8-3.8C34 52.9 33.1 61.8 34.1 62.8s-.5-1-.5-3z" fill="#93505c"/><path d="M33.6 59.8L68 21s2.1-3 6.4 0c-3.2-1-23.3 27.5-27 31.8-13.7 4.5-14 9.2-13.2 9.9 1 1.1-.6-1-.6-3z" opacity=".14"/><path d="M42.9 64.6c-.3-10 64.4-16.3 67.5-8.5 2.6.8 15.9-4.8 6.4-7.2s-25.1-5.9-57.6.9-25.9 13.7-25.9 13.7 7.9 2.4 9.6 1.1z"/></symbol><symbol id="top_05"><path d="M50.8 32.5s2.4 6 5.4 4.8 48.1-1.7 48.1-1.7l4-4.7s7.7-5.1 4.1 3.3l-2.1 3.6c-.6 1-1.1 2.2-1.4 3.4-.1 1.4 1.7-2.8 1.7-2.8l3.8 6.1s2.5 4.6-1.8 4.2-7-3.5-8.3-5.1l-48.1 1.7s-6.5 8.2-9.4 7.9-2.6-3.1-.7-8.8c0 0 1.7-2.8 1.8-4.2S46.3 43 46.3 43s-3.3-7.6-3.6-9c-.7-3.7 3.3-9.1 8.1-1.5z" fill="#fff"/><path d="M111.1 29.5s2.3 1.1-.9 5.2-6.3 5.3-.7 8.7 4.3.4 4.3.4l-3.2-5.3c0-.1 6.2-10.1.5-9zM48.4 40.6s3.2-.7 1.7.6-4.3 5.2 3.7 2.4 47.2-2.7 47.2-2.7l2.8 2.3-47.5 2s-5.8 7-8.7 6.8-.7-7-.7-7l1.5-4.4z" opacity=".14"/></symbol><symbol id="top_06"><path d="M46.8 53.4S34 49 36 37c2-11 14-10 14-10a12 12 0 0112-9c10 0 15 6 15 6s1-7 11-7c5.8-.1 11.1 3 14 8 0 0 13-3 17 6s-14.1 15.3-14.1 15.3-7.9-9.3-6.4-9.8c0 0-4.5 7.5-17.5.5 0 0-7 10-17 4 0 0-7 7.7-15 2.8l-2.2 9.6z" fill="#fff"/><path d="M48 39s13 6 16-5c0 0 15 4 18-4 0 0 10 7 18 2 0 0 4.4 12.1 9.7 9.1A25.5 25.5 0 01104 44l-56 3s-3.7-.2-4.8-1.1c0 0 5.8-.9 4.8-6.9z" opacity=".1"/><path d="M44.2 62.8c1-.8 23.9-19.2 66-7.1 0 0 3.8 1 3.8-1.7l-4-3.6s-10-9-11-14.4c0 0-9 6.3-17-.9 0 0-5 9-18 5.4 0 0-5 8.1-15 2.7 0 0-3 15.3-5 17.2s.2 2.4.2 2.4z" fill="#fff"/><path d="M45.5 60.2A48.2 48.2 0 0168 50c18-4 39.1 1.6 39.1 1.6s5.9 1.1 5.9 3.3-3 .2-3 .2c-24.3-5.3-47.7-5.6-66 8 0-.1-1-.7 1.5-2.9zM64 40s1 8.6-1 10c0 0 0-8.6 1-10zm-14.6 3s.3 10.4-1.8 12c0 0 .7-10.3 1.8-12zm32.5-7.3a28 28 0 00.3 7.1c.8 4.2 2.9 4.5 2.9 4.5-1.5.5-3.6-15.3-3.2-11.6zm17.8 3c.7 2.3 1.6 4.4 2.8 6.5 2 3.6 3.6 3.2 3.6 3.2-.9.9-8-13-6.4-9.7z" opacity=".1"/></symbol><symbol id="top_07"><path d="M40.1 78.3S52 55.6 84.4 54.8c28.2-1.9 33.6 16.1 33.6 16.1 33.1-25 2.8-38.9 2.8-38.9a22.3 22.3 0 01-14.3 17.4C76.4 56.7 59 42.8 59 42.8s-10.5-12.1-21.2-9.2c-.1.3-10.2 1.5-12.4 15.5a26.4 26.4 0 0014.7 29.2z" fill="#743a4b"/><path d="M40.9 33c-2.7.4-5.8.8-5.8 6.2 0 2.7 3.2 5.9 7.6 8.6 4.4 2.7 9.3 4.7 14.3 5.9l6.4 1.2c13.7-2.8 25.9-4.8 37.9-.9 0 0 31.8-12.8 21.3-20.8-4.2-3.8-11.4 1.8-16.7 5-3.4 2-5.9.9-5.9.9s-1.2-7.7-2-10.2c-2-6.6-5.8-13.8-23.8-13.8S58.9 26.3 58.9 26.3l.1 13.2c-1.7 0-4.4-1.1-7.7-3.1 0 0-5.5-3.7-10.4-3.4z" fill="#93505c"/><path d="M39.6 77.7s15-22.9 44.3-23.5c29.3-.6 34.2 16.1 34.2 16.1L123 67s-19-17.3-40-15c-34.8 2.3-48.5 21.9-48.5 21.9z" opacity=".6"/><path d="M82 15.8S59.7 11 58.8 24.2l.4 15c3.4.2 6.8 0 10.1-.6V25.4c.1 0-1.4-9.7 12.7-9.6z" fill="#743a4b"/></symbol><symbol id="top_08"><path d="M123.9 43.8c-5 1.2-7.2 4.8-13.7 5a4.6 4.6 0 01-2.9-1.7l-1-1.7s-1.7-14.7-2.9-17.1c-3.1-6.4-4-10.3-32.2-10.3-2.5-.2-5.1 0-7.6.5-8.8 1-16.5 4.4-13.6 13.6a81 81 0 003.9 16.2c-.6 1-1.5 1.9-2.5 2.4l-1.7.6c-3 .6-7.5-.2-12.9-1.6-11.1-2.8-10.7 6.4-8.4 9.5 2.3 3.1 7.3 4.5 15.5 2.1 11.2-3.4 27.5-7.5 41-8.3 15-.6 25.2 1 32.2 3.4 6.5 2.2 16.3-1.8 16.1-5.7-.2-3.9-4.3-8.1-9.3-6.9z" fill="#24425b"/><path d="M58.1 57.3c8.7-2.6 17.6-4.2 26.7-4.8 16.1-.8 33.7 3.9 33.7 3.9 2.1.7 4.5.8 6.6.1 0 0-24.1-9.5-40.9-8.2-8.4.7-24.9 5-24.9 5s-19.8 6.4-30.9 6.3c.2.2 3.2 7.6 29.7-2.3z" opacity=".15"/><path d="M51.4 38.9s33.3-13.2 53.5-4l1 7.4s-11.5-8-52.7 3.4l-1.8-6.8z"/><path d="M83.5 19.1S44 13 50 32.1c1 6.7 2.8 13.2 5.3 19.4 0 0 12.7-2.1 18.2-4.2l-4.8-16.2c0 .1-3.7-11.1 14.8-12z" opacity=".15"/></symbol><symbol id="top_09"><path d="M43.8 62.3c-2.8.7-3.5-1.6.2-5.3a55.4 55.4 0 0139-14c24 1 31 10 31 10s4 5-2.4 3.7c0 0-31-14.1-67.8 5.6z" fill="#743a4b"/><path d="M45.5 60.2A48.2 48.2 0 0168 50c18-4 39.1 1.6 39.1 1.6s5.9 1.1 5.9 3.3-3 .2-3 .2c-24.3-5.3-47.7-5.6-66 8 0-.1-1-.7 1.5-2.9z" opacity=".2"/><ellipse transform="rotate(-23.9 94 37.3)" cx="94" cy="37.3" rx="14.8" ry="16.9" fill="#c1c1c1"/><ellipse transform="rotate(-24.3 94.7 36.2)" cx="94.7" cy="36.2" rx="14.1" ry="16.2" fill="#efefef"/><ellipse transform="rotate(-17.1 95.4 36.7)" cx="95.4" cy="36.7" rx="11.5" ry="13" fill="#fff"/><ellipse transform="rotate(-17.1 96.1 36.5)" cx="96.1" cy="36.5" rx="3.5" ry="4"/><path d="M93.2 34.2a7 7 0 013.6 2.2c1.5 1.7.8 4-1.2 3.9 3.4.7 4.6-2.7 3.3-5.9 0 0-2.5-4.1-5.7-.2z" fill="#010101" opacity=".3"/></symbol><symbol id="top_10"><path d="M44.6 62C55.1 45 63.9 28.7 67 15c3.8-1.3 24.3 18 42 38.5 0 0-29.1-31.9-64.4 8.5z" fill="currentColor"/><path d="M68 15c8.4 4.8 25.2 22.5 41 38.5-9.9-8.7-17.9-12.4-24.7-12.8L68 15z" fill="#010101" opacity=".1"/><path d="M113.7 37.9s11 5 10 12-10 5-10-1-3-10 0-11zM115.2 33.8s4.2-1.4 5.7.7c1.5 2-1.4 3.8-2.9 2.2-1.5-1.6-3.3-2-2.8-3zM48.8 25.5s-10 4.5-9.1 10.9 9.1 4.5 9.1-.9 2.7-9.1 0-10zM33.5 46.8s.7 5.6-2.4 6.9-4.4-2.8-2-4.2 3.3-3.6 4.4-2.7z"/></symbol><symbol id="top_11"><path d="M81.1 33.8s6.7 2.4 4.4 4.8-4.9-3.8-16.7-1.2S42 42 41 72.4l16.1 3.1s-3.3-12.1 6.7-12.1V51.3s20 10.9 33.4 6 27.8-36.2 3.3-39.9-19.4 16.4-19.4 16.4z" fill="#442a16"/><path d="M41 72.4l16.1 3.1s-3.3-12.1 6.7-12.1c0 0-10-10.9 0-12.1s20 10.9 33.4 6 27.8-36.2 3.3-39.9c9.2 13.9 6.2 21-6.1 25.9-10.9 4.4-21.4.9-33.2 5.1C46 52 41.5 67.1 41 72.4z" opacity=".1"/><path d="M105 50.6s6 6.5 7.2 10.5 3.6 1.3 3.6-2.6c0-7.4-3-10.4-5.9-14.4" fill="#442a16"/><path d="M105 50.6s6 6.5 7.2 10.5 3.6 1.3 3.6-2.6c1.1-5.2-5.9-14.4-5.9-14.4" opacity=".1"/><path d="M41.3 73.9L57 77.5v2l-15.5-4zm4 4.4l11.2 2.8.2 2-11.1-3.2z" fill="#754c24"/></symbol><symbol id="top_12"><path d="M78.1 20.6C59.9 21.7 45.6 26.4 46 31.1s15.5 7.7 33.7 6.6 32.5-5.8 32.1-10.5-15.6-7.7-33.7-6.6zm1.3 14.5c-16.3.9-29.8-1.1-30.1-4.6s12.6-7.1 29-8.1 29.8 1.1 30.1 4.6-12.6 7.1-29 8.1z" opacity=".1"/><path d="M78.1 19.6C59.9 20.7 45.6 25.4 46 30.1s15.5 7.7 33.7 6.6 32.5-5.8 32.1-10.5-15.6-7.7-33.7-6.6zm1.3 14.5c-16.3.9-29.8-1.1-30.1-4.6s12.6-7.1 29-8.1 29.8 1.1 30.1 4.6-12.6 7.1-29 8.1z" fill="#fff800"/></symbol><symbol id="top_13"><path d="M43.8 62.3c-2.8.7-3.5-1.6.2-5.3a55.4 55.4 0 0139-14c24 1 31 10 31 10s4 5-2.4 3.7c0 0-31-14.1-67.8 5.6z" fill="#743a4b"/><path d="M45.5 60.2A48.2 48.2 0 0168 50c18-4 39.1 1.6 39.1 1.6s5.9 1.1 5.9 3.3-3 .2-3 .2c-24.3-5.3-47.7-5.6-66 8 0-.1-1-.7 1.5-2.9z" opacity=".2"/><path d="M71.5 50.2c1-2.7.6-9.5-.9-13.5-.2-.5-.9 1.4-1.1 1-1.7-6.5-3.7-6.9-5-7.2l-1.1 2c.8-6.1-5.2-9.5-5.2-9.5l.4 1.6c-1.9-2-4.1-3.6-6.5-5-.3-.3-.3-.3-.2.2.2 2.7.8 5.4 1.8 7.9l-1.2-1s.5 6.9 6.5 8.7l-2.3.2c.4 4.6 5 6.6 5 6.6s-2.5-.3-2.2.1c3.1 3.8 7.3 6.6 12 7.9z"/><path d="M71.5 50.2c1-2.7.6-9.5-.9-13.5-.2-.5-.9 1.4-1.1 1-1.7-6.5-3.7-6.9-5-7.2l-1.1 2c.8-6.1-5.2-9.5-5.2-9.5l.4 1.6c-1.9-2-4.1-3.6-6.5-5-.3-.3-.3-.3-.2.2l19.6 30.4z" fill="#010101" opacity=".1"/><path d="M62.9 50.7c-.3-2.1-2.9-6.7-5.2-8.9-.3-.3-.1 1.3-.4 1-3.4-3.9-4.9-3.5-5.9-3.2l-.1 1.8c-1.5-4.5-6.8-4.7-6.8-4.7l.8.9c-2-.7-4-1-6.1-1.2-.3-.1-.3-.1-.1.2 1.1 1.8 2.4 3.4 3.9 4.8l-1.2-.3s2.7 4.5 7.4 3.7l-1.5.9c1.8 3 5.7 2.7 5.7 2.7s-1.8.7-1.5.8c3.5 1.7 7.3 2.2 11 1.5z" fill="#39b54a"/><path d="M62.9 50.7c-.3-2.1-2.9-6.7-5.2-8.9-.3-.3-.1 1.3-.4 1-3.4-3.9-4.9-3.5-5.9-3.2l-.1 1.8c-1.5-4.5-6.8-4.7-6.8-4.7l.8.9c-2-.7-4-1-6.1-1.2-.3-.1-.3-.1-.1.2 1.1 1.8 2.4 3.4 3.9 4.8l-1.2-.3s2.7 4.5 7.4 3.7l-1.5.9c1.8 3 5.7 2.7 5.7 2.7s-1.8.7-1.5.8c3.5 1.7 7.3 2.2 11 1.5z"/></symbol><symbol id="top_14"><path d="M45 55l-6-18.8s4 8.9 11 6.8 8-17.1 8-17.1 3 12.4 11 12.2S79.5 24 79.5 24 83 37 88 37c10.1 0 13-12.1 13-12.1s3 16 8 16c3.1-.1 6-1.4 8-3.8l-6 15c0 .1-49-5.6-66 2.9z" fill="#ffe000"/><path d="M45 55c30-2.7 51.9-8.9 56-30.1 0 0 3 16 8 16 3.1-.1 6-1.4 8-3.8l-6 15c0 .1-49-5.6-66 2.9z" opacity=".05"/><path d="M44.5 62.2A70.3 70.3 0 0183 51c23 0 27.2 3.9 27.2 3.9l3.2 4.4s3.1 3.2 5.1-.8-3-12-18-15-42 0-54 7-7 15-5 15H43l1.5-3.3z" fill="#c69757"/><path d="M44.5 62.7A70.3 70.3 0 0183 51.5c23 0 27.2 3.9 27.2 3.9l3.2 4.4s3.1 3.2 5.1-.8C109 37 39 49 39.4 63.9c.6 1.3 1.5 2.1 2.1 2.1H43l1.5-3.3z" opacity=".1"/><circle cx="101.7" cy="22.2" r="6.8"/><path d="M108.5 23a6.8 6.8 0 01-7.6 6 7 7 0 01-4.6-2.5c1.7.6 6.1 1.3 8.9-1.4 2-1.9 2.1-5.6 1.6-7.4a6.8 6.8 0 011.7 5.3z" fill="#010101" opacity=".25"/><circle cx="100.7" cy="39.2" r="2.5"/><circle cx="60.7" cy="40.2" r="2.5"/></symbol><symbol id="top_15"><path d="M133 48.8c-1.9-8.6-10.2-12.6-28.2-9.5C99.4 32 89 19 82 15l-3.7-2-21.3-.2c-3.2.3-5.8.7-7.2 1.5 0 0-.7 3-1.9 4.1-2.9 2.4 5.1 3.4 5.1 3.4l-2 3 4 2v3c1.8 6.9-.3 14-.3 14s1.2 1.6-17.2.4C19.1 43 23 65.8 36 63.8l8.9-1a171 171 0 0049.4-9.4c3.8-1 7.6-1.6 11.5-1.9 3.7 2.8 6.8 6.3 9.2 10.2l.3-.2-.2.1c0 .2 19.9-3.8 17.9-12.8zm-21.5 3c1.7.2 3.2.9 4.5 2-1.4-.9-2.9-1.6-4.5-2z" fill="#fff"/><path d="M105.8 51.5c3.7 3 7 6.2 9.2 10.5 0 0 6.3-2.8 1.6-8 0 0-1.6-3-10.8-2.5z" opacity=".5"/><path d="M37.8 63.4s33-.9 56.8-10c0 0 16.7-4.6 21.7.4s-.9 8-.9 8 20-4 18-13-11-13-31-9-18.6 17.3-64.6 23.6z" opacity=".25"/><path d="M70.9 13c11 11.6 22 25.6 19 31.6 5-2.5 8.1-4.2 14.9-5.3-2.9-4.2-6-8.2-9.2-12.1C95.6 27.2 83 14 78 13z" opacity=".1"/><path d="M54.4 44c9 2 29.2-2 45.5-11.5l-8.6-9.9c-.5 2-30.7 7.7-36.3 8.4.9 3.5.2 7.8-.6 13z"/><path d="M69.9 26L83 22.2c2-.6 4 .6 4.6 2.5l3.3 11.4c.6 2-.6 4-2.5 4.6l-13.1 3.8c-2 .6-4-.6-4.6-2.5l-3.3-11.4c-.6-2 .6-4 2.5-4.6z" fill="#ffe000"/><path d="M73.9 28.5l7.1-2c1.5-.4 3 .4 3.5 1.9l1.9 6.6c.4 1.5-.4 3-1.9 3.5l-7.1 2c-1.5.4-3-.4-3.5-1.9L72 31.9c-.4-1.5.4-3 1.9-3.4z"/></symbol><symbol id="top_16"><path d="M43.5 62.2s-7.5-.2-9.4-3.8c-.2-1.1-.2-2.3-.1-3.5a45.7 45.7 0 0147-37c32 1 44 33 42 43-1 3-6 5-7.6 3.5C111 57 99.9 53.4 83 54c-32 0-39.5 8.2-39.5 8.2z" fill="#fff"/><path d="M83 20s16 8 18 25l-6 10c15 0 21 10 21 10s5 0 7-4.3c.7-5 .1-14.2-11.1-28.2 0 0-10.9-13.5-28.9-14.5 0 0-4 1 0 2z" opacity=".05"/><path d="M43.6 61.9s-7.5-.1-9.2-3.6c-1.4-2 14.7-11.9 47-11.3s43.4 11.7 41.4 14.1c-2 4.1-7.5 3.9-7.5 3.9 0-.7-2.6-11.9-31.9-10.6-34.4.6-39.8 7.5-39.8 7.5z" opacity=".2"/><g opacity=".1"><path d="M34.8 57.7s4.9 4.1 7 4.3l1.2-.6-7.3-4.7-.9 1zM41 53.2l7.7 5.8 2.3-.8-7.4-6zM54.6 49.2l5.1 7.4 3.2-.6-4.7-7.5zM70.4 47.2l2.3 7.6 2.9-.2-1-7.6zM89.1 47.3l-1.3 7.1 2.8.1 2.3-6.8zM105.2 49.9l-3.8 6.1 2.4.7 4.3-6zM118.9 55.6l-7.6 4.1 2.5 1.6 8-3.2z"/></g><ellipse cx="96.2" cy="32.5" rx="8.2" ry="9.5"/><path d="M122.2 51.8a9.5 9.5 0 01-7.5-6c-1.1-2.9-.9-6.1.7-8.8 3.1 4.4 5.5 9.4 6.8 14.8zM52.9 32.2c-1.8 5-6.6 7.7-10.9 6.2l-1-.5s5-8 11.8-12c.8 2.1.8 4.3.1 6.3zM81.1 23.6c-1.3 5.1-5.9 8.3-10.3 7.1s-6.7-5.9-5.7-10.8C71 18 74 18 80.7 18a9 9 0 01.4 5.6zM50 50.2V50a9.3 9.3 0 019.5-9c4-.1 7.6 2.4 9 6.1A80.4 80.4 0 0050 50.2z"/></symbol><symbol id="top_17"><path d="M46.5 58.2s-12-.6-16.5-3.8a9.1 9.1 0 006-4.3c1.5-2.5 2.1-5.4 1.7-8.3 0 0 9.1-.3 13.8-5.5S57 23.7 57 23.7s7.9 4.1 21.5 1.8S95.3 18 95.3 18s2.2 9 9.4 12c4.6 1.8 9.4 3 14.3 3.6-.7 8.6-6.1 13.5-13 15.8-19.6-7.1-59.5 8.8-59.5 8.8z" fill="#112289"/><path d="M46.5 58.2s-12-.6-16.5-3.8a9.1 9.1 0 006-4.3c1.5-2.5 2.1-5.4 1.7-8.3 0 0 9.1-.3 13.8-5.5S57 23.7 57 23.7s7.9 4.1 21.5 1.8S95.3 18 95.3 18s2.2 9 9.4 12c4.6 1.8 9.4 3 14.3 3.6-.7 8.6-6.1 13.5-13 15.8-19.6-7.1-59.5 8.8-59.5 8.8z" opacity=".1"/><path d="M45 62s13.7-13.6 49.7-11.3c0 0 11.3 2 14.6 4.8 0 0 .4-13.9-16.2-16s-35.6 1.6-43.5 11.7A25.9 25.9 0 0045 62z" fill="#1524a5"/><ellipse cx="94.1" cy="43.1" rx="5" ry="7.7" fill="#111c60"/><ellipse cx="95.7" cy="43.1" rx="5" ry="7.7"/></symbol><symbol id="top_18"><path d="M75.3 38.8A13.9 13.9 0 0060 34c-10 3-7.4 13.4-16.2 19.2S34 51 34 51s-1 24 21 16c0 0 9-2 12-9-.1 2.5-.7 4.9-2 7 4.7-.8 9.4-1.7 14-7 0 0 3-5 4 0 3 7 14 7 14 7s-3-6 0-10c3-3 2.8-1.8 2.8-1.8S103 63 113 62s10-12 10-12-3 7-6 2-10.4-21.1-17.7-13.5-24 .3-24 .3z"/><path d="M74 22l2 24s11-3 22 1l5-25-10 10-4-16-7 15-8-9z" fill="#ff0"/><path d="M75.8 43.4L76 46s11-3 22 1l.5-2.6a40.2 40.2 0 00-22.7-1z" fill="#d68227"/><g opacity=".2"><path d="M89 16l4 16.4-3-1.8-2.3-11.8zm-15 6.4l8 8.2-3 .9-4.7-5.8zM93.5 45.6l4.1 1.3 5.9-24.8-5.6 5.2-4.4 18.3z"/></g></symbol><symbol id="top_19"><path d="M105.1 24.3h7.9S94.2 9.8 75 21.6C69.2 25 63.4 35.7 61 45.2c0 0 23.5-7.7 33.8 11.8h4.8L113 24.3z"/><path d="M113 24.3S92.8 8.7 73.4 22.7c0 0 11.5-10.3 31.7 1.6z" fill="#fff" opacity=".5"/><path d="M94.8 57h4.7L113 24.3h-7.9z" fill="#010107" opacity=".1"/></symbol><symbol id="top_20"><path d="M83.8 43.4A8.3 8.3 0 0082 46c-1 2 1 7 7 8s11 2 12-3-13.4-8.3-17.2-7.6z" opacity=".2"/><path d="M82.8 44.8L102 19l-3.6 29.8C97 55 79 55 82.8 44.8z" fill="#fff"/><path d="M82.8 44.8C91 51 96 40 97.9 24.4L102 19l-3.6 29.8C97 55 79 55 82.8 44.8z" opacity=".15"/><path d="M98.8 45S89 52 85 41.8l1.3-1.7s4.7 8 12.8 3zm-8.9-9.7s3.5 7.7 9.8 2.7l.3-2c-3.3 1.6-6.3 1.3-9-2.3zm4.1-5.6s2 4.2 6.5 1.7l.2-2.2s-3.4 2-5.6-1z"/></symbol><symbol id="top_21"><path d="M74.9 33.5s-7-2.4-6.2-9.6 9.5-11.4 15.3-5.1c3.4 3.4 4.1 8.6 1.8 12.8l-10.9 1.9z" fill="#fff"/><path d="M79.8 26.6c-31.7-1.6-33.9 27-33.9 27l65 .8c-.1-.1.5-26.3-31.1-27.8z"/><path d="M46.1 49.8s-4.7 1.2-5.4 4.6-1.2 7.8-1.2 7.8c.1 1.9 2.9 4.1 2.9 4.1l1.1-2.7c10.8-5.8 42.1-8.4 50.7-8.8 5.6-.1 11.2.3 16.7 1.1l2.2 3.4 3.6-2.5c.7-.4 1.1-1.2.7-2-.6-1.4-3-10.3-5-11.7-1.3-.9-11-2.3-28.8-.4a269.2 269.2 0 00-37.5 7.1z" fill="#fff"/><path d="M39.5 62.2c.1 1.9 2.9 4.1 2.9 4.1l1.1-2.7c10.8-5.8 42.1-8.4 50.7-8.8 5.3-.1 10.5.2 15.7 1.1l3.2 3.5 3.6-2.5c.7-.4 1.1-1.2.7-2-3.9-9.4-80 2.4-77.9 7.3z" opacity=".12"/><g opacity=".2"><path d="M45.7 49.8s-1.4 7.5-1.2 9.4c.1 1.2.4 2.3.8 3.4l2.1-.7-.8-3.4 1.1-9.2-2 .5z"/><path d="M48.5 49.2s-1.4 7.5-1.2 9.4c.1 1.2.4 2.3.8 3.4l2.1-.7-.8-3.4 1.1-9.2-2 .5zM55.9 47.4l-.3 8.8 1 3.3 2-.3-.9-3v-9.1z"/><path d="M58.3 46.8l-.3 8.8 1 3.2 2-.3-.9-3v-9zM67.7 45l.9 9.2-.1 3.2 2.7-.3-.4-3.1-1.2-9.3zM71.1 44.4l.8 9.2v3.2l2.6-.3-.3-3.2-1.2-9.2zM83.9 55.4l.1-3.1-1.1-9.6 2.5-.2 1.4 9.5-.7 3.4zM87.2 55.2v-3l-1.1-9.6 2.5-.3 1.4 9.6-.7 3.3zM99 41.7l1.4 9.5-.4 3.6 2.3.2.6-3.7-1.8-9.6zM102.4 41.7l1.8 9.6-.5 3.8 2.5.2.5-3.8-2-9.7zM111.7 42.7l3.9 10.4-4.9 2.7 1.4 2 5.5-3.2-3.5-8.9c.1 0-1-2.6-2.4-3z"/></g></symbol></svg>