<svg xmlns="http://www.w3.org/2000/svg"><path fill="currentColor" d="M40.5 74a6.8 6.8 0 0 1-5.5-3c-3-5-16-11-21-11s3 8.5 3 8.5 0 1.2 2 2.4c2 1.3 4 1.3 2 1.3s-3 0-2 2.4 4 2.4 4 8.5-10 13.4-8 14.6 7-1.2 11-4.9c4-3.6 8-13.3 14-12.1 5-.7 3.3-6.5.5-6.8zm12.9 7.6s19.2 4.6 15.5 6.2-20.6 6.5-29 1.5-1.3 2.7 13.5-7.7m66-1.2a35 35 0 0 1-2.3 10.4s16.6-3.8 20.8-8.4c7.1-7.9 2.6 2-18.5-2"/><path fill="#010101" d="M28 84.1C25 91 13 96.5 15 97.7s7-1.2 11-4.9c4-3.6 8-13.3 14-12.1 3.3-.5 3.7-3.2 2.7-5a2 2 0 0 0-1.9-1.1C43 79 30 78 28 84.1m37.6 1s4.7 2 3.3 2.7c-3.6 1.5-20.6 6.5-29 1.5l-3.2-1.6c7.4 4.1 33.1-1.5 28.9-2.6" opacity=".1"/><path d="M22 66s5 0 10 5 2 6 2 6-7 2-8 7 3-14-4-18m31.6 15.5 12 3.4c-7.5 2.2-16 3-25.4 2.9 0 0 7.9-2.4 13.4-6.3m65.4-1.1-.7 6s12.1-3.1 18.5-5.4c0 0-9.8 1-17.7-.6z"/></svg>