<svg xmlns="http://www.w3.org/2000/svg"><path fill="currentColor" d="M42 66.5c-2.1-4-6.6-6.2-11-5.5-8 1-10 4-12 9s7 17 7 17l6 6c1 1 0 7 4 9s13 0 13-4-4-5-5-18l1-9zm72-5.4s14.3-7.4 19.7-1-5.5 18.1-5.5 24.5.5 9.3-5.3 12.1c-7.1 3.5-6.8-.7-6.8-.7-1.1 0 6.6-19-2.1-34.9"/><path d="M44 74c-1-2-6-7-12-4s-3 10 1 14c2.3 2.3 4.8 4.5 7.4 6.5L44 92s3-1 0-5c-2.1-2.9-.9-5.8.1-7.6l.8-1.5C45 77 45 76 44 74m74-4.3c.5-2 3.6-6.7 7.3-3.8 3.7 2.8 1.9 9.6-.6 13.4-1.4 2.2-3.2 5-4.6 6.2-.7.6-2.5 1.3-2.5 1.3s.3-1.5.5-4.6a48.6 48.6 0 0 0-.4-9.7c-.1-1.3-.3-1.6.2-2.8z"/><path d="M42 66.5c-2.1-4-6.6-6.2-11-5.5 13 4 14 32 13 19l1-9z" opacity=".1"/><g fill="#010101"><path d="M31 61c-8 1-10 4-12 9s7 17 7 17l6 6c1 1 0 7 4 9 1.8 1 6.6 1.1 10.2-.6 3.7-1.8 3-3.9 2.1-6.3 1 4.7-12.5 8.3-13.6.6C33.8 89.7 22 80.2 22 73c0-8 4.9-8.9 9-12m87.6-1.8s9.9-1.4 11.6 4.4c2 6.7-3.8 11.7-4.8 16.7S125 87 124 92c-.4 2.8-2.4 5-5.1 5.9 0 0 9.7-1.1 9.3-9.6-.4-7.7 1.9-10.2 3.7-13.9 1.8-3.6 5-8.9 2.1-13.8-2.6-4.7-12-2.7-15.4-1.4" opacity=".1"/><path d="M44 74c-1.5-2.4-6.1-6.8-12-4-6 3-3 10 1 14 2.3 2.3 4.8 4.5 7.4 6.5L44 92c-13-7.2-19.2-27.2 0-18m73.9-4.315c.124-.48 3.388-7.098 7.391-3.837 3.634 2.878 1.848 9.593-.616 13.43-1.416 2.206-3.264 5.084-4.557 6.235-.74.672-2.526 1.247-2.526 1.247 8.192-6.715 12.134-25.9.308-17.075" opacity=".2"/><path d="M39 75c-2 0-4 3-2 6s6 3 6 3-1-.9.5-3.5S41 75 39 75m81.98-4.355c1.232 0 2.463 2.877 1.232 5.755s-4.004 2.878-4.004 2.878 0-1.919-.123-3.55c-.37-2.685 1.663-5.083 2.895-5.083" opacity=".5"/></g></svg>