<svg xmlns="http://www.w3.org/2000/svg"><path fill="#fff" d="m26.4 71 2.4 24-2.4 2v3.3s0 1.7 2.4 2.3c2.5.5 7.1 2 14.2 1.4 3.8-.3 7.5-1.3 11-2.9a3 3 0 0 0 1.8-2.5l-.9-3.6-2.4-2-2.4-23"/><g fill="#fcbb00"><path d="m28.9 71.2 2.5 23.7-3.7 3s0 1.3 4.9 2c6.7 2.2 17.7-.1 20.9-1.9 2.5-.9.5-2 .5-2l-2.5-3L49 70.2z"/><path d="M54.9 97.2c.1 1.7-5.9 4.4-13.4 4.8s-13.8-1.6-13.9-3.2 5.9-3.4 13.5-3.8 13.6.5 13.8 2.2" opacity=".5"/></g><path fill="#ffd22d" fill-opacity=".5" d="M34.6 93c-.9.1-1.7-.5-1.9-1.4l-1.1-13c0-.9.8-1.6 1.7-1.6.9-.1 1.7.5 1.9 1.4l1 13c0 .9-.7 1.6-1.6 1.6m5.9 0c-.9.1-1.7-.5-1.9-1.4l-1.1-13c0-.9.7-1.6 1.6-1.6.9-.1 1.7.5 1.9 1.4l1 13c.1.9-.6 1.6-1.5 1.6m5.9-1c-.9.1-1.7-.5-1.9-1.4l-1.1-13c0-.9.7-1.6 1.6-1.6.9-.1 1.7.5 1.8 1.4l1.1 13c.1.9-.6 1.6-1.5 1.6"/><path fill="#fff" d="M29.7 72.9s-8.1 2.2-6.9-4.4c0 0-4.9-5.5 1.2-5.5 0 0 1.2-4.4 6.1 0 0 0 4.9-7.7 9.8 1.1 0 0 3.7-4.4 6.1 2.2 0 0 7.6 2.4 2 5.1S31.7 74 29.7 72.9"/><path fill="#ffefae" fill-opacity=".5" d="M30.9 72.4S24 74.2 25.1 69c0 0-4.1-4.3 1-4.3 0 0 1-3.5 5.2 0 0 0 4.1-6.1 8.3.9 0 0 3.1-3.5 5.2 1.7 0 0 6.4 2 1.7 4s-14 2-15.6 1.1"/><path d="M41.2 64.4S43 64 43 67s-3.1 3.9-3.1 3.9.8-.9 1.9.1-1.5 1.7-1.5 1.7 6.4-.3 8.7-2.5-3.6-3.2-3.6-3.2 0-3.1-4.2-2.6M31.1 66c.7 1.9 2.7 3 4.7 2.6 0 0-3.5 2.4-4.7-2.6m-3.7 1.1c1.2.7 2.7.5 3.8-.4 0 0-.6 2.6-3.8.4m10.5 1.4s2.4-.8 1.7-2.9c-.1.1 2.2 1.9-1.7 2.9" opacity=".1"/></svg>