<svg xmlns="http://www.w3.org/2000/svg"><path fill="currentColor" d="m14.2 80.3 6.1-.9c1.7-.2 3.3.9 3.5 2.6s-.9 3.3-2.6 3.5l-6.1.9c-1.7.2-3.3-.9-3.5-2.6s.9-3.2 2.6-3.5"/><path fill="#e0e0e0" d="M36.3 92.3 36 99c-.3-.3 2.7 2.3 5 0l-.4-7.8zm93.3 4.8-.8 6.7c-.3-.3 2.5 2.5 5 .3l.1-6.1a6 6 0 0 1-4.3-.9M34 42.2s.9-4.3 3.5-1.7 5.8 16.1 2.4 23.9c-.8 4.7-.6 5.7-.6 5.7-1.1.5-2.4.5-3.5 0zm95.5 8.6-.8 15.4s-.2 4.6 4.4 4.9 5.5-2.8 5.6-4.3l.8-15.4s-1.2.3-1.4 4.2-1.2 7.6-2 7.6h-.6c-.5 0-.9-.2-.8-2.4.2-3.1.5-9.2-.3-9.3s-1.3 9.2-1.3 9.2-.1 2.3-1.7 2.2-1.1-8.5-1.1-8.5.4-4-.8-3.6m1.4 26.2-2.4 7.8 2 .2 2.2-7.3z"/><g fill="#fff"><path d="M37.5 40.4S44 50 39.9 64.3c.5 5.7-.3-22.2-2.4-23.9" opacity=".1"/><path d="M34.6 42c.3 0 .5.2.5.5l1.7 26.9c0 .3-.2.5-.5.5s-.5-.2-.5-.5l-1.7-26.9c0-.2.2-.4.5-.5m104.9 9.3s-.9 3-1.4 10.7c0 0 0 8.4-2.6 8.7 0 0 2.8.4 3.3-8.8zm-5.1 8.9.5-8.5s-.4 8.5-.1 10-.5 1.5-.5 1.5z" opacity=".3"/><path d="M27 68.2a7 7 0 0 0-1.7 5.9l.1 1.6s-7.9-2.3-7.6 4.2l.1 1.7c.2 5.3.8 7.8 4.1 9.7 3.6 2.1 4.2-1.4 6.5-.2s14.6 10.2 18.1-1.6l.5-5.2c.2-2.6 1.8-4.3.6-9.4s-6.1-6.6-10-6.1c0 0-.6.3-1.7-1.6s-6-3.5-9 1"/></g><path d="m25 80.4 4.4-.4c.2 0 .5.2.5.4s-.2.5-.4.5l-4.4.4c-.2 0-.5-.2-.5-.4s.1-.4.4-.5m.2 1.8 4.4-.4c.2 0 .5.2.5.4s-.2.5-.4.5l-4.4.4c-.2 0-.5-.2-.5-.4 0-.3.2-.5.4-.5m.3 1.7 4.4-.4c.2 0 .5.2.5.4s-.2.5-.4.5l-4.4.4c-.2 0-.5-.2-.5-.4s.1-.4.4-.5"/><path fill="#d8d8d8" d="M124 73.5a6.8 6.8 0 0 0-1.6 5.8l.1 1.6-3.3-.3-1.4 7.7c.8.6 1.5 1.2 2.1 1.9.6 1 3.5 4.4 5.8 5.5l2.4 1.3c4.4 2.4 12.7 6 15.2-3.3l.4-5.1c.2-2.5 1.7-4.2.4-9.2s-6-6.3-9.8-5.8c0 0-.6.3-1.7-1.5s-5.8-3-8.6 1.4"/><path fill="#fff" d="M127.2 96.5c4 2.3 13.4 7.1 16.1-2.8l.4-5.1c.2-2.5 1.7-4.2.4-9.2s-1.3-5-9.8-5.8c-7.8-.7-5.5 11.9-7.8 20-.3.8.1 2.5.7 2.9"/><path d="M28.4 91c-2.5-.9 14.7 10.2 18.1-1.6l.5-5.2c.2-2.6 1.8-4.3.6-9.4s-6.1-6.6-10-6.1C49 70.9 40.8 94.4 28.4 91m97.3 4.7c-2.4-.8 14.4 9.6 17.6-1.9l.4-5.1c.2-2.5 1.7-4.2.4-9.2s-6-6.3-9.8-5.8c11.1 2 3.5 25-8.6 22" opacity=".05"/><path d="M19 88.4c.8 1.1 1.8 2 2.9 2.8 3.6 2.1 4.2-1.4 6.5-.2 2 1.1 11.7 8 16.4 1.9.7-1.1 1.2-2.3 1.7-3.5-1 1.6-4.9 2.7-8.7 2.3-5.2-.5-8.3-4.6-11.5-4.4-5.4 2.1-7.3 1.1-7.3 1.1m98.8-.1s5.7 6.2 7.9 7.4c2 1 11.6 7.6 16 1.5a26 26 0 0 0 1.6-3.4c-.9 1.6-4.7 2.7-8.4 2.4-5.1-.3-8.1-4.3-11.3-4.1a26.3 26.3 0 0 0-5.8-3.8" opacity=".16"/></svg>