<svg xmlns="http://www.w3.org/2000/svg"><path fill="#42210b" d="M54.7 74.4s-11.6-.4-13.3-2.7-5.8 6.4-5.8 6.4-4.7 4.7-8.5 4.4a60.8 60.8 0 0 1-11.3-5.8l9.8 10.7 9.3.6 2.5-2.4-1.7 8.5 1.7 9.1.6-9 5.5-12.7 4.7.3 2.1 3.2 2.3.2c.2.1 5.1-3.5 2.1-10.8m64.4 1.8s6.8 4.7 10.5 4.4c2.4-.2 11.4-5.8 11.4-5.8l-9.8 10.7-9.3.6-2.5-2.4 1.7 8.5-1.7 9.1-.6-9-1-2.4a45.3 45.3 0 0 0 1.3-13.7"/><path fill="#010101" d="m141.2 74.8-9.8 10.7-9.3.6-2.5-2.4 1.7 8.5-1.7 9.1-.6-9-1.1-2.4 1.4-8.4 6.3 1.9c5.6.5 10.6-3.9 15.6-8.6m-125.6 2 9.8 10.7 9.3.6 2.5-2.4-1.7 8.5 1.7 9.1.6-9 5.5-12.7 4.7.3 2.1 3.2 2.3.2a8.4 8.4 0 0 0 2.9-5.8c0-.5-13.1-1.5-13.1-1.5l-11 7.5c-5.6.4-10.6-4-15.6-8.7" opacity=".7"/><path d="M26.8 61.1s-2.6 17.7 10.6 16.2c0 0 10.3-9.4-10.6-16.2m6.2 51.6s12.5-6.6 5.4-14.4c-.1.1-10.9-2.1-5.4 14.4M26.3 96s11.1 4.6 12.3-4.3c.1.1-4.4-8.2-12.3 4.3M11.1 76.8s7.6 11 14.1 3.4c0 0 .8-10.4-14.1-3.4m118.1-13.7s2 13.5-8.1 12.4c0 0-7.9-7.2 8.1-12.4m1.3 30.9s-11.1 4.6-12.3-4.3c0 .1 4.4-8.2 12.3 4.3m16.4-19.4s-8.2 11.8-15.2 3.7c0 0-.9-11.2 15.2-3.7"/><path fill="#010101" d="M26.8 61.1s-2.6 17.7 10.6 16.2zm6.2 51.6s12.5-6.6 5.4-14.4zM26.3 96s11.1 4.6 12.3-4.3zM11.1 76.8s7.6 11 14.1 3.4zm118.1-13.7s2 13.5-8.1 12.4zm1.3 30.9s-11.1 4.6-12.3-4.3zm16.4-19.4s-8.2 11.8-15.2 3.7z" opacity=".2"/></svg>