<svg xmlns="http://www.w3.org/2000/svg"><path fill="#5e5e5e" d="M125.8 71.4s19.2 1.4 19.6 2.8c.1.4-18.2 9.7-17 9.1 0 0 2.4-5.8 2.1-7.1s-4.7-4.8-4.7-4.8"/><path fill="#e2e2e2" d="M125.2 71.3s19.2 1.4 19.6 2.8c-5 1-14.6 2.4-14.6 2.4z"/><path fill="#603813" d="m130.6 79.2-11.6 1v-4.7l10.8-.8s5 .4 5.2 1.2-2.7 3-4.4 3.3m-76 4.5-36.5 2s-2.8.1-3-1.6c-.1-1.5.8-2.4 2.6-2.9L54 77.5a3.2 3.2 0 0 1 3.4 2.8 3 3 0 0 1-2.8 3.4"/><path d="m54.6 83.7-36.5 2c-1.8 0-2.8-.5-3-1.6 17-1.2 44.2-2.4 42.3-3.8 0 .1.5 2.7-2.8 3.4" opacity=".2"/><path d="m38.8 80.4-5.4-5.8-17.1.1 6.1 6.6zm.6 2.8-6.6 7.9-17.1 1.2 6.6-7.9z"/><path fill="#010101" d="M23.8 76.7c.2-.2.5-.2.7 0l2.7 2.9c.2.2.2.5 0 .7s-.5.2-.7 0l-2.7-2.9a.5.5 0 0 1 0-.7m-3 0c.2-.2.5-.2.7 0l2.7 2.9c.2.2.2.5 0 .7s-.5.2-.7 0l-2.7-2.9a.5.5 0 0 1 0-.7m6 0c.2-.2.5-.2.7 0l2.7 2.9c.2.2.2.5 0 .7s-.5.2-.7 0l-2.7-2.9a.5.5 0 0 1 0-.7m3 0c.2-.2.5-.2.7 0l2.7 2.9c.2.2.2.5 0 .7s-.5.2-.7 0l-2.7-2.9a.5.5 0 0 1 0-.7m3 0c.2-.2.5-.2.7 0l2.7 2.9c.2.2.2.5 0 .7s-.5.2-.7 0l-2.7-2.9a.5.5 0 0 1 0-.7m-6.6 9c.2.2.2.5 0 .7l-2.7 2.9c-.2.2-.5.2-.7 0a.5.5 0 0 1 0-.7l2.7-2.9c.2-.2.5-.2.7 0m-3 0c.2.2.2.5 0 .7l-2.7 2.9c-.2.2-.5.2-.7 0a.5.5 0 0 1 0-.7l2.7-2.9c.2-.2.5-.2.7 0m6 0c.2.2.2.5 0 .7l-2.7 2.9c-.2.2-.5.2-.7 0a.5.5 0 0 1 0-.7l2.7-2.9c.2-.2.5-.2.7 0m3 0c.2.2.2.5 0 .7l-2.7 2.9c-.2.2-.5.2-.7 0a.5.5 0 0 1 0-.7l2.7-2.9c.2-.2.5-.2.7 0m3 0c.2.2.2.5 0 .7l-2.7 2.9c-.2.2-.5.2-.7 0a.5.5 0 0 1 0-.7l2.7-2.9c.2-.2.5-.2.7 0" opacity=".2"/></svg>