<svg xmlns="http://www.w3.org/2000/svg"><path fill="currentColor" d="m139.5 61.5-7.4 13.3-12.8 7.7s-.6 4.6-1 5.9c-1.1 4 20.1 2.3 22.3-1.7l-2.8-4.7 11.2-9.6c1.4-2.5.9-3.7-1.9-3.4l-10.9 8.1 6.8-13.4c.6-2.8-2-3.3-3.5-2.2m-20.1 20.9 6.3-9.8c.8-.9 1.8-1 3.1-.4a142 142 0 0 0 8.2 6.5s-.6 2.8-4.4 2L129 80s.6 3.1-3.4 3.7-6.2-1.3-6.2-1.3M25.8 63.7 34 77.3l14.6 7.6s.6 4.8 1 6.1c1.2 4.1-21.6 3-24-1l1.6-5.1-12.7-9.6c-1.6-2.5-.9-3.8 2.3-3.5l12.4 8.1-7.5-13.7c-.6-3 2.3-3.6 4.1-2.5m22.6 21.1-7.1-9.9q-1.35-1.35-3.6-.3s-3.9 2.6-2.1 1.5-7.6 5.5-7.6 5.5.6 2.9 5 2l4.4-.9s-.8 3.2 3.8 3.8 7.2-1.7 7.2-1.7"/><path fill="#010101" d="m119.4 82.4 6.3-9.8c.8-.9 1.8-1 3.1-.4a142 142 0 0 0 8.2 6.5s-.6 2.8-4.4 2L129 80s.6 3.1-3.4 3.7-6.2-1.3-6.2-1.3m-71 2.4-7.1-9.9q-1.35-1.35-3.6-.3s-3.9 2.6-2.1 1.5-7.6 5.5-7.6 5.5.6 2.9 5 2l4.4-.9s-.8 3.2 3.8 3.8 7.2-1.7 7.2-1.7M22 64.1c1.3 0 2.5.8 3 1.9l6.9 12.9 2.1-1.6L26 64a2.8 2.8 0 0 0-4 .1c0-.1 0 0 0 0m127 5c.2 1.3-1.2 2-2.2 2.7L136 80l1.9 1.8 11.1-9.4c.6-1 1.3-2.4 0-3.3m-7.7-8.1s.5.8-.7 2.7l-7.2 11.7 2.5 1.9 7-13.3c0 .2 1-2.7-1.6-3M13.718 72.868c.991-.42 2.006.258 3.024 1.137 1.73 1.364 10.764 7.677 10.764 7.677l2.272-1.348-12.982-8.53c-1.304-.173-2.799.058-3.078 1.064M139.5 84.9S125 91 118 88l.4 1.1s3.3 2.5 12.5 1.2c0 0 8.1-1.3 9.1-3.3zm-444.159-12.002s15.591 7.869 22.746 5.258c0 0 .25.915-.26 1.087-3.372 1.217-6.174 1.163-14.001-.37 0 0-7.822-1.632-9.377-4.321zM48.4 84.8l-7.1-9.9q-1.35-1.35-3.6-.3s-3.9 2.6-2.1 1.5-7.6 5.5-7.6 5.5c2.3-1.3 13.5-7.2 20.4 3.2" opacity=".1"/></svg>