<svg xmlns="http://www.w3.org/2000/svg"><path fill="currentColor" d="M42 66.5 26 51c-.9-.2-4 9-4 19s4 15 6 17l7 7c3 3 6 4 10 6 3 1 4 2 4-2s-4-5-5-18l1-9zm72-5.4c3.6-4.7 19.7-11 19.7-11s2.2 12.2-4.8 28.8c-2.5 6-6 14.5-9 16.8s-3.8.3-3.8.3c-1.1 0 7.9-19-2.1-34.9"/><path fill="#010101" d="M26 52.2C41 69 43.6 78.7 43.6 78.7l1.4-8.6S29 52 26 52.2m95.6 3.6 8.6-1.7c1 6-1.6 15.2-3.1 20-2.7 8.3-4.9 12.9-7.1 17.9s-3.9 4-3.9 4c1 1.8 4.7.8 8.5-7.4 2.4-5.4 4.8-10.4 6.4-15.8 0 0 3.9-10.8 2.7-22.7-4.1 1.7-8.2 3.5-12.1 5.7M25.993 84.453c22.06 18.633 21.303 13.687 21.426 9.079 2.007 2.462 2 7.15.687 7.201-1.805.147-9.904-3.78-11.796-5.653-3.784-3.747-7.22-6.746-10.317-10.627" opacity=".1"/><path d="M44 74c-1-2-15-12-15-12s-2 16 4 22c2.3 2.3 4.8 4.5 7.4 6.5L44 92s3-1 0-5c-2.1-2.9-.9-5.8.1-7.6l.8-1.5C45 77 45 76 44 74m74.5-3.4c.5-1.7 9.2-8 9.2-8s-.8 10.8-3.3 16.1c-1 2.1-2.3 4.4-4 6.2-.5.6-2.3 1.5-2.3 1.5l.5-3.7a38.8 38.8 0 0 0-.1-8.9l-.3-2.2c0-.3 0-.5.3-1"/><g fill="#010101"><path d="M44 74c2 1-15-12-15-12-.7-.1-.8 17.9 4 22l7.4 6.5L44 92c-13-7.2-19.2-27.2 0-18m74.51-3.347c.328-1.634 9.253-8.085 9.253-8.085-.548 4.473-1.04 11.87-3.504 16.515-2.19 4.215-3.012 4.903-3.778 5.763-.548.602-1.971 1.29-1.971 1.29 7.117-6.193 10.512-23.396 0-15.483" opacity=".2"/><path d="M39 75c-2 0-4 3-2 6s6 3 6 3-1-.9.5-3.5S41 75 39 75m82.248-3.486c1.094 0 2.19 2.58 1.094 5.16s-3.503 2.581-3.503 2.581l-.055-3.01c-.11-2.581 1.368-4.732 2.463-4.732" opacity=".4"/></g></svg>