<svg xmlns="http://www.w3.org/2000/svg"><path fill="#d8d8d8" d="M42.8 68.7c1.6 2.3 2 5.1 1.2 7.7l-.4 2 4.3.1c3 .9 3.2 8 .6 10.2-1.1.6-2.1 1.4-3 2.2a25 25 0 0 1-8.4 6.3l-3.3 1.4c-6 2.4-17.4 5.9-19.3-6.5l.3-6.6c.2-3.3-1.5-5.7.8-12s8.8-7.3 13.6-6c0 0 .8.5 2.4-1.7s8.3-3.3 11.2 2.9"/><path fill="#010101" d="M48.6 88.9s-8.3 7.2-11.4 8.4c-2.7 1-16.2 8.1-21-.5-.6-1.5-1.2-3.1-1.5-4.7.9 2.2 5.7 4.2 10.6 4.3 6.6.3 11.2-4.3 15.3-3.6 2.5-1.6 5.2-2.9 8-3.9" opacity=".16"/><path fill="none" stroke="#000" stroke-linecap="round" stroke-linejoin="round" stroke-width=".5" d="m41 22-16 9m24 26L27 70m19-43L19 42m29-8L16 52m25 19L28.5 27M45 65 32 20m3 52L24 34m25 24L37 17m-9 51-8-28m30 1L18 59m35-12L21 65"/><path d="M52.5 35.5c-1.7-9.2-9.7-17.8-17.9-19.4C33 15.8 20 41 12.3 53.5a50 50 0 0 0 9.2 15c9 14 11 15 12 28l1 12s-1 0-1 2 2 3 4 3 4-1 4-3a2 2 0 0 0-2-2l-1-12s-.6-20.2 8-31c8.5-10.6 8-19 6-30m-18 48-5-11s3 4 9 0zm-.1-15c-8.9.7-17.1-8.5-18.9-20.9C22 36 30 23 31.7 19.5c8.9.3 16.6 10.3 17.7 23.1 1.2 13.5-5.6 25.1-15 25.9"/><path fill="#010101" d="M34 16.4c3.2.2 5.8 2.5 8 4.6 6 6 8 10 9 21s-3.5 20.5-7.5 24.5-14 6-14 6a8 8 0 0 0 5 1c1.4-.3 2.8-.8 4.1-1.4l2.9 2.4c1.6-3.5 3.5-6.9 5.8-10a29 29 0 0 0 6.4-19.4c-.3-9-3-24.6-19.2-29zm3 87.1.5 7s.7 2.2-1.1 2.6 6.1.4 5.1-2.6a2 2 0 0 0-2-2l-.4-4.8z" opacity=".1"/><path fill="#fff" d="M35.1 98.1c-5.6 2.4-18.4 7.2-20.4-6.1l.4-6.7c.2-3.3-1.5-5.7.8-12s2.4-6.4 13.6-6c10.3.3 5.3 16.3 7.2 27.1 0 1.1-.7 3.3-1.6 3.7"/><path d="M37.2 97.2c3.2-.7-20.2 10.3-22.5-5.2l.3-6.6c.2-3.3-1.5-5.7.8-12s8.8-7.3 13.6-6c-14.8.9-8.4 31.9 7.8 29.8" opacity=".05"/></svg>