<?xml version="1.0" encoding="utf-8"?>
<!-- Generator: Adobe Illustrator 16.0.0, SVG Export Plug-In . SVG Version: 6.00 Build 0)  -->
<!DOCTYPE svg PUBLIC "-//W3C//DTD SVG 1.1//EN" "http://www.w3.org/Graphics/SVG/1.1/DTD/svg11.dtd">
<svg version="1.1" id="Layer_1" xmlns="http://www.w3.org/2000/svg" xmlns:xlink="http://www.w3.org/1999/xlink" x="0px" y="0px"
	 width="160px" height="160px" viewBox="0 0 160 160" enable-background="new 0 0 160 160" xml:space="preserve">
<g id="a4">
	
		<path fill="#FFED00" stroke="#000000" stroke-width="1.7" stroke-linecap="round" stroke-linejoin="round" stroke-miterlimit="1.5" d="
		M118.773,87.574l0.077-0.186c0,0,4.389-9.05,8.553-11.258c4.646-2.465,19.334-3.532,19.334-3.532s-5.995,6.716-8.061,16.592
		c-1.084,5.174-7.913,7.552-15.639,6.786c-3.549-0.351-6.645,1.506-8.227,2.691C116.655,95.241,118.007,91.512,118.773,87.574z"/>
	
		<path fill="#FFEE11" stroke="#000000" stroke-width="1.7" stroke-linecap="round" stroke-linejoin="round" stroke-miterlimit="1.5" d="
		M55.153,90.865c0,0-5.495-8.234-10.595-10.944c-5.249-2.79-14.235-3.283-19.45-5.334c-4.371-1.719-12.436-8.202-12.436-8.202
		s2.425,20.068,7.25,25.36c4.824,5.291,12.104,12.358,21.695,6.385c7.149-4.452,13.208,2.3,13.208,2.3s4.703,8.719,7.437,2.971
		c2.795-5.877-5.836-9-5.836-9L55.153,90.865z"/>
	
		<path fill="none" stroke="#000000" stroke-width="1.7" stroke-linecap="round" stroke-linejoin="round" stroke-miterlimit="1.5" d="
		M120.961,91.453c2.89-1.719,5.226-6.833,6.696-8.592c1.657-1.98,6.441-4.305,6.441-4.305"/>
	
		<path fill="none" stroke="#000000" stroke-width="1.7" stroke-linecap="round" stroke-linejoin="round" stroke-miterlimit="1.5" d="
		M53.885,95.191c-8.819-8.944-20.211,2.392-34.305-17.67"/>
</g>
</svg>
