<?xml version="1.0" encoding="utf-8"?>
<!-- Generator: Adobe Illustrator 16.0.0, SVG Export Plug-In . SVG Version: 6.00 Build 0)  -->
<!DOCTYPE svg PUBLIC "-//W3C//DTD SVG 1.1//EN" "http://www.w3.org/Graphics/SVG/1.1/DTD/svg11.dtd">
<svg version="1.1" id="Layer_1" xmlns="http://www.w3.org/2000/svg" xmlns:xlink="http://www.w3.org/1999/xlink" x="0px" y="0px"
	 width="160px" height="160px" viewBox="0 0 160 160" enable-background="new 0 0 160 160" xml:space="preserve">
<g id="f15">
	
		<path fill="#FFFFFF" fill-opacity="0.8941" stroke="#000000" stroke-width="1.7" stroke-linecap="round" stroke-linejoin="round" stroke-miterlimit="1.5" d="
		M107.672,99.229c-1.149,7.67-2.905,8.912-5.917,4.683c-3.175,5.12-5.48,3.05-6.711-4.128"/>
	
		<path fill="#001" stroke="#000000" stroke-width="1.7" stroke-linecap="round" stroke-linejoin="round" stroke-miterlimit="1.5" d="
		M114.081,91.128c0.082,0.353,0.124,0.714,0.124,1.079c0,4.669-6.897,8.459-15.394,8.459c-8.498,0-15.396-3.79-15.396-8.459
		c0-0.365,0.043-0.727,0.125-1.079c0.966,4.159,7.438,7.379,15.271,7.379C106.642,98.507,113.115,95.287,114.081,91.128z"/>
	
		<path fill="#001" stroke="#000000" stroke-width="1.7" stroke-linecap="round" stroke-linejoin="round" stroke-miterlimit="1.5" d="
		M124.218,64.786c0.004,0.058-4.002-1.829-10.391-1.626c-3.383,0.107-7.832,2.435-11.84,2.365c-4.09-0.071-7.461-2.387-11.326-2.639
		c-6.229-0.405-12.408,1.211-14.965,1.198c-4.583-0.023-4.022,4.948-1.199,4.82c0.92-0.041,2.873-0.017,2.873-0.017
		s-0.682,8.651,1.565,12.002c4.323,6.444,13.531,7.469,21.83,2.971c7.379,5.927,16.664,4.434,20.781,2.213
		c4.117-2.219,4.594-17.092,4.594-17.092l1.762-3.351L124.218,64.786z M90.873,83.802c-12.881,0.342-10.134-10.76-9.922-13.422
		c0.489-6.164,18.319-5.965,18.75,0.051C99.899,73.206,101.299,83.525,90.873,83.802z M113.31,84.771
		c-12.881,0.342-10.133-10.76-9.923-13.421c0.49-6.164,18.319-5.966,18.75,0.051C122.336,74.176,123.735,84.495,113.31,84.771z"/>
	
		<path opacity="0.3" fill="#001" stroke="#000000" stroke-width="1.7" stroke-linecap="round" stroke-linejoin="round" stroke-miterlimit="1.5" d="
		M103.387,71.35c0.49-6.164,18.319-5.966,18.75,0.051c0.199,2.775,1.599,13.094-8.827,13.371
		C100.429,85.113,103.177,74.012,103.387,71.35z"/>
	
		<path opacity="0.3" fill="#001" stroke="#000000" stroke-width="1.7" stroke-linecap="round" stroke-linejoin="round" stroke-miterlimit="1.5" d="
		M80.951,70.379c0.489-6.164,18.319-5.965,18.75,0.051c0.198,2.775,1.598,13.095-8.828,13.371
		C77.992,84.144,80.739,73.042,80.951,70.379z"/>
	<g>
		
			<ellipse fill="#FFFFFF" fill-opacity="0.8941" stroke="#000000" stroke-width="1.7" stroke-linecap="round" stroke-linejoin="round" stroke-miterlimit="1.5" cx="88.377" cy="73.043" rx="4.406" ry="7.312"/>
		
			<ellipse fill="#FFFFFF" fill-opacity="0.8941" stroke="#000000" stroke-width="1.7" stroke-linecap="round" stroke-linejoin="round" stroke-miterlimit="1.5" cx="108.873" cy="73.043" rx="4.406" ry="7.312"/>
	</g>
</g>
</svg>
