<?xml version="1.0" encoding="utf-8"?>
<!-- Generator: Adobe Illustrator 16.0.0, SVG Export Plug-In . SVG Version: 6.00 Build 0)  -->
<!DOCTYPE svg PUBLIC "-//W3C//DTD SVG 1.1//EN" "http://www.w3.org/Graphics/SVG/1.1/DTD/svg11.dtd">
<svg version="1.1" id="Layer_1" xmlns="http://www.w3.org/2000/svg" xmlns:xlink="http://www.w3.org/1999/xlink" x="0px" y="0px"
	 width="160px" height="160px" viewBox="0 0 160 160" enable-background="new 0 0 160 160" xml:space="preserve">
<g id="f17">
	
		<path fill-opacity="0.8941" stroke="#000000" stroke-width="1.7" stroke-linecap="round" stroke-linejoin="round" stroke-miterlimit="1.5" d="
		M114.081,90.035c0.082,0.395,0.124,0.795,0.124,1.203c0,5.202-6.897,9.428-15.394,9.428c-8.498,0-15.396-4.226-15.396-9.428
		c0-0.408,0.043-0.809,0.125-1.203c0.966,4.636,7.438,8.225,15.271,8.225C106.642,98.26,113.115,94.671,114.081,90.035z"/>
	
		<path fill="#FFD400" fill-opacity="0.8941" stroke="#000000" stroke-width="1.7" stroke-linecap="round" stroke-linejoin="round" stroke-miterlimit="1.5" d="
		M110.75,56.203l3.3,10.158h10.68l-8.64,6.278l3.3,10.157l-8.64-6.277l-8.641,6.277l3.3-10.157l-8.641-6.278h10.681L110.75,56.203z"
		/>
	
		<path fill="#FFD400" fill-opacity="0.8941" stroke="#000000" stroke-width="1.7" stroke-linecap="round" stroke-linejoin="round" stroke-miterlimit="1.5" d="
		M88.323,56.214l3.301,10.158h10.68l-8.64,6.278l3.3,10.157l-8.641-6.277l-8.641,6.277l3.301-10.157l-8.641-6.278h10.681
		L88.323,56.214z"/>
</g>
</svg>
