<svg xmlns="http://www.w3.org/2000/svg" xmlns:xlink="http://www.w3.org/1999/xlink" viewBox="0 0 160 160"><defs><style>.cls-1{fill:url(#radial-gradient);}.cls-2{opacity:0.05;}.cls-3{fill:url(#linear-gradient);}.cls-4{fill:none;stroke:#303030;stroke-linecap:round;stroke-linejoin:round;stroke-width:2px;}.cls-5{fill:#603813;}.cls-6{fill:#f15a24;}.cls-7{fill:url(#radial-gradient-2);}.cls-8{fill:url(#radial-gradient-3);}.cls-9{opacity:0.15;}</style><radialGradient id="radial-gradient" cx="79.75" cy="80" r="39.46" gradientUnits="userSpaceOnUse"><stop offset="0" stop-color="#ffd22d"/><stop offset="0.87" stop-color="#fcb22b"/><stop offset="1" stop-color="#f28312"/></radialGradient><linearGradient id="linear-gradient" x1="-139.74" y1="84.9" x2="-139.74" y2="46.02" gradientTransform="translate(206.01) scale(0.9 1)" gradientUnits="userSpaceOnUse"><stop offset="0" stop-color="#ffd22d" stop-opacity="0"/><stop offset="0.81" stop-color="#fffcef" stop-opacity="0.7"/><stop offset="1" stop-color="#fff" stop-opacity="0.8"/></linearGradient><radialGradient id="radial-gradient-2" cx="78.57" cy="84.52" r="13.68" gradientUnits="userSpaceOnUse"><stop offset="0" stop-color="#754c24"/><stop offset="0.87" stop-color="#603813"/><stop offset="1" stop-color="#603813"/></radialGradient><radialGradient id="radial-gradient-3" cx="6905.08" cy="114.76" r="12.44" gradientTransform="matrix(-1, 0, 0, 1.07, 7014.15, -38.85)" xlink:href="#radial-gradient-2"/></defs><title>Artboard 42 copy 155</title><circle class="cls-1" cx="79.75" cy="80" r="39.46"/><g class="cls-2"><path d="M119.21,80a39.46,39.46,0,0,1-67.13,28.13c10.36,2.33,36,3,49.82-14.28,10.39-12.47,8.31-33.23,4.16-43.26A39.35,39.35,0,0,1,119.21,80Z"/></g><path class="cls-3" d="M113.67,83.06c-2.07,7.27-19.38-9.35-33.92-8.66S48.6,89.64,45.83,83.06C45.83,62.6,61,46,79.75,46S113.67,62.6,113.67,83.06Z"/><path class="cls-4" d="M74.22,70.93c1-5.58,9.11-5.58,9.78-.18"/><path class="cls-4" d="M100.51,70.66c.94-5.19,8.47-5.19,9.1-.17"/><path class="cls-5" d="M82.17,91h21.24s-.59,11-10.77,11a9.58,9.58,0,0,1-7.12-2.72C82.31,96,82.17,91,82.17,91Z"/><path class="cls-6" d="M100.52,98.32a9.67,9.67,0,0,1-7.88,3.47,9.54,9.54,0,0,1-7.12-2.73C82.31,95.82,103.18,95.11,100.52,98.32Z"/><path class="cls-7" d="M95,84.94c1.09-6.6-3.3-12.09-13.2-9.9-7.79,2-4.4,9.9-8.79,13.2s-11,3.3-11,3.3S89.49,101.43,95,84.94Z"/><path class="cls-8" d="M94.15,84.69c-1-6.44,3-11.8,12-9.66,6.85,1,4,9.66,8,12.88s10,3.22,10,3.22S99.15,100.78,94.15,84.69Z"/><g class="cls-9"><path d="M95,84.69c1-6.44-3-11.8-12-9.66,13.15,4,2.15,21-18,16.1C65,91.13,90,100.78,95,84.69Z"/></g><g class="cls-9"><path d="M99.82,75.07S105,75,106,78s0,6,1,8,7.81,7.79,16.41,5.39c0,0-9.3,1.16-11.35-7.11S108.63,74.13,99.82,75.07Z"/></g></svg>