<?xml version="1.0" encoding="utf-8"?>
<!-- Generator: Adobe Illustrator 22.0.1, SVG Export Plug-In . SVG Version: 6.00 Build 0)  -->
<svg version="1.1" id="Layer_1" xmlns="http://www.w3.org/2000/svg" xmlns:xlink="http://www.w3.org/1999/xlink" x="0px" y="0px"
	 viewBox="0 0 160 160" style="enable-background:new 0 0 160 160;" xml:space="preserve">
<style type="text/css">
	.st0{fill:url(#SVGID_1_);}
	.st1{opacity:5.000000e-02;}
	.st2{fill:url(#SVGID_2_);}
	.st3{fill:none;stroke:#603813;stroke-width:2;stroke-linecap:round;stroke-linejoin:round;}
	.st4{fill:#DD6901;}
	.st5{opacity:0.5;stroke:#000000;stroke-miterlimit:10;enable-background:new    ;}
	.st6{fill:none;stroke:#000000;stroke-miterlimit:10;}
</style>
<title>Artboard 42 copy 131</title>
<radialGradient id="SVGID_1_" cx="79.75" cy="82" r="39.46" gradientTransform="matrix(1 0 0 -1 0 162)" gradientUnits="userSpaceOnUse">
	<stop  offset="0" style="stop-color:#FFD22D"/>
	<stop  offset="0.87" style="stop-color:#FCB22B"/>
	<stop  offset="1" style="stop-color:#F28312"/>
</radialGradient>
<circle class="st0" cx="79.8" cy="80" r="39.5"/>
<g class="st1">
	<path d="M119.2,80c0,21.8-17.7,39.5-39.5,39.5c-10.4,0-20.3-4.1-27.7-11.3c10.4,2.3,36,3,49.8-14.3c10.4-12.5,8.3-33.2,4.2-43.3
		C114.4,58.1,119.2,68.8,119.2,80z"/>
</g>
<linearGradient id="SVGID_2_" gradientUnits="userSpaceOnUse" x1="-139.2889" y1="77.096" x2="-139.2889" y2="116" gradientTransform="matrix(0.9 0 0 -1 205.11 162)">
	<stop  offset="0" style="stop-color:#FFD22D;stop-opacity:0"/>
	<stop  offset="0.81" style="stop-color:#FFFCEF;stop-opacity:0.7"/>
	<stop  offset="1" style="stop-color:#FFFFFF;stop-opacity:0.8"/>
</linearGradient>
<path class="st2" d="M113.7,83.1c-2.1,7.3-19.4-9.3-33.9-8.7s-31.2,15.2-33.9,8.7C45.8,62.6,61,46,79.8,46S113.7,62.6,113.7,83.1z"
	/>
<path class="st3" d="M85.3,94.7c0,0,3.2,10.6,15.7,8.9"/>
<path class="st4" d="M71.3,68h-1.8v4h1.8c1,0.3,1.8,1.2,1.8,2.2v5.8c0,0-0.3,8.1,11.8,7.9c0,0-8.6,0.2-10-8.3v-5.4
	c0-0.8-0.6-1.5-1.3-1.8L71.7,72L71.3,68z"/>
<path class="st5" d="M71.3,68v4l2,0.2c0.8,0.3,1.3,1,1.4,1.8v5.4c0,0,0.9,9,10.8,8.5S95.7,78,95.7,78s0-4.5,2.2-4.5s2.3,4.5,2.3,4.5
	s0.4,9.9,10.3,9.9s10.3-8.5,10.3-8.5v-5.8c0-0.7,0.6-1.3,1.3-1.3c0,0,0,0,0.1,0h1.8v-4l-21.8-0.1c-0.8,0.2-1.4,0.6-2,1.2l-2.1,2
	l-2.2-2.1c-0.7-0.7-1.7-1.1-2.7-1L71.3,68z"/>
<path class="st6" d="M71.3,68v4l2,0.2c0.8,0.3,1.3,1,1.4,1.8v5.4c0,0,0.9,9,10.8,8.5S95.7,78,95.7,78s0-4.5,2.2-4.5s2.3,4.5,2.3,4.5
	s0.4,9.9,10.3,9.9s10.3-8.5,10.3-8.5v-5.8c0-0.7,0.6-1.3,1.3-1.3c0,0,0,0,0.1,0h1.8v-4l-21.8-0.1c-0.8,0.2-1.4,0.6-2,1.2l-2.1,2
	l-2.2-2.1c-0.7-0.7-1.7-1.1-2.7-1L71.3,68z"/>
</svg>
