<svg xmlns="http://www.w3.org/2000/svg" xmlns:xlink="http://www.w3.org/1999/xlink" viewBox="0 0 160 160"><defs><style>.cls-1{fill:url(#radial-gradient);}.cls-2{opacity:0.05;}.cls-3{fill:url(#linear-gradient);}.cls-4{fill:url(#linear-gradient-2);}.cls-5{fill:#f15a24;}.cls-6{fill:none;stroke:#303030;stroke-linecap:round;stroke-linejoin:round;stroke-width:2px;}</style><radialGradient id="radial-gradient" cx="79.75" cy="80" r="39.46" gradientUnits="userSpaceOnUse"><stop offset="0" stop-color="#ffd22d"/><stop offset="0.87" stop-color="#fcb22b"/><stop offset="1" stop-color="#f28312"/></radialGradient><linearGradient id="linear-gradient" x1="-139.74" y1="84.9" x2="-139.74" y2="46.02" gradientTransform="translate(206.01) scale(0.9 1)" gradientUnits="userSpaceOnUse"><stop offset="0" stop-color="#ffd22d" stop-opacity="0"/><stop offset="0.81" stop-color="#fffcef" stop-opacity="0.7"/><stop offset="1" stop-color="#fff" stop-opacity="0.8"/></linearGradient><linearGradient id="linear-gradient-2" x1="92.87" y1="104.78" x2="92.44" y2="76.37" gradientUnits="userSpaceOnUse"><stop offset="0" stop-color="#a66707"/><stop offset="1"/></linearGradient></defs><title>Artboard 42 copy 151</title><circle class="cls-1" cx="79.75" cy="80" r="39.46"/><g class="cls-2"><path d="M119.21,80a39.46,39.46,0,0,1-67.13,28.13c10.36,2.33,36,3,49.82-14.28,10.39-12.47,8.31-33.23,4.16-43.26A39.35,39.35,0,0,1,119.21,80Z"/></g><path class="cls-3" d="M113.67,83.06c-2.07,7.27-19.38-9.35-33.92-8.66S48.6,89.64,45.83,83.06C45.83,62.6,61,46,79.75,46S113.67,62.6,113.67,83.06Z"/><path class="cls-4" d="M71,80.54c15.24,2.28,29.79,2.8,43,0,0,0-1.19,26-21.81,26A18,18,0,0,1,77.78,100C71.28,92.35,71,80.54,71,80.54Z"/><path class="cls-5" d="M108.15,97.88a18.61,18.61,0,0,1-16,8.21,18,18,0,0,1-14.41-6.46C71.28,91.94,113.53,90.27,108.15,97.88Z"/><path class="cls-6" d="M75.22,69.93c1-5.58,9.11-5.58,9.78-.18"/><path class="cls-6" d="M101.51,69.66c.94-5.19,8.47-5.19,9.1-.17"/></svg>