<?xml version="1.0" encoding="utf-8"?>
<!-- Generator: Adobe Illustrator 22.0.1, SVG Export Plug-In . SVG Version: 6.00 Build 0)  -->
<svg version="1.1" id="Layer_1" xmlns="http://www.w3.org/2000/svg" xmlns:xlink="http://www.w3.org/1999/xlink" x="0px" y="0px"
	 viewBox="0 0 160 160" style="enable-background:new 0 0 160 160;" xml:space="preserve">
<style type="text/css">
	.st0{fill:url(#SVGID_1_);}
	.st1{opacity:5.000000e-02;}
	.st2{fill:url(#SVGID_2_);}
	.st3{fill:#603813;}
	.st4{fill:#F15A24;}
	.st5{fill:#FC0D0A;}
	.st6{opacity:0.16;enable-background:new    ;}
</style>
<title>Artboard 42 copy 123</title>
<radialGradient id="SVGID_1_" cx="79.75" cy="82" r="39.46" gradientTransform="matrix(1 0 0 -1 0 162)" gradientUnits="userSpaceOnUse">
	<stop  offset="0" style="stop-color:#FFD22D"/>
	<stop  offset="0.87" style="stop-color:#FCB22B"/>
	<stop  offset="1" style="stop-color:#F28312"/>
</radialGradient>
<circle class="st0" cx="79.8" cy="80" r="39.5"/>
<g class="st1">
	<path d="M119.2,80c0,21.8-17.7,39.5-39.5,39.5c-10.4,0-20.3-4.1-27.7-11.3c10.4,2.3,36,3,49.8-14.3c10.4-12.5,8.3-33.2,4.2-43.3
		C114.4,58.1,119.2,68.8,119.2,80z"/>
</g>
<linearGradient id="SVGID_2_" gradientUnits="userSpaceOnUse" x1="-139.2889" y1="77.096" x2="-139.2889" y2="116" gradientTransform="matrix(0.9 0 0 -1 205.11 162)">
	<stop  offset="0" style="stop-color:#FFD22D;stop-opacity:0"/>
	<stop  offset="0.81" style="stop-color:#FFFCEF;stop-opacity:0.7"/>
	<stop  offset="1" style="stop-color:#FFFFFF;stop-opacity:0.8"/>
</linearGradient>
<path class="st2" d="M113.7,83.1c-2.1,7.3-19.4-9.3-33.9-8.7s-31.2,15.2-33.9,8.7C45.8,62.6,61,46,79.8,46S113.7,62.6,113.7,83.1z"
	/>
<path class="st3" d="M83.2,92h21.2c0,0-0.6,11-10.8,11c-2.6,0.1-5.2-0.9-7.1-2.7C83.3,97,83.2,92,83.2,92z"/>
<path class="st4" d="M101.5,99.4c-1.9,2.3-4.9,3.6-7.9,3.5c-2.6,0.1-5.2-0.9-7.1-2.7C83.3,96.8,104.2,96.2,101.5,99.4z"/>
<path class="st5" d="M80.2,80.4c0,0-10-4.9-8.5-11.4s10.1-0.7,9.5-0.9s6.2-5.4,8.5,0.8C91.4,75,81.8,81.5,80.2,80.4z"/>
<path class="st6" d="M80.2,80.4c0,0-10-4.9-8.5-11.4s10-0.6,9.5-0.9C74,64.2,73.7,76.7,80.2,80.4z"/>
<path class="st5" d="M106.3,80.4c0,0-10-4.9-8.5-11.4s10.1-0.7,9.5-0.9s6.2-5.4,8.5,0.8C117.5,75,107.9,81.5,106.3,80.4z"/>
<path class="st6" d="M106.2,80.4c0,0-10-4.9-8.5-11.4s10-0.6,9.5-0.9C100,64.2,99.7,76.7,106.2,80.4z"/>
</svg>
