<svg xmlns="http://www.w3.org/2000/svg" xmlns:xlink="http://www.w3.org/1999/xlink" viewBox="0 0 160 160"><defs><style>.cls-1,.cls-5{fill:url(#linear-gradient);}.cls-1,.cls-2,.cls-3,.cls-4{clip-rule:evenodd;}.cls-15,.cls-2{fill:url(#linear-gradient-2);}.cls-12,.cls-18,.cls-3{fill:#fff;}.cls-15,.cls-18,.cls-21,.cls-5{fill-rule:evenodd;}.cls-6{clip-path:url(#clip-path);}.cls-7{fill:url(#linear-gradient-4);}.cls-8{fill:url(#radial-gradient);}.cls-9{fill:url(#radial-gradient-2);}.cls-10{opacity:0.05;}.cls-11{fill:url(#linear-gradient-5);}.cls-13{fill:url(#linear-gradient-6);}.cls-14{fill:#f15a24;}.cls-16{clip-path:url(#clip-path-2);}.cls-17{fill:url(#linear-gradient-8);}.cls-19{clip-path:url(#clip-path-3);}.cls-20{clip-path:url(#clip-path-4);}.cls-22{clip-path:url(#clip-path-5);}</style><linearGradient id="linear-gradient" x1="99.33" y1="-90.88" x2="99.33" y2="-108.79" gradientUnits="userSpaceOnUse"><stop offset="0" stop-color="#a66707"/><stop offset="1"/></linearGradient><linearGradient id="linear-gradient-2" x1="93.83" y1="1870.33" x2="93.83" y2="1853.71" gradientTransform="matrix(1, 0, 0, -1, 0, 2510.33)" xlink:href="#linear-gradient"/><clipPath id="clip-path"><path class="cls-1" d="M110.7-95.91a15.08,15.08,0,0,1-11.14,5h0l-.22,0-.21,0h0a15.08,15.08,0,0,1-11.14-5c-3-3.33-4.9-8.6-4.9-11s4.46,1.42,16,1.42h.46c7.89,0,12.78-2.53,13.65-3s2.39-.65,2.39,1.6S113.74-99.24,110.7-95.91Z"/></clipPath><linearGradient id="linear-gradient-4" x1="19.98" y1="311.14" x2="19.98" y2="-1520.07" xlink:href="#linear-gradient"/><radialGradient id="radial-gradient" cx="583.34" cy="-696.07" r="5.53" gradientTransform="translate(-472.26 787.92)" gradientUnits="userSpaceOnUse"><stop offset="0" stop-color="#ffd22d"/><stop offset="0.87" stop-color="#fcb22b"/><stop offset="1" stop-color="#f28312"/></radialGradient><radialGradient id="radial-gradient-2" cx="79.75" cy="80" r="39.46" gradientTransform="matrix(1, 0, 0, 1, 0, 0)" xlink:href="#radial-gradient"/><linearGradient id="linear-gradient-5" x1="-9.24" y1="84.9" x2="-9.24" y2="46.02" gradientTransform="translate(88.1) scale(0.9 1)" gradientUnits="userSpaceOnUse"><stop offset="0" stop-color="#ffd22d" stop-opacity="0"/><stop offset="0.81" stop-color="#fffcef" stop-opacity="0.7"/><stop offset="1" stop-color="#fff" stop-opacity="0.8"/></linearGradient><linearGradient id="linear-gradient-6" x1="96.28" y1="106.41" x2="95.95" y2="85.27" xlink:href="#linear-gradient"/><clipPath id="clip-path-2"><path class="cls-2" d="M104.92,644.8A14.37,14.37,0,0,0,94.3,640h0l-.2,0-.21,0h0c-10.6,1.07-18.13,10.4-15.32,15.28,2.46,5.5,19.9-8.34,27.83.57,2.35,1.31,3.73-1,3.23-3.43C109.17,650.31,107.83,648,104.92,644.8Z"/></clipPath><linearGradient id="linear-gradient-8" x1="13.98" y1="1059.14" x2="13.98" y2="-772.07" xlink:href="#linear-gradient"/><clipPath id="clip-path-3"><path class="cls-3" d="M78.83,649.55S77,653,78.54,655.28c2.46,5.5,19.9-8.34,27.83.57a53.52,53.52,0,0,0,.45-8.81S78.83,650.39,78.83,649.55Z"/></clipPath><clipPath id="clip-path-4"><path class="cls-3" d="M104.92,644.8A14.37,14.37,0,0,0,94.3,640h0l-.2,0-.21,0h0A21.62,21.62,0,0,0,80,647.6s27.06-.24,26.65-.75S105.59,645.53,104.92,644.8Z"/></clipPath><clipPath id="clip-path-5"><path class="cls-4" d="M104.92,644.8c-1.92-2.8-7.37-4.41-7.37-4.41C98,642,98,646,97.4,647.33c0,0,9.44-.28,9.27-.48C106.17,646.21,105.59,645.53,104.92,644.8Z"/></clipPath></defs><title>Artboard 42 copy 78</title><path class="cls-5" d="M110.7-95.91a15.08,15.08,0,0,1-11.14,5h0l-.22,0-.21,0h0a15.08,15.08,0,0,1-11.14-5c-3-3.33-4.9-8.6-4.9-11s4.46,1.42,16,1.42h.46c7.89,0,12.78-2.53,13.65-3s2.39-.65,2.39,1.6S113.74-99.24,110.7-95.91Z"/><g class="cls-6"><rect class="cls-7" x="-483.11" y="-1520.07" width="1006.19" height="1831.22"/></g><rect class="cls-8" x="104.08" y="88.35" width="14" height="7" rx="3.5" ry="3.5" transform="translate(-26.78 49.79) rotate(-22.62)"/><circle class="cls-9" cx="79.75" cy="80" r="39.46"/><g class="cls-10"><path d="M119.21,80a39.46,39.46,0,0,1-67.13,28.13c10.36,2.33,36,3,49.82-14.28,10.39-12.47,8.31-33.23,4.16-43.26A39.35,39.35,0,0,1,119.21,80Z"/></g><path class="cls-11" d="M113.67,83.06c-2.07,7.27-19.38-9.35-33.92-8.66S48.6,89.64,45.83,83.06C45.83,62.6,61,46,79.75,46S113.67,62.6,113.67,83.06Z"/><ellipse class="cls-12" cx="97.32" cy="74.71" rx="7.68" ry="10.76" transform="translate(-3.96 5.46) rotate(-3.15)"/><ellipse cx="97.42" cy="76.5" rx="4.58" ry="5.5"/><circle class="cls-12" cx="94.5" cy="73.5" r="2.5"/><path d="M91,64c4.41-5.13,8.74-5,13,0C104,64,98,52,91,64Z"/><ellipse class="cls-12" cx="81.57" cy="76.56" rx="6.02" ry="8.43" transform="translate(-13 16.8) rotate(-10.9)"/><ellipse cx="81.84" cy="77.93" rx="3.59" ry="4.31" transform="translate(-9.76 11.74) rotate(-7.75)"/><circle class="cls-12" cx="79.25" cy="75.91" r="1.09"/><path d="M75.53,68.9c2.89-4.45,6.26-4.84,10.1-1.37C85.63,67.53,79.7,58.85,75.53,68.9Z"/><ellipse class="cls-12" cx="111.42" cy="77.42" rx="6.38" ry="4.56" transform="translate(27.54 184.05) rotate(-86.6)"/><ellipse cx="111.36" cy="78.48" rx="3.26" ry="2.72" transform="matrix(0.11, -0.99, 0.99, 0.11, 20.69, 180.16)"/><circle class="cls-12" cx="109.84" cy="76.51" r="1.16"/><path d="M108.42,70.68c3-2.73,5.49-2.39,7.66.87C116.08,71.55,113.36,64.08,108.42,70.68Z"/><path class="cls-13" d="M80,88.37c11.34,1.69,22.17,2.08,32,0,0,0-.89,19.32-16.23,19.32A13.41,13.41,0,0,1,85,102.88C80.21,97.16,80,88.37,80,88.37Z"/><path class="cls-14" d="M107.65,101.27a13.86,13.86,0,0,1-11.88,6.12A13.41,13.41,0,0,1,85,102.58C80.21,96.86,111.65,95.61,107.65,101.27Z"/><path class="cls-15" d="M104.92,644.8A14.37,14.37,0,0,0,94.3,640h0l-.2,0-.21,0h0c-10.6,1.07-18.13,10.4-15.32,15.28,2.46,5.5,19.9-8.34,27.83.57,2.35,1.31,3.73-1,3.23-3.43C109.17,650.31,107.83,648,104.92,644.8Z"/><g class="cls-16"><rect class="cls-17" x="-489.11" y="-772.07" width="1006.19" height="1831.22"/></g><path class="cls-18" d="M78.83,649.55S77,653,78.54,655.28c2.46,5.5,19.9-8.34,27.83.57a53.52,53.52,0,0,0,.45-8.81S78.83,650.39,78.83,649.55Z"/><g class="cls-19"><rect class="cls-12" x="-489.11" y="-772.07" width="1006.19" height="1831.22"/></g><path class="cls-18" d="M104.92,644.8A14.37,14.37,0,0,0,94.3,640h0l-.2,0-.21,0h0A21.62,21.62,0,0,0,80,647.6s27.06-.24,26.65-.75S105.59,645.53,104.92,644.8Z"/><g class="cls-20"><rect class="cls-12" x="-489.11" y="-772.07" width="1006.19" height="1831.22"/></g><g class="cls-10"><path class="cls-21" d="M104.92,644.8c-1.92-2.8-7.37-4.41-7.37-4.41C98,642,98,646,97.4,647.33c0,0,9.44-.28,9.27-.48C106.17,646.21,105.59,645.53,104.92,644.8Z"/><g class="cls-22"><rect x="-489.11" y="-772.07" width="1006.19" height="1831.22"/></g></g></svg>