<svg xmlns="http://www.w3.org/2000/svg" xmlns:xlink="http://www.w3.org/1999/xlink" viewBox="0 0 160 160"><defs><style>.cls-1,.cls-9{fill:url(#linear-gradient);}.cls-1,.cls-2,.cls-3{clip-rule:evenodd;}.cls-12,.cls-14,.cls-2{fill:#fff;}.cls-4{fill:url(#radial-gradient);}.cls-5{opacity:0.05;}.cls-6{fill:url(#linear-gradient-2);}.cls-7,.cls-8{fill:none;stroke-linecap:round;stroke-linejoin:round;stroke-width:2px;}.cls-7{stroke:#603813;}.cls-8{stroke:#303030;}.cls-12,.cls-16,.cls-9{fill-rule:evenodd;}.cls-10{clip-path:url(#clip-path);}.cls-11{fill:url(#linear-gradient-4);}.cls-13{clip-path:url(#clip-path-2);}.cls-15{clip-path:url(#clip-path-3);}.cls-17{clip-path:url(#clip-path-4);}</style><linearGradient id="linear-gradient" x1="93.83" y1="1124.33" x2="93.83" y2="1107.71" gradientTransform="matrix(1, 0, 0, -1, 0, 1018.33)" gradientUnits="userSpaceOnUse"><stop offset="0" stop-color="#a66707"/><stop offset="1"/></linearGradient><radialGradient id="radial-gradient" cx="79.75" cy="80" r="39.46" gradientUnits="userSpaceOnUse"><stop offset="0" stop-color="#ffd22d"/><stop offset="0.87" stop-color="#fcb22b"/><stop offset="1" stop-color="#f28312"/></radialGradient><linearGradient id="linear-gradient-2" x1="-9.24" y1="84.9" x2="-9.24" y2="46.02" gradientTransform="translate(88.1) scale(0.9 1)" gradientUnits="userSpaceOnUse"><stop offset="0" stop-color="#ffd22d" stop-opacity="0"/><stop offset="0.81" stop-color="#fffcef" stop-opacity="0.7"/><stop offset="1" stop-color="#fff" stop-opacity="0.8"/></linearGradient><clipPath id="clip-path"><path class="cls-1" d="M104.92-101.2A14.37,14.37,0,0,0,94.3-106h0l-.2,0-.21,0h0c-10.6,1.07-18.13,10.4-15.32,15.28,2.46,5.5,19.9-8.34,27.83.57,2.35,1.31,3.73-1,3.23-3.43C109.17-95.69,107.83-98,104.92-101.2Z"/></clipPath><linearGradient id="linear-gradient-4" x1="13.98" y1="313.14" x2="13.98" y2="-1518.07" gradientTransform="matrix(1, 0, 0, 1, 0, 0)" xlink:href="#linear-gradient"/><clipPath id="clip-path-2"><path class="cls-2" d="M78.83-96.45S77-93,78.54-90.72c2.46,5.5,19.9-8.34,27.83.57a53.52,53.52,0,0,0,.45-8.81S78.83-95.61,78.83-96.45Z"/></clipPath><clipPath id="clip-path-3"><path class="cls-2" d="M104.92-101.2A14.37,14.37,0,0,0,94.3-106h0l-.2,0-.21,0h0A21.62,21.62,0,0,0,80-98.4s27.06-.24,26.65-.75S105.59-100.47,104.92-101.2Z"/></clipPath><clipPath id="clip-path-4"><path class="cls-3" d="M104.92-101.2c-1.92-2.8-7.37-4.41-7.37-4.41C98-104,98-100,97.4-98.67c0,0,9.44-.28,9.27-.48C106.17-99.79,105.59-100.47,104.92-101.2Z"/></clipPath></defs><title>Artboard 42 copy 99</title><circle class="cls-4" cx="79.75" cy="80" r="39.46"/><g class="cls-5"><path d="M119.21,80a39.46,39.46,0,0,1-67.13,28.13c10.36,2.33,36,3,49.82-14.28,10.39-12.47,8.31-33.23,4.16-43.26A39.35,39.35,0,0,1,119.21,80Z"/></g><path class="cls-6" d="M113.67,83.06c-2.07,7.27-19.38-9.35-33.92-8.66S48.6,89.64,45.83,83.06C45.83,62.6,61,46,79.75,46S113.67,62.6,113.67,83.06Z"/><line class="cls-7" x1="78.28" y1="92.51" x2="109.86" y2="92.48"/><line class="cls-8" x1="76.4" y1="75.35" x2="88.48" y2="80.24"/><line class="cls-8" x1="112.12" y1="75" x2="103.65" y2="80.05"/><path class="cls-9" d="M104.92-101.2A14.37,14.37,0,0,0,94.3-106h0l-.2,0-.21,0h0c-10.6,1.07-18.13,10.4-15.32,15.28,2.46,5.5,19.9-8.34,27.83.57,2.35,1.31,3.73-1,3.23-3.43C109.17-95.69,107.83-98,104.92-101.2Z"/><g class="cls-10"><rect class="cls-11" x="-489.11" y="-1518.07" width="1006.19" height="1831.22"/></g><path class="cls-12" d="M78.83-96.45S77-93,78.54-90.72c2.46,5.5,19.9-8.34,27.83.57a53.52,53.52,0,0,0,.45-8.81S78.83-95.61,78.83-96.45Z"/><g class="cls-13"><rect class="cls-14" x="-489.11" y="-1518.07" width="1006.19" height="1831.22"/></g><path class="cls-12" d="M104.92-101.2A14.37,14.37,0,0,0,94.3-106h0l-.2,0-.21,0h0A21.62,21.62,0,0,0,80-98.4s27.06-.24,26.65-.75S105.59-100.47,104.92-101.2Z"/><g class="cls-15"><rect class="cls-14" x="-489.11" y="-1518.07" width="1006.19" height="1831.22"/></g><g class="cls-5"><path class="cls-16" d="M104.92-101.2c-1.92-2.8-7.37-4.41-7.37-4.41C98-104,98-100,97.4-98.67c0,0,9.44-.28,9.27-.48C106.17-99.79,105.59-100.47,104.92-101.2Z"/><g class="cls-17"><rect x="-489.11" y="-1518.07" width="1006.19" height="1831.22"/></g></g></svg>