<svg xmlns="http://www.w3.org/2000/svg" xmlns:xlink="http://www.w3.org/1999/xlink" viewBox="0 0 160 160"><defs><style>.cls-1{fill:url(#radial-gradient);}.cls-2{opacity:0.05;}.cls-3{fill:url(#linear-gradient);}.cls-4{fill:url(#linear-gradient-2);}.cls-5{fill:#f15a24;}.cls-6{fill:#ff4e00;}.cls-7{opacity:0.1;}.cls-10,.cls-11,.cls-8,.cls-9{opacity:0.2;}.cls-8{fill:url(#linear-gradient-3);}.cls-9{fill:url(#linear-gradient-4);}.cls-10{fill:url(#linear-gradient-5);}.cls-11{fill:url(#linear-gradient-6);}</style><radialGradient id="radial-gradient" cx="79.75" cy="80" r="39.46" gradientUnits="userSpaceOnUse"><stop offset="0" stop-color="#ffd22d"/><stop offset="0.87" stop-color="#fcb22b"/><stop offset="1" stop-color="#f28312"/></radialGradient><linearGradient id="linear-gradient" x1="-139.74" y1="84.9" x2="-139.74" y2="46.02" gradientTransform="translate(206.01) scale(0.9 1)" gradientUnits="userSpaceOnUse"><stop offset="0" stop-color="#ffd22d" stop-opacity="0"/><stop offset="0.81" stop-color="#fffcef" stop-opacity="0.7"/><stop offset="1" stop-color="#fff" stop-opacity="0.8"/></linearGradient><linearGradient id="linear-gradient-2" x1="95.83" y1="105.51" x2="95.44" y2="80.3" gradientUnits="userSpaceOnUse"><stop offset="0" stop-color="#a66707"/><stop offset="1"/></linearGradient><linearGradient id="linear-gradient-3" x1="71" y1="68" x2="81" y2="68" gradientTransform="matrix(1, 0, 0, 1, 0, 0)" xlink:href="#linear-gradient"/><linearGradient id="linear-gradient-4" x1="1843.33" y1="-3549.56" x2="1853.33" y2="-3549.56" gradientTransform="translate(2839.17 2973.01) rotate(-71.21)" xlink:href="#linear-gradient"/><linearGradient id="linear-gradient-5" x1="382.07" y1="971.79" x2="391.08" y2="971.79" gradientTransform="translate(-3.17 -972.69) rotate(15.73)" xlink:href="#linear-gradient"/><linearGradient id="linear-gradient-6" x1="1089.41" y1="-2964.66" x2="1098.42" y2="-2964.66" gradientTransform="translate(1923.49 2658.79) rotate(-55.48)" xlink:href="#linear-gradient"/></defs><title>Artboard 42 copy 147</title><circle class="cls-1" cx="79.75" cy="80" r="39.46"/><g class="cls-2"><path d="M119.21,80a39.46,39.46,0,0,1-67.13,28.13c10.36,2.33,36,3,49.82-14.28,10.39-12.47,8.31-33.23,4.16-43.26A39.35,39.35,0,0,1,119.21,80Z"/></g><path class="cls-3" d="M113.67,83.06c-2.07,7.27-19.38-9.35-33.92-8.66S48.6,89.64,45.83,83.06C45.83,62.6,61,46,79.75,46S113.67,62.6,113.67,83.06Z"/><path class="cls-4" d="M76.42,84c13.53,2,26.43,2.48,38.16,0,0,0-1.06,23-19.36,23a15.91,15.91,0,0,1-12.78-5.74C76.67,94.48,76.42,84,76.42,84Z"/><path class="cls-5" d="M109.39,99.39a16.53,16.53,0,0,1-14.17,7.29,15.91,15.91,0,0,1-12.78-5.74C76.67,94.12,114.16,92.64,109.39,99.39Z"/><g id="surface1"><path class="cls-6" d="M94.34,69.6a1,1,0,0,0-.88-.52l-7.14.2-4.24-5.86a1,1,0,0,0-1.7.3l-2,7-6.77,2.24a1,1,0,0,0-.66.79,1,1,0,0,0,.42.94l5.91,4.11,0,7.24a1,1,0,0,0,.55.88,1,1,0,0,0,1-.1l5.65-4.42,6.8,2.23a1,1,0,0,0,1-.24,1,1,0,0,0,.21-1L90.11,76.5S94.51,69.93,94.34,69.6Z"/></g><g id="surface1-2" data-name="surface1" class="cls-7"><path d="M86,69.28l-4-5.9a.9.9,0,0,0-1.59.28L84.14,70Z"/></g><g id="surface1-3" data-name="surface1" class="cls-2"><path d="M83.59,80.15l-5.16,4.94A.9.9,0,0,0,79,86.61l5.63-4.7Z"/></g><g class="cls-7"><path d="M92.68,69.77l-4.42,5.85.08.17-.12,1.11,2.39,6.73a.9.9,0,0,0,1.6.14l-2-7.06-.37,0,3.68-5.61A.91.91,0,0,0,92.68,69.77Z"/></g><polygon class="cls-8" points="81 63 79.75 71.75 71 73 78.5 70.5 81 63"/><polygon class="cls-9" points="70.88 73.66 78.76 77.66 77.12 86.34 77.17 78.44 70.88 73.66"/><g id="surface1-4" data-name="surface1"><path class="cls-6" d="M120.91,73.38a.85.85,0,0,0-.63-.66l-6.23-1.58L111.81,65a.9.9,0,0,0-1.55-.16l-3.42,5.54-6.42.29a.88.88,0,0,0-.63,1.44l4.12,5-1.73,6.29a.88.88,0,0,0,.26.89.85.85,0,0,0,.9.16l6-2.45,5.35,3.6a1,1,0,0,0,.4.14.8.8,0,0,0,.52-.12.88.88,0,0,0,.43-.82l-.43-6.51S121,73.71,120.91,73.38Z"/></g><g id="surface1-5" data-name="surface1" class="cls-7"><path d="M113.8,71.07,111.74,65a.81.81,0,0,0-1.44-.15L112,71.21Z"/></g><g id="surface1-6" data-name="surface1" class="cls-2"><path d="M109,79.9l-5.68,3a.81.81,0,0,0,.09,1.45l6-2.7Z"/></g><g class="cls-7"><path d="M119.44,73.12l-5.26,4,0,.17-.37.93.42,6.41a.81.81,0,0,0,1.36.51V78.54l-.33-.06,4.56-4A.81.81,0,0,0,119.44,73.12Z"/></g><polygon class="cls-10" points="110.97 64.4 107.75 71.68 99.86 70.63 106.97 70.29 110.97 64.4"/><polygon class="cls-11" points="99.6 71.17 105.45 76.56 101.91 83.68 103.88 76.85 99.6 71.17"/></svg>