<?xml version="1.0" encoding="utf-8"?>
<!-- Generator: Adobe Illustrator 22.0.1, SVG Export Plug-In . SVG Version: 6.00 Build 0)  -->
<svg version="1.1" id="Layer_1" xmlns="http://www.w3.org/2000/svg" xmlns:xlink="http://www.w3.org/1999/xlink" x="0px" y="0px"
	 viewBox="0 0 160 160" style="enable-background:new 0 0 160 160;" xml:space="preserve">
<style type="text/css">
	.st0{fill:url(#SVGID_1_);}
	.st1{opacity:5.000000e-02;}
	.st2{fill:url(#SVGID_2_);}
	.st3{fill:none;stroke:#42210B;stroke-linecap:round;stroke-linejoin:round;}
	.st4{fill:#42210B;}
	.st5{fill:none;stroke:#42210B;stroke-width:2;stroke-linecap:round;stroke-linejoin:round;}
	.st6{opacity:0.2;}
	.st7{fill:#FC0D0A;}
	.st8{opacity:0.16;enable-background:new    ;}
</style>
<title>Artboard 42 copy 160</title>
<radialGradient id="SVGID_1_" cx="79.75" cy="82" r="39.46" gradientTransform="matrix(1 0 0 -1 0 162)" gradientUnits="userSpaceOnUse">
	<stop  offset="0" style="stop-color:#FFD22D"/>
	<stop  offset="0.87" style="stop-color:#FCB22B"/>
	<stop  offset="1" style="stop-color:#F28312"/>
</radialGradient>
<circle class="st0" cx="79.8" cy="80" r="39.5"/>
<g class="st1">
	<path d="M119.2,80c0,21.8-17.7,39.5-39.5,39.5c-10.4,0-20.3-4.1-27.7-11.3c10.4,2.3,36,3,49.8-14.3c10.4-12.5,8.3-33.2,4.2-43.3
		C114.4,58.1,119.2,68.8,119.2,80z"/>
</g>
<linearGradient id="SVGID_2_" gradientUnits="userSpaceOnUse" x1="-139.2889" y1="77.096" x2="-139.2889" y2="116" gradientTransform="matrix(0.9 0 0 -1 205.11 162)">
	<stop  offset="0" style="stop-color:#FFD22D;stop-opacity:0"/>
	<stop  offset="0.81" style="stop-color:#FFFCEF;stop-opacity:0.7"/>
	<stop  offset="1" style="stop-color:#FFFFFF;stop-opacity:0.8"/>
</linearGradient>
<path class="st2" d="M113.7,83.1c-2.1,7.3-19.4-9.3-33.9-8.7s-31.2,15.2-33.9,8.7C45.8,62.6,61,46,79.8,46S113.7,62.6,113.7,83.1z"
	/>
<path class="st3" d="M99,90c0.7,1.3,1.7,2.3,3,3l-3,3c0,0,5,1.1,1.5,3.6S93,100,93,100"/>
<ellipse transform="matrix(0.9798 -0.2001 0.2001 0.9798 -13.1781 23.4547)" class="st4" cx="109.5" cy="76.9" rx="3.6" ry="5"/>
<path class="st5" d="M78.8,72.3c0,0,8.2,2,8.9,7.6"/>
<path class="st5" d="M78.7,78.8c0,0,5.4-2.4,8.2,0.4"/>
<g class="st6">
	<path d="M93,100c0,0,4,2,7.5-0.4S99,96,99,96l3-3c-1.3-0.7-2.3-1.7-3-3c0,0,4.5,3.5,5.5,3.5l-2,3l2,1
		C104.5,97.5,103.5,103.5,93,100z"/>
</g>
<path class="st7" d="M118.8,111.8c0,0-15.9-7.7-13.4-18.1s16-1.2,15.1-1.4s9.9-8.6,13.5,1.2C136.6,103.2,121.3,113.4,118.8,111.8z"
	/>
<path class="st8" d="M118.8,111.8c0,0-15.9-7.7-13.4-18.1s15.9-0.9,15.1-1.4C108.9,85.9,108.5,105.9,118.8,111.8z"/>
</svg>
