<svg xmlns="http://www.w3.org/2000/svg" xmlns:xlink="http://www.w3.org/1999/xlink" viewBox="0 0 160 160"><defs><style>.cls-1,.cls-11{fill:url(#linear-gradient);}.cls-1,.cls-3,.cls-4,.cls-5,.cls-6{clip-rule:evenodd;}.cls-2{fill:url(#linear-gradient-2);}.cls-18,.cls-4{fill:url(#linear-gradient-3);}.cls-21,.cls-5{fill:url(#linear-gradient-4);}.cls-24,.cls-26,.cls-6{fill:#fff;}.cls-7{fill:url(#radial-gradient);}.cls-8{opacity:0.05;}.cls-9{fill:url(#linear-gradient-5);}.cls-10{fill:none;stroke:#000;stroke-linecap:round;stroke-linejoin:round;}.cls-11,.cls-18,.cls-21,.cls-24,.cls-28{fill-rule:evenodd;}.cls-12{clip-path:url(#clip-path);}.cls-13{clip-path:url(#clip-path-2);}.cls-14{fill:url(#linear-gradient-8);}.cls-15{fill:#f15a24;}.cls-16{fill:#e84715;}.cls-17{fill:url(#linear-gradient-9);}.cls-19{clip-path:url(#clip-path-3);}.cls-20{fill:url(#linear-gradient-11);}.cls-22{clip-path:url(#clip-path-4);}.cls-23{fill:url(#linear-gradient-13);}.cls-25{clip-path:url(#clip-path-5);}.cls-27{clip-path:url(#clip-path-6);}.cls-29{clip-path:url(#clip-path-7);}</style><linearGradient id="linear-gradient" x1="95.33" y1="106.12" x2="95.33" y2="88.21" gradientUnits="userSpaceOnUse"><stop offset="0" stop-color="#a66707"/><stop offset="1"/></linearGradient><linearGradient id="linear-gradient-2" x1="15.98" y1="508.14" x2="15.98" y2="-1323.07" xlink:href="#linear-gradient"/><linearGradient id="linear-gradient-3" x1="99.33" y1="469.12" x2="99.33" y2="451.21" xlink:href="#linear-gradient"/><linearGradient id="linear-gradient-4" x1="93.83" y1="2430.33" x2="93.83" y2="2413.71" gradientTransform="matrix(1, 0, 0, -1, 0, 3630.33)" xlink:href="#linear-gradient"/><radialGradient id="radial-gradient" cx="79.75" cy="80" r="39.46" gradientUnits="userSpaceOnUse"><stop offset="0" stop-color="#ffd22d"/><stop offset="0.87" stop-color="#fcb22b"/><stop offset="1" stop-color="#f28312"/></radialGradient><linearGradient id="linear-gradient-5" x1="-9.24" y1="84.9" x2="-9.24" y2="46.02" gradientTransform="translate(88.1) scale(0.9 1)" gradientUnits="userSpaceOnUse"><stop offset="0" stop-color="#ffd22d" stop-opacity="0"/><stop offset="0.81" stop-color="#fffcef" stop-opacity="0.7"/><stop offset="1" stop-color="#fff" stop-opacity="0.8"/></linearGradient><clipPath id="clip-path"><path class="cls-1" d="M106.7,101.09a15.08,15.08,0,0,1-11.14,5h0l-.22,0-.21,0h0a15.08,15.08,0,0,1-11.14-5c-3-3.33-4.9-8.6-4.9-11s4.46,1.42,16,1.42h.46c7.89,0,12.78-2.53,13.65-3s2.39-.65,2.39,1.6S109.74,97.76,106.7,101.09Z"/></clipPath><clipPath id="clip-path-2"><rect class="cls-2" x="-487.11" y="-1323.07" width="1006.19" height="1831.22"/></clipPath><linearGradient id="linear-gradient-8" x1="95.33" y1="118.59" x2="95.33" y2="82.57" gradientUnits="userSpaceOnUse"><stop offset="0" stop-color="#a66707"/><stop offset="0.5" stop-color="#9d6209"/><stop offset="1"/></linearGradient><linearGradient id="linear-gradient-9" x1="98.2" y1="105.04" x2="97.99" y2="92.64" gradientUnits="userSpaceOnUse"><stop offset="0" stop-color="#ffd22d" stop-opacity="0"/><stop offset="0.81" stop-color="#a66707" stop-opacity="0.7"/><stop offset="1" stop-color="#a66707"/></linearGradient><clipPath id="clip-path-3"><path class="cls-4" d="M110.7,464.09a15.08,15.08,0,0,1-11.14,5h0l-.22,0-.21,0h0a15.08,15.08,0,0,1-11.14-5c-3-3.33-4.9-8.6-4.9-11s4.46,1.42,16,1.42h.46c7.89,0,12.78-2.53,13.65-3s2.39-.65,2.39,1.6S113.74,460.76,110.7,464.09Z"/></clipPath><linearGradient id="linear-gradient-11" x1="19.98" y1="871.14" x2="19.98" y2="-960.07" xlink:href="#linear-gradient"/><clipPath id="clip-path-4"><path class="cls-5" d="M104.92,1204.8A14.37,14.37,0,0,0,94.3,1200h0l-.2,0-.21,0h0c-10.6,1.07-18.13,10.4-15.32,15.28,2.46,5.5,19.9-8.34,27.83.57,2.35,1.31,3.73-1,3.23-3.43C109.17,1210.31,107.83,1208,104.92,1204.8Z"/></clipPath><linearGradient id="linear-gradient-13" x1="13.98" y1="1619.14" x2="13.98" y2="-212.07" xlink:href="#linear-gradient"/><clipPath id="clip-path-5"><path class="cls-6" d="M78.83,1209.55s-1.83,3.45-.29,5.73c2.46,5.5,19.9-8.34,27.83.57a53.52,53.52,0,0,0,.45-8.81S78.83,1210.39,78.83,1209.55Z"/></clipPath><clipPath id="clip-path-6"><path class="cls-6" d="M104.92,1204.8A14.37,14.37,0,0,0,94.3,1200h0l-.2,0-.21,0h0A21.62,21.62,0,0,0,80,1207.6s27.06-.24,26.65-.75S105.59,1205.53,104.92,1204.8Z"/></clipPath><clipPath id="clip-path-7"><path class="cls-3" d="M104.92,1204.8c-1.92-2.8-7.37-4.41-7.37-4.41.45,1.61.45,5.61-.15,6.94,0,0,9.44-.28,9.27-.48C106.17,1206.21,105.59,1205.53,104.92,1204.8Z"/></clipPath></defs><title>Artboard 42 copy 68</title><circle class="cls-7" cx="79.75" cy="80" r="39.46"/><g class="cls-8"><path d="M119.21,80a39.46,39.46,0,0,1-67.13,28.13c10.36,2.33,36,3,49.82-14.28,10.39-12.47,8.31-33.23,4.16-43.26A39.35,39.35,0,0,1,119.21,80Z"/></g><path class="cls-9" d="M113.67,83.06c-2.07,7.27-19.38-9.35-33.92-8.66S48.6,89.64,45.83,83.06C45.83,62.6,61,46,79.75,46S113.67,62.6,113.67,83.06Z"/><path class="cls-10" d="M89.6,66.55s-.61-3.74-6.33-3.34c-5.44.77-2.25,5.45,2.84,8s8,6.86,2.47,8.29c-5.13,1.13-7.43-2.46-6.46-5.36"/><path class="cls-10" d="M83.54,60.71s4.11,11.8,4.32,22.52"/><path class="cls-10" d="M108.5,65.87s-.94-3.43-6.25-2.49c-5,1.24-1.56,5.31,3.44,7.18s8.12,5.62,3.12,7.5c-4.68,1.56-7.18-1.56-6.56-4.38"/><path class="cls-10" d="M102.17,60.88s5,10.62,6.25,20.61"/><path class="cls-11" d="M106.7,101.09a15.08,15.08,0,0,1-11.14,5h0l-.22,0-.21,0h0a15.08,15.08,0,0,1-11.14-5c-3-3.33-4.9-8.6-4.9-11s4.46,1.42,16,1.42h.46c7.89,0,12.78-2.53,13.65-3s2.39-.65,2.39,1.6S109.74,97.76,106.7,101.09Z"/><g class="cls-12"><rect class="cls-2" x="-487.11" y="-1323.07" width="1006.19" height="1831.22"/><g class="cls-13"><rect class="cls-14" x="76.55" y="82.57" width="37.54" height="36.02"/></g></g><path class="cls-15" d="M92.07,92.25c-.42.17-.81,10.58-.11,14.55s9.25,7.63,11.76-4c1.38-4.43.68-11.9.68-11.9S97.58,93.13,92.07,92.25Z"/><path class="cls-16" d="M98.69,94.56s.67,7.17-.18,11.41.7,4.25,2.39,2.12,3.77-6.26,3.55-13.79V90.89l-5.94,1.66Z"/><path class="cls-17" d="M92.07,92.25c-.42.17-.81,10.58-.11,14.55s9.25,7.63,11.76-4c1.38-4.43.68-11.9.68-11.9S97.58,93.13,92.07,92.25Z"/><path class="cls-18" d="M110.7,464.09a15.08,15.08,0,0,1-11.14,5h0l-.22,0-.21,0h0a15.08,15.08,0,0,1-11.14-5c-3-3.33-4.9-8.6-4.9-11s4.46,1.42,16,1.42h.46c7.89,0,12.78-2.53,13.65-3s2.39-.65,2.39,1.6S113.74,460.76,110.7,464.09Z"/><g class="cls-19"><rect class="cls-20" x="-483.11" y="-960.07" width="1006.19" height="1831.22"/></g><path class="cls-21" d="M104.92,1204.8A14.37,14.37,0,0,0,94.3,1200h0l-.2,0-.21,0h0c-10.6,1.07-18.13,10.4-15.32,15.28,2.46,5.5,19.9-8.34,27.83.57,2.35,1.31,3.73-1,3.23-3.43C109.17,1210.31,107.83,1208,104.92,1204.8Z"/><g class="cls-22"><rect class="cls-23" x="-489.11" y="-212.07" width="1006.19" height="1831.22"/></g><path class="cls-24" d="M78.83,1209.55s-1.83,3.45-.29,5.73c2.46,5.5,19.9-8.34,27.83.57a53.52,53.52,0,0,0,.45-8.81S78.83,1210.39,78.83,1209.55Z"/><g class="cls-25"><rect class="cls-26" x="-489.11" y="-212.07" width="1006.19" height="1831.22"/></g><path class="cls-24" d="M104.92,1204.8A14.37,14.37,0,0,0,94.3,1200h0l-.2,0-.21,0h0A21.62,21.62,0,0,0,80,1207.6s27.06-.24,26.65-.75S105.59,1205.53,104.92,1204.8Z"/><g class="cls-27"><rect class="cls-26" x="-489.11" y="-212.07" width="1006.19" height="1831.22"/></g><g class="cls-8"><path class="cls-28" d="M104.92,1204.8c-1.92-2.8-7.37-4.41-7.37-4.41.45,1.61.45,5.61-.15,6.94,0,0,9.44-.28,9.27-.48C106.17,1206.21,105.59,1205.53,104.92,1204.8Z"/><g class="cls-29"><rect x="-489.11" y="-212.07" width="1006.19" height="1831.22"/></g></g></svg>