<svg xmlns="http://www.w3.org/2000/svg" xmlns:xlink="http://www.w3.org/1999/xlink" viewBox="0 0 160 160"><defs><style>.cls-1,.cls-8{fill:url(#linear-gradient);}.cls-1,.cls-2,.cls-3{clip-rule:evenodd;}.cls-11,.cls-13,.cls-2{fill:#fff;}.cls-4{fill:url(#radial-gradient);}.cls-5{opacity:0.05;}.cls-6{fill:url(#linear-gradient-2);}.cls-7{fill:none;stroke:#000;stroke-linecap:round;stroke-linejoin:round;}.cls-11,.cls-15,.cls-8{fill-rule:evenodd;}.cls-9{clip-path:url(#clip-path);}.cls-10{fill:url(#linear-gradient-4);}.cls-12{clip-path:url(#clip-path-2);}.cls-14{clip-path:url(#clip-path-3);}.cls-16{clip-path:url(#clip-path-4);}</style><linearGradient id="linear-gradient" x1="93.83" y1="936.33" x2="93.83" y2="919.71" gradientTransform="matrix(1, 0, 0, -1, 0, 642.33)" gradientUnits="userSpaceOnUse"><stop offset="0" stop-color="#a66707"/><stop offset="1"/></linearGradient><radialGradient id="radial-gradient" cx="79.75" cy="80" r="39.46" gradientUnits="userSpaceOnUse"><stop offset="0" stop-color="#ffd22d"/><stop offset="0.87" stop-color="#fcb22b"/><stop offset="1" stop-color="#f28312"/></radialGradient><linearGradient id="linear-gradient-2" x1="-9.24" y1="84.9" x2="-9.24" y2="46.02" gradientTransform="translate(88.1) scale(0.9 1)" gradientUnits="userSpaceOnUse"><stop offset="0" stop-color="#ffd22d" stop-opacity="0"/><stop offset="0.81" stop-color="#fffcef" stop-opacity="0.7"/><stop offset="1" stop-color="#fff" stop-opacity="0.8"/></linearGradient><clipPath id="clip-path"><path class="cls-1" d="M104.92-289.2A14.37,14.37,0,0,0,94.3-294h0l-.2,0-.21,0h0c-10.6,1.07-18.13,10.4-15.32,15.28,2.46,5.5,19.9-8.34,27.83.57,2.35,1.31,3.73-1,3.23-3.43C109.17-283.69,107.83-286,104.92-289.2Z"/></clipPath><linearGradient id="linear-gradient-4" x1="13.98" y1="125.14" x2="13.98" y2="-1706.07" gradientTransform="matrix(1, 0, 0, 1, 0, 0)" xlink:href="#linear-gradient"/><clipPath id="clip-path-2"><path class="cls-2" d="M78.83-284.45S77-281,78.54-278.72c2.46,5.5,19.9-8.34,27.83.57a53.52,53.52,0,0,0,.45-8.81S78.83-283.61,78.83-284.45Z"/></clipPath><clipPath id="clip-path-3"><path class="cls-2" d="M104.92-289.2A14.37,14.37,0,0,0,94.3-294h0l-.2,0-.21,0h0A21.62,21.62,0,0,0,80-286.4s27.06-.24,26.65-.75S105.59-288.47,104.92-289.2Z"/></clipPath><clipPath id="clip-path-4"><path class="cls-3" d="M104.92-289.2c-1.92-2.8-7.37-4.41-7.37-4.41C98-292,98-288,97.4-286.67c0,0,9.44-.28,9.27-.48C106.17-287.79,105.59-288.47,104.92-289.2Z"/></clipPath></defs><title>Artboard 42 copy 104</title><circle class="cls-4" cx="79.75" cy="80" r="39.46"/><g class="cls-5"><path d="M119.21,80a39.46,39.46,0,0,1-67.13,28.13c10.36,2.33,36,3,49.82-14.28,10.39-12.47,8.31-33.23,4.16-43.26A39.35,39.35,0,0,1,119.21,80Z"/></g><path class="cls-6" d="M113.67,83.06c-2.07,7.27-19.38-9.35-33.92-8.66S48.6,89.64,45.83,83.06C45.83,62.6,61,46,79.75,46S113.67,62.6,113.67,83.06Z"/><path d="M85,65c-2-1-5-2-9,3s-8,13-5,19,11,3,12-1,0-6,3-9S90,68,85,65Z"/><path d="M104.21,64.76c1.86-.93,4.65-1.86,8.38,2.79s7.44,12.1,4.65,17.69S107,88,106.07,84.3s0-5.58-2.79-8.37S99.56,67.55,104.21,64.76Z"/><path d="M92,86s7-2,12,0c1.23.42,1,1.13,0,2,0,0-5,4-6,4s-7-4-7-4C90,87,90.51,86.35,92,86Z"/><path class="cls-7" d="M96,101c2.23.23,2-11,2-11"/><path class="cls-7" d="M84.5,96.5s10,11,24,0"/><path class="cls-8" d="M104.92-289.2A14.37,14.37,0,0,0,94.3-294h0l-.2,0-.21,0h0c-10.6,1.07-18.13,10.4-15.32,15.28,2.46,5.5,19.9-8.34,27.83.57,2.35,1.31,3.73-1,3.23-3.43C109.17-283.69,107.83-286,104.92-289.2Z"/><g class="cls-9"><rect class="cls-10" x="-489.11" y="-1706.07" width="1006.19" height="1831.22"/></g><path class="cls-11" d="M78.83-284.45S77-281,78.54-278.72c2.46,5.5,19.9-8.34,27.83.57a53.52,53.52,0,0,0,.45-8.81S78.83-283.61,78.83-284.45Z"/><g class="cls-12"><rect class="cls-13" x="-489.11" y="-1706.07" width="1006.19" height="1831.22"/></g><path class="cls-11" d="M104.92-289.2A14.37,14.37,0,0,0,94.3-294h0l-.2,0-.21,0h0A21.62,21.62,0,0,0,80-286.4s27.06-.24,26.65-.75S105.59-288.47,104.92-289.2Z"/><g class="cls-14"><rect class="cls-13" x="-489.11" y="-1706.07" width="1006.19" height="1831.22"/></g><g class="cls-5"><path class="cls-15" d="M104.92-289.2c-1.92-2.8-7.37-4.41-7.37-4.41C98-292,98-288,97.4-286.67c0,0,9.44-.28,9.27-.48C106.17-287.79,105.59-288.47,104.92-289.2Z"/><g class="cls-16"><rect x="-489.11" y="-1706.07" width="1006.19" height="1831.22"/></g></g></svg>