<svg xmlns="http://www.w3.org/2000/svg" xmlns:xlink="http://www.w3.org/1999/xlink" viewBox="0 0 160 160"><defs><style>.cls-1,.cls-7{fill:url(#linear-gradient);}.cls-1,.cls-2,.cls-3,.cls-5,.cls-6{clip-rule:evenodd;}.cls-13,.cls-3{fill:url(#linear-gradient-2);}.cls-4{fill:url(#linear-gradient-3);}.cls-21,.cls-5{fill:url(#linear-gradient-4);}.cls-20,.cls-24,.cls-6{fill:#fff;}.cls-13,.cls-21,.cls-24,.cls-27,.cls-7{fill-rule:evenodd;}.cls-8{clip-path:url(#clip-path);}.cls-9{fill:url(#linear-gradient-6);}.cls-10{fill:url(#radial-gradient);}.cls-11{opacity:0.05;}.cls-12{fill:url(#linear-gradient-7);}.cls-14{clip-path:url(#clip-path-2);}.cls-15{clip-path:url(#clip-path-3);}.cls-16{fill:url(#linear-gradient-10);}.cls-17{fill:#f15a24;}.cls-18{fill:#e84715;}.cls-19{fill:url(#linear-gradient-11);}.cls-22{clip-path:url(#clip-path-4);}.cls-23{fill:url(#linear-gradient-13);}.cls-25{clip-path:url(#clip-path-5);}.cls-26{clip-path:url(#clip-path-6);}.cls-28{clip-path:url(#clip-path-7);}</style><linearGradient id="linear-gradient" x1="95.33" y1="-259.88" x2="95.33" y2="-277.79" gradientUnits="userSpaceOnUse"><stop offset="0" stop-color="#a66707"/><stop offset="1"/></linearGradient><linearGradient id="linear-gradient-2" x1="99.33" y1="103.12" x2="99.33" y2="85.21" xlink:href="#linear-gradient"/><linearGradient id="linear-gradient-3" x1="19.98" y1="505.14" x2="19.98" y2="-1326.07" xlink:href="#linear-gradient"/><linearGradient id="linear-gradient-4" x1="93.83" y1="2064.33" x2="93.83" y2="2047.71" gradientTransform="matrix(1, 0, 0, -1, 0, 2898.33)" xlink:href="#linear-gradient"/><clipPath id="clip-path"><path class="cls-1" d="M106.7-264.91a15.08,15.08,0,0,1-11.14,5h0l-.22,0-.21,0h0a15.08,15.08,0,0,1-11.14-5c-3-3.33-4.9-8.6-4.9-11s4.46,1.42,16,1.42h.46c7.89,0,12.78-2.53,13.65-3s2.39-.65,2.39,1.6S109.74-268.24,106.7-264.91Z"/></clipPath><linearGradient id="linear-gradient-6" x1="15.98" y1="142.14" x2="15.98" y2="-1689.07" xlink:href="#linear-gradient"/><radialGradient id="radial-gradient" cx="79.75" cy="80" r="39.46" gradientUnits="userSpaceOnUse"><stop offset="0" stop-color="#ffd22d"/><stop offset="0.87" stop-color="#fcb22b"/><stop offset="1" stop-color="#f28312"/></radialGradient><linearGradient id="linear-gradient-7" x1="-9.24" y1="84.9" x2="-9.24" y2="46.02" gradientTransform="translate(88.1) scale(0.9 1)" gradientUnits="userSpaceOnUse"><stop offset="0" stop-color="#ffd22d" stop-opacity="0"/><stop offset="0.81" stop-color="#fffcef" stop-opacity="0.7"/><stop offset="1" stop-color="#fff" stop-opacity="0.8"/></linearGradient><clipPath id="clip-path-2"><path class="cls-3" d="M110.7,98.09a15.08,15.08,0,0,1-11.14,5h0l-.22,0-.21,0h0a15.08,15.08,0,0,1-11.14-5c-3-3.33-4.9-8.6-4.9-11s4.46,1.42,16,1.42h.46c7.89,0,12.78-2.53,13.65-3s2.39-.65,2.39,1.6S113.74,94.76,110.7,98.09Z"/></clipPath><clipPath id="clip-path-3"><rect class="cls-4" x="-483.11" y="-1326.07" width="1006.19" height="1831.22"/></clipPath><linearGradient id="linear-gradient-10" x1="99.33" y1="115.59" x2="99.33" y2="79.57" gradientUnits="userSpaceOnUse"><stop offset="0" stop-color="#a66707"/><stop offset="0.5" stop-color="#9d6209"/><stop offset="1"/></linearGradient><linearGradient id="linear-gradient-11" x1="102.2" y1="102.04" x2="101.99" y2="89.64" gradientUnits="userSpaceOnUse"><stop offset="0" stop-color="#ffd22d" stop-opacity="0"/><stop offset="0.81" stop-color="#a66707" stop-opacity="0.7"/><stop offset="1" stop-color="#a66707"/></linearGradient><clipPath id="clip-path-4"><path class="cls-5" d="M104.92,838.8A14.37,14.37,0,0,0,94.3,834h0l-.2,0-.21,0h0c-10.6,1.07-18.13,10.4-15.32,15.28,2.46,5.5,19.9-8.34,27.83.57,2.35,1.31,3.73-1,3.23-3.43C109.17,844.31,107.83,842,104.92,838.8Z"/></clipPath><linearGradient id="linear-gradient-13" x1="13.98" y1="1253.14" x2="13.98" y2="-578.07" xlink:href="#linear-gradient"/><clipPath id="clip-path-5"><path class="cls-6" d="M78.83,843.55S77,847,78.54,849.28c2.46,5.5,19.9-8.34,27.83.57a53.52,53.52,0,0,0,.45-8.81S78.83,844.39,78.83,843.55Z"/></clipPath><clipPath id="clip-path-6"><path class="cls-6" d="M104.92,838.8A14.37,14.37,0,0,0,94.3,834h0l-.2,0-.21,0h0A21.62,21.62,0,0,0,80,841.6s27.06-.24,26.65-.75S105.59,839.53,104.92,838.8Z"/></clipPath><clipPath id="clip-path-7"><path class="cls-2" d="M104.92,838.8c-1.92-2.8-7.37-4.41-7.37-4.41C98,836,98,840,97.4,841.33c0,0,9.44-.28,9.27-.48C106.17,840.21,105.59,839.53,104.92,838.8Z"/></clipPath></defs><title>Artboard 42 copy 73</title><path class="cls-7" d="M106.7-264.91a15.08,15.08,0,0,1-11.14,5h0l-.22,0-.21,0h0a15.08,15.08,0,0,1-11.14-5c-3-3.33-4.9-8.6-4.9-11s4.46,1.42,16,1.42h.46c7.89,0,12.78-2.53,13.65-3s2.39-.65,2.39,1.6S109.74-268.24,106.7-264.91Z"/><g class="cls-8"><rect class="cls-9" x="-487.11" y="-1689.07" width="1006.19" height="1831.22"/></g><circle class="cls-10" cx="79.75" cy="80" r="39.46"/><g class="cls-11"><path d="M119.21,80a39.46,39.46,0,0,1-67.13,28.13c10.36,2.33,36,3,49.82-14.28,10.39-12.47,8.31-33.23,4.16-43.26A39.3,39.3,0,0,1,119.21,80Z"/></g><path class="cls-12" d="M113.67,83.06c-2.07,7.27-19.38-9.35-33.92-8.66S48.6,89.64,45.83,83.06C45.83,62.6,61,46,79.75,46S113.67,62.6,113.67,83.06Z"/><path class="cls-13" d="M110.7,98.09a15.08,15.08,0,0,1-11.14,5h0l-.22,0-.21,0h0a15.08,15.08,0,0,1-11.14-5c-3-3.33-4.9-8.6-4.9-11s4.46,1.42,16,1.42h.46c7.89,0,12.78-2.53,13.65-3s2.39-.65,2.39,1.6S113.74,94.76,110.7,98.09Z"/><g class="cls-14"><rect class="cls-4" x="-483.11" y="-1326.07" width="1006.19" height="1831.22"/><g class="cls-15"><rect class="cls-16" x="80.55" y="79.57" width="37.54" height="36.02"/></g></g><path class="cls-17" d="M96.07,89.25c-.42.17-.81,10.58-.11,14.55s9.25,7.63,11.76-4c1.38-4.43.68-11.9.68-11.9S101.58,90.13,96.07,89.25Z"/><path class="cls-18" d="M102.69,91.56s.67,7.17-.18,11.41.7,4.25,2.39,2.12,3.77-6.26,3.55-13.79V87.89l-5.94,1.66Z"/><path class="cls-19" d="M96.07,89.25c-.42.17-.81,10.58-.11,14.55s9.25,7.63,11.76-4c1.38-4.43.68-11.9.68-11.9S101.58,90.13,96.07,89.25Z"/><ellipse class="cls-20" cx="100.32" cy="71.71" rx="7.68" ry="10.76" transform="translate(-3.79 5.62) rotate(-3.15)"/><ellipse cx="100.42" cy="73.5" rx="4.58" ry="5.5"/><circle class="cls-20" cx="97.5" cy="70.5" r="2.5"/><path d="M94,61c4.41-5.13,8.74-5,13,0C107,61,101,49,94,61Z"/><path class="cls-21" d="M104.92,838.8A14.37,14.37,0,0,0,94.3,834h0l-.2,0-.21,0h0c-10.6,1.07-18.13,10.4-15.32,15.28,2.46,5.5,19.9-8.34,27.83.57,2.35,1.31,3.73-1,3.23-3.43C109.17,844.31,107.83,842,104.92,838.8Z"/><g class="cls-22"><rect class="cls-23" x="-489.11" y="-578.07" width="1006.19" height="1831.22"/></g><path class="cls-24" d="M78.83,843.55S77,847,78.54,849.28c2.46,5.5,19.9-8.34,27.83.57a53.52,53.52,0,0,0,.45-8.81S78.83,844.39,78.83,843.55Z"/><g class="cls-25"><rect class="cls-20" x="-489.11" y="-578.07" width="1006.19" height="1831.22"/></g><path class="cls-24" d="M104.92,838.8A14.37,14.37,0,0,0,94.3,834h0l-.2,0-.21,0h0A21.62,21.62,0,0,0,80,841.6s27.06-.24,26.65-.75S105.59,839.53,104.92,838.8Z"/><g class="cls-26"><rect class="cls-20" x="-489.11" y="-578.07" width="1006.19" height="1831.22"/></g><g class="cls-11"><path class="cls-27" d="M104.92,838.8c-1.92-2.8-7.37-4.41-7.37-4.41C98,836,98,840,97.4,841.33c0,0,9.44-.28,9.27-.48C106.17,840.21,105.59,839.53,104.92,838.8Z"/><g class="cls-28"><rect x="-489.11" y="-578.07" width="1006.19" height="1831.22"/></g></g></svg>