<svg xmlns="http://www.w3.org/2000/svg" xmlns:xlink="http://www.w3.org/1999/xlink" viewBox="0 0 160 160"><defs><style>.cls-1,.cls-5{fill:url(#linear-gradient);}.cls-1,.cls-2,.cls-3,.cls-4{clip-rule:evenodd;}.cls-2,.cls-8{fill:url(#linear-gradient-2);}.cls-11,.cls-13,.cls-22,.cls-3{fill:#fff;}.cls-11,.cls-16,.cls-5,.cls-8{fill-rule:evenodd;}.cls-6{clip-path:url(#clip-path);}.cls-7{fill:url(#linear-gradient-4);}.cls-9{clip-path:url(#clip-path-2);}.cls-10{fill:url(#linear-gradient-6);}.cls-12{clip-path:url(#clip-path-3);}.cls-14{clip-path:url(#clip-path-4);}.cls-15{opacity:0.05;}.cls-17{clip-path:url(#clip-path-5);}.cls-18{fill:url(#radial-gradient);}.cls-19{fill:url(#linear-gradient-7);}.cls-20{fill:#603813;}.cls-21{fill:#42210b;}.cls-22{opacity:0.1;}.cls-23{fill:none;stroke:#42210b;stroke-linecap:round;stroke-linejoin:round;stroke-width:2px;}</style><linearGradient id="linear-gradient" x1="99.33" y1="-271.88" x2="99.33" y2="-289.79" gradientUnits="userSpaceOnUse"><stop offset="0" stop-color="#a66707"/><stop offset="1"/></linearGradient><linearGradient id="linear-gradient-2" x1="93.83" y1="1689.33" x2="93.83" y2="1672.71" gradientTransform="matrix(1, 0, 0, -1, 0, 2148.33)" xlink:href="#linear-gradient"/><clipPath id="clip-path"><path class="cls-1" d="M110.7-276.91a15.08,15.08,0,0,1-11.14,5h0l-.22,0-.21,0h0a15.08,15.08,0,0,1-11.14-5c-3-3.33-4.9-8.6-4.9-11s4.46,1.42,16,1.42h.46c7.89,0,12.78-2.53,13.65-3s2.39-.65,2.39,1.6S113.74-280.24,110.7-276.91Z"/></clipPath><linearGradient id="linear-gradient-4" x1="19.98" y1="130.14" x2="19.98" y2="-1701.07" xlink:href="#linear-gradient"/><clipPath id="clip-path-2"><path class="cls-2" d="M104.92,463.8A14.37,14.37,0,0,0,94.3,459h0l-.2,0-.21,0h0c-10.6,1.07-18.13,10.4-15.32,15.28,2.46,5.5,19.9-8.34,27.83.57,2.35,1.31,3.73-1,3.23-3.43C109.17,469.31,107.83,467,104.92,463.8Z"/></clipPath><linearGradient id="linear-gradient-6" x1="13.98" y1="878.14" x2="13.98" y2="-953.07" xlink:href="#linear-gradient"/><clipPath id="clip-path-3"><path class="cls-3" d="M78.83,468.55S77,472,78.54,474.28c2.46,5.5,19.9-8.34,27.83.57a53.52,53.52,0,0,0,.45-8.81S78.83,469.39,78.83,468.55Z"/></clipPath><clipPath id="clip-path-4"><path class="cls-3" d="M104.92,463.8A14.37,14.37,0,0,0,94.3,459h0l-.2,0-.21,0h0A21.62,21.62,0,0,0,80,466.6s27.06-.24,26.65-.75S105.59,464.53,104.92,463.8Z"/></clipPath><clipPath id="clip-path-5"><path class="cls-4" d="M104.92,463.8c-1.92-2.8-7.37-4.41-7.37-4.41C98,461,98,465,97.4,466.33c0,0,9.44-.28,9.27-.48C106.17,465.21,105.59,464.53,104.92,463.8Z"/></clipPath><radialGradient id="radial-gradient" cx="79.75" cy="80" r="39.46" gradientUnits="userSpaceOnUse"><stop offset="0" stop-color="#ffd22d"/><stop offset="0.87" stop-color="#fcb22b"/><stop offset="1" stop-color="#f28312"/></radialGradient><linearGradient id="linear-gradient-7" x1="-9.24" y1="84.9" x2="-9.24" y2="46.02" gradientTransform="translate(88.1) scale(0.9 1)" gradientUnits="userSpaceOnUse"><stop offset="0" stop-color="#ffd22d" stop-opacity="0"/><stop offset="0.81" stop-color="#fffcef" stop-opacity="0.7"/><stop offset="1" stop-color="#fff" stop-opacity="0.8"/></linearGradient></defs><title>Artboard 42 copy 83</title><path class="cls-5" d="M110.7-276.91a15.08,15.08,0,0,1-11.14,5h0l-.22,0-.21,0h0a15.08,15.08,0,0,1-11.14-5c-3-3.33-4.9-8.6-4.9-11s4.46,1.42,16,1.42h.46c7.89,0,12.78-2.53,13.65-3s2.39-.65,2.39,1.6S113.74-280.24,110.7-276.91Z"/><g class="cls-6"><rect class="cls-7" x="-483.11" y="-1701.07" width="1006.19" height="1831.22"/></g><path class="cls-8" d="M104.92,463.8A14.37,14.37,0,0,0,94.3,459h0l-.2,0-.21,0h0c-10.6,1.07-18.13,10.4-15.32,15.28,2.46,5.5,19.9-8.34,27.83.57,2.35,1.31,3.73-1,3.23-3.43C109.17,469.31,107.83,467,104.92,463.8Z"/><g class="cls-9"><rect class="cls-10" x="-489.11" y="-953.07" width="1006.19" height="1831.22"/></g><path class="cls-11" d="M78.83,468.55S77,472,78.54,474.28c2.46,5.5,19.9-8.34,27.83.57a53.52,53.52,0,0,0,.45-8.81S78.83,469.39,78.83,468.55Z"/><g class="cls-12"><rect class="cls-13" x="-489.11" y="-953.07" width="1006.19" height="1831.22"/></g><path class="cls-11" d="M104.92,463.8A14.37,14.37,0,0,0,94.3,459h0l-.2,0-.21,0h0A21.62,21.62,0,0,0,80,466.6s27.06-.24,26.65-.75S105.59,464.53,104.92,463.8Z"/><g class="cls-14"><rect class="cls-13" x="-489.11" y="-953.07" width="1006.19" height="1831.22"/></g><g class="cls-15"><path class="cls-16" d="M104.92,463.8c-1.92-2.8-7.37-4.41-7.37-4.41C98,461,98,465,97.4,466.33c0,0,9.44-.28,9.27-.48C106.17,465.21,105.59,464.53,104.92,463.8Z"/><g class="cls-17"><rect x="-489.11" y="-953.07" width="1006.19" height="1831.22"/></g></g><rect class="cls-13" x="47.33" y="100.77" width="14.6" height="14.6" rx="7.3" ry="7.3"/><circle class="cls-18" cx="79.75" cy="80" r="39.46"/><g class="cls-15"><path d="M119.21,80a39.46,39.46,0,0,1-67.13,28.13c10.36,2.33,36,3,49.82-14.28,10.39-12.47,8.31-33.23,4.16-43.26A39.35,39.35,0,0,1,119.21,80Z"/></g><path class="cls-19" d="M113.67,83.06c-2.07,7.27-19.38-9.35-33.92-8.66S48.6,89.64,45.83,83.06C45.83,62.6,61,46,79.75,46S113.67,62.6,113.67,83.06Z"/><path class="cls-20" d="M98.16,83.39h0a8.68,8.68,0,0,1,8.68,8.68v3.26A8.68,8.68,0,0,1,98.16,104h-.72a8,8,0,0,1-8-8v-4a8.68,8.68,0,0,1,8.68-8.68Z" transform="translate(4.38 -4.38) rotate(2.61)"/><ellipse class="cls-21" cx="107.82" cy="70.01" rx="3.61" ry="5.06" transform="translate(-11.82 22.98) rotate(-11.54)"/><path class="cls-22" d="M36.48,46.44S43,56,38.84,70.35C39.36,76,38.63,48.08,36.48,46.44Z"/><path class="cls-23" d="M81.77,66.28s8.19,2,8.9,7.64"/><path class="cls-23" d="M81.7,72.82s5.4-2.43,8.24.44"/></svg>