<svg xmlns="http://www.w3.org/2000/svg" xmlns:xlink="http://www.w3.org/1999/xlink" viewBox="0 0 160 160"><defs><style>.cls-1,.cls-10{fill:url(#linear-gradient);}.cls-1,.cls-3,.cls-5{clip-rule:evenodd;}.cls-2{fill:url(#linear-gradient-2);}.cls-14,.cls-20,.cls-3,.cls-4{fill:#fff;}.cls-6{fill:url(#radial-gradient);}.cls-7{opacity:0.05;}.cls-8{fill:url(#linear-gradient-3);}.cls-9{fill:none;stroke:#000;stroke-linecap:round;stroke-linejoin:round;stroke-width:0.5px;}.cls-10,.cls-14,.cls-18{fill-rule:evenodd;}.cls-11{clip-path:url(#clip-path);}.cls-12{clip-path:url(#clip-path-2);}.cls-13{fill:url(#linear-gradient-6);}.cls-15{clip-path:url(#clip-path-3);}.cls-16{clip-path:url(#clip-path-4);}.cls-17{clip-path:url(#clip-path-5);}.cls-19{clip-path:url(#clip-path-7);}.cls-20{opacity:0.1;}</style><linearGradient id="linear-gradient" x1="94.83" y1="2083.33" x2="94.83" y2="2066.71" gradientTransform="matrix(1, 0, 0, -1, 0, 2170.33)" gradientUnits="userSpaceOnUse"><stop offset="0" stop-color="#a66707"/><stop offset="1"/></linearGradient><linearGradient id="linear-gradient-2" x1="14.98" y1="506.14" x2="14.98" y2="-1325.07" gradientTransform="matrix(1, 0, 0, 1, 0, 0)" xlink:href="#linear-gradient"/><radialGradient id="radial-gradient" cx="79.75" cy="80" r="39.46" gradientUnits="userSpaceOnUse"><stop offset="0" stop-color="#ffd22d"/><stop offset="0.87" stop-color="#fcb22b"/><stop offset="1" stop-color="#f28312"/></radialGradient><linearGradient id="linear-gradient-3" x1="-139.74" y1="84.9" x2="-139.74" y2="46.02" gradientTransform="translate(206.01) scale(0.9 1)" gradientUnits="userSpaceOnUse"><stop offset="0" stop-color="#ffd22d" stop-opacity="0"/><stop offset="0.81" stop-color="#fffcef" stop-opacity="0.7"/><stop offset="1" stop-color="#fff" stop-opacity="0.8"/></linearGradient><clipPath id="clip-path"><path class="cls-1" d="M105.92,91.8A14.37,14.37,0,0,0,95.3,87h0l-.2,0-.21,0h0c-10.6,1.07-18.13,10.4-15.32,15.28,2.46,5.5,19.9-8.34,27.83.57,2.35,1.31,3.73-1,3.23-3.43C110.17,97.31,108.83,95,105.92,91.8Z"/></clipPath><clipPath id="clip-path-2"><rect class="cls-2" x="-488.11" y="-1325.07" width="1006.19" height="1831.22"/></clipPath><linearGradient id="linear-gradient-6" x1="94.33" y1="116.59" x2="94.33" y2="80.57" gradientUnits="userSpaceOnUse"><stop offset="0" stop-color="#a66707"/><stop offset="0.5" stop-color="#9d6209"/><stop offset="1"/></linearGradient><clipPath id="clip-path-3"><path class="cls-3" d="M79.83,96.55S78,100,79.54,102.28c2.46,5.5,19.9-8.34,27.83.57a53.52,53.52,0,0,0,.45-8.81S79.83,97.39,79.83,96.55Z"/></clipPath><clipPath id="clip-path-4"><rect class="cls-4" x="-488.11" y="-1325.07" width="1006.19" height="1831.22"/></clipPath><clipPath id="clip-path-5"><path class="cls-3" d="M105.92,91.8A14.37,14.37,0,0,0,95.3,87h0l-.2,0-.21,0h0A21.62,21.62,0,0,0,81,94.6s27.06-.24,26.65-.75S106.59,92.53,105.92,91.8Z"/></clipPath><clipPath id="clip-path-7"><path class="cls-5" d="M105.92,91.8c-1.92-2.8-7.37-4.41-7.37-4.41C99,89,99,93,98.4,94.33c0,0,9.44-.28,9.27-.48C107.17,93.21,106.59,92.53,105.92,91.8Z"/></clipPath></defs><title>Artboard 42 copy 139</title><circle class="cls-6" cx="79.75" cy="80" r="39.46"/><g class="cls-7"><path d="M119.21,80a39.46,39.46,0,0,1-67.13,28.13c10.36,2.33,36,3,49.82-14.28,10.39-12.47,8.31-33.23,4.16-43.26A39.35,39.35,0,0,1,119.21,80Z"/></g><path class="cls-8" d="M113.67,83.06c-2.07,7.27-19.38-9.35-33.92-8.66S48.6,89.64,45.83,83.06C45.83,62.6,61,46,79.75,46S113.67,62.6,113.67,83.06Z"/><path class="cls-9" d="M116.25,67S80.5,55.5,43.05,64.46"/><path d="M100.5,64.36s.5,19.64,7,20.55c4.5,1.09,6.5-1.71,7-4.56s.42-11.42-1.79-14.28L100,63Z"/><ellipse class="cls-4" cx="84.32" cy="73.71" rx="7.68" ry="10.76" transform="translate(-3.92 4.75) rotate(-3.15)"/><ellipse cx="84.42" cy="75.5" rx="4.58" ry="5.5"/><circle class="cls-4" cx="81.5" cy="72.5" r="2.5"/><path d="M78,63.37C81.64,60.73,89.48,65,95,66c0,0-10.94-7.22-12.76-8.22S78,63.37,78,63.37Z"/><path class="cls-10" d="M105.92,91.8A14.37,14.37,0,0,0,95.3,87h0l-.2,0-.21,0h0c-10.6,1.07-18.13,10.4-15.32,15.28,2.46,5.5,19.9-8.34,27.83.57,2.35,1.31,3.73-1,3.23-3.43C110.17,97.31,108.83,95,105.92,91.8Z"/><g class="cls-11"><rect class="cls-2" x="-488.11" y="-1325.07" width="1006.19" height="1831.22"/><g class="cls-12"><rect class="cls-13" x="75.55" y="80.57" width="37.54" height="36.02"/></g></g><path class="cls-14" d="M79.83,96.55S78,100,79.54,102.28c2.46,5.5,19.9-8.34,27.83.57a53.52,53.52,0,0,0,.45-8.81S79.83,97.39,79.83,96.55Z"/><g class="cls-15"><rect class="cls-4" x="-488.11" y="-1325.07" width="1006.19" height="1831.22"/><g class="cls-16"><rect class="cls-4" x="75.55" y="80.57" width="37.54" height="36.02"/></g></g><path class="cls-14" d="M105.92,91.8A14.37,14.37,0,0,0,95.3,87h0l-.2,0-.21,0h0A21.62,21.62,0,0,0,81,94.6s27.06-.24,26.65-.75S106.59,92.53,105.92,91.8Z"/><g class="cls-17"><rect class="cls-4" x="-488.11" y="-1325.07" width="1006.19" height="1831.22"/><g class="cls-16"><rect class="cls-4" x="75.55" y="80.57" width="37.54" height="36.02"/></g></g><g class="cls-7"><path class="cls-18" d="M105.92,91.8c-1.92-2.8-7.37-4.41-7.37-4.41C99,89,99,93,98.4,94.33c0,0,9.44-.28,9.27-.48C107.17,93.21,106.59,92.53,105.92,91.8Z"/><g class="cls-19"><rect x="-488.11" y="-1325.07" width="1006.19" height="1831.22"/><g class="cls-12"><rect x="75.55" y="80.57" width="37.54" height="36.02"/></g></g></g><g class="cls-7"><path d="M98.4,95.31s.41,3.44-.5,4.57a22.12,22.12,0,0,1,5.72.48,9,9,0,0,1,3.81,2.12s1.21-6.41.39-8.44Z"/></g><path class="cls-20" d="M104.23,64s.13,15.37,3.45,18.68L110,85s-5,1.51-7-5.25A112.05,112.05,0,0,1,100,63Z"/></svg>