<svg xmlns="http://www.w3.org/2000/svg" xmlns:xlink="http://www.w3.org/1999/xlink" viewBox="0 0 160 160"><defs><style>.cls-1,.cls-7{fill:url(#linear-gradient);}.cls-1,.cls-2,.cls-3,.cls-4,.cls-5,.cls-6{clip-rule:evenodd;}.cls-27,.cls-3{fill:url(#linear-gradient-2);}.cls-21,.cls-23,.cls-4{fill:#fff;}.cls-15,.cls-5{fill:url(#linear-gradient-3);}.cls-18,.cls-6{fill:url(#linear-gradient-4);}.cls-15,.cls-18,.cls-21,.cls-25,.cls-27,.cls-7{fill-rule:evenodd;}.cls-8{clip-path:url(#clip-path);}.cls-9{fill:url(#linear-gradient-6);}.cls-10{fill:url(#radial-gradient);}.cls-11{opacity:0.05;}.cls-12{fill:url(#linear-gradient-7);}.cls-13{fill:none;stroke:#42210b;stroke-linecap:round;stroke-linejoin:round;stroke-width:2px;}.cls-14{fill:#42210b;}.cls-16{clip-path:url(#clip-path-2);}.cls-17{fill:url(#linear-gradient-9);}.cls-19{clip-path:url(#clip-path-3);}.cls-20{fill:url(#linear-gradient-11);}.cls-22{clip-path:url(#clip-path-4);}.cls-24{clip-path:url(#clip-path-5);}.cls-26{clip-path:url(#clip-path-6);}.cls-28{clip-path:url(#clip-path-7);}.cls-29{fill:url(#linear-gradient-13);}.cls-30{clip-path:url(#clip-path-8);}.cls-31{clip-path:url(#clip-path-9);}.cls-32{clip-path:url(#clip-path-10);}</style><linearGradient id="linear-gradient" x1="95.33" y1="-77.88" x2="95.33" y2="-95.79" gradientUnits="userSpaceOnUse"><stop offset="0" stop-color="#a66707"/><stop offset="1"/></linearGradient><linearGradient id="linear-gradient-2" x1="93.83" y1="2246.33" x2="93.83" y2="2229.71" gradientTransform="matrix(1, 0, 0, -1, 0, 3262.33)" xlink:href="#linear-gradient"/><linearGradient id="linear-gradient-3" x1="99.33" y1="285.12" x2="99.33" y2="267.21" xlink:href="#linear-gradient"/><linearGradient id="linear-gradient-4" x1="-423.17" y1="2625.33" x2="-423.17" y2="2608.71" gradientTransform="matrix(1, 0, 0, -1, 0, 3262.33)" xlink:href="#linear-gradient"/><clipPath id="clip-path"><path class="cls-1" d="M106.7-82.91a15.08,15.08,0,0,1-11.14,5h0l-.22,0-.21,0h0a15.08,15.08,0,0,1-11.14-5c-3-3.33-4.9-8.6-4.9-11s4.46,1.42,16,1.42h.46c7.89,0,12.78-2.53,13.65-3s2.39-.65,2.39,1.6S109.74-86.24,106.7-82.91Z"/></clipPath><linearGradient id="linear-gradient-6" x1="15.98" y1="324.14" x2="15.98" y2="-1507.07" xlink:href="#linear-gradient"/><radialGradient id="radial-gradient" cx="79.75" cy="80" r="39.46" gradientUnits="userSpaceOnUse"><stop offset="0" stop-color="#ffd22d"/><stop offset="0.87" stop-color="#fcb22b"/><stop offset="1" stop-color="#f28312"/></radialGradient><linearGradient id="linear-gradient-7" x1="-9.24" y1="84.9" x2="-9.24" y2="46.02" gradientTransform="translate(88.1) scale(0.9 1)" gradientUnits="userSpaceOnUse"><stop offset="0" stop-color="#ffd22d" stop-opacity="0"/><stop offset="0.81" stop-color="#fffcef" stop-opacity="0.7"/><stop offset="1" stop-color="#fff" stop-opacity="0.8"/></linearGradient><clipPath id="clip-path-2"><path class="cls-5" d="M110.7,280.09a15.08,15.08,0,0,1-11.14,5h0l-.22,0-.21,0h0a15.08,15.08,0,0,1-11.14-5c-3-3.33-4.9-8.6-4.9-11s4.46,1.42,16,1.42h.46c7.89,0,12.78-2.53,13.65-3s2.39-.65,2.39,1.6S113.74,276.76,110.7,280.09Z"/></clipPath><linearGradient id="linear-gradient-9" x1="19.98" y1="687.14" x2="19.98" y2="-1144.07" xlink:href="#linear-gradient"/><clipPath id="clip-path-3"><path class="cls-6" d="M-412.08,641.8A14.37,14.37,0,0,0-422.7,637h0l-.2,0-.21,0h0c-10.6,1.07-18.13,10.4-15.32,15.28,2.46,5.5,19.9-8.34,27.83.57,2.35,1.31,3.73-1,3.23-3.43C-407.83,647.31-409.17,645-412.08,641.8Z"/></clipPath><linearGradient id="linear-gradient-11" x1="-503.02" y1="1056.14" x2="-503.02" y2="-775.07" xlink:href="#linear-gradient"/><clipPath id="clip-path-4"><path class="cls-4" d="M-438.17,646.55s-1.83,3.45-.29,5.73c2.46,5.5,19.9-8.34,27.83.57a53.52,53.52,0,0,0,.45-8.81S-438.17,647.39-438.17,646.55Z"/></clipPath><clipPath id="clip-path-5"><path class="cls-4" d="M-412.08,641.8A14.37,14.37,0,0,0-422.7,637h0l-.2,0-.21,0h0A21.62,21.62,0,0,0-437,644.6s27.06-.24,26.65-.75S-411.41,642.53-412.08,641.8Z"/></clipPath><clipPath id="clip-path-6"><path class="cls-2" d="M-412.08,641.8c-1.92-2.8-7.37-4.41-7.37-4.41.45,1.61.45,5.61-.15,6.94,0,0,9.44-.28,9.27-.48C-410.83,643.21-411.41,642.53-412.08,641.8Z"/></clipPath><clipPath id="clip-path-7"><path class="cls-3" d="M104.92,1020.8A14.37,14.37,0,0,0,94.3,1016h0l-.2,0-.21,0h0c-10.6,1.07-18.13,10.4-15.32,15.28,2.46,5.5,19.9-8.34,27.83.57,2.35,1.31,3.73-1,3.23-3.43C109.17,1026.31,107.83,1024,104.92,1020.8Z"/></clipPath><linearGradient id="linear-gradient-13" x1="13.98" y1="1435.14" x2="13.98" y2="-396.07" xlink:href="#linear-gradient"/><clipPath id="clip-path-8"><path class="cls-4" d="M78.83,1025.55s-1.83,3.45-.29,5.73c2.46,5.5,19.9-8.34,27.83.57a53.52,53.52,0,0,0,.45-8.81S78.83,1026.39,78.83,1025.55Z"/></clipPath><clipPath id="clip-path-9"><path class="cls-4" d="M104.92,1020.8A14.37,14.37,0,0,0,94.3,1016h0l-.2,0-.21,0h0A21.62,21.62,0,0,0,80,1023.6s27.06-.24,26.65-.75S105.59,1021.53,104.92,1020.8Z"/></clipPath><clipPath id="clip-path-10"><path class="cls-2" d="M104.92,1020.8c-1.92-2.8-7.37-4.41-7.37-4.41.45,1.61.45,5.61-.15,6.94,0,0,9.44-.28,9.27-.48C106.17,1022.21,105.59,1021.53,104.92,1020.8Z"/></clipPath></defs><title>Artboard 42 copy 17</title><path class="cls-7" d="M106.7-82.91a15.08,15.08,0,0,1-11.14,5h0l-.22,0-.21,0h0a15.08,15.08,0,0,1-11.14-5c-3-3.33-4.9-8.6-4.9-11s4.46,1.42,16,1.42h.46c7.89,0,12.78-2.53,13.65-3s2.39-.65,2.39,1.6S109.74-86.24,106.7-82.91Z"/><g class="cls-8"><rect class="cls-9" x="-487.11" y="-1507.07" width="1006.19" height="1831.22"/></g><circle class="cls-10" cx="79.75" cy="80" r="39.46"/><g class="cls-11"><path d="M119.21,80a39.46,39.46,0,0,1-67.13,28.13c10.36,2.33,36,3,49.82-14.28,10.39-12.47,8.31-33.23,4.16-43.26A39.35,39.35,0,0,1,119.21,80Z"/></g><path class="cls-12" d="M113.67,83.06c-2.07,7.27-19.38-9.35-33.92-8.66S48.6,89.64,45.83,83.06C45.83,62.6,61,46,79.75,46S113.67,62.6,113.67,83.06Z"/><path class="cls-13" d="M76.13,87.32s2.75,13.41,18.4,12.66c16-.77,16.46-13.63,16.46-13.63"/><path class="cls-13" d="M76.77,68.28s8.19,2,8.9,7.64"/><path class="cls-13" d="M76.7,74.82s5.4-2.43,8.24.44"/><ellipse class="cls-14" cx="108.47" cy="72.94" rx="3.56" ry="4.99" transform="translate(-12.4 23.17) rotate(-11.54)"/><path class="cls-15" d="M110.7,280.09a15.08,15.08,0,0,1-11.14,5h0l-.22,0-.21,0h0a15.08,15.08,0,0,1-11.14-5c-3-3.33-4.9-8.6-4.9-11s4.46,1.42,16,1.42h.46c7.89,0,12.78-2.53,13.65-3s2.39-.65,2.39,1.6S113.74,276.76,110.7,280.09Z"/><g class="cls-16"><rect class="cls-17" x="-483.11" y="-1144.07" width="1006.19" height="1831.22"/></g><path class="cls-18" d="M-412.08,641.8A14.37,14.37,0,0,0-422.7,637h0l-.2,0-.21,0h0c-10.6,1.07-18.13,10.4-15.32,15.28,2.46,5.5,19.9-8.34,27.83.57,2.35,1.31,3.73-1,3.23-3.43C-407.83,647.31-409.17,645-412.08,641.8Z"/><g class="cls-19"><rect class="cls-20" x="-1006.11" y="-775.07" width="1006.19" height="1831.22"/></g><path class="cls-21" d="M-438.17,646.55s-1.83,3.45-.29,5.73c2.46,5.5,19.9-8.34,27.83.57a53.52,53.52,0,0,0,.45-8.81S-438.17,647.39-438.17,646.55Z"/><g class="cls-22"><rect class="cls-23" x="-1006.11" y="-775.07" width="1006.19" height="1831.22"/></g><path class="cls-21" d="M-412.08,641.8A14.37,14.37,0,0,0-422.7,637h0l-.2,0-.21,0h0A21.62,21.62,0,0,0-437,644.6s27.06-.24,26.65-.75S-411.41,642.53-412.08,641.8Z"/><g class="cls-24"><rect class="cls-23" x="-1006.11" y="-775.07" width="1006.19" height="1831.22"/></g><g class="cls-11"><path class="cls-25" d="M-412.08,641.8c-1.92-2.8-7.37-4.41-7.37-4.41.45,1.61.45,5.61-.15,6.94,0,0,9.44-.28,9.27-.48C-410.83,643.21-411.41,642.53-412.08,641.8Z"/><g class="cls-26"><rect x="-1006.11" y="-775.07" width="1006.19" height="1831.22"/></g></g><path class="cls-27" d="M104.92,1020.8A14.37,14.37,0,0,0,94.3,1016h0l-.2,0-.21,0h0c-10.6,1.07-18.13,10.4-15.32,15.28,2.46,5.5,19.9-8.34,27.83.57,2.35,1.31,3.73-1,3.23-3.43C109.17,1026.31,107.83,1024,104.92,1020.8Z"/><g class="cls-28"><rect class="cls-29" x="-489.11" y="-396.07" width="1006.19" height="1831.22"/></g><path class="cls-21" d="M78.83,1025.55s-1.83,3.45-.29,5.73c2.46,5.5,19.9-8.34,27.83.57a53.52,53.52,0,0,0,.45-8.81S78.83,1026.39,78.83,1025.55Z"/><g class="cls-30"><rect class="cls-23" x="-489.11" y="-396.07" width="1006.19" height="1831.22"/></g><path class="cls-21" d="M104.92,1020.8A14.37,14.37,0,0,0,94.3,1016h0l-.2,0-.21,0h0A21.62,21.62,0,0,0,80,1023.6s27.06-.24,26.65-.75S105.59,1021.53,104.92,1020.8Z"/><g class="cls-31"><rect class="cls-23" x="-489.11" y="-396.07" width="1006.19" height="1831.22"/></g><g class="cls-11"><path class="cls-25" d="M104.92,1020.8c-1.92-2.8-7.37-4.41-7.37-4.41.45,1.61.45,5.61-.15,6.94,0,0,9.44-.28,9.27-.48C106.17,1022.21,105.59,1021.53,104.92,1020.8Z"/><g class="cls-32"><rect x="-489.11" y="-396.07" width="1006.19" height="1831.22"/></g></g></svg>