<?xml version="1.0" encoding="utf-8"?>
<!-- Generator: Adobe Illustrator 22.0.1, SVG Export Plug-In . SVG Version: 6.00 Build 0)  -->
<svg version="1.1" id="Layer_1" xmlns="http://www.w3.org/2000/svg" xmlns:xlink="http://www.w3.org/1999/xlink" x="0px" y="0px"
	 viewBox="0 0 160 160" style="enable-background:new 0 0 160 160;" xml:space="preserve">
<style type="text/css">
	.st0{fill:url(#SVGID_1_);}
	.st1{opacity:5.000000e-02;}
	.st2{fill:url(#SVGID_2_);}
	.st3{opacity:0.43;fill:#603813;enable-background:new    ;}
	.st4{fill:#FCB22B;}
	.st5{fill:#211309;}
	.st6{fill:#42210B;}
	.st7{fill:none;stroke:#303030;stroke-width:2;stroke-linecap:round;stroke-linejoin:round;}
</style>
<title>Artboard 42 copy 143</title>
<radialGradient id="SVGID_1_" cx="79.75" cy="82" r="39.46" gradientTransform="matrix(1 0 0 -1 0 162)" gradientUnits="userSpaceOnUse">
	<stop  offset="0" style="stop-color:#FFD22D"/>
	<stop  offset="0.87" style="stop-color:#FCB22B"/>
	<stop  offset="1" style="stop-color:#F28312"/>
</radialGradient>
<circle class="st0" cx="79.8" cy="80" r="39.5"/>
<g class="st1">
	<path d="M119.2,80c0,21.8-17.7,39.5-39.5,39.5c-10.4,0-20.3-4.1-27.7-11.3c10.4,2.3,36,3,49.8-14.3c10.4-12.5,8.3-33.2,4.2-43.3
		C114.4,58.1,119.2,68.8,119.2,80z"/>
</g>
<linearGradient id="SVGID_2_" gradientUnits="userSpaceOnUse" x1="-139.2889" y1="77.096" x2="-139.2889" y2="116" gradientTransform="matrix(0.9 0 0 -1 205.11 162)">
	<stop  offset="0" style="stop-color:#FFD22D;stop-opacity:0"/>
	<stop  offset="0.81" style="stop-color:#FFFCEF;stop-opacity:0.7"/>
	<stop  offset="1" style="stop-color:#FFFFFF;stop-opacity:0.8"/>
</linearGradient>
<path class="st2" d="M113.7,83.1c-2.1,7.3-19.4-9.3-33.9-8.7s-31.2,15.2-33.9,8.7C45.8,62.6,61,46,79.8,46S113.7,62.6,113.7,83.1z"
	/>
<ellipse class="st3" cx="98.5" cy="86.5" rx="16.5" ry="13.3"/>
<ellipse class="st4" cx="100.5" cy="86.5" rx="14.5" ry="11.7"/>
<ellipse class="st5" cx="96" cy="86.5" rx="3" ry="5.5"/>
<path class="st6" d="M99,86.5c0,3-1.3,5.5-3,5.5c-0.5,0-1.1-0.2-1.4-0.6C98,91,98,82,94.3,82c0.4-0.6,1-0.9,1.7-1
	C97.7,81,99,83.5,99,86.5z"/>
<ellipse class="st5" cx="107" cy="86.5" rx="3" ry="5.5"/>
<path class="st6" d="M110,86.5c0,3-1.3,5.5-3,5.5c-0.5,0-1.1-0.2-1.4-0.6C109,91,109,82,105.3,82c0.4-0.6,1-0.9,1.7-1
	C108.7,81,110,83.5,110,86.5z"/>
<path class="st7" d="M79.2,70.9c1-5.6,9.1-5.6,9.8-0.2"/>
<path class="st7" d="M105.5,70.7c0.9-5.2,8.5-5.2,9.1-0.2"/>
</svg>
