<?xml version="1.0" encoding="utf-8"?>
<!-- Generator: Adobe Illustrator 22.0.1, SVG Export Plug-In . SVG Version: 6.00 Build 0)  -->
<svg version="1.1" id="Layer_1" xmlns="http://www.w3.org/2000/svg" xmlns:xlink="http://www.w3.org/1999/xlink" x="0px" y="0px"
	 viewBox="0 0 160 160" style="enable-background:new 0 0 160 160;" xml:space="preserve">
<style type="text/css">
	.st0{fill:url(#SVGID_1_);}
	.st1{opacity:5.000000e-02;}
	.st2{fill:url(#SVGID_2_);}
	.st3{fill:#FFFFFF;}
	.st4{fill:url(#SVGID_3_);}
	.st5{fill:none;stroke:#42210B;stroke-width:2;stroke-linecap:round;stroke-linejoin:round;}
</style>
<title>Artboard 42 copy 159</title>
<radialGradient id="SVGID_1_" cx="79.75" cy="82" r="39.46" gradientTransform="matrix(1 0 0 -1 0 162)" gradientUnits="userSpaceOnUse">
	<stop  offset="0" style="stop-color:#FFD22D"/>
	<stop  offset="0.87" style="stop-color:#FCB22B"/>
	<stop  offset="1" style="stop-color:#F28312"/>
</radialGradient>
<circle class="st0" cx="79.8" cy="80" r="39.5"/>
<g class="st1">
	<path d="M119.2,80c0,21.8-17.7,39.5-39.5,39.5c-10.4,0-20.3-4.1-27.7-11.3c10.4,2.3,36,3,49.8-14.3c10.4-12.5,8.3-33.2,4.2-43.3
		C114.4,58.1,119.2,68.8,119.2,80z"/>
</g>
<linearGradient id="SVGID_2_" gradientUnits="userSpaceOnUse" x1="-139.2889" y1="77.096" x2="-139.2889" y2="116" gradientTransform="matrix(0.9 0 0 -1 205.11 162)">
	<stop  offset="0" style="stop-color:#FFD22D;stop-opacity:0"/>
	<stop  offset="0.81" style="stop-color:#FFFCEF;stop-opacity:0.7"/>
	<stop  offset="1" style="stop-color:#FFFFFF;stop-opacity:0.8"/>
</linearGradient>
<path class="st2" d="M113.7,83.1c-2.1,7.3-19.4-9.3-33.9-8.7s-31.2,15.2-33.9,8.7C45.8,62.6,61,46,79.8,46S113.7,62.6,113.7,83.1z"
	/>
<ellipse transform="matrix(0.9985 -5.495018e-02 5.495018e-02 0.9985 -3.7237 6.0043)" class="st3" cx="107.3" cy="70.7" rx="7.7" ry="10.8"/>
<ellipse cx="107.4" cy="72.5" rx="4.6" ry="5.5"/>
<circle class="st3" cx="104.5" cy="69.5" r="2.5"/>
<path d="M101,60c4.4-5.1,8.7-5,13,0C114,60,108,48,101,60z"/>
<linearGradient id="SVGID_3_" gradientUnits="userSpaceOnUse" x1="94.7627" y1="62.93" x2="94.7627" y2="82.3821" gradientTransform="matrix(1 0 0 -1 0 162)">
	<stop  offset="0" style="stop-color:#A66707"/>
	<stop  offset="1" style="stop-color:#000000"/>
</linearGradient>
<path class="st4" d="M111.9,99.1H77.5c0,0,1.7-19.4,18.6-19.4c4.4-0.2,8.8,1.6,11.8,4.8C113.2,90.2,111.9,99.1,111.9,99.1z"/>
<path class="st5" d="M77.8,67.3c0,0,8.2,2,8.9,7.6"/>
<path class="st5" d="M77.7,73.8c0,0,5.4-2.4,8.2,0.4"/>
</svg>
