<svg xmlns="http://www.w3.org/2000/svg" xmlns:xlink="http://www.w3.org/1999/xlink" viewBox="0 0 160 160"><defs><style>.cls-1,.cls-9{fill:url(#linear-gradient);}.cls-1,.cls-3,.cls-5{clip-rule:evenodd;}.cls-2{fill:url(#linear-gradient-2);}.cls-13,.cls-3,.cls-4{fill:#fff;}.cls-6{fill:url(#radial-gradient);}.cls-7{opacity:0.05;}.cls-8{fill:url(#linear-gradient-3);}.cls-13,.cls-17,.cls-9{fill-rule:evenodd;}.cls-10{clip-path:url(#clip-path);}.cls-11{clip-path:url(#clip-path-2);}.cls-12{fill:url(#linear-gradient-6);}.cls-14{clip-path:url(#clip-path-3);}.cls-15{clip-path:url(#clip-path-4);}.cls-16{clip-path:url(#clip-path-5);}.cls-18{clip-path:url(#clip-path-7);}</style><linearGradient id="linear-gradient" x1="93.83" y1="1316.33" x2="93.83" y2="1299.71" gradientTransform="matrix(1, 0, 0, -1, 0, 1402.33)" gradientUnits="userSpaceOnUse"><stop offset="0" stop-color="#a66707"/><stop offset="1"/></linearGradient><linearGradient id="linear-gradient-2" x1="13.98" y1="505.14" x2="13.98" y2="-1326.07" gradientTransform="matrix(1, 0, 0, 1, 0, 0)" xlink:href="#linear-gradient"/><radialGradient id="radial-gradient" cx="79.75" cy="80" r="39.46" gradientUnits="userSpaceOnUse"><stop offset="0" stop-color="#ffd22d"/><stop offset="0.87" stop-color="#fcb22b"/><stop offset="1" stop-color="#f28312"/></radialGradient><linearGradient id="linear-gradient-3" x1="-9.24" y1="84.9" x2="-9.24" y2="46.02" gradientTransform="translate(88.1) scale(0.9 1)" gradientUnits="userSpaceOnUse"><stop offset="0" stop-color="#ffd22d" stop-opacity="0"/><stop offset="0.81" stop-color="#fffcef" stop-opacity="0.7"/><stop offset="1" stop-color="#fff" stop-opacity="0.8"/></linearGradient><clipPath id="clip-path"><path class="cls-1" d="M104.92,90.8A14.37,14.37,0,0,0,94.3,86h0l-.2,0-.21,0h0c-10.6,1.07-18.13,10.4-15.32,15.28,2.46,5.5,19.9-8.34,27.83.57,2.35,1.31,3.73-1,3.23-3.43C109.17,96.31,107.83,94,104.92,90.8Z"/></clipPath><clipPath id="clip-path-2"><rect class="cls-2" x="-489.11" y="-1326.07" width="1006.19" height="1831.22"/></clipPath><linearGradient id="linear-gradient-6" x1="93.33" y1="115.59" x2="93.33" y2="79.57" gradientUnits="userSpaceOnUse"><stop offset="0" stop-color="#a66707"/><stop offset="0.5" stop-color="#9d6209"/><stop offset="1"/></linearGradient><clipPath id="clip-path-3"><path class="cls-3" d="M78.83,95.55S77,99,78.54,101.28c2.46,5.5,19.9-8.34,27.83.57a53.52,53.52,0,0,0,.45-8.81S78.83,96.39,78.83,95.55Z"/></clipPath><clipPath id="clip-path-4"><rect class="cls-4" x="-489.11" y="-1326.07" width="1006.19" height="1831.22"/></clipPath><clipPath id="clip-path-5"><path class="cls-3" d="M104.92,90.8A14.37,14.37,0,0,0,94.3,86h0l-.2,0-.21,0h0A21.62,21.62,0,0,0,80,93.6s27.06-.24,26.65-.75S105.59,91.53,104.92,90.8Z"/></clipPath><clipPath id="clip-path-7"><path class="cls-5" d="M104.92,90.8c-1.92-2.8-7.37-4.41-7.37-4.41C98,88,98,92,97.4,93.33c0,0,9.44-.28,9.27-.48C106.17,92.21,105.59,91.53,104.92,90.8Z"/></clipPath></defs><title>Artboard 42 copy 94</title><circle class="cls-6" cx="79.75" cy="80" r="39.46"/><g class="cls-7"><path d="M119.21,80a39.46,39.46,0,0,1-67.13,28.13c10.36,2.33,36,3,49.82-14.28,10.39-12.47,8.31-33.23,4.16-43.26A39.35,39.35,0,0,1,119.21,80Z"/></g><path class="cls-8" d="M113.67,83.06c-2.07,7.27-19.38-9.35-33.92-8.66S48.6,89.64,45.83,83.06C45.83,62.6,61,46,79.75,46S113.67,62.6,113.67,83.06Z"/><ellipse class="cls-4" cx="84.32" cy="73.71" rx="7.68" ry="10.76" transform="translate(-3.92 4.75) rotate(-3.15)"/><ellipse cx="84.42" cy="75.5" rx="4.58" ry="5.5"/><circle class="cls-4" cx="81.5" cy="72.5" r="2.5"/><path d="M78,63c4.41-5.13,8.74-5,13,0C91,63,85,51,78,63Z"/><ellipse class="cls-4" cx="105.32" cy="74.71" rx="7.68" ry="10.76" transform="translate(-3.95 5.9) rotate(-3.15)"/><ellipse cx="105.42" cy="76.5" rx="4.58" ry="5.5"/><circle class="cls-4" cx="102.5" cy="73.5" r="2.5"/><path d="M99,64c4.41-5.13,8.74-5,13,0C112,64,106,52,99,64Z"/><path class="cls-9" d="M104.92,90.8A14.37,14.37,0,0,0,94.3,86h0l-.2,0-.21,0h0c-10.6,1.07-18.13,10.4-15.32,15.28,2.46,5.5,19.9-8.34,27.83.57,2.35,1.31,3.73-1,3.23-3.43C109.17,96.31,107.83,94,104.92,90.8Z"/><g class="cls-10"><rect class="cls-2" x="-489.11" y="-1326.07" width="1006.19" height="1831.22"/><g class="cls-11"><rect class="cls-12" x="74.55" y="79.57" width="37.54" height="36.02"/></g></g><path class="cls-13" d="M78.83,95.55S77,99,78.54,101.28c2.46,5.5,19.9-8.34,27.83.57a53.52,53.52,0,0,0,.45-8.81S78.83,96.39,78.83,95.55Z"/><g class="cls-14"><rect class="cls-4" x="-489.11" y="-1326.07" width="1006.19" height="1831.22"/><g class="cls-15"><rect class="cls-4" x="74.55" y="79.57" width="37.54" height="36.02"/></g></g><path class="cls-13" d="M104.92,90.8A14.37,14.37,0,0,0,94.3,86h0l-.2,0-.21,0h0A21.62,21.62,0,0,0,80,93.6s27.06-.24,26.65-.75S105.59,91.53,104.92,90.8Z"/><g class="cls-16"><rect class="cls-4" x="-489.11" y="-1326.07" width="1006.19" height="1831.22"/><g class="cls-15"><rect class="cls-4" x="74.55" y="79.57" width="37.54" height="36.02"/></g></g><g class="cls-7"><path class="cls-17" d="M104.92,90.8c-1.92-2.8-7.37-4.41-7.37-4.41C98,88,98,92,97.4,93.33c0,0,9.44-.28,9.27-.48C106.17,92.21,105.59,91.53,104.92,90.8Z"/><g class="cls-18"><rect x="-489.11" y="-1326.07" width="1006.19" height="1831.22"/><g class="cls-11"><rect x="74.55" y="79.57" width="37.54" height="36.02"/></g></g></g><g class="cls-7"><path d="M97.4,94.31s.41,3.44-.5,4.57a22.12,22.12,0,0,1,5.72.48,9,9,0,0,1,3.81,2.12s1.21-6.41.39-8.44Z"/></g><g class="cls-7"><path d="M129.37,62.76S132,64,129,69s-6,11-6,11,1,3,3,1c0,0,4.12-7.16,5.06-10.58S133.75,62.53,129.37,62.76Z"/></g></svg>