<svg xmlns="http://www.w3.org/2000/svg" xmlns:xlink="http://www.w3.org/1999/xlink" viewBox="0 0 160 160"><defs><style>.cls-1,.cls-4{fill:url(#linear-gradient);}.cls-1,.cls-2,.cls-3{clip-rule:evenodd;}.cls-18,.cls-2,.cls-7,.cls-9{fill:#fff;}.cls-12,.cls-4,.cls-7{fill-rule:evenodd;}.cls-5{clip-path:url(#clip-path);}.cls-6{fill:url(#linear-gradient-3);}.cls-8{clip-path:url(#clip-path-2);}.cls-10{clip-path:url(#clip-path-3);}.cls-11{opacity:0.05;}.cls-13{clip-path:url(#clip-path-4);}.cls-14{fill:url(#radial-gradient);}.cls-15{fill:url(#linear-gradient-4);}.cls-16{fill:#603813;}.cls-17{fill:#42210b;}.cls-18{opacity:0.2;}</style><linearGradient id="linear-gradient" x1="93.83" y1="1502.33" x2="93.83" y2="1485.71" gradientTransform="matrix(1, 0, 0, -1, 0, 1774.33)" gradientUnits="userSpaceOnUse"><stop offset="0" stop-color="#a66707"/><stop offset="1"/></linearGradient><clipPath id="clip-path"><path class="cls-1" d="M104.92,276.8A14.37,14.37,0,0,0,94.3,272h0l-.2,0-.21,0h0c-10.6,1.07-18.13,10.4-15.32,15.28,2.46,5.5,19.9-8.34,27.83.57,2.35,1.31,3.73-1,3.23-3.43C109.17,282.31,107.83,280,104.92,276.8Z"/></clipPath><linearGradient id="linear-gradient-3" x1="13.98" y1="691.14" x2="13.98" y2="-1140.07" gradientTransform="matrix(1, 0, 0, 1, 0, 0)" xlink:href="#linear-gradient"/><clipPath id="clip-path-2"><path class="cls-2" d="M78.83,281.55S77,285,78.54,287.28c2.46,5.5,19.9-8.34,27.83.57a53.52,53.52,0,0,0,.45-8.81S78.83,282.39,78.83,281.55Z"/></clipPath><clipPath id="clip-path-3"><path class="cls-2" d="M104.92,276.8A14.37,14.37,0,0,0,94.3,272h0l-.2,0-.21,0h0A21.62,21.62,0,0,0,80,279.6s27.06-.24,26.65-.75S105.59,277.53,104.92,276.8Z"/></clipPath><clipPath id="clip-path-4"><path class="cls-3" d="M104.92,276.8c-1.92-2.8-7.37-4.41-7.37-4.41C98,274,98,278,97.4,279.33c0,0,9.44-.28,9.27-.48C106.17,278.21,105.59,277.53,104.92,276.8Z"/></clipPath><radialGradient id="radial-gradient" cx="79.75" cy="80" r="39.46" gradientUnits="userSpaceOnUse"><stop offset="0" stop-color="#ffd22d"/><stop offset="0.87" stop-color="#fcb22b"/><stop offset="1" stop-color="#f28312"/></radialGradient><linearGradient id="linear-gradient-4" x1="-9.24" y1="84.9" x2="-9.24" y2="46.02" gradientTransform="translate(88.1) scale(0.9 1)" gradientUnits="userSpaceOnUse"><stop offset="0" stop-color="#ffd22d" stop-opacity="0"/><stop offset="0.81" stop-color="#fffcef" stop-opacity="0.7"/><stop offset="1" stop-color="#fff" stop-opacity="0.8"/></linearGradient></defs><title>Artboard 42 copy 89</title><path class="cls-4" d="M104.92,276.8A14.37,14.37,0,0,0,94.3,272h0l-.2,0-.21,0h0c-10.6,1.07-18.13,10.4-15.32,15.28,2.46,5.5,19.9-8.34,27.83.57,2.35,1.31,3.73-1,3.23-3.43C109.17,282.31,107.83,280,104.92,276.8Z"/><g class="cls-5"><rect class="cls-6" x="-489.11" y="-1140.07" width="1006.19" height="1831.22"/></g><path class="cls-7" d="M78.83,281.55S77,285,78.54,287.28c2.46,5.5,19.9-8.34,27.83.57a53.52,53.52,0,0,0,.45-8.81S78.83,282.39,78.83,281.55Z"/><g class="cls-8"><rect class="cls-9" x="-489.11" y="-1140.07" width="1006.19" height="1831.22"/></g><path class="cls-7" d="M104.92,276.8A14.37,14.37,0,0,0,94.3,272h0l-.2,0-.21,0h0A21.62,21.62,0,0,0,80,279.6s27.06-.24,26.65-.75S105.59,277.53,104.92,276.8Z"/><g class="cls-10"><rect class="cls-9" x="-489.11" y="-1140.07" width="1006.19" height="1831.22"/></g><g class="cls-11"><path class="cls-12" d="M104.92,276.8c-1.92-2.8-7.37-4.41-7.37-4.41C98,274,98,278,97.4,279.33c0,0,9.44-.28,9.27-.48C106.17,278.21,105.59,277.53,104.92,276.8Z"/><g class="cls-13"><rect x="-489.11" y="-1140.07" width="1006.19" height="1831.22"/></g></g><circle class="cls-14" cx="79.75" cy="80" r="39.46"/><g class="cls-11"><path d="M119.21,80a39.46,39.46,0,0,1-67.13,28.13c10.36,2.33,36,3,49.82-14.28,10.39-12.47,8.31-33.23,4.16-43.26A39.35,39.35,0,0,1,119.21,80Z"/></g><path class="cls-15" d="M113.67,83.06c-2.07,7.27-19.38-9.35-33.92-8.66S48.6,89.64,45.83,83.06C45.83,62.6,61,46,79.75,46S113.67,62.6,113.67,83.06Z"/><path class="cls-16" d="M98.16,83.39h0a8.68,8.68,0,0,1,8.68,8.68v3.26A8.68,8.68,0,0,1,98.16,104h-.72a8,8,0,0,1-8-8v-4A8.68,8.68,0,0,1,98.16,83.39Z" transform="translate(4.38 -4.38) rotate(2.61)"/><ellipse class="cls-17" cx="107.82" cy="70.01" rx="3.61" ry="5.06" transform="translate(-11.82 22.98) rotate(-11.54)"/><ellipse class="cls-17" cx="84.68" cy="69.73" rx="5.65" ry="4.04" transform="translate(-0.58 138.76) rotate(-78.46)"/><path class="cls-18" d="M60.25,46S50,48,49,49l-1,5.45,14.32-4.17s4.77-4,6.73-6.16Z"/></svg>