<?xml version="1.0" encoding="utf-8"?>
<!-- Generator: Adobe Illustrator 16.0.0, SVG Export Plug-In . SVG Version: 6.00 Build 0)  -->
<!DOCTYPE svg PUBLIC "-//W3C//DTD SVG 1.1//EN" "http://www.w3.org/Graphics/SVG/1.1/DTD/svg11.dtd">
<svg version="1.1" id="Layer_1" xmlns="http://www.w3.org/2000/svg" xmlns:xlink="http://www.w3.org/1999/xlink" x="0px" y="0px"
	 width="160px" height="160px" viewBox="0 0 160 160" enable-background="new 0 0 160 160" xml:space="preserve">
<g id="h24">
	
		<path id="STROKE_B1912096.2e..-4537.2e..-4133.2e..-9591.2e..-81B1EB91CAE0" fill="#FFEE00" stroke="#000000" stroke-width="1.7" stroke-miterlimit="10" d="
		M111.131,55.506c-1.179-2.319-1.929-4.708-4.084-6.357c-1.919-1.468-4.354-2.093-6.673-2.602
		c-5.629-1.237-11.469-1.101-17.174-0.831c-8.716,0.411-17.814,1.634-26.2,4.166c-5.785,1.747-12.845,5.543-12.447,12.553
		c6.691-3.245,12.139-5.35,19.42-6.995c8.193-1.851,18.057-2.438,26.454-2.293c6.821,0.117,14.16,0.592,20.536,2.324"/>
	
		<path id="STROKE_553EE47A.2e..-AFDD.2e..-4158.2e..-84C1.2e..-F306C783BFFD" fill="#CC7415" stroke="#000000" stroke-width="1.7" stroke-linecap="round" stroke-linejoin="round" d="
		M73.753,46.491c0.012-0.653-1.152-2.076-1.152-2.399c0.001-2.401-0.633-4.937-1.41-7.187c-0.753-2.178-1.959-4.04-3.02-6.061
		c-0.41-0.781-0.745-1.599-1.174-2.372c-0.108-0.193-0.857-1.323-0.857-1.323s-0.226,1.225-0.46,2.15
		c-0.106,0.424-0.146,1.458-0.146,1.458s-0.224-0.923-0.379-1.3c-0.166-0.4-0.395-0.778-0.62-1.146
		c-0.438-0.711-0.828-1.468-1.318-2.146c-1.003-1.385-2.144-2.747-3.249-4.056c-0.365-0.431-0.733-0.859-1.109-1.281
		c-0.219-0.248-1.171-1.397-1.171-1.397l-0.226,1.772c0,0-4.755-3.819-5.657-4.353c-0.454-0.27-3.424-1.832-3.424-1.832
		s1.081,2.948,1.241,3.467c0.453,1.472,1.043,2.965,1.592,4.406c0.25,0.655,1.44,2.813,1.44,2.813s0.613-1.613,0.676-1.541
		c0.517,1.953,1.662,3.826,2.57,5.617c0.145,0.286,0.292,0.572,0.438,0.858c0.551,1.073,1.416,2.213,1.747,3.37
		c-0.079-0.274-2.773-1.504-2.773-1.504s0.104,0.514,0.63,1.191c1.513,1.943,3.527,3.756,5.42,5.126
		c0.932,0.674,1.789,1.451,2.752,2.081c0.96,0.629,2.002,1.128,2.976,1.738c1.111,0.695,4.316,0.907,5.511,1.45"/>
	
		<path id="STROKE_33B92181.2e..-A4BE.2e..-41C8.2e..-8935.2e..-C7D3E1F128AC" fill="none" stroke="#000000" stroke-width="1.7" stroke-linecap="round" stroke-linejoin="round" d="
		M68.062,40.008c-0.132-0.708-0.697-1.274-1.146-1.799c-2.872-3.354-5.263-7.081-8.065-10.49c-1.193-1.453-2.296-2.98-3.538-4.393"
		/>
</g>
</svg>
