<?xml version="1.0" encoding="utf-8"?>
<!-- Generator: Adobe Illustrator 22.0.1, SVG Export Plug-In . SVG Version: 6.00 Build 0)  -->
<svg version="1.1" id="Layer_1" xmlns="http://www.w3.org/2000/svg" xmlns:xlink="http://www.w3.org/1999/xlink" x="0px" y="0px"
	 viewBox="0 0 160 160" style="enable-background:new 0 0 160 160;" xml:space="preserve">
<style type="text/css">
	.st0{fill:#FFFFFF;}
	.st1{opacity:0.15;}
</style>
<title>Artboard 42 copy 93</title>
<path class="st0" d="M50.8,32.5c0,0,2.4,6,5.4,4.8s48.1-1.7,48.1-1.7l4-4.7c0,0,7.7-5.1,4.1,3.3c0,0-1.1,1.8-2.1,3.6
	c-0.6,1-1.1,2.2-1.4,3.4c-0.1,1.4,1.7-2.8,1.7-2.8l3.8,6.1c0,0,2.5,4.6-1.8,4.2s-7-3.5-8.3-5.1l-48.1,1.7c0,0-6.5,8.2-9.4,7.9
	s-2.6-3.1-0.7-8.8c0,0,1.7-2.8,1.8-4.2S46.3,43,46.3,43s-3.3-7.6-3.6-9C42,30.3,46,24.9,50.8,32.5z"/>
<g class="st1">
	<path d="M111.1,29.5c0,0,2.3,1.1-0.9,5.2s-6.3,5.3-0.7,8.7s4.3,0.4,4.3,0.4l-3.2-5.3C110.6,38.4,116.8,28.4,111.1,29.5z"/>
</g>
<g class="st1">
	<path d="M47.3,39.5c0,0,4.3,0.4,2.8,1.7s-4.3,5.2,3.7,2.4s47.2-2.7,47.2-2.7l4.1,3.5L55.5,46c0,0-5.1,8.3-8,8s-5.3-6.3-2-10.3
		S47.3,39.5,47.3,39.5z"/>
</g>
</svg>
