<?xml version="1.0" encoding="utf-8"?>
<!-- Generator: Adobe Illustrator 22.0.1, SVG Export Plug-In . SVG Version: 6.00 Build 0)  -->
<svg version="1.1" id="Layer_1" xmlns="http://www.w3.org/2000/svg" xmlns:xlink="http://www.w3.org/1999/xlink" x="0px" y="0px"
	 viewBox="0 0 160 160" style="enable-background:new 0 0 160 160;" xml:space="preserve">
<style type="text/css">
	.st0{fill:#FFFFFF;}
	.st1{opacity:0.1;}
</style>
<title>Artboard 42 copy 98</title>
<path class="st0" d="M78.2,22.9C63.8,24,52.4,28.7,52.8,33.4s12.3,7.7,26.8,6.6s25.8-5.8,25.5-10.5S92.7,21.8,78.2,22.9z M79.3,35.3
	c-10.3,0.7-23.7,0.9-24-2.6s10-7.1,23-8.1s23.7,1.1,24,4.6C101,32,89.6,34.7,79.3,35.3z"/>
<g class="st1">
	<path d="M100.7,25.3c0,0,5.3,1.7,4.1,5.6S90,38,90,38c1-2-3-3-3-3C103.2,31.9,105.2,28.7,100.7,25.3z"/>
</g>
</svg>
