<?xml version="1.0" encoding="utf-8"?>
<!-- Generator: Adobe Illustrator 22.0.1, SVG Export Plug-In . SVG Version: 6.00 Build 0)  -->
<svg version="1.1" id="Layer_1" xmlns="http://www.w3.org/2000/svg" xmlns:xlink="http://www.w3.org/1999/xlink" x="0px" y="0px"
	 viewBox="0 0 160 160" style="enable-background:new 0 0 160 160;" xml:space="preserve">
<style type="text/css">
	.st0{fill:url(#SVGID_1_);}
	.st1{fill:url(#SVGID_2_);}
	.st2{fill:none;stroke:url(#SVGID_3_);stroke-width:0.5;stroke-linecap:round;stroke-linejoin:round;}
	.st3{fill:none;stroke:url(#SVGID_4_);stroke-width:0.5;stroke-linecap:round;stroke-linejoin:round;}
	.st4{fill:none;stroke:url(#SVGID_5_);stroke-width:0.5;stroke-linecap:round;stroke-linejoin:round;}
	.st5{fill:none;stroke:url(#SVGID_6_);stroke-width:0.5;stroke-linecap:round;stroke-linejoin:round;}
	.st6{fill:none;stroke:url(#SVGID_7_);stroke-width:0.5;stroke-linecap:round;stroke-linejoin:round;}
	.st7{fill:none;stroke:url(#SVGID_8_);stroke-width:0.5;stroke-linecap:round;stroke-linejoin:round;}
	.st8{fill:none;stroke:url(#SVGID_9_);stroke-width:0.5;stroke-linecap:round;stroke-linejoin:round;}
	.st9{fill:none;stroke:url(#SVGID_10_);stroke-width:0.5;stroke-linecap:round;stroke-linejoin:round;}
	.st10{fill:none;stroke:url(#SVGID_11_);stroke-width:0.5;stroke-linecap:round;stroke-linejoin:round;}
	.st11{fill:none;stroke:url(#SVGID_12_);stroke-width:0.5;stroke-linecap:round;stroke-linejoin:round;}
	.st12{fill:none;stroke:url(#SVGID_13_);stroke-width:0.5;stroke-linecap:round;stroke-linejoin:round;}
	.st13{fill:none;stroke:url(#SVGID_14_);stroke-width:0.5;stroke-linecap:round;stroke-linejoin:round;}
	.st14{fill:none;stroke:url(#SVGID_15_);stroke-width:0.5;stroke-linecap:round;stroke-linejoin:round;}
	.st15{fill:none;stroke:url(#SVGID_16_);stroke-width:0.5;stroke-linecap:round;stroke-linejoin:round;}
	.st16{fill:none;stroke:url(#SVGID_17_);stroke-width:0.5;stroke-linecap:round;stroke-linejoin:round;}
	.st17{fill:url(#SVGID_18_);}
</style>
<title>Artboard 42 copy 77</title>
<linearGradient id="SVGID_1_" gradientUnits="userSpaceOnUse" x1="38.5678" y1="95.8884" x2="44.12" y2="95.8884" gradientTransform="matrix(1 0 0 -1 0 162)">
	<stop  offset="0" style="stop-color:#A66707"/>
	<stop  offset="1" style="stop-color:#000000"/>
</linearGradient>
<path class="st0" d="M40.3,69.2c0,0-3.6-1.3-0.4-3.7l4.3-2.5L42,68.3C42,68.3,40.6,69.4,40.3,69.2z"/>
<path d="M71,18c-4,1-32,48-32,48s23-15,47-15s30,6.6,30,6.6S75,17,71,18z"/>
<linearGradient id="SVGID_2_" gradientUnits="userSpaceOnUse" x1="109.57" y1="103.92" x2="116.25" y2="103.92" gradientTransform="matrix(1 0 0 -1 0 162)">
	<stop  offset="0" style="stop-color:#A66707"/>
	<stop  offset="1" style="stop-color:#000000"/>
</linearGradient>
<path class="st1" d="M116,58c0,0,1,3-1,4l-5.4-7.8C109.6,54.2,115,56,116,58z"/>
<linearGradient id="SVGID_3_" gradientUnits="userSpaceOnUse" x1="54.13" y1="122.5" x2="75.25" y2="122.5" gradientTransform="matrix(1 0 0 -1 0 162)">
	<stop  offset="0" style="stop-color:#A66707"/>
	<stop  offset="1" style="stop-color:#000000"/>
</linearGradient>
<path class="st2" d="M75,21c0,0-15.3,24.9-20.6,37"/>
<linearGradient id="SVGID_4_" gradientUnits="userSpaceOnUse" x1="3388" y1="127" x2="4074.25" y2="127" gradientTransform="matrix(-1 0 0 -1 4143.3799 162)">
	<stop  offset="0" style="stop-color:#A66707"/>
	<stop  offset="1" style="stop-color:#000000"/>
</linearGradient>
<path class="st3" d="M69.4,20c0,0,15.3,20.2,20.6,30"/>
<linearGradient id="SVGID_5_" gradientUnits="userSpaceOnUse" x1="3388.7727" y1="277.0644" x2="3994.0627" y2="277.0644" gradientTransform="matrix(-1 8.000000e-02 -8.000000e-02 -1 4081.8999 -3.62)">
	<stop  offset="0" style="stop-color:#A66707"/>
	<stop  offset="1" style="stop-color:#000000"/>
</linearGradient>
<path class="st4" d="M77.2,22.9c0,0,16.9,18.9,23,28.2"/>
<linearGradient id="SVGID_6_" gradientUnits="userSpaceOnUse" x1="3386.0129" y1="-64.6586" x2="4337.9932" y2="-64.6586" gradientTransform="matrix(-0.92 -0.13 0.12 -0.82 4046.3599 544.51)">
	<stop  offset="0" style="stop-color:#A66707"/>
	<stop  offset="1" style="stop-color:#000000"/>
</linearGradient>
<path class="st5" d="M66.6,23.7c0,0,11.7,18.5,15.4,27.3"/>
<linearGradient id="SVGID_7_" gradientUnits="userSpaceOnUse" x1="3384.0515" y1="-280.649" x2="4601.7012" y2="-280.649" gradientTransform="matrix(-0.82 -0.21 0.17 -0.66 3883.8101 819.47)">
	<stop  offset="0" style="stop-color:#A66707"/>
	<stop  offset="1" style="stop-color:#000000"/>
</linearGradient>
<path class="st6" d="M63.1,27.9c0,0,9.1,16.5,11.9,24.1"/>
<linearGradient id="SVGID_8_" gradientUnits="userSpaceOnUse" x1="3380.2991" y1="-658.1147" x2="5178.5688" y2="-658.1147" gradientTransform="matrix(-0.65 -0.25 0.2 -0.52 3548.5999 989.96)">
	<stop  offset="0" style="stop-color:#A66707"/>
	<stop  offset="1" style="stop-color:#000000"/>
</linearGradient>
<path class="st7" d="M60.5,32.3c0,0,5.9,14.2,7.5,20.7"/>
<linearGradient id="SVGID_9_" gradientUnits="userSpaceOnUse" x1="3376.5454" y1="-1446.1758" x2="5607.5454" y2="-1446.1758" gradientTransform="matrix(-0.52 -0.31 0.24 -0.39 3298.0801 1205.87)">
	<stop  offset="0" style="stop-color:#A66707"/>
	<stop  offset="1" style="stop-color:#000000"/>
</linearGradient>
<path class="st8" d="M57.4,36.8c0,0,3.1,12.7,3.6,18.2"/>
<linearGradient id="SVGID_10_" gradientUnits="userSpaceOnUse" x1="3371.1804" y1="-2582.1797" x2="6296.2402" y2="-2582.1797" gradientTransform="matrix(-0.38 -0.31 0.22 -0.27 2995.3599 1288.46)">
	<stop  offset="0" style="stop-color:#A66707"/>
	<stop  offset="1" style="stop-color:#000000"/>
</linearGradient>
<path class="st9" d="M53.7,42.7c0,0,1.4,10.1,1.3,14.3"/>
<linearGradient id="SVGID_11_" gradientUnits="userSpaceOnUse" x1="62.24" y1="122.99" x2="78.74" y2="122.99" gradientTransform="matrix(1 0 0 -1 0 162)">
	<stop  offset="0" style="stop-color:#A66707"/>
	<stop  offset="1" style="stop-color:#000000"/>
</linearGradient>
<path class="st10" d="M78.5,23.5c0,0-10.6,18.6-16,31"/>
<linearGradient id="SVGID_12_" gradientUnits="userSpaceOnUse" x1="47.24" y1="118.99" x2="65.74" y2="118.99" gradientTransform="matrix(1 0 0 -1 0 162)">
	<stop  offset="0" style="stop-color:#A66707"/>
	<stop  offset="1" style="stop-color:#000000"/>
</linearGradient>
<path class="st11" d="M65.5,25.5c0,0-12.6,22.6-18,35"/>
<linearGradient id="SVGID_13_" gradientUnits="userSpaceOnUse" x1="70.24" y1="122.49" x2="82.74" y2="122.49" gradientTransform="matrix(1 0 0 -1 0 162)">
	<stop  offset="0" style="stop-color:#A66707"/>
	<stop  offset="1" style="stop-color:#000000"/>
</linearGradient>
<path class="st12" d="M82.5,26.5c0,0-6.6,13.6-12,26"/>
<linearGradient id="SVGID_14_" gradientUnits="userSpaceOnUse" x1="78.75" y1="120.745" x2="87.74" y2="120.745" gradientTransform="matrix(1 0 0 -1 0 162)">
	<stop  offset="0" style="stop-color:#A66707"/>
	<stop  offset="1" style="stop-color:#000000"/>
</linearGradient>
<path class="st13" d="M87.5,31.5c0,0-4.7,10.2-8.5,19.5"/>
<linearGradient id="SVGID_15_" gradientUnits="userSpaceOnUse" x1="142.2638" y1="247.4442" x2="149.2538" y2="247.4442" gradientTransform="matrix(0.9979 -6.522897e-02 -6.522897e-02 -0.9979 -39.065 299.9688)">
	<stop  offset="0" style="stop-color:#A66707"/>
	<stop  offset="1" style="stop-color:#000000"/>
</linearGradient>
<path class="st14" d="M93,36.3c0,0-3.1,7.6-5.6,14.5"/>
<linearGradient id="SVGID_16_" gradientUnits="userSpaceOnUse" x1="93.75" y1="116.245" x2="97.74" y2="116.245" gradientTransform="matrix(1 0 0 -1 0 162)">
	<stop  offset="0" style="stop-color:#A66707"/>
	<stop  offset="1" style="stop-color:#000000"/>
</linearGradient>
<path class="st15" d="M97.5,40.5c0,0-1.9,5.5-3.5,10.5"/>
<linearGradient id="SVGID_17_" gradientUnits="userSpaceOnUse" x1="189.0883" y1="864.9324" x2="193.0784" y2="864.9324" gradientTransform="matrix(0.88 -0.23 -0.21 -0.8 115.71 783.1)">
	<stop  offset="0" style="stop-color:#A66707"/>
	<stop  offset="1" style="stop-color:#000000"/>
</linearGradient>
<path class="st16" d="M101.5,44.2c0,0-0.8,3.6-1.5,6.8"/>
<linearGradient id="SVGID_18_" gradientUnits="userSpaceOnUse" x1="80.3347" y1="86.971" x2="77.5047" y2="99.801" gradientTransform="matrix(1 0 0 -1 0 162)">
	<stop  offset="0" style="stop-color:#FFFFFF;stop-opacity:0"/>
	<stop  offset="1" style="stop-color:#231F20;stop-opacity:0.4"/>
</linearGradient>
<path class="st17" d="M42,68c13.4-7.7,28.5-11.8,44-12c25,0,29,6,29,6s3.3-4.1-1.3-6c-12.1-5.3-25.6-6.7-38.6-4
	C56,56,46.7,61.2,41.3,64.6C36,68,42,68,42,68z"/>
</svg>
