<?xml version="1.0" encoding="utf-8"?>
<!-- Generator: Adobe Illustrator 22.0.1, SVG Export Plug-In . SVG Version: 6.00 Build 0)  -->
<svg version="1.1" id="Layer_1" xmlns="http://www.w3.org/2000/svg" xmlns:xlink="http://www.w3.org/1999/xlink" x="0px" y="0px"
	 viewBox="0 0 160 160" style="enable-background:new 0 0 160 160;" xml:space="preserve">
<style type="text/css">
	.st0{fill:#FFFFFF;}
	.st1{opacity:0.1;}
	.st2{opacity:0.2;enable-background:new    ;}
	.st3{opacity:0.1;fill:#FFFFFF;enable-background:new    ;}
</style>
<title>Artboard 42 copy 82</title>
<path class="st0" d="M81.1,33.8c0,0,6,1.5,4.4,4.8S43,32,41,72.4l16.1,3.1c0,0-3.3-12.1,6.7-12.1V51.3c0,0,20,10.9,33.4,6
	s27.8-36.2,3.3-39.9S81.1,33.8,81.1,33.8z"/>
<path class="st0" d="M105,50.6c0,0,6,6.5,7.2,10.5s3.6,1.3,3.6-2.6c0-7.4-3-10.4-5.9-14.4"/>
<polygon class="st0" points="40.8,73.9 56.5,77.5 56.5,79.5 41,75.5 "/>
<polygon class="st0" points="44.8,78.3 56,81.1 56.2,83.1 45.1,79.9 "/>
<g class="st1">
	<path d="M41,72.4l16.1,3.1c0,0-3.3-12.1,6.7-12.1V51.3c0,0,20,10.9,33.4,6s27.8-36.2,3.3-39.9c9.2,13.9,6.2,21-6.1,25.9
		c-10.9,4.4-21.4,0.9-33.2,5.1C46,52,41.5,67.1,41,72.4z"/>
</g>
<path class="st2" d="M105,50.6c0,0,6,6.5,7.2,10.5s3.6,1.3,3.6-2.6c1.1-5.2-5.9-14.4-5.9-14.4"/>
<path class="st3" d="M36.5,46.4c0,0,6.5,9.6,2.4,23.9C39.4,76,38.6,48.1,36.5,46.4z"/>
</svg>
