<?xml version="1.0" encoding="utf-8"?>
<!-- Generator: Adobe Illustrator 22.0.1, SVG Export Plug-In . SVG Version: 6.00 Build 0)  -->
<svg version="1.1" id="Layer_1" xmlns="http://www.w3.org/2000/svg" xmlns:xlink="http://www.w3.org/1999/xlink" x="0px" y="0px"
	 viewBox="0 0 160 160" style="enable-background:new 0 0 160 160;" xml:space="preserve">
<style type="text/css">
	.st0{fill:#FFFFFF;}
	.st1{opacity:0.14;enable-background:new    ;}
	.st2{opacity:0.3;enable-background:new    ;}
</style>
<title>Artboard 42 copy 103</title>
<path class="st0" d="M119.9,48.5c0,0-41.3-24.4-45.6-27.5S68,21,68,21L35,58.3c-0.8,0.6-1.4,1.3-1.9,2.1L32,61.8
	c0,0.8,0.5,1.4,1.2,1.6l0.1,0.1c0,0,7.9,2.4,9.5,1.2c-0.3-10,64.4-16.3,67.5-8.5c2.2,0.7,12.6-3.5,9-6.2c1.2,0.5,1.6,0.8,1.6,0.6
	C120.9,49.8,120.5,49.1,119.9,48.5z M58.6,49.9c-2.2,0.5-4.3,1-6.2,1.4C54.3,50.9,56.4,50.4,58.6,49.9z M100.5,46.1
	c8,0.4,13.1,1.7,16.2,2.8C111.4,47.5,106,46.5,100.5,46.1z"/>
<path class="st1" d="M32,61.8L68,21c0,0,2.1-3,6.4,0c-3.2-1-23.3,27.5-27,31.8c-13.7,4.5-14,9.2-13.2,9.9C35.2,63.8,32,63.8,32,61.8
	z"/>
<path class="st2" d="M42.9,64.6c-0.3-10,64.4-16.3,67.5-8.5c2.6,0.8,15.9-4.8,6.4-7.2s-25.1-5.9-57.6,0.9S33.3,63.5,33.3,63.5
	S41.2,65.9,42.9,64.6z"/>
</svg>
