<?xml version="1.0" encoding="utf-8"?>
<!-- Generator: Adobe Illustrator 22.0.1, SVG Export Plug-In . SVG Version: 6.00 Build 0)  -->
<svg version="1.1" id="Layer_1" xmlns="http://www.w3.org/2000/svg" xmlns:xlink="http://www.w3.org/1999/xlink" x="0px" y="0px"
	 viewBox="0 0 160 160" style="enable-background:new 0 0 160 160;" xml:space="preserve">
<style type="text/css">
	.st0{fill:url(#SVGID_1_);}
	.st1{fill:#FF6315;}
	.st2{fill:url(#SVGID_2_);}
	.st3{fill:#FFFFFF;}
	.st4{opacity:0.15;}
	.st5{opacity:0.1;}
	.st6{fill:none;stroke:#000000;stroke-width:0.25;stroke-linecap:round;stroke-linejoin:round;}
	.st7{fill:url(#SVGID_3_);}
</style>
<title>Artboard 42 copy 72</title>
<linearGradient id="SVGID_1_" gradientUnits="userSpaceOnUse" x1="70.9742" y1="138.0979" x2="83.2642" y2="138.0979" gradientTransform="matrix(1 0 0 -1 0 162)">
	<stop  offset="0" style="stop-color:#FFD22D"/>
	<stop  offset="1" style="stop-color:#F47B20"/>
</linearGradient>
<path class="st0" d="M77.6,15.8c0,0-9.9,10.7-5.6,14.7c1.5,0.9,3.4,0.4,4.3-1c0,0,0-0.1,0.1-0.1c0,0,1.6,2.4,3.5,2.7
	c2,0.4,4.3-1.2,3-4.5S77.4,19.3,77.6,15.8z"/>
<path class="st1" d="M76.8,23.8c0,0-3.8,4.1-2.1,5.6c0.6,0.3,1.3,0.2,1.6-0.4c0,0,0,0,0,0c0.3,0.5,0.8,0.8,1.3,1
	c0.8,0.2,1.7-0.4,1.1-1.7S76.7,25.1,76.8,23.8z"/>
<linearGradient id="SVGID_2_" gradientUnits="userSpaceOnUse" x1="4092.7124" y1="112.2426" x2="4085.1724" y2="119.7926" gradientTransform="matrix(-1 0 0 -1 4166.8101 162)">
	<stop  offset="0" style="stop-color:#FFFFFF;stop-opacity:0"/>
	<stop  offset="1" style="stop-color:#231F20;stop-opacity:0.3"/>
</linearGradient>
<path class="st2" d="M83.8,43.2c0,0,2,0,2,1.6s-6.8-1.6-9.4,0s-4.6,0-2.6-1.6S81.8,41.6,83.8,43.2z"/>
<path class="st3" d="M74,34.1c0.1-1.4,6.2-1.6,7,0c1.2,1.6,1,5.1,2.7,9.4c0.1,0.2-0.3,0.5-0.6,0.5c-2.5-0.4-5.1-0.4-7.6,0
	C75,44.1,75,43.6,75,43.4c0.1-1,0.1-1.9,0-2.9c-0.5,0-1-0.1-1.5-0.3c-0.2-0.6-0.5-1.1-0.2-1.6c0.5-0.4,0.8-1,0.9-1.7
	C74.3,35.8,74,35,74,34.1z"/>
<g class="st4">
	<path d="M78.3,33c1.5,0.2,2.5,0.4,2.7,1.1c1.2,1.6,1,5.1,2.7,9.4c0.1,0.2-0.3,0.5-0.6,0.5c-1.5-0.2-3.4-0.3-3.4-0.3l-2.8,0.1
		c1-0.4,2-0.8,3-1.4c0-0.8-0.2-2.1-0.4-4.4c-0.2-1.4-0.6-2.7-1.2-4c-0.1-0.3-3.2-0.6-3.2-0.6C74.6,33.2,77.6,32.9,78.3,33z"/>
</g>
<g class="st5">
	<path d="M75.2,41.3c0,0,2.8,0,2.8-1.3C77.2,40.7,76.2,41.2,75.2,41.3L75.2,41.3z"/>
</g>
<path class="st6" d="M77,28c-0.6,2-0.6,4,0,6"/>
<linearGradient id="SVGID_3_" gradientUnits="userSpaceOnUse" x1="78.6635" y1="126.0135" x2="76.2935" y2="128.3735" gradientTransform="matrix(1 0 0 -1 0 162)">
	<stop  offset="0" style="stop-color:#FFFFFF;stop-opacity:0"/>
	<stop  offset="1" style="stop-color:#231F20;stop-opacity:0.3"/>
</linearGradient>
<ellipse class="st7" cx="77" cy="34.3" rx="2" ry="0.7"/>
</svg>
