<?xml version="1.0" encoding="utf-8"?>
<!-- Generator: Adobe Illustrator 22.0.1, SVG Export Plug-In . SVG Version: 6.00 Build 0)  -->
<svg version="1.1" id="Layer_1" xmlns="http://www.w3.org/2000/svg" xmlns:xlink="http://www.w3.org/1999/xlink" x="0px" y="0px"
	 viewBox="0 0 160 160" style="enable-background:new 0 0 160 160;" xml:space="preserve">
<style type="text/css">
	.st0{fill:#FFFFFF;}
	.st1{opacity:0.1;}
	.st2{fill:url(#SVGID_1_);}
</style>
<title>Artboard 42 copy 16</title>
<path class="st0" d="M60.9,45.2c0,0,23.5-7.7,33.8,11.8l10.3-32.7C105.1,24.3,71.5,1.8,60.9,45.2z"/>
<polygon class="st0" points="94.8,57 99.5,57 113,24.3 105.1,24.3 "/>
<g class="st1">
	<polygon points="94.8,57 99.5,57 113,24.3 105.1,24.3 	"/>
</g>
<path class="st0" d="M113,24c0,0-19.1-14.4-38.1-2.6c0,0,15.9-7.6,30.1,2.6H113z"/>
<g class="st1">
	<path class="st0" d="M113,24c0,0-19.1-14.4-38.1-2.6c0,0,15.9-7.6,30.1,2.6H113z"/>
</g>
<linearGradient id="SVGID_1_" gradientUnits="userSpaceOnUse" x1="60.94" y1="124.2782" x2="101.33" y2="124.2782" gradientTransform="matrix(1 0 0 -1 0 162)">
	<stop  offset="0" style="stop-color:#FFFFFF;stop-opacity:0"/>
	<stop  offset="1" style="stop-color:#FF0000;stop-opacity:0.3"/>
</linearGradient>
<path class="st2" d="M60.9,45.2c0,0,23.5-7.7,33.8,11.8l10.3-32.7C105.1,24.3,71.5,1.8,60.9,45.2z"/>
</svg>
