<?xml version="1.0" encoding="utf-8"?>
<!-- Generator: Adobe Illustrator 22.0.1, SVG Export Plug-In . SVG Version: 6.00 Build 0)  -->
<svg version="1.1" id="Layer_1" xmlns="http://www.w3.org/2000/svg" xmlns:xlink="http://www.w3.org/1999/xlink" x="0px" y="0px"
	 viewBox="0 0 160 160" style="enable-background:new 0 0 160 160;" xml:space="preserve">
<style type="text/css">
	.st0{fill:#93505C;}
	.st1{fill:#FFFFFF;}
	.st2{opacity:0.3;}
	.st3{opacity:0.3;enable-background:new    ;}
</style>
<title>Artboard 42 copy 67</title>
<path class="st0" d="M120.8,32L120.8,32z"/>
<path id="background" class="st1" d="M122.8,33.1L122.8,33.1c-4.2-3.8-11.4,1.8-16.7,5c-3.4,2-5.9,0.9-5.9,0.9s-1.2-7.7-2-10.2
	c-2-6.6-5.8-13.8-23.8-13.8S59,26.3,59,26.3l0.1,13.2c-1.7,0-4.4-1.1-7.7-3.1c0,0-5.4-3.6-10.3-3.3c-0.6,0.1-1.1,0.2-1.7,0.3l0,0
	c-0.5,0.1-1,0.2-1.4,0.3c-0.1,0.3-10.2,1.5-12.4,15.5c-3.6,21.6,14.7,29.2,14.7,29.2s11.9-22.7,44.3-23.5
	c28.2-1.9,33.5,16.1,33.5,16.1C145.8,49.9,128.9,36.8,122.8,33.1z M38.2,33.6l-0.2,0.1L38.2,33.6z M37.1,34.3
	c-0.1,0.1-0.2,0.2-0.3,0.3C36.8,34.4,37,34.3,37.1,34.3z M37.8,33.8l-0.2,0.1L37.8,33.8z M37.4,34l-0.2,0.1L37.4,34z M36.6,34.7
	c-0.1,0.1-0.1,0.2-0.2,0.2C36.5,34.8,36.5,34.7,36.6,34.7z M36.3,35.1l-0.2,0.3L36.3,35.1z M36,35.5c-0.1,0.1-0.1,0.3-0.2,0.4
	C35.8,35.8,35.9,35.7,36,35.5L36,35.5z M35.5,36.8c0,0.2-0.1,0.3-0.1,0.5C35.4,37.1,35.5,37,35.5,36.8z"/>
<g class="st2">
	<path d="M120.9,32L120.9,32L120.9,32z"/>
	<path d="M122.8,33.1c10.5,8.1-21.3,20.8-21.3,20.8c-12-3.9-24.2-1.9-37.9,0.9l-6.4-1.2c-5.1-1.1-9.9-3.1-14.3-5.9
		c-4.3-2.7-7.6-5.9-7.6-8.6c0-4.3,1.9-5.4,4.1-5.9c-0.5,0.1-1,0.2-1.4,0.3c-0.1,0.3-10.2,1.5-12.4,15.5
		c-3.6,21.6,14.7,29.2,14.7,29.2s11.9-22.7,44.3-23.5c28.2-1.9,33.5,16.1,33.5,16.1C145.8,49.9,128.9,36.8,122.8,33.1z"/>
</g>
<path class="st3" d="M40.1,77.7c0,0,15-22.9,44.3-23.5s34.2,16.1,34.2,16.1l4.8-3.3c0,0-18.9-17.3-40-15
	c-34.8,2.3-48.5,21.9-48.5,21.9L40.1,77.7z"/>
<path class="st3" d="M82,15.8c0,0-22.3-4.8-23.2,8.4l0.4,15c3.4,0.2,6.8,0,10.1-0.6V25.4C69.4,25.4,67.9,15.7,82,15.8z"/>
</svg>
