<?xml version="1.0" encoding="utf-8"?>
<!-- Generator: Adobe Illustrator 22.0.1, SVG Export Plug-In . SVG Version: 6.00 Build 0)  -->
<svg version="1.1" id="Layer_1" xmlns="http://www.w3.org/2000/svg" xmlns:xlink="http://www.w3.org/1999/xlink" x="0px" y="0px"
	 viewBox="0 0 160 160" style="enable-background:new 0 0 160 160;" xml:space="preserve">
<style type="text/css">
	.st0{fill:#FFFFFF;}
	.st1{opacity:0.3;enable-background:new    ;}
	.st2{opacity:0.2;fill:#FFFFFF;enable-background:new    ;}
	.st3{opacity:0.13;}
	.st4{opacity:0.3;fill:#FFFFFF;enable-background:new    ;}
	.st5{opacity:0.2;enable-background:new    ;}
</style>
<title>Artboard 42 copy 88</title>
<path class="st0" d="M115,61c0,0,0.1-0.3-0.3-0.9l0.2,0.5c-0.2-0.4-0.4-0.7-0.6-1c0.2,0.2,0.3,0.3,0.4,0.5l-4.6-13.2l-4.7-2.5
	C103,32,96,24.3,88.2,22.2L86.9,19L82,17.8c0,0-7.4-0.5-7.6-0.2c-0.5,0.6-1,1.5-1,1.5C49.1,21,48,55,48,55l-3,6l0.4-0.1L45,61
	c0,0-5,9.7-5,14.3L66,72c0,0,2.3-12.1,5.1-15.5c11.7-1.7,24.4-2.8,30.8-1.5c2.9,0.6,5.8,1.4,8.6,2.5c-0.8-0.2-1.6-0.3-2.4-0.3
	c0,0,6.9,10.8,6.9,14.8l4.2,0.9C119.2,72.9,117,63,115,61z"/>
<path class="st1" d="M112,52.9l-2.5-5.9c-2.5-2.1-5.7-3.5-13.2-4.7c-1.6-0.6-2.9-2-3.3-3.7c-1-3.1-5.9-19.4-5.9-19.4
	c-4.9-2-11.9-1.8-11.9-1.8l-0.7,0.1c0,0,0.6-0.1,1.1,0.7s5.3,15.1,4.4,20.4s-8,5.1-8,5.1c-8.9,1.1-23.1,5-23.1,5L48,55
	C48,55,108.4,45.7,112,52.9z"/>
<path d="M45.2,60.9c0,0,41.9-12.3,67.8-2.1l1.7,1.8c0,0,3.3-1.6,2.3-3.6s-7-8-28-9c-15.8-0.8-31.5,3.6-38.4,5.8
	C48.3,54.5,47,55,47,55S41.4,58.9,45.2,60.9z"/>
<path class="st1" d="M45,61c0,0-5,9.7-5,14.3L66,72c0,0,2.8-14.5,5.9-16.3C74,54.5,62.8,57,54,59C50,59.9,46.5,60.7,45,61z"/>
<path class="st2" d="M45.7,61c0,0-4.7,9.7-4.7,14.3l8.4-1.1c0,0,13-17.2,4.8-15.2C50.4,59.9,47.2,60.7,45.7,61z"/>
<path class="st1" d="M108.1,57.2c0,0,6.9,10.8,6.9,14.8l4.2,0.9c0,0-2.2-9.9-4.2-11.9C115,61,114.2,57.3,108.1,57.2z"/>
<g class="st3">
	<path d="M117.2,72.5l2,0.4c0,0-2.2-9.9-4.2-11.9c-0.9-1.4-2.2-2.6-3.7-3.3C114.7,61.9,116.7,67.1,117.2,72.5z"/>
</g>
<path class="st0" d="M66.9,67.8L72,67c0.6-3.4,1.4-6.4,3-8c11-1.6,22.1-1.2,33,1l4,6l1.1,0.2L108,57c0,0-22-5-36-1
	C72,56,68.8,56.5,66.9,67.8z"/>
<path class="st4" d="M73.4,19c0,0,0.7-2.6,2.2-0.8s3.9,13.5,3.9,13.5s1.3,5.5,0.4,7.4c-0.8,1.4-1.8,2.6-3.1,3.5
	C76.8,42.6,79,33,73.4,19z"/>
<path class="st2" d="M60.2,46c0,0-10.2,2-11.2,3l-1,5.5l14.3-4.2c0,0,4.8-4,6.7-6.2L60.2,46z"/>
<polygon class="st5" points="106.3,44.9 110,47 112,53 107.4,50.7 "/>
</svg>
