<?xml version="1.0" encoding="utf-8"?>
<!-- Generator: Adobe Illustrator 22.0.1, SVG Export Plug-In . SVG Version: 6.00 Build 0)  -->
<svg version="1.1" id="Layer_1" xmlns="http://www.w3.org/2000/svg" xmlns:xlink="http://www.w3.org/1999/xlink" x="0px" y="0px"
	 viewBox="0 0 160 160" style="enable-background:new 0 0 160 160;" xml:space="preserve">
<style type="text/css">
	.st0{fill:#FFFFFF;}
	.st1{opacity:0.15;enable-background:new    ;}
</style>
<title>Artboard 42 copy 122</title>
<path class="st0" d="M123.9,43.8c-5,1.2-7,6.8-13.5,7c-1.2-0.2-2.2-0.8-2.9-1.7l-1-1.7c0,0-1.9-16.7-3.1-19.1
	c-3.1-6.4-4-10.3-32.2-10.3C46,18,49.9,30.9,49.9,30.9L54,49.7c-0.9,1.2-2.2,2.1-3.7,2.4c-3,0.7-8.1-1-13.5-2.4
	c-11.1-2.8-10.7,6.4-8.4,9.5s7.3,4.5,15.5,2.1c11.2-3.4,27.4-7.5,41-8.3c15-0.6,25.2,1,32.2,3.4c6.5,2.2,16.3-1.8,16.1-5.7
	S128.9,42.6,123.9,43.8z"/>
<path class="st1" d="M58.1,57.3c8.7-2.6,17.6-4.2,26.7-4.8c16.1-0.8,33.7,3.9,33.7,3.9c2.1,0.7,4.5,0.8,6.6,0.1
	c0,0-24.1-9.5-40.9-8.2c-8.4,0.7-24.9,5-24.9,5s-19.8,6.4-30.9,6.3C28.6,59.8,31.6,67.2,58.1,57.3z"/>
<path class="st1" d="M83.5,19.1c0,0-39.5-6.1-33.5,13c1,6.7,2.8,13.2,5.3,19.4c0,0,12.7-2.1,18.2-4.2l-4.8-16.2
	C68.7,31.2,65,20,83.5,19.1z"/>
</svg>
