<svg xmlns="http://www.w3.org/2000/svg" viewBox="0 0 160 160"><defs><style>.cls-1{fill:#fff;}.cls-2{opacity:0.2;}.cls-3{fill:#d68227;}</style></defs><title>Artboard 42 copy 154</title><path d="M75.32,38.79A13.77,13.77,0,0,0,60,34c-10,3-7.39,13.38-16.2,19.19S34,51,34,51,33,75,55,67c0,0,9-2,12-9a14.33,14.33,0,0,1-2,7c4.73-.76,9.45-1.69,14-7,0,0,3-5,4,0,3,7,14,7,14,7s-3-6,0-10c3-3,2.82-1.8,2.82-1.8S103,63,113,62s10-12,10-12-3,7-6,2c-5-16-17.69-13.55-17.69-13.55l-1.41,9c-5.39-2.79-12.6-3.17-21.6-1.21Z"/><path class="cls-1" d="M74,22l1.4,16.78L76,46s11-3,22,1l1.69-8.47L103,22,93,32,89,16,82,31Z"/><g class="cls-2"><polygon points="89 16 93 32.41 90 30.59 87.7 18.79 89 16"/></g><g class="cls-2"><polygon points="74 22.38 82 30.59 79 31.5 74.31 25.7 74 22.38"/></g><path class="cls-3" d="M75.78,43.37,76,46s11-3,22,1l.53-2.64Q88.23,40.66,75.78,43.37Z"/><g class="cls-2"><path d="M93.9,45.81S96.62,46.5,98,47l5-25-5.38,5.38Z"/></g></svg>