<?xml version="1.0" encoding="utf-8"?>
<!-- Generator: Adobe Illustrator 22.0.1, SVG Export Plug-In . SVG Version: 6.00 Build 0)  -->
<svg version="1.1" id="Layer_1" xmlns="http://www.w3.org/2000/svg" xmlns:xlink="http://www.w3.org/1999/xlink" x="0px" y="0px"
	 viewBox="0 0 160 160" style="enable-background:new 0 0 160 160;" xml:space="preserve">
<style type="text/css">
	.st0{fill:url(#SVGID_1_);}
	.st1{fill:url(#SVGID_2_);}
</style>
<title>Artboard 42 copy 135</title>
<linearGradient id="SVGID_1_" gradientUnits="userSpaceOnUse" x1="46" y1="98.295" x2="116.91" y2="98.295" gradientTransform="matrix(1 0 0 -1 0 162)">
	<stop  offset="0" style="stop-color:#A66707"/>
	<stop  offset="1" style="stop-color:#000000"/>
</linearGradient>
<polygon class="st0" points="46,60 48.2,68 51.3,65.5 54.2,69.4 61.4,61.8 60.6,72.8 67.1,68.3 71.7,74.2 80.1,65.6 82.9,69.5 
	92.2,61.4 96.4,65.6 99.1,62.3 109.4,72.9 116.9,73.4 112,56.5 62.8,53.2 "/>
<radialGradient id="SVGID_2_" cx="81.7492" cy="115.2592" r="31.4522" gradientTransform="matrix(1 0 0 -1 0 162)" gradientUnits="userSpaceOnUse">
	<stop  offset="0" style="stop-color:#FFD22D"/>
	<stop  offset="0.87" style="stop-color:#FCB22B"/>
	<stop  offset="1" style="stop-color:#F28312"/>
</radialGradient>
<path class="st1" d="M72,72l-4-6l-0.2-3l-4.7,6.3L64,55l-4,4l-5.9,7.1L53,64v-2l-4,3v-4.1c0,0-3.4-0.7-3.2-1
	c-0.5-2.6,13.8-41.1,33.9-39.3c17.5,0,32.3,24.2,37.5,45c1.3,5.2-0.4,9.3-2.2,6.4c-2.1-3.5-4,0.7-8.7-5.3c-1.6-2.1-3.4-4-5.3-5.7
	c-1.5-1.3-4.6,1.4-4.6,1.4S94.3,59,92,59l-5,4l-3,3l-4-6l-4,5L72,72z"/>
</svg>
