<?xml version="1.0" encoding="utf-8"?>
<!-- Generator: Adobe Illustrator 22.0.1, SVG Export Plug-In . SVG Version: 6.00 Build 0)  -->
<svg version="1.1" id="Layer_1" xmlns="http://www.w3.org/2000/svg" xmlns:xlink="http://www.w3.org/1999/xlink" x="0px" y="0px"
	 viewBox="0 0 160 160" style="enable-background:new 0 0 160 160;" xml:space="preserve">
<style type="text/css">
	.st0{opacity:0.2;enable-background:new    ;}
	.st1{fill:#FFFFFF;}
	.st2{opacity:0.15;}
</style>
<title>Artboard 42 copy 142</title>
<path class="st0" d="M83.8,43.4C83,44.1,82.4,45,82,46c-1,2,1,7,7,8s11,2,12-3S87.6,42.7,83.8,43.4z"/>
<path class="st1" d="M82.8,44.8L102,19c0,0-3.2,26.8-3.6,29.8C97,55,79,55,82.8,44.8z"/>
<g class="st2">
	<path d="M82.8,44.8C91,51,96,40,97.9,24.5L102,19c0,0-3.2,26.8-3.6,29.8C97,55,79,55,82.8,44.8z"/>
</g>
<path d="M98.8,45.1c0,0-9.8,6.9-13.8-3.3l1.3-1.8c0,0,4.7,8,12.8,3L98.8,45.1z"/>
<path d="M89.9,35.2c0,0,3.5,7.8,9.8,2.8l0.2-2c-3.2,1.6-6.2,1.3-8.9-2.3L89.9,35.2z"/>
<path d="M94,29.7c0,0,2,4.2,6.5,1.8l0.3-2.2c0,0-3.4,2-5.6-1.1L94,29.7z"/>
</svg>
