<?xml version="1.0" encoding="utf-8"?>
<!-- Generator: Adobe Illustrator 22.0.1, SVG Export Plug-In . SVG Version: 6.00 Build 0)  -->
<svg version="1.1" id="Layer_1" xmlns="http://www.w3.org/2000/svg" xmlns:xlink="http://www.w3.org/1999/xlink" x="0px" y="0px"
	 viewBox="0 0 160 160" style="enable-background:new 0 0 160 160;" xml:space="preserve">
<style type="text/css">
	.st0{fill:#FFFFFF;}
	.st1{fill:#C69757;}
	.st2{opacity:0.1;}
	.st3{fill:url(#SVGID_1_);}
	.st4{opacity:5.000000e-02;}
	.st5{fill:url(#SVGID_2_);}
	.st6{fill:url(#SVGID_3_);}
	.st7{fill:url(#SVGID_4_);}
	.st8{fill:url(#SVGID_5_);}
	.st9{fill:url(#SVGID_6_);}
	.st10{fill:url(#SVGID_7_);}
	.st11{fill:url(#SVGID_8_);}
</style>
<title>Artboard 42 copy 126</title>
<path class="st0" d="M45,55l-6-18.8c0,0,14,6.6,19,2.8s8-14.1,8-14.1s5,10.3,13,12.2S97,24,97,24l7,0.9c0,0,0,16,5,16
	c3.1-0.1,6-1.4,8-3.8l-6,15C111,52.2,62,46.5,45,55z"/>
<path class="st1" d="M44.5,62.2C56,54.8,69.4,50.9,83,51c23,0,27.2,3.9,27.2,3.9l3.2,4.4c0,0,3.1,3.2,5.1-0.8s-3-12-18-15
	s-42,0-54,7s-7,15-5,15H43L44.5,62.2z"/>
<g class="st2">
	<path d="M44.5,62.7C56,55.3,69.4,51.4,83,51.5c23,0,27.2,3.9,27.2,3.9l3.2,4.4c0,0,3.1,3.2,5.1-0.8C109,37,39,49,39.4,63.9
		c0.6,1.3,1.5,2.1,2.1,2.1H43L44.5,62.7z"/>
</g>
<radialGradient id="SVGID_1_" cx="242.8727" cy="-224.9991" r="6.8479" gradientTransform="matrix(0.9931 0.1172 0.1172 -0.9931 -115.1816 -226.6736)" gradientUnits="userSpaceOnUse">
	<stop  offset="0" style="stop-color:#FFD22D"/>
	<stop  offset="0.87" style="stop-color:#FCB22B"/>
	<stop  offset="1" style="stop-color:#F28312"/>
</radialGradient>
<circle class="st3" cx="99.7" cy="25.2" r="6.8"/>
<g class="st4">
	<path d="M106.5,26c-0.4,3.8-3.8,6.4-7.6,6c-1.8-0.2-3.4-1.1-4.6-2.5c1.7,0.6,6.1,1.3,8.9-1.4c2-1.9,2.1-5.6,1.6-7.4
		C106.1,22.1,106.7,24.1,106.5,26z"/>
</g>
<linearGradient id="SVGID_2_" gradientUnits="userSpaceOnUse" x1="62.7475" y1="-225.6033" x2="62.7475" y2="-218.8533" gradientTransform="matrix(0.9 0.11 0.12 -0.99 70.56 -205.2)">
	<stop  offset="0" style="stop-color:#FFD22D;stop-opacity:0"/>
	<stop  offset="0.81" style="stop-color:#FFFCEF;stop-opacity:0.7"/>
	<stop  offset="1" style="stop-color:#FFFFFF;stop-opacity:0.8"/>
</linearGradient>
<path class="st5" d="M105.7,26.2c-0.5,1.2-3.2-2-5.7-2.2s-5.7,2-6,0.8c0.1-3.3,2.8-5.8,6.1-5.7c3.3,0.1,5.8,2.8,5.7,6.1
	C105.9,25.6,105.8,25.9,105.7,26.2L105.7,26.2z"/>
<radialGradient id="SVGID_3_" cx="208.12" cy="-230.11" r="2.76" gradientTransform="matrix(1 0 0 -1 0 162)" gradientUnits="userSpaceOnUse">
	<stop  offset="0" style="stop-color:#FFD22D"/>
	<stop  offset="0.87" style="stop-color:#FCB22B"/>
	<stop  offset="1" style="stop-color:#F28312"/>
</radialGradient>
<circle class="st6" cx="65.7" cy="25.2" r="2.8"/>
<g class="st4">
	<path d="M68.4,25.6c-0.2,1.5-1.5,2.6-3.1,2.4c0,0,0,0,0,0c-0.7-0.1-1.4-0.4-1.8-1c1.2,0.5,2.6,0.2,3.6-0.6c0.7-0.8,0.9-2,0.6-3
		C68.2,24,68.5,24.8,68.4,25.6z"/>
</g>
<linearGradient id="SVGID_4_" gradientUnits="userSpaceOnUse" x1="25.3274" y1="-229.2233" x2="25.3274" y2="-226.5033" gradientTransform="matrix(0.9 0.11 0.12 -0.99 70.56 -205.2)">
	<stop  offset="0" style="stop-color:#FFD22D;stop-opacity:0"/>
	<stop  offset="0.81" style="stop-color:#FFFCEF;stop-opacity:0.7"/>
	<stop  offset="1" style="stop-color:#FFFFFF;stop-opacity:0.8"/>
</linearGradient>
<path class="st7" d="M68.1,25.6c-0.2,0.5-1.3-0.8-2.3-0.9s-2.3,0.8-2.4,0.3c0-1.3,1.1-2.3,2.5-2.3c1.3,0,2.3,1.1,2.3,2.5
	C68.1,25.4,68.1,25.5,68.1,25.6z"/>
<radialGradient id="SVGID_5_" cx="183.47" cy="-243.0798" r="2.76" gradientTransform="matrix(1 0 0 -1 0 162)" gradientUnits="userSpaceOnUse">
	<stop  offset="0" style="stop-color:#FFD22D"/>
	<stop  offset="0.87" style="stop-color:#FCB22B"/>
	<stop  offset="1" style="stop-color:#F28312"/>
</radialGradient>
<circle class="st8" cx="39.7" cy="35.2" r="2.8"/>
<g class="st4">
	<path d="M42.4,35.6c-0.2,1.5-1.5,2.6-3.1,2.4c0,0,0,0,0,0c-0.7-0.1-1.4-0.4-1.8-1c1.2,0.5,2.6,0.2,3.6-0.6c0.7-0.8,0.9-2,0.6-3
		C42.2,34,42.5,34.8,42.4,35.6z"/>
</g>
<linearGradient id="SVGID_6_" gradientUnits="userSpaceOnUse" x1="-1.8126" y1="-242.1933" x2="-1.8126" y2="-239.4833" gradientTransform="matrix(0.9 0.11 0.12 -0.99 70.56 -205.2)">
	<stop  offset="0" style="stop-color:#FFD22D;stop-opacity:0"/>
	<stop  offset="0.81" style="stop-color:#FFFCEF;stop-opacity:0.7"/>
	<stop  offset="1" style="stop-color:#FFFFFF;stop-opacity:0.8"/>
</linearGradient>
<path class="st9" d="M42.1,35.7c-0.2,0.5-1.3-0.8-2.3-0.9s-2.3,0.8-2.4,0.3c0-1.3,1.1-2.3,2.5-2.3s2.3,1.1,2.3,2.5
	C42.1,35.4,42.1,35.5,42.1,35.7z"/>
<radialGradient id="SVGID_7_" cx="261.16" cy="-235.93" r="2.76" gradientTransform="matrix(1 0 0 -1 0 162)" gradientUnits="userSpaceOnUse">
	<stop  offset="0" style="stop-color:#FFD22D"/>
	<stop  offset="0.87" style="stop-color:#FCB22B"/>
	<stop  offset="1" style="stop-color:#F28312"/>
</radialGradient>
<circle class="st10" cx="117.7" cy="37.2" r="2.8"/>
<g class="st4">
	<path d="M120.4,37.6c-0.2,1.5-1.5,2.6-3.1,2.4c0,0,0,0,0,0c-0.7-0.1-1.4-0.4-1.8-1c1.2,0.5,2.6,0.2,3.6-0.6c0.7-0.8,0.9-2,0.6-3
		C120.2,36,120.5,36.8,120.4,37.6z"/>
</g>
<linearGradient id="SVGID_8_" gradientUnits="userSpaceOnUse" x1="83.8543" y1="-235.0433" x2="83.8543" y2="-232.3233" gradientTransform="matrix(0.9 0.11 0.12 -0.99 70.56 -205.2)">
	<stop  offset="0" style="stop-color:#FFD22D;stop-opacity:0"/>
	<stop  offset="0.81" style="stop-color:#FFFCEF;stop-opacity:0.7"/>
	<stop  offset="1" style="stop-color:#FFFFFF;stop-opacity:0.8"/>
</linearGradient>
<path class="st11" d="M120.1,37.7c-0.2,0.5-1.3-0.8-2.3-0.9s-2.3,0.8-2.4,0.3c0-1.3,1.1-2.3,2.5-2.3s2.3,1.1,2.3,2.5
	C120.1,37.4,120.1,37.5,120.1,37.7z"/>
</svg>
