<svg xmlns="http://www.w3.org/2000/svg" xmlns:xlink="http://www.w3.org/1999/xlink" viewBox="0 0 160 160"><defs><style>.cls-1{fill:url(#radial-gradient);}.cls-2{opacity:0.05;}.cls-3{fill:url(#linear-gradient);}.cls-4{fill:#fff;}.cls-5{fill:#161616;}.cls-6{opacity:0.2;fill:url(#linear-gradient-2);}.cls-7,.cls-8{fill:none;stroke:#fff;stroke-linecap:round;stroke-linejoin:round;stroke-width:2px;}.cls-8{opacity:0.6;}</style><radialGradient id="radial-gradient" cx="228.05" cy="-87.5" r="8.98" gradientTransform="translate(-166.49 123.31) rotate(-1.78)" gradientUnits="userSpaceOnUse"><stop offset="0" stop-color="#ffd22d"/><stop offset="0.87" stop-color="#fcb22b"/><stop offset="1" stop-color="#f28312"/></radialGradient><linearGradient id="linear-gradient" x1="43.75" y1="-86.69" x2="43.75" y2="-95.53" gradientTransform="matrix(0.9, -0.03, 0.03, 1, 22.26, 117.45)" gradientUnits="userSpaceOnUse"><stop offset="0" stop-color="#ffd22d" stop-opacity="0"/><stop offset="0.81" stop-color="#fffcef" stop-opacity="0.7"/><stop offset="1" stop-color="#fff" stop-opacity="0.8"/></linearGradient><linearGradient id="linear-gradient-2" x1="83.24" y1="87.34" x2="61.83" y2="22.73" gradientTransform="matrix(1, 0, 0, 1, 0, 0)" xlink:href="#linear-gradient"/></defs><title>Artboard 42 copy 146</title><circle class="cls-1" cx="58.73" cy="28.77" r="8.98"/><g class="cls-2"><path d="M67.71,28.49a9,9,0,0,1-15.07,6.88c2.37.45,8.2.43,11.23-3.6,2.27-2.91,1.66-7.62.64-9.87A8.93,8.93,0,0,1,67.71,28.49Z"/></g><path class="cls-3" d="M66.78,28.92c-.42,1.67-4.48-2-7.78-1.73s-7,3.68-7.65,2.21c-.15-4.66,3.19-8.53,7.45-8.67S66.63,24.27,66.78,28.92Z"/><path class="cls-4" d="M58.41,33.07l2.08,8.37,6.06-2.82L63.22,31.4S59.84,28.83,58.41,33.07Z"/><path class="cls-5" d="M74,37S33,41,37,85c0,0,12-7,18-8l2-7a7.47,7.47,0,0,1,3,3l20-4-1-5s4,4,4,5c0,0,7-2,9-2a14.39,14.39,0,0,0-2-3s3,1,4,3c0,0,19-3,24,0l2,1S110,34,74,37Z"/><path class="cls-6" d="M48,55.53C42,68,43,76,43,76l9-3,3-9,7,4,13-3V58l8,5V58s10,1,12,3c0,0,14-1,16,0,0,0-7-21.23-36.48-20.11C64,41,53,46,48,55.53Z"/><path class="cls-5" d="M52,53c-1.24.57-3.93,9.13-2.38,11C51.9,57.83,55.35,53.74,59,50,59,50,57,50,52,53Z"/><path class="cls-5" d="M120,68s1.22,3.23-1.39,5.12l-1.78-6.64Z"/><path class="cls-5" d="M37,85s.81,4.72,4.41,4.36c0,0-.59-3.14-1-6.25Z"/><path class="cls-7" d="M115.89,29.26c-4.23-4.11-13.26-7.34-19.23-6.6"/><path class="cls-8" d="M112.75,34.57c-3.46-3.36-10.85-6-15.74-5.4"/><path class="cls-7" d="M23.72,63.57c-4.16,2.21-8.82,8.3-9.71,13"/><path class="cls-8" d="M27,67.25c-3.4,1.81-7.22,6.79-7.94,10.66"/></svg>