<svg xmlns="http://www.w3.org/2000/svg" viewBox="0 0 160 160"><defs><style>.cls-1{fill:#fff;}.cls-2{opacity:0.3;}.cls-3{opacity:0.2;}</style></defs><title>Artboard 42 copy 108</title><path class="cls-1" d="M45,62a20.15,20.15,0,0,1,1-3.82s-12-1-16-3.74a9.3,9.3,0,0,0,6-4.31,12.88,12.88,0,0,0,1.73-8.26s9.14-.34,13.83-5.54S57,23.66,57,23.66s7.9,4.07,21.47,1.81S95.3,18,95.3,18s2.22,9.05,9.38,12A56.61,56.61,0,0,0,119,33.61c-.62,7.9-5.26,12.73-11.41,15.21C109,51,109,55.4,109,55.4,92,46,59,50,45,62Z"/><g class="cls-2"><path d="M45,62S58.74,48.38,94.66,50.67c0,0,11.33,2,14.57,4.84,0,0,.36-13.85-16.18-15.95S57.44,41.12,49.53,51.29A26.31,26.31,0,0,0,45,62Z"/></g><g class="cls-3"><path d="M91,43a10.4,10.4,0,0,0,3.71,7.78,6.3,6.3,0,0,1-.63.06c-2.76,0-5-3.47-5-7.74s2.25-7.74,5-7.74a3.4,3.4,0,0,1,.84.11C91,37,91,40.05,91,43Z"/></g><ellipse class="cls-1" cx="95.73" cy="43.12" rx="5.01" ry="7.74"/></svg>