<?xml version="1.0" encoding="utf-8"?>
<!-- Generator: Adobe Illustrator 22.0.1, SVG Export Plug-In . SVG Version: 6.00 Build 0)  -->
<svg version="1.1" id="Layer_1" xmlns="http://www.w3.org/2000/svg" xmlns:xlink="http://www.w3.org/1999/xlink" x="0px" y="0px"
	 viewBox="0 0 160 160" style="enable-background:new 0 0 160 160;" xml:space="preserve">
<style type="text/css">
	.st0{fill:url(#SVGID_1_);}
	.st1{opacity:5.000000e-02;}
	.st2{fill:url(#SVGID_2_);}
	.st3{fill:#FFFFFF;}
</style>
<title>Artboard 42 copy 130</title>
<radialGradient id="SVGID_1_" cx="233.0227" cy="-229.0233" r="8.99" gradientTransform="matrix(0.9931 0.1172 0.1172 -0.9931 -137.5516 -227.9936)" gradientUnits="userSpaceOnUse">
	<stop  offset="0" style="stop-color:#FFD22D"/>
	<stop  offset="0.87" style="stop-color:#FCB22B"/>
	<stop  offset="1" style="stop-color:#F28312"/>
</radialGradient>
<path class="st0" d="M75.9,27.8c0.1,2.2-2.7,5.4-2.7,5.4S72.1,30,70,29s-4.9,1.2-4,1.8l2.6,4.8c-0.9,0.1-1.8,0.1-2.6,0.1
	c-4.9-0.6-8.5-5.1-7.9-10s5.1-8.5,10-7.9C73,18.4,76.5,22.9,75.9,27.8C75.9,27.8,75.9,27.8,75.9,27.8L75.9,27.8z"/>
<g class="st1">
	<path d="M75.9,27.8c0.1,2.2-2.7,5.4-2.7,5.4l-1.6-2.7c1,0,3.6-7.3,2.1-9.7C75.4,22.7,76.2,25.3,75.9,27.8z"/>
</g>
<linearGradient id="SVGID_2_" gradientUnits="userSpaceOnUse" x1="51.9885" y1="-229.8133" x2="51.9885" y2="-220.9633" gradientTransform="matrix(0.9 0.11 0.12 -0.99 48.18 -206.52)">
	<stop  offset="0" style="stop-color:#FFD22D;stop-opacity:0"/>
	<stop  offset="0.81" style="stop-color:#FFFCEF;stop-opacity:0.7"/>
	<stop  offset="1" style="stop-color:#FFFFFF;stop-opacity:0.8"/>
</linearGradient>
<path class="st2" d="M75,28.1c-0.7,1.6-4.1-2.6-7.4-2.9s-7.4,2.6-7.9,1c0.5-4.6,4.4-8,8.7-7.5S75.5,23.5,75,28.1z"/>
<path class="st3" d="M66,31c0,0,3.7,5.7,4.8,10.3c0.6,2.2,1,4.4,1.2,6.7c1,4,8,2,8-1c0,0-6-14-9-17S65,30,66,31z"/>
</svg>
