<?xml version="1.0" encoding="utf-8"?>
<!-- Generator: Adobe Illustrator 22.0.1, SVG Export Plug-In . SVG Version: 6.00 Build 0)  -->
<svg version="1.1" id="Layer_1" xmlns="http://www.w3.org/2000/svg" xmlns:xlink="http://www.w3.org/1999/xlink" x="0px" y="0px"
	 viewBox="0 0 160 160" style="enable-background:new 0 0 160 160;" xml:space="preserve">
<style type="text/css">
	.st0{fill:url(#SVGID_1_);}
	.st1{opacity:5.000000e-02;}
	.st2{fill:url(#SVGID_2_);}
</style>
<title>Artboard 42 copy 138</title>
<radialGradient id="SVGID_1_" cx="80.6103" cy="120.0244" r="29.7377" gradientTransform="matrix(1 0 0 -1 0 162)" gradientUnits="userSpaceOnUse">
	<stop  offset="0" style="stop-color:#FFD22D"/>
	<stop  offset="0.87" style="stop-color:#FCB22B"/>
	<stop  offset="1" style="stop-color:#F28312"/>
</radialGradient>
<path class="st0" d="M118.1,60.4c0.1-0.6-7.4-2.2-7.4-2.2l-7-8.3l-5,6.5l-8.3-3.6l-4.6,3.4l-5-4.4L75,56.6L71.5,52l-2.8,4l-3.3-5.4
	l-9.1,9.2l-5.9-6c0,0-6.5,3.8-7.1,6.5c-0.5,2.5,0.2-5,0.7-7.3C47.5,35.6,62.8,23,80.7,23C116.1,23,118.1,60.4,118.1,60.4z"/>
<g class="st1">
	<path d="M118.1,60.4l-9.8-2.5c0,0-0.2-19.4-2.7-25.4C115.1,39.2,118.1,60.4,118.1,60.4z"/>
</g>
<linearGradient id="SVGID_2_" gradientUnits="userSpaceOnUse" x1="-118.7333" y1="103.59" x2="-118.7333" y2="133.8047" gradientTransform="matrix(0.9 0 0 -1 187.93 162)">
	<stop  offset="0" style="stop-color:#FFD22D;stop-opacity:0"/>
	<stop  offset="0.81" style="stop-color:#FFFCEF;stop-opacity:0.7"/>
	<stop  offset="1" style="stop-color:#FFFFFF;stop-opacity:0.8"/>
</linearGradient>
<path class="st2" d="M49.6,54.3c0,0,3.9-26.5,31.1-26.1c26.8-0.4,31.9,30.2,31.9,30.2C92.4,46.3,71.4,44.9,49.6,54.3z"/>
</svg>
