<?xml version="1.0" encoding="UTF-8" standalone="no"?>
<!DOCTYPE svg PUBLIC "-//W3C//DTD SVG 1.1//EN" "http://www.w3.org/Graphics/SVG/1.1/DTD/svg11.dtd">
<svg width="100%" height="100%" viewBox="0 0 160 160" version="1.1" xmlns="http://www.w3.org/2000/svg" xmlns:xlink="http://www.w3.org/1999/xlink" xml:space="preserve" style="fill-rule:evenodd;clip-rule:evenodd;stroke-linecap:round;stroke-linejoin:round;">
    <path id="overlay0" d="M0,0L160,0L160,79.155C159.872,77.066 159.266,74.999 158.184,73.124L125.06,15.752C122.603,11.497 118.064,8.876 113.15,8.876L46.902,8.876C41.989,8.876 37.449,11.497 34.993,15.752L1.869,73.124C-0.588,77.379 -0.588,82.621 1.869,86.876L34.993,144.248C37.449,148.503 41.989,151.124 46.902,151.124L113.15,151.124C118.063,151.124 122.603,148.503 125.06,144.248L158.184,86.876C159.266,85.001 159.872,82.934 160,80.845L160,160L0,160L0,0Z" style="fill:white;"/>
    <g transform="matrix(0.3317,0,0,0.3317,-103.188,-36.6312)">
        <g id="hatsf">
            <g id="h29">
                <path id="STROKE_67E63094.-D66F.-403B.-B0DE.-13F3A4FB4376" d="M558.174,237.476C558.403,237.209 558.534,236.978 558.568,236.781C558.601,236.584 558.658,236.393 558.739,236.209C558.82,236.025 558.902,235.842 558.987,235.661C559.072,235.48 559.163,235.291 559.26,235.094C559.357,234.897 559.448,234.724 559.533,234.575C559.618,234.426 559.717,234.26 559.832,234.079C559.946,233.898 560.045,233.708 560.13,233.508C560.215,233.308 560.306,233.101 560.403,232.888C560.5,232.675 560.583,232.461 560.651,232.245C560.719,232.029 560.778,231.823 560.829,231.626C560.88,231.429 560.928,231.238 560.975,231.054C561.022,230.87 561.062,230.695 561.096,230.53C561.13,230.365 561.172,230.176 561.223,229.963C561.274,229.75 561.316,229.528 561.35,229.296C561.384,229.064 561.401,228.858 561.401,228.677L561.401,221.635C561.401,221.454 561.392,221.281 561.375,221.116C561.358,220.951 561.35,220.778 561.35,220.597C561.35,220.416 561.341,220.235 561.324,220.054C561.307,219.873 561.282,219.666 561.248,219.434C561.214,219.203 561.18,218.971 561.147,218.739C561.113,218.507 561.064,218.259 561,217.996C560.937,217.732 560.863,217.484 560.778,217.252C560.693,217.021 560.617,216.797 560.549,216.581C560.482,216.365 560.425,216.166 560.378,215.985C560.331,215.804 560.274,215.606 560.206,215.39C560.139,215.174 560.08,214.967 560.029,214.77C559.978,214.573 559.912,214.359 559.832,214.127C559.751,213.895 559.677,213.681 559.609,213.484C559.542,213.287 559.468,213.065 559.387,212.817C559.306,212.569 559.215,212.304 559.114,212.021C559.012,211.738 558.904,211.44 558.79,211.126C558.675,210.811 558.553,210.498 558.422,210.187C558.291,209.876 558.166,209.571 558.047,209.272C557.928,208.974 557.812,208.693 557.697,208.429C557.583,208.166 557.475,207.926 557.373,207.71C557.272,207.494 557.172,207.278 557.075,207.062C556.978,206.846 556.895,206.655 556.827,206.49C556.759,206.325 556.693,206.152 556.63,205.971C556.567,205.79 556.501,205.624 556.433,205.475C556.366,205.326 556.292,205.179 556.211,205.032C556.13,204.886 556.048,204.721 555.963,204.537C555.878,204.353 555.794,204.154 555.709,203.941C555.624,203.728 555.525,203.498 555.411,203.251C555.296,203.003 555.173,202.746 555.042,202.479C554.911,202.212 554.779,201.947 554.648,201.683C554.517,201.42 554.4,201.182 554.299,200.969C554.197,200.756 554.097,200.567 554,200.402C553.903,200.237 553.812,200.079 553.727,199.93C553.642,199.781 553.56,199.606 553.479,199.406C553.399,199.206 553.308,199.023 553.206,198.858C553.105,198.693 553.014,198.512 552.933,198.315C552.852,198.118 552.761,197.937 552.66,197.772C552.559,197.607 552.468,197.424 552.387,197.224C552.306,197.024 552.207,196.818 552.088,196.605C551.969,196.392 551.845,196.169 551.714,195.938C551.583,195.706 551.46,195.491 551.345,195.294C551.231,195.097 551.123,194.916 551.021,194.751C550.92,194.586 550.829,194.429 550.748,194.28C550.667,194.131 550.568,193.956 550.449,193.756C550.331,193.555 550.223,193.382 550.125,193.236C550.028,193.09 549.928,192.934 549.827,192.769C549.725,192.604 549.625,192.43 549.528,192.245C549.431,192.061 549.316,191.863 549.185,191.65C549.054,191.437 548.937,191.248 548.836,191.083C548.735,190.918 548.635,190.768 548.537,190.635C548.44,190.502 548.325,190.344 548.194,190.163C548.063,189.982 547.947,189.825 547.845,189.692C547.744,189.559 547.636,189.401 547.521,189.22C547.407,189.039 547.291,188.866 547.172,188.701C547.053,188.536 546.945,188.378 546.848,188.229C546.751,188.08 546.645,187.923 546.53,187.758C546.416,187.593 546.308,187.443 546.206,187.31C546.105,187.177 546.014,187.037 545.933,186.891C545.852,186.744 545.744,186.579 545.609,186.395C545.474,186.211 545.349,186.036 545.234,185.871C545.12,185.706 544.997,185.558 544.866,185.428C544.735,185.298 544.61,185.158 544.491,185.009C544.372,184.86 544.247,184.718 544.116,184.585C543.985,184.452 543.862,184.294 543.748,184.113C543.633,183.932 543.517,183.759 543.399,183.594C543.28,183.429 543.181,183.271 543.1,183.122C543.019,182.973 542.913,182.8 542.782,182.603C542.651,182.406 542.534,182.24 542.433,182.107C542.332,181.974 542.224,181.842 542.109,181.712C541.995,181.582 541.872,181.458 541.741,181.34C541.61,181.223 541.485,181.107 541.366,180.992C541.247,180.878 541.122,180.746 540.991,180.597C540.86,180.448 540.728,180.316 540.597,180.202C540.466,180.087 540.318,180.005 540.153,179.954C539.988,179.903 539.837,179.829 539.702,179.73C539.566,179.631 539.416,179.565 539.251,179.53C539.086,179.495 538.92,179.477 538.755,179.477C538.59,179.477 538.433,179.528 538.285,179.63C538.137,179.731 537.98,179.798 537.815,179.83C537.65,179.862 537.484,179.894 537.319,179.925C537.154,179.957 536.989,179.998 536.824,180.049C536.659,180.1 536.485,180.158 536.303,180.225C536.121,180.292 535.947,180.342 535.782,180.373C535.617,180.405 535.452,180.438 535.287,180.473C535.122,180.508 534.956,180.526 534.791,180.526C534.626,180.526 534.453,180.485 534.27,180.402C534.088,180.319 533.929,180.219 533.794,180.102C533.659,179.984 533.517,179.85 533.368,179.701C533.22,179.552 533.072,179.395 532.924,179.23C532.775,179.065 532.627,178.909 532.479,178.763C532.331,178.617 532.2,178.485 532.085,178.367C531.971,178.25 531.846,178.142 531.71,178.043C531.575,177.945 531.416,177.871 531.234,177.82C531.052,177.769 530.87,177.727 530.688,177.696C530.506,177.664 530.332,177.648 530.167,177.648C530.002,177.648 529.82,177.632 529.621,177.6C529.422,177.569 529.239,177.528 529.074,177.477C528.909,177.426 528.744,177.392 528.579,177.376C528.414,177.361 528.248,177.353 528.083,177.353C527.918,177.353 527.753,177.353 527.588,177.353C527.423,177.353 527.249,177.369 527.067,177.4C526.885,177.432 526.711,177.448 526.546,177.448C526.381,177.448 526.207,177.473 526.025,177.524C525.843,177.575 525.678,177.649 525.53,177.748C525.381,177.847 525.242,177.945 525.111,178.043C524.98,178.142 524.838,178.24 524.685,178.339C524.532,178.438 524.382,178.528 524.234,178.61C524.086,178.693 523.938,178.785 523.789,178.887C523.641,178.988 523.501,179.096 523.37,179.211C523.239,179.325 523.131,179.457 523.046,179.606C522.961,179.755 522.887,179.913 522.824,180.078C522.76,180.243 522.694,180.4 522.627,180.549C522.559,180.698 522.525,180.856 522.525,181.021C522.525,181.186 522.567,181.352 522.652,181.517C522.737,181.682 522.862,181.805 523.027,181.888C523.192,181.971 523.341,182.061 523.472,182.16C523.603,182.258 523.726,182.382 523.84,182.531C523.955,182.68 524.08,182.82 524.215,182.951C524.35,183.081 524.509,183.197 524.691,183.298C524.873,183.4 525.038,183.492 525.187,183.575C525.335,183.657 525.509,183.747 525.708,183.846C525.907,183.945 526.072,184.051 526.203,184.165C526.334,184.28 526.466,184.396 526.597,184.513C526.728,184.63 526.86,184.754 526.991,184.885C527.122,185.015 527.256,185.147 527.391,185.28C527.526,185.413 527.66,185.545 527.791,185.676C527.922,185.806 528.054,185.938 528.185,186.071C528.316,186.204 528.456,186.346 528.604,186.495C528.753,186.644 528.869,186.802 528.954,186.967C529.039,187.132 529.13,187.281 529.227,187.415C529.324,187.548 529.424,187.68 529.525,187.81C529.627,187.94 529.735,188.08 529.849,188.229C529.964,188.378 530.072,188.52 530.173,188.653C530.275,188.786 530.383,188.918 530.497,189.049C530.612,189.179 530.726,189.311 530.84,189.444C530.955,189.577 531.078,189.709 531.209,189.839C531.34,189.97 531.474,190.11 531.609,190.259C531.744,190.408 531.861,190.55 531.958,190.683C532.055,190.816 532.155,190.948 532.257,191.078C532.358,191.208 532.458,191.348 532.555,191.497C532.652,191.646 532.743,191.796 532.828,191.945C532.913,192.094 533.005,192.26 533.102,192.441C533.199,192.622 533.299,192.787 533.4,192.936C533.502,193.085 533.602,193.227 533.699,193.36C533.796,193.493 533.902,193.625 534.016,193.756C534.131,193.886 534.239,194.018 534.34,194.151C534.442,194.284 534.542,194.434 534.639,194.599C534.736,194.764 534.827,194.922 534.912,195.071C534.997,195.22 535.096,195.359 535.211,195.49C535.325,195.62 535.433,195.768 535.535,195.933C535.636,196.098 535.736,196.255 535.833,196.404C535.93,196.553 536.036,196.703 536.151,196.852C536.265,197.001 536.373,197.143 536.475,197.276C536.576,197.409 536.684,197.559 536.799,197.724C536.913,197.889 537.021,198.037 537.123,198.167C537.224,198.298 537.324,198.437 537.421,198.586C537.518,198.735 537.616,198.901 537.713,199.082C537.81,199.263 537.91,199.446 538.012,199.63C538.113,199.814 538.221,199.989 538.336,200.154C538.45,200.319 538.549,200.475 538.634,200.621C538.719,200.767 538.793,200.932 538.857,201.116C538.92,201.301 538.986,201.475 539.054,201.64C539.121,201.805 539.197,201.961 539.282,202.107C539.367,202.253 539.458,202.41 539.555,202.579C539.653,202.747 539.751,202.914 539.848,203.079C539.945,203.244 540.053,203.41 540.172,203.575C540.29,203.74 540.389,203.895 540.47,204.041C540.551,204.188 540.608,204.343 540.642,204.508C540.676,204.673 540.735,204.848 540.82,205.032C540.905,205.217 540.987,205.407 541.067,205.604C541.148,205.801 541.222,205.998 541.29,206.195C541.357,206.392 541.425,206.573 541.493,206.738C541.56,206.903 541.626,207.068 541.69,207.233C541.753,207.398 541.81,207.565 541.861,207.734C541.912,207.902 541.955,208.069 541.988,208.234C542.022,208.399 542.062,208.588 542.109,208.801C542.156,209.014 542.213,209.195 542.281,209.344C542.348,209.493 542.382,209.658 542.382,209.839C542.382,210.02 542.391,210.194 542.408,210.359C542.425,210.524 542.441,210.689 542.458,210.854C542.475,211.019 542.501,211.185 542.535,211.35C542.568,211.515 542.594,211.68 542.611,211.845C542.628,212.01 542.642,212.183 542.655,212.364C542.668,212.545 542.674,212.728 542.674,212.912L542.674,220.892C542.674,221.073 542.7,221.246 542.751,221.411C542.802,221.576 542.835,221.742 542.852,221.907C542.869,222.072 542.895,222.237 542.928,222.402L542.979,222.65" style="fill:none;stroke:black;stroke-width:4.92px;"/>
                <path id="STROKE_D37B9AFE.-2887.-498B.-9732.-5E9A7C68D7C8" d="M550.92,236.38C550.987,235.955 551.021,235.634 551.021,235.418C551.021,235.202 551.021,234.978 551.021,234.746C551.021,234.515 550.996,234.275 550.945,234.027C550.894,233.779 550.829,233.557 550.748,233.36C550.667,233.163 550.576,232.957 550.475,232.741C550.373,232.525 550.265,232.301 550.151,232.069C550.036,231.837 549.922,231.589 549.808,231.326C549.693,231.062 549.56,230.79 549.408,230.511C549.255,230.232 549.139,230.017 549.058,229.868C548.978,229.719 548.896,229.569 548.811,229.42C548.726,229.271 548.618,229.106 548.487,228.925C548.356,228.744 548.233,228.57 548.118,228.405C548.004,228.24 547.879,228.066 547.743,227.881C547.608,227.697 547.457,227.507 547.292,227.31C547.127,227.113 546.962,226.916 546.797,226.719C546.632,226.522 546.45,226.315 546.251,226.099C546.052,225.884 545.855,225.668 545.66,225.452C545.465,225.236 545.268,225.029 545.069,224.832C544.87,224.635 544.671,224.438 544.472,224.241C544.273,224.044 544.074,223.854 543.875,223.67C543.676,223.485 543.494,223.328 543.329,223.198C543.164,223.068 542.99,222.936 542.808,222.803C542.626,222.67 542.461,222.536 542.312,222.402C542.164,222.269 542.014,222.145 541.861,222.031C541.709,221.916 541.567,221.81 541.436,221.712C541.305,221.613 541.131,221.473 540.915,221.292C540.699,221.111 540.5,220.954 540.318,220.821C540.136,220.688 539.954,220.554 539.771,220.421C539.589,220.287 539.401,220.138 539.206,219.973C539.011,219.808 538.806,219.634 538.59,219.453C538.374,219.272 538.198,219.125 538.063,219.01C537.927,218.896 537.793,218.78 537.662,218.663C537.531,218.545 537.383,218.411 537.218,218.262C537.053,218.113 536.896,217.974 536.748,217.843C536.599,217.713 536.426,217.565 536.227,217.4C536.028,217.235 535.862,217.085 535.731,216.952C535.6,216.819 535.443,216.669 535.261,216.504C535.079,216.339 534.905,216.182 534.74,216.033C534.575,215.884 534.419,215.752 534.27,215.637C534.122,215.523 533.965,215.399 533.8,215.266C533.635,215.133 533.477,215.009 533.324,214.894C533.171,214.78 533.021,214.674 532.873,214.575C532.725,214.476 532.577,214.378 532.428,214.28C532.28,214.181 532.073,214.049 531.806,213.884C531.539,213.719 531.275,213.554 531.012,213.389C530.749,213.224 530.544,213.098 530.396,213.012C530.247,212.927 530.099,212.843 529.951,212.76C529.803,212.677 529.653,212.587 529.5,212.488C529.347,212.39 529.197,212.3 529.049,212.217C528.901,212.134 528.744,212.036 528.579,211.921C528.414,211.807 528.248,211.701 528.083,211.602C527.918,211.503 527.753,211.395 527.588,211.278C527.423,211.161 527.257,211.053 527.092,210.954C526.927,210.856 526.762,210.75 526.597,210.635C526.432,210.521 526.258,210.397 526.076,210.263C525.894,210.13 525.72,210.014 525.555,209.916C525.39,209.817 525.216,209.701 525.034,209.568C524.852,209.435 524.678,209.311 524.513,209.196C524.348,209.082 524.183,208.976 524.018,208.877C523.853,208.778 523.688,208.67 523.523,208.553C523.358,208.436 523.192,208.32 523.027,208.205C522.862,208.091 522.703,207.993 522.551,207.91C522.398,207.827 522.248,207.745 522.1,207.662C521.951,207.579 521.737,207.479 521.458,207.362C521.179,207.245 520.914,207.145 520.664,207.062C520.414,206.979 520.166,206.897 519.921,206.814C519.675,206.731 519.436,206.649 519.203,206.566C518.97,206.484 518.737,206.402 518.504,206.319C518.271,206.236 518.039,206.146 517.806,206.047C517.573,205.948 517.333,205.842 517.088,205.728C516.842,205.613 516.594,205.497 516.344,205.38C516.095,205.263 515.839,205.139 515.576,205.009C515.313,204.878 515.049,204.754 514.782,204.637C514.515,204.52 514.242,204.404 513.962,204.289C513.683,204.175 513.401,204.059 513.118,203.941C512.834,203.824 512.552,203.708 512.273,203.594C511.993,203.479 511.705,203.373 511.409,203.274C511.112,203.176 510.831,203.068 510.564,202.95C510.297,202.833 510.039,202.725 509.789,202.626C509.539,202.528 509.291,202.43 509.046,202.331C508.8,202.232 508.561,202.134 508.328,202.036C508.095,201.937 507.856,201.837 507.61,201.736C507.365,201.634 507.117,201.526 506.867,201.412C506.617,201.297 506.35,201.183 506.067,201.069C505.783,200.954 505.493,200.838 505.196,200.721C504.9,200.604 504.669,200.511 504.504,200.444C504.339,200.377 504.165,200.312 503.983,200.249C503.801,200.186 503.553,200.079 503.24,199.93C502.927,199.781 502.687,199.673 502.522,199.606C502.357,199.539 502.192,199.465 502.027,199.382C501.862,199.299 501.688,199.225 501.506,199.158C501.324,199.091 501.15,199.025 500.985,198.958C500.82,198.891 500.654,198.826 500.489,198.763C500.324,198.699 500.157,198.642 499.988,198.591C499.818,198.54 499.585,198.466 499.289,198.367C498.992,198.269 498.713,198.187 498.45,198.12C498.188,198.053 497.932,198.004 497.682,197.972C497.432,197.94 497.191,197.907 496.958,197.872C496.725,197.837 496.485,197.811 496.24,197.796C495.994,197.78 495.746,197.764 495.497,197.748C495.247,197.732 494.982,197.716 494.703,197.7C494.423,197.685 494.141,197.659 493.858,197.624C493.574,197.589 493.275,197.556 492.962,197.524C492.649,197.492 492.409,197.459 492.244,197.424C492.079,197.389 491.914,197.356 491.749,197.324C491.584,197.292 491.418,197.259 491.253,197.224C491.088,197.189 490.849,197.131 490.536,197.048C490.222,196.965 489.98,196.9 489.811,196.852C489.642,196.805 489.409,196.74 489.113,196.657C488.816,196.574 488.511,196.5 488.198,196.433C487.885,196.366 487.586,196.3 487.302,196.233C487.019,196.166 486.746,196.1 486.483,196.033C486.22,195.966 485.947,195.909 485.663,195.861C485.38,195.814 485.107,195.765 484.844,195.714C484.581,195.663 484.31,195.621 484.031,195.59C483.752,195.558 483.47,195.525 483.186,195.49C482.902,195.455 482.612,195.413 482.316,195.366C482.019,195.318 481.729,195.253 481.445,195.171C481.162,195.088 480.863,194.998 480.55,194.899C480.237,194.8 479.923,194.684 479.61,194.551C479.297,194.418 478.992,194.276 478.695,194.127C478.398,193.978 478.174,193.87 478.022,193.803C477.869,193.736 477.719,193.662 477.571,193.579C477.422,193.496 477.274,193.414 477.126,193.332C476.978,193.249 476.764,193.125 476.484,192.96C476.205,192.795 475.989,192.68 475.837,192.617C475.684,192.554 475.468,192.447 475.189,192.298C474.909,192.149 474.621,191.999 474.325,191.85C474.028,191.701 473.804,191.593 473.651,191.526C473.499,191.459 473.283,191.359 473.003,191.226C472.724,191.093 472.444,190.969 472.165,190.854C471.886,190.74 471.629,190.626 471.396,190.511C471.163,190.397 470.939,190.289 470.723,190.187C470.507,190.086 470.308,189.986 470.126,189.887C469.944,189.788 469.753,189.682 469.554,189.568C469.355,189.453 469.156,189.337 468.957,189.22C468.758,189.103 468.559,188.979 468.36,188.849C468.161,188.718 467.955,188.586 467.744,188.453C467.532,188.32 467.335,188.188 467.153,188.058C466.971,187.927 466.789,187.803 466.607,187.686C466.425,187.569 466.243,187.443 466.06,187.31C465.878,187.177 465.688,187.045 465.489,186.914C465.29,186.784 465.091,186.652 464.892,186.519C464.693,186.386 464.494,186.254 464.295,186.123C464.096,185.993 463.905,185.869 463.723,185.752C463.541,185.635 463.376,185.527 463.227,185.428C463.079,185.329 462.914,185.213 462.732,185.08C462.55,184.947 462.368,184.807 462.186,184.661C462.003,184.515 461.838,184.367 461.69,184.218C461.542,184.069 461.409,183.927 461.29,183.794C461.171,183.661 461.055,183.529 460.941,183.398C460.826,183.268 460.712,183.144 460.598,183.027C460.483,182.909 460.343,182.76 460.178,182.579C460.013,182.398 459.848,182.232 459.683,182.083C459.518,181.934 459.367,181.802 459.232,181.688C459.097,181.573 458.972,181.449 458.857,181.316C458.743,181.183 458.603,181.083 458.438,181.016C458.273,180.949 458.107,180.957 457.942,181.04C457.777,181.123 457.661,181.247 457.593,181.412C457.525,181.577 457.451,181.734 457.371,181.883C457.29,182.032 457.191,182.19 457.072,182.355C456.953,182.52 456.837,182.685 456.723,182.85C456.608,183.015 456.509,183.198 456.424,183.398C456.339,183.598 456.274,183.789 456.227,183.97C456.18,184.151 456.123,184.34 456.056,184.537C455.988,184.734 455.912,184.923 455.827,185.104C455.742,185.285 455.668,185.467 455.605,185.652C455.541,185.836 455.484,186.019 455.433,186.2C455.382,186.381 455.357,186.577 455.357,186.79L455.357,188.577C455.357,188.793 455.349,189.007 455.332,189.22C455.315,189.433 455.289,189.639 455.255,189.839C455.222,190.04 455.19,190.23 455.16,190.411C455.131,190.592 455.107,190.781 455.09,190.978C455.073,191.175 455.056,191.365 455.039,191.55C455.022,191.734 455.006,191.932 454.989,192.145C454.972,192.358 454.946,192.565 454.912,192.765C454.879,192.965 454.845,193.163 454.811,193.36C454.777,193.557 454.751,193.772 454.734,194.003C454.717,194.235 454.701,194.442 454.684,194.623C454.667,194.804 454.658,194.994 454.658,195.194L454.658,196.876C454.658,197.041 454.643,197.232 454.614,197.448C454.584,197.664 454.552,197.862 454.519,198.043C454.485,198.224 454.451,198.415 454.417,198.615C454.383,198.815 454.349,199.021 454.315,199.234C454.281,199.447 454.264,199.678 454.264,199.925L454.264,204.685C454.264,204.898 454.273,205.112 454.29,205.328C454.307,205.544 454.324,205.734 454.341,205.899C454.358,206.064 454.374,206.238 454.391,206.419C454.408,206.6 454.425,206.79 454.442,206.99C454.459,207.191 454.485,207.381 454.519,207.562C454.552,207.743 454.584,207.932 454.614,208.129C454.643,208.326 454.675,208.54 454.709,208.772C454.743,209.004 454.794,209.236 454.862,209.468C454.929,209.7 454.995,209.914 455.058,210.111C455.122,210.308 455.188,210.514 455.255,210.73C455.323,210.946 455.391,211.137 455.459,211.302C455.526,211.467 455.592,211.658 455.656,211.874C455.719,212.09 455.785,212.304 455.852,212.517C455.92,212.73 455.979,212.944 456.03,213.16C456.081,213.376 456.139,213.574 456.202,213.755C456.265,213.936 456.331,214.135 456.399,214.351C456.466,214.567 456.542,214.791 456.627,215.023C456.712,215.255 456.795,215.485 456.875,215.714C456.956,215.943 457.038,216.165 457.123,216.381C457.208,216.597 457.273,216.787 457.32,216.952C457.367,217.117 457.424,217.291 457.491,217.472C457.559,217.653 457.627,217.835 457.695,218.019C457.762,218.204 457.828,218.386 457.892,218.567C457.955,218.748 458.038,218.937 458.139,219.134C458.241,219.331 458.324,219.512 458.387,219.677C458.45,219.842 458.524,220.008 458.609,220.173C458.694,220.338 458.776,220.495 458.857,220.644C458.938,220.793 459.029,220.951 459.13,221.116C459.232,221.281 459.332,221.447 459.429,221.612C459.526,221.777 459.634,221.95 459.753,222.131C459.872,222.312 459.988,222.502 460.102,222.703C460.217,222.903 460.323,223.078 460.42,223.227C460.517,223.376 460.617,223.533 460.718,223.698C460.82,223.863 460.92,224.019 461.017,224.165C461.114,224.311 461.205,224.459 461.29,224.608C461.375,224.757 461.474,224.923 461.589,225.104C461.703,225.285 461.811,225.45 461.912,225.599C462.014,225.748 462.122,225.914 462.236,226.095C462.351,226.276 462.474,226.433 462.605,226.566C462.736,226.699 462.861,226.823 462.98,226.938C463.099,227.052 463.215,227.176 463.329,227.31C463.444,227.443 463.558,227.577 463.672,227.71C463.787,227.843 463.895,227.983 463.996,228.129C464.097,228.275 464.205,228.415 464.32,228.548C464.434,228.681 464.565,228.839 464.714,229.02C464.862,229.201 465.01,229.366 465.158,229.515C465.307,229.664 465.449,229.806 465.584,229.939C465.719,230.072 465.861,230.204 466.01,230.335C466.158,230.465 466.315,230.613 466.48,230.778C466.645,230.943 466.784,231.085 466.899,231.202C467.013,231.319 467.129,231.435 467.248,231.55C467.367,231.664 467.483,231.78 467.598,231.897C467.712,232.015 467.86,232.156 468.042,232.321C468.225,232.486 468.398,232.634 468.563,232.764C468.728,232.895 468.894,233.027 469.059,233.16C469.224,233.293 469.406,233.425 469.605,233.555C469.804,233.686 469.969,233.81 470.1,233.927C470.231,234.044 470.38,234.17 470.545,234.303C470.71,234.436 470.869,234.568 471.022,234.699C471.174,234.829 471.316,234.953 471.447,235.07C471.578,235.188 471.71,235.304 471.841,235.418C471.972,235.533 472.104,235.657 472.235,235.79C472.366,235.923 472.514,236.063 472.679,236.209C472.844,236.355 473.018,236.495 473.2,236.628C473.383,236.761 473.565,236.903 473.747,237.052C473.929,237.201 474.119,237.341 474.318,237.471C474.517,237.602 474.685,237.726 474.82,237.843C474.955,237.96 475.089,238.068 475.22,238.167C475.351,238.266 475.491,238.372 475.64,238.486C475.788,238.601 475.928,238.709 476.059,238.81C476.19,238.912 476.322,239.012 476.453,239.11C476.584,239.209 476.718,239.315 476.853,239.43C476.988,239.544 477.122,239.652 477.253,239.753C477.384,239.855 477.516,239.955 477.647,240.054C477.778,240.152 477.935,240.258 478.117,240.373C478.299,240.487 478.49,240.585 478.689,240.668C478.888,240.751 479.087,240.833 479.286,240.916C479.485,240.999 479.667,241.073 479.832,241.14C479.997,241.207 480.179,241.307 480.378,241.44C480.577,241.573 480.751,241.697 480.899,241.812C481.048,241.926 481.187,242.04 481.318,242.155C481.449,242.269 481.583,242.385 481.719,242.502C481.854,242.62 482.013,242.744 482.195,242.874C482.377,243.004 482.559,243.12 482.741,243.222C482.923,243.323 483.114,243.415 483.313,243.498C483.512,243.581 483.694,243.646 483.859,243.693C484.024,243.741 484.198,243.798 484.38,243.865C484.562,243.932 484.759,243.998 484.971,244.065C485.183,244.132 485.371,244.19 485.536,244.241C485.701,244.292 485.875,244.342 486.057,244.389C486.239,244.436 486.421,244.486 486.604,244.537C486.786,244.588 486.985,244.646 487.201,244.713C487.417,244.78 487.624,244.854 487.823,244.937C488.022,245.02 488.204,245.093 488.369,245.156C488.534,245.219 488.7,245.284 488.865,245.351C489.03,245.418 489.212,245.492 489.411,245.575C489.61,245.658 489.792,245.724 489.957,245.775C490.122,245.826 490.296,245.885 490.478,245.952C490.66,246.019 490.842,246.084 491.025,246.147C491.207,246.21 491.389,246.283 491.571,246.366C491.753,246.449 491.927,246.523 492.092,246.59C492.257,246.657 492.422,246.715 492.587,246.766C492.752,246.817 492.918,246.859 493.083,246.89C493.248,246.922 493.413,246.946 493.578,246.962C493.743,246.977 493.911,247.003 494.08,247.038C494.249,247.073 494.425,247.106 494.607,247.138C494.789,247.17 494.986,247.211 495.198,247.262C495.41,247.313 495.624,247.354 495.84,247.386C496.056,247.417 496.272,247.451 496.488,247.486C496.703,247.521 496.928,247.57 497.161,247.633C497.394,247.697 497.633,247.754 497.879,247.805C498.124,247.856 498.363,247.914 498.596,247.981C498.829,248.048 499.071,248.097 499.321,248.129L499.695,248.177" style="fill:none;stroke:black;stroke-width:4.92px;"/>
                <path id="STROKE_D955C4BA.-F3EE.-4BAA.-B075.-7629D6040434" d="M523.275,241.783C523.334,241.453 523.315,241.205 523.218,241.04C523.12,240.875 522.989,240.727 522.824,240.597C522.659,240.466 522.493,240.319 522.328,240.154C522.163,239.989 521.998,239.806 521.833,239.606C521.668,239.406 521.526,239.231 521.407,239.082C521.288,238.933 521.172,238.793 521.058,238.662C520.943,238.532 520.82,238.384 520.689,238.219C520.558,238.054 520.418,237.897 520.27,237.748C520.122,237.599 519.972,237.441 519.819,237.276C519.666,237.111 519.525,236.961 519.394,236.828C519.263,236.695 519.114,236.545 518.949,236.38C518.784,236.215 518.635,236.068 518.504,235.937C518.373,235.807 518.216,235.675 518.034,235.542C517.852,235.409 517.678,235.285 517.513,235.17C517.348,235.056 517.175,234.932 516.992,234.799C516.81,234.666 516.611,234.524 516.395,234.375C516.179,234.226 515.963,234.068 515.747,233.903C515.531,233.738 515.3,233.573 515.055,233.408C514.81,233.243 514.57,233.069 514.337,232.888C514.104,232.707 513.863,232.534 513.613,232.369C513.363,232.204 513.132,232.046 512.921,231.897C512.709,231.748 512.512,231.624 512.33,231.526C512.148,231.427 511.972,231.345 511.803,231.278C511.634,231.211 511.443,231.145 511.231,231.078C511.019,231.011 510.797,230.954 510.564,230.906C510.331,230.859 510.124,230.81 509.941,230.759C509.759,230.708 509.56,230.642 509.344,230.559C509.128,230.476 508.912,230.394 508.696,230.311C508.48,230.228 508.249,230.13 508.004,230.016C507.759,229.901 507.511,229.777 507.261,229.644C507.011,229.511 506.763,229.395 506.518,229.296C506.272,229.197 506.041,229.107 505.825,229.025C505.609,228.942 505.41,228.868 505.228,228.801C505.046,228.734 504.864,228.675 504.682,228.624C504.5,228.573 504.326,228.532 504.161,228.501C503.996,228.469 503.83,228.428 503.665,228.377C503.5,228.326 503.293,228.251 503.043,228.153C502.793,228.054 502.577,227.964 502.395,227.881C502.213,227.798 502.014,227.7 501.798,227.586C501.582,227.471 501.366,227.355 501.15,227.238C500.934,227.121 500.72,226.987 500.508,226.838C500.297,226.689 500.074,226.541 499.841,226.395C499.608,226.249 499.384,226.109 499.168,225.976C498.952,225.843 498.745,225.719 498.546,225.604C498.347,225.489 498.148,225.391 497.949,225.309C497.75,225.226 497.567,225.144 497.402,225.061C497.237,224.978 497.072,224.912 496.907,224.861C496.742,224.81 496.576,224.752 496.411,224.685C496.246,224.618 496.073,224.56 495.89,224.513C495.708,224.466 495.526,224.401 495.344,224.318C495.162,224.235 494.971,224.135 494.772,224.018C494.573,223.9 494.374,223.776 494.175,223.646C493.976,223.516 493.777,223.392 493.578,223.274C493.379,223.157 493.191,223.031 493.013,222.898C492.835,222.765 492.655,222.633 492.473,222.503C492.291,222.372 492.115,222.266 491.946,222.183C491.777,222.1 491.586,222.018 491.374,221.936C491.162,221.853 490.957,221.779 490.758,221.712C490.559,221.645 490.343,221.579 490.11,221.512C489.877,221.445 489.678,221.362 489.513,221.264C489.348,221.165 489.174,221.075 488.992,220.992C488.81,220.909 488.628,220.811 488.446,220.697C488.263,220.582 488.073,220.466 487.874,220.349C487.675,220.232 487.484,220.124 487.302,220.025C487.12,219.926 486.946,219.836 486.781,219.754C486.616,219.671 486.46,219.589 486.311,219.506C486.163,219.423 485.981,219.341 485.765,219.258C485.549,219.175 485.35,219.101 485.168,219.034C484.986,218.967 484.812,218.901 484.647,218.834C484.482,218.767 484.3,218.685 484.101,218.586C483.902,218.488 483.728,218.39 483.58,218.291C483.432,218.192 483.275,218.084 483.11,217.967C482.945,217.85 482.771,217.734 482.589,217.619C482.407,217.505 482.225,217.381 482.043,217.248C481.86,217.115 481.687,216.991 481.522,216.876C481.357,216.762 481.2,216.656 481.052,216.557C480.903,216.458 480.761,216.36 480.626,216.261C480.491,216.163 480.34,216.063 480.175,215.961C480.01,215.86 479.853,215.768 479.705,215.685C479.557,215.602 479.4,215.52 479.235,215.437C479.07,215.354 478.921,215.264 478.79,215.166C478.659,215.067 478.519,214.961 478.371,214.846C478.223,214.732 478.066,214.608 477.901,214.475C477.736,214.342 477.577,214.226 477.425,214.127C477.272,214.028 477.113,213.912 476.948,213.779C476.783,213.646 476.634,213.53 476.503,213.432C476.372,213.333 476.224,213.227 476.059,213.112C475.894,212.998 475.712,212.858 475.513,212.693C475.314,212.528 475.131,212.378 474.966,212.245C474.801,212.112 474.628,211.955 474.445,211.774C474.263,211.593 474.081,211.412 473.899,211.231C473.717,211.05 473.543,210.867 473.378,210.683C473.213,210.498 473.073,210.341 472.959,210.211C472.844,210.081 472.719,209.941 472.584,209.792C472.449,209.643 472.324,209.493 472.209,209.344C472.095,209.195 471.981,209.045 471.866,208.896C471.752,208.747 471.636,208.607 471.517,208.477C471.398,208.346 471.282,208.207 471.168,208.058C471.053,207.909 470.947,207.759 470.85,207.61C470.753,207.461 470.628,207.295 470.475,207.114C470.323,206.933 470.181,206.784 470.05,206.666L469.853,206.49" style="fill:none;stroke:black;stroke-width:4.92px;"/>
            </g>
        </g>
    </g>
</svg>
