<?xml version="1.0" encoding="utf-8"?>
<!-- Generator: Adobe Illustrator 16.0.0, SVG Export Plug-In . SVG Version: 6.00 Build 0)  -->
<!DOCTYPE svg PUBLIC "-//W3C//DTD SVG 1.1//EN" "http://www.w3.org/Graphics/SVG/1.1/DTD/svg11.dtd">
<svg version="1.1" id="Layer_1" xmlns="http://www.w3.org/2000/svg" xmlns:xlink="http://www.w3.org/1999/xlink" x="0px" y="0px"
	 width="160px" height="160px" viewBox="0 0 160 160" enable-background="new 0 0 160 160" xml:space="preserve">
<g id="h22">
	
		<path id="STROKE_B0496E3F.2e..-DE86.2e..-4100.2e..-BD3F.2e..-1CD17661CAC1" fill="#FFFFFF" stroke="#000000" stroke-width="1.7" stroke-miterlimit="10" d="
		M103.585,42.204c3.115,0.158,6.651,0.027,9.201-1.824c2.367-1.715,4.037-4.256,4.896-6.925c1.723-5.355-0.565-10.507-5.397-13.696
		c-2.511-1.656-6.638-2.647-9.634-1.469l0.648,4.146c-0.323-5.86-2.831-10.785-8.392-13.808C89.22,5.535,83.54,5.137,77.866,8.651
		c-3.205,1.985-5.276,5.236-5.27,8.865l2.221,3.205c-3.172-6.746-14.678-11.927-21.799-7.612c-2.551,1.546-5.67,6.319-5.666,9.082
		l3.424,1.005c-6.819-2.207-14.495-3.752-19.475,2.516c-4.287,5.397-4.347,13.676,0.767,18.611
		c2.649,2.557,7.691,4.808,12.886,5.191c0.02,1.955-0.125,3.841-0.7,6.487c-0.247,1.141-0.597,2.261-1.119,3.319
		c-0.647,1.311-1.476,2.522-1.761,3.968c-0.347,1.766-0.793,3.031,1.386,3.353c0-3.407,4.097-4.688,7.08-5.62
		c4.158-1.299,8.593-1.898,12.871-2.738c2.638-0.518,5.287-0.985,7.945-1.398c9.128-1.417,18.389-2.164,27.643-1.997
		c3.544,0.064,7.373,0.047,10.808,0.98c0.965,0.263,4.375,1.976,4.453,3.1c1.907-0.248,0.733-5.417-2.176-7.834
		C109.844,49.853,105.487,44.694,103.585,42.204"/>
	
		<path id="STROKE_B0496E3F.2e..-DE86.2e..-4100.2e..-BD3F.2e..-1CD17661CAC1_4_" fill="none" stroke="#000000" stroke-width="1.7" stroke-miterlimit="10" d="
		M103.585,42.204c-0.309-0.402-0.551-0.734-0.708-0.97c-1.126-1.686-1.726-4.969-1.726-4.969"/>
	
		<path id="STROKE_B0496E3F.2e..-DE86.2e..-4100.2e..-BD3F.2e..-1CD17661CAC1_2_" fill="none" stroke="#000000" stroke-width="1.7" stroke-miterlimit="10" d="
		M43.487,43.432c1.2,1.199,1.37,3.215,1.43,4.717c0.019,0.465,0.032,0.917,0.037,1.365"/>
	
		<path id="STROKE_C35E4431.2e..-1ED7.2e..-4AF2.2e..-869D.2e..-C2D00CAE4354" fill="none" stroke="#000000" stroke-width="1.7" stroke-miterlimit="10" d="
		M102.399,29.971c-0.81,4.485-4.873,6.211-9.275,6.563c-4.198,0.335-7.57-0.453-11.347-2.21c-1.802-0.838-5.065-2.218-5.734-4.177"
		/>
	
		<path id="STROKE_F37AF201.2e..-5A91.2e..-440E.2e..-953B.2e..-FD9FCEEDEB4B" fill="none" stroke="#000000" stroke-width="1.7" stroke-miterlimit="10" d="
		M78.702,33.598c-1.965,3.277-4.21,6.492-8.13,7.869c-4.105,1.441-8.496,0.352-11.697-2.35c-1.983-1.674-3.479-3.778-4.954-5.846"/>
	
		<path id="STROKE_6C1F10AB.2e..-248E.2e..-426E.2e..-8633.2e..-3E5988E7E462" fill="none" stroke="#000000" stroke-width="1.7" stroke-miterlimit="10" d="
		M55.152,37.872c-4.127,3.803-10.022,6.169-15.38,3.223c-1.374-0.755-2.533-1.727-3.598-2.83"/>
	
		<path id="STROKE_98C4AFE7.2e..-6541.2e..-4DCB.2e..-9DB5.2e..-F0F9B005CF25" fill="none" stroke="#000000" stroke-width="1.7" stroke-miterlimit="10" d="
		M96.011,37.05c0.596,0.623,0.826,1.916,1.135,2.71c0.327,0.844,0.695,1.685,0.973,2.545"/>
	
		<path id="STROKE_65434996.2e..-C095.2e..-4DBB.2e..-B068.2e..-56626ADCD029" fill="none" stroke="#000000" stroke-width="1.7" stroke-miterlimit="10" d="
		M87.128,37.484c0.618,0.675,0.663,2.074,0.875,2.922c0.225,0.897,0.425,1.799,0.629,2.7"/>
	
		<path id="STROKE_1B4B535F.2e..-4A37.2e..-4E69.2e..-A0EF.2e..-2D6B26544B3F" fill="none" stroke="#000000" stroke-width="1.7" stroke-miterlimit="10" d="
		M76.529,37.505c0.754,0.674,0.785,2.51,0.925,3.438c0.184,1.217,0.262,2.454,0.508,3.663"/>
	
		<path id="STROKE_24A32A93.2e..-77A0.2e..-4B06.2e..-8B72.2e..-E97B5F2D5924" fill="none" stroke="#000000" stroke-width="1.7" stroke-miterlimit="10" d="
		M69.447,42.347c0.97,1.425,0.872,3.871,0.964,5.505c0.059,1.043,0.032,2.091,0.031,3.135"/>
	
		<path id="STROKE_C710A96D.2e..-0EF7.2e..-465D.2e..-913F.2e..-019D83B0AE42" fill="none" stroke="#000000" stroke-width="1.7" stroke-miterlimit="10" d="
		M58.877,40.828c0.887,1.442,0.393,3.404,0.365,4.983c-0.041,2.312,0.079,4.628-0.022,6.938"/>
</g>
</svg>
