<?xml version="1.0" encoding="utf-8"?>
<!-- Generator: Adobe Illustrator 16.0.0, SVG Export Plug-In . SVG Version: 6.00 Build 0)  -->
<!DOCTYPE svg PUBLIC "-//W3C//DTD SVG 1.1//EN" "http://www.w3.org/Graphics/SVG/1.1/DTD/svg11.dtd">
<svg version="1.1" id="Layer_1" xmlns="http://www.w3.org/2000/svg" xmlns:xlink="http://www.w3.org/1999/xlink" x="0px" y="0px"
	 width="160px" height="160px" viewBox="0 0 160 160" enable-background="new 0 0 160 160" xml:space="preserve">
<g id="h26">
	<path fill="#282828" stroke="#000000" stroke-width="1.7" stroke-linecap="round" stroke-linejoin="round" d="M117.882,51.57
		c-3.277-1.979-7.621-2.715-11.365-3.187c-5.871-0.741-11.948-1.28-17.867-1.06c-7.869,0.291-15.49,0.673-23.181,2.514
		c-7.987,1.913-15.637,4.485-23.167,7.766c-2.777,1.21-9.644,3.913-9.036,7.97c0.527,3.519,6.987,3.379,9.244,1.956
		c0.643-1.931,1.429-3.796,2.348-5.582c4.55-2.985,9.943-4.863,15.211-6.089c5.07-1.18,10.227-1.989,15.398-2.564
		c4.582-0.508,9.201-0.977,13.812-1.114c3.091-0.092,6.203-0.028,9.295,0.019c2.41,0.037,7.396,0.49,10.598,1.167
		c1.159,1.269,2.236,2.614,3.225,4.026v0C114.849,56.513,121.569,53.797,117.882,51.57z"/>
	<path fill="#282828" stroke="#000000" stroke-width="1.7" stroke-linecap="round" stroke-linejoin="round" d="M48.457,45.731
		c0.491,2.691,1.021,6.076,1.695,8.726l0.007-0.001c4.999-1.83,10.082-3.367,15.309-4.618c7.691-1.842,15.312-2.224,23.181-2.515
		c5.594-0.207,11.33,0.263,16.898,0.94c-0.015-2.229-2.654-10.624-3.212-12.824c-1.171-4.618-5.702-22.269-7.685-26.054
		c-5.617-4.617-14.168-5.384-21.157-5.473c-6.907-0.087-14.498,1.159-20.741,4.21c-2.485,1.215-5.219,2.401-6.844,4.76
		c-1.792,2.6-1.75,5.958-1.514,8.977C45.024,29.896,47.012,37.818,48.457,45.731z"/>
	
		<path id="STROKE_DE9533DF.2e..-A547.2e..-417C.2e..-9DBA.2e..-6FAAABD15377" fill="none" stroke="#000000" stroke-width="1.7" stroke-linecap="round" stroke-linejoin="round" d="
		M110.923,55.421c5.157-1.688-7.93-3.155-12.35-3.223c-3.092-0.047-6.204-0.111-9.296-0.019c-4.61,0.137-9.229,0.606-13.811,1.115
		c-5.172,0.574-10.329,1.383-15.398,2.563c-5.671,1.32-11.489,3.396-16.241,6.795c-0.544,0.389-1.467,1.467,0.063,1.146"/>
	
		<path id="STROKE_7C4588BD.2e..-144C.2e..-4424.2e..-ABE7.2e..-E835C048E3F5" fill="#FFEE00" stroke="#000000" stroke-width="1.7" stroke-miterlimit="10" d="
		M45.697,31.548c0.72,4.048,1.593,8.078,2.369,12.103c3.474-3.151,9.135-6.328,13.689-7.675c7.667-2.269,15.595-3.447,23.602-3.39
		c5.015,0.035,11.363-0.002,16.491,0.942v0.001c-0.712-2.776-1.84-7.097-3.03-11.362v-0.001c-4.655-2.623-10.581-2.74-15.752-2.654
		c-8.057,0.134-16.302,0.645-23.977,3.291c-2.069,0.714-4.078,1.587-5.97,2.693c-2.75,1.608-5.047,3.839-7.296,6.068"/>
</g>
</svg>
