<?xml version="1.0" encoding="UTF-8" standalone="no"?>
<!DOCTYPE svg PUBLIC "-//W3C//DTD SVG 1.1//EN" "http://www.w3.org/Graphics/SVG/1.1/DTD/svg11.dtd">
<svg width="100%" height="100%" viewBox="0 0 160 160" version="1.1" xmlns="http://www.w3.org/2000/svg" xmlns:xlink="http://www.w3.org/1999/xlink" xml:space="preserve" style="fill-rule:evenodd;clip-rule:evenodd;stroke-linecap:round;stroke-linejoin:round;">
    <path id="overlay0" d="M0,0L160,0L160,79.155C159.872,77.066 159.266,74.999 158.184,73.124L125.06,15.752C122.603,11.497 118.064,8.876 113.15,8.876L46.902,8.876C41.989,8.876 37.449,11.497 34.993,15.752L1.869,73.124C-0.588,77.379 -0.588,82.621 1.869,86.876L34.993,144.248C37.449,148.503 41.989,151.124 46.902,151.124L113.15,151.124C118.063,151.124 122.603,148.503 125.06,144.248L158.184,86.876C159.266,85.001 159.872,82.934 160,80.845L160,160L0,160L0,0Z" style="fill:#fff;"/>
    <g id="hatsf">
        <g id="h26">
            <path id="STROKE_937EA82C.-082C.-4CE6.-B3BC.-10BBF7785727" d="M95.779,57.296C95.899,57.324 95.988,57.338 96.047,57.338C96.105,57.338 96.162,57.345 96.218,57.359C96.273,57.374 96.331,57.387 96.39,57.4C96.45,57.414 96.513,57.42 96.577,57.42C96.642,57.42 96.706,57.416 96.769,57.407C96.832,57.398 96.892,57.385 96.947,57.366C97.002,57.347 97.057,57.325 97.113,57.297C97.168,57.27 97.225,57.245 97.285,57.222C97.345,57.199 97.405,57.174 97.465,57.147C97.525,57.119 97.585,57.092 97.645,57.063C97.705,57.035 97.766,57.007 97.83,56.98C97.893,56.953 97.957,56.918 98.022,56.877C98.086,56.836 98.151,56.794 98.216,56.753C98.28,56.711 98.343,56.668 98.403,56.622C98.462,56.576 98.519,56.533 98.573,56.493C98.627,56.452 98.68,56.409 98.73,56.363C98.781,56.317 98.829,56.271 98.875,56.226C98.92,56.18 98.967,56.129 99.014,56.074C99.061,56.018 99.105,55.963 99.146,55.909C99.187,55.854 99.228,55.799 99.269,55.743C99.31,55.688 99.347,55.637 99.378,55.591C99.41,55.546 99.449,55.493 99.495,55.434C99.541,55.375 99.582,55.311 99.62,55.242C99.657,55.174 99.692,55.107 99.724,55.043C99.756,54.979 99.787,54.912 99.819,54.843C99.851,54.775 99.878,54.715 99.902,54.665C99.925,54.615 99.953,54.557 99.984,54.493C100.016,54.429 100.05,54.365 100.087,54.3C100.123,54.236 100.16,54.172 100.198,54.107C100.235,54.043 100.27,53.981 100.302,53.921C100.333,53.861 100.363,53.802 100.39,53.743C100.417,53.684 100.444,53.624 100.473,53.564C100.501,53.504 100.524,53.445 100.543,53.386C100.562,53.327 100.585,53.265 100.612,53.201C100.639,53.137 100.664,53.068 100.688,52.995C100.711,52.922 100.734,52.848 100.756,52.774C100.779,52.7 100.799,52.627 100.818,52.553C100.837,52.48 100.853,52.407 100.865,52.334C100.878,52.261 100.894,52.185 100.913,52.107C100.932,52.028 100.944,51.962 100.948,51.907C100.953,51.853 100.96,51.795 100.97,51.735C100.979,51.676 100.986,51.614 100.99,51.551C100.995,51.487 101,51.423 101.005,51.359C101.009,51.295 101.016,51.232 101.024,51.172C101.032,51.113 101.039,51.051 101.044,50.986C101.048,50.922 101.053,50.863 101.057,50.808C101.062,50.753 101.067,50.696 101.072,50.636C101.076,50.576 101.081,50.519 101.086,50.464C101.09,50.41 101.093,50.348 101.093,50.279C101.093,50.211 101.095,50.146 101.1,50.087C101.105,50.027 101.107,49.962 101.107,49.893L101.107,48.918C101.107,48.858 101.105,48.796 101.1,48.732C101.095,48.668 101.088,48.597 101.079,48.519C101.069,48.442 101.06,48.366 101.05,48.292C101.041,48.218 101.035,48.142 101.031,48.065C101.028,47.987 101.021,47.912 101.012,47.839C101.002,47.766 100.993,47.699 100.983,47.639C100.974,47.579 100.965,47.522 100.955,47.467C100.946,47.413 100.934,47.351 100.92,47.282C100.906,47.214 100.89,47.147 100.873,47.083C100.855,47.019 100.837,46.952 100.818,46.883C100.799,46.815 100.78,46.746 100.762,46.677C100.743,46.609 100.722,46.538 100.7,46.464C100.678,46.391 100.659,46.32 100.645,46.252C100.631,46.183 100.615,46.114 100.598,46.045C100.58,45.977 100.564,45.91 100.55,45.846C100.536,45.782 100.522,45.72 100.508,45.66C100.494,45.6 100.475,45.538 100.453,45.473C100.431,45.409 100.41,45.348 100.391,45.288C100.373,45.229 100.354,45.168 100.335,45.103C100.316,45.039 100.296,44.973 100.274,44.904C100.251,44.835 100.228,44.766 100.205,44.698C100.181,44.629 100.156,44.555 100.129,44.477C100.102,44.399 100.074,44.318 100.046,44.237C100.018,44.155 99.99,44.07 99.964,43.983C99.937,43.896 99.907,43.811 99.875,43.728C99.844,43.645 99.814,43.565 99.785,43.487C99.757,43.41 99.734,43.339 99.715,43.275C99.696,43.21 99.678,43.151 99.66,43.096C99.643,43.042 99.62,42.975 99.592,42.897C99.563,42.818 99.538,42.738 99.516,42.655C99.494,42.572 99.471,42.499 99.447,42.436C99.424,42.372 99.401,42.303 99.378,42.229C99.356,42.155 99.331,42.082 99.303,42.009C99.274,41.935 99.247,41.86 99.22,41.783C99.193,41.705 99.165,41.625 99.137,41.542C99.109,41.459 99.081,41.381 99.054,41.308C99.027,41.235 99.002,41.166 98.978,41.102C98.955,41.038 98.934,40.978 98.917,40.924C98.899,40.869 98.881,40.814 98.862,40.758C98.843,40.703 98.823,40.648 98.801,40.594C98.778,40.539 98.755,40.484 98.732,40.428C98.708,40.373 98.683,40.316 98.656,40.257C98.629,40.198 98.601,40.136 98.573,40.071C98.545,40.007 98.513,39.938 98.477,39.865C98.44,39.792 98.401,39.714 98.36,39.631C98.319,39.549 98.278,39.466 98.237,39.383C98.196,39.3 98.15,39.22 98.099,39.142C98.049,39.065 98.005,38.987 97.967,38.91C97.93,38.832 97.893,38.759 97.856,38.691C97.82,38.622 97.786,38.555 97.754,38.491C97.722,38.427 97.692,38.365 97.664,38.305C97.636,38.245 97.606,38.185 97.574,38.125C97.543,38.065 97.513,38.006 97.486,37.947C97.459,37.888 97.429,37.826 97.396,37.762C97.364,37.697 97.331,37.631 97.299,37.562C97.268,37.493 97.231,37.423 97.19,37.35C97.149,37.276 97.108,37.201 97.067,37.122C97.026,37.044 96.984,36.966 96.942,36.888C96.899,36.811 96.858,36.735 96.817,36.662C96.776,36.589 96.734,36.518 96.693,36.45C96.652,36.381 96.611,36.312 96.57,36.243C96.529,36.175 96.488,36.108 96.447,36.044C96.406,35.98 96.365,35.917 96.323,35.858C96.282,35.798 96.241,35.738 96.198,35.679C96.156,35.62 96.112,35.558 96.066,35.494C96.02,35.43 95.979,35.368 95.943,35.308C95.906,35.248 95.868,35.186 95.827,35.122C95.785,35.057 95.744,34.993 95.703,34.928C95.662,34.864 95.623,34.803 95.585,34.744C95.547,34.685 95.511,34.627 95.474,34.572C95.438,34.516 95.401,34.461 95.365,34.407C95.329,34.352 95.29,34.297 95.249,34.243C95.208,34.188 95.166,34.131 95.125,34.071C95.084,34.011 95.04,33.951 94.993,33.891C94.946,33.831 94.9,33.772 94.854,33.713C94.808,33.654 94.762,33.594 94.717,33.534C94.671,33.475 94.627,33.415 94.586,33.355C94.545,33.295 94.504,33.238 94.463,33.183C94.422,33.128 94.383,33.074 94.347,33.019C94.31,32.965 94.271,32.914 94.23,32.869C94.189,32.823 94.152,32.777 94.119,32.731C94.086,32.685 94.049,32.637 94.008,32.586C93.967,32.535 93.926,32.486 93.885,32.44C93.844,32.395 93.805,32.351 93.769,32.31C93.732,32.268 93.691,32.227 93.645,32.187C93.6,32.146 93.558,32.105 93.52,32.064C93.483,32.022 93.443,31.981 93.402,31.94C93.361,31.898 93.318,31.852 93.272,31.802C93.226,31.752 93.178,31.704 93.127,31.658C93.077,31.612 93.029,31.561 92.983,31.506C92.937,31.45 92.889,31.393 92.838,31.335C92.788,31.275 92.735,31.216 92.68,31.156C92.625,31.096 92.569,31.032 92.514,30.963C92.459,30.894 92.401,30.83 92.342,30.77C92.282,30.71 92.226,30.653 92.176,30.598C92.125,30.544 92.075,30.494 92.024,30.448C91.974,30.402 91.923,30.356 91.873,30.31C91.822,30.264 91.772,30.219 91.721,30.173C91.671,30.127 91.623,30.086 91.577,30.049C91.531,30.012 91.483,29.975 91.433,29.939C91.382,29.903 91.325,29.862 91.261,29.816C91.198,29.77 91.141,29.733 91.091,29.705C91.04,29.677 90.99,29.647 90.939,29.615C90.889,29.583 90.836,29.554 90.78,29.527C90.725,29.499 90.668,29.467 90.608,29.43C90.548,29.393 90.488,29.357 90.428,29.32C90.368,29.284 90.307,29.248 90.243,29.211C90.18,29.174 90.118,29.135 90.058,29.093C89.998,29.052 89.941,29.015 89.885,28.983C89.83,28.952 89.77,28.915 89.706,28.874C89.641,28.833 89.577,28.798 89.512,28.771C89.447,28.744 89.381,28.718 89.313,28.695C89.245,28.672 89.174,28.65 89.1,28.627C89.026,28.604 88.957,28.579 88.894,28.552C88.83,28.524 88.764,28.494 88.694,28.462C88.625,28.429 88.556,28.394 88.487,28.357C88.417,28.32 88.348,28.284 88.28,28.248C88.212,28.211 88.144,28.18 88.074,28.153C88.005,28.125 87.938,28.097 87.873,28.069C87.809,28.041 87.742,28.015 87.674,27.993C87.606,27.97 87.538,27.949 87.468,27.932C87.399,27.914 87.328,27.896 87.255,27.878C87.182,27.859 87.118,27.843 87.063,27.829C87.008,27.815 86.943,27.796 86.869,27.773C86.795,27.75 86.722,27.727 86.649,27.704C86.576,27.682 86.507,27.659 86.443,27.636C86.378,27.613 86.316,27.59 86.256,27.567C86.196,27.544 86.136,27.523 86.076,27.505C86.016,27.486 85.955,27.475 85.891,27.471C85.828,27.466 85.759,27.462 85.685,27.457C85.611,27.453 85.538,27.451 85.465,27.451C85.392,27.451 85.319,27.446 85.245,27.438C85.171,27.429 85.104,27.422 85.044,27.416C84.984,27.411 84.913,27.406 84.831,27.402C84.748,27.397 84.671,27.393 84.598,27.389C84.525,27.384 84.454,27.38 84.385,27.375C84.316,27.371 84.249,27.369 84.184,27.369L83.812,27.369C83.749,27.369 83.683,27.373 83.613,27.382C83.544,27.391 83.475,27.397 83.407,27.402C83.339,27.406 83.273,27.408 83.208,27.408C83.143,27.408 83.079,27.413 83.014,27.423C82.95,27.433 82.887,27.442 82.828,27.451C82.768,27.459 82.701,27.469 82.628,27.478C82.555,27.488 82.48,27.498 82.401,27.506C82.322,27.515 82.244,27.524 82.167,27.533C82.089,27.541 82.013,27.551 81.94,27.56C81.866,27.57 81.801,27.579 81.748,27.588C81.693,27.597 81.629,27.611 81.555,27.629C81.481,27.648 81.406,27.668 81.328,27.691C81.251,27.714 81.172,27.737 81.094,27.76C81.015,27.783 80.935,27.804 80.852,27.822C80.77,27.84 80.692,27.856 80.618,27.87C80.544,27.883 80.466,27.897 80.384,27.911C80.302,27.925 80.226,27.943 80.156,27.966C80.087,27.989 80.018,28.016 79.95,28.048C79.882,28.08 79.818,28.116 79.758,28.158C79.698,28.199 79.641,28.248 79.586,28.303C79.53,28.359 79.475,28.411 79.42,28.462C79.365,28.512 79.314,28.562 79.268,28.612C79.223,28.662 79.177,28.708 79.131,28.75C79.085,28.791 79.037,28.835 78.986,28.881C78.936,28.926 78.886,28.972 78.835,29.018C78.784,29.064 78.734,29.119 78.684,29.183C78.633,29.247 78.59,29.303 78.553,29.348C78.517,29.394 78.482,29.44 78.449,29.486C78.416,29.531 78.382,29.579 78.345,29.63C78.309,29.68 78.275,29.73 78.243,29.78C78.211,29.831 78.179,29.881 78.146,29.932C78.113,29.983 78.076,30.043 78.035,30.112C77.994,30.181 77.953,30.245 77.912,30.304C77.871,30.363 77.832,30.42 77.796,30.475C77.759,30.531 77.725,30.584 77.693,30.634C77.662,30.684 77.629,30.737 77.596,30.791C77.564,30.846 77.531,30.905 77.499,30.97C77.468,31.034 77.436,31.103 77.403,31.176C77.37,31.249 77.34,31.325 77.313,31.403C77.286,31.481 77.263,31.548 77.244,31.603C77.225,31.657 77.207,31.712 77.189,31.768C77.172,31.823 77.154,31.888 77.135,31.961C77.116,32.034 77.1,32.107 77.085,32.18C77.071,32.253 77.058,32.326 77.045,32.399C77.032,32.472 77.018,32.543 77.005,32.612C76.99,32.681 76.974,32.752 76.955,32.826C76.936,32.9 76.918,32.972 76.9,33.04C76.883,33.109 76.865,33.18 76.846,33.253C76.827,33.326 76.813,33.392 76.804,33.451C76.794,33.51 76.787,33.567 76.782,33.623C76.778,33.678 76.773,33.733 76.768,33.788C76.764,33.843 76.76,33.902 76.756,33.967C76.753,34.031 76.746,34.102 76.737,34.181C76.727,34.259 76.72,34.326 76.716,34.38C76.711,34.435 76.706,34.496 76.701,34.565C76.697,34.634 76.69,34.705 76.68,34.778C76.671,34.851 76.666,34.915 76.666,34.971L76.666,37.362C76.666,37.436 76.669,37.5 76.673,37.556C76.678,37.611 76.687,37.671 76.701,37.734C76.716,37.797 76.727,37.861 76.737,37.925C76.746,37.99 76.755,38.056 76.763,38.125C76.771,38.194 76.78,38.263 76.79,38.331C76.799,38.4 76.808,38.466 76.818,38.531C76.827,38.595 76.834,38.659 76.839,38.724C76.844,38.788 76.851,38.85 76.86,38.91C76.869,38.97 76.881,39.031 76.893,39.095C76.906,39.158 76.917,39.225 76.927,39.293C76.936,39.362 76.948,39.426 76.962,39.486C76.976,39.546 76.988,39.608 76.997,39.672C77.007,39.737 77.018,39.801 77.031,39.865C77.044,39.93 77.055,39.991 77.064,40.05C77.074,40.109 77.083,40.169 77.092,40.229C77.102,40.289 77.111,40.349 77.121,40.408C77.13,40.468 77.142,40.528 77.156,40.587C77.17,40.646 77.181,40.708 77.189,40.772C77.198,40.836 77.211,40.903 77.23,40.971C77.249,41.04 77.268,41.111 77.287,41.184C77.305,41.257 77.323,41.328 77.341,41.397C77.359,41.466 77.375,41.534 77.389,41.603C77.403,41.672 77.419,41.734 77.438,41.789C77.457,41.845 77.477,41.911 77.499,41.989C77.522,42.066 77.545,42.14 77.568,42.208C77.592,42.277 77.612,42.339 77.63,42.394C77.648,42.45 77.67,42.516 77.698,42.594C77.727,42.672 77.748,42.74 77.762,42.8C77.776,42.86 77.79,42.919 77.803,42.979C77.815,43.038 77.829,43.097 77.843,43.157C77.857,43.217 77.876,43.283 77.899,43.357C77.923,43.43 77.946,43.5 77.968,43.569C77.99,43.638 78.016,43.702 78.044,43.762C78.072,43.822 78.102,43.886 78.134,43.955C78.166,44.024 78.193,44.083 78.215,44.133C78.237,44.184 78.26,44.237 78.284,44.292C78.307,44.348 78.33,44.41 78.354,44.478C78.378,44.547 78.398,44.609 78.416,44.663C78.433,44.718 78.452,44.78 78.47,44.848C78.489,44.917 78.514,44.99 78.546,45.068C78.578,45.145 78.605,45.212 78.629,45.267C78.652,45.323 78.68,45.38 78.712,45.44C78.743,45.5 78.775,45.56 78.807,45.619C78.839,45.678 78.871,45.737 78.904,45.797C78.937,45.857 78.969,45.914 79.001,45.969C79.032,46.023 79.06,46.076 79.083,46.126C79.107,46.177 79.135,46.231 79.166,46.291C79.198,46.351 79.232,46.413 79.268,46.478C79.305,46.542 79.344,46.604 79.385,46.663C79.426,46.722 79.468,46.786 79.51,46.855C79.552,46.925 79.587,46.987 79.614,47.042C79.641,47.096 79.67,47.151 79.702,47.206C79.734,47.26 79.764,47.313 79.792,47.364C79.82,47.415 79.852,47.473 79.889,47.536C79.925,47.6 79.957,47.657 79.986,47.708C80.014,47.759 80.051,47.81 80.097,47.86C80.142,47.91 80.186,47.967 80.227,48.032C80.268,48.096 80.307,48.16 80.343,48.223C80.38,48.287 80.414,48.342 80.445,48.389C80.477,48.435 80.512,48.493 80.549,48.561C80.587,48.63 80.622,48.694 80.653,48.753C80.685,48.812 80.719,48.867 80.755,48.917C80.792,48.967 80.829,49.015 80.867,49.061C80.904,49.107 80.939,49.155 80.97,49.207C81.002,49.258 81.039,49.313 81.079,49.372C81.121,49.431 81.155,49.488 81.182,49.543C81.209,49.599 81.239,49.649 81.272,49.695C81.304,49.741 81.337,49.787 81.369,49.833C81.4,49.879 81.434,49.931 81.471,49.99C81.507,50.049 81.544,50.099 81.582,50.141C81.619,50.182 81.656,50.225 81.693,50.271C81.729,50.317 81.768,50.363 81.809,50.409C81.85,50.455 81.891,50.505 81.932,50.561C81.973,50.616 82.01,50.667 82.043,50.713C82.076,50.759 82.113,50.809 82.155,50.863C82.196,50.918 82.239,50.977 82.285,51.042C82.331,51.106 82.376,51.171 82.422,51.235C82.468,51.299 82.516,51.361 82.567,51.42C82.617,51.479 82.661,51.534 82.697,51.585C82.733,51.636 82.77,51.682 82.806,51.722C82.843,51.763 82.886,51.809 82.937,51.86C82.987,51.911 83.04,51.964 83.095,52.018C83.151,52.073 83.197,52.121 83.235,52.162C83.272,52.204 83.311,52.247 83.352,52.293C83.393,52.339 83.435,52.387 83.476,52.437C83.517,52.487 83.56,52.538 83.606,52.588C83.652,52.638 83.7,52.693 83.751,52.753C83.801,52.813 83.849,52.868 83.895,52.918C83.941,52.968 83.987,53.016 84.033,53.062C84.078,53.108 84.12,53.154 84.156,53.2C84.192,53.246 84.238,53.298 84.293,53.358C84.349,53.418 84.406,53.477 84.466,53.537C84.526,53.596 84.581,53.648 84.632,53.694C84.682,53.74 84.726,53.783 84.762,53.825C84.798,53.866 84.846,53.915 84.906,53.97C84.966,54.026 85.017,54.071 85.058,54.107C85.099,54.144 85.14,54.18 85.181,54.217C85.222,54.254 85.273,54.295 85.333,54.341C85.393,54.387 85.45,54.428 85.505,54.466C85.561,54.503 85.618,54.539 85.678,54.575C85.738,54.611 85.796,54.643 85.851,54.67C85.906,54.698 85.964,54.732 86.023,54.773C86.083,54.815 86.141,54.861 86.196,54.911C86.251,54.961 86.304,55.007 86.355,55.048C86.405,55.09 86.453,55.127 86.499,55.159C86.545,55.192 86.593,55.224 86.644,55.256C86.694,55.287 86.746,55.312 86.8,55.331C86.855,55.35 86.907,55.37 86.957,55.393C87.008,55.416 87.058,55.443 87.109,55.475C87.159,55.507 87.21,55.546 87.26,55.591C87.311,55.637 87.361,55.686 87.412,55.737C87.462,55.788 87.513,55.834 87.563,55.874C87.614,55.915 87.667,55.949 87.722,55.977C87.777,56.005 87.83,56.031 87.88,56.054C87.931,56.077 87.984,56.097 88.039,56.114C88.094,56.132 88.149,56.15 88.205,56.169C88.26,56.187 88.32,56.21 88.385,56.238C88.449,56.265 88.515,56.293 88.584,56.321C88.652,56.349 88.713,56.372 88.768,56.389C88.824,56.407 88.881,56.425 88.941,56.444C89.001,56.462 89.059,56.483 89.114,56.506C89.169,56.529 89.224,56.554 89.279,56.581C89.335,56.608 89.388,56.633 89.438,56.656C89.488,56.679 89.544,56.705 89.604,56.733C89.663,56.761 89.725,56.789 89.789,56.816C89.852,56.844 89.916,56.873 89.981,56.905C90.045,56.937 90.11,56.971 90.174,57.008C90.239,57.045 90.301,57.077 90.361,57.104C90.421,57.132 90.478,57.157 90.532,57.18C90.586,57.203 90.641,57.223 90.696,57.242C90.751,57.26 90.809,57.277 90.869,57.291C90.929,57.305 90.986,57.319 91.041,57.332C91.097,57.345 91.152,57.354 91.207,57.358C91.262,57.362 91.317,57.374 91.372,57.393C91.428,57.411 91.483,57.427 91.538,57.441C91.593,57.455 91.65,57.474 91.709,57.497C91.768,57.52 91.829,57.54 91.894,57.559C91.959,57.577 92.019,57.587 92.074,57.587L92.419,57.587C92.474,57.587 92.534,57.589 92.597,57.593C92.661,57.598 92.722,57.609 92.782,57.628C92.842,57.646 92.902,57.662 92.962,57.675C93.022,57.688 93.082,57.697 93.141,57.702C93.201,57.706 93.259,57.715 93.314,57.73C93.369,57.743 93.424,57.76 93.48,57.778C93.535,57.797 93.592,57.818 93.651,57.84C93.709,57.863 93.766,57.877 93.821,57.881C93.877,57.886 93.937,57.888 94.001,57.888C94.066,57.888 94.126,57.888 94.181,57.888C94.236,57.888 94.294,57.879 94.353,57.86C94.413,57.842 94.471,57.823 94.526,57.805C94.582,57.786 94.643,57.765 94.711,57.742C94.779,57.72 94.841,57.699 94.896,57.682C94.951,57.664 95.007,57.641 95.062,57.613C95.117,57.585 95.175,57.562 95.234,57.544C95.294,57.527 95.354,57.515 95.414,57.51C95.474,57.505 95.534,57.5 95.592,57.496C95.651,57.491 95.715,57.475 95.784,57.448L95.888,57.407" style="fill:none;stroke:#000;stroke-width:1.63px;"/>
            <path id="STROKE_4FD2B8B2.-4748.-4A62.-BC61.-C06401C351AB" d="M90.712,42.655C90.731,42.546 90.742,42.457 90.745,42.388C90.749,42.319 90.751,42.257 90.751,42.202C90.751,42.146 90.751,42.091 90.751,42.036C90.751,41.982 90.749,41.925 90.745,41.865C90.742,41.805 90.731,41.745 90.712,41.686C90.693,41.627 90.668,41.568 90.636,41.508C90.604,41.448 90.57,41.388 90.532,41.33C90.494,41.271 90.457,41.216 90.421,41.164C90.385,41.113 90.344,41.065 90.298,41.019C90.252,40.973 90.211,40.929 90.174,40.888C90.138,40.847 90.099,40.806 90.058,40.765C90.017,40.725 89.975,40.681 89.933,40.636C89.891,40.59 89.849,40.546 89.808,40.505C89.767,40.463 89.726,40.422 89.685,40.381C89.644,40.339 89.6,40.296 89.554,40.25C89.508,40.204 89.463,40.165 89.417,40.134C89.371,40.102 89.325,40.065 89.279,40.024C89.234,39.982 89.185,39.943 89.135,39.906C89.084,39.869 89.036,39.83 88.991,39.789C88.945,39.747 88.894,39.717 88.839,39.699C88.784,39.68 88.724,39.669 88.659,39.664C88.595,39.66 88.535,39.646 88.479,39.624C88.424,39.601 88.369,39.583 88.314,39.569C88.259,39.556 88.199,39.549 88.136,39.549C88.073,39.549 88.013,39.552 87.958,39.556C87.903,39.56 87.848,39.579 87.792,39.61C87.737,39.642 87.691,39.679 87.655,39.72C87.619,39.761 87.582,39.807 87.544,39.858C87.506,39.908 87.472,39.963 87.44,40.023C87.408,40.083 87.381,40.138 87.359,40.188C87.337,40.238 87.316,40.293 87.297,40.353C87.278,40.413 87.255,40.47 87.227,40.525C87.199,40.579 87.171,40.632 87.144,40.682C87.117,40.732 87.094,40.783 87.075,40.834C87.057,40.885 87.038,40.94 87.021,40.999C87.003,41.058 86.985,41.12 86.966,41.184C86.947,41.248 86.933,41.308 86.924,41.364C86.914,41.419 86.907,41.474 86.902,41.529C86.898,41.584 86.896,41.638 86.896,41.693L86.896,42.388C86.896,42.448 86.898,42.505 86.902,42.56C86.907,42.614 86.922,42.674 86.945,42.738C86.968,42.802 86.991,42.871 87.014,42.944C87.036,43.017 87.057,43.082 87.075,43.137C87.094,43.193 87.115,43.248 87.139,43.302C87.162,43.357 87.192,43.409 87.229,43.459C87.265,43.51 87.299,43.56 87.331,43.61C87.363,43.66 87.397,43.711 87.433,43.762C87.469,43.813 87.502,43.866 87.53,43.921C87.558,43.975 87.588,44.031 87.62,44.086C87.651,44.142 87.686,44.201 87.722,44.264C87.758,44.328 87.795,44.389 87.833,44.449C87.871,44.509 87.908,44.56 87.944,44.601C87.98,44.643 88.024,44.688 88.074,44.739C88.125,44.789 88.171,44.835 88.212,44.876C88.253,44.918 88.299,44.959 88.349,45C88.4,45.042 88.446,45.081 88.487,45.117C88.528,45.153 88.574,45.196 88.624,45.246C88.674,45.296 88.725,45.344 88.776,45.39C88.826,45.436 88.879,45.477 88.934,45.514C88.989,45.551 89.051,45.583 89.121,45.611C89.19,45.638 89.259,45.654 89.327,45.66C89.395,45.665 89.457,45.668 89.512,45.668L90.03,45.668C90.09,45.668 90.15,45.665 90.21,45.66C90.269,45.654 90.327,45.645 90.381,45.632C90.435,45.619 90.489,45.598 90.545,45.571C90.6,45.544 90.655,45.512 90.71,45.475C90.765,45.438 90.813,45.394 90.854,45.344C90.895,45.294 90.935,45.232 90.972,45.157C91.01,45.084 91.042,45.022 91.07,44.971C91.097,44.921 91.126,44.869 91.158,44.814C91.189,44.76 91.219,44.704 91.247,44.649C91.276,44.593 91.301,44.538 91.323,44.484C91.345,44.429 91.364,44.367 91.378,44.299C91.392,44.23 91.399,44.156 91.399,44.078L91.399,43.425C91.399,43.37 91.39,43.29 91.372,43.185C91.355,43.08 91.334,42.993 91.311,42.924C91.287,42.856 91.266,42.794 91.247,42.738C91.229,42.683 91.21,42.627 91.193,42.573C91.175,42.518 91.157,42.461 91.138,42.401C91.12,42.341 91.094,42.265 91.062,42.174C91.031,42.082 90.998,41.995 90.965,41.913C90.933,41.832 90.898,41.765 90.862,41.714C90.825,41.663 90.782,41.612 90.731,41.562L90.655,41.487" style="fill:none;stroke:#000;stroke-width:1.63px;"/>
            <path id="STROKE_699E1711.-8379.-45DA.-8DF3.-7CE00378A612" d="M97.83,48.318C97.95,48.301 98.025,48.315 98.057,48.361C98.089,48.406 98.109,48.469 98.119,48.547C98.128,48.625 98.133,48.694 98.133,48.753L98.133,49.391C98.133,49.474 98.126,49.561 98.112,49.653C98.097,49.745 98.079,49.838 98.057,49.935C98.035,50.031 98.014,50.129 97.996,50.23C97.977,50.332 97.956,50.43 97.934,50.526C97.912,50.623 97.889,50.714 97.865,50.801C97.842,50.888 97.816,50.971 97.789,51.048C97.762,51.126 97.735,51.192 97.706,51.248C97.678,51.303 97.651,51.361 97.624,51.42C97.597,51.479 97.567,51.534 97.534,51.585C97.501,51.636 97.473,51.687 97.451,51.737C97.429,51.787 97.403,51.839 97.375,51.894C97.347,51.949 97.317,52.01 97.285,52.079C97.254,52.148 97.224,52.214 97.195,52.279C97.167,52.343 97.137,52.403 97.106,52.457C97.074,52.512 97.042,52.562 97.01,52.609C96.979,52.656 96.945,52.702 96.908,52.748C96.872,52.794 96.83,52.841 96.783,52.892C96.736,52.942 96.686,52.994 96.632,53.049C96.578,53.104 96.521,53.159 96.461,53.214C96.401,53.27 96.336,53.32 96.267,53.366C96.198,53.412 96.133,53.455 96.073,53.496C96.013,53.536 95.952,53.573 95.888,53.605C95.825,53.638 95.768,53.67 95.717,53.702L95.641,53.749" style="fill:none;stroke:#000;stroke-width:1.63px;"/>
            <path id="STROKE_8FC2A4AC.-2459.-483E.-976B.-86CB3946B80B" d="M101.988,53.887C102.117,53.941 102.209,53.98 102.265,54.003C102.32,54.026 102.377,54.049 102.435,54.072C102.494,54.095 102.558,54.118 102.627,54.142C102.697,54.166 102.759,54.186 102.814,54.204C102.869,54.222 102.938,54.24 103.02,54.258C103.102,54.277 103.173,54.291 103.233,54.3C103.293,54.31 103.356,54.319 103.42,54.328C103.485,54.337 103.554,54.343 103.626,54.348C103.699,54.352 103.773,54.357 103.847,54.361C103.921,54.366 103.996,54.368 104.074,54.368C104.151,54.368 104.229,54.37 104.308,54.376C104.387,54.381 104.465,54.386 104.543,54.39C104.62,54.395 104.698,54.397 104.777,54.397C104.856,54.397 104.929,54.399 104.997,54.404C105.065,54.408 105.134,54.412 105.203,54.417C105.272,54.421 105.337,54.425 105.397,54.43C105.457,54.434 105.519,54.436 105.582,54.436C105.645,54.436 105.705,54.441 105.76,54.451C105.815,54.461 105.884,54.472 105.966,54.486C106.048,54.499 106.124,54.512 106.194,54.526C106.263,54.54 106.332,54.555 106.401,54.569C106.471,54.583 106.539,54.596 106.607,54.61C106.676,54.623 106.737,54.634 106.793,54.644C106.848,54.654 106.917,54.667 107,54.685C107.084,54.703 107.153,54.718 107.207,54.732C107.26,54.746 107.315,54.761 107.37,54.775C107.425,54.789 107.481,54.8 107.536,54.809C107.591,54.818 107.649,54.827 107.709,54.835C107.769,54.844 107.826,54.851 107.881,54.857C107.936,54.862 107.992,54.865 108.047,54.865L108.79,54.865C108.846,54.865 108.903,54.86 108.963,54.85C109.023,54.84 109.08,54.831 109.136,54.822C109.191,54.814 109.25,54.8 109.314,54.781C109.377,54.763 109.443,54.744 109.513,54.726C109.582,54.707 109.647,54.687 109.707,54.664C109.766,54.641 109.822,54.618 109.872,54.595C109.923,54.572 109.973,54.545 110.024,54.513C110.074,54.481 110.122,54.443 110.168,54.397C110.214,54.351 110.26,54.305 110.306,54.259C110.351,54.214 110.395,54.168 110.436,54.122C110.477,54.076 110.516,54.033 110.552,53.991C110.589,53.95 110.625,53.901 110.662,53.846C110.698,53.79 110.726,53.735 110.744,53.68C110.763,53.626 110.784,53.569 110.808,53.509C110.831,53.449 110.852,53.387 110.869,53.324C110.887,53.26 110.912,53.199 110.945,53.139C110.978,53.079 111.008,53.017 111.035,52.952C111.062,52.888 111.083,52.829 111.097,52.774C111.111,52.72 111.123,52.665 111.132,52.609C111.141,52.554 111.146,52.494 111.146,52.429C111.146,52.365 111.148,52.305 111.151,52.251C111.155,52.196 111.159,52.142 111.164,52.087C111.168,52.032 111.171,51.977 111.171,51.922C111.171,51.866 111.173,51.809 111.178,51.75C111.182,51.691 111.192,51.634 111.206,51.578C111.22,51.523 111.236,51.465 111.255,51.406C111.274,51.348 111.295,51.292 111.317,51.241C111.339,51.19 111.36,51.135 111.379,51.076C111.397,51.017 111.418,50.96 111.44,50.904C111.463,50.849 111.481,50.792 111.495,50.733C111.509,50.674 111.521,50.614 111.53,50.554C111.54,50.494 111.546,50.43 111.551,50.361C111.556,50.293 111.558,50.231 111.558,50.176L111.558,49.653C111.558,49.598 111.554,49.541 111.544,49.481C111.535,49.421 111.523,49.364 111.509,49.309C111.495,49.255 111.479,49.2 111.461,49.144C111.444,49.089 111.428,49.034 111.414,48.979C111.4,48.924 111.386,48.867 111.372,48.807C111.358,48.747 111.343,48.69 111.329,48.636C111.315,48.581 111.299,48.526 111.282,48.472C111.264,48.417 111.248,48.362 111.234,48.307C111.22,48.251 111.202,48.196 111.18,48.141C111.157,48.087 111.132,48.032 111.104,47.976C111.076,47.921 111.048,47.868 111.021,47.818C110.994,47.767 110.961,47.715 110.924,47.66C110.886,47.606 110.854,47.553 110.827,47.502C110.8,47.45 110.775,47.4 110.751,47.35C110.728,47.299 110.7,47.247 110.668,47.192C110.637,47.138 110.608,47.083 110.581,47.027C110.553,46.972 110.528,46.917 110.505,46.862C110.481,46.807 110.451,46.755 110.415,46.705C110.378,46.655 110.34,46.602 110.299,46.546C110.257,46.491 110.218,46.44 110.181,46.394C110.143,46.349 110.108,46.303 110.077,46.257C110.045,46.211 110.015,46.161 109.988,46.106C109.962,46.052 109.934,45.995 109.906,45.935C109.877,45.875 109.848,45.822 109.816,45.776C109.784,45.73 109.748,45.684 109.707,45.638C109.665,45.593 109.626,45.549 109.588,45.508C109.551,45.466 109.516,45.423 109.485,45.377C109.453,45.331 109.419,45.283 109.382,45.233C109.346,45.183 109.305,45.142 109.259,45.11C109.213,45.078 109.163,45.044 109.107,45.007C109.052,44.97 108.999,44.94 108.949,44.917C108.899,44.894 108.846,44.867 108.79,44.835C108.735,44.803 108.68,44.776 108.625,44.753C108.57,44.73 108.517,44.707 108.466,44.684C108.416,44.662 108.363,44.643 108.308,44.629C108.252,44.615 108.193,44.599 108.128,44.58C108.063,44.562 108.004,44.543 107.95,44.525C107.896,44.506 107.834,44.49 107.765,44.477C107.696,44.464 107.624,44.45 107.55,44.436C107.476,44.422 107.403,44.413 107.33,44.408C107.257,44.404 107.193,44.397 107.138,44.389C107.083,44.38 107.023,44.373 106.958,44.367C106.894,44.362 106.832,44.355 106.773,44.346C106.714,44.337 106.655,44.326 106.595,44.312C106.535,44.298 106.473,44.284 106.408,44.271C106.344,44.258 106.282,44.246 106.222,44.237C106.162,44.227 106.1,44.218 106.037,44.209C105.973,44.2 105.914,44.196 105.858,44.196C105.803,44.196 105.744,44.193 105.679,44.189C105.614,44.184 105.552,44.18 105.492,44.176C105.432,44.172 105.372,44.169 105.313,44.169L103.529,44.169C103.474,44.169 103.415,44.172 103.351,44.176C103.288,44.18 103.229,44.184 103.173,44.189C103.118,44.193 103.061,44.2 103.001,44.209C102.941,44.218 102.874,44.229 102.8,44.243C102.726,44.257 102.655,44.269 102.587,44.277C102.519,44.286 102.45,44.298 102.381,44.312C102.311,44.326 102.242,44.34 102.173,44.354C102.104,44.368 102.04,44.382 101.981,44.395C101.922,44.408 101.865,44.42 101.81,44.429L101.727,44.444" style="fill:none;stroke:#000;stroke-width:1.63px;"/>
            <path id="STROKE_274B022B.-51A1.-4FF0.-914D.-43188020ED52" d="M84.087,55.179C83.967,55.207 83.878,55.223 83.819,55.228C83.761,55.232 83.699,55.234 83.634,55.234L82.91,55.234C82.842,55.234 82.767,55.237 82.685,55.241C82.603,55.246 82.511,55.253 82.41,55.262C82.309,55.272 82.226,55.279 82.161,55.284C82.097,55.288 82.035,55.295 81.975,55.303C81.915,55.312 81.83,55.321 81.719,55.331C81.609,55.341 81.526,55.348 81.471,55.352C81.416,55.357 81.335,55.361 81.229,55.366C81.124,55.37 81.025,55.372 80.934,55.372L80.398,55.372C80.316,55.372 80.235,55.374 80.156,55.379C80.078,55.383 80.002,55.387 79.929,55.392C79.856,55.396 79.779,55.403 79.697,55.413C79.614,55.423 79.529,55.432 79.441,55.441C79.353,55.45 79.261,55.459 79.165,55.468C79.068,55.478 78.969,55.49 78.868,55.503C78.768,55.516 78.669,55.53 78.573,55.544C78.476,55.558 78.384,55.569 78.298,55.578C78.211,55.587 78.124,55.596 78.037,55.606C77.95,55.616 77.867,55.625 77.788,55.634C77.71,55.642 77.632,55.649 77.554,55.653C77.477,55.658 77.401,55.663 77.327,55.668C77.253,55.673 77.175,55.678 77.092,55.683C77.01,55.687 76.928,55.691 76.846,55.696C76.764,55.7 76.677,55.705 76.585,55.709C76.494,55.713 76.401,55.72 76.309,55.73C76.216,55.74 76.121,55.749 76.025,55.758C75.929,55.767 75.832,55.776 75.736,55.784C75.64,55.793 75.546,55.802 75.454,55.812C75.362,55.822 75.271,55.831 75.179,55.84C75.087,55.849 74.998,55.858 74.911,55.868C74.824,55.877 74.737,55.889 74.649,55.902C74.561,55.915 74.473,55.927 74.386,55.936C74.3,55.946 74.213,55.957 74.125,55.971C74.038,55.984 73.949,55.995 73.858,56.005C73.766,56.015 73.693,56.024 73.637,56.033C73.582,56.042 73.504,56.053 73.403,56.067C73.302,56.081 73.224,56.09 73.169,56.095C73.114,56.099 73.059,56.104 73.003,56.108C72.948,56.112 72.867,56.122 72.762,56.136C72.656,56.15 72.576,56.159 72.52,56.164C72.465,56.168 72.383,56.175 72.274,56.183C72.165,56.192 72.082,56.199 72.027,56.203C71.972,56.207 71.917,56.212 71.862,56.218C71.806,56.223 71.749,56.23 71.689,56.239C71.629,56.248 71.569,56.257 71.509,56.265C71.449,56.274 71.367,56.288 71.261,56.306C71.155,56.325 71.075,56.339 71.021,56.349C70.967,56.358 70.912,56.37 70.857,56.383C70.802,56.396 70.742,56.41 70.678,56.424C70.613,56.438 70.551,56.454 70.491,56.473C70.431,56.491 70.369,56.507 70.304,56.52C70.239,56.534 70.175,56.547 70.112,56.561C70.049,56.575 69.982,56.592 69.913,56.61C69.844,56.629 69.781,56.645 69.726,56.658C69.671,56.671 69.607,56.685 69.534,56.699C69.461,56.713 69.393,56.729 69.328,56.748C69.263,56.766 69.199,56.78 69.134,56.789C69.069,56.797 69.007,56.809 68.948,56.823C68.888,56.837 68.826,56.851 68.762,56.864C68.699,56.877 68.64,56.889 68.584,56.898C68.529,56.908 68.469,56.919 68.405,56.932C68.34,56.946 68.278,56.957 68.218,56.967C68.158,56.977 68.099,56.986 68.04,56.995C67.981,57.004 67.897,57.017 67.786,57.036C67.676,57.054 67.57,57.073 67.469,57.091C67.368,57.11 67.265,57.128 67.159,57.147C67.053,57.165 66.945,57.186 66.835,57.209C66.725,57.232 66.617,57.255 66.511,57.277C66.405,57.3 66.295,57.328 66.181,57.359C66.067,57.391 65.98,57.416 65.92,57.435C65.861,57.453 65.801,57.469 65.741,57.482C65.681,57.495 65.593,57.518 65.478,57.551C65.363,57.584 65.255,57.616 65.154,57.648C65.053,57.679 64.952,57.707 64.851,57.73C64.75,57.752 64.649,57.777 64.548,57.805C64.447,57.832 64.348,57.857 64.252,57.88C64.156,57.903 64.08,57.921 64.025,57.936C63.97,57.95 63.892,57.973 63.792,58.004C63.692,58.036 63.612,58.061 63.552,58.079C63.493,58.098 63.435,58.119 63.38,58.142C63.325,58.165 63.267,58.185 63.207,58.204C63.147,58.222 63.069,58.252 62.973,58.294C62.877,58.335 62.78,58.374 62.684,58.411C62.588,58.448 62.494,58.485 62.402,58.521C62.31,58.557 62.216,58.589 62.12,58.616C62.024,58.643 61.923,58.673 61.817,58.706C61.711,58.739 61.631,58.764 61.576,58.783C61.521,58.801 61.465,58.819 61.41,58.837C61.355,58.854 61.27,58.88 61.155,58.912C61.04,58.945 60.954,58.967 60.899,58.981C60.844,58.994 60.787,59.01 60.728,59.028C60.67,59.047 60.587,59.07 60.482,59.097C60.376,59.124 60.272,59.152 60.171,59.18C60.07,59.208 59.969,59.234 59.869,59.257C59.768,59.28 59.669,59.307 59.572,59.339C59.476,59.371 59.378,59.405 59.277,59.442C59.175,59.479 59.077,59.518 58.981,59.558C58.884,59.599 58.811,59.63 58.76,59.653C58.71,59.676 58.636,59.709 58.54,59.75C58.444,59.791 58.368,59.826 58.313,59.854C58.258,59.882 58.184,59.915 58.092,59.951C58.001,59.987 57.907,60.026 57.811,60.067C57.714,60.108 57.618,60.148 57.522,60.184C57.425,60.222 57.331,60.258 57.238,60.294C57.145,60.33 57.047,60.367 56.942,60.404C56.837,60.441 56.735,60.477 56.634,60.513C56.533,60.55 56.457,60.579 56.406,60.602C56.356,60.625 56.301,60.648 56.241,60.671C56.181,60.694 56.1,60.724 55.999,60.761C55.898,60.798 55.823,60.828 55.772,60.851C55.722,60.874 55.671,60.896 55.621,60.919C55.57,60.942 55.494,60.974 55.393,61.016C55.292,61.057 55.196,61.096 55.104,61.132C55.013,61.168 54.924,61.207 54.837,61.248C54.75,61.29 54.656,61.329 54.555,61.366C54.454,61.403 54.359,61.437 54.271,61.469C54.183,61.501 54.093,61.535 54.001,61.572C53.91,61.609 53.821,61.643 53.733,61.675C53.647,61.707 53.56,61.739 53.473,61.772C53.386,61.804 53.298,61.836 53.21,61.868C53.122,61.9 53.04,61.929 52.962,61.957C52.884,61.984 52.804,62.012 52.722,62.04C52.64,62.068 52.557,62.094 52.474,62.117C52.391,62.139 52.31,62.162 52.233,62.185C52.155,62.208 52.075,62.231 51.993,62.254C51.911,62.277 51.83,62.302 51.752,62.329C51.673,62.357 51.601,62.382 51.537,62.405C51.472,62.428 51.408,62.45 51.345,62.473C51.281,62.496 51.222,62.519 51.166,62.542C51.111,62.565 51.054,62.586 50.994,62.604C50.934,62.623 50.872,62.641 50.807,62.658C50.743,62.676 50.667,62.699 50.58,62.727C50.493,62.755 50.397,62.785 50.291,62.817C50.185,62.848 50.086,62.878 49.995,62.905C49.903,62.933 49.812,62.96 49.72,62.989C49.628,63.017 49.539,63.042 49.452,63.065C49.365,63.088 49.28,63.113 49.197,63.141C49.113,63.168 49.035,63.195 48.963,63.222C48.89,63.25 48.819,63.275 48.749,63.298C48.68,63.321 48.615,63.346 48.556,63.373C48.496,63.401 48.434,63.426 48.371,63.448C48.307,63.471 48.243,63.494 48.178,63.517C48.114,63.54 48.045,63.561 47.971,63.579C47.896,63.598 47.823,63.616 47.75,63.635C47.678,63.653 47.606,63.669 47.537,63.682C47.468,63.695 47.404,63.711 47.345,63.73C47.286,63.748 47.225,63.767 47.16,63.785C47.096,63.804 47.031,63.825 46.966,63.847C46.902,63.87 46.837,63.898 46.772,63.929C46.708,63.961 46.646,63.991 46.587,64.019C46.529,64.048 46.472,64.075 46.416,64.102C46.361,64.13 46.297,64.157 46.223,64.184C46.149,64.212 46.082,64.239 46.022,64.266C45.962,64.294 45.905,64.317 45.851,64.335C45.797,64.354 45.735,64.37 45.666,64.384C45.597,64.398 45.534,64.405 45.479,64.405C45.424,64.405 45.364,64.405 45.3,64.405C45.235,64.405 45.168,64.4 45.1,64.391C45.032,64.381 44.971,64.367 44.916,64.35C44.86,64.332 44.805,64.321 44.75,64.315C44.695,64.31 44.635,64.294 44.57,64.266C44.505,64.239 44.446,64.21 44.39,64.178C44.335,64.146 44.278,64.11 44.22,64.068C44.161,64.027 44.108,63.99 44.061,63.957C44.014,63.925 43.959,63.89 43.895,63.854C43.832,63.818 43.775,63.786 43.724,63.759C43.674,63.732 43.628,63.7 43.587,63.663C43.546,63.626 43.509,63.58 43.476,63.525C43.443,63.47 43.406,63.418 43.365,63.366C43.324,63.315 43.28,63.272 43.234,63.236C43.189,63.2 43.145,63.163 43.104,63.126C43.063,63.089 43.024,63.05 42.988,63.009C42.952,62.967 42.922,62.915 42.898,62.851C42.875,62.788 42.861,62.726 42.856,62.666C42.851,62.606 42.844,62.544 42.835,62.48C42.825,62.415 42.812,62.351 42.794,62.287C42.777,62.223 42.751,62.163 42.718,62.109C42.685,62.054 42.655,62.002 42.628,61.951C42.602,61.901 42.581,61.844 42.567,61.78C42.553,61.715 42.543,61.653 42.539,61.593C42.534,61.533 42.532,61.471 42.532,61.407L42.532,60.108C42.532,60.048 42.543,59.984 42.567,59.915C42.59,59.846 42.613,59.78 42.635,59.715C42.658,59.651 42.681,59.585 42.704,59.516C42.728,59.447 42.74,59.383 42.74,59.324C42.74,59.265 42.74,59.208 42.74,59.153C42.74,59.097 42.753,59.035 42.78,58.966C42.807,58.898 42.837,58.84 42.87,58.795C42.903,58.749 42.94,58.703 42.981,58.657C43.022,58.611 43.07,58.563 43.125,58.513C43.181,58.463 43.234,58.413 43.284,58.362C43.335,58.312 43.378,58.264 43.414,58.218C43.451,58.172 43.485,58.127 43.516,58.081C43.548,58.035 43.578,57.984 43.606,57.929C43.635,57.873 43.662,57.816 43.689,57.757C43.716,57.698 43.746,57.639 43.779,57.579C43.812,57.519 43.849,57.46 43.89,57.4C43.931,57.341 43.975,57.278 44.02,57.209C44.066,57.14 44.107,57.085 44.144,57.044C44.18,57.002 44.214,56.959 44.246,56.913C44.278,56.867 44.317,56.812 44.364,56.748C44.411,56.683 44.455,56.621 44.496,56.561C44.537,56.501 44.574,56.449 44.605,56.403C44.637,56.357 44.671,56.305 44.708,56.246C44.744,56.186 44.781,56.136 44.819,56.095C44.856,56.054 44.898,56.01 44.944,55.964C44.99,55.918 45.04,55.87 45.095,55.82C45.15,55.77 45.205,55.722 45.259,55.676C45.313,55.63 45.363,55.587 45.409,55.545C45.455,55.504 45.499,55.464 45.541,55.428C45.583,55.391 45.627,55.354 45.673,55.316C45.719,55.279 45.772,55.236 45.832,55.186C45.892,55.136 45.947,55.095 45.997,55.063C46.048,55.031 46.098,54.999 46.147,54.966C46.196,54.934 46.251,54.899 46.311,54.863C46.371,54.827 46.433,54.793 46.498,54.76C46.562,54.728 46.625,54.698 46.685,54.67C46.744,54.643 46.799,54.616 46.85,54.588C46.9,54.561 46.962,54.529 47.035,54.492C47.108,54.455 47.181,54.418 47.255,54.382C47.329,54.346 47.396,54.317 47.456,54.294C47.516,54.271 47.578,54.246 47.641,54.218C47.705,54.191 47.769,54.166 47.833,54.142C47.898,54.118 47.965,54.095 48.034,54.072C48.103,54.049 48.174,54.024 48.247,53.997C48.32,53.969 48.391,53.942 48.46,53.915C48.53,53.887 48.601,53.86 48.673,53.833C48.746,53.805 48.82,53.778 48.894,53.751C48.968,53.723 49.037,53.696 49.102,53.668C49.166,53.639 49.224,53.614 49.274,53.591C49.325,53.568 49.384,53.543 49.452,53.516C49.52,53.488 49.584,53.463 49.644,53.44C49.704,53.417 49.771,53.39 49.843,53.358C49.916,53.326 49.985,53.299 50.05,53.276C50.114,53.253 50.181,53.228 50.25,53.201C50.32,53.174 50.393,53.146 50.471,53.118C50.548,53.089 50.629,53.064 50.712,53.041C50.795,53.018 50.881,52.993 50.967,52.966C51.054,52.938 51.137,52.913 51.214,52.89C51.292,52.868 51.37,52.845 51.448,52.822C51.527,52.799 51.603,52.776 51.676,52.753C51.749,52.73 51.822,52.709 51.896,52.691C51.97,52.672 52.043,52.654 52.116,52.635C52.189,52.617 52.26,52.599 52.329,52.581C52.399,52.564 52.467,52.546 52.536,52.527C52.604,52.509 52.675,52.49 52.749,52.471C52.823,52.453 52.896,52.432 52.969,52.409C53.042,52.387 53.118,52.364 53.196,52.341C53.275,52.318 53.353,52.297 53.431,52.279C53.508,52.26 53.581,52.242 53.651,52.223C53.72,52.205 53.789,52.187 53.859,52.169C53.928,52.151 54.004,52.135 54.086,52.121C54.168,52.107 54.246,52.093 54.319,52.079C54.391,52.065 54.467,52.049 54.546,52.032C54.625,52.014 54.705,51.994 54.787,51.971C54.87,51.948 54.956,51.922 55.048,51.894C55.14,51.866 55.234,51.836 55.33,51.804C55.426,51.773 55.521,51.741 55.614,51.709C55.706,51.677 55.796,51.65 55.883,51.627C55.97,51.604 56.045,51.584 56.109,51.565C56.172,51.547 56.238,51.528 56.308,51.509C56.377,51.491 56.439,51.473 56.495,51.454C56.55,51.436 56.618,51.415 56.701,51.392C56.783,51.369 56.856,51.348 56.921,51.33C56.985,51.311 57.052,51.291 57.122,51.268C57.191,51.245 57.269,51.222 57.356,51.199C57.443,51.176 57.514,51.158 57.569,51.145C57.625,51.132 57.68,51.116 57.735,51.097C57.79,51.079 57.845,51.063 57.9,51.048C57.956,51.034 58.036,51.011 58.14,50.98C58.245,50.948 58.343,50.916 58.436,50.883C58.529,50.851 58.614,50.826 58.691,50.808C58.769,50.79 58.847,50.774 58.924,50.76C59.002,50.746 59.068,50.735 59.123,50.726C59.178,50.717 59.241,50.708 59.31,50.698C59.379,50.688 59.446,50.677 59.511,50.664C59.575,50.651 59.646,50.633 59.724,50.61C59.802,50.587 59.884,50.561 59.971,50.533C60.058,50.505 60.147,50.475 60.238,50.443C60.33,50.411 60.42,50.384 60.508,50.361C60.596,50.338 60.681,50.315 60.764,50.292C60.846,50.27 60.924,50.249 60.998,50.23C61.072,50.212 61.141,50.196 61.204,50.183C61.267,50.17 61.332,50.156 61.396,50.142C61.461,50.128 61.528,50.111 61.597,50.093C61.666,50.075 61.74,50.056 61.817,50.037C61.895,50.019 61.977,50.001 62.064,49.983C62.151,49.966 62.238,49.945 62.325,49.923C62.411,49.9 62.497,49.876 62.58,49.853C62.663,49.829 62.746,49.805 62.828,49.782C62.911,49.76 62.991,49.737 63.07,49.714C63.149,49.691 63.227,49.668 63.304,49.645C63.382,49.622 63.453,49.599 63.517,49.576C63.582,49.553 63.648,49.53 63.716,49.508C63.784,49.485 63.853,49.462 63.923,49.439C63.992,49.416 64.065,49.396 64.143,49.378C64.22,49.361 64.303,49.34 64.391,49.317C64.479,49.295 64.569,49.269 64.661,49.241C64.752,49.213 64.844,49.187 64.936,49.164C65.027,49.141 65.101,49.123 65.156,49.11C65.211,49.097 65.289,49.076 65.39,49.049C65.491,49.022 65.59,48.994 65.686,48.966C65.782,48.938 65.874,48.908 65.961,48.876C66.048,48.844 66.135,48.815 66.222,48.788C66.309,48.76 66.391,48.735 66.47,48.712C66.549,48.689 66.629,48.666 66.712,48.643C66.794,48.621 66.876,48.6 66.958,48.581C67.041,48.563 67.126,48.547 67.214,48.532C67.302,48.518 67.394,48.502 67.49,48.485C67.587,48.467 67.688,48.447 67.793,48.424C67.899,48.401 68.004,48.378 68.109,48.354C68.213,48.33 68.314,48.309 68.412,48.292C68.509,48.274 68.606,48.256 68.702,48.238C68.799,48.219 68.895,48.203 68.991,48.189C69.088,48.175 69.184,48.161 69.28,48.148C69.377,48.135 69.478,48.123 69.583,48.114C69.689,48.104 69.79,48.092 69.887,48.079C69.983,48.066 70.079,48.05 70.176,48.032C70.272,48.013 70.366,47.997 70.457,47.983C70.549,47.969 70.638,47.952 70.725,47.934C70.812,47.915 70.897,47.902 70.979,47.893C71.061,47.884 71.146,47.875 71.234,47.866C71.322,47.858 71.412,47.848 71.504,47.839C71.596,47.829 71.694,47.82 71.8,47.811C71.906,47.802 72.009,47.793 72.11,47.783C72.211,47.773 72.289,47.764 72.344,47.755C72.399,47.747 72.478,47.733 72.579,47.715C72.68,47.696 72.757,47.682 72.811,47.673C72.865,47.665 72.92,47.653 72.975,47.639C73.03,47.625 73.106,47.607 73.202,47.584C73.299,47.561 73.393,47.543 73.486,47.529C73.579,47.516 73.664,47.507 73.742,47.502C73.819,47.497 73.899,47.494 73.981,47.494L74.814,47.494C74.884,47.494 74.957,47.487 75.035,47.474C75.112,47.461 75.194,47.445 75.281,47.426C75.368,47.408 75.46,47.389 75.558,47.371C75.656,47.353 75.75,47.332 75.842,47.309C75.933,47.286 76.02,47.27 76.102,47.261C76.185,47.253 76.264,47.243 76.342,47.234C76.419,47.224 76.493,47.219 76.562,47.219C76.632,47.219 76.696,47.217 76.756,47.212C76.816,47.208 76.878,47.203 76.943,47.199C77.007,47.195 77.071,47.188 77.135,47.179C77.198,47.171 77.265,47.159 77.334,47.145C77.403,47.131 77.477,47.115 77.554,47.096C77.632,47.078 77.71,47.059 77.788,47.041C77.867,47.022 77.948,47.004 78.03,46.986C78.112,46.969 78.199,46.948 78.291,46.924C78.382,46.901 78.471,46.88 78.559,46.862C78.645,46.845 78.726,46.829 78.8,46.815C78.874,46.8 78.945,46.786 79.015,46.772C79.084,46.758 79.15,46.745 79.214,46.731C79.277,46.718 79.341,46.707 79.406,46.697C79.471,46.687 79.54,46.68 79.614,46.676C79.688,46.672 79.761,46.667 79.834,46.663C79.907,46.658 79.971,46.656 80.026,46.656C80.081,46.656 80.144,46.656 80.213,46.656C80.282,46.656 80.346,46.66 80.405,46.669C80.464,46.678 80.514,46.708 80.556,46.759C80.599,46.81 80.638,46.868 80.674,46.932C80.711,46.996 80.745,47.051 80.777,47.097L80.824,47.166" style="fill:none;stroke:#000;stroke-width:1.63px;"/>
        </g>
    </g>
</svg>
