<?xml version="1.0" encoding="utf-8"?>
<!-- Generator: Adobe Illustrator 16.0.0, SVG Export Plug-In . SVG Version: 6.00 Build 0)  -->
<!DOCTYPE svg PUBLIC "-//W3C//DTD SVG 1.1//EN" "http://www.w3.org/Graphics/SVG/1.1/DTD/svg11.dtd">
<svg version="1.1" id="Layer_1" xmlns="http://www.w3.org/2000/svg" xmlns:xlink="http://www.w3.org/1999/xlink" x="0px" y="0px"
	 width="160px" height="160px" viewBox="0 0 160 160" enable-background="new 0 0 160 160" xml:space="preserve">
<g id="h13">
	
		<path id="STROKE_F5C778D4.2e..-1C6F.2e..-4E9D.2e..-8FD2.2e..-F7573BC01E1A" fill="#11AA11" stroke="#000000" stroke-width="1.6" d="
		M115.818,63.326c-2.669-5.827-6.757-10.851-10.783-15.782c-3.121-3.822-6.83-7.096-10.433-10.446
		c-3.936-3.659-7.873-7.316-11.809-10.973c-3.911-3.638-9.042-7.269-11.535-12.11c0.264,0.512-0.632,2.48-0.818,3.019
		c-3.498,10.153-9.529,19.57-15.329,28.546c-1.748,2.706-3.533,5.389-5.279,8.097c-1.607,2.494-3.218,5.004-4.631,7.616"/>
	
		<path id="STROKE_36C12225.2e..-EE0B.2e..-40EE.2e..-9E83.2e..-C223927A676F" fill="#11AA11" stroke="#000000" stroke-width="1.6" d="
		M110.081,23.59c0,2.52,2.634,5.288,3.955,7.263c1.509,2.257,2.941,4.72,2.984,7.512c0.061,3.93-4.724,6.219-8.019,4.324
		c-2.596-1.493-2.558-5.443-2.101-7.991C107.51,31.31,109.351,26.948,110.081,23.59"/>
	
		<path id="STROKE_D625D9B0.2e..-256D.2e..-4A1B.2e..-A8B1.2e..-88CB4B8B048A" fill="#11AA11" stroke="#000000" stroke-width="1.6" d="
		M51.876,14.641c0.68,1.566,1.825,2.889,2.603,4.408c0.813,1.592,1.421,3.279,1.993,4.969c1.196,3.536,0.746,8.967-3.786,9.814
		c-2.021,0.378-4.219-0.646-5.143-2.504c-0.901-1.814-0.183-3.734,0.553-5.464C49.603,22.328,51.876,18.597,51.876,14.641"/>
</g>
</svg>
