<?xml version="1.0" encoding="utf-8"?>
<!-- Generator: Adobe Illustrator 16.0.0, SVG Export Plug-In . SVG Version: 6.00 Build 0)  -->
<!DOCTYPE svg PUBLIC "-//W3C//DTD SVG 1.1//EN" "http://www.w3.org/Graphics/SVG/1.1/DTD/svg11.dtd">
<svg version="1.1" id="Layer_1" xmlns="http://www.w3.org/2000/svg" xmlns:xlink="http://www.w3.org/1999/xlink" x="0px" y="0px"
	 width="160px" height="160px" viewBox="0 0 160 160" enable-background="new 0 0 160 160" xml:space="preserve">
<g id="h11">
	<path fill="#F9F5E1" stroke="#000000" stroke-width="1.6" stroke-linecap="round" stroke-linejoin="round" d="M46.947,47.295
		c-1.235-0.805-2.12-2.158-2.44-3.588c-0.222-1.483-0.414-2.971-0.546-4.465c-0.237-2.693-0.287-5.427,0.148-8.102
		c0.407-2.499,1.268-4.91,2.652-7.036c1.586-2.434,3.771-4.411,6.177-6.015c1.595-1.064,3.286-1.959,5.125-2.52
		c1.75-0.534,3.577-0.768,5.404-0.754c3.69,0.03,7.293,1.012,10.808,2.046c2.794,0.823,5.578,1.708,8.435,2.29"/>
	
		<path id="STROKE_5C92DBF6.2e..-5A7F.2e..-4BD7.2e..-A3A1.2e..-DE92F4DB87D5" fill="#11AA11" stroke="#000000" stroke-width="1.6" d="
		M112.079,56.949c-0.296-0.345-0.479-0.816-0.668-1.223c-0.352-0.756-0.675-1.525-0.996-2.294c-0.834-2.001-1.635-4.016-2.475-6.015
		c-0.699-1.668-1.383-3.38-2.293-4.948c-0.13-0.225-0.266-0.448-0.428-0.652c-0.09-0.115-0.199-0.251-0.339-0.307
		c-0.042-0.017-0.089-0.022-0.132-0.007c-0.197,0.077-0.387,0.193-0.555,0.322c-0.309,0.238-0.539,0.557-0.684,0.917
		c-0.631,1.567,0.094,3.345-0.475,4.929c-0.313,0.872-1.059,1.374-1.936,1.59c-1.012,0.249-1.992,0.182-2.988-0.093
		c-1.1-0.304-2.158-0.759-3.192-1.239c-1.145-0.531-2.264-1.111-3.38-1.698c-0.977-0.513-1.948-1.039-2.94-1.523
		c-0.363-0.178-0.731-0.352-1.109-0.5c-0.243-0.095-0.502-0.194-0.765-0.219c-0.307-0.028-0.637,0.18-0.849,0.382
		c-0.271,0.257-0.37,0.611-0.356,0.977c0.027,0.738,0.453,1.437,0.402,2.178c-0.07,1.043-1.462,0.809-2.159,0.895
		c-1.241,0.152-2.311,0.998-3.274,1.732c-0.512,0.391-1.02,0.791-1.563,1.141c-0.469,0.303-0.977,0.579-1.529,0.692
		c-0.458,0.094-0.976,0.065-1.387-0.176c-0.373-0.219-0.662-0.57-0.919-0.91c-0.647-0.852-1.152-1.812-1.867-2.612
		c-0.298-0.333-0.647-0.656-1.073-0.813c-0.419-0.156-0.858-0.099-1.25,0.107c-0.361,0.191-0.609,0.525-0.829,0.859
		c-0.306,0.463-0.561,0.957-0.812,1.451c-0.509,1.008-0.952,2.079-1.598,3.01c-0.176,0.255-0.412,0.595-0.731,0.681
		c-0.09,0.025-0.186,0.015-0.279,0.018c-0.176,0.006-0.352,0.021-0.526,0.046c-0.317,0.044-0.628,0.119-0.931,0.221
		c-1.168,0.393-2.15,1.158-3.224,1.737c-1.186,0.639-2.573,1.003-3.917,0.7c-0.502-0.113-0.837-0.415-0.9-0.934
		c-0.057-0.479,0.038-0.963-0.036-1.441c-0.093-0.597-0.477-0.97-1.013-1.211c-0.481-0.217-1.012-0.356-1.542-0.294
		c-0.913,0.105-1.577,0.796-2.063,1.522c-0.509,0.76-0.865,1.605-1.33,2.389c-0.321,0.54-0.782,1.169-1.497,0.934
		c-0.372-0.122-0.68-0.405-0.936-0.691c-0.33-0.367-0.603-0.786-0.845-1.215c-0.452-0.804-0.852-1.699-1.016-2.61
		c-0.028-0.158-0.142-0.696,0.116-0.748c-0.484,0.423-0.742,1.135-0.968,1.716c-0.38,0.975-0.671,1.985-0.942,2.996
		c-0.63,2.341-1.129,4.715-1.647,7.083c-0.162,0.74-0.324,1.481-0.502,2.218c-0.114,0.475-0.225,0.958-0.394,1.417"/>
	
		<path id="STROKE_96EA7E95.2e..-77F2.2e..-44F7.2e..-BC22.2e..-3B993E421197" fill="#FFFFFF" stroke="#000000" stroke-width="1.6" stroke-linecap="round" stroke-linejoin="round" d="
		M46.947,47.295c0-0.261,0.098-0.527,0.187-0.769c0.143-0.39,0.318-0.769,0.5-1.143c0.482-0.993,1.022-1.958,1.571-2.915
		c0.564-0.985,1.144-1.961,1.724-2.937c0.388-0.652,0.792-1.3,1.145-1.973c0.196-0.375,0.299-0.79,0.463-1.177
		c0.269-0.639,0.601-1.259,1.039-1.799c0.647-0.798,1.521-1.342,2.542-1.502c1.936-0.303,3.822,0.544,5.715,0.78
		c0.431,0.054,0.87,0.077,1.301,0.027c0.099-0.012,0.197-0.027,0.294-0.046c0.05-0.011,0.184-0.018,0.219-0.055
		c0.043-0.047,0.078-0.108,0.112-0.161c0.473-0.707,0.922-1.43,1.377-2.149c0.476-0.752,0.949-1.505,1.424-2.258
		c0.186-0.296,0.398-0.563,0.622-0.834c0.566-0.687,1.177-1.337,1.82-1.953c2.597-2.485,5.689-4.394,8.866-6.042
		c1.098-0.569,2.229-1.071,3.473-1.192c1.053-0.102,2.223,0.131,2.719,1.175c0.144,0.303,0.207,0.626,0.26,0.956
		c0.061,0.385,0.103,0.774,0.123,1.165c0.037,0.749-0.002,1.501-0.118,2.243c-0.23,1.452-0.755,2.845-1.472,4.125
		c-1.492,2.662-3.745,4.844-6.158,6.673c-1.181,0.895-2.42,1.713-3.697,2.465c-1.772,1.044-3.558,2.065-5.347,3.079
		c-1.822,1.031-3.653,2.047-5.497,3.037c-1.753,0.943-3.511,1.89-5.351,2.658c-1.782,0.744-3.644,1.33-5.562,1.59
		c-0.664,0.09-1.323,0.151-1.991,0.083c-0.591-0.059-1.22-0.18-1.734-0.492C47.265,47.799,47.038,47.583,46.947,47.295"/>
	
		<path id="STROKE_D19B1D96.2e..-5852.2e..-4535.2e..-A647.2e..-C614FCECF110" fill="none" stroke="#000000" stroke-width="1.6" stroke-linecap="round" stroke-linejoin="round" d="
		M91.782,31.381c2.168,0,1.227-6.84,0.871-8.041"/>
	
		<path id="STROKE_D19B1D96.2e..-5852.2e..-4535.2e..-A647.2e..-C614FCECF110_1_" fill="none" stroke="#000000" stroke-width="1.6" stroke-linecap="round" stroke-linejoin="round" d="
		M89.04,30.202c1.85,0,1.047-5.837,0.743-6.862"/>
</g>
</svg>
