<?xml version="1.0" encoding="UTF-8" standalone="no"?>
<!DOCTYPE svg PUBLIC "-//W3C//DTD SVG 1.1//EN" "http://www.w3.org/Graphics/SVG/1.1/DTD/svg11.dtd">
<svg width="100%" height="100%" viewBox="0 0 160 160" version="1.1" xmlns="http://www.w3.org/2000/svg" xmlns:xlink="http://www.w3.org/1999/xlink" xml:space="preserve" style="fill-rule:evenodd;clip-rule:evenodd;stroke-linecap:round;stroke-linejoin:round;">
    <g id="egg">
        
     <path d="M41.151,65.416 L41.151,63.037 C41.151,62.975 41.147,62.915 41.14,62.854 C41.132,62.794 41.128,62.73 41.128,62.661 C41.128,62.592 41.124,62.523 41.116,62.454 C41.108,62.385 41.104,62.32 41.104,62.258 C41.104,62.197 41.097,62.132 41.084,62.065 C41.07,61.998 41.06,61.929 41.052,61.861 C41.044,61.792 41.04,61.723 41.04,61.654 C41.04,61.585 41.04,61.519 41.04,61.458 C41.04,61.396 41.036,61.332 41.028,61.264 C41.02,61.197 41.017,61.129 41.017,61.06 C41.017,60.991 41.013,60.922 41.005,60.853 C40.997,60.784 40.989,60.719 40.981,60.658 C40.973,60.596 40.966,60.527 40.958,60.451 C40.95,60.375 40.946,60.298 40.946,60.222 C40.946,60.146 40.942,60.078 40.934,60.018 C40.926,59.958 40.923,59.897 40.923,59.835 L40.923,54.859 C40.923,54.79 40.926,54.721 40.934,54.652 C40.942,54.583 40.946,54.519 40.946,54.459 C40.946,54.398 40.95,54.338 40.958,54.276 C40.966,54.215 40.97,54.153 40.97,54.091 C40.97,54.03 40.97,53.969 40.97,53.909 C40.97,53.849 40.973,53.788 40.981,53.726 C40.989,53.665 40.993,53.6 40.993,53.531 C40.993,53.462 40.993,53.393 40.993,53.324 C40.993,53.255 40.997,53.187 41.005,53.119 C41.013,53.052 41.017,52.98 41.017,52.904 C41.017,52.828 41.02,52.747 41.028,52.662 C41.036,52.577 41.044,52.497 41.052,52.42 C41.06,52.344 41.067,52.268 41.075,52.192 C41.083,52.115 41.087,52.039 41.087,51.963 C41.087,51.886 41.094,51.81 41.107,51.734 C41.121,51.658 41.132,51.582 41.14,51.505 C41.147,51.429 41.159,51.353 41.175,51.277 C41.19,51.2 41.202,51.121 41.21,51.037 C41.218,50.953 41.23,50.874 41.245,50.797 C41.261,50.721 41.272,50.645 41.28,50.569 C41.288,50.492 41.296,50.42 41.304,50.351 C41.312,50.282 41.322,50.213 41.336,50.144 C41.35,50.075 41.36,50.007 41.368,49.94 C41.376,49.872 41.388,49.801 41.404,49.724 C41.419,49.648 41.435,49.572 41.45,49.496 C41.466,49.419 41.478,49.343 41.485,49.267 C41.493,49.19 41.505,49.11 41.521,49.025 C41.536,48.94 41.552,48.852 41.568,48.761 C41.583,48.67 41.598,48.586 41.612,48.51 C41.625,48.434 41.64,48.358 41.656,48.282 C41.671,48.206 41.687,48.126 41.703,48.042 C41.718,47.958 41.738,47.878 41.761,47.802 C41.785,47.726 41.804,47.642 41.82,47.549 C41.835,47.457 41.854,47.373 41.876,47.297 C41.897,47.22 41.92,47.144 41.943,47.068 C41.966,46.991 41.99,46.919 42.013,46.85 C42.037,46.781 42.059,46.713 42.081,46.646 C42.102,46.578 42.125,46.514 42.148,46.452 C42.172,46.39 42.195,46.329 42.218,46.267 C42.242,46.206 42.268,46.141 42.298,46.072 C42.327,46.003 42.353,45.93 42.377,45.854 C42.4,45.778 42.424,45.701 42.447,45.625 C42.471,45.549 42.494,45.469 42.518,45.386 C42.541,45.302 42.564,45.215 42.585,45.124 C42.607,45.033 42.625,44.934 42.641,44.827 C42.656,44.72 42.672,44.625 42.688,44.541 C42.703,44.458 42.723,44.374 42.746,44.291 C42.77,44.207 42.792,44.123 42.814,44.038 C42.835,43.953 42.854,43.868 42.87,43.785 C42.885,43.701 42.904,43.618 42.928,43.534 C42.951,43.45 42.971,43.371 42.987,43.295 C43.002,43.218 43.022,43.134 43.045,43.042 C43.069,42.949 43.087,42.865 43.101,42.789 C43.115,42.712 43.133,42.632 43.157,42.549 C43.18,42.465 43.204,42.385 43.227,42.309 C43.251,42.233 43.274,42.153 43.297,42.069 C43.321,41.986 43.343,41.91 43.365,41.841 C43.386,41.772 43.413,41.711 43.444,41.658 C43.475,41.606 43.503,41.552 43.526,41.498 C43.55,41.444 43.58,41.378 43.617,41.302 C43.654,41.226 43.688,41.15 43.72,41.073 C43.751,40.997 43.781,40.929 43.811,40.869 C43.84,40.809 43.866,40.752 43.89,40.697 C43.913,40.643 43.937,40.586 43.96,40.526 C43.984,40.466 44.007,40.405 44.03,40.343 C44.054,40.282 44.072,40.22 44.086,40.159 C44.1,40.097 44.119,40.036 44.142,39.976 C44.165,39.916 44.189,39.851 44.212,39.783 C44.236,39.714 44.259,39.645 44.283,39.576 C44.306,39.507 44.325,39.443 44.338,39.382 C44.352,39.322 44.374,39.265 44.406,39.211 C44.437,39.157 44.475,39.095 44.52,39.026 C44.565,38.957 44.611,38.893 44.658,38.833 C44.705,38.772 44.751,38.712 44.796,38.65 C44.841,38.589 44.887,38.523 44.933,38.454 C44.98,38.386 45.019,38.325 45.048,38.272 C45.077,38.219 45.107,38.166 45.139,38.111 C45.17,38.057 45.201,38.004 45.233,37.951 C45.264,37.898 45.294,37.845 45.324,37.793 C45.353,37.74 45.383,37.686 45.415,37.632 C45.446,37.578 45.48,37.528 45.517,37.482 C45.554,37.437 45.592,37.392 45.631,37.346 C45.67,37.301 45.712,37.247 45.757,37.185 C45.802,37.124 45.848,37.067 45.895,37.014 C45.942,36.961 45.988,36.908 46.033,36.854 C46.078,36.799 46.124,36.742 46.171,36.682 C46.218,36.622 46.264,36.561 46.309,36.499 C46.354,36.438 46.399,36.376 46.446,36.315 C46.493,36.253 46.536,36.189 46.573,36.121 C46.61,36.054 46.652,35.989 46.699,35.928 C46.746,35.866 46.787,35.801 46.825,35.732 C46.862,35.663 46.9,35.599 46.939,35.539 C46.978,35.479 47.016,35.418 47.053,35.356 C47.09,35.294 47.132,35.233 47.179,35.171 C47.226,35.11 47.272,35.045 47.317,34.978 C47.362,34.91 47.404,34.846 47.443,34.784 C47.482,34.723 47.52,34.661 47.558,34.6 C47.595,34.538 47.633,34.473 47.672,34.404 C47.711,34.335 47.749,34.274 47.786,34.221 C47.823,34.169 47.862,34.111 47.901,34.05 C47.94,33.988 47.986,33.931 48.039,33.878 C48.091,33.825 48.141,33.765 48.188,33.696 C48.235,33.627 48.285,33.566 48.338,33.513 C48.39,33.46 48.439,33.407 48.484,33.353 C48.529,33.298 48.575,33.245 48.622,33.192 C48.669,33.139 48.715,33.087 48.76,33.034 C48.805,32.981 48.859,32.924 48.921,32.862 C48.984,32.801 49.037,32.747 49.082,32.702 C49.127,32.656 49.169,32.611 49.208,32.566 C49.247,32.52 49.286,32.474 49.323,32.427 C49.36,32.38 49.398,32.334 49.437,32.288 C49.476,32.243 49.518,32.186 49.563,32.117 C49.608,32.048 49.654,31.979 49.701,31.91 C49.748,31.841 49.79,31.784 49.827,31.739 C49.864,31.693 49.902,31.648 49.941,31.602 C49.98,31.557 50.019,31.508 50.056,31.455 C50.093,31.402 50.135,31.352 50.182,31.305 C50.229,31.258 50.271,31.209 50.308,31.156 C50.345,31.103 50.383,31.054 50.422,31.009 C50.461,30.963 50.5,30.918 50.537,30.872 C50.574,30.827 50.612,30.777 50.651,30.723 C50.69,30.668 50.732,30.619 50.777,30.573 C50.822,30.528 50.864,30.482 50.903,30.437 C50.942,30.391 50.988,30.346 51.041,30.301 C51.094,30.255 51.143,30.205 51.19,30.151 C51.237,30.097 51.283,30.043 51.328,29.991 C51.373,29.938 51.422,29.881 51.475,29.819 C51.528,29.757 51.574,29.696 51.613,29.634 C51.652,29.573 51.694,29.516 51.739,29.463 C51.784,29.41 51.826,29.357 51.865,29.304 C51.904,29.252 51.954,29.194 52.014,29.133 C52.075,29.071 52.132,29.014 52.184,28.961 C52.237,28.909 52.295,28.855 52.357,28.801 C52.42,28.747 52.478,28.693 52.53,28.64 C52.583,28.588 52.636,28.534 52.689,28.48 C52.741,28.426 52.787,28.376 52.827,28.33 C52.866,28.285 52.912,28.239 52.964,28.194 C53.017,28.148 53.071,28.107 53.125,28.069 C53.18,28.03 53.242,27.989 53.31,27.943 C53.379,27.898 53.439,27.86 53.492,27.829 C53.545,27.798 53.595,27.764 53.641,27.725 C53.688,27.687 53.738,27.653 53.791,27.622 C53.844,27.591 53.908,27.549 53.985,27.497 C54.061,27.444 54.125,27.399 54.178,27.361 C54.231,27.322 54.285,27.284 54.34,27.246 C54.394,27.208 54.448,27.166 54.501,27.119 C54.553,27.072 54.61,27.029 54.671,26.991 C54.731,26.953 54.789,26.911 54.844,26.866 C54.898,26.82 54.956,26.778 55.017,26.74 C55.077,26.702 55.138,26.66 55.198,26.615 C55.259,26.57 55.323,26.528 55.392,26.49 C55.46,26.452 55.526,26.417 55.589,26.386 C55.651,26.355 55.72,26.317 55.797,26.272 C55.873,26.227 55.945,26.181 56.014,26.136 C56.082,26.09 56.143,26.048 56.195,26.01 C56.248,25.972 56.302,25.938 56.356,25.907 C56.411,25.876 56.477,25.834 56.553,25.782 C56.629,25.729 56.694,25.691 56.747,25.667 C56.799,25.644 56.852,25.62 56.905,25.597 C56.958,25.573 57.015,25.554 57.078,25.54 C57.14,25.525 57.206,25.506 57.274,25.483 C57.343,25.459 57.415,25.433 57.491,25.403 C57.568,25.374 57.64,25.344 57.708,25.313 C57.777,25.282 57.845,25.248 57.913,25.21 C57.982,25.172 58.047,25.13 58.11,25.084 C58.172,25.039 58.234,24.993 58.295,24.946 C58.355,24.899 58.416,24.849 58.476,24.797 C58.537,24.744 58.597,24.695 58.658,24.649 C58.719,24.604 58.78,24.554 58.843,24.5 C58.905,24.445 58.967,24.399 59.028,24.361 C59.088,24.323 59.149,24.285 59.209,24.247 C59.27,24.209 59.334,24.179 59.403,24.157 C59.471,24.135 59.54,24.112 59.608,24.088 C59.677,24.065 59.746,24.041 59.816,24.018 C59.887,23.994 59.956,23.972 60.025,23.95 C60.093,23.928 60.165,23.898 60.242,23.86 C60.318,23.822 60.382,23.791 60.435,23.767 C60.488,23.744 60.542,23.709 60.596,23.664 C60.651,23.619 60.709,23.577 60.769,23.539 C60.83,23.501 60.887,23.47 60.939,23.446 C60.992,23.423 61.053,23.4 61.121,23.378 C61.19,23.356 61.262,23.341 61.338,23.334 C61.414,23.327 61.494,23.319 61.578,23.31 C61.662,23.301 61.736,23.297 61.798,23.297 C61.861,23.297 61.922,23.293 61.983,23.286 C62.044,23.278 62.108,23.268 62.177,23.253 C62.245,23.238 62.31,23.223 62.37,23.206 C62.431,23.19 62.495,23.171 62.564,23.149 C62.632,23.127 62.705,23.105 62.783,23.081 C62.862,23.058 62.935,23.031 63.003,23 C63.072,22.969 63.148,22.939 63.232,22.91 C63.316,22.88 63.396,22.85 63.473,22.819 C63.549,22.789 63.621,22.758 63.69,22.727 C63.758,22.696 63.83,22.666 63.907,22.635 C63.983,22.604 64.059,22.57 64.135,22.532 C64.211,22.494 64.292,22.463 64.376,22.439 C64.46,22.416 64.54,22.397 64.616,22.382 C64.692,22.367 64.772,22.353 64.856,22.338 C64.94,22.323 65.028,22.308 65.12,22.292 C65.212,22.276 65.304,22.26 65.396,22.246 C65.488,22.231 65.576,22.216 65.66,22.199 C65.744,22.183 65.828,22.168 65.912,22.153 C65.996,22.139 66.072,22.124 66.141,22.109 C66.209,22.095 66.281,22.079 66.358,22.063 C66.434,22.047 66.51,22.032 66.586,22.017 C66.663,22.002 66.739,21.987 66.815,21.971 C66.891,21.955 66.967,21.939 67.044,21.925 C67.12,21.91 67.196,21.899 67.272,21.891 C67.349,21.884 67.429,21.88 67.513,21.88 L68.457,21.88 C68.541,21.88 68.617,21.884 68.686,21.891 C68.754,21.899 68.826,21.906 68.903,21.914 C68.979,21.921 69.055,21.933 69.131,21.949 C69.208,21.965 69.288,21.98 69.372,21.995 C69.456,22.01 69.536,22.024 69.612,22.039 C69.688,22.054 69.765,22.069 69.841,22.085 C69.917,22.101 69.989,22.113 70.058,22.12 C70.126,22.128 70.199,22.139 70.275,22.153 C70.351,22.168 70.423,22.18 70.492,22.188 C70.56,22.197 70.64,22.205 70.732,22.213 C70.824,22.22 70.912,22.227 70.996,22.235 C71.08,22.242 71.164,22.253 71.248,22.267 C71.332,22.282 71.416,22.294 71.5,22.303 C71.584,22.312 71.668,22.32 71.752,22.327 C71.836,22.334 71.924,22.342 72.016,22.349 C72.108,22.356 72.2,22.36 72.292,22.36 C72.384,22.36 72.476,22.36 72.568,22.36 C72.659,22.36 72.747,22.364 72.831,22.371 C72.915,22.378 72.999,22.39 73.084,22.406 C73.168,22.422 73.252,22.438 73.336,22.452 C73.42,22.467 73.508,22.486 73.6,22.509 C73.691,22.533 73.787,22.564 73.887,22.602 C73.987,22.64 74.089,22.678 74.195,22.716 C74.3,22.754 74.384,22.777 74.447,22.785 C74.51,22.792 74.567,22.807 74.62,22.83 C74.673,22.854 74.745,22.88 74.837,22.91 C74.929,22.939 75.021,22.965 75.113,22.989 C75.204,23.012 75.289,23.031 75.365,23.046 C75.441,23.061 75.513,23.076 75.582,23.092 C75.65,23.108 75.714,23.127 75.775,23.149 C75.836,23.171 75.896,23.194 75.957,23.218 C76.017,23.241 76.079,23.265 76.142,23.288 C76.204,23.312 76.266,23.338 76.326,23.367 C76.387,23.396 76.447,23.423 76.508,23.446 C76.569,23.47 76.633,23.497 76.702,23.528 C76.77,23.558 76.836,23.589 76.898,23.62 C76.961,23.651 77.03,23.681 77.106,23.71 C77.183,23.74 77.259,23.778 77.335,23.824 C77.411,23.871 77.487,23.914 77.563,23.952 C77.64,23.99 77.724,24.036 77.816,24.088 C77.908,24.141 78,24.187 78.092,24.225 C78.183,24.263 78.267,24.297 78.343,24.328 C78.42,24.359 78.488,24.385 78.549,24.407 C78.609,24.429 78.67,24.448 78.731,24.464 C78.791,24.481 78.849,24.496 78.904,24.511 C78.958,24.525 79.016,24.544 79.077,24.568 C79.137,24.591 79.198,24.618 79.258,24.649 C79.319,24.68 79.387,24.714 79.464,24.752 C79.54,24.791 79.62,24.836 79.704,24.889 C79.788,24.942 79.88,24.995 79.98,25.049 C80.079,25.104 80.179,25.157 80.279,25.21 C80.378,25.263 80.455,25.304 80.507,25.335 C80.56,25.366 80.614,25.397 80.669,25.428 C80.723,25.458 80.777,25.485 80.83,25.507 C80.883,25.529 80.936,25.551 80.988,25.575 C81.041,25.598 81.113,25.629 81.205,25.667 C81.297,25.705 81.389,25.74 81.481,25.771 C81.573,25.801 81.661,25.831 81.745,25.861 C81.829,25.89 81.913,25.924 81.997,25.962 C82.081,26 82.161,26.038 82.237,26.076 C82.314,26.114 82.398,26.161 82.489,26.215 C82.581,26.269 82.677,26.331 82.777,26.399 C82.877,26.468 82.953,26.522 83.006,26.56 C83.058,26.598 83.115,26.64 83.176,26.685 C83.236,26.731 83.298,26.773 83.36,26.811 C83.423,26.849 83.481,26.887 83.533,26.925 C83.586,26.963 83.643,27.005 83.703,27.051 C83.764,27.096 83.822,27.138 83.876,27.176 C83.931,27.214 83.989,27.252 84.049,27.29 C84.11,27.328 84.167,27.366 84.219,27.404 C84.272,27.443 84.329,27.477 84.389,27.508 C84.45,27.539 84.508,27.573 84.562,27.611 C84.617,27.649 84.675,27.687 84.735,27.725 C84.796,27.764 84.853,27.802 84.905,27.84 C84.958,27.878 85.016,27.92 85.078,27.965 C85.141,28.011 85.202,28.052 85.263,28.09 C85.324,28.129 85.388,28.167 85.457,28.205 C85.525,28.243 85.589,28.281 85.65,28.319 C85.711,28.357 85.772,28.396 85.835,28.434 C85.897,28.472 85.959,28.51 86.019,28.548 C86.08,28.586 86.141,28.624 86.201,28.662 C86.262,28.7 86.32,28.735 86.374,28.766 C86.429,28.796 86.487,28.827 86.547,28.858 C86.608,28.889 86.664,28.92 86.717,28.95 C86.77,28.981 86.827,29.011 86.887,29.04 C86.948,29.07 87.01,29.103 87.072,29.142 C87.135,29.18 87.196,29.218 87.257,29.256 C87.317,29.294 87.378,29.332 87.439,29.371 C87.499,29.409 87.564,29.451 87.632,29.498 C87.7,29.545 87.769,29.591 87.837,29.637 C87.906,29.682 87.975,29.727 88.045,29.773 C88.116,29.818 88.189,29.868 88.266,29.922 C88.342,29.977 88.414,30.026 88.482,30.072 C88.551,30.117 88.623,30.167 88.699,30.219 C88.776,30.272 88.848,30.321 88.916,30.367 C88.985,30.412 89.057,30.462 89.133,30.516 C89.21,30.57 89.286,30.62 89.362,30.665 C89.438,30.711 89.51,30.76 89.579,30.813 C89.647,30.866 89.717,30.916 89.787,30.962 C89.857,31.009 89.927,31.059 89.995,31.112 C90.064,31.165 90.132,31.214 90.201,31.259 C90.269,31.305 90.341,31.35 90.418,31.396 C90.494,31.441 90.566,31.491 90.635,31.545 C90.703,31.599 90.771,31.653 90.84,31.706 C90.908,31.758 90.977,31.812 91.048,31.866 C91.118,31.921 91.184,31.97 91.244,32.016 C91.305,32.061 91.369,32.11 91.438,32.163 C91.506,32.216 91.571,32.266 91.631,32.313 C91.692,32.36 91.753,32.409 91.816,32.462 C91.879,32.515 91.94,32.564 92.001,32.609 C92.061,32.655 92.118,32.7 92.171,32.746 C92.223,32.791 92.28,32.841 92.341,32.895 C92.401,32.95 92.463,32.999 92.526,33.045 C92.588,33.09 92.65,33.139 92.71,33.192 C92.771,33.245 92.835,33.302 92.904,33.364 C92.972,33.425 93.041,33.483 93.109,33.535 C93.177,33.588 93.242,33.645 93.303,33.707 C93.363,33.768 93.429,33.83 93.499,33.892 C93.569,33.953 93.639,34.014 93.707,34.074 C93.776,34.134 93.848,34.199 93.924,34.268 C94,34.336 94.073,34.402 94.141,34.463 C94.209,34.525 94.274,34.582 94.335,34.635 C94.395,34.688 94.464,34.752 94.54,34.828 C94.616,34.904 94.685,34.97 94.748,35.024 C94.811,35.078 94.88,35.139 94.956,35.207 C95.032,35.274 95.101,35.338 95.162,35.4 C95.222,35.462 95.283,35.519 95.343,35.572 C95.404,35.624 95.465,35.678 95.528,35.732 C95.591,35.786 95.652,35.84 95.713,35.893 C95.773,35.945 95.83,35.994 95.883,36.04 C95.936,36.085 95.988,36.132 96.041,36.178 C96.094,36.225 96.147,36.268 96.202,36.306 C96.257,36.344 96.307,36.386 96.352,36.431 C96.397,36.477 96.447,36.519 96.501,36.557 C96.556,36.595 96.614,36.637 96.674,36.682 C96.735,36.728 96.791,36.769 96.844,36.807 C96.897,36.845 96.951,36.887 97.006,36.933 C97.06,36.978 97.114,37.028 97.167,37.082 C97.22,37.136 97.276,37.186 97.337,37.232 C97.398,37.277 97.458,37.331 97.519,37.392 C97.579,37.454 97.641,37.511 97.703,37.564 C97.766,37.617 97.828,37.674 97.888,37.735 C97.949,37.797 98.009,37.858 98.07,37.918 C98.131,37.978 98.195,38.042 98.264,38.111 C98.332,38.18 98.397,38.249 98.46,38.318 C98.523,38.387 98.584,38.451 98.645,38.511 C98.705,38.572 98.77,38.64 98.838,38.716 C98.906,38.792 98.975,38.865 99.043,38.934 C99.112,39.003 99.173,39.068 99.228,39.129 C99.283,39.191 99.34,39.256 99.401,39.325 C99.462,39.394 99.522,39.459 99.583,39.519 C99.643,39.579 99.704,39.64 99.764,39.701 C99.825,39.763 99.887,39.824 99.949,39.886 C100.012,39.947 100.069,40.005 100.122,40.057 C100.175,40.11 100.228,40.163 100.281,40.216 C100.334,40.269 100.387,40.318 100.442,40.365 C100.497,40.412 100.55,40.458 100.603,40.504 C100.656,40.549 100.706,40.595 100.753,40.64 C100.8,40.686 100.846,40.727 100.89,40.765 C100.935,40.804 100.98,40.842 101.025,40.88 C101.07,40.918 101.116,40.956 101.163,40.994 C101.21,41.032 101.256,41.074 101.301,41.12 C101.346,41.165 101.392,41.207 101.439,41.245 C101.486,41.283 101.532,41.325 101.576,41.37 C101.622,41.416 101.671,41.462 101.726,41.509 C101.781,41.556 101.831,41.606 101.876,41.658 C101.921,41.711 101.969,41.765 102.022,41.819 C102.075,41.873 102.129,41.927 102.184,41.98 C102.238,42.032 102.292,42.085 102.345,42.138 C102.397,42.191 102.45,42.248 102.503,42.309 C102.556,42.371 102.61,42.432 102.664,42.494 C102.719,42.556 102.773,42.616 102.826,42.677 C102.879,42.737 102.931,42.801 102.984,42.87 C103.037,42.939 103.09,43 103.145,43.053 C103.2,43.105 103.25,43.162 103.295,43.224 C103.34,43.286 103.386,43.343 103.433,43.395 C103.479,43.448 103.525,43.502 103.57,43.556 C103.615,43.61 103.661,43.664 103.708,43.716 C103.755,43.769 103.801,43.818 103.846,43.864 C103.891,43.909 103.951,43.975 104.028,44.06 C104.104,44.145 104.176,44.229 104.245,44.313 C104.313,44.396 104.367,44.464 104.406,44.517 C104.445,44.57 104.483,44.62 104.52,44.667 C104.557,44.714 104.595,44.763 104.635,44.816 C104.674,44.869 104.716,44.922 104.761,44.974 C104.806,45.027 104.852,45.084 104.899,45.146 C104.945,45.207 104.991,45.269 105.036,45.331 C105.081,45.392 105.127,45.457 105.174,45.524 C105.221,45.592 105.267,45.66 105.312,45.729 C105.357,45.797 105.406,45.866 105.459,45.935 C105.511,46.004 105.561,46.073 105.608,46.142 C105.655,46.211 105.701,46.28 105.746,46.349 C105.791,46.418 105.837,46.487 105.884,46.556 C105.931,46.624 105.977,46.693 106.021,46.76 C106.066,46.827 106.112,46.892 106.159,46.954 C106.206,47.015 106.248,47.077 106.286,47.138 C106.323,47.2 106.361,47.261 106.4,47.321 C106.439,47.381 106.481,47.442 106.526,47.503 C106.571,47.565 106.613,47.626 106.652,47.686 C106.691,47.746 106.725,47.803 106.754,47.857 C106.784,47.912 106.818,47.965 106.857,48.018 C106.896,48.071 106.931,48.124 106.963,48.178 C106.994,48.233 107.024,48.286 107.053,48.339 C107.083,48.392 107.128,48.463 107.189,48.554 C107.249,48.645 107.311,48.741 107.373,48.84 C107.436,48.94 107.482,49.017 107.511,49.071 C107.54,49.125 107.574,49.175 107.614,49.221 C107.653,49.266 107.691,49.315 107.728,49.368 C107.765,49.421 107.799,49.474 107.831,49.528 C107.862,49.583 107.897,49.636 107.936,49.689 C107.975,49.742 108.009,49.795 108.039,49.847 C108.068,49.9 108.102,49.954 108.141,50.008 C108.181,50.062 108.215,50.119 108.244,50.179 C108.273,50.24 108.307,50.297 108.347,50.351 C108.386,50.405 108.424,50.459 108.461,50.512 C108.498,50.564 108.532,50.618 108.564,50.672 C108.595,50.726 108.626,50.78 108.657,50.833 C108.689,50.885 108.719,50.938 108.748,50.991 C108.777,51.044 108.816,51.113 108.863,51.198 C108.91,51.283 108.952,51.36 108.989,51.428 C109.026,51.497 109.06,51.558 109.091,51.611 C109.123,51.664 109.15,51.716 109.173,51.769 C109.197,51.822 109.223,51.876 109.252,51.93 C109.282,51.984 109.312,52.041 109.343,52.101 C109.375,52.161 109.406,52.226 109.437,52.295 C109.468,52.364 109.503,52.436 109.54,52.513 C109.577,52.589 109.611,52.658 109.643,52.719 C109.674,52.781 109.704,52.846 109.734,52.915 C109.763,52.984 109.773,53.052 109.766,53.119 C109.758,53.187 109.693,53.229 109.572,53.247 C108.573,52.218 108.66,52.241 108.713,52.286 C108.766,52.332 108.808,52.384 108.839,52.444 C108.87,52.505 108.906,52.565 108.945,52.627 C108.984,52.688 109.026,52.754 109.071,52.823 C109.116,52.891 109.158,52.96 109.197,53.029 C109.236,53.098 109.27,53.163 109.299,53.223 C109.329,53.283 109.347,53.344 109.355,53.405 C109.363,53.467 109.375,53.529 109.39,53.59 C109.406,53.652 109.418,53.712 109.426,53.773 C109.433,53.833 109.437,53.894 109.437,53.955 C109.437,54.017 109.403,54.051 109.335,54.058 C109.266,54.066 109.197,54.047 109.126,54.001 C109.056,53.956 108.995,53.91 108.942,53.865 C108.889,53.819 108.836,53.766 108.783,53.705 C108.731,53.643 108.666,53.574 108.59,53.498 C108.514,53.422 108.452,53.364 108.405,53.326 C108.358,53.288 108.312,53.242 108.268,53.188 C108.223,53.133 108.173,53.076 108.118,53.016 C108.063,52.956 108.005,52.899 107.945,52.845 C107.884,52.79 107.82,52.729 107.752,52.662 C107.683,52.595 107.623,52.53 107.57,52.469 C107.517,52.407 107.459,52.345 107.397,52.284 C107.334,52.222 107.272,52.161 107.212,52.101 C107.151,52.041 107.091,51.98 107.03,51.919 C106.969,51.857 106.913,51.796 106.86,51.736 C106.807,51.676 106.753,51.619 106.699,51.565 C106.644,51.511 106.59,51.457 106.537,51.404 C106.485,51.351 106.431,51.302 106.376,51.257 C106.322,51.211 106.272,51.165 106.227,51.118 C106.182,51.071 106.113,51.013 106.021,50.945 C105.93,50.876 105.857,50.827 105.804,50.797 C105.752,50.768 105.702,50.734 105.655,50.696 C105.608,50.658 105.536,50.605 105.438,50.536 C105.34,50.467 105.268,50.413 105.221,50.375 C105.174,50.337 105.12,50.299 105.06,50.261 C104.999,50.223 104.939,50.181 104.878,50.136 C104.817,50.09 104.756,50.04 104.693,49.986 C104.631,49.932 104.565,49.878 104.497,49.825 C104.428,49.772 104.364,49.719 104.303,49.665 C104.243,49.611 104.178,49.557 104.11,49.504 C104.042,49.451 103.969,49.394 103.893,49.333 C103.817,49.271 103.747,49.21 103.685,49.15 C103.622,49.09 103.557,49.033 103.488,48.979 C103.42,48.924 103.351,48.867 103.283,48.807 C103.215,48.747 103.15,48.69 103.089,48.636 C103.029,48.582 102.967,48.528 102.905,48.475 C102.842,48.423 102.781,48.369 102.72,48.315 C102.659,48.26 102.599,48.211 102.538,48.165 C102.478,48.12 102.421,48.071 102.368,48.018 C102.315,47.965 102.258,47.916 102.195,47.871 C102.133,47.825 102.079,47.783 102.034,47.745 C101.989,47.707 101.94,47.665 101.887,47.618 C101.835,47.571 101.785,47.528 101.738,47.49 C101.691,47.452 101.645,47.414 101.6,47.376 C101.555,47.338 101.509,47.299 101.462,47.261 C101.415,47.223 101.369,47.185 101.325,47.147 C101.28,47.109 101.215,47.052 101.131,46.975 C101.047,46.899 100.963,46.827 100.879,46.76 C100.795,46.693 100.711,46.628 100.627,46.567 C100.543,46.505 100.459,46.447 100.374,46.393 C100.29,46.339 100.21,46.292 100.134,46.254 C100.058,46.216 99.986,46.178 99.917,46.14 C99.849,46.102 99.776,46.064 99.7,46.025 C99.624,45.987 99.551,45.949 99.48,45.911 C99.41,45.873 99.34,45.839 99.272,45.81 C99.204,45.781 99.139,45.754 99.078,45.731 C99.018,45.707 98.961,45.68 98.908,45.649 C98.856,45.619 98.802,45.596 98.747,45.581 C98.692,45.567 98.631,45.551 98.563,45.535 C98.494,45.519 98.422,45.504 98.345,45.489 C98.269,45.474 98.193,45.467 98.117,45.467 C98.041,45.467 97.968,45.474 97.9,45.489 C97.832,45.504 97.77,45.534 97.715,45.581 C97.661,45.628 97.607,45.682 97.554,45.742 C97.501,45.802 97.452,45.866 97.407,45.935 C97.362,46.004 97.328,46.065 97.305,46.118 C97.281,46.171 97.246,46.236 97.199,46.314 C97.152,46.391 97.118,46.46 97.096,46.52 C97.075,46.58 97.053,46.645 97.029,46.714 C97.006,46.783 96.986,46.859 96.97,46.943 C96.955,47.026 96.939,47.114 96.924,47.206 C96.908,47.299 96.893,47.394 96.879,47.492 C96.866,47.59 96.855,47.697 96.847,47.811 C96.839,47.925 96.832,48.04 96.824,48.154 C96.816,48.269 96.804,48.383 96.789,48.497 C96.773,48.612 96.765,48.7 96.765,48.761 C96.765,48.823 96.761,48.884 96.753,48.946 C96.746,49.007 96.738,49.095 96.73,49.21 C96.722,49.324 96.711,49.434 96.695,49.539 C96.679,49.645 96.664,49.759 96.648,49.883 C96.632,50.006 96.618,50.113 96.604,50.204 C96.59,50.294 96.579,50.374 96.572,50.443 C96.564,50.512 96.56,50.604 96.56,50.718 L96.56,52.262 C96.56,52.324 96.552,52.396 96.537,52.479 C96.521,52.563 96.509,52.647 96.501,52.73 C96.494,52.814 96.482,52.902 96.466,52.994 C96.45,53.086 96.439,53.171 96.431,53.247 C96.423,53.323 96.415,53.415 96.407,53.522 C96.4,53.629 96.396,53.74 96.396,53.854 C96.396,53.968 96.396,54.078 96.396,54.184 C96.396,54.289 96.392,54.396 96.384,54.502 C96.376,54.61 96.369,54.713 96.363,54.813 C96.358,54.912 96.347,55.004 96.331,55.088 C96.316,55.171 96.304,55.251 96.296,55.327 C96.288,55.403 96.28,55.476 96.273,55.545 C96.265,55.614 96.253,55.69 96.237,55.774 C96.222,55.857 96.21,55.941 96.202,56.024 C96.194,56.108 96.183,56.192 96.167,56.277 C96.152,56.362 96.137,56.443 96.123,56.519 C96.109,56.595 96.091,56.664 96.067,56.724 C96.044,56.784 96.013,56.837 95.974,56.882 C95.934,56.927 95.889,56.965 95.836,56.996 C95.783,57.027 95.726,57.046 95.666,57.053 C95.605,57.061 95.537,57.064 95.46,57.064 C95.384,57.064 95.311,57.061 95.241,57.053 C95.17,57.046 95.109,57.027 95.056,56.996 C95.003,56.965 94.95,56.935 94.897,56.906 C94.845,56.877 94.788,56.835 94.727,56.781 C94.667,56.727 94.605,56.677 94.543,56.631 C94.48,56.586 94.415,56.532 94.346,56.471 C94.278,56.409 94.209,56.348 94.141,56.288 C94.073,56.228 94,56.167 93.924,56.106 C93.848,56.044 93.768,55.975 93.684,55.899 C93.6,55.823 93.534,55.762 93.487,55.717 C93.44,55.671 93.394,55.629 93.35,55.591 C93.305,55.553 93.256,55.511 93.203,55.466 C93.15,55.42 93.096,55.371 93.042,55.316 C92.987,55.262 92.933,55.212 92.88,55.167 C92.827,55.121 92.778,55.076 92.731,55.03 C92.684,54.985 92.634,54.939 92.581,54.894 C92.529,54.849 92.48,54.802 92.435,54.755 C92.39,54.708 92.344,54.666 92.297,54.628 C92.25,54.59 92.204,54.548 92.159,54.502 C92.114,54.457 92.068,54.415 92.021,54.377 C91.974,54.339 91.928,54.301 91.884,54.263 C91.839,54.225 91.793,54.183 91.746,54.138 C91.699,54.092 91.63,54.035 91.54,53.966 C91.451,53.897 91.382,53.844 91.335,53.805 C91.288,53.767 91.242,53.729 91.197,53.691 C91.152,53.653 91.106,53.615 91.06,53.577 C91.013,53.539 90.967,53.501 90.922,53.463 C90.877,53.424 90.831,53.386 90.784,53.348 C90.737,53.31 90.691,53.272 90.646,53.234 C90.601,53.196 90.555,53.158 90.508,53.119 C90.461,53.081 90.393,53.032 90.303,52.97 C90.213,52.908 90.126,52.847 90.042,52.787 C89.958,52.727 89.87,52.67 89.778,52.616 C89.686,52.562 89.595,52.508 89.503,52.455 C89.411,52.402 89.315,52.353 89.215,52.308 C89.116,52.263 89.04,52.224 88.987,52.194 C88.934,52.163 88.858,52.121 88.758,52.068 C88.658,52.016 88.581,51.978 88.526,51.954 C88.472,51.931 88.422,51.9 88.377,51.862 C88.332,51.824 88.263,51.785 88.172,51.747 C88.08,51.709 87.988,51.664 87.896,51.611 C87.804,51.558 87.724,51.513 87.656,51.475 C87.587,51.436 87.515,51.402 87.439,51.371 C87.362,51.341 87.29,51.313 87.221,51.29 C87.153,51.266 87.089,51.247 87.028,51.233 C86.967,51.218 86.902,51.199 86.832,51.175 C86.761,51.152 86.696,51.129 86.635,51.105 C86.575,51.082 86.51,51.063 86.442,51.048 C86.373,51.033 86.309,51.022 86.248,51.015 C86.188,51.008 86.123,51.004 86.055,51.004 L85.216,51.004 C85.155,51.004 85.095,51.008 85.034,51.015 C84.974,51.022 84.916,51.033 84.861,51.048 C84.807,51.063 84.726,51.09 84.621,51.129 C84.515,51.169 84.424,51.203 84.345,51.233 C84.267,51.262 84.202,51.288 84.149,51.312 C84.096,51.335 84.039,51.363 83.979,51.393 C83.918,51.424 83.854,51.45 83.785,51.472 C83.717,51.494 83.648,51.521 83.58,51.551 C83.512,51.582 83.438,51.613 83.36,51.644 C83.282,51.675 83.201,51.705 83.117,51.736 C83.033,51.767 82.949,51.793 82.865,51.815 C82.78,51.837 82.697,51.872 82.615,51.919 C82.533,51.966 82.453,52.016 82.375,52.068 C82.297,52.121 82.223,52.182 82.155,52.251 C82.087,52.32 82.014,52.392 81.938,52.469 C81.862,52.545 81.786,52.625 81.71,52.708 C81.633,52.792 81.577,52.86 81.54,52.913 C81.502,52.966 81.464,53.015 81.425,53.062 C81.386,53.109 81.347,53.155 81.308,53.201 C81.269,53.246 81.231,53.292 81.193,53.337 C81.156,53.383 81.099,53.443 81.023,53.52 C80.947,53.596 80.875,53.672 80.807,53.748 C80.738,53.825 80.67,53.897 80.601,53.966 C80.533,54.035 80.459,54.1 80.381,54.162 C80.303,54.223 80.226,54.284 80.15,54.344 C80.073,54.404 79.997,54.473 79.921,54.549 C79.845,54.625 79.769,54.705 79.692,54.789 C79.616,54.872 79.559,54.941 79.522,54.995 C79.485,55.049 79.451,55.103 79.42,55.156 C79.388,55.208 79.354,55.262 79.317,55.316 C79.28,55.371 79.246,55.428 79.214,55.488 C79.183,55.548 79.152,55.605 79.12,55.659 C79.089,55.714 79.063,55.767 79.041,55.82 C79.02,55.873 78.982,55.945 78.927,56.038 C78.872,56.13 78.822,56.222 78.778,56.312 C78.733,56.403 78.687,56.483 78.64,56.552 C78.593,56.621 78.551,56.69 78.514,56.759 C78.476,56.828 78.438,56.892 78.399,56.952 C78.36,57.013 78.318,57.07 78.273,57.124 C78.228,57.178 78.186,57.228 78.147,57.273 C78.108,57.319 78.066,57.368 78.021,57.421 C77.976,57.473 77.934,57.531 77.895,57.592 C77.856,57.654 77.822,57.711 77.792,57.764 C77.763,57.817 77.729,57.87 77.69,57.924 C77.651,57.978 77.613,58.036 77.575,58.096 C77.538,58.156 77.496,58.205 77.449,58.243 C77.402,58.281 77.349,58.305 77.288,58.313 C77.227,58.322 77.163,58.318 77.095,58.302 C77.026,58.286 76.968,58.255 76.921,58.21 C76.875,58.165 76.821,58.119 76.76,58.074 C76.7,58.028 76.639,57.986 76.579,57.948 C76.518,57.91 76.46,57.876 76.405,57.845 C76.351,57.814 76.293,57.78 76.233,57.742 C76.172,57.704 76.115,57.657 76.063,57.603 C76.01,57.549 75.949,57.492 75.881,57.432 C75.812,57.372 75.747,57.307 75.684,57.238 C75.622,57.169 75.552,57.097 75.476,57.02 C75.4,56.944 75.324,56.868 75.247,56.792 C75.171,56.715 75.099,56.647 75.03,56.585 C74.962,56.524 74.89,56.463 74.814,56.403 C74.737,56.342 74.661,56.29 74.585,56.244 C74.509,56.199 74.436,56.153 74.368,56.106 C74.299,56.059 74.231,56.009 74.162,55.956 C74.094,55.903 74.025,55.85 73.954,55.796 C73.884,55.741 73.814,55.684 73.746,55.624 C73.678,55.564 73.605,55.492 73.529,55.409 C73.453,55.325 73.396,55.26 73.359,55.213 C73.322,55.166 73.284,55.12 73.245,55.074 C73.206,55.029 73.168,54.983 73.131,54.938 C73.093,54.893 73.051,54.847 73.004,54.802 C72.957,54.756 72.915,54.711 72.878,54.665 C72.841,54.62 72.799,54.574 72.752,54.527 C72.705,54.48 72.659,54.434 72.615,54.388 C72.569,54.343 72.527,54.297 72.488,54.252 C72.449,54.207 72.392,54.146 72.315,54.069 C72.239,53.993 72.163,53.917 72.087,53.841 C72.011,53.764 71.934,53.692 71.858,53.623 C71.782,53.554 71.713,53.485 71.653,53.416 C71.592,53.347 71.527,53.279 71.456,53.21 C71.386,53.141 71.317,53.068 71.248,52.992 C71.18,52.916 71.115,52.844 71.055,52.776 C70.994,52.709 70.933,52.637 70.873,52.561 C70.812,52.485 70.755,52.416 70.7,52.354 C70.645,52.293 70.587,52.236 70.527,52.183 C70.466,52.13 70.417,52.08 70.38,52.033 C70.343,51.986 70.297,51.936 70.242,51.884 C70.188,51.831 70.138,51.785 70.093,51.747 C70.048,51.709 70.021,51.659 70.014,51.598 C70.006,51.536 70.002,51.475 70.002,51.415 C70.002,51.355 69.986,51.298 69.955,51.244 C69.924,51.19 69.878,51.151 69.817,51.129 C69.757,51.107 69.696,51.085 69.636,51.061 C69.575,51.038 69.513,51.026 69.451,51.026 L68.604,51.026 C68.543,51.026 68.478,51.033 68.41,51.048 C68.342,51.063 68.276,51.074 68.213,51.083 C68.151,51.092 68.086,51.1 68.017,51.107 C67.949,51.115 67.876,51.126 67.8,51.14 C67.724,51.155 67.651,51.17 67.583,51.187 C67.515,51.203 67.442,51.218 67.366,51.233 C67.29,51.247 67.21,51.263 67.126,51.279 C67.042,51.295 66.962,51.31 66.885,51.325 C66.809,51.34 66.737,51.359 66.668,51.382 C66.6,51.406 66.527,51.428 66.451,51.451 C66.375,51.472 66.299,51.499 66.223,51.53 C66.147,51.56 66.073,51.587 66.003,51.611 C65.932,51.634 65.859,51.657 65.783,51.679 C65.707,51.701 65.634,51.72 65.566,51.736 C65.497,51.752 65.421,51.768 65.337,51.782 C65.253,51.797 65.173,51.812 65.097,51.827 C65.021,51.841 64.94,51.853 64.856,51.861 C64.772,51.87 64.684,51.875 64.593,51.875 L64.03,51.875 C63.946,51.875 63.865,51.87 63.789,51.861 C63.713,51.853 63.644,51.837 63.584,51.815 C63.523,51.793 63.459,51.774 63.39,51.758 C63.322,51.742 63.253,51.727 63.185,51.712 C63.117,51.697 63.052,51.69 62.991,51.69 C62.931,51.69 62.873,51.697 62.819,51.712 L62.736,51.734 C62.195,52.507 62.266,52.587 62.335,52.64 C62.403,52.693 62.453,52.688 62.485,52.627 C62.516,52.565 62.543,52.508 62.566,52.455 C62.59,52.402 62.609,52.345 62.625,52.284 C62.641,52.222 62.667,52.169 62.704,52.123 C62.741,52.078 62.772,52.082 62.795,52.137 C62.819,52.191 62.845,52.244 62.874,52.297 C62.904,52.35 62.93,52.41 62.953,52.479 C62.977,52.549 63,52.609 63.024,52.662 C63.047,52.715 63.067,52.772 63.083,52.834 C63.098,52.895 63.117,52.96 63.138,53.029 C63.16,53.098 63.194,53.19 63.241,53.304 C63.288,53.419 63.327,53.506 63.358,53.566 C63.389,53.626 63.428,53.706 63.473,53.805 C63.517,53.905 63.56,53.997 63.599,54.081 C63.638,54.164 63.676,54.24 63.713,54.309 C63.75,54.378 63.78,54.443 63.804,54.505 C63.827,54.566 63.854,54.631 63.883,54.698 C63.912,54.766 63.939,54.834 63.962,54.903 C63.986,54.972 64.009,55.052 64.032,55.145 C64.056,55.237 64.082,55.325 64.112,55.409 C64.141,55.492 64.167,55.572 64.191,55.648 C64.214,55.724 64.238,55.801 64.261,55.877 C64.285,55.953 64.308,56.033 64.332,56.117 C64.355,56.2 64.377,56.276 64.399,56.345 C64.421,56.414 64.443,56.483 64.466,56.552 C64.49,56.621 64.513,56.682 64.537,56.735 C64.56,56.787 64.587,56.841 64.616,56.895 C64.645,56.949 64.672,57.007 64.695,57.066 C64.719,57.127 64.742,57.184 64.765,57.238 C64.789,57.292 64.816,57.35 64.848,57.41 C64.879,57.47 64.905,57.527 64.927,57.581 C64.948,57.635 64.975,57.696 65.006,57.764 C65.037,57.831 65.068,57.896 65.097,57.957 C65.126,58.019 65.152,58.08 65.176,58.142 C65.199,58.203 65.219,58.264 65.235,58.324 C65.25,58.385 65.258,58.445 65.258,58.507 C65.258,58.568 65.258,58.637 65.258,58.714 C65.258,58.79 65.232,58.843 65.179,58.874 C65.126,58.905 65.072,58.928 65.018,58.942 C64.963,58.957 64.901,58.98 64.833,59.01 C64.764,59.041 64.692,59.064 64.616,59.079 C64.54,59.093 64.471,59.101 64.411,59.101 L64,59.101 C63.924,59.101 63.844,59.09 63.76,59.068 C63.676,59.046 63.588,59.031 63.496,59.024 C63.404,59.016 63.312,59.013 63.22,59.013 C63.129,59.013 63.052,59.016 62.991,59.024 C62.931,59.031 62.869,59.057 62.807,59.103 C62.745,59.148 62.683,59.202 62.622,59.263 C62.562,59.325 62.505,59.378 62.452,59.424 C62.399,59.469 62.346,59.519 62.291,59.571 C62.236,59.624 62.182,59.669 62.13,59.707 C62.077,59.746 62.024,59.784 61.971,59.822 C61.919,59.86 61.861,59.887 61.798,59.903 C61.736,59.92 61.674,59.928 61.614,59.928 C61.553,59.928 61.492,59.92 61.432,59.903 C61.371,59.887 61.307,59.879 61.238,59.879 C61.17,59.879 61.101,59.879 61.033,59.879 C60.965,59.879 60.907,59.86 60.86,59.822 C60.813,59.784 60.774,59.738 60.743,59.686 C60.712,59.633 60.685,59.576 60.664,59.514 C60.642,59.452 60.612,59.384 60.573,59.307 C60.534,59.231 60.5,59.158 60.47,59.09 C60.441,59.021 60.407,58.953 60.367,58.885 C60.328,58.818 60.289,58.746 60.25,58.67 C60.211,58.593 60.165,58.521 60.112,58.452 C60.06,58.383 60.018,58.322 59.987,58.267 C59.955,58.213 59.909,58.14 59.849,58.05 C59.788,57.959 59.743,57.886 59.714,57.832 C59.684,57.778 59.65,57.728 59.611,57.682 C59.572,57.637 59.534,57.588 59.497,57.535 C59.46,57.482 59.422,57.429 59.382,57.374 C59.343,57.32 59.304,57.267 59.265,57.214 C59.226,57.161 59.188,57.109 59.151,57.056 C59.114,57.003 59.075,56.949 59.037,56.895 C58.997,56.841 58.959,56.784 58.922,56.724 C58.885,56.664 58.847,56.606 58.808,56.552 C58.769,56.498 58.73,56.444 58.693,56.392 C58.656,56.339 58.618,56.285 58.579,56.231 C58.54,56.177 58.486,56.101 58.418,56.002 C58.349,55.904 58.281,55.821 58.213,55.751 C58.144,55.683 58.08,55.621 58.019,55.567 C57.958,55.513 57.893,55.467 57.822,55.428 C57.752,55.39 57.683,55.368 57.614,55.36 C57.546,55.353 57.481,55.349 57.421,55.349 C57.36,55.349 57.3,55.349 57.239,55.349 C57.178,55.349 57.121,55.361 57.066,55.384 C57.011,55.408 56.958,55.439 56.905,55.477 C56.852,55.515 56.807,55.56 56.77,55.613 C56.733,55.666 56.695,55.727 56.656,55.796 C56.617,55.865 56.585,55.933 56.562,56.002 C56.538,56.071 56.516,56.144 56.494,56.22 C56.473,56.296 56.454,56.38 56.439,56.471 C56.423,56.562 56.411,56.661 56.403,56.768 C56.396,56.875 56.392,56.959 56.392,57.02 L56.392,57.992 C56.392,58.06 56.396,58.128 56.403,58.197 C56.411,58.266 56.419,58.331 56.427,58.393 C56.435,58.454 56.445,58.52 56.459,58.588 C56.473,58.657 56.492,58.745 56.515,58.852 C56.538,58.959 56.554,59.043 56.562,59.103 C56.57,59.163 56.581,59.235 56.597,59.318 C56.613,59.402 56.624,59.482 56.632,59.558 C56.64,59.634 56.644,59.703 56.644,59.765 C56.644,59.826 56.617,59.869 56.562,59.892 C56.507,59.916 56.449,59.928 56.389,59.928 L55.99,59.928 C55.906,59.928 55.826,59.931 55.75,59.938 C55.673,59.946 55.593,59.957 55.509,59.972 C55.425,59.986 55.341,60.013 55.257,60.051 C55.173,60.089 55.097,60.139 55.028,60.2 C54.96,60.262 54.894,60.319 54.832,60.372 C54.769,60.424 54.712,60.482 54.659,60.543 C54.606,60.605 54.549,60.667 54.489,60.728 C54.428,60.79 54.368,60.847 54.307,60.899 C54.246,60.952 54.181,60.998 54.111,61.036 C54.04,61.074 53.963,61.108 53.879,61.139 C53.795,61.17 53.708,61.201 53.618,61.232 C53.528,61.262 53.452,61.285 53.389,61.3 C53.327,61.314 53.246,61.341 53.146,61.379 C53.046,61.417 52.97,61.448 52.917,61.471 C52.865,61.495 52.812,61.517 52.759,61.539 C52.706,61.561 52.63,61.595 52.53,61.64 C52.431,61.686 52.354,61.72 52.302,61.744 C52.249,61.767 52.176,61.791 52.085,61.814 C51.993,61.838 51.909,61.857 51.833,61.871 C51.756,61.886 51.68,61.897 51.604,61.904 C51.528,61.912 51.454,61.919 51.384,61.927 C51.313,61.934 51.248,61.945 51.187,61.961 C51.127,61.978 51.058,61.997 50.982,62.019 C50.906,62.041 50.842,62.067 50.789,62.098 C50.736,62.129 50.678,62.159 50.616,62.19 C50.553,62.221 50.488,62.214 50.419,62.168 C50.351,62.123 50.298,62.054 50.261,61.961 C50.224,61.869 50.186,61.766 50.147,61.651 C50.108,61.537 50.08,61.446 50.065,61.379 C50.049,61.311 50.034,61.243 50.021,61.174 C50.007,61.105 49.988,61.033 49.965,60.956 C49.941,60.88 49.922,60.804 49.906,60.728 C49.891,60.652 49.875,60.571 49.859,60.486 C49.844,60.401 49.828,60.317 49.812,60.233 C49.797,60.15 49.778,60.059 49.757,59.96 C49.735,59.862 49.717,59.771 49.701,59.686 C49.685,59.601 49.662,59.513 49.63,59.422 C49.599,59.331 49.573,59.24 49.551,59.149 C49.53,59.058 49.504,58.959 49.472,58.852 C49.441,58.745 49.41,58.65 49.379,58.566 C49.347,58.483 49.313,58.391 49.276,58.292 C49.239,58.192 49.205,58.104 49.173,58.028 C49.142,57.951 49.108,57.875 49.071,57.799 C49.033,57.723 48.991,57.65 48.944,57.581 C48.898,57.512 48.856,57.447 48.818,57.385 C48.781,57.324 48.743,57.267 48.704,57.214 C48.665,57.161 48.627,57.112 48.59,57.066 C48.553,57.021 48.51,56.979 48.464,56.941 C48.417,56.903 48.359,56.857 48.291,56.803 C48.222,56.749 48.154,56.702 48.085,56.664 C48.017,56.626 47.955,56.6 47.901,56.585 C47.846,56.57 47.78,56.563 47.704,56.563 C47.628,56.563 47.56,56.578 47.499,56.609 C47.439,56.64 47.39,56.694 47.352,56.77 C47.315,56.846 47.277,56.941 47.238,57.056 C47.199,57.17 47.172,57.257 47.156,57.317 C47.14,57.377 47.125,57.442 47.109,57.511 C47.093,57.58 47.075,57.652 47.053,57.729 C47.032,57.805 47.013,57.881 46.998,57.957 C46.982,58.033 46.966,58.118 46.951,58.21 C46.935,58.302 46.915,58.387 46.892,58.463 C46.869,58.539 46.849,58.623 46.834,58.714 C46.818,58.805 46.799,58.896 46.778,58.989 C46.756,59.081 46.734,59.18 46.71,59.286 C46.687,59.391 46.667,59.486 46.652,59.571 C46.636,59.656 46.617,59.752 46.593,59.857 C46.57,59.963 46.547,60.058 46.526,60.143 C46.504,60.228 46.486,60.312 46.47,60.396 C46.454,60.48 46.435,60.563 46.411,60.646 C46.388,60.73 46.368,60.806 46.352,60.875 C46.337,60.944 46.322,61.013 46.309,61.082 C46.295,61.151 46.28,61.215 46.265,61.275 C46.249,61.336 46.229,61.393 46.206,61.447 C46.182,61.501 46.159,61.57 46.136,61.654 C46.112,61.737 46.086,61.813 46.057,61.882 C46.027,61.951 45.989,62.012 45.942,62.065 C45.895,62.118 45.841,62.171 45.781,62.226 C45.72,62.28 45.668,62.326 45.623,62.364 C45.578,62.402 45.532,62.444 45.485,62.489 C45.438,62.535 45.392,62.577 45.347,62.615 C45.302,62.653 45.248,62.691 45.186,62.729 C45.123,62.767 45.054,62.797 44.977,62.819 C44.901,62.841 44.833,62.86 44.772,62.876 C44.712,62.892 44.647,62.9 44.579,62.9 C44.51,62.9 44.442,62.904 44.374,62.912 C44.305,62.919 44.233,62.926 44.157,62.934 C44.08,62.941 44,62.948 43.916,62.955 C43.832,62.963 43.744,62.975 43.652,62.991 C43.56,63.007 43.472,63.03 43.388,63.061 C43.304,63.092 43.22,63.126 43.136,63.164 C43.052,63.202 42.968,63.244 42.884,63.29 C42.8,63.335 42.724,63.384 42.655,63.437 C42.587,63.49 42.515,63.54 42.438,63.587 C42.362,63.634 42.286,63.68 42.21,63.725 C42.134,63.771 42.049,63.816 41.958,63.862 C41.866,63.907 41.778,63.952 41.694,63.998 C41.61,64.043 41.532,64.085 41.462,64.123 C41.392,64.161 41.326,64.203 41.266,64.249 C41.205,64.294 41.152,64.336 41.107,64.374 C41.062,64.412 41.013,64.447 40.958,64.477 C40.903,64.508 40.849,64.535 40.796,64.559 C40.744,64.582 40.687,64.594 40.626,64.594 L40.535,64.594" id="STROKE_EAE1C04A.-6B4D.-4912.-8B7E.-A744FED349F6" stroke="#000000" stroke-width="1.7" fill="#ffffff"></path>
    </g>
</svg>
