<?xml version="1.0" encoding="utf-8"?>
<!-- Generator: Adobe Illustrator 16.0.0, SVG Export Plug-In . SVG Version: 6.00 Build 0)  -->
<!DOCTYPE svg PUBLIC "-//W3C//DTD SVG 1.1//EN" "http://www.w3.org/Graphics/SVG/1.1/DTD/svg11.dtd">
<svg version="1.1" id="Layer_1" xmlns="http://www.w3.org/2000/svg" xmlns:xlink="http://www.w3.org/1999/xlink" x="0px" y="0px"
	 width="160px" height="160px" viewBox="0 0 160 160" enable-background="new 0 0 160 160" xml:space="preserve">
<g id="h19">
	<path fill="#A87731" stroke="#000000" stroke-width="1.6" stroke-linecap="round" stroke-linejoin="round" d="M78.986,47.822
		c9.082-0.88,17.922-2.229,26.633-4.822c-0.944-1.861-1.64-3.844-2.265-5.83c-0.93-2.951-1.528-5.991-2.479-8.938
		c-0.789-2.448-1.841-5.068-4.199-6.37c-2.898-1.601-6.569-1.465-9.758-1.143c-2.827,0.285-6.272,0.093-8.908,1.192
		c-4.021,1.678-6.709,5.823-10.14,8.381c-1.649,1.23-3.538,2.02-5.243,3.151c-4.139,2.747-5.597,7.624-7.418,11.969
		C63.04,48.039,70.737,48.621,78.986,47.822z"/>
	
		<path id="STROKE_BE1B3283.2e..-A812.2e..-43AC.2e..-99CD.2e..-5E75CFC3B391" fill="#A87731" stroke="#000000" stroke-width="1.6" stroke-linecap="round" stroke-linejoin="round" d="
		M111.712,56.446c5.061-2.393-1.498-5.059-14.191-5.014c-10.088,0.037-20.467,1.561-30.354,3.354
		c-5.369,0.974-10.423,2.251-15.531,4.181c-2.458,0.929-4.693,1.985-6.355,4.097c-1.218,1.549-2.051,3.359-2.962,5.094
		c-3.045-1.073-5.384-3.994-7.186-6.555c-0.541-0.77-0.999-1.601-1.378-2.462c-0.751-1.709-1.185-3.557-1.285-5.421
		c-0.228-4.241,1.617-10.84,6.329-12.132c4.829-1.326,11.018,1.915,15.472,3.5c8.157,2.904,16.139,3.564,24.716,2.734
		c9.967-0.966,19.646-2.496,29.181-5.617c3.898-1.276,7.827-2.56,11.902-3.124c8.097-2.368,2.717,20.759-6.408,20.241l-0.469-0.744
		l-0.465-0.704l-0.43-0.62L111.712,56.446z"/>
	
		<path id="STROKE_BE1B3283.2e..-A812.2e..-43AC.2e..-99CD.2e..-5E75CFC3B391_2_" stroke="#000000" stroke-width="1.6" stroke-linecap="round" stroke-linejoin="round" d="
		M111.712,56.446c3.354-1.586,1.604-3.292-3.654-4.249l1.181,1.244l0.856,0.974l0.852,1.037L111.712,56.446z"/>
	
		<path id="STROKE_33007EF0.2e..-A60F.2e..-4BF7.2e..-8F23.2e..-1C2E574D07B2" fill="none" stroke="#000000" stroke-width="1.6" stroke-linecap="round" stroke-linejoin="round" d="
		M66.341,42.802c6.425,0.881,11.896-6.724,13.355-12.076"/>
</g>
</svg>
