<?xml version="1.0" encoding="utf-8"?>
<!-- Generator: Adobe Illustrator 16.0.0, SVG Export Plug-In . SVG Version: 6.00 Build 0)  -->
<!DOCTYPE svg PUBLIC "-//W3C//DTD SVG 1.1//EN" "http://www.w3.org/Graphics/SVG/1.1/DTD/svg11.dtd">
<svg version="1.1" id="Layer_1" xmlns="http://www.w3.org/2000/svg" xmlns:xlink="http://www.w3.org/1999/xlink" x="0px" y="0px"
	 width="160px" height="160px" viewBox="0 0 160 160" enable-background="new 0 0 160 160" xml:space="preserve">
<g id="h2">
	
		<path id="STROKE_EE2B123B.2e..-6AC0.2e..-41FA.2e..-A061.2e..-4FBF020FDE64" fill="#FFFFFF" stroke="#000000" stroke-width="1.7" stroke-miterlimit="10" d="
		M76.068,25.114c0.182-4.622-0.51-7.7-3.85-11.114c-3.6-3.68-13.93-0.938-16.145,3.553c-2.313,4.688-0.026,8.613,3.678,13.207"/>
	<path fill="#FF0000" stroke="#000000" stroke-width="1.7" stroke-miterlimit="10" d="M104.226,46.856
		C101.413,35.6,93.2,28.08,81.329,25.408c-9.938-2.237-17.902,1.583-24.152,6.565c-6.25,4.982-11.982,15.626-9.633,23.386
		L104.226,46.856z"/>
	<path fill="#FFFFFF" stroke="#000000" stroke-width="1.7" stroke-miterlimit="10" d="M113.827,59.596
		c3.105-5.543-4.574-13.756-9.241-14.29c-4.666-0.534-22.388,0.857-31.02,1.922c-8.633,1.064-24.891,5.162-27.796,7.25
		c-2.904,2.089-3.366,3.134-3.366,3.134s-3.844,7.171-0.192,10.848c0.979,0.986,9.018-4.966,27.735-7.46
		c8.213-1.094,21.99-2.851,31.146-2.282C106.71,59.066,113.051,60.984,113.827,59.596z"/>
	<path fill="none" stroke="#000000" stroke-width="1.7" stroke-miterlimit="10" d="M101.04,45.189
		c4.88,4.165,8.16,11.131,5.191,14.143"/>
	<path fill="none" stroke="#000000" stroke-width="1.7" stroke-miterlimit="10" d="M94.392,45.432
		c3.887,5.649,3.447,10.349,3.407,13.178"/>
	<path fill="none" stroke="#000000" stroke-width="1.7" stroke-miterlimit="10" d="M86.492,45.969
		c1.508,5.071,3.006,9.999,2.548,12.75"/>
	<path fill="none" stroke="#000000" stroke-width="1.7" stroke-miterlimit="10" d="M78.506,46.763
		c1.508,5.071,3.006,9.999,2.548,12.748"/>
	<path fill="none" stroke="#000000" stroke-width="1.7" stroke-miterlimit="10" d="M69.976,47.894
		c1.509,5.071,3.007,9.999,2.549,12.749"/>
	<path fill="none" stroke="#000000" stroke-width="1.7" stroke-miterlimit="10" d="M62.892,48.985
		c1.26,5.135,2.184,10.615,2.548,12.749"/>
	<path fill="none" stroke="#000000" stroke-width="1.7" stroke-miterlimit="10" d="M59.393,62.968
		c-1.286-4.008-2.621-9.615-2.514-12.331"/>
	<path fill="none" stroke="#000000" stroke-width="1.7" stroke-miterlimit="10" d="M52.027,64.785
		c-1.228-3.372-1.619-10.626-0.917-12.491"/>
	<path fill="none" stroke="#000000" stroke-width="1.7" stroke-miterlimit="10" d="M45.84,67.6c-1.52-3.68-2.374-8.796-1.227-11.998
		"/>
</g>
</svg>
