<?xml version="1.0" encoding="utf-8"?>
<!-- Generator: Adobe Illustrator 16.0.0, SVG Export Plug-In . SVG Version: 6.00 Build 0)  -->
<!DOCTYPE svg PUBLIC "-//W3C//DTD SVG 1.1//EN" "http://www.w3.org/Graphics/SVG/1.1/DTD/svg11.dtd">
<svg version="1.1" id="Layer_1" xmlns="http://www.w3.org/2000/svg" xmlns:xlink="http://www.w3.org/1999/xlink" x="0px" y="0px"
	 width="160px" height="160px" viewBox="0 0 160 160" enable-background="new 0 0 160 160" xml:space="preserve">
<g id="h23">
	
		<path id="STROKE_B2446C5A.2e..-0EE6.2e..-41EC.2e..-8B8D.2e..-109DC0EB9D3F" fill="#8C8C8C" stroke="#000000" stroke-width="1.6" stroke-linecap="round" stroke-linejoin="round" d="
		M111.638,44.346c0-12.556-11.691-23.354-22.672-27.49c-3.781-1.424-7.799-2.826-11.887-2.816
		c-7.294,0.018-12.051,3.362-17.691,7.742c-7.204,5.596-11.068,13.57-11.484,22.657"/>
	
		<path id="STROKE_3B64F1A8.2e..-9DB9.2e..-468E.2e..-BC65.2e..-773356475450" fill="none" stroke="#000000" stroke-width="1.6" stroke-linecap="round" stroke-linejoin="round" d="
		M111.004,55.205c6.907,0,7.74,12.856,9.511,17.33"/>
	
		<path id="STROKE_4914AE8E.2e..-A20A.2e..-43FA.2e..-8153.2e..-53D054321BFC" fill="#FFEE00" stroke="#000000" stroke-width="1.6" stroke-miterlimit="10" d="
		M43.463,54.534c-0.216-3.734,1.027-6.813,2.127-7.952c1.52-1.573,3.462-2.69,5.461-3.538c2.265-0.961,4.659-1.602,7.069-2.078
		c2.456-0.486,4.945-0.796,7.438-0.999c2.188-0.177,4.382-0.27,6.578-0.3c1.172-0.016,2.347,0.018,3.516-0.094
		c1.1-0.105,2.257-0.309,3.227-0.871c0.65-0.377,1.17-0.941,1.394-1.667c0.228-0.737,0.154-1.533-0.02-2.271
		c-0.219-0.935-0.598-1.827-1.017-2.688c-0.484-0.995-1.035-1.957-1.598-2.909c-0.582-0.984-1.182-1.957-1.763-2.941
		c-0.435-0.737-0.842-1.49-1.265-2.235c-1.037-1.824-2.061-3.67-2.832-5.626c-0.363-0.919-0.709-1.898-0.766-2.893
		c-0.038-0.663,0.096-1.36,0.738-1.682c0.724-0.363,1.586-0.486,2.381-0.576c1.076-0.122,2.17-0.134,3.249-0.021
		c3.38,0,4.342,1.279,4.996,1.895c0.828,0.779,1.551,1.667,2.22,2.584c1.597,2.187,2.917,4.574,4.146,6.982
		c1.503,2.949,2.033,4.344,3.402,7.356c1.153,2.535,3.306,5.625,5.869,6.95c3.617,1.87,6.184,0.48,9.881,2.133
		c0.447,0.201,2.626,1.704,3.744,3.253c0.463,0.643,2.979,3.221,3.438,3.637l0.104,0.119c-0.581-0.542-1.765-1.298-2.166-1.492
		c-0.869-0.419-1.851-0.618-2.793-0.792c-1.423-0.263-2.865-0.422-4.306-0.549c-1.813-0.161-3.63-0.261-5.448-0.333
		c-2.072-0.083-4.146-0.127-6.22-0.146c-2.207-0.021-4.414-0.014-6.62,0.015c-2.217,0.027-4.434,0.077-6.65,0.146
		c-2.103,0.066-4.207,0.149-6.31,0.252c-1.866,0.091-3.733,0.198-5.597,0.328c-1.506,0.106-3.012,0.225-4.515,0.379
		c-1.023,0.104-2.049,0.216-3.061,0.399c-0.488,0.089-0.955,0.223-1.431,0.36c-1.791,0.517-3.577,1.054-5.34,1.658
		c-3.51,1.201-6.96,2.673-10.05,4.751c-0.323,0.217-0.917,0.746-1.231,0.976"/>
	
		<path id="STROKE_4914AE8E.2e..-A20A.2e..-43FA.2e..-8153.2e..-53D054321BFC_2_" fill="#3A3A3A" stroke="#000000" stroke-width="1.6" stroke-linecap="round" stroke-linejoin="round" d="
		M43.444,54.053c0.313-0.229,0.906-0.759,1.229-0.976c3.089-2.078,6.54-3.55,10.05-4.751c1.765-0.604,3.549-1.141,5.34-1.658
		c0.476-0.137,0.944-0.271,1.431-0.36c1.012-0.184,2.038-0.294,3.061-0.399c1.503-0.154,3.008-0.273,4.515-0.379
		c1.865-0.13,3.731-0.237,5.597-0.328c2.103-0.103,4.207-0.186,6.31-0.252c2.217-0.069,4.434-0.118,6.65-0.146
		c2.206-0.028,4.414-0.035,6.62-0.015c2.074,0.021,4.147,0.063,6.22,0.146c1.818,0.073,3.637,0.174,5.448,0.333
		c1.44,0.127,2.883,0.287,4.306,0.549c0.942,0.174,1.924,0.373,2.793,0.792c0.401,0.194,1.585,0.95,2.166,1.493l-0.104-0.12
		c0.022,0.056,5.046,4.733,2.708,7.706l-0.67-0.16c-3.082-0.747-6.209-1.309-9.353-1.734c-3.354-0.454-6.729-0.752-10.108-0.921
		c-3.508-0.175-7.02-0.211-10.53-0.124c-3.543,0.09-7.084,0.307-10.611,0.655c-3.469,0.341-6.926,0.808-10.358,1.415
		c-3.283,0.581-6.545,1.29-9.765,2.158c-3.37,0.909-6.729,1.932-9.84,3.536c-0.873,0.449-1.724,0.935-2.553,1.459
		c-1.41-2.708-0.364-6.13-0.533-7.439"/>
	
		<path id="STROKE_4914AE8E.2e..-A20A.2e..-43FA.2e..-8153.2e..-53D054321BFC_3_" fill="#8C8C8C" stroke="#000000" stroke-width="1.6" stroke-linecap="round" stroke-linejoin="round" d="
		M117.114,55.529c-3.082-0.747-6.209-1.309-9.353-1.735c-3.354-0.453-6.729-0.751-10.108-0.92c-3.508-0.175-7.02-0.213-10.53-0.124
		c-3.543,0.089-7.084,0.307-10.611,0.655c-3.469,0.341-6.926,0.808-10.358,1.415c-3.283,0.58-6.545,1.289-9.765,2.158
		c-3.37,0.909-6.729,1.932-9.84,3.535c-0.873,0.45-1.724,0.936-2.553,1.46c-2.368,2.819-3.155,6.419-3.429,10.002
		c-0.057,0.75-0.26,1.48-0.319,2.229c-0.029,0.354-0.042,0.72,0.028,1.071c0.024,0.119,0.264,0.655,0.252,0.678
		c0.053-0.097,0.107-0.217,0.183-0.3c0.278-0.296,1.507-0.806,2.136-0.975c1.761-0.472,3.561-0.803,5.358-1.104
		c2.072-0.347,12.028-1.203,16.439-1.539c0.835-0.064,1.668-0.08,2.401-0.486c1.624-0.898,2.606-2.682,3.291-4.338
		c0.816-1.977,1.308-4.087,1.646-6.194c0.258-1.611,0.449-3.255,0.449-4.889l0.022,2.479c1.833-0.355,3.66-0.728,5.496-1.067
		c2.337-0.434,4.683-0.825,7.039-1.142c2.581-0.346,5.178-0.605,7.78-0.718c2.572-0.112,5.158-0.085,7.719,0.2
		c2.332,0.259,4.668,0.73,6.85,1.612c1.952,0.789,3.782,1.93,5.18,3.521c0.701,0.8,1.266,1.692,1.692,2.667
		c0.431,0.984,0.742,2.016,1.054,3.042c0.541,1.779,1.092,3.853,2.662,5.02c1.347,1.001,4.053,1.025,5.645,0.794
		c-0.469-5.26-2.987-12.727-6.479-16.775"/>
</g>
</svg>
