<?xml version="1.0" encoding="utf-8"?>
<!-- Generator: Adobe Illustrator 16.0.0, SVG Export Plug-In . SVG Version: 6.00 Build 0)  -->
<!DOCTYPE svg PUBLIC "-//W3C//DTD SVG 1.1//EN" "http://www.w3.org/Graphics/SVG/1.1/DTD/svg11.dtd">
<svg version="1.1" id="Layer_1" xmlns="http://www.w3.org/2000/svg" xmlns:xlink="http://www.w3.org/1999/xlink" x="0px" y="0px"
	 width="160px" height="160px" viewBox="0 0 160 160" enable-background="new 0 0 160 160" xml:space="preserve">
<g id="h25">
	
		<path id="STROKE_8322CF8C.2e..-F4F2.2e..-460F.2e..-BAFA.2e..-6ED97ED88B9D" fill="#FFEE00" stroke="#000000" stroke-width="1.6" stroke-miterlimit="10" d="
		M104.833,55.036c-0.744,0.499-0.286,2.326,0.106,2.871c0.683,0.948,2.206,1.424,3.364,1.731c2.122,0.56,4.082,0.479,6.025-0.508
		c4.41-2.239,3.816-7.075,2.533-10.668c-0.686-1.924,0.24-2.891,1.223-4.641c1.268-2.258,1.611-4.518,1.316-7.008
		c-0.332-2.791-1.704-6.04-4.774-7.371c-0.828-0.358-2.122-0.204-2.828-0.557c-0.136-0.069-0.224-0.276-0.299-0.39
		c-0.532-0.793-1.011-1.615-1.5-2.43c-1.429-2.375-2.748-5.855-5.789-6.98c-1.579-0.585-3.282-0.874-4.978-1.056
		c-0.551-0.06-3.311,0.09-3.646-0.333c-0.071-0.09-0.143-0.18-0.216-0.27c-0.261-0.318-0.531-0.631-0.812-0.937
		c-3.176-3.474-7.929-6.02-13.17-5.387c-2.765,0.335-4.558,1.926-7.076,2.588c-2.457,0.647-4.159-1.266-6.447-1.624
		c-1.65-0.259-3.957,0.11-5.565,0.473c-1.706,0.384-3.45,1.189-4.747,2.235c-2.269,1.831-3.102,3.539-6.499,3.684
		c-4.911,0.21-7.213,1.419-9.215,5.411c-1.015,2.025-1.07,4.068-3.321,5.207c-2.411,1.22-5.018,1.63-5.691,4.339
		c-0.363,1.465-0.208,2.978-0.545,4.439c-0.375,1.625-1.001,3.03-2.475,3.984c-10.8,6.992,1.184,11.543,1.184,11.543
		s-4.223,3.786-3.249,7.571c0.802,3.113,5.396,4.186,5.396,4.186s-0.31,1.54-0.141,2.629c0.193,1.239,0.716,1.977,1.573,2.978
		c2.049,2.395,4.04,3.822,7.316,2.525c0.219-0.085,0.468-0.056,0.695-0.011c3.642,0.725,9.968,5.435,13.651,2.335
		c0.784-0.659,1.08-1.647,1.227-2.557c0.198-1.226,0.153-1.475,1.447-2.21c0.044,2.586,3.876,3.133,6.125,3.076
		c1.935-0.049,3.849-0.426,5.163-1.75c1.527-1.54,1.071-3.931,2.745-5.372c0.708,2.156,3.312,1.99,5.398,1.441
		c3.85-1.015,3.706-5.009,4.073-7.836c0.06-0.458,0.114-0.916,0.171-1.378c0.188-1.559,1.887-0.304,2.946,0.028
		c0.933,0.292,1.706,0.373,2.618-0.004c3.533-1.46,5.725-4.619,5.416-8.05l0.68-2.832c-4.061,5.485,9.311,11.563,13.223,4.291"/>
</g>
</svg>
