<?xml version="1.0" encoding="utf-8"?>
<!-- Generator: Adobe Illustrator 16.0.0, SVG Export Plug-In . SVG Version: 6.00 Build 0)  -->
<!DOCTYPE svg PUBLIC "-//W3C//DTD SVG 1.1//EN" "http://www.w3.org/Graphics/SVG/1.1/DTD/svg11.dtd">
<svg version="1.1" id="Layer_1" xmlns="http://www.w3.org/2000/svg" xmlns:xlink="http://www.w3.org/1999/xlink" x="0px" y="0px"
	 width="160px" height="160px" viewBox="0 0 160 160" enable-background="new 0 0 160 160" xml:space="preserve">
<g id="h4">
	
		<path id="STROKE_8E672CEC.2e..-285F.2e..-4B81.2e..-AE4C.2e..-D7C4FD4D3AEB" fill="#FFFFFF" stroke="#000000" stroke-width="1.6" stroke-linecap="round" stroke-linejoin="round" d="
		M62.316,52.665c-1.021-0.124-1.996-0.54-2.738-1.261c-0.678-0.658-1.126-1.523-1.345-2.438c-0.441-1.847,0.001-3.963,1.308-5.371
		c0.681-0.732,1.58-1.224,2.562-1.411c1.796-0.343,3.643,0.17,5.324,0.774c1.826,0.659,3.597,1.433,5.508,1.819
		c1.929,0.39,3.871,0.386,5.806,0.048c1.987-0.346,3.935-0.878,5.915-1.259c0.994-0.192,1.997-0.346,3.006-0.418
		c1.044-0.075,2.091-0.059,3.135-0.01c2.043,0.095,4.113,0.361,6.158,0.2c1.693-0.133,3.296-0.708,4.744-1.585
		c1.428-0.866,2.631-2.018,3.975-2.997c1.241-0.904,2.705-1.676,4.289-1.489c2.387,0.282,4.098,2.565,4.425,4.829
		c0.201,1.387-0.13,2.848-1.128,3.87c1.178,0.574,2.337,1.236,3.321,2.107c0.95,0.84,1.776,1.955,1.783,3.274
		c0.005,1.181-0.597,2.437-1.72,2.917c-1.048,0.448-2.279,0.263-3.35-0.002c-1.163-0.289-2.277-0.738-3.389-1.179
		c-1.541-0.612-3.127-1.076-4.768-1.332c-1.855-0.288-3.742-0.314-5.614-0.172c-1.997,0.152-3.954,0.538-5.934,0.818
		c-4.168,0.588-8.387,0.615-12.571,1.022c-1.87,0.181-3.72,0.458-5.463,1.184c-0.828,0.345-1.63,0.777-2.352,1.311
		c-0.544,0.403-0.997,0.918-1.418,1.446c-0.883,1.107-1.639,2.363-2.738,3.278c-0.895,0.747-2.114,1.135-3.28,1.021
		c-2.004-0.197-3.136-2.042-3.581-3.833c-0.252-1.012-0.33-2.069-0.256-3.108c0.068-0.953,0.263-1.921,0.675-2.788
		c0.069-0.146,0.145-0.286,0.228-0.424"/>
</g>
</svg>
