<?xml version="1.0" encoding="utf-8"?>
<!-- Generator: Adobe Illustrator 16.0.0, SVG Export Plug-In . SVG Version: 6.00 Build 0)  -->
<!DOCTYPE svg PUBLIC "-//W3C//DTD SVG 1.1//EN" "http://www.w3.org/Graphics/SVG/1.1/DTD/svg11.dtd">
<svg version="1.1" id="Layer_1" xmlns="http://www.w3.org/2000/svg" xmlns:xlink="http://www.w3.org/1999/xlink" x="0px" y="0px"
	 width="160px" height="160px" viewBox="0 0 160 160" enable-background="new 0 0 160 160" xml:space="preserve">
<g id="h5">
	
		<path id="STROKE_66173821.2e..-98A6.2e..-48E4.2e..-A941.2e..-C6CFE5284A36_2_" fill="#FCE40B" stroke="#000000" stroke-width="1.7" stroke-miterlimit="10" d="
		M86.45,41.428c-2.723-1.514-1.57-20.628-4.393-21.977c-1.404-0.671-3.438,9.008-5.851,6.583c-1.461-1.471-4.044-8.611-6.05-8.881
		c-0.797-0.108-2.151,7.912-2.621,8.969c-0.771,1.736-6.297-4.871-6.668-4.163c-2.177,4.232,0.613,16.86,1.533,21.592l2.339,1.702
		L86.45,41.428z"/>
	
		<path id="STROKE_AB10958D.2e..-8681.2e..-4A92.2e..-A459.2e..-EB0C725BDE82_2_" fill="#FFEE00" stroke="#000000" stroke-width="1.7" stroke-miterlimit="10" d="
		M32.992,57.18c2.435,2.923,2.741,5.43,6.772,6.676c3.176,0.983,6.684,0.846,9.955,0.496c9.605-1.029,13.464-7.687,19.302-14.445
		c-0.318,0.368,1.168,5.667,1.157,6.618c-0.028,2.457-0.864,4.443-2.316,6.376c3.162-1.681,7.577,0.679,9.513-3.323
		c1.151-2.379,1.452-5.053,2.342-7.524c0.412-1.145,0.996-3.649,2.593-3.443c1.295,0.167,2.217,2.506,3.348,3.144
		c1.606,0.908,3.119,0.847,4.839,0.229c3.199-1.15,6.065-4.544,9.631-4.564c5.626-0.032,5.737,8.905,11.39,9.606
		c4.928,0.612,7.444-3.634,11.906-4.139c-2.516,0.377-5.447,0.81-7.48-1.089c-2.08-1.944-2.408-5.286-2.731-7.942
		c-0.569-4.677-1.106-10.781-6.964-11.485c-4.779-0.574-9.137,2.818-12.859,5.333c-0.953,0.644-1.892,1.309-2.814,1.996
		c-0.234,0.175-1.823,1.115-1.826,1.447c0.031-2.987-13.76-5.807-22.668,3.653c-3.695-1.625-7.08-5.267-11.518-4.464
		c-3.545,0.641-5.718,4.704-6.865,7.784c-1.441,3.873-2.411,11.662-7.185,12.771C37.382,61.618,34.842,59.402,32.992,57.18z"/>
	
		<path id="STROKE_AB10958D.2e..-8681.2e..-4A92.2e..-A459.2e..-EB0C725BDE82" fill="none" stroke="#000000" stroke-width="1.7" stroke-linecap="round" stroke-linejoin="round" d="
		M74.324,45.897c-1.46,0-3.302,1.694-5.303,4.01"/>
	
		<path id="STROKE_5F44D490.2e..-4200.2e..-4DC9.2e..-97B1.2e..-83B094C8ABAB_2_" fill="#FFEE00" stroke="#000000" stroke-width="1.7" stroke-miterlimit="10" d="
		M82.903,48.954c-1.242-1.894-1.479-3.709-0.487-6.367"/>
</g>
</svg>
