<?xml version="1.0" encoding="utf-8"?>
<!-- Generator: Adobe Illustrator 16.0.0, SVG Export Plug-In . SVG Version: 6.00 Build 0)  -->
<!DOCTYPE svg PUBLIC "-//W3C//DTD SVG 1.1//EN" "http://www.w3.org/Graphics/SVG/1.1/DTD/svg11.dtd">
<svg version="1.1" id="Layer_1" xmlns="http://www.w3.org/2000/svg" xmlns:xlink="http://www.w3.org/1999/xlink" x="0px" y="0px"
	 width="160px" height="160px" viewBox="0 0 160 160" enable-background="new 0 0 160 160" xml:space="preserve">
<g id="h9">
	
		<path id="STROKE_BB446398.2e..-2507.2e..-4B47.2e..-9A80.2e..-469D590F5A3C" fill="#FFEE00" stroke="#000000" stroke-width="1.6" stroke-miterlimit="10" d="
		M120.208,19.171c-1.071,2.23-2.218,4.424-3.387,6.604c-1.387,2.588-2.812,5.157-4.26,7.713c-1.473,2.596-2.972,5.179-4.496,7.746
		c-1.337,2.249-2.691,4.489-4.084,6.703c-0.556,0.881-1.115,1.757-1.688,2.626c-0.515,0.779-1.076,1.533-1.563,2.33
		c-0.661,1.083-1.307,2.509-2.561,3.017c-0.691,0.28-1.501,0.178-2.21,0.024c-0.774-0.168-1.521-0.478-2.177-0.923
		c-0.591-0.403-1.115-0.922-1.469-1.548c-0.299-0.53-0.517-1.177-0.34-1.782c0.197-0.68,0.701-1.256,1.156-1.779
		c0.607-0.698,1.252-1.364,1.83-2.088c2.08-2.606,4.229-5.158,6.403-7.685c2.448-2.845,4.936-5.657,7.44-8.452
		c2.59-2.887,5.2-5.756,7.821-8.614C117.817,21.763,119.011,20.467,120.208,19.171"/>
	
		<path id="STROKE_A365DBAB.2e..-3E02.2e..-4989.2e..-9B3A.2e..-02F5F523B65E" fill="none" stroke="#000000" stroke-width="1.6" stroke-linecap="round" stroke-linejoin="round" d="
		M95.535,47.12c-1.179,2.167,2.973,4.96,6.103,4.418"/>
	
		<path id="STROKE_A365DBAB.2e..-3E02.2e..-4989.2e..-9B3A.2e..-02F5F523B65E_1_" fill="none" stroke="#000000" stroke-width="1.6" stroke-linecap="round" stroke-linejoin="round" d="
		M99.226,42.634c-2.146,2.243,2.734,5.326,5.266,4.488"/>
	
		<path id="STROKE_A365DBAB.2e..-3E02.2e..-4989.2e..-9B3A.2e..-02F5F523B65E_2_" fill="none" stroke="#000000" stroke-width="1.6" stroke-linecap="round" stroke-linejoin="round" d="
		M102.917,38.333c-1.873,2.167,2.125,4.335,4.5,3.989"/>
	
		<path id="STROKE_A365DBAB.2e..-3E02.2e..-4989.2e..-9B3A.2e..-02F5F523B65E_3_" fill="none" stroke="#000000" stroke-width="1.6" stroke-linecap="round" stroke-linejoin="round" d="
		M106,34.92c-1.075,1.12,2.332,3.247,4.052,2.934"/>
	
		<path id="STROKE_A365DBAB.2e..-3E02.2e..-4989.2e..-9B3A.2e..-02F5F523B65E_4_" fill="none" stroke="#000000" stroke-width="1.6" stroke-linecap="round" stroke-linejoin="round" d="
		M109.392,31.021c-0.625,0.733,1.848,2.459,3.42,2.025"/>
	
		<path id="STROKE_A365DBAB.2e..-3E02.2e..-4989.2e..-9B3A.2e..-02F5F523B65E_5_" fill="none" stroke="#000000" stroke-width="1.6" stroke-linecap="round" stroke-linejoin="round" d="
		M112.812,27.239c-0.936,1.093,0.988,2.361,2.035,2.165"/>
	
		<path id="STROKE_A365DBAB.2e..-3E02.2e..-4989.2e..-9B3A.2e..-02F5F523B65E_6_" fill="none" stroke="#000000" stroke-width="1.6" stroke-linecap="round" stroke-linejoin="round" d="
		M115.646,24.132c-0.799,0.873,0.954,1.352,1.424,1.182"/>
</g>
</svg>
