<?xml version="1.0" encoding="utf-8"?>
<!-- Generator: Adobe Illustrator 16.0.0, SVG Export Plug-In . SVG Version: 6.00 Build 0)  -->
<!DOCTYPE svg PUBLIC "-//W3C//DTD SVG 1.1//EN" "http://www.w3.org/Graphics/SVG/1.1/DTD/svg11.dtd">
<svg version="1.1" id="Layer_1" xmlns="http://www.w3.org/2000/svg" xmlns:xlink="http://www.w3.org/1999/xlink" x="0px" y="0px"
	 width="160px" height="160px" viewBox="0 0 160 160" enable-background="new 0 0 160 160" xml:space="preserve">
<g id="h7">
	
		<path id="STROKE_86B560B1.2e..-493D.2e..-4886.2e..-B6B7.2e..-EB79520D7D67_3_" fill="#FFFF0B" stroke="#000000" stroke-width="1.7" stroke-linecap="round" stroke-linejoin="round" d="
		M113.126,45.684c0.662-8.358-5.104-15.565-7.126-23.364c0.197,0.759-0.456,2.12-0.72,2.806c-0.428,1.108-0.967,2.187-1.58,3.204
		c-0.959,1.588-2.327,3.755-4.342,4.042c-2.565,0.367-4.32-2.678-5.774-4.255c-1.966-2.135-3.88-4.456-5.242-7.035
		c-0.524-0.993-1.073-2.275-0.911-3.438c1.407-2.508,0.088-6.283-2.914-6.412c-4.928-0.205-6.833,8.151-2.338,8.646l-0.006,0.057
		c-0.006,0.063,0.784,0.827,0.868,0.978c0.31,0.56,0.419,1.233,0.496,1.86c0.428,3.486,0.237,9.091-2.765,11.473
		c-2.402,1.907-5.488,1.001-7.25-1.282c-1.542-1.999-2.033-4.608-3.352-6.661c-0.366,2.199-0.682,3.097-0.802,3.538
		c-0.393,1.429-0.834,2.858-1.362,4.243c-0.786,2.063-1.893,4.013-3.984,4.945c-1.866,0.83-4.022,0.68-5.685-0.582
		c-1.271-0.965-2.071-2.368-2.891-3.704c-0.794-1.295-1.643-2.917-2.748-3.925c-0.288,2.465-0.431,4.539-0.991,6.611
		c-0.565,2.086-1.257,4.232-2.945,5.698c-1.92,1.667-3.995,0.666-5.584-0.904c-1.009-0.996-1.802-2.184-2.759-3.227
		c-0.991-1.079-2.052-2.096-3.114-3.105c0,0,1.46,3.653,1.747,4.45c0.248,0.688,0.512,1.37,0.762,2.058
		c1.185,3.266,3.333,8.116,4.17,11.483"/>
	
		<path id="STROKE_BCA79D99.2e..-B912.2e..-4037.2e..-9673.2e..-019E15232CD1" fill="#FFFF0B" stroke="#000000" stroke-width="1.7" stroke-linecap="round" stroke-linejoin="round" d="
		M43.179,65.672c-1.205-1.203-2.486-3.107-2.824-4.797c-1.111-5.558,7.143-9.587,11.309-11.005
		c10.826-3.684,22.268-4.06,33.581-4.644c3.282-0.169,6.563-0.364,9.834-0.679c5.135-0.494,17.932-3.929,19.32,4.159
		c0.484,2.815,0.013,6.104-2.783,7.611c-4.203-1.967-8.1-2.848-12.807-2.245c-3.693,0.465-7.389,0.564-11.078,1.009
		c-10.129,1.297-20.305,1.777-30.284,4.048C52.723,60.198,47.099,62.968,43.179,65.672z"/>
	
		<path id="STROKE_86B560B1.2e..-493D.2e..-4886.2e..-B6B7.2e..-EB79520D7D67" fill="none" stroke="#000000" stroke-width="1.7" stroke-linecap="round" stroke-linejoin="round" d="
		M87.431,17.646c-0.68,1.214-1.997,2.131-4.07,2.197c-0.436,0.067-0.828,0.077-1.182,0.039"/>
	
		<path id="STROKE_86B560B1.2e..-493D.2e..-4886.2e..-B6B7.2e..-EB79520D7D67_2_" fill="#FF0013" stroke="#000000" stroke-width="1.7" stroke-linecap="round" stroke-linejoin="round" d="
		M82.179,19.881c0.354,0.039,0.746,0.029,1.182-0.039c2.073-0.066,3.391-0.983,4.07-2.197c1.407-2.508,0.088-6.283-2.914-6.412
		C79.589,11.029,77.684,19.385,82.179,19.881z"/>
	
		<path id="STROKE_86B560B1.2e..-493D.2e..-4886.2e..-B6B7.2e..-EB79520D7D67_4_" fill="#FF0013" stroke="#000000" stroke-width="1.7" stroke-linecap="round" stroke-linejoin="round" d="
		M89.058,42.179c0.354,0.039,0.747,0.029,1.183-0.037c2.073-0.066,3.391-0.984,4.071-2.197c1.406-2.509,0.088-6.284-2.914-6.413
		C86.469,33.327,84.563,41.683,89.058,42.179z"/>
</g>
</svg>
