<?xml version="1.0" encoding="utf-8"?>
<!-- Generator: Adobe Illustrator 16.0.0, SVG Export Plug-In . SVG Version: 6.00 Build 0)  -->
<!DOCTYPE svg PUBLIC "-//W3C//DTD SVG 1.1//EN" "http://www.w3.org/Graphics/SVG/1.1/DTD/svg11.dtd">
<svg version="1.1" id="Layer_1" xmlns="http://www.w3.org/2000/svg" xmlns:xlink="http://www.w3.org/1999/xlink" x="0px" y="0px"
	 width="160px" height="160px" viewBox="0 0 160 160" enable-background="new 0 0 160 160" xml:space="preserve">
<g id="h6">
	
		<path id="STROKE_7F9FA43B.2e..-9E08.2e..-4B1D.2e..-9670.2e..-A26E3CB505C7_2_" fill="#FFEE00" stroke="#000000" stroke-width="1.6" stroke-miterlimit="10" d="
		M46.312,51.425c-0.212-3.334-0.023-6.697,0.75-9.953c0.279-1.175,0.632-2.332,1.034-3.472c0.369-1.047,0.741-2.106,1.19-3.122
		c1.303-2.945,3.384-5.533,5.771-7.674c2.408-2.159,5.225-3.95,8.297-4.991c1.391-0.472,2.81-0.729,4.269-0.87
		c1.355-0.131,2.717-0.191,4.079-0.183c2.721,0.017,5.44,0.31,8.1,0.882c2.631,0.567,5.202,1.408,7.645,2.537
		c2.404,1.112,4.682,2.505,6.735,4.18c2.053,1.673,3.876,3.626,5.372,5.811c1.561,2.275,2.758,4.791,3.557,7.43
		c0.482,1.588,0.822,3.218,1.031,4.864c-0.072-0.813-0.146-1.627-0.218-2.44c2.05,0.059,4.104,0.403,6.097,0.875
		c2.11,0.499,4.246,1.157,6.141,2.232c1.249,0.71,2.8,1.835,2.801,3.437c0,0.798-0.408,1.524-0.91,2.12
		c-0.824,0.977-1.921,1.716-3.014,2.361c-3.182,1.875-6.694,3.115-10.316,3.81c-3.643,0.697-7.367,0.863-11.07,0.781
		c-3.902-0.086-7.791-0.532-11.641-1.162c-3.879-0.634-7.721-1.463-11.55-2.349c-3.84-0.889-7.666-1.835-11.51-2.706
		c-3.826-0.868-7.673-1.661-11.555-2.241c-1.933-0.289-3.875-0.524-5.822-0.689c-0.974-0.083-1.95-0.146-2.926-0.191
		c-0.733-0.033-1.466-0.065-2.2-0.023c-1.822,0.106-3.721,0.635-5.005,2.005c-1.082,1.154-1.529,2.728-1.521,4.284
		c0.009,1.802,0.565,3.583,1.378,5.178c0.908,1.78,2.173,3.387,3.692,4.687c1.561,1.334,3.413,2.345,5.421,2.809
		c0.46,0.106,0.927,0.185,1.398,0.232c-0.287-0.029-0.561-0.192-0.797-0.346c-0.301-0.196-0.581-0.425-0.844-0.67
		c-0.56-0.522-1.001-1.128-0.958-1.935c0.042-0.76,0.441-1.519,0.848-2.147c0.373-0.578,0.832-1.097,1.35-1.549
		c2.113-1.851,4.995-2.597,7.693-3.102c1.961-0.366,3.928-0.705,5.889-1.078c2.076-0.394,4.15-0.799,6.225-1.196
		c2.833-0.542,5.67-1.127,8.533-1.486"/>
	
		<path id="STROKE_C8087E9E.2e..-6B79.2e..-4F30.2e..-BF13.2e..-E0E2660806A8_1_" fill="#B7B7B7" stroke="#000000" stroke-width="1.6" stroke-linecap="round" stroke-linejoin="round" d="
		M84.804,50.492c1.266,0.022,2.545-0.094,3.805-0.184c2.123-0.153,4.245-0.353,6.357-0.617c2.045-0.256,4.103-0.551,6.103-1.063
		c0.706-0.181,1.421-0.385,2.081-0.703c0.355-0.17,0.832-0.415,0.967-0.819c0.023-0.072,0.033-0.148,0.026-0.223
		c-0.04-0.449-0.122-0.898-0.197-1.343c-0.159-0.929-0.361-1.85-0.609-2.758c-0.472-1.732-1.106-3.419-1.907-5.026
		c-0.264-0.528-0.544-1.048-0.842-1.558c0.035,0.084,0.018,0.185-0.011,0.269c-0.116,0.341-0.437,0.61-0.709,0.824
		c-0.617,0.484-1.308,0.868-2.046,1.132c-1.523,0.544-3.088,0.982-4.646,1.418c-2.182,0.612-4.378,1.181-6.588,1.687
		c-1.897,0.434-3.821,0.861-5.763,1.048c-0.418,0.041-0.842,0.07-1.262,0.051c-0.25-0.011-0.542-0.028-0.764-0.161"/>
	
		<path id="STROKE_7F9FA43B.2e..-9E08.2e..-4B1D.2e..-9670.2e..-A26E3CB505C7_3_" stroke="#000000" stroke-width="1.6" stroke-linecap="round" stroke-linejoin="round" d="
		M41.811,69.872c-0.081,0.391-0.7-0.119-0.827-0.22c-0.43-0.343-0.822-0.743-1.179-1.16c-0.19-0.223-0.361-0.456-0.461-0.735
		c-0.147-0.406-0.137-0.844-0.051-1.262c0.131-0.637,0.412-1.22,0.796-1.742c0.731-0.995,1.745-1.769,2.786-2.417
		c0.702-0.438,1.439-0.829,2.2-1.157c0.046-0.02,0.092-0.04,0.138-0.06c-0.896,0.997-1.483,2.25-1.953,3.493
		c-0.637,1.683-1.07,3.441-1.437,5.201C41.819,69.833,41.815,69.852,41.811,69.872C41.675,70.526,42.64,65.879,41.811,69.872z"/>
	
		<path id="STROKE_9938230A.2e..-924E.2e..-40F1.2e..-B921.2e..-554AB8737B9A" fill="#B7B7B7" stroke="#000000" stroke-width="1.6" stroke-linecap="round" stroke-linejoin="round" d="
		M70.204,40.898c-0.085-0.679,0.124-1.383,0.365-2.01c0.339-0.883,0.811-1.715,1.327-2.505c1.222-1.869,2.742-3.577,4.458-5.004
		c0.803-0.667,1.662-1.279,2.592-1.755c0.768-0.393,1.605-0.709,2.473-0.762c0.747-0.045,1.49,0.138,2.084,0.604
		c0.363,0.284,0.66,0.656,0.926,1.031c0.254,0.361,0.473,0.753,0.616,1.172c0.237,0.695,0.237,1.437-0.022,2.124
		c-0.273,0.721-0.777,1.334-1.332,1.857c-1.385,1.305-3.133,2.207-4.822,3.046c-1.583,0.785-3.238,1.466-4.752,2.381
		c-0.452,0.273-0.971,0.587-1.258,1.046c0.23-0.37,0.788-0.446,1.18-0.481c0.73-0.064,1.476,0.024,2.195,0.15
		c1.897,0.334,3.774,1.008,5.442,1.973c1.486,0.86,3.061,2.103,3.525,3.839c0.47,1.761-0.466,3.74-2.13,4.482
		c-0.92,0.409-1.959,0.474-2.95,0.388c-1.171-0.101-2.321-0.411-3.42-0.817c-2.194-0.812-4.339-2.021-6.058-3.619
		c-0.458-0.425-0.893-0.888-1.234-1.414"/>
	
		<path id="STROKE_94E50EA4.2e..-9A96.2e..-4EC5.2e..-8CE3.2e..-349DED7B18D7" fill="#B7B7B7" stroke="#000000" stroke-width="1.6" stroke-linecap="round" stroke-linejoin="round" d="
		M63.916,39.509c-0.095-0.764-0.14-1.904,0.622-2.371c0.638-0.391,1.487-0.097,2.096,0.205c0.939,0.465,1.761,1.178,2.448,1.962
		c0.737,0.842,1.358,1.825,1.677,2.904c0.3,1.014,0.302,2.127-0.2,3.077c-0.483,0.915-1.339,1.565-2.241,2.035
		c-2.037,1.061-4.411,1.42-6.666,1.695c-1.904,0.232-3.861,0.485-5.737-0.059c-1.214-0.353-2.31-1.077-2.906-2.216
		c-0.549-1.049-0.623-2.281-0.441-3.433c0.201-1.285,0.706-2.521,1.39-3.623c0.67-1.078,1.534-2.067,2.59-2.783
		c0.92-0.626,2.027-1.043,3.154-0.917c1.283,0.143,2.331,0.976,3.087,1.978c0.675,0.895,1.159,1.926,1.544,2.973"/>
	
		<path id="STROKE_B80FD9BF.2e..-2A30.2e..-49AC.2e..-935B.2e..-55070AA97F64" fill="#B7B7B7" stroke="#000000" stroke-width="1.6" stroke-linecap="round" stroke-linejoin="round" d="
		M54.132,39.416c-0.517,0.065-1.039-0.123-1.496-0.346c-0.646-0.315-1.237-0.741-1.801-1.181c-1.483-1.158-2.833-2.481-4.212-3.756
		c-1.432-1.325-2.884-2.657-4.502-3.752c-1.198-0.813-2.667-1.654-4.171-1.52c-1.625,0.146-2.625,1.562-3.218,2.947
		c-0.913,2.136-1.508,4.847-0.425,7.035c0.893,1.805,2.762,2.796,4.634,3.303c2.249,0.609,4.642,0.656,6.953,0.482
		c2.447-0.183,4.874-0.664,7.236-1.314"/>
	
		<path id="STROKE_C8C3E651.2e..-A870.2e..-425C.2e..-89A6.2e..-F51D67C39191" fill="#B7B7B7" stroke="#000000" stroke-width="1.6" stroke-linecap="round" stroke-linejoin="round" d="
		M53.271,47.174c-1.749,1.329-3.883,2.191-6.043,2.554c-0.985,0.166-1.997,0.228-2.99,0.112c-0.824-0.097-1.66-0.319-2.356-0.785
		c-0.625-0.419-1.083-1.036-1.264-1.771c-0.232-0.944-0.033-1.947,0.287-2.845c0.107-0.303,0.232-0.599,0.368-0.89
		c0.071-0.153,0.146-0.304,0.223-0.454c0.04-0.079,0.082-0.156,0.123-0.233c0.045-0.085,0.09-0.241,0.19-0.232
		c1.005,0.085,2.016,0.098,3.024,0.059c1.901-0.074,3.781-0.343,5.64-0.735c0.891-0.188,1.778-0.399,2.656-0.641
		C52.391,43.142,52.081,45.458,53.271,47.174"/>
</g>
</svg>
