<?xml version="1.0" encoding="UTF-8" standalone="no"?><!DOCTYPE svg PUBLIC "-//W3C//DTD SVG 1.1//EN" "http://www.w3.org/Graphics/SVG/1.1/DTD/svg11.dtd"><svg width="100%" height="100%" viewBox="0 0 160 160" version="1.1" xmlns="http://www.w3.org/2000/svg" xmlns:xlink="http://www.w3.org/1999/xlink" xml:space="preserve" style="fill-rule:evenodd;clip-rule:evenodd;stroke-linecap:round;stroke-linejoin:round;"><g id="hats"><g id="ladyhat"><path id="STROKE_B03AB3F6.-33D6.-4169.-B0E8.-8EE65634BDAE" d="M103.925,44.424c0.119,0.003 0.205,0.021 0.256,0.054c0.051,0.033 0.107,0.065 0.168,0.096c0.061,0.032 0.118,0.064 0.172,0.096c0.054,0.032 0.117,0.073 0.19,0.121c0.073,0.049 0.136,0.085 0.189,0.108c0.052,0.023 0.114,0.049 0.185,0.077c0.07,0.029 0.141,0.053 0.214,0.074c0.071,0.021 0.146,0.035 0.225,0.044c0.078,0.009 0.161,0.023 0.251,0.041c0.089,0.019 0.183,0.037 0.282,0.054c0.099,0.018 0.179,0.032 0.24,0.043c0.061,0.011 0.145,0.019 0.252,0.024c0.107,0.005 0.19,0.014 0.249,0.027c0.059,0.013 0.117,0.026 0.176,0.037c0.058,0.011 0.138,0.021 0.238,0.029c0.1,0.008 0.2,0.019 0.298,0.035c0.099,0.015 0.198,0.027 0.295,0.035c0.098,0.009 0.197,0.02 0.295,0.036c0.099,0.016 0.203,0.036 0.313,0.061c0.11,0.026 0.195,0.049 0.255,0.072c0.06,0.022 0.145,0.05 0.256,0.085c0.111,0.034 0.197,0.057 0.258,0.068c0.061,0.011 0.151,0.038 0.271,0.081c0.119,0.042 0.235,0.081 0.346,0.115c0.111,0.034 0.197,0.058 0.258,0.071c0.061,0.013 0.142,0.037 0.244,0.073c0.101,0.035 0.181,0.059 0.239,0.07c0.059,0.011 0.143,0.03 0.253,0.055c0.109,0.025 0.214,0.041 0.314,0.047c0.1,0.006 0.2,0.018 0.299,0.035c0.099,0.018 0.177,0.027 0.235,0.029c0.057,0.003 0.135,0.012 0.234,0.03c0.099,0.017 0.198,0.034 0.296,0.049c0.099,0.016 0.193,0.028 0.281,0.038c0.088,0.009 0.177,0.022 0.269,0.038c0.091,0.017 0.186,0.034 0.285,0.051c0.099,0.017 0.193,0.035 0.283,0.054c0.089,0.019 0.174,0.041 0.254,0.068c0.08,0.028 0.16,0.051 0.239,0.071c0.08,0.02 0.165,0.044 0.255,0.072c0.09,0.027 0.177,0.055 0.26,0.084c0.083,0.029 0.17,0.056 0.26,0.082c0.09,0.026 0.18,0.048 0.269,0.067c0.089,0.018 0.169,0.043 0.24,0.073c0.071,0.03 0.148,0.06 0.231,0.088c0.082,0.029 0.159,0.053 0.228,0.072c0.07,0.019 0.135,0.044 0.196,0.076c0.061,0.031 0.123,0.063 0.187,0.094c0.063,0.031 0.135,0.066 0.217,0.104c0.082,0.038 0.155,0.073 0.218,0.104c0.063,0.031 0.136,0.066 0.218,0.104c0.082,0.038 0.154,0.077 0.216,0.118c0.062,0.04 0.129,0.074 0.202,0.103c0.074,0.028 0.145,0.057 0.216,0.087c0.071,0.03 0.143,0.07 0.216,0.118c0.073,0.049 0.147,0.093 0.221,0.134c0.075,0.041 0.154,0.09 0.238,0.146c0.084,0.057 0.163,0.109 0.236,0.158c0.073,0.048 0.147,0.092 0.221,0.131c0.075,0.039 0.144,0.089 0.209,0.15c0.065,0.061 0.134,0.115 0.207,0.164c0.073,0.048 0.142,0.097 0.208,0.147c0.066,0.049 0.125,0.099 0.179,0.15c0.053,0.051 0.103,0.103 0.15,0.155c0.046,0.052 0.092,0.099 0.136,0.142c0.046,0.043 0.091,0.095 0.136,0.159c0.045,0.063 0.091,0.125 0.139,0.186c0.047,0.061 0.09,0.124 0.127,0.188c0.038,0.064 0.072,0.132 0.101,0.205c0.028,0.073 0.047,0.137 0.054,0.194c0.007,0.057 0.015,0.124 0.025,0.201c0.01,0.077 0.019,0.149 0.027,0.217c0.009,0.068 -0.007,0.138 -0.048,0.21c-0.041,0.072 -0.086,0.135 -0.136,0.19c-0.05,0.055 -0.106,0.115 -0.167,0.18c-0.062,0.066 -0.122,0.126 -0.182,0.182c-0.06,0.056 -0.121,0.117 -0.182,0.182c-0.062,0.065 -0.117,0.125 -0.168,0.18c-0.05,0.055 -0.104,0.116 -0.163,0.183c-0.058,0.067 -0.114,0.128 -0.167,0.182c-0.052,0.056 -0.104,0.11 -0.154,0.165c-0.05,0.055 -0.106,0.11 -0.169,0.166c-0.062,0.057 -0.124,0.113 -0.183,0.168c-0.06,0.057 -0.125,0.113 -0.195,0.17c-0.07,0.057 -0.14,0.109 -0.212,0.155c-0.071,0.046 -0.142,0.098 -0.215,0.156c-0.072,0.057 -0.148,0.115 -0.227,0.173c-0.08,0.059 -0.154,0.122 -0.222,0.19c-0.068,0.068 -0.133,0.13 -0.193,0.186c-0.06,0.056 -0.121,0.112 -0.183,0.168c-0.063,0.057 -0.125,0.107 -0.186,0.152c-0.061,0.045 -0.119,0.09 -0.173,0.136c-0.053,0.046 -0.116,0.093 -0.187,0.141c-0.071,0.048 -0.132,0.09 -0.185,0.126c-0.052,0.037 -0.107,0.068 -0.163,0.094c-0.057,0.025 -0.12,0.067 -0.19,0.124c-0.069,0.057 -0.135,0.104 -0.197,0.142c-0.063,0.037 -0.121,0.079 -0.175,0.125c-0.053,0.046 -0.111,0.087 -0.174,0.122c-0.063,0.036 -0.126,0.073 -0.191,0.111c-0.065,0.038 -0.128,0.08 -0.189,0.127c-0.061,0.047 -0.127,0.093 -0.198,0.139c-0.072,0.046 -0.143,0.089 -0.215,0.128c-0.072,0.038 -0.14,0.081 -0.203,0.128c-0.064,0.048 -0.127,0.089 -0.19,0.125c-0.062,0.035 -0.121,0.072 -0.176,0.109c-0.055,0.036 -0.113,0.073 -0.176,0.111c-0.062,0.038 -0.12,0.074 -0.172,0.108c-0.053,0.034 -0.112,0.071 -0.177,0.109c-0.064,0.037 -0.128,0.074 -0.191,0.11c-0.062,0.036 -0.121,0.068 -0.177,0.095c-0.057,0.028 -0.121,0.06 -0.193,0.097c-0.072,0.037 -0.14,0.074 -0.202,0.112c-0.062,0.037 -0.124,0.075 -0.187,0.113c-0.062,0.037 -0.13,0.074 -0.205,0.112c-0.075,0.037 -0.143,0.075 -0.206,0.112c-0.062,0.038 -0.125,0.074 -0.187,0.11c-0.062,0.036 -0.121,0.072 -0.176,0.109c-0.055,0.037 -0.114,0.068 -0.178,0.095c-0.064,0.026 -0.129,0.054 -0.194,0.083c-0.066,0.029 -0.126,0.06 -0.178,0.095c-0.053,0.034 -0.111,0.066 -0.175,0.094c-0.063,0.029 -0.128,0.056 -0.194,0.083c-0.066,0.027 -0.131,0.055 -0.194,0.083c-0.064,0.029 -0.124,0.056 -0.18,0.081c-0.056,0.026 -0.116,0.052 -0.18,0.079c-0.064,0.026 -0.122,0.053 -0.176,0.08c-0.054,0.028 -0.119,0.051 -0.196,0.07c-0.077,0.019 -0.143,0.036 -0.198,0.053c-0.055,0.016 -0.119,0.039 -0.193,0.068c-0.073,0.03 -0.147,0.059 -0.223,0.087c-0.076,0.028 -0.151,0.051 -0.226,0.07c-0.074,0.019 -0.149,0.038 -0.223,0.059c-0.075,0.021 -0.15,0.036 -0.226,0.045c-0.075,0.009 -0.147,0.018 -0.216,0.027c-0.068,0.009 -0.145,0.018 -0.231,0.029c-0.085,0.011 -0.155,0.024 -0.21,0.04c-0.056,0.017 -0.117,0.029 -0.186,0.038c-0.068,0.008 -0.135,0.021 -0.199,0.038c-0.065,0.018 -0.136,0.031 -0.211,0.041c-0.076,0.009 -0.148,0.023 -0.215,0.041c-0.067,0.018 -0.134,0.031 -0.2,0.039c-0.066,0.008 -0.136,0.017 -0.212,0.027c-0.076,0.009 -0.148,0.018 -0.216,0.027c-0.069,0.008 -0.136,0.017 -0.202,0.025c-0.066,0.008 -0.137,0.017 -0.213,0.027c-0.075,0.009 -0.151,0.019 -0.227,0.028c-0.076,0.01 -0.153,0.019 -0.231,0.029c-0.078,0.01 -0.155,0.02 -0.23,0.029c-0.076,0.01 -0.147,0.019 -0.213,0.027c-0.066,0.008 -0.138,0.017 -0.216,0.027c-0.079,0.01 -0.156,0.019 -0.231,0.029c-0.076,0.009 -0.152,0.019 -0.228,0.028c-0.075,0.01 -0.156,0.02 -0.241,0.031c-0.086,0.011 -0.171,0.021 -0.257,0.032c-0.085,0.011 -0.172,0.021 -0.26,0.032c-0.088,0.012 -0.18,0.023 -0.275,0.035c-0.095,0.012 -0.186,0.023 -0.271,0.034c-0.086,0.011 -0.176,0.022 -0.271,0.034c-0.096,0.012 -0.191,0.024 -0.286,0.036c-0.095,0.012 -0.191,0.024 -0.286,0.036c-0.095,0.012 -0.191,0.024 -0.286,0.035c-0.095,0.013 -0.19,0.025 -0.286,0.036c-0.095,0.012 -0.19,0.024 -0.286,0.036c-0.095,0.012 -0.191,0.015 -0.289,0.009c-0.097,-0.007 -0.176,-0.006 -0.234,0.001c-0.059,0.008 -0.142,0.008 -0.25,0.001c-0.107,-0.007 -0.214,-0.009 -0.32,-0.005c-0.107,0.004 -0.213,0.008 -0.319,0.012c-0.106,0.004 -0.188,0.005 -0.245,0.003c-0.058,-0.002 -0.134,-0.001 -0.231,0.001c-0.096,0.003 -0.175,0.003 -0.235,-0.001c-0.06,-0.004 -0.143,-0.004 -0.249,0.001c-0.106,0.004 -0.212,0.008 -0.318,0.012c-0.107,0.003 -0.214,0.002 -0.321,-0.005c-0.108,-0.007 -0.19,-0.012 -0.248,-0.014c-0.057,-0.002 -0.115,0.001 -0.174,0.008c-0.058,0.008 -0.116,0.01 -0.173,0.008c-0.058,-0.002 -0.14,-0.001 -0.246,0.003c-0.106,0.004 -0.188,0.005 -0.245,0.003c-0.058,-0.002 -0.116,-0.005 -0.176,-0.009c-0.06,-0.003 -0.143,0.001 -0.248,0.015c-0.105,0.013 -0.21,0.026 -0.315,0.039c-0.105,0.013 -0.191,0.024 -0.256,0.032c-0.067,0.009 -0.152,0.019 -0.257,0.033c-0.105,0.013 -0.21,0.026 -0.315,0.039c-0.105,0.013 -0.21,0.026 -0.316,0.039c-0.105,0.014 -0.186,0.024 -0.245,0.032c-0.059,0.007 -0.14,0.017 -0.246,0.03c-0.105,0.013 -0.205,0.021 -0.302,0.024c-0.096,0.003 -0.177,0.008 -0.243,0.017c-0.066,0.008 -0.153,0.014 -0.259,0.018c-0.106,0.004 -0.188,0.005 -0.245,0.003c-0.057,-0.002 -0.116,-0.004 -0.176,-0.006c-0.059,-0.002 -0.118,-0.005 -0.176,-0.009c-0.057,-0.003 -0.121,-0.006 -0.19,-0.006c-0.07,-0.001 -0.133,-0.002 -0.191,-0.004c-0.057,-0.003 -0.121,-0.004 -0.19,-0.004c-0.07,-0.001 -0.133,-0.002 -0.191,-0.004c-0.057,-0.003 -0.119,-0.005 -0.187,-0.007c-0.067,-0.003 -0.13,-0.001 -0.188,0.006c-0.059,0.008 -0.122,0.011 -0.189,0.01c-0.067,-0.001 -0.134,0.003 -0.2,0.011c-0.066,0.008 -0.129,0.012 -0.188,0.01c-0.06,-0.002 -0.123,0.001 -0.189,0.01c-0.066,0.008 -0.128,0.016 -0.187,0.023c-0.058,0.007 -0.117,0.01 -0.174,0.008c-0.057,-0.002 -0.12,0.001 -0.188,0.009c-0.069,0.009 -0.137,0.013 -0.204,0.012c-0.067,-0.001 -0.163,0.001 -0.29,0.006c-0.125,0.004 -0.217,0.006 -0.275,0.003c-0.057,-0.002 -0.115,-0.004 -0.175,-0.006c-0.06,-0.001 -0.128,-0.002 -0.205,-0.002c-0.077,0.001 -0.144,0 -0.202,-0.002c-0.057,-0.002 -0.12,-0.005 -0.19,-0.007c-0.07,-0.002 -0.134,-0.005 -0.191,-0.007c-0.057,-0.002 -0.119,-0.004 -0.186,-0.004c-0.068,-0.001 -0.131,-0.003 -0.191,-0.004c-0.06,-0.002 -0.123,-0.004 -0.19,-0.005c-0.067,0 -0.136,-0.002 -0.206,-0.004c-0.07,-0.003 -0.139,-0.009 -0.207,-0.019c-0.068,-0.01 -0.131,-0.016 -0.188,-0.018c-0.057,-0.003 -0.122,-0.009 -0.192,-0.021c-0.071,-0.011 -0.172,-0.028 -0.301,-0.049c-0.129,-0.021 -0.227,-0.033 -0.295,-0.035c-0.067,-0.003 -0.13,-0.01 -0.188,-0.021c-0.059,-0.012 -0.129,-0.021 -0.209,-0.03c-0.081,-0.008 -0.15,-0.019 -0.209,-0.033c-0.058,-0.013 -0.122,-0.024 -0.19,-0.034c-0.068,-0.01 -0.138,-0.021 -0.209,-0.033c-0.071,-0.011 -0.14,-0.022 -0.209,-0.032c-0.068,-0.01 -0.136,-0.02 -0.204,-0.03c-0.069,-0.01 -0.139,-0.021 -0.21,-0.032c-0.07,-0.012 -0.145,-0.022 -0.223,-0.031c-0.078,-0.009 -0.151,-0.019 -0.22,-0.031c-0.068,-0.012 -0.138,-0.023 -0.208,-0.033c-0.071,-0.009 -0.146,-0.019 -0.223,-0.028c-0.079,-0.008 -0.152,-0.019 -0.22,-0.031c-0.069,-0.012 -0.143,-0.022 -0.224,-0.03c-0.08,-0.009 -0.16,-0.023 -0.24,-0.043c-0.079,-0.019 -0.158,-0.034 -0.236,-0.043c-0.078,-0.008 -0.152,-0.023 -0.221,-0.045c-0.07,-0.021 -0.14,-0.036 -0.211,-0.046c-0.071,-0.009 -0.146,-0.024 -0.225,-0.044c-0.08,-0.02 -0.159,-0.039 -0.238,-0.057c-0.079,-0.018 -0.16,-0.036 -0.242,-0.056c-0.082,-0.02 -0.162,-0.039 -0.242,-0.059c-0.079,-0.02 -0.153,-0.035 -0.221,-0.045c-0.068,-0.01 -0.142,-0.025 -0.222,-0.045c-0.079,-0.019 -0.16,-0.038 -0.241,-0.056c-0.082,-0.018 -0.162,-0.036 -0.242,-0.056c-0.079,-0.02 -0.159,-0.04 -0.238,-0.059c-0.079,-0.02 -0.16,-0.039 -0.242,-0.057c-0.081,-0.017 -0.166,-0.031 -0.254,-0.04c-0.088,-0.01 -0.172,-0.023 -0.251,-0.042c-0.079,-0.018 -0.158,-0.036 -0.238,-0.056c-0.079,-0.02 -0.163,-0.038 -0.252,-0.055c-0.089,-0.017 -0.18,-0.034 -0.271,-0.053c-0.092,-0.018 -0.177,-0.037 -0.257,-0.057c-0.079,-0.02 -0.163,-0.038 -0.252,-0.055c-0.089,-0.016 -0.178,-0.034 -0.268,-0.053c-0.089,-0.018 -0.183,-0.035 -0.282,-0.051c-0.098,-0.015 -0.192,-0.032 -0.282,-0.051c-0.089,-0.019 -0.183,-0.041 -0.283,-0.068c-0.101,-0.026 -0.196,-0.048 -0.288,-0.064c-0.091,-0.017 -0.186,-0.034 -0.285,-0.051c-0.099,-0.017 -0.199,-0.039 -0.299,-0.066c-0.1,-0.026 -0.199,-0.047 -0.298,-0.063c-0.099,-0.015 -0.193,-0.032 -0.282,-0.051c-0.089,-0.019 -0.183,-0.037 -0.282,-0.054c-0.099,-0.017 -0.194,-0.039 -0.284,-0.065c-0.09,-0.026 -0.18,-0.048 -0.269,-0.067c-0.089,-0.018 -0.179,-0.037 -0.271,-0.055c-0.092,-0.018 -0.187,-0.035 -0.285,-0.051c-0.099,-0.015 -0.193,-0.032 -0.282,-0.051c-0.09,-0.019 -0.179,-0.042 -0.27,-0.069c-0.09,-0.028 -0.184,-0.045 -0.281,-0.052c-0.098,-0.006 -0.202,-0.022 -0.312,-0.047c-0.11,-0.026 -0.209,-0.047 -0.298,-0.063c-0.089,-0.017 -0.183,-0.034 -0.282,-0.051c-0.099,-0.018 -0.203,-0.039 -0.313,-0.064c-0.11,-0.026 -0.215,-0.051 -0.315,-0.078c-0.1,-0.026 -0.2,-0.052 -0.3,-0.077c-0.1,-0.025 -0.201,-0.05 -0.304,-0.077c-0.102,-0.026 -0.199,-0.053 -0.289,-0.08c-0.091,-0.028 -0.186,-0.055 -0.286,-0.082c-0.1,-0.026 -0.2,-0.053 -0.3,-0.079c-0.1,-0.027 -0.201,-0.053 -0.301,-0.08c-0.1,-0.026 -0.2,-0.058 -0.302,-0.093c-0.101,-0.036 -0.202,-0.066 -0.302,-0.091c-0.099,-0.025 -0.199,-0.05 -0.299,-0.077c-0.101,-0.026 -0.201,-0.053 -0.301,-0.079c-0.1,-0.027 -0.2,-0.053 -0.3,-0.08c-0.1,-0.026 -0.205,-0.052 -0.315,-0.078c-0.11,-0.025 -0.219,-0.045 -0.328,-0.059c-0.108,-0.014 -0.212,-0.035 -0.312,-0.061c-0.101,-0.027 -0.205,-0.048 -0.314,-0.064c-0.109,-0.016 -0.218,-0.036 -0.328,-0.06c-0.109,-0.023 -0.213,-0.044 -0.312,-0.061c-0.099,-0.017 -0.204,-0.038 -0.314,-0.064c-0.109,-0.025 -0.219,-0.051 -0.329,-0.076c-0.11,-0.025 -0.214,-0.045 -0.313,-0.061c-0.099,-0.016 -0.199,-0.032 -0.301,-0.049c-0.101,-0.017 -0.202,-0.039 -0.302,-0.065c-0.1,-0.027 -0.2,-0.053 -0.3,-0.077c-0.1,-0.025 -0.205,-0.05 -0.314,-0.075c-0.11,-0.025 -0.215,-0.047 -0.314,-0.064c-0.099,-0.018 -0.198,-0.04 -0.298,-0.066c-0.1,-0.027 -0.205,-0.052 -0.315,-0.075c-0.11,-0.023 -0.214,-0.044 -0.313,-0.061c-0.099,-0.018 -0.203,-0.034 -0.311,-0.05c-0.109,-0.017 -0.219,-0.037 -0.328,-0.063c-0.11,-0.025 -0.219,-0.045 -0.328,-0.059c-0.108,-0.014 -0.217,-0.03 -0.326,-0.046c-0.109,-0.016 -0.217,-0.031 -0.326,-0.045c-0.108,-0.015 -0.222,-0.034 -0.342,-0.058c-0.12,-0.024 -0.234,-0.044 -0.343,-0.06c-0.108,-0.016 -0.222,-0.036 -0.342,-0.061c-0.12,-0.024 -0.234,-0.043 -0.342,-0.057c-0.109,-0.014 -0.231,-0.033 -0.368,-0.055c-0.137,-0.022 -0.255,-0.046 -0.355,-0.072c-0.101,-0.027 -0.21,-0.047 -0.328,-0.06c-0.118,-0.013 -0.247,-0.03 -0.387,-0.052c-0.139,-0.021 -0.268,-0.044 -0.388,-0.068c-0.119,-0.024 -0.239,-0.044 -0.357,-0.059c-0.118,-0.015 -0.241,-0.033 -0.368,-0.054c-0.127,-0.021 -0.255,-0.044 -0.384,-0.066c-0.13,-0.023 -0.259,-0.046 -0.388,-0.069c-0.13,-0.023 -0.249,-0.042 -0.358,-0.058c-0.108,-0.016 -0.227,-0.035 -0.356,-0.056c-0.13,-0.021 -0.249,-0.044 -0.359,-0.07c-0.11,-0.025 -0.235,-0.048 -0.374,-0.07c-0.139,-0.021 -0.259,-0.046 -0.359,-0.072c-0.1,-0.027 -0.219,-0.055 -0.357,-0.087c-0.138,-0.031 -0.267,-0.063 -0.388,-0.096c-0.121,-0.033 -0.242,-0.066 -0.362,-0.1c-0.121,-0.033 -0.241,-0.062 -0.361,-0.086c-0.12,-0.024 -0.245,-0.056 -0.377,-0.098c-0.132,-0.041 -0.267,-0.077 -0.405,-0.108c-0.138,-0.031 -0.267,-0.063 -0.388,-0.097c-0.12,-0.033 -0.241,-0.066 -0.362,-0.099c-0.121,-0.034 -0.242,-0.067 -0.363,-0.1c-0.12,-0.033 -0.236,-0.063 -0.345,-0.088c-0.11,-0.025 -0.226,-0.054 -0.347,-0.088c-0.12,-0.033 -0.236,-0.062 -0.346,-0.087c-0.11,-0.026 -0.22,-0.056 -0.331,-0.09c-0.111,-0.034 -0.221,-0.063 -0.331,-0.087c-0.11,-0.023 -0.219,-0.048 -0.329,-0.073c-0.11,-0.026 -0.215,-0.051 -0.315,-0.078c-0.1,-0.027 -0.205,-0.048 -0.314,-0.064c-0.108,-0.016 -0.213,-0.037 -0.313,-0.061c-0.1,-0.025 -0.204,-0.045 -0.313,-0.061c-0.108,-0.017 -0.212,-0.033 -0.311,-0.051c-0.099,-0.017 -0.198,-0.034 -0.296,-0.049c-0.099,-0.016 -0.198,-0.032 -0.297,-0.049c-0.099,-0.018 -0.198,-0.034 -0.297,-0.05c-0.098,-0.015 -0.197,-0.027 -0.295,-0.035c-0.097,-0.009 -0.197,-0.02 -0.298,-0.035c-0.101,-0.016 -0.201,-0.032 -0.3,-0.049c-0.099,-0.018 -0.198,-0.035 -0.297,-0.053c-0.099,-0.017 -0.193,-0.034 -0.282,-0.051c-0.089,-0.016 -0.183,-0.038 -0.284,-0.064c-0.1,-0.027 -0.199,-0.049 -0.298,-0.066c-0.099,-0.018 -0.193,-0.035 -0.282,-0.052c-0.089,-0.016 -0.183,-0.033 -0.282,-0.051c-0.099,-0.017 -0.198,-0.034 -0.297,-0.049c-0.098,-0.016 -0.192,-0.033 -0.281,-0.051c-0.09,-0.019 -0.185,-0.037 -0.286,-0.054c-0.102,-0.017 -0.196,-0.029 -0.284,-0.037c-0.088,-0.007 -0.176,-0.02 -0.266,-0.039c-0.089,-0.019 -0.182,-0.031 -0.28,-0.037c-0.097,-0.007 -0.191,-0.019 -0.28,-0.038c-0.089,-0.019 -0.173,-0.032 -0.251,-0.041c-0.078,-0.009 -0.163,-0.022 -0.254,-0.041c-0.092,-0.018 -0.177,-0.036 -0.257,-0.054c-0.079,-0.018 -0.157,-0.032 -0.236,-0.043c-0.078,-0.011 -0.157,-0.025 -0.236,-0.043c-0.079,-0.018 -0.159,-0.032 -0.24,-0.043c-0.081,-0.01 -0.161,-0.024 -0.24,-0.042c-0.079,-0.018 -0.153,-0.033 -0.221,-0.045c-0.069,-0.012 -0.142,-0.022 -0.22,-0.031c-0.078,-0.009 -0.152,-0.019 -0.223,-0.031c-0.071,-0.011 -0.142,-0.026 -0.211,-0.046c-0.069,-0.019 -0.139,-0.029 -0.209,-0.029c-0.069,-0.001 -0.133,-0.008 -0.192,-0.021c-0.058,-0.013 -0.127,-0.024 -0.205,-0.033c-0.078,-0.009 -0.147,-0.014 -0.207,-0.016c-0.059,-0.002 -0.118,-0.005 -0.176,-0.009c-0.057,-0.003 -0.121,-0.006 -0.19,-0.006c-0.07,-0.001 -0.134,-0.002 -0.191,-0.004c-0.057,-0.002 -0.115,-0.005 -0.172,-0.007c-0.057,-0.002 -0.121,-0.003 -0.19,-0.003c-0.07,-0.001 -0.133,-0.003 -0.191,-0.007c-0.057,-0.004 -0.121,-0.002 -0.189,0.007c-0.068,0.008 -0.164,0.02 -0.286,0.035c-0.122,0.016 -0.213,0.023 -0.273,0.021c-0.059,-0.002 -0.147,0 -0.263,0.005c-0.116,0.005 -0.207,0.012 -0.273,0.02c-0.066,0.008 -0.147,0.014 -0.244,0.017c-0.096,0.002 -0.174,0.003 -0.234,0.001c-0.06,-0.002 -0.119,-0.004 -0.176,-0.008c-0.058,-0.004 -0.139,0 -0.244,0.014c-0.105,0.013 -0.205,0.025 -0.301,0.037c-0.095,0.012 -0.195,0.025 -0.3,0.038c-0.105,0.013 -0.21,0.026 -0.315,0.039c-0.105,0.014 -0.21,0.027 -0.316,0.04c-0.105,0.013 -0.205,0.026 -0.3,0.038c-0.095,0.012 -0.185,0.029 -0.269,0.05c-0.084,0.022 -0.168,0.047 -0.251,0.076c-0.083,0.029 -0.168,0.054 -0.255,0.074c-0.087,0.02 -0.167,0.045 -0.24,0.075c-0.074,0.03 -0.147,0.054 -0.222,0.072c-0.075,0.019 -0.149,0.042 -0.222,0.07c-0.073,0.028 -0.148,0.057 -0.224,0.087c-0.075,0.03 -0.15,0.059 -0.223,0.086c-0.074,0.028 -0.147,0.062 -0.219,0.101c-0.072,0.038 -0.145,0.072 -0.218,0.099c-0.073,0.028 -0.142,0.066 -0.205,0.113c-0.064,0.047 -0.128,0.084 -0.191,0.11c-0.064,0.027 -0.123,0.063 -0.176,0.109c-0.054,0.046 -0.108,0.081 -0.162,0.107c-0.054,0.025 -0.107,0.061 -0.158,0.106c-0.051,0.046 -0.104,0.087 -0.159,0.123c-0.055,0.037 -0.114,0.073 -0.177,0.109c-0.062,0.036 -0.12,0.076 -0.174,0.122c-0.054,0.046 -0.107,0.092 -0.158,0.137c-0.051,0.046 -0.099,0.087 -0.145,0.122c-0.045,0.036 -0.098,0.081 -0.157,0.137c-0.06,0.056 -0.112,0.106 -0.157,0.151c-0.044,0.045 -0.086,0.094 -0.126,0.147c-0.041,0.053 -0.088,0.102 -0.142,0.146c-0.054,0.044 -0.101,0.099 -0.14,0.163c-0.039,0.064 -0.08,0.118 -0.125,0.161c-0.044,0.042 -0.09,0.097 -0.139,0.162c-0.049,0.066 -0.094,0.13 -0.136,0.193c-0.042,0.063 -0.081,0.135 -0.118,0.216c-0.037,0.081 -0.071,0.158 -0.102,0.23c-0.03,0.073 -0.064,0.15 -0.101,0.231c-0.037,0.081 -0.076,0.159 -0.116,0.233c-0.04,0.073 -0.08,0.146 -0.118,0.218c-0.038,0.072 -0.077,0.145 -0.117,0.219c-0.041,0.074 -0.08,0.146 -0.118,0.218c-0.039,0.072 -0.072,0.149 -0.102,0.231c-0.029,0.082 -0.055,0.153 -0.077,0.213c-0.022,0.061 -0.043,0.136 -0.061,0.226c-0.019,0.089 -0.042,0.17 -0.071,0.24c-0.028,0.071 -0.053,0.142 -0.073,0.213c-0.021,0.072 -0.043,0.138 -0.065,0.198c-0.022,0.061 -0.043,0.121 -0.063,0.181c-0.019,0.06 -0.045,0.126 -0.076,0.197c-0.03,0.071 -0.051,0.141 -0.062,0.211c-0.011,0.071 -0.031,0.146 -0.058,0.225c-0.027,0.08 -0.051,0.156 -0.072,0.227c-0.021,0.072 -0.042,0.138 -0.064,0.198c-0.023,0.061 -0.039,0.125 -0.051,0.193c-0.011,0.069 -0.018,0.133 -0.02,0.193c-0.002,0.06 -0.004,0.119 -0.004,0.176c0,0.058 -0.006,0.121 -0.017,0.19c-0.012,0.068 -0.018,0.131 -0.021,0.189c-0.003,0.058 -0.004,0.126 -0.004,0.205c0,0.078 -0.002,0.146 -0.004,0.204c-0.003,0.058 -0.001,0.116 0.007,0.175c0.007,0.059 0.009,0.117 0.007,0.175c-0.003,0.058 0,0.12 0.008,0.186c0.008,0.066 0.011,0.128 0.009,0.186c-0.003,0.058 0,0.121 0.008,0.189c0.009,0.067 0.013,0.14 0.013,0.216c-0.001,0.076 0.004,0.153 0.014,0.23c0.009,0.077 0.013,0.144 0.01,0.202c-0.002,0.058 0.001,0.126 0.011,0.203c0.009,0.077 0.018,0.144 0.025,0.2c0.007,0.057 0.015,0.119 0.023,0.185c0.008,0.065 0.016,0.128 0.023,0.186c0.008,0.059 0.015,0.121 0.024,0.187c0.008,0.066 0.016,0.132 0.025,0.198c0.008,0.066 0.016,0.129 0.023,0.187c0.007,0.059 0.015,0.117 0.022,0.173c0.007,0.057 0.029,0.112 0.065,0.165c0.037,0.053 0.079,0.111 0.126,0.174c0.048,0.063 0.094,0.125 0.139,0.187c0.045,0.061 0.09,0.118 0.137,0.17c0.046,0.052 0.093,0.109 0.141,0.172c0.047,0.063 0.088,0.126 0.123,0.188c0.036,0.063 0.071,0.121 0.108,0.174c0.036,0.053 0.078,0.111 0.126,0.174c0.048,0.063 0.093,0.115 0.135,0.159c0.043,0.043 0.087,0.09 0.134,0.142c0.046,0.052 0.092,0.108 0.14,0.17c0.047,0.06 0.088,0.118 0.122,0.171c0.034,0.054 0.069,0.108 0.106,0.163c0.037,0.055 0.073,0.109 0.11,0.162c0.036,0.053 0.072,0.111 0.107,0.174c0.035,0.062 0.076,0.12 0.122,0.174c0.047,0.054 0.099,0.111 0.156,0.17c0.057,0.06 0.107,0.112 0.149,0.155c0.043,0.043 0.092,0.085 0.147,0.127c0.055,0.041 0.109,0.087 0.162,0.138c0.054,0.051 0.104,0.103 0.15,0.154c0.046,0.052 0.096,0.099 0.148,0.141c0.052,0.042 0.106,0.084 0.161,0.125c0.054,0.042 0.113,0.083 0.175,0.123c0.062,0.041 0.116,0.083 0.161,0.125c0.045,0.043 0.095,0.085 0.15,0.127c0.055,0.041 0.104,0.083 0.146,0.127c0.043,0.043 0.092,0.09 0.148,0.143c0.057,0.052 0.116,0.099 0.178,0.14c0.062,0.04 0.121,0.086 0.177,0.136c0.056,0.051 0.11,0.097 0.163,0.139c0.052,0.042 0.101,0.084 0.146,0.127c0.045,0.043 0.086,0.091 0.122,0.144c0.037,0.053 0.076,0.101 0.119,0.144c0.043,0.043 0.097,0.089 0.162,0.139c0.066,0.049 0.125,0.09 0.176,0.123c0.051,0.033 0.104,0.065 0.157,0.097c0.054,0.033 0.107,0.07 0.159,0.112c0.053,0.042 0.107,0.083 0.161,0.125c0.055,0.041 0.108,0.078 0.159,0.111c0.052,0.033 0.109,0.059 0.17,0.079c0.063,0.02 0.124,0.046 0.185,0.078c0.061,0.031 0.124,0.067 0.189,0.107c0.064,0.04 0.132,0.076 0.203,0.106c0.071,0.03 0.138,0.061 0.201,0.092c0.064,0.031 0.121,0.063 0.172,0.096c0.052,0.032 0.111,0.053 0.179,0.063c0.069,0.011 0.138,0.016 0.207,0.016c0.07,0.001 0.134,0.008 0.193,0.021c0.058,0.013 0.118,0.025 0.179,0.036c0.061,0.011 0.121,0.028 0.181,0.05c0.06,0.022 0.122,0.048 0.185,0.077c0.063,0.03 0.129,0.05 0.198,0.062c0.068,0.012 0.136,0.023 0.205,0.033c0.068,0.01 0.128,0.027 0.181,0.05c0.053,0.023 0.107,0.036 0.165,0.038c0.057,0.002 0.112,0.015 0.165,0.038c0.052,0.023 0.113,0.04 0.181,0.05c0.068,0.01 0.138,0.025 0.21,0.046c0.072,0.021 0.149,0.044 0.229,0.071c0.08,0.028 0.151,0.057 0.212,0.088c0.061,0.032 0.123,0.063 0.187,0.094c0.063,0.031 0.13,0.062 0.201,0.092c0.071,0.03 0.136,0.056 0.196,0.076c0.059,0.021 0.128,0.026 0.207,0.016c0.078,-0.01 0.144,-0.023 0.199,-0.039l0.083,-0.024" style="fill:none;stroke:#000;stroke-width:1.72px;"/><path id="STROKE_C91C7EE4.-70C0.-4907.-BEFB.-9373C3CC62B0" d="M64.004,57.36c-0.132,0.017 -0.227,0.029 -0.286,0.036c-0.059,0.008 -0.121,0.016 -0.187,0.024c-0.066,0.008 -0.131,0.021 -0.196,0.038c-0.065,0.018 -0.143,0.047 -0.235,0.088c-0.091,0.042 -0.187,0.093 -0.285,0.154c-0.1,0.06 -0.177,0.104 -0.234,0.129c-0.056,0.026 -0.116,0.053 -0.179,0.081c-0.064,0.029 -0.129,0.057 -0.195,0.083c-0.066,0.027 -0.135,0.056 -0.209,0.085c-0.073,0.03 -0.146,0.059 -0.22,0.086c-0.073,0.028 -0.146,0.062 -0.218,0.101c-0.072,0.038 -0.151,0.073 -0.237,0.102c-0.085,0.029 -0.164,0.063 -0.236,0.102c-0.072,0.039 -0.15,0.068 -0.235,0.088c-0.084,0.02 -0.168,0.045 -0.251,0.074c-0.083,0.029 -0.167,0.058 -0.25,0.089c-0.082,0.031 -0.167,0.061 -0.252,0.091c-0.086,0.029 -0.17,0.064 -0.251,0.104c-0.082,0.04 -0.165,0.075 -0.248,0.103c-0.083,0.03 -0.166,0.06 -0.249,0.09c-0.084,0.031 -0.167,0.057 -0.251,0.077c-0.085,0.02 -0.164,0.039 -0.239,0.058c-0.074,0.018 -0.15,0.037 -0.227,0.056c-0.077,0.019 -0.148,0.037 -0.213,0.054c-0.065,0.018 -0.13,0.031 -0.196,0.039c-0.066,0.008 -0.128,0.022 -0.185,0.04c-0.057,0.018 -0.143,0.035 -0.258,0.049c-0.115,0.015 -0.225,0.028 -0.33,0.042c-0.105,0.013 -0.21,0.026 -0.315,0.039c-0.105,0.013 -0.215,0.027 -0.33,0.041c-0.115,0.015 -0.22,0.028 -0.315,0.04c-0.096,0.012 -0.201,0.025 -0.315,0.04c-0.115,0.014 -0.206,0.025 -0.272,0.033c-0.066,0.009 -0.156,0.02 -0.271,0.035c-0.115,0.014 -0.205,0.025 -0.271,0.033c-0.066,0.009 -0.133,0.017 -0.202,0.026c-0.068,0.009 -0.168,0.021 -0.3,0.038c-0.132,0.016 -0.232,0.029 -0.301,0.037c-0.068,0.009 -0.135,0.017 -0.201,0.025c-0.066,0.009 -0.161,0.025 -0.284,0.05c-0.124,0.025 -0.237,0.049 -0.341,0.071c-0.104,0.022 -0.189,0.038 -0.255,0.046c-0.066,0.008 -0.129,0.016 -0.187,0.023c-0.059,0.008 -0.139,0.018 -0.242,0.031c-0.103,0.012 -0.211,0.026 -0.326,0.041c-0.115,0.014 -0.22,0.027 -0.316,0.039c-0.095,0.012 -0.191,0.024 -0.289,0.036c-0.098,0.013 -0.194,0.025 -0.289,0.037c-0.096,0.012 -0.191,0.024 -0.286,0.035c-0.096,0.013 -0.186,0.024 -0.271,0.035c-0.086,0.01 -0.171,0.026 -0.255,0.045c-0.085,0.02 -0.174,0.041 -0.268,0.062c-0.094,0.021 -0.188,0.043 -0.282,0.066c-0.094,0.023 -0.193,0.041 -0.299,0.054c-0.105,0.013 -0.186,0.024 -0.245,0.031c-0.059,0.007 -0.144,0.018 -0.257,0.032c-0.112,0.014 -0.203,0.026 -0.271,0.034c-0.068,0.009 -0.156,0.01 -0.264,0.003c-0.108,-0.007 -0.191,-0.016 -0.249,-0.028c-0.058,-0.011 -0.117,-0.018 -0.177,-0.019c-0.06,-0.002 -0.14,-0.012 -0.239,-0.029c-0.098,-0.017 -0.177,-0.032 -0.236,-0.043c-0.058,-0.011 -0.141,-0.021 -0.249,-0.028c-0.107,-0.007 -0.21,-0.013 -0.308,-0.019c-0.097,-0.007 -0.199,-0.003 -0.303,0.01c-0.106,0.013 -0.206,0.021 -0.303,0.024c-0.096,0.003 -0.192,0.01 -0.287,0.022c-0.096,0.012 -0.191,0.024 -0.286,0.036c-0.095,0.012 -0.192,0.024 -0.29,0.036c-0.097,0.012 -0.189,0.024 -0.275,0.035c-0.085,0.01 -0.176,0.022 -0.271,0.033c-0.095,0.012 -0.2,0.026 -0.315,0.04c-0.115,0.015 -0.22,0.028 -0.315,0.04c-0.095,0.011 -0.191,0.023 -0.286,0.036c-0.095,0.011 -0.19,0.028 -0.284,0.049c-0.094,0.021 -0.188,0.047 -0.281,0.077c-0.093,0.03 -0.186,0.062 -0.279,0.094c-0.092,0.032 -0.179,0.067 -0.262,0.105c-0.082,0.038 -0.164,0.073 -0.247,0.104c-0.083,0.031 -0.167,0.066 -0.251,0.104c-0.085,0.039 -0.164,0.073 -0.237,0.102c-0.073,0.03 -0.146,0.063 -0.218,0.1c-0.073,0.037 -0.14,0.075 -0.202,0.112c-0.062,0.038 -0.127,0.07 -0.193,0.097c-0.066,0.027 -0.131,0.054 -0.194,0.083c-0.064,0.028 -0.128,0.056 -0.195,0.083c-0.066,0.027 -0.13,0.053 -0.194,0.08c-0.064,0.027 -0.132,0.06 -0.204,0.098c-0.072,0.039 -0.144,0.078 -0.216,0.117c-0.072,0.038 -0.144,0.087 -0.216,0.144c-0.073,0.058 -0.144,0.109 -0.215,0.155c-0.071,0.047 -0.142,0.098 -0.212,0.155c-0.069,0.058 -0.136,0.11 -0.2,0.157c-0.063,0.047 -0.126,0.094 -0.187,0.141c-0.061,0.046 -0.117,0.092 -0.168,0.138c-0.052,0.045 -0.109,0.096 -0.171,0.153c-0.063,0.056 -0.129,0.108 -0.2,0.156c-0.071,0.048 -0.132,0.094 -0.184,0.138c-0.052,0.043 -0.099,0.087 -0.143,0.132c-0.044,0.044 -0.092,0.094 -0.142,0.149c-0.05,0.055 -0.097,0.109 -0.139,0.162c-0.043,0.054 -0.081,0.107 -0.115,0.16c-0.033,0.053 -0.069,0.106 -0.11,0.159c-0.04,0.054 -0.089,0.118 -0.147,0.194c-0.057,0.077 -0.102,0.141 -0.135,0.193c-0.034,0.053 -0.072,0.106 -0.115,0.16c-0.042,0.053 -0.084,0.107 -0.125,0.16c-0.04,0.054 -0.076,0.112 -0.108,0.173c-0.032,0.062 -0.064,0.119 -0.094,0.171c-0.031,0.053 -0.057,0.109 -0.08,0.169c-0.022,0.061 -0.049,0.122 -0.081,0.184c-0.032,0.061 -0.057,0.123 -0.077,0.185c-0.02,0.062 -0.04,0.123 -0.062,0.184c-0.023,0.06 -0.04,0.125 -0.051,0.193c-0.011,0.069 -0.028,0.133 -0.05,0.194c-0.022,0.06 -0.034,0.125 -0.035,0.194c-0.001,0.069 -0.006,0.137 -0.015,0.206c-0.009,0.068 -0.014,0.136 -0.015,0.205c-0.002,0.069 0.001,0.132 0.009,0.189c0.007,0.057 0.014,0.118 0.023,0.184c0.008,0.066 0.016,0.133 0.025,0.201c0.008,0.068 0.016,0.13 0.023,0.187c0.007,0.057 0.015,0.118 0.023,0.184c0.008,0.066 0.016,0.128 0.024,0.187c0.007,0.059 0.02,0.12 0.038,0.185c0.018,0.065 0.039,0.124 0.063,0.179c0.025,0.055 0.045,0.11 0.062,0.165c0.017,0.056 0.039,0.112 0.066,0.168c0.027,0.056 0.073,0.114 0.14,0.172c0.067,0.059 0.142,0.112 0.225,0.159c0.083,0.047 0.154,0.082 0.214,0.104c0.06,0.023 0.121,0.044 0.183,0.064c0.062,0.02 0.132,0.031 0.209,0.033c0.077,0.001 0.159,0.001 0.246,-0.001c0.086,-0.001 0.182,-0.008 0.287,-0.022l0.158,-0.02" style="fill:none;stroke:#000;stroke-width:1.72px;"/><path id="STROKE_7F9FA43B.-9E08.-4B1D.-9670.-A26E3CB505C7" d="M104.141,46.865c-0.014,-0.114 -0.025,-0.204 -0.034,-0.27c-0.008,-0.066 -0.017,-0.137 -0.026,-0.214c-0.01,-0.077 -0.032,-0.147 -0.068,-0.209c-0.035,-0.063 -0.083,-0.139 -0.144,-0.228c-0.06,-0.089 -0.116,-0.179 -0.167,-0.269c-0.051,-0.091 -0.094,-0.164 -0.128,-0.219c-0.035,-0.055 -0.07,-0.109 -0.106,-0.163c-0.037,-0.053 -0.073,-0.106 -0.109,-0.159c-0.037,-0.053 -0.085,-0.129 -0.145,-0.228c-0.059,-0.098 -0.125,-0.201 -0.199,-0.309c-0.073,-0.109 -0.126,-0.189 -0.16,-0.243c-0.034,-0.053 -0.065,-0.112 -0.093,-0.175c-0.028,-0.064 -0.06,-0.123 -0.097,-0.178c-0.036,-0.055 -0.069,-0.114 -0.097,-0.178c-0.027,-0.063 -0.059,-0.132 -0.096,-0.205c-0.036,-0.074 -0.069,-0.142 -0.097,-0.206c-0.027,-0.063 -0.055,-0.127 -0.083,-0.19c-0.028,-0.064 -0.056,-0.128 -0.084,-0.194c-0.028,-0.065 -0.056,-0.134 -0.085,-0.207c-0.029,-0.073 -0.058,-0.142 -0.086,-0.207c-0.028,-0.065 -0.05,-0.135 -0.067,-0.209c-0.017,-0.075 -0.039,-0.144 -0.067,-0.209c-0.028,-0.066 -0.056,-0.126 -0.082,-0.18c-0.027,-0.055 -0.054,-0.114 -0.082,-0.177c-0.028,-0.064 -0.056,-0.128 -0.084,-0.193c-0.028,-0.065 -0.05,-0.126 -0.067,-0.182c-0.017,-0.055 -0.039,-0.116 -0.064,-0.181c-0.026,-0.066 -0.052,-0.131 -0.08,-0.194c-0.028,-0.064 -0.051,-0.128 -0.069,-0.193c-0.018,-0.064 -0.042,-0.134 -0.071,-0.208c-0.029,-0.075 -0.058,-0.144 -0.085,-0.207c-0.028,-0.064 -0.052,-0.134 -0.071,-0.209c-0.02,-0.076 -0.04,-0.157 -0.06,-0.241c-0.021,-0.085 -0.041,-0.165 -0.06,-0.239c-0.019,-0.074 -0.038,-0.153 -0.056,-0.238c-0.018,-0.085 -0.037,-0.17 -0.058,-0.255c-0.021,-0.085 -0.041,-0.17 -0.062,-0.255c-0.02,-0.085 -0.041,-0.17 -0.061,-0.255c-0.021,-0.085 -0.046,-0.164 -0.075,-0.236c-0.029,-0.073 -0.053,-0.147 -0.072,-0.223c-0.02,-0.075 -0.039,-0.151 -0.059,-0.227c-0.019,-0.076 -0.043,-0.145 -0.07,-0.209c-0.028,-0.063 -0.051,-0.123 -0.068,-0.178c-0.016,-0.056 -0.049,-0.129 -0.098,-0.22c-0.048,-0.091 -0.098,-0.181 -0.149,-0.271c-0.051,-0.091 -0.1,-0.172 -0.146,-0.245c-0.047,-0.072 -0.099,-0.143 -0.157,-0.212c-0.058,-0.069 -0.116,-0.143 -0.174,-0.224c-0.057,-0.08 -0.115,-0.16 -0.175,-0.24c-0.06,-0.08 -0.122,-0.155 -0.188,-0.225c-0.066,-0.07 -0.129,-0.144 -0.188,-0.222c-0.059,-0.078 -0.122,-0.152 -0.188,-0.222c-0.066,-0.07 -0.133,-0.14 -0.201,-0.209c-0.068,-0.07 -0.135,-0.139 -0.201,-0.207c-0.066,-0.068 -0.136,-0.127 -0.212,-0.177c-0.076,-0.05 -0.146,-0.105 -0.211,-0.164c-0.064,-0.059 -0.13,-0.117 -0.197,-0.176c-0.067,-0.059 -0.128,-0.123 -0.184,-0.195c-0.056,-0.071 -0.118,-0.141 -0.187,-0.211c-0.068,-0.069 -0.13,-0.139 -0.186,-0.208c-0.056,-0.069 -0.108,-0.14 -0.157,-0.212c-0.048,-0.072 -0.101,-0.143 -0.157,-0.212c-0.055,-0.069 -0.107,-0.136 -0.155,-0.198c-0.047,-0.063 -0.095,-0.125 -0.142,-0.186c-0.048,-0.061 -0.094,-0.128 -0.141,-0.2c-0.046,-0.073 -0.093,-0.145 -0.142,-0.217c-0.049,-0.072 -0.102,-0.153 -0.161,-0.242c-0.058,-0.09 -0.112,-0.174 -0.162,-0.254c-0.05,-0.079 -0.104,-0.159 -0.164,-0.239c-0.06,-0.08 -0.113,-0.16 -0.161,-0.242c-0.047,-0.082 -0.096,-0.163 -0.146,-0.244c-0.05,-0.081 -0.103,-0.157 -0.158,-0.226c-0.056,-0.069 -0.108,-0.135 -0.156,-0.198c-0.047,-0.063 -0.095,-0.13 -0.144,-0.2c-0.048,-0.07 -0.096,-0.141 -0.142,-0.214c-0.046,-0.072 -0.098,-0.138 -0.155,-0.198c-0.057,-0.06 -0.104,-0.127 -0.141,-0.2c-0.036,-0.074 -0.079,-0.147 -0.127,-0.219c-0.049,-0.072 -0.097,-0.138 -0.145,-0.199c-0.047,-0.062 -0.09,-0.133 -0.127,-0.216c-0.038,-0.083 -0.087,-0.169 -0.148,-0.258c-0.061,-0.089 -0.117,-0.183 -0.17,-0.283c-0.052,-0.1 -0.102,-0.195 -0.151,-0.285c-0.048,-0.091 -0.103,-0.181 -0.164,-0.27c-0.061,-0.089 -0.115,-0.175 -0.162,-0.256c-0.048,-0.082 -0.095,-0.153 -0.142,-0.214c-0.048,-0.061 -0.09,-0.119 -0.126,-0.174c-0.037,-0.055 -0.087,-0.107 -0.15,-0.157c-0.064,-0.05 -0.128,-0.099 -0.194,-0.149c-0.066,-0.049 -0.125,-0.095 -0.177,-0.137c-0.053,-0.042 -0.111,-0.083 -0.176,-0.123c-0.065,-0.04 -0.128,-0.081 -0.19,-0.121c-0.062,-0.041 -0.121,-0.087 -0.177,-0.137c-0.056,-0.051 -0.116,-0.102 -0.179,-0.154c-0.064,-0.051 -0.125,-0.107 -0.182,-0.167c-0.057,-0.06 -0.112,-0.115 -0.166,-0.166c-0.053,-0.051 -0.103,-0.102 -0.149,-0.155c-0.046,-0.051 -0.092,-0.104 -0.136,-0.158c-0.044,-0.054 -0.088,-0.103 -0.133,-0.145c-0.045,-0.043 -0.104,-0.089 -0.177,-0.137c-0.073,-0.049 -0.148,-0.097 -0.223,-0.145c-0.076,-0.049 -0.14,-0.094 -0.192,-0.136c-0.053,-0.041 -0.106,-0.083 -0.161,-0.124c-0.055,-0.042 -0.114,-0.083 -0.176,-0.124c-0.062,-0.04 -0.121,-0.086 -0.177,-0.136c-0.056,-0.051 -0.106,-0.103 -0.15,-0.155c-0.044,-0.052 -0.093,-0.105 -0.15,-0.157c-0.056,-0.052 -0.111,-0.109 -0.166,-0.169c-0.055,-0.06 -0.105,-0.116 -0.151,-0.168c-0.046,-0.052 -0.098,-0.104 -0.154,-0.157c-0.056,-0.052 -0.111,-0.104 -0.165,-0.155c-0.053,-0.051 -0.112,-0.096 -0.177,-0.137c-0.065,-0.04 -0.134,-0.085 -0.207,-0.133c-0.073,-0.049 -0.146,-0.102 -0.221,-0.159c-0.074,-0.058 -0.159,-0.115 -0.256,-0.172c-0.096,-0.057 -0.186,-0.113 -0.27,-0.17c-0.084,-0.056 -0.173,-0.108 -0.265,-0.154c-0.093,-0.046 -0.186,-0.093 -0.278,-0.141c-0.093,-0.048 -0.181,-0.095 -0.264,-0.142c-0.083,-0.048 -0.168,-0.1 -0.254,-0.156c-0.087,-0.056 -0.182,-0.112 -0.286,-0.168c-0.103,-0.055 -0.202,-0.111 -0.296,-0.166c-0.094,-0.056 -0.187,-0.111 -0.281,-0.166c-0.094,-0.055 -0.167,-0.094 -0.22,-0.118c-0.052,-0.023 -0.125,-0.062 -0.219,-0.117c-0.094,-0.055 -0.182,-0.108 -0.265,-0.157c-0.084,-0.049 -0.167,-0.097 -0.25,-0.145c-0.082,-0.047 -0.166,-0.089 -0.25,-0.127c-0.084,-0.038 -0.172,-0.076 -0.264,-0.112c-0.091,-0.037 -0.181,-0.065 -0.27,-0.084c-0.09,-0.018 -0.184,-0.04 -0.284,-0.065c-0.1,-0.024 -0.18,-0.048 -0.24,-0.07c-0.06,-0.022 -0.12,-0.039 -0.181,-0.05c-0.061,-0.011 -0.151,-0.024 -0.269,-0.039c-0.118,-0.015 -0.207,-0.028 -0.266,-0.039c-0.058,-0.011 -0.117,-0.019 -0.177,-0.023c-0.06,-0.003 -0.124,-0.005 -0.191,-0.006c-0.067,-0.001 -0.13,-0.007 -0.189,-0.018c-0.058,-0.012 -0.146,-0.02 -0.263,-0.026c-0.118,-0.006 -0.231,-0.016 -0.339,-0.03c-0.109,-0.014 -0.212,-0.025 -0.31,-0.034c-0.097,-0.008 -0.196,-0.02 -0.294,-0.035c-0.099,-0.016 -0.199,-0.032 -0.301,-0.049c-0.101,-0.017 -0.2,-0.029 -0.298,-0.035c-0.098,-0.007 -0.196,-0.019 -0.295,-0.036c-0.099,-0.017 -0.177,-0.027 -0.234,-0.029c-0.058,-0.002 -0.141,-0.011 -0.25,-0.027c-0.108,-0.017 -0.216,-0.027 -0.324,-0.033c-0.107,-0.005 -0.191,-0.013 -0.252,-0.024c-0.061,-0.011 -0.12,-0.018 -0.178,-0.022c-0.057,-0.004 -0.115,-0.007 -0.172,-0.009c-0.058,-0.002 -0.117,-0.009 -0.178,-0.02c-0.061,-0.011 -0.12,-0.023 -0.179,-0.036c-0.059,-0.013 -0.118,-0.02 -0.178,-0.022c-0.06,-0.002 -0.123,-0.003 -0.19,-0.004c-0.067,-0.001 -0.155,-0.004 -0.262,-0.01c-0.107,-0.005 -0.192,-0.014 -0.253,-0.026c-0.061,-0.013 -0.14,-0.023 -0.238,-0.029c-0.097,-0.007 -0.2,-0.013 -0.308,-0.02c-0.107,-0.007 -0.215,-0.013 -0.322,-0.018c-0.107,-0.005 -0.21,-0.011 -0.307,-0.017c-0.098,-0.007 -0.176,-0.012 -0.233,-0.016c-0.058,-0.004 -0.116,-0.007 -0.176,-0.009c-0.06,-0.001 -0.119,-0.003 -0.176,-0.005c-0.057,-0.003 -0.134,-0.002 -0.231,0.001c-0.096,0.002 -0.202,0.011 -0.317,0.025c-0.114,0.015 -0.22,0.023 -0.316,0.026c-0.097,0.003 -0.174,0.002 -0.231,-0.002c-0.058,-0.003 -0.137,-0.008 -0.237,-0.015c-0.1,-0.006 -0.179,-0.01 -0.236,-0.012c-0.057,-0.002 -0.138,0.003 -0.244,0.017c-0.105,0.013 -0.186,0.018 -0.243,0.016c-0.057,-0.002 -0.134,-0.002 -0.231,-0.001c-0.097,0.001 -0.194,0.003 -0.293,0.006c-0.099,0.003 -0.197,0.006 -0.293,0.008c-0.097,0.003 -0.174,0.003 -0.231,0.001c-0.057,-0.002 -0.139,0.004 -0.244,0.017c-0.105,0.013 -0.187,0.019 -0.247,0.017c-0.06,-0.002 -0.146,0.005 -0.258,0.019c-0.112,0.014 -0.198,0.024 -0.257,0.032c-0.058,0.007 -0.121,0.015 -0.187,0.023c-0.066,0.009 -0.128,0.016 -0.186,0.024c-0.059,0.007 -0.121,0.015 -0.187,0.023c-0.067,0.008 -0.162,0.02 -0.286,0.036c-0.125,0.015 -0.245,0.03 -0.359,0.045c-0.115,0.014 -0.226,0.023 -0.332,0.025c-0.107,0.002 -0.213,0.005 -0.319,0.009c-0.107,0.004 -0.207,0.012 -0.302,0.024c-0.096,0.012 -0.191,0.024 -0.286,0.036c-0.096,0.012 -0.196,0.025 -0.301,0.038c-0.105,0.013 -0.215,0.027 -0.33,0.041c-0.115,0.014 -0.225,0.028 -0.33,0.042c-0.105,0.013 -0.205,0.025 -0.3,0.037c-0.095,0.012 -0.191,0.024 -0.286,0.036c-0.095,0.012 -0.191,0.019 -0.288,0.022c-0.096,0.003 -0.188,0.005 -0.274,0.007c-0.087,0.001 -0.174,-0.003 -0.262,-0.012c-0.088,-0.01 -0.171,-0.014 -0.248,-0.014c-0.076,0.001 -0.155,0.001 -0.234,0.002c-0.079,0 -0.157,0.006 -0.233,0.015c-0.075,0.009 -0.156,0.02 -0.242,0.03c-0.085,0.011 -0.17,0.022 -0.256,0.033c-0.086,0.01 -0.172,0.021 -0.26,0.032c-0.088,0.011 -0.175,0.022 -0.26,0.033c-0.086,0.011 -0.171,0.021 -0.257,0.032c-0.085,0.011 -0.175,0.031 -0.268,0.061c-0.093,0.031 -0.181,0.057 -0.265,0.079c-0.084,0.021 -0.164,0.037 -0.24,0.046c-0.076,0.01 -0.157,0.029 -0.242,0.059c-0.086,0.029 -0.166,0.053 -0.241,0.071c-0.074,0.019 -0.154,0.034 -0.24,0.045c-0.085,0.01 -0.18,0.027 -0.284,0.049c-0.104,0.023 -0.202,0.054 -0.293,0.096c-0.092,0.041 -0.164,0.08 -0.217,0.116c-0.052,0.036 -0.107,0.063 -0.164,0.079c-0.058,0.017 -0.137,0.051 -0.237,0.103c-0.1,0.051 -0.176,0.099 -0.228,0.143c-0.051,0.043 -0.124,0.081 -0.216,0.113c-0.093,0.033 -0.184,0.078 -0.273,0.138c-0.09,0.06 -0.177,0.109 -0.261,0.147c-0.085,0.039 -0.168,0.078 -0.25,0.118c-0.082,0.04 -0.158,0.08 -0.23,0.119c-0.072,0.038 -0.15,0.072 -0.233,0.101c-0.084,0.029 -0.167,0.058 -0.25,0.087c-0.083,0.029 -0.17,0.069 -0.261,0.12c-0.09,0.05 -0.183,0.091 -0.278,0.124c-0.095,0.032 -0.175,0.062 -0.238,0.088c-0.064,0.027 -0.142,0.061 -0.233,0.102c-0.092,0.042 -0.165,0.075 -0.218,0.1c-0.054,0.026 -0.132,0.059 -0.234,0.102c-0.101,0.042 -0.207,0.085 -0.318,0.127c-0.112,0.041 -0.19,0.08 -0.235,0.115c-0.045,0.036 -0.119,0.074 -0.221,0.115c-0.101,0.04 -0.178,0.079 -0.231,0.115c-0.052,0.037 -0.107,0.068 -0.163,0.093c-0.056,0.026 -0.111,0.057 -0.163,0.093c-0.053,0.037 -0.124,0.08 -0.215,0.131c-0.09,0.05 -0.163,0.093 -0.218,0.128c-0.055,0.035 -0.123,0.081 -0.202,0.139c-0.08,0.059 -0.166,0.109 -0.257,0.15c-0.092,0.041 -0.173,0.086 -0.244,0.134c-0.071,0.048 -0.139,0.09 -0.204,0.126c-0.065,0.036 -0.133,0.073 -0.205,0.112c-0.072,0.039 -0.139,0.082 -0.2,0.128c-0.061,0.047 -0.128,0.09 -0.2,0.129c-0.072,0.039 -0.14,0.076 -0.205,0.112c-0.065,0.036 -0.123,0.077 -0.175,0.123c-0.051,0.045 -0.104,0.086 -0.159,0.123c-0.055,0.037 -0.104,0.076 -0.146,0.119c-0.041,0.042 -0.094,0.087 -0.158,0.134c-0.063,0.047 -0.121,0.093 -0.172,0.139c-0.051,0.045 -0.102,0.096 -0.153,0.15c-0.05,0.055 -0.107,0.106 -0.17,0.153c-0.064,0.047 -0.12,0.102 -0.169,0.166c-0.049,0.064 -0.1,0.123 -0.153,0.178c-0.052,0.055 -0.1,0.105 -0.141,0.15c-0.042,0.044 -0.084,0.093 -0.127,0.146c-0.043,0.054 -0.089,0.108 -0.14,0.163c-0.05,0.055 -0.101,0.114 -0.152,0.178c-0.051,0.065 -0.102,0.129 -0.151,0.192c-0.049,0.064 -0.095,0.119 -0.139,0.163c-0.045,0.045 -0.096,0.104 -0.153,0.178c-0.058,0.075 -0.115,0.154 -0.171,0.24c-0.057,0.085 -0.12,0.165 -0.189,0.241c-0.07,0.076 -0.134,0.152 -0.192,0.228c-0.057,0.076 -0.11,0.146 -0.16,0.21c-0.049,0.064 -0.104,0.124 -0.167,0.18c-0.062,0.056 -0.118,0.112 -0.169,0.166c-0.05,0.055 -0.101,0.11 -0.154,0.165c-0.053,0.055 -0.109,0.11 -0.169,0.166c-0.06,0.056 -0.115,0.111 -0.165,0.166c-0.05,0.055 -0.097,0.109 -0.14,0.163c-0.043,0.054 -0.081,0.107 -0.114,0.159c-0.033,0.053 -0.07,0.101 -0.112,0.146c-0.042,0.044 -0.091,0.103 -0.149,0.177c-0.058,0.075 -0.108,0.134 -0.152,0.179c-0.044,0.044 -0.083,0.093 -0.116,0.145c-0.033,0.053 -0.075,0.107 -0.125,0.161c-0.05,0.055 -0.097,0.109 -0.14,0.163c-0.043,0.054 -0.085,0.103 -0.127,0.147c-0.041,0.044 -0.083,0.098 -0.124,0.161c-0.042,0.063 -0.079,0.121 -0.109,0.173c-0.031,0.052 -0.062,0.109 -0.094,0.171c-0.032,0.061 -0.065,0.119 -0.098,0.171c-0.033,0.052 -0.059,0.11 -0.079,0.172c-0.019,0.062 -0.046,0.119 -0.079,0.172c-0.033,0.052 -0.065,0.114 -0.096,0.185c-0.03,0.071 -0.061,0.132 -0.092,0.185c-0.03,0.052 -0.057,0.108 -0.079,0.168c-0.022,0.061 -0.05,0.118 -0.083,0.17c-0.033,0.053 -0.059,0.11 -0.079,0.172c-0.019,0.062 -0.04,0.128 -0.061,0.197c-0.021,0.07 -0.042,0.14 -0.063,0.209c-0.021,0.07 -0.046,0.141 -0.074,0.214c-0.028,0.072 -0.053,0.138 -0.075,0.199c-0.023,0.06 -0.054,0.127 -0.094,0.199c-0.041,0.072 -0.071,0.139 -0.09,0.201c-0.02,0.062 -0.045,0.128 -0.076,0.199c-0.031,0.071 -0.063,0.133 -0.096,0.185c-0.033,0.053 -0.069,0.11 -0.109,0.173c-0.039,0.063 -0.06,0.123 -0.063,0.181c-0.002,0.058 0,0.116 0.007,0.175c0.008,0.059 0.04,0.089 0.097,0.091l0.087,0.003" style="fill:none;stroke:#000;stroke-width:1.72px;"/><path id="STROKE_39611A74.-5AC7.-4656.-9228.-64880875AD49" d="M64.334,40.936c-0.061,-0.163 -0.104,-0.273 -0.131,-0.329c-0.027,-0.056 -0.063,-0.106 -0.108,-0.149c-0.045,-0.043 -0.091,-0.099 -0.137,-0.17c-0.046,-0.07 -0.097,-0.131 -0.153,-0.182c-0.056,-0.05 -0.126,-0.109 -0.212,-0.177c-0.085,-0.067 -0.168,-0.14 -0.247,-0.217c-0.079,-0.078 -0.167,-0.154 -0.263,-0.229c-0.096,-0.076 -0.192,-0.146 -0.287,-0.21c-0.095,-0.065 -0.195,-0.134 -0.302,-0.208c-0.106,-0.074 -0.185,-0.132 -0.237,-0.174c-0.053,-0.042 -0.106,-0.079 -0.16,-0.111c-0.053,-0.033 -0.111,-0.065 -0.172,-0.096c-0.061,-0.031 -0.119,-0.068 -0.173,-0.11c-0.055,-0.041 -0.14,-0.093 -0.254,-0.155c-0.115,-0.062 -0.203,-0.108 -0.264,-0.14c-0.061,-0.031 -0.118,-0.063 -0.172,-0.095c-0.053,-0.033 -0.111,-0.065 -0.172,-0.096c-0.061,-0.031 -0.139,-0.07 -0.234,-0.116c-0.095,-0.046 -0.173,-0.084 -0.234,-0.116c-0.061,-0.031 -0.132,-0.066 -0.214,-0.104c-0.082,-0.038 -0.174,-0.08 -0.276,-0.125c-0.103,-0.044 -0.196,-0.086 -0.28,-0.124c-0.085,-0.038 -0.172,-0.075 -0.264,-0.112c-0.091,-0.037 -0.178,-0.074 -0.259,-0.112c-0.082,-0.038 -0.159,-0.077 -0.231,-0.117c-0.072,-0.039 -0.145,-0.074 -0.218,-0.104c-0.073,-0.029 -0.14,-0.06 -0.201,-0.091c-0.061,-0.032 -0.128,-0.057 -0.199,-0.076c-0.072,-0.019 -0.138,-0.035 -0.196,-0.048c-0.059,-0.013 -0.123,-0.025 -0.191,-0.035c-0.068,-0.01 -0.142,-0.014 -0.221,-0.014c-0.079,0.001 -0.162,0.007 -0.248,0.017c-0.085,0.011 -0.17,0.022 -0.256,0.032c-0.085,0.011 -0.171,0.022 -0.257,0.033c-0.085,0.01 -0.171,0.021 -0.256,0.032c-0.086,0.01 -0.168,0.021 -0.246,0.031c-0.078,0.01 -0.155,0.019 -0.23,0.029c-0.076,0.009 -0.146,0.027 -0.21,0.054c-0.063,0.026 -0.132,0.054 -0.205,0.081c-0.074,0.028 -0.144,0.056 -0.209,0.085c-0.066,0.029 -0.135,0.067 -0.206,0.115c-0.07,0.048 -0.142,0.091 -0.214,0.128c-0.073,0.037 -0.145,0.084 -0.217,0.142c-0.072,0.057 -0.139,0.109 -0.2,0.156c-0.061,0.046 -0.126,0.103 -0.195,0.169c-0.068,0.067 -0.137,0.134 -0.205,0.202c-0.069,0.068 -0.132,0.144 -0.191,0.228c-0.059,0.083 -0.117,0.163 -0.175,0.239c-0.057,0.077 -0.103,0.141 -0.136,0.193c-0.033,0.053 -0.077,0.131 -0.131,0.235c-0.054,0.103 -0.106,0.192 -0.156,0.265c-0.05,0.073 -0.098,0.156 -0.144,0.25c-0.045,0.093 -0.09,0.186 -0.136,0.279c-0.045,0.093 -0.086,0.191 -0.123,0.292c-0.037,0.101 -0.071,0.188 -0.102,0.258c-0.031,0.071 -0.06,0.142 -0.089,0.212c-0.028,0.071 -0.053,0.138 -0.075,0.2c-0.022,0.062 -0.044,0.124 -0.066,0.184c-0.023,0.06 -0.044,0.121 -0.063,0.181c-0.02,0.06 -0.045,0.131 -0.074,0.213c-0.03,0.082 -0.059,0.163 -0.089,0.243c-0.029,0.08 -0.058,0.161 -0.085,0.242c-0.027,0.082 -0.05,0.163 -0.07,0.244c-0.019,0.08 -0.04,0.155 -0.061,0.225c-0.021,0.07 -0.036,0.144 -0.046,0.224c-0.01,0.079 -0.02,0.153 -0.028,0.221c-0.009,0.068 -0.014,0.141 -0.014,0.219c0,0.078 0.005,0.16 0.016,0.244c0.011,0.084 0.021,0.165 0.03,0.242c0.01,0.077 0.019,0.148 0.027,0.214c0.008,0.066 0.017,0.133 0.025,0.201c0.009,0.068 0.017,0.135 0.026,0.201c0.008,0.066 0.016,0.133 0.025,0.2c0.008,0.068 0.017,0.135 0.025,0.201c0.008,0.066 0.016,0.127 0.023,0.184c0.007,0.057 0.015,0.119 0.024,0.187c0.008,0.068 0.016,0.135 0.025,0.201c0.008,0.066 0.016,0.127 0.023,0.184c0.007,0.057 0.015,0.119 0.023,0.187c0.009,0.068 0.017,0.13 0.023,0.187c0.008,0.056 0.016,0.118 0.024,0.184c0.008,0.066 0.016,0.133 0.025,0.201c0.008,0.067 0.016,0.13 0.023,0.186c0.008,0.057 0.02,0.118 0.038,0.183c0.018,0.065 0.053,0.118 0.106,0.16c0.052,0.041 0.105,0.078 0.159,0.111c0.054,0.032 0.107,0.069 0.159,0.111c0.052,0.042 0.111,0.083 0.176,0.123c0.064,0.04 0.127,0.076 0.188,0.108c0.061,0.031 0.124,0.067 0.189,0.107c0.064,0.041 0.133,0.085 0.206,0.133c0.073,0.049 0.135,0.09 0.187,0.122c0.051,0.033 0.103,0.066 0.157,0.098c0.054,0.032 0.111,0.064 0.172,0.096c0.061,0.031 0.123,0.057 0.185,0.077c0.062,0.02 0.128,0.045 0.199,0.075c0.071,0.031 0.138,0.061 0.202,0.093c0.063,0.031 0.129,0.057 0.199,0.078c0.07,0.021 0.131,0.046 0.185,0.077c0.053,0.031 0.11,0.057 0.17,0.079c0.06,0.022 0.119,0.045 0.179,0.067c0.06,0.022 0.132,0.052 0.216,0.09c0.084,0.038 0.156,0.063 0.214,0.074c0.059,0.011 0.119,0.028 0.182,0.05c0.062,0.022 0.122,0.038 0.181,0.05c0.058,0.011 0.122,0.027 0.192,0.048c0.07,0.021 0.146,0.045 0.229,0.072c0.082,0.027 0.153,0.047 0.212,0.06c0.059,0.013 0.122,0.025 0.19,0.035c0.069,0.01 0.138,0.015 0.207,0.016c0.07,0 0.139,0.006 0.207,0.018c0.069,0.012 0.138,0.018 0.207,0.019c0.07,0 0.133,0.002 0.191,0.004c0.057,0.002 0.119,0.003 0.186,0.004c0.067,0.001 0.13,-0.002 0.189,-0.009c0.058,-0.008 0.131,-0.017 0.216,-0.027c0.086,-0.011 0.171,-0.022 0.257,-0.033c0.085,-0.01 0.171,-0.021 0.256,-0.032c0.086,-0.011 0.171,-0.021 0.257,-0.032c0.085,-0.011 0.177,-0.022 0.275,-0.035c0.097,-0.012 0.184,-0.023 0.26,-0.032c0.076,-0.01 0.145,-0.028 0.209,-0.054c0.064,-0.027 0.112,-0.067 0.145,-0.119l0.05,-0.079" style="fill:none;stroke:#000;stroke-width:1.72px;"/><path id="STROKE_94E50EA4.-9A96.-4EC5.-8CE3.-349DED7B18D7" d="M63.916,39.509c-0.016,-0.132 -0.029,-0.232 -0.037,-0.299c-0.009,-0.068 -0.018,-0.14 -0.027,-0.215c-0.01,-0.075 -0.018,-0.147 -0.027,-0.214c-0.009,-0.068 -0.007,-0.136 0.004,-0.205c0.011,-0.068 0.027,-0.138 0.048,-0.21c0.021,-0.071 0.045,-0.147 0.072,-0.226c0.027,-0.08 0.063,-0.142 0.107,-0.187c0.044,-0.044 0.096,-0.095 0.156,-0.151c0.06,-0.056 0.117,-0.107 0.171,-0.152c0.054,-0.046 0.107,-0.086 0.16,-0.121c0.053,-0.034 0.111,-0.075 0.174,-0.122c0.064,-0.047 0.136,-0.091 0.218,-0.131c0.082,-0.04 0.168,-0.085 0.259,-0.136c0.09,-0.05 0.182,-0.09 0.275,-0.121c0.093,-0.03 0.167,-0.053 0.222,-0.069c0.055,-0.016 0.116,-0.033 0.184,-0.051c0.067,-0.018 0.158,-0.034 0.272,-0.049c0.115,-0.014 0.225,-0.028 0.331,-0.041c0.104,-0.013 0.21,-0.026 0.315,-0.04c0.105,-0.013 0.205,-0.02 0.302,-0.023c0.096,-0.003 0.199,0.008 0.309,0.033c0.11,0.026 0.211,0.057 0.302,0.094c0.092,0.037 0.183,0.073 0.275,0.11c0.091,0.037 0.178,0.075 0.26,0.113c0.081,0.038 0.162,0.071 0.243,0.098c0.08,0.027 0.152,0.056 0.216,0.087c0.063,0.032 0.124,0.058 0.185,0.08c0.059,0.023 0.122,0.054 0.186,0.094c0.065,0.04 0.119,0.082 0.161,0.125c0.043,0.043 0.082,0.091 0.119,0.145c0.036,0.053 0.078,0.11 0.125,0.171c0.048,0.061 0.085,0.119 0.112,0.176c0.027,0.056 0.064,0.124 0.111,0.204c0.047,0.079 0.096,0.164 0.147,0.255c0.051,0.09 0.097,0.181 0.139,0.273c0.041,0.091 0.086,0.183 0.135,0.276c0.049,0.092 0.088,0.18 0.118,0.262c0.03,0.081 0.06,0.159 0.089,0.234c0.03,0.074 0.059,0.149 0.088,0.223c0.029,0.075 0.057,0.149 0.084,0.222c0.026,0.073 0.05,0.152 0.07,0.237c0.021,0.085 0.036,0.17 0.047,0.256c0.011,0.086 0.023,0.177 0.034,0.272c0.012,0.095 0.024,0.191 0.036,0.286c0.012,0.095 0.024,0.191 0.036,0.286c0.012,0.095 0.023,0.186 0.034,0.272c0.011,0.086 0.023,0.181 0.036,0.286c0.013,0.104 0.026,0.204 0.038,0.299c0.012,0.096 0.021,0.172 0.028,0.229c0.008,0.056 0.018,0.143 0.033,0.258c0.014,0.115 0.027,0.221 0.039,0.316c0.012,0.095 0.024,0.191 0.036,0.286c0.012,0.095 0.024,0.19 0.036,0.286c0.012,0.095 0.018,0.186 0.019,0.271c0.001,0.086 -0.006,0.178 -0.021,0.276c-0.015,0.099 -0.036,0.194 -0.065,0.285c-0.028,0.091 -0.057,0.177 -0.086,0.259c-0.03,0.082 -0.059,0.154 -0.089,0.215c-0.029,0.061 -0.06,0.123 -0.092,0.185c-0.032,0.061 -0.067,0.129 -0.105,0.203c-0.038,0.073 -0.073,0.136 -0.106,0.189c-0.034,0.052 -0.07,0.115 -0.111,0.187c-0.04,0.072 -0.08,0.145 -0.118,0.218c-0.037,0.074 -0.072,0.146 -0.103,0.217c-0.031,0.071 -0.065,0.142 -0.103,0.214c-0.038,0.072 -0.073,0.144 -0.103,0.217c-0.031,0.073 -0.066,0.136 -0.107,0.189c-0.04,0.054 -0.077,0.111 -0.108,0.173c-0.033,0.062 -0.07,0.119 -0.113,0.173c-0.043,0.054 -0.089,0.108 -0.139,0.163c-0.051,0.054 -0.101,0.109 -0.151,0.164c-0.05,0.055 -0.107,0.106 -0.171,0.153c-0.063,0.047 -0.126,0.093 -0.187,0.14c-0.061,0.047 -0.123,0.088 -0.186,0.124c-0.062,0.036 -0.131,0.069 -0.206,0.099c-0.076,0.03 -0.151,0.059 -0.224,0.086c-0.074,0.028 -0.158,0.053 -0.252,0.074c-0.094,0.021 -0.17,0.04 -0.227,0.056c-0.057,0.017 -0.114,0.034 -0.169,0.052c-0.054,0.018 -0.138,0.044 -0.25,0.076c-0.113,0.033 -0.202,0.058 -0.267,0.075c-0.064,0.018 -0.13,0.035 -0.198,0.053c-0.067,0.018 -0.137,0.042 -0.21,0.071c-0.074,0.03 -0.142,0.058 -0.206,0.085c-0.063,0.026 -0.133,0.049 -0.207,0.067c-0.075,0.019 -0.15,0.044 -0.225,0.073c-0.076,0.03 -0.151,0.059 -0.224,0.087c-0.074,0.028 -0.147,0.057 -0.22,0.086c-0.073,0.03 -0.152,0.055 -0.237,0.075c-0.084,0.02 -0.164,0.044 -0.24,0.072c-0.076,0.028 -0.151,0.052 -0.225,0.073c-0.075,0.02 -0.154,0.04 -0.238,0.06c-0.085,0.02 -0.17,0.035 -0.255,0.046c-0.086,0.011 -0.167,0.026 -0.244,0.045c-0.077,0.019 -0.158,0.034 -0.244,0.044c-0.085,0.011 -0.166,0.021 -0.242,0.031c-0.075,0.009 -0.151,0.019 -0.227,0.028c-0.076,0.01 -0.148,0.019 -0.216,0.027c-0.069,0.009 -0.141,0.018 -0.216,0.028c-0.076,0.009 -0.147,0.018 -0.213,0.026c-0.066,0.008 -0.137,0.017 -0.213,0.027c-0.075,0.009 -0.152,0.019 -0.23,0.029l-0.118,0.015" style="fill:none;stroke:#000;stroke-width:1.72px;"/><path id="STROKE_B80FD9BF.-2A30.-49AC.-935B.-55070AA97F64" d="M53.534,39.533c-0.152,0.019 -0.263,0.013 -0.334,-0.017c-0.071,-0.03 -0.134,-0.066 -0.188,-0.107c-0.055,-0.042 -0.111,-0.097 -0.167,-0.167c-0.055,-0.069 -0.113,-0.139 -0.171,-0.21c-0.059,-0.071 -0.121,-0.146 -0.188,-0.225c-0.067,-0.079 -0.13,-0.153 -0.188,-0.222c-0.059,-0.069 -0.116,-0.139 -0.172,-0.21c-0.056,-0.071 -0.117,-0.136 -0.184,-0.195c-0.067,-0.059 -0.134,-0.123 -0.199,-0.193c-0.066,-0.069 -0.138,-0.138 -0.216,-0.207c-0.078,-0.068 -0.164,-0.13 -0.258,-0.186c-0.094,-0.055 -0.188,-0.115 -0.283,-0.182c-0.095,-0.066 -0.17,-0.114 -0.223,-0.145c-0.054,-0.03 -0.106,-0.062 -0.157,-0.094c-0.052,-0.033 -0.104,-0.066 -0.158,-0.098c-0.054,-0.032 -0.106,-0.065 -0.157,-0.098c-0.052,-0.032 -0.125,-0.081 -0.22,-0.145c-0.095,-0.064 -0.169,-0.113 -0.223,-0.145c-0.053,-0.033 -0.103,-0.07 -0.148,-0.113c-0.045,-0.043 -0.111,-0.102 -0.197,-0.179c-0.087,-0.077 -0.178,-0.152 -0.274,-0.228c-0.097,-0.075 -0.167,-0.134 -0.212,-0.177c-0.045,-0.043 -0.089,-0.086 -0.132,-0.129c-0.042,-0.043 -0.086,-0.086 -0.131,-0.128c-0.046,-0.043 -0.111,-0.098 -0.196,-0.166c-0.086,-0.067 -0.156,-0.122 -0.211,-0.163c-0.054,-0.042 -0.13,-0.099 -0.226,-0.173c-0.096,-0.073 -0.187,-0.144 -0.272,-0.211c-0.085,-0.068 -0.176,-0.135 -0.271,-0.201c-0.095,-0.066 -0.17,-0.115 -0.223,-0.145c-0.053,-0.031 -0.128,-0.084 -0.225,-0.159c-0.096,-0.075 -0.171,-0.129 -0.225,-0.162c-0.053,-0.032 -0.106,-0.064 -0.157,-0.097c-0.051,-0.033 -0.104,-0.07 -0.159,-0.111c-0.055,-0.042 -0.109,-0.084 -0.161,-0.125c-0.052,-0.042 -0.105,-0.079 -0.159,-0.112c-0.054,-0.032 -0.107,-0.069 -0.159,-0.111c-0.053,-0.042 -0.106,-0.083 -0.161,-0.125c-0.055,-0.041 -0.125,-0.095 -0.21,-0.161c-0.086,-0.065 -0.151,-0.119 -0.195,-0.162c-0.046,-0.043 -0.105,-0.094 -0.18,-0.153c-0.074,-0.06 -0.149,-0.119 -0.223,-0.176c-0.074,-0.058 -0.15,-0.116 -0.227,-0.176c-0.077,-0.059 -0.152,-0.113 -0.225,-0.162c-0.073,-0.048 -0.151,-0.1 -0.235,-0.157c-0.084,-0.056 -0.17,-0.114 -0.256,-0.172c-0.087,-0.058 -0.172,-0.115 -0.256,-0.171c-0.085,-0.057 -0.169,-0.113 -0.253,-0.17c-0.084,-0.056 -0.168,-0.113 -0.252,-0.172c-0.084,-0.058 -0.164,-0.111 -0.24,-0.159c-0.075,-0.049 -0.144,-0.098 -0.208,-0.147c-0.063,-0.05 -0.128,-0.1 -0.193,-0.149c-0.066,-0.05 -0.13,-0.095 -0.192,-0.135c-0.062,-0.041 -0.125,-0.082 -0.187,-0.122c-0.062,-0.041 -0.12,-0.077 -0.174,-0.109c-0.053,-0.033 -0.112,-0.074 -0.175,-0.124c-0.064,-0.049 -0.123,-0.095 -0.177,-0.137c-0.055,-0.041 -0.114,-0.083 -0.176,-0.125c-0.063,-0.043 -0.127,-0.089 -0.192,-0.138c-0.066,-0.05 -0.13,-0.095 -0.192,-0.135c-0.063,-0.041 -0.122,-0.087 -0.178,-0.137c-0.056,-0.051 -0.115,-0.097 -0.177,-0.137c-0.062,-0.041 -0.116,-0.087 -0.163,-0.139c-0.046,-0.052 -0.095,-0.099 -0.148,-0.141c-0.052,-0.041 -0.101,-0.088 -0.147,-0.14c-0.046,-0.052 -0.092,-0.099 -0.137,-0.142c-0.045,-0.043 -0.1,-0.09 -0.163,-0.142c-0.064,-0.051 -0.123,-0.098 -0.178,-0.139c-0.055,-0.042 -0.112,-0.073 -0.172,-0.093c-0.059,-0.021 -0.126,-0.046 -0.199,-0.076c-0.073,-0.029 -0.15,-0.054 -0.229,-0.074c-0.079,-0.02 -0.158,-0.034 -0.236,-0.043c-0.078,-0.009 -0.146,-0.019 -0.205,-0.03c-0.058,-0.012 -0.118,-0.019 -0.178,-0.023c-0.06,-0.003 -0.132,0 -0.218,0.011c-0.085,0.011 -0.157,0.02 -0.216,0.027c-0.059,0.007 -0.121,0.015 -0.187,0.023c-0.066,0.009 -0.137,0.018 -0.213,0.027c-0.075,0.01 -0.142,0.018 -0.201,0.025c-0.059,0.008 -0.121,0.016 -0.187,0.024c-0.066,0.008 -0.126,0.026 -0.18,0.053c-0.053,0.027 -0.108,0.058 -0.163,0.093c-0.055,0.035 -0.114,0.071 -0.176,0.109c-0.062,0.037 -0.12,0.079 -0.174,0.125c-0.054,0.046 -0.116,0.093 -0.187,0.141c-0.071,0.048 -0.137,0.094 -0.198,0.139c-0.062,0.045 -0.129,0.096 -0.201,0.154c-0.072,0.057 -0.147,0.121 -0.226,0.19c-0.078,0.069 -0.147,0.132 -0.207,0.188c-0.06,0.056 -0.124,0.112 -0.194,0.169c-0.07,0.057 -0.131,0.118 -0.182,0.182c-0.052,0.065 -0.103,0.124 -0.153,0.179c-0.05,0.054 -0.092,0.108 -0.125,0.161c-0.033,0.052 -0.07,0.105 -0.11,0.158c-0.041,0.054 -0.077,0.107 -0.11,0.16c-0.034,0.052 -0.066,0.114 -0.096,0.184c-0.031,0.071 -0.066,0.139 -0.105,0.204c-0.039,0.064 -0.074,0.132 -0.105,0.203c-0.031,0.07 -0.06,0.147 -0.087,0.228c-0.027,0.082 -0.055,0.162 -0.085,0.242c-0.029,0.081 -0.06,0.157 -0.09,0.23c-0.031,0.072 -0.055,0.143 -0.074,0.213c-0.019,0.069 -0.043,0.139 -0.074,0.21c-0.031,0.071 -0.062,0.138 -0.094,0.202c-0.032,0.063 -0.057,0.13 -0.075,0.199c-0.019,0.069 -0.039,0.139 -0.06,0.208c-0.021,0.07 -0.047,0.141 -0.077,0.214c-0.031,0.073 -0.055,0.148 -0.073,0.227c-0.017,0.078 -0.035,0.158 -0.055,0.239c-0.02,0.08 -0.035,0.16 -0.044,0.24c-0.01,0.079 -0.02,0.158 -0.03,0.235c-0.011,0.078 -0.016,0.151 -0.017,0.22c-0.002,0.069 -0.008,0.138 -0.019,0.206c-0.012,0.069 -0.017,0.132 -0.017,0.189c-0.001,0.058 -0.002,0.117 -0.005,0.177c-0.002,0.06 -0.004,0.123 -0.005,0.19c-0.002,0.068 -0.003,0.135 -0.005,0.202c-0.001,0.067 0.002,0.13 0.009,0.189c0.007,0.058 0.016,0.13 0.027,0.214c0.01,0.084 0.02,0.16 0.028,0.228c0.009,0.068 0.017,0.135 0.026,0.201c0.008,0.066 0.016,0.133 0.025,0.201c0.008,0.067 0.017,0.134 0.025,0.2c0.008,0.066 0.017,0.138 0.027,0.215c0.01,0.077 0.018,0.143 0.025,0.2c0.007,0.057 0.014,0.114 0.022,0.171c0.006,0.056 0.014,0.113 0.021,0.17c0.007,0.057 0.024,0.113 0.051,0.169c0.027,0.057 0.052,0.112 0.077,0.167c0.024,0.055 0.055,0.118 0.094,0.189c0.039,0.072 0.072,0.135 0.099,0.191c0.026,0.057 0.054,0.117 0.082,0.18c0.027,0.064 0.05,0.128 0.068,0.192c0.018,0.065 0.041,0.126 0.068,0.182c0.027,0.056 0.047,0.112 0.062,0.168c0.014,0.056 0.03,0.112 0.047,0.167c0.017,0.056 0.038,0.111 0.065,0.165c0.027,0.054 0.049,0.109 0.065,0.165c0.017,0.056 0.039,0.111 0.066,0.168c0.027,0.056 0.054,0.111 0.081,0.165c0.026,0.055 0.054,0.114 0.081,0.177c0.028,0.064 0.06,0.128 0.095,0.192c0.036,0.065 0.077,0.127 0.124,0.188c0.048,0.061 0.099,0.123 0.154,0.185c0.055,0.062 0.105,0.119 0.151,0.171c0.047,0.051 0.097,0.094 0.15,0.126c0.054,0.033 0.102,0.07 0.145,0.113c0.042,0.043 0.091,0.08 0.144,0.111c0.053,0.03 0.106,0.066 0.159,0.108c0.052,0.042 0.101,0.084 0.146,0.127c0.045,0.043 0.099,0.084 0.161,0.125c0.062,0.04 0.12,0.077 0.173,0.109c0.054,0.033 0.112,0.065 0.173,0.096c0.06,0.031 0.122,0.058 0.184,0.08c0.063,0.022 0.134,0.047 0.214,0.074c0.081,0.027 0.15,0.047 0.209,0.06c0.059,0.013 0.119,0.025 0.179,0.036c0.061,0.011 0.121,0.023 0.18,0.036c0.059,0.013 0.129,0.029 0.211,0.047c0.081,0.017 0.158,0.041 0.228,0.071c0.071,0.031 0.136,0.051 0.194,0.063c0.059,0.011 0.118,0.023 0.18,0.035c0.061,0.014 0.121,0.026 0.179,0.037c0.059,0.011 0.128,0.022 0.209,0.032c0.081,0.01 0.15,0.021 0.209,0.033c0.058,0.011 0.121,0.017 0.188,0.018c0.067,0.001 0.131,0.002 0.19,0.004c0.06,0.002 0.12,0.009 0.178,0.022c0.059,0.013 0.118,0.021 0.178,0.023c0.06,0.002 0.118,0.004 0.176,0.006c0.057,0.002 0.125,0.013 0.205,0.032c0.079,0.02 0.154,0.03 0.223,0.031c0.07,0.001 0.138,0.001 0.205,0.002c0.068,0.001 0.14,0.001 0.216,0.001c0.077,0 0.161,0 0.25,0c0.089,0 0.177,-0.006 0.262,-0.017c0.086,-0.011 0.181,-0.022 0.286,-0.035c0.105,-0.014 0.205,-0.026 0.3,-0.038c0.096,-0.012 0.186,-0.024 0.272,-0.034c0.085,-0.011 0.171,-0.022 0.256,-0.032c0.086,-0.011 0.171,-0.022 0.257,-0.033c0.085,-0.01 0.163,-0.015 0.232,-0.015c0.07,0.001 0.144,0.011 0.224,0.031c0.079,0.02 0.158,0.034 0.236,0.043c0.078,0.009 0.157,0.023 0.236,0.043c0.08,0.019 0.165,0.038 0.256,0.054c0.092,0.017 0.182,0.034 0.271,0.053c0.09,0.018 0.183,0.031 0.28,0.037c0.098,0.006 0.19,0.009 0.277,0.007c0.087,-0.001 0.173,-0.007 0.258,-0.018c0.086,-0.011 0.166,-0.021 0.242,-0.03c0.076,-0.01 0.153,-0.02 0.231,-0.029c0.078,-0.01 0.16,-0.021 0.246,-0.031c0.085,-0.011 0.17,-0.022 0.256,-0.032c0.085,-0.011 0.161,-0.021 0.227,-0.029c0.066,-0.008 0.133,-0.017 0.202,-0.025c0.068,-0.009 0.145,-0.019 0.231,-0.029c0.085,-0.011 0.176,-0.022 0.271,-0.034c0.095,-0.012 0.195,-0.025 0.3,-0.038c0.105,-0.013 0.191,-0.024 0.257,-0.032c0.066,-0.008 0.151,-0.019 0.256,-0.032c0.105,-0.014 0.187,-0.024 0.246,-0.031c0.059,-0.007 0.14,-0.018 0.246,-0.031c0.105,-0.013 0.219,-0.027 0.344,-0.043c0.125,-0.016 0.243,-0.03 0.355,-0.045c0.113,-0.014 0.198,-0.025 0.257,-0.032c0.059,-0.007 0.145,-0.018 0.26,-0.033c0.115,-0.014 0.205,-0.03 0.27,-0.047c0.065,-0.018 0.126,-0.03 0.185,-0.037c0.059,-0.008 0.115,-0.02 0.17,-0.036c0.055,-0.016 0.111,-0.032 0.166,-0.049c0.055,-0.016 0.13,-0.04 0.225,-0.072c0.095,-0.033 0.17,-0.057 0.225,-0.073c0.055,-0.017 0.124,-0.039 0.208,-0.068c0.083,-0.029 0.161,-0.059 0.234,-0.088c0.073,-0.03 0.153,-0.059 0.239,-0.089c0.085,-0.029 0.165,-0.058 0.238,-0.086c0.074,-0.027 0.152,-0.057 0.235,-0.087c0.083,-0.031 0.166,-0.061 0.249,-0.091c0.083,-0.029 0.162,-0.053 0.236,-0.074c0.075,-0.02 0.141,-0.034 0.2,-0.042c0.059,-0.007 0.121,-0.015 0.187,-0.023c0.066,-0.008 0.037,-0.005 -0.088,0.011c-0.125,0.016 -0.235,0.029 -0.33,0.041c-0.095,0.012 -0.204,0.026 -0.326,0.041c-0.122,0.015 -0.245,0.036 -0.368,0.063l-0.185,0.04" style="fill:none;stroke:#000;stroke-width:1.72px;"/><path id="STROKE_C8C3E651.-A870.-425C.-89A6.-F51D67C39191" d="M39.677,43.856c0.022,0.173 0.027,0.293 0.016,0.361c-0.012,0.069 -0.022,0.147 -0.03,0.236c-0.009,0.088 -0.015,0.162 -0.017,0.22c-0.003,0.058 -0.005,0.117 -0.005,0.176c0,0.06 0,0.123 -0.002,0.19c-0.001,0.067 0.003,0.139 0.013,0.216c0.009,0.077 0.014,0.154 0.014,0.23c-0.001,0.077 0.004,0.158 0.015,0.244c0.011,0.086 0.022,0.173 0.033,0.259c0.01,0.086 0.022,0.176 0.034,0.272c0.012,0.095 0.024,0.195 0.037,0.299c0.014,0.105 0.026,0.205 0.038,0.3c0.012,0.095 0.024,0.195 0.038,0.299c0.013,0.105 0.03,0.204 0.052,0.298c0.022,0.094 0.051,0.183 0.089,0.265c0.038,0.083 0.072,0.167 0.102,0.25c0.03,0.084 0.07,0.162 0.119,0.234c0.048,0.072 0.092,0.139 0.129,0.201c0.038,0.062 0.078,0.12 0.122,0.172c0.044,0.052 0.106,0.122 0.187,0.209c0.08,0.086 0.146,0.146 0.197,0.179c0.051,0.032 0.124,0.077 0.218,0.134c0.094,0.057 0.187,0.109 0.28,0.155c0.092,0.046 0.186,0.092 0.281,0.137c0.095,0.046 0.173,0.08 0.233,0.103c0.06,0.022 0.13,0.052 0.212,0.09c0.082,0.038 0.16,0.077 0.234,0.116c0.075,0.039 0.148,0.078 0.22,0.117c0.072,0.04 0.148,0.073 0.228,0.1c0.081,0.027 0.151,0.043 0.211,0.047c0.06,0.003 0.133,0 0.218,-0.011c0.086,-0.011 0.176,-0.022 0.271,-0.034c0.095,-0.012 0.186,-0.023 0.271,-0.034c0.086,-0.011 0.171,-0.022 0.257,-0.032c0.085,-0.011 0.167,-0.021 0.245,-0.031c0.078,-0.01 0.16,-0.02 0.246,-0.031c0.086,-0.011 0.161,-0.02 0.227,-0.028c0.066,-0.009 0.129,-0.017 0.187,-0.024c0.059,-0.007 0.121,-0.015 0.187,-0.023c0.066,-0.009 0.137,-0.017 0.212,-0.027c0.076,-0.01 0.147,-0.018 0.213,-0.026c0.066,-0.009 0.133,-0.017 0.202,-0.026c0.068,-0.009 0.14,-0.018 0.216,-0.027c0.076,-0.009 0.161,-0.02 0.257,-0.032c0.095,-0.012 0.185,-0.023 0.271,-0.034c0.085,-0.011 0.176,-0.022 0.271,-0.034c0.095,-0.012 0.172,-0.022 0.231,-0.029c0.058,-0.008 0.135,-0.017 0.231,-0.029c0.095,-0.012 0.195,-0.025 0.3,-0.038c0.105,-0.013 0.21,-0.026 0.315,-0.039c0.105,-0.014 0.21,-0.027 0.315,-0.04c0.106,-0.013 0.22,-0.028 0.345,-0.043c0.125,-0.016 0.244,-0.031 0.359,-0.045c0.115,-0.015 0.229,-0.029 0.341,-0.043c0.112,-0.014 0.203,-0.025 0.271,-0.034c0.068,-0.009 0.135,-0.022 0.2,-0.042c0.064,-0.019 0.13,-0.038 0.198,-0.055c0.067,-0.018 0.132,-0.04 0.196,-0.067c0.063,-0.026 0.122,-0.053 0.176,-0.081c0.053,-0.027 0.113,-0.054 0.18,-0.081c0.066,-0.027 0.126,-0.053 0.179,-0.078c0.054,-0.025 0.113,-0.057 0.175,-0.095c0.062,-0.037 0.126,-0.07 0.193,-0.096c0.066,-0.027 0.125,-0.054 0.179,-0.082c0.054,-0.027 0.114,-0.054 0.18,-0.081c0.066,-0.027 0.126,-0.048 0.181,-0.064c0.056,-0.017 0.134,-0.046 0.235,-0.088c0.101,-0.043 0.185,-0.073 0.25,-0.09c0.064,-0.018 0.125,-0.04 0.181,-0.068c0.056,-0.027 0.111,-0.054 0.165,-0.079c0.054,-0.025 0.109,-0.046 0.167,-0.063c0.057,-0.016 0.136,-0.055 0.235,-0.116c0.099,-0.061 0.182,-0.13 0.249,-0.207c0.067,-0.077 0.112,-0.146 0.134,-0.207l0.034,-0.09" style="fill:none;stroke:#000;stroke-width:1.72px;"/><path id="STROKE_9938230A.-924E.-40F1.-B921.-554AB8737B9A" d="M71.399,38.861c-0.014,-0.114 -0.016,-0.206 -0.005,-0.276c0.011,-0.07 0.033,-0.132 0.066,-0.184c0.034,-0.053 0.071,-0.106 0.111,-0.159c0.04,-0.054 0.081,-0.112 0.123,-0.175c0.042,-0.063 0.09,-0.141 0.145,-0.236c0.056,-0.094 0.108,-0.178 0.159,-0.252c0.05,-0.073 0.102,-0.166 0.154,-0.278c0.053,-0.113 0.091,-0.2 0.113,-0.26c0.022,-0.061 0.055,-0.148 0.098,-0.261c0.043,-0.113 0.075,-0.2 0.097,-0.261c0.023,-0.06 0.048,-0.126 0.076,-0.196c0.029,-0.071 0.053,-0.142 0.074,-0.213c0.021,-0.072 0.047,-0.143 0.077,-0.214c0.031,-0.071 0.061,-0.137 0.091,-0.198c0.029,-0.062 0.059,-0.129 0.09,-0.202c0.031,-0.072 0.061,-0.144 0.092,-0.215c0.031,-0.071 0.065,-0.143 0.103,-0.217c0.038,-0.073 0.073,-0.145 0.103,-0.216c0.031,-0.071 0.066,-0.142 0.104,-0.214c0.038,-0.072 0.077,-0.145 0.118,-0.219c0.04,-0.074 0.079,-0.147 0.117,-0.219c0.039,-0.071 0.083,-0.139 0.135,-0.203c0.051,-0.065 0.101,-0.134 0.148,-0.209c0.048,-0.075 0.098,-0.144 0.15,-0.208c0.051,-0.065 0.101,-0.129 0.15,-0.192c0.049,-0.064 0.099,-0.134 0.149,-0.209c0.05,-0.075 0.1,-0.14 0.151,-0.195c0.05,-0.054 0.101,-0.114 0.152,-0.178c0.052,-0.064 0.098,-0.123 0.138,-0.176c0.041,-0.054 0.087,-0.108 0.14,-0.163c0.052,-0.055 0.1,-0.105 0.141,-0.149c0.042,-0.044 0.085,-0.089 0.129,-0.133c0.044,-0.045 0.086,-0.094 0.126,-0.148c0.041,-0.053 0.083,-0.101 0.127,-0.144c0.045,-0.043 0.088,-0.086 0.129,-0.131c0.042,-0.044 0.085,-0.088 0.129,-0.133c0.044,-0.045 0.086,-0.094 0.126,-0.147c0.041,-0.053 0.083,-0.102 0.127,-0.147c0.044,-0.045 0.087,-0.089 0.128,-0.133c0.042,-0.045 0.091,-0.085 0.146,-0.119c0.055,-0.035 0.131,-0.093 0.227,-0.174c0.097,-0.081 0.176,-0.144 0.237,-0.189c0.062,-0.045 0.12,-0.086 0.175,-0.122c0.055,-0.037 0.113,-0.074 0.176,-0.112c0.062,-0.037 0.125,-0.069 0.189,-0.096c0.063,-0.027 0.122,-0.058 0.177,-0.095c0.055,-0.037 0.114,-0.073 0.177,-0.109c0.062,-0.035 0.121,-0.071 0.176,-0.108c0.055,-0.037 0.114,-0.073 0.176,-0.109c0.063,-0.036 0.125,-0.072 0.187,-0.11c0.063,-0.037 0.122,-0.069 0.178,-0.095c0.057,-0.026 0.117,-0.053 0.18,-0.081c0.063,-0.028 0.131,-0.061 0.204,-0.098c0.072,-0.037 0.14,-0.074 0.205,-0.112c0.065,-0.038 0.135,-0.067 0.209,-0.085c0.075,-0.019 0.144,-0.043 0.207,-0.071c0.064,-0.028 0.134,-0.052 0.211,-0.071c0.077,-0.019 0.148,-0.037 0.212,-0.055c0.065,-0.017 0.136,-0.031 0.212,-0.04c0.075,-0.01 0.146,-0.018 0.212,-0.027c0.066,-0.008 0.133,-0.016 0.202,-0.025c0.068,-0.009 0.164,-0.021 0.289,-0.036c0.125,-0.016 0.245,-0.026 0.361,-0.031c0.116,-0.006 0.203,-0.007 0.26,-0.005c0.057,0.002 0.115,0.009 0.174,0.022c0.059,0.014 0.118,0.021 0.178,0.023c0.06,0.002 0.118,0.004 0.176,0.006c0.057,0.002 0.115,0.004 0.175,0.006c0.06,0.001 0.12,0.014 0.18,0.036c0.06,0.022 0.139,0.042 0.238,0.059c0.099,0.018 0.179,0.032 0.24,0.043c0.061,0.011 0.12,0.022 0.179,0.033c0.059,0.011 0.133,0.031 0.223,0.059c0.091,0.027 0.177,0.056 0.26,0.084c0.083,0.029 0.16,0.058 0.231,0.089c0.071,0.03 0.132,0.066 0.185,0.107c0.052,0.042 0.106,0.084 0.161,0.126c0.055,0.041 0.105,0.088 0.151,0.14c0.046,0.052 0.091,0.104 0.135,0.156c0.044,0.052 0.085,0.115 0.124,0.188c0.039,0.073 0.078,0.146 0.117,0.217c0.039,0.072 0.072,0.14 0.1,0.205c0.028,0.066 0.05,0.136 0.067,0.21c0.017,0.074 0.034,0.144 0.053,0.211c0.018,0.066 0.037,0.138 0.056,0.214c0.02,0.075 0.033,0.141 0.04,0.198c0.007,0.057 0.019,0.113 0.036,0.169c0.017,0.055 0.03,0.116 0.038,0.182c0.008,0.066 0.016,0.128 0.024,0.187c0.007,0.059 0.015,0.121 0.023,0.187c0.008,0.066 0.017,0.132 0.025,0.198c0.008,0.066 0.016,0.128 0.023,0.187c0.007,0.059 0.006,0.122 -0.006,0.19c-0.011,0.069 -0.025,0.143 -0.042,0.223c-0.018,0.081 -0.032,0.155 -0.043,0.223c-0.011,0.069 -0.027,0.144 -0.046,0.224c-0.02,0.081 -0.041,0.156 -0.062,0.226c-0.021,0.069 -0.036,0.138 -0.045,0.206c-0.008,0.068 -0.024,0.134 -0.046,0.196c-0.022,0.062 -0.048,0.129 -0.079,0.2c-0.031,0.071 -0.067,0.128 -0.108,0.172c-0.042,0.045 -0.085,0.089 -0.129,0.134c-0.044,0.044 -0.091,0.094 -0.141,0.149c-0.05,0.054 -0.101,0.114 -0.153,0.178c-0.051,0.064 -0.102,0.124 -0.153,0.178c-0.05,0.055 -0.1,0.119 -0.15,0.192c-0.051,0.074 -0.099,0.152 -0.146,0.236c-0.046,0.084 -0.095,0.159 -0.147,0.222c-0.051,0.065 -0.097,0.128 -0.136,0.191c-0.039,0.062 -0.086,0.116 -0.14,0.162c-0.054,0.046 -0.11,0.097 -0.17,0.153c-0.06,0.056 -0.12,0.112 -0.18,0.168c-0.06,0.056 -0.125,0.112 -0.195,0.169c-0.07,0.058 -0.144,0.126 -0.224,0.204c-0.079,0.079 -0.153,0.152 -0.222,0.218c-0.069,0.067 -0.137,0.133 -0.206,0.199c-0.068,0.066 -0.138,0.124 -0.209,0.172c-0.071,0.047 -0.142,0.1 -0.215,0.158c-0.072,0.057 -0.148,0.11 -0.229,0.16c-0.081,0.049 -0.161,0.103 -0.24,0.161c-0.08,0.058 -0.164,0.122 -0.252,0.191c-0.088,0.068 -0.16,0.121 -0.214,0.158c-0.055,0.036 -0.104,0.076 -0.146,0.119c-0.042,0.042 -0.09,0.082 -0.145,0.118c-0.055,0.037 -0.109,0.074 -0.161,0.11c-0.053,0.036 -0.101,0.076 -0.145,0.119c-0.044,0.042 -0.114,0.099 -0.21,0.171c-0.095,0.072 -0.191,0.142 -0.289,0.212c-0.098,0.07 -0.193,0.135 -0.285,0.195c-0.092,0.06 -0.182,0.12 -0.272,0.179c-0.089,0.06 -0.178,0.119 -0.267,0.179c-0.09,0.06 -0.175,0.114 -0.255,0.163c-0.081,0.05 -0.162,0.098 -0.243,0.145c-0.081,0.047 -0.167,0.092 -0.258,0.133c-0.092,0.041 -0.18,0.077 -0.263,0.106c-0.083,0.029 -0.17,0.064 -0.262,0.105c-0.092,0.041 -0.18,0.082 -0.264,0.123c-0.084,0.04 -0.153,0.073 -0.207,0.098c-0.054,0.025 -0.126,0.063 -0.217,0.114c-0.09,0.05 -0.185,0.101 -0.286,0.153c-0.1,0.052 -0.195,0.102 -0.286,0.15c-0.091,0.049 -0.181,0.098 -0.272,0.149c-0.09,0.05 -0.182,0.092 -0.275,0.124c-0.092,0.032 -0.186,0.058 -0.28,0.08c-0.094,0.021 -0.175,0.04 -0.242,0.058c-0.067,0.018 -0.139,0.031 -0.214,0.041c-0.076,0.009 -0.147,0.018 -0.213,0.027c-0.066,0.008 -0.133,0.016 -0.202,0.025c-0.068,0.008 -0.135,0.021 -0.2,0.039c-0.064,0.017 -0.128,0.04 -0.192,0.069c-0.063,0.028 -0.128,0.056 -0.194,0.083c-0.066,0.027 -0.131,0.059 -0.193,0.096c-0.062,0.038 -0.121,0.074 -0.176,0.109c-0.055,0.035 -0.109,0.07 -0.162,0.107c-0.052,0.036 -0.109,0.073 -0.172,0.111c-0.062,0.037 -0.11,0.082 -0.143,0.135c-0.033,0.053 -0.026,0.105 0.02,0.157c0.046,0.052 0.098,0.083 0.157,0.094c0.058,0.012 0.127,0.023 0.205,0.033c0.078,0.011 0.166,0.019 0.264,0.026c0.097,0.006 0.176,0.01 0.236,0.012c0.059,0.002 0.118,0.004 0.176,0.006c0.057,0.002 0.125,0.004 0.205,0.005c0.079,0.001 0.158,0.006 0.236,0.015c0.078,0.009 0.156,0.013 0.233,0.013c0.077,-0.001 0.163,-0.002 0.26,-0.005c0.096,-0.003 0.193,-0.005 0.289,-0.006c0.097,-0.001 0.189,0.003 0.277,0.01c0.088,0.008 0.181,0.01 0.28,0.007c0.099,-0.003 0.202,-0.001 0.31,0.006c0.107,0.007 0.21,0.013 0.307,0.02c0.098,0.006 0.196,0.013 0.293,0.019c0.098,0.006 0.196,0.018 0.295,0.036c0.099,0.017 0.198,0.034 0.297,0.052c0.099,0.017 0.193,0.034 0.282,0.051c0.089,0.017 0.178,0.034 0.267,0.053c0.089,0.018 0.178,0.036 0.267,0.053c0.089,0.016 0.179,0.039 0.269,0.067c0.091,0.027 0.182,0.055 0.275,0.082c0.093,0.028 0.185,0.06 0.276,0.097c0.092,0.037 0.183,0.069 0.273,0.097c0.09,0.028 0.186,0.059 0.288,0.095c0.101,0.036 0.197,0.072 0.289,0.109c0.091,0.037 0.187,0.073 0.289,0.109c0.101,0.036 0.207,0.066 0.316,0.092c0.11,0.025 0.221,0.055 0.332,0.089c0.111,0.035 0.216,0.06 0.314,0.075c0.099,0.016 0.209,0.04 0.33,0.073c0.121,0.034 0.235,0.058 0.344,0.074c0.109,0.017 0.218,0.033 0.326,0.049c0.109,0.016 0.213,0.032 0.312,0.047c0.098,0.016 0.192,0.033 0.282,0.052c0.089,0.018 0.179,0.036 0.27,0.052c0.092,0.016 0.177,0.035 0.256,0.054c0.08,0.02 0.155,0.045 0.226,0.075c0.071,0.031 0.138,0.061 0.201,0.092c0.064,0.032 0.122,0.068 0.174,0.11c0.052,0.042 0.102,0.088 0.148,0.14c0.046,0.052 0.091,0.104 0.135,0.157c0.044,0.052 0.09,0.114 0.139,0.186c0.049,0.072 0.092,0.139 0.129,0.201c0.038,0.063 0.072,0.136 0.102,0.22c0.031,0.083 0.06,0.167 0.088,0.251c0.028,0.084 0.057,0.167 0.087,0.249c0.03,0.082 0.055,0.165 0.076,0.25c0.02,0.085 0.041,0.17 0.061,0.254c0.021,0.085 0.041,0.166 0.06,0.241c0.02,0.076 0.04,0.156 0.06,0.241c0.021,0.085 0.04,0.16 0.058,0.225c0.018,0.065 0.031,0.13 0.04,0.196c0.008,0.066 0.021,0.128 0.038,0.185c0.017,0.057 0.029,0.114 0.036,0.171c0.007,0.057 0.015,0.114 0.022,0.171c0.007,0.057 0.014,0.113 0.021,0.17c0.007,0.057 0.014,0.114 0.021,0.17c0.008,0.057 0.015,0.115 0.022,0.174c0.007,0.058 0.015,0.116 0.022,0.173c0.007,0.057 0.018,0.142 0.032,0.255c0.014,0.114 0.025,0.199 0.032,0.256c0.007,0.057 0.018,0.143 0.032,0.258c0.015,0.116 0.023,0.222 0.025,0.318c0.003,0.097 -0.007,0.175 -0.03,0.236c-0.022,0.06 -0.039,0.12 -0.052,0.18c-0.012,0.059 -0.04,0.14 -0.084,0.242c-0.045,0.102 -0.078,0.185 -0.1,0.247c-0.022,0.062 -0.06,0.145 -0.114,0.249c-0.054,0.103 -0.092,0.185 -0.114,0.246c-0.022,0.06 -0.062,0.132 -0.118,0.215c-0.057,0.084 -0.121,0.16 -0.191,0.228c-0.071,0.069 -0.156,0.133 -0.255,0.194c-0.099,0.061 -0.2,0.112 -0.301,0.153c-0.102,0.04 -0.18,0.069 -0.235,0.085c-0.055,0.016 -0.139,0.041 -0.251,0.076c-0.113,0.034 -0.196,0.06 -0.251,0.076c-0.055,0.016 -0.116,0.033 -0.184,0.051c-0.067,0.018 -0.128,0.035 -0.183,0.051c-0.055,0.016 -0.111,0.033 -0.169,0.052c-0.057,0.018 -0.151,0.04 -0.282,0.066c-0.13,0.026 -0.229,0.047 -0.297,0.065c-0.067,0.018 -0.133,0.036 -0.198,0.053c-0.065,0.017 -0.134,0.035 -0.209,0.054c-0.075,0.019 -0.149,0.043 -0.222,0.072c-0.073,0.03 -0.143,0.054 -0.21,0.072c-0.067,0.017 -0.138,0.036 -0.213,0.054c-0.075,0.019 -0.145,0.037 -0.209,0.054c-0.065,0.018 -0.13,0.041 -0.196,0.07c-0.066,0.028 -0.132,0.052 -0.196,0.069c-0.065,0.017 -0.132,0.03 -0.2,0.039c-0.068,0.008 -0.168,0.026 -0.299,0.051c-0.131,0.026 -0.226,0.043 -0.284,0.05c-0.059,0.007 -0.121,0.015 -0.187,0.023c-0.066,0.009 -0.132,0.017 -0.198,0.025c-0.066,0.008 -0.133,0.017 -0.202,0.026c-0.068,0.008 -0.135,0.017 -0.201,0.025c-0.066,0.008 -0.133,0.012 -0.2,0.011c-0.067,-0.001 -0.135,-0.002 -0.205,-0.002c-0.069,-0.001 -0.138,-0.007 -0.207,-0.019c-0.068,-0.012 -0.137,-0.023 -0.205,-0.033c-0.068,-0.01 -0.138,-0.025 -0.21,-0.046c-0.072,-0.021 -0.143,-0.036 -0.211,-0.046c-0.068,-0.01 -0.134,-0.026 -0.196,-0.048c-0.062,-0.022 -0.133,-0.042 -0.212,-0.06c-0.079,-0.018 -0.154,-0.038 -0.223,-0.059c-0.07,-0.021 -0.146,-0.046 -0.229,-0.074c-0.083,-0.029 -0.17,-0.056 -0.26,-0.082c-0.09,-0.026 -0.175,-0.054 -0.256,-0.083c-0.081,-0.029 -0.171,-0.056 -0.271,-0.083c-0.1,-0.026 -0.196,-0.054 -0.286,-0.081c-0.09,-0.028 -0.186,-0.06 -0.287,-0.096c-0.101,-0.035 -0.203,-0.071 -0.304,-0.106c-0.101,-0.036 -0.203,-0.076 -0.305,-0.121c-0.103,-0.045 -0.205,-0.085 -0.306,-0.121c-0.101,-0.036 -0.204,-0.076 -0.309,-0.121c-0.105,-0.044 -0.208,-0.084 -0.309,-0.12c-0.102,-0.036 -0.199,-0.076 -0.291,-0.122c-0.093,-0.047 -0.18,-0.089 -0.262,-0.127c-0.081,-0.038 -0.169,-0.081 -0.262,-0.129c-0.092,-0.048 -0.177,-0.096 -0.252,-0.144c-0.076,-0.048 -0.15,-0.101 -0.225,-0.159c-0.074,-0.058 -0.148,-0.112 -0.221,-0.162c-0.074,-0.05 -0.143,-0.1 -0.209,-0.15c-0.065,-0.049 -0.125,-0.099 -0.179,-0.15c-0.053,-0.051 -0.113,-0.106 -0.18,-0.165c-0.067,-0.058 -0.124,-0.119 -0.169,-0.182c-0.045,-0.064 -0.096,-0.125 -0.153,-0.185c-0.057,-0.06 -0.114,-0.125 -0.17,-0.197c-0.056,-0.071 -0.108,-0.141 -0.157,-0.211c-0.048,-0.071 -0.097,-0.146 -0.148,-0.228c-0.049,-0.081 -0.103,-0.162 -0.16,-0.242c-0.057,-0.08 -0.115,-0.156 -0.173,-0.227c-0.059,-0.071 -0.121,-0.14 -0.187,-0.208l-0.098,-0.102" style="fill:none;stroke:#000;stroke-width:1.72px;"/><path id="STROKE_15F53FB0.-F211.-4B3F.-A3E1.-829BE7AA6726" d="M79.958,41.45c-0.003,0.134 0.03,0.212 0.1,0.233c0.07,0.021 0.143,0.027 0.222,0.017c0.078,-0.01 0.155,-0.019 0.231,-0.029c0.076,-0.01 0.162,-0.011 0.26,-0.005c0.097,0.007 0.2,0.018 0.309,0.034c0.109,0.016 0.194,0.03 0.255,0.041c0.061,0.011 0.12,0.022 0.179,0.033c0.058,0.011 0.127,0.027 0.207,0.047c0.079,0.019 0.155,0.04 0.227,0.06c0.072,0.021 0.147,0.036 0.225,0.045c0.078,0.009 0.152,0.024 0.222,0.045c0.069,0.021 0.143,0.036 0.221,0.044c0.078,0.009 0.163,0.017 0.253,0.025c0.09,0.007 0.173,0.011 0.251,0.013c0.077,0.001 0.154,0.002 0.231,0.002c0.077,-0.001 0.153,-0.006 0.229,-0.015c0.075,-0.01 0.152,-0.019 0.231,-0.029c0.078,-0.01 0.155,-0.02 0.23,-0.029c0.076,-0.01 0.152,-0.019 0.228,-0.029c0.075,-0.009 0.151,-0.019 0.227,-0.028c0.076,-0.009 0.148,-0.019 0.216,-0.027c0.069,-0.009 0.141,-0.018 0.216,-0.027c0.076,-0.01 0.152,-0.019 0.228,-0.029c0.075,-0.009 0.152,-0.019 0.23,-0.029c0.079,-0.01 0.156,-0.019 0.231,-0.029c0.076,-0.009 0.152,-0.019 0.228,-0.028c0.075,-0.01 0.151,-0.019 0.227,-0.029c0.075,-0.009 0.152,-0.024 0.229,-0.042c0.077,-0.019 0.153,-0.034 0.229,-0.043c0.076,-0.01 0.156,-0.02 0.242,-0.031c0.085,-0.01 0.161,-0.025 0.225,-0.044c0.065,-0.02 0.135,-0.039 0.212,-0.058c0.077,-0.019 0.148,-0.037 0.213,-0.054c0.065,-0.018 0.135,-0.031 0.211,-0.041c0.076,-0.009 0.147,-0.023 0.215,-0.041c0.067,-0.017 0.133,-0.035 0.198,-0.052c0.065,-0.018 0.124,-0.036 0.179,-0.054c0.055,-0.018 0.111,-0.04 0.167,-0.065c0.056,-0.026 0.117,-0.047 0.182,-0.065c0.065,-0.017 0.131,-0.035 0.198,-0.053c0.067,-0.018 0.128,-0.04 0.181,-0.067c0.054,-0.028 0.113,-0.05 0.178,-0.067c0.065,-0.018 0.13,-0.04 0.196,-0.067c0.067,-0.027 0.132,-0.05 0.196,-0.069c0.065,-0.019 0.135,-0.038 0.209,-0.057c0.075,-0.019 0.146,-0.037 0.213,-0.054c0.067,-0.018 0.133,-0.036 0.198,-0.053c0.065,-0.018 0.134,-0.036 0.209,-0.055c0.075,-0.018 0.146,-0.037 0.213,-0.057c0.067,-0.019 0.137,-0.038 0.212,-0.057c0.075,-0.019 0.144,-0.037 0.209,-0.054c0.065,-0.018 0.131,-0.035 0.198,-0.053c0.067,-0.018 0.133,-0.035 0.198,-0.053c0.065,-0.017 0.125,-0.035 0.18,-0.053c0.055,-0.018 0.116,-0.036 0.183,-0.054c0.067,-0.017 0.158,-0.038 0.271,-0.062c0.114,-0.023 0.222,-0.051 0.325,-0.082c0.103,-0.032 0.182,-0.057 0.236,-0.074c0.055,-0.019 0.111,-0.036 0.169,-0.052c0.057,-0.017 0.137,-0.046 0.239,-0.086c0.101,-0.041 0.179,-0.07 0.234,-0.088c0.055,-0.018 0.11,-0.036 0.165,-0.052c0.055,-0.016 0.111,-0.037 0.167,-0.062c0.056,-0.026 0.112,-0.047 0.167,-0.063c0.055,-0.016 0.133,-0.046 0.235,-0.089c0.101,-0.042 0.181,-0.071 0.238,-0.088c0.057,-0.016 0.133,-0.041 0.225,-0.073c0.093,-0.032 0.167,-0.056 0.222,-0.072c0.055,-0.017 0.129,-0.04 0.222,-0.07c0.093,-0.03 0.182,-0.055 0.266,-0.076c0.084,-0.019 0.166,-0.034 0.244,-0.044c0.078,-0.01 0.155,-0.019 0.231,-0.029c0.075,-0.009 0.146,-0.024 0.21,-0.043c0.065,-0.019 0.126,-0.037 0.184,-0.054c0.057,-0.016 0.113,-0.033 0.168,-0.049c0.055,-0.016 0.112,-0.032 0.169,-0.049c0.057,-0.016 0.119,-0.034 0.183,-0.054c0.065,-0.019 0.129,-0.037 0.194,-0.055c0.065,-0.017 0.126,-0.039 0.182,-0.064c0.056,-0.026 0.121,-0.054 0.194,-0.083c0.073,-0.03 0.147,-0.059 0.22,-0.087c0.074,-0.027 0.144,-0.055 0.21,-0.082c0.066,-0.027 0.135,-0.055 0.209,-0.084c0.073,-0.03 0.141,-0.058 0.205,-0.085c0.064,-0.026 0.13,-0.044 0.198,-0.053c0.069,-0.008 0.141,-0.017 0.216,-0.027l0.114,-0.014" style="fill:none;stroke:#000;stroke-width:1.72px;"/><path id="STROKE_C8087E9E.-6B79.-4F30.-BF13.-E0E2660806A8" d="M103.253,46.25c0.014,0.114 0.025,0.2 0.032,0.259c0.007,0.058 0.015,0.116 0.022,0.173c0.007,0.057 -0.01,0.116 -0.052,0.179c-0.042,0.063 -0.093,0.123 -0.153,0.178c-0.06,0.057 -0.126,0.099 -0.2,0.129c-0.073,0.03 -0.147,0.054 -0.221,0.072c-0.075,0.019 -0.151,0.038 -0.228,0.057c-0.077,0.019 -0.161,0.049 -0.252,0.09c-0.092,0.041 -0.165,0.07 -0.221,0.087c-0.055,0.016 -0.133,0.044 -0.235,0.085c-0.101,0.04 -0.18,0.075 -0.236,0.102c-0.056,0.027 -0.116,0.055 -0.18,0.081c-0.064,0.027 -0.122,0.054 -0.176,0.081c-0.053,0.027 -0.114,0.05 -0.181,0.067c-0.067,0.018 -0.134,0.036 -0.198,0.053c-0.065,0.017 -0.126,0.034 -0.184,0.051c-0.057,0.016 -0.113,0.033 -0.169,0.049c-0.055,0.016 -0.115,0.029 -0.181,0.037c-0.066,0.008 -0.128,0.016 -0.187,0.023c-0.059,0.008 -0.115,0.02 -0.17,0.039c-0.055,0.017 -0.117,0.031 -0.185,0.039c-0.068,0.009 -0.155,0.02 -0.26,0.033c-0.105,0.013 -0.19,0.028 -0.255,0.046c-0.065,0.017 -0.125,0.034 -0.18,0.05c-0.055,0.017 -0.117,0.029 -0.185,0.037c-0.069,0.009 -0.135,0.022 -0.2,0.04c-0.065,0.017 -0.125,0.039 -0.181,0.067c-0.056,0.028 -0.122,0.051 -0.196,0.069c-0.075,0.019 -0.145,0.037 -0.209,0.054c-0.065,0.018 -0.131,0.035 -0.199,0.053c-0.067,0.018 -0.133,0.035 -0.198,0.053c-0.064,0.017 -0.135,0.031 -0.21,0.04c-0.076,0.01 -0.148,0.024 -0.215,0.044c-0.067,0.02 -0.166,0.038 -0.298,0.054c-0.132,0.017 -0.232,0.029 -0.3,0.038c-0.069,0.008 -0.159,0.02 -0.272,0.034c-0.112,0.014 -0.198,0.025 -0.256,0.032c-0.059,0.007 -0.151,0.019 -0.275,0.035c-0.125,0.015 -0.215,0.031 -0.27,0.047c-0.055,0.017 -0.111,0.033 -0.168,0.05c-0.058,0.016 -0.114,0.037 -0.168,0.062c-0.053,0.026 -0.108,0.052 -0.165,0.08c-0.056,0.027 -0.135,0.057 -0.238,0.088c-0.103,0.032 -0.182,0.056 -0.237,0.072c-0.055,0.016 -0.128,0.04 -0.221,0.072c-0.093,0.032 -0.185,0.068 -0.277,0.108c-0.092,0.039 -0.185,0.07 -0.279,0.093c-0.094,0.023 -0.182,0.049 -0.265,0.078c-0.084,0.029 -0.172,0.054 -0.266,0.075c-0.095,0.021 -0.184,0.048 -0.27,0.079c-0.085,0.031 -0.171,0.052 -0.256,0.063c-0.086,0.01 -0.171,0.021 -0.257,0.032c-0.085,0.01 -0.166,0.021 -0.242,0.03c-0.075,0.01 -0.148,0.019 -0.216,0.027c-0.068,0.009 -0.136,0.017 -0.201,0.025c-0.066,0.009 -0.132,0.017 -0.198,0.026c-0.066,0.008 -0.134,0.016 -0.202,0.025c-0.068,0.008 -0.14,0.017 -0.216,0.027c-0.076,0.009 -0.157,0.02 -0.242,0.03c-0.086,0.011 -0.171,0.022 -0.257,0.032c-0.085,0.011 -0.171,0.022 -0.256,0.033c-0.086,0.01 -0.172,0.021 -0.26,0.032c-0.088,0.011 -0.175,0.022 -0.261,0.033c-0.085,0.01 -0.166,0.021 -0.241,0.03c-0.076,0.01 -0.152,0.019 -0.228,0.029c-0.075,0.009 -0.151,0.019 -0.227,0.028c-0.076,0.01 -0.148,0.019 -0.216,0.027c-0.069,0.009 -0.136,0.017 -0.202,0.026c-0.066,0.008 -0.136,0.017 -0.212,0.026c-0.076,0.01 -0.148,0.019 -0.216,0.027c-0.069,0.009 -0.136,0.017 -0.202,0.026c-0.066,0.008 -0.137,0.017 -0.213,0.026c-0.075,0.01 -0.152,0.019 -0.23,0.029c-0.079,0.01 -0.16,0.02 -0.246,0.031c-0.085,0.011 -0.167,0.011 -0.246,0c-0.078,-0.011 -0.156,-0.02 -0.234,-0.029c-0.078,-0.009 -0.148,-0.019 -0.209,-0.032c-0.061,-0.013 -0.12,-0.021 -0.178,-0.023c-0.057,-0.002 -0.116,-0.004 -0.175,-0.006l-0.09,-0.002" style="fill:none;stroke:#000;stroke-width:1.72px;"/></g></g></svg>