<?xml version="1.0" encoding="utf-8"?>
<!-- Generator: Adobe Illustrator 16.0.0, SVG Export Plug-In . SVG Version: 6.00 Build 0)  -->
<!DOCTYPE svg PUBLIC "-//W3C//DTD SVG 1.1//EN" "http://www.w3.org/Graphics/SVG/1.1/DTD/svg11.dtd">
<svg version="1.1" id="Layer_1" xmlns="http://www.w3.org/2000/svg" xmlns:xlink="http://www.w3.org/1999/xlink" x="0px" y="0px"
	 width="160px" height="160px" viewBox="0 0 160 160" enable-background="new 0 0 160 160" xml:space="preserve">
<g id="h1">
	<g>
		<path fill="#7C036B" stroke="#000000" stroke-width="1.7" stroke-linecap="round" stroke-linejoin="round" d="M113.571,58.635
			c-0.086,0.055-0.141,0.096-0.158,0.117C113.465,58.719,113.518,58.679,113.571,58.635z"/>
		<path fill="#7C036B" stroke="#000000" stroke-width="1.7" stroke-linecap="round" stroke-linejoin="round" d="M123.284,41.185
			c-2.254-2.583-6.391-2.763-9.539-2.891c-4.346-0.176-8.584,0.667-12.424,2.759c-0.276,0.151-0.553,0.304-0.829,0.455
			L64.914,61.793c-1.366,0.812-2.731,1.625-4.094,2.443c-1.139,0.681-2.313,1.313-3.509,1.906
			c6.953-2.258,13.455-6.132,20.134-8.931c4.295-1.836,8.566-3.817,13.119-4.941c4.211-1.04,8.68-0.925,12.992-0.925
			c2.211,0,4.442,0.03,6.646,0.203c1.645,0.129,4.386,0.304,5.121,2.108c0.518,1.282-0.729,4.134-1.752,4.978
			c0.758-0.489,3.952-2.194,4.794-2.974C121.745,52.535,127.339,45.834,123.284,41.185z"/>
		<path fill="#7C036B" stroke="#000000" stroke-width="1.7" stroke-linecap="round" stroke-linejoin="round" d="M64.914,61.793
			c11.742-6.982,23.605-13.745,35.578-20.286l0.069-0.039c-2.381-6.874-10.719-13.675-15.663-18.733
			C78.966,16.681,72.11,11.923,65.628,6.539C62.783,4.172,59.145,1.847,55.538,0H37.892c0.007,0.394,0.003,0.735-0.017,0.996
			c-0.164,2.104-0.084,4.613,0.422,6.684c0.281,1.145,0.934,9.13,1.885,9.206c1.755,0.135,1.625,1.721,1.872,3.497
			c0.231,1.687,3.449,1.596,3.449,2.649c0,0.725-0.651,1.604-1.313,1.857c-0.964,0.365-0.773,2.276-0.746,3.051
			c0,1.75,0.594,3.579,0.705,5.345c0.062,1.052-0.291,3.657,0.876,4.277c0.756,0.397,3.722,0.738,3.527,1.928
			c-0.121,0.793-2.526,1.902-3.244,2.3c-1.142,0.64-0.68,2.86-0.608,3.881c0.214,2.92,1.668,5.401,0.313,7.867
			c-1.233,2.254,0.089,5.45-1.496,7.584c-4.085,0.46-8.474-0.052-12.563,0.609c-1.193,0.189-8.35,1.564-8.035,3.603
			c0.238,1.472-1.374,2.112-0.49,3.997c1.892,3.999,8.063,3.622,11.625,3.361c5.482-0.401,10.977-1.839,16.162-3.606
			c2.41-0.821,4.796-1.803,7.095-2.942c-0.021,0.007-0.041,0.014-0.062,0.021L64.914,61.793z"/>
	</g>
	
		<path id="STROKE_83FBFF4E.2e..-CA50.2e..-47DA.2e..-8570.2e..-564B25131A64_2_" stroke="#000000" stroke-width="1.7" stroke-linecap="round" stroke-linejoin="round" d="
		M110.642,55.072c1.68,1.959,2.771,3.68,2.771,3.68c1.048-0.658,2.455-3.746,1.91-5.095c-0.735-1.804-3.477-1.979-5.121-2.108
		c-0.984-0.077-1.975-0.126-2.964-0.156C107.238,51.393,108.962,53.112,110.642,55.072z"/>
	
		<path id="STROKE_D25AB25E.2e..-666C.2e..-49F5.2e..-A9F7.2e..-611F32728239_1_" fill="#FFEE00" stroke="#000000" stroke-width="1.7" stroke-miterlimit="10" d="
		M87.399,48.772c-6.52,2.134-21.321,6.738-22.623-0.015c-0.701-2.239-0.899-5.868-2.092-7.944c-0.933-1.627-1.022-2.971-1.815-3.436
		l-0.017-0.176c-2.08-6.481,6.942-8.702,10.981-9.318c3.029-0.438,6.558-0.735,9.567-0.121c1.653,0.342,4.225,2.466,5.609,3.924
		c1.27,1.336,2.08,4.042,2.702,4.823c1.157,1.459,0.909,4.177,1.462,5.912c0.157,1.366,0.146,3.59,0.157,4.145
		C90.019,47.299,88.708,48.034,87.399,48.772z"/>
	
		<path id="STROKE_266D5464.2e..-FAC9.2e..-405A.2e..-B551.2e..-1F50FB07C84D_1_" stroke="#000000" stroke-width="1.7" stroke-linecap="round" stroke-linejoin="round" d="
		M100.241,40.628c-0.486,0-8.698,2.938-9.066,1.792c-0.553-1.734-0.305-4.452-1.461-5.911c-0.623-0.78-2.945-3.823-2.703-4.823
		c0.166-0.689,4.903-1.287,5.631-1.359C95.804,33.57,98.767,37.081,100.241,40.628"/>
	
		<path id="STROKE_E6DEC4F7.2e..-FB66.2e..-48CA.2e..-BF34.2e..-99E4F55AA6EA_1_" stroke="#000000" stroke-width="1.7" stroke-linecap="round" stroke-linejoin="round" d="
		M70.466,45.43c1.986,1.454,9.654-0.58,11.964-1.141c3.634-0.864,1.386-6.767,0.412-9.169c-1.545-3.806-6.515-3.079-9.859-2.472
		c-4.425,0.784-5.448,1.897-4.757,6.359C68.445,40.382,69.323,45.046,70.466,45.43"/>
	
		<path id="STROKE_357C852B.2e..-CFD8.2e..-40F8.2e..-999F.2e..-AE1492CFAD51_1_" stroke="#000000" stroke-width="1.7" stroke-linecap="round" stroke-linejoin="round" d="
		M44.556,44.08c4.362-2.373,9.018-4.704,13.725-6.44c3.587-1.332,2.902,0.553,4.404,3.173c1.193,2.076,1.391,5.705,2.092,7.944
		c0,0.099-18.234,8.058-20.374,8.257c0.017-1.228,0.048-2.45,0.61-3.476c1.355-2.466-0.099-4.947-0.313-7.867
		C44.672,45.27,44.583,44.683,44.556,44.08z"/>
</g>
</svg>
