<?xml version="1.0" encoding="utf-8"?>
<!-- Generator: Adobe Illustrator 22.0.1, SVG Export Plug-In . SVG Version: 6.00 Build 0)  -->
<svg version="1.1" id="Layer_1" xmlns="http://www.w3.org/2000/svg" xmlns:xlink="http://www.w3.org/1999/xlink" x="0px" y="0px"
	 viewBox="0 0 160 160" style="enable-background:new 0 0 160 160;" xml:space="preserve">
<style type="text/css">
	.st0{fill:#FFFFFF;}
	.st1{opacity:5.000000e-02;}
	.st2{opacity:0.2;}
	.st3{opacity:0.1;enable-background:new    ;}
	.st4{fill:#F15A24;}
</style>
<title>Artboard 42 copy 191</title>
<path class="st0" d="M43.5,62.2c0,0-7.5-0.2-9.4-3.8c-0.2-1.1-0.2-2.3-0.1-3.5c0.8-8.9,10.2-28.4,30.9-34.9
	c5.2-1.6,10.7-2.3,16.1-2.1c32,1,44,33,42,43c-1,3-6,5-7.6,3.5C111,57,99.9,53.4,83,54C51,54,43.5,62.2,43.5,62.2z"/>
<g class="st1">
	<path d="M83,20c0,0,16,8,18,25l-6,10c15,0,21,10,21,10s5,0,7-4.3c0.7-5,0.1-14.2-11.1-28.2c0,0-10.9-13.5-28.9-14.5
		C83,18,79,19,83,20z"/>
</g>
<g class="st2">
	<path d="M43.6,61.9c0,0-7.5-0.1-9.2-3.6c-1.4-2,14.7-11.9,47-11.3s43.4,11.7,41.4,14.1c-2,4.1-7.5,3.9-7.5,3.9
		c0-0.7-2.6-11.9-31.9-10.6C49,55,43.6,61.9,43.6,61.9z"/>
</g>
<path class="st3" d="M34.8,57.7c0,0,4.9,4.1,7,4.3l1.2-0.6l-7.3-4.7C35.7,56.7,34.7,57.9,34.8,57.7z"/>
<polygon class="st3" points="41,53.2 48.7,59 51,58.2 43.6,52.2 "/>
<polygon class="st3" points="54.6,49.2 59.7,56.6 62.9,56 58.2,48.5 "/>
<polygon class="st3" points="70.4,47.2 72.7,54.8 75.6,54.6 74.6,47 "/>
<polygon class="st3" points="89.1,47.3 87.8,54.4 90.6,54.5 92.9,47.7 "/>
<polygon class="st3" points="105.2,49.9 101.4,56 103.8,56.7 108.1,50.7 "/>
<polygon class="st3" points="118.9,55.6 111.3,59.7 113.8,61.3 121.8,58.1 "/>
<ellipse class="st4" cx="96.2" cy="32.5" rx="8.2" ry="9.5"/>
<path class="st4" d="M122.2,51.8c-3.4-0.5-6.3-2.8-7.5-6c-1.1-2.9-0.9-6.1,0.7-8.8C118.5,41.4,120.9,46.4,122.2,51.8z"/>
<path class="st4" d="M52.9,32.2c-1.8,5-6.6,7.7-10.9,6.2c-0.4-0.1-0.7-0.3-1-0.5c0,0,5-8,11.8-12C53.6,28,53.6,30.2,52.9,32.2z"/>
<path class="st4" d="M81.1,23.6c-1.3,5.1-5.9,8.3-10.3,7.1s-6.7-5.9-5.7-10.8C71,18,74,18,80.7,18C81.4,19.8,81.6,21.7,81.1,23.6z"
	/>
<path class="st4" d="M50,50.2V50c0.1-5.1,4.4-9.1,9.5-9c4-0.1,7.6,2.4,9,6.1C58,48,54,49,50,50.2z"/>
</svg>
