<?xml version="1.0" encoding="UTF-8" standalone="no"?>
<!-- Generator: Adobe Illustrator 22.0.1, SVG Export Plug-In . SVG Version: 6.00 Build 0)  -->

<svg
   xmlns:dc="http://purl.org/dc/elements/1.1/"
   xmlns:cc="http://creativecommons.org/ns#"
   xmlns:rdf="http://www.w3.org/1999/02/22-rdf-syntax-ns#"
   xmlns:svg="http://www.w3.org/2000/svg"
   xmlns="http://www.w3.org/2000/svg"
   xmlns:sodipodi="http://sodipodi.sourceforge.net/DTD/sodipodi-0.dtd"
   xmlns:inkscape="http://www.inkscape.org/namespaces/inkscape"
   version="1.1"
   id="Layer_1"
   x="0px"
   y="0px"
   viewBox="0 0 160 160"
   style="enable-background:new 0 0 160 160;"
   xml:space="preserve"
   sodipodi:docname="top_19.svg"
   inkscape:version="0.92.2 (5c3e80d, 2017-08-06)"><metadata
     id="metadata28"><rdf:RDF><cc:Work
         rdf:about=""><dc:format>image/svg+xml</dc:format><dc:type
           rdf:resource="http://purl.org/dc/dcmitype/StillImage" /></cc:Work></rdf:RDF></metadata><defs
     id="defs26" /><sodipodi:namedview
     pagecolor="#ffffff"
     bordercolor="#666666"
     borderopacity="1"
     objecttolerance="10"
     gridtolerance="10"
     guidetolerance="10"
     inkscape:pageopacity="0"
     inkscape:pageshadow="2"
     inkscape:window-width="1920"
     inkscape:window-height="976"
     id="namedview24"
     showgrid="false"
     inkscape:zoom="5.6568542"
     inkscape:cx="111.56191"
     inkscape:cy="97.78612"
     inkscape:window-x="0"
     inkscape:window-y="27"
     inkscape:window-maximized="1"
     inkscape:current-layer="Layer_1" /><style
     type="text/css"
     id="style2">
	.st0{opacity:0.1;}
	.st1{fill:#51DB00;}
	.st2{fill:#FFFFFF;}
</style><title
     id="title4">Artboard 42 copy 185</title><path
     d="M90.4,18.7c4.6,0.3,9.7,1.7,14.7,5.3h7.9c0,0-19.1-14.5-38.1-2.6c0,0,0.6-0.3,1.7-0.7  c-6.4,3.2-12.2,10.4-15.7,24.5c0,0,23.5-7.7,33.8,11.8h4.8L113,24.3h-7.9C105.1,24.3,98.6,19.9,90.4,18.7z"
     id="path10"
     style="" /><g
     class="st0"
     id="g14"
     style="opacity:0.5;fill:#ffffff;fill-opacity:1"><path
       class="st2"
       d="M113,24c0,0-19.1-14.4-38.1-2.6c0,0,15.9-7.6,30.1,2.6H113z"
       id="path12"
       style="fill:#ffffff;fill-opacity:1" /></g><g
     class="st0"
     id="g8"
     style="fill:#010107;fill-opacity:1"><polygon
       points="94.8,57 99.5,57 113,24.3 105.1,24.3  "
       id="polygon6"
       style="fill:#010107;fill-opacity:1" /></g></svg>