<?xml version="1.0" encoding="UTF-8" standalone="no"?>
<!-- Generator: Adobe Illustrator 22.0.1, SVG Export Plug-In . SVG Version: 6.00 Build 0)  -->

<svg
   xmlns:dc="http://purl.org/dc/elements/1.1/"
   xmlns:cc="http://creativecommons.org/ns#"
   xmlns:rdf="http://www.w3.org/1999/02/22-rdf-syntax-ns#"
   xmlns:svg="http://www.w3.org/2000/svg"
   xmlns="http://www.w3.org/2000/svg"
   xmlns:sodipodi="http://sodipodi.sourceforge.net/DTD/sodipodi-0.dtd"
   xmlns:inkscape="http://www.inkscape.org/namespaces/inkscape"
   version="1.1"
   id="Layer_1"
   x="0px"
   y="0px"
   viewBox="0 0 160 160"
   style="enable-background:new 0 0 160 160;"
   xml:space="preserve"
   sodipodi:docname="top_08.svg"
   inkscape:version="0.92.2 (5c3e80d, 2017-08-06)"><metadata
     id="metadata19"><rdf:RDF><cc:Work
         rdf:about=""><dc:format>image/svg+xml</dc:format><dc:type
           rdf:resource="http://purl.org/dc/dcmitype/StillImage" /></cc:Work></rdf:RDF></metadata><defs
     id="defs17" /><sodipodi:namedview
     pagecolor="#ffffff"
     bordercolor="#666666"
     borderopacity="1"
     objecttolerance="10"
     gridtolerance="10"
     guidetolerance="10"
     inkscape:pageopacity="0"
     inkscape:pageshadow="2"
     inkscape:window-width="1920"
     inkscape:window-height="976"
     id="namedview15"
     showgrid="false"
     inkscape:zoom="5.9"
     inkscape:cx="66.815808"
     inkscape:cy="118.12361"
     inkscape:window-x="0"
     inkscape:window-y="27"
     inkscape:window-maximized="1"
     inkscape:current-layer="Layer_1" /><style
     type="text/css"
     id="style2">
	.st0{fill:#24425B;}
	.st1{opacity:0.15;enable-background:new    ;}
</style><title
     id="title4">Artboard 42 copy 167</title><path
     class="st0"
     d="m 123.9,43.8 c -5,1.2 -7.16949,4.766102 -13.66949,4.966102 -1.2,-0.2 -2.2,-0.8 -2.9,-1.7 l -1,-1.7 C 106.33051,45.366102 104.6,30.7 103.4,28.3 100.3,21.9 99.4,18 71.2,18 c -2.5,-0.2 -5.1,0 -7.6,0.5 -8.8,1 -16.5,4.4 -13.6,13.6 0.9,5.8 1.891526,10.652542 3.891526,16.152542 -0.6,1 -1.5,1.9 -2.5,2.4 -0.6,0.2 -1.2,0.4 -1.7,0.6 C 46.691526,51.852542 42.2,51.1 36.8,49.7 c -11.1,-2.8 -10.7,6.4 -8.4,9.5 2.3,3.1 7.3,4.5 15.5,2.1 11.2,-3.4 27.5,-7.5 41,-8.3 15,-0.6 25.2,1 32.2,3.4 6.5,2.2 16.3,-1.8 16.1,-5.7 -0.2,-3.9 -4.3,-8.1 -9.3,-6.9 z"
     id="path6"
     inkscape:connector-curvature="0"
     style="fill:#24425b"
     sodipodi:nodetypes="scccccccccccscccss" /><path
     class="st1"
     d="M58.1,57.3c8.7-2.6,17.6-4.2,26.7-4.8c16.1-0.8,33.7,3.9,33.7,3.9c2.1,0.7,4.5,0.8,6.6,0.1  c0,0-24.1-9.5-40.9-8.2c-8.4,0.7-24.9,5-24.9,5s-19.8,6.4-30.9,6.3C28.6,59.8,31.6,67.2,58.1,57.3z"
     id="path8" /><path
     d="M51.4,38.9c0,0,33.3-13.2,53.5-4l1,7.4c0,0-11.5-8-52.7,3.4L51.4,38.9z"
     id="path10" /><path
     class="st1"
     d="M83.5,19.1c0,0-39.5-6.1-33.5,13c1,6.7,2.8,13.2,5.3,19.4c0,0,12.7-2.1,18.2-4.2l-4.8-16.2  C68.7,31.2,65,20,83.5,19.1z"
     id="path12" /></svg>