<?xml version="1.0" encoding="UTF-8" standalone="no"?>
<!-- Generator: Adobe Illustrator 22.0.1, SVG Export Plug-In . SVG Version: 6.00 Build 0)  -->

<svg
   xmlns:dc="http://purl.org/dc/elements/1.1/"
   xmlns:cc="http://creativecommons.org/ns#"
   xmlns:rdf="http://www.w3.org/1999/02/22-rdf-syntax-ns#"
   xmlns:svg="http://www.w3.org/2000/svg"
   xmlns="http://www.w3.org/2000/svg"
   xmlns:sodipodi="http://sodipodi.sourceforge.net/DTD/sodipodi-0.dtd"
   xmlns:inkscape="http://www.inkscape.org/namespaces/inkscape"
   version="1.1"
   id="Layer_1"
   x="0px"
   y="0px"
   viewBox="0 0 160 160"
   style="enable-background:new 0 0 160 160;"
   xml:space="preserve"
   sodipodi:docname="top_15.svg"
   inkscape:version="0.92.2 (5c3e80d, 2017-08-06)"><metadata
     id="metadata25"><rdf:RDF><cc:Work
         rdf:about=""><dc:format>image/svg+xml</dc:format><dc:type
           rdf:resource="http://purl.org/dc/dcmitype/StillImage" /></cc:Work></rdf:RDF></metadata><defs
     id="defs23" /><sodipodi:namedview
     pagecolor="#ffffff"
     bordercolor="#666666"
     borderopacity="1"
     objecttolerance="10"
     gridtolerance="10"
     guidetolerance="10"
     inkscape:pageopacity="0"
     inkscape:pageshadow="2"
     inkscape:window-width="1920"
     inkscape:window-height="976"
     id="namedview21"
     showgrid="false"
     inkscape:zoom="8.34386"
     inkscape:cx="110.93224"
     inkscape:cy="129.61455"
     inkscape:window-x="0"
     inkscape:window-y="27"
     inkscape:window-maximized="1"
     inkscape:current-layer="Layer_1" /><style
     type="text/css"
     id="style2">
	.st0{fill:#FFFFFF;}
	.st1{opacity:0.5;enable-background:new    ;}
	.st2{opacity:0.25;enable-background:new    ;}
	.st3{opacity:0.1;enable-background:new    ;}
	.st4{fill:#ED1C24;}
</style><title
     id="title4">Artboard 42 copy 193</title><path
     class="st0"
     d="M 133,48.8 C 131.1,40.2 122.8,36.2 104.8,39.3 99.4,32 89,19 82,15 L 78.3,13 57,12.8 c -3.2,0.3 -5.8,0.7 -7.2,1.5 0,0 -0.7,3 -1.9,4.1 -2.9,2.4 5.1,3.4 5.1,3.4 l -2,3 4,2 v 3 c 1.8,6.9 -0.3,14 -0.3,14 0,0 1.2,1.6 -17.2,0.4 C 19.1,43 23,65.8 36,63.8 c 0,0 3.4,-0.3 8.9,-1 8.4,0 35.624936,-3.377881 49.4,-9.4 3.8,-1 7.6,-1.6 11.5,-1.9 3.7,2.8 6.8,6.3 9.2,10.2 l 0.3,-0.2 -0.2,0.1 c 0,0.2 19.9,-3.8 17.9,-12.8 z m -21.5,3 c 1.7,0.2 3.2,0.9 4.5,2 -1.4,-0.9 -2.9,-1.6 -4.5,-2 z"
     id="path6"
     inkscape:connector-curvature="0"
     style="fill:#ffffff"
     sodipodi:nodetypes="ccccccccccccsccccccccccc" /><path
     class="st1"
     d="m 105.8,51.5 c 3.65992,2.920227 6.94981,6.180151 9.2,10.5 0,0 6.25095,-2.820227 1.56928,-7.910114 0,0 -1.59026,-3.05841 -10.76928,-2.589886 z"
     id="path8"
     inkscape:connector-curvature="0"
     style="opacity:0.5;enable-background:new"
     sodipodi:nodetypes="cccc" /><path
     class="st2"
     d="m 37.760215,63.38854 c 0,0 33.126224,-0.849557 56.861817,-9.958032 0,0 16.699968,-4.6 21.699968,0.4 5,5 -0.9,8 -0.9,8 0,0 19.9,-4 17.9,-13 -2,-9 -11,-13 -31,-9 -19.999968,4 -18.477039,17.227523 -64.561785,23.558032 z"
     id="path10"
     inkscape:connector-curvature="0"
     style="opacity:0.25;enable-background:new"
     sodipodi:nodetypes="ccscssc" /><path
     class="st3"
     d="M 70.9,13 C 81.9,24.6 92.915254,38.618644 89.815254,44.618644 94.918824,42.084404 98.002837,40.411162 104.8,39.3 101.9,35.1 98.781356,31.088136 95.581356,27.188136 95.581356,27.188136 83,14 78,13 Z"
     id="path12"
     inkscape:connector-curvature="0"
     style="opacity:0.1;enable-background:new"
     sodipodi:nodetypes="cccccc" /><path
     class="st4"
     d="m 54.424577,43.948305 c 9,2 29.205007,-2.017964 45.505007,-11.417964 L 91.339697,22.610114 C 90.839697,24.610114 60.6,30.3 55,31 c 0.9,3.5 0.224577,7.848305 -0.575423,12.948305 z"
     id="path14"
     inkscape:connector-curvature="0"
     style="fill:#000000;fill-opacity:1"
     sodipodi:nodetypes="ccccc" /><path
     class="st0"
     d="M69.9,26l13.1-3.8c2-0.6,4,0.6,4.6,2.5l3.3,11.4c0.6,2-0.6,4-2.5,4.6l-13.1,3.8c-2,0.6-4-0.6-4.6-2.5l-3.3-11.4  C66.8,28.6,68,26.6,69.9,26z"
     id="path16"
     style="fill:#ffe000;fill-opacity:1" /><path
     d="M73.9,28.5l7.1-2c1.5-0.4,3,0.4,3.5,1.9l1.9,6.6c0.4,1.5-0.4,3-1.9,3.5l-7.1,2c-1.5,0.4-3-0.4-3.5-1.9L72,31.9  C71.6,30.4,72.4,28.9,73.9,28.5z"
     id="path18"
     style="fill:#000000;fill-opacity:1" /></svg>