<?xml version="1.0" encoding="utf-8"?>
<!-- Generator: Adobe Illustrator 22.0.1, SVG Export Plug-In . SVG Version: 6.00 Build 0)  -->
<svg version="1.1" id="Layer_1" xmlns="http://www.w3.org/2000/svg" xmlns:xlink="http://www.w3.org/1999/xlink" x="0px" y="0px"
	 viewBox="0 0 160 160" style="enable-background:new 0 0 160 160;" xml:space="preserve">
<style type="text/css">
	.st0{fill:#112289;}
	.st1{opacity:0.1;}
	.st2{fill:#1524A5;}
	.st3{fill:#111C60;}
	.st4{fill:#FFFF00;}
</style>
<title>Artboard 42 copy 181</title>
<path class="st0" d="M46.5,58.2c0,0-12-0.6-16.5-3.8c2.5-0.5,4.7-2.1,6-4.3c1.5-2.5,2.1-5.4,1.7-8.3c0,0,9.1-0.3,13.8-5.5
	S57,23.7,57,23.7s7.9,4.1,21.5,1.8S95.3,18,95.3,18s2.2,9,9.4,12c4.6,1.8,9.4,3,14.3,3.6c-0.7,8.6-6.1,13.5-13,15.8
	C86.4,42.3,46.5,58.2,46.5,58.2z"/>
<g class="st1">
	<path d="M46.5,58.2c0,0-12-0.6-16.5-3.8c2.5-0.5,4.7-2.1,6-4.3c1.5-2.5,2.1-5.4,1.7-8.3c0,0,9.1-0.3,13.8-5.5S57,23.7,57,23.7
		s7.9,4.1,21.5,1.8S95.3,18,95.3,18s2.2,9,9.4,12c4.6,1.8,9.4,3,14.3,3.6c-0.7,8.6-6.1,13.5-13,15.8C86.4,42.3,46.5,58.2,46.5,58.2z
		"/>
</g>
<path class="st2" d="M45,62c0,0,13.7-13.6,49.7-11.3c0,0,11.3,2,14.6,4.8c0,0,0.4-13.9-16.2-16s-35.6,1.6-43.5,11.7
	C47.2,54.5,45.7,58.1,45,62z"/>
<ellipse class="st3" cx="94.1" cy="43.1" rx="5" ry="7.7"/>
<ellipse class="st4" cx="95.7" cy="43.1" rx="5" ry="7.7"/>
</svg>
