<?xml version="1.0" encoding="UTF-8" standalone="no"?>
<!-- Generator: Adobe Illustrator 22.0.1, SVG Export Plug-In . SVG Version: 6.00 Build 0)  -->

<svg
   xmlns:dc="http://purl.org/dc/elements/1.1/"
   xmlns:cc="http://creativecommons.org/ns#"
   xmlns:rdf="http://www.w3.org/1999/02/22-rdf-syntax-ns#"
   xmlns:svg="http://www.w3.org/2000/svg"
   xmlns="http://www.w3.org/2000/svg"
   xmlns:sodipodi="http://sodipodi.sourceforge.net/DTD/sodipodi-0.dtd"
   xmlns:inkscape="http://www.inkscape.org/namespaces/inkscape"
   version="1.1"
   id="Layer_1"
   x="0px"
   y="0px"
   viewBox="0 0 160 160"
   style="enable-background:new 0 0 160 160;"
   xml:space="preserve"
   sodipodi:docname="top_14.svg"
   inkscape:version="0.92.2 (5c3e80d, 2017-08-06)"><metadata
     id="metadata68"><rdf:RDF><cc:Work
         rdf:about=""><dc:format>image/svg+xml</dc:format><dc:type
           rdf:resource="http://purl.org/dc/dcmitype/StillImage" /></cc:Work></rdf:RDF></metadata><defs
     id="defs66" /><sodipodi:namedview
     pagecolor="#ffffff"
     bordercolor="#666666"
     borderopacity="1"
     objecttolerance="10"
     gridtolerance="10"
     guidetolerance="10"
     inkscape:pageopacity="0"
     inkscape:pageshadow="2"
     inkscape:window-width="1920"
     inkscape:window-height="976"
     id="namedview64"
     showgrid="false"
     inkscape:zoom="11.8"
     inkscape:cx="124.36763"
     inkscape:cy="126.06322"
     inkscape:window-x="0"
     inkscape:window-y="27"
     inkscape:window-maximized="1"
     inkscape:current-layer="Layer_1" /><style
     type="text/css"
     id="style2">
	.st0{fill:#FFE000;}
	.st1{opacity:5.000000e-02;}
	.st2{fill:#C69757;}
	.st3{opacity:0.1;}
	.st5{fill:url(#SVGID_1_);}
	.st6{fill:url(#SVGID_2_);}
	.st7{fill:url(#SVGID_3_);}
</style><title
     id="title4">Artboard 42 copy 258</title><path
     class="st0"
     d="M45,55l-6-18.8c0,0,4,8.9,11,6.8s8-17.1,8-17.1s3,12.4,11,12.2S79.5,24,79.5,24S83,37,88,37  c10.1,0,13-12.1,13-12.1s3,16,8,16c3.1-0.1,6-1.4,8-3.8l-6,15C111,52.2,62,46.5,45,55z"
     id="path6" /><g
     class="st1"
     id="g10"><path
       d="M45,55c30-2.7,51.9-8.9,56-30.1c0,0,3,16,8,16c3.1-0.1,6-1.4,8-3.8l-6,15C111,52.2,62,46.5,45,55z"
       id="path8" /></g><path
     class="st2"
     d="M44.5,62.2C56,54.8,69.4,50.9,83,51c23,0,27.2,3.9,27.2,3.9l3.2,4.4c0,0,3.1,3.2,5.1-0.8s-3-12-18-15  s-42,0-54,7s-7,15-5,15H43L44.5,62.2z"
     id="path12" /><g
     class="st3"
     id="g16"><path
       d="M44.5,62.7C56,55.3,69.4,51.4,83,51.5c23,0,27.2,3.9,27.2,3.9l3.2,4.4c0,0,3.1,3.2,5.1-0.8C109,37,39,49,39.4,63.9   c0.6,1.3,1.5,2.1,2.1,2.1H43L44.5,62.7z"
       id="path14" /></g><circle
     cx="101.7"
     cy="22.2"
     r="6.8"
     id="circle18" /><g
     class="st1"
     id="g22"
     style="fill:#010101;fill-opacity:1;opacity:0.25"><path
       d="M108.5,23c-0.4,3.8-3.8,6.4-7.6,6c-1.8-0.2-3.4-1.1-4.6-2.5c1.7,0.6,6.1,1.3,8.9-1.4c2-1.9,2.1-5.6,1.6-7.4   C108.1,19.1,108.7,21.1,108.5,23z"
       id="path20"
       style="fill:#010101;fill-opacity:1" /></g><linearGradient
     id="SVGID_1_"
     gradientUnits="userSpaceOnUse"
     x1="222.9668"
     y1="-406.6246"
     x2="222.9668"
     y2="-399.8858"
     gradientTransform="matrix(0.9 0.11 0.12 -0.99 -49.89 -405.24)"><stop
       offset="0"
       style="stop-color:#FFD22D;stop-opacity:0"
       id="stop24" /><stop
       offset="0.81"
       style="stop-color:#FFFCEF;stop-opacity:0.7"
       id="stop26" /><stop
       offset="1"
       style="stop-color:#FFFFFF;stop-opacity:0.8"
       id="stop28" /></linearGradient><circle
     cx="100.7"
     cy="39.2"
     r="2.5"
     id="circle33" /><g
     class="st1"
     id="g37"><path
       d="M103.1,39.5c-0.2,1.4-1.4,2.3-2.7,2.2c-0.6-0.1-1.2-0.4-1.6-0.9c1.1,0.4,2.3,0.2,3.2-0.5c0.6-0.7,0.8-1.7,0.6-2.7   C103,38.1,103.2,38.8,103.1,39.5z"
       id="path35" /></g><linearGradient
     id="SVGID_2_"
     gradientUnits="userSpaceOnUse"
     x1="223.9812"
     y1="-423.2346"
     x2="223.9812"
     y2="-420.7946"
     gradientTransform="matrix(0.9 0.11 0.12 -0.99 -49.89 -405.24)"><stop
       offset="0"
       style="stop-color:#FFD22D;stop-opacity:0"
       id="stop39" /><stop
       offset="0.81"
       style="stop-color:#FFFCEF;stop-opacity:0.7"
       id="stop41" /><stop
       offset="1"
       style="stop-color:#FFFFFF;stop-opacity:0.8"
       id="stop43" /></linearGradient><circle
     cx="60.7"
     cy="40.2"
     r="2.5"
     id="circle48" /><g
     class="st1"
     id="g52"><path
       d="M63.1,40.5c-0.2,1.4-1.4,2.3-2.7,2.2c-0.6-0.1-1.2-0.4-1.6-0.9c1.1,0.4,2.3,0.2,3.2-0.5c0.6-0.7,0.8-1.7,0.6-2.7   C63,39.1,63.2,39.8,63.1,40.5z"
       id="path50" /></g><linearGradient
     id="SVGID_3_"
     gradientUnits="userSpaceOnUse"
     x1="180.2635"
     y1="-428.9146"
     x2="180.2635"
     y2="-426.4745"
     gradientTransform="matrix(0.9 0.11 0.12 -0.99 -49.89 -405.24)"><stop
       offset="0"
       style="stop-color:#FFD22D;stop-opacity:0"
       id="stop54" /><stop
       offset="0.81"
       style="stop-color:#FFFCEF;stop-opacity:0.7"
       id="stop56" /><stop
       offset="1"
       style="stop-color:#FFFFFF;stop-opacity:0.8"
       id="stop58" /></linearGradient></svg>