<?xml version="1.0" encoding="UTF-8" standalone="no"?>
<!-- Generator: Adobe Illustrator 22.0.1, SVG Export Plug-In . SVG Version: 6.00 Build 0)  -->

<svg
   xmlns:dc="http://purl.org/dc/elements/1.1/"
   xmlns:cc="http://creativecommons.org/ns#"
   xmlns:rdf="http://www.w3.org/1999/02/22-rdf-syntax-ns#"
   xmlns:svg="http://www.w3.org/2000/svg"
   xmlns="http://www.w3.org/2000/svg"
   xmlns:sodipodi="http://sodipodi.sourceforge.net/DTD/sodipodi-0.dtd"
   xmlns:inkscape="http://www.inkscape.org/namespaces/inkscape"
   version="1.1"
   id="Layer_1"
   x="0px"
   y="0px"
   viewBox="0 0 160 160"
   style="enable-background:new 0 0 160 160;"
   xml:space="preserve"
   sodipodi:docname="top_17.svg"
   inkscape:version="0.92.2 (5c3e80d, 2017-08-06)"><metadata
     id="metadata23"><rdf:RDF><cc:Work
         rdf:about=""><dc:format>image/svg+xml</dc:format><dc:type
           rdf:resource="http://purl.org/dc/dcmitype/StillImage" /></cc:Work></rdf:RDF></metadata><defs
     id="defs21" /><sodipodi:namedview
     pagecolor="#ffffff"
     bordercolor="#666666"
     borderopacity="1"
     objecttolerance="10"
     gridtolerance="10"
     guidetolerance="10"
     inkscape:pageopacity="0"
     inkscape:pageshadow="2"
     inkscape:window-width="1920"
     inkscape:window-height="976"
     id="namedview19"
     showgrid="false"
     inkscape:zoom="8.34386"
     inkscape:cx="46.371475"
     inkscape:cy="104.49225"
     inkscape:window-x="0"
     inkscape:window-y="27"
     inkscape:window-maximized="1"
     inkscape:current-layer="Layer_1" /><style
     type="text/css"
     id="style2">
	.st0{fill:#112289;}
	.st1{opacity:0.1;}
	.st2{fill:#1524A5;}
	.st3{fill:#111C60;}
	.st4{fill:#FFFF00;}
</style><title
     id="title4">Artboard 42 copy 181</title><path
     class="st0"
     d="M46.5,58.2c0,0-12-0.6-16.5-3.8c2.5-0.5,4.7-2.1,6-4.3c1.5-2.5,2.1-5.4,1.7-8.3c0,0,9.1-0.3,13.8-5.5  S57,23.7,57,23.7s7.9,4.1,21.5,1.8S95.3,18,95.3,18s2.2,9,9.4,12c4.6,1.8,9.4,3,14.3,3.6c-0.7,8.6-6.1,13.5-13,15.8  C86.4,42.3,46.5,58.2,46.5,58.2z"
     id="path6" /><g
     class="st1"
     id="g10"><path
       d="M46.5,58.2c0,0-12-0.6-16.5-3.8c2.5-0.5,4.7-2.1,6-4.3c1.5-2.5,2.1-5.4,1.7-8.3c0,0,9.1-0.3,13.8-5.5S57,23.7,57,23.7   s7.9,4.1,21.5,1.8S95.3,18,95.3,18s2.2,9,9.4,12c4.6,1.8,9.4,3,14.3,3.6c-0.7,8.6-6.1,13.5-13,15.8C86.4,42.3,46.5,58.2,46.5,58.2z   "
       id="path8" /></g><path
     class="st2"
     d="M45,62c0,0,13.7-13.6,49.7-11.3c0,0,11.3,2,14.6,4.8c0,0,0.4-13.9-16.2-16s-35.6,1.6-43.5,11.7  C47.2,54.5,45.7,58.1,45,62z"
     id="path12" /><ellipse
     class="st3"
     cx="94.1"
     cy="43.1"
     rx="5"
     ry="7.7"
     id="ellipse14" /><ellipse
     class="st4"
     cx="95.7"
     cy="43.1"
     rx="5"
     ry="7.7"
     id="ellipse16"
     style="fill:#000000;fill-opacity:1" /></svg>