<svg xmlns="http://www.w3.org/2000/svg" viewBox="0 0 160 160">
  <path d="M46.5 58.2s-12-.6-16.5-3.8a9.1 9.1 0 006-4.3c1.5-2.5 2.1-5.4 1.7-8.3 0 0 9.1-.3 13.8-5.5S57 23.7 57 23.7s7.9 4.1 21.5 1.8S95.3 18 95.3 18s2.2 9 9.4 12c4.6 1.8 9.4 3 14.3 3.6-.7 8.6-6.1 13.5-13 15.8-19.6-7.1-59.5 8.8-59.5 8.8z" fill="#112289"/>
  <path d="M46.5 58.2s-12-.6-16.5-3.8a9.1 9.1 0 006-4.3c1.5-2.5 2.1-5.4 1.7-8.3 0 0 9.1-.3 13.8-5.5S57 23.7 57 23.7s7.9 4.1 21.5 1.8S95.3 18 95.3 18s2.2 9 9.4 12c4.6 1.8 9.4 3 14.3 3.6-.7 8.6-6.1 13.5-13 15.8-19.6-7.1-59.5 8.8-59.5 8.8z" opacity=".1"/>
  <path d="M45 62s13.7-13.6 49.7-11.3c0 0 11.3 2 14.6 4.8 0 0 .4-13.9-16.2-16s-35.6 1.6-43.5 11.7A25.9 25.9 0 0045 62z" fill="#1524a5"/>
  <ellipse cx="94.1" cy="43.1" rx="5" ry="7.7" fill="#111c60"/>
  <ellipse cx="95.7" cy="43.1" rx="5" ry="7.7"/>
</svg>
