<svg xmlns="http://www.w3.org/2000/svg" viewBox="0 0 160 160">
  <path d="M50.8 32.5s2.4 6 5.4 4.8 48.1-1.7 48.1-1.7l4-4.7s7.7-5.1 4.1 3.3l-2.1 3.6c-.6 1-1.1 2.2-1.4 3.4-.1 1.4 1.7-2.8 1.7-2.8l3.8 6.1s2.5 4.6-1.8 4.2-7-3.5-8.3-5.1l-48.1 1.7s-6.5 8.2-9.4 7.9-2.6-3.1-.7-8.8c0 0 1.7-2.8 1.8-4.2S46.3 43 46.3 43s-3.3-7.6-3.6-9c-.7-3.7 3.3-9.1 8.1-1.5z" fill="#fff"/>
  <path d="M111.1 29.5s2.3 1.1-.9 5.2-6.3 5.3-.7 8.7 4.3.4 4.3.4l-3.2-5.3c0-.1 6.2-10.1.5-9zM48.4 40.6s3.2-.7 1.7.6-4.3 5.2 3.7 2.4 47.2-2.7 47.2-2.7l2.8 2.3-47.5 2s-5.8 7-8.7 6.8-.7-7-.7-7l1.5-4.4z" opacity=".14"/>
</svg>
