<svg xmlns="http://www.w3.org/2000/svg" viewBox="0 0 160 160">
  <path d="M43.5 62.2s-7.5-.2-9.4-3.8c-.2-1.1-.2-2.3-.1-3.5a45.7 45.7 0 0147-37c32 1 44 33 42 43-1 3-6 5-7.6 3.5C111 57 99.9 53.4 83 54c-32 0-39.5 8.2-39.5 8.2z" fill="#fff"/>
  <path d="M83 20s16 8 18 25l-6 10c15 0 21 10 21 10s5 0 7-4.3c.7-5 .1-14.2-11.1-28.2 0 0-10.9-13.5-28.9-14.5 0 0-4 1 0 2z" opacity=".05"/>
  <path d="M43.6 61.9s-7.5-.1-9.2-3.6c-1.4-2 14.7-11.9 47-11.3s43.4 11.7 41.4 14.1c-2 4.1-7.5 3.9-7.5 3.9 0-.7-2.6-11.9-31.9-10.6-34.4.6-39.8 7.5-39.8 7.5z" opacity=".2"/>
  <g opacity=".1">
    <path d="M34.8 57.7s4.9 4.1 7 4.3l1.2-.6-7.3-4.7-.9 1z"/>
    <path d="M41 53.2l7.7 5.8 2.3-.8-7.4-6z"/>
    <path d="M54.6 49.2l5.1 7.4 3.2-.6-4.7-7.5z"/>
    <path d="M70.4 47.2l2.3 7.6 2.9-.2-1-7.6z"/>
    <path d="M89.1 47.3l-1.3 7.1 2.8.1 2.3-6.8z"/>
    <path d="M105.2 49.9l-3.8 6.1 2.4.7 4.3-6z"/>
    <path d="M118.9 55.6l-7.6 4.1 2.5 1.6 8-3.2z"/>
  </g>
  <ellipse cx="96.2" cy="32.5" rx="8.2" ry="9.5"/>
  <path d="M122.2 51.8a9.5 9.5 0 01-7.5-6c-1.1-2.9-.9-6.1.7-8.8 3.1 4.4 5.5 9.4 6.8 14.8z"/>
  <path d="M52.9 32.2c-1.8 5-6.6 7.7-10.9 6.2l-1-.5s5-8 11.8-12c.8 2.1.8 4.3.1 6.3z"/>
  <path d="M81.1 23.6c-1.3 5.1-5.9 8.3-10.3 7.1s-6.7-5.9-5.7-10.8C71 18 74 18 80.7 18a9 9 0 01.4 5.6z"/>
  <path d="M50 50.2V50a9.3 9.3 0 019.5-9c4-.1 7.6 2.4 9 6.1A80.4 80.4 0 0050 50.2z"/>
</svg>
