<?xml version="1.0" encoding="UTF-8" standalone="no"?>
<!-- Generator: Adobe Illustrator 22.0.1, SVG Export Plug-In . SVG Version: 6.00 Build 0)  -->

<svg
   xmlns:dc="http://purl.org/dc/elements/1.1/"
   xmlns:cc="http://creativecommons.org/ns#"
   xmlns:rdf="http://www.w3.org/1999/02/22-rdf-syntax-ns#"
   xmlns:svg="http://www.w3.org/2000/svg"
   xmlns="http://www.w3.org/2000/svg"
   xmlns:sodipodi="http://sodipodi.sourceforge.net/DTD/sodipodi-0.dtd"
   xmlns:inkscape="http://www.inkscape.org/namespaces/inkscape"
   version="1.1"
   id="Layer_1"
   x="0px"
   y="0px"
   viewBox="0 0 160 160"
   style="enable-background:new 0 0 160 160;"
   xml:space="preserve"
   sodipodi:docname="top_13.svg"
   inkscape:version="0.92.2 (5c3e80d, 2017-08-06)"><metadata
     id="metadata25"><rdf:RDF><cc:Work
         rdf:about=""><dc:format>image/svg+xml</dc:format><dc:type
           rdf:resource="http://purl.org/dc/dcmitype/StillImage" /></cc:Work></rdf:RDF></metadata><defs
     id="defs23" /><sodipodi:namedview
     pagecolor="#ffffff"
     bordercolor="#666666"
     borderopacity="1"
     objecttolerance="10"
     gridtolerance="10"
     guidetolerance="10"
     inkscape:pageopacity="0"
     inkscape:pageshadow="2"
     inkscape:window-width="1920"
     inkscape:window-height="976"
     id="namedview21"
     showgrid="false"
     inkscape:zoom="11.8"
     inkscape:cx="84.847103"
     inkscape:cy="124.50548"
     inkscape:window-x="0"
     inkscape:window-y="27"
     inkscape:window-maximized="1"
     inkscape:current-layer="Layer_1" /><style
     type="text/css"
     id="style2">
	.st0{fill:#743A4B;}
	.st1{opacity:0.2;}
	.st3{opacity:0.1;enable-background:new    ;}
	.st4{fill:#39B54A;}
</style><title
     id="title4">Artboard 42 copy 171</title><path
     class="st0"
     d="M43.8,62.3C41,63,40.3,60.7,44,57c10.7-9.5,24.7-14.6,39-14c24,1,31,10,31,10s4,5-2.4,3.7  C111.6,56.7,80.6,42.6,43.8,62.3z"
     id="path6" /><g
     class="st1"
     id="g10"><path
       d="M45.5,60.2C52,54.9,59.7,51.4,68,50c18-4,39.1,1.6,39.1,1.6s5.9,1.1,5.9,3.3s-3,0.2-3,0.2c-24.3-5.3-47.7-5.6-66,8   C44,63,43,62.4,45.5,60.2z"
       id="path8" /></g><path
     d="M71.5,50.2c1-2.7,0.6-9.5-0.9-13.5c-0.2-0.5-0.9,1.4-1.1,1c-1.7-6.5-3.7-6.9-5-7.2l-1.1,2  c0.8-6.1-5.2-9.5-5.2-9.5l0.4,1.6c-1.9-2-4.1-3.6-6.5-5c-0.3-0.3-0.3-0.3-0.2,0.2c0.2,2.7,0.8,5.4,1.8,7.9l-1.2-1  c0,0,0.5,6.9,6.5,8.7l-2.3,0.2c0.4,4.6,5,6.6,5,6.6s-2.5-0.3-2.2,0.1C62.6,46.1,66.8,48.9,71.5,50.2z"
     id="path12" /><path
     class="st3"
     d="M71.5,50.2c1-2.7,0.6-9.5-0.9-13.5c-0.2-0.5-0.9,1.4-1.1,1c-1.7-6.5-3.7-6.9-5-7.2l-1.1,2  c0.8-6.1-5.2-9.5-5.2-9.5l0.4,1.6c-1.9-2-4.1-3.6-6.5-5c-0.3-0.3-0.3-0.3-0.2,0.2L71.5,50.2z"
     id="path14"
     style="fill:#010101;fill-opacity:1" /><path
     class="st4"
     d="M62.9,50.7c-0.3-2.1-2.9-6.7-5.2-8.9c-0.3-0.3-0.1,1.3-0.4,1c-3.4-3.9-4.9-3.5-5.9-3.2l-0.1,1.8  c-1.5-4.5-6.8-4.7-6.8-4.7l0.8,0.9c-2-0.7-4-1-6.1-1.2c-0.3-0.1-0.3-0.1-0.1,0.2c1.1,1.8,2.4,3.4,3.9,4.8l-1.2-0.3  c0,0,2.7,4.5,7.4,3.7l-1.5,0.9c1.8,3,5.7,2.7,5.7,2.7s-1.8,0.7-1.5,0.8C55.4,50.9,59.2,51.4,62.9,50.7z"
     id="path16" /><path
     d="M62.9,50.7c-0.3-2.1-2.9-6.7-5.2-8.9c-0.3-0.3-0.1,1.3-0.4,1c-3.4-3.9-4.9-3.5-5.9-3.2l-0.1,1.8  c-1.5-4.5-6.8-4.7-6.8-4.7l0.8,0.9c-2-0.7-4-1-6.1-1.2c-0.3-0.1-0.3-0.1-0.1,0.2c1.1,1.8,2.4,3.4,3.9,4.8l-1.2-0.3  c0,0,2.7,4.5,7.4,3.7l-1.5,0.9c1.8,3,5.7,2.7,5.7,2.7s-1.8,0.7-1.5,0.8C55.4,50.9,59.2,51.4,62.9,50.7z"
     id="path18" /></svg>