<svg xmlns="http://www.w3.org/2000/svg" viewBox="0 0 160 160">
  <path d="M75.3 38.8A13.9 13.9 0 0060 34c-10 3-7.4 13.4-16.2 19.2S34 51 34 51s-1 24 21 16c0 0 9-2 12-9-.1 2.5-.7 4.9-2 7 4.7-.8 9.4-1.7 14-7 0 0 3-5 4 0 3 7 14 7 14 7s-3-6 0-10c3-3 2.8-1.8 2.8-1.8S103 63 113 62s10-12 10-12-3 7-6 2-10.4-21.1-17.7-13.5-24 .3-24 .3z"/>
  <path d="M74 22l2 24s11-3 22 1l5-25-10 10-4-16-7 15-8-9z" fill="#ff0"/>
  <path d="M75.8 43.4L76 46s11-3 22 1l.5-2.6a40.2 40.2 0 00-22.7-1z" fill="#d68227"/>
  <g opacity=".2">
    <path d="M89 16l4 16.4-3-1.8-2.3-11.8zM74 22.4l8 8.2-3 .9-4.7-5.8z"/>
    <path d="M93.5 45.6l4.1 1.3 5.9-24.8-5.6 5.2-4.4 18.3z"/>
  </g>
</svg>
