<?xml version="1.0" encoding="utf-8"?>
<!-- Generator: Adobe Illustrator 22.0.1, SVG Export Plug-In . SVG Version: 6.00 Build 0)  -->
<svg version="1.1" id="Layer_1" xmlns="http://www.w3.org/2000/svg" xmlns:xlink="http://www.w3.org/1999/xlink" x="0px" y="0px"
	 viewBox="0 0 160 160" style="enable-background:new 0 0 160 160;" xml:space="preserve">
<style type="text/css">
	.st0{fill:#FFFF00;}
	.st1{opacity:0.2;}
	.st2{fill:#D68227;}
</style>
<title>Artboard 42 copy 183</title>
<path d="M75.3,38.8c-3.6-4.7-9.7-6.6-15.3-4.8c-10,3-7.4,13.4-16.2,19.2S34,51,34,51s-1,24,21,16c0,0,9-2,12-9c-0.1,2.5-0.7,4.9-2,7
	c4.7-0.8,9.4-1.7,14-7c0,0,3-5,4,0c3,7,14,7,14,7s-3-6,0-10c3-3,2.8-1.8,2.8-1.8S103,63,113,62s10-12,10-12s-3,7-6,2
	s-10.4-21.1-17.7-13.5S75.3,38.8,75.3,38.8z"/>
<path class="st0" d="M74,22l2,24c0,0,11-3,22,1l5-25L93,32l-4-16l-7,15L74,22z"/>
<g class="st1">
	<polygon points="89,16 93,32.4 90,30.6 87.7,18.8 	"/>
</g>
<g class="st1">
	<polygon points="74,22.4 82,30.6 79,31.5 74.3,25.7 	"/>
</g>
<path class="st2" d="M75.8,43.4L76,46c0,0,11-3,22,1l0.5-2.6C91.7,41.9,84.1,41.6,75.8,43.4z"/>
<g class="st1">
	<path d="M93.5,45.6c0,0,2.7,0.8,4.1,1.3l5.9-24.8l-5.6,5.2L93.5,45.6z"/>
</g>
</svg>
