<svg id="Layer_1" data-name="Layer 1" xmlns="http://www.w3.org/2000/svg" viewBox="0 0 160 160"><defs><style>.cls-1{opacity:0.2;}.cls-2{fill:#fff;}.cls-3{opacity:0.15;}</style></defs><title>Artboard 42 copy 187</title><path class="cls-1" d="M83.81,43.36A8.25,8.25,0,0,0,82,46c-1,2,1,7,7,8s11,2,12-3S87.62,42.73,83.81,43.36Z"/><path class="cls-2" d="M82.78,44.75,102,19s-3.23,26.83-3.62,29.81C97,55,79,55,82.78,44.75Z"/><g class="cls-3"><path d="M82.78,44.75C91,51,96,40,97.93,24.46L102,19s-3.23,26.83-3.62,29.81C97,55,79,55,82.78,44.75Z"/></g><path d="M98.85,45.06S89,52,85,41.75L86.31,40S91,48,99.1,43Z"/><path d="M89.87,35.25S93.41,43,99.7,38l.25-2c-3.21,1.6-6.24,1.28-8.94-2.29Z"/><path d="M94,29.66s2,4.21,6.46,1.77l.27-2.22s-3.38,2-5.58-1.09Z"/></svg>