<?xml version="1.0" encoding="utf-8"?>
<!-- Generator: Adobe Illustrator 22.0.1, SVG Export Plug-In . SVG Version: 6.00 Build 0)  -->
<svg version="1.1" id="Layer_1" xmlns="http://www.w3.org/2000/svg" xmlns:xlink="http://www.w3.org/1999/xlink" x="0px" y="0px"
	 viewBox="0 0 160 160" style="enable-background:new 0 0 160 160;" xml:space="preserve">
<style type="text/css">
	.st0{fill:#FFFFFF;}
	.st1{opacity:5.000000e-02;}
</style>
<title>Artboard 42 copy 194</title>
<path class="st0" d="M44.6,62C55.1,45,63.9,28.7,67,15c3.8-1.3,24.3,18,42,38.5C109,53.5,77,19,44.6,62z"/>
<g class="st1">
	<path d="M68,15c8.4,4.8,25.2,22.5,41,38.5c-9.9-8.7-17.9-12.4-24.7-12.8L68,15z"/>
</g>
<path class="st0" d="M119,47c0,0,11,5,10,12s-10,5-10-1S116,48,119,47z"/>
<path class="st0" d="M120.5,42.9c0,0,4.2-1.4,5.7,0.7s-1.4,3.8-2.9,2.2S120,43.9,120.5,42.9z"/>
<path class="st0" d="M48.8,25.5c0,0-10,4.5-9.1,10.9s9.1,4.5,9.1-0.9S51.5,26.4,48.8,25.5z"/>
<path class="st0" d="M33.5,46.8c0,0,0.7,5.6-2.4,6.9s-4.4-2.8-2-4.2S32.4,45.9,33.5,46.8z"/>
</svg>
