<?xml version="1.0" encoding="UTF-8" standalone="no"?>
<!-- Generator: Adobe Illustrator 22.0.1, SVG Export Plug-In . SVG Version: 6.00 Build 0)  -->

<svg
   xmlns:dc="http://purl.org/dc/elements/1.1/"
   xmlns:cc="http://creativecommons.org/ns#"
   xmlns:rdf="http://www.w3.org/1999/02/22-rdf-syntax-ns#"
   xmlns:svg="http://www.w3.org/2000/svg"
   xmlns="http://www.w3.org/2000/svg"
   xmlns:sodipodi="http://sodipodi.sourceforge.net/DTD/sodipodi-0.dtd"
   xmlns:inkscape="http://www.inkscape.org/namespaces/inkscape"
   version="1.1"
   id="Layer_1"
   x="0px"
   y="0px"
   viewBox="0 0 160 160"
   style="enable-background:new 0 0 160 160;"
   xml:space="preserve"
   sodipodi:docname="top_02.svg"
   inkscape:version="0.92.2 (5c3e80d, 2017-08-06)"><metadata
     id="metadata83"><rdf:RDF><cc:Work
         rdf:about=""><dc:format>image/svg+xml</dc:format><dc:type
           rdf:resource="http://purl.org/dc/dcmitype/StillImage" /></cc:Work></rdf:RDF></metadata><defs
     id="defs81" /><sodipodi:namedview
     pagecolor="#ffffff"
     bordercolor="#666666"
     borderopacity="1"
     objecttolerance="10"
     gridtolerance="10"
     guidetolerance="10"
     inkscape:pageopacity="0"
     inkscape:pageshadow="2"
     inkscape:window-width="1920"
     inkscape:window-height="976"
     id="namedview79"
     showgrid="false"
     inkscape:zoom="16.68772"
     inkscape:cx="74.168704"
     inkscape:cy="129.81888"
     inkscape:window-x="0"
     inkscape:window-y="27"
     inkscape:window-maximized="1"
     inkscape:current-layer="Layer_1" /><style
     type="text/css"
     id="style2">
	.st1{opacity:5.000000e-02;}
	.st2{fill:url(#SVGID_2_);}
	.st3{fill:#93505C;}
	.st4{fill:url(#SVGID_3_);}
	.st5{clip-path:url(#SVGID_5_);}
	.st6{fill:url(#SVGID_6_);}
	.st7{fill:url(#SVGID_7_);}
	.st8{clip-path:url(#SVGID_9_);}
	.st9{fill:url(#SVGID_10_);}
</style><title
     id="title4">Artboard 42 copy 155</title><path
     class="st0"
     d="m 75.9,27.8 c 0.1,2.2 -2.7,5.4 -2.7,5.4 0,0 -1.523729,-2.839831 -3.623729,-3.839831 -2.1,-1 -3.94661,0.945763 -3.04661,1.545763 L 68.6,35.6 c -0.9,0.1 -1.8,0.1 -2.6,0.1 -4.9,-0.6 -8.5,-5.1 -7.9,-10 0.6,-4.9 5.1,-8.5 10,-7.9 4.9,0.6 8.4,5.1 7.8,10 z"
     id="path13"
     style="fill-opacity:1"
     inkscape:connector-curvature="0"
     sodipodi:nodetypes="ccscccssc" /><g
     class="st1"
     id="g17"
     style="fill:#010101;fill-opacity:1;opacity:0.25"><path
       d="M75.9,27.8c0.1,2.2-2.7,5.4-2.7,5.4l-1.6-2.7c1,0,3.6-7.3,2.1-9.7C75.4,22.7,76.2,25.3,75.9,27.8z"
       id="path15"
       style="fill:#010101;fill-opacity:1" /></g><linearGradient
     id="SVGID_2_"
     gradientUnits="userSpaceOnUse"
     x1="-102.7928"
     y1="-431.0845"
     x2="-102.7928"
     y2="-422.2346"
     gradientTransform="matrix(0.9 0.11 0.12 -0.99 211.81 -390.19)"><stop
       offset="0"
       style="stop-color:#F27331;stop-opacity:0"
       id="stop19" /><stop
       offset="0.81"
       style="stop-color:#FFFCEF;stop-opacity:0.7"
       id="stop21" /><stop
       offset="1"
       style="stop-color:#FFFFFF;stop-opacity:0.8"
       id="stop23" /></linearGradient><path
     class="st3"
     d="m 66,31 c 0,0 3.7,5.7 4.8,10.3 0.6,2.2 1,4.4 1.2,6.7 1,4 8,2 8,-1 C 80,47 73.880151,33.13483 71.074905,29.940076 68.374527,26.131098 64.756356,28.771187 66,31 Z"
     id="path28"
     inkscape:connector-curvature="0"
     style="fill:#93505c"
     sodipodi:nodetypes="cccccc" /><linearGradient
     id="SVGID_3_"
     gradientUnits="userSpaceOnUse"
     x1="646.8101"
     y1="-686.7104"
     x2="646.8101"
     y2="-669.6604"
     gradientTransform="matrix(1 0 0 -1 0 162)"><stop
       offset="0"
       style="stop-color:#A66707"
       id="stop30" /><stop
       offset="1"
       style="stop-color:#000000"
       id="stop32" /></linearGradient><linearGradient
     id="SVGID_7_"
     gradientUnits="userSpaceOnUse"
     x1="-89.19"
     y1="-685.7104"
     x2="-89.19"
     y2="-668.6604"
     gradientTransform="matrix(1 0 0 -1 0 162)"><stop
       offset="0"
       style="stop-color:#A66707"
       id="stop54" /><stop
       offset="1"
       style="stop-color:#000000"
       id="stop56" /></linearGradient></svg>