<?xml version="1.0" encoding="UTF-8" standalone="no"?>
<!-- Generator: Adobe Illustrator 22.0.1, SVG Export Plug-In . SVG Version: 6.00 Build 0)  -->

<svg
   xmlns:dc="http://purl.org/dc/elements/1.1/"
   xmlns:cc="http://creativecommons.org/ns#"
   xmlns:rdf="http://www.w3.org/1999/02/22-rdf-syntax-ns#"
   xmlns:svg="http://www.w3.org/2000/svg"
   xmlns="http://www.w3.org/2000/svg"
   xmlns:xlink="http://www.w3.org/1999/xlink"
   xmlns:sodipodi="http://sodipodi.sourceforge.net/DTD/sodipodi-0.dtd"
   xmlns:inkscape="http://www.inkscape.org/namespaces/inkscape"
   version="1.1"
   id="Layer_1"
   x="0px"
   y="0px"
   viewBox="0 0 160 160"
   style="enable-background:new 0 0 160 160;"
   xml:space="preserve"
   sodipodi:docname="top_02.svg"
   inkscape:version="0.92.2 (5c3e80d, 2017-08-06)"><metadata
     id="metadata83"><rdf:RDF><cc:Work
         rdf:about=""><dc:format>image/svg+xml</dc:format><dc:type
           rdf:resource="http://purl.org/dc/dcmitype/StillImage" /></cc:Work></rdf:RDF></metadata><defs
     id="defs81" /><sodipodi:namedview
     pagecolor="#ffffff"
     bordercolor="#666666"
     borderopacity="1"
     objecttolerance="10"
     gridtolerance="10"
     guidetolerance="10"
     inkscape:pageopacity="0"
     inkscape:pageshadow="2"
     inkscape:window-width="1920"
     inkscape:window-height="976"
     id="namedview79"
     showgrid="false"
     inkscape:zoom="8.34386"
     inkscape:cx="26.997982"
     inkscape:cy="140.28479"
     inkscape:window-x="0"
     inkscape:window-y="27"
     inkscape:window-maximized="1"
     inkscape:current-layer="Layer_1" /><style
     type="text/css"
     id="style2">
	.st1{opacity:5.000000e-02;}
	.st2{fill:url(#SVGID_2_);}
	.st3{fill:#93505C;}
	.st4{fill:url(#SVGID_3_);}
	.st5{clip-path:url(#SVGID_5_);}
	.st6{fill:url(#SVGID_6_);}
	.st7{fill:url(#SVGID_7_);}
	.st8{clip-path:url(#SVGID_9_);}
	.st9{fill:url(#SVGID_10_);}
</style><title
     id="title4">Artboard 42 copy 155</title><path
     class="st0"
     d="M75.9,27.8c0.1,2.2-2.7,5.4-2.7,5.4S72.1,30,70,29s-4.9,1.2-4,1.8l2.6,4.8c-0.9,0.1-1.8,0.1-2.6,0.1  c-4.9-0.6-8.5-5.1-7.9-10s5.1-8.5,10-7.9C73,18.4,76.5,22.9,75.9,27.8C75.9,27.8,75.9,27.8,75.9,27.8L75.9,27.8z"
     id="path13"
     style="fill-opacity:1" /><g
     class="st1"
     id="g17"
     style="fill:#010101;fill-opacity:1;opacity:0.25"><path
       d="M75.9,27.8c0.1,2.2-2.7,5.4-2.7,5.4l-1.6-2.7c1,0,3.6-7.3,2.1-9.7C75.4,22.7,76.2,25.3,75.9,27.8z"
       id="path15"
       style="fill:#010101;fill-opacity:1" /></g><linearGradient
     id="SVGID_2_"
     gradientUnits="userSpaceOnUse"
     x1="-102.7928"
     y1="-431.0845"
     x2="-102.7928"
     y2="-422.2346"
     gradientTransform="matrix(0.9 0.11 0.12 -0.99 211.81 -390.19)"><stop
       offset="0"
       style="stop-color:#F27331;stop-opacity:0"
       id="stop19" /><stop
       offset="0.81"
       style="stop-color:#FFFCEF;stop-opacity:0.7"
       id="stop21" /><stop
       offset="1"
       style="stop-color:#FFFFFF;stop-opacity:0.8"
       id="stop23" /></linearGradient><path
     class="st3"
     d="M66,31c0,0,3.7,5.7,4.8,10.3c0.6,2.2,1,4.4,1.2,6.7c1,4,8,2,8-1c0,0-6-14-9-17S65,30,66,31z"
     id="path28" /><linearGradient
     id="SVGID_3_"
     gradientUnits="userSpaceOnUse"
     x1="646.8101"
     y1="-686.7104"
     x2="646.8101"
     y2="-669.6604"
     gradientTransform="matrix(1 0 0 -1 0 162)"><stop
       offset="0"
       style="stop-color:#A66707"
       id="stop30" /><stop
       offset="1"
       style="stop-color:#000000"
       id="stop32" /></linearGradient><path
     class="st4"
     d="M648.3,843.1c-0.5,0-1,0-1.5-0.1c-0.9-0.1-1.3,5.4-2.5,5.7s-1.7-6.4-2.5-6.6c-2.4-0.7-6.5-1.8-8.3-2.9  c-4-2.6-4.4-5.7-4.4-7c0-2.4,7.5,5.4,19,5.4h0.5c7.9,0,12.8-2.5,13.7-3s2.4-0.7,2.4,1.6c0,1.1-1.8,2.8-4.7,4.2  c-0.7,0.4-0.9,8.4-2.4,8s-1.7-6.4-2.7-6.1C652.7,842.8,650.5,843.1,648.3,843.1z"
     id="path35" /><g
     id="g52"><defs
       id="defs38"><path
         id="SVGID_4_"
         d="M648.3,843.1c-0.5,0-1,0-1.5-0.1c-0.9-0.1-1.3,5.4-2.5,5.7s-1.7-6.4-2.5-6.6c-2.4-0.7-6.5-1.8-8.3-2.9    c-4-2.6-4.4-5.7-4.4-7c0-2.4,7.5,5.4,19,5.4h0.5c7.9,0,12.8-2.5,13.7-3s2.4-0.7,2.4,1.6c0,1.1-1.8,2.8-4.7,4.2    c-0.7,0.4-0.9,8.4-2.4,8s-1.7-6.4-2.7-6.1C652.7,842.8,650.5,843.1,648.3,843.1z" /></defs><clipPath
       id="SVGID_5_"><use
         xlink:href="#SVGID_4_"
         style="overflow:visible;"
         id="use40" /></clipPath><g
       class="st5"
       clip-path="url(#SVGID_5_)"
       id="g50"><linearGradient
         id="SVGID_6_"
         gradientUnits="userSpaceOnUse"
         x1="568.985"
         y1="-1092.1499"
         x2="568.985"
         y2="739.07"
         gradientTransform="matrix(1 0 0 -1 0 162)"><stop
           offset="0"
           style="stop-color:#A66707"
           id="stop43" /><stop
           offset="1"
           style="stop-color:#000000"
           id="stop45" /></linearGradient><rect
         x="65.9"
         y="-577.1"
         class="st6"
         width="1006.2"
         height="1831.2"
         id="rect48" /></g></g><linearGradient
     id="SVGID_7_"
     gradientUnits="userSpaceOnUse"
     x1="-89.19"
     y1="-685.7104"
     x2="-89.19"
     y2="-668.6604"
     gradientTransform="matrix(1 0 0 -1 0 162)"><stop
       offset="0"
       style="stop-color:#A66707"
       id="stop54" /><stop
       offset="1"
       style="stop-color:#000000"
       id="stop56" /></linearGradient><path
     class="st7"
     d="M-87.7,842.1c-0.5,0-1,0-1.5-0.1c-0.9-0.1-1.3,5.4-2.6,5.7s-1.7-6.4-2.5-6.6c-2.4-0.7-6.5-1.8-8.3-2.9  c-4-2.6-4.4-5.7-4.4-7c0-2.4,7.5,5.4,19,5.4h0.5c7.9,0,12.8-2.5,13.7-3s2.4-0.7,2.4,1.6c0,1.1-1.8,2.8-4.7,4.2  c-0.7,0.4-0.9,8.4-2.4,8s-1.7-6.4-2.7-6.1C-83.3,841.8-85.5,842.1-87.7,842.1z"
     id="path59" /><g
     id="g76"><defs
       id="defs62"><path
         id="SVGID_8_"
         d="M-87.7,842.1c-0.5,0-1,0-1.5-0.1c-0.9-0.1-1.3,5.4-2.6,5.7s-1.7-6.4-2.5-6.6c-2.4-0.7-6.5-1.8-8.3-2.9    c-4-2.6-4.4-5.7-4.4-7c0-2.4,7.5,5.4,19,5.4h0.5c7.9,0,12.8-2.5,13.7-3s2.4-0.7,2.4,1.6c0,1.1-1.8,2.8-4.7,4.2    c-0.7,0.4-0.9,8.4-2.4,8s-1.7-6.4-2.7-6.1C-83.3,841.8-85.5,842.1-87.7,842.1z" /></defs><clipPath
       id="SVGID_9_"><use
         xlink:href="#SVGID_8_"
         style="overflow:visible;"
         id="use64" /></clipPath><g
       class="st8"
       clip-path="url(#SVGID_9_)"
       id="g74"><linearGradient
         id="SVGID_10_"
         gradientUnits="userSpaceOnUse"
         x1="-167.015"
         y1="-1091.1499"
         x2="-167.015"
         y2="740.07"
         gradientTransform="matrix(1 0 0 -1 0 162)"><stop
           offset="0"
           style="stop-color:#A66707"
           id="stop67" /><stop
           offset="1"
           style="stop-color:#000000"
           id="stop69" /></linearGradient><rect
         x="-670.1"
         y="-578.1"
         class="st9"
         width="1006.2"
         height="1831.2"
         id="rect72" /></g></g></svg>