<?xml version="1.0" encoding="utf-8"?>
<!-- Generator: Adobe Illustrator 22.0.1, SVG Export Plug-In . SVG Version: 6.00 Build 0)  -->
<svg version="1.1" id="Layer_1" xmlns="http://www.w3.org/2000/svg" xmlns:xlink="http://www.w3.org/1999/xlink" x="0px" y="0px"
	 viewBox="0 0 160 160" style="enable-background:new 0 0 160 160;" xml:space="preserve">
<style type="text/css">
	.st0{fill:#FFFFFF;}
	.st1{fill:#FF0000;}
	.st2{opacity:0.12;enable-background:new    ;}
	.st3{opacity:0.2;enable-background:new    ;}
</style>
<title>Artboard 42 copy 189</title>
<path class="st0" d="M74.9,33.5c0,0-7-2.4-6.2-9.6s9.5-11.4,15.3-5.1c3.4,3.4,4.1,8.6,1.8,12.8L74.9,33.5z"/>
<path class="st1" d="M79.8,26.6c-31.7-1.6-33.9,27-33.9,27l65,0.8C110.8,54.3,111.4,28.1,79.8,26.6z"/>
<path class="st0" d="M46.1,49.8c0,0-4.7,1.2-5.4,4.6s-1.2,7.8-1.2,7.8c0.1,1.9,2.9,4.1,2.9,4.1s0.5-1.3,1.1-2.7
	c10.8-5.8,42.1-8.4,50.7-8.8c5.6-0.1,11.2,0.3,16.7,1.1l2.2,3.4l3.6-2.5c0.7-0.4,1.1-1.2,0.7-2c-0.6-1.4-3-10.3-5-11.7
	c-1.3-0.9-11-2.3-28.8-0.4C71,44.2,58.5,46.5,46.1,49.8z"/>
<path class="st2" d="M39.5,62.2c0.1,1.9,2.9,4.1,2.9,4.1s0.5-1.3,1.1-2.7c10.8-5.8,42.1-8.4,50.7-8.8c5.3-0.1,10.5,0.2,15.7,1.1
	l3.2,3.5l3.6-2.5c0.7-0.4,1.1-1.2,0.7-2C113.5,45.5,37.4,57.3,39.5,62.2z"/>
<path class="st3" d="M45.7,49.8c0,0-1.4,7.5-1.2,9.4c0.1,1.2,0.4,2.3,0.8,3.4l2.1-0.7l-0.8-3.4l1.1-9.2L45.7,49.8z"/>
<path class="st3" d="M48.5,49.2c0,0-1.4,7.5-1.2,9.4c0.1,1.2,0.4,2.3,0.8,3.4l2.1-0.7l-0.8-3.4l1.1-9.2L48.5,49.2z"/>
<polygon class="st3" points="55.9,47.4 55.6,56.2 56.6,59.5 58.6,59.2 57.7,56.2 57.7,47.1 "/>
<polygon class="st3" points="58.3,46.8 58,55.6 59,58.8 61,58.5 60.1,55.5 60.1,46.5 "/>
<polygon class="st3" points="67.7,45 68.6,54.2 68.5,57.4 71.2,57.1 70.8,54 69.6,44.7 "/>
<polygon class="st3" points="71.1,44.4 71.9,53.6 71.9,56.8 74.5,56.5 74.2,53.3 73,44.1 "/>
<polygon class="st3" points="83.9,55.4 84,52.3 82.9,42.7 85.4,42.5 86.8,52 86.1,55.4 "/>
<polygon class="st3" points="87.2,55.2 87.2,52.2 86.1,42.6 88.6,42.3 90,51.9 89.3,55.2 "/>
<polygon class="st3" points="99,41.7 100.4,51.2 100,54.8 102.3,55 102.9,51.3 101.1,41.7 "/>
<polygon class="st3" points="102.4,41.7 104.2,51.3 103.7,55.1 106.2,55.3 106.7,51.5 104.7,41.8 "/>
<path class="st3" d="M111.7,42.7l3.9,10.4l-4.9,2.7l1.4,2l5.5-3.2l-3.5-8.9C114.2,45.7,113.1,43.1,111.7,42.7z"/>
</svg>
