<svg xmlns="http://www.w3.org/2000/svg" viewBox="0 0 160 160">
  <path d="M95.4 49.9S92 60 81 53c.3 3.8-1.6 5.5-6 5 0 0-3 9-7 3-.9 1.3.6 7.2-7 4-1.6 5.6-5.6 6.7-11 5 0 0-15 1-10-9 0 0-15-9 2-12 0 0-5-22 15-17 0-5 12.9-22.3 32-5 0 0 15-13 22 6 0 0 15 2 8 16 1.9-.8 12.2 3.7 5 12 1.9 5.3-.2 7.3-5 7 0 0 3 2-.4 4.5 0 0-6.6-2.5-6.6-9.5-4-1.1-5.6-3.8-3.8-8.9 0 0-10.3 6.8-12.8-4.2z" fill="#42210b"/>
  <path d="M68.5 39.5S52 34 54 51c-12 2-3 13-3 13s-14.5-12.5-1.4-13.4c0 0-4.4-18.4 13.1-14 0-4.4 7.8-20.4 24.5-5.2C74 29 71 30 68.5 39.5z" opacity=".05" fill="#fff"/>
  <path d="M89 27s15-13 22 6c0 0 15 2 8 16 1.9-.8 12.2 3.7 5 12 1.9 5.3-.2 7.3-5 7 0 0 3 2-.4 4.5 0 0-6.6-2.5-6.6-9.5-4-1.1-5.6-3.8-3.8-8.9-5.2 4.9-13.8.6-12.7-4.4 0 0 7.8.7 7.7-6.5C105 35 95.5 26.2 89 27z" opacity=".5"/>
</svg>
