<?xml version="1.0" encoding="utf-8"?>
<!-- Generator: Adobe Illustrator 22.0.1, SVG Export Plug-In . SVG Version: 6.00 Build 0)  -->
<svg version="1.1" id="Layer_1" xmlns="http://www.w3.org/2000/svg" xmlns:xlink="http://www.w3.org/1999/xlink" x="0px" y="0px"
	 viewBox="0 0 160 160" style="enable-background:new 0 0 160 160;" xml:space="preserve">
<style type="text/css">
	.st0{opacity:0.1;}
	.st1{fill:#51DB00;}
	.st2{fill:#FFFFFF;}
	.st3{fill:url(#SVGID_1_);}
</style>
<title>Artboard 42 copy 185</title>
<g class="st0">
	<polygon points="94.8,57 99.5,57 113,24.3 105.1,24.3 	"/>
</g>
<path class="st1" d="M90.4,18.7c4.6,0.3,9.7,1.7,14.7,5.3h7.9c0,0-19.1-14.5-38.1-2.6c0,0,0.6-0.3,1.7-0.7
	c-6.4,3.2-12.2,10.4-15.7,24.5c0,0,23.5-7.7,33.8,11.8h4.8L113,24.3h-7.9C105.1,24.3,98.6,19.9,90.4,18.7z"/>
<g class="st0">
	<path class="st2" d="M113,24c0,0-19.1-14.4-38.1-2.6c0,0,15.9-7.6,30.1,2.6H113z"/>
</g>
<linearGradient id="SVGID_1_" gradientUnits="userSpaceOnUse" x1="60.94" y1="124.2782" x2="101.33" y2="124.2782" gradientTransform="matrix(1 0 0 -1 0 162)">
	<stop  offset="0" style="stop-color:#FFFFFF;stop-opacity:0"/>
	<stop  offset="1" style="stop-color:#231F20;stop-opacity:0.3"/>
</linearGradient>
<path class="st3" d="M60.9,45.2c0,0,23.5-7.7,33.8,11.8l10.3-32.7C105.1,24.3,71.5,1.8,60.9,45.2z"/>
</svg>
