<?xml version="1.0" encoding="utf-8"?>
<!-- Generator: Adobe Illustrator 22.0.1, SVG Export Plug-In . SVG Version: 6.00 Build 0)  -->
<svg version="1.1" id="Layer_1" xmlns="http://www.w3.org/2000/svg" xmlns:xlink="http://www.w3.org/1999/xlink" x="0px" y="0px"
	 viewBox="0 0 160 160" style="enable-background:new 0 0 160 160;" xml:space="preserve">
<style type="text/css">
	.st0{opacity:0.1;enable-background:new    ;}
	.st1{fill:#FFF800;}
</style>
<title>Artboard 42 copy 175</title>
<path class="st0" d="M78.1,20.6C59.9,21.7,45.6,26.4,46,31.1s15.5,7.7,33.7,6.6s32.5-5.8,32.1-10.5S96.2,19.5,78.1,20.6z M79.4,35.1
	C63.1,36,49.6,34,49.3,30.5s12.6-7.1,29-8.1s29.8,1.1,30.1,4.6S95.8,34.1,79.4,35.1z"/>
<path class="st1" d="M78.1,19.6C59.9,20.7,45.6,25.4,46,30.1s15.5,7.7,33.7,6.6s32.5-5.8,32.1-10.5S96.2,18.5,78.1,19.6z M79.4,34.1
	C63.1,35,49.6,33,49.3,29.5s12.6-7.1,29-8.1s29.8,1.1,30.1,4.6S95.8,33.1,79.4,34.1z"/>
</svg>
