<svg xmlns="http://www.w3.org/2000/svg" viewBox="0 0 160 160">
  <path d="M45 55l-6-18.8s4 8.9 11 6.8 8-17.1 8-17.1 3 12.4 11 12.2S79.5 24 79.5 24 83 37 88 37c10.1 0 13-12.1 13-12.1s3 16 8 16c3.1-.1 6-1.4 8-3.8l-6 15c0 .1-49-5.6-66 2.9z" fill="#ffe000"/>
  <path d="M45 55c30-2.7 51.9-8.9 56-30.1 0 0 3 16 8 16 3.1-.1 6-1.4 8-3.8l-6 15c0 .1-49-5.6-66 2.9z" opacity=".05"/>
  <path d="M44.5 62.2A70.3 70.3 0 0183 51c23 0 27.2 3.9 27.2 3.9l3.2 4.4s3.1 3.2 5.1-.8-3-12-18-15-42 0-54 7-7 15-5 15H43l1.5-3.3z" fill="#c69757"/>
  <path d="M44.5 62.7A70.3 70.3 0 0183 51.5c23 0 27.2 3.9 27.2 3.9l3.2 4.4s3.1 3.2 5.1-.8C109 37 39 49 39.4 63.9c.6 1.3 1.5 2.1 2.1 2.1H43l1.5-3.3z" opacity=".1"/>
  <circle cx="101.7" cy="22.2" r="6.8"/>
  <path d="M108.5 23a6.8 6.8 0 01-7.6 6 7 7 0 01-4.6-2.5c1.7.6 6.1 1.3 8.9-1.4 2-1.9 2.1-5.6 1.6-7.4a6.8 6.8 0 011.7 5.3z" fill="#010101" opacity=".25"/>
  <circle cx="100.7" cy="39.2" r="2.5"/>
  <circle cx="60.7" cy="40.2" r="2.5"/>
</svg>
