<svg xmlns="http://www.w3.org/2000/svg" viewBox="0 0 160 160">
  <path d="M83.8 43.4A8.3 8.3 0 0082 46c-1 2 1 7 7 8s11 2 12-3-13.4-8.3-17.2-7.6z" opacity=".2"/>
  <path d="M82.8 44.8L102 19l-3.6 29.8C97 55 79 55 82.8 44.8z" fill="#fff"/>
  <path d="M82.8 44.8C91 51 96 40 97.9 24.4L102 19l-3.6 29.8C97 55 79 55 82.8 44.8z" opacity=".15"/>
  <path d="M98.8 45S89 52 85 41.8l1.3-1.7s4.7 8 12.8 3zM89.9 35.3s3.5 7.7 9.8 2.7l.3-2c-3.3 1.6-6.3 1.3-9-2.3zM94 29.7s2 4.2 6.5 1.7l.2-2.2s-3.4 2-5.6-1z"/>
</svg>
