<svg xmlns="http://www.w3.org/2000/svg" viewBox="0 0 160 160">
  <path d="M40.1 78.3S52 55.6 84.4 54.8c28.2-1.9 33.6 16.1 33.6 16.1 33.1-25 2.8-38.9 2.8-38.9a22.3 22.3 0 01-14.3 17.4C76.4 56.7 59 42.8 59 42.8s-10.5-12.1-21.2-9.2c-.1.3-10.2 1.5-12.4 15.5a26.4 26.4 0 0014.7 29.2z" fill="#743a4b"/>
  <path d="M40.9 33c-2.7.4-5.8.8-5.8 6.2 0 2.7 3.2 5.9 7.6 8.6 4.4 2.7 9.3 4.7 14.3 5.9l6.4 1.2c13.7-2.8 25.9-4.8 37.9-.9 0 0 31.8-12.8 21.3-20.8-4.2-3.8-11.4 1.8-16.7 5-3.4 2-5.9.9-5.9.9s-1.2-7.7-2-10.2c-2-6.6-5.8-13.8-23.8-13.8S58.9 26.3 58.9 26.3l.1 13.2c-1.7 0-4.4-1.1-7.7-3.1 0 0-5.5-3.7-10.4-3.4z" fill="#93505c"/>
  <path d="M39.6 77.7s15-22.9 44.3-23.5c29.3-.6 34.2 16.1 34.2 16.1L123 67S104 49.7 83 52c-34.8 2.3-48.5 21.9-48.5 21.9z" opacity=".6"/>
  <path d="M82 15.8S59.7 11 58.8 24.2l.4 15c3.4.2 6.8 0 10.1-.6V25.4c.1 0-1.4-9.7 12.7-9.6z" fill="#743a4b"/>
</svg>
