<?xml version="1.0" encoding="UTF-8" standalone="no"?>
<!-- Generator: Adobe Illustrator 22.0.1, SVG Export Plug-In . SVG Version: 6.00 Build 0)  -->

<svg
   xmlns:dc="http://purl.org/dc/elements/1.1/"
   xmlns:cc="http://creativecommons.org/ns#"
   xmlns:rdf="http://www.w3.org/1999/02/22-rdf-syntax-ns#"
   xmlns:svg="http://www.w3.org/2000/svg"
   xmlns="http://www.w3.org/2000/svg"
   xmlns:sodipodi="http://sodipodi.sourceforge.net/DTD/sodipodi-0.dtd"
   xmlns:inkscape="http://www.inkscape.org/namespaces/inkscape"
   version="1.1"
   id="Layer_1"
   x="0px"
   y="0px"
   viewBox="0 0 160 160"
   style="enable-background:new 0 0 160 160;"
   xml:space="preserve"
   sodipodi:docname="top_04.svg"
   inkscape:version="0.92.2 (5c3e80d, 2017-08-06)"><metadata
     id="metadata17"><rdf:RDF><cc:Work
         rdf:about=""><dc:format>image/svg+xml</dc:format><dc:type
           rdf:resource="http://purl.org/dc/dcmitype/StillImage" /></cc:Work></rdf:RDF></metadata><defs
     id="defs15" /><sodipodi:namedview
     pagecolor="#ffffff"
     bordercolor="#666666"
     borderopacity="1"
     objecttolerance="10"
     gridtolerance="10"
     guidetolerance="10"
     inkscape:pageopacity="0"
     inkscape:pageshadow="2"
     inkscape:window-width="1920"
     inkscape:window-height="976"
     id="namedview13"
     showgrid="false"
     inkscape:zoom="8.0000001"
     inkscape:cx="57.178936"
     inkscape:cy="120.78651"
     inkscape:window-x="0"
     inkscape:window-y="27"
     inkscape:window-maximized="1"
     inkscape:current-layer="Layer_1" /><style
     type="text/css"
     id="style2">
	.st0{fill:#93505C;}
	.st1{opacity:0.14;enable-background:new    ;}
	.st2{fill:#5B2F3D;}
</style><title
     id="title4">Artboard 42 copy 165</title><path
     class="st0"
     d="M 33.573922,59.757433 68,21 c 0,0 2.1,-3 6.4,0 4.3,3 44.45674,27.353824 44.45674,27.353824 1.57457,1.050848 1.15938,2.050287 1.35938,2.850287 C 119.9165,52.503733 112.71985,42.959167 73.4,47.4 34.020227,52.859546 33.1,61.8 34.1,62.8 c 1,1 -0.526078,-1.042567 -0.526078,-3.042567 z"
     id="path6"
     inkscape:connector-curvature="0"
     style="fill:#93505c"
     sodipodi:nodetypes="ccscccsc" /><path
     class="st1"
     d="M 33.573922,59.757433 68,21 c 0,0 2.1,-3 6.4,0 -3.2,-1 -23.3,27.5 -27,31.8 -13.7,4.5 -14,9.2 -13.2,9.9 1,1.1 -0.626078,-0.942567 -0.626078,-2.942567 z"
     id="path8"
     inkscape:connector-curvature="0"
     style="opacity:0.13999999;enable-background:new"
     sodipodi:nodetypes="cccccc" /><path
     class="st2"
     d="M42.9,64.6c-0.3-10,64.4-16.3,67.5-8.5c2.6,0.8,15.9-4.8,6.4-7.2s-25.1-5.9-57.6,0.9S33.3,63.5,33.3,63.5  S41.2,65.9,42.9,64.6z"
     id="path10"
     style="fill:#000000;fill-opacity:1;opacity:1" /></svg>