<?xml version="1.0" encoding="utf-8"?>
<!-- Generator: Adobe Illustrator 22.0.1, SVG Export Plug-In . SVG Version: 6.00 Build 0)  -->
<svg version="1.1" id="Layer_1" xmlns="http://www.w3.org/2000/svg" xmlns:xlink="http://www.w3.org/1999/xlink" x="0px" y="0px"
	 viewBox="0 0 160 160" style="enable-background:new 0 0 160 160;" xml:space="preserve">
<style type="text/css">
	.st0{fill:#743A4B;}
	.st1{opacity:0.2;}
	.st2{fill:#EF1414;}
	.st3{opacity:0.1;enable-background:new    ;}
	.st4{fill:#39B54A;}
</style>
<title>Artboard 42 copy 171</title>
<path class="st0" d="M43.8,62.3C41,63,40.3,60.7,44,57c10.7-9.5,24.7-14.6,39-14c24,1,31,10,31,10s4,5-2.4,3.7
	C111.6,56.7,80.6,42.6,43.8,62.3z"/>
<g class="st1">
	<path d="M45.5,60.2C52,54.9,59.7,51.4,68,50c18-4,39.1,1.6,39.1,1.6s5.9,1.1,5.9,3.3s-3,0.2-3,0.2c-24.3-5.3-47.7-5.6-66,8
		C44,63,43,62.4,45.5,60.2z"/>
</g>
<path class="st2" d="M71.5,50.2c1-2.7,0.6-9.5-0.9-13.5c-0.2-0.5-0.9,1.4-1.1,1c-1.7-6.5-3.7-6.9-5-7.2l-1.1,2
	c0.8-6.1-5.2-9.5-5.2-9.5l0.4,1.6c-1.9-2-4.1-3.6-6.5-5c-0.3-0.3-0.3-0.3-0.2,0.2c0.2,2.7,0.8,5.4,1.8,7.9l-1.2-1
	c0,0,0.5,6.9,6.5,8.7l-2.3,0.2c0.4,4.6,5,6.6,5,6.6s-2.5-0.3-2.2,0.1C62.6,46.1,66.8,48.9,71.5,50.2z"/>
<path class="st3" d="M71.5,50.2c1-2.7,0.6-9.5-0.9-13.5c-0.2-0.5-0.9,1.4-1.1,1c-1.7-6.5-3.7-6.9-5-7.2l-1.1,2
	c0.8-6.1-5.2-9.5-5.2-9.5l0.4,1.6c-1.9-2-4.1-3.6-6.5-5c-0.3-0.3-0.3-0.3-0.2,0.2L71.5,50.2z"/>
<path class="st4" d="M62.9,50.7c-0.3-2.1-2.9-6.7-5.2-8.9c-0.3-0.3-0.1,1.3-0.4,1c-3.4-3.9-4.9-3.5-5.9-3.2l-0.1,1.8
	c-1.5-4.5-6.8-4.7-6.8-4.7l0.8,0.9c-2-0.7-4-1-6.1-1.2c-0.3-0.1-0.3-0.1-0.1,0.2c1.1,1.8,2.4,3.4,3.9,4.8l-1.2-0.3
	c0,0,2.7,4.5,7.4,3.7l-1.5,0.9c1.8,3,5.7,2.7,5.7,2.7s-1.8,0.7-1.5,0.8C55.4,50.9,59.2,51.4,62.9,50.7z"/>
<path class="st2" d="M62.9,50.7c-0.3-2.1-2.9-6.7-5.2-8.9c-0.3-0.3-0.1,1.3-0.4,1c-3.4-3.9-4.9-3.5-5.9-3.2l-0.1,1.8
	c-1.5-4.5-6.8-4.7-6.8-4.7l0.8,0.9c-2-0.7-4-1-6.1-1.2c-0.3-0.1-0.3-0.1-0.1,0.2c1.1,1.8,2.4,3.4,3.9,4.8l-1.2-0.3
	c0,0,2.7,4.5,7.4,3.7l-1.5,0.9c1.8,3,5.7,2.7,5.7,2.7s-1.8,0.7-1.5,0.8C55.4,50.9,59.2,51.4,62.9,50.7z"/>
</svg>
