<?xml version="1.0" encoding="utf-8"?>
<!-- Generator: Adobe Illustrator 22.0.1, SVG Export Plug-In . SVG Version: 6.00 Build 0)  -->
<svg version="1.1" id="Layer_1" xmlns="http://www.w3.org/2000/svg" xmlns:xlink="http://www.w3.org/1999/xlink" x="0px" y="0px"
	 viewBox="0 0 160 160" style="enable-background:new 0 0 160 160;" xml:space="preserve">
<style type="text/css">
	.st0{fill:url(#SVGID_1_);}
	.st1{opacity:5.000000e-02;}
	.st2{fill:url(#SVGID_2_);}
	.st3{fill:#93505C;}
	.st4{fill:url(#SVGID_3_);}
	.st5{clip-path:url(#SVGID_5_);}
	.st6{fill:url(#SVGID_6_);}
	.st7{fill:url(#SVGID_7_);}
	.st8{clip-path:url(#SVGID_9_);}
	.st9{fill:url(#SVGID_10_);}
</style>
<title>Artboard 42 copy 155</title>
<radialGradient id="SVGID_1_" cx="258.3802" cy="-430.5615" r="8.9972" gradientTransform="matrix(0.9931 0.1172 0.1172 -0.9931 -139.1404 -431.1189)" gradientUnits="userSpaceOnUse">
	<stop  offset="0" style="stop-color:#F79B32"/>
	<stop  offset="0.87" style="stop-color:#F2612B"/>
	<stop  offset="1" style="stop-color:#C6462D"/>
</radialGradient>
<path class="st0" d="M75.9,27.8c0.1,2.2-2.7,5.4-2.7,5.4S72.1,30,70,29s-4.9,1.2-4,1.8l2.6,4.8c-0.9,0.1-1.8,0.1-2.6,0.1
	c-4.9-0.6-8.5-5.1-7.9-10s5.1-8.5,10-7.9C73,18.4,76.5,22.9,75.9,27.8C75.9,27.8,75.9,27.8,75.9,27.8L75.9,27.8z"/>
<g class="st1">
	<path d="M75.9,27.8c0.1,2.2-2.7,5.4-2.7,5.4l-1.6-2.7c1,0,3.6-7.3,2.1-9.7C75.4,22.7,76.2,25.3,75.9,27.8z"/>
</g>
<linearGradient id="SVGID_2_" gradientUnits="userSpaceOnUse" x1="-102.7928" y1="-431.0845" x2="-102.7928" y2="-422.2346" gradientTransform="matrix(0.9 0.11 0.12 -0.99 211.81 -390.19)">
	<stop  offset="0" style="stop-color:#F27331;stop-opacity:0"/>
	<stop  offset="0.81" style="stop-color:#FFFCEF;stop-opacity:0.7"/>
	<stop  offset="1" style="stop-color:#FFFFFF;stop-opacity:0.8"/>
</linearGradient>
<path class="st2" d="M75,28.1c-0.7,1.6-4.1-2.6-7.4-2.9s-7.4,2.6-7.9,1c0.5-4.6,4.4-8,8.7-7.5S75.5,23.5,75,28.1z"/>
<path class="st3" d="M66,31c0,0,3.7,5.7,4.8,10.3c0.6,2.2,1,4.4,1.2,6.7c1,4,8,2,8-1c0,0-6-14-9-17S65,30,66,31z"/>
<linearGradient id="SVGID_3_" gradientUnits="userSpaceOnUse" x1="646.8101" y1="-686.7104" x2="646.8101" y2="-669.6604" gradientTransform="matrix(1 0 0 -1 0 162)">
	<stop  offset="0" style="stop-color:#A66707"/>
	<stop  offset="1" style="stop-color:#000000"/>
</linearGradient>
<path class="st4" d="M648.3,843.1c-0.5,0-1,0-1.5-0.1c-0.9-0.1-1.3,5.4-2.5,5.7s-1.7-6.4-2.5-6.6c-2.4-0.7-6.5-1.8-8.3-2.9
	c-4-2.6-4.4-5.7-4.4-7c0-2.4,7.5,5.4,19,5.4h0.5c7.9,0,12.8-2.5,13.7-3s2.4-0.7,2.4,1.6c0,1.1-1.8,2.8-4.7,4.2
	c-0.7,0.4-0.9,8.4-2.4,8s-1.7-6.4-2.7-6.1C652.7,842.8,650.5,843.1,648.3,843.1z"/>
<g>
	<defs>
		<path id="SVGID_4_" d="M648.3,843.1c-0.5,0-1,0-1.5-0.1c-0.9-0.1-1.3,5.4-2.5,5.7s-1.7-6.4-2.5-6.6c-2.4-0.7-6.5-1.8-8.3-2.9
			c-4-2.6-4.4-5.7-4.4-7c0-2.4,7.5,5.4,19,5.4h0.5c7.9,0,12.8-2.5,13.7-3s2.4-0.7,2.4,1.6c0,1.1-1.8,2.8-4.7,4.2
			c-0.7,0.4-0.9,8.4-2.4,8s-1.7-6.4-2.7-6.1C652.7,842.8,650.5,843.1,648.3,843.1z"/>
	</defs>
	<clipPath id="SVGID_5_">
		<use xlink:href="#SVGID_4_"  style="overflow:visible;"/>
	</clipPath>
	<g class="st5">
		
			<linearGradient id="SVGID_6_" gradientUnits="userSpaceOnUse" x1="568.985" y1="-1092.1499" x2="568.985" y2="739.07" gradientTransform="matrix(1 0 0 -1 0 162)">
			<stop  offset="0" style="stop-color:#A66707"/>
			<stop  offset="1" style="stop-color:#000000"/>
		</linearGradient>
		<rect x="65.9" y="-577.1" class="st6" width="1006.2" height="1831.2"/>
	</g>
</g>
<linearGradient id="SVGID_7_" gradientUnits="userSpaceOnUse" x1="-89.19" y1="-685.7104" x2="-89.19" y2="-668.6604" gradientTransform="matrix(1 0 0 -1 0 162)">
	<stop  offset="0" style="stop-color:#A66707"/>
	<stop  offset="1" style="stop-color:#000000"/>
</linearGradient>
<path class="st7" d="M-87.7,842.1c-0.5,0-1,0-1.5-0.1c-0.9-0.1-1.3,5.4-2.6,5.7s-1.7-6.4-2.5-6.6c-2.4-0.7-6.5-1.8-8.3-2.9
	c-4-2.6-4.4-5.7-4.4-7c0-2.4,7.5,5.4,19,5.4h0.5c7.9,0,12.8-2.5,13.7-3s2.4-0.7,2.4,1.6c0,1.1-1.8,2.8-4.7,4.2
	c-0.7,0.4-0.9,8.4-2.4,8s-1.7-6.4-2.7-6.1C-83.3,841.8-85.5,842.1-87.7,842.1z"/>
<g>
	<defs>
		<path id="SVGID_8_" d="M-87.7,842.1c-0.5,0-1,0-1.5-0.1c-0.9-0.1-1.3,5.4-2.6,5.7s-1.7-6.4-2.5-6.6c-2.4-0.7-6.5-1.8-8.3-2.9
			c-4-2.6-4.4-5.7-4.4-7c0-2.4,7.5,5.4,19,5.4h0.5c7.9,0,12.8-2.5,13.7-3s2.4-0.7,2.4,1.6c0,1.1-1.8,2.8-4.7,4.2
			c-0.7,0.4-0.9,8.4-2.4,8s-1.7-6.4-2.7-6.1C-83.3,841.8-85.5,842.1-87.7,842.1z"/>
	</defs>
	<clipPath id="SVGID_9_">
		<use xlink:href="#SVGID_8_"  style="overflow:visible;"/>
	</clipPath>
	<g class="st8">
		
			<linearGradient id="SVGID_10_" gradientUnits="userSpaceOnUse" x1="-167.015" y1="-1091.1499" x2="-167.015" y2="740.07" gradientTransform="matrix(1 0 0 -1 0 162)">
			<stop  offset="0" style="stop-color:#A66707"/>
			<stop  offset="1" style="stop-color:#000000"/>
		</linearGradient>
		<rect x="-670.1" y="-578.1" class="st9" width="1006.2" height="1831.2"/>
	</g>
</g>
</svg>
