<svg xmlns="http://www.w3.org/2000/svg" viewBox="0 0 160 160">
  <path d="M74.9 33.5s-7-2.4-6.2-9.6 9.5-11.4 15.3-5.1c3.4 3.4 4.1 8.6 1.8 12.8l-10.9 1.9z" fill="#fff"/>
  <path d="M79.8 26.6c-31.7-1.6-33.9 27-33.9 27l65 .8c-.1-.1.5-26.3-31.1-27.8z"/>
  <path d="M46.1 49.8s-4.7 1.2-5.4 4.6-1.2 7.8-1.2 7.8c.1 1.9 2.9 4.1 2.9 4.1l1.1-2.7c10.8-5.8 42.1-8.4 50.7-8.8 5.6-.1 11.2.3 16.7 1.1l2.2 3.4 3.6-2.5c.7-.4 1.1-1.2.7-2-.6-1.4-3-10.3-5-11.7-1.3-.9-11-2.3-28.8-.4a269.2 269.2 0 00-37.5 7.1z" fill="#fff"/>
  <path d="M39.5 62.2c.1 1.9 2.9 4.1 2.9 4.1l1.1-2.7c10.8-5.8 42.1-8.4 50.7-8.8 5.3-.1 10.5.2 15.7 1.1l3.2 3.5 3.6-2.5c.7-.4 1.1-1.2.7-2-3.9-9.4-80 2.4-77.9 7.3z" opacity=".12"/>
  <g opacity=".2">
    <path d="M45.7 49.8s-1.4 7.5-1.2 9.4c.1 1.2.4 2.3.8 3.4l2.1-.7-.8-3.4 1.1-9.2-2 .5z"/>
    <path d="M48.5 49.2s-1.4 7.5-1.2 9.4c.1 1.2.4 2.3.8 3.4l2.1-.7-.8-3.4 1.1-9.2-2 .5z"/>
    <path d="M55.9 47.4l-.3 8.8 1 3.3 2-.3-.9-3v-9.1z"/>
    <path d="M58.3 46.8l-.3 8.8 1 3.2 2-.3-.9-3v-9z"/>
    <path d="M67.7 45l.9 9.2-.1 3.2 2.7-.3-.4-3.1-1.2-9.3z"/>
    <path d="M71.1 44.4l.8 9.2v3.2l2.6-.3-.3-3.2-1.2-9.2z"/>
    <path d="M83.9 55.4l.1-3.1-1.1-9.6 2.5-.2 1.4 9.5-.7 3.4z"/>
    <path d="M87.2 55.2v-3l-1.1-9.6 2.5-.3 1.4 9.6-.7 3.3z"/>
    <path d="M99 41.7l1.4 9.5-.4 3.6 2.3.2.6-3.7-1.8-9.6z"/>
    <path d="M102.4 41.7l1.8 9.6-.5 3.8 2.5.2.5-3.8-2-9.7z"/>
    <path d="M111.7 42.7l3.9 10.4-4.9 2.7 1.4 2 5.5-3.2-3.5-8.9c.1 0-1-2.6-2.4-3z"/>
  </g>
</svg>
