<svg xmlns="http://www.w3.org/2000/svg" viewBox="0 0 160 160">
  <path d="M43.8 62.3c-2.8.7-3.5-1.6.2-5.3a55.4 55.4 0 0139-14c24 1 31 10 31 10s4 5-2.4 3.7c0 0-31-14.1-67.8 5.6z" fill="#743a4b"/>
  <path d="M45.5 60.2A48.2 48.2 0 0168 50c18-4 39.1 1.6 39.1 1.6s5.9 1.1 5.9 3.3-3 .2-3 .2c-24.3-5.3-47.7-5.6-66 8 0-.1-1-.7 1.5-2.9z" opacity=".2"/>
  <path d="M71.5 50.2c1-2.7.6-9.5-.9-13.5-.2-.5-.9 1.4-1.1 1-1.7-6.5-3.7-6.9-5-7.2l-1.1 2c.8-6.1-5.2-9.5-5.2-9.5l.4 1.6c-1.9-2-4.1-3.6-6.5-5-.3-.3-.3-.3-.2.2.2 2.7.8 5.4 1.8 7.9l-1.2-1s.5 6.9 6.5 8.7l-2.3.2c.4 4.6 5 6.6 5 6.6s-2.5-.3-2.2.1c3.1 3.8 7.3 6.6 12 7.9z"/>
  <path d="M71.5 50.2c1-2.7.6-9.5-.9-13.5-.2-.5-.9 1.4-1.1 1-1.7-6.5-3.7-6.9-5-7.2l-1.1 2c.8-6.1-5.2-9.5-5.2-9.5l.4 1.6c-1.9-2-4.1-3.6-6.5-5-.3-.3-.3-.3-.2.2l19.6 30.4z" fill="#010101" opacity=".1"/>
  <path d="M62.9 50.7c-.3-2.1-2.9-6.7-5.2-8.9-.3-.3-.1 1.3-.4 1-3.4-3.9-4.9-3.5-5.9-3.2l-.1 1.8c-1.5-4.5-6.8-4.7-6.8-4.7l.8.9c-2-.7-4-1-6.1-1.2-.3-.1-.3-.1-.1.2 1.1 1.8 2.4 3.4 3.9 4.8l-1.2-.3s2.7 4.5 7.4 3.7l-1.5.9c1.8 3 5.7 2.7 5.7 2.7s-1.8.7-1.5.8c3.5 1.7 7.3 2.2 11 1.5z" fill="#39b54a"/>
  <path d="M62.9 50.7c-.3-2.1-2.9-6.7-5.2-8.9-.3-.3-.1 1.3-.4 1-3.4-3.9-4.9-3.5-5.9-3.2l-.1 1.8c-1.5-4.5-6.8-4.7-6.8-4.7l.8.9c-2-.7-4-1-6.1-1.2-.3-.1-.3-.1-.1.2 1.1 1.8 2.4 3.4 3.9 4.8l-1.2-.3s2.7 4.5 7.4 3.7l-1.5.9c1.8 3 5.7 2.7 5.7 2.7s-1.8.7-1.5.8c3.5 1.7 7.3 2.2 11 1.5z"/>
</svg>
