<svg xmlns="http://www.w3.org/2000/svg" viewBox="0 0 160 160">
  <path d="M133 48.8c-1.9-8.6-10.2-12.6-28.2-9.5C99.4 32 89 19 82 15l-3.7-2-21.3-.2c-3.2.3-5.8.7-7.2 1.5 0 0-.7 3-1.9 4.1-2.9 2.4 5.1 3.4 5.1 3.4l-2 3 4 2v3c1.8 6.9-.3 14-.3 14s1.2 1.6-17.2.4C19.1 43 23 65.8 36 63.8l8.9-1a171 171 0 0049.4-9.4c3.8-1 7.6-1.6 11.5-1.9 3.7 2.8 6.8 6.3 9.2 10.2l.3-.2-.2.1c0 .2 19.9-3.8 17.9-12.8zm-21.5 3c1.7.2 3.2.9 4.5 2-1.4-.9-2.9-1.6-4.5-2z" fill="#fff"/>
  <path d="M105.8 51.5c3.7 3 7 6.2 9.2 10.5 0 0 6.3-2.8 1.6-8 0 0-1.6-3-10.8-2.5z" opacity=".5"/>
  <path d="M37.8 63.4s33-.9 56.8-10c0 0 16.7-4.6 21.7.4s-.9 8-.9 8 20-4 18-13-11-13-31-9-18.6 17.3-64.6 23.6z" opacity=".25"/>
  <path d="M70.9 13c11 11.6 22 25.6 19 31.6 5-2.5 8.1-4.2 14.9-5.3-2.9-4.2-6-8.2-9.2-12.1C95.6 27.2 83 14 78 13z" opacity=".1"/>
  <path d="M54.4 44c9 2 29.2-2 45.5-11.5l-8.6-9.9c-.5 2-30.7 7.7-36.3 8.4.9 3.5.2 7.8-.6 13z"/>
  <path d="M69.9 26L83 22.2c2-.6 4 .6 4.6 2.5l3.3 11.4c.6 2-.6 4-2.5 4.6l-13.1 3.8c-2 .6-4-.6-4.6-2.5l-3.3-11.4c-.6-2 .6-4 2.5-4.6z" fill="#ffe000"/>
  <path d="M73.9 28.5l7.1-2c1.5-.4 3 .4 3.5 1.9l1.9 6.6c.4 1.5-.4 3-1.9 3.5l-7.1 2c-1.5.4-3-.4-3.5-1.9L72 31.9c-.4-1.5.4-3 1.9-3.4z"/>
</svg>
