<svg xmlns="http://www.w3.org/2000/svg" viewBox="0 0 160 160">
  <path d="M80.5 42.9S77 25.1 73.3 20.3c-.2-.2-1.7-.5-4.1.6l-.2.2s2.6 2.6 9 21.8c0 0 2.5 1.3 2.5 0z" fill="#825105"/>
  <ellipse transform="rotate(-4.6 71.2 20.6)" cx="71.2" cy="20.6" rx="2.2" ry=".5" fill="#f4b145"/>
  <path d="M77.2 41.3s.7-.1 1.2-1.4c.5-1.9-.5-3.8-2.4-4.4-2-.5-2.9-2.4-4.3-4.2s-6.4-4.7-14.9-4.5-10.2-3-10.9-3.6-.8 6 3 10.9 9.3 8.3 15.6 5.1 9.2-.2 9.2-.2 2.2 2.4 3.5 2.3z"/>
  <path d="M77.2 41.3s.7-.1 1.2-1.4c.5-1.9-.5-3.8-2.4-4.4-2-.5-2.9-2.4-4.3-4.2-1.4-1.8-6.4-4.8-14.9-4.5-9.8.3-11.2-4.7-11-3.4 3 11.5 22.9 4.2 31.4 17.9z" opacity=".2" fill="#010101"/>
</svg>
