<?xml version="1.0" encoding="UTF-8" standalone="no"?>
<!-- Generator: Adobe Illustrator 22.0.1, SVG Export Plug-In . SVG Version: 6.00 Build 0)  -->

<svg
   xmlns:dc="http://purl.org/dc/elements/1.1/"
   xmlns:cc="http://creativecommons.org/ns#"
   xmlns:rdf="http://www.w3.org/1999/02/22-rdf-syntax-ns#"
   xmlns:svg="http://www.w3.org/2000/svg"
   xmlns="http://www.w3.org/2000/svg"
   xmlns:sodipodi="http://sodipodi.sourceforge.net/DTD/sodipodi-0.dtd"
   xmlns:inkscape="http://www.inkscape.org/namespaces/inkscape"
   version="1.1"
   id="Layer_1"
   x="0px"
   y="0px"
   viewBox="0 0 160 160"
   style="enable-background:new 0 0 160 160;"
   xml:space="preserve"
   sodipodi:docname="top_03.svg"
   inkscape:version="0.92.2 (5c3e80d, 2017-08-06)"><metadata
     id="metadata26"><rdf:RDF><cc:Work
         rdf:about=""><dc:format>image/svg+xml</dc:format><dc:type
           rdf:resource="http://purl.org/dc/dcmitype/StillImage" /></cc:Work></rdf:RDF></metadata><defs
     id="defs24" /><sodipodi:namedview
     pagecolor="#ffffff"
     bordercolor="#666666"
     borderopacity="1"
     objecttolerance="10"
     gridtolerance="10"
     guidetolerance="10"
     inkscape:pageopacity="0"
     inkscape:pageshadow="2"
     inkscape:window-width="1920"
     inkscape:window-height="976"
     id="namedview22"
     showgrid="false"
     inkscape:zoom="8.34386"
     inkscape:cx="62.179891"
     inkscape:cy="127.13103"
     inkscape:window-x="0"
     inkscape:window-y="27"
     inkscape:window-maximized="1"
     inkscape:current-layer="Layer_1" /><style
     type="text/css"
     id="style2">
	.st0{fill:url(#SVGID_1_);}
	.st1{fill:#F4B145;}
	.st2{fill:#39B54A;}
	.st3{fill:#009245;}
</style><title
     id="title4">Artboard 42 copy 154</title><linearGradient
     id="SVGID_1_"
     gradientUnits="userSpaceOnUse"
     x1="69"
     y1="130.2229"
     x2="80.54"
     y2="130.2229"
     gradientTransform="matrix(1 0 0 -1 0 162)"><stop
       offset="0"
       style="stop-color:#A66707"
       id="stop6" /><stop
       offset="0.5"
       style="stop-color:#9D6209"
       id="stop8" /><stop
       offset="1"
       style="stop-color:#000000"
       id="stop10" /></linearGradient><path
     class="st0"
     d="M80.5,42.9c0,0-3.5-17.8-7.2-22.6c-0.2-0.2-1.7-0.5-4.1,0.6L69,21.1c0,0,2.6,2.6,9,21.8  C78,42.9,80.5,44.2,80.5,42.9z"
     id="path13"
     style="fill:#825105;fill-opacity:1" /><ellipse
     transform="matrix(0.9968 -8.002496e-02 8.002496e-02 0.9968 -1.4171 5.7603)"
     class="st1"
     cx="71.2"
     cy="20.6"
     rx="2.2"
     ry="0.5"
     id="ellipse15" /><path
     class="st2"
     d="M77.2,41.3c0,0,0.7-0.1,1.2-1.4c0.5-1.9-0.5-3.8-2.4-4.4c-2-0.5-2.9-2.4-4.3-4.2s-6.4-4.7-14.9-4.5  s-10.2-3-10.9-3.6s-0.8,6,3,10.9s9.3,8.3,15.6,5.1s9.2-0.2,9.2-0.2S75.9,41.4,77.2,41.3z"
     id="path17"
     style="fill:#000000;fill-opacity:1" /><path
     inkscape:connector-curvature="0"
     class="st3"
     d="m 77.2,41.299999 c 0,0 0.7,-0.1 1.2,-1.4 0.5,-1.9 -0.5,-3.8 -2.4,-4.4 -2,-0.5 -2.9,-2.4 -4.3,-4.199999 C 70.3,29.5 65.297003,26.498422 56.8,26.8 46.98644,27.148305 45.623239,22.111864 45.723239,23.411864 48.723239,34.911863 68.7,27.6 77.2,41.299999 Z"
     id="path19-3"
     style="opacity:0.2;fill:#010101;fill-opacity:1"
     sodipodi:nodetypes="cccsscc" /></svg>