<?xml version="1.0" encoding="utf-8"?>
<!-- Generator: Adobe Illustrator 22.0.1, SVG Export Plug-In . SVG Version: 6.00 Build 0)  -->
<svg version="1.1" id="Layer_1" xmlns="http://www.w3.org/2000/svg" xmlns:xlink="http://www.w3.org/1999/xlink" x="0px" y="0px"
	 viewBox="0 0 160 160" style="enable-background:new 0 0 160 160;" xml:space="preserve">
<style type="text/css">
	.st0{fill:#FFFFFF;}
	.st1{opacity:0.1;}
</style>
<title>Artboard 42 copy 161</title>
<path class="st0" d="M46.8,53.4C46.8,53.4,34,49,36,37c2-11,14-10,14-10c1.4-5.4,6.4-9.2,12-9c10,0,15,6,15,6s1-7,11-7
	c5.8-0.1,11.1,3,14,8c0,0,13-3,17,6s-14.1,15.3-14.1,15.3S97,37,98.5,36.5c0,0-4.5,7.5-17.5,0.5c0,0-7,10-17,4c0,0-7,7.7-15,2.8
	L46.8,53.4z"/>
<g class="st1">
	<path d="M48,39c0,0,13,6,16-5c0,0,15,4,18-4c0,0,10,7,18,2c0,0,4.4,12.1,9.7,9.1c-1.8,1.2-3.7,2.2-5.7,2.9l-56,3
		c0,0-3.7-0.2-4.8-1.1C43.2,45.9,49,45,48,39z"/>
</g>
<path class="st0" d="M44.2,62.8c1-0.8,23.9-19.2,66-7.1c0,0,3.8,1,3.8-1.7l-4-3.6c0,0-10-9-11-14.4c0,0-9,6.3-17-0.9c0,0-5,9-18,5.4
	c0,0-5,8.1-15,2.7c0,0-3,15.3-5,17.2S44.2,62.8,44.2,62.8z"/>
<g class="st1">
	<path d="M45.5,60.2C52,54.9,59.7,51.4,68,50c18-4,39.1,1.6,39.1,1.6s5.9,1.1,5.9,3.3s-3,0.2-3,0.2c-24.3-5.3-47.7-5.6-66,8
		C44,63,43,62.4,45.5,60.2z"/>
</g>
<g class="st1">
	<path d="M64,40c0,0,1,8.6-1,10C63,50,63,41.4,64,40z"/>
</g>
<g class="st1">
	<path d="M49.4,43c0,0,0.3,10.4-1.8,12C47.6,55,48.3,44.7,49.4,43z"/>
</g>
<g class="st1">
	<path d="M81.9,35.7c-0.2,2.4-0.1,4.8,0.3,7.1c0.8,4.2,2.9,4.5,2.9,4.5C83.6,47.8,81.5,32,81.9,35.7z"/>
</g>
<g class="st1">
	<path d="M99.7,38.7c0.7,2.3,1.6,4.4,2.8,6.5c2,3.6,3.6,3.2,3.6,3.2C105.2,49.3,98.1,35.4,99.7,38.7z"/>
</g>
</svg>
