<?xml version="1.0" encoding="utf-8"?>
<!-- Generator: Adobe Illustrator 22.0.1, SVG Export Plug-In . SVG Version: 6.00 Build 0)  -->
<svg version="1.1" id="Layer_1" xmlns="http://www.w3.org/2000/svg" xmlns:xlink="http://www.w3.org/1999/xlink" x="0px" y="0px"
	 viewBox="0 0 160 160" style="enable-background:new 0 0 160 160;" xml:space="preserve">
<style type="text/css">
	.st0{fill:#42210B;}
	.st1{opacity:5.000000e-02;fill:#FFFFFF;enable-background:new    ;}
	.st2{opacity:0.5;}
</style>
<title>Artboard 42 copy 150</title>
<path class="st0" d="M95.4,49.9c0,0-3.4,10.1-14.4,3.1c0.3,3.8-1.6,5.5-6,5c0,0-3,9-7,3c-0.9,1.3,0.6,7.2-7,4c-1.6,5.6-5.6,6.7-11,5
	c0,0-15,1-10-9c0,0-15-9,2-12c0,0-5-22,15-17c0-5,12.9-22.3,32-5c0,0,15-13,22,6c0,0,15,2,8,16c1.9-0.8,12.2,3.7,5,12
	c1.9,5.3-0.2,7.3-5,7c0,0,3,2-0.4,4.5c0,0-6.6-2.5-6.6-9.5c-4-1.1-5.6-3.8-3.8-8.9C108.2,54.1,97.9,60.9,95.4,49.9z"/>
<path class="st1" d="M68.5,39.5C68.5,39.5,52,34,54,51c-12,2-3,13-3,13s-14.5-12.5-1.4-13.4c0,0-4.4-18.4,13.1-14
	c0-4.4,7.8-20.4,24.5-5.2C74,29,71,30,68.5,39.5z"/>
<g class="st2">
	<path d="M89,27c0,0,15-13,22,6c0,0,15,2,8,16c1.9-0.8,12.2,3.7,5,12c1.9,5.3-0.2,7.3-5,7c0,0,3,2-0.4,4.5c0,0-6.6-2.5-6.6-9.5
		c-4-1.1-5.6-3.8-3.8-8.9c-5.2,4.9-13.8,0.6-12.7-4.4c0,0,7.8,0.7,7.7-6.5C105,35,95.5,26.2,89,27z"/>
</g>
</svg>
