<?xml version="1.0" encoding="utf-8"?>
<!-- Generator: Adobe Illustrator 22.0.1, SVG Export Plug-In . SVG Version: 6.00 Build 0)  -->
<svg version="1.1" id="Layer_1" xmlns="http://www.w3.org/2000/svg" xmlns:xlink="http://www.w3.org/1999/xlink" x="0px" y="0px"
	 viewBox="0 0 160 160" style="enable-background:new 0 0 160 160;" xml:space="preserve">
<style type="text/css">
	.st0{fill:url(#SVGID_1_);}
	.st1{fill:#F4B145;}
	.st2{fill:#39B54A;}
	.st3{fill:#009245;}
</style>
<title>Artboard 42 copy 154</title>
<linearGradient id="SVGID_1_" gradientUnits="userSpaceOnUse" x1="69" y1="130.2229" x2="80.54" y2="130.2229" gradientTransform="matrix(1 0 0 -1 0 162)">
	<stop  offset="0" style="stop-color:#A66707"/>
	<stop  offset="0.5" style="stop-color:#9D6209"/>
	<stop  offset="1" style="stop-color:#000000"/>
</linearGradient>
<path class="st0" d="M80.5,42.9c0,0-3.5-17.8-7.2-22.6c-0.2-0.2-1.7-0.5-4.1,0.6L69,21.1c0,0,2.6,2.6,9,21.8
	C78,42.9,80.5,44.2,80.5,42.9z"/>
<ellipse transform="matrix(0.9968 -8.002496e-02 8.002496e-02 0.9968 -1.4171 5.7603)" class="st1" cx="71.2" cy="20.6" rx="2.2" ry="0.5"/>
<path class="st2" d="M77.2,41.3c0,0,0.7-0.1,1.2-1.4c0.5-1.9-0.5-3.8-2.4-4.4c-2-0.5-2.9-2.4-4.3-4.2s-6.4-4.7-14.9-4.5
	s-10.2-3-10.9-3.6s-0.8,6,3,10.9s9.3,8.3,15.6,5.1s9.2-0.2,9.2-0.2S75.9,41.4,77.2,41.3z"/>
<path class="st3" d="M77.2,41.3c0,0,0.7-0.1,1.2-1.4c0.5-1.9-0.5-3.8-2.4-4.4c-2-0.5-2.9-2.4-4.3-4.2s-6.4-4.7-14.9-4.5
	s-11-4.9-10.9-3.6C48.9,34.7,68.7,27.6,77.2,41.3z"/>
</svg>
