<?xml version="1.0" encoding="utf-8"?>
<!-- Generator: Adobe Illustrator 22.0.1, SVG Export Plug-In . SVG Version: 6.00 Build 0)  -->
<svg version="1.1" id="Layer_1" xmlns="http://www.w3.org/2000/svg" xmlns:xlink="http://www.w3.org/1999/xlink" x="0px" y="0px"
	 viewBox="0 0 160 160" style="enable-background:new 0 0 160 160;" xml:space="preserve">
<style type="text/css">
	.st0{fill:#743A4B;}
	.st1{fill:#93505C;}
	.st2{opacity:0.14;enable-background:new    ;}
</style>
<title>Artboard 42 copy 163</title>
<path class="st0" d="M40.1,78.3c0,0,11.9-22.7,44.3-23.5c28.2-1.9,33.6,16.1,33.6,16.1c33.1-25,2.8-38.9,2.8-38.9
	c-0.2,4.2-4.9,14.5-14.3,17.4C76.4,56.7,59,42.8,59,42.8s-10.5-12.1-21.2-9.2c-0.1,0.3-10.2,1.5-12.4,15.5
	C21.9,70.7,40.1,78.3,40.1,78.3z"/>
<path class="st1" d="M40.9,33c-2.7,0.4-5.8,0.8-5.8,6.2c0,2.7,3.2,5.9,7.6,8.6c4.4,2.7,9.3,4.7,14.3,5.9l6.4,1.2
	c13.7-2.8,25.9-4.8,37.9-0.9c0,0,31.8-12.8,21.3-20.8c-4.2-3.8-11.4,1.8-16.7,5c-3.4,2-5.9,0.9-5.9,0.9s-1.2-7.7-2-10.2
	c-2-6.6-5.8-13.8-23.8-13.8S58.9,26.3,58.9,26.3L59,39.5c-1.7,0-4.4-1.1-7.7-3.1C51.3,36.4,45.8,32.7,40.9,33z"/>
<path class="st2" d="M40.1,77.7c0,0,15-22.9,44.3-23.5s34.2,16.1,34.2,16.1l4.8-3.3c0,0-18.9-17.3-40-15
	c-34.8,2.3-48.5,21.9-48.5,21.9L40.1,77.7z"/>
<path class="st0" d="M82,15.8c0,0-22.3-4.8-23.2,8.4l0.4,15c3.4,0.2,6.8,0,10.1-0.6V25.4C69.4,25.4,67.9,15.7,82,15.8z"/>
</svg>
