<?xml version="1.0" encoding="utf-8"?>
<!-- Generator: Adobe Illustrator 22.0.1, SVG Export Plug-In . SVG Version: 6.00 Build 0)  -->
<svg version="1.1" id="Layer_1" xmlns="http://www.w3.org/2000/svg" xmlns:xlink="http://www.w3.org/1999/xlink" x="0px" y="0px"
	 viewBox="0 0 160 160" style="enable-background:new 0 0 160 160;" xml:space="preserve">
<style type="text/css">
	.st0{fill:#743A4B;}
	.st1{opacity:0.2;}
	.st2{fill:#C1C1C1;}
	.st3{fill:#EFEFEF;}
	.st4{fill:#FFFFFF;}
	.st5{fill:#606060;}
	.st6{opacity:0.3;enable-background:new    ;}
</style>
<title>Artboard 42 copy 169</title>
<path class="st0" d="M43.8,62.3C41,63,40.3,60.7,44,57c10.7-9.5,24.7-14.6,39-14c24,1,31,10,31,10s4,5-2.4,3.7
	C111.6,56.7,80.6,42.6,43.8,62.3z"/>
<g class="st1">
	<path d="M45.5,60.2C52,54.9,59.7,51.4,68,50c18-4,39.1,1.6,39.1,1.6s5.9,1.1,5.9,3.3s-3,0.2-3,0.2c-24.3-5.3-47.7-5.6-66,8
		C44,63,43,62.4,45.5,60.2z"/>
</g>
<ellipse transform="matrix(0.9142 -0.4053 0.4053 0.9142 -7.0664 41.3147)" class="st2" cx="94" cy="37.3" rx="14.8" ry="16.9"/>
<ellipse transform="matrix(0.9117 -0.4108 0.4108 0.9117 -6.5259 42.0918)" class="st3" cx="94.7" cy="36.2" rx="14.1" ry="16.2"/>
<ellipse transform="matrix(0.956 -0.2934 0.2934 0.956 -6.5705 29.5911)" class="st4" cx="95.4" cy="36.7" rx="11.5" ry="13"/>
<ellipse transform="matrix(0.956 -0.2934 0.2934 0.956 -6.4714 29.8048)" class="st5" cx="96.1" cy="36.5" rx="3.5" ry="4"/>
<path class="st6" d="M93.2,34.2c1.4,0.4,2.7,1.1,3.6,2.2c1.5,1.7,0.8,4-1.2,3.9c3.4,0.7,4.6-2.7,3.3-5.9
	C98.9,34.4,96.4,30.3,93.2,34.2z"/>
</svg>
