<?xml version="1.0" encoding="utf-8"?>
<!-- Generator: Adobe Illustrator 22.0.1, SVG Export Plug-In . SVG Version: 6.00 Build 0)  -->
<svg version="1.1" id="Layer_1" xmlns="http://www.w3.org/2000/svg" xmlns:xlink="http://www.w3.org/1999/xlink" x="0px" y="0px"
	 viewBox="0 0 160 160" style="enable-background:new 0 0 160 160;" xml:space="preserve">
<style type="text/css">
	.st0{fill:#FFE000;}
	.st1{opacity:5.000000e-02;}
	.st2{fill:#C69757;}
	.st3{opacity:0.1;}
	.st4{fill:#EF1414;}
	.st5{fill:url(#SVGID_1_);}
	.st6{fill:url(#SVGID_2_);}
	.st7{fill:url(#SVGID_3_);}
</style>
<title>Artboard 42 copy 258</title>
<path class="st0" d="M45,55l-6-18.8c0,0,4,8.9,11,6.8s8-17.1,8-17.1s3,12.4,11,12.2S79.5,24,79.5,24S83,37,88,37
	c10.1,0,13-12.1,13-12.1s3,16,8,16c3.1-0.1,6-1.4,8-3.8l-6,15C111,52.2,62,46.5,45,55z"/>
<g class="st1">
	<path d="M45,55c30-2.7,51.9-8.9,56-30.1c0,0,3,16,8,16c3.1-0.1,6-1.4,8-3.8l-6,15C111,52.2,62,46.5,45,55z"/>
</g>
<path class="st2" d="M44.5,62.2C56,54.8,69.4,50.9,83,51c23,0,27.2,3.9,27.2,3.9l3.2,4.4c0,0,3.1,3.2,5.1-0.8s-3-12-18-15
	s-42,0-54,7s-7,15-5,15H43L44.5,62.2z"/>
<g class="st3">
	<path d="M44.5,62.7C56,55.3,69.4,51.4,83,51.5c23,0,27.2,3.9,27.2,3.9l3.2,4.4c0,0,3.1,3.2,5.1-0.8C109,37,39,49,39.4,63.9
		c0.6,1.3,1.5,2.1,2.1,2.1H43L44.5,62.7z"/>
</g>
<circle class="st4" cx="101.7" cy="22.2" r="6.8"/>
<g class="st1">
	<path d="M108.5,23c-0.4,3.8-3.8,6.4-7.6,6c-1.8-0.2-3.4-1.1-4.6-2.5c1.7,0.6,6.1,1.3,8.9-1.4c2-1.9,2.1-5.6,1.6-7.4
		C108.1,19.1,108.7,21.1,108.5,23z"/>
</g>
<linearGradient id="SVGID_1_" gradientUnits="userSpaceOnUse" x1="222.9668" y1="-406.6246" x2="222.9668" y2="-399.8858" gradientTransform="matrix(0.9 0.11 0.12 -0.99 -49.89 -405.24)">
	<stop  offset="0" style="stop-color:#FFD22D;stop-opacity:0"/>
	<stop  offset="0.81" style="stop-color:#FFFCEF;stop-opacity:0.7"/>
	<stop  offset="1" style="stop-color:#FFFFFF;stop-opacity:0.8"/>
</linearGradient>
<path class="st5" d="M107.7,23.2c-0.5,1.2-3.2-2-5.7-2.2s-5.7,2-6,0.8c0.1-3.3,2.8-5.8,6.1-5.7c3.3,0.1,5.8,2.8,5.7,6.1
	C107.9,22.6,107.8,22.9,107.7,23.2L107.7,23.2z"/>
<circle class="st4" cx="100.7" cy="39.2" r="2.5"/>
<g class="st1">
	<path d="M103.1,39.5c-0.2,1.4-1.4,2.3-2.7,2.2c-0.6-0.1-1.2-0.4-1.6-0.9c1.1,0.4,2.3,0.2,3.2-0.5c0.6-0.7,0.8-1.7,0.6-2.7
		C103,38.1,103.2,38.8,103.1,39.5z"/>
</g>
<linearGradient id="SVGID_2_" gradientUnits="userSpaceOnUse" x1="223.9812" y1="-423.2346" x2="223.9812" y2="-420.7946" gradientTransform="matrix(0.9 0.11 0.12 -0.99 -49.89 -405.24)">
	<stop  offset="0" style="stop-color:#FFD22D;stop-opacity:0"/>
	<stop  offset="0.81" style="stop-color:#FFFCEF;stop-opacity:0.7"/>
	<stop  offset="1" style="stop-color:#FFFFFF;stop-opacity:0.8"/>
</linearGradient>
<path class="st6" d="M102.8,39.6c-0.2,0.4-1.1-0.7-2-0.8s-2,0.7-2.2,0.3c0-1.2,1-2.1,2.2-2c1.2,0,2.1,1,2,2.2
	C102.9,39.4,102.9,39.5,102.8,39.6L102.8,39.6z"/>
<circle class="st4" cx="60.7" cy="40.2" r="2.5"/>
<g class="st1">
	<path d="M63.1,40.5c-0.2,1.4-1.4,2.3-2.7,2.2c-0.6-0.1-1.2-0.4-1.6-0.9c1.1,0.4,2.3,0.2,3.2-0.5c0.6-0.7,0.8-1.7,0.6-2.7
		C63,39.1,63.2,39.8,63.1,40.5z"/>
</g>
<linearGradient id="SVGID_3_" gradientUnits="userSpaceOnUse" x1="180.2635" y1="-428.9146" x2="180.2635" y2="-426.4745" gradientTransform="matrix(0.9 0.11 0.12 -0.99 -49.89 -405.24)">
	<stop  offset="0" style="stop-color:#FFD22D;stop-opacity:0"/>
	<stop  offset="0.81" style="stop-color:#FFFCEF;stop-opacity:0.7"/>
	<stop  offset="1" style="stop-color:#FFFFFF;stop-opacity:0.8"/>
</linearGradient>
<path class="st7" d="M62.8,40.6c-0.2,0.4-1.1-0.7-2-0.8s-2,0.7-2.2,0.3c0-1.2,1-2.1,2.2-2c1.2,0,2.1,1,2,2.2
	C62.9,40.4,62.9,40.5,62.8,40.6z"/>
</svg>
