<svg xmlns="http://www.w3.org/2000/svg" viewBox="0 0 160 160">
  <path d="M44.6 62C55.1 45 63.9 28.7 67 15c3.8-1.3 24.3 18 42 38.5 0 0-29.1-31.9-64.4 8.5z" fill="#0f0"/>
  <path d="M68 15c8.4 4.8 25.2 22.5 41 38.5-9.9-8.7-17.9-12.4-24.7-12.8L68 15z" fill="#010101" opacity=".1"/>
  <path d="M113.7 37.9s11 5 10 12-10 5-10-1-3-10 0-11z"/>
  <path d="M115.2 33.8s4.2-1.4 5.7.7c1.5 2-1.4 3.8-2.9 2.2-1.5-1.6-3.3-2-2.8-3z"/>
  <path d="M48.8 25.5s-10 4.5-9.1 10.9 9.1 4.5 9.1-.9 2.7-9.1 0-10z"/>
  <path d="M33.5 46.8s.7 5.6-2.4 6.9-4.4-2.8-2-4.2 3.3-3.6 4.4-2.7z"/>
</svg>
