<?xml version="1.0" encoding="utf-8"?>
<!-- Generator: Adobe Illustrator 22.0.1, SVG Export Plug-In . SVG Version: 6.00 Build 0)  -->
<svg version="1.1" id="Layer_1" xmlns="http://www.w3.org/2000/svg" xmlns:xlink="http://www.w3.org/1999/xlink" x="0px" y="0px"
	 viewBox="0 0 160 160" style="enable-background:new 0 0 160 160;" xml:space="preserve">
<style type="text/css">
	.st0{fill:#FFFFFF;}
	.st1{opacity:0.5;enable-background:new    ;}
	.st2{opacity:0.25;enable-background:new    ;}
	.st3{opacity:0.1;enable-background:new    ;}
	.st4{fill:#ED1C24;}
</style>
<title>Artboard 42 copy 193</title>
<path class="st0" d="M133,48.8c-1.9-8.6-10.2-12.6-28.2-9.5C99.4,32,89,19,82,15l-3.7-2L57,12.8c-3.2,0.3-5.8,0.7-7.2,1.5
	c0,0-0.7,3-1.9,4.1C45,20.8,53,21.8,53,21.8l-2,3l4,2v3c1.8,6.9-0.3,14-0.3,14s1.2,1.6-17.2,0.4S23,65.8,36,63.8c0,0,3.4-0.3,8.9-1
	c8.4,0,23.7-1.7,49.4-9.4c3.8-1,7.6-1.6,11.5-1.9c3.7,2.8,6.8,6.3,9.2,10.2l0.3-0.2l-0.2,0.1C115.1,61.8,135,57.8,133,48.8z
	 M111.5,51.8c1.7,0.2,3.2,0.9,4.5,2C114.6,52.9,113.1,52.2,111.5,51.8L111.5,51.8z"/>
<path class="st1" d="M106,51c3.6,3.1,6.6,6.8,9,11c0,0,7-3,1-8C116,54,114.4,51.7,106,51z"/>
<path class="st2" d="M37,62c0,0,12.7,5.2,58.3-8.4c0,0,16.7-4.6,21.7,0.4s-0.9,8-0.9,8S136,58,134,49s-11-13-31-9S83,58,37,62z"/>
<path class="st3" d="M70.9,13c11,11.6,22.1,26,19,32l14.5-5.5c-2.9-4.2-6-8.2-9.2-12.1C95.2,27.4,83,14,78,13H70.9z"/>
<path class="st4" d="M55,44c9,2,28.3-1.8,44.6-11.2l-8.5-10.1c-0.5,2-30.5,7.6-36.1,8.3C55.9,34.5,55.8,38.9,55,44z"/>
<path class="st0" d="M69.9,26l13.1-3.8c2-0.6,4,0.6,4.6,2.5l3.3,11.4c0.6,2-0.6,4-2.5,4.6l-13.1,3.8c-2,0.6-4-0.6-4.6-2.5l-3.3-11.4
	C66.8,28.6,68,26.6,69.9,26z"/>
<path d="M73.9,28.5l7.1-2c1.5-0.4,3,0.4,3.5,1.9l1.9,6.6c0.4,1.5-0.4,3-1.9,3.5l-7.1,2c-1.5,0.4-3-0.4-3.5-1.9L72,31.9
	C71.6,30.4,72.4,28.9,73.9,28.5z"/>
</svg>
