<?xml version="1.0" encoding="UTF-8" standalone="no"?>
<!-- Generator: Adobe Illustrator 22.0.1, SVG Export Plug-In . SVG Version: 6.00 Build 0)  -->

<svg
   xmlns:dc="http://purl.org/dc/elements/1.1/"
   xmlns:cc="http://creativecommons.org/ns#"
   xmlns:rdf="http://www.w3.org/1999/02/22-rdf-syntax-ns#"
   xmlns:svg="http://www.w3.org/2000/svg"
   xmlns="http://www.w3.org/2000/svg"
   xmlns:sodipodi="http://sodipodi.sourceforge.net/DTD/sodipodi-0.dtd"
   xmlns:inkscape="http://www.inkscape.org/namespaces/inkscape"
   version="1.1"
   id="Layer_1"
   x="0px"
   y="0px"
   viewBox="0 0 160 160"
   style="enable-background:new 0 0 160 160;"
   xml:space="preserve"
   sodipodi:docname="top_07.svg"
   inkscape:version="0.92.2 (5c3e80d, 2017-08-06)"><metadata
     id="metadata19"><rdf:RDF><cc:Work
         rdf:about=""><dc:format>image/svg+xml</dc:format><dc:type
           rdf:resource="http://purl.org/dc/dcmitype/StillImage" /></cc:Work></rdf:RDF></metadata><defs
     id="defs17" /><sodipodi:namedview
     pagecolor="#ffffff"
     bordercolor="#666666"
     borderopacity="1"
     objecttolerance="10"
     gridtolerance="10"
     guidetolerance="10"
     inkscape:pageopacity="0"
     inkscape:pageshadow="2"
     inkscape:window-width="1920"
     inkscape:window-height="976"
     id="namedview15"
     showgrid="false"
     inkscape:zoom="8.34386"
     inkscape:cx="55.257558"
     inkscape:cy="108.46368"
     inkscape:window-x="0"
     inkscape:window-y="27"
     inkscape:window-maximized="1"
     inkscape:current-layer="Layer_1" /><style
     type="text/css"
     id="style2">
	.st0{fill:#743A4B;}
	.st1{fill:#93505C;}
	.st2{opacity:0.14;enable-background:new    ;}
</style><title
     id="title4">Artboard 42 copy 163</title><path
     class="st0"
     d="M40.1,78.3c0,0,11.9-22.7,44.3-23.5c28.2-1.9,33.6,16.1,33.6,16.1c33.1-25,2.8-38.9,2.8-38.9  c-0.2,4.2-4.9,14.5-14.3,17.4C76.4,56.7,59,42.8,59,42.8s-10.5-12.1-21.2-9.2c-0.1,0.3-10.2,1.5-12.4,15.5  C21.9,70.7,40.1,78.3,40.1,78.3z"
     id="path6" /><path
     class="st1"
     d="M40.9,33c-2.7,0.4-5.8,0.8-5.8,6.2c0,2.7,3.2,5.9,7.6,8.6c4.4,2.7,9.3,4.7,14.3,5.9l6.4,1.2  c13.7-2.8,25.9-4.8,37.9-0.9c0,0,31.8-12.8,21.3-20.8c-4.2-3.8-11.4,1.8-16.7,5c-3.4,2-5.9,0.9-5.9,0.9s-1.2-7.7-2-10.2  c-2-6.6-5.8-13.8-23.8-13.8S58.9,26.3,58.9,26.3L59,39.5c-1.7,0-4.4-1.1-7.7-3.1C51.3,36.4,45.8,32.7,40.9,33z"
     id="path8" /><path
     class="st2"
     d="m 39.620604,77.7 c 0,0 15,-22.9 44.3,-23.5 C 113.2206,53.6 118.1206,70.3 118.1206,70.3 l 4.8,-3.3 c 0,0 -18.9,-17.3 -39.999996,-15 -34.8,2.3 -48.5,21.9 -48.5,21.9 z"
     id="path10"
     style="opacity:0.6;enable-background:new"
     inkscape:connector-curvature="0" /><path
     class="st0"
     d="M82,15.8c0,0-22.3-4.8-23.2,8.4l0.4,15c3.4,0.2,6.8,0,10.1-0.6V25.4C69.4,25.4,67.9,15.7,82,15.8z"
     id="path12" /></svg>