<?xml version="1.0" encoding="UTF-8" standalone="no"?><!DOCTYPE svg PUBLIC "-//W3C//DTD SVG 1.1//EN" "http://www.w3.org/Graphics/SVG/1.1/DTD/svg11.dtd"><svg width="100%" height="100%" viewBox="0 0 160 160" version="1.1" xmlns="http://www.w3.org/2000/svg" xmlns:xlink="http://www.w3.org/1999/xlink" xml:space="preserve" style="fill-rule:evenodd;clip-rule:evenodd;stroke-linecap:round;stroke-linejoin:round;"><g id="hats"><g id="bommelhat"><path id="STROKE_065DCF1C.-7502.-450E.-982F.-80221A0FDFA6" d="M113.156,58.003c0.136,0.016 0.221,0.05 0.253,0.101c0.033,0.051 0.059,0.033 0.076,-0.052c0.018,-0.086 0.022,-0.167 0.013,-0.244c-0.008,-0.077 -0.025,-0.159 -0.049,-0.244c-0.024,-0.086 -0.049,-0.171 -0.076,-0.257c-0.026,-0.085 -0.057,-0.17 -0.092,-0.256c-0.035,-0.086 -0.064,-0.171 -0.088,-0.256c-0.024,-0.086 -0.05,-0.171 -0.076,-0.257c-0.026,-0.085 -0.053,-0.171 -0.079,-0.256c-0.026,-0.086 -0.053,-0.167 -0.079,-0.244c-0.026,-0.077 -0.056,-0.159 -0.089,-0.244c-0.032,-0.086 -0.066,-0.179 -0.101,-0.281c-0.035,-0.102 -0.066,-0.179 -0.093,-0.23c-0.026,-0.051 -0.055,-0.128 -0.088,-0.231c-0.033,-0.104 -0.067,-0.198 -0.102,-0.284c-0.035,-0.085 -0.066,-0.171 -0.092,-0.256c-0.026,-0.086 -0.056,-0.167 -0.089,-0.244c-0.033,-0.078 -0.062,-0.146 -0.089,-0.205c-0.026,-0.059 -0.057,-0.119 -0.092,-0.18c-0.035,-0.061 -0.065,-0.117 -0.089,-0.167c-0.024,-0.052 -0.062,-0.107 -0.114,-0.166c-0.053,-0.059 -0.1,-0.119 -0.142,-0.18c-0.042,-0.06 -0.08,-0.116 -0.115,-0.167c-0.035,-0.051 -0.069,-0.102 -0.102,-0.153c-0.033,-0.051 -0.062,-0.111 -0.089,-0.18c-0.026,-0.069 -0.057,-0.133 -0.092,-0.193c-0.035,-0.059 -0.065,-0.114 -0.092,-0.165c-0.026,-0.051 -0.06,-0.107 -0.102,-0.167c-0.041,-0.061 -0.08,-0.117 -0.115,-0.168c-0.035,-0.051 -0.073,-0.102 -0.115,-0.153c-0.041,-0.051 -0.084,-0.102 -0.128,-0.153c-0.044,-0.051 -0.082,-0.102 -0.115,-0.155c-0.033,-0.053 -0.067,-0.108 -0.102,-0.168c-0.035,-0.059 -0.074,-0.114 -0.118,-0.165c-0.044,-0.051 -0.087,-0.098 -0.128,-0.14c-0.042,-0.043 -0.089,-0.077 -0.142,-0.104c-0.052,-0.026 -0.104,-0.057 -0.154,-0.091c-0.051,-0.035 -0.101,-0.068 -0.152,-0.101c-0.05,-0.033 -0.097,-0.071 -0.141,-0.113c-0.044,-0.043 -0.087,-0.091 -0.131,-0.144c-0.044,-0.052 -0.087,-0.104 -0.128,-0.155c-0.042,-0.051 -0.089,-0.098 -0.142,-0.14c-0.052,-0.043 -0.104,-0.09 -0.154,-0.141c-0.051,-0.051 -0.098,-0.098 -0.142,-0.14c-0.043,-0.043 -0.086,-0.086 -0.128,-0.128c-0.042,-0.043 -0.088,-0.09 -0.138,-0.141c-0.05,-0.051 -0.097,-0.103 -0.141,-0.155c-0.044,-0.053 -0.088,-0.101 -0.132,-0.144c-0.044,-0.042 -0.091,-0.085 -0.141,-0.128l-0.076,-0.064" style="fill:none;stroke:#000;stroke-width:1.68px;"/><path id="STROKE_BF210807.-EF2B.-468A.-B591.-E633FE330FB9" d="M44.613,58.077c0,-0.119 -0.008,-0.208 -0.026,-0.269c-0.017,-0.061 -0.055,-0.096 -0.115,-0.104c-0.059,-0.008 -0.122,-0.008 -0.19,0c-0.068,0.008 -0.128,0.043 -0.181,0.104c-0.053,0.061 -0.095,0.121 -0.128,0.18c-0.033,0.059 -0.076,0.123 -0.129,0.192c-0.052,0.069 -0.095,0.129 -0.128,0.18c-0.033,0.051 -0.075,0.111 -0.128,0.18c-0.053,0.069 -0.108,0.15 -0.167,0.244c-0.06,0.094 -0.119,0.183 -0.178,0.269c-0.059,0.085 -0.102,0.154 -0.128,0.205c-0.027,0.05 -0.062,0.119 -0.106,0.204c-0.043,0.086 -0.077,0.158 -0.101,0.217c-0.024,0.059 -0.05,0.136 -0.076,0.232c-0.026,0.095 -0.048,0.172 -0.066,0.232c-0.017,0.059 -0.035,0.135 -0.052,0.229c-0.018,0.094 -0.036,0.188 -0.053,0.283c-0.018,0.096 -0.034,0.186 -0.049,0.271c-0.016,0.086 -0.032,0.166 -0.049,0.242c-0.018,0.076 -0.036,0.152 -0.053,0.229c-0.018,0.078 -0.031,0.151 -0.04,0.22c-0.008,0.069 -0.013,0.137 -0.013,0.204c0,0.068 0,0.132 0,0.193c0,0.061 -0.004,0.121 -0.013,0.18c-0.009,0.059 -0.013,0.127 -0.013,0.204c0,0.078 0,0.159 0,0.244c0,0.086 -0.004,0.167 -0.013,0.244c-0.009,0.078 -0.013,0.155 -0.013,0.232l0,1.667c0,0.077 0.004,0.159 0.013,0.244c0.009,0.085 0.017,0.158 0.026,0.217c0.009,0.059 0.013,0.123 0.013,0.192c0,0.069 0.005,0.142 0.013,0.219c0.009,0.078 0.014,0.163 0.014,0.257c0,0.094 0.004,0.183 0.013,0.269c0.008,0.085 0.013,0.157 0.013,0.216c0,0.06 0.004,0.128 0.013,0.205c0.009,0.077 0.018,0.159 0.026,0.244c0.009,0.086 0.018,0.163 0.027,0.232c0.008,0.069 0.016,0.137 0.023,0.205l0.009,0.101" style="fill:none;stroke:#000;stroke-width:1.68px;"/><path id="STROKE_8C68D502.-A014.-4DB4.-998C.-80DC0A1AFB06" d="M113.281,59.102c-0.101,-0.069 -0.186,-0.112 -0.256,-0.128c-0.07,-0.016 -0.139,-0.029 -0.207,-0.037c-0.068,-0.008 -0.136,-0.012 -0.204,-0.012l-1.272,0c-0.061,0 -0.143,-0.009 -0.243,-0.028c-0.101,-0.018 -0.203,-0.035 -0.306,-0.051c-0.103,-0.017 -0.202,-0.033 -0.296,-0.049c-0.094,-0.017 -0.193,-0.03 -0.296,-0.04c-0.103,-0.01 -0.185,-0.015 -0.246,-0.015l-0.733,0c-0.068,0 -0.136,-0.004 -0.204,-0.012c-0.068,-0.008 -0.136,-0.012 -0.204,-0.012l-0.98,0c-0.103,0 -0.201,0.004 -0.295,0.012c-0.094,0.008 -0.189,0.017 -0.283,0.027c-0.094,0.01 -0.193,0.015 -0.296,0.015c-0.103,0 -0.205,0.008 -0.305,0.025c-0.101,0.016 -0.182,0.028 -0.244,0.037c-0.061,0.008 -0.148,0.016 -0.259,0.024c-0.112,0.008 -0.219,0.021 -0.319,0.039c-0.101,0.019 -0.199,0.032 -0.293,0.04c-0.094,0.008 -0.172,0.016 -0.233,0.025c-0.062,0.008 -0.135,0.021 -0.221,0.039c-0.085,0.018 -0.175,0.031 -0.269,0.04c-0.094,0.008 -0.184,0.016 -0.27,0.024c-0.085,0.008 -0.171,0.017 -0.256,0.025c-0.085,0.008 -0.167,0.012 -0.243,0.012l-1.131,0c-0.094,0 -0.184,0.004 -0.27,0.012c-0.085,0.009 -0.184,0.022 -0.296,0.04c-0.111,0.018 -0.214,0.035 -0.308,0.052c-0.094,0.016 -0.189,0.033 -0.283,0.052c-0.094,0.018 -0.184,0.035 -0.27,0.051c-0.085,0.017 -0.162,0.025 -0.23,0.025l-1.17,0c-0.094,0 -0.188,0.004 -0.282,0.012c-0.095,0.009 -0.189,0.022 -0.283,0.04c-0.094,0.018 -0.171,0.027 -0.23,0.027c-0.06,0 -0.141,0 -0.244,0c-0.103,0 -0.201,0.004 -0.296,0.012c-0.094,0.008 -0.188,0.016 -0.282,0.025c-0.094,0.008 -0.18,0.012 -0.256,0.012l-1.578,0c-0.086,0 -0.18,0.004 -0.283,0.013c-0.103,0.008 -0.206,0.021 -0.309,0.039c-0.103,0.018 -0.202,0.035 -0.296,0.052c-0.094,0.016 -0.188,0.033 -0.282,0.049c-0.095,0.016 -0.189,0.03 -0.283,0.039c-0.094,0.01 -0.184,0.019 -0.27,0.028c-0.085,0.008 -0.166,0.012 -0.243,0.012l-0.467,0c-0.076,0 -0.158,0.004 -0.243,0.012c-0.085,0.008 -0.171,0.021 -0.257,0.037c-0.085,0.017 -0.157,0.03 -0.217,0.039c-0.059,0.01 -0.135,0.024 -0.23,0.04c-0.094,0.016 -0.172,0.029 -0.233,0.037c-0.061,0.008 -0.147,0.021 -0.256,0.04c-0.11,0.018 -0.208,0.031 -0.296,0.039c-0.088,0.008 -0.161,0.016 -0.22,0.025c-0.059,0.008 -0.132,0.016 -0.217,0.024c-0.086,0.008 -0.163,0.012 -0.23,0.012l-0.658,0c-0.077,0 -0.158,0.01 -0.243,0.028c-0.086,0.018 -0.175,0.031 -0.27,0.039c-0.094,0.008 -0.192,0.016 -0.295,0.025c-0.103,0.008 -0.198,0.016 -0.283,0.024c-0.086,0.009 -0.176,0.013 -0.27,0.013c-0.094,0 -0.192,0.004 -0.295,0.012c-0.103,0.008 -0.202,0.017 -0.296,0.027c-0.095,0.01 -0.171,0.019 -0.23,0.027c-0.06,0.008 -0.141,0.021 -0.244,0.037c-0.103,0.017 -0.184,0.025 -0.243,0.025c-0.059,0 -0.14,0.004 -0.243,0.012c-0.103,0.009 -0.189,0.018 -0.256,0.027c-0.069,0.01 -0.138,0.015 -0.208,0.015c-0.07,0 -0.134,0.004 -0.194,0.013c-0.059,0.008 -0.122,0.016 -0.19,0.024c-0.068,0.008 -0.137,0.017 -0.207,0.025c-0.071,0.008 -0.135,0.012 -0.194,0.012c-0.059,0 -0.123,0.004 -0.191,0.012c-0.068,0.009 -0.136,0.018 -0.204,0.027c-0.068,0.01 -0.137,0.02 -0.207,0.028c-0.07,0.008 -0.139,0.016 -0.207,0.024c-0.068,0.009 -0.131,0.013 -0.191,0.013c-0.059,0 -0.119,0.004 -0.18,0.012c-0.062,0.008 -0.122,0.012 -0.181,0.012c-0.059,0 -0.119,0.005 -0.178,0.015c-0.059,0.01 -0.14,0.015 -0.243,0.015c-0.103,0 -0.202,0.008 -0.296,0.025c-0.094,0.016 -0.172,0.028 -0.233,0.037c-0.062,0.008 -0.139,0.016 -0.233,0.024c-0.095,0.008 -0.192,0.017 -0.293,0.027c-0.101,0.01 -0.203,0.015 -0.306,0.015c-0.103,0 -0.206,0.004 -0.309,0.012c-0.103,0.009 -0.21,0.013 -0.322,0.013c-0.112,0 -0.197,0 -0.256,0c-0.059,0 -0.124,0.004 -0.194,0.012c-0.07,0.008 -0.139,0.012 -0.207,0.012c-0.068,0 -0.132,0.004 -0.191,0.013c-0.059,0.008 -0.124,0.016 -0.194,0.024c-0.07,0.008 -0.143,0.018 -0.22,0.028c-0.077,0.009 -0.149,0.014 -0.217,0.014c-0.068,0 -0.136,0.004 -0.204,0.013c-0.068,0.008 -0.14,0.016 -0.217,0.024c-0.076,0.008 -0.15,0.017 -0.22,0.025c-0.07,0.008 -0.139,0.021 -0.207,0.039c-0.068,0.018 -0.14,0.036 -0.217,0.052c-0.077,0.016 -0.149,0.033 -0.217,0.05c-0.068,0.016 -0.137,0.029 -0.207,0.039c-0.07,0.01 -0.144,0.019 -0.22,0.027c-0.077,0.008 -0.149,0.021 -0.217,0.037c-0.068,0.017 -0.136,0.029 -0.204,0.037c-0.068,0.008 -0.133,0.017 -0.194,0.027c-0.062,0.01 -0.122,0.019 -0.181,0.027c-0.059,0.009 -0.123,0.017 -0.19,0.025c-0.068,0.008 -0.133,0.016 -0.195,0.025c-0.061,0.008 -0.121,0.016 -0.18,0.024c-0.06,0.008 -0.123,0.012 -0.191,0.012c-0.068,0 -0.132,0.005 -0.194,0.015c-0.061,0.01 -0.126,0.019 -0.194,0.028c-0.068,0.008 -0.14,0.012 -0.217,0.012c-0.077,0 -0.149,0.004 -0.217,0.012c-0.068,0.008 -0.137,0.017 -0.207,0.025c-0.07,0.008 -0.139,0.016 -0.207,0.024c-0.068,0.009 -0.14,0.018 -0.217,0.028c-0.077,0.009 -0.145,0.014 -0.204,0.014c-0.059,0 -0.123,0.004 -0.194,0.013c-0.07,0.008 -0.134,0.012 -0.193,0.012c-0.06,0 -0.119,0.004 -0.178,0.012c-0.059,0.008 -0.12,0.017 -0.181,0.025c-0.061,0.008 -0.151,0.016 -0.269,0.024c-0.119,0.009 -0.208,0.013 -0.27,0.013c-0.061,0 -0.122,0 -0.181,0c-0.059,0 -0.118,0.005 -0.177,0.015c-0.059,0.01 -0.12,0.014 -0.181,0.014c-0.061,0 -0.126,0.005 -0.194,0.013c-0.068,0.008 -0.131,0.016 -0.191,0.024c-0.059,0.009 -0.123,0.013 -0.193,0.013c-0.071,0 -0.14,0.004 -0.207,0.012c-0.069,0.008 -0.137,0.017 -0.204,0.025c-0.068,0.008 -0.136,0.017 -0.204,0.027c-0.068,0.01 -0.141,0.019 -0.22,0.027c-0.079,0.008 -0.153,0.016 -0.221,0.025c-0.067,0.008 -0.14,0.016 -0.217,0.024c-0.076,0.009 -0.149,0.017 -0.217,0.025c-0.067,0.008 -0.14,0.017 -0.216,0.027c-0.077,0.01 -0.151,0.019 -0.221,0.027c-0.07,0.008 -0.139,0.017 -0.207,0.025c-0.068,0.008 -0.14,0.016 -0.217,0.025c-0.076,0.008 -0.149,0.016 -0.217,0.024c-0.068,0.008 -0.132,0.017 -0.194,0.027c-0.061,0.01 -0.126,0.019 -0.194,0.028l-0.407,0.049c-0.068,0.008 -0.133,0.016 -0.194,0.024c-0.061,0.009 -0.122,0.013 -0.181,0.013c-0.059,0 -0.119,0.005 -0.181,0.014c-0.061,0.01 -0.121,0.015 -0.18,0.015c-0.06,0 -0.119,0.004 -0.178,0.013c-0.059,0.008 -0.119,0.016 -0.181,0.024c-0.061,0.008 -0.121,0.013 -0.181,0.013c-0.059,0 -0.118,0.004 -0.177,0.012c-0.059,0.008 -0.124,0.016 -0.194,0.024c-0.07,0.009 -0.144,0.018 -0.22,0.028c-0.077,0.01 -0.149,0.019 -0.217,0.027c-0.068,0.008 -0.141,0.016 -0.217,0.024c-0.077,0.009 -0.154,0.017 -0.23,0.025c-0.077,0.008 -0.155,0.016 -0.234,0.025c-0.079,0.008 -0.161,0.021 -0.246,0.039c-0.086,0.018 -0.175,0.035 -0.27,0.052c-0.094,0.016 -0.184,0.038 -0.269,0.064c-0.086,0.026 -0.171,0.048 -0.257,0.064c-0.085,0.017 -0.17,0.034 -0.256,0.052c-0.086,0.018 -0.167,0.035 -0.243,0.052c-0.077,0.016 -0.158,0.033 -0.243,0.049c-0.086,0.016 -0.167,0.03 -0.244,0.039c-0.077,0.01 -0.153,0.02 -0.23,0.028c-0.077,0.008 -0.15,0.016 -0.22,0.024c-0.07,0.009 -0.139,0.017 -0.207,0.025c-0.068,0.008 -0.158,0.021 -0.27,0.039c-0.111,0.018 -0.219,0.028 -0.322,0.028c-0.103,0 -0.202,0.004 -0.296,0.012c-0.094,0.008 -0.171,0.016 -0.23,0.024c-0.059,0.009 -0.14,0.017 -0.243,0.025c-0.103,0.008 -0.21,0.026 -0.322,0.052c-0.112,0.026 -0.202,0.043 -0.27,0.052c-0.068,0.008 -0.136,0.02 -0.204,0.037c-0.068,0.016 -0.135,0.038 -0.203,0.064c-0.068,0.026 -0.137,0.048 -0.207,0.066c-0.071,0.018 -0.144,0.036 -0.221,0.052c-0.076,0.016 -0.153,0.033 -0.23,0.05c-0.077,0.016 -0.153,0.029 -0.23,0.039c-0.077,0.01 -0.153,0.027 -0.23,0.052c-0.077,0.024 -0.153,0.041 -0.23,0.049c-0.077,0.008 -0.155,0.021 -0.233,0.039c-0.079,0.018 -0.153,0.036 -0.221,0.052c-0.068,0.017 -0.136,0.034 -0.203,0.052c-0.068,0.018 -0.133,0.031 -0.195,0.039c-0.061,0.009 -0.142,0.021 -0.243,0.037c-0.101,0.017 -0.198,0.034 -0.292,0.052c-0.094,0.018 -0.181,0.035 -0.26,0.052c-0.079,0.016 -0.157,0.033 -0.233,0.049c-0.077,0.016 -0.158,0.034 -0.244,0.052c-0.085,0.018 -0.175,0.035 -0.269,0.052c-0.094,0.016 -0.18,0.037 -0.257,0.064c-0.076,0.026 -0.166,0.047 -0.269,0.064c-0.103,0.016 -0.206,0.038 -0.309,0.064c-0.103,0.026 -0.206,0.052 -0.309,0.077c-0.103,0.024 -0.209,0.054 -0.319,0.088c-0.109,0.035 -0.224,0.061 -0.345,0.079c-0.12,0.018 -0.237,0.04 -0.348,0.064c-0.112,0.025 -0.211,0.046 -0.296,0.064c-0.086,0.018 -0.18,0.036 -0.283,0.052c-0.103,0.016 -0.206,0.033 -0.309,0.049c-0.103,0.017 -0.201,0.034 -0.296,0.052c-0.094,0.018 -0.193,0.035 -0.296,0.052c-0.103,0.016 -0.206,0.038 -0.309,0.064c-0.103,0.026 -0.184,0.048 -0.243,0.064c-0.059,0.017 -0.14,0.038 -0.243,0.064c-0.103,0.027 -0.184,0.052 -0.243,0.077c-0.059,0.024 -0.141,0.05 -0.244,0.076c-0.103,0.026 -0.184,0.048 -0.243,0.064c-0.059,0.017 -0.14,0.038 -0.243,0.064c-0.103,0.027 -0.185,0.048 -0.247,0.064c-0.061,0.017 -0.121,0.034 -0.18,0.052c-0.06,0.018 -0.145,0.035 -0.257,0.052c-0.112,0.016 -0.219,0.038 -0.322,0.064c-0.103,0.026 -0.197,0.048 -0.283,0.064c-0.085,0.017 -0.175,0.034 -0.269,0.052c-0.094,0.018 -0.176,0.031 -0.243,0.039c-0.068,0.008 -0.136,0.021 -0.204,0.037c-0.068,0.017 -0.137,0.034 -0.207,0.052c-0.07,0.018 -0.153,0.039 -0.247,0.064c-0.094,0.025 -0.184,0.058 -0.269,0.101c-0.086,0.043 -0.176,0.086 -0.27,0.129c-0.094,0.042 -0.184,0.077 -0.269,0.103c-0.086,0.026 -0.163,0.048 -0.231,0.064c-0.068,0.016 -0.135,0.038 -0.203,0.064c-0.068,0.026 -0.136,0.048 -0.204,0.064c-0.068,0.017 -0.128,0.038 -0.181,0.064c-0.053,0.027 -0.108,0.048 -0.167,0.065c-0.06,0.016 -0.12,0.033 -0.182,0.051c-0.061,0.018 -0.121,0.036 -0.18,0.052c-0.059,0.017 -0.127,0.034 -0.204,0.052c-0.077,0.018 -0.167,0.039 -0.27,0.064c-0.103,0.025 -0.201,0.054 -0.296,0.088c-0.094,0.035 -0.17,0.061 -0.229,0.077c-0.06,0.016 -0.141,0.046 -0.244,0.089c-0.103,0.042 -0.201,0.077 -0.296,0.103c-0.094,0.027 -0.184,0.061 -0.269,0.104c-0.086,0.043 -0.159,0.081 -0.22,0.116c-0.062,0.034 -0.126,0.069 -0.194,0.103c-0.068,0.035 -0.141,0.065 -0.217,0.089c-0.077,0.025 -0.162,0.05 -0.257,0.076c-0.094,0.027 -0.171,0.044 -0.23,0.052c-0.059,0.008 -0.144,0.026 -0.256,0.052c-0.112,0.026 -0.198,0.048 -0.26,0.064c-0.061,0.017 -0.121,0.033 -0.181,0.049c-0.059,0.017 -0.148,0.046 -0.269,0.089c-0.121,0.043 -0.228,0.082 -0.322,0.116c-0.095,0.035 -0.192,0.069 -0.293,0.104c-0.101,0.034 -0.203,0.069 -0.306,0.103c-0.102,0.035 -0.193,0.064 -0.272,0.089c-0.079,0.025 -0.157,0.054 -0.234,0.089c-0.076,0.034 -0.157,0.065 -0.243,0.091c-0.085,0.026 -0.171,0.047 -0.256,0.064c-0.086,0.016 -0.163,0.038 -0.23,0.064c-0.068,0.026 -0.141,0.048 -0.217,0.064c-0.077,0.017 -0.151,0.034 -0.221,0.052l-0.105,0.027" style="fill:none;stroke:#000;stroke-width:1.68px;"/><path id="STROKE_5B641FBD.-83D9.-4161.-9BC7.-462C650A698E" d="M108.502,47.15c-0.118,0.053 -0.212,0.079 -0.28,0.079l-0.733,0c-0.061,0 -0.121,-0.004 -0.18,-0.012c-0.06,-0.009 -0.123,-0.022 -0.191,-0.04c-0.068,-0.018 -0.14,-0.031 -0.217,-0.039c-0.077,-0.008 -0.154,-0.022 -0.233,-0.04c-0.079,-0.018 -0.157,-0.031 -0.234,-0.039c-0.076,-0.008 -0.153,-0.02 -0.23,-0.037c-0.077,-0.016 -0.158,-0.029 -0.243,-0.037c-0.086,-0.008 -0.167,-0.012 -0.243,-0.012c-0.077,0 -0.158,-0.005 -0.244,-0.015c-0.085,-0.01 -0.171,-0.019 -0.256,-0.027c-0.085,-0.009 -0.168,-0.017 -0.247,-0.025c-0.078,-0.008 -0.161,-0.012 -0.246,-0.012c-0.085,0 -0.171,-0.004 -0.256,-0.013c-0.086,-0.008 -0.167,-0.016 -0.244,-0.024c-0.076,-0.008 -0.157,-0.012 -0.243,-0.012c-0.085,0 -0.171,-0.005 -0.256,-0.015c-0.086,-0.01 -0.167,-0.015 -0.243,-0.015c-0.077,0 -0.158,-0.004 -0.244,-0.012c-0.085,-0.009 -0.166,-0.017 -0.243,-0.025c-0.077,-0.008 -0.158,-0.021 -0.243,-0.037c-0.086,-0.016 -0.176,-0.03 -0.27,-0.04c-0.094,-0.009 -0.185,-0.018 -0.273,-0.027c-0.087,-0.008 -0.178,-0.016 -0.273,-0.024c-0.094,-0.008 -0.188,-0.017 -0.282,-0.025c-0.095,-0.008 -0.188,-0.012 -0.28,-0.012l-1.719,0c-0.094,0 -0.188,0.004 -0.282,0.012c-0.095,0.008 -0.189,0.017 -0.283,0.025c-0.094,0.008 -0.193,0.016 -0.296,0.024c-0.103,0.009 -0.206,0.018 -0.309,0.027c-0.103,0.01 -0.202,0.02 -0.296,0.028c-0.094,0.008 -0.188,0.012 -0.283,0.012c-0.094,0 -0.188,0.004 -0.282,0.012c-0.094,0.009 -0.193,0.013 -0.296,0.013l-3.185,0c-0.101,0 -0.203,0.004 -0.306,0.012c-0.103,0.008 -0.206,0.016 -0.309,0.025c-0.103,0.008 -0.206,0.017 -0.309,0.027c-0.103,0.01 -0.202,0.019 -0.296,0.027c-0.094,0.008 -0.193,0.012 -0.296,0.012c-0.103,0 -0.206,0.004 -0.309,0.012c-0.102,0.009 -0.201,0.017 -0.295,0.025c-0.095,0.008 -0.189,0.016 -0.283,0.025c-0.094,0.008 -0.189,0.012 -0.283,0.012c-0.094,0 -0.188,0.005 -0.283,0.015c-0.094,0.01 -0.192,0.015 -0.295,0.015c-0.103,0 -0.21,0.004 -0.319,0.012c-0.11,0.008 -0.216,0.016 -0.319,0.025c-0.103,0.008 -0.206,0.016 -0.309,0.024c-0.103,0.009 -0.215,0.017 -0.335,0.025c-0.121,0.008 -0.237,0.017 -0.349,0.027c-0.112,0.01 -0.223,0.023 -0.335,0.039c-0.112,0.017 -0.227,0.034 -0.345,0.052c-0.119,0.018 -0.234,0.036 -0.345,0.052c-0.112,0.017 -0.219,0.033 -0.322,0.05c-0.103,0.016 -0.22,0.033 -0.349,0.051c-0.129,0.018 -0.244,0.036 -0.345,0.052c-0.101,0.016 -0.198,0.034 -0.293,0.052c-0.094,0.018 -0.197,0.031 -0.308,0.039c-0.112,0.009 -0.22,0.021 -0.323,0.037c-0.103,0.017 -0.206,0.029 -0.309,0.037c-0.103,0.008 -0.201,0.022 -0.295,0.04c-0.095,0.018 -0.189,0.035 -0.283,0.051c-0.094,0.017 -0.189,0.029 -0.283,0.037c-0.094,0.008 -0.184,0.022 -0.27,0.04c-0.085,0.018 -0.166,0.031 -0.243,0.039c-0.076,0.008 -0.157,0.017 -0.243,0.025c-0.085,0.008 -0.171,0.016 -0.256,0.024c-0.086,0.009 -0.171,0.018 -0.257,0.028c-0.085,0.01 -0.167,0.019 -0.246,0.027c-0.079,0.008 -0.161,0.016 -0.247,0.024c-0.085,0.009 -0.171,0.017 -0.256,0.025c-0.086,0.008 -0.171,0.017 -0.257,0.025c-0.085,0.008 -0.171,0.017 -0.256,0.027c-0.085,0.01 -0.171,0.019 -0.256,0.027c-0.086,0.008 -0.176,0.016 -0.27,0.025c-0.094,0.008 -0.188,0.02 -0.283,0.037c-0.094,0.016 -0.188,0.033 -0.282,0.051c-0.095,0.019 -0.189,0.036 -0.283,0.052c-0.094,0.017 -0.188,0.034 -0.283,0.052c-0.094,0.018 -0.188,0.039 -0.282,0.064c-0.095,0.025 -0.189,0.046 -0.283,0.064c-0.094,0.018 -0.189,0.036 -0.283,0.052c-0.094,0.016 -0.184,0.029 -0.269,0.037c-0.086,0.008 -0.167,0.021 -0.244,0.039c-0.076,0.018 -0.153,0.032 -0.23,0.04c-0.076,0.008 -0.157,0.016 -0.243,0.024c-0.085,0.009 -0.163,0.017 -0.233,0.025c-0.07,0.008 -0.144,0.016 -0.221,0.025c-0.076,0.008 -0.153,0.017 -0.23,0.027c-0.076,0.01 -0.153,0.019 -0.23,0.027c-0.076,0.008 -0.157,0.016 -0.243,0.024c-0.085,0.009 -0.171,0.013 -0.256,0.013c-0.086,0 -0.167,0.004 -0.244,0.012c-0.076,0.009 -0.157,0.017 -0.243,0.025c-0.085,0.008 -0.172,0.017 -0.26,0.027c-0.087,0.01 -0.174,0.023 -0.259,0.039c-0.086,0.017 -0.176,0.033 -0.27,0.05c-0.094,0.016 -0.184,0.033 -0.269,0.051c-0.086,0.019 -0.171,0.036 -0.257,0.052c-0.085,0.017 -0.166,0.034 -0.243,0.052c-0.077,0.018 -0.158,0.031 -0.243,0.04c-0.086,0.008 -0.167,0.02 -0.243,0.037c-0.077,0.016 -0.154,0.033 -0.231,0.051c-0.076,0.018 -0.15,0.032 -0.22,0.04c-0.07,0.008 -0.139,0.016 -0.207,0.024c-0.068,0.009 -0.136,0.021 -0.204,0.037c-0.068,0.017 -0.157,0.034 -0.269,0.052c-0.112,0.018 -0.198,0.031 -0.257,0.04c-0.059,0.008 -0.144,0.02 -0.256,0.036c-0.112,0.017 -0.224,0.034 -0.335,0.052c-0.112,0.018 -0.228,0.036 -0.349,0.052c-0.12,0.017 -0.21,0.029 -0.269,0.037c-0.059,0.008 -0.118,0.022 -0.178,0.04c-0.059,0.018 -0.124,0.031 -0.194,0.039c-0.07,0.008 -0.139,0.021 -0.207,0.037c-0.068,0.016 -0.14,0.03 -0.217,0.039c-0.076,0.01 -0.149,0.024 -0.217,0.04c-0.068,0.016 -0.14,0.029 -0.217,0.037c-0.076,0.008 -0.154,0.021 -0.233,0.039c-0.079,0.018 -0.152,0.032 -0.22,0.04c-0.068,0.008 -0.136,0.02 -0.204,0.037c-0.068,0.016 -0.14,0.029 -0.217,0.039c-0.077,0.01 -0.15,0.019 -0.22,0.027c-0.07,0.009 -0.144,0.017 -0.22,0.025c-0.077,0.008 -0.158,0.02 -0.244,0.037c-0.085,0.016 -0.166,0.029 -0.243,0.04c-0.077,0.009 -0.162,0.022 -0.257,0.039c-0.094,0.016 -0.183,0.033 -0.269,0.049c-0.085,0.017 -0.171,0.034 -0.256,0.052c-0.086,0.018 -0.167,0.035 -0.244,0.052c-0.076,0.016 -0.157,0.038 -0.243,0.064c-0.085,0.026 -0.171,0.047 -0.256,0.064c-0.086,0.016 -0.171,0.038 -0.257,0.064c-0.085,0.026 -0.167,0.048 -0.246,0.064c-0.079,0.017 -0.157,0.034 -0.234,0.052c-0.076,0.018 -0.149,0.035 -0.217,0.052c-0.068,0.016 -0.14,0.032 -0.216,0.049c-0.077,0.016 -0.15,0.034 -0.221,0.052c-0.07,0.018 -0.139,0.035 -0.207,0.051c-0.068,0.017 -0.135,0.034 -0.203,0.052c-0.068,0.018 -0.132,0.031 -0.191,0.04c-0.059,0.008 -0.124,0.016 -0.194,0.024c-0.07,0.008 -0.139,0.021 -0.207,0.037c-0.068,0.017 -0.136,0.03 -0.204,0.04c-0.068,0.01 -0.133,0.019 -0.194,0.027c-0.061,0.008 -0.126,0.02 -0.194,0.037c-0.068,0.016 -0.136,0.034 -0.204,0.052c-0.068,0.018 -0.131,0.031 -0.19,0.039c-0.06,0.008 -0.12,0.021 -0.181,0.037c-0.061,0.017 -0.122,0.034 -0.181,0.052c-0.059,0.018 -0.118,0.031 -0.178,0.039c-0.059,0.009 -0.119,0.017 -0.18,0.025c-0.062,0.008 -0.122,0.021 -0.181,0.037c-0.059,0.016 -0.118,0.034 -0.177,0.052c-0.06,0.018 -0.12,0.035 -0.181,0.051c-0.062,0.017 -0.122,0.029 -0.181,0.037c-0.059,0.009 -0.12,0.026 -0.181,0.052c-0.061,0.027 -0.126,0.048 -0.194,0.064c-0.068,0.017 -0.131,0.034 -0.19,0.052c-0.06,0.018 -0.123,0.035 -0.191,0.052c-0.068,0.016 -0.137,0.038 -0.207,0.064c-0.07,0.026 -0.139,0.047 -0.207,0.064c-0.068,0.017 -0.14,0.034 -0.217,0.052c-0.077,0.018 -0.149,0.035 -0.217,0.051c-0.068,0.017 -0.137,0.034 -0.207,0.05c-0.07,0.016 -0.139,0.034 -0.207,0.052c-0.068,0.018 -0.136,0.035 -0.204,0.051c-0.068,0.017 -0.133,0.034 -0.194,0.052c-0.061,0.018 -0.126,0.036 -0.194,0.052c-0.068,0.016 -0.158,0.038 -0.269,0.064c-0.112,0.026 -0.215,0.048 -0.31,0.064c-0.094,0.017 -0.17,0.029 -0.23,0.037c-0.059,0.008 -0.131,0.021 -0.217,0.04c-0.085,0.018 -0.184,0.039 -0.296,0.064c-0.111,0.024 -0.197,0.046 -0.256,0.064c-0.059,0.018 -0.14,0.039 -0.243,0.064c-0.103,0.025 -0.184,0.05 -0.243,0.076c-0.06,0.027 -0.12,0.048 -0.181,0.065c-0.061,0.016 -0.122,0.029 -0.181,0.039c-0.059,0.01 -0.123,0.027 -0.191,0.052c-0.068,0.024 -0.137,0.046 -0.207,0.064c-0.07,0.018 -0.139,0.035 -0.207,0.052c-0.068,0.016 -0.136,0.032 -0.203,0.049c-0.069,0.016 -0.137,0.029 -0.204,0.039c-0.068,0.01 -0.142,0.027 -0.22,0.052c-0.08,0.025 -0.153,0.046 -0.221,0.064c-0.068,0.018 -0.136,0.035 -0.204,0.052c-0.068,0.016 -0.136,0.033 -0.204,0.049c-0.067,0.017 -0.136,0.034 -0.207,0.052c-0.07,0.018 -0.134,0.035 -0.193,0.052c-0.06,0.016 -0.123,0.034 -0.191,0.052c-0.068,0.018 -0.133,0.035 -0.194,0.051c-0.061,0.017 -0.122,0.029 -0.181,0.037c-0.059,0.009 -0.123,0.022 -0.191,0.04c-0.067,0.018 -0.162,0.048 -0.282,0.091c-0.121,0.043 -0.21,0.068 -0.27,0.076c-0.059,0.009 -0.119,0.025 -0.18,0.05c-0.062,0.024 -0.127,0.041 -0.195,0.051c-0.067,0.01 -0.131,0.024 -0.19,0.04c-0.059,0.016 -0.119,0.038 -0.181,0.064c-0.061,0.026 -0.126,0.048 -0.194,0.064c-0.068,0.016 -0.136,0.033 -0.204,0.049c-0.068,0.017 -0.14,0.038 -0.217,0.064c-0.076,0.027 -0.153,0.048 -0.23,0.065c-0.076,0.016 -0.158,0.037 -0.243,0.064c-0.085,0.026 -0.163,0.052 -0.233,0.079c-0.071,0.026 -0.144,0.047 -0.22,0.064c-0.077,0.016 -0.145,0.038 -0.204,0.064c-0.06,0.026 -0.12,0.048 -0.181,0.064c-0.061,0.016 -0.122,0.033 -0.181,0.049c-0.059,0.017 -0.118,0.034 -0.178,0.052c-0.059,0.018 -0.14,0.048 -0.243,0.091c-0.103,0.043 -0.206,0.082 -0.309,0.116c-0.103,0.035 -0.188,0.06 -0.256,0.076c-0.068,0.017 -0.133,0.033 -0.194,0.05c-0.061,0.016 -0.13,0.034 -0.207,0.052c-0.077,0.017 -0.149,0.035 -0.217,0.051c-0.068,0.017 -0.136,0.034 -0.204,0.052c-0.068,0.018 -0.137,0.036 -0.207,0.052c-0.07,0.016 -0.152,0.038 -0.247,0.064c-0.094,0.026 -0.183,0.052 -0.269,0.076c-0.086,0.025 -0.175,0.051 -0.27,0.077c-0.094,0.026 -0.197,0.061 -0.308,0.103c-0.112,0.043 -0.223,0.082 -0.333,0.116c-0.109,0.035 -0.224,0.073 -0.345,0.116c-0.12,0.043 -0.241,0.09 -0.361,0.141c-0.121,0.051 -0.245,0.102 -0.372,0.152c-0.127,0.051 -0.251,0.102 -0.371,0.153c-0.121,0.051 -0.246,0.107 -0.375,0.168c-0.129,0.061 -0.253,0.125 -0.371,0.192c-0.119,0.068 -0.238,0.132 -0.359,0.193c-0.12,0.06 -0.236,0.12 -0.348,0.179c-0.112,0.06 -0.228,0.124 -0.349,0.193c-0.12,0.069 -0.235,0.142 -0.345,0.219c-0.109,0.077 -0.224,0.154 -0.345,0.229c-0.12,0.076 -0.245,0.157 -0.375,0.242c-0.129,0.086 -0.248,0.176 -0.358,0.271c-0.109,0.096 -0.224,0.19 -0.345,0.284c-0.121,0.094 -0.232,0.191 -0.335,0.293l-0.155,0.153" style="fill:none;stroke:#000;stroke-width:1.68px;"/><path id="STROKE_C0A93943.-165B.-449A.-883A.-19012B933CE7" d="M103.933,45.74l0,-0.937c0,-0.059 -0.013,-0.118 -0.04,-0.177c-0.026,-0.059 -0.057,-0.119 -0.092,-0.18c-0.035,-0.061 -0.069,-0.126 -0.101,-0.195c-0.034,-0.069 -0.068,-0.137 -0.103,-0.205c-0.035,-0.067 -0.073,-0.143 -0.114,-0.229c-0.042,-0.085 -0.076,-0.154 -0.103,-0.205c-0.026,-0.05 -0.065,-0.128 -0.118,-0.231c-0.052,-0.104 -0.091,-0.185 -0.115,-0.244c-0.024,-0.059 -0.049,-0.115 -0.076,-0.166c-0.026,-0.05 -0.056,-0.106 -0.091,-0.167c-0.036,-0.061 -0.065,-0.121 -0.089,-0.18c-0.024,-0.059 -0.063,-0.136 -0.115,-0.229c-0.053,-0.094 -0.096,-0.167 -0.129,-0.22c-0.032,-0.052 -0.075,-0.112 -0.128,-0.18c-0.052,-0.067 -0.108,-0.14 -0.168,-0.217c-0.059,-0.077 -0.122,-0.158 -0.19,-0.244c-0.068,-0.085 -0.137,-0.171 -0.207,-0.256c-0.07,-0.086 -0.126,-0.154 -0.168,-0.205c-0.041,-0.051 -0.093,-0.119 -0.154,-0.204c-0.062,-0.086 -0.113,-0.155 -0.155,-0.208c-0.041,-0.052 -0.092,-0.116 -0.151,-0.192c-0.059,-0.076 -0.128,-0.152 -0.207,-0.229c-0.079,-0.077 -0.157,-0.151 -0.233,-0.22c-0.077,-0.069 -0.136,-0.124 -0.178,-0.167c-0.041,-0.043 -0.102,-0.098 -0.181,-0.165c-0.079,-0.068 -0.156,-0.136 -0.233,-0.205c-0.077,-0.069 -0.149,-0.138 -0.217,-0.207c-0.068,-0.069 -0.136,-0.142 -0.204,-0.219c-0.068,-0.078 -0.128,-0.15 -0.181,-0.217c-0.052,-0.068 -0.108,-0.14 -0.167,-0.217c-0.059,-0.078 -0.119,-0.155 -0.178,-0.232c-0.059,-0.077 -0.106,-0.141 -0.141,-0.193c-0.035,-0.05 -0.07,-0.101 -0.105,-0.152c-0.035,-0.051 -0.087,-0.124 -0.155,-0.217c-0.068,-0.094 -0.119,-0.167 -0.154,-0.22c-0.035,-0.052 -0.091,-0.121 -0.168,-0.207c-0.077,-0.085 -0.149,-0.162 -0.217,-0.229c-0.068,-0.067 -0.14,-0.14 -0.217,-0.217c-0.077,-0.077 -0.153,-0.15 -0.23,-0.219c-0.077,-0.069 -0.137,-0.125 -0.181,-0.168c-0.044,-0.043 -0.108,-0.098 -0.194,-0.165c-0.085,-0.068 -0.162,-0.132 -0.23,-0.193c-0.068,-0.06 -0.128,-0.112 -0.181,-0.155c-0.052,-0.042 -0.121,-0.102 -0.207,-0.18c-0.085,-0.077 -0.162,-0.149 -0.23,-0.217c-0.068,-0.067 -0.136,-0.135 -0.204,-0.204c-0.068,-0.069 -0.135,-0.143 -0.203,-0.22c-0.068,-0.077 -0.137,-0.145 -0.207,-0.204c-0.071,-0.059 -0.14,-0.123 -0.207,-0.192c-0.068,-0.069 -0.141,-0.134 -0.217,-0.193c-0.077,-0.059 -0.154,-0.118 -0.23,-0.178c-0.077,-0.059 -0.158,-0.118 -0.244,-0.179c-0.085,-0.061 -0.171,-0.13 -0.256,-0.207c-0.086,-0.078 -0.168,-0.15 -0.247,-0.217c-0.079,-0.068 -0.156,-0.144 -0.233,-0.23c-0.077,-0.085 -0.153,-0.171 -0.23,-0.256c-0.077,-0.086 -0.154,-0.167 -0.23,-0.244c-0.077,-0.077 -0.154,-0.155 -0.23,-0.232c-0.077,-0.077 -0.158,-0.15 -0.244,-0.219c-0.085,-0.069 -0.171,-0.129 -0.256,-0.18c-0.086,-0.051 -0.172,-0.102 -0.26,-0.153c-0.087,-0.051 -0.156,-0.09 -0.207,-0.116c-0.05,-0.026 -0.118,-0.065 -0.204,-0.116c-0.085,-0.051 -0.17,-0.098 -0.256,-0.141c-0.085,-0.042 -0.171,-0.085 -0.257,-0.128c-0.085,-0.042 -0.166,-0.085 -0.243,-0.128c-0.076,-0.043 -0.157,-0.089 -0.243,-0.14c-0.085,-0.051 -0.168,-0.098 -0.246,-0.141c-0.079,-0.043 -0.157,-0.085 -0.234,-0.128c-0.077,-0.043 -0.14,-0.077 -0.191,-0.104c-0.05,-0.026 -0.11,-0.06 -0.18,-0.103c-0.07,-0.043 -0.144,-0.094 -0.22,-0.153c-0.077,-0.059 -0.158,-0.119 -0.244,-0.18c-0.085,-0.061 -0.166,-0.125 -0.243,-0.192c-0.077,-0.068 -0.153,-0.127 -0.23,-0.178c-0.077,-0.051 -0.153,-0.098 -0.23,-0.14c-0.077,-0.043 -0.154,-0.086 -0.23,-0.128c-0.077,-0.043 -0.158,-0.082 -0.243,-0.116c-0.086,-0.035 -0.176,-0.069 -0.27,-0.104c-0.094,-0.034 -0.185,-0.069 -0.273,-0.104c-0.087,-0.034 -0.161,-0.059 -0.22,-0.076c-0.059,-0.016 -0.127,-0.042 -0.204,-0.076c-0.077,-0.035 -0.162,-0.069 -0.256,-0.104c-0.094,-0.034 -0.18,-0.069 -0.257,-0.103c-0.076,-0.035 -0.153,-0.069 -0.23,-0.102c-0.076,-0.032 -0.158,-0.066 -0.243,-0.101c-0.086,-0.034 -0.168,-0.073 -0.247,-0.116c-0.078,-0.042 -0.161,-0.089 -0.246,-0.14c-0.086,-0.051 -0.154,-0.09 -0.204,-0.116c-0.05,-0.026 -0.118,-0.061 -0.204,-0.103c-0.085,-0.043 -0.175,-0.086 -0.269,-0.128c-0.095,-0.043 -0.18,-0.086 -0.257,-0.129c-0.076,-0.042 -0.157,-0.085 -0.243,-0.128c-0.085,-0.043 -0.168,-0.081 -0.247,-0.116c-0.078,-0.034 -0.156,-0.069 -0.233,-0.103c-0.076,-0.035 -0.153,-0.073 -0.23,-0.116c-0.077,-0.043 -0.153,-0.082 -0.23,-0.116c-0.077,-0.035 -0.153,-0.073 -0.23,-0.116c-0.077,-0.043 -0.154,-0.081 -0.23,-0.113c-0.077,-0.033 -0.146,-0.067 -0.207,-0.102c-0.062,-0.034 -0.126,-0.064 -0.194,-0.091c-0.068,-0.026 -0.132,-0.051 -0.191,-0.076c-0.059,-0.025 -0.124,-0.046 -0.194,-0.064c-0.07,-0.018 -0.143,-0.04 -0.22,-0.064c-0.077,-0.025 -0.154,-0.05 -0.23,-0.077c-0.077,-0.026 -0.158,-0.052 -0.243,-0.079c-0.086,-0.026 -0.171,-0.051 -0.257,-0.076c-0.085,-0.025 -0.166,-0.05 -0.243,-0.076c-0.077,-0.027 -0.154,-0.057 -0.233,-0.092c-0.079,-0.034 -0.157,-0.064 -0.234,-0.088c-0.076,-0.025 -0.153,-0.046 -0.23,-0.065c-0.077,-0.018 -0.158,-0.035 -0.243,-0.051c-0.086,-0.017 -0.175,-0.038 -0.27,-0.065c-0.094,-0.026 -0.193,-0.047 -0.295,-0.063c-0.103,-0.017 -0.207,-0.033 -0.31,-0.05c-0.103,-0.016 -0.197,-0.034 -0.282,-0.052c-0.086,-0.018 -0.171,-0.035 -0.257,-0.051c-0.085,-0.017 -0.166,-0.029 -0.243,-0.037c-0.077,-0.009 -0.153,-0.018 -0.23,-0.027c-0.077,-0.01 -0.158,-0.019 -0.243,-0.027c-0.086,-0.009 -0.171,-0.017 -0.257,-0.025c-0.085,-0.009 -0.175,-0.021 -0.269,-0.037c-0.094,-0.017 -0.184,-0.034 -0.27,-0.052c-0.085,-0.018 -0.171,-0.035 -0.256,-0.052c-0.086,-0.016 -0.168,-0.033 -0.247,-0.051c-0.078,-0.019 -0.156,-0.036 -0.233,-0.052c-0.077,-0.017 -0.158,-0.029 -0.243,-0.037c-0.086,-0.008 -0.171,-0.017 -0.257,-0.025c-0.085,-0.008 -0.18,-0.012 -0.282,-0.012l-3.169,0c-0.094,0 -0.189,0.008 -0.283,0.024c-0.094,0.017 -0.188,0.033 -0.283,0.05c-0.094,0.016 -0.192,0.038 -0.296,0.064c-0.102,0.026 -0.197,0.052 -0.282,0.079c-0.086,0.026 -0.168,0.051 -0.246,0.076c-0.08,0.025 -0.162,0.05 -0.247,0.077c-0.086,0.026 -0.158,0.047 -0.217,0.064c-0.059,0.016 -0.123,0.033 -0.191,0.051c-0.068,0.018 -0.137,0.036 -0.207,0.052c-0.07,0.017 -0.135,0.029 -0.194,0.037c-0.059,0.008 -0.118,0.013 -0.177,0.013l-0.835,0c-0.068,0 -0.14,0.009 -0.217,0.027c-0.077,0.018 -0.155,0.043 -0.233,0.076c-0.079,0.033 -0.157,0.067 -0.234,0.101c-0.077,0.035 -0.149,0.073 -0.217,0.116c-0.068,0.043 -0.14,0.085 -0.217,0.128c-0.077,0.043 -0.149,0.081 -0.217,0.116c-0.068,0.034 -0.137,0.06 -0.207,0.077c-0.07,0.016 -0.135,0.033 -0.194,0.051c-0.059,0.018 -0.118,0.036 -0.177,0.052c-0.06,0.017 -0.127,0.029 -0.204,0.037c-0.077,0.008 -0.15,0.017 -0.22,0.027c-0.071,0.01 -0.135,0.023 -0.194,0.04c-0.059,0.016 -0.123,0.037 -0.191,0.064c-0.068,0.026 -0.145,0.061 -0.23,0.103c-0.085,0.043 -0.155,0.077 -0.207,0.101c-0.053,0.025 -0.122,0.072 -0.207,0.141c-0.086,0.069 -0.167,0.133 -0.243,0.192c-0.077,0.059 -0.142,0.106 -0.194,0.141c-0.053,0.034 -0.118,0.077 -0.194,0.128c-0.077,0.051 -0.154,0.098 -0.23,0.14c-0.077,0.043 -0.145,0.082 -0.204,0.116c-0.059,0.035 -0.115,0.065 -0.168,0.092c-0.052,0.026 -0.113,0.051 -0.18,0.076c-0.069,0.025 -0.141,0.05 -0.217,0.076c-0.077,0.027 -0.145,0.048 -0.204,0.065c-0.059,0.016 -0.124,0.033 -0.194,0.051c-0.07,0.018 -0.139,0.04 -0.207,0.064c-0.068,0.025 -0.141,0.059 -0.217,0.101c-0.077,0.043 -0.154,0.086 -0.231,0.129c-0.076,0.042 -0.149,0.081 -0.22,0.115c-0.07,0.035 -0.139,0.069 -0.207,0.104c-0.068,0.034 -0.136,0.069 -0.204,0.104c-0.068,0.034 -0.135,0.064 -0.203,0.088c-0.068,0.025 -0.142,0.05 -0.221,0.077c-0.079,0.026 -0.152,0.047 -0.22,0.064c-0.068,0.016 -0.136,0.042 -0.204,0.076c-0.068,0.035 -0.14,0.077 -0.216,0.128c-0.077,0.051 -0.151,0.107 -0.221,0.168c-0.07,0.061 -0.139,0.117 -0.207,0.168c-0.068,0.051 -0.131,0.102 -0.191,0.152c-0.059,0.051 -0.115,0.094 -0.167,0.129c-0.053,0.034 -0.113,0.073 -0.181,0.116c-0.068,0.042 -0.127,0.081 -0.177,0.116c-0.051,0.034 -0.102,0.064 -0.155,0.088c-0.053,0.025 -0.113,0.055 -0.181,0.089c-0.068,0.035 -0.14,0.078 -0.217,0.131c-0.076,0.052 -0.141,0.091 -0.194,0.116c-0.052,0.024 -0.117,0.062 -0.193,0.113c-0.077,0.051 -0.141,0.094 -0.191,0.128c-0.051,0.035 -0.114,0.082 -0.191,0.143c-0.077,0.061 -0.15,0.117 -0.22,0.168c-0.07,0.051 -0.135,0.097 -0.194,0.14c-0.059,0.043 -0.114,0.082 -0.164,0.116c-0.051,0.035 -0.102,0.068 -0.155,0.101c-0.052,0.033 -0.108,0.067 -0.168,0.101c-0.059,0.035 -0.115,0.069 -0.167,0.104c-0.053,0.034 -0.104,0.069 -0.155,0.103c-0.05,0.035 -0.102,0.073 -0.154,0.116c-0.053,0.043 -0.113,0.086 -0.181,0.128c-0.068,0.043 -0.131,0.09 -0.191,0.141c-0.059,0.051 -0.119,0.102 -0.18,0.153c-0.062,0.051 -0.127,0.107 -0.194,0.167c-0.068,0.061 -0.132,0.121 -0.191,0.18c-0.059,0.06 -0.118,0.119 -0.178,0.178c-0.059,0.059 -0.119,0.119 -0.18,0.18c-0.062,0.061 -0.118,0.121 -0.168,0.18c-0.05,0.059 -0.102,0.115 -0.154,0.167c-0.053,0.053 -0.105,0.101 -0.155,0.144c-0.05,0.042 -0.102,0.085 -0.154,0.128c-0.053,0.043 -0.109,0.085 -0.168,0.128c-0.059,0.043 -0.114,0.09 -0.165,0.14c-0.05,0.051 -0.106,0.106 -0.167,0.166c-0.061,0.059 -0.122,0.114 -0.181,0.165c-0.059,0.051 -0.115,0.098 -0.167,0.14c-0.053,0.043 -0.1,0.086 -0.142,0.129c-0.042,0.042 -0.092,0.094 -0.151,0.155c-0.059,0.061 -0.119,0.117 -0.181,0.168c-0.061,0.05 -0.117,0.101 -0.168,0.152c-0.05,0.051 -0.101,0.102 -0.154,0.153c-0.053,0.051 -0.095,0.103 -0.128,0.156c-0.033,0.052 -0.076,0.108 -0.128,0.167c-0.053,0.059 -0.096,0.114 -0.129,0.165c-0.033,0.051 -0.084,0.115 -0.154,0.193c-0.07,0.077 -0.139,0.158 -0.207,0.244c-0.068,0.085 -0.12,0.153 -0.155,0.204c-0.035,0.051 -0.082,0.115 -0.141,0.193c-0.059,0.077 -0.114,0.15 -0.165,0.219c-0.05,0.069 -0.101,0.137 -0.154,0.205c-0.053,0.067 -0.1,0.131 -0.141,0.192c-0.042,0.061 -0.085,0.117 -0.129,0.168c-0.043,0.051 -0.09,0.111 -0.141,0.18c-0.05,0.069 -0.102,0.141 -0.154,0.217c-0.053,0.075 -0.109,0.156 -0.168,0.241c-0.059,0.086 -0.106,0.159 -0.141,0.22c-0.035,0.06 -0.069,0.12 -0.102,0.179c-0.033,0.06 -0.067,0.124 -0.102,0.193c-0.035,0.069 -0.07,0.133 -0.105,0.192c-0.035,0.059 -0.069,0.123 -0.102,0.192c-0.033,0.07 -0.067,0.139 -0.102,0.208c-0.035,0.069 -0.07,0.133 -0.105,0.192c-0.035,0.059 -0.065,0.114 -0.089,0.165c-0.024,0.051 -0.054,0.102 -0.089,0.153c-0.035,0.051 -0.07,0.103 -0.105,0.155c-0.035,0.053 -0.078,0.122 -0.128,0.207c-0.051,0.086 -0.098,0.166 -0.141,0.242c-0.044,0.075 -0.087,0.152 -0.129,0.229c-0.041,0.077 -0.087,0.15 -0.138,0.22c-0.05,0.069 -0.093,0.137 -0.128,0.204c-0.035,0.068 -0.079,0.14 -0.131,0.217c-0.053,0.077 -0.109,0.159 -0.168,0.244c-0.059,0.086 -0.106,0.167 -0.141,0.244c-0.036,0.077 -0.07,0.146 -0.102,0.207c-0.033,0.061 -0.067,0.121 -0.102,0.18c-0.035,0.059 -0.066,0.119 -0.092,0.178c-0.026,0.059 -0.056,0.127 -0.089,0.204c-0.033,0.078 -0.067,0.159 -0.102,0.245c-0.035,0.085 -0.078,0.175 -0.128,0.268c-0.051,0.094 -0.098,0.192 -0.141,0.296c-0.044,0.104 -0.091,0.202 -0.142,0.296c-0.05,0.094 -0.093,0.183 -0.128,0.269c-0.035,0.085 -0.066,0.158 -0.092,0.219c-0.026,0.061 -0.052,0.125 -0.076,0.192c-0.024,0.068 -0.049,0.127 -0.075,0.178c-0.026,0.051 -0.053,0.115 -0.079,0.192c-0.026,0.077 -0.056,0.15 -0.089,0.219c-0.033,0.069 -0.062,0.147 -0.089,0.232c-0.026,0.086 -0.057,0.171 -0.092,0.257c-0.035,0.085 -0.061,0.166 -0.079,0.244c-0.017,0.077 -0.038,0.149 -0.062,0.217c-0.024,0.067 -0.045,0.135 -0.062,0.204c-0.018,0.069 -0.036,0.133 -0.053,0.192c-0.018,0.06 -0.035,0.124 -0.053,0.193c-0.017,0.069 -0.038,0.133 -0.062,0.192c-0.024,0.059 -0.049,0.128 -0.076,0.205c-0.026,0.077 -0.048,0.146 -0.065,0.207c-0.018,0.061 -0.035,0.129 -0.053,0.205c-0.017,0.075 -0.035,0.148 -0.053,0.217c-0.017,0.069 -0.034,0.133 -0.049,0.192c-0.015,0.059 -0.027,0.119 -0.036,0.18c-0.009,0.061 -0.022,0.125 -0.04,0.192c-0.017,0.067 -0.035,0.132 -0.052,0.192c-0.018,0.061 -0.035,0.13 -0.053,0.208c-0.017,0.077 -0.035,0.153 -0.052,0.229c-0.018,0.075 -0.03,0.143 -0.036,0.204c-0.007,0.061 -0.015,0.134 -0.024,0.22c-0.008,0.085 -0.021,0.171 -0.039,0.256c-0.017,0.086 -0.031,0.158 -0.039,0.217c-0.009,0.059 -0.022,0.119 -0.04,0.18c-0.017,0.061 -0.03,0.125 -0.039,0.192c-0.009,0.068 -0.018,0.132 -0.026,0.193c-0.009,0.06 -0.014,0.12 -0.014,0.18c0,0.059 -0.004,0.119 -0.013,0.179c-0.009,0.061 -0.021,0.121 -0.036,0.18c-0.015,0.06 -0.032,0.132 -0.049,0.217c-0.018,0.086 -0.035,0.171 -0.053,0.257c-0.017,0.085 -0.035,0.167 -0.052,0.244c-0.018,0.077 -0.036,0.159 -0.053,0.244c-0.018,0.085 -0.031,0.162 -0.04,0.229c-0.008,0.068 -0.013,0.132 -0.013,0.193l0,0.695c0,0.093 -0.004,0.191 -0.013,0.293c-0.009,0.102 -0.016,0.205 -0.023,0.308c-0.006,0.104 -0.014,0.185 -0.023,0.244c-0.009,0.06 -0.017,0.149 -0.026,0.269c-0.009,0.12 -0.013,0.214 -0.013,0.281l0,0.772" style="fill:none;stroke:#000;stroke-width:1.68px;"/><path id="STROKE_055D0CFE.-34CB.-4B2E.-BD04.-B1E500AB71B9" d="M106.24,57.613c0.035,-0.135 0.066,-0.232 0.092,-0.293c0.027,-0.061 0.044,-0.125 0.053,-0.193c0.009,-0.067 0.013,-0.143 0.013,-0.229l0,-0.86c0,-0.061 -0.009,-0.129 -0.026,-0.205c-0.018,-0.076 -0.04,-0.152 -0.066,-0.229c-0.026,-0.077 -0.06,-0.163 -0.102,-0.257c-0.041,-0.093 -0.075,-0.188 -0.102,-0.283c-0.026,-0.095 -0.06,-0.198 -0.102,-0.308c-0.041,-0.11 -0.08,-0.221 -0.115,-0.333c-0.035,-0.112 -0.061,-0.197 -0.079,-0.256c-0.017,-0.06 -0.042,-0.141 -0.075,-0.244c-0.033,-0.104 -0.067,-0.211 -0.102,-0.321c-0.035,-0.11 -0.066,-0.208 -0.092,-0.293c-0.026,-0.086 -0.053,-0.18 -0.079,-0.284c-0.026,-0.103 -0.051,-0.206 -0.076,-0.308c-0.024,-0.102 -0.053,-0.205 -0.088,-0.308c-0.036,-0.104 -0.074,-0.207 -0.115,-0.308c-0.042,-0.102 -0.08,-0.205 -0.115,-0.309c-0.035,-0.103 -0.071,-0.202 -0.106,-0.295c-0.035,-0.094 -0.069,-0.184 -0.101,-0.269c-0.034,-0.085 -0.063,-0.154 -0.089,-0.205c-0.027,-0.051 -0.057,-0.127 -0.092,-0.229c-0.035,-0.102 -0.065,-0.179 -0.089,-0.232c-0.024,-0.052 -0.054,-0.13 -0.089,-0.231c-0.035,-0.102 -0.07,-0.2 -0.105,-0.294c-0.035,-0.094 -0.065,-0.183 -0.089,-0.268c-0.024,-0.086 -0.053,-0.163 -0.089,-0.232c-0.035,-0.069 -0.065,-0.133 -0.091,-0.193c-0.027,-0.059 -0.056,-0.119 -0.089,-0.18c-0.033,-0.06 -0.076,-0.125 -0.128,-0.192c-0.053,-0.067 -0.105,-0.135 -0.155,-0.204c-0.051,-0.07 -0.102,-0.143 -0.155,-0.22c-0.052,-0.077 -0.108,-0.154 -0.167,-0.232c-0.059,-0.077 -0.115,-0.158 -0.168,-0.244c-0.052,-0.085 -0.1,-0.171 -0.141,-0.256c-0.042,-0.086 -0.085,-0.171 -0.128,-0.257c-0.044,-0.085 -0.078,-0.17 -0.102,-0.256c-0.024,-0.085 -0.05,-0.162 -0.076,-0.229l-0.039,-0.101" style="fill:none;stroke:#000;stroke-width:1.68px;"/><path id="STROKE_305648E5.-41BA.-4406.-98D9.-DF6F601072CA" d="M97.74,58.436c0.053,0.172 0.104,0.296 0.154,0.373c0.051,0.077 0.098,0.141 0.142,0.192c0.044,0.051 0.086,0.106 0.128,0.165c0.042,0.06 0.071,0.046 0.089,-0.039c0.017,-0.086 0.026,-0.171 0.026,-0.257l0,-0.793c0,-0.086 -0.009,-0.175 -0.026,-0.269c-0.018,-0.094 -0.031,-0.197 -0.04,-0.308c-0.009,-0.112 -0.016,-0.198 -0.023,-0.257c-0.006,-0.059 -0.018,-0.123 -0.036,-0.192c-0.018,-0.069 -0.035,-0.137 -0.053,-0.204c-0.017,-0.068 -0.035,-0.136 -0.052,-0.205c-0.018,-0.069 -0.035,-0.142 -0.053,-0.22c-0.017,-0.077 -0.035,-0.154 -0.052,-0.232c-0.018,-0.077 -0.043,-0.158 -0.076,-0.244c-0.033,-0.085 -0.062,-0.17 -0.089,-0.256c-0.026,-0.085 -0.052,-0.175 -0.079,-0.269c-0.026,-0.093 -0.055,-0.196 -0.088,-0.308c-0.033,-0.111 -0.059,-0.21 -0.076,-0.295c-0.018,-0.086 -0.044,-0.18 -0.079,-0.282c-0.035,-0.102 -0.064,-0.203 -0.089,-0.305c-0.024,-0.102 -0.053,-0.213 -0.088,-0.333c-0.035,-0.12 -0.066,-0.223 -0.092,-0.308c-0.027,-0.086 -0.053,-0.184 -0.079,-0.296c-0.027,-0.112 -0.052,-0.211 -0.076,-0.296c-0.024,-0.085 -0.049,-0.171 -0.076,-0.256c-0.026,-0.086 -0.056,-0.167 -0.092,-0.244c-0.035,-0.078 -0.06,-0.15 -0.075,-0.217c-0.016,-0.068 -0.032,-0.136 -0.05,-0.205c-0.017,-0.069 -0.039,-0.133 -0.065,-0.192c-0.026,-0.06 -0.048,-0.12 -0.066,-0.18c-0.017,-0.061 -0.038,-0.143 -0.062,-0.244c-0.024,-0.102 -0.058,-0.2 -0.102,-0.294c-0.044,-0.093 -0.084,-0.188 -0.119,-0.283c-0.035,-0.096 -0.06,-0.173 -0.075,-0.232c-0.016,-0.059 -0.036,-0.118 -0.063,-0.178c-0.026,-0.059 -0.048,-0.127 -0.065,-0.204c-0.018,-0.077 -0.04,-0.159 -0.066,-0.244c-0.027,-0.086 -0.052,-0.171 -0.076,-0.256c-0.024,-0.086 -0.053,-0.18 -0.088,-0.284c-0.035,-0.104 -0.066,-0.206 -0.093,-0.308c-0.026,-0.102 -0.06,-0.213 -0.101,-0.333c-0.042,-0.12 -0.081,-0.231 -0.116,-0.333c-0.035,-0.102 -0.065,-0.195 -0.092,-0.281c-0.026,-0.085 -0.06,-0.171 -0.101,-0.256c-0.042,-0.086 -0.08,-0.171 -0.115,-0.257c-0.036,-0.085 -0.066,-0.154 -0.092,-0.207c-0.027,-0.052 -0.056,-0.104 -0.089,-0.155c-0.033,-0.051 -0.076,-0.111 -0.128,-0.18l-0.079,-0.104" style="fill:none;stroke:#000;stroke-width:1.68px;"/><path id="STROKE_9FCF6926.-A380.-4DEC.-AADC.-84FC884F3F7A" d="M90.574,59.926c0,0.118 -0.004,0.207 -0.013,0.266c-0.009,0.059 -0.043,0.094 -0.102,0.103c-0.059,0.01 -0.106,-0.019 -0.142,-0.089c-0.035,-0.069 -0.057,-0.142 -0.065,-0.219c-0.009,-0.077 -0.022,-0.163 -0.04,-0.256c-0.017,-0.094 -0.03,-0.17 -0.039,-0.229c-0.009,-0.06 -0.021,-0.12 -0.036,-0.181c-0.016,-0.06 -0.028,-0.124 -0.037,-0.192c-0.008,-0.067 -0.021,-0.139 -0.039,-0.217c-0.017,-0.077 -0.035,-0.154 -0.052,-0.232c-0.018,-0.077 -0.031,-0.154 -0.04,-0.231c-0.009,-0.077 -0.022,-0.159 -0.039,-0.244c-0.018,-0.086 -0.031,-0.171 -0.04,-0.256c-0.009,-0.086 -0.021,-0.172 -0.036,-0.257c-0.015,-0.086 -0.032,-0.171 -0.049,-0.256c-0.018,-0.086 -0.035,-0.167 -0.053,-0.244c-0.017,-0.078 -0.039,-0.159 -0.066,-0.245c-0.026,-0.085 -0.048,-0.166 -0.065,-0.244c-0.018,-0.077 -0.034,-0.158 -0.049,-0.244c-0.016,-0.085 -0.033,-0.175 -0.05,-0.269c-0.018,-0.093 -0.039,-0.187 -0.066,-0.28c-0.026,-0.094 -0.048,-0.188 -0.065,-0.282c-0.018,-0.093 -0.035,-0.187 -0.053,-0.281c-0.017,-0.093 -0.038,-0.192 -0.062,-0.295c-0.025,-0.104 -0.045,-0.202 -0.063,-0.296c-0.017,-0.094 -0.039,-0.192 -0.066,-0.296c-0.026,-0.104 -0.052,-0.202 -0.078,-0.296c-0.027,-0.093 -0.052,-0.187 -0.076,-0.281c-0.024,-0.094 -0.054,-0.187 -0.089,-0.281c-0.035,-0.094 -0.066,-0.179 -0.092,-0.257c-0.026,-0.077 -0.051,-0.15 -0.076,-0.219c-0.024,-0.069 -0.049,-0.137 -0.075,-0.204c-0.026,-0.068 -0.057,-0.136 -0.092,-0.205c-0.035,-0.069 -0.065,-0.138 -0.089,-0.207c-0.024,-0.069 -0.049,-0.129 -0.075,-0.18c-0.027,-0.051 -0.053,-0.106 -0.079,-0.165c-0.027,-0.059 -0.061,-0.141 -0.102,-0.244c-0.042,-0.104 -0.08,-0.207 -0.115,-0.309c-0.035,-0.101 -0.062,-0.182 -0.079,-0.241c-0.018,-0.059 -0.044,-0.149 -0.079,-0.269c-0.035,-0.12 -0.06,-0.214 -0.076,-0.283c-0.015,-0.069 -0.032,-0.138 -0.049,-0.205c-0.017,-0.067 -0.035,-0.14 -0.053,-0.217c-0.017,-0.077 -0.035,-0.155 -0.052,-0.232c-0.018,-0.077 -0.039,-0.154 -0.063,-0.231c-0.024,-0.078 -0.045,-0.155 -0.062,-0.232c-0.018,-0.077 -0.04,-0.155 -0.066,-0.232c-0.026,-0.077 -0.048,-0.149 -0.066,-0.217c-0.017,-0.067 -0.039,-0.131 -0.065,-0.192c-0.027,-0.061 -0.061,-0.142 -0.102,-0.244c-0.042,-0.102 -0.08,-0.188 -0.115,-0.257c-0.035,-0.069 -0.069,-0.133 -0.102,-0.192c-0.033,-0.059 -0.071,-0.118 -0.115,-0.177c-0.044,-0.06 -0.087,-0.12 -0.128,-0.18c-0.042,-0.061 -0.076,-0.121 -0.102,-0.18c-0.027,-0.059 -0.057,-0.132 -0.093,-0.217c-0.035,-0.086 -0.069,-0.171 -0.101,-0.257l-0.05,-0.128" style="fill:none;stroke:#000;stroke-width:1.68px;"/><path id="STROKE_F17C5A13.-A7AC.-4D00.-9C77.-6A42B21C01A6" d="M81.35,61.001c0.053,-0.155 0.092,-0.258 0.119,-0.309c0.026,-0.051 0.042,-0.111 0.049,-0.18c0.007,-0.069 0.01,-0.133 0.01,-0.192l0,-0.394c0,-0.086 -0.012,-0.18 -0.036,-0.284c-0.025,-0.103 -0.045,-0.189 -0.063,-0.256c-0.017,-0.068 -0.035,-0.132 -0.053,-0.193c-0.017,-0.06 -0.035,-0.125 -0.052,-0.192c-0.017,-0.067 -0.038,-0.131 -0.062,-0.192c-0.024,-0.061 -0.041,-0.125 -0.05,-0.192c-0.009,-0.068 -0.026,-0.128 -0.052,-0.181c-0.027,-0.052 -0.053,-0.125 -0.079,-0.219c-0.027,-0.094 -0.056,-0.191 -0.089,-0.293c-0.033,-0.102 -0.067,-0.201 -0.102,-0.296c-0.035,-0.095 -0.07,-0.194 -0.105,-0.296c-0.035,-0.102 -0.073,-0.213 -0.115,-0.333c-0.042,-0.12 -0.071,-0.214 -0.089,-0.281c-0.018,-0.067 -0.039,-0.139 -0.066,-0.217c-0.026,-0.077 -0.052,-0.158 -0.079,-0.244c-0.026,-0.085 -0.047,-0.171 -0.062,-0.256c-0.015,-0.086 -0.045,-0.184 -0.089,-0.296c-0.044,-0.112 -0.074,-0.21 -0.092,-0.296c-0.017,-0.085 -0.038,-0.179 -0.062,-0.281c-0.024,-0.102 -0.045,-0.195 -0.063,-0.281c-0.017,-0.086 -0.039,-0.176 -0.066,-0.271c-0.026,-0.096 -0.048,-0.181 -0.065,-0.257c-0.018,-0.075 -0.035,-0.148 -0.053,-0.217c-0.017,-0.069 -0.038,-0.154 -0.062,-0.256c-0.024,-0.102 -0.05,-0.195 -0.076,-0.281c-0.026,-0.085 -0.052,-0.163 -0.079,-0.232c-0.026,-0.069 -0.051,-0.138 -0.075,-0.207c-0.024,-0.069 -0.05,-0.146 -0.076,-0.232c-0.026,-0.085 -0.057,-0.175 -0.092,-0.268c-0.035,-0.094 -0.061,-0.17 -0.079,-0.229c-0.017,-0.06 -0.034,-0.12 -0.049,-0.181c-0.015,-0.06 -0.036,-0.124 -0.063,-0.192c-0.026,-0.067 -0.052,-0.131 -0.079,-0.192c-0.026,-0.061 -0.048,-0.125 -0.065,-0.192c-0.018,-0.068 -0.039,-0.132 -0.063,-0.193c-0.024,-0.061 -0.049,-0.121 -0.075,-0.18c-0.026,-0.059 -0.062,-0.135 -0.106,-0.229c-0.043,-0.094 -0.086,-0.183 -0.128,-0.269c-0.041,-0.085 -0.084,-0.158 -0.128,-0.219c-0.044,-0.061 -0.086,-0.121 -0.128,-0.18c-0.042,-0.059 -0.08,-0.119 -0.115,-0.18c-0.035,-0.061 -0.057,-0.121 -0.066,-0.18c-0.009,-0.059 -0.038,-0.114 -0.089,-0.165l-0.075,-0.076" style="fill:none;stroke:#000;stroke-width:1.68px;"/><path id="STROKE_DE4534A3.-3CEB.-49AE.-B87F.-1E64FA3BA765" d="M73.54,60.897c0.018,0.121 0.027,0.216 0.027,0.283c0,0.068 0,0.072 0,0.013c0,-0.059 0,-0.118 0,-0.178c0,-0.059 -0.005,-0.119 -0.014,-0.18c-0.008,-0.061 -0.017,-0.125 -0.026,-0.192c-0.009,-0.067 -0.018,-0.135 -0.026,-0.204c-0.009,-0.07 -0.018,-0.139 -0.027,-0.208c-0.008,-0.069 -0.013,-0.133 -0.013,-0.192c0,-0.059 -0.003,-0.127 -0.01,-0.205c-0.006,-0.077 -0.014,-0.15 -0.023,-0.219c-0.008,-0.069 -0.013,-0.141 -0.013,-0.217c0,-0.076 -0.004,-0.148 -0.013,-0.217c-0.009,-0.069 -0.017,-0.142 -0.026,-0.219c-0.009,-0.078 -0.018,-0.155 -0.026,-0.232c-0.009,-0.077 -0.023,-0.154 -0.04,-0.229c-0.018,-0.076 -0.035,-0.156 -0.052,-0.242c-0.018,-0.085 -0.035,-0.171 -0.053,-0.256c-0.018,-0.086 -0.034,-0.176 -0.05,-0.271c-0.015,-0.096 -0.031,-0.186 -0.049,-0.272c-0.017,-0.085 -0.035,-0.175 -0.052,-0.268c-0.018,-0.094 -0.04,-0.192 -0.066,-0.294c-0.026,-0.102 -0.052,-0.2 -0.076,-0.296c-0.024,-0.095 -0.049,-0.198 -0.075,-0.308c-0.027,-0.11 -0.048,-0.212 -0.066,-0.305c-0.017,-0.094 -0.039,-0.189 -0.066,-0.284c-0.026,-0.095 -0.048,-0.186 -0.066,-0.271c-0.017,-0.086 -0.033,-0.167 -0.049,-0.244c-0.015,-0.078 -0.032,-0.154 -0.049,-0.23c-0.018,-0.075 -0.035,-0.144 -0.053,-0.204c-0.017,-0.061 -0.039,-0.138 -0.065,-0.232c-0.027,-0.094 -0.048,-0.187 -0.063,-0.281c-0.015,-0.094 -0.032,-0.183 -0.049,-0.269c-0.018,-0.085 -0.04,-0.171 -0.066,-0.256c-0.026,-0.086 -0.053,-0.175 -0.079,-0.269c-0.026,-0.094 -0.051,-0.192 -0.076,-0.296c-0.024,-0.103 -0.053,-0.206 -0.088,-0.308c-0.035,-0.102 -0.066,-0.178 -0.092,-0.229c-0.027,-0.051 -0.048,-0.111 -0.066,-0.18c-0.018,-0.069 -0.034,-0.134 -0.049,-0.195c-0.016,-0.061 -0.037,-0.146 -0.063,-0.256c-0.026,-0.11 -0.057,-0.217 -0.092,-0.321c-0.035,-0.103 -0.065,-0.198 -0.092,-0.283c-0.026,-0.086 -0.051,-0.162 -0.075,-0.23c-0.025,-0.067 -0.054,-0.135 -0.089,-0.204c-0.035,-0.069 -0.074,-0.133 -0.115,-0.192c-0.042,-0.06 -0.085,-0.12 -0.129,-0.18c-0.043,-0.061 -0.078,-0.117 -0.104,-0.168c-0.027,-0.051 -0.052,-0.106 -0.076,-0.165c-0.024,-0.059 -0.045,-0.119 -0.063,-0.18l-0.026,-0.092" style="fill:none;stroke:#000;stroke-width:1.68px;"/><path id="STROKE_ADB44585.-B970.-4864.-9DB8.-57EE28CEEC7C" d="M66.683,62.307c-0.087,0.105 -0.143,0.183 -0.167,0.234c-0.025,0.051 -0.072,0.085 -0.142,0.101c-0.07,0.017 -0.126,0.004 -0.167,-0.039c-0.042,-0.043 -0.076,-0.098 -0.102,-0.165c-0.027,-0.068 -0.053,-0.128 -0.079,-0.18c-0.026,-0.053 -0.052,-0.113 -0.076,-0.18c-0.024,-0.067 -0.053,-0.153 -0.089,-0.257c-0.035,-0.103 -0.065,-0.206 -0.091,-0.308c-0.027,-0.102 -0.052,-0.213 -0.076,-0.333c-0.024,-0.119 -0.045,-0.213 -0.062,-0.281c-0.018,-0.067 -0.031,-0.131 -0.04,-0.192c-0.009,-0.061 -0.022,-0.121 -0.039,-0.18c-0.018,-0.059 -0.035,-0.123 -0.053,-0.192c-0.018,-0.069 -0.031,-0.138 -0.04,-0.207c-0.008,-0.069 -0.021,-0.137 -0.039,-0.205c-0.018,-0.067 -0.034,-0.135 -0.049,-0.204c-0.016,-0.069 -0.028,-0.138 -0.036,-0.205c-0.009,-0.068 -0.022,-0.136 -0.04,-0.205c-0.018,-0.069 -0.031,-0.142 -0.039,-0.219c-0.009,-0.077 -0.022,-0.155 -0.04,-0.232c-0.017,-0.077 -0.035,-0.154 -0.052,-0.229c-0.018,-0.076 -0.034,-0.152 -0.05,-0.229c-0.015,-0.078 -0.031,-0.155 -0.049,-0.232c-0.018,-0.077 -0.035,-0.155 -0.053,-0.232c-0.017,-0.077 -0.03,-0.155 -0.039,-0.232c-0.009,-0.077 -0.022,-0.149 -0.04,-0.217c-0.017,-0.067 -0.03,-0.135 -0.039,-0.204c-0.009,-0.069 -0.021,-0.142 -0.036,-0.22c-0.015,-0.077 -0.032,-0.149 -0.049,-0.216c-0.018,-0.068 -0.031,-0.14 -0.04,-0.217c-0.009,-0.078 -0.026,-0.159 -0.053,-0.245c-0.026,-0.085 -0.043,-0.171 -0.052,-0.256c-0.009,-0.085 -0.022,-0.171 -0.039,-0.256c-0.018,-0.086 -0.039,-0.175 -0.063,-0.269c-0.024,-0.094 -0.045,-0.183 -0.063,-0.269c-0.017,-0.085 -0.035,-0.172 -0.052,-0.259c-0.018,-0.087 -0.035,-0.164 -0.052,-0.231c-0.018,-0.068 -0.035,-0.132 -0.053,-0.193c-0.018,-0.061 -0.034,-0.138 -0.05,-0.232c-0.015,-0.093 -0.036,-0.187 -0.062,-0.28c-0.026,-0.094 -0.053,-0.188 -0.079,-0.282c-0.026,-0.093 -0.048,-0.192 -0.066,-0.296c-0.017,-0.103 -0.038,-0.206 -0.062,-0.307c-0.024,-0.102 -0.045,-0.196 -0.062,-0.282c-0.018,-0.085 -0.035,-0.166 -0.053,-0.244c-0.018,-0.077 -0.035,-0.15 -0.053,-0.219c-0.017,-0.069 -0.035,-0.133 -0.052,-0.192c-0.018,-0.06 -0.035,-0.119 -0.053,-0.178c-0.017,-0.059 -0.029,-0.119 -0.036,-0.18c-0.007,-0.061 -0.023,-0.121 -0.049,-0.18c-0.027,-0.059 -0.066,-0.102 -0.119,-0.128l-0.078,-0.04" style="fill:none;stroke:#000;stroke-width:1.68px;"/><path id="STROKE_35760DD5.-303D.-4354.-A968.-56D3BD255098" d="M60.03,64.693c-0.052,0.102 -0.096,0.12 -0.131,0.052c-0.035,-0.067 -0.069,-0.135 -0.102,-0.204c-0.033,-0.069 -0.063,-0.138 -0.089,-0.205c-0.026,-0.067 -0.053,-0.144 -0.079,-0.229c-0.026,-0.086 -0.047,-0.159 -0.062,-0.22c-0.016,-0.061 -0.028,-0.12 -0.037,-0.179c-0.008,-0.06 -0.021,-0.12 -0.039,-0.181c-0.017,-0.06 -0.031,-0.12 -0.04,-0.18c-0.008,-0.059 -0.017,-0.123 -0.026,-0.192c-0.008,-0.069 -0.026,-0.163 -0.052,-0.283c-0.027,-0.12 -0.049,-0.214 -0.066,-0.281c-0.018,-0.068 -0.034,-0.132 -0.049,-0.193c-0.016,-0.061 -0.032,-0.125 -0.05,-0.192c-0.017,-0.067 -0.035,-0.14 -0.052,-0.217c-0.018,-0.077 -0.035,-0.154 -0.053,-0.232c-0.017,-0.077 -0.039,-0.158 -0.066,-0.244c-0.026,-0.085 -0.047,-0.171 -0.062,-0.256c-0.015,-0.086 -0.036,-0.171 -0.062,-0.256c-0.027,-0.086 -0.053,-0.172 -0.079,-0.257c-0.027,-0.085 -0.049,-0.175 -0.066,-0.269c-0.018,-0.093 -0.039,-0.183 -0.062,-0.269c-0.025,-0.085 -0.05,-0.174 -0.076,-0.268c-0.026,-0.094 -0.048,-0.188 -0.066,-0.284c-0.017,-0.095 -0.035,-0.189 -0.053,-0.283c-0.017,-0.094 -0.033,-0.188 -0.049,-0.281c-0.015,-0.094 -0.032,-0.187 -0.049,-0.281c-0.018,-0.094 -0.035,-0.188 -0.053,-0.281c-0.017,-0.094 -0.03,-0.188 -0.039,-0.284c-0.009,-0.095 -0.022,-0.194 -0.039,-0.295c-0.018,-0.103 -0.036,-0.2 -0.053,-0.294c-0.018,-0.094 -0.031,-0.188 -0.04,-0.284c-0.008,-0.095 -0.025,-0.185 -0.049,-0.271c-0.024,-0.085 -0.045,-0.175 -0.062,-0.268c-0.018,-0.094 -0.036,-0.184 -0.053,-0.269c-0.018,-0.086 -0.035,-0.171 -0.053,-0.256c-0.017,-0.086 -0.035,-0.172 -0.052,-0.257c-0.018,-0.085 -0.039,-0.171 -0.063,-0.256c-0.024,-0.086 -0.045,-0.171 -0.062,-0.257c-0.018,-0.085 -0.035,-0.167 -0.053,-0.244c-0.017,-0.077 -0.035,-0.158 -0.052,-0.244c-0.018,-0.085 -0.035,-0.162 -0.053,-0.229c-0.017,-0.068 -0.034,-0.14 -0.049,-0.217c-0.015,-0.077 -0.027,-0.15 -0.036,-0.219c-0.009,-0.069 -0.022,-0.155 -0.04,-0.257c-0.017,-0.102 -0.035,-0.191 -0.052,-0.269c-0.018,-0.077 -0.035,-0.154 -0.053,-0.231c-0.017,-0.078 -0.038,-0.15 -0.062,-0.217c-0.025,-0.068 -0.059,-0.123 -0.102,-0.165l-0.066,-0.065" style="fill:none;stroke:#000;stroke-width:1.68px;"/><path id="STROKE_D2B5ABC2.-6191.-49B3.-8282.-83088275FA75" d="M52.503,66.079c0,-0.118 -0.022,-0.204 -0.066,-0.256c-0.044,-0.053 -0.074,-0.113 -0.089,-0.18c-0.015,-0.068 -0.031,-0.153 -0.049,-0.257c-0.018,-0.103 -0.035,-0.185 -0.053,-0.244c-0.017,-0.059 -0.03,-0.127 -0.039,-0.204c-0.009,-0.078 -0.022,-0.155 -0.04,-0.232c-0.017,-0.077 -0.035,-0.154 -0.052,-0.229c-0.018,-0.076 -0.039,-0.156 -0.063,-0.242c-0.024,-0.085 -0.049,-0.171 -0.075,-0.256c-0.027,-0.086 -0.053,-0.171 -0.079,-0.257c-0.026,-0.085 -0.053,-0.176 -0.079,-0.271c-0.026,-0.095 -0.051,-0.19 -0.076,-0.284c-0.024,-0.093 -0.049,-0.187 -0.075,-0.281c-0.027,-0.093 -0.057,-0.196 -0.092,-0.308c-0.035,-0.111 -0.065,-0.218 -0.089,-0.32c-0.024,-0.102 -0.049,-0.209 -0.076,-0.321c-0.026,-0.111 -0.052,-0.218 -0.079,-0.32c-0.026,-0.102 -0.051,-0.221 -0.075,-0.358c-0.024,-0.136 -0.054,-0.264 -0.089,-0.384c-0.035,-0.12 -0.061,-0.24 -0.079,-0.36c-0.017,-0.12 -0.035,-0.24 -0.052,-0.36c-0.018,-0.12 -0.035,-0.24 -0.053,-0.36c-0.017,-0.12 -0.034,-0.231 -0.049,-0.333c-0.016,-0.102 -0.028,-0.205 -0.036,-0.308c-0.009,-0.104 -0.018,-0.206 -0.027,-0.308c-0.008,-0.102 -0.017,-0.204 -0.026,-0.306c-0.009,-0.102 -0.018,-0.205 -0.026,-0.308c-0.009,-0.104 -0.014,-0.202 -0.014,-0.296l0,-2.359c0,-0.076 -0.008,-0.156 -0.026,-0.242l-0.026,-0.128" style="fill:none;stroke:#000;stroke-width:1.68px;"/><path id="STROKE_BA3E7250.-D964.-4A1F.-84B2.-468DDF59C474" d="M45.771,66.927c0,-0.138 -0.013,-0.25 -0.04,-0.335c-0.026,-0.086 -0.051,-0.154 -0.075,-0.205c-0.025,-0.051 -0.063,-0.123 -0.116,-0.217c-0.052,-0.093 -0.092,-0.166 -0.118,-0.217c-0.026,-0.051 -0.047,-0.106 -0.062,-0.167c-0.016,-0.061 -0.036,-0.126 -0.063,-0.195c-0.026,-0.069 -0.048,-0.133 -0.065,-0.192c-0.018,-0.06 -0.036,-0.124 -0.053,-0.193c-0.018,-0.069 -0.034,-0.137 -0.049,-0.204c-0.016,-0.068 -0.032,-0.136 -0.049,-0.205c-0.018,-0.069 -0.031,-0.137 -0.04,-0.204c-0.009,-0.068 -0.022,-0.14 -0.039,-0.217c-0.018,-0.078 -0.031,-0.151 -0.04,-0.22c-0.009,-0.069 -0.017,-0.137 -0.026,-0.204c-0.009,-0.068 -0.022,-0.136 -0.04,-0.205c-0.017,-0.069 -0.03,-0.138 -0.039,-0.207c-0.009,-0.069 -0.017,-0.142 -0.023,-0.217c-0.007,-0.076 -0.014,-0.148 -0.023,-0.217c-0.009,-0.069 -0.018,-0.138 -0.026,-0.207c-0.009,-0.069 -0.018,-0.146 -0.027,-0.232c-0.009,-0.085 -0.017,-0.162 -0.026,-0.229c-0.009,-0.068 -0.018,-0.14 -0.026,-0.217c-0.009,-0.077 -0.018,-0.151 -0.027,-0.22c-0.009,-0.069 -0.013,-0.137 -0.013,-0.204c0,-0.068 -0.004,-0.136 -0.013,-0.205c-0.009,-0.069 -0.013,-0.133 -0.013,-0.192c0,-0.059 -0.005,-0.119 -0.013,-0.18c-0.009,-0.061 -0.014,-0.121 -0.014,-0.18c0,-0.059 -0.004,-0.119 -0.013,-0.18c-0.008,-0.061 -0.017,-0.121 -0.026,-0.18c-0.009,-0.059 -0.021,-0.141 -0.036,-0.244c-0.015,-0.104 -0.032,-0.206 -0.049,-0.308c-0.018,-0.102 -0.035,-0.209 -0.053,-0.321c-0.017,-0.111 -0.035,-0.227 -0.053,-0.345c-0.017,-0.118 -0.035,-0.229 -0.052,-0.333c-0.018,-0.103 -0.039,-0.21 -0.063,-0.32c-0.024,-0.11 -0.049,-0.213 -0.075,-0.308c-0.026,-0.096 -0.048,-0.19 -0.066,-0.284c-0.017,-0.094 -0.035,-0.179 -0.052,-0.256c-0.018,-0.077 -0.036,-0.146 -0.053,-0.205c-0.018,-0.059 -0.026,-0.119 -0.026,-0.18c0,-0.061 -0.004,-0.129 -0.01,-0.205c-0.007,-0.075 -0.01,-0.156 -0.01,-0.241c0,-0.086 0,-0.159 0,-0.22l0,-0.091" style="fill:none;stroke:#000;stroke-width:1.68px;"/><path id="STROKE_EE2B123B.-6AC0.-41FA.-A061.-4FBF020FDE64" d="M76.068,25.114c0.072,-0.122 0.114,-0.21 0.127,-0.265c0.012,-0.055 0.021,-0.113 0.028,-0.174c0.006,-0.061 0.012,-0.125 0.018,-0.191c0.007,-0.067 0.01,-0.137 0.01,-0.209l0,-1.087c0,-0.078 -0.003,-0.154 -0.01,-0.228c-0.006,-0.074 -0.015,-0.15 -0.028,-0.228c-0.012,-0.078 -0.025,-0.151 -0.037,-0.219c-0.013,-0.068 -0.032,-0.136 -0.057,-0.202c-0.024,-0.067 -0.045,-0.131 -0.062,-0.192c-0.018,-0.06 -0.039,-0.127 -0.064,-0.2c-0.025,-0.072 -0.05,-0.142 -0.075,-0.21c-0.025,-0.068 -0.049,-0.148 -0.072,-0.239c-0.024,-0.091 -0.051,-0.179 -0.082,-0.263c-0.031,-0.085 -0.062,-0.172 -0.092,-0.263c-0.029,-0.092 -0.056,-0.183 -0.081,-0.274c-0.025,-0.092 -0.053,-0.18 -0.082,-0.265c-0.03,-0.086 -0.057,-0.165 -0.082,-0.239c-0.025,-0.074 -0.05,-0.141 -0.075,-0.202c-0.025,-0.061 -0.052,-0.122 -0.082,-0.183c-0.03,-0.06 -0.06,-0.124 -0.091,-0.191c-0.032,-0.067 -0.071,-0.136 -0.12,-0.209c-0.048,-0.072 -0.09,-0.139 -0.126,-0.2c-0.036,-0.061 -0.076,-0.128 -0.119,-0.202c-0.044,-0.073 -0.087,-0.146 -0.129,-0.219c-0.042,-0.073 -0.091,-0.149 -0.145,-0.228c-0.055,-0.08 -0.107,-0.156 -0.157,-0.228c-0.05,-0.073 -0.102,-0.149 -0.157,-0.229c-0.054,-0.079 -0.106,-0.159 -0.154,-0.238c-0.049,-0.08 -0.1,-0.153 -0.155,-0.22c-0.054,-0.066 -0.103,-0.127 -0.147,-0.182c-0.044,-0.055 -0.09,-0.11 -0.138,-0.163c-0.049,-0.054 -0.094,-0.106 -0.136,-0.155c-0.042,-0.049 -0.087,-0.095 -0.136,-0.137c-0.048,-0.042 -0.094,-0.088 -0.138,-0.137c-0.043,-0.049 -0.089,-0.098 -0.138,-0.147c-0.048,-0.049 -0.1,-0.098 -0.154,-0.146c-0.055,-0.048 -0.106,-0.096 -0.155,-0.146c-0.048,-0.049 -0.1,-0.097 -0.156,-0.145c-0.057,-0.048 -0.109,-0.097 -0.157,-0.146c-0.048,-0.049 -0.1,-0.095 -0.155,-0.138c-0.054,-0.044 -0.109,-0.089 -0.164,-0.137c-0.054,-0.048 -0.106,-0.094 -0.154,-0.137c-0.048,-0.043 -0.101,-0.083 -0.157,-0.12c-0.056,-0.036 -0.111,-0.072 -0.166,-0.108c-0.054,-0.037 -0.109,-0.07 -0.164,-0.101c-0.054,-0.03 -0.106,-0.063 -0.154,-0.1c-0.048,-0.036 -0.097,-0.069 -0.145,-0.099c-0.049,-0.031 -0.098,-0.061 -0.148,-0.092c-0.05,-0.03 -0.102,-0.061 -0.156,-0.091c-0.055,-0.031 -0.107,-0.061 -0.155,-0.091c-0.048,-0.031 -0.1,-0.061 -0.154,-0.092c-0.055,-0.03 -0.116,-0.06 -0.183,-0.091c-0.067,-0.03 -0.134,-0.064 -0.201,-0.1c-0.067,-0.036 -0.138,-0.07 -0.211,-0.1c-0.073,-0.03 -0.147,-0.064 -0.22,-0.102c-0.073,-0.037 -0.146,-0.074 -0.22,-0.11c-0.073,-0.037 -0.146,-0.073 -0.22,-0.109c-0.073,-0.037 -0.146,-0.073 -0.22,-0.109c-0.073,-0.036 -0.143,-0.07 -0.21,-0.1c-0.068,-0.03 -0.135,-0.058 -0.202,-0.083c-0.067,-0.024 -0.131,-0.046 -0.192,-0.064c-0.06,-0.019 -0.121,-0.037 -0.182,-0.055c-0.061,-0.018 -0.122,-0.033 -0.183,-0.046c-0.06,-0.012 -0.134,-0.028 -0.22,-0.045c-0.085,-0.018 -0.156,-0.033 -0.21,-0.046c-0.055,-0.013 -0.109,-0.028 -0.164,-0.046c-0.055,-0.017 -0.113,-0.035 -0.173,-0.054c-0.061,-0.019 -0.122,-0.037 -0.183,-0.056c-0.061,-0.019 -0.121,-0.04 -0.182,-0.063c-0.061,-0.024 -0.119,-0.045 -0.174,-0.063c-0.054,-0.019 -0.11,-0.038 -0.166,-0.057c-0.056,-0.018 -0.123,-0.037 -0.201,-0.054c-0.078,-0.018 -0.154,-0.036 -0.227,-0.054c-0.073,-0.019 -0.146,-0.034 -0.22,-0.046c-0.073,-0.012 -0.137,-0.024 -0.192,-0.037c-0.055,-0.013 -0.112,-0.025 -0.173,-0.037c-0.061,-0.012 -0.128,-0.027 -0.201,-0.045c-0.074,-0.019 -0.15,-0.037 -0.23,-0.055c-0.079,-0.017 -0.156,-0.033 -0.229,-0.046c-0.073,-0.012 -0.147,-0.022 -0.22,-0.028c-0.073,-0.005 -0.15,-0.008 -0.229,-0.008l-1.554,0c-0.08,0 -0.162,0.006 -0.246,0.019c-0.084,0.013 -0.163,0.025 -0.236,0.037c-0.073,0.012 -0.144,0.027 -0.211,0.045c-0.067,0.019 -0.137,0.037 -0.21,0.055c-0.074,0.018 -0.147,0.039 -0.22,0.063c-0.074,0.025 -0.147,0.049 -0.221,0.074c-0.073,0.024 -0.149,0.045 -0.229,0.063c-0.079,0.017 -0.156,0.036 -0.229,0.054c-0.073,0.019 -0.144,0.038 -0.211,0.057c-0.067,0.018 -0.134,0.043 -0.201,0.073c-0.067,0.031 -0.131,0.058 -0.192,0.081c-0.061,0.024 -0.122,0.048 -0.182,0.072c-0.061,0.025 -0.128,0.049 -0.202,0.074c-0.073,0.024 -0.146,0.049 -0.22,0.073c-0.073,0.025 -0.137,0.046 -0.192,0.064c-0.054,0.017 -0.112,0.038 -0.173,0.063c-0.061,0.024 -0.118,0.052 -0.173,0.082c-0.055,0.031 -0.106,0.061 -0.154,0.091c-0.049,0.031 -0.1,0.059 -0.155,0.083c-0.054,0.025 -0.115,0.059 -0.182,0.102c-0.067,0.043 -0.135,0.083 -0.201,0.119c-0.068,0.036 -0.135,0.076 -0.202,0.118c-0.067,0.042 -0.126,0.078 -0.175,0.109c-0.05,0.03 -0.096,0.067 -0.138,0.11c-0.043,0.043 -0.088,0.086 -0.136,0.128c-0.049,0.042 -0.095,0.085 -0.138,0.127c-0.044,0.042 -0.09,0.088 -0.139,0.137c-0.048,0.049 -0.093,0.098 -0.135,0.147c-0.042,0.049 -0.085,0.095 -0.129,0.137c-0.043,0.042 -0.09,0.088 -0.138,0.137c-0.048,0.049 -0.09,0.098 -0.126,0.146c-0.036,0.047 -0.079,0.099 -0.129,0.154c-0.05,0.055 -0.096,0.11 -0.138,0.165c-0.042,0.055 -0.084,0.107 -0.126,0.156c-0.043,0.049 -0.082,0.098 -0.12,0.146c-0.037,0.048 -0.074,0.096 -0.11,0.145c-0.036,0.05 -0.072,0.102 -0.11,0.157c-0.037,0.055 -0.071,0.106 -0.101,0.154c-0.029,0.048 -0.06,0.1 -0.091,0.155c-0.031,0.055 -0.058,0.11 -0.081,0.164c-0.024,0.056 -0.048,0.111 -0.073,0.166c-0.025,0.055 -0.05,0.109 -0.075,0.163c-0.025,0.054 -0.049,0.114 -0.073,0.182c-0.023,0.068 -0.044,0.129 -0.063,0.183c-0.018,0.054 -0.04,0.112 -0.065,0.174c-0.025,0.062 -0.049,0.123 -0.073,0.184c-0.023,0.061 -0.047,0.118 -0.072,0.172c-0.025,0.054 -0.05,0.108 -0.073,0.163c-0.023,0.055 -0.047,0.11 -0.072,0.165c-0.026,0.055 -0.057,0.123 -0.094,0.202c-0.037,0.08 -0.065,0.146 -0.082,0.2c-0.017,0.054 -0.032,0.108 -0.044,0.163c-0.013,0.055 -0.029,0.11 -0.047,0.165c-0.019,0.055 -0.038,0.113 -0.056,0.174c-0.019,0.061 -0.037,0.119 -0.054,0.174c-0.017,0.055 -0.032,0.113 -0.045,0.174c-0.012,0.061 -0.028,0.127 -0.047,0.2c-0.018,0.072 -0.034,0.136 -0.046,0.191c-0.013,0.055 -0.028,0.119 -0.045,0.193c-0.017,0.074 -0.035,0.15 -0.053,0.228c-0.019,0.079 -0.032,0.161 -0.038,0.246c-0.006,0.085 -0.012,0.171 -0.019,0.256c-0.006,0.086 -0.012,0.162 -0.019,0.229c-0.006,0.066 -0.009,0.133 -0.009,0.199l0,2.356c0,0.067 0.006,0.128 0.019,0.183c0.012,0.055 0.025,0.119 0.037,0.193c0.013,0.073 0.025,0.143 0.038,0.21c0.012,0.067 0.027,0.137 0.044,0.209c0.017,0.073 0.029,0.139 0.035,0.2c0.007,0.061 0.016,0.119 0.028,0.174c0.013,0.055 0.029,0.119 0.047,0.191c0.019,0.073 0.038,0.137 0.056,0.192c0.019,0.055 0.04,0.113 0.063,0.173c0.024,0.061 0.051,0.119 0.082,0.174c0.032,0.055 0.065,0.113 0.101,0.174c0.036,0.061 0.073,0.128 0.11,0.202c0.038,0.073 0.065,0.141 0.082,0.202c0.017,0.06 0.035,0.124 0.054,0.191c0.019,0.067 0.04,0.13 0.065,0.191c0.025,0.061 0.056,0.122 0.091,0.183c0.036,0.061 0.073,0.112 0.11,0.154c0.038,0.042 0.081,0.088 0.129,0.137c0.049,0.049 0.091,0.098 0.127,0.147c0.036,0.05 0.072,0.098 0.11,0.146c0.037,0.048 0.08,0.097 0.128,0.146c0.049,0.049 0.097,0.104 0.145,0.165c0.049,0.061 0.095,0.115 0.139,0.163c0.043,0.048 0.086,0.091 0.128,0.128c0.042,0.038 0.085,0.078 0.127,0.12c0.042,0.042 0.082,0.084 0.119,0.126c0.037,0.042 0.074,0.088 0.11,0.137c0.036,0.049 0.072,0.095 0.11,0.137c0.037,0.042 0.077,0.085 0.119,0.128c0.042,0.043 0.085,0.086 0.127,0.128c0.042,0.042 0.082,0.085 0.119,0.128c0.037,0.043 0.08,0.086 0.129,0.128c0.048,0.042 0.091,0.088 0.128,0.137c0.038,0.049 0.072,0.098 0.101,0.146c0.03,0.048 0.066,0.093 0.108,0.137c0.042,0.043 0.085,0.086 0.129,0.128c0.043,0.042 0.089,0.078 0.138,0.109c0.048,0.03 0.096,0.067 0.145,0.11c0.048,0.043 0.094,0.086 0.138,0.128c0.043,0.042 0.086,0.085 0.128,0.127c0.043,0.042 0.085,0.085 0.127,0.128c0.042,0.043 0.085,0.083 0.129,0.119c0.043,0.037 0.095,0.07 0.156,0.1c0.061,0.031 0.116,0.061 0.164,0.091c0.048,0.031 0.106,0.056 0.173,0.074l0.101,0.028" style="fill:none;stroke:#000;stroke-width:1.68px;"/></g></g></svg>