<?xml version="1.0" encoding="utf-8"?>
<!-- Generator: Adobe Illustrator 16.0.0, SVG Export Plug-In . SVG Version: 6.00 Build 0)  -->
<!DOCTYPE svg PUBLIC "-//W3C//DTD SVG 1.1//EN" "http://www.w3.org/Graphics/SVG/1.1/DTD/svg11.dtd">
<svg version="1.1" id="Layer_1" xmlns="http://www.w3.org/2000/svg" xmlns:xlink="http://www.w3.org/1999/xlink" x="0px" y="0px"
	 width="160px" height="160px" viewBox="0 0 160 160" enable-background="new 0 0 160 160" xml:space="preserve">
<g id="h3">
	
		<path id="STROKE_652F6850.2e..-46DE.2e..-48D2.2e..-87D7.2e..-198766E1D26F" fill="#FFFF06" stroke="#000000" stroke-width="1.6" stroke-linecap="round" stroke-linejoin="round" d="
		M78.624,25.098c0.792,0,1.703-0.115,2.297-0.695c0.484-0.473,0.613-1.164,0.582-1.818c-0.041-0.874-0.316-1.732-0.628-2.543
		c-0.378-0.985-0.845-1.935-1.334-2.869c-0.9-1.717-1.949-3.365-2.77-5.122c-0.131-0.28-0.256-0.565-0.347-0.861
		c-0.008-0.029-0.016-0.152-0.069-0.139c-0.048,0.013-0.089,0.065-0.121,0.099c-0.438,0.477-0.763,1.084-1.099,1.631
		c-1.042,1.7-2.031,3.438-2.962,5.202c-0.142,0.268-0.282,0.536-0.411,0.81c-0.137,0.288-0.203,0.59-0.253,0.905
		c-0.178,1.12,0.019,2.265,0.555,3.263c0.483,0.897,1.208,1.661,2.061,2.217c0.705,0.461,1.543,0.825,2.397,0.843
		c0.778,0.017,1.491-0.349,1.663-1.155"/>
	
		<path id="STROKE_4D38FFC9.2e..-1EF0.2e..-41FF.2e..-9192.2e..-198CF8985060_1_" fill="#FFFFFF" stroke="#000000" stroke-width="1.6" stroke-linecap="round" stroke-linejoin="round" d="
		M90.94,44.791c-0.877-0.112-1.684-0.497-2.336-1.094c-0.691-0.629-1.195-1.438-1.603-2.271c-0.979-1.995-1.503-4.188-2.155-6.302
		c-0.611-1.977-1.289-4.113-2.688-5.691c-1.119-1.263-3.011-2.193-4.709-1.668c-1.585,0.49-2.566,2.051-3.162,3.503
		c-0.735,1.793-1.062,3.772-1.08,5.704c-0.009,0.885,0.051,1.776,0.226,2.646c0.138,0.679,0.344,1.375,0.731,1.958
		c0.069,0.104,0.144,0.204,0.227,0.298c-0.042-0.048-0.093,0.21-0.096,0.226c-0.047,0.251-0.071,0.507-0.092,0.761
		c-0.066,0.795-0.087,1.596-0.072,2.394c0.016,0.776,0.048,1.578,0.239,2.334c0.08,0.316,0.281,1.002,0.743,0.809
		c0.279-0.115,0.478-0.413,0.64-0.652c0.338-0.502,0.602-1.048,0.813-1.614c0.145-0.393,0.253-0.802,0.421-1.186
		c0.091-0.211,0.231-0.458,0.496-0.452c0.383,0.009,0.763,0.358,1.039,0.585c0.619,0.508,1.18,1.08,1.761,1.629
		c0.674,0.637,1.369,1.312,2.17,1.792c0.292,0.175,0.714,0.398,1.048,0.2c0.286-0.17,0.419-0.548,0.54-0.837
		c0.189-0.454,0.373-0.907,0.643-1.321c0.342-0.523,0.805-0.953,1.356-1.248C87.509,44.506,89.343,44.588,90.94,44.791
		c-0.487-0.063-0.976-0.125-1.463-0.186C89.965,44.666,90.453,44.729,90.94,44.791C84.729,44.001,90.56,44.742,90.94,44.791z"/>
	
		<path id="STROKE_B24D6D60.2e..-E805.2e..-4111.2e..-9094.2e..-44307DA90B28" fill="none" stroke="#000000" stroke-width="1.6" stroke-linecap="round" stroke-linejoin="round" d="
		M80.361,35.503c0.552-0.553,3.181,6.72-1.098,4.046"/>
	
		<path id="STROKE_37A2062C.2e..-E41B.2e..-48F0.2e..-9654.2e..-9E7023F3EE77" fill="none" stroke="#000000" stroke-width="1.6" stroke-linecap="round" stroke-linejoin="round" d="
		M78.527,27.772c0.036-1.908-0.559-4.524-1.298-6.238"/>
</g>
</svg>
