<svg xmlns="http://www.w3.org/2000/svg"><path fill="#a34b1a" d="m79 119.2-.4 11.2s1.1 2.6-9.7 2.6H46.2s-5.4-5.2-2.2-7.8 11.9-3.4 11.9-3.4l-2.6-6.6zm2.6 0L80 130.4s-1 2.6 9.8 2.6h22.7s5.4-5.2 2.2-7.8-14.9-3.4-14.9-3.4l.6-5.6z"/><path d="m59.8 118.4-8.3-.9c-.3 0-.5-.3-.4-.6l.1-.5c0-.3.3-.5.6-.4l8.3.9c.3 0 .5.3.4.6l-.1.5c-.1.2-.3.4-.6.4m.8 2.5-8.3-.9c-.3 0-.5-.3-.4-.6l.1-.5c0-.3.3-.5.6-.4l8.3.9c.3 0 .5.3.4.6l-.1.5c-.1.3-.4.5-.6.4m34.3-3.6 8.3.5c.3 0 .5.3.5.5v.5c0 .3-.3.5-.5.5l-8.3-.5c-.3 0-.5-.3-.5-.5v-.5c0-.3.3-.6.5-.5m-1 2.3 8.3.5c.3 0 .5.3.5.5v.5c0 .3-.3.5-.5.5l-8.3-.5c-.3 0-.5-.3-.5-.5v-.5c0-.3.2-.5.5-.5"/><g fill="#490b37"><circle cx="68.5" cy="135.9" r="3.9"/><circle cx="52.5" cy="135.9" r="3.9"/><circle cx="90.2" cy="135.9" r="3.9"/><circle cx="106.2" cy="135.9" r="3.9"/></g><g fill="#fff"><circle cx="70.2" cy="135.7" r="3.9"/><circle cx="54.2" cy="135.7" r="3.9"/><circle cx="88.5" cy="135.7" r="3.9"/><circle cx="104.5" cy="135.7" r="3.9"/></g><circle cx="70.2" cy="135.7" r="2.2"/><circle cx="54.2" cy="135.7" r="2.2"/><circle cx="88.5" cy="135.7" r="2.2"/><circle cx="104.5" cy="135.7" r="2.2"/></svg>