<svg xmlns="http://www.w3.org/2000/svg"><path fill="none" stroke="#3f2904" stroke-linecap="round" stroke-linejoin="round" stroke-width="2" d="M85.2 120.5c-.6 5.3 0 10.6 1.8 15.5 3 8 2 6 2 6"/><path d="M88 138s-6.4-19.1 12.8-19.6S129 99 129 99a34.4 34.4 0 0 1-10 29c-7 8-23-4-31 10m-3.3-7.6s-3.3-8.8-17.9-10-29.2 1.2-32.5-14.4c-1 8.2 1.4 16.5 6.8 22.8 9 10.8 31.4 3.6 31.4 3.6s9-3.6 14.6 3.6z"/><path fill="#010101" d="M88 138c-1-17 36-8 41-39a34.4 34.4 0 0 1-10 29c-7 8-23-4-31 10m-53.8-32S33 120 41 128.8c9 10.2 31.4 3.6 31.4 3.6 1.4-2.4 15.6-.3 14.6 3.6 0-13.7-48-3.9-52.8-30" opacity=".25"/></svg>