<svg xmlns="http://www.w3.org/2000/svg"><path d="M95.8 115.5a16 16 0 0 0 2.7 2.5c.4 0 1.3-2.4 2.1-5 2.7-1.8 2.2-1.4 4.7-3.5 3.1 6.5 8.6 19.5 8.6 19.5l-1.9 10v-9s-7.7-17-8.7-17-2.9 11-3.9 11c-.5 0-7.3-7.2-7.3-7.2zm-39.9-4.9s-3.6 3.4-4 3.4c-1.1 0-4.4-12-5.5-12s-12.1 23-12.1 23l2.2 10v-9s8.8-17 9.9-17 3.3 11 4.4 11c.5 0 8.3-7.1 8.3-7.1z"/><path fill="#010101" d="M55.9 110.6s-3.6 3.4-4 3.4c-1.1 0-4.4-12-5.5-12s-12.1 23-12.1 23l2.2 10v-9s8.8-17 9.9-17 3.3 11 4.4 11c.5 0 8.3-7.1 8.3-7.1zm39.9 4.9a16 16 0 0 0 2.7 2.5c.4 0 1.3-2.3 2.1-5 2.6-1.7 2.3-1.5 4.7-3.5 3.1 6.5 8.6 19.5 8.6 19.5l-1.9 10v-9s-7.7-17-8.7-17-2.9 11-3.9 11c-.5 0-7.3-7.2-7.3-7.2z" opacity=".2"/><path d="M70 107.1s-9 12.3-10 12.3-4-13.4-5-13.4-11 25.8-11 25.8l2 11.2v-10.1s8-19.1 9-19.1 3 12.3 4 12.3 15-16.8 15-16.8 0-3.3-4-2.2"/><path fill="#010101" d="M60 122.4c-1 0-4-12.4-5-12.4s-10 21.8-10 21.8l1 11.2v-10.1s8-19.1 9-19.1 3 12.3 4 12.3 15-16.8 15-16.8c0-.9-.5-1.8-1.3-2.2-.6-.3-11.7 15.3-12.7 15.3" opacity=".1"/><path d="M96 107.2s9 12.3 10 12.3 4-13.5 5-13.5 11 25.8 11 25.8l-2 11.2v-10.1s-8-19.1-9-19.1-3 12.3-4 12.3-15-16.8-15-16.8 0-3.2 4-2.1"/></svg>