<svg xmlns="http://www.w3.org/2000/svg"><path fill="#6d4716" d="M97 122.5s-2.8 5.5-5.5 7.5c-1.2.8-2.3 1.8-3.4 2.7v4.4c0 .4 10.2-3 8.9-14.6"/><path fill="#fff" d="M97.6 122.5s-5.4-1.4-8.9 2-3.4 8.2-1.4 8.2 2.2.7 10.3-10.2"/><path fill="#99671d" d="M123.5 106.8s-4.8-8.2-19.1-.7-2.7 23.2-15.7 30.7c0 0 3.4 4.3 8.4-5.9 4.7-9.3 4.6-24.7 26.4-24.1"/><path fill="#444" d="M88.8 136.8s6.1 2.7 10.2-10.9 8.9-21.8 20.4-21.1c1.6 0 3.2.6 4.4 1.7 5.6 5 1.3 19.6-4.4 24.2-6.8 5.4-21.8 10.9-27.9 8.9s-2.7-2.8-2.7-2.8"/><path fill="currentColor" d="m87.8 117.2 1 7.4c1.9-1.4 3.6-2.3 5-2.3l-.6-6.2c-1.8.5-3.6.8-5.4 1.1"/><path d="M122.2 110.6h-11.6c-.3 0-.5-.2-.5-.5v-.1c0-.3.2-.5.5-.5h11.6c.3 0 .5.2.5.5v.1c0 .3-.2.5-.5.5m1.1 3.2h-14.7c-.3 0-.5-.2-.5-.5v-.1c0-.3.2-.5.5-.5h14.7c.3 0 .5.2.5.5v.1c0 .3-.3.5-.5.5m0 3.1h-17.9c-.3 0-.5-.2-.5-.5v-.1c0-.3.2-.5.5-.5h17.9c.3 0 .5.2.5.5v.1c0 .3-.3.5-.5.5m-1.1 3.2h-17.9c-.3 0-.5-.2-.5-.5v-.1c0-.3.2-.5.5-.5h17.9c.3 0 .5.2.5.5v.1c0 .2-.2.5-.5.5m-1.1 3.1h-17.9c-.3 0-.5-.2-.5-.5v-.1c0-.3.2-.5.5-.5h17.9c.3 0 .5.2.5.5v.1c0 .3-.2.5-.5.5m-2 3.2h-17.9c-.3 0-.5-.2-.5-.5v-.1c0-.3.2-.5.5-.5h17.9c.3 0 .5.2.5.5v.1c0 .2-.3.5-.5.5m-2.1 3.1h-15.8c-.3 0-.5-.2-.5-.5s.2-.5.5-.5H117c.3 0 .5.2.5.5v.1c0 .2-.3.4-.5.4m-4.2 3.2H99.1c-.3 0-.5-.2-.5-.5v-.1c0-.3.2-.5.5-.5h13.7c.3 0 .5.2.5.5v.1c0 .2-.3.5-.5.5m-5.3 3.1H98c-.3 0-.5-.2-.5-.5v-.1c0-.3.2-.5.5-.5h9.5c.3 0 .5.2.5.5v.1c0 .3-.2.5-.5.5"/><path fill="#6d4716" d="M63 123.5s-2.8 5.5-5.5 7.5c-1.2.8-2.3 1.8-3.4 2.7v4.4c0 .4 10.2-3 8.9-14.6"/><path fill="currentColor" d="m60.3 113-2.1 11.3c1.9-1.4 2.7-.3 4.1-.3l2.2-9.2c-2-.4-2.9-1.4-4.2-1.8"/><path fill="#fff" d="M63.6 123.5s-5.5-1.4-8.9 2-3.4 8.2-1.4 8.2 2.2.7 10.3-10.2"/><path fill="#99671d" d="M89.5 107.8s-4.8-8.2-19.1-.7-2.7 23.2-15.7 30.7c0 0 3.6 4 8.4-6 4.6-9.3 4.6-24.6 26.4-24"/><path fill="#444" d="M54.8 137.8s6.1 2.7 10.2-10.9 8.9-21.8 20.4-21.1c1.6 0 3.2.6 4.4 1.7 5.6 5 1.3 19.6-4.4 24.2-6.8 5.4-21.8 10.9-28 8.9s-2.6-2.8-2.6-2.8"/><path d="M88.2 111.6H76.6c-.3 0-.5-.2-.5-.5v-.1c0-.3.2-.5.5-.5h11.6c.3 0 .5.2.5.5v.1c0 .3-.2.5-.5.5m1.1 3.2H74.5c-.3 0-.5-.2-.5-.5v-.1c0-.3.2-.5.5-.5h14.7c.3 0 .5.2.5.5v.1c.1.3-.2.5-.4.5m0 3.1H71.4c-.3 0-.5-.2-.5-.5v-.1c0-.3.2-.5.5-.5h17.9c.3 0 .5.2.5.5v.1c0 .3-.3.5-.5.5m-1.1 3.2H70.3c-.3 0-.5-.2-.5-.5v-.1c0-.3.2-.5.5-.5h17.9c.3 0 .5.2.5.5v.1c0 .2-.2.5-.5.5m-1.1 3.1H69.3c-.3 0-.5-.2-.5-.5v-.1c0-.3.2-.5.5-.5h17.9c.3 0 .5.2.5.5v.1c-.1.3-.3.5-.6.5m-2 3.2H67.2c-.3 0-.5-.2-.5-.5v-.1c0-.3.2-.5.5-.5h17.9c.3 0 .5.2.5.5v.1c0 .2-.3.5-.5.5m-2.1 3.1H67.2c-.3 0-.5-.2-.5-.5s.2-.5.5-.5H83c.3 0 .5.2.5.5v.1c0 .2-.3.4-.5.4m-4.2 3.2H65.1c-.3 0-.5-.2-.5-.5v-.1c0-.3.2-.5.5-.5h13.7c.3 0 .5.2.5.5v.1c0 .2-.3.5-.5.5m-5.3 3.1H64c-.3 0-.5-.2-.5-.5v-.1c0-.3.2-.5.5-.5h9.5c.3 0 .5.2.5.5v.1c0 .3-.2.5-.5.5"/></svg>