<svg xmlns="http://www.w3.org/2000/svg"><path fill="#fff" d="M129.1 114.1c1.2-1.8-.9-2.8-3.2-2.3 0 0-14.6 2.6-30 4-13.2 5.7-27 6-35.7-1.6-12.6-3-22.4-7.5-25.7-5.8 0 0-6.6.9-5.3 5.3-.1 1.3.2 2.5.8 3.7 3.6 5.7 39.8 13.8 72.4 8 18.3-3.2 25.2-6.8 26.7-9.2.3-.6.3-1.4 0-2.1m-29.3 9.6 2.5-.4a267 267 0 0 0-2.5.4"/><circle cx="63.8" cy="134.7" r="6.1" fill="#490b37"/><circle cx="61.1" cy="134.5" r="6.1"/><circle cx="111.3" cy="133.1" r="6.1" fill="#490b37"/><circle cx="61.1" cy="134.5" r="6.1" fill="#fff" opacity=".4"/><path fill="#010101" d="m56.5 132 4.2.4c.7.1 1.2.7 1.2 1.4l-.1 1.5c-.1.7-.7 1.2-1.4 1.2l-4.2-.4c-.7-.1-1.2-.7-1.2-1.4l.1-1.5c.1-.7.7-1.2 1.4-1.2"/><circle cx="108.7" cy="133.7" r="6.1"/><circle cx="108.7" cy="133.7" r="6.1" fill="#fff" opacity=".4"/><path fill="#010101" d="m103.5 132.7 4.1-.9c.7-.2 1.4.3 1.5 1l.3 1.5c.2.7-.3 1.4-1 1.5l-4.1.9c-.7.2-1.4-.3-1.5-1l-.3-1.5c-.2-.6.3-1.3 1-1.5"/><circle cx="99.3" cy="135.7" r="6.1" fill="#490b37"/><circle cx="96.6" cy="136.3" r="6.1" fill="#fff"/><circle cx="96.6" cy="136.3" r="3.4"/><path fill="#490b37" d="M120.3 125.5c-14.3 4.5-59.6 9.8-77.8-.9-1.8-1-4.4-2.9-4.4-2.9s32.9 10.8 72.9 1.8c11.3-2.9 18-5.5 18.4-9.2 3.1 2-2.5 9.1-9.1 11.2"/><path d="M29.2 113.6c-.1 1.3.2 2.5.8 3.7 3.6 5.7 39.8 13.8 72.4 8 18.3-3.2 25.2-6.8 26.7-9.2.5-.8 0-2.6-.1-1.9-6 4.7-23.4 10-43.3 10.7-26.1 1-54.4-3.7-56.5-11.3" opacity=".1"/><circle cx="51.7" cy="133.7" r="6.1" fill="#490b37"/><circle cx="49" cy="133.4" r="6.1" fill="#fff"/><circle cx="49" cy="133.4" r="3.4"/><path d="M34.5 108.4s-8.1 1.2-4.5 6.9 39.8 13.8 72.4 8c18.3-3.2 25.2-6.8 26.7-9.2 1.2-1.8-.8-2.8-3.2-2.3 0 0-14.6 2.6-30 4a42.9 42.9 0 0 1-35.6-1.6c-12.6-3-22.5-7.5-25.8-5.8"/><ellipse cx="79" cy="121" fill="#010101" opacity=".15" rx="18" ry="2"/></svg>