<svg xmlns="http://www.w3.org/2000/svg"><path d="M86.8 118.7 108 109c5.8 10.7 5 19.9 0 28.1l-21.2-10.8c.9-1.1 1.9-5.2 0-7.6m-7.7-1-26-12c-5.5 9.6-5.5 21.2 0 34.6l26.1-13.4c-1.2-1.3-3.8-5.4-.1-9.2"/><path fill="#fff" d="m79.1 117.7-26-12c-5.5 9.6-5.5 21.2 0 34.6l26.1-13.4c-1.2-1.3-3.8-5.4-.1-9.2" opacity=".15"/><path fill="#010101" d="m97.9 125.9-7.1-1.6s-1.2-.1-1.1-.8 1.3-.5 1.3-.5l7.2.2c.7.1 1.2.8 1.1 1.5s-.7 1.2-1.4 1.2m.3-5.9-7.1 1.4s-1.1.4-1.3-.3 1-1 1-1l6.8-2.7a1 1 0 0 1 1.4.9v.1c.3.7-.1 1.3-.8 1.6m-31.4 7 9.1-2.2s1.6-.2 1.5-1c-.2-.6-1.8-.3-1.8-.3l-9.3.9c-.8 0-1.4.8-1.3 1.6.2.8 1 1.2 1.8 1m-.5-7 9.3 1.5s1.5.4 1.7-.3-1.3-1-1.3-1l-8.9-2.7c-.8-.2-1.6.2-1.9 1-.2.7.3 1.4 1.1 1.6z" opacity=".5"/><circle cx="83.9" cy="122.1" r="6.7"/></svg>