<svg xmlns="http://www.w3.org/2000/svg" viewBox="0 0 160 160"><path d="m39 110 9 23s48-1 47-2c-.6-.6-2.8-7.3-4.6-13-22.4 5-36.3-8-36.3-8H39z" opacity=".3"/><path d="m95 131 26 9-26 2.4-17 1.6-30-11" opacity=".5"/><path d="M95 130.9V142l26-2z" opacity=".5"/><g fill="none" stroke="#000" stroke-miterlimit="10"><path d="M63.5 131.9c-.8-2.8 31.9-12.5 32.7-8.3.4 2.4-34.4 5-34.8 2.6s7.1-5.2 16.7-6.2l2.1-.2"/><path d="M63.5 137.9c-.8-2.1 32.1-10.7 32.8-7.4.3 1.9-7.2 3.4-16.8 4.5s-17.6.4-17.9-1.4c-.1-.6.5-1.2 1.7-1.8"/></g><path d="M48 133v18.2c.8.5 3.1.6 5.2.8H78v-8l-30-11z" opacity=".7"/>  <path d="M121 140v7.2a26 26 0 0 1-15 4.8H78v-8l43-4z"/><path fill="#fff" d="M121 140v7.2a26 26 0 0 1-15 4.8H78v-8l43-4z" opacity=".1"/></svg>