<svg xmlns="http://www.w3.org/2000/svg"><path d="M90.5 122.5s5 0 4-2c-.4-.9-3.9-2.6-3.9-2.6l-2.4.3c2.4 2 3 3.4 2.3 4.3" opacity=".1"/><path d="M89 122.8s-1.1 3.6 2 4.2c6 1 7 6 6 8-2 5-16 8-22-2s-6-11-16-12-12 5-12 5c0 2 1 1 1 1 2-3.6 5.9-5.6 10-5 9 1 11 3 12 5s5 11 12 13 14 0 16-5-3.3-8.5-6-9c-.8-.2-1.8 0-2-2.8v-.2c0-2-1-.2-1-.2" opacity=".3"/><path d="M84.5 123.5c1 2 6-1 6-1s5 0 4-2c-.4-.9-3.9-2.6-3.9-2.6l-4.8.6s-1.8 3.9-1.3 5"/><path fill="#fff" d="M90 122.8s-1.1 3.6 2 4.2c6 1 7 6 6 8-2 5-16 8-22-2s-6-11-16-12-12 5-12 5c0 2 1 1 1 1 2-3.6 5.9-5.6 10-5 9 1 11 3 12 5s5 11 12 13 14 0 16-5-3.3-8.5-6-9c-.8-.2-1.8 0-2-2.8v-.2c0-2-1-.2-1-.2"/><path d="M84.5 123.5c1 2 4-1 6-1s5 0 4-2c-1.5.5-7.5 2.5-10 3" opacity=".1"/></svg>