<svg xmlns="http://www.w3.org/2000/svg"><path fill="#99671d" d="m88.8 117.9.2 6.1c3.2 1.2 6.8 1.2 10 0l3.2-11.8s-7.7 4.6-13.4 5.7"/><path fill="#f5f5f5" d="M91 124.6S89.9 137 91 139s4.4 3 4.4 0 1.6-14.4 1.6-14.4l-3 .2c-1 0-2 0-3-.2"/><path d="M91 139c1.1 2 4.4 3 4.4 0s1.6-14.4 1.6-14.4l-3 .2s0 15.2-3 14.2" opacity=".1"/><path fill="#6d4716" d="M69.6 123.3s2.6 5.2 5.2 7.1L78 133v4.2c0 .4-9.8-2.8-8.4-13.9"/><path fill="#fff" d="M68.9 123.3s5.2-1.3 8.4 2 3.2 7.8 1.3 7.8-1.9.6-9.7-9.8"/><path fill="#99671d" d="M44.2 108.4s4.5-7.8 18.2-.7S65 129.8 77.3 137c0 0-3.5 3.5-8-5.7-4.4-9-4.3-23.6-25.1-22.9"/><path fill="#444" d="M77.3 137s-5.8 2.6-9.8-10.4S59 105.8 48 106.4c-1.6 0-3 .6-4.2 1.6-5.3 4.8-1.2 18.7 4.2 23.1 6.5 5.2 20.8 10.4 26.7 8.4s2.6-2.5 2.6-2.5"/><path fill="currentColor" d="m78.2 118.2-.9 7.1c-1.8-1.3-3.4-2.2-4.8-2.2l.6-5.9c1.7.5 3.4.8 5.1 1"/><path d="M45.5 111h11c.3 0 .5.2.5.5s-.2.5-.5.5h-11c-.3 0-.5-.2-.5-.5s.2-.5.5-.5m-1 3h14c.3 0 .5.2.5.5s-.2.5-.5.5h-14c-.3 0-.5-.2-.5-.5s.2-.5.5-.5m0 3h17c.3 0 .5.2.5.5s-.2.5-.5.5h-17c-.3 0-.5-.2-.5-.5s.2-.5.5-.5m1 3h17c.3 0 .5.2.5.5s-.2.5-.5.5h-17c-.3 0-.5-.2-.5-.5s.2-.5.5-.5m1 3h17c.3 0 .5.2.5.5s-.2.5-.5.5h-17c-.3 0-.5-.2-.5-.5s.2-.5.5-.5m2 3h17c.3 0 .5.2.5.5s-.2.5-.5.5h-17c-.3 0-.5-.2-.5-.5s.2-.5.5-.5m2 3h15c.3 0 .5.2.5.5s-.2.5-.5.5h-15c-.3 0-.5-.2-.5-.5s.2-.5.5-.5m4 3h13c.3 0 .5.2.5.5s-.2.5-.5.5h-13c-.3 0-.5-.2-.5-.5s.2-.5.5-.5m5 3h9c.3 0 .5.2.5.5s-.2.5-.5.5h-9c-.3 0-.5-.2-.5-.5s.2-.5.5-.5"/><path d="M94.7 124.7c1.8-.2 2.5-.1 4.3-.7l3.2-11.8-4.3 2.4s-.7 10.2-3.2 10z" opacity=".1"/></svg>