<?xml version="1.0" encoding="utf-8"?>
<!-- Generator: Adobe Illustrator 16.0.0, SVG Export Plug-In . SVG Version: 6.00 Build 0)  -->
<!DOCTYPE svg PUBLIC "-//W3C//DTD SVG 1.1//EN" "http://www.w3.org/Graphics/SVG/1.1/DTD/svg11.dtd">
<svg version="1.1" id="Layer_1" xmlns="http://www.w3.org/2000/svg" xmlns:xlink="http://www.w3.org/1999/xlink" x="0px" y="0px"
	 width="160px" height="160px" viewBox="0 0 160 160" enable-background="new 0 0 160 160" xml:space="preserve">
<g id="a15">
	
		<path fill="#D8D8D8" stroke="#000000" stroke-width="1.67" stroke-linecap="round" stroke-linejoin="round" stroke-miterlimit="1.5" d="
		M122.427,74.89c4.835-2.067,0.372-14.868,2.555-15.735c2.72-1.082,12.097,16.639,7.256,25.852
		c-1.865,3.552-11.744,2.647-11.744,2.647L122.427,74.89z"/>
	
		<path fill="#E3E3E3" stroke="#000000" stroke-width="1.67" stroke-linecap="round" stroke-linejoin="round" stroke-miterlimit="1.5" d="
		M44.405,100.564l0.013,0.051c0,0-14.125,6.074-26.18-0.626c-7.433-4.133-0.789-24.769,1.649-24.336
		c3.369,0.599,1.089,8.916,4.343,10.744c3.308,1.857,15.436,0.908,16.669,0.807c0.014-0.004,0.028-0.008,0.043-0.012
		c1.992-0.504,4.37,2.086,5.306,5.782C47.172,96.625,46.346,99.996,44.405,100.564z"/>
	
		<path fill="#11AA11" stroke="#000000" stroke-width="1.67" stroke-linecap="round" stroke-linejoin="round" stroke-miterlimit="1.5" d="
		M48.088,79.592c0.242-0.177,0.502-0.3,0.784-0.364c2.644-0.601,6.007,4.26,7.505,10.85c1.499,6.59,0.569,12.429-2.075,13.029
		c-0.08,0.019-0.161,0.033-0.242,0.041c-1.998,0.818-13.422,4.828-16.285-9.306C35.67,83.455,41.831,82.08,48.088,79.592z"/>
	
		<path fill="#11AA11" stroke="#000000" stroke-width="1.67" stroke-linecap="round" stroke-linejoin="round" stroke-miterlimit="1.5" d="
		M118.702,72.066c3.063,0.472,5.666,4.715,5.984,10.019c0.345,5.755-2.129,10.59-5.522,10.792c-0.586,0.035-1.161-0.068-1.713-0.297
		c1.329-3.952,2.048-8.182,2.048-12.58C119.499,77.283,119.226,74.63,118.702,72.066z"/>
</g>
</svg>
