<?xml version="1.0" encoding="utf-8"?>
<!-- Generator: Adobe Illustrator 16.0.0, SVG Export Plug-In . SVG Version: 6.00 Build 0)  -->
<!DOCTYPE svg PUBLIC "-//W3C//DTD SVG 1.1//EN" "http://www.w3.org/Graphics/SVG/1.1/DTD/svg11.dtd">
<svg version="1.1" id="Layer_1" xmlns="http://www.w3.org/2000/svg" xmlns:xlink="http://www.w3.org/1999/xlink" x="0px" y="0px"
	 width="160px" height="160px" viewBox="0 0 160 160" enable-background="new 0 0 160 160" xml:space="preserve">
<g id="a7">
	
		<path id="STROKE_DEF86C5E.-7F1F.-40C1.-885D.-E9D6A99B4067" fill="none" stroke="#000000" stroke-width="1.7" stroke-linecap="round" stroke-linejoin="round" d="
		M59.441,85.379c-0.064-0.102-0.117-0.171-0.159-0.211c-0.042-0.037-0.089-0.086-0.14-0.143c-0.05-0.055-0.099-0.106-0.146-0.155
		c-0.047-0.05-0.092-0.093-0.136-0.13c-0.044-0.039-0.09-0.078-0.138-0.12c-0.048-0.042-0.098-0.089-0.151-0.14
		c-0.053-0.051-0.111-0.099-0.174-0.145s-0.121-0.094-0.174-0.145c-0.053-0.052-0.107-0.1-0.162-0.144
		c-0.057-0.045-0.117-0.093-0.185-0.142c-0.067-0.049-0.129-0.096-0.185-0.138c-0.056-0.044-0.122-0.088-0.2-0.134
		c-0.077-0.045-0.153-0.091-0.229-0.136c-0.076-0.046-0.153-0.091-0.23-0.138c-0.078-0.045-0.155-0.092-0.232-0.137
		c-0.077-0.046-0.163-0.09-0.255-0.133s-0.185-0.086-0.277-0.131c-0.092-0.043-0.181-0.086-0.267-0.128
		c-0.086-0.041-0.157-0.073-0.213-0.097c-0.056-0.021-0.122-0.047-0.199-0.078c-0.076-0.03-0.157-0.066-0.243-0.107
		c-0.086-0.043-0.173-0.081-0.26-0.115l-1.96-0.781c-0.057-0.022-0.14-0.052-0.249-0.088c-0.11-0.035-0.22-0.072-0.33-0.109
		c-0.111-0.036-0.216-0.066-0.314-0.094c-0.1-0.027-0.194-0.053-0.286-0.082c-0.091-0.029-0.18-0.053-0.266-0.072
		c-0.086-0.02-0.17-0.038-0.252-0.057c-0.082-0.017-0.165-0.035-0.252-0.055c-0.086-0.02-0.177-0.041-0.27-0.063
		c-0.093-0.022-0.19-0.047-0.289-0.073c-0.1-0.026-0.196-0.052-0.29-0.073c-0.094-0.021-0.188-0.045-0.281-0.066
		c-0.094-0.021-0.188-0.046-0.282-0.067c-0.093-0.022-0.187-0.044-0.279-0.065c-0.092-0.023-0.189-0.045-0.288-0.07
		c-0.1-0.025-0.203-0.053-0.31-0.081c-0.106-0.029-0.215-0.059-0.327-0.089c-0.112-0.029-0.222-0.054-0.331-0.076
		c-0.108-0.02-0.213-0.04-0.316-0.058c-0.102-0.018-0.205-0.034-0.309-0.048c-0.105-0.013-0.213-0.027-0.325-0.042
		c-0.113-0.015-0.221-0.029-0.325-0.042c-0.104-0.013-0.185-0.02-0.242-0.021c-0.058,0-0.117-0.004-0.179-0.015
		c-0.063-0.01-0.147-0.017-0.255-0.022c-0.107-0.005-0.19-0.009-0.248-0.011c-0.058-0.003-0.144-0.008-0.257-0.016
		c-0.114-0.008-0.227-0.016-0.34-0.026c-0.112-0.009-0.222-0.019-0.327-0.031C45,80.029,44.9,80.023,44.804,80.022
		c-0.095,0-0.192-0.006-0.29-0.017c-0.098-0.011-0.192-0.012-0.283-0.003c-0.091,0.009-0.18,0.014-0.267,0.014
		c-0.088,0.001-0.18,0.004-0.278,0.01s-0.195,0.008-0.289,0.006c-0.095-0.001-0.196,0.001-0.301,0.01
		c-0.106,0.008-0.188,0.013-0.245,0.013c-0.058-0.001-0.116-0.001-0.175-0.002c-0.06-0.001-0.117-0.002-0.174-0.002
		c-0.058-0.001-0.115-0.002-0.173-0.005c-0.058-0.002-0.144,0-0.256,0.008c-0.113,0.008-0.221,0.012-0.324,0.014
		c-0.104,0.002-0.204,0.007-0.301,0.013c-0.096,0.006-0.19,0.013-0.282,0.021c-0.091,0.006-0.18,0.018-0.266,0.034
		c-0.087,0.016-0.172,0.03-0.257,0.042c-0.085,0.011-0.17,0.024-0.259,0.041c-0.087,0.015-0.172,0.036-0.256,0.061
		c-0.083,0.025-0.165,0.047-0.246,0.067c-0.081,0.021-0.166,0.042-0.255,0.065c-0.089,0.022-0.18,0.041-0.273,0.054
		c-0.092,0.014-0.184,0.033-0.273,0.057c-0.09,0.024-0.186,0.045-0.289,0.063c-0.102,0.018-0.202,0.035-0.298,0.057
		c-0.096,0.02-0.195,0.037-0.297,0.055c-0.101,0.018-0.18,0.035-0.238,0.049c-0.058,0.015-0.142,0.033-0.251,0.055
		c-0.11,0.021-0.218,0.045-0.323,0.068c-0.105,0.023-0.207,0.05-0.306,0.078c-0.099,0.029-0.188,0.052-0.268,0.07
		c-0.081,0.018-0.16,0.041-0.237,0.068c-0.077,0.027-0.149,0.053-0.218,0.077c-0.068,0.022-0.137,0.046-0.206,0.071
		s-0.129,0.05-0.182,0.071c-0.052,0.022-0.109,0.048-0.171,0.075c-0.062,0.028-0.127,0.057-0.199,0.087
		c-0.07,0.03-0.141,0.06-0.211,0.09c-0.069,0.031-0.142,0.058-0.217,0.08s-0.146,0.045-0.215,0.069
		c-0.068,0.023-0.144,0.047-0.227,0.072c-0.083,0.024-0.162,0.047-0.236,0.068c-0.075,0.021-0.15,0.047-0.227,0.076
		s-0.147,0.053-0.213,0.07c-0.066,0.016-0.132,0.033-0.198,0.053c-0.067,0.018-0.132,0.036-0.196,0.054
		c-0.064,0.017-0.125,0.038-0.179,0.062c-0.054,0.022-0.107,0.045-0.16,0.068c-0.052,0.021-0.117,0.047-0.194,0.074
		c-0.077,0.027-0.145,0.053-0.204,0.073c-0.059,0.021-0.124,0.047-0.195,0.077c-0.071,0.029-0.14,0.057-0.207,0.08
		c-0.067,0.023-0.135,0.049-0.204,0.074c-0.069,0.024-0.141,0.047-0.216,0.068c-0.074,0.021-0.14,0.041-0.199,0.061
		c-0.058,0.021-0.117,0.041-0.176,0.063c-0.059,0.021-0.115,0.043-0.17,0.064c-0.053,0.021-0.106,0.045-0.16,0.068
		c-0.052,0.024-0.112,0.055-0.178,0.094c-0.065,0.041-0.13,0.08-0.19,0.122c-0.06,0.041-0.121,0.083-0.182,0.124
		c-0.063,0.041-0.119,0.082-0.171,0.121c-0.052,0.039-0.111,0.078-0.177,0.117c-0.066,0.039-0.124,0.074-0.173,0.105
		c-0.049,0.031-0.103,0.076-0.162,0.133s-0.112,0.105-0.157,0.145c-0.046,0.041-0.085,0.084-0.118,0.131
		c-0.032,0.047-0.071,0.09-0.117,0.131c-0.045,0.039-0.086,0.086-0.122,0.137s-0.076,0.097-0.12,0.138
		c-0.044,0.04-0.089,0.08-0.135,0.12c-0.045,0.04-0.092,0.084-0.141,0.132c-0.048,0.048-0.103,0.093-0.163,0.136
		c-0.061,0.041-0.117,0.076-0.173,0.104c-0.054,0.028-0.111,0.062-0.17,0.095c-0.059,0.035-0.119,0.067-0.181,0.094
		c-0.062,0.029-0.121,0.061-0.179,0.096c-0.057,0.035-0.114,0.066-0.169,0.096c-0.055,0.027-0.103,0.075-0.144,0.139
		c-0.041,0.064-0.086,0.113-0.136,0.146c-0.049,0.031-0.093,0.07-0.131,0.113s-0.087,0.093-0.146,0.149
		c-0.06,0.058-0.116,0.114-0.169,0.175c-0.053,0.059-0.113,0.116-0.18,0.17c-0.066,0.055-0.13,0.113-0.192,0.177
		c-0.063,0.063-0.121,0.132-0.178,0.204c-0.058,0.072-0.113,0.131-0.167,0.176c-0.054,0.044-0.104,0.089-0.153,0.136
		c-0.048,0.046-0.103,0.099-0.161,0.155c-0.06,0.057-0.103,0.111-0.132,0.167c-0.029,0.054-0.066,0.104-0.115,0.151
		c-0.048,0.045-0.095,0.09-0.141,0.131c-0.046,0.041-0.1,0.092-0.158,0.148c-0.059,0.057-0.116,0.115-0.169,0.174
		c-0.053,0.061-0.105,0.108-0.157,0.146c-0.051,0.037-0.1,0.076-0.145,0.115c-0.046,0.041-0.097,0.078-0.155,0.113
		c-0.057,0.035-0.122,0.079-0.193,0.131c-0.071,0.053-0.15,0.102-0.234,0.148c-0.085,0.047-0.154,0.082-0.208,0.105
		c-0.053,0.025-0.121,0.057-0.203,0.098c-0.082,0.04-0.165,0.084-0.25,0.13c-0.085,0.047-0.16,0.09-0.227,0.13
		c-0.066,0.039-0.127,0.084-0.184,0.135c-0.057,0.051-0.108,0.096-0.153,0.135c-0.045,0.041-0.088,0.082-0.128,0.127
		c-0.04,0.043-0.078,0.092-0.112,0.144c-0.035,0.052-0.072,0.118-0.111,0.198c-0.038,0.08-0.079,0.154-0.124,0.223
		c-0.042,0.068-0.076,0.133-0.099,0.191s-0.049,0.115-0.077,0.169c-0.029,0.054-0.055,0.11-0.077,0.165l-0.166,0.418
		c-0.028,0.07-0.059,0.139-0.093,0.205c-0.034,0.068-0.068,0.139-0.105,0.212c-0.036,0.073-0.067,0.142-0.092,0.204l-0.158,0.398
		c-0.024,0.063-0.054,0.125-0.087,0.186c-0.032,0.061-0.07,0.117-0.113,0.173c-0.044,0.056-0.086,0.116-0.127,0.181
		s-0.079,0.122-0.113,0.174c-0.035,0.053-0.069,0.111-0.103,0.179s-0.066,0.131-0.097,0.192c-0.032,0.06-0.063,0.117-0.092,0.17
		c-0.03,0.055-0.062,0.107-0.097,0.158c-0.034,0.053-0.066,0.106-0.096,0.162c-0.028,0.056-0.061,0.117-0.094,0.184
		c-0.034,0.068-0.068,0.135-0.103,0.201c-0.035,0.067-0.068,0.131-0.1,0.191c-0.031,0.061-0.066,0.123-0.106,0.188
		c-0.04,0.065-0.079,0.127-0.118,0.185c-0.038,0.058-0.073,0.116-0.104,0.177c-0.031,0.061-0.063,0.117-0.099,0.169
		c-0.034,0.052-0.066,0.105-0.095,0.159c-0.028,0.054-0.055,0.11-0.076,0.166c-0.023,0.057-0.051,0.115-0.083,0.176
		s-0.06,0.119-0.083,0.178l-0.355,0.891c-0.023,0.056-0.028,0.115-0.016,0.179c0.011,0.062,0.033,0.119,0.065,0.169
		c0.032,0.051,0.073,0.104,0.123,0.162c0.051,0.057,0.096,0.107,0.136,0.152c0.04,0.044,0.082,0.086,0.125,0.125
		c0.043,0.04,0.095,0.078,0.151,0.117c0.058,0.037,0.119,0.076,0.183,0.117c0.064,0.04,0.132,0.082,0.204,0.123
		c0.072,0.042,0.139,0.086,0.2,0.133c0.062,0.047,0.118,0.09,0.17,0.124c0.052,0.036,0.103,0.075,0.152,0.117
		c0.049,0.042,0.103,0.081,0.162,0.118c0.058,0.036,0.113,0.072,0.163,0.107c0.051,0.035,0.109,0.072,0.174,0.115
		c0.065,0.039,0.125,0.074,0.178,0.104c0.053,0.027,0.105,0.061,0.158,0.096c0.051,0.036,0.105,0.068,0.159,0.098
		c0.054,0.029,0.108,0.062,0.16,0.098c0.051,0.035,0.111,0.076,0.179,0.125c0.069,0.048,0.141,0.094,0.219,0.141
		c0.077,0.045,0.143,0.09,0.199,0.135c0.055,0.045,0.109,0.084,0.16,0.121c0.052,0.035,0.106,0.066,0.161,0.094
		c0.055,0.027,0.118,0.063,0.188,0.105c0.07,0.043,0.135,0.08,0.196,0.111c0.06,0.033,0.116,0.066,0.168,0.102
		c0.052,0.037,0.104,0.071,0.156,0.107c0.052,0.035,0.106,0.072,0.164,0.109c0.058,0.039,0.114,0.075,0.166,0.109
		c0.054,0.034,0.108,0.07,0.166,0.107c0.058,0.039,0.114,0.08,0.169,0.125c0.057,0.043,0.114,0.086,0.171,0.123
		c0.058,0.039,0.112,0.074,0.162,0.109c0.051,0.035,0.103,0.07,0.155,0.104c0.053,0.034,0.105,0.069,0.156,0.104
		s0.111,0.078,0.179,0.127c0.067,0.051,0.127,0.093,0.18,0.129c0.051,0.035,0.107,0.068,0.167,0.101
		c0.061,0.03,0.127,0.069,0.198,0.112c0.071,0.043,0.133,0.082,0.187,0.115c0.052,0.034,0.113,0.073,0.184,0.116
		c0.07,0.042,0.137,0.084,0.201,0.125c0.064,0.04,0.136,0.08,0.216,0.12c0.079,0.039,0.151,0.078,0.215,0.119
		c0.064,0.039,0.127,0.077,0.187,0.107c0.061,0.032,0.12,0.066,0.179,0.103c0.058,0.037,0.122,0.071,0.187,0.106
		c0.067,0.033,0.127,0.064,0.182,0.094c0.054,0.029,0.111,0.063,0.168,0.101c0.058,0.038,0.115,0.071,0.169,0.101
		c0.055,0.029,0.108,0.063,0.159,0.098c0.052,0.036,0.112,0.07,0.178,0.105c0.067,0.033,0.138,0.065,0.213,0.096l3,1.195
		c0.057,0.022,0.119,0.043,0.185,0.062c0.065,0.019,0.129,0.033,0.191,0.043c0.062,0.009,0.131,0.021,0.205,0.036
		c0.074,0.015,0.146,0.027,0.214,0.04c0.068,0.012,0.144,0.028,0.223,0.046c0.081,0.02,0.159,0.037,0.233,0.052
		c0.075,0.015,0.156,0.028,0.245,0.041c0.089,0.013,0.167,0.026,0.236,0.038c0.068,0.012,0.142,0.021,0.22,0.031
		c0.078,0.009,0.151,0.02,0.218,0.034c0.068,0.013,0.14,0.023,0.217,0.032c0.078,0.008,0.155,0.014,0.234,0.014
		c0.08,0.002,0.155,0.007,0.225,0.015c0.07,0.007,0.152,0.014,0.244,0.021c0.093,0.008,0.182,0.014,0.268,0.018
		c0.084,0.004,0.177,0.012,0.275,0.021c0.099,0.012,0.197,0.021,0.296,0.031s0.199,0.016,0.3,0.02
		c0.102,0.002,0.208,0.004,0.317,0.005c0.109,0,0.214,0.001,0.315,0.007c0.101,0.005,0.198,0.007,0.293,0.007
		c0.094,0,0.179-0.004,0.255-0.011c0.076-0.008,0.153-0.01,0.232-0.006c0.079,0.003,0.16,0.003,0.242-0.002
		c0.083-0.004,0.167-0.004,0.252,0.003c0.085,0.005,0.167,0.009,0.247,0.011c0.079,0.001,0.165,0.006,0.258,0.013
		s0.182,0.013,0.268,0.02c0.083,0.005,0.171,0.007,0.261,0.005c0.089-0.002,0.184,0,0.285,0.004
		c0.101,0.005,0.201,0.008,0.301,0.011c0.1,0.003,0.188,0,0.264-0.005c0.074-0.006,0.155-0.011,0.238-0.015
		c0.083-0.005,0.161-0.007,0.235-0.009c0.073,0,0.147-0.004,0.223-0.008c0.075-0.006,0.146-0.011,0.213-0.014
		c0.067-0.004,0.138-0.006,0.21-0.004c0.073,0.001,0.146,0.001,0.219,0c0.073,0,0.151-0.003,0.233-0.008
		c0.082-0.006,0.166-0.006,0.25,0.001c0.085,0.005,0.172,0.008,0.263,0.005c0.089-0.001,0.176-0.007,0.26-0.016
		c0.084-0.01,0.165-0.023,0.243-0.035c0.079-0.014,0.157-0.027,0.235-0.039s0.16-0.026,0.247-0.043
		c0.085-0.016,0.167-0.027,0.244-0.035c0.075-0.008,0.145-0.016,0.208-0.025c0.064-0.011,0.131-0.025,0.204-0.041
		c0.072-0.016,0.142-0.025,0.208-0.029c0.066-0.003,0.129-0.01,0.193-0.021c0.063-0.01,0.126-0.021,0.19-0.034
		c0.064-0.012,0.125-0.02,0.185-0.024c0.059-0.004,0.124-0.012,0.194-0.021c0.069-0.009,0.141-0.021,0.212-0.036
		c0.071-0.014,0.15-0.026,0.234-0.038c0.085-0.012,0.164-0.027,0.239-0.049c0.074-0.021,0.147-0.041,0.223-0.063
		c0.074-0.02,0.149-0.043,0.224-0.065c0.075-0.022,0.141-0.051,0.199-0.087c0.058-0.035,0.113-0.063,0.165-0.086
		c0.054-0.022,0.111-0.061,0.178-0.115c0.064-0.054,0.129-0.105,0.192-0.156c0.063-0.049,0.129-0.094,0.196-0.133
		s0.136-0.072,0.206-0.103c0.069-0.03,0.141-0.058,0.216-0.078c0.074-0.021,0.143-0.045,0.206-0.072
		c0.063-0.028,0.128-0.053,0.195-0.077c0.067-0.023,0.132-0.049,0.194-0.074s0.127-0.051,0.195-0.076
		c0.068-0.026,0.132-0.059,0.192-0.102c0.06-0.042,0.117-0.076,0.173-0.104c0.057-0.028,0.113-0.061,0.171-0.095
		c0.058-0.035,0.114-0.068,0.17-0.098c0.056-0.031,0.111-0.061,0.166-0.09c0.055-0.027,0.111-0.059,0.168-0.087
		c0.057-0.03,0.112-0.06,0.168-0.089c0.055-0.028,0.108-0.053,0.161-0.076c0.052-0.021,0.105-0.045,0.158-0.068
		s0.112-0.053,0.177-0.084c0.065-0.033,0.132-0.064,0.202-0.095c0.069-0.03,0.14-0.062,0.211-0.092
		c0.072-0.032,0.139-0.062,0.2-0.087c0.061-0.026,0.122-0.053,0.185-0.078c0.063-0.026,0.125-0.053,0.186-0.081
		c0.062-0.028,0.123-0.056,0.185-0.081c0.061-0.025,0.116-0.055,0.164-0.086c0.05-0.031,0.106-0.061,0.169-0.088
		c0.062-0.027,0.135-0.062,0.217-0.102c0.082-0.041,0.151-0.074,0.206-0.104s0.11-0.059,0.165-0.086
		c0.055-0.029,0.109-0.055,0.162-0.08c0.053-0.023,0.11-0.055,0.172-0.098c0.062-0.041,0.123-0.082,0.183-0.123
		s0.115-0.08,0.164-0.111c0.05-0.033,0.1-0.068,0.152-0.105c0.051-0.037,0.106-0.074,0.163-0.109
		c0.058-0.035,0.12-0.072,0.186-0.112c0.066-0.038,0.135-0.074,0.207-0.106c0.071-0.03,0.141-0.065,0.206-0.105
		c0.067-0.039,0.132-0.075,0.197-0.107c0.065-0.031,0.125-0.062,0.18-0.091c0.055-0.028,0.116-0.063,0.182-0.102
		c0.066-0.039,0.126-0.071,0.18-0.094c0.055-0.024,0.11-0.05,0.165-0.079c0.054-0.028,0.111-0.062,0.169-0.098
		c0.06-0.037,0.124-0.074,0.198-0.109c0.073-0.037,0.139-0.08,0.195-0.131c0.057-0.051,0.115-0.097,0.175-0.139
		c0.062-0.041,0.119-0.087,0.176-0.138c0.056-0.05,0.118-0.095,0.185-0.134c0.066-0.039,0.124-0.075,0.174-0.107
		c0.049-0.034,0.109-0.072,0.179-0.117s0.132-0.083,0.187-0.111c0.055-0.029,0.11-0.057,0.165-0.086
		c0.055-0.029,0.112-0.072,0.172-0.129c0.059-0.057,0.118-0.114,0.178-0.172c0.059-0.057,0.109-0.117,0.15-0.182
		c0.041-0.064,0.084-0.127,0.131-0.189c0.045-0.063,0.092-0.125,0.139-0.187c0.047-0.062,0.097-0.122,0.149-0.181
		c0.054-0.061,0.11-0.118,0.169-0.176c0.06-0.057,0.108-0.107,0.146-0.15s0.077-0.086,0.117-0.129
		c0.04-0.045,0.086-0.104,0.137-0.18c0.051-0.074,0.093-0.143,0.125-0.203c0.033-0.059,0.068-0.127,0.104-0.201
		c0.037-0.072,0.07-0.141,0.101-0.2c0.032-0.062,0.063-0.122,0.094-0.183c0.031-0.061,0.065-0.117,0.1-0.168
		c0.037-0.051,0.079-0.111,0.127-0.18c0.049-0.068,0.095-0.131,0.14-0.186c0.044-0.057,0.089-0.111,0.133-0.166
		c0.045-0.057,0.093-0.114,0.145-0.174s0.104-0.127,0.156-0.201c0.053-0.075,0.096-0.139,0.131-0.19
		c0.034-0.052,0.07-0.104,0.105-0.155c0.037-0.051,0.072-0.103,0.106-0.154c0.035-0.051,0.07-0.104,0.106-0.154
		s0.071-0.102,0.103-0.146c0.033-0.048,0.064-0.099,0.092-0.152c0.029-0.055,0.063-0.113,0.105-0.178
		c0.041-0.064,0.08-0.125,0.117-0.185c0.037-0.058,0.074-0.124,0.111-0.196c0.036-0.074,0.069-0.149,0.1-0.225
		c0.031-0.077,0.063-0.148,0.097-0.215c0.033-0.068,0.069-0.131,0.108-0.188c0.038-0.059,0.077-0.119,0.117-0.186
		c0.04-0.063,0.08-0.117,0.119-0.158c0.04-0.044,0.078-0.094,0.115-0.152s0.075-0.115,0.114-0.174
		c0.038-0.058,0.073-0.116,0.104-0.178c0.031-0.061,0.059-0.123,0.085-0.186l0.223-0.561c0.023-0.059,0.049-0.113,0.078-0.169
		c0.028-0.054,0.058-0.11,0.089-0.172c0.032-0.062,0.067-0.112,0.106-0.155c0.039-0.041,0.077-0.088,0.111-0.141
		c0.035-0.053,0.084-0.105,0.15-0.159c0.066-0.055,0.127-0.097,0.183-0.127c0.057-0.03,0.109-0.067,0.156-0.115
		c0.047-0.047,0.091-0.095,0.133-0.144s0.086-0.093,0.131-0.133c0.046-0.041,0.089-0.086,0.13-0.135
		c0.04-0.049,0.073-0.105,0.098-0.169c0.025-0.063,0.051-0.126,0.076-0.188c0.025-0.063,0.032-0.127,0.021-0.192
		c-0.011-0.063-0.024-0.124-0.038-0.18c-0.014-0.056-0.028-0.114-0.042-0.169c-0.014-0.057-0.037-0.109-0.068-0.16
		c-0.03-0.049-0.067-0.104-0.109-0.163s-0.087-0.122-0.135-0.187c-0.046-0.063-0.088-0.125-0.124-0.182s-0.068-0.109-0.1-0.16
		s-0.068-0.109-0.107-0.174c-0.04-0.068-0.08-0.124-0.119-0.169c-0.039-0.046-0.077-0.098-0.113-0.155s-0.08-0.114-0.13-0.172
		c-0.05-0.058-0.104-0.115-0.161-0.174c-0.056-0.059-0.118-0.123-0.185-0.195c-0.066-0.071-0.133-0.135-0.199-0.188
		c-0.066-0.054-0.132-0.109-0.198-0.166c-0.066-0.056-0.132-0.112-0.195-0.168c-0.065-0.056-0.134-0.114-0.203-0.179
		c-0.07-0.064-0.149-0.133-0.237-0.205c-0.088-0.072-0.157-0.129-0.207-0.168c-0.05-0.041-0.105-0.086-0.167-0.133
		s-0.126-0.095-0.193-0.144c-0.068-0.05-0.142-0.103-0.223-0.156c-0.08-0.055-0.165-0.11-0.252-0.165
		c-0.088-0.056-0.177-0.117-0.267-0.183c-0.09-0.065-0.187-0.13-0.286-0.192c-0.101-0.063-0.207-0.127-0.32-0.191
		c-0.113-0.066-0.227-0.138-0.343-0.213c-0.116-0.076-0.249-0.156-0.398-0.237c-0.15-0.083-0.3-0.164-0.451-0.245
		c-0.15-0.08-0.331-0.17-0.54-0.268c-0.21-0.1-0.422-0.198-0.638-0.299l-0.323-0.152"/>
	
		<path id="STROKE_6399479B.-68CC.-43E3.-B8D5.-FE55FF563081" fill="none" stroke="#000000" stroke-width="1.7" stroke-linecap="round" stroke-linejoin="round" d="
		M50.216,81.806c0.016-0.114-0.001-0.184-0.051-0.212c-0.05-0.027-0.089-0.014-0.119,0.043c-0.029,0.057-0.06,0.123-0.091,0.203
		c-0.031,0.077-0.061,0.148-0.086,0.214c-0.026,0.065-0.05,0.136-0.072,0.21c-0.023,0.072-0.038,0.158-0.045,0.254
		c-0.008,0.096-0.01,0.186-0.006,0.271c0.003,0.084,0.009,0.166,0.016,0.244c0.007,0.078,0.011,0.163,0.012,0.254
		c0.001,0.092,0.011,0.184,0.028,0.272c0.018,0.091,0.032,0.179,0.042,0.267c0.011,0.088,0.027,0.181,0.048,0.279
		c0.021,0.1,0.039,0.198,0.053,0.295c0.014,0.097,0.029,0.189,0.044,0.279c0.017,0.09,0.037,0.181,0.061,0.274
		c0.024,0.092,0.047,0.188,0.068,0.288c0.021,0.099,0.044,0.201,0.069,0.309c0.024,0.106,0.05,0.211,0.078,0.313
		c0.027,0.102,0.052,0.181,0.075,0.236c0.023,0.055,0.052,0.135,0.085,0.24c0.034,0.104,0.068,0.201,0.1,0.289
		c0.033,0.089,0.065,0.173,0.094,0.252c0.029,0.08,0.061,0.152,0.096,0.218c0.035,0.065,0.072,0.133,0.11,0.202
		c0.041,0.066,0.077,0.135,0.111,0.203c0.034,0.068,0.07,0.131,0.107,0.191c0.037,0.059,0.074,0.127,0.11,0.203
		c0.038,0.076,0.076,0.156,0.118,0.242c0.041,0.084,0.084,0.176,0.129,0.276c0.043,0.101,0.087,0.198,0.134,0.292
		c0.045,0.094,0.091,0.188,0.136,0.281c0.046,0.093,0.092,0.183,0.141,0.27c0.048,0.087,0.095,0.166,0.143,0.236
		c0.047,0.072,0.088,0.138,0.125,0.198c0.038,0.062,0.072,0.116,0.104,0.167c0.032,0.05,0.071,0.103,0.117,0.16
		c0.045,0.057,0.09,0.115,0.134,0.178c0.043,0.062,0.088,0.129,0.135,0.201c0.046,0.074,0.09,0.135,0.13,0.188
		c0.04,0.054,0.077,0.108,0.113,0.17c0.035,0.062,0.073,0.116,0.113,0.17c0.04,0.052,0.079,0.106,0.117,0.159
		c0.038,0.054,0.077,0.107,0.117,0.16s0.081,0.104,0.122,0.15c0.042,0.049,0.09,0.101,0.142,0.158
		c0.053,0.059,0.108,0.114,0.17,0.169c0.061,0.056,0.116,0.116,0.165,0.183c0.049,0.065,0.094,0.125,0.134,0.178
		s0.084,0.111,0.134,0.178c0.049,0.066,0.093,0.133,0.133,0.201c0.039,0.068,0.087,0.139,0.141,0.215
		c0.055,0.072,0.111,0.151,0.167,0.232c0.057,0.084,0.116,0.16,0.178,0.231s0.111,0.13,0.146,0.175
		c0.036,0.045,0.085,0.103,0.147,0.172c0.063,0.068,0.124,0.135,0.183,0.197s0.123,0.121,0.191,0.178
		c0.067,0.056,0.13,0.106,0.187,0.152c0.057,0.047,0.106,0.094,0.148,0.141c0.042,0.048,0.08,0.097,0.112,0.146
		c0.033,0.049,0.063,0.104,0.092,0.161l0.044,0.087"/>
	
		<path id="STROKE_3D9C0E1E.-DC78.-4EA1.-B3BF.-1710E1D0F1AB" fill="none" stroke="#000000" stroke-width="1.7" stroke-linecap="round" stroke-linejoin="round" d="
		M45.134,80.693c-0.119,0.072-0.2,0.135-0.245,0.185c-0.042,0.051-0.083,0.114-0.121,0.19c-0.038,0.076-0.069,0.146-0.095,0.212
		l-0.147,0.37c-0.026,0.065-0.049,0.131-0.068,0.199c-0.02,0.067-0.033,0.139-0.039,0.211c-0.005,0.074-0.013,0.16-0.024,0.264
		c-0.01,0.102-0.018,0.197-0.021,0.287c-0.005,0.088-0.011,0.178-0.017,0.266c-0.006,0.089-0.01,0.182-0.013,0.279
		c-0.001,0.099-0.001,0.193,0.001,0.282c0.001,0.091,0.009,0.179,0.021,0.267c0.011,0.088,0.02,0.16,0.026,0.217
		c0.007,0.057,0.014,0.132,0.023,0.227c0.009,0.094,0.022,0.187,0.038,0.276c0.017,0.09,0.03,0.179,0.04,0.267
		c0.011,0.086,0.021,0.174,0.034,0.263c0.011,0.087,0.023,0.179,0.038,0.276c0.014,0.096,0.028,0.191,0.042,0.285
		c0.015,0.096,0.026,0.172,0.034,0.229c0.007,0.057,0.021,0.138,0.039,0.245c0.019,0.105,0.036,0.213,0.051,0.324
		c0.016,0.111,0.027,0.195,0.035,0.252c0.008,0.058,0.015,0.134,0.023,0.228c0.007,0.093,0.02,0.187,0.038,0.276
		c0.018,0.09,0.028,0.178,0.032,0.262s0.013,0.168,0.026,0.248c0.013,0.08,0.027,0.158,0.042,0.231
		c0.016,0.074,0.035,0.149,0.058,0.228c0.023,0.076,0.044,0.156,0.064,0.24c0.019,0.082,0.043,0.164,0.072,0.242
		c0.03,0.08,0.058,0.16,0.086,0.238c0.029,0.079,0.056,0.161,0.083,0.247c0.026,0.086,0.054,0.17,0.083,0.251
		c0.028,0.081,0.058,0.166,0.09,0.254c0.032,0.088,0.062,0.172,0.092,0.251c0.028,0.081,0.06,0.156,0.092,0.228
		c0.032,0.074,0.064,0.143,0.098,0.209c0.033,0.064,0.06,0.129,0.08,0.191c0.02,0.063,0.045,0.125,0.073,0.188
		c0.028,0.064,0.057,0.126,0.086,0.184c0.029,0.059,0.061,0.12,0.096,0.186c0.035,0.066,0.074,0.138,0.119,0.215
		c0.044,0.079,0.091,0.16,0.139,0.248c0.048,0.086,0.094,0.17,0.138,0.25c0.044,0.078,0.09,0.15,0.14,0.215
		c0.05,0.064,0.095,0.131,0.136,0.199s0.08,0.134,0.117,0.195c0.037,0.061,0.074,0.117,0.113,0.17
		c0.038,0.051,0.073,0.106,0.103,0.166c0.031,0.058,0.066,0.121,0.105,0.189c0.04,0.068,0.081,0.133,0.124,0.197
		c0.044,0.064,0.09,0.127,0.14,0.191c0.049,0.064,0.091,0.123,0.125,0.174c0.033,0.053,0.069,0.113,0.109,0.18
		c0.04,0.068,0.082,0.142,0.128,0.221c0.046,0.078,0.092,0.152,0.138,0.227c0.047,0.072,0.096,0.148,0.146,0.229
		c0.051,0.08,0.097,0.155,0.138,0.223c0.041,0.069,0.086,0.137,0.135,0.203c0.049,0.064,0.101,0.135,0.154,0.209
		c0.053,0.073,0.105,0.143,0.155,0.206c0.05,0.065,0.104,0.128,0.163,0.19c0.058,0.062,0.118,0.127,0.18,0.195
		c0.063,0.07,0.129,0.143,0.198,0.215c0.069,0.074,0.139,0.148,0.208,0.221c0.069,0.072,0.126,0.129,0.169,0.168
		c0.044,0.042,0.083,0.085,0.119,0.13c0.037,0.045,0.074,0.091,0.116,0.136c0.041,0.045,0.085,0.096,0.13,0.152
		c0.046,0.059,0.093,0.111,0.142,0.16c0.049,0.047,0.096,0.101,0.141,0.158c0.046,0.056,0.096,0.111,0.151,0.164
		c0.054,0.052,0.108,0.107,0.16,0.164c0.053,0.059,0.106,0.113,0.161,0.166c0.054,0.053,0.109,0.104,0.164,0.155
		s0.107,0.103,0.155,0.152c0.049,0.05,0.1,0.101,0.154,0.153c0.055,0.053,0.108,0.101,0.16,0.143
		c0.051,0.042,0.102,0.084,0.151,0.127c0.05,0.043,0.098,0.082,0.146,0.116c0.047,0.035,0.094,0.069,0.141,0.103
		c0.048,0.034,0.114,0.076,0.199,0.125l0.127,0.075"/>
	
		<path id="STROKE_7F745804.-F975.-44A2.-8DB6.-F7B27CA4344B" fill="none" stroke="#000000" stroke-width="1.7" stroke-linecap="round" stroke-linejoin="round" d="
		M29.789,85.671c-0.062,0.157-0.106,0.269-0.132,0.333s-0.052,0.138-0.077,0.219s-0.054,0.164-0.088,0.25
		c-0.034,0.086-0.066,0.174-0.097,0.27c-0.03,0.094-0.059,0.188-0.088,0.281c-0.027,0.092-0.05,0.168-0.064,0.223
		c-0.015,0.057-0.033,0.141-0.055,0.252c-0.021,0.111-0.033,0.199-0.039,0.266c-0.004,0.066-0.008,0.133-0.011,0.199
		s-0.009,0.137-0.017,0.211s-0.008,0.15-0.002,0.229c0.007,0.077,0.009,0.158,0.007,0.24c-0.003,0.082,0,0.172,0.008,0.264
		c0.007,0.095,0.016,0.188,0.025,0.281c0.01,0.092,0.017,0.182,0.021,0.266c0.004,0.086,0.012,0.188,0.024,0.307
		c0.012,0.119,0.024,0.23,0.036,0.334c0.013,0.104,0.028,0.208,0.045,0.314c0.018,0.104,0.036,0.21,0.055,0.314
		c0.02,0.104,0.038,0.209,0.056,0.314c0.017,0.106,0.036,0.201,0.056,0.285c0.021,0.082,0.042,0.178,0.068,0.287
		c0.025,0.109,0.049,0.209,0.072,0.301c0.023,0.094,0.046,0.178,0.069,0.255s0.049,0.163,0.08,0.258
		c0.03,0.096,0.056,0.183,0.078,0.259c0.022,0.075,0.046,0.158,0.073,0.244c0.026,0.086,0.052,0.172,0.078,0.26
		c0.024,0.086,0.053,0.174,0.085,0.262c0.033,0.09,0.065,0.182,0.095,0.276c0.03,0.095,0.062,0.187,0.095,0.276
		c0.033,0.089,0.071,0.183,0.113,0.283c0.043,0.101,0.085,0.203,0.125,0.311c0.04,0.107,0.08,0.213,0.121,0.319
		c0.041,0.104,0.087,0.208,0.137,0.312c0.05,0.104,0.1,0.207,0.149,0.309c0.049,0.104,0.1,0.203,0.153,0.3
		c0.053,0.097,0.106,0.19,0.16,0.282c0.055,0.091,0.104,0.175,0.147,0.253c0.045,0.077,0.09,0.155,0.134,0.233
		c0.044,0.077,0.089,0.154,0.134,0.232c0.044,0.078,0.087,0.152,0.127,0.222c0.04,0.07,0.081,0.14,0.121,0.208
		c0.041,0.069,0.083,0.135,0.125,0.198c0.041,0.062,0.082,0.124,0.118,0.183c0.037,0.059,0.074,0.119,0.112,0.178
		c0.037,0.061,0.074,0.119,0.109,0.181s0.07,0.124,0.105,0.19c0.035,0.065,0.073,0.131,0.116,0.193
		c0.043,0.064,0.085,0.13,0.126,0.197c0.041,0.07,0.086,0.136,0.136,0.201c0.051,0.063,0.099,0.133,0.146,0.205
		c0.046,0.072,0.092,0.137,0.137,0.191c0.044,0.055,0.092,0.114,0.141,0.182c0.049,0.066,0.1,0.127,0.153,0.185
		c0.052,0.058,0.1,0.118,0.144,0.183c0.043,0.063,0.091,0.123,0.143,0.182c0.052,0.057,0.103,0.111,0.151,0.16
		c0.048,0.051,0.096,0.102,0.145,0.151c0.048,0.05,0.095,0.104,0.142,0.158l0.069,0.083"/>
	
		<path id="STROKE_DC80E2EB.-E94E.-4DD8.-936E.-DB94627C8D59" fill="none" stroke="#000000" stroke-width="1.7" stroke-linecap="round" stroke-linejoin="round" d="
		M24.661,89.166c-0.123-0.033-0.205-0.016-0.246,0.051c-0.041,0.067-0.073,0.129-0.097,0.188c-0.023,0.058-0.05,0.126-0.081,0.204
		c-0.032,0.08-0.059,0.156-0.081,0.23s-0.031,0.16-0.025,0.259c0.005,0.099,0.011,0.208,0.017,0.324s0.015,0.207,0.027,0.272
		c0.012,0.063,0.021,0.136,0.028,0.214c0.006,0.077,0.012,0.157,0.018,0.237c0.005,0.08,0.017,0.16,0.031,0.24
		c0.014,0.082,0.028,0.169,0.043,0.265c0.014,0.094,0.03,0.187,0.046,0.276c0.017,0.09,0.032,0.184,0.047,0.28
		c0.017,0.097,0.031,0.19,0.048,0.28c0.016,0.09,0.03,0.178,0.04,0.265c0.01,0.088,0.028,0.187,0.053,0.294
		c0.025,0.109,0.048,0.213,0.069,0.313c0.021,0.1,0.042,0.198,0.064,0.299c0.022,0.099,0.045,0.199,0.072,0.301
		c0.026,0.102,0.056,0.197,0.089,0.285c0.033,0.089,0.063,0.191,0.092,0.311c0.029,0.117,0.063,0.227,0.107,0.326
		c0.043,0.1,0.085,0.203,0.127,0.309c0.042,0.106,0.082,0.215,0.12,0.329c0.037,0.114,0.078,0.228,0.122,0.345
		c0.043,0.117,0.092,0.23,0.146,0.343c0.054,0.112,0.11,0.229,0.167,0.351c0.058,0.122,0.115,0.243,0.173,0.365
		c0.057,0.122,0.118,0.244,0.183,0.366s0.13,0.243,0.196,0.36s0.137,0.232,0.213,0.346c0.075,0.113,0.149,0.229,0.222,0.35
		c0.072,0.12,0.154,0.248,0.244,0.381c0.09,0.136,0.18,0.262,0.269,0.381c0.089,0.118,0.176,0.24,0.261,0.365
		c0.086,0.125,0.178,0.252,0.277,0.383c0.099,0.131,0.199,0.258,0.301,0.381c0.101,0.123,0.198,0.241,0.29,0.354
		s0.197,0.237,0.317,0.376c0.119,0.138,0.23,0.267,0.334,0.383c0.105,0.117,0.206,0.224,0.301,0.323
		c0.096,0.098,0.195,0.197,0.299,0.299c0.103,0.102,0.204,0.198,0.304,0.292c0.099,0.095,0.194,0.177,0.286,0.25
		c0.091,0.073,0.179,0.146,0.264,0.22c0.084,0.072,0.168,0.135,0.253,0.189c0.084,0.055,0.169,0.107,0.255,0.156
		c0.086,0.051,0.17,0.095,0.251,0.136c0.081,0.04,0.164,0.077,0.25,0.11l0.342,0.137"/>
	
		<path id="STROKE_EE38FDCA.-5B6D.-48C6.-AF0F.-F432E15643A8" fill="none" stroke="#000000" stroke-width="1.7" stroke-linecap="round" stroke-linejoin="round" d="
		M37.664,103.715c-0.115-0.046-0.203-0.07-0.263-0.072c-0.06-0.003-0.122-0.018-0.188-0.043l-1.798-0.717
		c-0.079-0.031-0.153-0.07-0.224-0.121c-0.07-0.049-0.141-0.107-0.213-0.175s-0.129-0.125-0.171-0.172
		c-0.042-0.048-0.102-0.125-0.18-0.232c-0.079-0.105-0.135-0.188-0.171-0.247c-0.036-0.06-0.072-0.119-0.109-0.181
		c-0.037-0.062-0.075-0.125-0.116-0.194c-0.042-0.068-0.078-0.135-0.112-0.201c-0.033-0.066-0.067-0.131-0.102-0.199
		c-0.034-0.068-0.064-0.133-0.091-0.196l-0.041-0.095"/>
	
		<path id="STROKE_AC02290E.-EB1B.-44CD.-9BCB.-2CD575D4189C" fill="none" stroke="#000000" stroke-width="1.7" stroke-linecap="round" stroke-linejoin="round" d="
		M41.42,87.58c-0.145-0.059-0.246-0.098-0.304-0.121c-0.058-0.023-0.125-0.047-0.2-0.068c-0.075-0.021-0.152-0.037-0.231-0.045
		c-0.081-0.01-0.153-0.015-0.22-0.02c-0.067-0.002-0.138-0.004-0.213-0.006c-0.075,0-0.156,0.005-0.244,0.016
		c-0.087,0.014-0.167,0.023-0.238,0.031c-0.071,0.008-0.143,0.017-0.216,0.027c-0.072,0.01-0.142,0.017-0.21,0.02
		c-0.068,0.004-0.137,0.007-0.207,0.009c-0.069,0.003-0.135,0.005-0.198,0.011c-0.063,0.007-0.132,0.017-0.206,0.031
		c-0.074,0.016-0.142,0.034-0.203,0.057c-0.062,0.021-0.131,0.047-0.211,0.074c-0.079,0.029-0.148,0.051-0.206,0.064
		s-0.119,0.035-0.185,0.063c-0.064,0.028-0.126,0.053-0.188,0.073c-0.06,0.021-0.123,0.037-0.189,0.049
		c-0.066,0.013-0.128,0.026-0.186,0.04c-0.057,0.014-0.118,0.023-0.181,0.029s-0.137,0.011-0.222,0.016
		c-0.085,0.006-0.171,0.014-0.257,0.023c-0.087,0.01-0.159,0.019-0.216,0.027c-0.058,0.008-0.124,0.026-0.203,0.056
		c-0.079,0.028-0.156,0.062-0.231,0.099c-0.076,0.038-0.145,0.078-0.207,0.121c-0.063,0.043-0.122,0.08-0.181,0.111
		c-0.059,0.029-0.115,0.057-0.169,0.08c-0.054,0.022-0.115,0.043-0.181,0.061c-0.067,0.018-0.129,0.032-0.186,0.04
		c-0.057,0.008-0.115,0.021-0.173,0.036c-0.059,0.016-0.117,0.029-0.176,0.043c-0.059,0.014-0.116,0.032-0.171,0.057
		c-0.055,0.024-0.109,0.048-0.163,0.071c-0.054,0.022-0.114,0.06-0.179,0.108c-0.064,0.05-0.123,0.102-0.175,0.156
		c-0.052,0.056-0.103,0.106-0.153,0.154c-0.049,0.048-0.101,0.092-0.155,0.133c-0.054,0.04-0.112,0.074-0.175,0.102
		s-0.13,0.053-0.201,0.076c-0.07,0.024-0.133,0.05-0.188,0.074l-0.082,0.036"/>
	
		<path id="STROKE_C6647A46.-0F0C.-49A6.-92D2.-50B67D6FDE31" fill="none" stroke="#000000" stroke-width="1.7" stroke-linecap="round" stroke-linejoin="round" d="
		M39.025,84.542c-0.041,0.183-0.055,0.315-0.045,0.403c0.01,0.087,0.022,0.178,0.036,0.275c0.014,0.096,0.027,0.195,0.041,0.297
		c0.012,0.103,0.021,0.186,0.027,0.25c0.005,0.063,0.009,0.126,0.014,0.188c0.004,0.062,0.006,0.123,0.006,0.183
		c-0.001,0.06-0.001,0.128-0.001,0.204c0.001,0.075,0.001,0.15,0.001,0.227c0.001,0.074,0.003,0.156,0.007,0.24
		c0.003,0.084,0.008,0.169,0.012,0.254c0.004,0.086,0.005,0.176,0.004,0.273c-0.002,0.1,0.001,0.188,0.008,0.266
		c0.006,0.078,0.012,0.167,0.017,0.269c0.005,0.101,0.012,0.194,0.023,0.282c0.01,0.086,0.019,0.176,0.026,0.271
		c0.008,0.094,0.021,0.187,0.038,0.276c0.018,0.09,0.037,0.178,0.056,0.261s0.035,0.165,0.048,0.246
		c0.013,0.08,0.029,0.161,0.05,0.246c0.02,0.083,0.04,0.167,0.059,0.249c0.02,0.084,0.037,0.162,0.052,0.235
		c0.015,0.074,0.034,0.153,0.054,0.237c0.02,0.083,0.039,0.159,0.057,0.229c0.017,0.068,0.032,0.135,0.043,0.2
		c0.013,0.065,0.025,0.126,0.041,0.185l0.021,0.087"/>
	
		<path id="STROKE_6D4A826F.-0836.-4A61.-9DA4.-C3AC7643442C" fill="none" stroke="#000000" stroke-width="1.7" stroke-linecap="round" stroke-linejoin="round" d="
		M36.069,85.658c0.058,0.158,0.094,0.277,0.107,0.358c0.013,0.081,0.023,0.169,0.031,0.263c0.007,0.094,0.011,0.17,0.01,0.229
		c0,0.06,0.001,0.121,0.006,0.183c0.004,0.062,0.009,0.123,0.015,0.187c0.006,0.062,0.013,0.13,0.021,0.202
		c0.009,0.074,0.023,0.145,0.043,0.211c0.019,0.068,0.035,0.143,0.048,0.223c0.013,0.081,0.031,0.168,0.054,0.26
		s0.042,0.176,0.059,0.25s0.038,0.162,0.065,0.265c0.026,0.101,0.05,0.202,0.071,0.301c0.022,0.099,0.047,0.197,0.078,0.292
		c0.03,0.096,0.058,0.197,0.083,0.306c0.025,0.108,0.049,0.214,0.077,0.315c0.025,0.102,0.051,0.199,0.075,0.291
		c0.024,0.094,0.049,0.193,0.075,0.3c0.025,0.106,0.048,0.202,0.066,0.285c0.02,0.083,0.042,0.169,0.068,0.255
		c0.026,0.09,0.047,0.17,0.063,0.244s0.033,0.144,0.051,0.211l0.028,0.102"/>
	
		<path id="STROKE_86672205.-55C8.-4988.-A116.-D56A64E4EA18" fill="none" stroke="#000000" stroke-width="1.7" stroke-linecap="round" stroke-linejoin="round" d="
		M33.048,86.585c0.089,0.155,0.144,0.265,0.166,0.325s0.045,0.127,0.069,0.198c0.023,0.071,0.054,0.156,0.091,0.255
		c0.036,0.097,0.07,0.201,0.101,0.313c0.032,0.111,0.067,0.23,0.108,0.359c0.04,0.128,0.081,0.271,0.122,0.432
		c0.041,0.159,0.087,0.314,0.141,0.465c0.053,0.151,0.1,0.299,0.142,0.443c0.042,0.144,0.089,0.307,0.145,0.486
		c0.056,0.182,0.114,0.357,0.176,0.526c0.061,0.171,0.12,0.337,0.174,0.502c0.055,0.165,0.114,0.331,0.176,0.499l0.093,0.252"/>
</g>
</svg>
